<svg width="50" height="47" viewBox="0 0 50 47" fill="none" xmlns="http://www.w3.org/2000/svg">
<path d="M37.5583 36.1137C37.5583 35.8802 37.6541 35.6435 37.8454 35.4642C38.2284 35.1053 38.8491 35.1053 39.2321 35.4642L42.6797 38.6908C43.0588 39.0497 43.0667 39.6312 42.6797 39.9901C42.2967 40.349 41.676 40.349 41.293 39.9901L37.8454 36.7635C37.6537 36.5839 37.5583 36.3509 37.5583 36.1141L37.5583 36.1137Z" fill="#FFFAEE"/>
<path d="M39.3894 29.5025C39.3894 29.3841 39.4124 29.2658 39.4623 29.1544C39.6691 28.6842 40.2438 28.4582 40.7417 28.6519L47.2155 31.15C47.7213 31.3437 47.9546 31.8892 47.7518 32.3487C47.545 32.8189 46.9703 33.0449 46.4724 32.8512L39.9986 30.3532C39.6196 30.2058 39.3894 29.8651 39.3894 29.5025Z" fill="#FFFAEE"/>
<path d="M30.7192 28.7845C31.1009 28.4269 31.7242 28.4264 32.1059 28.7845L34.4734 31.0027C34.8551 31.3604 34.8551 31.9444 34.4734 32.3021C34.0917 32.6597 33.4683 32.6597 33.0867 32.3021L30.7192 30.0838C30.3375 29.7262 30.3375 29.1421 30.7192 28.7845Z" fill="#FFFAEE"/>
<path d="M43.1662 23.4258C43.1662 22.9195 43.6066 22.5068 44.1469 22.5068L49.0192 22.5068C49.5595 22.5068 50 22.9195 50 23.4258C50 23.932 49.5595 24.3447 49.0192 24.3447L44.1469 24.3447C43.6066 24.3447 43.1662 23.932 43.1662 23.4258Z" fill="#FFFAEE"/>
<path d="M39.4738 17.5399C39.4738 17.181 39.7 16.8399 40.079 16.693L46.5183 14.1804C47.0162 13.983 47.591 14.2057 47.7977 14.6759C48.0085 15.1461 47.7708 15.6772 47.2689 15.8746L40.8296 18.3872C40.3317 18.5846 39.757 18.3619 39.5502 17.8917C39.4968 17.777 39.4738 17.6582 39.4738 17.5399Z" fill="#FFFAEE"/>
<path d="M37.5583 10.7384C37.5583 10.5017 37.6541 10.2682 37.8454 10.089L41.293 6.86242C41.6761 6.50354 42.2967 6.50354 42.6798 6.86242C43.0628 7.2213 43.0588 7.80618 42.6798 8.16174L39.2322 11.3883C38.8491 11.7472 38.2284 11.7472 37.8454 11.3883C37.6537 11.2087 37.5583 10.9719 37.5583 10.7389L37.5583 10.7384Z" fill="#FFFAEE"/>
<path d="M30.5062 9.02664C30.5062 8.90825 30.5292 8.78987 30.5791 8.67852L33.2452 2.60949C33.452 2.13927 34.0267 1.91327 34.5246 2.10698C35.0305 2.3007 35.2717 2.84626 35.0609 3.30572L32.3948 9.37475C32.1881 9.84497 31.6133 10.071 31.1155 9.87726C30.7364 9.7299 30.5062 9.38924 30.5062 9.02664Z" fill="#FFFAEE"/>
<path d="M30.7192 16.7705L33.0867 14.5522C33.4688 14.1942 34.0917 14.1942 34.4734 14.5522C34.8551 14.9103 34.8551 15.4939 34.4734 15.8516L32.1059 18.0698C31.7238 18.4278 31.1009 18.4278 30.7192 18.0698C30.3375 17.7117 30.3371 17.1281 30.7192 16.7705Z" fill="#FFFAEE"/>
<path d="M24.0215 5.48415L24.0215 0.918922C24.0215 0.412687 24.4619 -6.23005e-08 25.0022 -4.01705e-08C25.5425 -1.80405e-08 25.9829 0.412687 25.9829 0.918922L25.9829 5.48415C25.9829 5.99038 25.5425 6.40307 25.0022 6.40307C24.4619 6.40307 24.0215 5.99038 24.0215 5.48415Z" fill="#FFFAEE"/>
<path d="M15.0539 2.91452C15.0539 2.55564 15.2801 2.21456 15.6591 2.06762C16.157 1.87017 16.7317 2.09287 16.9385 2.56309L19.6201 8.59652C19.8348 9.05598 19.5931 9.60154 19.0913 9.79526C18.5934 9.9927 18.0186 9.77001 17.8119 9.29978L15.1303 3.26635C15.0769 3.1517 15.0539 3.0329 15.0539 2.91452Z" fill="#FFFAEE"/>
<path d="M7.03657 7.51187C7.03657 7.27511 7.13244 7.04165 7.32372 6.86242C7.70674 6.50354 8.32743 6.50354 8.71045 6.86242L12.1541 10.089C12.5371 10.4479 12.5371 11.0294 12.1541 11.3883C11.7711 11.7472 11.1504 11.7472 10.7674 11.3883L7.32372 8.16174C7.13199 7.9821 7.03657 7.74906 7.03657 7.51229L7.03657 7.51187Z" fill="#FFFAEE"/>
<path d="M2.17571 14.8517C2.17571 14.7333 2.19868 14.6149 2.2486 14.5035C2.45535 14.0333 3.0301 13.8073 3.52798 14.001L10.0017 16.4991C10.5076 16.6928 10.7408 17.2458 10.5381 17.6978C10.3313 18.168 9.75655 18.3941 9.25867 18.2003L2.78492 15.7023C2.40587 15.5549 2.17571 15.2143 2.17571 14.8517Z" fill="#FFFAEE"/>
<path d="M15.5266 14.55C15.9083 14.1923 16.5316 14.1923 16.9133 14.55L19.2834 16.7707C19.6651 17.1283 19.6651 17.7124 19.2834 18.07C18.9017 18.4276 18.2784 18.4281 17.8967 18.07L15.5266 15.8493C15.1449 15.4917 15.1449 14.9076 15.5266 14.55Z" fill="#FFFAEE"/>
<path d="M-4.2866e-08 23.4258C-1.92511e-08 22.9195 0.440452 22.5068 0.980742 22.5068L5.85307 22.5068C6.39336 22.5068 6.83381 22.9195 6.83381 23.4258C6.83381 23.932 6.39336 24.3447 5.85307 24.3447L0.980741 24.3447C0.440452 24.3447 -6.6481e-08 23.932 -4.2866e-08 23.4258Z" fill="#FFFAEE"/>
<path d="M2.12582 31.8284C2.12582 31.4695 2.35202 31.1284 2.72708 30.9815L9.16638 28.4656C9.66823 28.2682 10.243 28.4909 10.4497 28.9574C10.6644 29.4384 10.4228 29.9657 9.9249 30.1598L3.48561 32.6757C2.98375 32.8731 2.40945 32.6504 2.20226 32.1839C2.1488 32.0656 2.12582 31.9472 2.12582 31.8288L2.12582 31.8284Z" fill="#FFFAEE"/>
<path d="M11.4852 22.7778C11.6642 22.6102 11.9076 22.5088 12.1788 22.5088L18.1812 22.5088C18.7228 22.5088 19.1615 22.9198 19.1615 23.4273C19.1615 23.9348 18.7228 24.3458 18.1812 24.3458L12.1788 24.3458C11.6372 24.3458 11.1985 23.9348 11.1985 23.4273C11.1985 23.1736 11.3068 22.9451 11.4857 22.7774L11.4852 22.7778Z" fill="#FFFAEE"/>
<path d="M24.3077 29.168C24.4866 29.0003 24.7301 28.8989 25.0013 28.8989C25.5429 28.8989 25.9816 29.31 25.9816 29.8174L25.9816 35.4415C25.9816 35.949 25.5429 36.36 25.0013 36.36C24.4597 36.36 24.021 35.949 24.021 35.4415L24.021 29.8174C24.021 29.5637 24.1292 29.3352 24.3082 29.1676L24.3077 29.168Z" fill="#FFFAEE"/>
<path d="M31.1283 22.7778C31.3072 22.6102 31.5506 22.5088 31.8219 22.5088L37.8242 22.5088C38.3659 22.5088 38.8045 22.9198 38.8045 23.4273C38.8045 23.9348 38.3659 24.3458 37.8242 24.3458L31.8219 24.3458C31.2802 24.3458 30.8416 23.9348 30.8416 23.4273C30.8416 23.1736 30.9498 22.9451 31.1287 22.7774L31.1283 22.7778Z" fill="#FFFAEE"/>
<path d="M24.3077 10.7634C24.4866 10.5958 24.7301 10.4944 25.0013 10.4944C25.5429 10.4944 25.9816 10.9054 25.9816 11.4129L25.9816 17.0369C25.9816 17.5444 25.5429 17.9555 25.0013 17.9555C24.4597 17.9555 24.021 17.5444 24.021 17.0369L24.021 11.4129C24.021 11.1592 24.1292 10.9307 24.3082 10.763L24.3077 10.7634Z" fill="#FFFAEE"/>
<path d="M7.03657 39.3403C7.03657 39.1035 7.13244 38.87 7.32372 38.6908L10.7674 35.4642C11.1504 35.1053 11.7711 35.1053 12.1541 35.4642C12.5371 35.8231 12.5371 36.4047 12.1541 36.7635L8.71045 39.9901C8.32743 40.349 7.70674 40.349 7.32372 39.9901C7.13199 39.8105 7.03657 39.5774 7.03657 39.3407L7.03657 39.3403Z" fill="#FFFAEE"/>
<path d="M14.8701 43.8947C14.8701 43.7763 14.8931 43.6579 14.943 43.5465L17.6091 37.4808C17.8159 37.0106 18.3906 36.7846 18.8885 36.9783C19.3903 37.172 19.6315 37.7213 19.4248 38.1771L16.7587 44.2428C16.5519 44.713 15.9772 44.939 15.4793 44.7453C15.1003 44.5983 14.8701 44.2573 14.8701 43.8947Z" fill="#FFFAEE"/>
<path d="M15.5292 31.0027L17.8967 28.7845C18.2784 28.4269 18.9017 28.4264 19.2834 28.7845C19.6651 29.1425 19.6651 29.7262 19.2834 30.0838L16.916 32.3021C16.5338 32.6601 15.9109 32.6601 15.5292 32.3021C15.1475 31.944 15.1471 31.3604 15.5292 31.0027Z" fill="#FFFAEE"/>
<path d="M24.0215 45.9334L24.0215 41.3681C24.0215 40.8619 24.4619 40.4492 25.0022 40.4492C25.5425 40.4492 25.9829 40.8619 25.9829 41.3681L25.9829 45.9334C25.9829 46.4396 25.5425 46.8523 25.0022 46.8523C24.4619 46.8523 24.0215 46.4396 24.0215 45.9334Z" fill="#FFFAEE"/>
<path d="M30.3035 37.9082C30.3035 37.5493 30.5297 37.2082 30.9087 37.0613C31.4066 36.8638 31.9813 37.0865 32.1881 37.5567L34.8696 43.5902C35.0804 44.0604 34.8467 44.5952 34.3408 44.7889C33.843 44.9864 33.2682 44.7637 33.0615 44.2934L30.3799 38.26C30.3264 38.1453 30.3035 38.0266 30.3035 37.9082Z" fill="#FFFAEE"/>
</svg>
