<svg width="50" height="26" viewBox="0 0 50 26" fill="none" xmlns="http://www.w3.org/2000/svg">
<path d="M12.5729 0.219224V25.7369C5.62756 25.726 0 20.0152 0 12.9781C0 5.93002 5.62756 0.219224 12.5729 0.219224ZM37.4595 20.3769C33.4197 20.3769 30.8274 16.7926 30.8274 12.9342C30.8274 9.07589 33.4305 5.6231 37.4271 5.6231C40.1923 5.6231 42.4282 7.42074 43.4003 9.98567H50C49.7624 8.52782 49.1359 7.11383 48.3366 5.88617C45.863 2.09359 41.9313 0 37.4595 0C31.6807 0 26.82 3.63912 25.1458 8.90051V0.219224C18.2005 0.219224 12.5729 5.93002 12.5729 12.9781C12.5729 20.0261 18.2005 25.7369 25.1458 25.7369V17.0228C26.8308 22.3061 31.7455 26 37.5243 26C43.4975 26 48.5634 22.0759 50 16.1459H43.4003C42.2985 18.6121 40.2247 20.3769 37.4595 20.3769Z" fill="#FFFAEE"/>
</svg>
