<svg width="51" height="52" viewBox="0 0 51 52" fill="none" xmlns="http://www.w3.org/2000/svg">
<path d="M25.3429 51.3638C32.7482 51.3638 38.7515 45.6509 38.7515 38.6038C38.7515 31.5567 32.7482 25.8439 25.3429 25.8439C17.9376 25.8439 11.9344 31.5567 11.9344 38.6038C11.9344 45.6509 17.9376 51.3638 25.3429 51.3638Z" stroke="#FFFAEE" stroke-width="0.727519" stroke-miterlimit="10"/>
<path d="M25.3429 25.8836C32.7482 25.8836 38.7515 20.1708 38.7515 13.1237C38.7515 6.07659 32.7482 0.36377 25.3429 0.36377C17.9376 0.36377 11.9344 6.07659 11.9344 13.1237C11.9344 20.1708 17.9376 25.8836 25.3429 25.8836Z" stroke="#FFFAEE" stroke-width="0.727519" stroke-miterlimit="10"/>
<path d="M36.9553 32.2437C44.3606 32.2437 50.3638 26.5309 50.3638 19.4838C50.3638 12.4367 44.3606 6.72388 36.9553 6.72388C29.5499 6.72388 23.5467 12.4367 23.5467 19.4838C23.5467 26.5309 29.5499 32.2437 36.9553 32.2437Z" stroke="#FFFAEE" stroke-width="0.727519" stroke-miterlimit="10"/>
<path d="M13.7723 45.0037C21.1776 45.0037 27.1808 39.2908 27.1808 32.2437C27.1808 25.1966 21.1776 19.4838 13.7723 19.4838C6.36696 19.4838 0.36377 25.1966 0.36377 32.2437C0.36377 39.2908 6.36696 45.0037 13.7723 45.0037Z" stroke="#FFFAEE" stroke-width="0.727519" stroke-miterlimit="10"/>
<path d="M13.7723 32.2437C21.1776 32.2437 27.1808 26.5309 27.1808 19.4838C27.1808 12.4367 21.1776 6.72388 13.7723 6.72388C6.36696 6.72388 0.36377 12.4367 0.36377 19.4838C0.36377 26.5309 6.36696 32.2437 13.7723 32.2437Z" stroke="#FFFAEE" stroke-width="0.727519" stroke-miterlimit="10"/>
<path d="M36.9553 45.0037C44.3606 45.0037 50.3638 39.2908 50.3638 32.2437C50.3638 25.1966 44.3606 19.4838 36.9553 19.4838C29.5499 19.4838 23.5467 25.1966 23.5467 32.2437C23.5467 39.2908 29.5499 45.0037 36.9553 45.0037Z" stroke="#FFFAEE" stroke-width="0.727519" stroke-miterlimit="10"/>
</svg>
