<svg width="50" height="53" viewBox="0 0 50 53" fill="none" xmlns="http://www.w3.org/2000/svg">
<path d="M13.6439 49.156L13.6439 32.9858L17.8812 32.9858L17.8812 49.1215C18.2421 51.3257 20.304 52.0489 20.304 52.0489L17.8323 52.0489L13.6999 52.0489L11.2283 52.0489C11.2283 52.0489 13.2672 51.3329 13.6439 49.156Z" fill="#FFFAEE"/>
<path d="M1.7696e-05 27.8786L1.74799e-05 25.4069C1.74799e-05 25.4069 0.714629 27.4386 2.88291 27.8211L5.46674 27.8211L5.46674 21.079C5.46674 17.1493 7.31582 13.9975 10.8141 11.9644C11.6567 11.4755 12.6028 11.0499 13.6453 10.6861L13.6453 7.62351C13.6453 3.41922 17.1278 2.87378e-06 21.4082 2.49957e-06L27.2028 1.993e-06C32.2626 1.55065e-06 36.3792 4.03894 36.3792 9.00242L36.3792 10.0995C35.4187 9.64226 33.8989 9.04843 32.1332 8.82844C32.0369 6.28199 29.8657 4.23736 27.2028 4.23736L21.4082 4.23736C19.4643 4.23736 17.8826 5.75718 17.8826 7.62495L17.8826 9.6437C19.9675 9.30293 22.304 9.12895 24.8879 9.12895C36.6481 9.12895 44.5491 13.9314 44.5491 21.0804L44.5491 27.8225L47.1157 27.8225C49.284 27.4386 49.9986 25.4069 49.9986 25.4069L49.9986 27.8211L50 27.8211L50 32.0584L49.9986 32.0584L49.9986 34.4841C49.9986 34.4841 49.2739 32.415 47.061 32.0584L44.5477 32.0584L44.5477 41.9811C44.9402 44.1321 46.9561 44.8424 46.9561 44.8424L44.5477 44.8424L44.5477 44.851L40.3103 44.851L40.3103 44.8424L37.8803 44.8424C37.8803 44.8424 39.9566 44.1149 40.3089 41.8934L40.3117 42.0472L40.3117 32.0584L36.3778 32.0584L36.3778 50.7822L36.4022 49.0999C36.7531 51.3228 38.8308 52.0489 38.8308 52.0489L36.3591 52.0489L36.3591 52.0087L32.2252 52.0087L32.2252 52.0489L29.755 52.0489C29.755 52.0489 31.7033 51.3616 32.1418 49.294L32.1418 32.057L9.7041 32.057L9.70411 42.0012C10.1053 44.135 12.1082 44.841 12.1082 44.841L3.03246 44.841C3.03246 44.841 5.10872 44.1134 5.46099 41.8919L5.46818 42.3463L5.46818 32.057L2.93756 32.057C0.724696 32.4136 1.82734e-05 34.4827 1.82734e-05 34.4827L1.80573e-05 32.011L0.0143918 32.011L0.0143915 27.8786L1.7696e-05 27.8786ZM9.70267 27.8211L13.6438 27.8211L13.6438 16.5325C14.2434 15.6036 17.0257 14.9379 17.8812 14.9595L17.8812 27.8225L40.3117 27.8225L40.3117 21.0804C40.3117 18.915 38.8681 17.063 36.3778 15.7158L36.3778 26.6938L32.1404 26.6938L32.1404 14.1557C30.0239 13.6453 27.5767 13.3649 24.8864 13.3649C14.8114 13.3649 9.70266 15.9602 9.70267 21.0804L9.70267 27.8225L9.70267 27.8211Z" fill="#FFFAEE"/>
</svg>
