<svg width="50" height="50" viewBox="0 0 50 50" fill="none" xmlns="http://www.w3.org/2000/svg">
<path d="M25.3704 0H24.6296V18.2963H25.3704V0Z" fill="#FFFAEE"/>
<path d="M25.3703 31.7037H24.6296V50H25.3703V31.7037Z" fill="#FFFAEE"/>
<path d="M18.2962 24.6296H0V25.3704H18.2962V24.6296Z" fill="#FFFAEE"/>
<path d="M50 24.6296H31.7037V25.3704H50V24.6296Z" fill="#FFFAEE"/>
<path d="M25 42.1482C15.5185 42.1482 7.8148 34.4445 7.8148 24.963C7.8148 15.4815 15.5185 7.77779 25 7.77779C34.4814 7.77779 42.1851 15.4815 42.1851 24.963C42.1851 34.4445 34.4444 42.1482 25 42.1482ZM25 8.55557C15.9259 8.55557 8.55554 15.9259 8.55554 25C8.55554 34.0741 15.9259 41.4445 25 41.4445C34.074 41.4445 41.4444 34.0741 41.4444 25C41.4444 15.9259 34.037 8.55557 25 8.55557Z" fill="#FFFAEE"/>
<path d="M25.3703 24.6297H31.7036C31.5184 21.2222 28.7778 18.4815 25.3704 18.2963L25.3703 24.6297Z" fill="#FFFAEE"/>
<path d="M24.6296 24.6297L24.6296 18.2963C21.2222 18.4815 18.4814 21.2222 18.2962 24.6296L24.6296 24.6297Z" fill="#FFFAEE"/>
<path d="M24.6296 25.3704L18.2962 25.3704C18.4814 28.7778 21.2222 31.5185 24.6296 31.7037L24.6296 25.3704Z" fill="#FFFAEE"/>
<path d="M25.3703 25.3704L25.3703 31.7037C28.7777 31.5185 31.5184 28.7778 31.7036 25.3704H25.3703Z" fill="#FFFAEE"/>
</svg>
