<svg width="50" height="50" viewBox="0 0 50 50" fill="none" xmlns="http://www.w3.org/2000/svg">
<path d="M17.6259 5.7554C19.2152 5.7554 20.5036 4.46701 20.5036 2.8777C20.5036 1.28839 19.2152 0 17.6259 0C16.0366 0 14.7482 1.28839 14.7482 2.8777C14.7482 4.46701 16.0366 5.7554 17.6259 5.7554Z" fill="#FFFAEE"/>
<path d="M24.9801 5.7554C26.5694 5.7554 27.8578 4.46701 27.8578 2.8777C27.8578 1.28839 26.5694 0 24.9801 0C23.3908 0 22.1024 1.28839 22.1024 2.8777C22.1024 4.46701 23.3908 5.7554 24.9801 5.7554Z" fill="#FFFAEE"/>
<path d="M32.3741 5.7554C33.9634 5.7554 35.2518 4.46701 35.2518 2.8777C35.2518 1.28839 33.9634 0 32.3741 0C30.7848 0 29.4964 1.28839 29.4964 2.8777C29.4964 4.46701 30.7848 5.7554 32.3741 5.7554Z" fill="#FFFAEE"/>
<path d="M17.6259 13.1495C19.2152 13.1495 20.5036 11.8611 20.5036 10.2718C20.5036 8.6825 19.2152 7.39411 17.6259 7.39411C16.0366 7.39411 14.7482 8.6825 14.7482 10.2718C14.7482 11.8611 16.0366 13.1495 17.6259 13.1495Z" fill="#FFFAEE"/>
<path d="M10.2718 13.1495C11.8611 13.1495 13.1495 11.8611 13.1495 10.2718C13.1495 8.68247 11.8611 7.39408 10.2718 7.39408C8.68249 7.39408 7.39411 8.68247 7.39411 10.2718C7.39411 11.8611 8.68249 13.1495 10.2718 13.1495Z" fill="#FFFAEE"/>
<path d="M24.9801 13.1495C26.5694 13.1495 27.8578 11.8611 27.8578 10.2718C27.8578 8.6825 26.5694 7.39411 24.9801 7.39411C23.3908 7.39411 22.1024 8.6825 22.1024 10.2718C22.1024 11.8611 23.3908 13.1495 24.9801 13.1495Z" fill="#FFFAEE"/>
<path d="M32.3741 13.1495C33.9634 13.1495 35.2518 11.8611 35.2518 10.2718C35.2518 8.6825 33.9634 7.39411 32.3741 7.39411C30.7848 7.39411 29.4964 8.6825 29.4964 10.2718C29.4964 11.8611 30.7848 13.1495 32.3741 13.1495Z" fill="#FFFAEE"/>
<path d="M39.7282 13.1495C41.3175 13.1495 42.6059 11.8611 42.6059 10.2718C42.6059 8.6825 41.3175 7.39411 39.7282 7.39411C38.1389 7.39411 36.8505 8.6825 36.8505 10.2718C36.8505 11.8611 38.1389 13.1495 39.7282 13.1495Z" fill="#FFFAEE"/>
<path d="M32.3741 50C33.9634 50 35.2518 48.7116 35.2518 47.1223C35.2518 45.533 33.9634 44.2446 32.3741 44.2446C30.7848 44.2446 29.4964 45.533 29.4964 47.1223C29.4964 48.7116 30.7848 50 32.3741 50Z" fill="#FFFAEE"/>
<path d="M24.9801 50C26.5694 50 27.8578 48.7116 27.8578 47.1223C27.8578 45.533 26.5694 44.2446 24.9801 44.2446C23.3908 44.2446 22.1024 45.533 22.1024 47.1223C22.1024 48.7116 23.3908 50 24.9801 50Z" fill="#FFFAEE"/>
<path d="M17.6259 50C19.2152 50 20.5036 48.7116 20.5036 47.1223C20.5036 45.533 19.2152 44.2446 17.6259 44.2446C16.0366 44.2446 14.7482 45.533 14.7482 47.1223C14.7482 48.7116 16.0366 50 17.6259 50Z" fill="#FFFAEE"/>
<path d="M32.3741 42.6059C33.9634 42.6059 35.2518 41.3176 35.2518 39.7282C35.2518 38.1389 33.9634 36.8505 32.3741 36.8505C30.7848 36.8505 29.4964 38.1389 29.4964 39.7282C29.4964 41.3176 30.7848 42.6059 32.3741 42.6059Z" fill="#FFFAEE"/>
<path d="M39.7282 42.6059C41.3175 42.6059 42.6059 41.3176 42.6059 39.7282C42.6059 38.1389 41.3175 36.8505 39.7282 36.8505C38.1389 36.8505 36.8505 38.1389 36.8505 39.7282C36.8505 41.3176 38.1389 42.6059 39.7282 42.6059Z" fill="#FFFAEE"/>
<path d="M24.9801 42.6059C26.5694 42.6059 27.8578 41.3176 27.8578 39.7282C27.8578 38.1389 26.5694 36.8505 24.9801 36.8505C23.3908 36.8505 22.1024 38.1389 22.1024 39.7282C22.1024 41.3176 23.3908 42.6059 24.9801 42.6059Z" fill="#FFFAEE"/>
<path d="M17.6259 42.6059C19.2152 42.6059 20.5036 41.3176 20.5036 39.7282C20.5036 38.1389 19.2152 36.8505 17.6259 36.8505C16.0366 36.8505 14.7482 38.1389 14.7482 39.7282C14.7482 41.3176 16.0366 42.6059 17.6259 42.6059Z" fill="#FFFAEE"/>
<path d="M10.2718 42.6059C11.8611 42.6059 13.1495 41.3175 13.1495 39.7282C13.1495 38.1389 11.8611 36.8505 10.2718 36.8505C8.68249 36.8505 7.39411 38.1389 7.39411 39.7282C7.39411 41.3175 8.68249 42.6059 10.2718 42.6059Z" fill="#FFFAEE"/>
<path d="M17.6259 20.5036C19.2152 20.5036 20.5036 19.2152 20.5036 17.6259C20.5036 16.0366 19.2152 14.7482 17.6259 14.7482C16.0366 14.7482 14.7482 16.0366 14.7482 17.6259C14.7482 19.2152 16.0366 20.5036 17.6259 20.5036Z" fill="#FFFAEE"/>
<path d="M10.2718 20.5036C11.8611 20.5036 13.1495 19.2152 13.1495 17.6259C13.1495 16.0366 11.8611 14.7482 10.2718 14.7482C8.68249 14.7482 7.39411 16.0366 7.39411 17.6259C7.39411 19.2152 8.68249 20.5036 10.2718 20.5036Z" fill="#FFFAEE"/>
<path d="M2.87769 20.5036C4.467 20.5036 5.7554 19.2152 5.7554 17.6259C5.7554 16.0366 4.467 14.7482 2.87769 14.7482C1.28838 14.7482 0 16.0366 0 17.6259C0 19.2152 1.28838 20.5036 2.87769 20.5036Z" fill="#FFFAEE"/>
<path d="M24.9801 20.5036C26.5694 20.5036 27.8578 19.2152 27.8578 17.6259C27.8578 16.0366 26.5694 14.7482 24.9801 14.7482C23.3908 14.7482 22.1024 16.0366 22.1024 17.6259C22.1024 19.2152 23.3908 20.5036 24.9801 20.5036Z" fill="#FFFAEE"/>
<path d="M32.3741 20.5036C33.9634 20.5036 35.2518 19.2152 35.2518 17.6259C35.2518 16.0366 33.9634 14.7482 32.3741 14.7482C30.7848 14.7482 29.4964 16.0366 29.4964 17.6259C29.4964 19.2152 30.7848 20.5036 32.3741 20.5036Z" fill="#FFFAEE"/>
<path d="M39.7282 20.5036C41.3175 20.5036 42.6059 19.2152 42.6059 17.6259C42.6059 16.0366 41.3175 14.7482 39.7282 14.7482C38.1389 14.7482 36.8505 16.0366 36.8505 17.6259C36.8505 19.2152 38.1389 20.5036 39.7282 20.5036Z" fill="#FFFAEE"/>
<path d="M47.1223 20.5036C48.7116 20.5036 50 19.2152 50 17.6259C50 16.0366 48.7116 14.7482 47.1223 14.7482C45.533 14.7482 44.2446 16.0366 44.2446 17.6259C44.2446 19.2152 45.533 20.5036 47.1223 20.5036Z" fill="#FFFAEE"/>
<path d="M17.6259 27.8577C19.2152 27.8577 20.5036 26.5693 20.5036 24.98C20.5036 23.3907 19.2152 22.1023 17.6259 22.1023C16.0366 22.1023 14.7482 23.3907 14.7482 24.98C14.7482 26.5693 16.0366 27.8577 17.6259 27.8577Z" fill="#FFFAEE"/>
<path d="M10.2718 27.8577C11.8611 27.8577 13.1495 26.5693 13.1495 24.98C13.1495 23.3907 11.8611 22.1023 10.2718 22.1023C8.68249 22.1023 7.39411 23.3907 7.39411 24.98C7.39411 26.5693 8.68249 27.8577 10.2718 27.8577Z" fill="#FFFAEE"/>
<path d="M2.87769 27.8577C4.467 27.8577 5.7554 26.5693 5.7554 24.98C5.7554 23.3907 4.467 22.1023 2.87769 22.1023C1.28838 22.1023 0 23.3907 0 24.98C0 26.5693 1.28838 27.8577 2.87769 27.8577Z" fill="#FFFAEE"/>
<path d="M24.9801 27.8577C26.5694 27.8577 27.8578 26.5693 27.8578 24.98C27.8578 23.3907 26.5694 22.1023 24.9801 22.1023C23.3908 22.1023 22.1024 23.3907 22.1024 24.98C22.1024 26.5693 23.3908 27.8577 24.9801 27.8577Z" fill="#FFFAEE"/>
<path d="M32.3741 27.8577C33.9634 27.8577 35.2518 26.5693 35.2518 24.98C35.2518 23.3907 33.9634 22.1023 32.3741 22.1023C30.7848 22.1023 29.4964 23.3907 29.4964 24.98C29.4964 26.5693 30.7848 27.8577 32.3741 27.8577Z" fill="#FFFAEE"/>
<path d="M39.7282 27.8577C41.3175 27.8577 42.6059 26.5693 42.6059 24.98C42.6059 23.3907 41.3175 22.1023 39.7282 22.1023C38.1389 22.1023 36.8505 23.3907 36.8505 24.98C36.8505 26.5693 38.1389 27.8577 39.7282 27.8577Z" fill="#FFFAEE"/>
<path d="M47.1223 27.8577C48.7116 27.8577 50 26.5693 50 24.98C50 23.3907 48.7116 22.1023 47.1223 22.1023C45.533 22.1023 44.2446 23.3907 44.2446 24.98C44.2446 26.5693 45.533 27.8577 47.1223 27.8577Z" fill="#FFFAEE"/>
<path d="M17.6259 35.2518C19.2152 35.2518 20.5036 33.9634 20.5036 32.3741C20.5036 30.7848 19.2152 29.4964 17.6259 29.4964C16.0366 29.4964 14.7482 30.7848 14.7482 32.3741C14.7482 33.9634 16.0366 35.2518 17.6259 35.2518Z" fill="#FFFAEE"/>
<path d="M10.2718 35.2518C11.8611 35.2518 13.1495 33.9634 13.1495 32.3741C13.1495 30.7848 11.8611 29.4964 10.2718 29.4964C8.68249 29.4964 7.39411 30.7848 7.39411 32.3741C7.39411 33.9634 8.68249 35.2518 10.2718 35.2518Z" fill="#FFFAEE"/>
<path d="M2.87769 35.2518C4.467 35.2518 5.7554 33.9634 5.7554 32.3741C5.7554 30.7848 4.467 29.4964 2.87769 29.4964C1.28838 29.4964 0 30.7848 0 32.3741C0 33.9634 1.28838 35.2518 2.87769 35.2518Z" fill="#FFFAEE"/>
<path d="M24.9801 35.2518C26.5694 35.2518 27.8578 33.9634 27.8578 32.3741C27.8578 30.7848 26.5694 29.4964 24.9801 29.4964C23.3908 29.4964 22.1024 30.7848 22.1024 32.3741C22.1024 33.9634 23.3908 35.2518 24.9801 35.2518Z" fill="#FFFAEE"/>
<path d="M32.3741 35.2518C33.9634 35.2518 35.2518 33.9634 35.2518 32.3741C35.2518 30.7848 33.9634 29.4964 32.3741 29.4964C30.7848 29.4964 29.4964 30.7848 29.4964 32.3741C29.4964 33.9634 30.7848 35.2518 32.3741 35.2518Z" fill="#FFFAEE"/>
<path d="M39.7282 35.2518C41.3175 35.2518 42.6059 33.9634 42.6059 32.3741C42.6059 30.7848 41.3175 29.4964 39.7282 29.4964C38.1389 29.4964 36.8505 30.7848 36.8505 32.3741C36.8505 33.9634 38.1389 35.2518 39.7282 35.2518Z" fill="#FFFAEE"/>
<path d="M47.1223 35.2518C48.7116 35.2518 50 33.9634 50 32.3741C50 30.7848 48.7116 29.4964 47.1223 29.4964C45.533 29.4964 44.2446 30.7848 44.2446 32.3741C44.2446 33.9634 45.533 35.2518 47.1223 35.2518Z" fill="#FFFAEE"/>
</svg>
