<svg width="50" height="46" viewBox="0 0 50 46" fill="none" xmlns="http://www.w3.org/2000/svg">
<path d="M47.0397 28.6134C45.0416 26.6126 42.3774 25.6122 39.7502 25.6492C38.1961 25.6492 36.79 24.8341 36.0129 23.5002L33.7928 19.6839C33.0157 18.35 33.0157 16.6826 33.7928 15.3488C36.0869 11.4583 35.5689 6.34514 32.2016 2.97342C28.2423 -0.991139 21.8039 -0.991139 17.8076 2.97342C14.4403 6.34514 13.9223 11.4213 16.2165 15.3488C16.9935 16.6826 16.9935 18.35 16.2165 19.6839L13.9963 23.5002C13.2192 24.8341 11.8131 25.6863 10.259 25.6492C7.63184 25.6122 4.96762 26.6126 2.96947 28.6134C-0.989823 32.5779 -0.989823 39.025 2.96947 43.0266C6.92876 46.9911 13.3672 46.9911 17.3635 43.0266C18.0296 42.3596 18.5846 41.6186 19.0287 40.8405C19.8057 39.5066 21.2118 38.6544 22.7659 38.6544H27.1693C28.7234 38.6544 30.1665 39.4696 30.9065 40.8405C31.3506 41.6186 31.9056 42.3596 32.5717 43.0266C36.5309 46.9911 42.9694 46.9911 46.9657 43.0266C50.999 39.025 50.999 32.5779 47.0397 28.6134ZM18.9917 26.2791L21.2118 22.4628C21.9889 21.0918 23.432 20.3137 25.0231 20.3137C25.0601 20.3137 25.0971 20.3137 25.1341 20.3137C26.6882 20.3137 28.1314 21.1289 28.9454 22.4628L31.1656 26.2791C31.9426 27.613 31.9426 29.2803 31.1285 30.6142C31.0915 30.6512 31.0915 30.6883 31.0915 30.7253C30.3145 32.0963 28.8714 32.9484 27.3173 32.9484H22.9139C21.3598 32.9484 19.9167 32.0963 19.1397 30.7253C19.1397 30.6883 19.1027 30.6512 19.1027 30.6142C18.2146 29.3174 18.2146 27.65 18.9917 26.2791Z" fill="#FFFAEE"/>
</svg>
