<svg width="50" height="50" viewBox="0 0 50 50" fill="none" xmlns="http://www.w3.org/2000/svg">
<path d="M25 50.0078C11.2191 50.0078 0 38.7888 0 25C0 11.2112 11.2191 0 25 0C38.7809 0 50 11.2191 50 25C50 38.7809 38.7809 50 25 50V50.0078ZM25 4.34033C13.6086 4.34033 4.34033 13.6086 4.34033 25C4.34033 36.3914 13.6086 45.6597 25 45.6597C36.3914 45.6597 45.6597 36.3914 45.6597 25C45.6597 13.6086 36.3914 4.34033 25 4.34033Z" fill="#FFFAEE"/>
<path d="M28.8859 7.77197H21.2629V33.4222H28.8859V7.77197Z" fill="#FFFAEE"/>
<path d="M28.8859 36.2112H21.2629V42.5023H28.8859V36.2112Z" fill="#FFFAEE"/>
</svg>
