<svg width="51" height="51" viewBox="0 0 51 51" fill="none" xmlns="http://www.w3.org/2000/svg">
<path d="M2.5 2.5V0H0V2.5H2.5ZM23.7322 27.2678C24.7085 28.2441 26.2915 28.2441 27.2678 27.2678C28.2441 26.2915 28.2441 24.7085 27.2678 23.7322L25.5 25.5L23.7322 27.2678ZM2.5 19.75H5V2.5H2.5H0V19.75H2.5ZM2.5 2.5V5H19.75V2.5V0H2.5V2.5ZM2.5 2.5L0.732233 4.26777L23.7322 27.2678L25.5 25.5L27.2678 23.7322L4.26777 0.732233L2.5 2.5Z" fill="#FFFAEE"/>
<path d="M2.5 48.5V51H0V48.5H2.5ZM23.7322 23.7322C24.7085 22.7559 26.2915 22.7559 27.2678 23.7322C28.2441 24.7085 28.2441 26.2915 27.2678 27.2678L25.5 25.5L23.7322 23.7322ZM2.5 31.25H5V48.5H2.5H0V31.25H2.5ZM2.5 48.5V46H19.75V48.5V51H2.5V48.5ZM2.5 48.5L0.732233 46.7322L23.7322 23.7322L25.5 25.5L27.2678 27.2678L4.26777 50.2678L2.5 48.5Z" fill="#FFFAEE"/>
<path d="M48.5 2.5V0H51V2.5H48.5ZM27.2678 27.2678C26.2915 28.2441 24.7085 28.2441 23.7322 27.2678C22.7559 26.2915 22.7559 24.7085 23.7322 23.7322L25.5 25.5L27.2678 27.2678ZM48.5 19.75H46V2.5H48.5H51V19.75H48.5ZM48.5 2.5V5H31.25V2.5V0H48.5V2.5ZM48.5 2.5L50.2678 4.26777L27.2678 27.2678L25.5 25.5L23.7322 23.7322L46.7322 0.732233L48.5 2.5Z" fill="#FFFAEE"/>
<path d="M48.5 48.5V51H51V48.5H48.5ZM27.2678 23.7322C26.2915 22.7559 24.7085 22.7559 23.7322 23.7322C22.7559 24.7085 22.7559 26.2915 23.7322 27.2678L25.5 25.5L27.2678 23.7322ZM48.5 31.25H46V48.5H48.5H51V31.25H48.5ZM48.5 48.5V46H31.25V48.5V51H48.5V48.5ZM48.5 48.5L50.2678 46.7322L27.2678 23.7322L25.5 25.5L23.7322 27.2678L46.7322 50.2678L48.5 48.5Z" fill="#FFFAEE"/>
</svg>
