<svg width="26" height="52" viewBox="0 0 26 52" fill="none" xmlns="http://www.w3.org/2000/svg">
<path d="M23.0457 8.44283L12.5349 3.61134L2.02404 8.44283L0.642334 5.47024L12.5349 0L24.4192 5.47024L23.0457 8.44283Z" fill="#FFFAEE"/>
<path d="M12.5349 52.0001L0.642334 46.538L2.02404 43.5654L12.5349 48.3969L23.0457 43.5654L24.4192 46.538L12.5349 52.0001Z" fill="#FFFAEE"/>
<path d="M0.636583 16.0573H2.87457C3.80955 16.0573 4.5025 16.3557 4.95341 16.9525C5.40432 17.5493 5.62978 18.408 5.62978 19.5286C5.62978 20.6493 5.40432 21.508 4.95341 22.1048C4.5025 22.7016 3.80955 23 2.87457 23H0.636583V16.0573ZM2.7751 21.8263C3.21939 21.8263 3.54431 21.6837 3.74987 21.3986C3.95544 21.1135 4.05822 20.699 4.05822 20.1553V18.8921C4.05822 18.3549 3.95544 17.9438 3.74987 17.6587C3.54431 17.3735 3.21939 17.231 2.7751 17.231H2.10868V21.8263H2.7751ZM9.33598 23.1194C8.75245 23.1194 8.24517 23.0232 7.81415 22.8309C7.38313 22.6386 7.035 22.3767 6.76976 22.0451L7.63511 21.0903C7.88709 21.3688 8.16228 21.5743 8.46068 21.7069C8.76571 21.8396 9.07405 21.9059 9.38571 21.9059C9.74379 21.9059 10.0157 21.8263 10.2013 21.6672C10.387 21.508 10.4798 21.2792 10.4798 20.9808C10.4798 20.7355 10.4069 20.5498 10.261 20.4238C10.1218 20.2978 9.88304 20.2083 9.54486 20.1553L8.81876 20.0359C8.19544 19.9298 7.74452 19.701 7.46602 19.3496C7.18751 18.9915 7.04826 18.5572 7.04826 18.0466C7.04826 17.3768 7.26709 16.8596 7.70474 16.4949C8.14239 16.1236 8.75576 15.9379 9.54486 15.9379C10.082 15.9379 10.5495 16.0208 10.9473 16.1866C11.3452 16.3523 11.6668 16.5778 11.9122 16.8629L11.0667 17.8079C10.881 17.6023 10.6622 17.4432 10.4102 17.3304C10.1582 17.2111 9.8731 17.1514 9.55481 17.1514C8.88507 17.1514 8.5502 17.4266 8.5502 17.977C8.5502 18.2157 8.62314 18.3947 8.76902 18.5141C8.92154 18.6334 9.16689 18.723 9.50507 18.7826L10.2312 18.9119C10.7948 19.0114 11.2292 19.2236 11.5342 19.5485C11.8392 19.8734 11.9917 20.3111 11.9917 20.8615C11.9917 21.1864 11.9354 21.4881 11.8226 21.7666C11.7099 22.0385 11.5408 22.2772 11.3154 22.4828C11.0899 22.6817 10.8114 22.8375 10.4798 22.9503C10.1549 23.063 9.77363 23.1194 9.33598 23.1194ZM17.0109 22.0153H16.9214C16.8617 22.1612 16.7887 22.3004 16.7025 22.433C16.6163 22.5657 16.5102 22.685 16.3842 22.7911C16.2583 22.8906 16.1091 22.9702 15.9366 23.0298C15.7709 23.0895 15.5819 23.1194 15.3697 23.1194C15.0315 23.1194 14.7298 23.0398 14.4645 22.8806C14.2059 22.7215 13.9871 22.4894 13.8081 22.1844C13.629 21.8793 13.4931 21.508 13.4003 21.0704C13.3141 20.6327 13.271 20.1387 13.271 19.5883C13.271 18.408 13.4865 17.5062 13.9175 16.8828C14.3485 16.2529 15.0149 15.9379 15.9168 15.9379C16.2748 15.9379 16.5898 15.9876 16.8617 16.0871C17.1336 16.1799 17.3656 16.3159 17.5579 16.4949C17.7569 16.6673 17.9193 16.8762 18.0453 17.1216C18.1713 17.3669 18.2708 17.6388 18.3437 17.9372L16.9512 18.2754C16.9114 18.1295 16.865 17.9902 16.8119 17.8576C16.7655 17.7183 16.7025 17.5957 16.623 17.4896C16.5434 17.3835 16.4439 17.3006 16.3246 17.2409C16.2052 17.1746 16.0593 17.1414 15.8869 17.1414C15.5089 17.1414 15.2404 17.2973 15.0812 17.6089C14.9287 17.9206 14.8525 18.3582 14.8525 18.9219V20.0558C14.8525 20.6194 14.9354 21.0704 15.1011 21.4085C15.2735 21.7467 15.5753 21.9158 16.0063 21.9158C16.3445 21.9158 16.5964 21.8164 16.7622 21.6174C16.928 21.4185 17.0109 21.1632 17.0109 20.8515V20.3443H15.8272V19.2899H18.3437V23H17.0109V22.0153ZM21.3736 18.3848H21.2641V23H19.991V16.0573H21.7814L23.3629 20.6725H23.4723V16.0573H24.7455V23H22.9551L21.3736 18.3848ZM0.636583 29.0573H2.87457C3.80955 29.0573 4.5025 29.3557 4.95341 29.9525C5.40432 30.5493 5.62978 31.408 5.62978 32.5286C5.62978 33.6493 5.40432 34.508 4.95341 35.1048C4.5025 35.7016 3.80955 36 2.87457 36H0.636583V29.0573ZM2.7751 34.8263C3.21939 34.8263 3.54431 34.6837 3.74987 34.3986C3.95544 34.1135 4.05822 33.699 4.05822 33.1553V31.8921C4.05822 31.3549 3.95544 30.9438 3.74987 30.6587C3.54431 30.3735 3.21939 30.231 2.7751 30.231H2.10868V34.8263H2.7751ZM7.25714 36V29.0573H11.6933V30.2807H8.74913V31.8722H11.5939V33.0956H8.74913V34.7766H11.6933V36H7.25714ZM13.6788 36V29.0573H16.3643C16.7025 29.0573 17.0042 29.1103 17.2695 29.2164C17.5347 29.3159 17.7569 29.4618 17.9359 29.6541C18.1216 29.8464 18.2608 30.0785 18.3537 30.3503C18.4465 30.6222 18.4929 30.9272 18.4929 31.2654C18.4929 31.6036 18.4465 31.9086 18.3537 32.1805C18.2608 32.4524 18.1216 32.6845 17.9359 32.8768C17.7569 33.0691 17.5347 33.2183 17.2695 33.3244C17.0042 33.4238 16.7025 33.4736 16.3643 33.4736H15.1807V36H13.6788ZM15.1807 32.27H15.9864C16.3378 32.27 16.5799 32.2037 16.7125 32.0711C16.8517 31.9385 16.9214 31.7196 16.9214 31.4146V31.1162C16.9214 30.8112 16.8517 30.5924 16.7125 30.4597C16.5799 30.3271 16.3378 30.2608 15.9864 30.2608H15.1807V32.27ZM23.1142 30.2807V36H21.6222V30.2807H19.623V29.0573H25.1135V30.2807H23.1142Z" fill="#FFFAEE"/>
</svg>
