<svg width="50" height="51" viewBox="0 0 50 51" fill="none" xmlns="http://www.w3.org/2000/svg">
<path d="M18.1818 17.8784C20.0268 16.1078 22.4482 15.133 25 15.133C30.4304 15.133 34.848 19.5451 34.848 24.9678C34.848 30.3905 30.4299 34.8026 25 34.8026C24.9187 34.8026 24.8379 34.8016 24.7572 34.7995C24.433 34.7918 24.1663 35.0519 24.1663 35.3756V38.1474C24.1663 38.4613 24.418 38.7173 24.7318 38.7235C24.8209 38.7251 24.9104 38.7261 25 38.7261C32.5965 38.7261 38.7767 32.5541 38.7767 24.9678C38.7767 17.3815 32.5965 11.2095 25 11.2095C21.4198 11.2095 18.0255 12.5799 15.4431 15.0678C13.509 16.931 12.1849 19.27 11.5868 21.8252C11.3688 22.7565 11.2684 23.7112 11.2673 24.6679L11.2249 49.3734C11.2244 49.7628 11.5402 50.0793 11.9302 50.0793H14.4463C14.8357 50.0793 15.1515 49.7638 15.1515 49.3749V24.7739L15.1614 24.5443C15.2691 22.0113 16.342 19.6439 18.1813 17.8784H18.1818Z" fill="#FFFAEE"/>
<path d="M25 9.52774C29.4103 9.52774 33.5383 11.3594 36.5138 14.6623C38.8647 17.2723 40.2524 20.6192 40.4378 24.1243C40.6724 28.5603 39.0501 32.7703 35.9317 35.8845C33.0117 38.8006 29.1291 40.4068 25 40.4068C24.9435 40.4068 24.8876 40.4057 24.8317 40.4047C24.4661 40.3985 24.1663 40.6933 24.1663 41.0584V43.6745C24.1663 44.0319 24.4536 44.3235 24.812 44.3282C24.8746 44.3292 24.9373 44.3303 25.0005 44.3303C30.1792 44.3303 35.0483 42.316 38.7104 38.6589C42.3724 35.0017 44.3893 30.1391 44.3893 24.9673C44.3893 19.7954 42.3724 14.9328 38.7104 11.2756C35.0483 7.61848 30.1792 5.60425 25.0005 5.60425C19.8217 5.60425 14.9526 7.61848 11.2906 11.2756C8.00498 14.5569 6.03208 18.8423 5.67219 23.434C5.65148 23.6982 5.64267 23.9635 5.64216 24.2288L5.61212 49.3734C5.61212 49.7628 5.92748 50.0787 6.3174 50.0787H8.83402C9.22342 50.0787 9.53929 49.7633 9.53929 49.3744V24.7702L9.54551 24.5349C9.65373 20.5778 11.2595 16.854 14.0671 14.0501C16.9871 11.134 20.8698 9.52774 24.9994 9.52774H25Z" fill="#FFFAEE"/>
<path d="M48.0354 15.2482C46.776 12.2747 44.974 9.60523 42.6785 7.31278C40.383 5.02033 37.7095 3.2207 34.7325 1.96304C31.6489 0.660379 28.3741 0 25 0C21.6259 0 18.3517 0.660379 15.268 1.96304C12.2905 3.2207 9.61754 5.02033 7.32202 7.31278C5.02651 9.60523 3.22449 12.2752 1.96514 15.2482C0.803662 17.9905 0.151204 20.8901 0.0238199 23.876L0 49.3738C0 49.7632 0.315872 50.0792 0.705276 50.0792H3.2219C3.6113 50.0792 3.92717 49.7637 3.92717 49.3748V24.796L3.93235 24.5318C4.04265 19.0786 6.23252 13.9486 10.0991 10.0877C14.0791 6.11303 19.3707 3.92401 24.9995 3.92401C30.6282 3.92401 35.9199 6.11303 39.8999 10.0877C43.624 13.8069 45.7823 18.6732 46.0449 23.8884C46.3623 30.2047 43.813 36.3513 39.1159 40.5934C35.2379 44.0959 30.2663 46.0124 24.9995 46.0124C24.9425 46.0124 24.8861 46.0114 24.8296 46.0109H24.827C24.463 46.0062 24.1653 46.3 24.1653 46.6635V49.2817C24.1653 49.6396 24.4537 49.9307 24.812 49.9344C24.8747 49.9354 24.9368 49.9359 24.9995 49.9359C28.3736 49.9359 31.6478 49.2755 34.7315 47.9729C37.7089 46.7152 40.3825 44.9151 42.6775 42.6231C44.9725 40.3312 46.775 37.6607 48.0343 34.6877C49.3387 31.6087 50 28.3384 50 24.9687C50 21.5991 49.3387 18.3287 48.0343 15.2497L48.0354 15.2482Z" fill="#FFFAEE"/>
<path d="M29.2363 24.9671C29.2363 27.2999 27.3359 29.1973 25.0005 29.1973C24.9275 29.1973 24.8508 29.1952 24.7737 29.1911C24.4433 29.1735 24.1663 29.4362 24.1663 29.7667V32.54C24.1663 32.8508 24.4128 33.1053 24.724 33.1156C24.8187 33.1187 24.9119 33.1203 25.0005 33.1203C29.5025 33.1203 33.165 29.4626 33.165 24.9666C33.165 20.4707 29.5025 16.813 25.0005 16.813C23.7199 16.813 22.5025 17.1119 21.4166 17.6451C18.6411 19.0082 16.9136 21.8628 16.9074 24.9516L16.8375 49.3717C16.8365 49.7616 17.1524 50.0781 17.5428 50.0781H20.0584C20.4478 50.0781 20.7637 49.7626 20.7637 49.3738V24.7846C20.7637 24.7805 20.7637 24.7763 20.7642 24.7722L20.7828 24.5721C20.8797 23.529 21.3623 22.562 22.1406 21.8488C22.924 21.1316 23.939 20.7365 24.9995 20.7365C27.3354 20.7365 29.2353 22.6344 29.2353 24.9666L29.2363 24.9671Z" fill="#FFFAEE"/>
</svg>
