<svg width="50" height="59" viewBox="0 0 50 59" fill="none" xmlns="http://www.w3.org/2000/svg">
<path d="M2.88426 28.2193H5.46717V34.9611C5.46717 38.8916 7.31639 42.0435 10.8146 44.0761C14.0544 45.959 18.7898 46.9136 24.8877 46.9136C36.6474 46.9136 44.5497 42.1109 44.5497 34.9611V28.2193H47.1157C49.285 28.6011 50 30.6338 50 30.6338V21.558C50 21.558 49.2757 23.6262 47.0633 23.9837H44.5497V14.0619C44.9427 11.9114 46.9585 11.2001 46.9585 11.2001H37.8828C37.8828 11.2001 39.9603 11.9263 40.3103 14.1499V23.9837H29.099L37.1959 5.40541L37.5683 4.55005C38.3563 3.12383 39.7058 2.43505 39.7058 2.43505H15.6042C13.4517 2.02703 12.7611 0 12.7611 0L12.7162 9.07577C12.7162 9.07577 13.463 7.00569 15.6884 6.67627H32.0207L24.4759 23.9837H9.70278V14.0395C10.1052 11.9057 12.1079 11.2001 12.1079 11.2001H3.03212C3.03212 11.2001 5.10968 11.9263 5.45968 14.1499L5.46717 23.9837H2.93666C0.724339 23.6262 0 21.558 0 21.558V30.6338C0 30.6338 0.714981 28.6011 2.88426 28.2193ZM9.70278 28.2193H40.3103V34.9611C40.3103 39.5036 33.9672 42.6761 24.8858 42.6761C23.4989 42.6761 22.2112 42.6256 21.0133 42.5264L26.8193 29.2057H22.1981L16.6823 41.8619C12.0461 40.7315 9.70465 38.4237 9.70465 34.9592V28.2174L9.70278 28.2193Z" fill="#FFFAEE"/>
<path d="M35.0547 51.967L16.8919 51.9876L18.7505 47.7239C17.5414 47.5761 16.0758 47.3271 14.4849 46.906L11.2488 54.3291C10.4533 55.6374 9.20679 56.2288 9.20679 56.2288H10.4215L34.9461 56.2101C37.1678 56.562 37.8959 58.6377 37.8959 58.6377V49.5619C37.8959 49.5619 37.1902 51.5646 35.0565 51.967H35.0547Z" fill="#FFFAEE"/>
</svg>
