<svg width="50" height="50" viewBox="0 0 50 50" fill="none" xmlns="http://www.w3.org/2000/svg">
<path d="M37.5373 15.4326V24.9776V34.5226C37.5373 36.5298 35.7978 38.1711 33.6569 38.1711C31.516 38.1711 29.7765 36.5387 29.7765 34.5226V15.4415C29.7765 8.42998 23.7551 2.72974 16.3421 2.72974C8.9291 2.72974 2.90772 8.42998 2.90772 15.4326V24.9776V34.5226C2.90772 36.2086 1.67668 37.627 0.0174561 38.0373V38.9561C2.16731 38.519 3.79085 36.6992 3.79085 34.5226V24.9776V15.4326C3.79085 8.91169 9.41973 3.61287 16.3332 3.61287C23.2466 3.61287 28.8755 8.91169 28.8755 15.4326V34.5137C28.8755 37.0115 31.0164 39.0453 33.648 39.0453C36.2795 39.0453 38.4205 37.0115 38.4205 34.5137V24.9687V15.4237C38.4205 9.22391 43.5141 4.12134 49.9637 3.64855V2.7565C43.0235 3.23821 37.5284 8.7422 37.5284 15.4237L37.5373 15.4326Z" fill="#FFFAEE"/>
<path d="M40.4282 15.4325V24.9776V34.5226C40.4282 38.0373 37.3952 40.8918 33.6575 40.8918C29.9198 40.8918 26.8868 38.0373 26.8868 34.5226V15.4415C26.8868 12.7742 25.7896 10.2675 23.7914 8.36746C21.7932 6.48522 19.1527 5.45044 16.3427 5.45044C10.5265 5.45044 5.79858 9.92856 5.79858 15.4325V24.9776V34.5226C5.79858 37.7072 3.2919 40.3655 0.0269775 40.8116V41.7125C3.78253 41.2487 6.69064 38.1978 6.69064 34.5226V24.9776V15.4325C6.69064 10.4192 11.026 6.33358 16.3516 6.33358C18.9297 6.33358 21.356 7.27916 23.1937 9.00974C25.0135 10.7314 26.0126 13.0151 26.0126 15.4325V34.5136C26.0126 38.519 29.447 41.775 33.6753 41.775C37.9037 41.775 41.3381 38.519 41.3381 34.5136V24.9686V15.4236C41.3381 10.7314 45.1383 6.85989 50 6.37818V5.48612C44.6476 5.95891 40.455 10.2408 40.455 15.4236L40.4282 15.4325Z" fill="#FFFAEE"/>
<path d="M43.3093 15.4326V24.9776V34.5226C43.3093 39.536 38.9739 43.6216 33.6484 43.6216C31.0703 43.6216 28.6439 42.676 26.8063 40.9454C24.9865 39.2237 23.9874 36.9401 23.9874 34.5226V15.4415C23.9874 11.4362 20.553 8.18018 16.3246 8.18018C12.0963 8.18018 8.66187 11.4362 8.66187 15.4415V24.9865V34.5315C8.66187 39.2237 4.86171 43.0953 0 43.577V44.469C5.35234 43.9962 9.545 39.7144 9.545 34.5315V24.9865V15.4415C9.545 11.9268 12.578 9.07223 16.3157 9.07223C20.0534 9.07223 23.0864 11.9268 23.0864 15.4415V34.5226C23.0864 37.1898 24.1836 39.6965 26.1819 41.5966C28.1801 43.4788 30.8205 44.5136 33.6305 44.5136C39.4467 44.5136 44.1746 40.0355 44.1746 34.5315V24.9865V15.4415C44.1746 12.2569 46.6813 9.59855 49.9462 9.15252V8.25154C46.1907 8.71541 43.2826 11.7662 43.2826 15.4415L43.3093 15.4326Z" fill="#FFFAEE"/>
<path d="M46.1998 15.4326V24.9776V34.5226C46.1998 41.0436 40.5709 46.3424 33.6575 46.3424C26.7441 46.3424 21.1152 41.0347 21.1152 34.5226V15.4416C21.1152 12.9438 18.9743 10.9099 16.3427 10.9099C13.7111 10.9099 11.5702 12.9438 11.5702 15.4416V24.9866V34.5316C11.5702 40.7314 6.47654 45.8339 0.0269775 46.3067V47.1988C6.96718 46.7171 12.4622 41.2131 12.4622 34.5316V24.9866V15.4416C12.4622 13.4344 14.2018 11.802 16.3427 11.802C18.4836 11.802 20.2231 13.4344 20.2231 15.4416V34.5226C20.2231 41.5342 26.2445 47.2344 33.6575 47.2344C41.0705 47.2344 47.0919 41.5342 47.0919 34.5226V24.9776V15.4326C47.0919 13.7467 48.3229 12.3283 49.9821 11.9179V10.9991C47.8323 11.4362 46.2087 13.256 46.2087 15.4326H46.1998Z" fill="#FFFAEE"/>
<path d="M49.0809 15.4326V24.9776V34.5226C49.0809 42.5422 42.1586 49.072 33.6484 49.072C25.1381 49.072 18.2158 42.5422 18.2158 34.5226V15.4415C18.2158 14.4424 17.3683 13.6306 16.3246 13.6306C15.2809 13.6306 14.4335 14.4424 14.4335 15.4415V24.9865V34.5315C14.4335 42.2389 8.04635 48.5546 0 49.0363V49.9373C8.53698 49.4467 15.3166 42.7206 15.3166 34.5315V24.9865V15.4415C15.3166 14.933 15.7626 14.5227 16.3157 14.5227C16.8688 14.5227 17.3148 14.933 17.3148 15.4415V34.5226C17.3148 43.0328 24.6386 49.9552 33.6305 49.9552C42.6225 49.9552 49.9462 43.0328 49.9462 34.5226V13.9072C49.411 14.2194 49.0542 14.7903 49.0542 15.4326H49.0809Z" fill="#FFFAEE"/>
<path d="M34.656 15.4326V24.9776V34.5226C34.656 35.0311 34.21 35.4414 33.6569 35.4414C33.1038 35.4414 32.6578 35.0311 32.6578 34.5226V15.4415C32.6578 6.92236 25.334 0 16.3332 0C7.33232 0 0.0174561 6.92236 0.0174561 15.4326V36.048C0.55269 35.7358 0.909512 35.1649 0.909512 34.5226V24.9776V15.4326C0.909512 7.41299 7.83187 0.892056 16.3332 0.892056C24.8345 0.892056 31.7657 7.42191 31.7657 15.4415V34.5226C31.7657 35.5217 32.6132 36.3335 33.6569 36.3335C34.7006 36.3335 35.5481 35.5217 35.5481 34.5226V24.9776V15.4326C35.5481 7.72521 41.9352 1.40945 49.9815 0.927739V0.0267617C41.4446 0.517393 34.6649 7.2435 34.6649 15.4326H34.656Z" fill="#FFFAEE"/>
</svg>
