<svg width="50" height="44" viewBox="0 0 50 44" fill="none" xmlns="http://www.w3.org/2000/svg">
<path fill-rule="evenodd" clip-rule="evenodd" d="M23.7585 36.6535V43.0495C23.0572 43.1157 22.3465 43.1535 21.6167 43.1535C9.71379 43.1535 0 33.4556 0 21.572C0 9.68849 9.71379 0 21.6167 0C22.337 0 23.0572 0.0378457 23.7585 0.104076V6.49999C23.0572 6.39592 22.3465 6.34861 21.6167 6.34861C13.2108 6.34861 6.35898 13.1987 6.35898 21.572C6.35898 29.9454 13.2202 36.7955 21.6167 36.7955C22.337 36.7955 23.0572 36.7387 23.7585 36.6441V36.6535Z" fill="#FFFAEE"/>
<path fill-rule="evenodd" clip-rule="evenodd" d="M32.9701 18.2795H45.4511V24.8741H32.9701C34.4864 31.6863 40.5895 36.8049 47.8582 36.8049C48.5785 36.8049 49.2987 36.7481 50 36.6535V43.0495C49.2892 43.1157 48.5785 43.1535 47.8582 43.1535C35.9458 43.1535 26.251 33.4556 26.251 21.5815C26.251 9.70741 35.9458 0 47.8582 0C48.5785 0 49.2987 0.0378457 50 0.104076V6.49999C49.2892 6.39592 48.5785 6.34861 47.8582 6.34861C40.5895 6.34861 34.4769 11.4672 32.9701 18.2795Z" fill="#FFFAEE"/>
</svg>
