<svg width="50" height="45" viewBox="0 0 50 45" fill="none" xmlns="http://www.w3.org/2000/svg">
<path d="M6.53156 27.7516L13.0631 20.5095H9.62308L9.82961 19.1226C11.3463 11.6777 17.8843 6.28043 25.3647 6.28043C31.6058 6.28043 37.3887 10.1403 39.8993 15.93L43.462 11.9786L46.1921 15.0076C43.1393 6.11033 34.7489 0 25.3711 0C14.4378 0 5.04711 8.26923 3.5304 19.2404L3.40777 20.503H0L6.53156 27.7451V27.7516Z" fill="#FFFAEE"/>
<path d="M47.4054 23.1262L47.3925 21.8178H50L43.4684 14.5757L36.9369 21.8178H41.2418L41.216 23.1524C40.7964 31.7291 33.8389 38.4413 25.3711 38.4413C18.2264 38.4413 11.8562 33.4366 10.0361 26.4758L6.53156 30.3618L3.88538 27.4244C6.17659 37.5058 15.0574 44.7217 25.3711 44.7217C37.3241 44.7217 46.9988 35.2422 47.4054 23.1328V23.1262Z" fill="#FFFAEE"/>
<path d="M19.3365 16.5581H15.89V14.3992C18.2458 14.2226 19.6528 13.2609 20.2595 12.1553H22.3893V32.547H19.343V16.5516L19.3365 16.5581Z" fill="#FFFAEE"/>
<path d="M24.3385 27.9218V16.7936C24.3385 13.8497 26.2941 11.8674 29.2242 11.8674C32.1544 11.8674 34.11 13.8497 34.11 16.7936V27.9218C34.11 30.8657 32.1544 32.848 29.2242 32.848C26.2941 32.848 24.3385 30.8657 24.3385 27.9218ZM31.0637 27.9218V16.7936C31.0637 15.5114 30.3473 14.7852 29.2242 14.7852C28.1012 14.7852 27.3848 15.5114 27.3848 16.7936V27.9218C27.3848 29.204 28.1012 29.9302 29.2242 29.9302C30.3473 29.9302 31.0637 29.204 31.0637 27.9218Z" fill="#FFFAEE"/>
</svg>
