<svg width="69" height="50" viewBox="0 0 69 50" fill="none" xmlns="http://www.w3.org/2000/svg">
<path d="M34.3269 50C15.3956 50 0 38.7823 0 24.996C0 11.2098 15.3956 0 34.3269 0C53.2583 0 68.6539 11.2177 68.6539 24.996C68.6539 38.7744 53.2583 49.9921 34.3269 49.9921V50ZM34.3269 2.35453C16.6957 2.35453 2.35453 12.5178 2.35453 24.996C2.35453 37.4742 16.6957 47.6375 34.3269 47.6375C51.9581 47.6375 66.2993 37.4822 66.2993 24.996C66.2993 12.5099 51.9581 2.35453 34.3269 2.35453Z" fill="#FFFAEE"/>
<path d="M53.2821 33.5262C48.2718 32.9475 44.411 29.3245 44.411 25.0039C44.411 20.6833 48.2638 17.0524 53.2821 16.4816V12.4702C46.052 13.0886 40.4233 18.527 40.4233 25.0039C40.4233 31.4808 46.0441 36.9192 53.2821 37.5376V33.5262Z" fill="#FFFAEE"/>
<path d="M39.6701 33.5262C34.6598 32.9475 30.799 29.3245 30.799 25.0039C30.799 20.6833 34.6519 17.0524 39.6701 16.4816V12.4702C32.4401 13.0886 26.8114 18.527 26.8114 25.0039C26.8114 31.4808 32.4321 36.9192 39.6701 37.5376V33.5262Z" fill="#FFFAEE"/>
<path d="M26.8115 33.5262C21.8012 32.9475 17.9404 29.3245 17.9404 25.0039C17.9404 20.6833 21.7933 17.0524 26.8115 16.4816V12.4702C19.5814 13.0886 13.9528 18.527 13.9528 25.0039C13.9528 31.4808 19.5735 36.9192 26.8115 37.5376V33.5262Z" fill="#FFFAEE"/>
</svg>
