<svg width="50" height="50" viewBox="0 0 50 50" fill="none" xmlns="http://www.w3.org/2000/svg">
<path d="M6.20536 8.51782V41.4821C2.34821 37.0803 0 31.3125 0 25C0 18.6875 2.34821 12.9196 6.20536 8.51782Z" fill="#FFFAEE"/>
<path d="M41.4822 43.7947C37.0804 47.6518 31.3126 50 25.0001 50C18.6876 50 12.9197 47.6518 8.51794 43.7947H41.4822Z" fill="#FFFAEE"/>
<path d="M41.4822 6.20536H8.51794C12.9197 2.34821 18.6876 0 25.0001 0C31.3126 0 37.0804 2.34821 41.4822 6.20536Z" fill="#FFFAEE"/>
<path d="M50 25C50 31.3125 47.6518 37.0803 43.7947 41.4821V8.51782C47.6518 12.9196 50 18.6875 50 25Z" fill="#FFFAEE"/>
<path d="M36.3661 13.6338C33.4554 10.732 29.4375 8.92847 25 8.92847C16.125 8.92847 8.92859 16.1249 8.92859 24.9999C8.92859 29.4374 10.7322 33.4553 13.6339 36.366C16.5447 39.2678 20.5625 41.0713 25 41.0713C29.4375 41.0713 33.4554 39.2678 36.3661 36.366C39.2679 33.4553 41.0714 29.4374 41.0714 24.9999C41.0714 20.5624 39.2679 16.5445 36.3661 13.6338ZM35.625 35.6249H14.375V14.3749H35.625V35.6249Z" fill="#FFFAEE"/>
<path d="M28.8214 24.9821C28.8214 27.0981 27.1072 28.8035 25 28.8035C22.8929 28.8035 21.1786 27.0981 21.1786 24.9821C21.1786 22.866 22.8929 21.1606 25 21.1606C27.1072 21.1606 28.8214 22.8749 28.8214 24.9821Z" fill="#FFFAEE"/>
</svg>
