<svg width="50" height="51" viewBox="0 0 50 51" fill="none" xmlns="http://www.w3.org/2000/svg">
<path d="M23.6629 33.8164C22.0919 33.8164 20.5643 33.8211 19.0368 33.8094C18.9014 33.8094 18.7436 33.7181 18.6358 33.6409C15.0141 31.0602 11.3964 28.4759 7.77858 25.8917C5.28873 24.1135 2.80152 22.3353 0.306412 20.5618C0.097391 20.4132 -0.00383289 20.2681 0.000110902 20.0529C0.0158861 19.1076 0.00668389 18.1624 0.00668389 17.2171C0.00668389 17.1305 0.00668389 17.0451 0.00668389 16.9293C0.18284 16.9235 0.327445 16.9129 0.473366 16.9129C4.92328 16.9129 9.37319 16.9141 13.8218 16.9094C14.0992 16.9094 14.3042 16.9586 14.5067 17.1036C17.4803 19.2375 20.4658 21.3631 23.4381 23.4981C23.5735 23.5952 23.6826 23.7637 23.6826 23.8982C23.6957 27.1142 23.6931 30.3302 23.6918 33.5473C23.6918 33.6234 23.676 33.6994 23.6629 33.8152V33.8164Z" fill="#FFFAEE"/>
<path d="M26.3118 33.8187C26.3118 33.6725 26.3118 33.5672 26.3118 33.4631C26.3118 30.3056 26.3144 27.1481 26.3065 23.9895C26.3065 23.7696 26.3893 23.6093 26.6115 23.4514C29.5983 21.3269 32.5758 19.1954 35.5639 17.0721C35.6835 16.9867 35.8912 16.9211 36.0582 16.9211C40.6028 16.913 45.1486 16.9141 49.6932 16.9141C49.7734 16.9141 49.8536 16.9235 49.9732 16.9305C49.9824 17.0299 49.9969 17.1224 49.9969 17.2159C49.9982 18.1706 50.0074 19.1263 49.9864 20.081C49.9837 20.2272 49.8891 20.4097 49.7471 20.5103C44.7464 24.0913 39.7351 27.6652 34.7265 31.2403C33.6262 32.0253 32.5232 32.8091 31.4361 33.6035C31.2165 33.7638 30.9931 33.8246 30.6841 33.8234C29.2525 33.8141 27.8196 33.8187 26.3118 33.8187Z" fill="#FFFAEE"/>
<path d="M23.6629 16.907C22.0919 16.907 20.5643 16.9116 19.0368 16.8999C18.9014 16.8999 18.7436 16.8087 18.6358 16.7315C15.0141 14.1507 11.3964 11.5665 7.77858 8.98226C5.28873 7.20406 2.80152 5.42469 0.306412 3.65116C0.097391 3.50376 -0.00383289 3.3587 0.000110902 3.14344C0.0172007 2.19819 0.00668389 1.25293 0.00668389 0.307676C0.00668389 0.221105 0.00668389 0.135705 0.00668389 0.0198878C0.18284 0.0128686 0.32876 0.00350961 0.473366 0.00350961C4.92328 0.00233974 9.37319 0.00467948 13.8218 0C14.0992 0 14.3042 0.0491345 14.5067 0.194198C17.4803 2.32804 20.4658 4.45369 23.4381 6.58871C23.5735 6.68581 23.6826 6.85427 23.6826 6.9888C23.6957 10.2048 23.6931 13.4207 23.6918 16.6379C23.6918 16.7139 23.676 16.79 23.6629 16.9058V16.907Z" fill="#FFFAEE"/>
<path d="M26.3118 16.9081C26.3118 16.7619 26.3118 16.6566 26.3118 16.5525C26.3118 13.395 26.3144 10.2375 26.3065 7.07885C26.3065 6.85891 26.3893 6.69864 26.6115 6.54071C29.5983 4.41622 32.5758 2.28472 35.5639 0.161408C35.6835 0.0760077 35.8912 0.010495 36.0582 0.010495C40.6028 0.00230587 45.1486 0.00347574 49.6932 0.00347574C49.7734 0.00347574 49.8536 0.0128347 49.9732 0.0198539C49.9824 0.119293 49.9969 0.211713 49.9969 0.305302C49.9982 1.25992 50.0074 2.2157 49.9864 3.17031C49.9837 3.31655 49.8891 3.49905 49.7471 3.59966C44.7464 7.18063 39.7351 10.7546 34.7265 14.3297C33.6262 15.1147 32.5232 15.8985 31.4361 16.6928C31.2165 16.8531 30.9931 16.9139 30.6841 16.9128C29.2525 16.9034 27.8196 16.9081 26.3118 16.9081Z" fill="#FFFAEE"/>
<path d="M0.0434511 33.7391C0.199888 33.7391 0.345808 33.7391 0.493043 33.7391C4.94427 33.7391 9.39549 33.7414 13.848 33.7344C14.132 33.7344 14.3279 33.7975 14.5251 33.9391C17.4829 36.0589 20.4513 38.1717 23.4025 40.2962C23.5616 40.4108 23.6812 40.612 23.6812 40.7747C23.697 43.9532 23.6891 47.1317 23.6996 50.3103C23.6996 50.5559 23.6299 50.6519 23.2527 50.6484C21.942 50.6331 20.6314 50.639 19.3207 50.646C19.0157 50.6472 18.7896 50.5828 18.5661 50.4237C12.4703 46.0625 6.36666 41.707 0.269562 37.3469C0.147304 37.2592 0.021103 37.1223 0.0184738 37.0077C6.94417e-05 35.9641 0.00795702 34.9218 0.00927162 33.8783C0.00927162 33.842 0.0263614 33.8046 0.0421365 33.7402L0.0434511 33.7391Z" fill="#FFFAEE"/>
<path d="M49.9968 33.7543C49.9968 34.8691 50.0034 35.9501 49.9863 37.0322C49.985 37.1375 49.8549 37.2615 49.7392 37.3434C45.4865 40.3863 41.2272 43.4267 36.9705 46.4661C35.1169 47.7892 33.2673 49.1158 31.4019 50.4308C31.2467 50.5407 30.9865 50.6285 30.7722 50.6308C29.4076 50.6483 28.0418 50.6355 26.6759 50.6437C26.384 50.646 26.3078 50.57 26.3078 50.3711C26.3144 47.1539 26.3091 43.9356 26.3236 40.7185C26.3236 40.5828 26.434 40.4155 26.5694 40.3172C29.543 38.181 32.5258 36.0519 35.5166 33.9274C35.6546 33.8303 35.8846 33.7449 36.0713 33.7449C40.5909 33.7344 45.1105 33.7367 49.6301 33.7379C49.7365 33.7379 49.843 33.7461 49.9968 33.7531V33.7543Z" fill="#FFFAEE"/>
</svg>
