<svg width="50" height="50" viewBox="0 0 50 50" fill="none" xmlns="http://www.w3.org/2000/svg">
<path d="M6.0431 0H43.9565C47.2887 0 50 2.71131 50 6.04347V43.9565C50 47.2891 47.2887 50 43.9565 50H6.04348C2.71093 50 0 47.2887 0 43.9565V6.04347C0 2.71093 2.71132 0 6.04348 0H6.0431ZM43.9565 3.42385H6.04348C4.599 3.42385 3.42385 4.59899 3.42385 6.04347V17.6416H28.5401L18.0125 7.85812H23.0452L35.406 19.3501L24.4661 29.5239H46.5762V6.04347C46.5762 4.59899 45.401 3.42385 43.9565 3.42385ZM6.0431 46.5765H43.9565C45.401 46.5765 46.5762 45.4014 46.5762 43.9569V32.9477H24.2804L34.808 42.7312H29.7753L17.4145 31.2392L28.3544 21.0654H3.4231V43.9565C3.4231 45.401 4.59824 46.5761 6.04272 46.5761L6.0431 46.5765Z" fill="#FFFAEE"/>
</svg>
