<svg width="51" height="50" viewBox="0 0 51 50" fill="none" xmlns="http://www.w3.org/2000/svg">
<path d="M23.1997 23.4732C21.02 22.4481 17.1976 21.5743 12.5843 21.3647C5.30839 21.0343 -1.17466e-06 23.1268 -1.07965e-06 25.3004C-1.01786e-06 26.7142 2.38346 27.9538 5.96222 28.6478C4.59342 28.0775 3.83852 27.3515 3.83852 26.4871C3.83852 24.5707 10.3473 20.869 20.027 22.8519C21.1819 23.0885 22.237 23.2931 23.1997 23.4732Z" fill="#FFFAEE"/>
<path d="M27.3003 26.5268C29.48 27.5519 33.3024 28.4257 37.9157 28.6353C45.1916 28.9657 50.5 26.8732 50.5 24.6996C50.5 23.2858 48.1165 22.0462 44.5378 21.3522C45.9066 21.9225 46.6615 22.6485 46.6615 23.5129C46.6615 25.4293 40.1527 29.131 30.473 27.1481C29.3181 26.9115 28.263 26.7069 27.3003 26.5268Z" fill="#FFFAEE"/>
<path d="M26.7921 22.97C27.8274 20.8118 28.71 17.0273 28.9216 12.4597C29.2554 5.25584 27.1419 -1.18641e-06 24.9466 -1.09045e-06C23.5187 -1.02803e-06 22.2666 2.35986 21.5657 5.90319C22.1417 4.54794 22.875 3.80051 23.748 3.80051C25.6836 3.80051 29.4223 10.2449 27.4196 19.8288C27.1806 20.9722 26.974 22.0168 26.7921 22.97Z" fill="#FFFAEE"/>
<path d="M23.7079 27.03C22.6726 29.1882 21.79 32.9727 21.5784 37.5403C21.2446 44.7442 23.3581 50 25.5534 50C26.9813 50 28.2334 47.6401 28.9343 44.0968C28.3583 45.4521 27.625 46.1995 26.752 46.1995C24.8164 46.1995 21.0777 39.7551 23.0804 30.1712C23.3194 29.0278 23.526 27.9832 23.7079 27.03Z" fill="#FFFAEE"/>
<path d="M24.8906 22.4849C24.0814 20.2341 22.0026 16.9401 18.8902 13.5621C13.9813 8.23457 8.73329 5.99778 7.18094 7.53477C6.17126 8.53444 6.97129 11.0797 9.00625 14.0759C8.44567 12.7143 8.43034 11.6725 9.04766 11.0613C10.4163 9.70612 17.6624 11.6455 23.0909 19.8244C23.7385 20.8002 24.3385 21.6836 24.8906 22.4849Z" fill="#FFFAEE"/>
<path d="M25.6093 27.5151C26.4185 29.7659 28.4973 33.0599 31.6097 36.4379C36.5185 41.7654 41.7666 44.0022 43.319 42.4652C44.3286 41.4656 43.5286 38.9203 41.4936 35.9241C42.0542 37.2857 42.0696 38.3275 41.4522 38.9387C40.0835 40.2939 32.8375 38.3545 27.409 30.1756C26.7613 29.1997 26.1614 28.3164 25.6093 27.5151Z" fill="#FFFAEE"/>
<path d="M27.7902 24.6442C30.0635 23.843 33.3904 21.7848 36.8022 18.7032C42.183 13.843 44.4422 8.64688 42.8898 7.10989C41.8802 6.11022 39.3095 6.90233 36.2833 8.91714C37.6585 8.3621 38.7107 8.34692 39.3281 8.95814C40.6968 10.3133 38.738 17.4876 30.4773 22.8623C29.4917 23.5036 28.5995 24.0976 27.7902 24.6442Z" fill="#FFFAEE"/>
<path d="M22.7097 25.3558C20.4364 26.157 17.1095 28.2152 13.6977 31.2968C8.31686 36.157 6.0577 41.3531 7.61006 42.8901C8.61973 43.8898 11.1904 43.0977 14.2166 41.0829C12.8414 41.6379 11.7891 41.6531 11.1718 41.0419C9.80313 39.6867 11.7619 32.5124 20.0226 27.1377C21.0082 26.4964 21.9004 25.9024 22.7097 25.3558Z" fill="#FFFAEE"/>
<path d="M22.7656 24.3663C20.3557 24.2451 16.4865 24.886 12.1433 26.4404C5.29358 28.8919 1.19805 32.8365 2.03818 34.8447C2.58461 36.1508 5.26578 36.393 8.84035 35.6782C7.35531 35.6699 6.37727 35.2852 6.04318 34.4866C5.30245 32.7161 9.88506 26.83 19.5944 24.9944C20.7528 24.7754 21.8066 24.5646 22.7656 24.3663Z" fill="#FFFAEE"/>
<path d="M27.7344 25.6337C30.1444 25.7549 34.0135 25.114 38.3567 23.5596C45.2065 21.1081 49.302 17.1635 48.4619 15.1554C47.9154 13.8492 45.2343 13.607 41.6597 14.3218C43.1447 14.3301 44.1228 14.7148 44.4569 15.5134C45.1976 17.2839 40.615 23.17 30.9057 25.0056C29.7473 25.2246 28.6934 25.4354 27.7344 25.6337Z" fill="#FFFAEE"/>
<path d="M25.8901 22.5402C26.0125 20.1541 25.3651 16.3233 23.7952 12.0231C21.3192 5.24116 17.3352 1.18618 15.3069 2.01799C13.9877 2.55901 13.7431 5.21363 14.4651 8.7528C14.4734 7.28247 14.862 6.31412 15.6685 5.98333C17.4568 5.24994 23.4017 9.78717 25.2557 19.4004C25.4769 20.5473 25.6898 21.5907 25.8901 22.5402Z" fill="#FFFAEE"/>
<path d="M24.6099 27.4598C24.4876 29.8459 25.1349 33.6767 26.7048 37.9769C29.1808 44.7589 33.1649 48.8138 35.1931 47.982C36.5123 47.441 36.7569 44.7864 36.035 41.2472C36.0266 42.7175 35.6381 43.6859 34.8315 44.0167C33.0432 44.7501 27.0983 40.2128 25.2443 30.5997C25.0231 29.4527 24.8103 28.4093 24.6099 27.4598Z" fill="#FFFAEE"/>
<path d="M23.9458 22.8126C22.3282 21.0396 19.1346 18.784 14.9534 16.8425C8.35911 13.7804 2.64601 13.7023 1.80588 15.7105C1.25945 17.0166 2.98234 19.065 6.02046 21.0621C4.97629 20.0166 4.55944 19.0598 4.89353 18.2612C5.63426 16.4907 13.0783 15.5369 21.2548 21.0365C22.2304 21.6926 23.1261 22.2814 23.9458 22.8126Z" fill="#FFFAEE"/>
<path d="M26.5541 27.1874C28.1717 28.9604 31.3653 31.216 35.5465 33.1575C42.1408 36.2196 47.8539 36.2977 48.694 34.2895C49.2405 32.9834 47.5176 30.935 44.4795 28.9379C45.5236 29.9834 45.9405 30.9402 45.6064 31.7388C44.8657 33.5093 37.4216 34.4631 29.2451 28.9635C28.2696 28.3074 27.3739 27.7186 26.5541 27.1874Z" fill="#FFFAEE"/>
<path d="M27.4593 23.7088C29.2499 22.1072 31.5281 18.9452 33.4891 14.8054C36.5818 8.2764 36.6606 2.61985 34.6324 1.78804C33.3132 1.24702 31.2443 2.95285 29.2272 5.9609C30.2832 4.92706 31.2495 4.51434 32.0561 4.84513C33.8444 5.57852 34.8077 12.9489 29.2531 21.0444C28.5904 22.0103 27.9958 22.8971 27.4593 23.7088Z" fill="#FFFAEE"/>
<path d="M23.0406 26.2912C21.25 27.8928 18.9718 31.0548 17.0109 35.1946C13.9181 41.7236 13.8393 47.3801 15.8675 48.212C17.1867 48.753 19.2556 47.0471 21.2727 44.0391C20.2167 45.0729 19.2504 45.4857 18.4438 45.1549C16.6555 44.4215 15.6922 37.0511 21.2468 28.9556C21.9095 27.9897 22.5042 27.1029 23.0406 26.2912Z" fill="#FFFAEE"/>
</svg>
