<svg width="50" height="52" viewBox="0 0 50 52" fill="none" xmlns="http://www.w3.org/2000/svg">
<path d="M26.0956 0.63884L25.8658 0.623446V0.161634C25.8658 0.107756 25.8581 0.053878 25.8504 0H23.7052C23.7052 0.053878 23.6899 0.107756 23.6899 0.161634V0.66193L23.4677 0.677324C11.6304 1.55477 2.37511 12.3458 0 22.5287C2.10696 20.5352 5.04137 19.4115 8.15967 19.4115C11.278 19.4115 14.289 20.5737 16.396 22.6134C18.1964 20.4121 20.7401 18.9189 23.4217 18.4956L23.6975 18.4494V46.7123C23.6975 48.344 22.464 49.6679 20.9546 49.6679C19.4453 49.6679 18.2118 48.344 18.2118 46.7123V46.5429H16.0359V46.7123C16.0359 49.6294 18.2424 52 20.9546 52C23.6669 52 25.8734 49.6294 25.8734 46.7123V18.3955L26.1339 18.4263C29.0224 18.7265 31.7652 20.2504 33.696 22.6134C35.8106 20.5737 38.791 19.4115 41.9323 19.4115C45.0736 19.4115 47.9007 20.5121 50 22.444C47.5483 12.0841 38.1321 1.27768 26.0956 0.63884Z" fill="#FFFAEE"/>
</svg>
