<svg width="50" height="50" viewBox="0 0 50 50" fill="none" xmlns="http://www.w3.org/2000/svg">
<path d="M30.3777 50H19.6052V38.0065L11.1245 46.4887L3.51073 38.8736L11.9914 30.3915H0V19.6171H11.9914L3.51073 11.1264L11.133 3.51133L19.6137 11.9935V0H30.3863V11.9935L38.867 3.51133L46.4893 11.1264L38.0086 19.6085H50V30.3829H38.0086L46.4893 38.865L38.867 46.4801L30.3863 37.9979V49.9914L30.3777 50ZM21.7167 47.888H28.2747V32.9155L38.8584 43.501L43.5021 38.8565L32.9185 28.2709H47.8884V21.7119H32.9185L43.5021 11.1264L38.8584 6.4818L28.2747 17.0673V2.10337H21.7167V17.0759L11.133 6.49038L6.48927 11.135L17.073 21.7205H2.103V28.2795H17.073L6.48927 38.865L11.133 43.5096L21.7167 32.9241V47.8966V47.888Z" fill="#FFFAEE"/>
</svg>
