<svg width="50" height="50" viewBox="0 0 50 50" fill="none" xmlns="http://www.w3.org/2000/svg">
<path d="M20.8215 0.0268411C10.0643 1.54642 1.54652 10.0241 0.0669043 20.7812C-0.173033 22.5807 1.2266 24.1802 3.06612 24.1802H21.2614C22.9409 24.1802 24.2606 22.8206 24.2606 21.181V2.98604C24.2206 1.18653 22.621 -0.213093 20.8215 0.0268411Z" fill="#FFFAEE"/>
<path d="M0.0268414 29.1789C1.54644 39.9359 10.0242 48.4536 20.7814 49.9332C22.5809 50.1731 24.1805 48.7735 24.1805 46.934V28.739C24.1805 27.0594 22.8209 25.7398 21.1813 25.7398H2.98608C1.18655 25.7798 -0.213096 27.3794 0.0268414 29.1789Z" fill="#FFFAEE"/>
<path d="M29.1793 49.9732C39.9364 48.4536 48.4542 39.9759 49.9338 29.2188C50.1737 27.4193 48.7741 25.8198 46.9346 25.8198H28.7394C27.0598 25.8198 25.7401 27.1794 25.7401 28.819V47.014C25.7801 48.8135 27.3797 50.2131 29.1793 49.9732Z" fill="#FFFAEE"/>
<path d="M25.7801 3.02604V21.221C25.7801 22.9006 27.1398 24.2202 28.7793 24.2202H46.9746C48.7741 24.2202 50.2137 22.6207 49.9738 20.8212C48.4542 10.0641 39.9764 1.54646 29.2192 0.0668628C27.3797 -0.21306 25.7801 1.18654 25.7801 3.02604Z" fill="#FFFAEE"/>
</svg>
