<svg width="50" height="40" viewBox="0 0 50 40" fill="none" xmlns="http://www.w3.org/2000/svg">
<path d="M25 0C11.2141 0 0 8.96855 0 20C0 31.0314 11.2141 40 25 40C38.7859 40 50 31.0314 50 20C50 8.96855 38.7859 0 25 0ZM23.8951 3.26415V10.7547C21.6535 10.7233 19.4818 10.5912 17.4371 10.3774C19.5453 7.23899 22.1806 4.72956 23.8951 3.26415ZM23.8951 12.8113V18.9748H14.1351C14.3256 16.6164 15.1384 14.3648 16.2624 12.3145C18.6627 12.6101 21.2408 12.7799 23.9014 12.8176L23.8951 12.8113ZM23.8951 21.0252V27.1887C21.2344 27.2264 18.6563 27.3962 16.256 27.6918C15.1384 25.6415 14.3193 23.3899 14.1351 21.0314H23.8951V21.0252ZM23.8951 29.239V36.7358C22.1806 35.2704 19.539 32.761 17.4308 29.6226C19.4755 29.4025 21.6535 29.2704 23.8951 29.239ZM26.1113 36.7296V29.239C28.3338 29.2704 30.5055 29.4088 32.5629 29.6352C30.4547 32.7673 27.8258 35.2704 26.1113 36.7358V36.7296ZM26.1113 27.1824V21.0189H35.8712C35.6807 23.3836 34.8679 25.6352 33.744 27.6855C31.3437 27.3899 28.7719 27.2138 26.1113 27.1761V27.1824ZM26.1113 18.9686V12.805C28.7719 12.7673 31.3437 12.5912 33.744 12.2956C34.8679 14.3459 35.6871 16.6038 35.8712 18.9623H26.1113V18.9686ZM26.1113 10.7547V3.26415C27.8258 4.72956 30.4547 7.2327 32.5629 10.3648C30.5055 10.5912 28.3338 10.7233 26.1113 10.761V10.7547ZM28.1877 2.2327C33.7757 2.84906 38.7224 5.07547 42.2466 8.28931C40.2908 9.03145 37.7889 9.62893 34.9759 10.0503C32.874 6.67296 30.1499 3.94969 28.1877 2.2327ZM15.0178 10.0692C12.2047 9.6478 9.71552 9.05031 7.74067 8.30189C11.2649 5.07547 16.2179 2.84906 21.8186 2.22641C19.8565 3.94969 17.126 6.67924 15.0241 10.0629L15.0178 10.0692ZM13.9446 11.9811C12.8588 14.1258 12.0777 16.478 11.9063 18.9686H2.25425C2.49556 15.6226 3.90526 12.522 6.16586 9.91195C8.24232 10.7799 10.903 11.4843 13.9446 11.9811ZM11.9063 21.0252C12.0777 23.5157 12.8588 25.8679 13.9446 28.0126C10.9093 28.5094 8.24867 29.2075 6.16586 30.0818C3.90526 27.4717 2.49556 24.3711 2.25425 21.0252H11.8999H11.9063ZM15.0178 29.9245C17.126 33.3082 19.8501 36.0377 21.8123 37.761C16.2116 37.1384 11.2586 34.9119 7.73432 31.6855C9.71552 30.9371 12.1984 30.3396 15.0114 29.9182L15.0178 29.9245ZM34.9695 29.9434C37.7889 30.3648 40.2845 30.9686 42.2403 31.7044C38.716 34.9182 33.7694 37.1447 28.1814 37.761C30.1435 36.0377 32.8613 33.3145 34.9695 29.9434ZM36.0554 28.0189C37.1476 25.8679 37.9286 23.5157 38.1001 21.0189H47.7458C47.5044 24.3711 46.0884 27.478 43.8214 30.0943C41.7513 29.2201 39.0907 28.5157 36.0554 28.0189ZM38.1001 18.9686C37.9286 16.478 37.1476 14.1195 36.0554 11.9686C39.0907 11.4717 41.745 10.7673 43.8214 9.89308C46.0884 12.5094 47.5044 15.6164 47.7458 18.9686H38.1001Z" fill="#FFFAEE"/>
</svg>
