<svg width="129" height="256" viewBox="0 0 129 256" fill="none" xmlns="http://www.w3.org/2000/svg">
<path d="M0.0141602 0.0141068C91.1723 0.310349 153.341 93.6973 118.06 177.788C99.0156 224.524 50.4742 256.772 0.0141602 255.982C69.1233 256.264 127.102 197.989 126.228 128.88C126.51 60.2783 68.6296 2.68029 0.0141602 3.55491V0V0.0141068Z" fill="#FFFAEE"/>
<path d="M0.0141602 10.2556C83.9073 10.5378 141.11 96.4904 108.636 173.88C91.1017 216.878 46.4396 246.544 0.0141602 245.811C63.5653 246.051 116.903 192.459 116.071 128.894C116.325 65.8223 63.0997 12.8654 0.0141602 13.6836V10.2697V10.2556Z" fill="#FFFAEE"/>
<path d="M0.0141602 20.4972C76.6423 20.7652 128.894 99.2836 99.2131 169.973C83.2019 209.232 42.4051 236.303 0.0141602 235.626C58.0213 235.837 106.69 186.901 105.928 128.88C106.14 71.324 57.5699 23.0223 0.0141602 23.7841V20.4972Z" fill="#FFFAEE"/>
<path d="M0.0141602 30.7529C69.3773 31.021 116.663 102.091 89.7757 166.079C75.2739 201.586 38.3705 226.09 0.0141602 225.455C52.4773 225.624 96.4905 181.371 95.7852 128.894C95.9685 76.868 52.0541 33.2075 0.0141602 33.9129V30.7529Z" fill="#FFFAEE"/>
<path d="M0.0141602 40.9944C62.1123 41.2483 104.447 104.898 80.3524 162.172C67.36 193.94 34.336 215.848 0.0141602 215.27C34.1244 215.467 66.7534 193.432 79.3084 161.734C97.2523 118.695 75.8946 67.5857 32.5726 50.2908C22.2606 46.0728 11.1303 43.9568 0.0141602 44.0132V40.9944Z" fill="#FFFAEE"/>
<path d="M0.0141602 51.2358C54.8473 51.4898 92.2302 107.691 70.929 158.264C59.4602 186.294 30.3014 205.621 0.0141602 205.099C41.3894 205.197 76.0921 170.283 75.4996 128.894C75.6125 87.9135 41.0085 53.5352 0.0141602 54.1418V51.2499V51.2358Z" fill="#FFFAEE"/>
<path d="M0.0141602 61.4774C47.5823 61.7595 79.9855 110.47 61.4915 154.342C51.5463 178.648 26.2669 195.337 0.0141602 194.899C35.8736 194.928 65.8365 164.739 65.3568 128.88C65.385 93.401 35.5069 63.7344 0.0141602 64.2282V61.4633V61.4774Z" fill="#FFFAEE"/>
<path d="M0.0141206 71.7189C40.3172 71.9869 67.769 113.263 52.0682 150.435C43.6323 171.002 22.2323 185.109 0.0141206 184.728C30.3296 184.728 55.6513 159.209 55.1999 128.88C55.2563 107.113 41.1918 86.3053 20.9345 78.3491C14.3043 75.6547 7.15214 74.3004 0 74.3427V71.7189H0.0141206Z" fill="#FFFAEE"/>
<path d="M0.0141602 81.9604C33.0099 82.1721 55.5667 116.127 42.6308 146.527C35.7043 163.343 18.1837 174.882 0.0141602 174.543C24.7293 174.543 45.4803 153.595 45.0571 128.88C45.0854 111.119 33.6024 94.1628 17.0693 87.7019C11.6664 85.5154 5.82616 84.415 0.0141602 84.4574V81.9604Z" fill="#FFFAEE"/>
<path d="M0.0141602 92.2161C32.1776 92.5828 48.2171 131.588 25.3218 154.201C18.6351 160.789 9.32464 164.513 0.0141602 164.386C19.0019 164.527 35.4504 147.811 34.9144 128.894C35.0413 110.23 18.621 94.0499 0.0141602 94.586V92.2161Z" fill="#FFFAEE"/>
</svg>
