<svg width="283" height="51" viewBox="0 0 283 51" fill="none" xmlns="http://www.w3.org/2000/svg">
<path d="M2.08 0H0V50.0642H2.08V0Z" fill="#FFFAEE"/>
<path d="M6.63994 0H4.55994V50.0642H6.63994V0Z" fill="#FFFAEE"/>
<path d="M11.19 0H9.10999V50.0642H11.19V0Z" fill="#FFFAEE"/>
<path d="M15.7499 0H13.6699V50.0642H15.7499V0Z" fill="#FFFAEE"/>
<path d="M20.3 0H18.22V50.0642H20.3V0Z" fill="#FFFAEE"/>
<path d="M23.5299 50.0646H24.6799L24.6799 0.000411987H23.5299L23.5299 50.0646Z" fill="#FFFAEE"/>
<path d="M26.58 50.0646H27.73L27.73 0.000411987H26.58L26.58 50.0646Z" fill="#FFFAEE"/>
<path d="M30.1599 50.0646H31.3099L31.3099 0.000411987H30.1599L30.1599 50.0646Z" fill="#FFFAEE"/>
<path d="M249.75 50.0646H282.3V0.000411987H249.75V50.0646Z" fill="#FFFAEE"/>
<path d="M211.54 50.0646H244.09V0.000411987H211.54V50.0646Z" fill="#FFFAEE"/>
<path d="M179 50.0646H205.89V0.000411987H179V50.0646Z" fill="#FFFAEE"/>
<path d="M156.71 50.0646H173.34V0.000411987H156.71V50.0646Z" fill="#FFFAEE"/>
<path d="M142.57 50.0646H150.88V0.000411987H142.57V50.0646Z" fill="#FFFAEE"/>
<path d="M128.42 50.0646H136.73V0.000411987H128.42V50.0646Z" fill="#FFFAEE"/>
<path d="M114.27 50.0646H122.58L122.58 0.000411987H114.27L114.27 50.0646Z" fill="#FFFAEE"/>
<path d="M104.27 50.0646H108.43L108.43 0.000411987H104.27L104.27 50.0646Z" fill="#FFFAEE"/>
<path d="M97.64 50.0646H101.8L101.8 0.000411987H97.64L97.64 50.0646Z" fill="#FFFAEE"/>
<path d="M90.9999 50.0646H95.1599L95.1599 0.000411987H90.9999L90.9999 50.0646Z" fill="#FFFAEE"/>
<path d="M84.38 50.0646H88.54L88.54 0.000411987H84.38L84.38 50.0646Z" fill="#FFFAEE"/>
<path d="M77.74 50.0646H81.9L81.9 0.000411987H77.74L77.74 50.0646Z" fill="#FFFAEE"/>
<path d="M73.18 50.0646H75.26L75.26 0.000411987H73.18L73.18 50.0646Z" fill="#FFFAEE"/>
<path d="M68.63 50.0646H70.71L70.71 0.000411987H68.63L68.63 50.0646Z" fill="#FFFAEE"/>
<path d="M64.07 50.0646H66.15L66.15 0.000411987H64.07L64.07 50.0646Z" fill="#FFFAEE"/>
<path d="M59.53 50.0646H61.61L61.61 0.000411987H59.53L59.53 50.0646Z" fill="#FFFAEE"/>
<path d="M54.9699 50.0646H57.0499L57.0499 0.000411987H54.9699L54.9699 50.0646Z" fill="#FFFAEE"/>
<path d="M51.74 0H50.59V50.0642H51.74V0Z" fill="#FFFAEE"/>
<path d="M48.69 0H47.54V50.0642H48.69V0Z" fill="#FFFAEE"/>
<path d="M45.11 0H43.96V50.0642H45.11V0Z" fill="#FFFAEE"/>
<path d="M40.69 0H39.54V50.0642H40.69V0Z" fill="#FFFAEE"/>
<path d="M36 0H34.85V50.0642H36V0Z" fill="#FFFAEE"/>
</svg>
