<svg width="187" height="86" viewBox="0 0 187 86" fill="none" xmlns="http://www.w3.org/2000/svg">
<path d="M110.883 13.9632L93.5 5.9726L76.1167 13.9632L73.8315 9.04693L93.5 0L113.155 9.04693L110.883 13.9632Z" fill="#FFFAEE"/>
<path d="M63.8402 13.6402L33.8604 27.4331L36.1425 32.3508L66.1224 18.5579L63.8402 13.6402Z" fill="#FFFAEE"/>
<path d="M23.8715 53.9836L0 43L23.8715 32.0299L26.1566 36.9461L12.9763 43L26.1566 49.0674L23.8715 53.9836Z" fill="#FFFAEE"/>
<path d="M36.1387 53.659L33.8574 58.5771L63.8397 72.3648L66.121 67.4467L36.1387 53.659Z" fill="#FFFAEE"/>
<path d="M93.5 86L73.8315 76.9666L76.1167 72.0504L93.5 80.041L110.883 72.0504L113.155 76.9666L93.5 86Z" fill="#FFFAEE"/>
<path d="M150.846 53.6639L120.866 67.4568L123.148 72.3745L153.128 58.5816L150.846 53.6639Z" fill="#FFFAEE"/>
<path d="M163.128 53.9836L160.843 49.0674L174.024 43L160.843 36.9461L163.128 32.0299L187 43L163.128 53.9836Z" fill="#FFFAEE"/>
<path d="M123.165 13.6426L120.883 18.5603L150.863 32.3532L153.145 27.4355L123.165 13.6426Z" fill="#FFFAEE"/>
</svg>
