<svg width="129" height="256" viewBox="0 0 129 256" fill="none" xmlns="http://www.w3.org/2000/svg">
<path d="M128.076 255.982C36.9183 255.686 -25.2504 162.299 10.0307 78.2082C29.0749 31.4723 77.6164 -0.775782 128.076 0.0141989C58.9813 -0.267937 0.988283 58.0072 1.8629 127.116C1.58077 195.718 59.4609 253.316 128.076 252.441V255.996V255.982Z" fill="#FFFAEE"/>
<path d="M128.076 245.74C44.1833 245.458 -13.0198 159.506 19.4541 82.1157C36.9888 39.1182 81.6509 9.45158 128.076 10.1992C64.5253 9.94532 11.1875 63.5511 12.0198 127.116C11.7659 190.188 64.9908 243.145 128.076 242.327V245.74Z" fill="#FFFAEE"/>
<path d="M128.076 235.485C51.4481 235.217 -0.803473 156.698 28.8772 86.0093C44.9025 46.7642 85.6853 19.6791 128.076 20.3704C70.0691 20.1588 21.4006 69.0952 22.1624 127.102C21.9508 184.658 70.5205 232.96 128.076 232.198V235.485Z" fill="#FFFAEE"/>
<path d="M128.076 225.243C58.7133 224.975 11.4273 153.905 38.3148 89.9167C52.8166 54.4099 89.72 29.9064 128.076 30.5412C75.6132 30.3719 31.6 74.625 32.3054 127.102C32.122 179.128 76.0364 222.789 128.076 222.083V225.243Z" fill="#FFFAEE"/>
<path d="M128.076 215.002C65.9781 214.748 23.6436 151.098 47.738 93.8245C60.7304 62.056 93.7544 40.1481 128.076 40.7265C93.966 40.529 61.337 62.5638 48.7819 94.2618C30.8381 137.302 52.1958 188.411 95.5177 205.705C105.83 209.923 116.96 212.039 128.076 211.983V215.002Z" fill="#FFFAEE"/>
<path d="M128.076 204.76C73.2433 204.506 35.8603 148.305 57.1616 97.732C68.6304 69.7018 97.7891 50.3755 128.076 50.8974C86.7012 50.7987 51.9985 85.713 52.591 127.102C52.4781 168.083 87.0821 202.461 128.076 201.854V204.746V204.76Z" fill="#FFFAEE"/>
<path d="M128.077 194.519C80.5084 194.237 48.1051 145.526 66.5991 101.654C76.5444 77.3477 101.824 60.6593 128.077 61.0967C92.2171 61.0684 62.2542 91.257 62.7339 127.116C62.7057 162.595 92.5838 192.262 128.077 191.768V194.533V194.519Z" fill="#FFFAEE"/>
<path d="M128.076 184.277C87.7733 184.009 60.3215 142.733 76.0223 105.561C84.4582 84.9936 105.858 70.8868 128.076 71.2677C97.7609 71.2677 72.4392 96.7868 72.8906 127.116C72.8342 148.883 86.8987 169.691 107.156 177.647C113.786 180.341 120.938 181.696 128.091 181.653V184.277H128.076Z" fill="#FFFAEE"/>
<path d="M128.076 174.022C95.0805 173.81 72.5237 139.855 85.4596 109.455C92.3861 92.6394 109.907 81.1001 128.076 81.4387C103.361 81.4387 82.6101 102.387 83.0333 127.102C83.0051 144.849 94.488 161.819 111.021 168.28C116.424 170.467 122.264 171.567 128.076 171.525V174.022Z" fill="#FFFAEE"/>
<path d="M128.076 163.78C95.9128 163.413 79.8733 124.408 102.769 101.795C109.455 95.2069 118.766 91.4827 128.076 91.6097C109.089 91.4686 92.64 108.185 93.176 127.102C93.0491 145.766 109.469 161.946 128.076 161.41V163.78Z" fill="#FFFAEE"/>
</svg>
