<svg width="648" height="113" viewBox="0 0 648 113" fill="none" xmlns="http://www.w3.org/2000/svg">
<path d="M112.18 0H107.18H0V112.18H107.18H112.18V5V0ZM5 107.18V8.54L103.64 107.18H5ZM107.18 103.64L8.54 5H107.18V103.64Z" fill="#FFFAEE"/>
<path d="M326.18 0H321.18H214V112.18H321.18H326.18V5V0ZM219 107.18V8.54L317.64 107.18H219ZM321.18 103.64L222.54 5H321.18V103.64Z" fill="#FFFAEE"/>
<path d="M540.18 0H535.18H428V112.18H535.18H540.18V5V0ZM433 107.18V8.54L531.64 107.18H433ZM535.18 103.64L436.54 5H535.18V103.64Z" fill="#FFFAEE"/>
<path d="M219.18 0H214.18H107V112.18H214.18H219.18V5V0ZM112 107.18V8.54L210.64 107.18H112ZM214.18 103.64L115.54 5H214.18V103.64Z" fill="#FFFAEE"/>
<path d="M433.18 0H428.18H321V112.18H428.18H433.18V5V0ZM326 107.18V8.54L424.64 107.18H326ZM428.18 103.64L329.54 5H428.18V103.64Z" fill="#FFFAEE"/>
<path d="M647.18 0H642.18H535V112.18H642.18H647.18V5V0ZM540 107.18V8.54L638.64 107.18H540ZM642.18 103.64L543.54 5H642.18V103.64Z" fill="#FFFAEE"/>
</svg>
