<svg width="400" height="188" viewBox="0 0 400 188" fill="none" xmlns="http://www.w3.org/2000/svg">
<path d="M0.03 18.6411C3.54 17.7411 7.04 16.8411 10.75 15.9011C9.87 15.4111 9.02 14.9411 8.15 14.4711C8.26 14.2511 8.31 13.9411 8.46 13.8711C12.93 11.6711 17.21 8.68111 21.94 7.56111C26.46 6.49111 31.45 7.26111 36.22 7.44111C37.73 7.50111 39.31 8.05111 40.7 8.71111C43.94 10.2311 46.36 10.8911 50.12 8.39111C52.83 6.59111 57.91 7.74111 61.76 8.47111C65.79 9.23111 69.62 11.0711 73.54 12.4311C73.76 11.7511 73.98 11.0611 74.21 10.3811C72.47 9.92111 70.73 9.47111 68.63 8.92111C69.58 4.96111 66.08 6.75111 64.21 6.15111C67.81 0.831108 72.17 0.471108 76.72 4.35111C78.01 5.45111 80.83 4.91111 82.94 4.81111C83.92 4.77111 84.86 3.98111 85.82 3.54111C86.07 4.07111 86.32 4.59111 86.56 5.12111C84 6.36111 81.43 7.61111 78.29 9.13111C78.36 9.40111 78.52 11.2311 78.9 11.2711C80.78 11.5011 82.76 11.4411 84.63 11.1111C85.91 10.8911 87.03 9.85111 88.32 9.53111C90.27 9.03111 90.77 8.26111 89.23 6.78111C87.28 4.91111 88.35 4.00111 90.31 3.78111C92.32 3.55111 94.37 3.73111 96.38 3.73111C95.53 5.70111 94.59 7.28111 94.31 8.97111C94.24 9.36111 96.41 10.1211 97.16 10.5111C98.33 8.21111 98.88 5.31111 100.2 4.90111C103.38 3.91111 106.93 3.77111 110.3 3.91111C112.11 3.99111 113.98 5.19111 115.62 6.20111C116.67 6.85111 117.42 8.04111 118.22 9.05111C119.08 10.1411 119.83 11.3011 121.04 13.0011C118.76 14.2211 116.18 15.6111 112.43 17.6211C110.98 17.2811 108.16 16.6011 104.46 15.7211C107.28 14.0811 109.34 12.8811 111.42 11.6711C109.13 8.88111 108.2 8.39111 104.05 9.63111C101.57 10.3711 99.36 12.0311 97.5 13.6211C96.24 15.0311 94.97 16.4311 93.32 18.2711C92.41 16.5911 91.91 15.6611 91.09 14.1611C86.68 16.4911 82.48 18.7111 78.3 20.9211C78.38 26.6811 82.49 26.9811 86.56 27.4411C86.7 29.3611 86.84 31.1311 86.98 33.0511C87.64 32.9811 88.42 33.1111 88.59 32.8511C90.51 29.9411 92.56 27.3111 96.3 26.5511C96.67 26.4811 96.97 24.6611 96.83 23.7211C96.09 18.5411 99.03 16.3411 104.27 18.2911C105.1 18.6011 105.98 18.7611 106.95 19.0211C107.04 20.5511 107.13 21.9411 107.25 23.8511C109.55 23.0211 111.56 22.3011 113.89 21.4611C114.37 24.5211 114.74 27.2211 117.72 29.5711C120.34 31.6411 117.06 33.5811 114.58 34.6411C116.36 36.2211 117.96 37.6411 119.56 39.0711C119.25 39.4911 118.93 39.9111 118.62 40.3311C116.38 39.6511 114.15 38.9611 111.85 38.2611C112.52 36.4211 112.98 35.1511 113.45 33.8711C110.3 35.1511 107.82 36.5511 105.08 33.6911C104.65 33.2511 102.86 34.1111 101.7 34.3711C102.48 35.4111 103.27 36.4511 104.2 37.6911C104.27 37.5211 104.2 37.9411 104.07 37.9511C96.73 38.8711 92.69 44.9211 87.54 49.0111C83.05 52.5811 80.6 58.2811 75.47 61.6211C73.81 62.7111 73.77 66.2911 72.74 69.5311C71.36 67.9111 69.98 66.3111 68.61 64.7111C68.77 64.1911 68.93 63.6811 69.09 63.1611C64.07 63.9211 58.93 64.2611 54.05 65.5711C49.45 66.8111 48.19 71.2711 47.54 75.3911C46.93 79.3311 51.3 81.7411 55.07 79.7611C56.22 79.1611 57.23 78.3211 58.32 77.6111C59.3 76.9711 60.29 76.3711 62.31 76.0211C61.86 78.0111 61.41 80.0111 60.88 82.3311C62.43 82.7411 64.23 83.2211 66.14 83.7311C66.24 85.0011 66.16 86.2011 66.45 87.3111C66.95 89.2311 67.2 92.2511 68.41 92.7511C71.62 94.0811 75.24 95.1211 77.98 90.9511C80.05 87.8011 84.93 87.4611 87.14 90.3511C89.39 93.2911 92.37 92.9211 94.4 91.7811C97.22 90.1911 98.31 91.7211 99.28 93.3411C101.13 96.4311 103.06 98.5311 107.21 98.2811C108.45 98.2111 110.12 100.971 111.11 102.701C111.95 104.161 111.58 106.911 112.65 107.531C115.03 108.911 117.96 109.431 120.71 110.081C121.95 110.371 123.32 110.271 124.6 110.121C126.95 109.851 128.35 110.781 129.66 112.771C130.63 114.241 132.48 115.131 134.41 116.651C134.19 117.421 134.22 119.171 133.37 119.981C129.19 123.971 129 129.141 128.46 134.321C127.97 138.961 125.97 140.611 121.44 140.641C117.36 140.671 115.69 142.551 116.87 146.471C117.77 149.471 117.08 151.631 115.14 153.901C113.21 156.161 112 159.111 109.86 161.101C107.77 163.031 104.95 164.201 102.36 165.551C101.39 166.061 100.18 166.131 98.44 166.551C99.79 167.761 100.65 168.541 101.5 169.301C99.72 172.608 100.407 174.711 103.56 175.611C100.13 180.311 104.55 183.241 106.77 186.911C102.59 187.831 99.57 187.481 96.87 184.731C92.1 179.871 87.95 174.921 89.44 167.371C89.65 166.291 89.14 164.691 88.38 163.881C86.27 161.611 86.03 159.201 86.73 156.361C87.16 154.631 88.27 152.631 85.66 151.341C85.22 151.131 85.33 149.661 85.32 148.761C85.28 145.771 85.3 142.771 85.31 139.771C85.31 133.511 84.16 131.971 78.28 129.341C77.1 128.811 76.23 127.461 75.39 126.361C73.28 123.581 71.32 120.681 69.22 117.891C66.66 114.481 67.67 106.881 71.07 104.421C74.18 102.171 74.28 101.681 72.63 95.9611C66.91 96.8311 63.05 93.8611 59.75 89.4111C58.9 88.2611 56.74 88.1511 55.31 87.3411C54.03 86.6211 52.98 85.5111 51.73 84.7411C50.92 84.2411 49.84 83.6311 49.02 83.7911C43.38 84.9111 39.45 83.3911 36.87 78.8411C36.56 78.2911 35.93 77.4511 36.11 77.1511C38.16 73.7811 35.1 72.0111 33.94 69.6111C32.84 67.3211 32 64.9011 30.98 62.5711C30.56 61.6211 29.96 60.7411 29.44 59.8311C28.87 60.0911 28.3 60.3611 27.73 60.6211C29.43 64.9711 31.12 69.3111 32.83 73.6811C29.23 74.2411 25.34 70.1011 25.03 65.6111C24.91 63.9211 25.15 62.2111 24.94 60.5411C24.83 59.6711 24.29 58.6011 23.59 58.0911C20.51 55.8311 19.48 49.5211 21.88 46.2111C23.02 44.6311 24.25 43.1011 25.59 41.6811C27.71 39.4211 29.37 37.1811 28.41 33.7311C28.14 32.7711 29.13 31.4611 29.46 30.5311C28.94 28.8211 28.66 27.0711 27.88 25.5711C27 23.8911 25.93 21.4811 24.49 21.1011C21.83 20.4111 18.62 20.2911 16.03 21.1411C10.27 23.0211 5.01 23.1211 0 19.4111V18.6311L0.03 18.6411ZM70.38 39.2511C73.69 39.4311 76.27 39.5711 79.14 39.7211C77.59 35.5211 74.39 35.2911 70.38 39.2511ZM75.96 41.0711C75.63 40.7011 75.3 40.3311 74.97 39.9711C73.52 41.1311 71.96 42.1911 70.7 43.5311C70.34 43.9111 70.85 45.1011 70.96 45.9211C71.7 45.6411 72.67 45.5711 73.13 45.0511C74.21 43.8411 75.04 42.4111 75.97 41.0711H75.96ZM65.21 29.4011C65.03 29.8111 64.85 30.2111 64.67 30.6211C65.78 31.3011 66.88 31.9711 67.99 32.6511C68.63 31.5511 69.27 30.4611 69.91 29.3611C69.62 29.1111 69.34 28.8711 69.05 28.6211C67.77 28.8811 66.49 29.1411 65.21 29.4111V29.4011ZM55.19 15.2711C57.49 14.6611 59.26 14.2111 60.99 13.6611C61.08 13.6311 60.9 12.7711 60.85 12.2911C59.09 12.5911 57.33 12.8811 55.58 13.2111C55.49 13.2311 55.48 13.6711 55.19 15.2711Z" fill="#FFFAEE"/>
<path d="M283.15 92.5011C282.6 93.0111 281.92 93.4311 281.51 94.0311C279.89 96.4011 278.29 95.9211 276.98 93.9011C274.78 90.5211 272.52 87.1411 270.78 83.5211C270.02 81.9311 270.2 79.7211 270.45 77.8611C270.94 74.2311 269.11 72.3911 265.96 71.8111C260.59 70.8311 255.19 69.9711 249.76 69.4211C244.64 68.9011 239.56 68.7311 237.82 62.4711C237.71 62.0611 236.54 61.9511 235.72 61.6511C234.37 65.2811 234.83 67.6311 238.7 69.0911C243.04 70.7211 247.16 72.9011 252.18 75.2111C251.7 75.9711 251.24 77.3811 250.28 78.1211C246.57 80.9811 242.75 83.7011 238.89 86.3411C233.84 89.7911 229.95 88.1111 228.94 82.1511C228.83 81.5311 228.72 80.8111 228.34 80.3511C224.78 75.9611 221.16 71.6111 217.55 67.2411C217.25 67.4111 216.96 67.5811 216.66 67.7511C217.21 68.9411 217.72 70.1511 218.33 71.3111C221.17 76.7211 224.07 82.1011 226.89 87.5311C228.33 90.3211 230.3 91.5811 233.52 90.6211C235.63 89.9911 237.83 89.6211 240.01 89.2811C241.17 89.1011 242.38 89.2511 243.57 89.2511L244.45 90.6711C238.39 97.7011 232.41 104.801 226.23 111.731C224.69 113.461 224.29 114.511 225.13 116.991C226.93 122.341 228.39 127.951 223.61 133.021C221.52 135.241 220.26 138.231 218.94 140.981C217.38 142.681 215.82 144.371 214.27 146.071C211.29 149.331 208.84 153.541 205.18 155.551C202.01 157.291 197.46 156.541 194.73 156.781C192.7 152.211 191.04 148.621 189.53 144.971C189.15 144.051 189.1 142.961 189.08 141.941C189.04 138.861 189.25 135.991 186.67 133.321C185.68 132.301 186.3 128.711 187.33 126.981C189.35 123.611 189.37 120.891 187.02 117.771C183.32 112.861 181.19 107.441 182.98 101.871C179.66 100.381 176.98 98.9611 174.15 98.0111C172.79 97.5511 170.63 97.3811 169.7 98.1411C165.81 101.311 161.07 98.9311 156.98 100.471C156.37 100.701 155.13 100.151 154.59 99.5711C151.67 96.4211 148.14 93.5211 146.29 89.8111C145.01 87.2311 145.97 83.4711 146.2 80.2511C146.27 79.2411 147.22 78.2911 147.77 77.3211C143.76 75.0411 143.69 73.4811 147.2 70.9411C148.99 69.6411 150.7 68.2011 152.59 67.0811C154.93 65.6911 156.2 63.9911 155.87 61.1111C155.46 57.4811 158.83 56.6811 160.96 56.2511C168.24 54.7911 175.65 53.9911 183.35 52.8911C183.51 55.0211 183.64 56.7911 183.8 58.8511C187.6 60.0211 191.5 61.2111 195.41 62.4111C196.97 58.7611 200.3 57.6411 203.33 60.3511C206.65 63.3211 210.39 62.7211 214.02 62.4111C216.52 62.2011 218.04 60.3211 217.86 57.4611C217.67 54.5311 215.84 53.8311 213.37 53.8411C212.72 53.8411 212.07 53.8511 211.42 53.8611C205.63 53.9311 205.23 53.5811 202.75 46.4011C201.67 48.4111 200.59 50.4211 199.12 53.1711C197.93 51.3511 196.22 49.7111 195.71 47.7611C194.52 43.1911 191.11 40.3511 186.25 40.7711C185.99 45.3911 190.37 45.7811 193.2 48.1711C192.43 49.7311 191.96 51.6711 190.74 52.8011C190.09 53.4011 188.16 52.6111 186.8 52.4511C186.83 52.0911 186.86 51.7311 186.89 51.3811C188.02 51.1211 189.14 50.8511 191.14 50.3811C187.55 47.6711 184.56 45.4211 181.79 43.3311C179.97 43.6911 177.67 43.5811 176.11 44.6011C174.15 45.8811 172.21 47.8311 171.31 49.9411C169.75 53.6211 167.13 53.9311 163.82 53.8011C158.93 53.6211 156.71 50.9111 157.91 46.1911C158.8 42.6911 161.89 43.4911 164.29 43.1411C165.26 43.0011 166.46 43.8711 167.3 43.5611C168.03 43.2911 168.9 41.9711 168.82 41.2111C168.65 39.6111 167.89 38.0711 167.38 36.5011L168.97 37.0811C171.32 35.1811 173.59 33.1511 176.07 31.4311C177.46 30.4711 179.16 29.7911 180.81 29.4211C182.27 29.0911 183.86 29.3511 185.54 29.3511C185.39 27.9511 185.26 26.6711 185.08 25.0511C183.66 25.4411 182.37 25.8011 181.47 26.0411C180.08 24.7411 178.59 23.7511 177.71 22.3811C177.14 21.4911 177.09 19.1311 177.47 18.9711C181.87 17.0711 184.03 12.5011 187.79 10.1811C195.2 5.61108 203.22 5.47108 211.17 9.26108C212.78 10.0311 214.39 10.8111 215.99 11.5911C215.99 11.9811 215.99 12.3711 216 12.7611C212.78 13.2111 209.55 13.6511 205.88 14.1611C211.12 17.4111 215.57 15.9411 220.39 9.67108C221.05 10.4611 221.67 11.1911 222.6 12.3011C228.35 7.45108 235.32 10.5211 241.58 9.99108C241.71 7.97108 241.82 6.14108 241.94 4.27108C244.76 4.61775 246.933 7.25775 248.46 12.1911C250.83 12.5311 251.95 11.4611 251.56 9.13108C251.09 6.36108 252.73 5.56108 254.82 4.30108C261.43 0.31108 268.75 0.54108 275.96 0.0110801C276.81 -0.0489199 277.92 0.13108 278.52 0.64108C283.31 4.72108 289.02 4.70108 294.77 4.36108C298.52 4.14108 301.92 4.56108 304.88 7.28108C305.6 7.94108 307.98 8.08108 308.46 7.51108C312.95 2.21108 318.16 4.92108 323.21 5.92108C325.6 6.39108 327.93 7.37108 330.33 7.51108C341.5 8.20108 352.72 8.35108 363.86 9.40108C368.19 9.81108 372.35 12.1111 376.58 13.5411C376.47 14.0911 376.35 14.6511 376.24 15.2011C373.34 14.8711 370.44 14.5411 366.73 14.1211C367.84 15.6211 368.54 16.5711 369.54 17.9211C366.22 19.2911 363.02 20.6111 359.46 22.0711C360.2 22.8311 361.55 23.9311 362.52 25.3011C363.53 26.7211 364.32 28.3511 364.88 30.0011C365.07 30.5711 364.46 31.7911 363.88 32.1311C363.29 32.4711 362.07 32.3811 361.5 31.9611C359.29 30.3611 356.92 28.8111 355.23 26.7311C354.36 25.6611 354.65 23.5211 354.72 21.8811C354.77 20.7011 355.31 19.5411 355.18 17.9611C348.93 21.4511 343.34 26.6211 335.68 21.6011C334.98 22.4211 334.24 23.1211 333.71 23.9511C332.05 26.5511 332.87 28.2611 335.92 28.7811C340.26 29.5211 345.25 28.7111 347.86 33.6711C348.12 34.1711 348.28 34.7311 348.5 35.2811C348.01 35.4711 347.71 35.7011 347.56 35.6211C346.28 34.9811 345.03 34.2811 343.77 33.6111C344.22 34.9111 344.94 36.1911 345.07 37.5311C345.29 39.6711 345.13 41.8411 345.13 44.2411C342.6 44.3611 340.56 44.4611 338.57 44.5511C336.88 47.9311 337.64 50.2211 341.08 51.8111C342.64 52.5311 343.88 53.9611 345.26 55.0711C345.13 55.4611 345 55.8611 344.87 56.2511C343.51 55.9611 341.94 56.0011 340.84 55.3111C338.32 53.7111 336.11 51.6311 333.62 49.9911C332.21 49.0711 330.48 48.6311 328.72 47.9011C327.55 52.4811 328.05 55.8711 331.49 58.5911C333.1 59.8711 334.63 61.4211 335.72 63.1611C337.71 66.3411 336.85 69.7211 333.71 71.8911C332.56 72.6911 331.19 73.2011 329.87 73.7311C326.96 74.9211 322.89 74.8911 324.17 80.3211C323.84 80.2811 323.5 80.2511 323.17 80.2111C322.52 79.1411 321.97 78.0011 321.2 77.0311C320.52 76.1711 319.62 74.9411 318.78 74.9111C318.05 74.8911 316.55 76.4111 316.64 77.0711C316.93 79.0811 317.61 81.1211 318.57 82.9111C319.13 83.9711 320.53 84.5711 321.52 85.4111C323.38 87.0011 324.47 88.9011 322.63 91.0711C320.57 93.5011 317.72 93.4511 315.56 91.2011C314.4 89.9911 313.29 88.7311 312.16 87.4911L310.9 87.8511C311.3 89.5911 311.31 91.5711 312.19 93.0211C314.26 96.4711 316.78 99.6511 319.03 103.001C319.67 103.951 319.98 105.111 320.45 106.181C320.15 106.391 319.85 106.601 319.54 106.801C315.74 103.131 311.6 99.7411 308.33 95.6511C307.08 94.0811 307.74 90.9111 307.71 88.4711C307.63 80.2511 297.36 72.7711 289.43 74.9911C285.99 75.9511 285.14 78.7811 284.48 81.3911C283.57 84.9911 283.48 88.8011 283.04 92.5211L283.09 92.4411L283.15 92.5011ZM186.77 27.8811C193.21 30.2411 196.39 28.8711 198.16 23.3611C198.48 22.3611 197.9 20.3611 197.08 19.8411C194.12 17.9611 195.61 16.9211 197.44 15.6111C198.67 14.7311 199.76 13.6611 200.91 12.6811C195.76 12.9011 191.41 16.4411 191.46 19.2311C191.53 22.9011 191.98 26.6311 186.77 27.8811ZM238.76 41.1611C238.82 40.5811 238.88 40.0011 238.94 39.4211C236.89 39.2111 234.69 38.4711 232.88 39.0311C232.07 39.2811 231.67 42.1611 231.82 43.7711C231.91 44.7511 233.33 45.7311 234.32 46.4711C235.94 47.6811 236.81 48.7811 234.83 50.4311C234.32 50.8611 234.06 51.5911 233.55 52.3811C235.74 52.9211 237.56 53.5211 239.43 53.8011C241.3 54.0811 242.98 53.1911 241.77 51.2311C240.18 48.6511 237.85 46.5311 235.86 44.1911C235.35 43.5911 234.92 42.9111 234.17 41.8611C236.1 41.5611 237.43 41.3611 238.76 41.1511V41.1611ZM208.13 49.2711H220.59C218.7 46.6511 216.97 44.2611 215.23 41.8411C212.49 43.5211 205.92 41.8811 208.14 49.2711H208.13Z" fill="#FFFAEE"/>
<path d="M325.21 157.991C325.21 157.921 324.95 157.181 325.18 156.971C329.43 153.011 328.09 147.781 328.05 143.051C328.02 139.341 330.26 137.021 332.76 136.961C338.21 136.841 339.99 132.591 343.1 129.721C344.25 128.661 345.7 127.621 347.18 127.301C348.37 127.041 349.79 127.891 351.85 128.441C355.21 122.701 359.96 119.771 367.02 126.331C365.23 127.121 363.77 127.761 362 128.541C361.39 133.501 365.64 131.811 368.69 132.741C369.03 130.271 369.25 127.991 369.69 125.751C369.86 124.871 370.52 124.101 370.96 123.271C371.87 123.821 373.28 124.171 373.6 124.961C374.6 127.411 375.14 130.041 375.95 132.581C376.47 134.211 376.7 136.231 377.8 137.341C382.86 142.431 383.11 147.561 377.94 152.901C374.78 156.171 371.57 159.501 367.89 162.111C366.17 163.331 363.27 162.831 360.92 163.241C355.75 164.141 352.52 162.191 351.34 156.981C350.75 154.371 349.08 153.471 346.46 153.981C339.51 155.331 332.54 156.621 325.2 158.001L325.21 157.991Z" fill="#FFFAEE"/>
<path d="M323.49 109.181C322.91 105.111 324.86 102.941 328.48 101.261C331.24 99.9811 333.51 97.6611 336.02 95.7811C340.35 101.381 338.26 108.071 334.28 111.961C333.08 113.131 330.01 113.091 328.06 112.581C326.31 112.131 324.92 110.281 323.37 109.051L323.49 109.181Z" fill="#FFFAEE"/>
<path d="M354.49 109.471C355.65 108.451 356.81 107.431 358.58 105.881C359.66 107.291 360.69 108.631 362.19 110.581C361.76 110.511 362.4 110.831 362.72 110.631C366.73 108.111 370.05 110.521 373.58 111.961C376.4 113.111 378.63 114.331 378.32 118.021C378.24 118.981 379.62 120.061 380.68 121.591C379.16 121.691 377.79 121.771 376.16 121.881C376.03 120.181 375.92 118.801 375.8 117.241C372.03 118.511 368.38 119.741 364.73 120.971C364.43 120.541 364.13 120.111 363.83 119.691C364.42 118.481 365.01 117.281 365.78 115.691C362.07 114.231 358.24 112.741 354.42 111.241C354.45 110.651 354.48 110.061 354.51 109.471H354.49Z" fill="#FFFAEE"/>
<path d="M240.86 123.491C240.86 133.911 236.33 141.001 230.81 147.751C227.46 145.831 227.1 142.751 228.84 140.131C230.46 137.691 231.74 135.861 229.87 133.051C229.4 132.341 229.8 131.061 229.8 129.551C234.18 131.421 236.19 129.421 237.53 125.781C237.86 124.891 239.39 124.451 240.85 123.491H240.86Z" fill="#FFFAEE"/>
<path d="M323.37 109.051C323.49 110.061 323.61 111.071 323.74 112.181C323.12 112.411 322.61 112.511 322.2 112.771C321.58 113.181 321.04 113.711 320.47 114.191C321.17 114.721 321.8 115.551 322.58 115.731C325.22 116.311 327.9 116.661 330.57 117.101C330.52 117.541 330.48 117.971 330.43 118.411C326.19 118.411 321.95 118.451 317.72 118.311C317.44 118.311 317.21 116.861 317.56 116.081C313.13 110.701 308.7 105.311 303.43 98.9211C305.32 98.9211 306.78 98.4811 307.31 98.9911C310.12 101.731 312.87 104.571 315.29 107.651C317.71 110.741 320.7 109.061 323.49 109.191L323.36 109.051H323.37Z" fill="#FFFAEE"/>
<path d="M374.13 173.261C374.3 171.951 374.17 171.021 374.49 170.811C378.7 168.161 382.76 165.091 387.31 163.221C390.67 161.841 393.58 161.231 393.34 156.701C393.2 154.101 393.56 154.081 396.03 154.101C397.33 156.111 398.46 157.841 399.94 160.131C391 163.221 384.35 171.031 374.13 173.261Z" fill="#FFFAEE"/>
<path d="M165.22 27.4412C164.85 26.3212 163.87 24.8512 164.26 24.1512C164.79 23.1912 166.37 22.8212 167.06 22.4412C169.18 26.0112 170.97 29.0212 173.16 32.7212C171.83 35.7212 168.39 33.9212 164.36 34.5012C165.68 32.3012 166.53 30.9012 167.63 29.0612C167.06 28.6812 166.08 28.0212 165.1 27.3612L165.22 27.4612V27.4412Z" fill="#FFFAEE"/>
<path d="M342.34 115.371C341.97 114.401 341.59 113.421 340.89 111.601C340.28 113.611 339.92 114.781 339.49 116.191C336.46 111.691 338.1 108.441 343.38 107.561V115.311C343.03 115.331 342.69 115.351 342.34 115.371Z" fill="#FFFAEE"/>
<path d="M165.1 27.3411C164.49 31.2011 162.12 33.0211 158.38 32.5311C158.79 27.8111 160.02 26.8911 165.22 27.4311L165.1 27.3411Z" fill="#FFFAEE"/>
<path d="M356.26 168.961C357.84 167.801 359.32 166.471 361.04 165.591C361.65 165.281 362.83 166.081 363.74 166.371C363.31 167.331 363.11 168.821 362.4 169.131C360.68 169.881 358.71 170.081 356.84 170.511C356.64 169.991 356.45 169.471 356.25 168.961H356.26Z" fill="#FFFAEE"/>
<path d="M283.1 92.5911C284.1 93.0911 285.1 93.6011 287 94.5611C285.7 96.3011 284.51 97.8811 283.33 99.4711C279.34 96.5111 283.11 94.6711 283.15 92.5111L283.11 92.5911H283.1Z" fill="#FFFAEE"/>
</svg>
