<svg width="727" height="24" viewBox="0 0 727 24" fill="none" xmlns="http://www.w3.org/2000/svg">
<path d="M726.559 13.105C727.146 12.52 727.147 11.5703 726.562 10.9837L717.029 1.42442C716.445 0.837821 715.495 0.836495 714.908 1.42146C714.322 2.00643 714.32 2.95618 714.905 3.54278L723.379 12.0399L714.882 20.5133C714.295 21.0983 714.294 22.048 714.879 22.6346C715.464 23.2212 716.413 23.2226 717 22.6376L726.559 13.105ZM0.440827 9.97051C-0.145782 10.5555 -0.147125 11.5052 0.437836 12.0918L9.97049 21.6511C10.5554 22.2377 11.5052 22.239 12.0918 21.654C12.6784 21.0691 12.6797 20.1193 12.0948 19.5327L3.62131 11.0356L12.1184 2.56218C12.705 1.97721 12.7063 1.02746 12.1214 0.440859C11.5364 -0.145744 10.5866 -0.147069 10 0.4379L0.440827 9.97051ZM725.5 12.0429L725.502 10.5429L1.50211 9.53265L1.49997 11.0327L1.49789 12.5327L725.498 13.5429L725.5 12.0429Z" fill="#FFFAEE"/>
</svg>
