<svg width="311" height="27" viewBox="0 0 311 27" fill="none" xmlns="http://www.w3.org/2000/svg">
<path d="M308.333 10.8333C309.714 10.8333 310.833 11.9526 310.833 13.3333C310.833 14.7141 309.714 15.8333 308.333 15.8333L308.333 13.3333L308.333 10.8333ZM26.6667 13.3333C26.6667 20.6971 20.6971 26.6667 13.3333 26.6667C5.96954 26.6667 -6.43764e-07 20.6971 0 13.3333C6.43764e-07 5.96955 5.96954 1.45745e-05 13.3333 1.52183e-05C20.6971 1.5862e-05 26.6667 5.96955 26.6667 13.3333ZM308.333 13.3333L308.333 15.8333L13.3333 15.8333L13.3333 13.3333L13.3333 10.8333L308.333 10.8333L308.333 13.3333Z" fill="#FFFAEE"/>
</svg>
