<svg width="103" height="15" viewBox="0 0 103 15" fill="none" xmlns="http://www.w3.org/2000/svg">
<path d="M51.0205 13.5206C54.4723 13.5206 57.2705 10.7224 57.2705 7.27063C57.2705 3.81885 54.4723 1.02063 51.0205 1.02063C47.5687 1.02063 44.7705 3.81885 44.7705 7.27063C44.7705 10.7224 47.5687 13.5206 51.0205 13.5206Z" fill="#FFFAEE"/>
<path d="M94.7705 13.5206C98.2223 13.5206 101.021 10.7224 101.021 7.27063C101.021 3.81885 98.2223 1.02063 94.7705 1.02063C91.3187 1.02063 88.5205 3.81885 88.5205 7.27063C88.5205 10.7224 91.3187 13.5206 94.7705 13.5206Z" fill="#FFFAEE"/>
<path d="M7.27051 13.5206C10.7223 13.5206 13.5205 10.7224 13.5205 7.27063C13.5205 3.81885 10.7223 1.02063 7.27051 1.02063C3.81873 1.02063 1.02051 3.81885 1.02051 7.27063C1.02051 10.7224 3.81873 13.5206 7.27051 13.5206Z" fill="#FFFAEE"/>
<path d="M51.0205 13.5206C54.4723 13.5206 57.2705 10.7224 57.2705 7.27063C57.2705 3.81885 54.4723 1.02063 51.0205 1.02063C47.5687 1.02063 44.7705 3.81885 44.7705 7.27063C44.7705 10.7224 47.5687 13.5206 51.0205 13.5206Z" stroke="#FFFAEE" stroke-width="2.04124" stroke-linecap="round" stroke-linejoin="round"/>
<path d="M94.7705 13.5206C98.2223 13.5206 101.021 10.7224 101.021 7.27063C101.021 3.81885 98.2223 1.02063 94.7705 1.02063C91.3187 1.02063 88.5205 3.81885 88.5205 7.27063C88.5205 10.7224 91.3187 13.5206 94.7705 13.5206Z" stroke="#FFFAEE" stroke-width="2.04124" stroke-linecap="round" stroke-linejoin="round"/>
<path d="M7.27051 13.5206C10.7223 13.5206 13.5205 10.7224 13.5205 7.27063C13.5205 3.81885 10.7223 1.02063 7.27051 1.02063C3.81873 1.02063 1.02051 3.81885 1.02051 7.27063C1.02051 10.7224 3.81873 13.5206 7.27051 13.5206Z" stroke="#FFFAEE" stroke-width="2.04124" stroke-linecap="round" stroke-linejoin="round"/>
</svg>
