<svg width="328" height="156" viewBox="0 0 328 156" fill="none" xmlns="http://www.w3.org/2000/svg">
<path d="M145.4 73.5364L323.541 73.5364C325.996 73.5364 328 75.5428 328 78C328 80.4572 325.996 82.4636 323.541 82.4636L145.4 82.4636C120.562 82.4636 100.341 102.708 100.341 127.573L100.341 151.536C100.341 153.994 98.337 156 95.8825 156C93.428 156 91.4239 153.994 91.4239 151.536L91.4239 127.573C91.4239 102.708 71.2025 82.4636 46.365 82.4636L4.45865 82.4636C2.00415 82.4636 2.70007e-05 80.4572 2.71081e-05 78C2.72155e-05 75.5428 2.00415 73.5364 4.45865 73.5364L46.365 73.5364C71.2025 73.5364 91.4239 53.2925 91.4239 28.4272L91.4239 4.46357C91.4239 2.00635 93.428 -1.02535e-05 95.8825 -1.01462e-05C98.337 -1.00389e-05 100.341 2.00635 100.341 4.46357L100.341 28.4272C100.341 53.2925 120.562 73.5364 145.4 73.5364Z" fill="#FFFAEE"/>
</svg>
