<svg width="279" height="48" viewBox="0 0 279 48" fill="none" xmlns="http://www.w3.org/2000/svg">
<path d="M193.301 48C192.26 48 191.349 47.299 191.102 46.3005L182.178 10.76L169.725 45.8225C169.393 46.7466 168.513 47.3733 167.516 47.3202C166.529 47.2883 165.671 46.6298 165.403 45.6951L155.181 10.4838L145.238 45.6845C144.97 46.651 144.08 47.3202 143.072 47.3202C142.053 47.3202 141.163 46.6723 140.884 45.7057L130.48 10.8025L121.738 45.6101C121.491 46.6085 120.58 47.3096 119.539 47.3096C118.499 47.3096 117.587 46.6085 117.34 45.6101L108.352 9.82528L102.85 24.4409C102.517 25.3225 101.67 25.9067 100.726 25.9067H0V21.4137H99.1495L106.658 1.46594C107.001 0.54184 107.912 -0.0423585 108.91 0.0107505C109.907 0.0638594 110.744 0.754276 110.98 1.71024L119.529 35.7637L128.088 1.69962C128.334 0.711789 129.214 0.0213722 130.244 0.000128663C131.263 -0.0104931 132.174 0.637436 132.464 1.61464L142.997 36.9427L152.972 1.64651C153.24 0.679923 154.13 0.0107505 155.149 0.000128663C156.157 0.000128663 157.047 0.65868 157.326 1.62526L167.795 37.6862L180.398 2.1776C180.73 1.24288 181.631 0.637436 182.639 0.679923C183.637 0.72241 184.495 1.42345 184.731 2.37941L193.279 36.4329L196.626 23.1131C196.872 22.1147 197.784 21.4137 198.824 21.4137H279V25.9067H200.594L195.478 46.2899C195.231 47.2883 194.32 47.9894 193.279 47.9894L193.301 48Z" fill="#FFFAEE"/>
</svg>
