<svg width="1080" height="1080" viewBox="0 0 1080 1080" fill="none" xmlns="http://www.w3.org/2000/svg">
<rect width="1080" height="1080" fill="#191919"/>
<path d="M463.091 462.104H464.517V469.874H473.902V462.104H475.328V478.904H473.902V471.11H464.517V478.904H463.091V462.104ZM490.711 462.104V473.534C490.711 474.642 490.497 475.625 490.069 476.48C489.658 477.335 489.008 478.009 488.121 478.5C487.234 478.975 486.07 479.212 484.628 479.212C483.202 479.212 482.038 478.975 481.135 478.5C480.248 478.009 479.591 477.335 479.163 476.48C478.751 475.625 478.545 474.642 478.545 473.534V462.104H479.971V473.32C479.971 474.254 480.114 475.07 480.399 475.767C480.684 476.464 481.167 477.003 481.848 477.383C482.529 477.747 483.456 477.929 484.628 477.929C485.816 477.929 486.743 477.747 487.408 477.383C488.089 477.003 488.572 476.464 488.858 475.767C489.143 475.07 489.285 474.254 489.285 473.32V462.104H490.711ZM495.381 462.104L501.559 476.504H501.725L507.903 462.104H509.329V478.904H507.951V465.502H507.832L502.01 478.904H501.203L495.381 465.502H495.286V478.904H493.908V462.104H495.381ZM517.888 463.934H517.792L512.518 478.904H511.068L517.08 462.104H518.695L524.683 478.904H523.162L517.888 463.934ZM521.713 473.866H514.038V472.631H521.713V473.866ZM538.988 478.904H537.396L528.011 464.481H527.821V478.904H526.419V462.104H528.035L537.396 476.504H537.587V462.104H538.988V478.904ZM552.869 472.013H546.454V470.777H552.869V472.013ZM561.797 462.104L567.975 476.504H568.141L574.319 462.104H575.745V478.904H574.367V465.502H574.248L568.426 478.904H567.618L561.797 465.502H561.702V478.904H560.324V462.104H561.797ZM584.303 463.934H584.208L578.933 478.904H577.484L583.496 462.104H585.111L591.099 478.904H589.578L584.303 463.934ZM588.129 473.866H580.454V472.631H588.129V473.866ZM592.835 478.904V462.104H598.038C600.478 462.104 602.323 462.817 603.575 464.243C604.826 465.669 605.452 467.752 605.452 470.492C605.452 473.217 604.81 475.3 603.527 476.741C602.26 478.183 600.351 478.904 597.801 478.904H592.835ZM597.682 477.668C599.282 477.668 600.541 477.383 601.46 476.813C602.379 476.226 603.036 475.395 603.432 474.318C603.828 473.241 604.026 471.965 604.026 470.492C604.026 469.003 603.828 467.728 603.432 466.667C603.052 465.589 602.41 464.766 601.508 464.195C600.62 463.625 599.409 463.34 597.872 463.34H594.26V477.668H597.682ZM607.965 462.104H617.422V463.34H609.39V469.874H616.875V471.11H609.39V477.668H617.54V478.904H607.965V462.104Z" fill="#FFFAEE"/>
<path d="M425.076 587.78V581.697H411.2V580.898L424.886 561.243H425.875V580.974H430.323V581.697H425.875V587.78H425.076ZM412.036 580.974H425.076V562.308H425L412.036 580.974ZM446.656 573.485C447.619 573.485 448.493 573.358 449.279 573.105C450.09 572.826 450.774 572.446 451.332 571.964C451.915 571.457 452.358 570.862 452.662 570.177C452.992 569.493 453.157 568.745 453.157 567.934V567.022C453.157 566.211 453.005 565.476 452.701 564.817C452.396 564.133 451.965 563.55 451.408 563.068C450.876 562.587 450.217 562.219 449.431 561.966C448.671 561.687 447.834 561.547 446.922 561.547C445.148 561.547 443.741 561.89 442.702 562.574C441.688 563.258 440.89 564.171 440.307 565.311L439.622 565.007C440.155 563.765 441.029 562.751 442.246 561.966C443.462 561.18 445.021 560.787 446.922 560.787C449.101 560.787 450.838 561.383 452.13 562.574C453.423 563.765 454.069 565.375 454.069 567.402C454.069 568.34 453.93 569.176 453.651 569.911C453.397 570.621 453.03 571.242 452.548 571.774C452.092 572.306 451.535 572.737 450.876 573.067C450.242 573.396 449.532 573.637 448.747 573.789V573.903C450.546 574.131 451.978 574.828 453.043 575.994C454.107 577.135 454.639 578.693 454.639 580.67C454.639 583.027 453.93 584.878 452.51 586.221C451.116 587.564 449.203 588.236 446.77 588.236C444.92 588.236 443.323 587.906 441.98 587.247C440.662 586.588 439.559 585.562 438.672 584.168L439.356 583.75C440.167 585.042 441.168 585.993 442.36 586.601C443.576 587.184 445.046 587.476 446.77 587.476C447.784 587.476 448.721 587.336 449.583 587.057C450.445 586.753 451.18 586.335 451.788 585.803C452.396 585.245 452.865 584.586 453.195 583.826C453.55 583.065 453.727 582.229 453.727 581.317V580.252C453.727 578.427 453.093 576.97 451.826 575.88C450.584 574.79 448.886 574.245 446.732 574.245H443.082V573.485H446.656ZM467.551 587.78H466.714V561.243H475.991C478.17 561.243 479.818 561.89 480.933 563.182C482.048 564.475 482.606 566.211 482.606 568.391C482.606 570.57 482.048 572.306 480.933 573.599C479.818 574.892 478.17 575.538 475.991 575.538H474.546L482.415 587.78H481.427L473.595 575.538H467.551V587.78ZM475.991 574.778C476.979 574.778 477.828 574.626 478.538 574.321C479.247 573.992 479.83 573.574 480.287 573.067C480.768 572.56 481.123 571.977 481.351 571.318C481.579 570.634 481.693 569.924 481.693 569.189V567.592C481.693 566.883 481.579 566.186 481.351 565.501C481.123 564.817 480.768 564.221 480.287 563.714C479.83 563.208 479.247 562.802 478.538 562.498C477.828 562.168 476.979 562.004 475.991 562.004H467.551V574.778H475.991ZM495.593 576.564V575.804H505.629V576.564H495.593ZM527.209 588.236C525.815 588.236 524.573 587.982 523.483 587.476C522.418 586.943 521.506 586.132 520.746 585.042C520.011 583.927 519.453 582.508 519.073 580.784C518.693 579.036 518.503 576.945 518.503 574.511C518.503 572.078 518.693 570 519.073 568.277C519.453 566.528 520.011 565.108 520.746 564.019C521.506 562.903 522.418 562.092 523.483 561.585C524.573 561.053 525.815 560.787 527.209 560.787C528.603 560.787 529.832 561.053 530.896 561.585C531.986 562.092 532.899 562.903 533.634 564.019C534.369 565.108 534.926 566.528 535.306 568.277C535.712 570 535.915 572.078 535.915 574.511C535.915 576.945 535.712 579.036 535.306 580.784C534.926 582.508 534.369 583.927 533.634 585.042C532.899 586.132 531.986 586.943 530.896 587.476C529.832 587.982 528.603 588.236 527.209 588.236ZM527.209 587.476C529.743 587.476 531.669 586.5 532.987 584.548C534.331 582.597 535.002 579.657 535.002 575.728V573.295C535.002 569.366 534.331 566.426 532.987 564.475C531.669 562.523 529.743 561.547 527.209 561.547C524.674 561.547 522.735 562.523 521.392 564.475C520.074 566.426 519.415 569.366 519.415 573.295V575.728C519.415 579.657 520.074 582.597 521.392 584.548C522.735 586.5 524.674 587.476 527.209 587.476ZM527.209 575.462C526.854 575.462 526.6 575.386 526.448 575.234C526.322 575.082 526.258 574.892 526.258 574.664V574.359C526.258 574.131 526.322 573.941 526.448 573.789C526.6 573.637 526.854 573.561 527.209 573.561C527.563 573.561 527.804 573.637 527.931 573.789C528.083 573.941 528.159 574.131 528.159 574.359V574.664C528.159 574.892 528.083 575.082 527.931 575.234C527.804 575.386 527.563 575.462 527.209 575.462ZM553.806 588.236C552.412 588.236 551.17 587.982 550.08 587.476C549.016 586.943 548.104 586.132 547.343 585.042C546.608 583.927 546.051 582.508 545.67 580.784C545.29 579.036 545.1 576.945 545.1 574.511C545.1 572.078 545.29 570 545.67 568.277C546.051 566.528 546.608 565.108 547.343 564.019C548.104 562.903 549.016 562.092 550.08 561.585C551.17 561.053 552.412 560.787 553.806 560.787C555.2 560.787 556.429 561.053 557.494 561.585C558.584 562.092 559.496 562.903 560.231 564.019C560.966 565.108 561.524 566.528 561.904 568.277C562.309 570 562.512 572.078 562.512 574.511C562.512 576.945 562.309 579.036 561.904 580.784C561.524 582.508 560.966 583.927 560.231 585.042C559.496 586.132 558.584 586.943 557.494 587.476C556.429 587.982 555.2 588.236 553.806 588.236ZM553.806 587.476C556.341 587.476 558.267 586.5 559.585 584.548C560.928 582.597 561.6 579.657 561.6 575.728V573.295C561.6 569.366 560.928 566.426 559.585 564.475C558.267 562.523 556.341 561.547 553.806 561.547C551.272 561.547 549.333 562.523 547.989 564.475C546.672 566.426 546.013 569.366 546.013 573.295V575.728C546.013 579.657 546.672 582.597 547.989 584.548C549.333 586.5 551.272 587.476 553.806 587.476ZM553.806 575.462C553.451 575.462 553.198 575.386 553.046 575.234C552.919 575.082 552.856 574.892 552.856 574.664V574.359C552.856 574.131 552.919 573.941 553.046 573.789C553.198 573.637 553.451 573.561 553.806 573.561C554.161 573.561 554.402 573.637 554.529 573.789C554.681 573.941 554.757 574.131 554.757 574.359V574.664C554.757 574.892 554.681 575.082 554.529 575.234C554.402 575.386 554.161 575.462 553.806 575.462ZM584.662 587.78V581.697H570.785V580.898L584.472 561.243H585.46V580.974H589.908V581.697H585.46V587.78H584.662ZM571.622 580.974H584.662V562.308H584.586L571.622 580.974ZM613.882 562.004H601.603L600.69 574.702L600.804 574.74C601.565 573.751 602.452 573.067 603.466 572.687C604.479 572.281 605.709 572.078 607.153 572.078C609.586 572.078 611.462 572.788 612.78 574.207C614.123 575.601 614.795 577.553 614.795 580.062C614.795 581.329 614.605 582.47 614.225 583.484C613.87 584.497 613.35 585.359 612.666 586.069C611.982 586.753 611.145 587.285 610.157 587.666C609.194 588.046 608.104 588.236 606.887 588.236C605.037 588.236 603.44 587.906 602.097 587.247C600.779 586.588 599.677 585.562 598.789 584.168L599.474 583.75C600.285 585.042 601.286 585.993 602.477 586.601C603.694 587.184 605.164 587.476 606.887 587.476C608.002 587.476 608.991 587.311 609.853 586.981C610.714 586.626 611.437 586.145 612.02 585.537C612.628 584.928 613.084 584.206 613.388 583.37C613.718 582.533 613.882 581.621 613.882 580.632V579.568C613.882 577.566 613.312 575.943 612.172 574.702C611.031 573.46 609.358 572.839 607.153 572.839C606.342 572.839 605.62 572.889 604.986 572.991C604.378 573.092 603.82 573.257 603.314 573.485C602.832 573.713 602.388 573.992 601.983 574.321C601.577 574.651 601.185 575.044 600.804 575.5L599.93 575.386L600.918 561.243H613.882V562.004ZM633.599 588.236C632.256 588.236 631.052 588.071 629.987 587.742C628.923 587.387 628.01 586.893 627.25 586.259C626.515 585.6 625.945 584.827 625.539 583.94C625.134 583.053 624.931 582.052 624.931 580.936C624.931 579.036 625.45 577.477 626.489 576.26C627.529 575.018 628.961 574.245 630.785 573.941V573.789C629.265 573.485 628.061 572.788 627.174 571.698C626.287 570.583 625.843 569.164 625.843 567.44C625.843 565.387 626.54 563.765 627.934 562.574C629.328 561.383 631.216 560.787 633.599 560.787C635.981 560.787 637.869 561.383 639.263 562.574C640.657 563.765 641.354 565.387 641.354 567.44C641.354 569.164 640.911 570.583 640.024 571.698C639.137 572.788 637.933 573.485 636.412 573.789V573.941C638.237 574.245 639.669 575.018 640.708 576.26C641.747 577.477 642.267 579.036 642.267 580.936C642.267 582.052 642.064 583.053 641.659 583.94C641.253 584.827 640.67 585.6 639.91 586.259C639.175 586.893 638.262 587.387 637.172 587.742C636.108 588.071 634.917 588.236 633.599 588.236ZM633.599 587.476C634.765 587.476 635.829 587.323 636.792 587.019C637.755 586.715 638.566 586.297 639.225 585.765C639.91 585.232 640.429 584.599 640.784 583.864C641.164 583.103 641.354 582.267 641.354 581.355V580.366C641.354 579.454 641.164 578.63 640.784 577.895C640.429 577.135 639.91 576.488 639.225 575.956C638.566 575.424 637.755 575.006 636.792 574.702C635.829 574.397 634.765 574.245 633.599 574.245C632.408 574.245 631.33 574.397 630.367 574.702C629.43 575.006 628.618 575.424 627.934 575.956C627.275 576.488 626.756 577.135 626.375 577.895C626.021 578.63 625.843 579.454 625.843 580.366V581.355C625.843 582.267 626.021 583.103 626.375 583.864C626.756 584.599 627.275 585.232 627.934 585.765C628.618 586.297 629.43 586.715 630.367 587.019C631.33 587.323 632.408 587.476 633.599 587.476ZM633.599 573.485C635.677 573.485 637.337 572.991 638.579 572.002C639.821 570.989 640.442 569.645 640.442 567.972V567.06C640.442 565.387 639.821 564.057 638.579 563.068C637.337 562.054 635.677 561.547 633.599 561.547C631.521 561.547 629.86 562.054 628.618 563.068C627.377 564.057 626.756 565.387 626.756 567.06V567.972C626.756 569.645 627.377 570.989 628.618 572.002C629.86 572.991 631.521 573.485 633.599 573.485ZM667.078 562.004H654.798L653.885 574.702L653.999 574.74C654.76 573.751 655.647 573.067 656.661 572.687C657.675 572.281 658.904 572.078 660.348 572.078C662.782 572.078 664.657 572.788 665.975 574.207C667.318 575.601 667.99 577.553 667.99 580.062C667.99 581.329 667.8 582.47 667.42 583.484C667.065 584.497 666.545 585.359 665.861 586.069C665.177 586.753 664.34 587.285 663.352 587.666C662.389 588.046 661.299 588.236 660.082 588.236C658.232 588.236 656.635 587.906 655.292 587.247C653.974 586.588 652.872 585.562 651.985 584.168L652.669 583.75C653.48 585.042 654.481 585.993 655.672 586.601C656.889 587.184 658.359 587.476 660.082 587.476C661.197 587.476 662.186 587.311 663.048 586.981C663.909 586.626 664.632 586.145 665.215 585.537C665.823 584.928 666.279 584.206 666.583 583.37C666.913 582.533 667.078 581.621 667.078 580.632V579.568C667.078 577.566 666.507 575.943 665.367 574.702C664.226 573.46 662.553 572.839 660.348 572.839C659.537 572.839 658.815 572.889 658.181 572.991C657.573 573.092 657.016 573.257 656.509 573.485C656.027 573.713 655.584 573.992 655.178 574.321C654.772 574.651 654.38 575.044 653.999 575.5L653.125 575.386L654.114 561.243H667.078V562.004Z" fill="#FFFAEE"/>
<path d="M517.651 626.478C516.032 626.478 514.797 625.86 513.945 624.625C513.107 623.389 512.688 621.444 512.688 618.788C512.688 616.133 513.107 614.187 513.945 612.952C514.797 611.716 516.032 611.099 517.651 611.099C519.27 611.099 520.498 611.716 521.336 612.952C522.188 614.187 522.614 616.133 522.614 618.788C522.614 621.444 522.188 623.389 521.336 624.625C520.498 625.86 519.27 626.478 517.651 626.478ZM517.651 625.775C519.028 625.775 520.058 625.257 520.74 624.22C521.421 623.169 521.762 621.628 521.762 619.598V617.979C521.762 615.948 521.421 614.414 520.74 613.378C520.058 612.327 519.028 611.802 517.651 611.802C516.273 611.802 515.244 612.327 514.562 613.378C513.881 614.414 513.54 615.948 513.54 617.979V619.598C513.54 621.628 513.881 623.169 514.562 624.22C515.244 625.257 516.273 625.775 517.651 625.775ZM532.553 626.478C530.934 626.478 529.699 625.86 528.847 624.625C528.009 623.389 527.59 621.444 527.59 618.788C527.59 616.133 528.009 614.187 528.847 612.952C529.699 611.716 530.934 611.099 532.553 611.099C534.172 611.099 535.4 611.716 536.238 612.952C537.09 614.187 537.516 616.133 537.516 618.788C537.516 621.444 537.09 623.389 536.238 624.625C535.4 625.86 534.172 626.478 532.553 626.478ZM532.553 625.775C533.931 625.775 534.96 625.257 535.642 624.22C536.323 623.169 536.664 621.628 536.664 619.598V617.979C536.664 615.948 536.323 614.414 535.642 613.378C534.96 612.327 533.931 611.802 532.553 611.802C531.176 611.802 530.146 612.327 529.464 613.378C528.783 614.414 528.442 615.948 528.442 617.979V619.598C528.442 621.628 528.783 623.169 529.464 624.22C530.146 625.257 531.176 625.775 532.553 625.775ZM547.455 626.478C545.836 626.478 544.601 625.86 543.749 624.625C542.911 623.389 542.492 621.444 542.492 618.788C542.492 616.133 542.911 614.187 543.749 612.952C544.601 611.716 545.836 611.099 547.455 611.099C549.074 611.099 550.302 611.716 551.14 612.952C551.992 614.187 552.418 616.133 552.418 618.788C552.418 621.444 551.992 623.389 551.14 624.625C550.302 625.86 549.074 626.478 547.455 626.478ZM547.455 625.775C548.833 625.775 549.862 625.257 550.544 624.22C551.225 623.169 551.566 621.628 551.566 619.598V617.979C551.566 615.948 551.225 614.414 550.544 613.378C549.862 612.327 548.833 611.802 547.455 611.802C546.078 611.802 545.048 612.327 544.367 613.378C543.685 614.414 543.344 615.948 543.344 617.979V619.598C543.344 621.628 543.685 623.169 544.367 624.22C545.048 625.257 546.078 625.775 547.455 625.775ZM566.319 612.057H559.482L558.992 618.831H559.077C559.489 618.291 559.965 617.908 560.504 617.681C561.058 617.439 561.733 617.318 562.528 617.318C563.877 617.318 564.935 617.716 565.702 618.511C566.483 619.292 566.873 620.393 566.873 621.813C566.873 622.523 566.767 623.169 566.554 623.751C566.341 624.319 566.035 624.809 565.638 625.221C565.24 625.619 564.757 625.931 564.189 626.158C563.621 626.371 562.989 626.478 562.294 626.478C561.2 626.478 560.284 626.279 559.546 625.881C558.807 625.47 558.19 624.887 557.693 624.135L558.31 623.709C558.765 624.405 559.304 624.923 559.929 625.264C560.554 625.604 561.342 625.775 562.294 625.775C563.501 625.775 564.424 625.441 565.063 624.774C565.716 624.092 566.042 623.205 566.042 622.111V621.621C566.042 620.528 565.73 619.654 565.105 619.001C564.495 618.334 563.593 618 562.4 618C561.974 618 561.598 618.036 561.271 618.107C560.944 618.163 560.646 618.256 560.376 618.384C560.121 618.497 559.887 618.646 559.674 618.831C559.461 619.001 559.248 619.207 559.035 619.449L558.31 619.342L558.843 611.354H566.319V612.057Z" fill="#FFFAEE"/>
<path d="M404.569 541V497.308H416.877V516.446L436.815 497.308H451.831L433.062 515.277L452.015 541H437.246L424.2 522.785L416.877 529.738V541H404.569ZM452.348 541V497.308H464.656V541H452.348ZM469.358 541V497.308H481.973L502.896 521.8H502.958V497.308H514.404V541H504.988L480.865 512.815H480.804V541H469.358ZM519.06 541V497.308H559.675V506.415H531.367V514.538H556.906V523.277H531.367V531.892H560.106V541H519.06ZM577.942 541V506.415H560.588V497.308H607.603V506.415H590.25V541H577.942ZM609.689 541V497.308H621.997V541H609.689ZM652.114 541.8C646.863 541.8 642.186 540.877 638.084 539.031C634.022 537.144 630.822 534.518 628.484 531.154C626.186 527.749 625.038 523.749 625.038 519.154C625.038 514.559 626.186 510.579 628.484 507.215C630.822 503.851 634.022 501.246 638.084 499.4C642.186 497.554 646.863 496.631 652.114 496.631C656.709 496.631 660.75 497.287 664.238 498.6C667.725 499.913 670.596 501.718 672.853 504.015C675.109 506.272 676.627 508.815 677.407 511.646L666.391 514.292C665.53 512.159 664.381 510.497 662.945 509.308C661.509 508.077 659.868 507.215 658.022 506.723C656.217 506.231 654.309 505.985 652.299 505.985C649.591 505.985 647.109 506.456 644.853 507.4C642.596 508.303 640.791 509.677 639.438 511.523C638.125 513.369 637.468 515.708 637.468 518.538V519.769C637.468 522.559 638.125 524.897 639.438 526.785C640.791 528.631 642.596 530.026 644.853 530.969C647.109 531.872 649.591 532.323 652.299 532.323C654.309 532.323 656.217 532.077 658.022 531.585C659.868 531.092 661.509 530.251 662.945 529.062C664.381 527.831 665.53 526.149 666.391 524.015L677.407 526.662C676.627 529.492 675.109 532.056 672.853 534.354C670.596 536.61 667.725 538.415 664.238 539.769C660.75 541.123 656.709 541.8 652.114 541.8Z" fill="#FFFAEE"/>
<path d="M481.598 611.128H491.375V613.578H484.537V617.391H490.885V619.84H484.537V623.738H491.481V626.188H481.598V611.128Z" fill="#FFFAEE"/>
<path d="M589.596 624.271L594.644 619.116C595.141 618.605 595.56 618.165 595.901 617.796C596.241 617.412 596.497 617.043 596.668 616.688C596.852 616.333 596.944 615.942 596.944 615.516C596.944 614.735 596.753 614.181 596.369 613.855C596 613.528 595.468 613.365 594.772 613.365C594.019 613.365 593.472 613.542 593.132 613.897C592.805 614.252 592.613 614.835 592.556 615.644H589.723C589.723 614.707 589.936 613.883 590.363 613.173C590.789 612.463 591.385 611.909 592.152 611.512C592.919 611.114 593.813 610.915 594.836 610.915C595.83 610.915 596.696 611.107 597.434 611.491C598.187 611.874 598.769 612.414 599.181 613.109C599.607 613.791 599.82 614.593 599.82 615.516C599.82 616.127 599.706 616.702 599.479 617.242C599.252 617.767 598.89 618.328 598.393 618.924C597.896 619.521 597.236 620.231 596.412 621.055L592.876 624.59L592.578 623.738H599.99V626.188H589.617L589.596 624.271ZM606.618 626.401C605.269 626.401 604.175 626.096 603.337 625.485C602.514 624.86 601.917 623.973 601.548 622.822C601.179 621.658 600.994 620.266 600.994 618.648C600.994 617.029 601.186 615.644 601.569 614.494C601.953 613.344 602.556 612.463 603.38 611.853C604.218 611.228 605.297 610.915 606.618 610.915C607.952 610.915 609.032 611.228 609.855 611.853C610.693 612.463 611.304 613.344 611.687 614.494C612.071 615.644 612.262 617.029 612.262 618.648C612.262 620.266 612.071 621.658 611.687 622.822C611.304 623.973 610.7 624.86 609.877 625.485C609.053 626.096 607.967 626.401 606.618 626.401ZM606.618 623.951C607.583 623.951 608.286 623.554 608.726 622.759C609.181 621.949 609.408 620.579 609.408 618.648C609.408 616.716 609.181 615.353 608.726 614.558C608.286 613.763 607.583 613.365 606.618 613.365C605.666 613.365 604.963 613.763 604.509 614.558C604.069 615.353 603.849 616.716 603.849 618.648C603.849 620.579 604.069 621.949 604.509 622.759C604.949 623.554 605.652 623.951 606.618 623.951Z" fill="#FFFAEE"/>
<path d="M528.801 374.339C531.724 371.534 535.56 369.99 539.602 369.99C548.204 369.99 555.202 376.979 555.202 385.569C555.202 394.159 548.203 401.148 539.602 401.148C539.473 401.148 539.345 401.147 539.217 401.143C538.704 401.131 538.281 401.543 538.281 402.056V406.447C538.281 406.944 538.68 407.349 539.177 407.359C539.318 407.362 539.46 407.363 539.602 407.363C551.635 407.363 561.425 397.586 561.425 385.569C561.425 373.552 551.635 363.775 539.602 363.775C533.931 363.775 528.554 365.946 524.463 369.887C521.399 372.838 519.302 376.544 518.354 380.591C518.009 382.066 517.85 383.579 517.848 385.094L517.781 424.229C517.78 424.846 518.281 425.348 518.898 425.348H522.884C523.501 425.348 524.001 424.848 524.001 424.232V385.262L524.017 384.898C524.187 380.886 525.887 377.136 528.801 374.339H528.801Z" fill="#FFFAEE"/>
<path d="M539.602 361.111C546.588 361.111 553.127 364.013 557.84 369.245C561.564 373.379 563.763 378.681 564.056 384.233C564.428 391.26 561.858 397.929 556.918 402.862C552.293 407.481 546.143 410.026 539.602 410.026C539.512 410.026 539.424 410.024 539.335 410.022C538.756 410.013 538.281 410.479 538.281 411.058V415.202C538.281 415.768 538.736 416.23 539.304 416.237C539.403 416.239 539.502 416.241 539.603 416.241C547.806 416.241 555.519 413.05 561.32 407.257C567.121 401.464 570.316 393.761 570.316 385.568C570.316 377.376 567.121 369.673 561.32 363.88C555.519 358.087 547.806 354.896 539.603 354.896C531.399 354.896 523.686 358.087 517.885 363.88C512.68 369.078 509.555 375.866 508.985 383.14C508.952 383.558 508.938 383.978 508.938 384.399L508.89 424.229C508.89 424.846 509.39 425.347 510.007 425.347H513.994C514.611 425.347 515.111 424.847 515.111 424.231V385.256L515.121 384.884C515.292 378.615 517.836 372.716 522.283 368.275C526.909 363.655 533.059 361.111 539.601 361.111H539.602Z" fill="#FFFAEE"/>
<path d="M576.091 370.173C574.097 365.463 571.242 361.234 567.606 357.603C563.97 353.971 559.734 351.12 555.019 349.128C550.134 347.065 544.947 346.019 539.602 346.019C534.257 346.019 529.07 347.065 524.186 349.128C519.469 351.12 515.235 353.971 511.599 357.603C507.962 361.234 505.108 365.463 503.113 370.173C501.273 374.517 500.24 379.11 500.038 383.84L500 424.23C500 424.847 500.5 425.348 501.117 425.348H505.104C505.721 425.348 506.221 424.848 506.221 424.232V385.297L506.229 384.879C506.404 376.241 509.873 368.114 515.998 361.998C522.302 355.702 530.685 352.235 539.601 352.235C548.517 352.235 556.9 355.702 563.204 361.998C569.104 367.89 572.522 375.598 572.938 383.86C573.441 393.865 569.403 403.602 561.962 410.321C555.819 415.87 547.944 418.906 539.601 418.906C539.511 418.906 539.421 418.904 539.332 418.903H539.328C538.751 418.896 538.28 419.361 538.28 419.937V424.084C538.28 424.651 538.736 425.112 539.304 425.118C539.403 425.12 539.502 425.121 539.601 425.121C544.946 425.121 550.132 424.075 555.017 422.011C559.734 420.019 563.969 417.167 567.604 413.537C571.24 409.906 574.095 405.676 576.09 400.966C578.156 396.089 579.204 390.909 579.204 385.571C579.204 380.233 578.156 375.053 576.09 370.175L576.091 370.173Z" fill="#FFFAEE"/>
<path d="M546.312 385.568C546.312 389.264 543.302 392.269 539.603 392.269C539.487 392.269 539.366 392.266 539.243 392.259C538.72 392.232 538.281 392.648 538.281 393.171V397.564C538.281 398.057 538.672 398.46 539.165 398.476C539.315 398.481 539.462 398.483 539.603 398.483C546.734 398.483 552.536 392.689 552.536 385.568C552.536 378.446 546.734 372.652 539.603 372.652C537.574 372.652 535.646 373.125 533.925 373.97C529.529 376.129 526.792 380.651 526.783 385.544L526.672 424.227C526.67 424.845 527.171 425.346 527.789 425.346H531.774C532.391 425.346 532.891 424.846 532.891 424.23V385.279C532.891 385.273 532.891 385.266 532.892 385.26L532.921 384.943C533.075 383.29 533.839 381.758 535.072 380.629C536.313 379.493 537.921 378.867 539.601 378.867C543.301 378.867 546.311 381.873 546.311 385.568L546.312 385.568Z" fill="#FFFAEE"/>
<path fill-rule="evenodd" clip-rule="evenodd" d="M341.803 593.637V599.506C341.159 599.567 340.507 599.602 339.838 599.602C328.914 599.602 320 590.702 320 579.797C320 568.891 328.914 560 339.838 560C340.499 560 341.159 560.035 341.803 560.096V565.965C341.159 565.87 340.507 565.826 339.838 565.826C332.123 565.826 325.836 572.112 325.836 579.797C325.836 587.481 332.132 593.767 339.838 593.767C340.499 593.767 341.159 593.715 341.803 593.628V593.637Z" fill="#FFFAEE"/>
<path fill-rule="evenodd" clip-rule="evenodd" d="M350.256 576.775H361.71V582.827H350.256C351.648 589.078 357.249 593.776 363.919 593.776C364.58 593.776 365.241 593.724 365.885 593.637V599.506C365.232 599.567 364.58 599.602 363.919 599.602C352.987 599.602 344.09 590.702 344.09 579.805C344.09 568.908 352.987 560 363.919 560C364.58 560 365.241 560.035 365.885 560.096V565.965C365.232 565.87 364.58 565.826 363.919 565.826C357.249 565.826 351.639 570.523 350.256 576.775Z" fill="#FFFAEE"/>
<path d="M344.553 496C331.014 496 320 507.014 320 520.553C320 534.092 331.014 545.106 344.553 545.106C358.092 545.106 369.106 534.092 369.106 520.553C369.106 507.014 358.092 496 344.553 496ZM366.866 520.553C366.866 532.859 356.859 542.866 344.553 542.866C332.247 542.866 322.24 532.859 322.24 520.553C322.24 508.247 332.247 498.24 344.553 498.24C356.859 498.24 366.866 508.247 366.866 520.553Z" fill="#FFFAEE"/>
<path d="M344.754 524V521.871L348.835 514.176C349.042 513.791 349.16 513.459 349.189 513.178C349.219 512.882 349.234 512.52 349.234 512.091C349.234 511.899 349.226 511.699 349.212 511.492C349.212 511.27 349.175 511.078 349.101 510.916C349.027 510.753 348.916 510.62 348.768 510.516C348.62 510.398 348.406 510.339 348.125 510.339C347.785 510.339 347.511 510.435 347.304 510.627C347.112 510.819 347.016 511.1 347.016 511.47V512.756H344.754V511.514C344.754 511.041 344.843 510.598 345.02 510.184C345.198 509.77 345.442 509.408 345.752 509.097C346.048 508.787 346.403 508.543 346.816 508.365C347.23 508.173 347.674 508.077 348.147 508.077C348.738 508.077 349.241 508.188 349.655 508.41C350.084 508.617 350.439 508.905 350.72 509.274C350.986 509.644 351.178 510.065 351.296 510.539C351.429 511.012 351.496 511.514 351.496 512.047C351.496 512.431 351.488 512.756 351.474 513.022C351.459 513.274 351.429 513.518 351.385 513.754C351.341 513.991 351.267 514.227 351.163 514.464C351.06 514.7 350.919 514.989 350.742 515.329L347.415 521.738H351.496V524H344.754ZM358.04 508.21L355.467 514.841L355.511 514.885C355.585 514.826 355.696 514.782 355.844 514.752C356.007 514.708 356.214 514.686 356.465 514.686C356.864 514.686 357.234 514.782 357.574 514.974C357.914 515.166 358.18 515.41 358.372 515.706C358.476 515.868 358.557 516.031 358.616 516.194C358.675 516.356 358.727 516.571 358.771 516.837C358.801 517.103 358.823 517.443 358.838 517.857C358.853 518.256 358.86 518.766 358.86 519.387C358.86 519.905 358.853 520.333 358.838 520.673C358.823 520.999 358.801 521.272 358.771 521.494C358.727 521.731 358.668 521.93 358.594 522.093C358.535 522.255 358.454 522.425 358.35 522.603C358.054 523.091 357.655 523.468 357.153 523.734C356.665 524 356.11 524.133 355.489 524.133C354.868 524.133 354.314 524 353.826 523.734C353.338 523.453 352.946 523.076 352.651 522.603C352.532 522.425 352.436 522.255 352.362 522.093C352.303 521.93 352.259 521.731 352.229 521.494C352.185 521.272 352.155 520.999 352.141 520.673C352.126 520.333 352.118 519.905 352.118 519.387C352.118 518.899 352.126 518.5 352.141 518.19C352.155 517.864 352.177 517.583 352.207 517.347C352.237 517.125 352.281 516.926 352.34 516.748C352.399 516.556 352.466 516.356 352.54 516.149L355.511 508.21H358.04ZM356.598 517.813C356.598 517.473 356.487 517.199 356.265 516.992C356.044 516.785 355.785 516.682 355.489 516.682C355.194 516.682 354.935 516.785 354.713 516.992C354.491 517.199 354.38 517.473 354.38 517.813V520.74C354.38 521.08 354.491 521.354 354.713 521.561C354.935 521.768 355.194 521.871 355.489 521.871C355.785 521.871 356.044 521.768 356.265 521.561C356.487 521.354 356.598 521.08 356.598 520.74V517.813Z" fill="#FFFAEE"/>
</svg>
