<svg width="1080" height="1080" viewBox="0 0 1080 1080" fill="none" xmlns="http://www.w3.org/2000/svg">
<rect width="1080" height="1080" fill="#191919"/>
<path d="M374.59 494.731L374.443 477.459L360.734 477.315C356.6 477.269 353.719 472.785 353.213 468.945C352.399 462.772 353.073 456.697 353.519 450.194C350.085 449.024 346.492 447.735 343.424 445.934C340.704 444.336 340.37 441.509 341.937 439.011C345.991 431.483 349.879 424.244 352.619 416.118C352.706 403.606 356.06 391.712 364.095 381.989C378.551 364.493 403.102 358.438 424.365 366.551C436.534 371.193 445.222 380.174 450.13 391.87C460.025 415.48 454.184 437.676 438.548 457.446L436.054 485.967C435.727 489.702 430.673 492.765 427.586 494.508C413.297 502.562 389.586 503.666 374.597 494.731H374.59ZM380.998 475.066L381.038 491.049C395.5 497.085 419.405 495.763 429.913 484.422L432.167 455.092C447.176 436.677 453.411 416.433 443.969 394.014C440.082 384.789 433.547 377.564 424.112 373.389C403.722 364.362 379.337 370.936 366.788 389.194C361.101 397.472 359.574 406.552 358.86 416.433C358.587 420.168 356.52 424.671 354.846 427.978L348.072 441.338L357.453 444.56C359.034 445.099 360.181 446.545 360.081 448.347L359.22 463.607C359.087 466.006 359.801 468.564 360.747 471.003L376.163 470.977C378.857 470.977 380.998 471.634 381.004 475.073L380.998 475.066Z" fill="#FFFAEE"/>
<path d="M491.41 494.731L491.557 477.459L505.266 477.315C509.4 477.269 512.281 472.785 512.787 468.945C513.601 462.772 512.927 456.697 512.481 450.194C515.915 449.024 519.508 447.735 522.576 445.934C525.296 444.336 525.63 441.509 524.063 439.011C520.009 431.483 516.121 424.244 513.381 416.118C513.294 403.606 509.94 391.712 501.905 381.989C487.449 364.493 462.898 358.438 441.635 366.551C429.466 371.193 420.778 380.174 415.87 391.87C405.975 415.48 411.816 437.676 427.452 457.446L429.946 485.967C430.273 489.702 435.327 492.765 438.414 494.508C452.703 502.562 476.414 503.666 491.403 494.731H491.41ZM485.002 475.066L484.962 491.049C470.5 497.085 446.595 495.763 436.087 484.422L433.833 455.092C418.824 436.677 412.589 416.433 422.031 394.014C425.918 384.789 432.453 377.564 441.888 373.389C462.278 364.362 486.663 370.936 499.212 389.194C504.899 397.472 506.426 406.552 507.14 416.433C507.413 420.168 509.48 424.671 511.154 427.978L517.928 441.338L508.547 444.56C506.966 445.099 505.819 446.545 505.919 448.347L506.78 463.607C506.913 466.006 506.199 468.564 505.253 471.003L489.837 470.977C487.143 470.977 485.002 471.634 484.996 475.073L485.002 475.066Z" fill="#FFFAEE"/>
<path d="M516.323 523V505.032H522.524C525.303 505.032 527.387 505.811 528.776 507.37C530.165 508.929 530.86 511.14 530.86 514.003C530.86 516.85 530.157 519.061 528.751 520.636C527.344 522.212 525.184 523 522.27 523H516.323ZM522.143 520.611C523.6 520.611 524.76 520.365 525.625 519.874C526.489 519.383 527.107 518.646 527.48 517.663C527.853 516.68 528.039 515.46 528.039 514.003C528.039 512.529 527.853 511.309 527.48 510.344C527.107 509.361 526.506 508.632 525.675 508.158C524.845 507.667 523.735 507.421 522.346 507.421H519.169V520.611H522.143ZM533.052 505.032H544.259V507.421H535.898V512.783H543.675V515.147H535.898V520.611H544.387V523H533.052V505.032ZM555.983 509.683C555.898 508.836 555.559 508.209 554.966 507.802C554.39 507.379 553.543 507.167 552.425 507.167C551.222 507.167 550.332 507.404 549.756 507.878C549.197 508.336 548.918 508.98 548.918 509.81C548.918 510.25 549.019 510.623 549.223 510.928C549.443 511.216 549.714 511.462 550.036 511.665C550.358 511.852 550.697 512.004 551.052 512.123C551.425 512.241 551.764 512.351 552.069 512.453L553.746 512.936C554.238 513.071 554.788 513.249 555.398 513.47C556.025 513.69 556.618 513.995 557.177 514.385C557.736 514.757 558.194 515.24 558.55 515.833C558.922 516.409 559.109 517.129 559.109 517.993C559.109 519.061 558.855 519.993 558.346 520.789C557.855 521.585 557.11 522.212 556.11 522.67C555.11 523.11 553.865 523.33 552.374 523.33C550.222 523.33 548.587 522.873 547.469 521.958C546.368 521.026 545.758 519.764 545.639 518.171H548.511C548.579 518.832 548.765 519.366 549.07 519.772C549.392 520.179 549.833 520.476 550.392 520.662C550.951 520.848 551.612 520.941 552.374 520.941C553.628 520.941 554.594 520.687 555.271 520.179C555.949 519.654 556.288 518.908 556.288 517.943C556.288 517.4 556.144 516.977 555.856 516.672C555.568 516.35 555.178 516.087 554.687 515.884C554.212 515.681 553.679 515.494 553.086 515.325L550.951 514.715C549.46 514.291 548.282 513.707 547.418 512.961C546.554 512.199 546.122 511.182 546.122 509.912C546.122 508.81 546.393 507.878 546.935 507.116C547.478 506.354 548.223 505.777 549.172 505.388C550.138 504.981 551.247 504.778 552.501 504.778C553.806 504.778 554.915 504.99 555.83 505.413C556.762 505.82 557.474 506.396 557.965 507.141C558.473 507.87 558.736 508.717 558.753 509.683H555.983ZM566.08 523H563.233V505.032H566.08V523ZM560.565 507.421V505.032H568.723V507.421H560.565ZM560.565 523V520.611H568.723V523H560.565ZM583.072 516.011H578.625V513.597H585.893V515.833C585.893 517.172 585.63 518.408 585.105 519.544C584.597 520.662 583.792 521.56 582.691 522.238C581.606 522.915 580.183 523.254 578.421 523.254C575.829 523.254 573.83 522.466 572.423 520.891C571.034 519.298 570.339 517.002 570.339 514.003C570.339 511.021 571.034 508.743 572.423 507.167C573.83 505.574 575.829 504.778 578.421 504.778C579.743 504.778 580.929 505.015 581.979 505.489C583.03 505.964 583.885 506.642 584.546 507.523C585.224 508.404 585.63 509.471 585.766 510.725H582.92C582.733 509.539 582.267 508.649 581.522 508.056C580.776 507.463 579.743 507.167 578.421 507.167C576.693 507.167 575.388 507.734 574.507 508.87C573.626 509.988 573.186 511.699 573.186 514.003C573.186 516.308 573.626 518.027 574.507 519.162C575.388 520.281 576.693 520.84 578.421 520.84C579.201 520.84 579.861 520.747 580.404 520.56C580.946 520.357 581.386 520.094 581.725 519.772C582.081 519.434 582.352 519.061 582.538 518.654C582.742 518.231 582.877 517.79 582.945 517.333C583.03 516.875 583.072 516.435 583.072 516.011ZM602.16 523H599.466L590.927 509.581H590.825V523H588.029V505.032H590.749L599.313 518.476H599.415V505.032H602.16V523ZM676.301 523V505.032H682.502C685.28 505.032 687.364 505.811 688.754 507.37C690.143 508.929 690.838 511.14 690.838 514.003C690.838 516.85 690.135 519.061 688.728 520.636C687.322 522.212 685.162 523 682.248 523H676.301ZM682.121 520.611C683.578 520.611 684.738 520.365 685.602 519.874C686.466 519.383 687.085 518.646 687.458 517.663C687.83 516.68 688.017 515.46 688.017 514.003C688.017 512.529 687.83 511.309 687.458 510.344C687.085 509.361 686.483 508.632 685.653 508.158C684.823 507.667 683.713 507.421 682.324 507.421H679.147V520.611H682.121ZM693.03 505.032H704.237V507.421H695.876V512.783H703.653V515.147H695.876V520.611H704.364V523H693.03V505.032ZM706.78 505.032H713.057C714.633 505.032 715.887 505.295 716.819 505.82C717.768 506.328 718.445 507.023 718.852 507.904C719.276 508.768 719.487 509.742 719.487 510.826C719.487 511.911 719.276 512.894 718.852 513.775C718.445 514.656 717.776 515.359 716.844 515.884C715.912 516.409 714.659 516.672 713.083 516.672H709.626V523H706.78V505.032ZM712.981 514.257C713.998 514.257 714.769 514.122 715.294 513.851C715.819 513.58 716.175 513.19 716.361 512.682C716.565 512.157 716.666 511.538 716.666 510.826C716.666 510.098 716.573 509.488 716.387 508.997C716.2 508.488 715.836 508.107 715.294 507.853C714.769 507.582 713.989 507.446 712.956 507.446H709.626V514.257H712.981ZM719.308 505.032H733.286V507.421H727.72V523H724.874V507.421H719.308V505.032ZM733.809 519.747H737.062V523H733.809V519.747ZM373.982 532.032H380.26C381.835 532.032 383.089 532.295 384.021 532.82C384.97 533.328 385.648 534.023 386.054 534.904C386.478 535.768 386.69 536.742 386.69 537.826C386.69 538.911 386.478 539.894 386.054 540.775C385.648 541.656 384.978 542.359 384.046 542.884C383.115 543.409 381.861 543.672 380.285 543.672H376.829V550H373.982V532.032ZM380.183 541.257C381.2 541.257 381.971 541.122 382.496 540.851C383.021 540.58 383.377 540.19 383.564 539.682C383.767 539.157 383.869 538.538 383.869 537.826C383.869 537.098 383.775 536.488 383.589 535.997C383.403 535.488 383.038 535.107 382.496 534.853C381.971 534.582 381.192 534.446 380.158 534.446H376.829V541.257H380.183ZM393.284 550H390.438V532.032H393.284V550ZM387.769 534.421V532.032H395.927V534.421H387.769ZM387.769 550V547.611H395.927V550H387.769ZM406.044 539.402L410.542 532.032H413.82L407.899 541.308L406.044 539.402ZM406.399 542.655L401.825 550H398.521L404.57 540.673L406.399 542.655ZM404.392 541.08L398.521 532.032H401.85L406.247 539.123L408.051 540.927L413.871 550H410.542L406.069 542.808L404.392 541.08ZM415.855 532.032H427.062V534.421H418.701V539.783H426.478V542.147H418.701V547.611H427.189V550H415.855V532.032ZM429.605 532.032H432.452V547.56H440.483V550H429.605V532.032ZM450.7 536.683C450.615 535.836 450.276 535.209 449.683 534.802C449.107 534.379 448.26 534.167 447.142 534.167C445.939 534.167 445.049 534.404 444.473 534.878C443.914 535.336 443.635 535.98 443.635 536.81C443.635 537.25 443.736 537.623 443.939 537.928C444.16 538.216 444.431 538.462 444.753 538.665C445.075 538.852 445.414 539.004 445.769 539.123C446.142 539.241 446.481 539.351 446.786 539.453L448.463 539.936C448.955 540.071 449.505 540.249 450.115 540.47C450.742 540.69 451.335 540.995 451.894 541.385C452.453 541.757 452.911 542.24 453.267 542.833C453.639 543.409 453.826 544.129 453.826 544.993C453.826 546.061 453.572 546.993 453.063 547.789C452.572 548.585 451.826 549.212 450.827 549.67C449.827 550.11 448.582 550.33 447.091 550.33C444.939 550.33 443.304 549.873 442.186 548.958C441.085 548.026 440.475 546.764 440.356 545.171H443.228C443.296 545.832 443.482 546.366 443.787 546.772C444.109 547.179 444.549 547.476 445.109 547.662C445.668 547.848 446.328 547.941 447.091 547.941C448.345 547.941 449.31 547.687 449.988 547.179C450.666 546.654 451.005 545.908 451.005 544.943C451.005 544.4 450.861 543.977 450.573 543.672C450.285 543.35 449.895 543.087 449.404 542.884C448.929 542.681 448.395 542.494 447.802 542.325L445.668 541.715C444.177 541.291 442.999 540.707 442.135 539.961C441.271 539.199 440.839 538.182 440.839 536.912C440.839 535.81 441.11 534.878 441.652 534.116C442.194 533.354 442.94 532.777 443.889 532.388C444.854 531.981 445.964 531.778 447.218 531.778C448.523 531.778 449.632 531.99 450.547 532.413C451.479 532.82 452.191 533.396 452.682 534.141C453.19 534.87 453.453 535.717 453.47 536.683H450.7ZM531.328 559.032H537.606C539.181 559.032 540.435 559.295 541.367 559.82C542.316 560.328 542.994 561.023 543.4 561.904C543.824 562.768 544.036 563.742 544.036 564.826C544.036 565.911 543.824 566.894 543.4 567.775C542.994 568.656 542.324 569.359 541.393 569.884C540.461 570.409 539.207 570.672 537.631 570.672H534.175V577H531.328V559.032ZM537.53 568.257C538.546 568.257 539.317 568.122 539.842 567.851C540.367 567.58 540.723 567.19 540.91 566.682C541.113 566.157 541.215 565.538 541.215 564.826C541.215 564.098 541.121 563.488 540.935 562.997C540.749 562.488 540.384 562.107 539.842 561.853C539.317 561.582 538.538 561.446 537.504 561.446H534.175V568.257H537.53ZM559.854 559.032V570.697C559.854 572.002 559.599 573.162 559.091 574.179C558.583 575.179 557.812 575.958 556.778 576.517C555.745 577.059 554.423 577.33 552.814 577.33C551.221 577.33 549.9 577.059 548.849 576.517C547.799 575.958 547.019 575.179 546.511 574.179C546.003 573.162 545.749 572.002 545.749 570.697V559.032H548.595V570.494C548.595 571.392 548.722 572.18 548.976 572.857C549.247 573.518 549.679 574.035 550.272 574.408C550.882 574.764 551.729 574.941 552.814 574.941C553.881 574.941 554.72 574.764 555.33 574.408C555.94 574.035 556.372 573.518 556.626 572.857C556.897 572.18 557.033 571.392 557.033 570.494V559.032H559.854ZM572.205 563.683C572.12 562.836 571.781 562.209 571.188 561.802C570.612 561.379 569.765 561.167 568.647 561.167C567.444 561.167 566.554 561.404 565.978 561.878C565.419 562.336 565.139 562.98 565.139 563.81C565.139 564.25 565.241 564.623 565.444 564.928C565.665 565.216 565.936 565.462 566.258 565.665C566.579 565.852 566.918 566.004 567.274 566.123C567.647 566.241 567.986 566.351 568.291 566.453L569.968 566.936C570.459 567.071 571.01 567.249 571.62 567.47C572.247 567.69 572.84 567.995 573.399 568.385C573.958 568.757 574.416 569.24 574.771 569.833C575.144 570.409 575.331 571.129 575.331 571.993C575.331 573.061 575.076 573.993 574.568 574.789C574.077 575.585 573.331 576.212 572.332 576.67C571.332 577.11 570.087 577.33 568.596 577.33C566.444 577.33 564.809 576.873 563.691 575.958C562.589 575.026 561.979 573.764 561.861 572.171H564.733C564.8 572.832 564.987 573.366 565.292 573.772C565.614 574.179 566.054 574.476 566.613 574.662C567.172 574.848 567.833 574.941 568.596 574.941C569.849 574.941 570.815 574.687 571.493 574.179C572.171 573.654 572.51 572.908 572.51 571.943C572.51 571.4 572.365 570.977 572.077 570.672C571.789 570.35 571.4 570.087 570.908 569.884C570.434 569.681 569.9 569.494 569.307 569.325L567.172 568.715C565.681 568.291 564.504 567.707 563.64 566.961C562.776 566.199 562.344 565.182 562.344 563.912C562.344 562.81 562.615 561.878 563.157 561.116C563.699 560.354 564.445 559.777 565.393 559.388C566.359 558.981 567.469 558.778 568.723 558.778C570.027 558.778 571.137 558.99 572.052 559.413C572.984 559.82 573.696 560.396 574.187 561.141C574.695 561.87 574.958 562.717 574.975 563.683H572.205ZM577.147 559.032H579.993V566.783H588.533V559.032H591.379V577H588.533V569.172H579.993V577H577.147V559.032ZM594.322 559.032H605.53V561.421H597.169V566.783H604.946V569.147H597.169V574.611H605.657V577H594.322V559.032ZM608.073 577V559.032H614.274C617.053 559.032 619.137 559.811 620.526 561.37C621.915 562.929 622.61 565.14 622.61 568.003C622.61 570.85 621.907 573.061 620.501 574.636C619.094 576.212 616.934 577 614.02 577H608.073ZM613.893 574.611C615.35 574.611 616.511 574.365 617.375 573.874C618.239 573.383 618.857 572.646 619.23 571.663C619.603 570.68 619.789 569.46 619.789 568.003C619.789 566.529 619.603 565.309 619.23 564.344C618.857 563.361 618.256 562.632 617.426 562.158C616.595 561.667 615.486 561.421 614.096 561.421H610.919V574.611H613.893ZM709.28 559.032H723.258V561.421H717.692V577H714.846V561.421H709.28V559.032ZM738.782 568.003C738.782 571.002 738.096 573.298 736.724 574.891C735.351 576.466 733.369 577.254 730.777 577.254C728.202 577.254 726.219 576.466 724.83 574.891C723.458 573.298 722.771 571.002 722.771 568.003C722.771 565.021 723.458 562.743 724.83 561.167C726.219 559.574 728.202 558.778 730.777 558.778C733.369 558.778 735.351 559.574 736.724 561.167C738.096 562.743 738.782 565.021 738.782 568.003ZM735.936 568.003C735.936 565.665 735.512 563.945 734.665 562.844C733.835 561.726 732.547 561.167 730.802 561.167C729.057 561.167 727.753 561.726 726.888 562.844C726.041 563.945 725.618 565.665 725.618 568.003C725.618 570.341 726.041 572.07 726.888 573.188C727.753 574.306 729.057 574.865 730.802 574.865C732.547 574.865 733.835 574.306 734.665 573.188C735.512 572.07 735.936 570.341 735.936 568.003ZM373.982 586.032H380.26C381.835 586.032 383.089 586.295 384.021 586.82C384.97 587.328 385.648 588.023 386.054 588.904C386.478 589.768 386.69 590.742 386.69 591.826C386.69 592.911 386.478 593.894 386.054 594.775C385.648 595.656 384.978 596.359 384.046 596.884C383.115 597.409 381.861 597.672 380.285 597.672H376.829V604H373.982V586.032ZM380.183 595.257C381.2 595.257 381.971 595.122 382.496 594.851C383.021 594.58 383.377 594.19 383.564 593.682C383.767 593.157 383.869 592.538 383.869 591.826C383.869 591.098 383.775 590.488 383.589 589.997C383.403 589.488 383.038 589.107 382.496 588.853C381.971 588.582 381.192 588.446 380.158 588.446H376.829V595.257H380.183ZM388.428 586.032H399.636V588.421H391.274V593.783H399.051V596.147H391.274V601.611H399.763V604H388.428V586.032ZM411.124 595.512L415.851 604H412.598L408.252 595.994L411.124 595.512ZM408.43 594.8C409.464 594.8 410.243 594.69 410.768 594.47C411.294 594.232 411.65 593.885 411.836 593.428C412.022 592.953 412.115 592.36 412.115 591.649C412.115 590.937 412.022 590.344 411.836 589.87C411.65 589.395 411.285 589.039 410.743 588.802C410.218 588.565 409.438 588.446 408.405 588.446H405.025V594.8H408.43ZM408.532 597.214H405.025V604H402.178V586.032H408.507C410.116 586.032 411.387 586.278 412.319 586.769C413.268 587.243 413.937 587.904 414.327 588.751C414.733 589.598 414.936 590.564 414.936 591.649C414.936 592.428 414.843 593.157 414.657 593.834C414.471 594.495 414.14 595.08 413.666 595.588C413.191 596.096 412.539 596.494 411.709 596.782C410.879 597.07 409.82 597.214 408.532 597.214ZM417.642 586.032H428.875V588.421H420.488V593.834H428.061V596.223H420.488V604H417.642V586.032ZM430.499 586.032H441.706V588.421H433.345V593.783H441.122V596.147H433.345V601.611H441.833V604H430.499V586.032ZM455.217 591.801C455.03 590.547 454.564 589.632 453.819 589.056C453.073 588.463 452.074 588.167 450.82 588.167C449.159 588.167 447.897 588.734 447.033 589.87C446.186 590.988 445.762 592.699 445.762 595.003C445.762 597.308 446.186 599.027 447.033 600.162C447.897 601.298 449.159 601.865 450.82 601.865C452.074 601.865 453.073 601.569 453.819 600.976C454.564 600.383 455.039 599.468 455.242 598.231H458.088C457.851 600.162 457.097 601.653 455.826 602.704C454.556 603.737 452.887 604.254 450.82 604.254C448.329 604.254 446.389 603.466 445 601.891C443.611 600.298 442.916 598.002 442.916 595.003C442.916 592.004 443.611 589.717 445 588.141C446.406 586.566 448.346 585.778 450.82 585.778C452.107 585.778 453.26 586.007 454.276 586.464C455.31 586.922 456.157 587.599 456.818 588.497C457.478 589.395 457.894 590.496 458.063 591.801H455.217ZM457.745 586.032H471.723V588.421H466.157V604H463.311V588.421H457.745V586.032ZM478.245 604H475.399V586.032H478.245V604ZM472.73 588.421V586.032H480.888V588.421H472.73ZM472.73 604V601.611H480.888V604H472.73ZM498.516 595.003C498.516 598.002 497.83 600.298 496.457 601.891C495.085 603.466 493.103 604.254 490.51 604.254C487.935 604.254 485.953 603.466 484.563 601.891C483.191 600.298 482.505 598.002 482.505 595.003C482.505 592.021 483.191 589.743 484.563 588.167C485.953 586.574 487.935 585.778 490.51 585.778C493.103 585.778 495.085 586.574 496.457 588.167C497.83 589.743 498.516 592.021 498.516 595.003ZM495.67 595.003C495.67 592.665 495.246 590.945 494.399 589.844C493.569 588.726 492.281 588.167 490.536 588.167C488.791 588.167 487.486 588.726 486.622 589.844C485.775 590.945 485.351 592.665 485.351 595.003C485.351 597.341 485.775 599.07 486.622 600.188C487.486 601.306 488.791 601.865 490.536 601.865C492.281 601.865 493.569 601.306 494.399 600.188C495.246 599.07 495.67 597.341 495.67 595.003ZM514.846 604H512.152L503.613 590.581H503.511V604H500.716V586.032H503.435L512 599.476H512.102V586.032H514.846V604Z" fill="#FFFAEE"/>
<path d="M715.146 462.3C701.836 462.3 691 451.464 691 438.147C691 424.829 701.836 414 715.146 414C728.457 414 739.293 424.836 739.293 438.147C739.293 451.457 728.457 462.293 715.146 462.293V462.3ZM715.146 418.192C704.144 418.192 695.192 427.144 695.192 438.147C695.192 449.149 704.144 458.101 715.146 458.101C726.149 458.101 735.101 449.149 735.101 438.147C735.101 427.144 726.149 418.192 715.146 418.192Z" fill="#FFFAEE"/>
<path d="M718.899 421.507H711.536V446.281H718.899V421.507Z" fill="#FFFAEE"/>
<path d="M718.899 448.975H711.536V455.051H718.899V448.975Z" fill="#FFFAEE"/>
<path d="M686.794 655C686.479 655 686.259 654.937 686.133 654.811C686.007 654.685 685.944 654.559 685.944 654.434C685.944 654.119 686.18 653.914 686.652 653.82L687.407 653.678C688.414 653.489 689.201 653.19 689.768 652.781C690.366 652.341 690.869 651.648 691.278 650.704L695.999 639.47C696.156 639.124 696.25 638.777 696.282 638.431C696.345 638.054 696.282 637.66 696.093 637.251L690.192 624.175C689.878 623.452 689.532 622.964 689.154 622.712C688.808 622.46 688.43 622.303 688.021 622.24L687.124 622.098C686.621 622.004 686.369 621.8 686.369 621.485C686.369 621.17 686.636 621.013 687.171 621.013H695.479C696.046 621.013 696.329 621.17 696.329 621.485C696.329 621.8 696.062 622.004 695.527 622.098L694.63 622.24C694.095 622.334 693.717 622.523 693.497 622.807C693.308 623.09 693.355 623.546 693.638 624.175L698.123 634.23C698.249 634.513 698.39 634.655 698.548 634.655C698.737 634.655 698.894 634.513 699.02 634.23L703.079 624.648C703.363 623.955 703.457 623.452 703.363 623.137C703.268 622.791 702.953 622.555 702.418 622.429L701.097 622.146C700.562 622.02 700.294 621.8 700.294 621.485C700.294 621.17 700.577 621.013 701.144 621.013H708.366C708.712 621.013 708.933 621.076 709.027 621.202C709.153 621.296 709.216 621.422 709.216 621.579C709.216 621.894 708.98 622.098 708.508 622.193L707.753 622.334C706.966 622.46 706.305 622.759 705.77 623.231C705.235 623.672 704.763 624.364 704.354 625.308L699.869 635.788C699.712 636.197 699.618 636.59 699.586 636.968C699.586 637.346 699.696 637.755 699.917 638.195L706.006 651.837C706.352 652.593 706.698 653.08 707.044 653.301C707.422 653.521 707.8 653.663 708.177 653.725L709.074 653.867C709.609 653.962 709.877 654.182 709.877 654.528C709.877 654.843 709.594 655 709.027 655H700.672C700.105 655 699.822 654.811 699.822 654.434C699.822 654.15 700.074 653.962 700.577 653.867L701.522 653.725C702.057 653.663 702.434 653.489 702.654 653.206C702.875 652.892 702.859 652.435 702.607 651.837L697.745 641.027C697.619 640.744 697.462 640.603 697.273 640.603C697.116 640.603 696.974 640.744 696.848 641.027L692.6 651.365C692.317 652.058 692.222 652.577 692.317 652.923C692.411 653.238 692.726 653.458 693.261 653.584L694.583 653.867C695.117 653.993 695.385 654.213 695.385 654.528C695.385 654.843 695.102 655 694.535 655H686.794ZM708.688 655C708.216 655 707.98 654.827 707.98 654.481C707.98 654.198 708.184 654.009 708.593 653.914L709.679 653.725C710.34 653.6 710.765 653.427 710.954 653.206C711.174 652.986 711.284 652.545 711.284 651.885V624.128C711.284 623.467 711.174 623.027 710.954 622.807C710.765 622.586 710.34 622.413 709.679 622.287L708.593 622.098C708.184 622.004 707.98 621.815 707.98 621.532C707.98 621.186 708.216 621.013 708.688 621.013H717.232C717.704 621.013 717.94 621.186 717.94 621.532C717.94 621.815 717.735 622.004 717.326 622.098L716.241 622.287C715.58 622.413 715.139 622.586 714.919 622.807C714.73 623.027 714.636 623.467 714.636 624.128V651.885C714.636 652.545 714.73 652.986 714.919 653.206C715.139 653.427 715.58 653.6 716.241 653.725L717.326 653.914C717.735 654.009 717.94 654.198 717.94 654.481C717.94 654.827 717.704 655 717.232 655H708.688ZM727.76 655.472C727.634 655.472 727.492 655.425 727.335 655.33C727.177 655.236 727.067 655.031 727.004 654.717L719.546 624.789C719.326 623.908 719.074 623.294 718.791 622.948C718.539 622.602 718.098 622.366 717.469 622.24L716.761 622.098C716.32 622.004 716.1 621.8 716.1 621.485C716.1 621.17 716.336 621.013 716.808 621.013H724.88C725.321 621.013 725.541 621.186 725.541 621.532C725.541 621.878 725.273 622.067 724.738 622.098L723.842 622.193C723.307 622.224 722.96 622.397 722.803 622.712C722.677 622.995 722.693 623.483 722.85 624.175L728.326 646.881C728.389 647.07 728.483 647.164 728.609 647.164C728.767 647.164 728.861 647.07 728.892 646.881L734.321 625.167C734.762 623.373 734.289 622.382 732.905 622.193L732.197 622.098C731.662 622.004 731.394 621.815 731.394 621.532C731.394 621.186 731.615 621.013 732.055 621.013H738.664C739.136 621.013 739.372 621.17 739.372 621.485C739.372 621.8 739.152 622.004 738.711 622.098L738.003 622.24C737.405 622.366 736.933 622.681 736.587 623.184C736.272 623.656 736.005 624.333 735.784 625.214L728.468 654.717C728.405 655.031 728.295 655.236 728.137 655.33C728.011 655.425 727.885 655.472 727.76 655.472Z" fill="#FFFAEE"/>
<rect x="373" y="625" width="105" height="33.1781" rx="16.589" stroke="#FFFAEE" stroke-width="2"/>
<path d="M405.378 642.952C405.213 643.784 404.85 644.447 404.287 644.94C403.712 645.444 403.038 645.696 402.264 645.696C401.69 645.696 401.168 645.596 400.699 645.397C400.242 645.186 399.849 644.898 399.52 644.535C399.192 644.183 398.94 643.773 398.764 643.304C398.588 642.823 398.5 642.301 398.5 641.738C398.5 641.164 398.582 640.636 398.746 640.155C398.922 639.663 399.169 639.241 399.485 638.889C399.802 638.537 400.183 638.262 400.628 638.062C401.086 637.863 401.613 637.763 402.212 637.763C403.021 637.763 403.718 637.992 404.305 638.449C404.891 638.906 405.249 639.563 405.378 640.419H404.217C404.135 639.997 403.906 639.639 403.531 639.346C403.155 639.065 402.722 638.924 402.229 638.924C401.842 638.924 401.496 639 401.191 639.153C400.886 639.293 400.628 639.487 400.417 639.733C399.984 640.261 399.767 640.917 399.767 641.703C399.767 642.454 399.995 643.104 400.453 643.656C400.664 643.925 400.922 644.142 401.227 644.306C401.543 644.459 401.889 644.535 402.264 644.535C402.768 644.535 403.196 644.383 403.548 644.078C403.912 643.773 404.135 643.398 404.217 642.952H405.378ZM407.136 641.738C407.136 641.023 407.002 640.349 406.732 639.716C406.462 639.082 406.099 638.531 405.641 638.062C405.184 637.593 404.645 637.224 404.023 636.954C403.402 636.673 402.739 636.532 402.036 636.532C401.332 636.532 400.67 636.673 400.048 636.954C399.427 637.224 398.887 637.593 398.43 638.062C397.973 638.531 397.609 639.082 397.339 639.716C397.07 640.349 396.935 641.023 396.935 641.738C396.935 642.454 397.07 643.128 397.339 643.761C397.609 644.394 397.973 644.945 398.43 645.414C398.887 645.883 399.427 646.259 400.048 646.54C400.67 646.81 401.332 646.945 402.036 646.945C402.739 646.945 403.402 646.81 404.023 646.54C404.645 646.259 405.184 645.883 405.641 645.414C406.099 644.945 406.462 644.394 406.732 643.761C407.002 643.128 407.136 642.454 407.136 641.738ZM395.668 641.738C395.668 640.859 395.833 640.032 396.161 639.258C396.501 638.484 396.958 637.81 397.533 637.236C398.107 636.661 398.782 636.209 399.556 635.881C400.329 635.541 401.156 635.371 402.036 635.371C402.915 635.371 403.742 635.541 404.516 635.881C405.29 636.209 405.964 636.661 406.538 637.236C407.113 637.81 407.564 638.484 407.893 639.258C408.233 640.032 408.403 640.859 408.403 641.738C408.403 642.618 408.233 643.444 407.893 644.218C407.564 644.992 407.113 645.667 406.538 646.241C405.964 646.816 405.29 647.273 404.516 647.613C403.742 647.941 402.915 648.106 402.036 648.106C401.156 648.106 400.329 647.941 399.556 647.613C398.782 647.273 398.107 646.816 397.533 646.241C396.958 645.667 396.501 644.992 396.161 644.218C395.833 643.444 395.668 642.618 395.668 641.738ZM414.239 648V646.311L417.475 640.208C417.64 639.903 417.733 639.639 417.757 639.417C417.78 639.182 417.792 638.895 417.792 638.555C417.792 638.402 417.786 638.244 417.774 638.08C417.774 637.904 417.745 637.751 417.686 637.622C417.628 637.493 417.54 637.388 417.423 637.306C417.305 637.212 417.135 637.165 416.913 637.165C416.643 637.165 416.426 637.241 416.262 637.394C416.109 637.546 416.033 637.769 416.033 638.062V639.082H414.239V638.097C414.239 637.722 414.309 637.37 414.45 637.042C414.591 636.714 414.784 636.426 415.03 636.18C415.265 635.934 415.546 635.74 415.875 635.6C416.203 635.447 416.555 635.371 416.93 635.371C417.399 635.371 417.798 635.459 418.126 635.635C418.466 635.799 418.748 636.028 418.97 636.321C419.181 636.614 419.334 636.948 419.428 637.323C419.533 637.699 419.586 638.097 419.586 638.52C419.586 638.824 419.58 639.082 419.568 639.293C419.557 639.493 419.533 639.686 419.498 639.874C419.463 640.061 419.404 640.249 419.322 640.437C419.24 640.624 419.129 640.853 418.988 641.123L416.35 646.206H419.586V648H414.239ZM425.356 638.062C425.356 637.64 425.427 637.265 425.568 636.936C425.72 636.608 425.919 636.327 426.166 636.092C426.412 635.858 426.693 635.682 427.01 635.565C427.338 635.436 427.678 635.371 428.03 635.371C428.382 635.371 428.716 635.436 429.033 635.565C429.361 635.682 429.648 635.858 429.894 636.092C430.141 636.327 430.334 636.608 430.475 636.936C430.627 637.265 430.704 637.64 430.704 638.062V645.414C430.704 645.837 430.627 646.212 430.475 646.54C430.334 646.868 430.141 647.15 429.894 647.384C429.648 647.619 429.361 647.801 429.033 647.93C428.716 648.047 428.382 648.106 428.03 648.106C427.678 648.106 427.338 648.047 427.01 647.93C426.693 647.801 426.412 647.619 426.166 647.384C425.919 647.15 425.72 646.868 425.568 646.54C425.427 646.212 425.356 645.837 425.356 645.414V638.062ZM427.151 645.414C427.151 645.672 427.233 645.889 427.397 646.065C427.561 646.229 427.772 646.311 428.03 646.311C428.288 646.311 428.499 646.229 428.663 646.065C428.827 645.889 428.909 645.672 428.909 645.414V638.062C428.909 637.804 428.827 637.593 428.663 637.429C428.499 637.253 428.288 637.165 428.03 637.165C427.772 637.165 427.561 637.253 427.397 637.429C427.233 637.593 427.151 637.804 427.151 638.062V645.414ZM436.474 648V646.311L439.71 640.208C439.875 639.903 439.968 639.639 439.992 639.417C440.015 639.182 440.027 638.895 440.027 638.555C440.027 638.402 440.021 638.244 440.009 638.08C440.009 637.904 439.98 637.751 439.921 637.622C439.863 637.493 439.775 637.388 439.658 637.306C439.54 637.212 439.37 637.165 439.148 637.165C438.878 637.165 438.661 637.241 438.497 637.394C438.344 637.546 438.268 637.769 438.268 638.062V639.082H436.474V638.097C436.474 637.722 436.544 637.37 436.685 637.042C436.826 636.714 437.019 636.426 437.266 636.18C437.5 635.934 437.781 635.74 438.11 635.6C438.438 635.447 438.79 635.371 439.165 635.371C439.634 635.371 440.033 635.459 440.361 635.635C440.701 635.799 440.983 636.028 441.205 636.321C441.417 636.614 441.569 636.948 441.663 637.323C441.768 637.699 441.821 638.097 441.821 638.52C441.821 638.824 441.815 639.082 441.803 639.293C441.792 639.493 441.768 639.686 441.733 639.874C441.698 640.061 441.639 640.249 441.557 640.437C441.475 640.624 441.364 640.853 441.223 641.123L438.585 646.206H441.821V648H436.474ZM452.288 635.477L450.247 640.736L450.283 640.771C450.341 640.724 450.429 640.689 450.546 640.665C450.675 640.63 450.84 640.613 451.039 640.613C451.356 640.613 451.649 640.689 451.918 640.841C452.188 640.994 452.399 641.187 452.552 641.422C452.634 641.551 452.698 641.68 452.745 641.809C452.792 641.938 452.833 642.108 452.868 642.319C452.892 642.53 452.909 642.8 452.921 643.128C452.933 643.444 452.939 643.849 452.939 644.341C452.939 644.752 452.933 645.092 452.921 645.362C452.909 645.62 452.892 645.837 452.868 646.012C452.833 646.2 452.786 646.358 452.728 646.487C452.681 646.616 452.616 646.751 452.534 646.892C452.3 647.279 451.983 647.578 451.584 647.789C451.197 648 450.758 648.106 450.265 648.106C449.773 648.106 449.333 648 448.946 647.789C448.559 647.566 448.248 647.267 448.014 646.892C447.92 646.751 447.844 646.616 447.785 646.487C447.738 646.358 447.703 646.2 447.679 646.012C447.644 645.837 447.621 645.62 447.609 645.362C447.597 645.092 447.592 644.752 447.592 644.341C447.592 643.955 447.597 643.638 447.609 643.392C447.621 643.134 447.638 642.911 447.662 642.723C447.685 642.547 447.72 642.389 447.767 642.248C447.814 642.096 447.867 641.938 447.926 641.773L450.283 635.477H452.288ZM451.144 643.093C451.144 642.823 451.057 642.606 450.881 642.442C450.705 642.278 450.5 642.196 450.265 642.196C450.031 642.196 449.825 642.278 449.649 642.442C449.474 642.606 449.386 642.823 449.386 643.093V645.414C449.386 645.684 449.474 645.901 449.649 646.065C449.825 646.229 450.031 646.311 450.265 646.311C450.5 646.311 450.705 646.229 450.881 646.065C451.057 645.901 451.144 645.684 451.144 645.414V643.093Z" fill="#FFFAEE"/>
</svg>
