<svg width="1080" height="1080" viewBox="0 0 1080 1080" fill="none" xmlns="http://www.w3.org/2000/svg">
<rect width="1080" height="1080" fill="#191919"/>
<path d="M454.979 428.667H441.076V390.979H454.979V381.65H430.393V438.069H454.979V428.667Z" fill="#FFFAEE"/>
<path d="M501.796 391.053L515.698 391.053L515.698 428.741L501.796 428.741L501.796 438.069L526.381 438.069L526.381 381.65L501.796 381.65L501.796 391.053Z" fill="#FFFAEE"/>
<path d="M464.447 369.402L478.349 369.402L478.349 407.091L464.447 407.091L464.447 416.419L489.032 416.419L489.032 360L464.447 360L464.447 369.402Z" fill="#FFFAEE"/>
<path d="M404.556 529.349H425.292V534.152H410.329V543.296H423.814V548.099H410.329V562H404.556V529.349ZM458.303 529.349V550.27C458.303 552.733 457.825 554.903 456.871 556.781C455.917 558.629 454.47 560.06 452.53 561.076C450.621 562.092 448.189 562.6 445.233 562.6C442.308 562.6 439.876 562.092 437.936 561.076C436.028 560.06 434.596 558.629 433.642 556.781C432.687 554.903 432.21 552.733 432.21 550.27V529.349H437.983V549.947C437.983 551.548 438.198 552.933 438.629 554.103C439.06 555.273 439.799 556.181 440.846 556.828C441.923 557.443 443.386 557.751 445.233 557.751C447.111 557.751 448.574 557.443 449.62 556.828C450.698 556.181 451.452 555.273 451.883 554.103C452.314 552.933 452.53 551.548 452.53 549.947V529.349H458.303ZM493.715 562H488.311L473.441 538.447H473.302V562H467.668V529.349H473.071L487.988 552.902H488.127V529.349H493.715V562ZM523.862 540.064C523.523 537.878 522.707 536.277 521.414 535.261C520.152 534.245 518.428 533.737 516.242 533.737C513.317 533.737 511.116 534.722 509.638 536.692C508.191 538.663 507.467 541.649 507.467 545.652C507.467 549.685 508.191 552.687 509.638 554.657C511.116 556.628 513.317 557.613 516.242 557.613C518.428 557.613 520.167 557.105 521.461 556.089C522.754 555.073 523.57 553.487 523.908 551.332H529.635C529.265 554.903 527.895 557.659 525.525 559.599C523.185 561.507 520.091 562.462 516.242 562.462C511.685 562.462 508.114 561.03 505.528 558.167C502.972 555.273 501.695 551.101 501.695 545.652C501.695 540.202 502.972 536.046 505.528 533.183C508.114 530.319 511.685 528.888 516.242 528.888C518.613 528.888 520.752 529.319 522.661 530.181C524.601 531.043 526.171 532.305 527.372 533.968C528.603 535.63 529.342 537.662 529.589 540.064H523.862ZM533.067 529.349H558.79V534.152H548.815V562H543.088V534.152H533.067V529.349ZM575.116 562H569.344V529.349H575.116V562ZM564.679 534.152V529.349H579.781V534.152H564.679ZM564.679 562V557.197H579.781V562H564.679ZM616.152 545.652C616.152 551.101 614.874 555.273 612.319 558.167C609.764 561.03 606.131 562.462 601.42 562.462C596.679 562.462 593.046 561.03 590.521 558.167C587.997 555.273 586.734 551.101 586.734 545.652C586.734 540.202 587.997 536.046 590.521 533.183C593.046 530.319 596.679 528.888 601.42 528.888C606.131 528.888 609.764 530.319 612.319 533.183C614.874 536.046 616.152 540.202 616.152 545.652ZM610.379 545.652C610.379 541.557 609.64 538.555 608.163 536.646C606.716 534.707 604.468 533.737 601.42 533.737C598.434 533.737 596.202 534.707 594.724 536.646C593.246 538.555 592.507 541.557 592.507 545.652C592.507 549.777 593.246 552.81 594.724 554.749C596.202 556.658 598.434 557.613 601.42 557.613C604.468 557.613 606.716 556.658 608.163 554.749C609.64 552.81 610.379 549.777 610.379 545.652ZM650.21 562H644.806L629.936 538.447H629.797V562H624.163V529.349H629.566L644.483 552.902H644.622V529.349H650.21V562Z" fill="#FFFAEE"/>
<path d="M404.214 512V472.653H439.128V480.855H415.298V489.389H437.909V497.259H415.298V512H404.214ZM463.236 512.665C458.249 512.665 454 511.797 450.49 510.06C447.017 508.287 444.357 505.867 442.51 502.801C440.663 499.734 439.739 496.261 439.739 492.382C439.739 488.466 440.644 484.974 442.455 481.908C444.302 478.841 446.98 476.422 450.49 474.648C454 472.875 458.249 471.988 463.236 471.988C468.261 471.988 472.51 472.875 475.983 474.648C479.492 476.385 482.152 478.786 483.963 481.853C485.81 484.919 486.734 488.429 486.734 492.382C486.734 496.261 485.81 499.734 483.963 502.801C482.152 505.867 479.492 508.287 475.983 510.06C472.51 511.797 468.261 512.665 463.236 512.665ZM463.236 504.241C467.005 504.241 469.997 503.262 472.214 501.304C474.431 499.309 475.539 496.557 475.539 493.047V491.606C475.539 488.096 474.431 485.362 472.214 483.404C469.997 481.409 467.005 480.412 463.236 480.412C459.468 480.412 456.475 481.409 454.259 483.404C452.042 485.362 450.934 488.096 450.934 491.606V493.047C450.934 496.557 452.042 499.309 454.259 501.304C456.475 503.262 459.468 504.241 463.236 504.241ZM489.511 512V472.653H513.784C519.03 472.653 522.965 473.78 525.588 476.034C528.248 478.25 529.578 481.483 529.578 485.732C529.578 488.798 528.839 491.347 527.361 493.379C525.92 495.411 523.814 496.926 521.044 497.924L529.966 512H517.331L509.683 499.365H500.594V512H489.511ZM512.786 480.855H500.594V491.44H512.786C516.592 491.44 518.494 489.759 518.494 486.397V485.843C518.494 482.518 516.592 480.855 512.786 480.855ZM532.375 512V472.653H549.112L562.301 499.974H562.357L575.546 472.653H592.393V512H581.31V482.85H581.254L567.067 512H556.926L542.738 482.85H542.683V512H532.375ZM623.145 512.665C619.635 512.665 616.494 512.24 613.724 511.39C610.99 510.504 608.847 509.211 607.295 507.511C605.743 505.812 604.967 503.724 604.967 501.249C604.967 498.958 605.78 496.945 607.406 495.208C609.031 493.472 611.599 492.049 615.109 490.941C613.816 489.648 612.745 488.318 611.895 486.951C611.082 485.584 610.676 484.088 610.676 482.462C610.676 480.393 611.322 478.583 612.615 477.031C613.908 475.442 615.719 474.205 618.046 473.318C620.411 472.431 623.163 471.988 626.303 471.988C629.296 471.988 631.956 472.376 634.284 473.152C636.648 473.928 638.495 475.091 639.826 476.643C641.156 478.158 641.821 480.061 641.821 482.351C641.821 484.716 640.989 486.84 639.327 488.724C637.664 490.572 634.801 492.105 630.737 493.324L637.221 498.977C638.773 497.388 639.881 495.966 640.546 494.71C641.211 493.453 641.802 492.068 642.319 490.553H652.405C651.962 492.548 651.371 494.34 650.632 495.929C649.93 497.48 649.025 498.958 647.917 500.362C646.808 501.766 645.441 503.207 643.816 504.685L652.239 512H637.664L635.614 510.06C633.877 510.873 631.975 511.52 629.906 512C627.874 512.443 625.62 512.665 623.145 512.665ZM621.704 483.238C621.704 484.199 621.944 485.03 622.424 485.732C622.905 486.397 623.662 487.173 624.696 488.059C627.283 487.283 629.074 486.563 630.072 485.898C631.069 485.233 631.568 484.346 631.568 483.238C631.568 482.314 631.143 481.557 630.294 480.966C629.444 480.338 628.095 480.024 626.248 480.024C624.659 480.024 623.496 480.356 622.757 481.021C622.055 481.686 621.704 482.425 621.704 483.238ZM616.716 500.362C616.716 501.581 617.289 502.579 618.434 503.355C619.579 504.094 621.445 504.463 624.031 504.463C625.066 504.463 625.989 504.426 626.802 504.352C627.615 504.241 628.335 504.094 628.964 503.909L620.706 496.261C618.046 497.222 616.716 498.589 616.716 500.362Z" fill="#FFFAEE"/>
<path d="M526.824 589.624H526.704L521.568 604H519.528L525.744 587.032H527.856L534.096 604H531.936L526.824 589.624ZM530.952 599.296H522.6V597.496H530.952V599.296ZM544.456 591.064C544.36 590.168 543.984 589.528 543.328 589.144C542.672 588.76 541.776 588.568 540.64 588.568C539.376 588.568 538.44 588.816 537.832 589.312C537.224 589.792 536.92 590.488 536.92 591.4C536.92 591.912 537.024 592.336 537.232 592.672C537.456 592.992 537.736 593.256 538.072 593.464C538.424 593.672 538.784 593.84 539.152 593.968C539.536 594.08 539.888 594.184 540.208 594.28L541.936 594.76C542.4 594.888 542.912 595.056 543.472 595.264C544.032 595.456 544.568 595.728 545.08 596.08C545.592 596.432 546.008 596.88 546.328 597.424C546.648 597.952 546.808 598.616 546.808 599.416C546.808 600.376 546.584 601.224 546.136 601.96C545.688 602.696 545 603.272 544.072 603.688C543.16 604.104 542 604.312 540.592 604.312C538.656 604.312 537.176 603.912 536.152 603.112C535.128 602.296 534.56 601.184 534.448 599.776H536.536C536.616 600.48 536.832 601.032 537.184 601.432C537.536 601.832 538 602.12 538.576 602.296C539.168 602.456 539.84 602.536 540.592 602.536C541.92 602.536 542.944 602.272 543.664 601.744C544.4 601.216 544.768 600.424 544.768 599.368C544.768 598.76 544.608 598.28 544.288 597.928C543.984 597.56 543.576 597.272 543.064 597.064C542.552 596.856 541.992 596.664 541.384 596.488L539.224 595.888C537.864 595.504 536.8 594.968 536.032 594.28C535.28 593.592 534.904 592.664 534.904 591.496C534.904 590.504 535.144 589.664 535.624 588.976C536.104 588.272 536.784 587.736 537.664 587.368C538.544 586.984 539.56 586.792 540.712 586.792C541.896 586.792 542.904 586.976 543.736 587.344C544.584 587.696 545.24 588.192 545.704 588.832C546.184 589.472 546.44 590.216 546.472 591.064H544.456ZM557.722 591.064C557.626 590.168 557.25 589.528 556.594 589.144C555.938 588.76 555.042 588.568 553.906 588.568C552.642 588.568 551.706 588.816 551.098 589.312C550.49 589.792 550.186 590.488 550.186 591.4C550.186 591.912 550.29 592.336 550.498 592.672C550.722 592.992 551.002 593.256 551.338 593.464C551.69 593.672 552.05 593.84 552.418 593.968C552.802 594.08 553.154 594.184 553.474 594.28L555.202 594.76C555.666 594.888 556.178 595.056 556.738 595.264C557.298 595.456 557.834 595.728 558.346 596.08C558.858 596.432 559.274 596.88 559.594 597.424C559.914 597.952 560.074 598.616 560.074 599.416C560.074 600.376 559.85 601.224 559.402 601.96C558.954 602.696 558.266 603.272 557.338 603.688C556.426 604.104 555.266 604.312 553.858 604.312C551.922 604.312 550.442 603.912 549.418 603.112C548.394 602.296 547.826 601.184 547.714 599.776H549.802C549.882 600.48 550.098 601.032 550.45 601.432C550.802 601.832 551.266 602.12 551.842 602.296C552.434 602.456 553.106 602.536 553.858 602.536C555.186 602.536 556.21 602.272 556.93 601.744C557.666 601.216 558.034 600.424 558.034 599.368C558.034 598.76 557.874 598.28 557.554 597.928C557.25 597.56 556.842 597.272 556.33 597.064C555.818 596.856 555.258 596.664 554.65 596.488L552.49 595.888C551.13 595.504 550.066 594.968 549.298 594.28C548.546 593.592 548.17 592.664 548.17 591.496C548.17 590.504 548.41 589.664 548.89 588.976C549.37 588.272 550.05 587.736 550.93 587.368C551.81 586.984 552.826 586.792 553.978 586.792C555.162 586.792 556.17 586.976 557.002 587.344C557.85 587.696 558.506 588.192 558.97 588.832C559.45 589.472 559.706 590.216 559.738 591.064H557.722ZM561.917 587.032H571.997V588.784H563.981V594.616H571.445V596.344H563.981V602.248H572.117V604H561.917V587.032ZM572.902 587.032H585.766V588.784H580.366V604H578.326V588.784H572.902V587.032ZM596.153 605.704H585.449V604H596.153V605.704ZM601.273 604H599.209V587.032H601.273V604ZM596.617 588.784V587.032H603.841V588.784H596.617ZM596.617 604V602.248H603.841V604H596.617ZM606.663 604V587.032H612.207C614.783 587.032 616.711 587.76 617.991 589.216C619.287 590.656 619.935 592.752 619.935 595.504C619.935 598.24 619.279 600.344 617.967 601.816C616.655 603.272 614.655 604 611.967 604H606.663ZM611.847 602.248C613.351 602.248 614.543 601.992 615.423 601.48C616.303 600.952 616.927 600.184 617.295 599.176C617.679 598.168 617.871 596.944 617.871 595.504C617.871 594.048 617.679 592.824 617.295 591.832C616.927 590.824 616.319 590.064 615.471 589.552C614.623 589.04 613.479 588.784 612.039 588.784H608.727V602.248H611.847ZM626.452 602.512L632.212 596.416C632.9 595.696 633.46 595.064 633.892 594.52C634.324 593.976 634.652 593.472 634.876 593.008C635.1 592.528 635.212 592.024 635.212 591.496C635.212 590.504 634.916 589.768 634.324 589.288C633.732 588.792 632.932 588.544 631.924 588.544C630.9 588.544 630.084 588.832 629.476 589.408C628.868 589.968 628.564 590.792 628.564 591.88H626.548C626.532 590.84 626.756 589.944 627.22 589.192C627.684 588.424 628.324 587.832 629.14 587.416C629.972 587 630.924 586.792 631.996 586.792C633.084 586.792 634.02 586.984 634.804 587.368C635.588 587.752 636.188 588.296 636.604 589C637.036 589.688 637.252 590.52 637.252 591.496C637.252 592.12 637.124 592.72 636.868 593.296C636.628 593.872 636.22 594.512 635.644 595.216C635.084 595.92 634.308 596.792 633.316 597.832L628.348 603.112L628.132 602.248H637.444V604H626.452V602.512ZM644.991 604.24C643.567 604.24 642.399 603.912 641.487 603.256C640.591 602.6 639.935 601.624 639.519 600.328C639.119 599.032 638.919 597.424 638.919 595.504C638.919 593.568 639.127 591.96 639.543 590.68C639.975 589.4 640.639 588.432 641.535 587.776C642.431 587.12 643.583 586.792 644.991 586.792C646.431 586.792 647.599 587.12 648.495 587.776C649.391 588.432 650.047 589.4 650.463 590.68C650.895 591.96 651.111 593.568 651.111 595.504C651.111 597.424 650.895 599.032 650.463 600.328C650.047 601.624 649.391 602.6 648.495 603.256C647.599 603.912 646.431 604.24 644.991 604.24ZM644.991 602.464C646.463 602.464 647.511 601.912 648.135 600.808C648.759 599.688 649.071 597.92 649.071 595.504C649.071 593.088 648.759 591.328 648.135 590.224C647.511 589.104 646.463 588.544 644.991 588.544C643.567 588.544 642.543 589.104 641.919 590.224C641.295 591.328 640.983 593.088 640.983 595.504C640.983 597.92 641.287 599.688 641.895 600.808C642.519 601.912 643.551 602.464 644.991 602.464ZM652.564 602.512L658.324 596.416C659.012 595.696 659.572 595.064 660.004 594.52C660.436 593.976 660.764 593.472 660.988 593.008C661.212 592.528 661.324 592.024 661.324 591.496C661.324 590.504 661.028 589.768 660.436 589.288C659.844 588.792 659.044 588.544 658.036 588.544C657.012 588.544 656.196 588.832 655.588 589.408C654.98 589.968 654.676 590.792 654.676 591.88H652.66C652.644 590.84 652.868 589.944 653.332 589.192C653.796 588.424 654.436 587.832 655.252 587.416C656.084 587 657.036 586.792 658.108 586.792C659.196 586.792 660.132 586.984 660.916 587.368C661.7 587.752 662.3 588.296 662.716 589C663.148 589.688 663.364 590.52 663.364 591.496C663.364 592.12 663.236 592.72 662.98 593.296C662.74 593.872 662.332 594.512 661.756 595.216C661.196 595.92 660.42 596.792 659.428 597.832L654.46 603.112L654.244 602.248H663.556V604H652.564V602.512ZM665.438 598.624C665.454 598.048 665.534 597.472 665.678 596.896C665.838 596.304 666.102 595.664 666.47 594.976C666.838 594.288 667.342 593.504 667.982 592.624L672.11 587.032H674.462L668.582 594.952L668.438 594.16C668.678 594.016 668.934 593.88 669.206 593.752C669.478 593.624 669.79 593.52 670.142 593.44C670.494 593.36 670.886 593.32 671.318 593.32C672.438 593.32 673.406 593.544 674.222 593.992C675.054 594.44 675.686 595.072 676.118 595.888C676.566 596.688 676.79 597.64 676.79 598.744C676.79 599.848 676.566 600.816 676.118 601.648C675.686 602.464 675.046 603.104 674.198 603.568C673.35 604.016 672.326 604.24 671.126 604.24C669.302 604.24 667.894 603.728 666.902 602.704C665.91 601.68 665.422 600.32 665.438 598.624ZM667.454 598.744C667.454 599.88 667.742 600.792 668.318 601.48C668.894 602.152 669.83 602.488 671.126 602.488C672.39 602.488 673.31 602.152 673.886 601.48C674.462 600.792 674.75 599.88 674.75 598.744C674.75 597.592 674.462 596.696 673.886 596.056C673.31 595.4 672.39 595.072 671.126 595.072C669.974 595.072 669.07 595.4 668.414 596.056C667.774 596.696 667.454 597.592 667.454 598.744ZM688.036 605.704H677.332V604H688.036V605.704ZM691.644 587.032L697.236 601H697.38L702.996 587.032H705.54V604H703.572V590.968H703.428L698.148 604H696.42L691.164 590.968H691.02V604H689.052V587.032H691.644ZM720.145 597.16H715.609V595.384H722.185V597.352C722.185 598.584 721.945 599.728 721.465 600.784C720.985 601.824 720.241 602.664 719.233 603.304C718.225 603.928 716.913 604.24 715.297 604.24C712.913 604.24 711.073 603.488 709.777 601.984C708.481 600.48 707.833 598.32 707.833 595.504C707.833 592.688 708.481 590.536 709.777 589.048C711.073 587.544 712.913 586.792 715.297 586.792C716.481 586.792 717.545 587 718.489 587.416C719.433 587.832 720.217 588.44 720.841 589.24C721.465 590.024 721.865 591 722.041 592.168H719.929C719.721 590.92 719.217 590.008 718.417 589.432C717.633 588.856 716.593 588.568 715.297 588.568C713.537 588.568 712.193 589.136 711.265 590.272C710.353 591.392 709.897 593.136 709.897 595.504C709.897 597.872 710.353 599.624 711.265 600.76C712.193 601.88 713.537 602.44 715.297 602.44C716.161 602.44 716.881 602.328 717.457 602.104C718.033 601.88 718.497 601.576 718.849 601.192C719.201 600.808 719.465 600.384 719.641 599.92C719.833 599.456 719.961 598.984 720.025 598.504C720.105 598.008 720.145 597.56 720.145 597.16ZM733.109 605.704H722.405V604H733.109V605.704ZM744.997 592.408C744.997 592.968 744.909 593.536 744.733 594.112C744.557 594.688 744.285 595.312 743.917 595.984C743.565 596.656 743.093 597.456 742.501 598.384L738.853 604H736.549L741.973 595.912L742.117 596.776C741.861 596.936 741.581 597.088 741.277 597.232C740.989 597.376 740.669 597.496 740.317 597.592C739.981 597.672 739.597 597.712 739.165 597.712C738.045 597.712 737.069 597.488 736.237 597.04C735.421 596.592 734.789 595.968 734.341 595.168C733.893 594.352 733.669 593.392 733.669 592.288C733.669 591.168 733.893 590.2 734.341 589.384C734.789 588.568 735.437 587.936 736.285 587.488C737.133 587.024 738.157 586.792 739.357 586.792C741.197 586.792 742.597 587.304 743.557 588.328C744.533 589.352 745.013 590.712 744.997 592.408ZM743.005 592.264C743.005 591.112 742.717 590.208 742.141 589.552C741.565 588.896 740.637 588.568 739.357 588.568C738.093 588.568 737.173 588.896 736.597 589.552C736.021 590.208 735.733 591.112 735.733 592.264C735.733 593.416 736.021 594.32 736.597 594.976C737.173 595.616 738.093 595.936 739.357 595.936C740.509 595.936 741.405 595.616 742.045 594.976C742.685 594.32 743.005 593.416 743.005 592.264ZM758.451 592.408C758.451 592.968 758.363 593.536 758.187 594.112C758.011 594.688 757.739 595.312 757.371 595.984C757.019 596.656 756.547 597.456 755.955 598.384L752.307 604H750.003L755.427 595.912L755.571 596.776C755.315 596.936 755.035 597.088 754.731 597.232C754.443 597.376 754.123 597.496 753.771 597.592C753.435 597.672 753.051 597.712 752.619 597.712C751.499 597.712 750.523 597.488 749.691 597.04C748.875 596.592 748.243 595.968 747.795 595.168C747.347 594.352 747.123 593.392 747.123 592.288C747.123 591.168 747.347 590.2 747.795 589.384C748.243 588.568 748.891 587.936 749.739 587.488C750.587 587.024 751.611 586.792 752.811 586.792C754.651 586.792 756.051 587.304 757.011 588.328C757.987 589.352 758.467 590.712 758.451 592.408ZM756.459 592.264C756.459 591.112 756.171 590.208 755.595 589.552C755.019 588.896 754.091 588.568 752.811 588.568C751.547 588.568 750.627 588.896 750.051 589.552C749.475 590.208 749.187 591.112 749.187 592.264C749.187 593.416 749.475 594.32 750.051 594.976C750.627 595.616 751.547 595.936 752.811 595.936C753.963 595.936 754.859 595.616 755.499 594.976C756.139 594.32 756.459 593.416 756.459 592.264ZM766.265 604.24C764.841 604.24 763.673 603.912 762.761 603.256C761.865 602.6 761.209 601.624 760.793 600.328C760.393 599.032 760.193 597.424 760.193 595.504C760.193 593.568 760.401 591.96 760.817 590.68C761.249 589.4 761.913 588.432 762.809 587.776C763.705 587.12 764.857 586.792 766.265 586.792C767.705 586.792 768.873 587.12 769.769 587.776C770.665 588.432 771.321 589.4 771.737 590.68C772.169 591.96 772.385 593.568 772.385 595.504C772.385 597.424 772.169 599.032 771.737 600.328C771.321 601.624 770.665 602.6 769.769 603.256C768.873 603.912 767.705 604.24 766.265 604.24ZM766.265 602.464C767.737 602.464 768.785 601.912 769.409 600.808C770.033 599.688 770.345 597.92 770.345 595.504C770.345 593.088 770.033 591.328 769.409 590.224C768.785 589.104 767.737 588.544 766.265 588.544C764.841 588.544 763.817 589.104 763.193 590.224C762.569 591.328 762.257 593.088 762.257 595.504C762.257 597.92 762.561 599.688 763.169 600.808C763.793 601.912 764.825 602.464 766.265 602.464ZM779.838 594.328L784.422 587.032H786.774L781.182 595.744L779.838 594.328ZM780.15 596.632L775.494 604H773.142L778.806 595.192L780.15 596.632ZM778.662 595.576L773.118 587.032H775.566L780.006 594.064L781.278 595.432L786.846 604H784.398L779.766 596.656L778.662 595.576Z" fill="#FFFAEE"/>
<path d="M301.032 641.312C299.912 641.312 298.824 641.112 297.768 640.712C296.712 640.312 295.76 639.728 294.912 638.96C294.064 638.192 293.384 637.264 292.872 636.176C292.376 635.088 292.128 633.848 292.128 632.456C292.128 631.064 292.376 629.824 292.872 628.736C293.384 627.648 294.064 626.728 294.912 625.976C295.76 625.208 296.712 624.624 297.768 624.224C298.824 623.824 299.912 623.624 301.032 623.624C302.152 623.624 303.24 623.824 304.296 624.224C305.352 624.624 306.304 625.208 307.152 625.976C308 626.728 308.672 627.648 309.168 628.736C309.664 629.824 309.912 631.064 309.912 632.456C309.912 633.848 309.664 635.088 309.168 636.176C308.672 637.264 308 638.192 307.152 638.96C306.304 639.728 305.352 640.312 304.296 640.712C303.24 641.112 302.152 641.312 301.032 641.312ZM301.032 640.208C301.976 640.208 302.904 640.04 303.816 639.704C304.728 639.352 305.552 638.848 306.288 638.192C307.024 637.52 307.608 636.704 308.04 635.744C308.488 634.784 308.712 633.688 308.712 632.456C308.712 631.224 308.488 630.128 308.04 629.168C307.608 628.208 307.024 627.4 306.288 626.744C305.552 626.072 304.728 625.568 303.816 625.232C302.904 624.88 301.976 624.704 301.032 624.704C300.072 624.704 299.136 624.88 298.224 625.232C297.312 625.568 296.488 626.072 295.752 626.744C295.016 627.4 294.424 628.208 293.976 629.168C293.544 630.128 293.328 631.224 293.328 632.456C293.328 633.688 293.544 634.784 293.976 635.744C294.424 636.704 295.016 637.52 295.752 638.192C296.488 638.848 297.312 639.352 298.224 639.704C299.136 640.04 300.072 640.208 301.032 640.208ZM301.128 637.16C299.656 637.16 298.544 636.736 297.792 635.888C297.04 635.04 296.664 633.888 296.664 632.432C296.664 630.976 297.048 629.832 297.816 629C298.6 628.168 299.688 627.752 301.08 627.752C301.816 627.752 302.448 627.872 302.976 628.112C303.52 628.352 303.952 628.696 304.272 629.144C304.608 629.576 304.824 630.096 304.92 630.704H303.576C303.464 630.144 303.232 629.704 302.88 629.384C302.544 629.064 301.952 628.904 301.104 628.904C300.08 628.904 299.296 629.208 298.752 629.816C298.208 630.424 297.936 631.296 297.936 632.432C297.936 633.584 298.208 634.472 298.752 635.096C299.296 635.704 300.08 636.008 301.104 636.008C301.904 636.008 302.488 635.88 302.856 635.624C303.224 635.352 303.464 634.92 303.576 634.328H304.92C304.856 634.888 304.664 635.384 304.344 635.816C304.04 636.232 303.616 636.56 303.072 636.8C302.544 637.04 301.896 637.16 301.128 637.16ZM318.647 639.824L324.455 633.608C325.191 632.824 325.791 632.136 326.255 631.544C326.719 630.936 327.063 630.376 327.287 629.864C327.527 629.336 327.647 628.8 327.647 628.256C327.647 627.216 327.311 626.424 326.639 625.88C325.967 625.32 325.071 625.04 323.951 625.04C322.831 625.04 321.911 625.376 321.191 626.048C320.471 626.704 320.127 627.608 320.159 628.76H318.767C318.751 627.72 318.967 626.832 319.415 626.096C319.863 625.36 320.487 624.792 321.287 624.392C322.087 623.992 322.999 623.792 324.023 623.792C325.095 623.792 325.999 623.976 326.735 624.344C327.487 624.696 328.063 625.208 328.463 625.88C328.863 626.536 329.063 627.328 329.063 628.256C329.063 628.864 328.959 629.456 328.751 630.032C328.543 630.592 328.159 631.24 327.599 631.976C327.055 632.696 326.263 633.608 325.223 634.712L319.751 640.568L319.847 639.752H329.279V641H318.647V639.824ZM343.982 641.24C342.59 641.24 341.454 640.928 340.574 640.304C339.71 639.664 339.078 638.704 338.678 637.424C338.278 636.128 338.078 634.488 338.078 632.504C338.078 630.52 338.278 628.888 338.678 627.608C339.094 626.328 339.734 625.376 340.598 624.752C341.478 624.112 342.606 623.792 343.982 623.792C345.374 623.792 346.502 624.112 347.366 624.752C348.246 625.376 348.886 626.328 349.286 627.608C349.702 628.888 349.91 630.52 349.91 632.504C349.91 634.472 349.702 636.104 349.286 637.4C348.886 638.696 348.246 639.664 347.366 640.304C346.502 640.928 345.374 641.24 343.982 641.24ZM343.982 639.992C345.614 639.992 346.774 639.376 347.462 638.144C348.15 636.912 348.494 635.032 348.494 632.504C348.494 629.976 348.15 628.104 347.462 626.888C346.774 625.656 345.614 625.04 343.982 625.04C342.366 625.04 341.214 625.656 340.526 626.888C339.838 628.104 339.494 629.976 339.494 632.504C339.494 635.032 339.83 636.912 340.502 638.144C341.19 639.376 342.35 639.992 343.982 639.992ZM358.713 639.824L364.521 633.608C365.257 632.824 365.857 632.136 366.321 631.544C366.785 630.936 367.129 630.376 367.353 629.864C367.593 629.336 367.713 628.8 367.713 628.256C367.713 627.216 367.377 626.424 366.705 625.88C366.033 625.32 365.137 625.04 364.017 625.04C362.897 625.04 361.977 625.376 361.257 626.048C360.537 626.704 360.193 627.608 360.225 628.76H358.833C358.817 627.72 359.033 626.832 359.481 626.096C359.929 625.36 360.553 624.792 361.353 624.392C362.153 623.992 363.065 623.792 364.089 623.792C365.161 623.792 366.065 623.976 366.801 624.344C367.553 624.696 368.129 625.208 368.529 625.88C368.929 626.536 369.129 627.328 369.129 628.256C369.129 628.864 369.025 629.456 368.817 630.032C368.609 630.592 368.225 631.24 367.665 631.976C367.121 632.696 366.329 633.608 365.289 634.712L359.817 640.568L359.913 639.752H369.345V641H358.713V639.824ZM378.6 635.672C378.616 635.048 378.688 634.44 378.816 633.848C378.96 633.256 379.208 632.624 379.56 631.952C379.928 631.28 380.432 630.512 381.072 629.648L385.272 624.032H386.976L381.288 631.568L381.096 631.352C381.432 631.144 381.736 630.976 382.008 630.848C382.28 630.704 382.576 630.6 382.896 630.536C383.216 630.456 383.608 630.416 384.072 630.416C385.24 630.416 386.232 630.632 387.048 631.064C387.864 631.48 388.48 632.088 388.896 632.888C389.328 633.688 389.544 634.656 389.544 635.792C389.544 636.88 389.336 637.832 388.92 638.648C388.504 639.464 387.888 640.104 387.072 640.568C386.256 641.016 385.256 641.24 384.072 641.24C382.28 641.24 380.912 640.736 379.968 639.728C379.04 638.704 378.584 637.352 378.6 635.672ZM380.016 635.792C380.016 637.072 380.328 638.096 380.952 638.864C381.592 639.616 382.632 639.992 384.072 639.992C385.496 639.992 386.528 639.616 387.168 638.864C387.808 638.096 388.128 637.072 388.128 635.792C388.128 634.512 387.808 633.504 387.168 632.768C386.528 632.032 385.496 631.664 384.072 631.664C382.792 631.664 381.792 632.032 381.072 632.768C380.368 633.504 380.016 634.512 380.016 635.792Z" fill="#FFFAEE"/>
<path d="M528.344 624.968L520.184 636.656L519.872 635.96H531.632V637.208H519.032V636.008L527.432 624.032H529.256V641H527.84V624.8L528.344 624.968ZM538.864 641.24C537.76 641.24 536.792 641.072 535.96 640.736C535.144 640.4 534.504 639.888 534.04 639.2C533.576 638.512 533.312 637.648 533.248 636.608H534.808C534.84 637.36 535.024 637.992 535.36 638.504C535.712 639 536.184 639.376 536.776 639.632C537.368 639.872 538.072 639.992 538.888 639.992C540.136 639.992 541.144 639.656 541.912 638.984C542.68 638.296 543.064 637.312 543.064 636.032C543.064 634.8 542.688 633.84 541.936 633.152C541.2 632.464 540.168 632.12 538.84 632.12H536.968L536.944 631.088L542.728 624.728L542.848 625.28H533.944V624.032H544.096V625.184L538.552 631.256V630.896C539.736 630.88 540.712 631.032 541.48 631.352C542.248 631.656 542.848 632.072 543.28 632.6C543.728 633.112 544.04 633.672 544.216 634.28C544.408 634.872 544.504 635.456 544.504 636.032C544.504 637.152 544.272 638.104 543.808 638.888C543.344 639.656 542.688 640.24 541.84 640.64C541.008 641.04 540.016 641.24 538.864 641.24ZM554.554 633.224L558.97 641H557.362L553.114 633.488L554.554 633.224ZM552.682 632.768C553.818 632.768 554.698 632.624 555.322 632.336C555.946 632.048 556.386 631.624 556.642 631.064C556.898 630.504 557.026 629.816 557.026 629C557.026 628.168 556.898 627.48 556.642 626.936C556.386 626.392 555.946 625.984 555.322 625.712C554.698 625.424 553.818 625.28 552.682 625.28H548.554V632.768H552.682ZM552.802 634.016H548.554V641H547.114V624.032H552.778C554.154 624.032 555.258 624.232 556.09 624.632C556.922 625.016 557.522 625.576 557.89 626.312C558.274 627.048 558.466 627.944 558.466 629C558.466 629.832 558.378 630.56 558.202 631.184C558.026 631.808 557.722 632.336 557.29 632.768C556.858 633.184 556.274 633.496 555.538 633.704C554.818 633.912 553.906 634.016 552.802 634.016ZM566.845 634.04H560.365V632.792H566.845V634.04ZM574.42 641.24C573.028 641.24 571.892 640.928 571.012 640.304C570.148 639.664 569.516 638.704 569.116 637.424C568.716 636.128 568.516 634.488 568.516 632.504C568.516 630.52 568.716 628.888 569.116 627.608C569.532 626.328 570.172 625.376 571.036 624.752C571.916 624.112 573.044 623.792 574.42 623.792C575.812 623.792 576.94 624.112 577.804 624.752C578.684 625.376 579.324 626.328 579.724 627.608C580.14 628.888 580.348 630.52 580.348 632.504C580.348 634.472 580.14 636.104 579.724 637.4C579.324 638.696 578.684 639.664 577.804 640.304C576.94 640.928 575.812 641.24 574.42 641.24ZM574.42 639.992C576.052 639.992 577.212 639.376 577.9 638.144C578.588 636.912 578.932 635.032 578.932 632.504C578.932 629.976 578.588 628.104 577.9 626.888C577.212 625.656 576.052 625.04 574.42 625.04C572.804 625.04 571.652 625.656 570.964 626.888C570.276 628.104 569.932 629.976 569.932 632.504C569.932 635.032 570.268 636.912 570.94 638.144C571.628 639.376 572.788 639.992 574.42 639.992ZM587.687 641.24C586.295 641.24 585.159 640.928 584.279 640.304C583.415 639.664 582.783 638.704 582.383 637.424C581.983 636.128 581.783 634.488 581.783 632.504C581.783 630.52 581.983 628.888 582.383 627.608C582.799 626.328 583.439 625.376 584.303 624.752C585.183 624.112 586.311 623.792 587.687 623.792C589.079 623.792 590.207 624.112 591.071 624.752C591.951 625.376 592.591 626.328 592.991 627.608C593.407 628.888 593.615 630.52 593.615 632.504C593.615 634.472 593.407 636.104 592.991 637.4C592.591 638.696 591.951 639.664 591.071 640.304C590.207 640.928 589.079 641.24 587.687 641.24ZM587.687 639.992C589.319 639.992 590.479 639.376 591.167 638.144C591.855 636.912 592.199 635.032 592.199 632.504C592.199 629.976 591.855 628.104 591.167 626.888C590.479 625.656 589.319 625.04 587.687 625.04C586.071 625.04 584.919 625.656 584.231 626.888C583.543 628.104 583.199 629.976 583.199 632.504C583.199 635.032 583.535 636.912 584.207 638.144C584.895 639.376 586.055 639.992 587.687 639.992ZM604.193 624.968L596.033 636.656L595.721 635.96H607.481V637.208H594.881V636.008L603.281 624.032H605.105V641H603.689V624.8L604.193 624.968ZM614.69 641.24C613.602 641.24 612.658 641.072 611.858 640.736C611.058 640.384 610.434 639.88 609.986 639.224C609.538 638.568 609.282 637.776 609.218 636.848H610.682C610.746 637.888 611.13 638.672 611.834 639.2C612.538 639.728 613.49 639.992 614.69 639.992C616.114 639.992 617.154 639.6 617.81 638.816C618.482 638.016 618.818 637.032 618.818 635.864C618.818 635.08 618.682 634.376 618.41 633.752C618.154 633.112 617.73 632.608 617.138 632.24C616.546 631.856 615.754 631.664 614.762 631.664C613.898 631.648 613.154 631.808 612.53 632.144C611.922 632.464 611.434 632.92 611.066 633.512H609.554L610.682 624.032H619.418V625.28H611.93L611.138 632.024H611.21C611.53 631.512 611.994 631.12 612.602 630.848C613.21 630.56 613.89 630.416 614.642 630.416C615.874 630.416 616.898 630.656 617.714 631.136C618.546 631.616 619.17 632.264 619.586 633.08C620.018 633.88 620.234 634.792 620.234 635.816C620.234 636.872 620.01 637.808 619.562 638.624C619.114 639.44 618.474 640.08 617.642 640.544C616.826 641.008 615.842 641.24 614.69 641.24ZM627.743 641.24C625.711 641.24 624.223 640.832 623.279 640.016C622.351 639.2 621.887 638.064 621.887 636.608C621.903 635.824 622.047 635.12 622.319 634.496C622.607 633.872 623.007 633.36 623.519 632.96C624.047 632.56 624.647 632.304 625.319 632.192V632.096C624.439 631.872 623.751 631.416 623.255 630.728C622.775 630.024 622.535 629.176 622.535 628.184C622.535 627.336 622.719 626.584 623.087 625.928C623.471 625.256 624.047 624.736 624.815 624.368C625.599 623.984 626.575 623.792 627.743 623.792C628.911 623.792 629.879 623.984 630.647 624.368C631.415 624.736 631.983 625.256 632.351 625.928C632.735 626.584 632.919 627.336 632.903 628.184C632.887 629.16 632.639 630 632.159 630.704C631.679 631.408 630.999 631.872 630.119 632.096V632.192C630.791 632.304 631.391 632.56 631.919 632.96C632.447 633.36 632.855 633.872 633.143 634.496C633.447 635.12 633.599 635.824 633.599 636.608C633.599 637.584 633.391 638.416 632.975 639.104C632.559 639.792 631.919 640.32 631.055 640.688C630.191 641.056 629.087 641.24 627.743 641.24ZM627.743 639.992C629.279 639.992 630.407 639.672 631.127 639.032C631.847 638.392 632.207 637.52 632.207 636.416C632.207 635.328 631.823 634.464 631.055 633.824C630.287 633.184 629.183 632.864 627.743 632.864C626.287 632.864 625.175 633.184 624.407 633.824C623.655 634.464 623.279 635.328 623.279 636.416C623.279 637.52 623.639 638.392 624.359 639.032C625.079 639.672 626.207 639.992 627.743 639.992ZM627.743 631.616C628.991 631.616 629.935 631.328 630.575 630.752C631.231 630.16 631.559 629.36 631.559 628.352C631.559 627.328 631.239 626.52 630.599 625.928C629.975 625.336 629.023 625.04 627.743 625.04C626.447 625.04 625.487 625.336 624.863 625.928C624.239 626.52 623.927 627.328 623.927 628.352C623.927 629.36 624.247 630.16 624.887 630.752C625.527 631.328 626.479 631.616 627.743 631.616ZM640.989 641.24C639.901 641.24 638.957 641.072 638.157 640.736C637.357 640.384 636.733 639.88 636.285 639.224C635.837 638.568 635.581 637.776 635.517 636.848H636.981C637.045 637.888 637.429 638.672 638.133 639.2C638.837 639.728 639.789 639.992 640.989 639.992C642.413 639.992 643.453 639.6 644.109 638.816C644.781 638.016 645.117 637.032 645.117 635.864C645.117 635.08 644.981 634.376 644.709 633.752C644.453 633.112 644.029 632.608 643.437 632.24C642.845 631.856 642.053 631.664 641.061 631.664C640.197 631.648 639.453 631.808 638.829 632.144C638.221 632.464 637.733 632.92 637.365 633.512H635.853L636.981 624.032H645.717V625.28H638.229L637.437 632.024H637.509C637.829 631.512 638.293 631.12 638.901 630.848C639.509 630.56 640.189 630.416 640.941 630.416C642.173 630.416 643.197 630.656 644.013 631.136C644.845 631.616 645.469 632.264 645.885 633.08C646.317 633.88 646.533 634.792 646.533 635.816C646.533 636.872 646.309 637.808 645.861 638.624C645.413 639.44 644.773 640.08 643.941 640.544C643.125 641.008 642.141 641.24 640.989 641.24Z" fill="#FFFAEE"/>
<path d="M755.995 550C739.461 550 726 536.539 726 519.995C726 503.451 739.461 490 755.995 490C772.53 490 785.991 503.461 785.991 519.995C785.991 536.53 772.53 549.991 755.995 549.991V550ZM755.995 495.208C742.328 495.208 731.208 506.328 731.208 519.995C731.208 533.663 742.328 544.783 755.995 544.783C769.663 544.783 780.783 533.663 780.783 519.995C780.783 506.328 769.663 495.208 755.995 495.208Z" fill="#FFFAEE"/>
<path d="M760.658 499.325H751.511V530.1H760.658V499.325Z" fill="#FFFAEE"/>
<path d="M760.658 533.447H751.511V540.995H760.658V533.447Z" fill="#FFFAEE"/>
<path d="M298.252 490H343.748C347.746 490 351 493.254 351 497.252V542.748C351 546.747 347.746 550 343.748 550H298.252C294.253 550 291 546.746 291 542.748V497.252C291 493.253 294.254 490 298.252 490H298.252ZM343.748 494.109H298.252C296.519 494.109 295.109 495.519 295.109 497.252V511.17H325.248L312.615 499.43H318.654L333.487 513.22L320.359 525.429H346.891V497.252C346.891 495.519 345.481 494.109 343.748 494.109ZM298.252 545.892H343.748C345.481 545.892 346.891 544.482 346.891 542.748V529.537H320.137L332.77 541.277H326.73L311.897 527.487L325.025 515.279H295.108V542.748C295.108 544.481 296.518 545.891 298.251 545.891L298.252 545.892Z" fill="#FFFAEE"/>
</svg>
