<svg width="1080" height="1080" viewBox="0 0 1080 1080" fill="none" xmlns="http://www.w3.org/2000/svg">
<rect width="1080" height="1080" fill="#191919"/>
<path fill-rule="evenodd" clip-rule="evenodd" d="M478.528 435.469V442.879C477.715 442.956 476.892 443 476.046 443C462.255 443 451 431.763 451 417.995C451 404.226 462.255 393 476.046 393C476.881 393 477.715 393.044 478.528 393.121V400.531C477.715 400.411 476.892 400.356 476.046 400.356C466.307 400.356 458.368 408.293 458.368 417.995C458.368 427.696 466.318 435.633 476.046 435.633C476.881 435.633 477.715 435.567 478.528 435.458V435.469Z" fill="#FFFAEE"/>
<path fill-rule="evenodd" clip-rule="evenodd" d="M489.201 414.18H503.662V421.82H489.201C490.958 429.713 498.029 435.644 506.451 435.644C507.285 435.644 508.12 435.578 508.932 435.469V442.879C508.109 442.956 507.285 443 506.451 443C492.648 443 481.416 431.763 481.416 418.005C481.416 404.248 492.648 393 506.451 393C507.285 393 508.12 393.044 508.932 393.121V400.531C508.109 400.411 507.285 400.356 506.451 400.356C498.029 400.356 490.947 406.287 489.201 414.18Z" fill="#FFFAEE"/>
<path d="M355 393C341.215 393 330 404.215 330 418C330 431.785 341.215 443 355 443C368.785 443 380 431.785 380 418C380 404.215 368.785 393 355 393ZM377.72 418C377.72 430.53 367.53 440.72 355 440.72C342.47 440.72 332.28 430.53 332.28 418C332.28 405.47 342.47 395.28 355 395.28C367.53 395.28 377.72 405.47 377.72 418Z" fill="#FFFAEE"/>
<path d="M354.515 425.257V423.128L358.596 415.432C358.803 415.048 358.921 414.715 358.951 414.434C358.98 414.139 358.995 413.776 358.995 413.348C358.995 413.155 358.988 412.956 358.973 412.749C358.973 412.527 358.936 412.335 358.862 412.172C358.788 412.01 358.677 411.877 358.529 411.773C358.381 411.655 358.167 411.596 357.886 411.596C357.546 411.596 357.273 411.692 357.066 411.884C356.873 412.076 356.777 412.357 356.777 412.727V414.013H354.515V412.771C354.515 412.298 354.604 411.854 354.781 411.44C354.959 411.026 355.203 410.664 355.513 410.354C355.809 410.043 356.164 409.799 356.578 409.622C356.992 409.43 357.435 409.334 357.908 409.334C358.5 409.334 359.002 409.445 359.416 409.666C359.845 409.873 360.2 410.162 360.481 410.531C360.747 410.901 360.939 411.322 361.057 411.795C361.191 412.268 361.257 412.771 361.257 413.303C361.257 413.688 361.25 414.013 361.235 414.279C361.22 414.53 361.191 414.774 361.146 415.011C361.102 415.247 361.028 415.484 360.924 415.721C360.821 415.957 360.68 416.245 360.503 416.586L357.176 422.995H361.257V425.257H354.515ZM367.801 409.467L365.228 416.098L365.273 416.142C365.347 416.083 365.457 416.038 365.605 416.009C365.768 415.965 365.975 415.942 366.226 415.942C366.625 415.942 366.995 416.038 367.335 416.231C367.675 416.423 367.941 416.667 368.133 416.963C368.237 417.125 368.318 417.288 368.377 417.45C368.437 417.613 368.488 417.827 368.533 418.094C368.562 418.36 368.584 418.7 368.599 419.114C368.614 419.513 368.621 420.023 368.621 420.644C368.621 421.161 368.614 421.59 368.599 421.93C368.584 422.255 368.562 422.529 368.533 422.751C368.488 422.987 368.429 423.187 368.355 423.349C368.296 423.512 368.215 423.682 368.111 423.86C367.816 424.347 367.416 424.724 366.914 424.991C366.426 425.257 365.871 425.39 365.25 425.39C364.63 425.39 364.075 425.257 363.587 424.991C363.099 424.71 362.708 424.333 362.412 423.86C362.294 423.682 362.197 423.512 362.124 423.349C362.064 423.187 362.02 422.987 361.99 422.751C361.946 422.529 361.917 422.255 361.902 421.93C361.887 421.59 361.88 421.161 361.88 420.644C361.88 420.156 361.887 419.757 361.902 419.446C361.917 419.121 361.939 418.84 361.968 418.604C361.998 418.382 362.042 418.182 362.101 418.005C362.16 417.813 362.227 417.613 362.301 417.406L365.273 409.467H367.801ZM366.359 419.069C366.359 418.729 366.248 418.456 366.027 418.249C365.805 418.042 365.546 417.938 365.25 417.938C364.955 417.938 364.696 418.042 364.474 418.249C364.253 418.456 364.142 418.729 364.142 419.069V421.997C364.142 422.337 364.253 422.61 364.474 422.817C364.696 423.024 364.955 423.128 365.25 423.128C365.546 423.128 365.805 423.024 366.027 422.817C366.248 422.61 366.359 422.337 366.359 421.997V419.069Z" fill="#FFFAEE"/>
<path d="M586.043 393H623.957C627.289 393 630 395.711 630 399.043V436.957C630 440.289 627.289 443 623.957 443H586.043C582.711 443 580 440.289 580 436.957V399.043C580 395.711 582.711 393 586.043 393H586.043ZM623.957 396.424H586.043C584.599 396.424 583.424 397.599 583.424 399.043V410.642H608.54L598.012 400.858H603.045L615.406 412.35L604.466 422.524H626.576V399.043C626.576 397.599 625.401 396.424 623.957 396.424ZM586.043 439.577H623.957C625.401 439.577 626.576 438.401 626.576 436.957V425.948H604.28L614.808 435.731H609.775L597.414 424.239L608.354 414.065H583.423V436.957C583.423 438.401 584.598 439.576 586.043 439.576L586.043 439.577Z" fill="#FFFAEE"/>
<path d="M741.081 431.54C741.081 431.291 741.184 431.038 741.388 430.847C741.797 430.464 742.459 430.464 742.868 430.847L746.547 434.29C746.951 434.673 746.96 435.294 746.547 435.677C746.138 436.06 745.476 436.06 745.067 435.677L741.388 432.234C741.183 432.042 741.081 431.793 741.081 431.54L741.081 431.54Z" fill="#FFFAEE"/>
<path d="M743.036 424.485C743.036 424.358 743.061 424.232 743.114 424.113C743.335 423.611 743.948 423.37 744.479 423.577L751.388 426.243C751.928 426.449 752.177 427.032 751.96 427.522C751.74 428.024 751.126 428.265 750.595 428.058L743.686 425.392C743.282 425.235 743.036 424.872 743.036 424.485Z" fill="#FFFAEE"/>
<path d="M733.783 423.719C734.191 423.337 734.856 423.336 735.263 423.719L737.79 426.086C738.197 426.467 738.197 427.091 737.79 427.472C737.382 427.854 736.717 427.854 736.31 427.472L733.783 425.105C733.376 424.723 733.376 424.1 733.783 423.719Z" fill="#FFFAEE"/>
<path d="M747.066 418C747.066 417.46 747.536 417.019 748.113 417.019L753.313 417.019C753.889 417.019 754.359 417.46 754.359 418C754.359 418.54 753.889 418.98 753.313 418.98L748.113 418.98C747.536 418.98 747.066 418.54 747.066 418Z" fill="#FFFAEE"/>
<path d="M743.126 411.718C743.126 411.335 743.367 410.971 743.772 410.814L750.643 408.133C751.175 407.922 751.788 408.16 752.009 408.662C752.234 409.164 751.98 409.73 751.444 409.941L744.573 412.622C744.041 412.833 743.428 412.595 743.207 412.094C743.15 411.971 743.126 411.844 743.126 411.718Z" fill="#FFFAEE"/>
<path d="M741.081 404.46C741.081 404.207 741.184 403.958 741.388 403.767L745.067 400.324C745.476 399.941 746.138 399.941 746.547 400.324C746.956 400.707 746.952 401.331 746.547 401.71L742.868 405.154C742.459 405.537 741.797 405.537 741.388 405.154C741.183 404.962 741.081 404.709 741.081 404.461L741.081 404.46Z" fill="#FFFAEE"/>
<path d="M733.556 402.633C733.556 402.507 733.58 402.38 733.634 402.261L736.479 395.785C736.7 395.283 737.313 395.042 737.844 395.248C738.384 395.455 738.642 396.037 738.417 396.528L735.571 403.004C735.351 403.506 734.737 403.747 734.206 403.541C733.802 403.383 733.556 403.02 733.556 402.633Z" fill="#FFFAEE"/>
<path d="M733.783 410.897L736.31 408.53C736.718 408.148 737.382 408.148 737.79 408.53C738.197 408.912 738.197 409.535 737.79 409.916L735.263 412.284C734.855 412.666 734.191 412.666 733.783 412.284C733.376 411.902 733.375 411.279 733.783 410.897Z" fill="#FFFAEE"/>
<path d="M726.635 398.853L726.635 393.981C726.635 393.44 727.105 393 727.682 393C728.258 393 728.729 393.44 728.729 393.981L728.729 398.853C728.729 399.393 728.258 399.833 727.682 399.833C727.105 399.833 726.635 399.393 726.635 398.853Z" fill="#FFFAEE"/>
<path d="M717.065 396.11C717.065 395.727 717.307 395.363 717.711 395.207C718.242 394.996 718.856 395.233 719.076 395.735L721.938 402.174C722.167 402.664 721.909 403.247 721.374 403.453C720.843 403.664 720.229 403.426 720.009 402.925L717.147 396.486C717.09 396.363 717.065 396.237 717.065 396.11Z" fill="#FFFAEE"/>
<path d="M708.509 401.017C708.509 400.764 708.612 400.515 708.816 400.324C709.225 399.941 709.887 399.941 710.296 400.324L713.971 403.767C714.38 404.15 714.38 404.771 713.971 405.154C713.562 405.537 712.9 405.537 712.491 405.154L708.816 401.71C708.611 401.519 708.509 401.27 708.509 401.017L708.509 401.017Z" fill="#FFFAEE"/>
<path d="M703.322 408.85C703.322 408.723 703.346 408.597 703.4 408.478C703.62 407.976 704.234 407.735 704.765 407.942L711.674 410.608C712.213 410.814 712.462 411.405 712.246 411.887C712.025 412.389 711.412 412.63 710.881 412.423L703.972 409.757C703.567 409.6 703.322 409.237 703.322 408.85Z" fill="#FFFAEE"/>
<path d="M717.57 408.528C717.977 408.146 718.643 408.146 719.05 408.528L721.579 410.898C721.987 411.279 721.987 411.903 721.579 412.284C721.172 412.666 720.507 412.666 720.099 412.284L717.57 409.914C717.163 409.533 717.163 408.909 717.57 408.528Z" fill="#FFFAEE"/>
<path d="M701 418C701 417.46 701.47 417.019 702.047 417.019L707.246 417.019C707.823 417.019 708.293 417.46 708.293 418C708.293 418.54 707.823 418.98 707.246 418.98L702.047 418.98C701.47 418.98 701 418.54 701 418Z" fill="#FFFAEE"/>
<path d="M703.269 426.967C703.269 426.584 703.51 426.22 703.91 426.063L710.782 423.378C711.318 423.167 711.931 423.405 712.152 423.903C712.381 424.416 712.123 424.979 711.592 425.186L704.72 427.871C704.184 428.082 703.571 427.844 703.35 427.346C703.293 427.22 703.269 427.093 703.269 426.967L703.269 426.967Z" fill="#FFFAEE"/>
<path d="M713.257 417.308C713.448 417.129 713.708 417.021 713.997 417.021L720.403 417.021C720.981 417.021 721.449 417.46 721.449 418.001C721.449 418.543 720.981 418.981 720.403 418.981L713.997 418.981C713.419 418.981 712.951 418.543 712.951 418.001C712.951 417.73 713.067 417.487 713.258 417.308L713.257 417.308Z" fill="#FFFAEE"/>
<path d="M726.941 424.128C727.132 423.949 727.391 423.84 727.681 423.84C728.259 423.84 728.727 424.279 728.727 424.821L728.727 430.823C728.727 431.364 728.259 431.803 727.681 431.803C727.103 431.803 726.635 431.364 726.635 430.823L726.635 424.821C726.635 424.55 726.75 424.306 726.941 424.127L726.941 424.128Z" fill="#FFFAEE"/>
<path d="M734.22 417.308C734.411 417.129 734.67 417.021 734.96 417.021L741.365 417.021C741.943 417.021 742.412 417.46 742.412 418.001C742.412 418.543 741.943 418.981 741.365 418.981L734.96 418.981C734.382 418.981 733.914 418.543 733.914 418.001C733.914 417.73 734.029 417.487 734.22 417.308L734.22 417.308Z" fill="#FFFAEE"/>
<path d="M726.941 404.487C727.132 404.308 727.391 404.199 727.681 404.199C728.259 404.199 728.727 404.638 728.727 405.18L728.727 411.182C728.727 411.723 728.259 412.162 727.681 412.162C727.103 412.162 726.635 411.723 726.635 411.182L726.635 405.18C726.635 404.909 726.75 404.665 726.941 404.486L726.941 404.487Z" fill="#FFFAEE"/>
<path d="M708.509 434.983C708.509 434.731 708.612 434.482 708.816 434.29L712.491 430.847C712.9 430.464 713.562 430.464 713.971 430.847C714.38 431.23 714.38 431.851 713.971 432.234L710.296 435.677C709.887 436.06 709.225 436.06 708.816 435.677C708.611 435.485 708.509 435.236 708.509 434.984L708.509 434.983Z" fill="#FFFAEE"/>
<path d="M716.869 439.844C716.869 439.717 716.894 439.591 716.947 439.472L719.792 432.999C720.013 432.497 720.626 432.256 721.158 432.463C721.693 432.67 721.951 433.256 721.73 433.742L718.885 440.215C718.664 440.717 718.051 440.958 717.519 440.752C717.115 440.595 716.869 440.231 716.869 439.844Z" fill="#FFFAEE"/>
<path d="M717.573 426.086L720.099 423.719C720.507 423.337 721.172 423.336 721.579 423.719C721.987 424.101 721.987 424.723 721.579 425.105L719.053 427.472C718.645 427.855 717.98 427.855 717.573 427.472C717.165 427.09 717.165 426.467 717.573 426.086Z" fill="#FFFAEE"/>
<path d="M726.635 442.019L726.635 437.147C726.635 436.607 727.105 436.167 727.682 436.167C728.258 436.167 728.729 436.607 728.729 437.147L728.729 442.019C728.729 442.56 728.258 443 727.682 443C727.105 443 726.635 442.56 726.635 442.019Z" fill="#FFFAEE"/>
<path d="M733.34 433.455C733.34 433.072 733.581 432.708 733.986 432.551C734.517 432.34 735.13 432.578 735.351 433.08L738.213 439.519C738.438 440.021 738.188 440.591 737.648 440.798C737.117 441.009 736.504 440.771 736.283 440.269L733.421 433.83C733.364 433.708 733.34 433.581 733.34 433.455Z" fill="#FFFAEE"/>
<path d="M332.091 542.104H333.517V549.874H342.902V542.104H344.328V558.904H342.902V551.11H333.517V558.904H332.091V542.104ZM359.711 542.104V553.534C359.711 554.642 359.497 555.625 359.069 556.48C358.658 557.335 358.008 558.009 357.121 558.5C356.234 558.975 355.07 559.212 353.628 559.212C352.202 559.212 351.038 558.975 350.135 558.5C349.248 558.009 348.591 557.335 348.163 556.48C347.751 555.625 347.545 554.642 347.545 553.534V542.104H348.971V553.32C348.971 554.254 349.114 555.07 349.399 555.767C349.684 556.464 350.167 557.003 350.848 557.383C351.529 557.747 352.456 557.929 353.628 557.929C354.816 557.929 355.743 557.747 356.408 557.383C357.089 557.003 357.572 556.464 357.858 555.767C358.143 555.07 358.285 554.254 358.285 553.32V542.104H359.711ZM364.381 542.104L370.559 556.504H370.725L376.903 542.104H378.329V558.904H376.951V545.502H376.832L371.01 558.904H370.203L364.381 545.502H364.286V558.904H362.908V542.104H364.381ZM386.888 543.934H386.792L381.518 558.904H380.068L386.08 542.104H387.695L393.683 558.904H392.162L386.888 543.934ZM390.713 553.866H383.038V552.631H390.713V553.866ZM407.988 558.904H406.396L397.011 544.481H396.821V558.904H395.419V542.104H397.035L406.396 556.504H406.587V542.104H407.988V558.904ZM412.695 542.104L418.873 556.504H419.039L425.217 542.104H426.643V558.904H425.265V545.502H425.146L419.324 558.904H418.516L412.695 545.502H412.6V558.904H411.222V542.104H412.695ZM435.201 543.934H435.106L429.831 558.904H428.382L434.393 542.104H436.009L441.997 558.904H440.476L435.201 543.934ZM439.027 553.866H431.352V552.631H439.027V553.866ZM443.733 558.904V542.104H448.936C451.376 542.104 453.221 542.817 454.473 544.243C455.724 545.669 456.35 547.752 456.35 550.492C456.35 553.217 455.708 555.3 454.425 556.741C453.158 558.183 451.249 558.904 448.699 558.904H443.733ZM448.58 557.668C450.18 557.668 451.439 557.383 452.358 556.813C453.277 556.226 453.934 555.395 454.33 554.318C454.726 553.241 454.924 551.965 454.924 550.492C454.924 549.003 454.726 547.728 454.33 546.667C453.95 545.589 453.308 544.766 452.405 544.195C451.518 543.625 450.307 543.34 448.77 543.34H445.158V557.668H448.58ZM458.863 542.104H468.32V543.34H460.288V549.874H467.773V551.11H460.288V557.668H468.438V558.904H458.863V542.104Z" fill="#FFFAEE"/>
<path d="M333.569 519V475.308H345.877V494.446L365.815 475.308H380.831L362.062 493.277L381.015 519H366.246L353.2 500.785L345.877 507.738V519H333.569ZM381.348 519V475.308H393.656V519H381.348ZM398.358 519V475.308H410.973L431.896 499.8H431.958V475.308H443.404V519H433.988L409.865 490.815H409.804V519H398.358ZM448.06 519V475.308H488.675V484.415H460.367V492.538H485.906V501.277H460.367V509.892H489.106V519H448.06ZM506.942 519V484.415H489.588V475.308H536.603V484.415H519.25V519H506.942ZM538.689 519V475.308H550.997V519H538.689ZM581.114 519.8C575.863 519.8 571.186 518.877 567.084 517.031C563.022 515.144 559.822 512.518 557.484 509.154C555.186 505.749 554.038 501.749 554.038 497.154C554.038 492.559 555.186 488.579 557.484 485.215C559.822 481.851 563.022 479.246 567.084 477.4C571.186 475.554 575.863 474.631 581.114 474.631C585.709 474.631 589.75 475.287 593.238 476.6C596.725 477.913 599.596 479.718 601.853 482.015C604.109 484.272 605.627 486.815 606.407 489.646L595.391 492.292C594.53 490.159 593.381 488.497 591.945 487.308C590.509 486.077 588.868 485.215 587.022 484.723C585.217 484.231 583.309 483.985 581.299 483.985C578.591 483.985 576.109 484.456 573.853 485.4C571.596 486.303 569.791 487.677 568.438 489.523C567.125 491.369 566.468 493.708 566.468 496.538V497.769C566.468 500.559 567.125 502.897 568.438 504.785C569.791 506.631 571.596 508.026 573.853 508.969C576.109 509.872 578.591 510.323 581.299 510.323C583.309 510.323 585.217 510.077 587.022 509.585C588.868 509.092 590.509 508.251 591.945 507.062C593.381 505.831 594.53 504.149 595.391 502.015L606.407 504.662C605.627 507.492 604.109 510.056 601.853 512.354C599.596 514.61 596.725 516.415 593.238 517.769C589.75 519.123 585.709 519.8 581.114 519.8Z" fill="#FFFAEE"/>
<path d="M335.852 630.182C335.199 630.182 334.564 630.065 333.948 629.832C333.332 629.599 332.777 629.258 332.282 628.81C331.787 628.362 331.391 627.821 331.092 627.186C330.803 626.551 330.658 625.828 330.658 625.016C330.658 624.204 330.803 623.481 331.092 622.846C331.391 622.211 331.787 621.675 332.282 621.236C332.777 620.788 333.332 620.447 333.948 620.214C334.564 619.981 335.199 619.864 335.852 619.864C336.505 619.864 337.14 619.981 337.756 620.214C338.372 620.447 338.927 620.788 339.422 621.236C339.917 621.675 340.309 622.211 340.598 622.846C340.887 623.481 341.032 624.204 341.032 625.016C341.032 625.828 340.887 626.551 340.598 627.186C340.309 627.821 339.917 628.362 339.422 628.81C338.927 629.258 338.372 629.599 337.756 629.832C337.14 630.065 336.505 630.182 335.852 630.182ZM335.852 629.538C336.403 629.538 336.944 629.44 337.476 629.244C338.008 629.039 338.489 628.745 338.918 628.362C339.347 627.97 339.688 627.494 339.94 626.934C340.201 626.374 340.332 625.735 340.332 625.016C340.332 624.297 340.201 623.658 339.94 623.098C339.688 622.538 339.347 622.067 338.918 621.684C338.489 621.292 338.008 620.998 337.476 620.802C336.944 620.597 336.403 620.494 335.852 620.494C335.292 620.494 334.746 620.597 334.214 620.802C333.682 620.998 333.201 621.292 332.772 621.684C332.343 622.067 331.997 622.538 331.736 623.098C331.484 623.658 331.358 624.297 331.358 625.016C331.358 625.735 331.484 626.374 331.736 626.934C331.997 627.494 332.343 627.97 332.772 628.362C333.201 628.745 333.682 629.039 334.214 629.244C334.746 629.44 335.292 629.538 335.852 629.538ZM335.908 627.76C335.049 627.76 334.401 627.513 333.962 627.018C333.523 626.523 333.304 625.851 333.304 625.002C333.304 624.153 333.528 623.485 333.976 623C334.433 622.515 335.068 622.272 335.88 622.272C336.309 622.272 336.678 622.342 336.986 622.482C337.303 622.622 337.555 622.823 337.742 623.084C337.938 623.336 338.064 623.639 338.12 623.994H337.336C337.271 623.667 337.135 623.411 336.93 623.224C336.734 623.037 336.389 622.944 335.894 622.944C335.297 622.944 334.839 623.121 334.522 623.476C334.205 623.831 334.046 624.339 334.046 625.002C334.046 625.674 334.205 626.192 334.522 626.556C334.839 626.911 335.297 627.088 335.894 627.088C336.361 627.088 336.701 627.013 336.916 626.864C337.131 626.705 337.271 626.453 337.336 626.108H338.12C338.083 626.435 337.971 626.724 337.784 626.976C337.607 627.219 337.359 627.41 337.042 627.55C336.734 627.69 336.356 627.76 335.908 627.76ZM342.487 629.314L345.875 625.688C346.305 625.231 346.655 624.829 346.925 624.484C347.196 624.129 347.397 623.803 347.527 623.504C347.667 623.196 347.737 622.883 347.737 622.566C347.737 621.959 347.541 621.497 347.149 621.18C346.757 620.853 346.235 620.69 345.581 620.69C344.928 620.69 344.391 620.886 343.971 621.278C343.551 621.661 343.351 622.188 343.369 622.86H342.557C342.548 622.253 342.674 621.735 342.935 621.306C343.197 620.877 343.561 620.545 344.027 620.312C344.494 620.079 345.026 619.962 345.623 619.962C346.249 619.962 346.776 620.069 347.205 620.284C347.644 620.489 347.98 620.788 348.213 621.18C348.447 621.563 348.563 622.025 348.563 622.566C348.563 622.921 348.503 623.266 348.381 623.602C348.26 623.929 348.036 624.307 347.709 624.736C347.392 625.156 346.93 625.688 346.323 626.332L343.131 629.748L343.187 629.272H348.689V630H342.487V629.314ZM353.626 630.14C352.814 630.14 352.152 629.958 351.638 629.594C351.134 629.221 350.766 628.661 350.532 627.914C350.299 627.158 350.182 626.201 350.182 625.044C350.182 623.887 350.299 622.935 350.532 622.188C350.775 621.441 351.148 620.886 351.652 620.522C352.166 620.149 352.824 619.962 353.626 619.962C354.438 619.962 355.096 620.149 355.6 620.522C356.114 620.886 356.487 621.441 356.72 622.188C356.963 622.935 357.084 623.887 357.084 625.044C357.084 626.192 356.963 627.144 356.72 627.9C356.487 628.656 356.114 629.221 355.6 629.594C355.096 629.958 354.438 630.14 353.626 630.14ZM353.626 629.412C354.578 629.412 355.255 629.053 355.656 628.334C356.058 627.615 356.258 626.519 356.258 625.044C356.258 623.569 356.058 622.477 355.656 621.768C355.255 621.049 354.578 620.69 353.626 620.69C352.684 620.69 352.012 621.049 351.61 621.768C351.209 622.477 351.008 623.569 351.008 625.044C351.008 626.519 351.204 627.615 351.596 628.334C351.998 629.053 352.674 629.412 353.626 629.412ZM358.579 629.314L361.967 625.688C362.397 625.231 362.747 624.829 363.017 624.484C363.288 624.129 363.489 623.803 363.619 623.504C363.759 623.196 363.829 622.883 363.829 622.566C363.829 621.959 363.633 621.497 363.241 621.18C362.849 620.853 362.327 620.69 361.673 620.69C361.02 620.69 360.483 620.886 360.063 621.278C359.643 621.661 359.443 622.188 359.461 622.86H358.649C358.64 622.253 358.766 621.735 359.027 621.306C359.289 620.877 359.653 620.545 360.119 620.312C360.586 620.079 361.118 619.962 361.715 619.962C362.341 619.962 362.868 620.069 363.297 620.284C363.736 620.489 364.072 620.788 364.305 621.18C364.539 621.563 364.655 622.025 364.655 622.566C364.655 622.921 364.595 623.266 364.473 623.602C364.352 623.929 364.128 624.307 363.801 624.736C363.484 625.156 363.022 625.688 362.415 626.332L359.223 629.748L359.279 629.272H364.781V630H358.579V629.314ZM366.54 626.892C366.55 626.528 366.592 626.173 366.666 625.828C366.75 625.483 366.895 625.114 367.1 624.722C367.315 624.33 367.609 623.882 367.982 623.378L370.432 620.102H371.426L368.108 624.498L367.996 624.372C368.192 624.251 368.37 624.153 368.528 624.078C368.687 623.994 368.86 623.933 369.046 623.896C369.233 623.849 369.462 623.826 369.732 623.826C370.414 623.826 370.992 623.952 371.468 624.204C371.944 624.447 372.304 624.801 372.546 625.268C372.798 625.735 372.924 626.299 372.924 626.962C372.924 627.597 372.803 628.152 372.56 628.628C372.318 629.104 371.958 629.477 371.482 629.748C371.006 630.009 370.423 630.14 369.732 630.14C368.687 630.14 367.889 629.846 367.338 629.258C366.797 628.661 366.531 627.872 366.54 626.892ZM367.366 626.962C367.366 627.709 367.548 628.306 367.912 628.754C368.286 629.193 368.892 629.412 369.732 629.412C370.563 629.412 371.165 629.193 371.538 628.754C371.912 628.306 372.098 627.709 372.098 626.962C372.098 626.215 371.912 625.627 371.538 625.198C371.165 624.769 370.563 624.554 369.732 624.554C368.986 624.554 368.402 624.769 367.982 625.198C367.572 625.627 367.366 626.215 367.366 626.962Z" fill="#FFFAEE"/>
<path d="M339.034 588.648L334.274 595.466L334.092 595.06H340.952V595.788H333.602V595.088L338.502 588.102H339.566V598H338.74V588.55L339.034 588.648ZM345.731 598.14C345.087 598.14 344.522 598.042 344.037 597.846C343.561 597.65 343.188 597.351 342.917 596.95C342.646 596.549 342.492 596.045 342.455 595.438H343.365C343.384 595.877 343.491 596.245 343.687 596.544C343.892 596.833 344.168 597.053 344.513 597.202C344.858 597.342 345.269 597.412 345.745 597.412C346.473 597.412 347.061 597.216 347.509 596.824C347.957 596.423 348.181 595.849 348.181 595.102C348.181 594.383 347.962 593.823 347.523 593.422C347.094 593.021 346.492 592.82 345.717 592.82H344.625L344.611 592.218L347.985 588.508L348.055 588.83H342.861V588.102H348.783V588.774L345.549 592.316V592.106C346.24 592.097 346.809 592.185 347.257 592.372C347.705 592.549 348.055 592.792 348.307 593.1C348.568 593.399 348.75 593.725 348.853 594.08C348.965 594.425 349.021 594.766 349.021 595.102C349.021 595.755 348.886 596.311 348.615 596.768C348.344 597.216 347.962 597.557 347.467 597.79C346.982 598.023 346.403 598.14 345.731 598.14ZM355.443 593.464L358.019 598H357.081L354.603 593.618L355.443 593.464ZM354.351 593.198C355.014 593.198 355.527 593.114 355.891 592.946C356.255 592.778 356.512 592.531 356.661 592.204C356.81 591.877 356.885 591.476 356.885 591C356.885 590.515 356.81 590.113 356.661 589.796C356.512 589.479 356.255 589.241 355.891 589.082C355.527 588.914 355.014 588.83 354.351 588.83H351.943V593.198H354.351ZM354.421 593.926H351.943V598H351.103V588.102H354.407C355.21 588.102 355.854 588.219 356.339 588.452C356.824 588.676 357.174 589.003 357.389 589.432C357.613 589.861 357.725 590.384 357.725 591C357.725 591.485 357.674 591.91 357.571 592.274C357.468 592.638 357.291 592.946 357.039 593.198C356.787 593.441 356.446 593.623 356.017 593.744C355.597 593.865 355.065 593.926 354.421 593.926ZM363.173 593.94H359.393V593.212H363.173V593.94ZM368.152 598.14C367.34 598.14 366.677 597.958 366.164 597.594C365.66 597.221 365.291 596.661 365.058 595.914C364.824 595.158 364.708 594.201 364.708 593.044C364.708 591.887 364.824 590.935 365.058 590.188C365.3 589.441 365.674 588.886 366.178 588.522C366.691 588.149 367.349 587.962 368.152 587.962C368.964 587.962 369.622 588.149 370.126 588.522C370.639 588.886 371.012 589.441 371.246 590.188C371.488 590.935 371.61 591.887 371.61 593.044C371.61 594.192 371.488 595.144 371.246 595.9C371.012 596.656 370.639 597.221 370.126 597.594C369.622 597.958 368.964 598.14 368.152 598.14ZM368.152 597.412C369.104 597.412 369.78 597.053 370.182 596.334C370.583 595.615 370.784 594.519 370.784 593.044C370.784 591.569 370.583 590.477 370.182 589.768C369.78 589.049 369.104 588.69 368.152 588.69C367.209 588.69 366.537 589.049 366.136 589.768C365.734 590.477 365.534 591.569 365.534 593.044C365.534 594.519 365.73 595.615 366.122 596.334C366.523 597.053 367.2 597.412 368.152 597.412ZM376.451 598.14C375.639 598.14 374.976 597.958 374.463 597.594C373.959 597.221 373.59 596.661 373.357 595.914C373.123 595.158 373.007 594.201 373.007 593.044C373.007 591.887 373.123 590.935 373.357 590.188C373.599 589.441 373.973 588.886 374.477 588.522C374.99 588.149 375.648 587.962 376.451 587.962C377.263 587.962 377.921 588.149 378.425 588.522C378.938 588.886 379.311 589.441 379.545 590.188C379.787 590.935 379.909 591.887 379.909 593.044C379.909 594.192 379.787 595.144 379.545 595.9C379.311 596.656 378.938 597.221 378.425 597.594C377.921 597.958 377.263 598.14 376.451 598.14ZM376.451 597.412C377.403 597.412 378.079 597.053 378.481 596.334C378.882 595.615 379.083 594.519 379.083 593.044C379.083 591.569 378.882 590.477 378.481 589.768C378.079 589.049 377.403 588.69 376.451 588.69C375.508 588.69 374.836 589.049 374.435 589.768C374.033 590.477 373.833 591.569 373.833 593.044C373.833 594.519 374.029 595.615 374.421 596.334C374.822 597.053 375.499 597.412 376.451 597.412ZM386.639 588.648L381.879 595.466L381.697 595.06H388.557V595.788H381.207V595.088L386.107 588.102H387.171V598H386.345V588.55L386.639 588.648ZM393.322 598.14C392.688 598.14 392.137 598.042 391.67 597.846C391.204 597.641 390.84 597.347 390.578 596.964C390.317 596.581 390.168 596.119 390.13 595.578H390.984C391.022 596.185 391.246 596.642 391.656 596.95C392.067 597.258 392.622 597.412 393.322 597.412C394.153 597.412 394.76 597.183 395.142 596.726C395.534 596.259 395.73 595.685 395.73 595.004C395.73 594.547 395.651 594.136 395.492 593.772C395.343 593.399 395.096 593.105 394.75 592.89C394.405 592.666 393.943 592.554 393.364 592.554C392.86 592.545 392.426 592.638 392.062 592.834C391.708 593.021 391.423 593.287 391.208 593.632H390.326L390.984 588.102H396.08V588.83H391.712L391.25 592.764H391.292C391.479 592.465 391.75 592.237 392.104 592.078C392.459 591.91 392.856 591.826 393.294 591.826C394.013 591.826 394.61 591.966 395.086 592.246C395.572 592.526 395.936 592.904 396.178 593.38C396.43 593.847 396.556 594.379 396.556 594.976C396.556 595.592 396.426 596.138 396.164 596.614C395.903 597.09 395.53 597.463 395.044 597.734C394.568 598.005 393.994 598.14 393.322 598.14ZM401.497 598.14C400.312 598.14 399.444 597.902 398.893 597.426C398.352 596.95 398.081 596.287 398.081 595.438C398.09 594.981 398.174 594.57 398.333 594.206C398.501 593.842 398.734 593.543 399.033 593.31C399.341 593.077 399.691 592.927 400.083 592.862V592.806C399.57 592.675 399.168 592.409 398.879 592.008C398.599 591.597 398.459 591.103 398.459 590.524C398.459 590.029 398.566 589.591 398.781 589.208C399.005 588.816 399.341 588.513 399.789 588.298C400.246 588.074 400.816 587.962 401.497 587.962C402.178 587.962 402.743 588.074 403.191 588.298C403.639 588.513 403.97 588.816 404.185 589.208C404.409 589.591 404.516 590.029 404.507 590.524C404.498 591.093 404.353 591.583 404.073 591.994C403.793 592.405 403.396 592.675 402.883 592.806V592.862C403.275 592.927 403.625 593.077 403.933 593.31C404.241 593.543 404.479 593.842 404.647 594.206C404.824 594.57 404.913 594.981 404.913 595.438C404.913 596.007 404.792 596.493 404.549 596.894C404.306 597.295 403.933 597.603 403.429 597.818C402.925 598.033 402.281 598.14 401.497 598.14ZM401.497 597.412C402.393 597.412 403.051 597.225 403.471 596.852C403.891 596.479 404.101 595.97 404.101 595.326C404.101 594.691 403.877 594.187 403.429 593.814C402.981 593.441 402.337 593.254 401.497 593.254C400.648 593.254 399.999 593.441 399.551 593.814C399.112 594.187 398.893 594.691 398.893 595.326C398.893 595.97 399.103 596.479 399.523 596.852C399.943 597.225 400.601 597.412 401.497 597.412ZM401.497 592.526C402.225 592.526 402.776 592.358 403.149 592.022C403.532 591.677 403.723 591.21 403.723 590.622C403.723 590.025 403.536 589.553 403.163 589.208C402.799 588.863 402.244 588.69 401.497 588.69C400.741 588.69 400.181 588.863 399.817 589.208C399.453 589.553 399.271 590.025 399.271 590.622C399.271 591.21 399.458 591.677 399.831 592.022C400.204 592.358 400.76 592.526 401.497 592.526ZM409.783 598.14C409.149 598.14 408.598 598.042 408.131 597.846C407.665 597.641 407.301 597.347 407.039 596.964C406.778 596.581 406.629 596.119 406.591 595.578H407.445C407.483 596.185 407.707 596.642 408.117 596.95C408.528 597.258 409.083 597.412 409.783 597.412C410.614 597.412 411.221 597.183 411.603 596.726C411.995 596.259 412.191 595.685 412.191 595.004C412.191 594.547 412.112 594.136 411.953 593.772C411.804 593.399 411.557 593.105 411.211 592.89C410.866 592.666 410.404 592.554 409.825 592.554C409.321 592.545 408.887 592.638 408.523 592.834C408.169 593.021 407.884 593.287 407.669 593.632H406.787L407.445 588.102H412.541V588.83H408.173L407.711 592.764H407.753C407.94 592.465 408.211 592.237 408.565 592.078C408.92 591.91 409.317 591.826 409.755 591.826C410.474 591.826 411.071 591.966 411.547 592.246C412.033 592.526 412.397 592.904 412.639 593.38C412.891 593.847 413.017 594.379 413.017 594.976C413.017 595.592 412.887 596.138 412.625 596.614C412.364 597.09 411.991 597.463 411.505 597.734C411.029 598.005 410.455 598.14 409.783 598.14Z" fill="#FFFAEE"/>
<rect x="325.125" y="581.125" width="96.75" height="23.75" rx="11.875" stroke="#FFFAEE" stroke-width="0.25"/>
<path d="M468.368 668.18H468.312L465.204 677H464.35L467.892 667.102H468.844L472.372 677H471.476L468.368 668.18ZM470.622 674.032H466.1V673.304H470.622V674.032ZM478.62 669.244C478.546 668.665 478.289 668.264 477.85 668.04C477.421 667.816 476.852 667.704 476.142 667.704C475.33 667.704 474.728 667.863 474.336 668.18C473.944 668.488 473.748 668.945 473.748 669.552C473.748 669.907 473.814 670.196 473.944 670.42C474.084 670.644 474.262 670.826 474.476 670.966C474.691 671.097 474.92 671.204 475.162 671.288C475.405 671.363 475.629 671.428 475.834 671.484L476.912 671.778C477.183 671.853 477.477 671.946 477.794 672.058C478.112 672.17 478.41 672.324 478.69 672.52C478.98 672.716 479.213 672.968 479.39 673.276C479.568 673.584 479.656 673.967 479.656 674.424C479.656 674.947 479.53 675.418 479.278 675.838C479.026 676.258 478.639 676.589 478.116 676.832C477.594 677.065 476.926 677.182 476.114 677.182C475.032 677.182 474.201 676.963 473.622 676.524C473.044 676.085 472.717 675.493 472.642 674.746H473.51C473.566 675.194 473.711 675.539 473.944 675.782C474.178 676.025 474.476 676.197 474.84 676.3C475.214 676.393 475.638 676.44 476.114 676.44C476.973 676.44 477.636 676.277 478.102 675.95C478.578 675.614 478.816 675.096 478.816 674.396C478.816 673.976 478.714 673.645 478.508 673.402C478.312 673.159 478.046 672.968 477.71 672.828C477.384 672.688 477.029 672.567 476.646 672.464L475.302 672.1C474.537 671.885 473.944 671.587 473.524 671.204C473.114 670.821 472.908 670.294 472.908 669.622C472.908 669.071 473.039 668.6 473.3 668.208C473.571 667.807 473.949 667.499 474.434 667.284C474.929 667.069 475.512 666.962 476.184 666.962C476.838 666.962 477.398 667.06 477.864 667.256C478.34 667.443 478.714 667.709 478.984 668.054C479.264 668.39 479.423 668.787 479.46 669.244H478.62ZM486.195 669.244C486.12 668.665 485.864 668.264 485.425 668.04C484.996 667.816 484.426 667.704 483.717 667.704C482.905 667.704 482.303 667.863 481.911 668.18C481.519 668.488 481.323 668.945 481.323 669.552C481.323 669.907 481.388 670.196 481.519 670.42C481.659 670.644 481.836 670.826 482.051 670.966C482.266 671.097 482.494 671.204 482.737 671.288C482.98 671.363 483.204 671.428 483.409 671.484L484.487 671.778C484.758 671.853 485.052 671.946 485.369 672.058C485.686 672.17 485.985 672.324 486.265 672.52C486.554 672.716 486.788 672.968 486.965 673.276C487.142 673.584 487.231 673.967 487.231 674.424C487.231 674.947 487.105 675.418 486.853 675.838C486.601 676.258 486.214 676.589 485.691 676.832C485.168 677.065 484.501 677.182 483.689 677.182C482.606 677.182 481.776 676.963 481.197 676.524C480.618 676.085 480.292 675.493 480.217 674.746H481.085C481.141 675.194 481.286 675.539 481.519 675.782C481.752 676.025 482.051 676.197 482.415 676.3C482.788 676.393 483.213 676.44 483.689 676.44C484.548 676.44 485.21 676.277 485.677 675.95C486.153 675.614 486.391 675.096 486.391 674.396C486.391 673.976 486.288 673.645 486.083 673.402C485.887 673.159 485.621 672.968 485.285 672.828C484.958 672.688 484.604 672.567 484.221 672.464L482.877 672.1C482.112 671.885 481.519 671.587 481.099 671.204C480.688 670.821 480.483 670.294 480.483 669.622C480.483 669.071 480.614 668.6 480.875 668.208C481.146 667.807 481.524 667.499 482.009 667.284C482.504 667.069 483.087 666.962 483.759 666.962C484.412 666.962 484.972 667.06 485.439 667.256C485.915 667.443 486.288 667.709 486.559 668.054C486.839 668.39 486.998 668.787 487.035 669.244H486.195ZM488.394 667.102H493.966V667.83H489.234V671.68H493.644V672.408H489.234V676.272H494.036V677H488.394V667.102ZM494.61 667.102H501.918V667.83H498.684V677H497.844V667.83H494.61V667.102ZM507.812 677.728H501.764V677H507.812V677.728ZM510.482 677H509.642V667.102H510.482V677ZM508.116 667.83V667.102H511.994V667.83H508.116ZM508.116 677V676.272H511.994V677H508.116ZM513.757 677V667.102H516.823C518.261 667.102 519.348 667.522 520.085 668.362C520.823 669.202 521.191 670.429 521.191 672.044C521.191 673.649 520.813 674.877 520.057 675.726C519.311 676.575 518.186 677 516.683 677H513.757ZM516.613 676.272C517.556 676.272 518.298 676.104 518.839 675.768C519.381 675.423 519.768 674.933 520.001 674.298C520.235 673.663 520.351 672.912 520.351 672.044C520.351 671.167 520.235 670.415 520.001 669.79C519.777 669.155 519.399 668.67 518.867 668.334C518.345 667.998 517.631 667.83 516.725 667.83H514.597V676.272H516.613ZM525.123 676.314L528.511 672.688C528.941 672.231 529.291 671.829 529.561 671.484C529.832 671.129 530.033 670.803 530.163 670.504C530.303 670.196 530.373 669.883 530.373 669.566C530.373 668.959 530.177 668.497 529.785 668.18C529.393 667.853 528.871 667.69 528.217 667.69C527.564 667.69 527.027 667.886 526.607 668.278C526.187 668.661 525.987 669.188 526.005 669.86H525.193C525.184 669.253 525.31 668.735 525.571 668.306C525.833 667.877 526.197 667.545 526.663 667.312C527.13 667.079 527.662 666.962 528.259 666.962C528.885 666.962 529.412 667.069 529.841 667.284C530.28 667.489 530.616 667.788 530.849 668.18C531.083 668.563 531.199 669.025 531.199 669.566C531.199 669.921 531.139 670.266 531.017 670.602C530.896 670.929 530.672 671.307 530.345 671.736C530.028 672.156 529.566 672.688 528.959 673.332L525.767 676.748L525.823 676.272H531.325V677H525.123V676.314ZM535.702 677.14C534.89 677.14 534.228 676.958 533.714 676.594C533.21 676.221 532.842 675.661 532.608 674.914C532.375 674.158 532.258 673.201 532.258 672.044C532.258 670.887 532.375 669.935 532.608 669.188C532.851 668.441 533.224 667.886 533.728 667.522C534.242 667.149 534.9 666.962 535.702 666.962C536.514 666.962 537.172 667.149 537.676 667.522C538.19 667.886 538.563 668.441 538.796 669.188C539.039 669.935 539.16 670.887 539.16 672.044C539.16 673.192 539.039 674.144 538.796 674.9C538.563 675.656 538.19 676.221 537.676 676.594C537.172 676.958 536.514 677.14 535.702 677.14ZM535.702 676.412C536.654 676.412 537.331 676.053 537.732 675.334C538.134 674.615 538.334 673.519 538.334 672.044C538.334 670.569 538.134 669.477 537.732 668.768C537.331 668.049 536.654 667.69 535.702 667.69C534.76 667.69 534.088 668.049 533.686 668.768C533.285 669.477 533.084 670.569 533.084 672.044C533.084 673.519 533.28 674.615 533.672 675.334C534.074 676.053 534.75 676.412 535.702 676.412ZM540.095 676.314L543.483 672.688C543.912 672.231 544.262 671.829 544.533 671.484C544.804 671.129 545.004 670.803 545.135 670.504C545.275 670.196 545.345 669.883 545.345 669.566C545.345 668.959 545.149 668.497 544.757 668.18C544.365 667.853 543.842 667.69 543.189 667.69C542.536 667.69 541.999 667.886 541.579 668.278C541.159 668.661 540.958 669.188 540.977 669.86H540.165C540.156 669.253 540.282 668.735 540.543 668.306C540.804 667.877 541.168 667.545 541.635 667.312C542.102 667.079 542.634 666.962 543.231 666.962C543.856 666.962 544.384 667.069 544.813 667.284C545.252 667.489 545.588 667.788 545.821 668.18C546.054 668.563 546.171 669.025 546.171 669.566C546.171 669.921 546.11 670.266 545.989 670.602C545.868 670.929 545.644 671.307 545.317 671.736C545 672.156 544.538 672.688 543.931 673.332L540.739 676.748L540.795 676.272H546.297V677H540.095V676.314ZM547.496 673.892C547.505 673.528 547.547 673.173 547.622 672.828C547.706 672.483 547.851 672.114 548.056 671.722C548.271 671.33 548.565 670.882 548.938 670.378L551.388 667.102H552.382L549.064 671.498L548.952 671.372C549.148 671.251 549.325 671.153 549.484 671.078C549.643 670.994 549.815 670.933 550.002 670.896C550.189 670.849 550.417 670.826 550.688 670.826C551.369 670.826 551.948 670.952 552.424 671.204C552.9 671.447 553.259 671.801 553.502 672.268C553.754 672.735 553.88 673.299 553.88 673.962C553.88 674.597 553.759 675.152 553.516 675.628C553.273 676.104 552.914 676.477 552.438 676.748C551.962 677.009 551.379 677.14 550.688 677.14C549.643 677.14 548.845 676.846 548.294 676.258C547.753 675.661 547.487 674.872 547.496 673.892ZM548.322 673.962C548.322 674.709 548.504 675.306 548.868 675.754C549.241 676.193 549.848 676.412 550.688 676.412C551.519 676.412 552.121 676.193 552.494 675.754C552.867 675.306 553.054 674.709 553.054 673.962C553.054 673.215 552.867 672.627 552.494 672.198C552.121 671.769 551.519 671.554 550.688 671.554C549.941 671.554 549.358 671.769 548.938 672.198C548.527 672.627 548.322 673.215 548.322 673.962ZM560.303 677.728H554.255V677H560.303V677.728ZM561.824 667.102L565.464 675.586H565.562L569.202 667.102H570.042V677H569.23V669.104H569.16L565.73 677H565.254L561.824 669.104H561.768V677H560.956V667.102H561.824ZM578.851 672.8H576.037V672.072H579.691V673.192C579.691 673.892 579.551 674.545 579.271 675.152C579.001 675.749 578.576 676.23 577.997 676.594C577.428 676.958 576.691 677.14 575.785 677.14C574.432 677.14 573.382 676.701 572.635 675.824C571.898 674.937 571.529 673.677 571.529 672.044C571.529 670.411 571.898 669.155 572.635 668.278C573.382 667.401 574.432 666.962 575.785 666.962C576.429 666.962 577.013 667.074 577.535 667.298C578.058 667.513 578.497 667.839 578.851 668.278C579.206 668.717 579.449 669.277 579.579 669.958H578.711C578.562 669.155 578.231 668.581 577.717 668.236C577.213 667.891 576.569 667.718 575.785 667.718C574.684 667.718 573.839 668.063 573.251 668.754C572.663 669.445 572.369 670.541 572.369 672.044C572.369 673.537 572.663 674.634 573.251 675.334C573.839 676.034 574.684 676.384 575.785 676.384C576.355 676.384 576.826 676.305 577.199 676.146C577.573 675.978 577.871 675.759 578.095 675.488C578.319 675.217 578.483 674.923 578.585 674.606C578.697 674.289 578.767 673.971 578.795 673.654C578.833 673.337 578.851 673.052 578.851 672.8ZM585.939 677.728H579.891V677H585.939V677.728ZM592.683 670.196C592.683 670.56 592.632 670.91 592.529 671.246C592.436 671.582 592.286 671.946 592.081 672.338C591.876 672.73 591.6 673.187 591.255 673.71L589.099 677H588.119L591.283 672.324L591.381 672.59C591.138 672.749 590.919 672.879 590.723 672.982C590.536 673.085 590.35 673.159 590.163 673.206C589.976 673.253 589.757 673.276 589.505 673.276C588.824 673.276 588.245 673.155 587.769 672.912C587.293 672.66 586.929 672.301 586.677 671.834C586.434 671.358 586.313 670.789 586.313 670.126C586.313 669.491 586.434 668.936 586.677 668.46C586.92 667.984 587.279 667.615 587.755 667.354C588.231 667.093 588.814 666.962 589.505 666.962C590.56 666.962 591.353 667.261 591.885 667.858C592.426 668.446 592.692 669.225 592.683 670.196ZM591.885 670.126C591.885 669.379 591.698 668.791 591.325 668.362C590.952 667.933 590.345 667.718 589.505 667.718C588.674 667.718 588.072 667.933 587.699 668.362C587.326 668.791 587.139 669.379 587.139 670.126C587.139 670.873 587.326 671.456 587.699 671.876C588.082 672.296 588.684 672.506 589.505 672.506C590.252 672.506 590.835 672.296 591.255 671.876C591.675 671.456 591.885 670.873 591.885 670.126ZM600.353 670.196C600.353 670.56 600.302 670.91 600.199 671.246C600.106 671.582 599.957 671.946 599.751 672.338C599.546 672.73 599.271 673.187 598.925 673.71L596.769 677H595.789L598.953 672.324L599.051 672.59C598.809 672.749 598.589 672.879 598.393 672.982C598.207 673.085 598.02 673.159 597.833 673.206C597.647 673.253 597.427 673.276 597.175 673.276C596.494 673.276 595.915 673.155 595.439 672.912C594.963 672.66 594.599 672.301 594.347 671.834C594.105 671.358 593.983 670.789 593.983 670.126C593.983 669.491 594.105 668.936 594.347 668.46C594.59 667.984 594.949 667.615 595.425 667.354C595.901 667.093 596.485 666.962 597.175 666.962C598.23 666.962 599.023 667.261 599.555 667.858C600.097 668.446 600.363 669.225 600.353 670.196ZM599.555 670.126C599.555 669.379 599.369 668.791 598.995 668.362C598.622 667.933 598.015 667.718 597.175 667.718C596.345 667.718 595.743 667.933 595.369 668.362C594.996 668.791 594.809 669.379 594.809 670.126C594.809 670.873 594.996 671.456 595.369 671.876C595.752 672.296 596.354 672.506 597.175 672.506C597.922 672.506 598.505 672.296 598.925 671.876C599.345 671.456 599.555 670.873 599.555 670.126ZM604.846 677.14C604.034 677.14 603.371 676.958 602.858 676.594C602.354 676.221 601.985 675.661 601.752 674.914C601.518 674.158 601.402 673.201 601.402 672.044C601.402 670.887 601.518 669.935 601.752 669.188C601.994 668.441 602.368 667.886 602.872 667.522C603.385 667.149 604.043 666.962 604.846 666.962C605.658 666.962 606.316 667.149 606.82 667.522C607.333 667.886 607.706 668.441 607.94 669.188C608.182 669.935 608.304 670.887 608.304 672.044C608.304 673.192 608.182 674.144 607.94 674.9C607.706 675.656 607.333 676.221 606.82 676.594C606.316 676.958 605.658 677.14 604.846 677.14ZM604.846 676.412C605.798 676.412 606.474 676.053 606.876 675.334C607.277 674.615 607.478 673.519 607.478 672.044C607.478 670.569 607.277 669.477 606.876 668.768C606.474 668.049 605.798 667.69 604.846 667.69C603.903 667.69 603.231 668.049 602.83 668.768C602.428 669.477 602.228 670.569 602.228 672.044C602.228 673.519 602.424 674.615 602.816 675.334C603.217 676.053 603.894 676.412 604.846 676.412ZM612.473 671.568L615.357 667.102H616.281L613.019 672.156L612.473 671.568ZM612.655 672.436L609.743 677H608.819L612.095 671.862L612.655 672.436ZM612.011 672.086L608.805 667.102H609.785L612.599 671.442L613.047 672.002L616.337 677H615.329L612.375 672.366L612.011 672.086Z" fill="#FFFAEE"/>
<path d="M389.12 678C388.818 678 388.553 677.796 388.481 677.504L385.89 667.138L382.275 677.365C382.179 677.634 381.923 677.817 381.634 677.802C381.347 677.792 381.098 677.6 381.02 677.328L378.053 667.058L375.166 677.325C375.088 677.607 374.83 677.802 374.537 677.802C374.241 677.802 373.983 677.613 373.902 677.331L370.881 667.151L368.343 677.303C368.272 677.594 368.007 677.799 367.705 677.799C367.403 677.799 367.138 677.594 367.067 677.303L364.457 666.866L362.86 671.129C362.763 671.386 362.517 671.556 362.243 671.556H333V670.246H361.785L363.965 664.428C364.065 664.158 364.329 663.988 364.619 664.003C364.909 664.019 365.152 664.22 365.22 664.499L367.702 674.431L370.187 664.496C370.258 664.208 370.514 664.006 370.813 664C371.108 663.997 371.373 664.186 371.457 664.471L374.515 674.775L377.411 664.48C377.489 664.198 377.747 664.003 378.043 664C378.336 664 378.594 664.192 378.675 664.474L381.715 674.992L385.373 664.635C385.47 664.363 385.732 664.186 386.024 664.198C386.314 664.211 386.563 664.415 386.632 664.694L389.113 674.626L390.085 670.741C390.157 670.45 390.421 670.246 390.723 670.246H448V671.556H391.237L389.752 677.501C389.68 677.792 389.415 677.997 389.113 677.997L389.12 678Z" fill="#FFFAEE"/>
</svg>
