<svg width="1080" height="1080" viewBox="0 0 1080 1080" fill="none" xmlns="http://www.w3.org/2000/svg">
<rect width="1080" height="1080" fill="#191919"/>
<path d="M427.841 570.374C427.274 566.542 425.25 563.16 422.141 560.852C415.723 556.086 406.624 557.432 401.86 563.853C399.552 566.962 398.592 570.785 399.159 574.617C399.726 578.449 401.75 581.831 404.859 584.14C407.385 586.015 410.381 587 413.47 587C414.184 587 414.903 586.948 415.621 586.841C419.452 586.274 422.833 584.25 425.14 581.139C427.448 578.029 428.408 574.206 427.841 570.374ZM403.299 577.131C401.349 575.684 400.94 572.919 402.388 570.967C403.089 570.022 404.116 569.407 405.28 569.235C405.498 569.203 405.717 569.186 405.933 569.186C406.872 569.186 407.782 569.486 408.549 570.056C409.494 570.757 410.108 571.784 410.281 572.948C410.453 574.113 410.162 575.275 409.461 576.219C408.759 577.164 407.732 577.779 406.568 577.951C405.405 578.123 404.244 577.832 403.299 577.13V577.131ZM404.364 579.911C404.157 579.757 403.962 579.595 403.777 579.424C404.458 579.676 405.178 579.806 405.911 579.806C406.216 579.806 406.524 579.783 406.832 579.738C408.472 579.495 409.921 578.628 410.909 577.296C411.897 575.963 412.308 574.326 412.066 572.685C411.823 571.044 410.956 569.595 409.625 568.607C408.294 567.618 406.656 567.207 405.015 567.45C404.413 567.539 403.836 567.713 403.298 567.963C403.527 567.66 403.775 567.366 404.041 567.082C405.523 565.503 407.421 564.496 409.471 564.496C411.255 564.496 413.036 565.052 414.554 566.18C416.388 567.541 417.582 569.535 417.916 571.795C418.25 574.054 417.684 576.309 416.323 578.142C414.962 579.976 412.969 581.171 410.709 581.505C408.451 581.839 406.197 581.273 404.364 579.912V579.911ZM423.691 580.063C421.671 582.786 418.711 584.559 415.357 585.055C412.104 585.536 408.856 584.76 406.179 582.867C406.952 583.123 407.751 583.286 408.565 583.35C409.007 583.385 409.451 583.391 409.898 583.369C410.385 583.35 410.871 583.296 411.354 583.209C413.932 582.742 416.201 581.333 417.772 579.217C419.421 576.996 420.106 574.266 419.701 571.53C419.296 568.793 417.851 566.378 415.63 564.729C413.36 563.043 410.601 562.41 407.945 562.803C406.424 563.027 404.968 563.584 403.686 564.446C406.174 561.406 409.823 559.804 413.516 559.804C416.145 559.804 418.796 560.617 421.065 562.301C423.788 564.322 425.56 567.283 426.055 570.638C426.552 573.993 425.711 577.34 423.691 580.062V580.063Z" fill="#FFFAEE"/>
<path d="M536.222 587.008C528.276 587.008 521.808 580.539 521.808 572.589C521.808 564.639 528.276 558.175 536.222 558.175C544.167 558.175 550.636 564.644 550.636 572.589C550.636 580.535 544.167 587.003 536.222 587.003V587.008ZM536.222 560.678C529.654 560.678 524.31 566.021 524.31 572.589C524.31 579.157 529.654 584.501 536.222 584.501C542.789 584.501 548.133 579.157 548.133 572.589C548.133 566.021 542.789 560.678 536.222 560.678Z" fill="#FFFAEE"/>
<path d="M538.462 562.656H534.067V577.445H538.462V562.656Z" fill="#FFFAEE"/>
<path d="M538.462 579.053H534.067V582.68H538.462V579.053Z" fill="#FFFAEE"/>
<path d="M633.852 560.182C633.199 560.182 632.564 560.065 631.948 559.832C631.332 559.599 630.777 559.258 630.282 558.81C629.787 558.362 629.391 557.821 629.092 557.186C628.803 556.551 628.658 555.828 628.658 555.016C628.658 554.204 628.803 553.481 629.092 552.846C629.391 552.211 629.787 551.675 630.282 551.236C630.777 550.788 631.332 550.447 631.948 550.214C632.564 549.981 633.199 549.864 633.852 549.864C634.505 549.864 635.14 549.981 635.756 550.214C636.372 550.447 636.927 550.788 637.422 551.236C637.917 551.675 638.309 552.211 638.598 552.846C638.887 553.481 639.032 554.204 639.032 555.016C639.032 555.828 638.887 556.551 638.598 557.186C638.309 557.821 637.917 558.362 637.422 558.81C636.927 559.258 636.372 559.599 635.756 559.832C635.14 560.065 634.505 560.182 633.852 560.182ZM633.852 559.538C634.403 559.538 634.944 559.44 635.476 559.244C636.008 559.039 636.489 558.745 636.918 558.362C637.347 557.97 637.688 557.494 637.94 556.934C638.201 556.374 638.332 555.735 638.332 555.016C638.332 554.297 638.201 553.658 637.94 553.098C637.688 552.538 637.347 552.067 636.918 551.684C636.489 551.292 636.008 550.998 635.476 550.802C634.944 550.597 634.403 550.494 633.852 550.494C633.292 550.494 632.746 550.597 632.214 550.802C631.682 550.998 631.201 551.292 630.772 551.684C630.343 552.067 629.997 552.538 629.736 553.098C629.484 553.658 629.358 554.297 629.358 555.016C629.358 555.735 629.484 556.374 629.736 556.934C629.997 557.494 630.343 557.97 630.772 558.362C631.201 558.745 631.682 559.039 632.214 559.244C632.746 559.44 633.292 559.538 633.852 559.538ZM633.908 557.76C633.049 557.76 632.401 557.513 631.962 557.018C631.523 556.523 631.304 555.851 631.304 555.002C631.304 554.153 631.528 553.485 631.976 553C632.433 552.515 633.068 552.272 633.88 552.272C634.309 552.272 634.678 552.342 634.986 552.482C635.303 552.622 635.555 552.823 635.742 553.084C635.938 553.336 636.064 553.639 636.12 553.994H635.336C635.271 553.667 635.135 553.411 634.93 553.224C634.734 553.037 634.389 552.944 633.894 552.944C633.297 552.944 632.839 553.121 632.522 553.476C632.205 553.831 632.046 554.339 632.046 555.002C632.046 555.674 632.205 556.192 632.522 556.556C632.839 556.911 633.297 557.088 633.894 557.088C634.361 557.088 634.701 557.013 634.916 556.864C635.131 556.705 635.271 556.453 635.336 556.108H636.12C636.083 556.435 635.971 556.724 635.784 556.976C635.607 557.219 635.359 557.41 635.042 557.55C634.734 557.69 634.356 557.76 633.908 557.76ZM640.487 559.314L643.875 555.688C644.305 555.231 644.655 554.829 644.925 554.484C645.196 554.129 645.397 553.803 645.527 553.504C645.667 553.196 645.737 552.883 645.737 552.566C645.737 551.959 645.541 551.497 645.149 551.18C644.757 550.853 644.235 550.69 643.581 550.69C642.928 550.69 642.391 550.886 641.971 551.278C641.551 551.661 641.351 552.188 641.369 552.86H640.557C640.548 552.253 640.674 551.735 640.935 551.306C641.197 550.877 641.561 550.545 642.027 550.312C642.494 550.079 643.026 549.962 643.623 549.962C644.249 549.962 644.776 550.069 645.205 550.284C645.644 550.489 645.98 550.788 646.213 551.18C646.447 551.563 646.563 552.025 646.563 552.566C646.563 552.921 646.503 553.266 646.381 553.602C646.26 553.929 646.036 554.307 645.709 554.736C645.392 555.156 644.93 555.688 644.323 556.332L641.131 559.748L641.187 559.272H646.689V560H640.487V559.314ZM651.626 560.14C650.814 560.14 650.152 559.958 649.638 559.594C649.134 559.221 648.766 558.661 648.532 557.914C648.299 557.158 648.182 556.201 648.182 555.044C648.182 553.887 648.299 552.935 648.532 552.188C648.775 551.441 649.148 550.886 649.652 550.522C650.166 550.149 650.824 549.962 651.626 549.962C652.438 549.962 653.096 550.149 653.6 550.522C654.114 550.886 654.487 551.441 654.72 552.188C654.963 552.935 655.084 553.887 655.084 555.044C655.084 556.192 654.963 557.144 654.72 557.9C654.487 558.656 654.114 559.221 653.6 559.594C653.096 559.958 652.438 560.14 651.626 560.14ZM651.626 559.412C652.578 559.412 653.255 559.053 653.656 558.334C654.058 557.615 654.258 556.519 654.258 555.044C654.258 553.569 654.058 552.477 653.656 551.768C653.255 551.049 652.578 550.69 651.626 550.69C650.684 550.69 650.012 551.049 649.61 551.768C649.209 552.477 649.008 553.569 649.008 555.044C649.008 556.519 649.204 557.615 649.596 558.334C649.998 559.053 650.674 559.412 651.626 559.412ZM656.579 559.314L659.967 555.688C660.397 555.231 660.747 554.829 661.017 554.484C661.288 554.129 661.489 553.803 661.619 553.504C661.759 553.196 661.829 552.883 661.829 552.566C661.829 551.959 661.633 551.497 661.241 551.18C660.849 550.853 660.327 550.69 659.673 550.69C659.02 550.69 658.483 550.886 658.063 551.278C657.643 551.661 657.443 552.188 657.461 552.86H656.649C656.64 552.253 656.766 551.735 657.027 551.306C657.289 550.877 657.653 550.545 658.119 550.312C658.586 550.079 659.118 549.962 659.715 549.962C660.341 549.962 660.868 550.069 661.297 550.284C661.736 550.489 662.072 550.788 662.305 551.18C662.539 551.563 662.655 552.025 662.655 552.566C662.655 552.921 662.595 553.266 662.473 553.602C662.352 553.929 662.128 554.307 661.801 554.736C661.484 555.156 661.022 555.688 660.415 556.332L657.223 559.748L657.279 559.272H662.781V560H656.579V559.314ZM664.54 556.892C664.55 556.528 664.592 556.173 664.666 555.828C664.75 555.483 664.895 555.114 665.1 554.722C665.315 554.33 665.609 553.882 665.982 553.378L668.432 550.102H669.426L666.108 554.498L665.996 554.372C666.192 554.251 666.37 554.153 666.528 554.078C666.687 553.994 666.86 553.933 667.046 553.896C667.233 553.849 667.462 553.826 667.732 553.826C668.414 553.826 668.992 553.952 669.468 554.204C669.944 554.447 670.304 554.801 670.546 555.268C670.798 555.735 670.924 556.299 670.924 556.962C670.924 557.597 670.803 558.152 670.56 558.628C670.318 559.104 669.958 559.477 669.482 559.748C669.006 560.009 668.423 560.14 667.732 560.14C666.687 560.14 665.889 559.846 665.338 559.258C664.797 558.661 664.531 557.872 664.54 556.892ZM665.366 556.962C665.366 557.709 665.548 558.306 665.912 558.754C666.286 559.193 666.892 559.412 667.732 559.412C668.563 559.412 669.165 559.193 669.538 558.754C669.912 558.306 670.098 557.709 670.098 556.962C670.098 556.215 669.912 555.627 669.538 555.198C669.165 554.769 668.563 554.554 667.732 554.554C666.986 554.554 666.402 554.769 665.982 555.198C665.572 555.627 665.366 556.215 665.366 556.962Z" fill="#FFFAEE"/>
<path d="M523.368 526.18H523.312L520.204 535H519.35L522.892 525.102H523.844L527.372 535H526.476L523.368 526.18ZM525.622 532.032H521.1V531.304H525.622V532.032ZM533.62 527.244C533.546 526.665 533.289 526.264 532.85 526.04C532.421 525.816 531.852 525.704 531.142 525.704C530.33 525.704 529.728 525.863 529.336 526.18C528.944 526.488 528.748 526.945 528.748 527.552C528.748 527.907 528.814 528.196 528.944 528.42C529.084 528.644 529.262 528.826 529.476 528.966C529.691 529.097 529.92 529.204 530.162 529.288C530.405 529.363 530.629 529.428 530.834 529.484L531.912 529.778C532.183 529.853 532.477 529.946 532.794 530.058C533.112 530.17 533.41 530.324 533.69 530.52C533.98 530.716 534.213 530.968 534.39 531.276C534.568 531.584 534.656 531.967 534.656 532.424C534.656 532.947 534.53 533.418 534.278 533.838C534.026 534.258 533.639 534.589 533.116 534.832C532.594 535.065 531.926 535.182 531.114 535.182C530.032 535.182 529.201 534.963 528.622 534.524C528.044 534.085 527.717 533.493 527.642 532.746H528.51C528.566 533.194 528.711 533.539 528.944 533.782C529.178 534.025 529.476 534.197 529.84 534.3C530.214 534.393 530.638 534.44 531.114 534.44C531.973 534.44 532.636 534.277 533.102 533.95C533.578 533.614 533.816 533.096 533.816 532.396C533.816 531.976 533.714 531.645 533.508 531.402C533.312 531.159 533.046 530.968 532.71 530.828C532.384 530.688 532.029 530.567 531.646 530.464L530.302 530.1C529.537 529.885 528.944 529.587 528.524 529.204C528.114 528.821 527.908 528.294 527.908 527.622C527.908 527.071 528.039 526.6 528.3 526.208C528.571 525.807 528.949 525.499 529.434 525.284C529.929 525.069 530.512 524.962 531.184 524.962C531.838 524.962 532.398 525.06 532.864 525.256C533.34 525.443 533.714 525.709 533.984 526.054C534.264 526.39 534.423 526.787 534.46 527.244H533.62ZM541.195 527.244C541.12 526.665 540.864 526.264 540.425 526.04C539.996 525.816 539.426 525.704 538.717 525.704C537.905 525.704 537.303 525.863 536.911 526.18C536.519 526.488 536.323 526.945 536.323 527.552C536.323 527.907 536.388 528.196 536.519 528.42C536.659 528.644 536.836 528.826 537.051 528.966C537.266 529.097 537.494 529.204 537.737 529.288C537.98 529.363 538.204 529.428 538.409 529.484L539.487 529.778C539.758 529.853 540.052 529.946 540.369 530.058C540.686 530.17 540.985 530.324 541.265 530.52C541.554 530.716 541.788 530.968 541.965 531.276C542.142 531.584 542.231 531.967 542.231 532.424C542.231 532.947 542.105 533.418 541.853 533.838C541.601 534.258 541.214 534.589 540.691 534.832C540.168 535.065 539.501 535.182 538.689 535.182C537.606 535.182 536.776 534.963 536.197 534.524C535.618 534.085 535.292 533.493 535.217 532.746H536.085C536.141 533.194 536.286 533.539 536.519 533.782C536.752 534.025 537.051 534.197 537.415 534.3C537.788 534.393 538.213 534.44 538.689 534.44C539.548 534.44 540.21 534.277 540.677 533.95C541.153 533.614 541.391 533.096 541.391 532.396C541.391 531.976 541.288 531.645 541.083 531.402C540.887 531.159 540.621 530.968 540.285 530.828C539.958 530.688 539.604 530.567 539.221 530.464L537.877 530.1C537.112 529.885 536.519 529.587 536.099 529.204C535.688 528.821 535.483 528.294 535.483 527.622C535.483 527.071 535.614 526.6 535.875 526.208C536.146 525.807 536.524 525.499 537.009 525.284C537.504 525.069 538.087 524.962 538.759 524.962C539.412 524.962 539.972 525.06 540.439 525.256C540.915 525.443 541.288 525.709 541.559 526.054C541.839 526.39 541.998 526.787 542.035 527.244H541.195ZM543.394 525.102H548.966V525.83H544.234V529.68H548.644V530.408H544.234V534.272H549.036V535H543.394V525.102ZM549.61 525.102H556.918V525.83H553.684V535H552.844V525.83H549.61V525.102ZM562.812 535.728H556.764V535H562.812V535.728ZM565.482 535H564.642V525.102H565.482V535ZM563.116 525.83V525.102H566.994V525.83H563.116ZM563.116 535V534.272H566.994V535H563.116ZM568.757 535V525.102H571.823C573.261 525.102 574.348 525.522 575.085 526.362C575.823 527.202 576.191 528.429 576.191 530.044C576.191 531.649 575.813 532.877 575.057 533.726C574.311 534.575 573.186 535 571.683 535H568.757ZM571.613 534.272C572.556 534.272 573.298 534.104 573.839 533.768C574.381 533.423 574.768 532.933 575.001 532.298C575.235 531.663 575.351 530.912 575.351 530.044C575.351 529.167 575.235 528.415 575.001 527.79C574.777 527.155 574.399 526.67 573.867 526.334C573.345 525.998 572.631 525.83 571.725 525.83H569.597V534.272H571.613ZM580.123 534.314L583.511 530.688C583.941 530.231 584.291 529.829 584.561 529.484C584.832 529.129 585.033 528.803 585.163 528.504C585.303 528.196 585.373 527.883 585.373 527.566C585.373 526.959 585.177 526.497 584.785 526.18C584.393 525.853 583.871 525.69 583.217 525.69C582.564 525.69 582.027 525.886 581.607 526.278C581.187 526.661 580.987 527.188 581.005 527.86H580.193C580.184 527.253 580.31 526.735 580.571 526.306C580.833 525.877 581.197 525.545 581.663 525.312C582.13 525.079 582.662 524.962 583.259 524.962C583.885 524.962 584.412 525.069 584.841 525.284C585.28 525.489 585.616 525.788 585.849 526.18C586.083 526.563 586.199 527.025 586.199 527.566C586.199 527.921 586.139 528.266 586.017 528.602C585.896 528.929 585.672 529.307 585.345 529.736C585.028 530.156 584.566 530.688 583.959 531.332L580.767 534.748L580.823 534.272H586.325V535H580.123V534.314ZM590.702 535.14C589.89 535.14 589.228 534.958 588.714 534.594C588.21 534.221 587.842 533.661 587.608 532.914C587.375 532.158 587.258 531.201 587.258 530.044C587.258 528.887 587.375 527.935 587.608 527.188C587.851 526.441 588.224 525.886 588.728 525.522C589.242 525.149 589.9 524.962 590.702 524.962C591.514 524.962 592.172 525.149 592.676 525.522C593.19 525.886 593.563 526.441 593.796 527.188C594.039 527.935 594.16 528.887 594.16 530.044C594.16 531.192 594.039 532.144 593.796 532.9C593.563 533.656 593.19 534.221 592.676 534.594C592.172 534.958 591.514 535.14 590.702 535.14ZM590.702 534.412C591.654 534.412 592.331 534.053 592.732 533.334C593.134 532.615 593.334 531.519 593.334 530.044C593.334 528.569 593.134 527.477 592.732 526.768C592.331 526.049 591.654 525.69 590.702 525.69C589.76 525.69 589.088 526.049 588.686 526.768C588.285 527.477 588.084 528.569 588.084 530.044C588.084 531.519 588.28 532.615 588.672 533.334C589.074 534.053 589.75 534.412 590.702 534.412ZM595.095 534.314L598.483 530.688C598.912 530.231 599.262 529.829 599.533 529.484C599.804 529.129 600.004 528.803 600.135 528.504C600.275 528.196 600.345 527.883 600.345 527.566C600.345 526.959 600.149 526.497 599.757 526.18C599.365 525.853 598.842 525.69 598.189 525.69C597.536 525.69 596.999 525.886 596.579 526.278C596.159 526.661 595.958 527.188 595.977 527.86H595.165C595.156 527.253 595.282 526.735 595.543 526.306C595.804 525.877 596.168 525.545 596.635 525.312C597.102 525.079 597.634 524.962 598.231 524.962C598.856 524.962 599.384 525.069 599.813 525.284C600.252 525.489 600.588 525.788 600.821 526.18C601.054 526.563 601.171 527.025 601.171 527.566C601.171 527.921 601.11 528.266 600.989 528.602C600.868 528.929 600.644 529.307 600.317 529.736C600 530.156 599.538 530.688 598.931 531.332L595.739 534.748L595.795 534.272H601.297V535H595.095V534.314ZM602.496 531.892C602.505 531.528 602.547 531.173 602.622 530.828C602.706 530.483 602.851 530.114 603.056 529.722C603.271 529.33 603.565 528.882 603.938 528.378L606.388 525.102H607.382L604.064 529.498L603.952 529.372C604.148 529.251 604.325 529.153 604.484 529.078C604.643 528.994 604.815 528.933 605.002 528.896C605.189 528.849 605.417 528.826 605.688 528.826C606.369 528.826 606.948 528.952 607.424 529.204C607.9 529.447 608.259 529.801 608.502 530.268C608.754 530.735 608.88 531.299 608.88 531.962C608.88 532.597 608.759 533.152 608.516 533.628C608.273 534.104 607.914 534.477 607.438 534.748C606.962 535.009 606.379 535.14 605.688 535.14C604.643 535.14 603.845 534.846 603.294 534.258C602.753 533.661 602.487 532.872 602.496 531.892ZM603.322 531.962C603.322 532.709 603.504 533.306 603.868 533.754C604.241 534.193 604.848 534.412 605.688 534.412C606.519 534.412 607.121 534.193 607.494 533.754C607.867 533.306 608.054 532.709 608.054 531.962C608.054 531.215 607.867 530.627 607.494 530.198C607.121 529.769 606.519 529.554 605.688 529.554C604.941 529.554 604.358 529.769 603.938 530.198C603.527 530.627 603.322 531.215 603.322 531.962ZM615.303 535.728H609.255V535H615.303V535.728ZM616.824 525.102L620.464 533.586H620.562L624.202 525.102H625.042V535H624.23V527.104H624.16L620.73 535H620.254L616.824 527.104H616.768V535H615.956V525.102H616.824ZM633.851 530.8H631.037V530.072H634.691V531.192C634.691 531.892 634.551 532.545 634.271 533.152C634.001 533.749 633.576 534.23 632.997 534.594C632.428 534.958 631.691 535.14 630.785 535.14C629.432 535.14 628.382 534.701 627.635 533.824C626.898 532.937 626.529 531.677 626.529 530.044C626.529 528.411 626.898 527.155 627.635 526.278C628.382 525.401 629.432 524.962 630.785 524.962C631.429 524.962 632.013 525.074 632.535 525.298C633.058 525.513 633.497 525.839 633.851 526.278C634.206 526.717 634.449 527.277 634.579 527.958H633.711C633.562 527.155 633.231 526.581 632.717 526.236C632.213 525.891 631.569 525.718 630.785 525.718C629.684 525.718 628.839 526.063 628.251 526.754C627.663 527.445 627.369 528.541 627.369 530.044C627.369 531.537 627.663 532.634 628.251 533.334C628.839 534.034 629.684 534.384 630.785 534.384C631.355 534.384 631.826 534.305 632.199 534.146C632.573 533.978 632.871 533.759 633.095 533.488C633.319 533.217 633.483 532.923 633.585 532.606C633.697 532.289 633.767 531.971 633.795 531.654C633.833 531.337 633.851 531.052 633.851 530.8ZM640.939 535.728H634.891V535H640.939V535.728ZM647.683 528.196C647.683 528.56 647.632 528.91 647.529 529.246C647.436 529.582 647.286 529.946 647.081 530.338C646.876 530.73 646.6 531.187 646.255 531.71L644.099 535H643.119L646.283 530.324L646.381 530.59C646.138 530.749 645.919 530.879 645.723 530.982C645.536 531.085 645.35 531.159 645.163 531.206C644.976 531.253 644.757 531.276 644.505 531.276C643.824 531.276 643.245 531.155 642.769 530.912C642.293 530.66 641.929 530.301 641.677 529.834C641.434 529.358 641.313 528.789 641.313 528.126C641.313 527.491 641.434 526.936 641.677 526.46C641.92 525.984 642.279 525.615 642.755 525.354C643.231 525.093 643.814 524.962 644.505 524.962C645.56 524.962 646.353 525.261 646.885 525.858C647.426 526.446 647.692 527.225 647.683 528.196ZM646.885 528.126C646.885 527.379 646.698 526.791 646.325 526.362C645.952 525.933 645.345 525.718 644.505 525.718C643.674 525.718 643.072 525.933 642.699 526.362C642.326 526.791 642.139 527.379 642.139 528.126C642.139 528.873 642.326 529.456 642.699 529.876C643.082 530.296 643.684 530.506 644.505 530.506C645.252 530.506 645.835 530.296 646.255 529.876C646.675 529.456 646.885 528.873 646.885 528.126ZM655.353 528.196C655.353 528.56 655.302 528.91 655.199 529.246C655.106 529.582 654.957 529.946 654.751 530.338C654.546 530.73 654.271 531.187 653.925 531.71L651.769 535H650.789L653.953 530.324L654.051 530.59C653.809 530.749 653.589 530.879 653.393 530.982C653.207 531.085 653.02 531.159 652.833 531.206C652.647 531.253 652.427 531.276 652.175 531.276C651.494 531.276 650.915 531.155 650.439 530.912C649.963 530.66 649.599 530.301 649.347 529.834C649.105 529.358 648.983 528.789 648.983 528.126C648.983 527.491 649.105 526.936 649.347 526.46C649.59 525.984 649.949 525.615 650.425 525.354C650.901 525.093 651.485 524.962 652.175 524.962C653.23 524.962 654.023 525.261 654.555 525.858C655.097 526.446 655.363 527.225 655.353 528.196ZM654.555 528.126C654.555 527.379 654.369 526.791 653.995 526.362C653.622 525.933 653.015 525.718 652.175 525.718C651.345 525.718 650.743 525.933 650.369 526.362C649.996 526.791 649.809 527.379 649.809 528.126C649.809 528.873 649.996 529.456 650.369 529.876C650.752 530.296 651.354 530.506 652.175 530.506C652.922 530.506 653.505 530.296 653.925 529.876C654.345 529.456 654.555 528.873 654.555 528.126ZM659.846 535.14C659.034 535.14 658.371 534.958 657.858 534.594C657.354 534.221 656.985 533.661 656.752 532.914C656.518 532.158 656.402 531.201 656.402 530.044C656.402 528.887 656.518 527.935 656.752 527.188C656.994 526.441 657.368 525.886 657.872 525.522C658.385 525.149 659.043 524.962 659.846 524.962C660.658 524.962 661.316 525.149 661.82 525.522C662.333 525.886 662.706 526.441 662.94 527.188C663.182 527.935 663.304 528.887 663.304 530.044C663.304 531.192 663.182 532.144 662.94 532.9C662.706 533.656 662.333 534.221 661.82 534.594C661.316 534.958 660.658 535.14 659.846 535.14ZM659.846 534.412C660.798 534.412 661.474 534.053 661.876 533.334C662.277 532.615 662.478 531.519 662.478 530.044C662.478 528.569 662.277 527.477 661.876 526.768C661.474 526.049 660.798 525.69 659.846 525.69C658.903 525.69 658.231 526.049 657.83 526.768C657.428 527.477 657.228 528.569 657.228 530.044C657.228 531.519 657.424 532.615 657.816 533.334C658.217 534.053 658.894 534.412 659.846 534.412ZM667.473 529.568L670.357 525.102H671.281L668.019 530.156L667.473 529.568ZM667.655 530.436L664.743 535H663.819L667.095 529.862L667.655 530.436ZM667.011 530.086L663.805 525.102H664.785L667.599 529.442L668.047 530.002L671.337 535H670.329L667.375 530.366L667.011 530.086Z" fill="#FFFAEE"/>
<path d="M472.32 474V445.6H497.52V451.52H480.32V457.68H496.64V463.36H480.32V474H472.32ZM514.921 474.48C511.321 474.48 508.255 473.853 505.721 472.6C503.215 471.32 501.295 469.573 499.961 467.36C498.628 465.147 497.961 462.64 497.961 459.84C497.961 457.013 498.615 454.493 499.921 452.28C501.255 450.067 503.188 448.32 505.721 447.04C508.255 445.76 511.321 445.12 514.921 445.12C518.548 445.12 521.615 445.76 524.121 447.04C526.655 448.293 528.575 450.027 529.881 452.24C531.215 454.453 531.881 456.987 531.881 459.84C531.881 462.64 531.215 465.147 529.881 467.36C528.575 469.573 526.655 471.32 524.121 472.6C521.615 473.853 518.548 474.48 514.921 474.48ZM514.921 468.4C517.641 468.4 519.801 467.693 521.401 466.28C523.001 464.84 523.801 462.853 523.801 460.32V459.28C523.801 456.747 523.001 454.773 521.401 453.36C519.801 451.92 517.641 451.2 514.921 451.2C512.201 451.2 510.041 451.92 508.441 453.36C506.841 454.773 506.041 456.747 506.041 459.28V460.32C506.041 462.853 506.841 464.84 508.441 466.28C510.041 467.693 512.201 468.4 514.921 468.4ZM533.886 474V445.6H551.406C555.192 445.6 558.032 446.413 559.926 448.04C561.846 449.64 562.806 451.973 562.806 455.04C562.806 457.253 562.272 459.093 561.206 460.56C560.166 462.027 558.646 463.12 556.646 463.84L563.086 474H553.966L548.446 464.88H541.886V474H533.886ZM550.686 451.52H541.886V459.16H550.686C553.432 459.16 554.806 457.947 554.806 455.52V455.12C554.806 452.72 553.432 451.52 550.686 451.52ZM564.825 474V445.6H576.905L586.425 465.32H586.465L595.985 445.6H608.145V474H600.145V452.96H600.105L589.865 474H582.545L572.305 452.96H572.265V474H564.825ZM681.211 474.48C678.678 474.48 676.411 474.173 674.411 473.56C672.438 472.92 670.891 471.987 669.771 470.76C668.651 469.533 668.091 468.027 668.091 466.24C668.091 464.587 668.678 463.133 669.851 461.88C671.024 460.627 672.878 459.6 675.411 458.8C674.478 457.867 673.704 456.907 673.091 455.92C672.504 454.933 672.211 453.853 672.211 452.68C672.211 451.187 672.678 449.88 673.611 448.76C674.544 447.613 675.851 446.72 677.531 446.08C679.238 445.44 681.224 445.12 683.491 445.12C685.651 445.12 687.571 445.4 689.251 445.96C690.958 446.52 692.291 447.36 693.251 448.48C694.211 449.573 694.691 450.947 694.691 452.6C694.691 454.307 694.091 455.84 692.891 457.2C691.691 458.533 689.624 459.64 686.691 460.52L691.371 464.6C692.491 463.453 693.291 462.427 693.771 461.52C694.251 460.613 694.678 459.613 695.051 458.52H702.331C702.011 459.96 701.584 461.253 701.051 462.4C700.544 463.52 699.891 464.587 699.091 465.6C698.291 466.613 697.304 467.653 696.131 468.72L702.211 474H691.691L690.211 472.6C688.958 473.187 687.584 473.653 686.091 474C684.624 474.32 682.998 474.48 681.211 474.48ZM680.171 453.24C680.171 453.933 680.344 454.533 680.691 455.04C681.038 455.52 681.584 456.08 682.331 456.72C684.198 456.16 685.491 455.64 686.211 455.16C686.931 454.68 687.291 454.04 687.291 453.24C687.291 452.573 686.984 452.027 686.371 451.6C685.758 451.147 684.784 450.92 683.451 450.92C682.304 450.92 681.464 451.16 680.931 451.64C680.424 452.12 680.171 452.653 680.171 453.24ZM676.571 465.6C676.571 466.48 676.984 467.2 677.811 467.76C678.638 468.293 679.984 468.56 681.851 468.56C682.598 468.56 683.264 468.533 683.851 468.48C684.438 468.4 684.958 468.293 685.411 468.16L679.451 462.64C677.531 463.333 676.571 464.32 676.571 465.6ZM472.32 509V480.6H497.52V486.52H480.32V492.68H496.64V498.36H480.32V509H472.32ZM513.954 509.48C510.86 509.48 508.194 509.08 505.954 508.28C503.74 507.453 502.034 506.173 500.834 504.44C499.634 502.707 499.034 500.44 499.034 497.64V480.6H507.034V497.28C507.034 498.533 507.234 499.613 507.634 500.52C508.034 501.427 508.74 502.12 509.754 502.6C510.767 503.08 512.207 503.32 514.074 503.32C515.914 503.32 517.34 503.08 518.354 502.6C519.394 502.12 520.114 501.427 520.514 500.52C520.94 499.613 521.154 498.533 521.154 497.28V480.6H528.954V497.64C528.954 500.44 528.354 502.707 527.154 504.44C525.954 506.173 524.234 507.453 521.994 508.28C519.78 509.08 517.1 509.48 513.954 509.48ZM531.698 509V480.6H539.898L553.498 496.52H553.538V480.6H560.978V509H554.858L539.178 490.68H539.138V509H531.698ZM580.524 509.52C577.111 509.52 574.071 508.92 571.404 507.72C568.764 506.493 566.684 504.787 565.164 502.6C563.671 500.387 562.924 497.787 562.924 494.8C562.924 491.813 563.671 489.227 565.164 487.04C566.684 484.853 568.764 483.16 571.404 481.96C574.071 480.76 577.111 480.16 580.524 480.16C583.511 480.16 586.138 480.587 588.404 481.44C590.671 482.293 592.538 483.467 594.004 484.96C595.471 486.427 596.458 488.08 596.964 489.92L589.804 491.64C589.244 490.253 588.498 489.173 587.564 488.4C586.631 487.6 585.564 487.04 584.364 486.72C583.191 486.4 581.951 486.24 580.644 486.24C578.884 486.24 577.271 486.547 575.804 487.16C574.338 487.747 573.164 488.64 572.284 489.84C571.431 491.04 571.004 492.56 571.004 494.4V495.2C571.004 497.013 571.431 498.533 572.284 499.76C573.164 500.96 574.338 501.867 575.804 502.48C577.271 503.067 578.884 503.36 580.644 503.36C581.951 503.36 583.191 503.2 584.364 502.88C585.564 502.56 586.631 502.013 587.564 501.24C588.498 500.44 589.244 499.347 589.804 497.96L596.964 499.68C596.458 501.52 595.471 503.187 594.004 504.68C592.538 506.147 590.671 507.32 588.404 508.2C586.138 509.08 583.511 509.52 580.524 509.52ZM606.653 509V486.52H595.373V480.6H625.933V486.52H614.653V509H606.653ZM627.289 509V480.6H635.289V509H627.289ZM654.265 509.48C650.665 509.48 647.598 508.853 645.065 507.6C642.558 506.32 640.638 504.573 639.305 502.36C637.972 500.147 637.305 497.64 637.305 494.84C637.305 492.013 637.958 489.493 639.265 487.28C640.598 485.067 642.532 483.32 645.065 482.04C647.598 480.76 650.665 480.12 654.265 480.12C657.892 480.12 660.958 480.76 663.465 482.04C665.998 483.293 667.918 485.027 669.225 487.24C670.558 489.453 671.225 491.987 671.225 494.84C671.225 497.64 670.558 500.147 669.225 502.36C667.918 504.573 665.998 506.32 663.465 507.6C660.958 508.853 657.892 509.48 654.265 509.48ZM654.265 503.4C656.985 503.4 659.145 502.693 660.745 501.28C662.345 499.84 663.145 497.853 663.145 495.32V494.28C663.145 491.747 662.345 489.773 660.745 488.36C659.145 486.92 656.985 486.2 654.265 486.2C651.545 486.2 649.385 486.92 647.785 488.36C646.185 489.773 645.385 491.747 645.385 494.28V495.32C645.385 497.853 646.185 499.84 647.785 501.28C649.385 502.693 651.545 503.4 654.265 503.4ZM673.229 509V480.6H681.429L695.029 496.52H695.069V480.6H702.509V509H696.389L680.709 490.68H680.669V509H673.229Z" fill="#FFFAEE"/>
<path d="M659.5 605H405C388.431 605 375 591.569 375 575V524C375 507.431 388.431 494 405 494H462.5" stroke="#FFFAEE" stroke-linecap="round" stroke-dasharray="2 8"/>
<path fill-rule="evenodd" clip-rule="evenodd" d="M481.869 558C478.307 558 475.077 559.407 472.708 561.69V558H467V584H472.708V580.31C475.077 582.593 478.307 584 481.869 584H484V582.42H481.869C478.14 582.42 474.82 580.66 472.708 577.936C472.05 577.087 471.508 576.147 471.111 575.136V582.416H468.593V559.58H471.111V566.86C471.508 565.85 472.05 564.909 472.708 564.06C474.82 561.337 478.14 559.577 481.869 559.577H482.403V562.068H481.869C476.893 562.068 472.845 566.074 472.845 570.998C472.845 575.923 476.893 579.928 481.869 579.928H484V574.28H481.869C480.042 574.28 478.552 572.81 478.552 570.998C478.552 569.186 480.038 567.716 481.869 567.716H484V566.136H481.869C479.161 566.136 476.956 568.315 476.956 570.994C476.956 573.673 479.158 575.853 481.869 575.853H482.403V578.344H481.869C477.773 578.344 474.442 575.048 474.442 570.994C474.442 566.941 477.773 563.645 481.869 563.645H484V558H481.869Z" fill="#FFFAEE"/>
<path d="M683 616L672 605L683 594L694 605L683 616ZM673.594 605L683.003 614.41L692.413 605L683 595.594L673.594 605Z" fill="#FFFAEE"/>
<path d="M694 616L683 605L694 594L705 605L694 616ZM684.594 605L694.003 614.41L703.413 605L694 595.594L684.594 605Z" fill="#FFFAEE"/>
</svg>
