<svg width="1080" height="1080" viewBox="0 0 1080 1080" fill="none" xmlns="http://www.w3.org/2000/svg">
<rect width="1080" height="1080" fill="#191919"/>
<path d="M405.152 496.24C404.064 496.24 403.12 496.072 402.32 495.736C401.52 495.384 400.896 494.88 400.448 494.224C400 493.568 399.744 492.776 399.68 491.848H401.144C401.208 492.888 401.592 493.672 402.296 494.2C403 494.728 403.952 494.992 405.152 494.992C406.576 494.992 407.616 494.6 408.272 493.816C408.944 493.016 409.28 492.032 409.28 490.864C409.28 490.08 409.144 489.376 408.872 488.752C408.616 488.112 408.192 487.608 407.6 487.24C407.008 486.856 406.216 486.664 405.224 486.664C404.36 486.648 403.616 486.808 402.992 487.144C402.384 487.464 401.896 487.92 401.528 488.512H400.016L401.144 479.032H409.88V480.28H402.392L401.6 487.024H401.672C401.992 486.512 402.456 486.12 403.064 485.848C403.672 485.56 404.352 485.416 405.104 485.416C406.336 485.416 407.36 485.656 408.176 486.136C409.008 486.616 409.632 487.264 410.048 488.08C410.48 488.88 410.696 489.792 410.696 490.816C410.696 491.872 410.472 492.808 410.024 493.624C409.576 494.44 408.936 495.08 408.104 495.544C407.288 496.008 406.304 496.24 405.152 496.24ZM426.149 496H424.709V479.992L425.213 480.112L420.389 483.376V481.864L424.541 479.032H426.149V496ZM442.644 486.832C441.412 486.832 440.444 486.448 439.74 485.68C439.052 484.896 438.708 483.928 438.708 482.776C438.708 481.608 439.052 480.64 439.74 479.872C440.444 479.104 441.412 478.72 442.644 478.72C443.892 478.72 444.86 479.104 445.548 479.872C446.252 480.64 446.604 481.608 446.604 482.776C446.604 483.928 446.252 484.896 445.548 485.68C444.86 486.448 443.892 486.832 442.644 486.832ZM442.644 485.776C443.54 485.776 444.228 485.496 444.708 484.936C445.204 484.36 445.452 483.64 445.452 482.776C445.452 481.928 445.204 481.224 444.708 480.664C444.228 480.088 443.54 479.8 442.644 479.8C441.764 479.8 441.076 480.088 440.58 480.664C440.1 481.224 439.86 481.928 439.86 482.776C439.86 483.64 440.1 484.36 440.58 484.936C441.076 485.496 441.764 485.776 442.644 485.776ZM461.789 496.24C460.701 496.24 459.757 496.072 458.957 495.736C458.157 495.384 457.533 494.88 457.085 494.224C456.637 493.568 456.381 492.776 456.317 491.848H457.781C457.845 492.888 458.229 493.672 458.933 494.2C459.637 494.728 460.589 494.992 461.789 494.992C463.213 494.992 464.253 494.6 464.909 493.816C465.581 493.016 465.917 492.032 465.917 490.864C465.917 490.08 465.781 489.376 465.509 488.752C465.253 488.112 464.829 487.608 464.237 487.24C463.645 486.856 462.853 486.664 461.861 486.664C460.997 486.648 460.253 486.808 459.629 487.144C459.021 487.464 458.533 487.92 458.165 488.512H456.653L457.781 479.032H466.517V480.28H459.029L458.237 487.024H458.309C458.629 486.512 459.093 486.12 459.701 485.848C460.309 485.56 460.989 485.416 461.741 485.416C462.973 485.416 463.997 485.656 464.813 486.136C465.645 486.616 466.269 487.264 466.685 488.08C467.117 488.88 467.333 489.792 467.333 490.816C467.333 491.872 467.109 492.808 466.661 493.624C466.213 494.44 465.573 495.08 464.741 495.544C463.925 496.008 462.941 496.24 461.789 496.24ZM482.691 496.24C481.299 496.24 480.163 495.928 479.283 495.304C478.419 494.664 477.787 493.704 477.387 492.424C476.987 491.128 476.787 489.488 476.787 487.504C476.787 485.52 476.987 483.888 477.387 482.608C477.803 481.328 478.443 480.376 479.307 479.752C480.187 479.112 481.315 478.792 482.691 478.792C484.083 478.792 485.211 479.112 486.075 479.752C486.955 480.376 487.595 481.328 487.995 482.608C488.411 483.888 488.619 485.52 488.619 487.504C488.619 489.472 488.411 491.104 487.995 492.4C487.595 493.696 486.955 494.664 486.075 495.304C485.211 495.928 484.083 496.24 482.691 496.24ZM482.691 494.992C484.323 494.992 485.483 494.376 486.171 493.144C486.859 491.912 487.203 490.032 487.203 487.504C487.203 484.976 486.859 483.104 486.171 481.888C485.483 480.656 484.323 480.04 482.691 480.04C481.075 480.04 479.923 480.656 479.235 481.888C478.547 483.104 478.203 484.976 478.203 487.504C478.203 490.032 478.539 491.912 479.211 493.144C479.899 494.376 481.059 494.992 482.691 494.992ZM499.821 483.856H498.693V477.64H499.989L499.821 483.856ZM516.084 496H514.644V479.992L515.148 480.112L510.324 483.376V481.864L514.476 479.032H516.084V496ZM534.499 496.24C532.467 496.24 530.979 495.832 530.035 495.016C529.107 494.2 528.643 493.064 528.643 491.608C528.659 490.824 528.803 490.12 529.075 489.496C529.363 488.872 529.763 488.36 530.275 487.96C530.803 487.56 531.403 487.304 532.075 487.192V487.096C531.195 486.872 530.507 486.416 530.011 485.728C529.531 485.024 529.291 484.176 529.291 483.184C529.291 482.336 529.475 481.584 529.843 480.928C530.227 480.256 530.803 479.736 531.571 479.368C532.355 478.984 533.331 478.792 534.499 478.792C535.667 478.792 536.635 478.984 537.403 479.368C538.171 479.736 538.739 480.256 539.107 480.928C539.491 481.584 539.675 482.336 539.659 483.184C539.643 484.16 539.395 485 538.915 485.704C538.435 486.408 537.755 486.872 536.875 487.096V487.192C537.547 487.304 538.147 487.56 538.675 487.96C539.203 488.36 539.611 488.872 539.899 489.496C540.203 490.12 540.355 490.824 540.355 491.608C540.355 492.584 540.147 493.416 539.731 494.104C539.315 494.792 538.675 495.32 537.811 495.688C536.947 496.056 535.843 496.24 534.499 496.24ZM534.499 494.992C536.035 494.992 537.163 494.672 537.883 494.032C538.603 493.392 538.963 492.52 538.963 491.416C538.963 490.328 538.579 489.464 537.811 488.824C537.043 488.184 535.939 487.864 534.499 487.864C533.043 487.864 531.931 488.184 531.163 488.824C530.411 489.464 530.035 490.328 530.035 491.416C530.035 492.52 530.395 493.392 531.115 494.032C531.835 494.672 532.963 494.992 534.499 494.992ZM534.499 486.616C535.747 486.616 536.691 486.328 537.331 485.752C537.987 485.16 538.315 484.36 538.315 483.352C538.315 482.328 537.995 481.52 537.355 480.928C536.731 480.336 535.779 480.04 534.499 480.04C533.203 480.04 532.243 480.336 531.619 480.928C530.995 481.52 530.683 482.328 530.683 483.352C530.683 484.36 531.003 485.16 531.643 485.752C532.283 486.328 533.235 486.616 534.499 486.616ZM551.632 483.856H550.48V477.64H551.824L551.632 483.856ZM555.76 483.856H554.608V477.64H555.952L555.76 483.856ZM579.696 496H578.088L568.608 481.432H568.416V496H567V479.032H568.632L578.088 493.576H578.28V479.032H579.696V496ZM685.074 496H683.634V479.992L684.138 480.112L679.314 483.376V481.864L683.466 479.032H685.074V496ZM697.8 494.824L703.608 488.608C704.344 487.824 704.944 487.136 705.408 486.544C705.872 485.936 706.216 485.376 706.44 484.864C706.68 484.336 706.8 483.8 706.8 483.256C706.8 482.216 706.464 481.424 705.792 480.88C705.12 480.32 704.224 480.04 703.104 480.04C701.984 480.04 701.064 480.376 700.344 481.048C699.624 481.704 699.28 482.608 699.312 483.76H697.92C697.904 482.72 698.12 481.832 698.568 481.096C699.016 480.36 699.64 479.792 700.44 479.392C701.24 478.992 702.152 478.792 703.176 478.792C704.248 478.792 705.152 478.976 705.888 479.344C706.64 479.696 707.216 480.208 707.616 480.88C708.016 481.536 708.216 482.328 708.216 483.256C708.216 483.864 708.112 484.456 707.904 485.032C707.696 485.592 707.312 486.24 706.752 486.976C706.208 487.696 705.416 488.608 704.376 489.712L698.904 495.568L699 494.752H708.432V496H697.8V494.824ZM721.768 486.832C720.536 486.832 719.568 486.448 718.864 485.68C718.176 484.896 717.832 483.928 717.832 482.776C717.832 481.608 718.176 480.64 718.864 479.872C719.568 479.104 720.536 478.72 721.768 478.72C723.016 478.72 723.984 479.104 724.672 479.872C725.376 480.64 725.728 481.608 725.728 482.776C725.728 483.928 725.376 484.896 724.672 485.68C723.984 486.448 723.016 486.832 721.768 486.832ZM721.768 485.776C722.664 485.776 723.352 485.496 723.832 484.936C724.328 484.36 724.576 483.64 724.576 482.776C724.576 481.928 724.328 481.224 723.832 480.664C723.352 480.088 722.664 479.8 721.768 479.8C720.888 479.8 720.2 480.088 719.704 480.664C719.224 481.224 718.984 481.928 718.984 482.776C718.984 483.64 719.224 484.36 719.704 484.936C720.2 485.496 720.888 485.776 721.768 485.776ZM740.961 496H739.521V479.992L740.025 480.112L735.201 483.376V481.864L739.353 479.032H740.961V496ZM759.496 496.24C758.392 496.24 757.424 496.072 756.592 495.736C755.776 495.4 755.136 494.888 754.672 494.2C754.208 493.512 753.944 492.648 753.88 491.608H755.44C755.472 492.36 755.656 492.992 755.992 493.504C756.344 494 756.816 494.376 757.408 494.632C758 494.872 758.704 494.992 759.52 494.992C760.768 494.992 761.776 494.656 762.544 493.984C763.312 493.296 763.696 492.312 763.696 491.032C763.696 489.8 763.32 488.84 762.568 488.152C761.832 487.464 760.8 487.12 759.472 487.12H757.6L757.576 486.088L763.36 479.728L763.48 480.28H754.576V479.032H764.728V480.184L759.184 486.256V485.896C760.368 485.88 761.344 486.032 762.112 486.352C762.88 486.656 763.48 487.072 763.912 487.6C764.36 488.112 764.672 488.672 764.848 489.28C765.04 489.872 765.136 490.456 765.136 491.032C765.136 492.152 764.904 493.104 764.44 493.888C763.976 494.656 763.32 495.24 762.472 495.64C761.64 496.04 760.648 496.24 759.496 496.24ZM776.601 483.856H775.473V477.64H776.769L776.601 483.856ZM792.84 496.24C791.736 496.24 790.768 496.072 789.936 495.736C789.12 495.4 788.48 494.888 788.016 494.2C787.552 493.512 787.288 492.648 787.224 491.608H788.784C788.816 492.36 789 492.992 789.336 493.504C789.688 494 790.16 494.376 790.752 494.632C791.344 494.872 792.048 494.992 792.864 494.992C794.112 494.992 795.12 494.656 795.888 493.984C796.656 493.296 797.04 492.312 797.04 491.032C797.04 489.8 796.664 488.84 795.912 488.152C795.176 487.464 794.144 487.12 792.816 487.12H790.944L790.92 486.088L796.704 479.728L796.824 480.28H787.92V479.032H798.072V480.184L792.528 486.256V485.896C793.712 485.88 794.688 486.032 795.456 486.352C796.224 486.656 796.824 487.072 797.256 487.6C797.704 488.112 798.016 488.672 798.192 489.28C798.384 489.872 798.48 490.456 798.48 491.032C798.48 492.152 798.248 493.104 797.784 493.888C797.32 494.656 796.664 495.24 795.816 495.64C794.984 496.04 793.992 496.24 792.84 496.24ZM813.833 496.24C811.801 496.24 810.313 495.832 809.369 495.016C808.441 494.2 807.977 493.064 807.977 491.608C807.993 490.824 808.137 490.12 808.409 489.496C808.697 488.872 809.097 488.36 809.609 487.96C810.137 487.56 810.737 487.304 811.409 487.192V487.096C810.529 486.872 809.841 486.416 809.345 485.728C808.865 485.024 808.625 484.176 808.625 483.184C808.625 482.336 808.809 481.584 809.177 480.928C809.561 480.256 810.137 479.736 810.905 479.368C811.689 478.984 812.665 478.792 813.833 478.792C815.001 478.792 815.969 478.984 816.737 479.368C817.505 479.736 818.073 480.256 818.441 480.928C818.825 481.584 819.009 482.336 818.993 483.184C818.977 484.16 818.729 485 818.249 485.704C817.769 486.408 817.089 486.872 816.209 487.096V487.192C816.881 487.304 817.481 487.56 818.009 487.96C818.537 488.36 818.945 488.872 819.233 489.496C819.537 490.12 819.689 490.824 819.689 491.608C819.689 492.584 819.481 493.416 819.065 494.104C818.649 494.792 818.009 495.32 817.145 495.688C816.281 496.056 815.177 496.24 813.833 496.24ZM813.833 494.992C815.369 494.992 816.497 494.672 817.217 494.032C817.937 493.392 818.297 492.52 818.297 491.416C818.297 490.328 817.913 489.464 817.145 488.824C816.377 488.184 815.273 487.864 813.833 487.864C812.377 487.864 811.265 488.184 810.497 488.824C809.745 489.464 809.369 490.328 809.369 491.416C809.369 492.52 809.729 493.392 810.449 494.032C811.169 494.672 812.297 494.992 813.833 494.992ZM813.833 486.616C815.081 486.616 816.025 486.328 816.665 485.752C817.321 485.16 817.649 484.36 817.649 483.352C817.649 482.328 817.329 481.52 816.689 480.928C816.065 480.336 815.113 480.04 813.833 480.04C812.537 480.04 811.577 480.336 810.953 480.928C810.329 481.52 810.017 482.328 810.017 483.352C810.017 484.36 810.337 485.16 810.977 485.752C811.617 486.328 812.569 486.616 813.833 486.616ZM830.967 483.856H829.815V477.64H831.159L830.967 483.856ZM835.095 483.856H833.943V477.64H835.287L835.095 483.856ZM846.335 479.032H855.887V480.28H847.775V486.88H855.335V488.128H847.775V494.752H856.007V496H846.335V479.032Z" fill="#FFFAEE"/>
<path d="M409.328 534.704C409.2 533.712 408.76 533.024 408.008 532.64C407.272 532.256 406.296 532.064 405.08 532.064C403.688 532.064 402.656 532.336 401.984 532.88C401.312 533.408 400.976 534.192 400.976 535.232C400.976 535.84 401.088 536.336 401.312 536.72C401.552 537.104 401.856 537.416 402.224 537.656C402.592 537.88 402.984 538.064 403.4 538.208C403.816 538.336 404.2 538.448 404.552 538.544L406.4 539.048C406.864 539.176 407.368 539.336 407.912 539.528C408.456 539.72 408.968 539.984 409.448 540.32C409.944 540.656 410.344 541.088 410.648 541.616C410.952 542.144 411.104 542.8 411.104 543.584C411.104 544.48 410.888 545.288 410.456 546.008C410.024 546.728 409.36 547.296 408.464 547.712C407.568 548.112 406.424 548.312 405.032 548.312C403.176 548.312 401.752 547.936 400.76 547.184C399.768 546.432 399.208 545.416 399.08 544.136H400.568C400.664 544.904 400.912 545.496 401.312 545.912C401.712 546.328 402.224 546.624 402.848 546.8C403.488 546.96 404.216 547.04 405.032 547.04C406.504 547.04 407.64 546.76 408.44 546.2C409.256 545.624 409.664 544.736 409.664 543.536C409.664 542.816 409.488 542.248 409.136 541.832C408.8 541.416 408.344 541.088 407.768 540.848C407.208 540.608 406.6 540.4 405.944 540.224L403.64 539.6C402.328 539.232 401.312 538.72 400.592 538.064C399.888 537.408 399.536 536.504 399.536 535.352C399.536 534.408 399.76 533.6 400.208 532.928C400.672 532.24 401.32 531.712 402.152 531.344C403 530.976 404 530.792 405.152 530.792C406.272 530.792 407.232 530.96 408.032 531.296C408.848 531.616 409.488 532.072 409.952 532.664C410.432 533.24 410.704 533.92 410.768 534.704H409.328ZM418.085 531.032H430.613V532.28H425.069V548H423.629V532.28H418.085V531.032ZM443.304 532.88H443.208L437.88 548H436.416L442.488 531.032H444.12L450.168 548H448.632L443.304 532.88ZM447.168 542.912H439.416V541.664H447.168V542.912ZM464.497 532.88H464.401L459.073 548H457.609L463.681 531.032H465.313L471.361 548H469.825L464.497 532.88ZM468.361 542.912H460.609V541.664H468.361V542.912ZM477.141 531.032H489.669V532.28H484.125V548H482.685V532.28H477.141V531.032ZM498.109 531.032H499.549V546.752H507.637V548H498.109V531.032ZM520.063 548H518.623V531.032H520.063V548ZM516.007 532.28V531.032H522.655V532.28H516.007ZM516.007 548V546.752H522.655V548H516.007ZM543.71 535.952C543.502 534.656 542.982 533.688 542.15 533.048C541.334 532.408 540.246 532.088 538.886 532.088C537.094 532.088 535.702 532.696 534.71 533.912C533.734 535.128 533.246 536.984 533.246 539.48C533.246 541.992 533.734 543.864 534.71 545.096C535.702 546.312 537.094 546.92 538.886 546.92C540.246 546.92 541.334 546.6 542.15 545.96C542.982 545.32 543.51 544.36 543.734 543.08H545.246C544.974 544.76 544.302 546.04 543.23 546.92C542.158 547.8 540.71 548.24 538.886 548.24C536.518 548.24 534.742 547.48 533.558 545.96C532.39 544.424 531.806 542.264 531.806 539.48C531.806 536.712 532.39 534.576 533.558 533.072C534.742 531.552 536.518 530.792 538.886 530.792C540.022 530.792 541.03 530.984 541.91 531.368C542.806 531.752 543.534 532.328 544.094 533.096C544.67 533.864 545.046 534.816 545.222 535.952H543.71ZM554.938 531.032H556.378V538.88H565.858V531.032H567.298V548H565.858V540.128H556.378V548H554.938V531.032ZM577.772 531.032H587.324V532.28H579.212V538.88H586.772V540.128H579.212V546.752H587.444V548H577.772V531.032ZM606.376 534.704C606.248 533.712 605.808 533.024 605.056 532.64C604.32 532.256 603.344 532.064 602.128 532.064C600.736 532.064 599.704 532.336 599.032 532.88C598.36 533.408 598.024 534.192 598.024 535.232C598.024 535.84 598.136 536.336 598.36 536.72C598.6 537.104 598.904 537.416 599.272 537.656C599.64 537.88 600.032 538.064 600.448 538.208C600.864 538.336 601.248 538.448 601.6 538.544L603.448 539.048C603.912 539.176 604.416 539.336 604.96 539.528C605.504 539.72 606.016 539.984 606.496 540.32C606.992 540.656 607.392 541.088 607.696 541.616C608 542.144 608.152 542.8 608.152 543.584C608.152 544.48 607.936 545.288 607.504 546.008C607.072 546.728 606.408 547.296 605.512 547.712C604.616 548.112 603.472 548.312 602.08 548.312C600.224 548.312 598.8 547.936 597.808 547.184C596.816 546.432 596.256 545.416 596.128 544.136H597.616C597.712 544.904 597.96 545.496 598.36 545.912C598.76 546.328 599.272 546.624 599.896 546.8C600.536 546.96 601.264 547.04 602.08 547.04C603.552 547.04 604.688 546.76 605.488 546.2C606.304 545.624 606.712 544.736 606.712 543.536C606.712 542.816 606.536 542.248 606.184 541.832C605.848 541.416 605.392 541.088 604.816 540.848C604.256 540.608 603.648 540.4 602.992 540.224L600.688 539.6C599.376 539.232 598.36 538.72 597.64 538.064C596.936 537.408 596.584 536.504 596.584 535.352C596.584 534.408 596.808 533.6 597.256 532.928C597.72 532.24 598.368 531.712 599.2 531.344C600.048 530.976 601.048 530.792 602.2 530.792C603.32 530.792 604.28 530.96 605.08 531.296C605.896 531.616 606.536 532.072 607 532.664C607.48 533.24 607.752 533.92 607.816 534.704H606.376ZM629.492 531.032H635.348C636.564 531.032 637.54 531.224 638.276 531.608C639.028 531.976 639.572 532.496 639.908 533.168C640.244 533.84 640.412 534.608 640.412 535.472C640.412 536.224 640.252 536.864 639.932 537.392C639.612 537.904 639.204 538.312 638.708 538.616C638.228 538.904 637.732 539.088 637.22 539.168V539.312C637.652 539.328 638.092 539.432 638.54 539.624C638.988 539.8 639.404 540.064 639.788 540.416C640.188 540.768 640.508 541.208 640.748 541.736C640.988 542.248 641.108 542.856 641.108 543.56C641.108 544.44 640.924 545.216 640.556 545.888C640.204 546.544 639.62 547.064 638.804 547.448C638.004 547.816 636.916 548 635.54 548H629.492V531.032ZM635.516 546.752C636.652 546.752 637.516 546.608 638.108 546.32C638.7 546.016 639.1 545.616 639.308 545.12C639.532 544.624 639.644 544.096 639.644 543.536C639.644 542.88 639.508 542.288 639.236 541.76C638.98 541.216 638.556 540.784 637.964 540.464C637.388 540.144 636.612 539.984 635.636 539.984H630.932V546.752H635.516ZM635.252 538.736C636.532 538.736 637.468 538.448 638.06 537.872C638.668 537.28 638.972 536.488 638.972 535.496C638.972 534.92 638.876 534.392 638.684 533.912C638.492 533.416 638.132 533.024 637.604 532.736C637.092 532.432 636.34 532.28 635.348 532.28H630.932V538.736H635.252ZM655.733 532.88H655.637L650.309 548H648.845L654.917 531.032H656.549L662.597 548H661.061L655.733 532.88ZM659.597 542.912H651.845V541.664H659.597V542.912ZM683.205 531.032V542.576C683.205 543.696 682.989 544.688 682.557 545.552C682.141 546.416 681.485 547.096 680.589 547.592C679.693 548.072 678.517 548.312 677.061 548.312C675.621 548.312 674.445 548.072 673.533 547.592C672.637 547.096 671.973 546.416 671.541 545.552C671.125 544.688 670.917 543.696 670.917 542.576V531.032H672.357V542.36C672.357 543.304 672.501 544.128 672.789 544.832C673.077 545.536 673.565 546.08 674.253 546.464C674.941 546.832 675.877 547.016 677.061 547.016C678.261 547.016 679.197 546.832 679.869 546.464C680.557 546.08 681.045 545.536 681.333 544.832C681.621 544.128 681.765 543.304 681.765 542.36V531.032H683.205ZM693.634 531.032H695.074V538.88H704.554V531.032H705.994V548H704.554V540.128H695.074V548H693.634V531.032ZM721.844 532.88H721.748L716.42 548H714.956L721.028 531.032H722.66L728.708 548H727.172L721.844 532.88ZM725.708 542.912H717.956V541.664H725.708V542.912ZM749.315 531.032V542.576C749.315 543.696 749.099 544.688 748.667 545.552C748.251 546.416 747.595 547.096 746.699 547.592C745.803 548.072 744.627 548.312 743.171 548.312C741.731 548.312 740.555 548.072 739.643 547.592C738.747 547.096 738.083 546.416 737.651 545.552C737.235 544.688 737.027 543.696 737.027 542.576V531.032H738.467V542.36C738.467 543.304 738.611 544.128 738.899 544.832C739.187 545.536 739.675 546.08 740.363 546.464C741.051 546.832 741.987 547.016 743.171 547.016C744.371 547.016 745.307 546.832 745.979 546.464C746.667 546.08 747.155 545.536 747.443 544.832C747.731 544.128 747.875 543.304 747.875 542.36V531.032H749.315ZM768.961 534.704C768.833 533.712 768.393 533.024 767.641 532.64C766.905 532.256 765.929 532.064 764.713 532.064C763.321 532.064 762.289 532.336 761.617 532.88C760.945 533.408 760.609 534.192 760.609 535.232C760.609 535.84 760.721 536.336 760.945 536.72C761.185 537.104 761.489 537.416 761.857 537.656C762.225 537.88 762.617 538.064 763.033 538.208C763.449 538.336 763.833 538.448 764.185 538.544L766.033 539.048C766.497 539.176 767.001 539.336 767.545 539.528C768.089 539.72 768.601 539.984 769.081 540.32C769.577 540.656 769.977 541.088 770.281 541.616C770.585 542.144 770.737 542.8 770.737 543.584C770.737 544.48 770.521 545.288 770.089 546.008C769.657 546.728 768.993 547.296 768.097 547.712C767.201 548.112 766.057 548.312 764.665 548.312C762.809 548.312 761.385 547.936 760.393 547.184C759.401 546.432 758.841 545.416 758.713 544.136H760.201C760.297 544.904 760.545 545.496 760.945 545.912C761.345 546.328 761.857 546.624 762.481 546.8C763.121 546.96 763.849 547.04 764.665 547.04C766.137 547.04 767.273 546.76 768.073 546.2C768.889 545.624 769.297 544.736 769.297 543.536C769.297 542.816 769.121 542.248 768.769 541.832C768.433 541.416 767.977 541.088 767.401 540.848C766.841 540.608 766.233 540.4 765.577 540.224L763.273 539.6C761.961 539.232 760.945 538.72 760.225 538.064C759.521 537.408 759.169 536.504 759.169 535.352C759.169 534.408 759.393 533.6 759.841 532.928C760.305 532.24 760.953 531.712 761.785 531.344C762.633 530.976 763.633 530.792 764.785 530.792C765.905 530.792 766.865 530.96 767.665 531.296C768.481 531.616 769.121 532.072 769.585 532.664C770.065 533.24 770.337 533.92 770.401 534.704H768.961Z" fill="#FFFAEE"/>
<path d="M401.112 583.032H410.784V584.28H402.552V590.88H409.992V592.128H402.552V600H401.112V583.032ZM433.38 591.504C433.38 594.304 432.772 596.464 431.556 597.984C430.356 599.488 428.588 600.24 426.252 600.24C423.916 600.24 422.14 599.488 420.924 597.984C419.724 596.464 419.124 594.304 419.124 591.504C419.124 588.704 419.724 586.552 420.924 585.048C422.14 583.544 423.916 582.792 426.252 582.792C428.588 582.792 430.356 583.544 431.556 585.048C432.772 586.552 433.38 588.704 433.38 591.504ZM431.94 591.504C431.94 588.96 431.468 587.088 430.524 585.888C429.596 584.688 428.172 584.088 426.252 584.088C424.332 584.088 422.9 584.688 421.956 585.888C421.028 587.088 420.564 588.96 420.564 591.504C420.564 594.048 421.028 595.928 421.956 597.144C422.9 598.344 424.332 598.944 426.252 598.944C428.172 598.944 429.596 598.344 430.524 597.144C431.468 595.928 431.94 594.048 431.94 591.504ZM455.387 583.032V594.576C455.387 595.696 455.171 596.688 454.739 597.552C454.323 598.416 453.667 599.096 452.771 599.592C451.875 600.072 450.699 600.312 449.243 600.312C447.803 600.312 446.627 600.072 445.715 599.592C444.819 599.096 444.155 598.416 443.723 597.552C443.307 596.688 443.099 595.696 443.099 594.576V583.032H444.539V594.36C444.539 595.304 444.683 596.128 444.971 596.832C445.259 597.536 445.747 598.08 446.435 598.464C447.123 598.832 448.059 599.016 449.243 599.016C450.443 599.016 451.379 598.832 452.051 598.464C452.739 598.08 453.227 597.536 453.515 596.832C453.803 596.128 453.947 595.304 453.947 594.36V583.032H455.387ZM478.512 600H476.904L467.424 585.432H467.232V600H465.816V583.032H467.448L476.904 597.576H477.096V583.032H478.512V600ZM488.978 600V583.032H494.234C496.698 583.032 498.562 583.752 499.826 585.192C501.09 586.632 501.722 588.736 501.722 591.504C501.722 594.256 501.074 596.36 499.778 597.816C498.498 599.272 496.57 600 493.994 600H488.978ZM493.874 598.752C495.49 598.752 496.762 598.464 497.69 597.888C498.618 597.296 499.282 596.456 499.682 595.368C500.082 594.28 500.282 592.992 500.282 591.504C500.282 590 500.082 588.712 499.682 587.64C499.298 586.552 498.65 585.72 497.738 585.144C496.842 584.568 495.618 584.28 494.066 584.28H490.418V598.752H493.874ZM511.46 583.032H521.012V584.28H512.9V590.88H520.46V592.128H512.9V598.752H521.132V600H511.46V583.032ZM531.083 600V583.032H536.339C538.803 583.032 540.667 583.752 541.931 585.192C543.195 586.632 543.827 588.736 543.827 591.504C543.827 594.256 543.179 596.36 541.883 597.816C540.603 599.272 538.675 600 536.099 600H531.083ZM535.979 598.752C537.595 598.752 538.867 598.464 539.795 597.888C540.723 597.296 541.387 596.456 541.787 595.368C542.187 594.28 542.387 592.992 542.387 591.504C542.387 590 542.187 588.712 541.787 587.64C541.403 586.552 540.755 585.72 539.843 585.144C538.947 584.568 537.723 584.28 536.171 584.28H532.523V598.752H535.979ZM570.8 600H569.36V583.992L569.864 584.112L565.04 587.376V585.864L569.192 583.032H570.8V600ZM594.11 588.336C594.11 588.96 594.022 589.56 593.846 590.136C593.686 590.712 593.43 591.336 593.078 592.008C592.726 592.68 592.254 593.464 591.662 594.36L587.966 600H586.286L591.71 591.984L591.878 592.44C591.462 592.712 591.086 592.936 590.75 593.112C590.43 593.288 590.11 593.416 589.79 593.496C589.47 593.576 589.094 593.616 588.662 593.616C587.494 593.616 586.502 593.408 585.686 592.992C584.87 592.56 584.246 591.944 583.814 591.144C583.398 590.328 583.19 589.352 583.19 588.216C583.19 587.128 583.398 586.176 583.814 585.36C584.23 584.544 584.846 583.912 585.662 583.464C586.478 583.016 587.478 582.792 588.662 582.792C590.47 582.792 591.83 583.304 592.742 584.328C593.67 585.336 594.126 586.672 594.11 588.336ZM592.742 588.216C592.742 586.936 592.422 585.928 591.782 585.192C591.142 584.456 590.102 584.088 588.662 584.088C587.238 584.088 586.206 584.456 585.566 585.192C584.926 585.928 584.606 586.936 584.606 588.216C584.606 589.496 584.926 590.496 585.566 591.216C586.222 591.936 587.254 592.296 588.662 592.296C589.942 592.296 590.942 591.936 591.662 591.216C592.382 590.496 592.742 589.496 592.742 588.216ZM609.108 600H607.668V583.992L608.172 584.112L603.348 587.376V585.864L607.5 583.032H609.108V600ZM632.419 588.336C632.419 588.96 632.331 589.56 632.155 590.136C631.995 590.712 631.739 591.336 631.387 592.008C631.035 592.68 630.563 593.464 629.971 594.36L626.275 600H624.595L630.019 591.984L630.187 592.44C629.771 592.712 629.395 592.936 629.059 593.112C628.739 593.288 628.419 593.416 628.099 593.496C627.779 593.576 627.403 593.616 626.971 593.616C625.803 593.616 624.811 593.408 623.995 592.992C623.179 592.56 622.555 591.944 622.123 591.144C621.707 590.328 621.499 589.352 621.499 588.216C621.499 587.128 621.707 586.176 622.123 585.36C622.539 584.544 623.155 583.912 623.971 583.464C624.787 583.016 625.787 582.792 626.971 582.792C628.779 582.792 630.139 583.304 631.051 584.328C631.979 585.336 632.435 586.672 632.419 588.336ZM631.051 588.216C631.051 586.936 630.731 585.928 630.091 585.192C629.451 584.456 628.411 584.088 626.971 584.088C625.547 584.088 624.515 584.456 623.875 585.192C623.235 585.928 622.915 586.936 622.915 588.216C622.915 589.496 623.235 590.496 623.875 591.216C624.531 591.936 625.563 592.296 626.971 592.296C628.251 592.296 629.251 591.936 629.971 591.216C630.691 590.496 631.051 589.496 631.051 588.216Z" fill="#FFFAEE"/>
<path d="M849.032 600.312C847.912 600.312 846.824 600.112 845.768 599.712C844.712 599.312 843.76 598.728 842.912 597.96C842.064 597.192 841.384 596.264 840.872 595.176C840.376 594.088 840.128 592.848 840.128 591.456C840.128 590.064 840.376 588.824 840.872 587.736C841.384 586.648 842.064 585.728 842.912 584.976C843.76 584.208 844.712 583.624 845.768 583.224C846.824 582.824 847.912 582.624 849.032 582.624C850.152 582.624 851.24 582.824 852.296 583.224C853.352 583.624 854.304 584.208 855.152 584.976C856 585.728 856.672 586.648 857.168 587.736C857.664 588.824 857.912 590.064 857.912 591.456C857.912 592.848 857.664 594.088 857.168 595.176C856.672 596.264 856 597.192 855.152 597.96C854.304 598.728 853.352 599.312 852.296 599.712C851.24 600.112 850.152 600.312 849.032 600.312ZM849.032 599.208C849.976 599.208 850.904 599.04 851.816 598.704C852.728 598.352 853.552 597.848 854.288 597.192C855.024 596.52 855.608 595.704 856.04 594.744C856.488 593.784 856.712 592.688 856.712 591.456C856.712 590.224 856.488 589.128 856.04 588.168C855.608 587.208 855.024 586.4 854.288 585.744C853.552 585.072 852.728 584.568 851.816 584.232C850.904 583.88 849.976 583.704 849.032 583.704C848.072 583.704 847.136 583.88 846.224 584.232C845.312 584.568 844.488 585.072 843.752 585.744C843.016 586.4 842.424 587.208 841.976 588.168C841.544 589.128 841.328 590.224 841.328 591.456C841.328 592.688 841.544 593.784 841.976 594.744C842.424 595.704 843.016 596.52 843.752 597.192C844.488 597.848 845.312 598.352 846.224 598.704C847.136 599.04 848.072 599.208 849.032 599.208ZM849.128 596.16C847.656 596.16 846.544 595.736 845.792 594.888C845.04 594.04 844.664 592.888 844.664 591.432C844.664 589.976 845.048 588.832 845.816 588C846.6 587.168 847.688 586.752 849.08 586.752C849.816 586.752 850.448 586.872 850.976 587.112C851.52 587.352 851.952 587.696 852.272 588.144C852.608 588.576 852.824 589.096 852.92 589.704H851.576C851.464 589.144 851.232 588.704 850.88 588.384C850.544 588.064 849.952 587.904 849.104 587.904C848.08 587.904 847.296 588.208 846.752 588.816C846.208 589.424 845.936 590.296 845.936 591.432C845.936 592.584 846.208 593.472 846.752 594.096C847.296 594.704 848.08 595.008 849.104 595.008C849.904 595.008 850.488 594.88 850.856 594.624C851.224 594.352 851.464 593.92 851.576 593.328H852.92C852.856 593.888 852.664 594.384 852.344 594.816C852.04 595.232 851.616 595.56 851.072 595.8C850.544 596.04 849.896 596.16 849.128 596.16Z" fill="#FFFAEE"/>
<path d="M275.445 606C294.847 606 310.576 591.102 310.576 572.724C310.576 554.346 294.847 539.448 275.445 539.448C256.043 539.448 240.315 554.346 240.315 572.724C240.315 591.102 256.043 606 275.445 606Z" stroke="#FFFAEE" stroke-miterlimit="10"/>
<path d="M275.445 539.552C294.847 539.552 310.576 524.654 310.576 506.276C310.576 487.898 294.847 473 275.445 473C256.043 473 240.315 487.898 240.315 506.276C240.315 524.654 256.043 539.552 275.445 539.552Z" stroke="#FFFAEE" stroke-miterlimit="10"/>
<path d="M305.87 556.138C325.272 556.138 341 541.24 341 522.862C341 504.484 325.272 489.586 305.87 489.586C286.468 489.586 270.739 504.484 270.739 522.862C270.739 541.24 286.468 556.138 305.87 556.138Z" stroke="#FFFAEE" stroke-miterlimit="10"/>
<path d="M245.13 589.414C264.532 589.414 280.261 574.516 280.261 556.138C280.261 537.76 264.532 522.862 245.13 522.862C225.728 522.862 210 537.76 210 556.138C210 574.516 225.728 589.414 245.13 589.414Z" stroke="#FFFAEE" stroke-miterlimit="10"/>
<path d="M245.13 556.138C264.532 556.138 280.261 541.24 280.261 522.862C280.261 504.484 264.532 489.586 245.13 489.586C225.728 489.586 210 504.484 210 522.862C210 541.24 225.728 556.138 245.13 556.138Z" stroke="#FFFAEE" stroke-miterlimit="10"/>
<path d="M305.87 589.414C325.272 589.414 341 574.516 341 556.138C341 537.76 325.272 522.862 305.87 522.862C286.468 522.862 270.739 537.76 270.739 556.138C270.739 574.516 286.468 589.414 305.87 589.414Z" stroke="#FFFAEE" stroke-miterlimit="10"/>
<rect x="143.5" y="433.5" width="792" height="213" rx="106.5" stroke="#FFFAEE"/>
</svg>
