<svg width="1080" height="1080" viewBox="0 0 1080 1080" fill="none" xmlns="http://www.w3.org/2000/svg">
<rect width="1080" height="1080" fill="#191919"/>
<path d="M418.344 455.968L410.184 467.656L409.872 466.96H421.632V468.208H409.032V467.008L417.432 455.032H419.256V472H417.84V455.8L418.344 455.968ZM428.864 472.24C427.76 472.24 426.792 472.072 425.96 471.736C425.144 471.4 424.504 470.888 424.04 470.2C423.576 469.512 423.312 468.648 423.248 467.608H424.808C424.84 468.36 425.024 468.992 425.36 469.504C425.712 470 426.184 470.376 426.776 470.632C427.368 470.872 428.072 470.992 428.888 470.992C430.136 470.992 431.144 470.656 431.912 469.984C432.68 469.296 433.064 468.312 433.064 467.032C433.064 465.8 432.688 464.84 431.936 464.152C431.2 463.464 430.168 463.12 428.84 463.12H426.968L426.944 462.088L432.728 455.728L432.848 456.28H423.944V455.032H434.096V456.184L428.552 462.256V461.896C429.736 461.88 430.712 462.032 431.48 462.352C432.248 462.656 432.848 463.072 433.28 463.6C433.728 464.112 434.04 464.672 434.216 465.28C434.408 465.872 434.504 466.456 434.504 467.032C434.504 468.152 434.272 469.104 433.808 469.888C433.344 470.656 432.688 471.24 431.84 471.64C431.008 472.04 430.016 472.24 428.864 472.24ZM444.554 464.224L448.97 472H447.362L443.114 464.488L444.554 464.224ZM442.682 463.768C443.818 463.768 444.698 463.624 445.322 463.336C445.946 463.048 446.386 462.624 446.642 462.064C446.898 461.504 447.026 460.816 447.026 460C447.026 459.168 446.898 458.48 446.642 457.936C446.386 457.392 445.946 456.984 445.322 456.712C444.698 456.424 443.818 456.28 442.682 456.28H438.554V463.768H442.682ZM442.802 465.016H438.554V472H437.114V455.032H442.778C444.154 455.032 445.258 455.232 446.09 455.632C446.922 456.016 447.522 456.576 447.89 457.312C448.274 458.048 448.466 458.944 448.466 460C448.466 460.832 448.378 461.56 448.202 462.184C448.026 462.808 447.722 463.336 447.29 463.768C446.858 464.184 446.274 464.496 445.538 464.704C444.818 464.912 443.906 465.016 442.802 465.016ZM456.845 465.04H450.365V463.792H456.845V465.04ZM464.42 472.24C463.028 472.24 461.892 471.928 461.012 471.304C460.148 470.664 459.516 469.704 459.116 468.424C458.716 467.128 458.516 465.488 458.516 463.504C458.516 461.52 458.716 459.888 459.116 458.608C459.532 457.328 460.172 456.376 461.036 455.752C461.916 455.112 463.044 454.792 464.42 454.792C465.812 454.792 466.94 455.112 467.804 455.752C468.684 456.376 469.324 457.328 469.724 458.608C470.14 459.888 470.348 461.52 470.348 463.504C470.348 465.472 470.14 467.104 469.724 468.4C469.324 469.696 468.684 470.664 467.804 471.304C466.94 471.928 465.812 472.24 464.42 472.24ZM464.42 470.992C466.052 470.992 467.212 470.376 467.9 469.144C468.588 467.912 468.932 466.032 468.932 463.504C468.932 460.976 468.588 459.104 467.9 457.888C467.212 456.656 466.052 456.04 464.42 456.04C462.804 456.04 461.652 456.656 460.964 457.888C460.276 459.104 459.932 460.976 459.932 463.504C459.932 466.032 460.268 467.912 460.94 469.144C461.628 470.376 462.788 470.992 464.42 470.992ZM477.687 472.24C476.295 472.24 475.159 471.928 474.279 471.304C473.415 470.664 472.783 469.704 472.383 468.424C471.983 467.128 471.783 465.488 471.783 463.504C471.783 461.52 471.983 459.888 472.383 458.608C472.799 457.328 473.439 456.376 474.303 455.752C475.183 455.112 476.311 454.792 477.687 454.792C479.079 454.792 480.207 455.112 481.071 455.752C481.951 456.376 482.591 457.328 482.991 458.608C483.407 459.888 483.615 461.52 483.615 463.504C483.615 465.472 483.407 467.104 482.991 468.4C482.591 469.696 481.951 470.664 481.071 471.304C480.207 471.928 479.079 472.24 477.687 472.24ZM477.687 470.992C479.319 470.992 480.479 470.376 481.167 469.144C481.855 467.912 482.199 466.032 482.199 463.504C482.199 460.976 481.855 459.104 481.167 457.888C480.479 456.656 479.319 456.04 477.687 456.04C476.071 456.04 474.919 456.656 474.231 457.888C473.543 459.104 473.199 460.976 473.199 463.504C473.199 466.032 473.535 467.912 474.207 469.144C474.895 470.376 476.055 470.992 477.687 470.992ZM494.193 455.968L486.033 467.656L485.721 466.96H497.481V468.208H484.881V467.008L493.281 455.032H495.105V472H493.689V455.8L494.193 455.968ZM504.69 472.24C503.602 472.24 502.658 472.072 501.858 471.736C501.058 471.384 500.434 470.88 499.986 470.224C499.538 469.568 499.282 468.776 499.218 467.848H500.682C500.746 468.888 501.13 469.672 501.834 470.2C502.538 470.728 503.49 470.992 504.69 470.992C506.114 470.992 507.154 470.6 507.81 469.816C508.482 469.016 508.818 468.032 508.818 466.864C508.818 466.08 508.682 465.376 508.41 464.752C508.154 464.112 507.73 463.608 507.138 463.24C506.546 462.856 505.754 462.664 504.762 462.664C503.898 462.648 503.154 462.808 502.53 463.144C501.922 463.464 501.434 463.92 501.066 464.512H499.554L500.682 455.032H509.418V456.28H501.93L501.138 463.024H501.21C501.53 462.512 501.994 462.12 502.602 461.848C503.21 461.56 503.89 461.416 504.642 461.416C505.874 461.416 506.898 461.656 507.714 462.136C508.546 462.616 509.17 463.264 509.586 464.08C510.018 464.88 510.234 465.792 510.234 466.816C510.234 467.872 510.01 468.808 509.562 469.624C509.114 470.44 508.474 471.08 507.642 471.544C506.826 472.008 505.842 472.24 504.69 472.24ZM517.743 472.24C515.711 472.24 514.223 471.832 513.279 471.016C512.351 470.2 511.887 469.064 511.887 467.608C511.903 466.824 512.047 466.12 512.319 465.496C512.607 464.872 513.007 464.36 513.519 463.96C514.047 463.56 514.647 463.304 515.319 463.192V463.096C514.439 462.872 513.751 462.416 513.255 461.728C512.775 461.024 512.535 460.176 512.535 459.184C512.535 458.336 512.719 457.584 513.087 456.928C513.471 456.256 514.047 455.736 514.815 455.368C515.599 454.984 516.575 454.792 517.743 454.792C518.911 454.792 519.879 454.984 520.647 455.368C521.415 455.736 521.983 456.256 522.351 456.928C522.735 457.584 522.919 458.336 522.903 459.184C522.887 460.16 522.639 461 522.159 461.704C521.679 462.408 520.999 462.872 520.119 463.096V463.192C520.791 463.304 521.391 463.56 521.919 463.96C522.447 464.36 522.855 464.872 523.143 465.496C523.447 466.12 523.599 466.824 523.599 467.608C523.599 468.584 523.391 469.416 522.975 470.104C522.559 470.792 521.919 471.32 521.055 471.688C520.191 472.056 519.087 472.24 517.743 472.24ZM517.743 470.992C519.279 470.992 520.407 470.672 521.127 470.032C521.847 469.392 522.207 468.52 522.207 467.416C522.207 466.328 521.823 465.464 521.055 464.824C520.287 464.184 519.183 463.864 517.743 463.864C516.287 463.864 515.175 464.184 514.407 464.824C513.655 465.464 513.279 466.328 513.279 467.416C513.279 468.52 513.639 469.392 514.359 470.032C515.079 470.672 516.207 470.992 517.743 470.992ZM517.743 462.616C518.991 462.616 519.935 462.328 520.575 461.752C521.231 461.16 521.559 460.36 521.559 459.352C521.559 458.328 521.239 457.52 520.599 456.928C519.975 456.336 519.023 456.04 517.743 456.04C516.447 456.04 515.487 456.336 514.863 456.928C514.239 457.52 513.927 458.328 513.927 459.352C513.927 460.36 514.247 461.16 514.887 461.752C515.527 462.328 516.479 462.616 517.743 462.616ZM530.989 472.24C529.901 472.24 528.957 472.072 528.157 471.736C527.357 471.384 526.733 470.88 526.285 470.224C525.837 469.568 525.581 468.776 525.517 467.848H526.981C527.045 468.888 527.429 469.672 528.133 470.2C528.837 470.728 529.789 470.992 530.989 470.992C532.413 470.992 533.453 470.6 534.109 469.816C534.781 469.016 535.117 468.032 535.117 466.864C535.117 466.08 534.981 465.376 534.709 464.752C534.453 464.112 534.029 463.608 533.437 463.24C532.845 462.856 532.053 462.664 531.061 462.664C530.197 462.648 529.453 462.808 528.829 463.144C528.221 463.464 527.733 463.92 527.365 464.512H525.853L526.981 455.032H535.717V456.28H528.229L527.437 463.024H527.509C527.829 462.512 528.293 462.12 528.901 461.848C529.509 461.56 530.189 461.416 530.941 461.416C532.173 461.416 533.197 461.656 534.013 462.136C534.845 462.616 535.469 463.264 535.885 464.08C536.317 464.88 536.533 465.792 536.533 466.816C536.533 467.872 536.309 468.808 535.861 469.624C535.413 470.44 534.773 471.08 533.941 471.544C533.125 472.008 532.141 472.24 530.989 472.24Z" fill="#FFFAEE"/>
<path d="M328.56 414.84C328.56 419.587 327.44 423.2 325.2 425.68C322.96 428.16 319.787 429.4 315.68 429.4C311.547 429.4 308.36 428.16 306.12 425.68C303.907 423.2 302.8 419.587 302.8 414.84C302.8 410.12 303.907 406.52 306.12 404.04C308.36 401.56 311.547 400.32 315.68 400.32C319.787 400.32 322.96 401.56 325.2 404.04C327.44 406.52 328.56 410.12 328.56 414.84ZM323.04 414.84C323.04 411.427 322.44 408.92 321.24 407.32C320.04 405.72 318.187 404.92 315.68 404.92C313.2 404.92 311.347 405.72 310.12 407.32C308.92 408.92 308.32 411.427 308.32 414.84C308.32 418.28 308.92 420.8 310.12 422.4C311.347 424 313.2 424.8 315.68 424.8C318.187 424.8 320.04 424 321.24 422.4C322.44 420.8 323.04 418.28 323.04 414.84ZM331.775 400.72H341.975C344.482 400.72 346.495 401.147 348.015 402C349.562 402.853 350.682 404 351.375 405.44C352.068 406.853 352.415 408.413 352.415 410.12C352.415 411.8 352.068 413.36 351.375 414.8C350.682 416.213 349.562 417.36 348.015 418.24C346.495 419.093 344.482 419.52 341.975 419.52H337.295V429H331.775V400.72ZM341.815 414.92C343.228 414.92 344.295 414.733 345.015 414.36C345.735 413.987 346.228 413.44 346.495 412.72C346.762 412 346.895 411.133 346.895 410.12C346.895 409.08 346.762 408.213 346.495 407.52C346.228 406.8 345.735 406.253 345.015 405.88C344.295 405.507 343.228 405.32 341.815 405.32H337.295V414.92H341.815ZM351.922 400.72H374.482V405.32H365.962V429H360.442V405.32H351.922V400.72ZM385.298 429H379.778V400.72H385.298V429ZM375.858 405.32V400.72H389.218V405.32H375.858ZM375.858 429V424.4H389.218V429H375.858ZM410.557 410.16C410.291 408.347 409.637 407.027 408.597 406.2C407.557 405.347 406.131 404.92 404.317 404.92C401.891 404.92 400.064 405.747 398.837 407.4C397.637 409.027 397.037 411.507 397.037 414.84C397.037 418.2 397.637 420.707 398.837 422.36C400.064 423.987 401.891 424.8 404.317 424.8C406.131 424.8 407.557 424.387 408.597 423.56C409.664 422.707 410.331 421.387 410.597 419.6H416.117C415.824 422.72 414.637 425.133 412.557 426.84C410.477 428.547 407.731 429.4 404.317 429.4C400.317 429.4 397.184 428.16 394.917 425.68C392.651 423.173 391.517 419.56 391.517 414.84C391.517 410.12 392.651 406.52 394.917 404.04C397.211 401.56 400.344 400.32 404.317 400.32C406.424 400.32 408.317 400.707 409.997 401.48C411.704 402.227 413.091 403.333 414.157 404.8C415.224 406.267 415.864 408.053 416.077 410.16H410.557ZM429.385 406.76H429.265L421.345 429H415.945L426.425 400.72H432.345L442.785 429H437.145L429.385 406.76ZM437.025 422.08H421.825V417.48H437.025V422.08ZM444.83 400.72H450.35V424.4H462.27V429H444.83V400.72ZM475.205 433.24H470.165L479.325 399.2H484.365L475.205 433.24ZM493.323 425.4L502.803 415.72C503.737 414.76 504.523 413.933 505.163 413.24C505.803 412.52 506.283 411.827 506.603 411.16C506.95 410.493 507.123 409.76 507.123 408.96C507.123 407.493 506.763 406.453 506.043 405.84C505.35 405.227 504.35 404.92 503.043 404.92C501.63 404.92 500.603 405.253 499.963 405.92C499.35 406.587 498.99 407.68 498.883 409.2H493.563C493.563 407.44 493.963 405.893 494.763 404.56C495.563 403.227 496.683 402.187 498.123 401.44C499.563 400.693 501.243 400.32 503.163 400.32C505.03 400.32 506.657 400.68 508.043 401.4C509.457 402.12 510.55 403.133 511.323 404.44C512.123 405.72 512.523 407.227 512.523 408.96C512.523 410.107 512.31 411.187 511.883 412.2C511.457 413.187 510.777 414.24 509.843 415.36C508.91 416.48 507.67 417.813 506.123 419.36L499.483 426L498.923 424.4H512.843V429H493.363L493.323 425.4ZM525.288 429.4C522.755 429.4 520.702 428.827 519.128 427.68C517.582 426.507 516.462 424.84 515.768 422.68C515.075 420.493 514.728 417.88 514.728 414.84C514.728 411.8 515.088 409.2 515.808 407.04C516.528 404.88 517.662 403.227 519.208 402.08C520.782 400.907 522.808 400.32 525.288 400.32C527.795 400.32 529.822 400.907 531.368 402.08C532.942 403.227 534.088 404.88 534.808 407.04C535.528 409.2 535.888 411.8 535.888 414.84C535.888 417.88 535.528 420.493 534.808 422.68C534.088 424.84 532.955 426.507 531.408 427.68C529.862 428.827 527.822 429.4 525.288 429.4ZM525.288 424.8C527.102 424.8 528.422 424.053 529.248 422.56C530.102 421.04 530.528 418.467 530.528 414.84C530.528 411.213 530.102 408.653 529.248 407.16C528.422 405.667 527.102 404.92 525.288 404.92C523.502 404.92 522.182 405.667 521.328 407.16C520.502 408.653 520.088 411.213 520.088 414.84C520.088 418.467 520.502 421.04 521.328 422.56C522.155 424.053 523.475 424.8 525.288 424.8Z" fill="#FFFAEE"/>
<path d="M419.736 500.436H419.556L411.852 522H408.792L418.116 496.548H421.284L430.644 522H427.404L419.736 500.436ZM425.928 514.944H413.4V512.244H425.928V514.944ZM446.183 502.596C446.039 501.252 445.475 500.292 444.491 499.716C443.507 499.14 442.163 498.852 440.459 498.852C438.563 498.852 437.159 499.224 436.247 499.968C435.335 500.688 434.879 501.732 434.879 503.1C434.879 503.868 435.035 504.504 435.347 505.008C435.683 505.488 436.103 505.884 436.607 506.196C437.135 506.508 437.675 506.76 438.227 506.952C438.803 507.12 439.331 507.276 439.811 507.42L442.403 508.14C443.099 508.332 443.867 508.584 444.707 508.896C445.547 509.184 446.351 509.592 447.119 510.12C447.887 510.648 448.511 511.32 448.991 512.136C449.471 512.928 449.711 513.924 449.711 515.124C449.711 516.564 449.375 517.836 448.703 518.94C448.031 520.044 446.999 520.908 445.607 521.532C444.239 522.156 442.499 522.468 440.387 522.468C437.483 522.468 435.263 521.868 433.727 520.668C432.191 519.444 431.339 517.776 431.171 515.664H434.303C434.423 516.72 434.747 517.548 435.275 518.148C435.803 518.748 436.499 519.18 437.363 519.444C438.251 519.684 439.259 519.804 440.387 519.804C442.379 519.804 443.915 519.408 444.995 518.616C446.099 517.824 446.651 516.636 446.651 515.052C446.651 514.14 446.411 513.42 445.931 512.892C445.475 512.34 444.863 511.908 444.095 511.596C443.327 511.284 442.487 510.996 441.575 510.732L438.335 509.832C436.295 509.256 434.699 508.452 433.547 507.42C432.419 506.388 431.855 504.996 431.855 503.244C431.855 501.756 432.215 500.496 432.935 499.464C433.655 498.408 434.675 497.604 435.995 497.052C437.315 496.476 438.839 496.188 440.567 496.188C442.343 496.188 443.855 496.464 445.103 497.016C446.375 497.544 447.359 498.288 448.055 499.248C448.775 500.208 449.159 501.324 449.207 502.596H446.183ZM466.083 502.596C465.939 501.252 465.375 500.292 464.391 499.716C463.407 499.14 462.063 498.852 460.359 498.852C458.463 498.852 457.059 499.224 456.147 499.968C455.235 500.688 454.779 501.732 454.779 503.1C454.779 503.868 454.935 504.504 455.247 505.008C455.583 505.488 456.003 505.884 456.507 506.196C457.035 506.508 457.575 506.76 458.127 506.952C458.703 507.12 459.231 507.276 459.711 507.42L462.303 508.14C462.999 508.332 463.767 508.584 464.607 508.896C465.447 509.184 466.251 509.592 467.019 510.12C467.787 510.648 468.411 511.32 468.891 512.136C469.371 512.928 469.611 513.924 469.611 515.124C469.611 516.564 469.275 517.836 468.603 518.94C467.931 520.044 466.899 520.908 465.507 521.532C464.139 522.156 462.399 522.468 460.287 522.468C457.383 522.468 455.163 521.868 453.627 520.668C452.091 519.444 451.239 517.776 451.071 515.664H454.203C454.323 516.72 454.647 517.548 455.175 518.148C455.703 518.748 456.399 519.18 457.263 519.444C458.151 519.684 459.159 519.804 460.287 519.804C462.279 519.804 463.815 519.408 464.895 518.616C465.999 517.824 466.551 516.636 466.551 515.052C466.551 514.14 466.311 513.42 465.831 512.892C465.375 512.34 464.763 511.908 463.995 511.596C463.227 511.284 462.387 510.996 461.475 510.732L458.235 509.832C456.195 509.256 454.599 508.452 453.447 507.42C452.319 506.388 451.755 504.996 451.755 503.244C451.755 501.756 452.115 500.496 452.835 499.464C453.555 498.408 454.575 497.604 455.895 497.052C457.215 496.476 458.739 496.188 460.467 496.188C462.243 496.188 463.755 496.464 465.003 497.016C466.275 497.544 467.259 498.288 467.955 499.248C468.675 500.208 469.059 501.324 469.107 502.596H466.083ZM472.375 496.548H487.495V499.176H475.471V507.924H486.667V510.516H475.471V519.372H487.675V522H472.375V496.548ZM488.853 496.548H508.149V499.176H500.049V522H496.989V499.176H488.853V496.548ZM523.73 524.556H507.674V522H523.73V524.556ZM531.41 522H528.314V496.548H531.41V522ZM524.426 499.176V496.548H535.262V499.176H524.426ZM524.426 522V519.372H535.262V522H524.426ZM539.494 522V496.548H547.81C551.674 496.548 554.566 497.64 556.486 499.824C558.43 501.984 559.402 505.128 559.402 509.256C559.402 513.36 558.418 516.516 556.45 518.724C554.482 520.908 551.482 522 547.45 522H539.494ZM547.27 519.372C549.526 519.372 551.314 518.988 552.634 518.22C553.954 517.428 554.89 516.276 555.442 514.764C556.018 513.252 556.306 511.416 556.306 509.256C556.306 507.072 556.018 505.236 555.442 503.748C554.89 502.236 553.978 501.096 552.706 500.328C551.434 499.56 549.718 499.176 547.558 499.176H542.59V519.372H547.27ZM569.178 519.768L577.818 510.624C578.85 509.544 579.69 508.596 580.338 507.78C580.986 506.964 581.478 506.208 581.814 505.512C582.15 504.792 582.318 504.036 582.318 503.244C582.318 501.756 581.874 500.652 580.986 499.932C580.098 499.188 578.898 498.816 577.386 498.816C575.85 498.816 574.626 499.248 573.714 500.112C572.802 500.952 572.346 502.188 572.346 503.82H569.322C569.298 502.26 569.634 500.916 570.33 499.788C571.026 498.636 571.986 497.748 573.21 497.124C574.458 496.5 575.886 496.188 577.494 496.188C579.126 496.188 580.53 496.476 581.706 497.052C582.882 497.628 583.782 498.444 584.406 499.5C585.054 500.532 585.378 501.78 585.378 503.244C585.378 504.18 585.186 505.08 584.802 505.944C584.442 506.808 583.83 507.768 582.966 508.824C582.126 509.88 580.962 511.188 579.474 512.748L572.022 520.668L571.698 519.372H585.666V522H569.178V519.768ZM596.987 522.36C594.851 522.36 593.099 521.868 591.731 520.884C590.387 519.9 589.403 518.436 588.779 516.492C588.179 514.548 587.879 512.136 587.879 509.256C587.879 506.352 588.191 503.94 588.815 502.02C589.463 500.1 590.459 498.648 591.803 497.664C593.147 496.68 594.875 496.188 596.987 496.188C599.147 496.188 600.899 496.68 602.243 497.664C603.587 498.648 604.571 500.1 605.195 502.02C605.843 503.94 606.167 506.352 606.167 509.256C606.167 512.136 605.843 514.548 605.195 516.492C604.571 518.436 603.587 519.9 602.243 520.884C600.899 521.868 599.147 522.36 596.987 522.36ZM596.987 519.696C599.195 519.696 600.767 518.868 601.703 517.212C602.639 515.532 603.107 512.88 603.107 509.256C603.107 505.632 602.639 502.992 601.703 501.336C600.767 499.656 599.195 498.816 596.987 498.816C594.851 498.816 593.315 499.656 592.379 501.336C591.443 502.992 590.975 505.632 590.975 509.256C590.975 512.88 591.431 515.532 592.343 517.212C593.279 518.868 594.827 519.696 596.987 519.696ZM608.345 519.768L616.985 510.624C618.017 509.544 618.857 508.596 619.505 507.78C620.153 506.964 620.645 506.208 620.981 505.512C621.317 504.792 621.485 504.036 621.485 503.244C621.485 501.756 621.041 500.652 620.153 499.932C619.265 499.188 618.065 498.816 616.553 498.816C615.017 498.816 613.793 499.248 612.881 500.112C611.969 500.952 611.513 502.188 611.513 503.82H608.489C608.465 502.26 608.801 500.916 609.497 499.788C610.193 498.636 611.153 497.748 612.377 497.124C613.625 496.5 615.053 496.188 616.661 496.188C618.293 496.188 619.697 496.476 620.873 497.052C622.049 497.628 622.949 498.444 623.573 499.5C624.221 500.532 624.545 501.78 624.545 503.244C624.545 504.18 624.353 505.08 623.969 505.944C623.609 506.808 622.997 507.768 622.133 508.824C621.293 509.88 620.129 511.188 618.641 512.748L611.189 520.668L610.865 519.372H624.833V522H608.345V519.768ZM627.658 513.936C627.682 513.072 627.802 512.208 628.018 511.344C628.258 510.456 628.654 509.496 629.206 508.464C629.758 507.432 630.514 506.256 631.474 504.936L637.666 496.548H641.194L632.374 508.428L632.158 507.24C632.518 507.024 632.902 506.82 633.31 506.628C633.718 506.436 634.186 506.28 634.714 506.16C635.242 506.04 635.83 505.98 636.478 505.98C638.158 505.98 639.61 506.316 640.834 506.988C642.082 507.66 643.03 508.608 643.678 509.832C644.35 511.032 644.686 512.46 644.686 514.116C644.686 515.772 644.35 517.224 643.678 518.472C643.03 519.696 642.07 520.656 640.798 521.352C639.526 522.024 637.99 522.36 636.19 522.36C633.454 522.36 631.342 521.592 629.854 520.056C628.366 518.52 627.634 516.48 627.658 513.936ZM630.682 514.116C630.682 515.82 631.114 517.188 631.978 518.22C632.842 519.228 634.246 519.732 636.19 519.732C638.086 519.732 639.466 519.228 640.33 518.22C641.194 517.188 641.626 515.82 641.626 514.116C641.626 512.388 641.194 511.044 640.33 510.084C639.466 509.1 638.086 508.608 636.19 508.608C634.462 508.608 633.106 509.1 632.122 510.084C631.162 511.044 630.682 512.388 630.682 514.116ZM661.554 524.556H645.498V522H661.554V524.556ZM666.966 496.548L675.354 517.5H675.57L683.994 496.548H687.81V522H684.858V502.452H684.642L676.722 522H674.13L666.246 502.452H666.03V522H663.078V496.548H666.966ZM709.717 511.74H702.913V509.076H712.777V512.028C712.777 513.876 712.417 515.592 711.697 517.176C710.977 518.736 709.861 519.996 708.349 520.956C706.837 521.892 704.869 522.36 702.445 522.36C698.869 522.36 696.109 521.232 694.165 518.976C692.221 516.72 691.249 513.48 691.249 509.256C691.249 505.032 692.221 501.804 694.165 499.572C696.109 497.316 698.869 496.188 702.445 496.188C704.221 496.188 705.817 496.5 707.233 497.124C708.649 497.748 709.825 498.66 710.761 499.86C711.697 501.036 712.297 502.5 712.561 504.252H709.393C709.081 502.38 708.325 501.012 707.125 500.148C705.949 499.284 704.389 498.852 702.445 498.852C699.805 498.852 697.789 499.704 696.397 501.408C695.029 503.088 694.345 505.704 694.345 509.256C694.345 512.808 695.029 515.436 696.397 517.14C697.789 518.82 699.805 519.66 702.445 519.66C703.741 519.66 704.821 519.492 705.685 519.156C706.549 518.82 707.245 518.364 707.773 517.788C708.301 517.212 708.697 516.576 708.961 515.88C709.249 515.184 709.441 514.476 709.537 513.756C709.657 513.012 709.717 512.34 709.717 511.74ZM729.164 524.556H713.108V522H729.164V524.556ZM746.996 504.612C746.996 505.452 746.864 506.304 746.6 507.168C746.336 508.032 745.928 508.968 745.376 509.976C744.848 510.984 744.14 512.184 743.252 513.576L737.78 522H734.324L742.46 509.868L742.676 511.164C742.292 511.404 741.872 511.632 741.416 511.848C740.984 512.064 740.504 512.244 739.976 512.388C739.472 512.508 738.896 512.568 738.248 512.568C736.568 512.568 735.104 512.232 733.856 511.56C732.632 510.888 731.684 509.952 731.012 508.752C730.34 507.528 730.004 506.088 730.004 504.432C730.004 502.752 730.34 501.3 731.012 500.076C731.684 498.852 732.656 497.904 733.928 497.232C735.2 496.536 736.736 496.188 738.536 496.188C741.296 496.188 743.396 496.956 744.836 498.492C746.3 500.028 747.02 502.068 746.996 504.612ZM744.008 504.396C744.008 502.668 743.576 501.312 742.712 500.328C741.848 499.344 740.456 498.852 738.536 498.852C736.64 498.852 735.26 499.344 734.396 500.328C733.532 501.312 733.1 502.668 733.1 504.396C733.1 506.124 733.532 507.48 734.396 508.464C735.26 509.424 736.64 509.904 738.536 509.904C740.264 509.904 741.608 509.424 742.568 508.464C743.528 507.48 744.008 506.124 744.008 504.396ZM767.177 504.612C767.177 505.452 767.045 506.304 766.781 507.168C766.517 508.032 766.109 508.968 765.557 509.976C765.029 510.984 764.321 512.184 763.433 513.576L757.961 522H754.505L762.641 509.868L762.857 511.164C762.473 511.404 762.053 511.632 761.597 511.848C761.165 512.064 760.685 512.244 760.157 512.388C759.653 512.508 759.077 512.568 758.429 512.568C756.749 512.568 755.285 512.232 754.037 511.56C752.813 510.888 751.865 509.952 751.193 508.752C750.521 507.528 750.185 506.088 750.185 504.432C750.185 502.752 750.521 501.3 751.193 500.076C751.865 498.852 752.837 497.904 754.109 497.232C755.381 496.536 756.917 496.188 758.717 496.188C761.477 496.188 763.577 496.956 765.017 498.492C766.481 500.028 767.201 502.068 767.177 504.612ZM764.189 504.396C764.189 502.668 763.757 501.312 762.893 500.328C762.029 499.344 760.637 498.852 758.717 498.852C756.821 498.852 755.441 499.344 754.577 500.328C753.713 501.312 753.281 502.668 753.281 504.396C753.281 506.124 753.713 507.48 754.577 508.464C755.441 509.424 756.821 509.904 758.717 509.904C760.445 509.904 761.789 509.424 762.749 508.464C763.709 507.48 764.189 506.124 764.189 504.396ZM778.898 522.36C776.762 522.36 775.01 521.868 773.642 520.884C772.298 519.9 771.314 518.436 770.69 516.492C770.09 514.548 769.79 512.136 769.79 509.256C769.79 506.352 770.102 503.94 770.726 502.02C771.374 500.1 772.37 498.648 773.714 497.664C775.058 496.68 776.786 496.188 778.898 496.188C781.058 496.188 782.81 496.68 784.154 497.664C785.498 498.648 786.482 500.1 787.106 502.02C787.754 503.94 788.078 506.352 788.078 509.256C788.078 512.136 787.754 514.548 787.106 516.492C786.482 518.436 785.498 519.9 784.154 520.884C782.81 521.868 781.058 522.36 778.898 522.36ZM778.898 519.696C781.106 519.696 782.678 518.868 783.614 517.212C784.55 515.532 785.018 512.88 785.018 509.256C785.018 505.632 784.55 502.992 783.614 501.336C782.678 499.656 781.106 498.816 778.898 498.816C776.762 498.816 775.226 499.656 774.29 501.336C773.354 502.992 772.886 505.632 772.886 509.256C772.886 512.88 773.342 515.532 774.254 517.212C775.19 518.868 776.738 519.696 778.898 519.696ZM799.256 507.492L806.132 496.548H809.66L801.272 509.616L799.256 507.492ZM799.724 510.948L792.74 522H789.212L797.708 508.788L799.724 510.948ZM797.492 509.364L789.176 496.548H792.848L799.508 507.096L801.416 509.148L809.768 522H806.096L799.148 510.984L797.492 509.364Z" fill="#FFFAEE"/>
<path d="M443.516 570.952L431.276 588.484L430.808 587.44H448.448V589.312H429.548V587.512L442.148 569.548H444.884V595H442.76V570.7L443.516 570.952ZM459.297 595.36C457.641 595.36 456.189 595.108 454.941 594.604C453.717 594.1 452.757 593.332 452.061 592.3C451.365 591.268 450.969 589.972 450.873 588.412H453.213C453.261 589.54 453.537 590.488 454.041 591.256C454.569 592 455.277 592.564 456.165 592.948C457.053 593.308 458.109 593.488 459.333 593.488C461.205 593.488 462.717 592.984 463.869 591.976C465.021 590.944 465.597 589.468 465.597 587.548C465.597 585.7 465.033 584.26 463.905 583.228C462.801 582.196 461.253 581.68 459.261 581.68H456.453L456.417 580.132L465.093 570.592L465.273 571.42H451.917V569.548H467.145V571.276L458.829 580.384V579.844C460.605 579.82 462.069 580.048 463.221 580.528C464.373 580.984 465.273 581.608 465.921 582.4C466.593 583.168 467.061 584.008 467.325 584.92C467.613 585.808 467.757 586.684 467.757 587.548C467.757 589.228 467.409 590.656 466.713 591.832C466.017 592.984 465.033 593.86 463.761 594.46C462.513 595.06 461.025 595.36 459.297 595.36ZM482.831 583.336L489.455 595H487.043L480.671 583.732L482.831 583.336ZM480.023 582.652C481.727 582.652 483.047 582.436 483.983 582.004C484.919 581.572 485.579 580.936 485.963 580.096C486.347 579.256 486.539 578.224 486.539 577C486.539 575.752 486.347 574.72 485.963 573.904C485.579 573.088 484.919 572.476 483.983 572.068C483.047 571.636 481.727 571.42 480.023 571.42H473.831V582.652H480.023ZM480.203 584.524H473.831V595H471.671V569.548H480.167C482.231 569.548 483.887 569.848 485.135 570.448C486.383 571.024 487.283 571.864 487.835 572.968C488.411 574.072 488.699 575.416 488.699 577C488.699 578.248 488.567 579.34 488.303 580.276C488.039 581.212 487.583 582.004 486.935 582.652C486.287 583.276 485.411 583.744 484.307 584.056C483.227 584.368 481.859 584.524 480.203 584.524ZM501.267 584.56H491.547V582.688H501.267V584.56ZM512.63 595.36C510.542 595.36 508.838 594.892 507.518 593.956C506.222 592.996 505.274 591.556 504.674 589.636C504.074 587.692 503.774 585.232 503.774 582.256C503.774 579.28 504.074 576.832 504.674 574.912C505.298 572.992 506.258 571.564 507.554 570.628C508.874 569.668 510.566 569.188 512.63 569.188C514.718 569.188 516.41 569.668 517.706 570.628C519.026 571.564 519.986 572.992 520.586 574.912C521.21 576.832 521.522 579.28 521.522 582.256C521.522 585.208 521.21 587.656 520.586 589.6C519.986 591.544 519.026 592.996 517.706 593.956C516.41 594.892 514.718 595.36 512.63 595.36ZM512.63 593.488C515.078 593.488 516.818 592.564 517.85 590.716C518.882 588.868 519.398 586.048 519.398 582.256C519.398 578.464 518.882 575.656 517.85 573.832C516.818 571.984 515.078 571.06 512.63 571.06C510.206 571.06 508.478 571.984 507.446 573.832C506.414 575.656 505.898 578.464 505.898 582.256C505.898 586.048 506.402 588.868 507.41 590.716C508.442 592.564 510.182 593.488 512.63 593.488ZM532.53 595.36C530.442 595.36 528.738 594.892 527.418 593.956C526.122 592.996 525.174 591.556 524.574 589.636C523.974 587.692 523.674 585.232 523.674 582.256C523.674 579.28 523.974 576.832 524.574 574.912C525.198 572.992 526.158 571.564 527.454 570.628C528.774 569.668 530.466 569.188 532.53 569.188C534.618 569.188 536.31 569.668 537.606 570.628C538.926 571.564 539.886 572.992 540.486 574.912C541.11 576.832 541.422 579.28 541.422 582.256C541.422 585.208 541.11 587.656 540.486 589.6C539.886 591.544 538.926 592.996 537.606 593.956C536.31 594.892 534.618 595.36 532.53 595.36ZM532.53 593.488C534.978 593.488 536.718 592.564 537.75 590.716C538.782 588.868 539.298 586.048 539.298 582.256C539.298 578.464 538.782 575.656 537.75 573.832C536.718 571.984 534.978 571.06 532.53 571.06C530.106 571.06 528.378 571.984 527.346 573.832C526.314 575.656 525.798 578.464 525.798 582.256C525.798 586.048 526.302 588.868 527.31 590.716C528.342 592.564 530.082 593.488 532.53 593.488ZM557.29 570.952L545.05 588.484L544.582 587.44H562.222V589.312H543.322V587.512L555.922 569.548H558.658V595H556.534V570.7L557.29 570.952ZM573.035 595.36C571.403 595.36 569.987 595.108 568.787 594.604C567.587 594.076 566.651 593.32 565.979 592.336C565.307 591.352 564.923 590.164 564.827 588.772H567.023C567.119 590.332 567.695 591.508 568.751 592.3C569.807 593.092 571.235 593.488 573.035 593.488C575.171 593.488 576.731 592.9 577.715 591.724C578.723 590.524 579.227 589.048 579.227 587.296C579.227 586.12 579.023 585.064 578.615 584.128C578.231 583.168 577.595 582.412 576.707 581.86C575.819 581.284 574.631 580.996 573.143 580.996C571.847 580.972 570.731 581.212 569.795 581.716C568.883 582.196 568.151 582.88 567.599 583.768H565.331L567.023 569.548H580.127V571.42H568.895L567.707 581.536H567.815C568.295 580.768 568.991 580.18 569.903 579.772C570.815 579.34 571.835 579.124 572.963 579.124C574.811 579.124 576.347 579.484 577.571 580.204C578.819 580.924 579.755 581.896 580.379 583.12C581.027 584.32 581.351 585.688 581.351 587.224C581.351 588.808 581.015 590.212 580.343 591.436C579.671 592.66 578.711 593.62 577.463 594.316C576.239 595.012 574.763 595.36 573.035 595.36ZM592.615 595.36C589.567 595.36 587.335 594.748 585.919 593.524C584.527 592.3 583.831 590.596 583.831 588.412C583.855 587.236 584.071 586.18 584.479 585.244C584.911 584.308 585.511 583.54 586.279 582.94C587.071 582.34 587.971 581.956 588.979 581.788V581.644C587.659 581.308 586.627 580.624 585.883 579.592C585.163 578.536 584.803 577.264 584.803 575.776C584.803 574.504 585.079 573.376 585.631 572.392C586.207 571.384 587.071 570.604 588.223 570.052C589.399 569.476 590.863 569.188 592.615 569.188C594.367 569.188 595.819 569.476 596.971 570.052C598.123 570.604 598.975 571.384 599.527 572.392C600.103 573.376 600.379 574.504 600.355 575.776C600.331 577.24 599.959 578.5 599.239 579.556C598.519 580.612 597.499 581.308 596.179 581.644V581.788C597.187 581.956 598.087 582.34 598.879 582.94C599.671 583.54 600.283 584.308 600.715 585.244C601.171 586.18 601.399 587.236 601.399 588.412C601.399 589.876 601.087 591.124 600.463 592.156C599.839 593.188 598.879 593.98 597.583 594.532C596.287 595.084 594.631 595.36 592.615 595.36ZM592.615 593.488C594.919 593.488 596.611 593.008 597.691 592.048C598.771 591.088 599.311 589.78 599.311 588.124C599.311 586.492 598.735 585.196 597.583 584.236C596.431 583.276 594.775 582.796 592.615 582.796C590.431 582.796 588.763 583.276 587.611 584.236C586.483 585.196 585.919 586.492 585.919 588.124C585.919 589.78 586.459 591.088 587.539 592.048C588.619 593.008 590.311 593.488 592.615 593.488ZM592.615 580.924C594.487 580.924 595.903 580.492 596.863 579.628C597.847 578.74 598.339 577.54 598.339 576.028C598.339 574.492 597.859 573.28 596.899 572.392C595.963 571.504 594.535 571.06 592.615 571.06C590.671 571.06 589.231 571.504 588.295 572.392C587.359 573.28 586.891 574.492 586.891 576.028C586.891 577.54 587.371 578.74 588.331 579.628C589.291 580.492 590.719 580.924 592.615 580.924ZM612.483 595.36C610.851 595.36 609.435 595.108 608.235 594.604C607.035 594.076 606.099 593.32 605.427 592.336C604.755 591.352 604.371 590.164 604.275 588.772H606.471C606.567 590.332 607.143 591.508 608.199 592.3C609.255 593.092 610.683 593.488 612.483 593.488C614.619 593.488 616.179 592.9 617.163 591.724C618.171 590.524 618.675 589.048 618.675 587.296C618.675 586.12 618.471 585.064 618.063 584.128C617.679 583.168 617.043 582.412 616.155 581.86C615.267 581.284 614.079 580.996 612.591 580.996C611.295 580.972 610.179 581.212 609.243 581.716C608.331 582.196 607.599 582.88 607.047 583.768H604.779L606.471 569.548H619.575V571.42H608.343L607.155 581.536H607.263C607.743 580.768 608.439 580.18 609.351 579.772C610.263 579.34 611.283 579.124 612.411 579.124C614.259 579.124 615.795 579.484 617.019 580.204C618.267 580.924 619.203 581.896 619.827 583.12C620.475 584.32 620.799 585.688 620.799 587.224C620.799 588.808 620.463 590.212 619.791 591.436C619.119 592.66 618.159 593.62 616.911 594.316C615.687 595.012 614.211 595.36 612.483 595.36Z" fill="#FFFAEE"/>
<rect x="401.5" y="558.5" width="248" height="47" rx="23.5" stroke="#FFFAEE"/>
<path d="M717.01 401.597L717.01 422.942L722.603 422.942L722.603 401.643C723.08 398.733 725.801 397.779 725.801 397.779L722.539 397.779L717.084 397.779L713.821 397.779C713.821 397.779 716.513 398.724 717.01 401.597Z" fill="#FFFAEE"/>
<path d="M699 429.683L699 432.946C699 432.946 699.943 430.264 702.805 429.759L706.216 429.759L706.216 438.659C706.216 443.846 708.657 448.006 713.275 450.69C714.387 451.335 715.636 451.897 717.012 452.377L717.012 456.42C717.012 461.97 721.609 466.483 727.259 466.483L734.908 466.483C741.587 466.483 747.021 461.152 747.021 454.6L747.021 453.152C745.753 453.755 743.747 454.539 741.416 454.83C741.289 458.191 738.423 460.89 734.908 460.89L727.259 460.89C724.693 460.89 722.605 458.884 722.605 456.418L722.605 453.753C725.357 454.203 728.441 454.433 731.852 454.433C747.375 454.433 757.805 448.094 757.805 438.657L757.805 429.757L761.193 429.757C764.055 430.264 764.998 432.946 764.998 432.946L764.998 429.759L765 429.759L765 424.166L764.998 424.166L764.998 420.964C764.998 420.964 764.042 423.695 761.121 424.166L757.803 424.166L757.803 411.068C758.321 408.229 760.982 407.291 760.982 407.291L757.803 407.291L757.803 407.28L752.21 407.28L752.21 407.291L749.002 407.291C749.002 407.291 751.743 408.252 752.208 411.184L752.211 410.981L752.211 424.166L747.019 424.166L747.019 399.451L747.051 401.671C747.514 398.737 750.257 397.779 750.257 397.779L746.994 397.779L746.994 397.832L741.537 397.832L741.537 397.779L738.277 397.779C738.277 397.779 740.848 398.686 741.427 401.415L741.427 424.168L711.809 424.168L711.809 411.042C712.339 408.225 714.983 407.293 714.983 407.293L703.003 407.293C703.003 407.293 705.744 408.253 706.209 411.186L706.218 410.586L706.218 424.168L702.878 424.168C699.957 423.697 699 420.966 699 420.966L699 424.229L699.019 424.229L699.019 429.683L699 429.683ZM711.808 429.759L717.01 429.759L717.01 444.66C717.801 445.886 721.474 446.765 722.603 446.737L722.603 429.757L752.211 429.757L752.211 438.657C752.211 441.515 750.306 443.96 747.019 445.738L747.019 431.247L741.425 431.247L741.425 447.798C738.632 448.471 735.401 448.842 731.85 448.842C718.551 448.842 711.808 445.416 711.808 438.657L711.808 429.757L711.808 429.759Z" fill="#FFFAEE"/>
<path d="M710.871 561.358V603.012C699.342 602.994 690 593.672 690 582.185C690 570.68 699.342 561.358 710.871 561.358ZM752.183 594.262C745.477 594.262 741.173 588.411 741.173 582.113C741.173 575.815 745.495 570.179 752.129 570.179C756.719 570.179 760.431 573.113 762.045 577.3H773C772.606 574.92 771.566 572.612 770.239 570.608C766.133 564.417 759.606 561 752.183 561C742.59 561 734.521 566.94 731.742 575.529V561.358C720.213 561.358 710.871 570.68 710.871 582.185C710.871 593.69 720.213 603.012 731.742 603.012V588.787C734.539 597.411 742.698 603.441 752.29 603.441C762.206 603.441 770.615 597.036 773 587.356H762.045C760.216 591.382 756.773 594.262 752.183 594.262Z" fill="#FFFAEE"/>
<path d="M290.432 604C290.005 604 289.707 603.915 289.536 603.744C289.365 603.573 289.28 603.403 289.28 603.232C289.28 602.805 289.6 602.528 290.24 602.4L291.264 602.208C292.629 601.952 293.696 601.547 294.464 600.992C295.275 600.395 295.957 599.456 296.512 598.176L302.912 582.944C303.125 582.475 303.253 582.005 303.296 581.536C303.381 581.024 303.296 580.491 303.04 579.936L295.04 562.208C294.613 561.227 294.144 560.565 293.632 560.224C293.163 559.883 292.651 559.669 292.096 559.584L290.88 559.392C290.197 559.264 289.856 558.987 289.856 558.56C289.856 558.133 290.219 557.92 290.944 557.92H302.208C302.976 557.92 303.36 558.133 303.36 558.56C303.36 558.987 302.997 559.264 302.272 559.392L301.056 559.584C300.331 559.712 299.819 559.968 299.52 560.352C299.264 560.736 299.328 561.355 299.712 562.208L305.792 575.84C305.963 576.224 306.155 576.416 306.368 576.416C306.624 576.416 306.837 576.224 307.008 575.84L312.512 562.848C312.896 561.909 313.024 561.227 312.896 560.8C312.768 560.331 312.341 560.011 311.616 559.84L309.824 559.456C309.099 559.285 308.736 558.987 308.736 558.56C308.736 558.133 309.12 557.92 309.888 557.92H319.68C320.149 557.92 320.448 558.005 320.576 558.176C320.747 558.304 320.832 558.475 320.832 558.688C320.832 559.115 320.512 559.392 319.872 559.52L318.848 559.712C317.781 559.883 316.885 560.288 316.16 560.928C315.435 561.525 314.795 562.464 314.24 563.744L308.16 577.952C307.947 578.507 307.819 579.04 307.776 579.552C307.776 580.064 307.925 580.619 308.224 581.216L316.48 599.712C316.949 600.736 317.419 601.397 317.888 601.696C318.4 601.995 318.912 602.187 319.424 602.272L320.64 602.464C321.365 602.592 321.728 602.891 321.728 603.36C321.728 603.787 321.344 604 320.576 604H309.248C308.48 604 308.096 603.744 308.096 603.232C308.096 602.848 308.437 602.592 309.12 602.464L310.4 602.272C311.125 602.187 311.637 601.952 311.936 601.568C312.235 601.141 312.213 600.523 311.872 599.712L305.28 585.056C305.109 584.672 304.896 584.48 304.64 584.48C304.427 584.48 304.235 584.672 304.064 585.056L298.304 599.072C297.92 600.011 297.792 600.715 297.92 601.184C298.048 601.611 298.475 601.909 299.2 602.08L300.992 602.464C301.717 602.635 302.08 602.933 302.08 603.36C302.08 603.787 301.696 604 300.928 604H290.432ZM320.116 604C319.476 604 319.156 603.765 319.156 603.296C319.156 602.912 319.433 602.656 319.988 602.528L321.46 602.272C322.356 602.101 322.932 601.867 323.188 601.568C323.487 601.269 323.636 600.672 323.636 599.776V562.144C323.636 561.248 323.487 560.651 323.188 560.352C322.932 560.053 322.356 559.819 321.46 559.648L319.988 559.392C319.433 559.264 319.156 559.008 319.156 558.624C319.156 558.155 319.476 557.92 320.116 557.92H331.7C332.34 557.92 332.66 558.155 332.66 558.624C332.66 559.008 332.383 559.264 331.828 559.392L330.356 559.648C329.46 559.819 328.863 560.053 328.564 560.352C328.308 560.651 328.18 561.248 328.18 562.144V599.776C328.18 600.672 328.308 601.269 328.564 601.568C328.863 601.867 329.46 602.101 330.356 602.272L331.828 602.528C332.383 602.656 332.66 602.912 332.66 603.296C332.66 603.765 332.34 604 331.7 604H320.116ZM345.974 604.64C345.803 604.64 345.611 604.576 345.398 604.448C345.184 604.32 345.035 604.043 344.95 603.616L334.838 563.04C334.539 561.845 334.198 561.013 333.814 560.544C333.472 560.075 332.875 559.755 332.022 559.584L331.062 559.392C330.464 559.264 330.166 558.987 330.166 558.56C330.166 558.133 330.486 557.92 331.126 557.92H342.07C342.667 557.92 342.966 558.155 342.966 558.624C342.966 559.093 342.603 559.349 341.878 559.392L340.662 559.52C339.936 559.563 339.467 559.797 339.254 560.224C339.083 560.608 339.104 561.269 339.318 562.208L346.742 592.992C346.827 593.248 346.955 593.376 347.126 593.376C347.339 593.376 347.467 593.248 347.51 592.992L354.87 563.552C355.467 561.12 354.827 559.776 352.95 559.52L351.99 559.392C351.264 559.264 350.902 559.008 350.902 558.624C350.902 558.155 351.2 557.92 351.798 557.92H360.758C361.398 557.92 361.718 558.133 361.718 558.56C361.718 558.987 361.419 559.264 360.822 559.392L359.862 559.584C359.051 559.755 358.411 560.181 357.942 560.864C357.515 561.504 357.152 562.421 356.854 563.616L346.934 603.616C346.848 604.043 346.699 604.32 346.486 604.448C346.315 604.576 346.144 604.64 345.974 604.64Z" fill="#FFFAEE"/>
</svg>
