<svg width="1080" height="1080" viewBox="0 0 1080 1080" fill="none" xmlns="http://www.w3.org/2000/svg">
<rect width="1080" height="1080" fill="#191919"/>
<path d="M424.429 614.619L427.864 620.667H426.613L423.309 614.824L424.429 614.619ZM422.973 614.264C423.857 614.264 424.541 614.152 425.027 613.928C425.512 613.704 425.854 613.374 426.053 612.939C426.252 612.503 426.352 611.968 426.352 611.333C426.352 610.686 426.252 610.151 426.053 609.728C425.854 609.305 425.512 608.987 425.027 608.776C424.541 608.552 423.857 608.44 422.973 608.44H419.763V614.264H422.973ZM423.067 615.235H419.763V620.667H418.643V607.469H423.048C424.118 607.469 424.977 607.625 425.624 607.936C426.271 608.235 426.738 608.67 427.024 609.243C427.323 609.815 427.472 610.512 427.472 611.333C427.472 611.98 427.404 612.547 427.267 613.032C427.13 613.517 426.893 613.928 426.557 614.264C426.221 614.587 425.767 614.83 425.195 614.992C424.635 615.154 423.925 615.235 423.067 615.235ZM429.472 607.469H436.901V608.44H430.592V613.573H436.472V614.544H430.592V619.696H436.994V620.667H429.472V607.469ZM439.134 607.469H446.656V608.44H440.254V613.573H446.04V614.544H440.254V620.667H439.134V607.469ZM451.138 620.667H450.018V607.469H451.138V620.667ZM447.983 608.44V607.469H453.154V608.44H447.983ZM447.983 620.667V619.696H453.154V620.667H447.983ZM465.38 620.667H464.129L456.756 609.336H456.606V620.667H455.505V607.469H456.774L464.129 618.781H464.278V607.469H465.38V620.667ZM467.92 607.469H475.349V608.44H469.04V613.573H474.92V614.544H469.04V619.696H475.442V620.667H467.92V607.469ZM477.582 620.667V607.469H481.67C483.586 607.469 485.036 608.029 486.019 609.149C487.002 610.269 487.494 611.906 487.494 614.059C487.494 616.199 486.99 617.835 485.982 618.968C484.986 620.1 483.487 620.667 481.483 620.667H477.582ZM481.39 619.696C482.647 619.696 483.636 619.472 484.358 619.024C485.08 618.563 485.596 617.91 485.907 617.064C486.218 616.218 486.374 615.216 486.374 614.059C486.374 612.889 486.218 611.887 485.907 611.053C485.609 610.207 485.105 609.56 484.395 609.112C483.698 608.664 482.746 608.44 481.539 608.44H478.702V619.696H481.39ZM495.871 621.637H487.807V620.667H495.871V621.637ZM496.742 620.667V607.469H500.83C502.747 607.469 504.196 608.029 505.18 609.149C506.163 610.269 506.654 611.906 506.654 614.059C506.654 616.199 506.15 617.835 505.142 618.968C504.147 620.1 502.647 620.667 500.644 620.667H496.742ZM500.55 619.696C501.807 619.696 502.796 619.472 503.518 619.024C504.24 618.563 504.756 617.91 505.068 617.064C505.379 616.218 505.534 615.216 505.534 614.059C505.534 612.889 505.379 611.887 505.068 611.053C504.769 610.207 504.265 609.56 503.556 609.112C502.859 608.664 501.907 608.44 500.7 608.44H497.862V619.696H500.55ZM511.316 620.667H510.196V607.469H511.316V620.667ZM508.162 608.44V607.469H513.332V608.44H508.162ZM508.162 620.667V619.696H513.332V620.667H508.162ZM524.613 615.067H520.861V614.096H525.733V615.589C525.733 616.523 525.546 617.394 525.173 618.203C524.812 618.999 524.246 619.64 523.474 620.125C522.715 620.611 521.732 620.853 520.525 620.853C518.721 620.853 517.321 620.268 516.325 619.099C515.342 617.916 514.85 616.236 514.85 614.059C514.85 611.881 515.342 610.207 516.325 609.037C517.321 607.867 518.721 607.283 520.525 607.283C521.384 607.283 522.161 607.432 522.858 607.731C523.555 608.017 524.14 608.452 524.613 609.037C525.086 609.622 525.409 610.369 525.584 611.277H524.426C524.227 610.207 523.785 609.442 523.101 608.981C522.429 608.521 521.57 608.291 520.525 608.291C519.057 608.291 517.93 608.751 517.146 609.672C516.362 610.593 515.97 612.055 515.97 614.059C515.97 616.05 516.362 617.512 517.146 618.445C517.93 619.379 519.057 619.845 520.525 619.845C521.284 619.845 521.913 619.739 522.41 619.528C522.908 619.304 523.306 619.011 523.605 618.651C523.904 618.29 524.121 617.898 524.258 617.475C524.408 617.051 524.501 616.628 524.538 616.205C524.588 615.782 524.613 615.403 524.613 615.067ZM530.349 620.667H529.229V607.469H530.349V620.667ZM527.194 608.44V607.469H532.365V608.44H527.194ZM527.194 620.667V619.696H532.365V620.667H527.194ZM533.36 607.469H543.104V608.44H538.792V620.667H537.672V608.44H533.36V607.469ZM547.375 608.907H547.3L543.156 620.667H542.018L546.74 607.469H548.01L552.714 620.667H551.519L547.375 608.907ZM550.38 616.709H544.351V615.739H550.38V616.709ZM554.077 607.469H555.197V619.696H561.488V620.667H554.077V607.469ZM569.267 621.637H561.203V620.667H569.267V621.637ZM574.32 608.907H574.245L570.101 620.667H568.963L573.685 607.469H574.955L579.659 620.667H578.464L574.32 608.907ZM577.325 616.709H571.296V615.739H577.325V616.709ZM586.809 614.619L590.244 620.667H588.993L585.689 614.824L586.809 614.619ZM585.353 614.264C586.236 614.264 586.921 614.152 587.406 613.928C587.892 613.704 588.234 613.374 588.433 612.939C588.632 612.503 588.732 611.968 588.732 611.333C588.732 610.686 588.632 610.151 588.433 609.728C588.234 609.305 587.892 608.987 587.406 608.776C586.921 608.552 586.236 608.44 585.353 608.44H582.142V614.264H585.353ZM585.446 615.235H582.142V620.667H581.022V607.469H585.428C586.498 607.469 587.356 607.625 588.004 607.936C588.651 608.235 589.117 608.67 589.404 609.243C589.702 609.815 589.852 610.512 589.852 611.333C589.852 611.98 589.783 612.547 589.646 613.032C589.509 613.517 589.273 613.928 588.937 614.264C588.601 614.587 588.147 614.83 587.574 614.992C587.014 615.154 586.305 615.235 585.446 615.235ZM590.185 607.469H599.929V608.44H595.617V620.667H594.497V608.44H590.185V607.469ZM604.074 620.667H602.954V607.469H604.074V620.667ZM600.919 608.44V607.469H606.09V608.44H600.919ZM600.919 620.667V619.696H606.09V620.667H600.919ZM608.441 607.469H615.964V608.44H609.561V613.573H615.348V614.544H609.561V620.667H608.441V607.469ZM620.516 608.907H620.442L616.298 620.667H615.159L619.882 607.469H621.151L625.855 620.667H624.66L620.516 608.907ZM623.522 616.709H617.492V615.739H623.522V616.709ZM635.352 611.296C635.19 610.288 634.786 609.535 634.139 609.037C633.504 608.539 632.658 608.291 631.6 608.291C630.206 608.291 629.124 608.763 628.352 609.709C627.593 610.655 627.214 612.099 627.214 614.04C627.214 615.994 627.593 617.45 628.352 618.408C629.124 619.354 630.206 619.827 631.6 619.827C632.658 619.827 633.504 619.578 634.139 619.08C634.786 618.582 635.197 617.835 635.371 616.84H636.547C636.335 618.147 635.813 619.142 634.979 619.827C634.145 620.511 633.019 620.853 631.6 620.853C629.758 620.853 628.377 620.262 627.456 619.08C626.548 617.885 626.094 616.205 626.094 614.04C626.094 611.887 626.548 610.226 627.456 609.056C628.377 607.874 629.758 607.283 631.6 607.283C632.484 607.283 633.268 607.432 633.952 607.731C634.649 608.029 635.215 608.477 635.651 609.075C636.099 609.672 636.391 610.412 636.528 611.296H635.352ZM636.655 607.469H646.399V608.44H642.087V620.667H640.967V608.44H636.655V607.469ZM654.294 610.325C654.195 609.554 653.853 609.019 653.268 608.72C652.695 608.421 651.936 608.272 650.99 608.272C649.908 608.272 649.105 608.483 648.582 608.907C648.06 609.317 647.798 609.927 647.798 610.736C647.798 611.209 647.885 611.595 648.06 611.893C648.246 612.192 648.483 612.435 648.769 612.621C649.055 612.795 649.36 612.939 649.684 613.051C650.007 613.15 650.306 613.237 650.58 613.312L652.017 613.704C652.378 613.803 652.77 613.928 653.193 614.077C653.616 614.227 654.014 614.432 654.388 614.693C654.773 614.955 655.085 615.291 655.321 615.701C655.557 616.112 655.676 616.622 655.676 617.232C655.676 617.929 655.508 618.557 655.172 619.117C654.836 619.677 654.319 620.119 653.622 620.443C652.925 620.754 652.036 620.909 650.953 620.909C649.509 620.909 648.402 620.617 647.63 620.032C646.859 619.447 646.423 618.657 646.324 617.661H647.481C647.556 618.259 647.749 618.719 648.06 619.043C648.371 619.366 648.769 619.596 649.254 619.733C649.752 619.858 650.318 619.92 650.953 619.92C652.098 619.92 652.981 619.702 653.604 619.267C654.238 618.819 654.556 618.128 654.556 617.195C654.556 616.635 654.419 616.193 654.145 615.869C653.884 615.546 653.529 615.291 653.081 615.104C652.645 614.917 652.173 614.755 651.662 614.619L649.87 614.133C648.85 613.847 648.06 613.449 647.5 612.939C646.952 612.428 646.678 611.725 646.678 610.829C646.678 610.095 646.853 609.467 647.201 608.944C647.562 608.409 648.066 607.998 648.713 607.712C649.373 607.426 650.15 607.283 651.046 607.283C651.917 607.283 652.664 607.413 653.286 607.675C653.921 607.923 654.419 608.278 654.78 608.739C655.153 609.187 655.365 609.715 655.414 610.325H654.294ZM422.432 634.696L427.789 642.667H426.445L421.629 635.48L422.432 634.696ZM419.763 642.667H418.643V629.469H419.763V642.667ZM419.483 639.027V637.477L426.072 629.469H427.435L419.483 639.027ZM432.688 642.667H431.568V629.469H432.688V642.667ZM429.534 630.44V629.469H434.704V630.44H429.534ZM429.534 642.667V641.696H434.704V642.667H429.534ZM446.93 642.667H445.68L438.306 631.336H438.157V642.667H437.056V629.469H438.325L445.68 640.781H445.829V629.469H446.93V642.667ZM449.47 629.469H456.9V630.44H450.59V635.573H456.47V636.544H450.59V641.696H456.993V642.667H449.47V629.469ZM457.758 629.469H467.502V630.44H463.19V642.667H462.07V630.44H457.758V629.469ZM471.647 642.667H470.527V629.469H471.647V642.667ZM468.492 630.44V629.469H473.663V630.44H468.492ZM468.492 642.667V641.696H473.663V642.667H468.492ZM484.439 633.296C484.278 632.288 483.873 631.535 483.226 631.037C482.591 630.539 481.745 630.291 480.687 630.291C479.294 630.291 478.211 630.763 477.439 631.709C476.68 632.655 476.301 634.099 476.301 636.04C476.301 637.994 476.68 639.45 477.439 640.408C478.211 641.354 479.294 641.827 480.687 641.827C481.745 641.827 482.591 641.578 483.226 641.08C483.873 640.582 484.284 639.835 484.458 638.84H485.634C485.423 640.147 484.9 641.142 484.066 641.827C483.232 642.511 482.106 642.853 480.687 642.853C478.846 642.853 477.464 642.262 476.543 641.08C475.635 639.885 475.181 638.205 475.181 636.04C475.181 633.887 475.635 632.226 476.543 631.056C477.464 629.874 478.846 629.283 480.687 629.283C481.571 629.283 482.355 629.432 483.039 629.731C483.736 630.029 484.303 630.477 484.738 631.075C485.186 631.672 485.479 632.412 485.615 633.296H484.439ZM493.975 643.637H485.911V642.667H493.975V643.637ZM497.534 642.667H496.414V629.469H497.534V642.667ZM494.38 630.44V629.469H499.55V630.44H494.38ZM494.38 642.667V641.696H499.55V642.667H494.38ZM501.902 642.667V629.469H505.99C507.906 629.469 509.356 630.029 510.339 631.149C511.322 632.269 511.814 633.906 511.814 636.059C511.814 638.199 511.31 639.835 510.302 640.968C509.306 642.1 507.807 642.667 505.803 642.667H501.902ZM505.71 641.696C506.967 641.696 507.956 641.472 508.678 641.024C509.4 640.563 509.916 639.91 510.227 639.064C510.538 638.218 510.694 637.216 510.694 636.059C510.694 634.889 510.538 633.887 510.227 633.053C509.929 632.207 509.425 631.56 508.715 631.112C508.018 630.664 507.066 630.44 505.859 630.44H503.022V641.696H505.71ZM513.788 629.469H521.217V630.44H514.908V635.573H520.788V636.544H514.908V641.696H521.311V642.667H513.788V629.469ZM533.325 642.667H532.074L524.701 631.336H524.552V642.667H523.45V629.469H524.72L532.074 640.781H532.224V629.469H533.325V642.667ZM534.29 629.469H544.034V630.44H539.722V642.667H538.602V630.44H534.29V629.469ZM548.179 642.667H547.059V629.469H548.179V642.667ZM545.024 630.44V629.469H550.195V630.44H545.024ZM545.024 642.667V641.696H550.195V642.667H545.024ZM551.19 629.469H560.934V630.44H556.622V642.667H555.502V630.44H551.19V629.469ZM565.079 642.667H563.959V629.469H565.079V642.667ZM561.924 630.44V629.469H567.095V630.44H561.924ZM561.924 642.667V641.696H567.095V642.667H561.924ZM569.446 629.469H576.875V630.44H570.566V635.573H576.446V636.544H570.566V641.696H576.969V642.667H569.446V629.469ZM586.094 632.325C585.994 631.554 585.652 631.019 585.067 630.72C584.495 630.421 583.736 630.272 582.79 630.272C581.707 630.272 580.905 630.483 580.382 630.907C579.859 631.317 579.598 631.927 579.598 632.736C579.598 633.209 579.685 633.595 579.859 633.893C580.046 634.192 580.282 634.435 580.569 634.621C580.855 634.795 581.16 634.939 581.483 635.051C581.807 635.15 582.105 635.237 582.379 635.312L583.817 635.704C584.177 635.803 584.569 635.928 584.993 636.077C585.416 636.227 585.814 636.432 586.187 636.693C586.573 636.955 586.884 637.291 587.121 637.701C587.357 638.112 587.475 638.622 587.475 639.232C587.475 639.929 587.307 640.557 586.971 641.117C586.635 641.677 586.119 642.119 585.422 642.443C584.725 642.754 583.835 642.909 582.753 642.909C581.309 642.909 580.201 642.617 579.43 642.032C578.658 641.447 578.223 640.657 578.123 639.661H579.281C579.355 640.259 579.548 640.719 579.859 641.043C580.17 641.366 580.569 641.596 581.054 641.733C581.552 641.858 582.118 641.92 582.753 641.92C583.897 641.92 584.781 641.702 585.403 641.267C586.038 640.819 586.355 640.128 586.355 639.195C586.355 638.635 586.218 638.193 585.945 637.869C585.683 637.546 585.329 637.291 584.881 637.104C584.445 636.917 583.972 636.755 583.462 636.619L581.67 636.133C580.649 635.847 579.859 635.449 579.299 634.939C578.752 634.428 578.478 633.725 578.478 632.829C578.478 632.095 578.652 631.467 579.001 630.944C579.361 630.409 579.865 629.998 580.513 629.712C581.172 629.426 581.95 629.283 582.846 629.283C583.717 629.283 584.464 629.413 585.086 629.675C585.721 629.923 586.218 630.278 586.579 630.739C586.953 631.187 587.164 631.715 587.214 632.325H586.094ZM419.8 651.469L424.653 662.781H424.784L429.637 651.469H430.757V664.667H429.675V654.139H429.581L425.008 664.667H424.373L419.8 654.139H419.725V664.667H418.643V651.469H419.8ZM436.261 664.667H435.141V651.469H436.261V664.667ZM433.106 652.44V651.469H438.277V652.44H433.106ZM433.106 664.667V663.696H438.277V664.667H433.106ZM450.503 664.667H449.253L441.879 653.336H441.73V664.667H440.629V651.469H441.898L449.253 662.781H449.402V651.469H450.503V664.667ZM456.005 664.667H454.885V651.469H456.005V664.667ZM452.85 652.44V651.469H458.021V652.44H452.85ZM452.85 664.667V663.696H458.021V664.667H452.85ZM461.529 651.469L466.383 662.781H466.513L471.367 651.469H472.487V664.667H471.404V654.139H471.311L466.737 664.667H466.103L461.529 654.139H461.455V664.667H460.372V651.469H461.529ZM479.21 652.907H479.136L474.992 664.667H473.853L478.576 651.469H479.845L484.549 664.667H483.354L479.21 652.907ZM482.216 660.709H476.186V659.739H482.216V660.709ZM485.913 651.469H487.033V663.696H493.323V664.667H485.913V651.469ZM501.103 665.637H493.039V664.667H501.103V665.637ZM501.974 651.469H509.497V652.44H503.094V657.573H508.881V658.544H503.094V664.667H501.974V651.469ZM521.472 658.059C521.472 660.236 520.999 661.916 520.053 663.099C519.12 664.268 517.744 664.853 515.928 664.853C514.111 664.853 512.729 664.268 511.784 663.099C510.85 661.916 510.384 660.236 510.384 658.059C510.384 655.881 510.85 654.207 511.784 653.037C512.729 651.867 514.111 651.283 515.928 651.283C517.744 651.283 519.12 651.867 520.053 653.037C520.999 654.207 521.472 655.881 521.472 658.059ZM520.352 658.059C520.352 656.08 519.984 654.624 519.25 653.691C518.528 652.757 517.421 652.291 515.928 652.291C514.434 652.291 513.32 652.757 512.586 653.691C511.864 654.624 511.504 656.08 511.504 658.059C511.504 660.037 511.864 661.499 512.586 662.445C513.32 663.379 514.434 663.845 515.928 663.845C517.421 663.845 518.528 663.379 519.25 662.445C519.984 661.499 520.352 660.037 520.352 658.059ZM529.236 658.619L532.671 664.667H531.42L528.116 658.824L529.236 658.619ZM527.78 658.264C528.664 658.264 529.348 658.152 529.833 657.928C530.319 657.704 530.661 657.374 530.86 656.939C531.059 656.503 531.159 655.968 531.159 655.333C531.159 654.686 531.059 654.151 530.86 653.728C530.661 653.305 530.319 652.987 529.833 652.776C529.348 652.552 528.664 652.44 527.78 652.44H524.569V658.264H527.78ZM527.873 659.235H524.569V664.667H523.449V651.469H527.855C528.925 651.469 529.784 651.625 530.431 651.936C531.078 652.235 531.545 652.67 531.831 653.243C532.129 653.815 532.279 654.512 532.279 655.333C532.279 655.98 532.21 656.547 532.073 657.032C531.937 657.517 531.7 657.928 531.364 658.264C531.028 658.587 530.574 658.83 530.001 658.992C529.441 659.154 528.732 659.235 527.873 659.235ZM535.436 651.469L540.289 662.781H540.42L545.273 651.469H546.393V664.667H545.31V654.139H545.217L540.644 664.667H540.009L535.436 654.139H535.361V664.667H534.278V651.469H535.436ZM424.429 702.619L427.864 708.667H426.613L423.309 702.824L424.429 702.619ZM422.973 702.264C423.857 702.264 424.541 702.152 425.027 701.928C425.512 701.704 425.854 701.374 426.053 700.939C426.252 700.503 426.352 699.968 426.352 699.333C426.352 698.686 426.252 698.151 426.053 697.728C425.854 697.305 425.512 696.987 425.027 696.776C424.541 696.552 423.857 696.44 422.973 696.44H419.763V702.264H422.973ZM423.067 703.235H419.763V708.667H418.643V695.469H423.048C424.118 695.469 424.977 695.625 425.624 695.936C426.271 696.235 426.738 696.67 427.024 697.243C427.323 697.815 427.472 698.512 427.472 699.333C427.472 699.98 427.404 700.547 427.267 701.032C427.13 701.517 426.893 701.928 426.557 702.264C426.221 702.587 425.767 702.83 425.195 702.992C424.635 703.154 423.925 703.235 423.067 703.235ZM433.653 696.907H433.578L429.434 708.667H428.296L433.018 695.469H434.288L438.992 708.667H437.797L433.653 696.907ZM436.658 704.709H430.629V703.739H436.658V704.709ZM447.323 698.325C447.223 697.554 446.881 697.019 446.296 696.72C445.723 696.421 444.964 696.272 444.019 696.272C442.936 696.272 442.133 696.483 441.611 696.907C441.088 697.317 440.827 697.927 440.827 698.736C440.827 699.209 440.914 699.595 441.088 699.893C441.275 700.192 441.511 700.435 441.797 700.621C442.083 700.795 442.388 700.939 442.712 701.051C443.035 701.15 443.334 701.237 443.608 701.312L445.045 701.704C445.406 701.803 445.798 701.928 446.221 702.077C446.644 702.227 447.043 702.432 447.416 702.693C447.802 702.955 448.113 703.291 448.349 703.701C448.586 704.112 448.704 704.622 448.704 705.232C448.704 705.929 448.536 706.557 448.2 707.117C447.864 707.677 447.347 708.119 446.651 708.443C445.954 708.754 445.064 708.909 443.981 708.909C442.538 708.909 441.43 708.617 440.659 708.032C439.887 707.447 439.451 706.657 439.352 705.661H440.509C440.584 706.259 440.777 706.719 441.088 707.043C441.399 707.366 441.797 707.596 442.283 707.733C442.78 707.858 443.347 707.92 443.981 707.92C445.126 707.92 446.01 707.702 446.632 707.267C447.267 706.819 447.584 706.128 447.584 705.195C447.584 704.635 447.447 704.193 447.173 703.869C446.912 703.546 446.557 703.291 446.109 703.104C445.674 702.917 445.201 702.755 444.691 702.619L442.899 702.133C441.878 701.847 441.088 701.449 440.528 700.939C439.98 700.428 439.707 699.725 439.707 698.829C439.707 698.095 439.881 697.467 440.229 696.944C440.59 696.409 441.094 695.998 441.741 695.712C442.401 695.426 443.179 695.283 444.075 695.283C444.946 695.283 445.692 695.413 446.315 695.675C446.949 695.923 447.447 696.278 447.808 696.739C448.181 697.187 448.393 697.715 448.443 698.325H447.323ZM448.534 695.469H458.278V696.44H453.966V708.667H452.846V696.44H448.534V695.469ZM459.242 695.469H466.671V696.44H460.362V701.573H466.242V702.544H460.362V707.696H466.765V708.667H459.242V695.469ZM474.691 702.619L478.125 708.667H476.875L473.571 702.824L474.691 702.619ZM473.235 702.264C474.118 702.264 474.803 702.152 475.288 701.928C475.773 701.704 476.116 701.374 476.315 700.939C476.514 700.503 476.613 699.968 476.613 699.333C476.613 698.686 476.514 698.151 476.315 697.728C476.116 697.305 475.773 696.987 475.288 696.776C474.803 696.552 474.118 696.44 473.235 696.44H470.024V702.264H473.235ZM473.328 703.235H470.024V708.667H468.904V695.469H473.309C474.38 695.469 475.238 695.625 475.885 695.936C476.533 696.235 476.999 696.67 477.285 697.243C477.584 697.815 477.733 698.512 477.733 699.333C477.733 699.98 477.665 700.547 477.528 701.032C477.391 701.517 477.155 701.928 476.819 702.264C476.483 702.587 476.029 702.83 475.456 702.992C474.896 703.154 474.187 703.235 473.328 703.235ZM418.643 717.469H426.165V718.44H419.763V723.573H425.549V724.544H419.763V730.667H418.643V717.469ZM438.14 724.059C438.14 726.236 437.667 727.916 436.721 729.099C435.788 730.268 434.413 730.853 432.596 730.853C430.779 730.853 429.398 730.268 428.452 729.099C427.519 727.916 427.052 726.236 427.052 724.059C427.052 721.881 427.519 720.207 428.452 719.037C429.398 717.867 430.779 717.283 432.596 717.283C434.413 717.283 435.788 717.867 436.721 719.037C437.667 720.207 438.14 721.881 438.14 724.059ZM437.02 724.059C437.02 722.08 436.653 720.624 435.919 719.691C435.197 718.757 434.089 718.291 432.596 718.291C431.103 718.291 429.989 718.757 429.255 719.691C428.533 720.624 428.172 722.08 428.172 724.059C428.172 726.037 428.533 727.499 429.255 728.445C429.989 729.379 431.103 729.845 432.596 729.845C434.089 729.845 435.197 729.379 435.919 728.445C436.653 727.499 437.02 726.037 437.02 724.059ZM449.993 730.667H448.742L441.369 719.336H441.219V730.667H440.118V717.469H441.387L448.742 728.781H448.891V717.469H449.993V730.667ZM450.958 717.469H460.702V718.44H456.39V730.667H455.27V718.44H450.958V717.469ZM422.525 752.853C421.443 752.853 420.559 752.611 419.875 752.125C419.203 751.627 418.711 750.881 418.4 749.885C418.089 748.877 417.933 747.602 417.933 746.059C417.933 744.515 418.089 743.246 418.4 742.251C418.724 741.255 419.221 740.515 419.893 740.029C420.578 739.531 421.455 739.283 422.525 739.283C423.608 739.283 424.485 739.531 425.157 740.029C425.842 740.515 426.34 741.255 426.651 742.251C426.974 743.246 427.136 744.515 427.136 746.059C427.136 747.589 426.974 748.859 426.651 749.867C426.34 750.875 425.842 751.627 425.157 752.125C424.485 752.611 423.608 752.853 422.525 752.853ZM422.525 751.883C423.795 751.883 424.697 751.403 425.232 750.445C425.767 749.487 426.035 748.025 426.035 746.059C426.035 744.092 425.767 742.636 425.232 741.691C424.697 740.732 423.795 740.253 422.525 740.253C421.268 740.253 420.372 740.732 419.837 741.691C419.302 742.636 419.035 744.092 419.035 746.059C419.035 748.025 419.296 749.487 419.819 750.445C420.354 751.403 421.256 751.883 422.525 751.883ZM428.382 751.752L432.9 746.917C433.472 746.307 433.939 745.772 434.3 745.312C434.661 744.839 434.928 744.403 435.102 744.005C435.289 743.595 435.382 743.178 435.382 742.755C435.382 741.946 435.121 741.33 434.598 740.907C434.076 740.471 433.379 740.253 432.508 740.253C431.637 740.253 430.921 740.515 430.361 741.037C429.801 741.547 429.534 742.251 429.558 743.147H428.476C428.463 742.338 428.631 741.647 428.98 741.075C429.328 740.502 429.814 740.06 430.436 739.749C431.058 739.438 431.767 739.283 432.564 739.283C433.398 739.283 434.101 739.426 434.673 739.712C435.258 739.986 435.706 740.384 436.017 740.907C436.328 741.417 436.484 742.033 436.484 742.755C436.484 743.227 436.403 743.688 436.241 744.136C436.079 744.571 435.781 745.075 435.345 745.648C434.922 746.208 434.306 746.917 433.497 747.776L429.241 752.331L429.316 751.696H436.652V752.667H428.382V751.752Z" fill="#FFFAEE"/>
<path d="M418.525 342.187C417.443 342.187 416.559 341.944 415.875 341.459C415.203 340.961 414.711 340.214 414.4 339.219C414.089 338.211 413.933 336.935 413.933 335.392C413.933 333.849 414.089 332.58 414.4 331.584C414.724 330.588 415.221 329.848 415.893 329.363C416.578 328.865 417.455 328.616 418.525 328.616C419.608 328.616 420.485 328.865 421.157 329.363C421.842 329.848 422.34 330.588 422.651 331.584C422.974 332.58 423.136 333.849 423.136 335.392C423.136 336.923 422.974 338.192 422.651 339.2C422.34 340.208 421.842 340.961 421.157 341.459C420.485 341.944 419.608 342.187 418.525 342.187ZM418.525 341.216C419.795 341.216 420.697 340.737 421.232 339.779C421.767 338.82 422.035 337.358 422.035 335.392C422.035 333.426 421.767 331.97 421.232 331.024C420.697 330.066 419.795 329.587 418.525 329.587C417.268 329.587 416.372 330.066 415.837 331.024C415.302 331.97 415.035 333.426 415.035 335.392C415.035 337.358 415.296 338.82 415.819 339.779C416.354 340.737 417.256 341.216 418.525 341.216ZM428.918 342H427.798V329.549L428.19 329.643L424.438 332.181V331.005L427.668 328.803H428.918V342ZM413.56 350.803H423.304V351.773H418.992V364H417.872V351.773H413.56V350.803ZM424.779 350.803L428.774 357.523H428.867L432.862 350.803H434.075L429.353 358.493V364H428.289V358.493L423.491 350.803H424.779ZM435.079 350.803H439.484C440.542 350.803 441.395 350.971 442.042 351.307C442.689 351.63 443.162 352.091 443.46 352.688C443.759 353.285 443.908 353.995 443.908 354.816C443.908 355.637 443.759 356.353 443.46 356.963C443.162 357.572 442.689 358.045 442.042 358.381C441.407 358.717 440.567 358.885 439.522 358.885H436.199V364H435.079V350.803ZM439.447 357.915C440.318 357.915 440.996 357.79 441.482 357.541C441.967 357.28 442.303 356.919 442.49 356.459C442.689 355.986 442.788 355.438 442.788 354.816C442.788 354.181 442.689 353.64 442.49 353.192C442.303 352.732 441.967 352.383 441.482 352.147C440.996 351.898 440.306 351.773 439.41 351.773H436.199V357.915H439.447ZM445.397 350.803H452.827V351.773H446.517V356.907H452.397V357.877H446.517V363.029H452.92V364H445.397V350.803ZM418.973 384.712H419.085L423.435 372.803H424.611L419.795 386H418.245L413.448 372.803H414.643L418.973 384.712ZM425.964 372.803H433.393V373.773H427.084V378.907H432.964V379.877H427.084V385.029H433.486V386H425.964V372.803ZM443.905 376.629C443.744 375.621 443.339 374.868 442.692 374.371C442.057 373.873 441.211 373.624 440.153 373.624C438.76 373.624 437.677 374.097 436.905 375.043C436.146 375.988 435.767 377.432 435.767 379.373C435.767 381.327 436.146 382.783 436.905 383.741C437.677 384.687 438.76 385.16 440.153 385.16C441.211 385.16 442.057 384.911 442.692 384.413C443.339 383.916 443.75 383.169 443.924 382.173H445.1C444.888 383.48 444.366 384.476 443.532 385.16C442.698 385.844 441.572 386.187 440.153 386.187C438.312 386.187 436.93 385.596 436.009 384.413C435.101 383.219 434.647 381.539 434.647 379.373C434.647 377.22 435.101 375.559 436.009 374.389C436.93 373.207 438.312 372.616 440.153 372.616C441.037 372.616 441.821 372.765 442.505 373.064C443.202 373.363 443.768 373.811 444.204 374.408C444.652 375.005 444.944 375.746 445.081 376.629H443.905ZM445.208 372.803H454.952V373.773H450.64V386H449.52V373.773H445.208V372.803ZM465.989 379.392C465.989 381.57 465.516 383.25 464.57 384.432C463.637 385.602 462.262 386.187 460.445 386.187C458.628 386.187 457.246 385.602 456.301 384.432C455.367 383.25 454.901 381.57 454.901 379.392C454.901 377.214 455.367 375.54 456.301 374.371C457.246 373.201 458.628 372.616 460.445 372.616C462.262 372.616 463.637 373.201 464.57 374.371C465.516 375.54 465.989 377.214 465.989 379.392ZM464.869 379.392C464.869 377.413 464.502 375.957 463.767 375.024C463.046 374.091 461.938 373.624 460.445 373.624C458.951 373.624 457.838 374.091 457.103 375.024C456.382 375.957 456.021 377.413 456.021 379.392C456.021 381.371 456.382 382.833 457.103 383.779C457.838 384.712 458.951 385.179 460.445 385.179C461.938 385.179 463.046 384.712 463.767 383.779C464.502 382.833 464.869 381.371 464.869 379.392ZM473.753 379.952L477.188 386H475.937L472.633 380.157L473.753 379.952ZM472.297 379.597C473.181 379.597 473.865 379.485 474.351 379.261C474.836 379.037 475.178 378.708 475.377 378.272C475.576 377.836 475.676 377.301 475.676 376.667C475.676 376.02 475.576 375.484 475.377 375.061C475.178 374.638 474.836 374.321 474.351 374.109C473.865 373.885 473.181 373.773 472.297 373.773H469.087V379.597H472.297ZM472.391 380.568H469.087V386H467.967V372.803H472.372C473.442 372.803 474.301 372.958 474.948 373.269C475.595 373.568 476.062 374.004 476.348 374.576C476.647 375.148 476.796 375.845 476.796 376.667C476.796 377.314 476.728 377.88 476.591 378.365C476.454 378.851 476.217 379.261 475.881 379.597C475.545 379.921 475.091 380.164 474.519 380.325C473.959 380.487 473.249 380.568 472.391 380.568ZM413.56 394.803H423.304V395.773H418.992V408H417.872V395.773H413.56V394.803ZM430.055 401.952L433.49 408H432.239L428.935 402.157L430.055 401.952ZM428.599 401.597C429.483 401.597 430.167 401.485 430.652 401.261C431.138 401.037 431.48 400.708 431.679 400.272C431.878 399.836 431.978 399.301 431.978 398.667C431.978 398.02 431.878 397.484 431.679 397.061C431.48 396.638 431.138 396.321 430.652 396.109C430.167 395.885 429.483 395.773 428.599 395.773H425.388V401.597H428.599ZM428.692 402.568H425.388V408H424.268V394.803H428.674C429.744 394.803 430.603 394.958 431.25 395.269C431.897 395.568 432.364 396.004 432.65 396.576C432.948 397.148 433.098 397.845 433.098 398.667C433.098 399.314 433.029 399.88 432.892 400.365C432.756 400.851 432.519 401.261 432.183 401.597C431.847 401.921 431.393 402.164 430.82 402.325C430.26 402.487 429.551 402.568 428.692 402.568ZM444.636 394.803V403.781C444.636 404.652 444.468 405.424 444.132 406.096C443.808 406.768 443.298 407.297 442.601 407.683C441.904 408.056 440.99 408.243 439.857 408.243C438.737 408.243 437.823 408.056 437.113 407.683C436.416 407.297 435.9 406.768 435.564 406.096C435.24 405.424 435.079 404.652 435.079 403.781V394.803H436.199V403.613C436.199 404.348 436.311 404.988 436.535 405.536C436.759 406.084 437.138 406.507 437.673 406.805C438.208 407.092 438.936 407.235 439.857 407.235C440.791 407.235 441.519 407.092 442.041 406.805C442.576 406.507 442.956 406.084 443.18 405.536C443.404 404.988 443.516 404.348 443.516 403.613V394.803H444.636ZM447.147 394.803H454.577V395.773H448.267V400.907H454.147V401.877H448.267V407.029H454.67V408H447.147V394.803ZM463.212 408.971H455.148V408H463.212V408.971ZM473.958 408H472.708L465.334 396.669H465.185V408H464.084V394.803H465.353L472.708 406.115H472.857V394.803H473.958V408ZM487.027 401.392C487.027 403.57 486.554 405.25 485.608 406.432C484.675 407.602 483.299 408.187 481.483 408.187C479.666 408.187 478.284 407.602 477.339 406.432C476.405 405.25 475.939 403.57 475.939 401.392C475.939 399.214 476.405 397.54 477.339 396.371C478.284 395.201 479.666 394.616 481.483 394.616C483.299 394.616 484.675 395.201 485.608 396.371C486.554 397.54 487.027 399.214 487.027 401.392ZM485.907 401.392C485.907 399.413 485.539 397.957 484.805 397.024C484.083 396.091 482.976 395.624 481.483 395.624C479.989 395.624 478.875 396.091 478.141 397.024C477.419 397.957 477.059 399.413 477.059 401.392C477.059 403.371 477.419 404.833 478.141 405.779C478.875 406.712 479.989 407.179 481.483 407.179C482.976 407.179 484.083 406.712 484.805 405.779C485.539 404.833 485.907 403.371 485.907 401.392ZM494.791 401.952L498.226 408H496.975L493.671 402.157L494.791 401.952ZM493.335 401.597C494.219 401.597 494.903 401.485 495.389 401.261C495.874 401.037 496.216 400.708 496.415 400.272C496.614 399.836 496.714 399.301 496.714 398.667C496.714 398.02 496.614 397.484 496.415 397.061C496.216 396.638 495.874 396.321 495.389 396.109C494.903 395.885 494.219 395.773 493.335 395.773H490.125V401.597H493.335ZM493.429 402.568H490.125V408H489.005V394.803H493.41C494.48 394.803 495.339 394.958 495.986 395.269C496.633 395.568 497.1 396.004 497.386 396.576C497.685 397.148 497.834 397.845 497.834 398.667C497.834 399.314 497.765 399.88 497.629 400.365C497.492 400.851 497.255 401.261 496.919 401.597C496.583 401.921 496.129 402.164 495.557 402.325C494.997 402.487 494.287 402.568 493.429 402.568ZM498.167 394.803H507.911V395.773H503.599V408H502.479V395.773H498.167V394.803ZM508.876 394.803H509.996V400.907H517.369V394.803H518.489V408H517.369V401.877H509.996V408H508.876V394.803ZM415.8 416.803L420.653 428.115H420.784L425.637 416.803H426.757V430H425.675V419.472H425.581L421.008 430H420.373L415.8 419.472H415.725V430H414.643V416.803H415.8ZM432.261 430H431.141V416.803H432.261V430ZM429.106 417.773V416.803H434.277V417.773H429.106ZM429.106 430V429.029H434.277V430H429.106ZM446.503 430H445.253L437.879 418.669H437.73V430H436.629V416.803H437.898L445.253 428.115H445.402V416.803H446.503V430ZM452.005 430H450.885V416.803H452.005V430ZM448.85 417.773V416.803H454.021V417.773H448.85ZM448.85 430V429.029H454.021V430H448.85ZM457.529 416.803L462.383 428.115H462.513L467.367 416.803H468.487V430H467.404V419.472H467.311L462.737 430H462.103L457.529 419.472H457.455V430H456.372V416.803H457.529ZM475.21 418.24H475.136L470.992 430H469.853L474.576 416.803H475.845L480.549 430H479.354L475.21 418.24ZM478.216 426.043H472.186V425.072H478.216V426.043ZM481.913 416.803H483.033V429.029H489.323V430H481.913V416.803ZM497.103 430.971H489.039V430H497.103V430.971ZM497.974 416.803H505.497V417.773H499.094V422.907H504.881V423.877H499.094V430H497.974V416.803ZM517.472 423.392C517.472 425.57 516.999 427.25 516.053 428.432C515.12 429.602 513.744 430.187 511.928 430.187C510.111 430.187 508.729 429.602 507.784 428.432C506.85 427.25 506.384 425.57 506.384 423.392C506.384 421.214 506.85 419.54 507.784 418.371C508.729 417.201 510.111 416.616 511.928 416.616C513.744 416.616 515.12 417.201 516.053 418.371C516.999 419.54 517.472 421.214 517.472 423.392ZM516.352 423.392C516.352 421.413 515.984 419.957 515.25 419.024C514.528 418.091 513.421 417.624 511.928 417.624C510.434 417.624 509.32 418.091 508.586 419.024C507.864 419.957 507.504 421.413 507.504 423.392C507.504 425.371 507.864 426.833 508.586 427.779C509.32 428.712 510.434 429.179 511.928 429.179C513.421 429.179 514.528 428.712 515.25 427.779C515.984 426.833 516.352 425.371 516.352 423.392ZM525.236 423.952L528.671 430H527.42L524.116 424.157L525.236 423.952ZM523.78 423.597C524.664 423.597 525.348 423.485 525.833 423.261C526.319 423.037 526.661 422.708 526.86 422.272C527.059 421.836 527.159 421.301 527.159 420.667C527.159 420.02 527.059 419.484 526.86 419.061C526.661 418.638 526.319 418.321 525.833 418.109C525.348 417.885 524.664 417.773 523.78 417.773H520.569V423.597H523.78ZM523.873 424.568H520.569V430H519.449V416.803H523.855C524.925 416.803 525.784 416.958 526.431 417.269C527.078 417.568 527.545 418.004 527.831 418.576C528.129 419.148 528.279 419.845 528.279 420.667C528.279 421.314 528.21 421.88 528.073 422.365C527.937 422.851 527.7 423.261 527.364 423.597C527.028 423.921 526.574 424.164 526.001 424.325C525.441 424.487 524.732 424.568 523.873 424.568ZM531.436 416.803L536.289 428.115H536.42L541.273 416.803H542.393V430H541.31V419.472H541.217L536.644 430H536.009L531.436 419.472H531.361V430H530.278V416.803H531.436ZM414.643 460.803H419.197C420.143 460.803 420.902 460.952 421.475 461.251C422.06 461.537 422.483 461.941 422.744 462.464C423.005 462.987 423.136 463.584 423.136 464.256C423.136 464.841 423.012 465.339 422.763 465.749C422.514 466.148 422.196 466.465 421.811 466.701C421.437 466.925 421.052 467.068 420.653 467.131V467.243C420.989 467.255 421.332 467.336 421.68 467.485C422.028 467.622 422.352 467.828 422.651 468.101C422.962 468.375 423.211 468.717 423.397 469.128C423.584 469.526 423.677 469.999 423.677 470.547C423.677 471.231 423.534 471.835 423.248 472.357C422.974 472.868 422.52 473.272 421.885 473.571C421.263 473.857 420.417 474 419.347 474H414.643V460.803ZM419.328 473.029C420.212 473.029 420.884 472.917 421.344 472.693C421.804 472.457 422.116 472.146 422.277 471.76C422.452 471.374 422.539 470.964 422.539 470.528C422.539 470.018 422.433 469.557 422.221 469.147C422.022 468.724 421.692 468.388 421.232 468.139C420.784 467.89 420.18 467.765 419.421 467.765H415.763V473.029H419.328ZM419.123 466.795C420.118 466.795 420.846 466.571 421.307 466.123C421.78 465.662 422.016 465.046 422.016 464.275C422.016 463.827 421.941 463.416 421.792 463.043C421.643 462.657 421.363 462.352 420.952 462.128C420.554 461.892 419.969 461.773 419.197 461.773H415.763V466.795H419.123ZM425.399 460.803H432.828V461.773H426.519V466.907H432.399V467.877H426.519V473.029H432.921V474H425.399V460.803ZM435.007 460.803L439.001 467.523H439.095L443.089 460.803H444.303L439.58 468.493V474H438.516V468.493L433.719 460.803H435.007ZM455.324 467.392C455.324 469.57 454.851 471.25 453.905 472.432C452.972 473.602 451.597 474.187 449.78 474.187C447.963 474.187 446.582 473.602 445.636 472.432C444.703 471.25 444.236 469.57 444.236 467.392C444.236 465.214 444.703 463.54 445.636 462.371C446.582 461.201 447.963 460.616 449.78 460.616C451.597 460.616 452.972 461.201 453.905 462.371C454.851 463.54 455.324 465.214 455.324 467.392ZM454.204 467.392C454.204 465.413 453.837 463.957 453.103 463.024C452.381 462.091 451.273 461.624 449.78 461.624C448.287 461.624 447.173 462.091 446.439 463.024C445.717 463.957 445.356 465.413 445.356 467.392C445.356 469.371 445.717 470.833 446.439 471.779C447.173 472.712 448.287 473.179 449.78 473.179C451.273 473.179 452.381 472.712 453.103 471.779C453.837 470.833 454.204 469.371 454.204 467.392ZM467.177 474H465.926L458.553 462.669H458.403V474H457.302V460.803H458.571L465.926 472.115H466.075V460.803H467.177V474ZM469.717 474V460.803H473.805C475.721 460.803 477.171 461.363 478.154 462.483C479.137 463.603 479.629 465.239 479.629 467.392C479.629 469.532 479.125 471.169 478.117 472.301C477.121 473.434 475.622 474 473.618 474H469.717ZM473.525 473.029C474.782 473.029 475.771 472.805 476.493 472.357C477.214 471.897 477.731 471.244 478.042 470.397C478.353 469.551 478.509 468.549 478.509 467.392C478.509 466.222 478.353 465.22 478.042 464.387C477.743 463.54 477.239 462.893 476.53 462.445C475.833 461.997 474.881 461.773 473.674 461.773H470.837V473.029H473.525ZM488.005 474.971H479.941V474H488.005V474.971ZM487.794 460.803H497.538V461.773H493.226V474H492.106V461.773H487.794V460.803ZM498.503 460.803H499.623V466.907H506.996V460.803H508.116V474H506.996V467.877H499.623V474H498.503V460.803ZM510.662 460.803H518.092V461.773H511.782V466.907H517.662V467.877H511.782V473.029H518.185V474H510.662V460.803ZM526.727 474.971H518.663V474H526.727V474.971ZM530.287 474H529.167V460.803H530.287V474ZM527.132 461.773V460.803H532.303V461.773H527.132ZM527.132 474V473.029H532.303V474H527.132ZM544.529 474H543.278L535.905 462.669H535.755V474H534.654V460.803H535.923L543.278 472.115H543.427V460.803H544.529V474ZM545.494 460.803H555.238V461.773H550.926V474H549.806V461.773H545.494V460.803ZM556.202 460.803H563.632V461.773H557.322V466.907H563.202V467.877H557.322V473.029H563.725V474H556.202V460.803ZM571.651 467.952L575.086 474H573.835L570.531 468.157L571.651 467.952ZM570.195 467.597C571.079 467.597 571.763 467.485 572.249 467.261C572.734 467.037 573.076 466.708 573.275 466.272C573.474 465.836 573.574 465.301 573.574 464.667C573.574 464.02 573.474 463.484 573.275 463.061C573.076 462.638 572.734 462.321 572.249 462.109C571.763 461.885 571.079 461.773 570.195 461.773H566.985V467.597H570.195ZM570.289 468.568H566.985V474H565.865V460.803H570.27C571.34 460.803 572.199 460.958 572.846 461.269C573.493 461.568 573.96 462.004 574.246 462.576C574.545 463.148 574.694 463.845 574.694 464.667C574.694 465.314 574.625 465.88 574.489 466.365C574.352 466.851 574.115 467.261 573.779 467.597C573.443 467.921 572.989 468.164 572.417 468.325C571.857 468.487 571.147 468.568 570.289 468.568ZM576.693 460.803H584.216V461.773H577.813V466.907H583.6V467.877H577.813V474H576.693V460.803ZM588.769 462.24H588.694L584.55 474H583.411L588.134 460.803H589.403L594.107 474H592.913L588.769 462.24ZM591.774 470.043H585.745V469.072H591.774V470.043ZM603.604 464.629C603.443 463.621 603.038 462.868 602.391 462.371C601.756 461.873 600.91 461.624 599.852 461.624C598.459 461.624 597.376 462.097 596.604 463.043C595.845 463.988 595.466 465.432 595.466 467.373C595.466 469.327 595.845 470.783 596.604 471.741C597.376 472.687 598.459 473.16 599.852 473.16C600.91 473.16 601.756 472.911 602.391 472.413C603.038 471.916 603.449 471.169 603.623 470.173H604.799C604.588 471.48 604.065 472.476 603.231 473.16C602.397 473.844 601.271 474.187 599.852 474.187C598.011 474.187 596.629 473.596 595.708 472.413C594.8 471.219 594.346 469.539 594.346 467.373C594.346 465.22 594.8 463.559 595.708 462.389C596.629 461.207 598.011 460.616 599.852 460.616C600.736 460.616 601.52 460.765 602.204 461.064C602.901 461.363 603.468 461.811 603.903 462.408C604.351 463.005 604.644 463.746 604.78 464.629H603.604ZM606.737 460.803H614.167V461.773H607.857V466.907H613.737V467.877H607.857V473.029H614.26V474H606.737V460.803ZM423.341 530.629C423.18 529.621 422.775 528.868 422.128 528.371C421.493 527.873 420.647 527.624 419.589 527.624C418.196 527.624 417.113 528.097 416.341 529.043C415.582 529.988 415.203 531.432 415.203 533.373C415.203 535.327 415.582 536.783 416.341 537.741C417.113 538.687 418.196 539.16 419.589 539.16C420.647 539.16 421.493 538.911 422.128 538.413C422.775 537.916 423.186 537.169 423.36 536.173H424.536C424.324 537.48 423.802 538.476 422.968 539.16C422.134 539.844 421.008 540.187 419.589 540.187C417.748 540.187 416.366 539.596 415.445 538.413C414.537 537.219 414.083 535.539 414.083 533.373C414.083 531.22 414.537 529.559 415.445 528.389C416.366 527.207 417.748 526.616 419.589 526.616C420.473 526.616 421.257 526.765 421.941 527.064C422.638 527.363 423.204 527.811 423.64 528.408C424.088 529.005 424.38 529.746 424.517 530.629H423.341ZM436.013 526.803V535.781C436.013 536.652 435.845 537.424 435.509 538.096C435.185 538.768 434.675 539.297 433.978 539.683C433.281 540.056 432.367 540.243 431.234 540.243C430.114 540.243 429.199 540.056 428.49 539.683C427.793 539.297 427.277 538.768 426.941 538.096C426.617 537.424 426.455 536.652 426.455 535.781V526.803H427.575V535.613C427.575 536.348 427.687 536.988 427.911 537.536C428.135 538.084 428.515 538.507 429.05 538.805C429.585 539.092 430.313 539.235 431.234 539.235C432.167 539.235 432.895 539.092 433.418 538.805C433.953 538.507 434.333 538.084 434.557 537.536C434.781 536.988 434.893 536.348 434.893 535.613V526.803H436.013ZM444.311 533.952L447.746 540H446.495L443.191 534.157L444.311 533.952ZM442.855 533.597C443.739 533.597 444.423 533.485 444.908 533.261C445.394 533.037 445.736 532.708 445.935 532.272C446.134 531.836 446.234 531.301 446.234 530.667C446.234 530.02 446.134 529.484 445.935 529.061C445.736 528.638 445.394 528.321 444.908 528.109C444.423 527.885 443.739 527.773 442.855 527.773H439.644V533.597H442.855ZM442.948 534.568H439.644V540H438.524V526.803H442.93C444 526.803 444.859 526.958 445.506 527.269C446.153 527.568 446.619 528.004 446.906 528.576C447.204 529.148 447.354 529.845 447.354 530.667C447.354 531.314 447.285 531.88 447.148 532.365C447.011 532.851 446.775 533.261 446.439 533.597C446.103 533.921 445.649 534.164 445.076 534.325C444.516 534.487 443.807 534.568 442.948 534.568ZM453.535 528.24H453.46L449.316 540H448.177L452.9 526.803H454.169L458.873 540H457.679L453.535 528.24ZM456.54 536.043H450.511V535.072H456.54V536.043ZM457.769 526.803H467.513V527.773H463.201V540H462.081V527.773H457.769V526.803ZM468.477 526.803H475.906V527.773H469.597V532.907H475.477V533.877H469.597V539.029H476V540H468.477V526.803ZM478.139 540V526.803H482.227C484.144 526.803 485.593 527.363 486.577 528.483C487.56 529.603 488.051 531.239 488.051 533.392C488.051 535.532 487.547 537.169 486.539 538.301C485.544 539.434 484.044 540 482.041 540H478.139ZM481.947 539.029C483.204 539.029 484.193 538.805 484.915 538.357C485.637 537.897 486.153 537.244 486.465 536.397C486.776 535.551 486.931 534.549 486.931 533.392C486.931 532.222 486.776 531.22 486.465 530.387C486.166 529.54 485.662 528.893 484.953 528.445C484.256 527.997 483.304 527.773 482.097 527.773H479.259V539.029H481.947ZM496.428 540.971H488.364V540H496.428V540.971ZM501.63 538.712H501.742L506.092 526.803H507.268L502.452 540H500.902L496.105 526.803H497.3L501.63 538.712ZM511.309 540H510.189V526.803H511.309V540ZM508.154 527.773V526.803H513.325V527.773H508.154ZM508.154 540V539.029H513.325V540H508.154ZM522.571 529.659C522.471 528.887 522.129 528.352 521.544 528.053C520.971 527.755 520.212 527.605 519.267 527.605C518.184 527.605 517.381 527.817 516.859 528.24C516.336 528.651 516.075 529.26 516.075 530.069C516.075 530.542 516.162 530.928 516.336 531.227C516.523 531.525 516.759 531.768 517.045 531.955C517.331 532.129 517.636 532.272 517.96 532.384C518.283 532.484 518.582 532.571 518.856 532.645L520.293 533.037C520.654 533.137 521.046 533.261 521.469 533.411C521.892 533.56 522.291 533.765 522.664 534.027C523.05 534.288 523.361 534.624 523.597 535.035C523.834 535.445 523.952 535.956 523.952 536.565C523.952 537.262 523.784 537.891 523.448 538.451C523.112 539.011 522.595 539.452 521.899 539.776C521.202 540.087 520.312 540.243 519.229 540.243C517.786 540.243 516.678 539.95 515.907 539.365C515.135 538.78 514.699 537.99 514.6 536.995H515.757C515.832 537.592 516.025 538.052 516.336 538.376C516.647 538.7 517.045 538.93 517.531 539.067C518.028 539.191 518.595 539.253 519.229 539.253C520.374 539.253 521.258 539.036 521.88 538.6C522.515 538.152 522.832 537.461 522.832 536.528C522.832 535.968 522.695 535.526 522.421 535.203C522.16 534.879 521.805 534.624 521.357 534.437C520.922 534.251 520.449 534.089 519.939 533.952L518.147 533.467C517.126 533.18 516.336 532.782 515.776 532.272C515.228 531.762 514.955 531.059 514.955 530.163C514.955 529.428 515.129 528.8 515.477 528.277C515.838 527.742 516.342 527.332 516.989 527.045C517.649 526.759 518.427 526.616 519.323 526.616C520.194 526.616 520.94 526.747 521.563 527.008C522.197 527.257 522.695 527.612 523.056 528.072C523.429 528.52 523.641 529.049 523.691 529.659H522.571ZM535.041 526.803V535.781C535.041 536.652 534.873 537.424 534.537 538.096C534.213 538.768 533.703 539.297 533.006 539.683C532.309 540.056 531.395 540.243 530.262 540.243C529.142 540.243 528.228 540.056 527.518 539.683C526.821 539.297 526.305 538.768 525.969 538.096C525.645 537.424 525.484 536.652 525.484 535.781V526.803H526.604V535.613C526.604 536.348 526.716 536.988 526.94 537.536C527.164 538.084 527.543 538.507 528.078 538.805C528.613 539.092 529.341 539.235 530.262 539.235C531.196 539.235 531.924 539.092 532.446 538.805C532.981 538.507 533.361 538.084 533.585 537.536C533.809 536.988 533.921 536.348 533.921 535.613V526.803H535.041ZM541.242 528.24H541.167L537.023 540H535.884L540.607 526.803H541.876L546.58 540H545.386L541.242 528.24ZM544.247 536.043H538.218V535.072H544.247V536.043ZM547.944 526.803H549.064V539.029H555.354V540H547.944V526.803ZM563.134 540.971H555.07V540H563.134V540.971ZM566.693 540H565.573V526.803H566.693V540ZM563.539 527.773V526.803H568.709V527.773H563.539ZM563.539 540V539.029H568.709V540H563.539ZM580.935 540H579.685L572.311 528.669H572.162V540H571.061V526.803H572.33L579.685 538.115H579.834V526.803H580.935V540ZM583.475 526.803H590.998V527.773H584.595V532.907H590.382V533.877H584.595V540H583.475V526.803ZM598.304 533.952L601.739 540H600.488L597.184 534.157L598.304 533.952ZM596.848 533.597C597.732 533.597 598.416 533.485 598.902 533.261C599.387 533.037 599.729 532.708 599.928 532.272C600.128 531.836 600.227 531.301 600.227 530.667C600.227 530.02 600.128 529.484 599.928 529.061C599.729 528.638 599.387 528.321 598.902 528.109C598.416 527.885 597.732 527.773 596.848 527.773H593.638V533.597H596.848ZM596.942 534.568H593.638V540H592.518V526.803H596.923C597.993 526.803 598.852 526.958 599.499 527.269C600.146 527.568 600.613 528.004 600.899 528.576C601.198 529.148 601.347 529.845 601.347 530.667C601.347 531.314 601.279 531.88 601.142 532.365C601.005 532.851 600.768 533.261 600.432 533.597C600.096 533.921 599.642 534.164 599.07 534.325C598.51 534.487 597.8 534.568 596.942 534.568ZM607.528 528.24H607.453L603.309 540H602.171L606.893 526.803H608.163L612.867 540H611.672L607.528 528.24ZM610.533 536.043H604.504V535.072H610.533V536.043ZM621.198 529.659C621.098 528.887 620.756 528.352 620.171 528.053C619.599 527.755 618.839 527.605 617.894 527.605C616.811 527.605 616.008 527.817 615.486 528.24C614.963 528.651 614.702 529.26 614.702 530.069C614.702 530.542 614.789 530.928 614.963 531.227C615.15 531.525 615.386 531.768 615.672 531.955C615.959 532.129 616.263 532.272 616.587 532.384C616.911 532.484 617.209 532.571 617.483 532.645L618.92 533.037C619.281 533.137 619.673 533.261 620.096 533.411C620.519 533.56 620.918 533.765 621.291 534.027C621.677 534.288 621.988 534.624 622.224 535.035C622.461 535.445 622.579 535.956 622.579 536.565C622.579 537.262 622.411 537.891 622.075 538.451C621.739 539.011 621.223 539.452 620.526 539.776C619.829 540.087 618.939 540.243 617.856 540.243C616.413 540.243 615.305 539.95 614.534 539.365C613.762 538.78 613.327 537.99 613.227 536.995H614.384C614.459 537.592 614.652 538.052 614.963 538.376C615.274 538.7 615.672 538.93 616.158 539.067C616.655 539.191 617.222 539.253 617.856 539.253C619.001 539.253 619.885 539.036 620.507 538.6C621.142 538.152 621.459 537.461 621.459 536.528C621.459 535.968 621.322 535.526 621.048 535.203C620.787 534.879 620.432 534.624 619.984 534.437C619.549 534.251 619.076 534.089 618.566 533.952L616.774 533.467C615.753 533.18 614.963 532.782 614.403 532.272C613.855 531.762 613.582 531.059 613.582 530.163C613.582 529.428 613.756 528.8 614.104 528.277C614.465 527.742 614.969 527.332 615.616 527.045C616.276 526.759 617.054 526.616 617.95 526.616C618.821 526.616 619.567 526.747 620.19 527.008C620.824 527.257 621.322 527.612 621.683 528.072C622.056 528.52 622.268 529.049 622.318 529.659H621.198ZM622.409 526.803H632.153V527.773H627.841V540H626.721V527.773H622.409V526.803ZM638.904 533.952L642.338 540H641.088L637.784 534.157L638.904 533.952ZM637.448 533.597C638.331 533.597 639.016 533.485 639.501 533.261C639.986 533.037 640.329 532.708 640.528 532.272C640.727 531.836 640.826 531.301 640.826 530.667C640.826 530.02 640.727 529.484 640.528 529.061C640.329 528.638 639.986 528.321 639.501 528.109C639.016 527.885 638.331 527.773 637.448 527.773H634.237V533.597H637.448ZM637.541 534.568H634.237V540H633.117V526.803H637.522C638.593 526.803 639.451 526.958 640.098 527.269C640.746 527.568 641.212 528.004 641.498 528.576C641.797 529.148 641.946 529.845 641.946 530.667C641.946 531.314 641.878 531.88 641.741 532.365C641.604 532.851 641.368 533.261 641.032 533.597C640.696 533.921 640.242 534.164 639.669 534.325C639.109 534.487 638.4 534.568 637.541 534.568ZM653.485 526.803V535.781C653.485 536.652 653.317 537.424 652.981 538.096C652.657 538.768 652.147 539.297 651.45 539.683C650.753 540.056 649.838 540.243 648.706 540.243C647.586 540.243 646.671 540.056 645.962 539.683C645.265 539.297 644.749 538.768 644.413 538.096C644.089 537.424 643.927 536.652 643.927 535.781V526.803H645.047V535.613C645.047 536.348 645.159 536.988 645.383 537.536C645.607 538.084 645.987 538.507 646.522 538.805C647.057 539.092 647.785 539.235 648.706 539.235C649.639 539.235 650.367 539.092 650.89 538.805C651.425 538.507 651.805 538.084 652.029 537.536C652.253 536.988 652.365 536.348 652.365 535.613V526.803H653.485ZM664.695 530.629C664.533 529.621 664.129 528.868 663.481 528.371C662.847 527.873 662.001 527.624 660.943 527.624C659.549 527.624 658.466 528.097 657.695 529.043C656.936 529.988 656.556 531.432 656.556 533.373C656.556 535.327 656.936 536.783 657.695 537.741C658.466 538.687 659.549 539.16 660.943 539.16C662.001 539.16 662.847 538.911 663.481 538.413C664.129 537.916 664.539 537.169 664.713 536.173H665.889C665.678 537.48 665.155 538.476 664.321 539.16C663.488 539.844 662.361 540.187 660.943 540.187C659.101 540.187 657.72 539.596 656.799 538.413C655.89 537.219 655.436 535.539 655.436 533.373C655.436 531.22 655.89 529.559 656.799 528.389C657.72 527.207 659.101 526.616 660.943 526.616C661.826 526.616 662.61 526.765 663.295 527.064C663.992 527.363 664.558 527.811 664.993 528.408C665.441 529.005 665.734 529.746 665.871 530.629H664.695ZM665.998 526.803H675.742V527.773H671.43V540H670.31V527.773H665.998V526.803ZM686.245 526.803V535.781C686.245 536.652 686.077 537.424 685.741 538.096C685.417 538.768 684.907 539.297 684.21 539.683C683.513 540.056 682.598 540.243 681.466 540.243C680.346 540.243 679.431 540.056 678.722 539.683C678.025 539.297 677.509 538.768 677.173 538.096C676.849 537.424 676.687 536.652 676.687 535.781V526.803H677.807V535.613C677.807 536.348 677.919 536.988 678.143 537.536C678.367 538.084 678.747 538.507 679.282 538.805C679.817 539.092 680.545 539.235 681.466 539.235C682.399 539.235 683.127 539.092 683.65 538.805C684.185 538.507 684.565 538.084 684.789 537.536C685.013 536.988 685.125 536.348 685.125 535.613V526.803H686.245ZM694.543 533.952L697.977 540H696.727L693.423 534.157L694.543 533.952ZM693.087 533.597C693.97 533.597 694.655 533.485 695.14 533.261C695.625 533.037 695.968 532.708 696.167 532.272C696.366 531.836 696.465 531.301 696.465 530.667C696.465 530.02 696.366 529.484 696.167 529.061C695.968 528.638 695.625 528.321 695.14 528.109C694.655 527.885 693.97 527.773 693.087 527.773H689.876V533.597H693.087ZM693.18 534.568H689.876V540H688.756V526.803H693.161C694.232 526.803 695.09 526.958 695.737 527.269C696.385 527.568 696.851 528.004 697.137 528.576C697.436 529.148 697.585 529.845 697.585 530.667C697.585 531.314 697.517 531.88 697.38 532.365C697.243 532.851 697.007 533.261 696.671 533.597C696.335 533.921 695.881 534.164 695.308 534.325C694.748 534.487 694.039 534.568 693.18 534.568ZM699.585 526.803H707.014V527.773H700.705V532.907H706.585V533.877H700.705V539.029H707.108V540H699.585V526.803Z" fill="#FFFAEE"/>
<path d="M420.212 486H440.362C442.133 486 443.574 487.441 443.574 489.212V509.362C443.574 511.134 442.133 512.574 440.362 512.574H420.212C418.441 512.574 417 511.133 417 509.362V489.212C417 487.441 418.441 486 420.212 486H420.212ZM440.362 487.82H420.212C419.444 487.82 418.82 488.444 418.82 489.212V495.376H432.169L426.573 490.176H429.248L435.818 496.284L430.003 501.692H441.754V489.212C441.754 488.444 441.13 487.82 440.362 487.82ZM420.212 510.755H440.362C441.13 510.755 441.754 510.13 441.754 509.363V503.511H429.905L435.5 508.711H432.825L426.255 502.603L432.07 497.196H418.819V509.362C418.819 510.13 419.444 510.755 420.211 510.755L420.212 510.755Z" fill="#FFFAEE"/>
<path d="M485.529 573C485.307 573 485.152 572.956 485.064 572.867C484.975 572.779 484.931 572.69 484.931 572.601C484.931 572.38 485.097 572.236 485.429 572.17L485.961 572.07C486.669 571.937 487.223 571.727 487.622 571.439C488.042 571.129 488.397 570.642 488.685 569.977L492.006 562.071C492.117 561.828 492.184 561.584 492.206 561.34C492.25 561.075 492.206 560.798 492.073 560.51L487.921 551.309C487.699 550.799 487.456 550.456 487.19 550.279C486.946 550.102 486.68 549.991 486.393 549.947L485.761 549.847C485.407 549.781 485.23 549.637 485.23 549.415C485.23 549.194 485.418 549.083 485.795 549.083H491.641C492.04 549.083 492.239 549.194 492.239 549.415C492.239 549.637 492.051 549.781 491.674 549.847L491.043 549.947C490.667 550.013 490.401 550.146 490.246 550.345C490.113 550.545 490.146 550.866 490.345 551.309L493.501 558.384C493.59 558.583 493.689 558.683 493.8 558.683C493.933 558.683 494.044 558.583 494.132 558.384L496.989 551.641C497.188 551.154 497.255 550.799 497.188 550.578C497.122 550.334 496.901 550.168 496.524 550.08L495.594 549.88C495.217 549.792 495.029 549.637 495.029 549.415C495.029 549.194 495.229 549.083 495.627 549.083H500.71C500.953 549.083 501.108 549.127 501.175 549.216C501.263 549.282 501.307 549.371 501.307 549.482C501.307 549.703 501.141 549.847 500.809 549.914L500.278 550.013C499.724 550.102 499.259 550.312 498.883 550.644C498.506 550.954 498.174 551.442 497.886 552.106L494.73 559.48C494.62 559.768 494.553 560.045 494.531 560.311C494.531 560.576 494.608 560.864 494.763 561.174L499.049 570.774C499.292 571.306 499.536 571.649 499.779 571.804C500.045 571.959 500.311 572.059 500.577 572.103L501.208 572.203C501.584 572.269 501.772 572.424 501.772 572.668C501.772 572.889 501.573 573 501.175 573H495.295C494.896 573 494.697 572.867 494.697 572.601C494.697 572.402 494.874 572.269 495.229 572.203L495.893 572.103C496.269 572.059 496.535 571.937 496.69 571.738C496.845 571.516 496.834 571.195 496.657 570.774L493.235 563.167C493.147 562.968 493.036 562.869 492.903 562.869C492.793 562.869 492.693 562.968 492.604 563.167L489.615 570.442C489.415 570.929 489.349 571.295 489.415 571.538C489.482 571.76 489.703 571.915 490.08 572.003L491.01 572.203C491.386 572.291 491.575 572.446 491.575 572.668C491.575 572.889 491.375 573 490.977 573H485.529ZM500.936 573C500.604 573 500.438 572.878 500.438 572.635C500.438 572.435 500.581 572.302 500.869 572.236L501.633 572.103C502.098 572.015 502.397 571.893 502.53 571.738C502.685 571.583 502.763 571.273 502.763 570.808V551.275C502.763 550.81 502.685 550.5 502.53 550.345C502.397 550.19 502.098 550.069 501.633 549.98L500.869 549.847C500.581 549.781 500.438 549.648 500.438 549.448C500.438 549.205 500.604 549.083 500.936 549.083H506.948C507.28 549.083 507.447 549.205 507.447 549.448C507.447 549.648 507.303 549.781 507.015 549.847L506.251 549.98C505.786 550.069 505.476 550.19 505.321 550.345C505.188 550.5 505.121 550.81 505.121 551.275V570.808C505.121 571.273 505.188 571.583 505.321 571.738C505.476 571.893 505.786 572.015 506.251 572.103L507.015 572.236C507.303 572.302 507.447 572.435 507.447 572.635C507.447 572.878 507.28 573 506.948 573H500.936ZM514.357 573.332C514.268 573.332 514.168 573.299 514.058 573.233C513.947 573.166 513.869 573.022 513.825 572.801L508.577 551.74C508.422 551.12 508.245 550.689 508.045 550.445C507.868 550.201 507.558 550.035 507.115 549.947L506.617 549.847C506.307 549.781 506.152 549.637 506.152 549.415C506.152 549.194 506.318 549.083 506.65 549.083H512.33C512.64 549.083 512.795 549.205 512.795 549.448C512.795 549.692 512.607 549.825 512.231 549.847L511.6 549.914C511.223 549.936 510.979 550.057 510.869 550.279C510.78 550.478 510.791 550.821 510.902 551.309L514.755 567.287C514.8 567.419 514.866 567.486 514.955 567.486C515.065 567.486 515.132 567.419 515.154 567.287L518.974 552.006C519.284 550.744 518.952 550.046 517.977 549.914L517.479 549.847C517.103 549.781 516.914 549.648 516.914 549.448C516.914 549.205 517.069 549.083 517.379 549.083H522.03C522.362 549.083 522.528 549.194 522.528 549.415C522.528 549.637 522.373 549.781 522.063 549.847L521.565 549.947C521.144 550.035 520.812 550.257 520.568 550.611C520.347 550.943 520.159 551.419 520.004 552.039L514.855 572.801C514.811 573.022 514.733 573.166 514.622 573.233C514.534 573.299 514.445 573.332 514.357 573.332Z" fill="#FFFAEE"/>
<path fill-rule="evenodd" clip-rule="evenodd" d="M641.054 570.807V574.693C640.628 574.733 640.196 574.756 639.753 574.756C632.52 574.756 626.617 568.863 626.617 561.642C626.617 554.421 632.52 548.534 639.753 548.534C640.19 548.534 640.628 548.557 641.054 548.597V552.484C640.628 552.42 640.196 552.392 639.753 552.392C634.645 552.392 630.481 556.554 630.481 561.642C630.481 566.73 634.65 570.893 639.753 570.893C640.19 570.893 640.628 570.858 641.054 570.801V570.807Z" fill="#FFFAEE"/>
<path fill-rule="evenodd" clip-rule="evenodd" d="M646.652 559.642H654.236V563.649H646.652C647.573 567.788 651.282 570.899 655.699 570.899C656.136 570.899 656.574 570.864 657 570.807V574.693C656.568 574.733 656.136 574.756 655.699 574.756C648.46 574.756 642.569 568.863 642.569 561.648C642.569 554.433 648.46 548.534 655.699 548.534C656.136 548.534 656.574 548.557 657 548.597V552.484C656.568 552.42 656.136 552.392 655.699 552.392C651.282 552.392 647.567 555.502 646.652 559.642Z" fill="#FFFAEE"/>
<path d="M504.111 486C496.881 486 491 491.881 491 499.111C491 506.341 496.881 512.222 504.111 512.222C511.341 512.222 517.222 506.341 517.222 499.111C517.222 491.881 511.341 486 504.111 486ZM516.026 499.111C516.026 505.682 510.682 511.026 504.111 511.026C497.54 511.026 492.196 505.682 492.196 499.111C492.196 492.54 497.54 487.196 504.111 487.196C510.682 487.196 516.026 492.54 516.026 499.111Z" fill="#FFFAEE"/>
<path d="M522.367 494V492.964L524.353 489.217C524.454 489.03 524.512 488.868 524.526 488.732C524.541 488.588 524.548 488.411 524.548 488.203C524.548 488.109 524.544 488.012 524.537 487.911C524.537 487.803 524.519 487.71 524.483 487.63C524.447 487.551 524.393 487.487 524.321 487.436C524.249 487.379 524.145 487.35 524.008 487.35C523.842 487.35 523.709 487.397 523.609 487.49C523.515 487.584 523.468 487.72 523.468 487.9V488.527H522.367V487.922C522.367 487.692 522.41 487.476 522.497 487.274C522.583 487.073 522.702 486.896 522.853 486.745C522.997 486.594 523.17 486.475 523.371 486.389C523.573 486.295 523.789 486.249 524.019 486.249C524.307 486.249 524.551 486.303 524.753 486.411C524.962 486.511 525.134 486.652 525.271 486.832C525.401 487.011 525.494 487.217 525.552 487.447C525.617 487.677 525.649 487.922 525.649 488.181C525.649 488.368 525.645 488.527 525.638 488.656C525.631 488.778 525.617 488.897 525.595 489.012C525.573 489.127 525.537 489.243 525.487 489.358C525.437 489.473 525.368 489.613 525.282 489.779L523.663 492.899H525.649V494H522.367ZM528.835 486.313L527.582 489.541L527.604 489.563C527.64 489.534 527.694 489.513 527.766 489.498C527.845 489.477 527.946 489.466 528.068 489.466C528.262 489.466 528.442 489.513 528.608 489.606C528.773 489.7 528.903 489.818 528.996 489.962C529.047 490.042 529.086 490.121 529.115 490.2C529.144 490.279 529.169 490.383 529.191 490.513C529.205 490.642 529.216 490.808 529.223 491.01C529.23 491.204 529.234 491.452 529.234 491.754C529.234 492.006 529.23 492.215 529.223 492.381C529.216 492.539 529.205 492.672 529.191 492.78C529.169 492.895 529.14 492.992 529.104 493.072C529.076 493.151 529.036 493.233 528.986 493.32C528.842 493.557 528.647 493.741 528.403 493.87C528.165 494 527.895 494.065 527.593 494.065C527.291 494.065 527.021 494 526.783 493.87C526.546 493.734 526.355 493.55 526.211 493.32C526.154 493.233 526.107 493.151 526.071 493.072C526.042 492.992 526.02 492.895 526.006 492.78C525.984 492.672 525.97 492.539 525.963 492.381C525.956 492.215 525.952 492.006 525.952 491.754C525.952 491.517 525.956 491.323 525.963 491.171C525.97 491.013 525.981 490.876 525.995 490.761C526.01 490.653 526.031 490.556 526.06 490.47C526.089 490.376 526.121 490.279 526.157 490.178L527.604 486.313H528.835ZM528.133 490.988C528.133 490.822 528.079 490.689 527.971 490.589C527.863 490.488 527.737 490.437 527.593 490.437C527.449 490.437 527.323 490.488 527.215 490.589C527.107 490.689 527.053 490.822 527.053 490.988V492.413C527.053 492.579 527.107 492.712 527.215 492.812C527.323 492.913 527.449 492.964 527.593 492.964C527.737 492.964 527.863 492.913 527.971 492.812C528.079 492.712 528.133 492.579 528.133 492.413V490.988Z" fill="#FFFAEE"/>
<path d="M362.71 651.71C362.318 652.103 361.682 652.103 361.289 651.71L354.896 645.317C354.504 644.925 354.504 644.289 354.896 643.896C355.288 643.504 355.925 643.504 356.317 643.896L362 649.579L367.683 643.896C368.075 643.504 368.711 643.504 369.103 643.896C369.496 644.289 369.496 644.925 369.103 645.317L362.71 651.71ZM361.29 426.79C361.682 426.397 362.318 426.397 362.71 426.79L369.104 433.183C369.496 433.575 369.496 434.211 369.104 434.604C368.711 434.996 368.075 434.996 367.683 434.604L362 428.921L356.317 434.604C355.925 434.996 355.289 434.996 354.896 434.604C354.504 434.211 354.504 433.575 354.896 433.183L361.29 426.79ZM362 651L360.995 651L360.995 427.5L362 427.5L363.005 427.5L363.004 651L362 651Z" fill="#FFFAEE"/>
</svg>
