<svg width="1080" height="1080" viewBox="0 0 1080 1080" fill="none" xmlns="http://www.w3.org/2000/svg">
<rect width="1080" height="1080" fill="#191919"/>
<path d="M405.091 423.201H406.517V430.971H415.902V423.201H417.328V440H415.902V432.206H406.517V440H405.091V423.201ZM432.711 423.201V434.63C432.711 435.739 432.497 436.721 432.069 437.576C431.658 438.432 431.008 439.105 430.121 439.596C429.234 440.071 428.07 440.309 426.628 440.309C425.202 440.309 424.038 440.071 423.135 439.596C422.248 439.105 421.591 438.432 421.163 437.576C420.751 436.721 420.545 435.739 420.545 434.63V423.201H421.971V434.416C421.971 435.351 422.114 436.167 422.399 436.864C422.684 437.561 423.167 438.099 423.848 438.479C424.529 438.844 425.456 439.026 426.628 439.026C427.816 439.026 428.743 438.844 429.408 438.479C430.089 438.099 430.572 437.561 430.858 436.864C431.143 436.167 431.285 435.351 431.285 434.416V423.201H432.711ZM437.381 423.201L443.559 437.6H443.725L449.903 423.201H451.329V440H449.951V426.599H449.832L444.01 440H443.203L437.381 426.599H437.286V440H435.908V423.201H437.381ZM459.888 425.031H459.792L454.518 440H453.068L459.08 423.201H460.695L466.683 440H465.162L459.888 425.031ZM463.713 434.963H456.038V433.727H463.713V434.963ZM480.988 440H479.396L470.011 425.577H469.821V440H468.419V423.201H470.035L479.396 437.6H479.587V423.201H480.988V440ZM494.869 433.109H488.454V431.874H494.869V433.109ZM503.797 423.201L509.975 437.6H510.141L516.319 423.201H517.745V440H516.367V426.599H516.248L510.426 440H509.618L503.797 426.599H503.702V440H502.324V423.201H503.797ZM526.303 425.031H526.208L520.933 440H519.484L525.496 423.201H527.111L533.099 440H531.578L526.303 425.031ZM530.129 434.963H522.454V433.727H530.129V434.963ZM534.835 440V423.201H540.038C542.478 423.201 544.323 423.914 545.575 425.339C546.826 426.765 547.452 428.848 547.452 431.589C547.452 434.313 546.81 436.396 545.527 437.838C544.26 439.279 542.351 440 539.801 440H534.835ZM539.682 438.764C541.282 438.764 542.541 438.479 543.46 437.909C544.379 437.323 545.036 436.491 545.432 435.414C545.828 434.337 546.026 433.062 546.026 431.589C546.026 430.1 545.828 428.824 545.432 427.763C545.052 426.686 544.41 425.862 543.508 425.292C542.62 424.722 541.409 424.437 539.872 424.437H536.26V438.764H539.682ZM549.965 423.201H559.422V424.437H551.39V430.971H558.875V432.206H551.39V438.764H559.54V440H549.965V423.201Z" fill="#FFFAEE"/>
<path d="M406.569 577.096V533.404H418.877V552.543L438.815 533.404H453.831L435.062 551.373L454.015 577.096H439.246L426.2 558.881L418.877 565.835V577.096H406.569ZM454.348 577.096V533.404H466.656V577.096H454.348ZM471.358 577.096V533.404H483.973L504.896 557.896H504.958V533.404H516.404V577.096H506.988L482.865 548.912H482.804V577.096H471.358ZM521.06 577.096V533.404H561.675V542.512H533.367V550.635H558.906V559.373H533.367V567.989H562.106V577.096H521.06ZM579.942 577.096V542.512H562.588V533.404H609.603V542.512H592.25V577.096H579.942ZM611.689 577.096V533.404H623.997V577.096H611.689ZM654.114 577.896C648.863 577.896 644.186 576.973 640.084 575.127C636.022 573.24 632.822 570.614 630.484 567.25C628.186 563.845 627.038 559.845 627.038 555.25C627.038 550.655 628.186 546.676 630.484 543.312C632.822 539.948 636.022 537.343 640.084 535.496C644.186 533.65 648.863 532.727 654.114 532.727C658.709 532.727 662.75 533.384 666.238 534.696C669.725 536.009 672.596 537.814 674.853 540.112C677.109 542.368 678.627 544.912 679.407 547.743L668.391 550.389C667.53 548.255 666.381 546.594 664.945 545.404C663.509 544.173 661.868 543.312 660.022 542.82C658.217 542.327 656.309 542.081 654.299 542.081C651.591 542.081 649.109 542.553 646.853 543.496C644.596 544.399 642.791 545.773 641.438 547.62C640.125 549.466 639.468 551.804 639.468 554.635V555.866C639.468 558.655 640.125 560.994 641.438 562.881C642.791 564.727 644.596 566.122 646.853 567.066C649.109 567.968 651.591 568.42 654.299 568.42C656.309 568.42 658.217 568.173 660.022 567.681C661.868 567.189 663.509 566.348 664.945 565.158C666.381 563.927 667.53 562.245 668.391 560.112L679.407 562.758C678.627 565.589 677.109 568.153 674.853 570.45C672.596 572.707 669.725 574.512 666.238 575.866C662.75 577.22 658.709 577.896 654.114 577.896Z" fill="#FFFAEE"/>
<path d="M408.852 511.278C408.199 511.278 407.564 511.162 406.948 510.928C406.332 510.695 405.777 510.354 405.282 509.906C404.787 509.458 404.391 508.917 404.092 508.282C403.803 507.648 403.658 506.924 403.658 506.112C403.658 505.3 403.803 504.577 404.092 503.942C404.391 503.308 404.787 502.771 405.282 502.332C405.777 501.884 406.332 501.544 406.948 501.31C407.564 501.077 408.199 500.96 408.852 500.96C409.505 500.96 410.14 501.077 410.756 501.31C411.372 501.544 411.927 501.884 412.422 502.332C412.917 502.771 413.309 503.308 413.598 503.942C413.887 504.577 414.032 505.3 414.032 506.112C414.032 506.924 413.887 507.648 413.598 508.282C413.309 508.917 412.917 509.458 412.422 509.906C411.927 510.354 411.372 510.695 410.756 510.928C410.14 511.162 409.505 511.278 408.852 511.278ZM408.852 510.634C409.403 510.634 409.944 510.536 410.476 510.34C411.008 510.135 411.489 509.841 411.918 509.458C412.347 509.066 412.688 508.59 412.94 508.03C413.201 507.47 413.332 506.831 413.332 506.112C413.332 505.394 413.201 504.754 412.94 504.194C412.688 503.634 412.347 503.163 411.918 502.78C411.489 502.388 411.008 502.094 410.476 501.898C409.944 501.693 409.403 501.59 408.852 501.59C408.292 501.59 407.746 501.693 407.214 501.898C406.682 502.094 406.201 502.388 405.772 502.78C405.343 503.163 404.997 503.634 404.736 504.194C404.484 504.754 404.358 505.394 404.358 506.112C404.358 506.831 404.484 507.47 404.736 508.03C404.997 508.59 405.343 509.066 405.772 509.458C406.201 509.841 406.682 510.135 407.214 510.34C407.746 510.536 408.292 510.634 408.852 510.634ZM408.908 508.856C408.049 508.856 407.401 508.609 406.962 508.114C406.523 507.62 406.304 506.948 406.304 506.098C406.304 505.249 406.528 504.582 406.976 504.096C407.433 503.611 408.068 503.368 408.88 503.368C409.309 503.368 409.678 503.438 409.986 503.578C410.303 503.718 410.555 503.919 410.742 504.18C410.938 504.432 411.064 504.736 411.12 505.09H410.336C410.271 504.764 410.135 504.507 409.93 504.32C409.734 504.134 409.389 504.04 408.894 504.04C408.297 504.04 407.839 504.218 407.522 504.572C407.205 504.927 407.046 505.436 407.046 506.098C407.046 506.77 407.205 507.288 407.522 507.652C407.839 508.007 408.297 508.184 408.894 508.184C409.361 508.184 409.701 508.11 409.916 507.96C410.131 507.802 410.271 507.55 410.336 507.204H411.12C411.083 507.531 410.971 507.82 410.784 508.072C410.607 508.315 410.359 508.506 410.042 508.646C409.734 508.786 409.356 508.856 408.908 508.856ZM415.487 510.41L418.875 506.784C419.305 506.327 419.655 505.926 419.925 505.58C420.196 505.226 420.397 504.899 420.527 504.6C420.667 504.292 420.737 503.98 420.737 503.662C420.737 503.056 420.541 502.594 420.149 502.276C419.757 501.95 419.235 501.786 418.581 501.786C417.928 501.786 417.391 501.982 416.971 502.374C416.551 502.757 416.351 503.284 416.369 503.956H415.557C415.548 503.35 415.674 502.832 415.935 502.402C416.197 501.973 416.561 501.642 417.027 501.408C417.494 501.175 418.026 501.058 418.623 501.058C419.249 501.058 419.776 501.166 420.205 501.38C420.644 501.586 420.98 501.884 421.213 502.276C421.447 502.659 421.563 503.121 421.563 503.662C421.563 504.017 421.503 504.362 421.381 504.698C421.26 505.025 421.036 505.403 420.709 505.832C420.392 506.252 419.93 506.784 419.323 507.428L416.131 510.844L416.187 510.368H421.689V511.096H415.487V510.41ZM426.626 511.236C425.814 511.236 425.152 511.054 424.638 510.69C424.134 510.317 423.766 509.757 423.532 509.01C423.299 508.254 423.182 507.298 423.182 506.14C423.182 504.983 423.299 504.031 423.532 503.284C423.775 502.538 424.148 501.982 424.652 501.618C425.166 501.245 425.824 501.058 426.626 501.058C427.438 501.058 428.096 501.245 428.6 501.618C429.114 501.982 429.487 502.538 429.72 503.284C429.963 504.031 430.084 504.983 430.084 506.14C430.084 507.288 429.963 508.24 429.72 508.996C429.487 509.752 429.114 510.317 428.6 510.69C428.096 511.054 427.438 511.236 426.626 511.236ZM426.626 510.508C427.578 510.508 428.255 510.149 428.656 509.43C429.058 508.712 429.258 507.615 429.258 506.14C429.258 504.666 429.058 503.574 428.656 502.864C428.255 502.146 427.578 501.786 426.626 501.786C425.684 501.786 425.012 502.146 424.61 502.864C424.209 503.574 424.008 504.666 424.008 506.14C424.008 507.615 424.204 508.712 424.596 509.43C424.998 510.149 425.674 510.508 426.626 510.508ZM431.579 510.41L434.967 506.784C435.397 506.327 435.747 505.926 436.017 505.58C436.288 505.226 436.489 504.899 436.619 504.6C436.759 504.292 436.829 503.98 436.829 503.662C436.829 503.056 436.633 502.594 436.241 502.276C435.849 501.95 435.327 501.786 434.673 501.786C434.02 501.786 433.483 501.982 433.063 502.374C432.643 502.757 432.443 503.284 432.461 503.956H431.649C431.64 503.35 431.766 502.832 432.027 502.402C432.289 501.973 432.653 501.642 433.119 501.408C433.586 501.175 434.118 501.058 434.715 501.058C435.341 501.058 435.868 501.166 436.297 501.38C436.736 501.586 437.072 501.884 437.305 502.276C437.539 502.659 437.655 503.121 437.655 503.662C437.655 504.017 437.595 504.362 437.473 504.698C437.352 505.025 437.128 505.403 436.801 505.832C436.484 506.252 436.022 506.784 435.415 507.428L432.223 510.844L432.279 510.368H437.781V511.096H431.579V510.41ZM439.54 507.988C439.55 507.624 439.592 507.27 439.666 506.924C439.75 506.579 439.895 506.21 440.1 505.818C440.315 505.426 440.609 504.978 440.982 504.474L443.432 501.198H444.426L441.108 505.594L440.996 505.468C441.192 505.347 441.37 505.249 441.528 505.174C441.687 505.09 441.86 505.03 442.046 504.992C442.233 504.946 442.462 504.922 442.732 504.922C443.414 504.922 443.992 505.048 444.468 505.3C444.944 505.543 445.304 505.898 445.546 506.364C445.798 506.831 445.924 507.396 445.924 508.058C445.924 508.693 445.803 509.248 445.56 509.724C445.318 510.2 444.958 510.574 444.482 510.844C444.006 511.106 443.423 511.236 442.732 511.236C441.687 511.236 440.889 510.942 440.338 510.354C439.797 509.757 439.531 508.968 439.54 507.988ZM440.366 508.058C440.366 508.805 440.548 509.402 440.912 509.85C441.286 510.289 441.892 510.508 442.732 510.508C443.563 510.508 444.165 510.289 444.538 509.85C444.912 509.402 445.098 508.805 445.098 508.058C445.098 507.312 444.912 506.724 444.538 506.294C444.165 505.865 443.563 505.65 442.732 505.65C441.986 505.65 441.402 505.865 440.982 506.294C440.572 506.724 440.366 507.312 440.366 508.058Z" fill="#FFFAEE"/>
<path d="M412.034 469.744L407.274 476.562L407.092 476.156H413.952V476.884H406.602V476.184L411.502 469.198H412.566V479.096H411.74V469.646L412.034 469.744ZM418.731 479.236C418.087 479.236 417.522 479.138 417.037 478.942C416.561 478.746 416.188 478.448 415.917 478.046C415.646 477.645 415.492 477.141 415.455 476.534H416.365C416.384 476.973 416.491 477.342 416.687 477.64C416.892 477.93 417.168 478.149 417.513 478.298C417.858 478.438 418.269 478.508 418.745 478.508C419.473 478.508 420.061 478.312 420.509 477.92C420.957 477.519 421.181 476.945 421.181 476.198C421.181 475.48 420.962 474.92 420.523 474.518C420.094 474.117 419.492 473.916 418.717 473.916H417.625L417.611 473.314L420.985 469.604L421.055 469.926H415.861V469.198H421.783V469.87L418.549 473.412V473.202C419.24 473.193 419.809 473.282 420.257 473.468C420.705 473.646 421.055 473.888 421.307 474.196C421.568 474.495 421.75 474.822 421.853 475.176C421.965 475.522 422.021 475.862 422.021 476.198C422.021 476.852 421.886 477.407 421.615 477.864C421.344 478.312 420.962 478.653 420.467 478.886C419.982 479.12 419.403 479.236 418.731 479.236ZM428.443 474.56L431.019 479.096H430.081L427.603 474.714L428.443 474.56ZM427.351 474.294C428.014 474.294 428.527 474.21 428.891 474.042C429.255 473.874 429.512 473.627 429.661 473.3C429.81 472.974 429.885 472.572 429.885 472.096C429.885 471.611 429.81 471.21 429.661 470.892C429.512 470.575 429.255 470.337 428.891 470.178C428.527 470.01 428.014 469.926 427.351 469.926H424.943V474.294H427.351ZM427.421 475.022H424.943V479.096H424.103V469.198H427.407C428.21 469.198 428.854 469.315 429.339 469.548C429.824 469.772 430.174 470.099 430.389 470.528C430.613 470.958 430.725 471.48 430.725 472.096C430.725 472.582 430.674 473.006 430.571 473.37C430.468 473.734 430.291 474.042 430.039 474.294C429.787 474.537 429.446 474.719 429.017 474.84C428.597 474.962 428.065 475.022 427.421 475.022ZM436.173 475.036H432.393V474.308H436.173V475.036ZM441.152 479.236C440.34 479.236 439.677 479.054 439.164 478.69C438.66 478.317 438.291 477.757 438.058 477.01C437.824 476.254 437.708 475.298 437.708 474.14C437.708 472.983 437.824 472.031 438.058 471.284C438.3 470.538 438.674 469.982 439.178 469.618C439.691 469.245 440.349 469.058 441.152 469.058C441.964 469.058 442.622 469.245 443.126 469.618C443.639 469.982 444.012 470.538 444.246 471.284C444.488 472.031 444.61 472.983 444.61 474.14C444.61 475.288 444.488 476.24 444.246 476.996C444.012 477.752 443.639 478.317 443.126 478.69C442.622 479.054 441.964 479.236 441.152 479.236ZM441.152 478.508C442.104 478.508 442.78 478.149 443.182 477.43C443.583 476.712 443.784 475.615 443.784 474.14C443.784 472.666 443.583 471.574 443.182 470.864C442.78 470.146 442.104 469.786 441.152 469.786C440.209 469.786 439.537 470.146 439.136 470.864C438.734 471.574 438.534 472.666 438.534 474.14C438.534 475.615 438.73 476.712 439.122 477.43C439.523 478.149 440.2 478.508 441.152 478.508ZM449.451 479.236C448.639 479.236 447.976 479.054 447.463 478.69C446.959 478.317 446.59 477.757 446.357 477.01C446.123 476.254 446.007 475.298 446.007 474.14C446.007 472.983 446.123 472.031 446.357 471.284C446.599 470.538 446.973 469.982 447.477 469.618C447.99 469.245 448.648 469.058 449.451 469.058C450.263 469.058 450.921 469.245 451.425 469.618C451.938 469.982 452.311 470.538 452.545 471.284C452.787 472.031 452.909 472.983 452.909 474.14C452.909 475.288 452.787 476.24 452.545 476.996C452.311 477.752 451.938 478.317 451.425 478.69C450.921 479.054 450.263 479.236 449.451 479.236ZM449.451 478.508C450.403 478.508 451.079 478.149 451.481 477.43C451.882 476.712 452.083 475.615 452.083 474.14C452.083 472.666 451.882 471.574 451.481 470.864C451.079 470.146 450.403 469.786 449.451 469.786C448.508 469.786 447.836 470.146 447.435 470.864C447.033 471.574 446.833 472.666 446.833 474.14C446.833 475.615 447.029 476.712 447.421 477.43C447.822 478.149 448.499 478.508 449.451 478.508ZM459.639 469.744L454.879 476.562L454.697 476.156H461.557V476.884H454.207V476.184L459.107 469.198H460.171V479.096H459.345V469.646L459.639 469.744ZM466.322 479.236C465.688 479.236 465.137 479.138 464.67 478.942C464.204 478.737 463.84 478.443 463.578 478.06C463.317 477.678 463.168 477.216 463.13 476.674H463.984C464.022 477.281 464.246 477.738 464.656 478.046C465.067 478.354 465.622 478.508 466.322 478.508C467.153 478.508 467.76 478.28 468.142 477.822C468.534 477.356 468.73 476.782 468.73 476.1C468.73 475.643 468.651 475.232 468.492 474.868C468.343 474.495 468.096 474.201 467.75 473.986C467.405 473.762 466.943 473.65 466.364 473.65C465.86 473.641 465.426 473.734 465.062 473.93C464.708 474.117 464.423 474.383 464.208 474.728H463.326L463.984 469.198H469.08V469.926H464.712L464.25 473.86H464.292C464.479 473.562 464.75 473.333 465.104 473.174C465.459 473.006 465.856 472.922 466.294 472.922C467.013 472.922 467.61 473.062 468.086 473.342C468.572 473.622 468.936 474 469.178 474.476C469.43 474.943 469.556 475.475 469.556 476.072C469.556 476.688 469.426 477.234 469.164 477.71C468.903 478.186 468.53 478.56 468.044 478.83C467.568 479.101 466.994 479.236 466.322 479.236ZM474.497 479.236C473.312 479.236 472.444 478.998 471.893 478.522C471.352 478.046 471.081 477.384 471.081 476.534C471.09 476.077 471.174 475.666 471.333 475.302C471.501 474.938 471.734 474.64 472.033 474.406C472.341 474.173 472.691 474.024 473.083 473.958V473.902C472.57 473.772 472.168 473.506 471.879 473.104C471.599 472.694 471.459 472.199 471.459 471.62C471.459 471.126 471.566 470.687 471.781 470.304C472.005 469.912 472.341 469.609 472.789 469.394C473.246 469.17 473.816 469.058 474.497 469.058C475.178 469.058 475.743 469.17 476.191 469.394C476.639 469.609 476.97 469.912 477.185 470.304C477.409 470.687 477.516 471.126 477.507 471.62C477.498 472.19 477.353 472.68 477.073 473.09C476.793 473.501 476.396 473.772 475.883 473.902V473.958C476.275 474.024 476.625 474.173 476.933 474.406C477.241 474.64 477.479 474.938 477.647 475.302C477.824 475.666 477.913 476.077 477.913 476.534C477.913 477.104 477.792 477.589 477.549 477.99C477.306 478.392 476.933 478.7 476.429 478.914C475.925 479.129 475.281 479.236 474.497 479.236ZM474.497 478.508C475.393 478.508 476.051 478.322 476.471 477.948C476.891 477.575 477.101 477.066 477.101 476.422C477.101 475.788 476.877 475.284 476.429 474.91C475.981 474.537 475.337 474.35 474.497 474.35C473.648 474.35 472.999 474.537 472.551 474.91C472.112 475.284 471.893 475.788 471.893 476.422C471.893 477.066 472.103 477.575 472.523 477.948C472.943 478.322 473.601 478.508 474.497 478.508ZM474.497 473.622C475.225 473.622 475.776 473.454 476.149 473.118C476.532 472.773 476.723 472.306 476.723 471.718C476.723 471.121 476.536 470.65 476.163 470.304C475.799 469.959 475.244 469.786 474.497 469.786C473.741 469.786 473.181 469.959 472.817 470.304C472.453 470.65 472.271 471.121 472.271 471.718C472.271 472.306 472.458 472.773 472.831 473.118C473.204 473.454 473.76 473.622 474.497 473.622ZM482.783 479.236C482.149 479.236 481.598 479.138 481.131 478.942C480.665 478.737 480.301 478.443 480.039 478.06C479.778 477.678 479.629 477.216 479.591 476.674H480.445C480.483 477.281 480.707 477.738 481.117 478.046C481.528 478.354 482.083 478.508 482.783 478.508C483.614 478.508 484.221 478.28 484.603 477.822C484.995 477.356 485.191 476.782 485.191 476.1C485.191 475.643 485.112 475.232 484.953 474.868C484.804 474.495 484.557 474.201 484.211 473.986C483.866 473.762 483.404 473.65 482.825 473.65C482.321 473.641 481.887 473.734 481.523 473.93C481.169 474.117 480.884 474.383 480.669 474.728H479.787L480.445 469.198H485.541V469.926H481.173L480.711 473.86H480.753C480.94 473.562 481.211 473.333 481.565 473.174C481.92 473.006 482.317 472.922 482.755 472.922C483.474 472.922 484.071 473.062 484.547 473.342C485.033 473.622 485.397 474 485.639 474.476C485.891 474.943 486.017 475.475 486.017 476.072C486.017 476.688 485.887 477.234 485.625 477.71C485.364 478.186 484.991 478.56 484.505 478.83C484.029 479.101 483.455 479.236 482.783 479.236Z" fill="#FFFAEE"/>
<rect x="398.125" y="462.221" width="96.75" height="23.75" rx="11.875" stroke="#FFFAEE" stroke-width="0.25"/>
<path d="M430.026 597.617L429.796 597.601V597.14C429.796 597.086 429.789 597.032 429.781 596.978H427.636C427.636 597.032 427.621 597.086 427.621 597.14V597.64L427.398 597.655C415.561 598.533 406.306 609.324 403.931 619.507C406.038 617.513 408.972 616.39 412.09 616.39C415.209 616.39 418.22 617.552 420.327 619.591C422.127 617.39 424.671 615.897 427.352 615.474L427.628 615.427V643.69C427.628 645.322 426.395 646.646 424.885 646.646C423.376 646.646 422.142 645.322 422.142 643.69V643.521H419.967V643.69C419.967 646.607 422.173 648.978 424.885 648.978C427.598 648.978 429.804 646.607 429.804 643.69V615.374L430.065 615.404C432.953 615.704 435.696 617.228 437.627 619.591C439.741 617.552 442.722 616.39 445.863 616.39C449.004 616.39 451.831 617.49 453.931 619.422C451.479 609.062 442.063 598.256 430.026 597.617Z" fill="#FFFAEE"/>
<path d="M589.002 445.008C581.835 445.008 576 439.173 576 432.002C576 424.831 581.835 419 589.002 419C596.169 419 602.004 424.835 602.004 432.002C602.004 439.169 596.169 445.004 589.002 445.004V445.008ZM589.002 421.257C583.077 421.257 578.257 426.077 578.257 432.002C578.257 437.926 583.077 442.746 589.002 442.746C594.926 442.746 599.746 437.926 599.746 432.002C599.746 426.077 594.926 421.257 589.002 421.257Z" fill="#FFFAEE"/>
<path d="M591.023 423.042H587.058V436.382H591.023V423.042Z" fill="#FFFAEE"/>
<path d="M591.023 437.833H587.058V441.104H591.023V437.833Z" fill="#FFFAEE"/>
<path d="M679.315 605.518L656.042 615.492L632.769 605.518L656.042 595.544L679.315 605.518Z" stroke="#FFFAEE" stroke-linejoin="round"/>
<mask id="path-11-inside-1_15_431" fill="white">
<path fill-rule="evenodd" clip-rule="evenodd" d="M680.782 622.255C680.966 622.334 681.085 622.515 681.085 622.715C681.085 622.915 680.966 623.095 680.782 623.174L656.239 633.693C656.114 633.746 655.971 633.746 655.846 633.693L631.303 623.174C631.119 623.095 631 622.915 631 622.715C631 622.515 631.119 622.334 631.303 622.255L648.777 614.765L650.047 615.309L632.769 622.714L656.042 632.689L679.315 622.714L662.037 615.309L663.307 614.765L680.782 622.255ZM655.942 611.706C656.041 611.686 656.145 611.696 656.239 611.737L658.229 612.589L656.959 613.133L656.042 612.741L655.124 613.133L653.855 612.589L655.846 611.737L655.942 611.706Z"/>
</mask>
<path d="M680.782 622.255L681.374 620.877L681.373 620.877L680.782 622.255ZM681.085 622.715L682.585 622.717V622.715H681.085ZM680.782 623.174L681.373 624.553L681.374 624.553L680.782 623.174ZM656.239 633.693L656.829 635.072L656.83 635.071L656.239 633.693ZM655.846 633.693L655.255 635.071L655.256 635.072L655.846 633.693ZM631.303 623.174L630.711 624.552L630.712 624.553L631.303 623.174ZM631 622.715H629.5L629.5 622.717L631 622.715ZM631.303 622.255L630.712 620.877L630.711 620.877L631.303 622.255ZM648.777 614.765L649.368 613.386C648.991 613.225 648.564 613.225 648.186 613.386L648.777 614.765ZM650.047 615.309L650.638 616.688C651.189 616.451 651.547 615.909 651.547 615.309C651.547 614.709 651.189 614.166 650.638 613.93L650.047 615.309ZM632.769 622.714L632.178 621.335C631.626 621.572 631.269 622.114 631.269 622.714C631.269 623.314 631.626 623.857 632.178 624.093L632.769 622.714ZM656.042 632.689L655.451 634.068C655.828 634.229 656.256 634.229 656.633 634.068L656.042 632.689ZM679.315 622.714L679.906 624.093C680.458 623.857 680.815 623.314 680.815 622.714C680.815 622.114 680.458 621.572 679.906 621.335L679.315 622.714ZM662.037 615.309L661.446 613.93C660.895 614.166 660.537 614.709 660.537 615.309C660.537 615.909 660.895 616.451 661.446 616.688L662.037 615.309ZM663.307 614.765L663.898 613.386C663.52 613.225 663.093 613.225 662.716 613.386L663.307 614.765ZM655.942 611.706L655.642 610.237C655.592 610.247 655.543 610.26 655.494 610.275L655.942 611.706ZM656.239 611.737L656.83 610.358L656.829 610.357L656.239 611.737ZM658.229 612.589L658.819 613.968C659.371 613.732 659.728 613.189 659.729 612.589C659.729 611.989 659.371 611.447 658.819 611.21L658.229 612.589ZM656.959 613.133L656.369 614.512C656.746 614.674 657.173 614.673 657.55 614.512L656.959 613.133ZM656.042 612.741L656.632 611.362C656.256 611.2 655.829 611.2 655.452 611.361L656.042 612.741ZM655.124 613.133L654.533 614.512C654.91 614.673 655.337 614.674 655.714 614.512L655.124 613.133ZM653.855 612.589L653.265 611.21C652.713 611.447 652.356 611.989 652.355 612.589C652.355 613.189 652.713 613.731 653.264 613.968L653.855 612.589ZM655.846 611.737L655.397 610.305C655.349 610.32 655.302 610.338 655.255 610.358L655.846 611.737ZM680.782 622.255L680.191 623.634C679.821 623.475 679.585 623.113 679.585 622.715H681.085H682.585C682.585 621.917 682.11 621.193 681.374 620.877L680.782 622.255ZM681.085 622.715L679.585 622.713C679.585 622.315 679.823 621.954 680.191 621.796L680.782 623.174L681.374 624.553C682.109 624.237 682.584 623.515 682.585 622.717L681.085 622.715ZM680.782 623.174L680.191 621.795L655.648 632.314L656.239 633.693L656.83 635.071L681.373 624.553L680.782 623.174ZM656.239 633.693L655.649 632.314C655.9 632.206 656.185 632.206 656.436 632.314L655.846 633.693L655.256 635.072C655.758 635.287 656.327 635.287 656.829 635.072L656.239 633.693ZM655.846 633.693L656.437 632.314L631.894 621.795L631.303 623.174L630.712 624.553L655.255 635.071L655.846 633.693ZM631.303 623.174L631.895 621.796C632.262 621.954 632.5 622.314 632.5 622.713L631 622.715L629.5 622.717C629.501 623.515 629.977 624.237 630.711 624.552L631.303 623.174ZM631 622.715H632.5C632.5 623.113 632.264 623.475 631.894 623.634L631.303 622.255L630.711 620.877C629.975 621.193 629.5 621.917 629.5 622.715H631ZM631.303 622.255L631.894 623.634L649.368 616.144L648.777 614.765L648.186 613.386L630.712 620.877L631.303 622.255ZM648.777 614.765L648.187 616.144L649.456 616.688L650.047 615.309L650.638 613.93L649.368 613.386L648.777 614.765ZM650.047 615.309L649.456 613.93L632.178 621.335L632.769 622.714L633.359 624.093L650.638 616.688L650.047 615.309ZM632.769 622.714L632.178 624.093L655.451 634.068L656.042 632.689L656.633 631.31L633.359 621.335L632.769 622.714ZM656.042 632.689L656.633 634.068L679.906 624.093L679.315 622.714L678.725 621.335L655.451 631.31L656.042 632.689ZM679.315 622.714L679.906 621.335L662.628 613.93L662.037 615.309L661.446 616.688L678.725 624.093L679.315 622.714ZM662.037 615.309L662.628 616.688L663.897 616.144L663.307 614.765L662.716 613.386L661.446 613.93L662.037 615.309ZM663.307 614.765L662.716 616.144L680.191 623.634L680.782 622.255L681.373 620.877L663.898 613.386L663.307 614.765ZM655.942 611.706L656.243 613.176C656.044 613.217 655.837 613.196 655.649 613.116L656.239 611.737L656.829 610.357C656.453 610.197 656.039 610.156 655.642 610.237L655.942 611.706ZM656.239 611.737L655.648 613.115L657.638 613.968L658.229 612.589L658.819 611.21L656.83 610.358L656.239 611.737ZM658.229 612.589L657.638 611.21L656.368 611.754L656.959 613.133L657.55 614.512L658.819 613.968L658.229 612.589ZM656.959 613.133L657.549 611.754L656.632 611.362L656.042 612.741L655.452 614.12L656.369 614.512L656.959 613.133ZM656.042 612.741L655.452 611.361L654.534 611.754L655.124 613.133L655.714 614.512L656.632 614.12L656.042 612.741ZM655.124 613.133L655.715 611.755L654.447 611.211L653.855 612.589L653.264 613.968L654.533 614.512L655.124 613.133ZM653.855 612.589L654.446 613.968L656.436 613.115L655.846 611.737L655.255 610.358L653.265 611.21L653.855 612.589ZM655.846 611.737L656.294 613.168L656.391 613.138L655.942 611.706L655.494 610.275L655.397 610.305L655.846 611.737Z" fill="#FFFAEE" mask="url(#path-11-inside-1_15_431)"/>
<mask id="path-13-inside-2_15_431" fill="white">
<path fill-rule="evenodd" clip-rule="evenodd" d="M680.782 639.785C680.966 639.864 681.085 640.046 681.085 640.245C681.085 640.445 680.966 640.626 680.782 640.704L656.239 651.223C656.114 651.277 655.971 651.277 655.846 651.223L631.303 640.704C631.119 640.626 631 640.445 631 640.245C631 640.046 631.119 639.864 631.303 639.785L648.777 632.295L650.047 632.839L632.769 640.244L656.042 650.219L679.315 640.244L662.037 632.839L663.307 632.295L680.782 639.785ZM655.942 629.237C656.041 629.216 656.145 629.227 656.239 629.267L658.229 630.119L656.959 630.663L656.042 630.271L655.124 630.663L653.855 630.119L655.846 629.267L655.942 629.237Z"/>
</mask>
<path d="M680.782 639.785L681.374 638.407L681.373 638.407L680.782 639.785ZM681.085 640.245L682.585 640.247V640.245H681.085ZM680.782 640.704L681.373 642.083L681.374 642.083L680.782 640.704ZM656.239 651.223L656.829 652.602L656.83 652.602L656.239 651.223ZM655.846 651.223L655.255 652.602L655.256 652.602L655.846 651.223ZM631.303 640.704L630.711 642.083L630.712 642.083L631.303 640.704ZM631 640.245H629.5L629.5 640.247L631 640.245ZM631.303 639.785L630.712 638.407L630.711 638.407L631.303 639.785ZM648.777 632.295L649.368 630.916C648.991 630.755 648.564 630.755 648.186 630.917L648.777 632.295ZM650.047 632.839L650.638 634.218C651.189 633.982 651.547 633.439 651.547 632.839C651.547 632.239 651.189 631.697 650.638 631.46L650.047 632.839ZM632.769 640.244L632.178 638.866C631.626 639.102 631.269 639.644 631.269 640.244C631.269 640.845 631.626 641.387 632.178 641.623L632.769 640.244ZM656.042 650.219L655.451 651.598C655.828 651.76 656.256 651.76 656.633 651.598L656.042 650.219ZM679.315 640.244L679.906 641.623C680.458 641.387 680.815 640.845 680.815 640.244C680.815 639.644 680.458 639.102 679.906 638.866L679.315 640.244ZM662.037 632.839L661.446 631.46C660.895 631.697 660.537 632.239 660.537 632.839C660.537 633.439 660.895 633.982 661.446 634.218L662.037 632.839ZM663.307 632.295L663.898 630.917C663.52 630.755 663.093 630.755 662.716 630.916L663.307 632.295ZM655.942 629.237L655.642 627.767C655.592 627.777 655.543 627.79 655.494 627.805L655.942 629.237ZM656.239 629.267L656.83 627.888L656.829 627.888L656.239 629.267ZM658.229 630.119L658.819 631.498C659.371 631.262 659.728 630.72 659.729 630.12C659.729 629.519 659.371 628.977 658.819 628.741L658.229 630.119ZM656.959 630.663L656.369 632.042C656.746 632.204 657.173 632.204 657.55 632.042L656.959 630.663ZM656.042 630.271L656.632 628.892C656.256 628.731 655.829 628.73 655.452 628.892L656.042 630.271ZM655.124 630.663L654.533 632.042C654.91 632.204 655.337 632.204 655.714 632.043L655.124 630.663ZM653.855 630.119L653.265 628.741C652.713 628.977 652.356 629.519 652.355 630.119C652.355 630.719 652.713 631.262 653.264 631.498L653.855 630.119ZM655.846 629.267L655.397 627.835C655.349 627.851 655.302 627.868 655.255 627.888L655.846 629.267ZM680.782 639.785L680.19 641.164C679.821 641.005 679.585 640.643 679.585 640.245H681.085H682.585C682.585 639.448 682.11 638.723 681.374 638.407L680.782 639.785ZM681.085 640.245L679.585 640.244C679.585 639.845 679.823 639.484 680.191 639.326L680.782 640.704L681.374 642.083C682.109 641.767 682.584 641.045 682.585 640.247L681.085 640.245ZM680.782 640.704L680.191 639.326L655.648 649.844L656.239 651.223L656.83 652.602L681.373 642.083L680.782 640.704ZM656.239 651.223L655.649 649.844C655.9 649.736 656.184 649.736 656.436 649.844L655.846 651.223L655.256 652.602C655.758 652.817 656.327 652.817 656.829 652.602L656.239 651.223ZM655.846 651.223L656.437 649.844L631.894 639.326L631.303 640.704L630.712 642.083L655.255 652.602L655.846 651.223ZM631.303 640.704L631.895 639.326C632.262 639.484 632.5 639.845 632.5 640.244L631 640.245L629.5 640.247C629.501 641.045 629.977 641.767 630.711 642.083L631.303 640.704ZM631 640.245H632.5C632.5 640.643 632.264 641.005 631.895 641.164L631.303 639.785L630.711 638.407C629.975 638.723 629.5 639.448 629.5 640.245H631ZM631.303 639.785L631.894 641.164L649.368 633.674L648.777 632.295L648.186 630.917L630.712 638.407L631.303 639.785ZM648.777 632.295L648.187 633.674L649.456 634.218L650.047 632.839L650.638 631.46L649.368 630.916L648.777 632.295ZM650.047 632.839L649.456 631.46L632.178 638.866L632.769 640.244L633.359 641.623L650.638 634.218L650.047 632.839ZM632.769 640.244L632.178 641.623L655.451 651.598L656.042 650.219L656.633 648.84L633.359 638.866L632.769 640.244ZM656.042 650.219L656.633 651.598L679.906 641.623L679.315 640.244L678.725 638.866L655.451 648.84L656.042 650.219ZM679.315 640.244L679.906 638.866L662.628 631.46L662.037 632.839L661.446 634.218L678.725 641.623L679.315 640.244ZM662.037 632.839L662.628 634.218L663.897 633.674L663.307 632.295L662.716 630.916L661.446 631.46L662.037 632.839ZM663.307 632.295L662.716 633.674L680.191 641.164L680.782 639.785L681.373 638.407L663.898 630.917L663.307 632.295ZM655.942 629.237L656.243 630.706C656.044 630.747 655.837 630.726 655.649 630.646L656.239 629.267L656.829 627.888C656.453 627.727 656.039 627.686 655.642 627.767L655.942 629.237ZM656.239 629.267L655.648 630.646L657.638 631.498L658.229 630.119L658.819 628.741L656.83 627.888L656.239 629.267ZM658.229 630.119L657.638 628.741L656.368 629.285L656.959 630.663L657.55 632.042L658.819 631.498L658.229 630.119ZM656.959 630.663L657.549 629.284L656.632 628.892L656.042 630.271L655.452 631.65L656.369 632.042L656.959 630.663ZM656.042 630.271L655.452 628.892L654.534 629.284L655.124 630.663L655.714 632.043L656.632 631.65L656.042 630.271ZM655.124 630.663L655.715 629.285L654.447 628.741L653.855 630.119L653.264 631.498L654.533 632.042L655.124 630.663ZM653.855 630.119L654.446 631.498L656.436 630.646L655.846 629.267L655.255 627.888L653.265 628.741L653.855 630.119ZM655.846 629.267L656.294 630.698L656.391 630.668L655.942 629.237L655.494 627.805L655.397 627.835L655.846 629.267Z" fill="#FFFAEE" mask="url(#path-13-inside-2_15_431)"/>
<path d="M492.1 616.102L495.74 624.586H495.838L499.478 616.102H500.318V626H499.506V618.104H499.436L496.006 626H495.53L492.1 618.104H492.044V626H491.232V616.102H492.1ZM504.446 626H503.606V616.102H504.446V626ZM502.08 616.83V616.102H505.958V616.83H502.08ZM502.08 626V625.272H505.958V626H502.08ZM515.127 626H514.189L508.659 617.502H508.547V626H507.721V616.102H508.673L514.189 624.586H514.301V616.102H515.127V626ZM519.254 626H518.414V616.102H519.254V626ZM516.888 616.83V616.102H520.766V616.83H516.888ZM516.888 626V625.272H520.766V626H516.888ZM523.397 616.102L527.037 624.586H527.135L530.775 616.102H531.615V626H530.803V618.104H530.733L527.303 626H526.827L523.397 618.104H523.341V626H522.529V616.102H523.397ZM536.658 617.18H536.602L533.494 626H532.64L536.182 616.102H537.134L540.662 626H539.766L536.658 617.18ZM538.912 623.032H534.39V622.304H538.912V623.032ZM541.684 616.102H542.524V625.272H547.242V626H541.684V616.102ZM553.077 626.728H547.029V626H553.077V626.728ZM553.731 616.102H559.373V616.83H554.571V620.68H558.911V621.408H554.571V626H553.731V616.102ZM568.354 621.044C568.354 622.677 567.999 623.937 567.29 624.824C566.59 625.701 565.558 626.14 564.196 626.14C562.833 626.14 561.797 625.701 561.088 624.824C560.388 623.937 560.038 622.677 560.038 621.044C560.038 619.411 560.388 618.155 561.088 617.278C561.797 616.401 562.833 615.962 564.196 615.962C565.558 615.962 566.59 616.401 567.29 617.278C567.999 618.155 568.354 619.411 568.354 621.044ZM567.514 621.044C567.514 619.56 567.238 618.468 566.688 617.768C566.146 617.068 565.316 616.718 564.196 616.718C563.076 616.718 562.24 617.068 561.69 617.768C561.148 618.468 560.878 619.56 560.878 621.044C560.878 622.528 561.148 623.625 561.69 624.334C562.24 625.034 563.076 625.384 564.196 625.384C565.316 625.384 566.146 625.034 566.688 624.334C567.238 623.625 567.514 622.528 567.514 621.044ZM574.177 621.464L576.753 626H575.815L573.337 621.618L574.177 621.464ZM573.085 621.198C573.748 621.198 574.261 621.114 574.625 620.946C574.989 620.778 575.246 620.531 575.395 620.204C575.544 619.877 575.619 619.476 575.619 619C575.619 618.515 575.544 618.113 575.395 617.796C575.246 617.479 574.989 617.241 574.625 617.082C574.261 616.914 573.748 616.83 573.085 616.83H570.677V621.198H573.085ZM573.155 621.926H570.677V626H569.837V616.102H573.141C573.944 616.102 574.588 616.219 575.073 616.452C575.558 616.676 575.908 617.003 576.123 617.432C576.347 617.861 576.459 618.384 576.459 619C576.459 619.485 576.408 619.91 576.305 620.274C576.202 620.638 576.025 620.946 575.773 621.198C575.521 621.441 575.18 621.623 574.751 621.744C574.331 621.865 573.799 621.926 573.155 621.926ZM578.827 616.102L582.467 624.586H582.565L586.205 616.102H587.045V626H586.233V618.104H586.163L582.733 626H582.257L578.827 618.104H578.771V626H577.959V616.102H578.827ZM494.144 643.14C493.332 643.14 492.669 642.958 492.156 642.594C491.652 642.221 491.283 641.661 491.05 640.914C490.817 640.158 490.7 639.201 490.7 638.044C490.7 636.887 490.817 635.935 491.05 635.188C491.293 634.441 491.666 633.886 492.17 633.522C492.683 633.149 493.341 632.962 494.144 632.962C494.956 632.962 495.614 633.149 496.118 633.522C496.631 633.886 497.005 634.441 497.238 635.188C497.481 635.935 497.602 636.887 497.602 638.044C497.602 639.192 497.481 640.144 497.238 640.9C497.005 641.656 496.631 642.221 496.118 642.594C495.614 642.958 494.956 643.14 494.144 643.14ZM494.144 642.412C495.096 642.412 495.773 642.053 496.174 641.334C496.575 640.615 496.776 639.519 496.776 638.044C496.776 636.569 496.575 635.477 496.174 634.768C495.773 634.049 495.096 633.69 494.144 633.69C493.201 633.69 492.529 634.049 492.128 634.768C491.727 635.477 491.526 636.569 491.526 638.044C491.526 639.519 491.722 640.615 492.114 641.334C492.515 642.053 493.192 642.412 494.144 642.412ZM498.537 642.314L501.925 638.688C502.354 638.231 502.704 637.829 502.975 637.484C503.245 637.129 503.446 636.803 503.577 636.504C503.717 636.196 503.787 635.883 503.787 635.566C503.787 634.959 503.591 634.497 503.199 634.18C502.807 633.853 502.284 633.69 501.631 633.69C500.977 633.69 500.441 633.886 500.021 634.278C499.601 634.661 499.4 635.188 499.419 635.86H498.607C498.597 635.253 498.723 634.735 498.985 634.306C499.246 633.877 499.61 633.545 500.077 633.312C500.543 633.079 501.075 632.962 501.673 632.962C502.298 632.962 502.825 633.069 503.255 633.284C503.693 633.489 504.029 633.788 504.263 634.18C504.496 634.563 504.613 635.025 504.613 635.566C504.613 635.921 504.552 636.266 504.431 636.602C504.309 636.929 504.085 637.307 503.759 637.736C503.441 638.156 502.979 638.688 502.373 639.332L499.181 642.748L499.237 642.272H504.739V643H498.537V642.314Z" fill="#FFFAEE"/>
</svg>
