<svg width="1080" height="1080" viewBox="0 0 1080 1080" fill="none" xmlns="http://www.w3.org/2000/svg">
<rect width="1080" height="1080" fill="#191919"/>
<path d="M264.808 495L298.024 426.84H318.376L351.592 495H331.144L323.656 478.872H291.496L284.104 495H264.808ZM297.64 465.816H317.704L307.72 444.312L297.64 465.816ZM353.166 495V426.84H382.158L405.006 474.168H405.102L427.95 426.84H457.134V495H437.934V444.504H437.838L413.262 495H395.694L371.118 444.504H371.022V495H353.166ZM464.451 495V426.84H504.579C513.731 426.84 520.803 428.824 525.795 432.792C530.851 436.696 533.379 442.552 533.379 450.36C533.379 457.912 530.851 463.64 525.795 467.544C520.803 471.448 513.731 473.4 504.579 473.4H483.651V495H464.451ZM503.619 441.048H483.651V459.672H503.619C507.395 459.672 510.147 458.968 511.875 457.56C513.603 456.088 514.467 453.976 514.467 451.224V450.072C514.467 447 513.603 444.728 511.875 443.256C510.147 441.784 507.395 441.048 503.619 441.048ZM536.829 495V426.84H600.189V441.048H556.029V453.72H595.869V467.352H556.029V480.792H600.861V495H536.829ZM606.208 495V426.84H648.256C657.344 426.84 664.16 428.792 668.704 432.696C673.312 436.536 675.616 442.136 675.616 449.496C675.616 454.808 674.336 459.224 671.776 462.744C669.28 466.264 665.632 468.888 660.832 470.616L676.288 495H654.4L641.152 473.112H625.408V495H606.208ZM646.528 441.048H625.408V459.384H646.528C653.12 459.384 656.416 456.472 656.416 450.648V449.688C656.416 443.928 653.12 441.048 646.528 441.048ZM714.178 496.152C708.226 496.152 702.69 495.576 697.57 494.424C692.45 493.208 688.002 491.224 684.226 488.472C680.45 485.656 677.538 481.88 675.49 477.144L692.674 472.056C693.954 474.36 695.458 476.248 697.186 477.72C698.978 479.128 701.314 480.184 704.194 480.888C707.074 481.528 710.786 481.848 715.33 481.848C720.898 481.848 725.122 481.24 728.002 480.024C730.882 478.808 732.322 477.24 732.322 475.32C732.322 473.848 731.618 472.6 730.21 471.576C728.802 470.552 726.114 469.816 722.146 469.368L703.618 467.064C695.042 465.976 688.642 463.864 684.418 460.728C680.194 457.592 678.082 453.24 678.082 447.672C678.082 442.744 679.554 438.68 682.498 435.48C685.442 432.216 689.602 429.784 694.978 428.184C700.418 426.52 706.754 425.688 713.986 425.688C719.234 425.688 724.226 426.232 728.962 427.32C733.762 428.408 738.018 430.264 741.73 432.888C745.506 435.512 748.482 439.192 750.658 443.928L734.242 449.016C732.322 445.432 729.602 443.032 726.082 441.816C722.626 440.6 718.082 439.992 712.45 439.992C707.714 439.992 703.906 440.504 701.026 441.528C698.21 442.488 696.802 443.896 696.802 445.752C696.802 447.352 697.57 448.632 699.106 449.592C700.706 450.552 703.298 451.256 706.882 451.704L727.234 454.2C735.554 455.224 741.634 457.368 745.474 460.632C749.314 463.896 751.234 468.216 751.234 473.592C751.234 478.584 749.698 482.776 746.626 486.168C743.554 489.496 739.234 491.992 733.666 493.656C728.098 495.32 721.602 496.152 714.178 496.152Z" fill="#FFFAEE"/>
<mask id="path-2-outside-1_32_250" maskUnits="userSpaceOnUse" x="755" y="398" width="119" height="101" fill="black">
<rect fill="white" x="755" y="398" width="119" height="101"/>
<path d="M800.241 496.563C791.992 496.563 784.61 495.564 778.098 493.567C771.672 491.483 766.635 488.444 762.988 484.449C759.341 480.455 757.517 475.548 757.517 469.73C757.517 464.346 759.427 459.614 763.248 455.532C767.069 451.451 773.104 448.108 781.354 445.502C778.315 442.463 775.796 439.337 773.799 436.124C771.889 432.911 770.933 429.394 770.933 425.573C770.933 420.71 772.453 416.455 775.492 412.808C778.532 409.074 782.787 406.165 788.258 404.081C793.815 401.997 800.285 400.955 807.666 400.955C814.7 400.955 820.952 401.866 826.423 403.69C831.98 405.514 836.322 408.249 839.448 411.896C842.575 415.457 844.138 419.929 844.138 425.313C844.138 430.87 842.184 435.863 838.276 440.292C834.368 444.634 827.639 448.238 818.086 451.103L833.326 464.39C836.974 460.656 839.579 457.312 841.142 454.36C842.705 451.407 844.094 448.151 845.31 444.591H869.017C867.975 449.28 866.585 453.491 864.849 457.226C863.199 460.873 861.071 464.346 858.466 467.646C855.861 470.946 852.648 474.333 848.827 477.806L868.626 495H834.368L829.549 490.441C825.468 492.351 820.995 493.871 816.132 495C811.356 496.042 806.059 496.563 800.241 496.563ZM796.854 427.397C796.854 429.654 797.419 431.608 798.548 433.258C799.677 434.821 801.457 436.645 803.888 438.729C809.967 436.905 814.179 435.212 816.523 433.649C818.868 432.086 820.04 430.002 820.04 427.397C820.04 425.226 819.042 423.446 817.044 422.056C815.047 420.58 811.877 419.842 807.536 419.842C803.802 419.842 801.066 420.623 799.329 422.186C797.679 423.75 796.854 425.486 796.854 427.397ZM785.131 467.646C785.131 470.512 786.477 472.856 789.169 474.68C791.861 476.417 796.247 477.285 802.325 477.285C804.757 477.285 806.928 477.198 808.838 477.025C810.749 476.764 812.442 476.417 813.918 475.983L794.51 458.007C788.258 460.265 785.131 463.478 785.131 467.646Z"/>
</mask>
<path d="M778.098 493.567L777.48 495.47L777.496 495.475L777.511 495.479L778.098 493.567ZM762.988 484.449L761.511 485.798L762.988 484.449ZM763.248 455.532L764.708 456.899H764.708L763.248 455.532ZM781.354 445.502L781.956 447.41L785.098 446.418L782.768 444.088L781.354 445.502ZM773.799 436.124L772.08 437.146L772.09 437.163L772.1 437.18L773.799 436.124ZM775.492 412.808L777.029 414.088L777.036 414.079L777.043 414.07L775.492 412.808ZM788.258 404.081L787.555 402.208L787.546 402.212L788.258 404.081ZM826.423 403.69L825.79 405.587L825.799 405.59L826.423 403.69ZM839.448 411.896L837.93 413.198L837.938 413.207L837.946 413.216L839.448 411.896ZM838.276 440.292L839.763 441.63L839.769 441.623L839.776 441.615L838.276 440.292ZM818.086 451.103L817.512 449.188L814.04 450.229L816.772 452.611L818.086 451.103ZM833.326 464.39L832.012 465.897L833.437 467.139L834.757 465.787L833.326 464.39ZM841.142 454.36L842.909 455.296V455.296L841.142 454.36ZM845.31 444.591V442.591H843.88L843.417 443.944L845.31 444.591ZM869.017 444.591L870.969 445.024L871.51 442.591H869.017V444.591ZM864.849 457.226L863.035 456.382L863.031 456.392L863.026 456.401L864.849 457.226ZM858.466 467.646L860.036 468.885V468.885L858.466 467.646ZM848.827 477.806L847.482 476.326L845.816 477.84L847.516 479.316L848.827 477.806ZM868.626 495V497H873.979L869.937 493.49L868.626 495ZM834.368 495L832.994 496.453L833.572 497H834.368V495ZM829.549 490.441L830.923 488.988L829.934 488.052L828.701 488.63L829.549 490.441ZM816.132 495L816.559 496.954L816.572 496.951L816.585 496.948L816.132 495ZM798.548 433.258L796.897 434.388L796.912 434.409L796.926 434.429L798.548 433.258ZM803.888 438.729L802.587 440.248L803.416 440.959L804.463 440.645L803.888 438.729ZM817.044 422.056L815.856 423.665L815.879 423.682L815.902 423.698L817.044 422.056ZM799.329 422.186L797.991 420.7L797.972 420.717L797.954 420.735L799.329 422.186ZM789.169 474.68L788.048 476.336L788.066 476.348L788.085 476.361L789.169 474.68ZM808.838 477.025L809.019 479.016L809.064 479.012L809.108 479.006L808.838 477.025ZM813.918 475.983L814.482 477.901L817.86 476.908L815.277 474.515L813.918 475.983ZM794.51 458.007L795.869 456.54L794.976 455.712L793.831 456.126L794.51 458.007ZM800.241 496.563V494.563C792.15 494.563 784.972 493.583 778.684 491.655L778.098 493.567L777.511 495.479C784.249 497.546 791.833 498.563 800.241 498.563V496.563ZM778.098 493.567L778.715 491.665C772.537 489.661 767.827 486.783 764.465 483.101L762.988 484.449L761.511 485.798C765.443 490.105 770.806 493.305 777.48 495.47L778.098 493.567ZM762.988 484.449L764.465 483.101C761.181 479.504 759.517 475.09 759.517 469.73H757.517H755.517C755.517 476.006 757.5 481.405 761.511 485.798L762.988 484.449ZM757.517 469.73H759.517C759.517 464.875 761.22 460.626 764.708 456.899L763.248 455.532L761.788 454.165C757.635 458.602 755.517 463.817 755.517 469.73H757.517ZM763.248 455.532L764.708 456.899C768.2 453.169 773.871 449.963 781.956 447.41L781.354 445.502L780.752 443.595C772.338 446.252 765.938 449.732 761.788 454.165L763.248 455.532ZM781.354 445.502L782.768 444.088C779.823 441.143 777.404 438.135 775.498 435.068L773.799 436.124L772.1 437.18C774.189 440.539 776.807 443.783 779.94 446.917L781.354 445.502ZM773.799 436.124L775.518 435.102C773.796 432.205 772.933 429.043 772.933 425.573H770.933H768.933C768.933 429.745 769.981 433.617 772.08 437.146L773.799 436.124ZM770.933 425.573H772.933C772.933 421.166 774.297 417.367 777.029 414.088L775.492 412.808L773.956 411.528C770.609 415.544 768.933 420.255 768.933 425.573H770.933ZM775.492 412.808L777.043 414.07C779.818 410.662 783.756 407.936 788.97 405.95L788.258 404.081L787.546 402.212C781.817 404.394 777.245 407.486 773.941 411.545L775.492 412.808ZM788.258 404.081L788.96 405.953C794.246 403.971 800.468 402.955 807.666 402.955V400.955V398.955C800.101 398.955 793.385 400.022 787.555 402.208L788.258 404.081ZM807.666 400.955V402.955C814.53 402.955 820.563 403.845 825.79 405.587L826.423 403.69L827.055 401.793C821.341 399.888 814.869 398.955 807.666 398.955V400.955ZM826.423 403.69L825.799 405.59C831.085 407.325 835.089 409.883 837.93 413.198L839.448 411.896L840.967 410.595C837.556 406.615 832.876 403.702 827.046 401.79L826.423 403.69ZM839.448 411.896L837.946 413.216C840.708 416.361 842.138 420.344 842.138 425.313H844.138H846.138C846.138 419.514 844.442 414.552 840.951 410.577L839.448 411.896ZM844.138 425.313H842.138C842.138 430.351 840.384 434.881 836.776 438.969L838.276 440.292L839.776 441.615C843.984 436.846 846.138 431.39 846.138 425.313H844.138ZM838.276 440.292L836.79 438.954C833.245 442.893 826.932 446.362 817.512 449.188L818.086 451.103L818.661 453.019C828.345 450.114 835.492 446.375 839.763 441.63L838.276 440.292ZM818.086 451.103L816.772 452.611L832.012 465.897L833.326 464.39L834.641 462.882L819.401 449.596L818.086 451.103ZM833.326 464.39L834.757 465.787C838.472 461.984 841.221 458.485 842.909 455.296L841.142 454.36L839.374 453.424C837.936 456.14 835.475 459.327 831.896 462.992L833.326 464.39ZM841.142 454.36L842.909 455.296C844.527 452.239 845.957 448.885 847.203 445.237L845.31 444.591L843.417 443.944C842.231 447.417 840.882 450.575 839.374 453.424L841.142 454.36ZM845.31 444.591V446.591H869.017V444.591V442.591H845.31V444.591ZM869.017 444.591L867.064 444.157C866.049 448.728 864.702 452.799 863.035 456.382L864.849 457.226L866.662 458.069C868.469 454.184 869.901 449.832 870.969 445.024L869.017 444.591ZM864.849 457.226L863.026 456.401C861.447 459.893 859.406 463.228 856.896 466.407L858.466 467.646L860.036 468.885C862.737 465.464 864.951 461.852 866.671 458.05L864.849 457.226ZM858.466 467.646L856.896 466.407C854.372 469.604 851.239 472.911 847.482 476.326L848.827 477.806L850.172 479.286C854.057 475.755 857.349 472.288 860.036 468.885L858.466 467.646ZM848.827 477.806L847.516 479.316L867.315 496.51L868.626 495L869.937 493.49L850.138 476.296L848.827 477.806ZM868.626 495V493H834.368V495V497H868.626V495ZM834.368 495L835.743 493.547L830.923 488.988L829.549 490.441L828.175 491.894L832.994 496.453L834.368 495ZM829.549 490.441L828.701 488.63C824.759 490.475 820.421 491.951 815.68 493.052L816.132 495L816.585 496.948C821.57 495.791 826.176 494.228 830.397 492.252L829.549 490.441ZM816.132 495L815.706 493.046C811.094 494.052 805.942 494.563 800.241 494.563V496.563V498.563C806.176 498.563 811.619 498.032 816.559 496.954L816.132 495ZM796.854 427.397H794.854C794.854 430.004 795.512 432.363 796.897 434.388L798.548 433.258L800.198 432.129C799.326 430.854 798.854 429.305 798.854 427.397H796.854ZM798.548 433.258L796.926 434.429C798.189 436.177 800.103 438.119 802.587 440.248L803.888 438.729L805.19 437.211C802.811 435.171 801.165 433.466 800.169 432.087L798.548 433.258ZM803.888 438.729L804.463 440.645C810.555 438.817 815.019 437.055 817.633 435.313L816.523 433.649L815.414 431.985C813.338 433.369 809.379 434.994 803.314 436.813L803.888 438.729ZM816.523 433.649L817.633 435.313C820.48 433.415 822.04 430.733 822.04 427.397H820.04H818.04C818.04 429.271 817.256 430.757 815.414 431.985L816.523 433.649ZM820.04 427.397H822.04C822.04 424.484 820.646 422.125 818.186 420.414L817.044 422.056L815.902 423.698C817.438 424.766 818.04 425.967 818.04 427.397H820.04ZM817.044 422.056L818.233 420.448C815.717 418.588 812.021 417.842 807.536 417.842V419.842V421.842C811.734 421.842 814.377 422.572 815.856 423.665L817.044 422.056ZM807.536 419.842V417.842C803.588 417.842 800.261 418.657 797.991 420.7L799.329 422.186L800.667 423.673C801.871 422.589 804.015 421.842 807.536 421.842V419.842ZM799.329 422.186L797.954 420.735C795.987 422.598 794.854 424.834 794.854 427.397H796.854H798.854C798.854 426.139 799.372 424.901 800.705 423.638L799.329 422.186ZM785.131 467.646H783.131C783.131 471.273 784.893 474.198 788.048 476.336L789.169 474.68L790.291 473.024C788.062 471.514 787.131 469.751 787.131 467.646H785.131ZM789.169 474.68L788.085 476.361C791.28 478.422 796.154 479.285 802.325 479.285V477.285V475.285C796.34 475.285 792.443 474.412 790.254 472.999L789.169 474.68ZM802.325 477.285V479.285C804.802 479.285 807.035 479.197 809.019 479.016L808.838 477.025L808.657 475.033C806.82 475.2 804.711 475.285 802.325 475.285V477.285ZM808.838 477.025L809.108 479.006C811.095 478.735 812.889 478.37 814.482 477.901L813.918 475.983L813.354 474.064C811.994 474.464 810.403 474.793 808.568 475.043L808.838 477.025ZM813.918 475.983L815.277 474.515L795.869 456.54L794.51 458.007L793.151 459.474L812.559 477.45L813.918 475.983ZM794.51 458.007L793.831 456.126C787.328 458.474 783.131 462.176 783.131 467.646H785.131H787.131C787.131 464.779 789.187 462.056 795.189 459.888L794.51 458.007Z" fill="#FFFAEE" mask="url(#path-2-outside-1_32_250)"/>
<path d="M575.824 521.624H575.704L570.568 536H568.528L574.744 519.032H576.856L583.096 536H580.936L575.824 521.624ZM579.952 531.296H571.6V529.496H579.952V531.296ZM593.456 523.064C593.36 522.168 592.984 521.528 592.328 521.144C591.672 520.76 590.776 520.568 589.64 520.568C588.376 520.568 587.44 520.816 586.832 521.312C586.224 521.792 585.92 522.488 585.92 523.4C585.92 523.912 586.024 524.336 586.232 524.672C586.456 524.992 586.736 525.256 587.072 525.464C587.424 525.672 587.784 525.84 588.152 525.968C588.536 526.08 588.888 526.184 589.208 526.28L590.936 526.76C591.4 526.888 591.912 527.056 592.472 527.264C593.032 527.456 593.568 527.728 594.08 528.08C594.592 528.432 595.008 528.88 595.328 529.424C595.648 529.952 595.808 530.616 595.808 531.416C595.808 532.376 595.584 533.224 595.136 533.96C594.688 534.696 594 535.272 593.072 535.688C592.16 536.104 591 536.312 589.592 536.312C587.656 536.312 586.176 535.912 585.152 535.112C584.128 534.296 583.56 533.184 583.448 531.776H585.536C585.616 532.48 585.832 533.032 586.184 533.432C586.536 533.832 587 534.12 587.576 534.296C588.168 534.456 588.84 534.536 589.592 534.536C590.92 534.536 591.944 534.272 592.664 533.744C593.4 533.216 593.768 532.424 593.768 531.368C593.768 530.76 593.608 530.28 593.288 529.928C592.984 529.56 592.576 529.272 592.064 529.064C591.552 528.856 590.992 528.664 590.384 528.488L588.224 527.888C586.864 527.504 585.8 526.968 585.032 526.28C584.28 525.592 583.904 524.664 583.904 523.496C583.904 522.504 584.144 521.664 584.624 520.976C585.104 520.272 585.784 519.736 586.664 519.368C587.544 518.984 588.56 518.792 589.712 518.792C590.896 518.792 591.904 518.976 592.736 519.344C593.584 519.696 594.24 520.192 594.704 520.832C595.184 521.472 595.44 522.216 595.472 523.064H593.456ZM606.722 523.064C606.626 522.168 606.25 521.528 605.594 521.144C604.938 520.76 604.042 520.568 602.906 520.568C601.642 520.568 600.706 520.816 600.098 521.312C599.49 521.792 599.186 522.488 599.186 523.4C599.186 523.912 599.29 524.336 599.498 524.672C599.722 524.992 600.002 525.256 600.338 525.464C600.69 525.672 601.05 525.84 601.418 525.968C601.802 526.08 602.154 526.184 602.474 526.28L604.202 526.76C604.666 526.888 605.178 527.056 605.738 527.264C606.298 527.456 606.834 527.728 607.346 528.08C607.858 528.432 608.274 528.88 608.594 529.424C608.914 529.952 609.074 530.616 609.074 531.416C609.074 532.376 608.85 533.224 608.402 533.96C607.954 534.696 607.266 535.272 606.338 535.688C605.426 536.104 604.266 536.312 602.858 536.312C600.922 536.312 599.442 535.912 598.418 535.112C597.394 534.296 596.826 533.184 596.714 531.776H598.802C598.882 532.48 599.098 533.032 599.45 533.432C599.802 533.832 600.266 534.12 600.842 534.296C601.434 534.456 602.106 534.536 602.858 534.536C604.186 534.536 605.21 534.272 605.93 533.744C606.666 533.216 607.034 532.424 607.034 531.368C607.034 530.76 606.874 530.28 606.554 529.928C606.25 529.56 605.842 529.272 605.33 529.064C604.818 528.856 604.258 528.664 603.65 528.488L601.49 527.888C600.13 527.504 599.066 526.968 598.298 526.28C597.546 525.592 597.17 524.664 597.17 523.496C597.17 522.504 597.41 521.664 597.89 520.976C598.37 520.272 599.05 519.736 599.93 519.368C600.81 518.984 601.826 518.792 602.978 518.792C604.162 518.792 605.17 518.976 606.002 519.344C606.85 519.696 607.506 520.192 607.97 520.832C608.45 521.472 608.706 522.216 608.738 523.064H606.722ZM610.917 519.032H620.997V520.784H612.981V526.616H620.445V528.344H612.981V534.248H621.117V536H610.917V519.032ZM621.902 519.032H634.766V520.784H629.366V536H627.326V520.784H621.902V519.032ZM645.153 537.704H634.449V536H645.153V537.704ZM650.273 536H648.209V519.032H650.273V536ZM645.617 520.784V519.032H652.841V520.784H645.617ZM645.617 536V534.248H652.841V536H645.617ZM655.663 536V519.032H661.207C663.783 519.032 665.711 519.76 666.991 521.216C668.287 522.656 668.935 524.752 668.935 527.504C668.935 530.24 668.279 532.344 666.967 533.816C665.655 535.272 663.655 536 660.967 536H655.663ZM660.847 534.248C662.351 534.248 663.543 533.992 664.423 533.48C665.303 532.952 665.927 532.184 666.295 531.176C666.679 530.168 666.871 528.944 666.871 527.504C666.871 526.048 666.679 524.824 666.295 523.832C665.927 522.824 665.319 522.064 664.471 521.552C663.623 521.04 662.479 520.784 661.039 520.784H657.727V534.248H660.847ZM675.452 534.512L681.212 528.416C681.9 527.696 682.46 527.064 682.892 526.52C683.324 525.976 683.652 525.472 683.876 525.008C684.1 524.528 684.212 524.024 684.212 523.496C684.212 522.504 683.916 521.768 683.324 521.288C682.732 520.792 681.932 520.544 680.924 520.544C679.9 520.544 679.084 520.832 678.476 521.408C677.868 521.968 677.564 522.792 677.564 523.88H675.548C675.532 522.84 675.756 521.944 676.22 521.192C676.684 520.424 677.324 519.832 678.14 519.416C678.972 519 679.924 518.792 680.996 518.792C682.084 518.792 683.02 518.984 683.804 519.368C684.588 519.752 685.188 520.296 685.604 521C686.036 521.688 686.252 522.52 686.252 523.496C686.252 524.12 686.124 524.72 685.868 525.296C685.628 525.872 685.22 526.512 684.644 527.216C684.084 527.92 683.308 528.792 682.316 529.832L677.348 535.112L677.132 534.248H686.444V536H675.452V534.512ZM693.991 536.24C692.567 536.24 691.399 535.912 690.487 535.256C689.591 534.6 688.935 533.624 688.519 532.328C688.119 531.032 687.919 529.424 687.919 527.504C687.919 525.568 688.127 523.96 688.543 522.68C688.975 521.4 689.639 520.432 690.535 519.776C691.431 519.12 692.583 518.792 693.991 518.792C695.431 518.792 696.599 519.12 697.495 519.776C698.391 520.432 699.047 521.4 699.463 522.68C699.895 523.96 700.111 525.568 700.111 527.504C700.111 529.424 699.895 531.032 699.463 532.328C699.047 533.624 698.391 534.6 697.495 535.256C696.599 535.912 695.431 536.24 693.991 536.24ZM693.991 534.464C695.463 534.464 696.511 533.912 697.135 532.808C697.759 531.688 698.071 529.92 698.071 527.504C698.071 525.088 697.759 523.328 697.135 522.224C696.511 521.104 695.463 520.544 693.991 520.544C692.567 520.544 691.543 521.104 690.919 522.224C690.295 523.328 689.983 525.088 689.983 527.504C689.983 529.92 690.287 531.688 690.895 532.808C691.519 533.912 692.551 534.464 693.991 534.464ZM701.564 534.512L707.324 528.416C708.012 527.696 708.572 527.064 709.004 526.52C709.436 525.976 709.764 525.472 709.988 525.008C710.212 524.528 710.324 524.024 710.324 523.496C710.324 522.504 710.028 521.768 709.436 521.288C708.844 520.792 708.044 520.544 707.036 520.544C706.012 520.544 705.196 520.832 704.588 521.408C703.98 521.968 703.676 522.792 703.676 523.88H701.66C701.644 522.84 701.868 521.944 702.332 521.192C702.796 520.424 703.436 519.832 704.252 519.416C705.084 519 706.036 518.792 707.108 518.792C708.196 518.792 709.132 518.984 709.916 519.368C710.7 519.752 711.3 520.296 711.716 521C712.148 521.688 712.364 522.52 712.364 523.496C712.364 524.12 712.236 524.72 711.98 525.296C711.74 525.872 711.332 526.512 710.756 527.216C710.196 527.92 709.42 528.792 708.428 529.832L703.46 535.112L703.244 534.248H712.556V536H701.564V534.512ZM714.438 530.624C714.454 530.048 714.534 529.472 714.678 528.896C714.838 528.304 715.102 527.664 715.47 526.976C715.838 526.288 716.342 525.504 716.982 524.624L721.11 519.032H723.462L717.582 526.952L717.438 526.16C717.678 526.016 717.934 525.88 718.206 525.752C718.478 525.624 718.79 525.52 719.142 525.44C719.494 525.36 719.886 525.32 720.318 525.32C721.438 525.32 722.406 525.544 723.222 525.992C724.054 526.44 724.686 527.072 725.118 527.888C725.566 528.688 725.79 529.64 725.79 530.744C725.79 531.848 725.566 532.816 725.118 533.648C724.686 534.464 724.046 535.104 723.198 535.568C722.35 536.016 721.326 536.24 720.126 536.24C718.302 536.24 716.894 535.728 715.902 534.704C714.91 533.68 714.422 532.32 714.438 530.624ZM716.454 530.744C716.454 531.88 716.742 532.792 717.318 533.48C717.894 534.152 718.83 534.488 720.126 534.488C721.39 534.488 722.31 534.152 722.886 533.48C723.462 532.792 723.75 531.88 723.75 530.744C723.75 529.592 723.462 528.696 722.886 528.056C722.31 527.4 721.39 527.072 720.126 527.072C718.974 527.072 718.07 527.4 717.414 528.056C716.774 528.696 716.454 529.592 716.454 530.744ZM737.036 537.704H726.332V536H737.036V537.704ZM740.644 519.032L746.236 533H746.38L751.996 519.032H754.54V536H752.572V522.968H752.428L747.148 536H745.42L740.164 522.968H740.02V536H738.052V519.032H740.644ZM769.145 529.16H764.609V527.384H771.185V529.352C771.185 530.584 770.945 531.728 770.465 532.784C769.985 533.824 769.241 534.664 768.233 535.304C767.225 535.928 765.913 536.24 764.297 536.24C761.913 536.24 760.073 535.488 758.777 533.984C757.481 532.48 756.833 530.32 756.833 527.504C756.833 524.688 757.481 522.536 758.777 521.048C760.073 519.544 761.913 518.792 764.297 518.792C765.481 518.792 766.545 519 767.489 519.416C768.433 519.832 769.217 520.44 769.841 521.24C770.465 522.024 770.865 523 771.041 524.168H768.929C768.721 522.92 768.217 522.008 767.417 521.432C766.633 520.856 765.593 520.568 764.297 520.568C762.537 520.568 761.193 521.136 760.265 522.272C759.353 523.392 758.897 525.136 758.897 527.504C758.897 529.872 759.353 531.624 760.265 532.76C761.193 533.88 762.537 534.44 764.297 534.44C765.161 534.44 765.881 534.328 766.457 534.104C767.033 533.88 767.497 533.576 767.849 533.192C768.201 532.808 768.465 532.384 768.641 531.92C768.833 531.456 768.961 530.984 769.025 530.504C769.105 530.008 769.145 529.56 769.145 529.16ZM782.109 537.704H771.405V536H782.109V537.704ZM793.997 524.408C793.997 524.968 793.909 525.536 793.733 526.112C793.557 526.688 793.285 527.312 792.917 527.984C792.565 528.656 792.093 529.456 791.501 530.384L787.853 536H785.549L790.973 527.912L791.117 528.776C790.861 528.936 790.581 529.088 790.277 529.232C789.989 529.376 789.669 529.496 789.317 529.592C788.981 529.672 788.597 529.712 788.165 529.712C787.045 529.712 786.069 529.488 785.237 529.04C784.421 528.592 783.789 527.968 783.341 527.168C782.893 526.352 782.669 525.392 782.669 524.288C782.669 523.168 782.893 522.2 783.341 521.384C783.789 520.568 784.437 519.936 785.285 519.488C786.133 519.024 787.157 518.792 788.357 518.792C790.197 518.792 791.597 519.304 792.557 520.328C793.533 521.352 794.013 522.712 793.997 524.408ZM792.005 524.264C792.005 523.112 791.717 522.208 791.141 521.552C790.565 520.896 789.637 520.568 788.357 520.568C787.093 520.568 786.173 520.896 785.597 521.552C785.021 522.208 784.733 523.112 784.733 524.264C784.733 525.416 785.021 526.32 785.597 526.976C786.173 527.616 787.093 527.936 788.357 527.936C789.509 527.936 790.405 527.616 791.045 526.976C791.685 526.32 792.005 525.416 792.005 524.264ZM807.451 524.408C807.451 524.968 807.363 525.536 807.187 526.112C807.011 526.688 806.739 527.312 806.371 527.984C806.019 528.656 805.547 529.456 804.955 530.384L801.307 536H799.003L804.427 527.912L804.571 528.776C804.315 528.936 804.035 529.088 803.731 529.232C803.443 529.376 803.123 529.496 802.771 529.592C802.435 529.672 802.051 529.712 801.619 529.712C800.499 529.712 799.523 529.488 798.691 529.04C797.875 528.592 797.243 527.968 796.795 527.168C796.347 526.352 796.123 525.392 796.123 524.288C796.123 523.168 796.347 522.2 796.795 521.384C797.243 520.568 797.891 519.936 798.739 519.488C799.587 519.024 800.611 518.792 801.811 518.792C803.651 518.792 805.051 519.304 806.011 520.328C806.987 521.352 807.467 522.712 807.451 524.408ZM805.459 524.264C805.459 523.112 805.171 522.208 804.595 521.552C804.019 520.896 803.091 520.568 801.811 520.568C800.547 520.568 799.627 520.896 799.051 521.552C798.475 522.208 798.187 523.112 798.187 524.264C798.187 525.416 798.475 526.32 799.051 526.976C799.627 527.616 800.547 527.936 801.811 527.936C802.963 527.936 803.859 527.616 804.499 526.976C805.139 526.32 805.459 525.416 805.459 524.264ZM815.265 536.24C813.841 536.24 812.673 535.912 811.761 535.256C810.865 534.6 810.209 533.624 809.793 532.328C809.393 531.032 809.193 529.424 809.193 527.504C809.193 525.568 809.401 523.96 809.817 522.68C810.249 521.4 810.913 520.432 811.809 519.776C812.705 519.12 813.857 518.792 815.265 518.792C816.705 518.792 817.873 519.12 818.769 519.776C819.665 520.432 820.321 521.4 820.737 522.68C821.169 523.96 821.385 525.568 821.385 527.504C821.385 529.424 821.169 531.032 820.737 532.328C820.321 533.624 819.665 534.6 818.769 535.256C817.873 535.912 816.705 536.24 815.265 536.24ZM815.265 534.464C816.737 534.464 817.785 533.912 818.409 532.808C819.033 531.688 819.345 529.92 819.345 527.504C819.345 525.088 819.033 523.328 818.409 522.224C817.785 521.104 816.737 520.544 815.265 520.544C813.841 520.544 812.817 521.104 812.193 522.224C811.569 523.328 811.257 525.088 811.257 527.504C811.257 529.92 811.561 531.688 812.169 532.808C812.793 533.912 813.825 534.464 815.265 534.464ZM828.838 526.328L833.422 519.032H835.774L830.182 527.744L828.838 526.328ZM829.15 528.632L824.494 536H822.142L827.806 527.192L829.15 528.632ZM827.662 527.576L822.118 519.032H824.566L829.006 526.064L830.278 527.432L835.846 536H833.398L828.766 528.656L827.662 527.576Z" fill="#FFFAEE"/>
<path d="M577.032 610.312C575.912 610.312 574.824 610.112 573.768 609.712C572.712 609.312 571.76 608.728 570.912 607.96C570.064 607.192 569.384 606.264 568.872 605.176C568.376 604.088 568.128 602.848 568.128 601.456C568.128 600.064 568.376 598.824 568.872 597.736C569.384 596.648 570.064 595.728 570.912 594.976C571.76 594.208 572.712 593.624 573.768 593.224C574.824 592.824 575.912 592.624 577.032 592.624C578.152 592.624 579.24 592.824 580.296 593.224C581.352 593.624 582.304 594.208 583.152 594.976C584 595.728 584.672 596.648 585.168 597.736C585.664 598.824 585.912 600.064 585.912 601.456C585.912 602.848 585.664 604.088 585.168 605.176C584.672 606.264 584 607.192 583.152 607.96C582.304 608.728 581.352 609.312 580.296 609.712C579.24 610.112 578.152 610.312 577.032 610.312ZM577.032 609.208C577.976 609.208 578.904 609.04 579.816 608.704C580.728 608.352 581.552 607.848 582.288 607.192C583.024 606.52 583.608 605.704 584.04 604.744C584.488 603.784 584.712 602.688 584.712 601.456C584.712 600.224 584.488 599.128 584.04 598.168C583.608 597.208 583.024 596.4 582.288 595.744C581.552 595.072 580.728 594.568 579.816 594.232C578.904 593.88 577.976 593.704 577.032 593.704C576.072 593.704 575.136 593.88 574.224 594.232C573.312 594.568 572.488 595.072 571.752 595.744C571.016 596.4 570.424 597.208 569.976 598.168C569.544 599.128 569.328 600.224 569.328 601.456C569.328 602.688 569.544 603.784 569.976 604.744C570.424 605.704 571.016 606.52 571.752 607.192C572.488 607.848 573.312 608.352 574.224 608.704C575.136 609.04 576.072 609.208 577.032 609.208ZM577.128 606.16C575.656 606.16 574.544 605.736 573.792 604.888C573.04 604.04 572.664 602.888 572.664 601.432C572.664 599.976 573.048 598.832 573.816 598C574.6 597.168 575.688 596.752 577.08 596.752C577.816 596.752 578.448 596.872 578.976 597.112C579.52 597.352 579.952 597.696 580.272 598.144C580.608 598.576 580.824 599.096 580.92 599.704H579.576C579.464 599.144 579.232 598.704 578.88 598.384C578.544 598.064 577.952 597.904 577.104 597.904C576.08 597.904 575.296 598.208 574.752 598.816C574.208 599.424 573.936 600.296 573.936 601.432C573.936 602.584 574.208 603.472 574.752 604.096C575.296 604.704 576.08 605.008 577.104 605.008C577.904 605.008 578.488 604.88 578.856 604.624C579.224 604.352 579.464 603.92 579.576 603.328H580.92C580.856 603.888 580.664 604.384 580.344 604.816C580.04 605.232 579.616 605.56 579.072 605.8C578.544 606.04 577.896 606.16 577.128 606.16ZM594.647 608.824L600.455 602.608C601.191 601.824 601.791 601.136 602.255 600.544C602.719 599.936 603.063 599.376 603.287 598.864C603.527 598.336 603.647 597.8 603.647 597.256C603.647 596.216 603.311 595.424 602.639 594.88C601.967 594.32 601.071 594.04 599.951 594.04C598.831 594.04 597.911 594.376 597.191 595.048C596.471 595.704 596.127 596.608 596.159 597.76H594.767C594.751 596.72 594.967 595.832 595.415 595.096C595.863 594.36 596.487 593.792 597.287 593.392C598.087 592.992 598.999 592.792 600.023 592.792C601.095 592.792 601.999 592.976 602.735 593.344C603.487 593.696 604.063 594.208 604.463 594.88C604.863 595.536 605.063 596.328 605.063 597.256C605.063 597.864 604.959 598.456 604.751 599.032C604.543 599.592 604.159 600.24 603.599 600.976C603.055 601.696 602.263 602.608 601.223 603.712L595.751 609.568L595.847 608.752H605.279V610H594.647V608.824ZM619.982 610.24C618.59 610.24 617.454 609.928 616.574 609.304C615.71 608.664 615.078 607.704 614.678 606.424C614.278 605.128 614.078 603.488 614.078 601.504C614.078 599.52 614.278 597.888 614.678 596.608C615.094 595.328 615.734 594.376 616.598 593.752C617.478 593.112 618.606 592.792 619.982 592.792C621.374 592.792 622.502 593.112 623.366 593.752C624.246 594.376 624.886 595.328 625.286 596.608C625.702 597.888 625.91 599.52 625.91 601.504C625.91 603.472 625.702 605.104 625.286 606.4C624.886 607.696 624.246 608.664 623.366 609.304C622.502 609.928 621.374 610.24 619.982 610.24ZM619.982 608.992C621.614 608.992 622.774 608.376 623.462 607.144C624.15 605.912 624.494 604.032 624.494 601.504C624.494 598.976 624.15 597.104 623.462 595.888C622.774 594.656 621.614 594.04 619.982 594.04C618.366 594.04 617.214 594.656 616.526 595.888C615.838 597.104 615.494 598.976 615.494 601.504C615.494 604.032 615.83 605.912 616.502 607.144C617.19 608.376 618.35 608.992 619.982 608.992ZM634.713 608.824L640.521 602.608C641.257 601.824 641.857 601.136 642.321 600.544C642.785 599.936 643.129 599.376 643.353 598.864C643.593 598.336 643.713 597.8 643.713 597.256C643.713 596.216 643.377 595.424 642.705 594.88C642.033 594.32 641.137 594.04 640.017 594.04C638.897 594.04 637.977 594.376 637.257 595.048C636.537 595.704 636.193 596.608 636.225 597.76H634.833C634.817 596.72 635.033 595.832 635.481 595.096C635.929 594.36 636.553 593.792 637.353 593.392C638.153 592.992 639.065 592.792 640.089 592.792C641.161 592.792 642.065 592.976 642.801 593.344C643.553 593.696 644.129 594.208 644.529 594.88C644.929 595.536 645.129 596.328 645.129 597.256C645.129 597.864 645.025 598.456 644.817 599.032C644.609 599.592 644.225 600.24 643.665 600.976C643.121 601.696 642.329 602.608 641.289 603.712L635.817 609.568L635.913 608.752H645.345V610H634.713V608.824ZM654.6 604.672C654.616 604.048 654.688 603.44 654.816 602.848C654.96 602.256 655.208 601.624 655.56 600.952C655.928 600.28 656.432 599.512 657.072 598.648L661.272 593.032H662.976L657.288 600.568L657.096 600.352C657.432 600.144 657.736 599.976 658.008 599.848C658.28 599.704 658.576 599.6 658.896 599.536C659.216 599.456 659.608 599.416 660.072 599.416C661.24 599.416 662.232 599.632 663.048 600.064C663.864 600.48 664.48 601.088 664.896 601.888C665.328 602.688 665.544 603.656 665.544 604.792C665.544 605.88 665.336 606.832 664.92 607.648C664.504 608.464 663.888 609.104 663.072 609.568C662.256 610.016 661.256 610.24 660.072 610.24C658.28 610.24 656.912 609.736 655.968 608.728C655.04 607.704 654.584 606.352 654.6 604.672ZM656.016 604.792C656.016 606.072 656.328 607.096 656.952 607.864C657.592 608.616 658.632 608.992 660.072 608.992C661.496 608.992 662.528 608.616 663.168 607.864C663.808 607.096 664.128 606.072 664.128 604.792C664.128 603.512 663.808 602.504 663.168 601.768C662.528 601.032 661.496 600.664 660.072 600.664C658.792 600.664 657.792 601.032 657.072 601.768C656.368 602.504 656.016 603.512 656.016 604.792Z" fill="#FFFAEE"/>
<path d="M568.968 570.768H571.104V573H568.968V570.768ZM573.91 575.544H572.566L578.086 555.12H579.43L573.91 575.544ZM581.044 556.032H586.708C588.068 556.032 589.164 556.248 589.996 556.68C590.828 557.096 591.436 557.688 591.82 558.456C592.204 559.224 592.396 560.136 592.396 561.192C592.396 562.248 592.204 563.168 591.82 563.952C591.436 564.736 590.828 565.344 589.996 565.776C589.18 566.208 588.1 566.424 586.756 566.424H582.484V573H581.044V556.032ZM586.66 565.176C587.78 565.176 588.652 565.016 589.276 564.696C589.9 564.36 590.332 563.896 590.572 563.304C590.828 562.696 590.956 561.992 590.956 561.192C590.956 560.376 590.828 559.68 590.572 559.104C590.332 558.512 589.9 558.064 589.276 557.76C588.652 557.44 587.764 557.28 586.612 557.28H582.484V565.176H586.66ZM601.75 565.224L606.166 573H604.558L600.31 565.488L601.75 565.224ZM599.878 564.768C601.014 564.768 601.894 564.624 602.518 564.336C603.142 564.048 603.582 563.624 603.838 563.064C604.094 562.504 604.222 561.816 604.222 561C604.222 560.168 604.094 559.48 603.838 558.936C603.582 558.392 603.142 557.984 602.518 557.712C601.894 557.424 601.014 557.28 599.878 557.28H595.75V564.768H599.878ZM599.998 566.016H595.75V573H594.31V556.032H599.974C601.35 556.032 602.454 556.232 603.286 556.632C604.118 557.016 604.718 557.576 605.086 558.312C605.47 559.048 605.662 559.944 605.662 561C605.662 561.832 605.574 562.56 605.398 563.184C605.222 563.808 604.918 564.336 604.486 564.768C604.054 565.184 603.47 565.496 602.734 565.704C602.014 565.912 601.102 566.016 599.998 566.016ZM621.769 564.504C621.769 567.304 621.161 569.464 619.945 570.984C618.745 572.488 616.977 573.24 614.641 573.24C612.305 573.24 610.529 572.488 609.313 570.984C608.113 569.464 607.513 567.304 607.513 564.504C607.513 561.704 608.113 559.552 609.313 558.048C610.529 556.544 612.305 555.792 614.641 555.792C616.977 555.792 618.745 556.544 619.945 558.048C621.161 559.552 621.769 561.704 621.769 564.504ZM620.329 564.504C620.329 561.96 619.857 560.088 618.913 558.888C617.985 557.688 616.561 557.088 614.641 557.088C612.721 557.088 611.289 557.688 610.345 558.888C609.417 560.088 608.953 561.96 608.953 564.504C608.953 567.048 609.417 568.928 610.345 570.144C611.289 571.344 612.721 571.944 614.641 571.944C616.561 571.944 617.985 571.344 618.913 570.144C619.857 568.928 620.329 567.048 620.329 564.504ZM635.637 560.952C635.429 559.656 634.909 558.688 634.077 558.048C633.261 557.408 632.173 557.088 630.813 557.088C629.021 557.088 627.629 557.696 626.637 558.912C625.661 560.128 625.173 561.984 625.173 564.48C625.173 566.992 625.661 568.864 626.637 570.096C627.629 571.312 629.021 571.92 630.813 571.92C632.173 571.92 633.261 571.6 634.077 570.96C634.909 570.32 635.437 569.36 635.661 568.08H637.173C636.901 569.76 636.229 571.04 635.157 571.92C634.085 572.8 632.637 573.24 630.813 573.24C628.445 573.24 626.669 572.48 625.485 570.96C624.317 569.424 623.733 567.264 623.733 564.48C623.733 561.712 624.317 559.576 625.485 558.072C626.669 556.552 628.445 555.792 630.813 555.792C631.949 555.792 632.957 555.984 633.837 556.368C634.733 556.752 635.461 557.328 636.021 558.096C636.597 558.864 636.973 559.816 637.149 560.952H635.637ZM639.664 556.032H649.216V557.28H641.104V563.88H648.664V565.128H641.104V571.752H649.336V573H639.664V556.032ZM661.069 559.704C660.941 558.712 660.501 558.024 659.749 557.64C659.013 557.256 658.037 557.064 656.821 557.064C655.429 557.064 654.397 557.336 653.725 557.88C653.053 558.408 652.717 559.192 652.717 560.232C652.717 560.84 652.829 561.336 653.053 561.72C653.293 562.104 653.597 562.416 653.965 562.656C654.333 562.88 654.725 563.064 655.141 563.208C655.557 563.336 655.941 563.448 656.293 563.544L658.141 564.048C658.605 564.176 659.109 564.336 659.653 564.528C660.197 564.72 660.709 564.984 661.189 565.32C661.685 565.656 662.085 566.088 662.389 566.616C662.693 567.144 662.845 567.8 662.845 568.584C662.845 569.48 662.629 570.288 662.197 571.008C661.765 571.728 661.101 572.296 660.205 572.712C659.309 573.112 658.165 573.312 656.773 573.312C654.917 573.312 653.493 572.936 652.501 572.184C651.509 571.432 650.949 570.416 650.821 569.136H652.309C652.405 569.904 652.653 570.496 653.053 570.912C653.453 571.328 653.965 571.624 654.589 571.8C655.229 571.96 655.957 572.04 656.773 572.04C658.245 572.04 659.381 571.76 660.181 571.2C660.997 570.624 661.405 569.736 661.405 568.536C661.405 567.816 661.229 567.248 660.877 566.832C660.541 566.416 660.085 566.088 659.509 565.848C658.949 565.608 658.341 565.4 657.685 565.224L655.381 564.6C654.069 564.232 653.053 563.72 652.333 563.064C651.629 562.408 651.277 561.504 651.277 560.352C651.277 559.408 651.501 558.6 651.949 557.928C652.413 557.24 653.061 556.712 653.893 556.344C654.741 555.976 655.741 555.792 656.893 555.792C658.013 555.792 658.973 555.96 659.773 556.296C660.589 556.616 661.229 557.072 661.693 557.664C662.173 558.24 662.445 558.92 662.509 559.704H661.069ZM674.054 559.704C673.926 558.712 673.486 558.024 672.734 557.64C671.998 557.256 671.022 557.064 669.806 557.064C668.414 557.064 667.382 557.336 666.71 557.88C666.038 558.408 665.702 559.192 665.702 560.232C665.702 560.84 665.814 561.336 666.038 561.72C666.278 562.104 666.582 562.416 666.95 562.656C667.318 562.88 667.71 563.064 668.126 563.208C668.542 563.336 668.926 563.448 669.278 563.544L671.126 564.048C671.59 564.176 672.094 564.336 672.638 564.528C673.182 564.72 673.694 564.984 674.174 565.32C674.67 565.656 675.07 566.088 675.374 566.616C675.678 567.144 675.83 567.8 675.83 568.584C675.83 569.48 675.614 570.288 675.182 571.008C674.75 571.728 674.086 572.296 673.19 572.712C672.294 573.112 671.15 573.312 669.758 573.312C667.902 573.312 666.478 572.936 665.486 572.184C664.494 571.432 663.934 570.416 663.806 569.136H665.294C665.39 569.904 665.638 570.496 666.038 570.912C666.438 571.328 666.95 571.624 667.574 571.8C668.214 571.96 668.942 572.04 669.758 572.04C671.23 572.04 672.366 571.76 673.166 571.2C673.982 570.624 674.39 569.736 674.39 568.536C674.39 567.816 674.214 567.248 673.862 566.832C673.526 566.416 673.07 566.088 672.494 565.848C671.934 565.608 671.326 565.4 670.67 565.224L668.366 564.6C667.054 564.232 666.038 563.72 665.318 563.064C664.614 562.408 664.262 561.504 664.262 560.352C664.262 559.408 664.486 558.6 664.934 557.928C665.398 557.24 666.046 556.712 666.878 556.344C667.726 555.976 668.726 555.792 669.878 555.792C670.998 555.792 671.958 555.96 672.758 556.296C673.574 556.616 674.214 557.072 674.678 557.664C675.158 558.24 675.43 558.92 675.494 559.704H674.054ZM677.512 575.544H676.168L681.688 555.12H683.032L677.512 575.544ZM690.213 571.344H690.357L695.949 556.032H697.461L691.269 573H689.277L683.109 556.032H684.645L690.213 571.344ZM704.192 573.24C702.8 573.24 701.664 572.928 700.784 572.304C699.92 571.664 699.288 570.704 698.888 569.424C698.488 568.128 698.288 566.488 698.288 564.504C698.288 562.52 698.488 560.888 698.888 559.608C699.304 558.328 699.944 557.376 700.808 556.752C701.688 556.112 702.816 555.792 704.192 555.792C705.584 555.792 706.712 556.112 707.576 556.752C708.456 557.376 709.096 558.328 709.496 559.608C709.912 560.888 710.12 562.52 710.12 564.504C710.12 566.472 709.912 568.104 709.496 569.4C709.096 570.696 708.456 571.664 707.576 572.304C706.712 572.928 705.584 573.24 704.192 573.24ZM704.192 571.992C705.824 571.992 706.984 571.376 707.672 570.144C708.36 568.912 708.704 567.032 708.704 564.504C708.704 561.976 708.36 560.104 707.672 558.888C706.984 557.656 705.824 557.04 704.192 557.04C702.576 557.04 701.424 557.656 700.736 558.888C700.048 560.104 699.704 561.976 699.704 564.504C699.704 567.032 700.04 568.912 700.712 570.144C701.4 571.376 702.56 571.992 704.192 571.992ZM717.555 573H716.115V556.992L716.619 557.112L711.795 560.376V558.864L715.947 556.032H717.555V573Z" fill="#FFFAEE"/>
<path d="M271.995 453C255.461 453 242 439.539 242 422.995C242 406.451 255.461 393 271.995 393C288.53 393 301.991 406.461 301.991 422.995C301.991 439.53 288.53 452.991 271.995 452.991V453ZM271.995 398.208C258.328 398.208 247.208 409.328 247.208 422.995C247.208 436.663 258.328 447.783 271.995 447.783C285.663 447.783 296.783 436.663 296.783 422.995C296.783 409.328 285.663 398.208 271.995 398.208Z" fill="#FFFAEE"/>
<path d="M276.658 402.325H267.511V433.1H276.658V402.325Z" fill="#FFFAEE"/>
<path d="M276.658 436.447H267.511V443.995H276.658V436.447Z" fill="#FFFAEE"/>
<path d="M774.626 567.755C776.215 567.755 777.504 566.467 777.504 564.878C777.504 563.288 776.215 562 774.626 562C773.037 562 771.748 563.288 771.748 564.878C771.748 566.467 773.037 567.755 774.626 567.755Z" fill="#FFFAEE"/>
<path d="M781.98 567.755C783.569 567.755 784.858 566.467 784.858 564.878C784.858 563.288 783.569 562 781.98 562C780.391 562 779.102 563.288 779.102 564.878C779.102 566.467 780.391 567.755 781.98 567.755Z" fill="#FFFAEE"/>
<path d="M789.374 567.755C790.963 567.755 792.252 566.467 792.252 564.878C792.252 563.288 790.963 562 789.374 562C787.785 562 786.496 563.288 786.496 564.878C786.496 566.467 787.785 567.755 789.374 567.755Z" fill="#FFFAEE"/>
<path d="M774.626 575.15C776.215 575.15 777.504 573.861 777.504 572.272C777.504 570.682 776.215 569.394 774.626 569.394C773.037 569.394 771.748 570.682 771.748 572.272C771.748 573.861 773.037 575.15 774.626 575.15Z" fill="#FFFAEE"/>
<path d="M767.272 575.149C768.861 575.149 770.15 573.861 770.15 572.272C770.15 570.682 768.861 569.394 767.272 569.394C765.682 569.394 764.394 570.682 764.394 572.272C764.394 573.861 765.682 575.149 767.272 575.149Z" fill="#FFFAEE"/>
<path d="M781.98 575.15C783.569 575.15 784.858 573.861 784.858 572.272C784.858 570.682 783.569 569.394 781.98 569.394C780.391 569.394 779.102 570.682 779.102 572.272C779.102 573.861 780.391 575.15 781.98 575.15Z" fill="#FFFAEE"/>
<path d="M789.374 575.15C790.963 575.15 792.252 573.861 792.252 572.272C792.252 570.682 790.963 569.394 789.374 569.394C787.785 569.394 786.496 570.682 786.496 572.272C786.496 573.861 787.785 575.15 789.374 575.15Z" fill="#FFFAEE"/>
<path d="M796.728 575.15C798.318 575.15 799.606 573.861 799.606 572.272C799.606 570.682 798.318 569.394 796.728 569.394C795.139 569.394 793.851 570.682 793.851 572.272C793.851 573.861 795.139 575.15 796.728 575.15Z" fill="#FFFAEE"/>
<path d="M789.374 612C790.963 612 792.252 610.712 792.252 609.122C792.252 607.533 790.963 606.245 789.374 606.245C787.785 606.245 786.496 607.533 786.496 609.122C786.496 610.712 787.785 612 789.374 612Z" fill="#FFFAEE"/>
<path d="M781.98 612C783.569 612 784.858 610.712 784.858 609.122C784.858 607.533 783.569 606.245 781.98 606.245C780.391 606.245 779.102 607.533 779.102 609.122C779.102 610.712 780.391 612 781.98 612Z" fill="#FFFAEE"/>
<path d="M774.626 612C776.215 612 777.504 610.712 777.504 609.122C777.504 607.533 776.215 606.245 774.626 606.245C773.037 606.245 771.748 607.533 771.748 609.122C771.748 610.712 773.037 612 774.626 612Z" fill="#FFFAEE"/>
<path d="M789.374 604.606C790.963 604.606 792.252 603.318 792.252 601.728C792.252 600.139 790.963 598.851 789.374 598.851C787.785 598.851 786.496 600.139 786.496 601.728C786.496 603.318 787.785 604.606 789.374 604.606Z" fill="#FFFAEE"/>
<path d="M796.728 604.606C798.318 604.606 799.606 603.318 799.606 601.728C799.606 600.139 798.318 598.851 796.728 598.851C795.139 598.851 793.851 600.139 793.851 601.728C793.851 603.318 795.139 604.606 796.728 604.606Z" fill="#FFFAEE"/>
<path d="M781.98 604.606C783.569 604.606 784.858 603.318 784.858 601.728C784.858 600.139 783.569 598.851 781.98 598.851C780.391 598.851 779.102 600.139 779.102 601.728C779.102 603.318 780.391 604.606 781.98 604.606Z" fill="#FFFAEE"/>
<path d="M774.626 604.606C776.215 604.606 777.504 603.318 777.504 601.728C777.504 600.139 776.215 598.851 774.626 598.851C773.037 598.851 771.748 600.139 771.748 601.728C771.748 603.318 773.037 604.606 774.626 604.606Z" fill="#FFFAEE"/>
<path d="M767.272 604.606C768.861 604.606 770.15 603.318 770.15 601.728C770.15 600.139 768.861 598.851 767.272 598.851C765.682 598.851 764.394 600.139 764.394 601.728C764.394 603.318 765.682 604.606 767.272 604.606Z" fill="#FFFAEE"/>
<path d="M774.626 582.504C776.215 582.504 777.504 581.215 777.504 579.626C777.504 578.037 776.215 576.748 774.626 576.748C773.037 576.748 771.748 578.037 771.748 579.626C771.748 581.215 773.037 582.504 774.626 582.504Z" fill="#FFFAEE"/>
<path d="M767.272 582.504C768.861 582.504 770.15 581.215 770.15 579.626C770.15 578.037 768.861 576.748 767.272 576.748C765.682 576.748 764.394 578.037 764.394 579.626C764.394 581.215 765.682 582.504 767.272 582.504Z" fill="#FFFAEE"/>
<path d="M759.878 582.504C761.467 582.504 762.755 581.215 762.755 579.626C762.755 578.037 761.467 576.748 759.878 576.748C758.288 576.748 757 578.037 757 579.626C757 581.215 758.288 582.504 759.878 582.504Z" fill="#FFFAEE"/>
<path d="M781.98 582.504C783.569 582.504 784.858 581.215 784.858 579.626C784.858 578.037 783.569 576.748 781.98 576.748C780.391 576.748 779.102 578.037 779.102 579.626C779.102 581.215 780.391 582.504 781.98 582.504Z" fill="#FFFAEE"/>
<path d="M789.374 582.504C790.963 582.504 792.252 581.215 792.252 579.626C792.252 578.037 790.963 576.748 789.374 576.748C787.785 576.748 786.496 578.037 786.496 579.626C786.496 581.215 787.785 582.504 789.374 582.504Z" fill="#FFFAEE"/>
<path d="M796.728 582.504C798.318 582.504 799.606 581.215 799.606 579.626C799.606 578.037 798.318 576.748 796.728 576.748C795.139 576.748 793.851 578.037 793.851 579.626C793.851 581.215 795.139 582.504 796.728 582.504Z" fill="#FFFAEE"/>
<path d="M804.122 582.504C805.712 582.504 807 581.215 807 579.626C807 578.037 805.712 576.748 804.122 576.748C802.533 576.748 801.245 578.037 801.245 579.626C801.245 581.215 802.533 582.504 804.122 582.504Z" fill="#FFFAEE"/>
<path d="M774.626 589.858C776.215 589.858 777.504 588.569 777.504 586.98C777.504 585.391 776.215 584.102 774.626 584.102C773.037 584.102 771.748 585.391 771.748 586.98C771.748 588.569 773.037 589.858 774.626 589.858Z" fill="#FFFAEE"/>
<path d="M767.272 589.858C768.861 589.858 770.15 588.569 770.15 586.98C770.15 585.391 768.861 584.102 767.272 584.102C765.682 584.102 764.394 585.391 764.394 586.98C764.394 588.569 765.682 589.858 767.272 589.858Z" fill="#FFFAEE"/>
<path d="M759.878 589.858C761.467 589.858 762.755 588.569 762.755 586.98C762.755 585.391 761.467 584.102 759.878 584.102C758.288 584.102 757 585.391 757 586.98C757 588.569 758.288 589.858 759.878 589.858Z" fill="#FFFAEE"/>
<path d="M781.98 589.858C783.569 589.858 784.858 588.569 784.858 586.98C784.858 585.391 783.569 584.102 781.98 584.102C780.391 584.102 779.102 585.391 779.102 586.98C779.102 588.569 780.391 589.858 781.98 589.858Z" fill="#FFFAEE"/>
<path d="M789.374 589.858C790.963 589.858 792.252 588.569 792.252 586.98C792.252 585.391 790.963 584.102 789.374 584.102C787.785 584.102 786.496 585.391 786.496 586.98C786.496 588.569 787.785 589.858 789.374 589.858Z" fill="#FFFAEE"/>
<path d="M796.728 589.858C798.318 589.858 799.606 588.569 799.606 586.98C799.606 585.391 798.318 584.102 796.728 584.102C795.139 584.102 793.851 585.391 793.851 586.98C793.851 588.569 795.139 589.858 796.728 589.858Z" fill="#FFFAEE"/>
<path d="M804.122 589.858C805.712 589.858 807 588.569 807 586.98C807 585.391 805.712 584.102 804.122 584.102C802.533 584.102 801.245 585.391 801.245 586.98C801.245 588.569 802.533 589.858 804.122 589.858Z" fill="#FFFAEE"/>
<path d="M774.626 597.252C776.215 597.252 777.504 595.963 777.504 594.374C777.504 592.785 776.215 591.496 774.626 591.496C773.037 591.496 771.748 592.785 771.748 594.374C771.748 595.963 773.037 597.252 774.626 597.252Z" fill="#FFFAEE"/>
<path d="M767.272 597.252C768.861 597.252 770.15 595.963 770.15 594.374C770.15 592.785 768.861 591.496 767.272 591.496C765.682 591.496 764.394 592.785 764.394 594.374C764.394 595.963 765.682 597.252 767.272 597.252Z" fill="#FFFAEE"/>
<path d="M759.878 597.252C761.467 597.252 762.755 595.963 762.755 594.374C762.755 592.785 761.467 591.496 759.878 591.496C758.288 591.496 757 592.785 757 594.374C757 595.963 758.288 597.252 759.878 597.252Z" fill="#FFFAEE"/>
<path d="M781.98 597.252C783.569 597.252 784.858 595.963 784.858 594.374C784.858 592.785 783.569 591.496 781.98 591.496C780.391 591.496 779.102 592.785 779.102 594.374C779.102 595.963 780.391 597.252 781.98 597.252Z" fill="#FFFAEE"/>
<path d="M789.374 597.252C790.963 597.252 792.252 595.963 792.252 594.374C792.252 592.785 790.963 591.496 789.374 591.496C787.785 591.496 786.496 592.785 786.496 594.374C786.496 595.963 787.785 597.252 789.374 597.252Z" fill="#FFFAEE"/>
<path d="M796.728 597.252C798.318 597.252 799.606 595.963 799.606 594.374C799.606 592.785 798.318 591.496 796.728 591.496C795.139 591.496 793.851 592.785 793.851 594.374C793.851 595.963 795.139 597.252 796.728 597.252Z" fill="#FFFAEE"/>
<path d="M804.122 597.252C805.712 597.252 807 595.963 807 594.374C807 592.785 805.712 591.496 804.122 591.496C802.533 591.496 801.245 592.785 801.245 594.374C801.245 595.963 802.533 597.252 804.122 597.252Z" fill="#FFFAEE"/>
<path d="M312.261 598.917H310.381V578.018L311.039 578.174L304.741 582.436V580.462L310.162 576.764H312.261V598.917ZM319.727 581.088H322.516V584.002H319.727V581.088ZM319.727 594.248H322.516V597.162H319.727V594.248ZM333.469 598.917H331.589V578.018L332.247 578.174L325.949 582.436V580.462L331.369 576.764H333.469V598.917ZM340.684 596.003H343.473V598.917H340.684V596.003ZM346.949 591.961C346.969 591.146 347.063 590.353 347.231 589.58C347.419 588.807 347.742 587.982 348.202 587.104C348.682 586.227 349.34 585.224 350.176 584.096L355.659 576.764H357.884L350.458 586.603L350.207 586.321C350.646 586.049 351.043 585.83 351.398 585.663C351.753 585.475 352.139 585.339 352.557 585.256C352.975 585.151 353.487 585.099 354.093 585.099C355.617 585.099 356.913 585.381 357.978 585.945C359.043 586.488 359.847 587.282 360.391 588.326C360.955 589.371 361.237 590.635 361.237 592.118C361.237 593.538 360.965 594.781 360.422 595.846C359.879 596.912 359.075 597.747 358.009 598.353C356.944 598.938 355.638 599.23 354.093 599.23C351.753 599.23 349.967 598.572 348.735 597.256C347.523 595.919 346.928 594.154 346.949 591.961ZM348.797 592.118C348.797 593.789 349.205 595.126 350.019 596.128C350.855 597.11 352.213 597.601 354.093 597.601C355.952 597.601 357.299 597.11 358.135 596.128C358.97 595.126 359.388 593.789 359.388 592.118C359.388 590.447 358.97 589.131 358.135 588.17C357.299 587.209 355.952 586.728 354.093 586.728C352.421 586.728 351.116 587.209 350.176 588.17C349.257 589.131 348.797 590.447 348.797 592.118ZM371.507 598.917H369.627V578.018L370.285 578.174L363.987 582.436V580.462L369.407 576.764H371.507V598.917ZM385.365 599.23C382.712 599.23 380.769 598.698 379.537 597.632C378.325 596.567 377.72 595.084 377.72 593.183C377.741 592.159 377.929 591.24 378.284 590.426C378.66 589.611 379.182 588.943 379.85 588.42C380.54 587.898 381.323 587.564 382.2 587.418V587.292C381.051 587 380.153 586.405 379.506 585.506C378.879 584.587 378.566 583.48 378.566 582.185C378.566 581.078 378.806 580.096 379.286 579.24C379.788 578.362 380.54 577.683 381.542 577.203C382.566 576.702 383.84 576.451 385.365 576.451C386.89 576.451 388.154 576.702 389.156 577.203C390.159 577.683 390.901 578.362 391.381 579.24C391.882 580.096 392.123 581.078 392.102 582.185C392.081 583.459 391.757 584.556 391.13 585.475C390.504 586.394 389.616 587 388.467 587.292V587.418C389.344 587.564 390.128 587.898 390.817 588.42C391.506 588.943 392.039 589.611 392.415 590.426C392.812 591.24 393.01 592.159 393.01 593.183C393.01 594.457 392.739 595.543 392.196 596.442C391.653 597.34 390.817 598.029 389.689 598.51C388.561 598.99 387.12 599.23 385.365 599.23ZM385.365 597.601C387.37 597.601 388.843 597.183 389.783 596.348C390.723 595.512 391.193 594.374 391.193 592.932C391.193 591.512 390.692 590.384 389.689 589.548C388.686 588.713 387.245 588.295 385.365 588.295C383.464 588.295 382.012 588.713 381.01 589.548C380.028 590.384 379.537 591.512 379.537 592.932C379.537 594.374 380.007 595.512 380.947 596.348C381.887 597.183 383.36 597.601 385.365 597.601ZM385.365 586.666C386.994 586.666 388.227 586.29 389.062 585.538C389.919 584.765 390.347 583.72 390.347 582.404C390.347 581.067 389.929 580.013 389.094 579.24C388.279 578.467 387.036 578.08 385.365 578.08C383.673 578.08 382.42 578.467 381.605 579.24C380.79 580.013 380.383 581.067 380.383 582.404C380.383 583.72 380.801 584.765 381.636 585.538C382.472 586.29 383.715 586.666 385.365 586.666Z" fill="#FFFAEE"/>
<rect x="265.653" y="565.653" width="165.806" height="45.6944" rx="22.8472" stroke="#FFFAEE" stroke-width="1.30556"/>
<path d="M827.205 570.518V603.482C823.348 599.081 821 593.313 821 587C821 580.688 823.348 574.92 827.205 570.518Z" fill="#FFFAEE"/>
<path d="M862.482 605.795C858.08 609.652 852.313 612 846 612C839.688 612 833.92 609.652 829.518 605.795H862.482Z" fill="#FFFAEE"/>
<path d="M862.482 568.205H829.518C833.92 564.348 839.688 562 846 562C852.313 562 858.08 564.348 862.482 568.205Z" fill="#FFFAEE"/>
<path d="M871 587C871 593.313 868.652 599.081 864.795 603.482V570.518C868.652 574.92 871 580.688 871 587Z" fill="#FFFAEE"/>
<path d="M857.366 575.634C854.455 572.732 850.438 570.929 846 570.929C837.125 570.929 829.929 578.125 829.929 587C829.929 591.438 831.732 595.455 834.634 598.366C837.545 601.268 841.563 603.072 846 603.072C850.438 603.072 854.455 601.268 857.366 598.366C860.268 595.455 862.071 591.438 862.071 587C862.071 582.563 860.268 578.545 857.366 575.634ZM856.625 597.625H835.375V576.375H856.625V597.625Z" fill="#FFFAEE"/>
<path d="M849.821 586.982C849.821 589.098 848.107 590.803 846 590.803C843.893 590.803 842.179 589.098 842.179 586.982C842.179 584.866 843.893 583.161 846 583.161C848.107 583.161 849.821 584.875 849.821 586.982Z" fill="#FFFAEE"/>
</svg>
