<svg width="1080" height="1080" viewBox="0 0 1080 1080" fill="none" xmlns="http://www.w3.org/2000/svg">
<rect width="1080" height="1080" fill="#191919"/>
<path d="M623.776 392.712H636.544L636.328 393.96H623.56L623.776 392.712ZM624.76 386.952H637.528L637.312 388.2H624.544L624.76 386.952ZM628.408 381.912H629.632L626.848 399H625.624L628.408 381.912ZM634.264 381.912H635.488L632.68 399H631.456L634.264 381.912ZM640.238 382.032H649.91V383.28H641.678V389.88H649.118V391.128H641.678V399H640.238V382.032ZM651.864 382.032H661.536V383.28H653.304V389.88H660.744V391.128H653.304V399H651.864V382.032ZM663.49 382.032H673.162V383.28H664.93V389.88H672.37V391.128H664.93V399H663.49V382.032ZM679.015 383.88H678.919L673.591 399H672.127L678.199 382.032H679.831L685.879 399H684.343L679.015 383.88ZM682.879 393.912H675.127V392.664H682.879V393.912ZM687.632 382.032H697.184V383.28H689.072V389.88H696.632V391.128H689.072V397.752H697.304V399H687.632V382.032ZM700.055 382.032H709.607V383.28H701.495V389.88H709.055V391.128H701.495V397.752H709.727V399H700.055V382.032ZM720.71 400.248H710.342V399H720.71V400.248ZM731.046 385.704C730.918 384.712 730.478 384.024 729.726 383.64C728.99 383.256 728.014 383.064 726.798 383.064C725.406 383.064 724.374 383.336 723.702 383.88C723.03 384.408 722.694 385.192 722.694 386.232C722.694 386.84 722.806 387.336 723.03 387.72C723.27 388.104 723.574 388.416 723.942 388.656C724.31 388.88 724.702 389.064 725.118 389.208C725.534 389.336 725.918 389.448 726.27 389.544L728.118 390.048C728.582 390.176 729.086 390.336 729.63 390.528C730.174 390.72 730.686 390.984 731.166 391.32C731.662 391.656 732.062 392.088 732.366 392.616C732.67 393.144 732.822 393.8 732.822 394.584C732.822 395.48 732.606 396.288 732.174 397.008C731.742 397.728 731.078 398.296 730.182 398.712C729.286 399.112 728.142 399.312 726.75 399.312C724.894 399.312 723.47 398.936 722.478 398.184C721.486 397.432 720.926 396.416 720.798 395.136H722.286C722.382 395.904 722.63 396.496 723.03 396.912C723.43 397.328 723.942 397.624 724.566 397.8C725.206 397.96 725.934 398.04 726.75 398.04C728.222 398.04 729.358 397.76 730.158 397.2C730.974 396.624 731.382 395.736 731.382 394.536C731.382 393.816 731.206 393.248 730.854 392.832C730.518 392.416 730.062 392.088 729.486 391.848C728.926 391.608 728.318 391.4 727.662 391.224L725.358 390.6C724.046 390.232 723.03 389.72 722.31 389.064C721.606 388.408 721.254 387.504 721.254 386.352C721.254 385.408 721.478 384.6 721.926 383.928C722.39 383.24 723.038 382.712 723.87 382.344C724.718 381.976 725.718 381.792 726.87 381.792C727.99 381.792 728.95 381.96 729.75 382.296C730.566 382.616 731.206 383.072 731.67 383.664C732.15 384.24 732.422 384.92 732.486 385.704H731.046ZM734.816 382.032H740.48C741.84 382.032 742.936 382.248 743.768 382.68C744.6 383.096 745.208 383.688 745.592 384.456C745.976 385.224 746.168 386.136 746.168 387.192C746.168 388.248 745.976 389.168 745.592 389.952C745.208 390.736 744.6 391.344 743.768 391.776C742.952 392.208 741.872 392.424 740.528 392.424H736.256V399H734.816V382.032ZM740.432 391.176C741.552 391.176 742.424 391.016 743.048 390.696C743.672 390.36 744.104 389.896 744.344 389.304C744.6 388.696 744.728 387.992 744.728 387.192C744.728 386.376 744.6 385.68 744.344 385.104C744.104 384.512 743.672 384.064 743.048 383.76C742.424 383.44 741.536 383.28 740.384 383.28H736.256V391.176H740.432ZM748.082 382.032H757.634V383.28H749.522V389.88H757.082V391.128H749.522V397.752H757.754V399H748.082V382.032ZM771.15 386.952C770.942 385.656 770.422 384.688 769.59 384.048C768.774 383.408 767.686 383.088 766.326 383.088C764.534 383.088 763.142 383.696 762.15 384.912C761.174 386.128 760.686 387.984 760.686 390.48C760.686 392.992 761.174 394.864 762.15 396.096C763.142 397.312 764.534 397.92 766.326 397.92C767.686 397.92 768.774 397.6 769.59 396.96C770.422 396.32 770.95 395.36 771.174 394.08H772.686C772.414 395.76 771.742 397.04 770.67 397.92C769.598 398.8 768.15 399.24 766.326 399.24C763.958 399.24 762.182 398.48 760.998 396.96C759.83 395.424 759.246 393.264 759.246 390.48C759.246 387.712 759.83 385.576 760.998 384.072C762.182 382.552 763.958 381.792 766.326 381.792C767.462 381.792 768.47 381.984 769.35 382.368C770.246 382.752 770.974 383.328 771.534 384.096C772.11 384.864 772.486 385.816 772.662 386.952H771.15Z" fill="#FFFAEE"/>
<path d="M469.311 541H467.871V524.032H469.311V541ZM465.255 525.28V524.032H471.903V525.28H465.255ZM465.255 541V539.752H471.903V541H465.255ZM487.622 541H486.014L476.534 526.432H476.342V541H474.926V524.032H476.558L486.014 538.576H486.206V524.032H487.622V541ZM488.863 524.032H501.391V525.28H495.847V541H494.407V525.28H488.863V524.032ZM502.631 524.032H512.183V525.28H504.071V531.88H511.631V533.128H504.071V539.752H512.303V541H502.631V524.032ZM527.75 541H526.142L516.662 526.432H516.47V541H515.054V524.032H516.686L526.142 538.576H526.334V524.032H527.75V541ZM528.991 524.032H541.519V525.28H535.975V541H534.535V525.28H528.991V524.032ZM546.848 541H545.408V524.032H546.848V541ZM542.792 525.28V524.032H549.44V525.28H542.792ZM542.792 541V539.752H549.44V541H542.792ZM565.648 532.504C565.648 535.304 565.04 537.464 563.824 538.984C562.624 540.488 560.856 541.24 558.52 541.24C556.184 541.24 554.408 540.488 553.192 538.984C551.992 537.464 551.392 535.304 551.392 532.504C551.392 529.704 551.992 527.552 553.192 526.048C554.408 524.544 556.184 523.792 558.52 523.792C560.856 523.792 562.624 524.544 563.824 526.048C565.04 527.552 565.648 529.704 565.648 532.504ZM564.208 532.504C564.208 529.96 563.736 528.088 562.792 526.888C561.864 525.688 560.44 525.088 558.52 525.088C556.6 525.088 555.168 525.688 554.224 526.888C553.296 528.088 552.832 529.96 552.832 532.504C552.832 535.048 553.296 536.928 554.224 538.144C555.168 539.344 556.6 539.944 558.52 539.944C560.44 539.944 561.864 539.344 562.792 538.144C563.736 536.928 564.208 535.048 564.208 532.504ZM580.887 541H579.279L569.799 526.432H569.607V541H568.191V524.032H569.823L579.279 538.576H579.471V524.032H580.887V541ZM602.635 532.504C602.635 535.304 602.027 537.464 600.811 538.984C599.611 540.488 597.843 541.24 595.507 541.24C593.171 541.24 591.395 540.488 590.179 538.984C588.979 537.464 588.379 535.304 588.379 532.504C588.379 529.704 588.979 527.552 590.179 526.048C591.395 524.544 593.171 523.792 595.507 523.792C597.843 523.792 599.611 524.544 600.811 526.048C602.027 527.552 602.635 529.704 602.635 532.504ZM601.195 532.504C601.195 529.96 600.723 528.088 599.779 526.888C598.851 525.688 597.427 525.088 595.507 525.088C593.587 525.088 592.155 525.688 591.211 526.888C590.283 528.088 589.819 529.96 589.819 532.504C589.819 535.048 590.283 536.928 591.211 538.144C592.155 539.344 593.587 539.944 595.507 539.944C597.427 539.944 598.851 539.344 599.779 538.144C600.723 536.928 601.195 535.048 601.195 532.504ZM610.137 539.344H610.281L615.873 524.032H617.385L611.193 541H609.201L603.033 524.032H604.569L610.137 539.344ZM619.124 524.032H628.676V525.28H620.564V531.88H628.124V533.128H620.564V539.752H628.796V541H619.124V524.032ZM638.987 533.224L643.403 541H641.795L637.547 533.488L638.987 533.224ZM637.115 532.768C638.251 532.768 639.131 532.624 639.755 532.336C640.379 532.048 640.819 531.624 641.075 531.064C641.331 530.504 641.459 529.816 641.459 529C641.459 528.168 641.331 527.48 641.075 526.936C640.819 526.392 640.379 525.984 639.755 525.712C639.131 525.424 638.251 525.28 637.115 525.28H632.987V532.768H637.115ZM637.235 534.016H632.987V541H631.547V524.032H637.211C638.587 524.032 639.691 524.232 640.523 524.632C641.355 525.016 641.955 525.576 642.323 526.312C642.707 527.048 642.899 527.944 642.899 529C642.899 529.832 642.811 530.56 642.635 531.184C642.459 531.808 642.155 532.336 641.723 532.768C641.291 533.184 640.707 533.496 639.971 533.704C639.251 533.912 638.339 534.016 637.235 534.016ZM649.024 524.032H661.552V525.28H656.008V541H654.568V525.28H649.024V524.032ZM666.881 541H665.441V524.032H666.881V541ZM662.825 525.28V524.032H669.473V525.28H662.825ZM662.825 541V539.752H669.473V541H662.825ZM673.984 524.032L680.224 538.576H680.392L686.632 524.032H688.072V541H686.68V527.464H686.56L680.68 541H679.864L673.984 527.464H673.888V541H672.496V524.032H673.984ZM691.341 524.032H700.893V525.28H692.781V531.88H700.341V533.128H692.781V539.752H701.013V541H691.341V524.032ZM708.71 524.032H710.15V539.752H718.238V541H708.71V524.032ZM719.492 524.032H729.044V525.28H720.932V531.88H728.492V533.128H720.932V539.752H729.164V541H719.492V524.032ZM737.267 525.88H737.171L731.843 541H730.379L736.451 524.032H738.083L744.131 541H742.595L737.267 525.88ZM741.131 535.912H733.379V534.664H741.131V535.912ZM745.885 541V524.032H751.141C753.605 524.032 755.469 524.752 756.733 526.192C757.997 527.632 758.629 529.736 758.629 532.504C758.629 535.256 757.981 537.36 756.685 538.816C755.405 540.272 753.477 541 750.901 541H745.885ZM750.781 539.752C752.397 539.752 753.669 539.464 754.597 538.888C755.525 538.296 756.189 537.456 756.589 536.368C756.989 535.28 757.189 533.992 757.189 532.504C757.189 531 756.989 529.712 756.589 528.64C756.205 527.552 755.557 526.72 754.645 526.144C753.749 525.568 752.525 525.28 750.973 525.28H747.325V539.752H750.781ZM770.383 527.704C770.255 526.712 769.815 526.024 769.063 525.64C768.327 525.256 767.351 525.064 766.135 525.064C764.743 525.064 763.711 525.336 763.039 525.88C762.367 526.408 762.031 527.192 762.031 528.232C762.031 528.84 762.143 529.336 762.367 529.72C762.607 530.104 762.911 530.416 763.279 530.656C763.647 530.88 764.039 531.064 764.455 531.208C764.871 531.336 765.255 531.448 765.607 531.544L767.455 532.048C767.919 532.176 768.423 532.336 768.967 532.528C769.511 532.72 770.023 532.984 770.503 533.32C770.999 533.656 771.399 534.088 771.703 534.616C772.007 535.144 772.159 535.8 772.159 536.584C772.159 537.48 771.943 538.288 771.511 539.008C771.079 539.728 770.415 540.296 769.519 540.712C768.623 541.112 767.479 541.312 766.087 541.312C764.231 541.312 762.807 540.936 761.815 540.184C760.823 539.432 760.263 538.416 760.135 537.136H761.623C761.719 537.904 761.967 538.496 762.367 538.912C762.767 539.328 763.279 539.624 763.903 539.8C764.543 539.96 765.271 540.04 766.087 540.04C767.559 540.04 768.695 539.76 769.495 539.2C770.311 538.624 770.719 537.736 770.719 536.536C770.719 535.816 770.543 535.248 770.191 534.832C769.855 534.416 769.399 534.088 768.823 533.848C768.263 533.608 767.655 533.4 766.999 533.224L764.695 532.6C763.383 532.232 762.367 531.72 761.647 531.064C760.943 530.408 760.591 529.504 760.591 528.352C760.591 527.408 760.815 526.6 761.263 525.928C761.727 525.24 762.375 524.712 763.207 524.344C764.055 523.976 765.055 523.792 766.207 523.792C767.327 523.792 768.287 523.96 769.087 524.296C769.903 524.616 770.543 525.072 771.007 525.664C771.487 526.24 771.759 526.92 771.823 527.704H770.383ZM429.82 553.032H442.348V554.28H436.804V570H435.364V554.28H429.82V553.032ZM456.538 561.504C456.538 564.304 455.93 566.464 454.714 567.984C453.514 569.488 451.746 570.24 449.41 570.24C447.074 570.24 445.298 569.488 444.082 567.984C442.882 566.464 442.282 564.304 442.282 561.504C442.282 558.704 442.882 556.552 444.082 555.048C445.298 553.544 447.074 552.792 449.41 552.792C451.746 552.792 453.514 553.544 454.714 555.048C455.93 556.552 456.538 558.704 456.538 561.504ZM455.098 561.504C455.098 558.96 454.626 557.088 453.682 555.888C452.754 554.688 451.33 554.088 449.41 554.088C447.49 554.088 446.058 554.688 445.114 555.888C444.186 557.088 443.722 558.96 443.722 561.504C443.722 564.048 444.186 565.928 445.114 567.144C446.058 568.344 447.49 568.944 449.41 568.944C451.33 568.944 452.754 568.344 453.682 567.144C454.626 565.928 455.098 564.048 455.098 561.504ZM462.635 553.032H475.163V554.28H469.619V570H468.179V554.28H462.635V553.032ZM476.403 553.032H477.843V560.88H487.323V553.032H488.763V570H487.323V562.128H477.843V570H476.403V553.032ZM492.037 553.032H501.589V554.28H493.477V560.88H501.037V562.128H493.477V568.752H501.709V570H492.037V553.032ZM509.406 553.032H510.846V560.88H520.326V553.032H521.766V570H520.326V562.128H510.846V570H509.406V553.032ZM528.847 570H527.407V553.032H528.847V570ZM524.791 554.28V553.032H531.439V554.28H524.791ZM524.791 570V568.752H531.439V570H524.791ZM545.943 562.8H541.119V561.552H547.383V563.472C547.383 564.672 547.143 565.792 546.663 566.832C546.199 567.856 545.471 568.68 544.479 569.304C543.503 569.928 542.239 570.24 540.687 570.24C538.367 570.24 536.567 569.488 535.287 567.984C534.023 566.464 533.391 564.304 533.391 561.504C533.391 558.704 534.023 556.552 535.287 555.048C536.567 553.544 538.367 552.792 540.687 552.792C541.791 552.792 542.791 552.984 543.687 553.368C544.583 553.736 545.335 554.296 545.943 555.048C546.551 555.8 546.967 556.76 547.191 557.928H545.703C545.447 556.552 544.879 555.568 543.999 554.976C543.135 554.384 542.031 554.088 540.687 554.088C538.799 554.088 537.351 554.68 536.343 555.864C535.335 557.048 534.831 558.928 534.831 561.504C534.831 564.064 535.335 565.944 536.343 567.144C537.351 568.344 538.799 568.944 540.687 568.944C541.663 568.944 542.471 568.808 543.111 568.536C543.751 568.248 544.263 567.872 544.647 567.408C545.031 566.944 545.311 566.44 545.487 565.896C545.679 565.352 545.799 564.808 545.847 564.264C545.911 563.72 545.943 563.232 545.943 562.8ZM549.862 553.032H551.302V560.88H560.782V553.032H562.222V570H560.782V562.128H551.302V570H549.862V553.032ZM565.495 553.032H575.047V554.28H566.935V560.88H574.495V562.128H566.935V568.752H575.167V570H565.495V553.032ZM586.9 556.704C586.772 555.712 586.332 555.024 585.58 554.64C584.844 554.256 583.868 554.064 582.652 554.064C581.26 554.064 580.228 554.336 579.556 554.88C578.884 555.408 578.548 556.192 578.548 557.232C578.548 557.84 578.66 558.336 578.884 558.72C579.124 559.104 579.428 559.416 579.796 559.656C580.164 559.88 580.556 560.064 580.972 560.208C581.388 560.336 581.772 560.448 582.124 560.544L583.972 561.048C584.436 561.176 584.94 561.336 585.484 561.528C586.028 561.72 586.54 561.984 587.02 562.32C587.516 562.656 587.916 563.088 588.22 563.616C588.524 564.144 588.676 564.8 588.676 565.584C588.676 566.48 588.46 567.288 588.028 568.008C587.596 568.728 586.932 569.296 586.036 569.712C585.14 570.112 583.996 570.312 582.604 570.312C580.748 570.312 579.324 569.936 578.332 569.184C577.34 568.432 576.78 567.416 576.652 566.136H578.14C578.236 566.904 578.484 567.496 578.884 567.912C579.284 568.328 579.796 568.624 580.42 568.8C581.06 568.96 581.788 569.04 582.604 569.04C584.076 569.04 585.212 568.76 586.012 568.2C586.828 567.624 587.236 566.736 587.236 565.536C587.236 564.816 587.06 564.248 586.708 563.832C586.372 563.416 585.916 563.088 585.34 562.848C584.78 562.608 584.172 562.4 583.516 562.224L581.212 561.6C579.9 561.232 578.884 560.72 578.164 560.064C577.46 559.408 577.108 558.504 577.108 557.352C577.108 556.408 577.332 555.6 577.78 554.928C578.244 554.24 578.892 553.712 579.724 553.344C580.572 552.976 581.572 552.792 582.724 552.792C583.844 552.792 584.804 552.96 585.604 553.296C586.42 553.616 587.06 554.072 587.524 554.664C588.004 555.24 588.276 555.92 588.34 556.704H586.9ZM588.457 553.032H600.985V554.28H595.441V570H594.001V554.28H588.457V553.032ZM607.804 553.032H617.476V554.28H609.244V560.88H616.684V562.128H609.244V570H607.804V553.032ZM632.872 561.504C632.872 564.304 632.264 566.464 631.048 567.984C629.848 569.488 628.08 570.24 625.744 570.24C623.408 570.24 621.632 569.488 620.416 567.984C619.216 566.464 618.616 564.304 618.616 561.504C618.616 558.704 619.216 556.552 620.416 555.048C621.632 553.544 623.408 552.792 625.744 552.792C628.08 552.792 629.848 553.544 631.048 555.048C632.264 556.552 632.872 558.704 632.872 561.504ZM631.432 561.504C631.432 558.96 630.96 557.088 630.016 555.888C629.088 554.688 627.664 554.088 625.744 554.088C623.824 554.088 622.392 554.688 621.448 555.888C620.52 557.088 620.056 558.96 620.056 561.504C620.056 564.048 620.52 565.928 621.448 567.144C622.392 568.344 623.824 568.944 625.744 568.944C627.664 568.944 629.088 568.344 630.016 567.144C630.96 565.928 631.432 564.048 631.432 561.504ZM642.855 562.224L647.271 570H645.663L641.415 562.488L642.855 562.224ZM640.983 561.768C642.119 561.768 642.999 561.624 643.623 561.336C644.247 561.048 644.687 560.624 644.943 560.064C645.199 559.504 645.327 558.816 645.327 558C645.327 557.168 645.199 556.48 644.943 555.936C644.687 555.392 644.247 554.984 643.623 554.712C642.999 554.424 642.119 554.28 640.983 554.28H636.855V561.768H640.983ZM641.103 563.016H636.855V570H635.415V553.032H641.079C642.455 553.032 643.559 553.232 644.391 553.632C645.223 554.016 645.823 554.576 646.191 555.312C646.575 556.048 646.767 556.944 646.767 558C646.767 558.832 646.679 559.56 646.503 560.184C646.327 560.808 646.023 561.336 645.591 561.768C645.159 562.184 644.575 562.496 643.839 562.704C643.119 562.912 642.207 563.016 641.103 563.016ZM650.826 553.032L657.066 567.576H657.234L663.474 553.032H664.914V570H663.522V556.464H663.402L657.522 570H656.706L650.826 556.464H650.73V570H649.338V553.032H650.826ZM686.665 561.504C686.665 564.304 686.057 566.464 684.841 567.984C683.641 569.488 681.873 570.24 679.537 570.24C677.201 570.24 675.425 569.488 674.209 567.984C673.009 566.464 672.409 564.304 672.409 561.504C672.409 558.704 673.009 556.552 674.209 555.048C675.425 553.544 677.201 552.792 679.537 552.792C681.873 552.792 683.641 553.544 684.841 555.048C686.057 556.552 686.665 558.704 686.665 561.504ZM685.225 561.504C685.225 558.96 684.753 557.088 683.809 555.888C682.881 554.688 681.457 554.088 679.537 554.088C677.617 554.088 676.185 554.688 675.241 555.888C674.313 557.088 673.849 558.96 673.849 561.504C673.849 564.048 674.313 565.928 675.241 567.144C676.185 568.344 677.617 568.944 679.537 568.944C681.457 568.944 682.881 568.344 683.809 567.144C684.753 565.928 685.225 564.048 685.225 561.504ZM689.208 553.032H698.88V554.28H690.648V560.88H698.088V562.128H690.648V570H689.208V553.032ZM717.409 557.952C717.201 556.656 716.681 555.688 715.849 555.048C715.033 554.408 713.945 554.088 712.585 554.088C710.793 554.088 709.401 554.696 708.409 555.912C707.433 557.128 706.945 558.984 706.945 561.48C706.945 563.992 707.433 565.864 708.409 567.096C709.401 568.312 710.793 568.92 712.585 568.92C713.945 568.92 715.033 568.6 715.849 567.96C716.681 567.32 717.209 566.36 717.433 565.08H718.945C718.673 566.76 718.001 568.04 716.929 568.92C715.857 569.8 714.409 570.24 712.585 570.24C710.217 570.24 708.441 569.48 707.257 567.96C706.089 566.424 705.505 564.264 705.505 561.48C705.505 558.712 706.089 556.576 707.257 555.072C708.441 553.552 710.217 552.792 712.585 552.792C713.721 552.792 714.729 552.984 715.609 553.368C716.505 553.752 717.233 554.328 717.793 555.096C718.369 555.864 718.745 556.816 718.921 557.952H717.409ZM728.877 562.224L733.293 570H731.685L727.437 562.488L728.877 562.224ZM727.005 561.768C728.141 561.768 729.021 561.624 729.645 561.336C730.269 561.048 730.709 560.624 730.965 560.064C731.221 559.504 731.349 558.816 731.349 558C731.349 557.168 731.221 556.48 730.965 555.936C730.709 555.392 730.269 554.984 729.645 554.712C729.021 554.424 728.141 554.28 727.005 554.28H722.877V561.768H727.005ZM727.125 563.016H722.877V570H721.437V553.032H727.101C728.477 553.032 729.581 553.232 730.413 553.632C731.245 554.016 731.845 554.576 732.213 555.312C732.597 556.048 732.789 556.944 732.789 558C732.789 558.832 732.701 559.56 732.525 560.184C732.349 560.808 732.045 561.336 731.613 561.768C731.181 562.184 730.597 562.496 729.861 562.704C729.141 562.912 728.229 563.016 727.125 563.016ZM740.736 554.88H740.64L735.312 570H733.848L739.92 553.032H741.552L747.6 570H746.064L740.736 554.88ZM744.6 564.912H736.848V563.664H744.6V564.912ZM749.353 553.032H759.025V554.28H750.793V560.88H758.233V562.128H750.793V570H749.353V553.032ZM759.751 553.032H772.279V554.28H766.735V570H765.295V554.28H759.751V553.032Z" fill="#FFFAEE"/>
<rect x="680.325" y="676.325" width="94.3493" height="30.5822" rx="15.2911" stroke="#FFFAEE" stroke-width="0.650685"/>
<path d="M493.419 399.714C493.324 399.714 493.238 399.685 493.161 399.628C493.085 399.57 493.047 399.446 493.047 399.255L492.76 381.782C492.76 381.648 492.713 381.581 492.617 381.581C492.541 381.581 492.483 381.638 492.445 381.753L488.234 397.537C488.101 398.071 488.091 398.482 488.206 398.768C488.339 399.036 488.635 399.207 489.094 399.284L489.437 399.341C489.667 399.36 489.781 399.465 489.781 399.656C489.781 399.885 489.6 400 489.237 400H485.198C484.911 400 484.768 399.905 484.768 399.714C484.768 399.503 484.921 399.379 485.227 399.341L485.628 399.284C486.143 399.207 486.525 399.036 486.773 398.768C487.022 398.482 487.213 398.071 487.346 397.537L491.672 381.266C491.767 380.865 491.767 380.598 491.672 380.464C491.576 380.33 491.318 380.225 490.898 380.149L490.411 380.063C490.106 380.006 489.953 379.882 489.953 379.691C489.953 379.481 490.125 379.375 490.469 379.375H493.906C494.46 379.375 494.737 379.662 494.737 380.235L494.909 394.471C494.909 394.605 494.947 394.682 495.023 394.701C495.119 394.701 495.195 394.643 495.252 394.529L502.185 380.092C502.414 379.614 502.777 379.375 503.273 379.375H506.739C506.968 379.375 507.083 379.471 507.083 379.662C507.083 379.853 506.921 379.977 506.596 380.034L505.908 380.149C505.488 380.225 505.202 380.33 505.049 380.464C504.896 380.598 504.772 380.865 504.677 381.266L501.354 398.109C501.277 398.51 501.277 398.778 501.354 398.911C501.449 399.045 501.688 399.15 502.07 399.227L502.557 399.313C502.748 399.332 502.872 399.379 502.929 399.456C502.987 399.513 503.015 399.58 503.015 399.656C503.015 399.885 502.843 400 502.5 400H497.401C497.133 400 497 399.905 497 399.714C497 399.523 497.153 399.398 497.458 399.341L498.146 399.227C498.566 399.15 498.852 399.045 499.005 398.911C499.177 398.778 499.301 398.51 499.377 398.109L502.614 381.868C502.652 381.734 502.624 381.658 502.528 381.638C502.433 381.6 502.356 381.638 502.299 381.753L493.935 399.255C493.858 399.446 493.772 399.57 493.677 399.628C493.601 399.685 493.515 399.714 493.419 399.714ZM511.323 399.714C511.228 399.714 511.142 399.685 511.066 399.628C510.989 399.57 510.951 399.446 510.951 399.255L510.665 381.782C510.665 381.648 510.617 381.581 510.521 381.581C510.445 381.581 510.388 381.638 510.35 381.753L506.139 397.537C506.005 398.071 505.995 398.482 506.11 398.768C506.244 399.036 506.54 399.207 506.998 399.284L507.342 399.341C507.571 399.36 507.686 399.465 507.686 399.656C507.686 399.885 507.504 400 507.141 400H503.102C502.816 400 502.673 399.905 502.673 399.714C502.673 399.503 502.825 399.379 503.131 399.341L503.532 399.284C504.048 399.207 504.43 399.036 504.678 398.768C504.926 398.482 505.117 398.071 505.251 397.537L509.576 381.266C509.672 380.865 509.672 380.598 509.576 380.464C509.481 380.33 509.223 380.225 508.803 380.149L508.316 380.063C508.01 380.006 507.857 379.882 507.857 379.691C507.857 379.481 508.029 379.375 508.373 379.375H511.81C512.364 379.375 512.641 379.662 512.641 380.235L512.813 394.471C512.813 394.605 512.851 394.682 512.928 394.701C513.023 394.701 513.099 394.643 513.157 394.529L520.089 380.092C520.318 379.614 520.681 379.375 521.177 379.375H524.643C524.873 379.375 524.987 379.471 524.987 379.662C524.987 379.853 524.825 379.977 524.5 380.034L523.813 380.149C523.393 380.225 523.106 380.33 522.953 380.464C522.801 380.598 522.676 380.865 522.581 381.266L519.258 398.109C519.182 398.51 519.182 398.778 519.258 398.911C519.354 399.045 519.592 399.15 519.974 399.227L520.461 399.313C520.652 399.332 520.776 399.379 520.834 399.456C520.891 399.513 520.92 399.58 520.92 399.656C520.92 399.885 520.748 400 520.404 400H515.305C515.038 400 514.904 399.905 514.904 399.714C514.904 399.523 515.057 399.398 515.362 399.341L516.05 399.227C516.47 399.15 516.756 399.045 516.909 398.911C517.081 398.778 517.205 398.51 517.282 398.109L520.519 381.868C520.557 381.734 520.528 381.658 520.433 381.638C520.337 381.6 520.261 381.638 520.203 381.753L511.839 399.255C511.763 399.446 511.677 399.57 511.581 399.628C511.505 399.685 511.419 399.714 511.323 399.714ZM520.256 400C520.084 400 519.97 399.971 519.912 399.914C519.855 399.838 519.826 399.761 519.826 399.685C519.826 399.475 519.998 399.341 520.342 399.284L520.8 399.198C521.45 399.083 521.984 398.902 522.404 398.654C522.825 398.386 523.216 397.966 523.579 397.393L528.019 390.576C528.172 390.347 528.286 390.127 528.363 389.917C528.439 389.688 528.439 389.392 528.363 389.029L526.701 381.295C526.625 380.855 526.491 380.559 526.3 380.407C526.109 380.254 525.89 380.158 525.641 380.12L525.126 380.034C524.82 379.977 524.696 379.853 524.753 379.662C524.792 379.471 524.973 379.375 525.298 379.375H530.253C530.597 379.375 530.75 379.471 530.712 379.662C530.654 379.853 530.463 379.977 530.139 380.034L529.566 380.12C529.222 380.178 528.974 380.292 528.821 380.464C528.668 380.636 528.63 380.913 528.706 381.295L530.081 387.539C530.1 387.616 530.139 387.663 530.196 387.683C530.272 387.702 530.349 387.663 530.425 387.568L534.349 381.581C534.617 381.161 534.75 380.855 534.75 380.665C534.77 380.454 534.607 380.311 534.264 380.235L533.519 380.063C533.194 379.987 533.06 379.853 533.118 379.662C533.156 379.471 533.347 379.375 533.691 379.375H538.131C538.493 379.375 538.637 379.49 538.56 379.719C538.522 379.91 538.35 380.034 538.045 380.092L537.586 380.178C537.09 380.273 536.641 380.454 536.24 380.722C535.858 380.989 535.476 381.409 535.094 381.982L530.912 388.341C530.74 388.59 530.626 388.847 530.568 389.115C530.511 389.363 530.53 389.707 530.626 390.146L532.344 398.081C532.44 398.539 532.583 398.835 532.774 398.969C532.984 399.102 533.194 399.188 533.404 399.227L533.948 399.313C534.197 399.332 534.321 399.446 534.321 399.656C534.321 399.885 534.13 400 533.748 400H528.735C528.449 400 528.305 399.895 528.305 399.685C528.305 399.494 528.487 399.37 528.85 399.313L529.422 399.227C529.766 399.169 530.024 399.055 530.196 398.883C530.368 398.711 530.416 398.444 530.339 398.081L528.878 391.378C528.859 391.263 528.811 391.206 528.735 391.206C528.659 391.187 528.582 391.225 528.506 391.321L524.352 397.794C524.085 398.214 523.942 398.53 523.923 398.74C523.923 398.931 524.094 399.064 524.438 399.141L525.212 399.313C525.46 399.37 525.584 399.484 525.584 399.656C525.584 399.885 525.403 400 525.04 400H520.256ZM532.426 400C532.254 400 532.139 399.971 532.082 399.914C532.025 399.838 531.996 399.761 531.996 399.685C531.996 399.475 532.168 399.341 532.512 399.284L532.97 399.198C533.619 399.083 534.154 398.902 534.574 398.654C534.994 398.386 535.386 397.966 535.749 397.393L540.189 390.576C540.341 390.347 540.456 390.127 540.532 389.917C540.609 389.688 540.609 389.392 540.532 389.029L538.871 381.295C538.795 380.855 538.661 380.559 538.47 380.407C538.279 380.254 538.059 380.158 537.811 380.12L537.295 380.034C536.99 379.977 536.866 379.853 536.923 379.662C536.961 379.471 537.143 379.375 537.467 379.375H542.423C542.767 379.375 542.919 379.471 542.881 379.662C542.824 379.853 542.633 379.977 542.308 380.034L541.735 380.12C541.392 380.178 541.143 380.292 540.991 380.464C540.838 380.636 540.8 380.913 540.876 381.295L542.251 387.539C542.27 387.616 542.308 387.663 542.366 387.683C542.442 387.702 542.518 387.663 542.595 387.568L546.519 381.581C546.787 381.161 546.92 380.855 546.92 380.665C546.939 380.454 546.777 380.311 546.433 380.235L545.688 380.063C545.364 379.987 545.23 379.853 545.287 379.662C545.326 379.471 545.517 379.375 545.86 379.375H550.3C550.663 379.375 550.806 379.49 550.73 379.719C550.692 379.91 550.52 380.034 550.214 380.092L549.756 380.178C549.26 380.273 548.811 380.454 548.41 380.722C548.028 380.989 547.646 381.409 547.264 381.982L543.082 388.341C542.91 388.59 542.795 388.847 542.738 389.115C542.681 389.363 542.7 389.707 542.795 390.146L544.514 398.081C544.609 398.539 544.753 398.835 544.944 398.969C545.154 399.102 545.364 399.188 545.574 399.227L546.118 399.313C546.366 399.332 546.491 399.446 546.491 399.656C546.491 399.885 546.3 400 545.918 400H540.905C540.618 400 540.475 399.895 540.475 399.685C540.475 399.494 540.656 399.37 541.019 399.313L541.592 399.227C541.936 399.169 542.194 399.055 542.366 398.883C542.537 398.711 542.585 398.444 542.509 398.081L541.048 391.378C541.029 391.263 540.981 391.206 540.905 391.206C540.828 391.187 540.752 391.225 540.676 391.321L536.522 397.794C536.255 398.214 536.111 398.53 536.092 398.74C536.092 398.931 536.264 399.064 536.608 399.141L537.381 399.313C537.63 399.37 537.754 399.484 537.754 399.656C537.754 399.885 537.572 400 537.209 400H532.426ZM550.933 400.286C550.856 400.286 550.78 400.258 550.703 400.201C550.627 400.143 550.589 400.019 550.589 399.828L550.274 381.667C550.255 381.132 550.188 380.76 550.073 380.55C549.959 380.34 549.72 380.197 549.357 380.12L548.985 380.034C548.756 379.977 548.641 379.862 548.641 379.691C548.641 379.481 548.803 379.375 549.128 379.375H553.854C554.103 379.375 554.227 379.471 554.227 379.662C554.227 379.872 554.036 379.996 553.654 380.034L553.081 380.092C552.756 380.111 552.527 380.216 552.393 380.407C552.279 380.579 552.222 380.875 552.222 381.295L552.365 394.844C552.365 395.035 552.422 395.14 552.537 395.159C552.651 395.178 552.747 395.111 552.823 394.958L559.096 381.896C559.631 380.808 559.459 380.206 558.581 380.092L558.18 380.034C557.893 379.977 557.75 379.862 557.75 379.691C557.75 379.481 557.912 379.375 558.237 379.375H562.391C562.62 379.375 562.734 379.471 562.734 379.662C562.734 379.834 562.582 379.958 562.276 380.034L561.818 380.12C561.436 380.197 561.111 380.388 560.844 380.693C560.576 380.98 560.309 381.39 560.042 381.925L551.477 399.828C551.4 400.019 551.305 400.143 551.19 400.201C551.095 400.258 551.009 400.286 550.933 400.286ZM557.128 400C556.861 400 556.727 399.905 556.727 399.714C556.727 399.503 556.918 399.37 557.3 399.313L557.873 399.227C558.293 399.169 558.58 399.074 558.732 398.94C558.904 398.787 559.028 398.51 559.105 398.109L563 381.266C563.096 380.865 563.096 380.598 563 380.464C562.905 380.33 562.666 380.225 562.284 380.149L561.711 380.034C561.463 379.977 561.339 379.872 561.339 379.719C561.339 379.49 561.511 379.375 561.855 379.375H566.953C567.221 379.375 567.354 379.471 567.354 379.662C567.354 379.872 567.164 380.006 566.782 380.063L566.209 380.149C565.789 380.206 565.502 380.311 565.349 380.464C565.197 380.598 565.072 380.865 564.977 381.266L561.081 398.109C561.005 398.51 561.005 398.778 561.081 398.911C561.177 399.045 561.415 399.15 561.797 399.227L562.37 399.341C562.618 399.398 562.743 399.503 562.743 399.656C562.743 399.885 562.571 400 562.227 400H557.128Z" fill="#FFFAEE"/>
<path fill-rule="evenodd" clip-rule="evenodd" d="M558.677 635.362V641.183C558.039 641.244 557.392 641.278 556.728 641.278C545.894 641.278 537.053 632.451 537.053 621.635C537.053 610.818 545.894 602 556.728 602C557.384 602 558.039 602.034 558.677 602.095V607.916C558.039 607.822 557.392 607.778 556.728 607.778C549.077 607.778 542.84 614.013 542.84 621.635C542.84 629.256 549.086 635.491 556.728 635.491C557.384 635.491 558.039 635.439 558.677 635.353V635.362Z" fill="#FFFAEE"/>
<path fill-rule="evenodd" clip-rule="evenodd" d="M567.062 618.638H578.422V624.64H567.062C568.442 630.841 573.997 635.5 580.613 635.5C581.268 635.5 581.924 635.448 582.562 635.362V641.183C581.915 641.244 581.268 641.278 580.613 641.278C569.77 641.278 560.946 632.451 560.946 621.643C560.946 610.836 569.77 602 580.613 602C581.268 602 581.924 602.034 582.562 602.095V607.916C581.915 607.822 581.268 607.778 580.613 607.778C573.997 607.778 568.433 612.437 567.062 618.638Z" fill="#FFFAEE"/>
<path d="M461.639 602C450.81 602 442 610.81 442 621.639C442 632.468 450.81 641.278 461.639 641.278C472.468 641.278 481.278 632.468 481.278 621.639C481.278 610.81 472.468 602 461.639 602ZM479.486 621.639C479.486 631.482 471.482 639.486 461.639 639.486C451.796 639.486 443.791 631.482 443.791 621.639C443.791 611.796 451.796 603.791 461.639 603.791C471.482 603.791 479.486 611.796 479.486 621.639Z" fill="#FFFAEE"/>
<path d="M461.258 627.2V625.527L464.464 619.482C464.626 619.18 464.719 618.919 464.742 618.698C464.766 618.466 464.777 618.181 464.777 617.844C464.777 617.693 464.772 617.537 464.76 617.374C464.76 617.2 464.731 617.049 464.673 616.921C464.615 616.793 464.528 616.689 464.411 616.608C464.295 616.515 464.127 616.468 463.906 616.468C463.639 616.468 463.424 616.544 463.262 616.695C463.111 616.846 463.035 617.066 463.035 617.357V618.367H461.258V617.391C461.258 617.02 461.328 616.671 461.467 616.346C461.607 616.021 461.798 615.736 462.042 615.493C462.274 615.249 462.553 615.057 462.878 614.918C463.204 614.767 463.552 614.691 463.924 614.691C464.388 614.691 464.783 614.778 465.108 614.953C465.445 615.115 465.724 615.342 465.945 615.632C466.154 615.922 466.305 616.253 466.398 616.625C466.502 616.997 466.554 617.391 466.554 617.81C466.554 618.112 466.548 618.367 466.537 618.576C466.525 618.774 466.502 618.965 466.467 619.151C466.432 619.337 466.374 619.523 466.293 619.709C466.212 619.894 466.101 620.121 465.962 620.388L463.349 625.423H466.554V627.2H461.258ZM471.695 614.796L469.674 620.005L469.709 620.04C469.767 619.993 469.854 619.958 469.97 619.935C470.098 619.9 470.26 619.883 470.458 619.883C470.771 619.883 471.062 619.958 471.329 620.109C471.596 620.26 471.805 620.452 471.956 620.684C472.037 620.812 472.101 620.94 472.148 621.067C472.194 621.195 472.235 621.364 472.27 621.573C472.293 621.782 472.31 622.049 472.322 622.374C472.334 622.688 472.339 623.088 472.339 623.576C472.339 623.983 472.334 624.319 472.322 624.587C472.31 624.842 472.293 625.057 472.27 625.231C472.235 625.417 472.188 625.574 472.13 625.701C472.084 625.829 472.02 625.963 471.939 626.102C471.706 626.485 471.393 626.782 470.998 626.991C470.615 627.2 470.179 627.304 469.691 627.304C469.204 627.304 468.768 627.2 468.385 626.991C468.002 626.77 467.694 626.474 467.461 626.102C467.369 625.963 467.293 625.829 467.235 625.701C467.189 625.574 467.154 625.417 467.13 625.231C467.096 625.057 467.072 624.842 467.061 624.587C467.049 624.319 467.043 623.983 467.043 623.576C467.043 623.193 467.049 622.879 467.061 622.635C467.072 622.38 467.09 622.159 467.113 621.973C467.136 621.799 467.171 621.642 467.218 621.503C467.264 621.352 467.316 621.195 467.374 621.033L469.709 614.796H471.695ZM470.562 622.339C470.562 622.072 470.475 621.857 470.301 621.695C470.127 621.532 469.924 621.451 469.691 621.451C469.459 621.451 469.256 621.532 469.082 621.695C468.907 621.857 468.82 622.072 468.82 622.339V624.639C468.82 624.906 468.907 625.121 469.082 625.283C469.256 625.446 469.459 625.527 469.691 625.527C469.924 625.527 470.127 625.446 470.301 625.283C470.475 625.121 470.562 624.906 470.562 624.639V622.339Z" fill="#FFFAEE"/>
<path d="M643.137 602H672.92C675.538 602 677.668 604.13 677.668 606.748V636.53C677.668 639.148 675.538 641.278 672.92 641.278H643.137C640.519 641.278 638.39 639.148 638.39 636.53V606.748C638.39 604.13 640.52 602 643.137 602H643.137ZM672.92 604.69H643.137C642.003 604.69 641.079 605.613 641.079 606.748V615.858H660.81L652.54 608.173H656.493L666.203 617.201L657.609 625.193H674.978V606.748C674.978 605.613 674.055 604.69 672.92 604.69ZM643.137 638.589H672.92C674.055 638.589 674.978 637.665 674.978 636.531V627.882H657.463L665.734 635.568H661.78L652.07 626.54L660.664 618.548H641.079V636.53C641.079 637.665 642.002 638.588 643.137 638.588L643.137 638.589Z" fill="#FFFAEE"/>
<path d="M764.929 632.275C764.929 632.08 765.009 631.881 765.169 631.731C765.49 631.43 766.011 631.43 766.332 631.731L769.222 634.436C769.54 634.737 769.547 635.224 769.222 635.525C768.901 635.826 768.381 635.826 768.06 635.525L765.169 632.82C765.009 632.67 764.929 632.474 764.929 632.276L764.929 632.275Z" fill="#FFFAEE"/>
<path d="M766.464 626.733C766.464 626.634 766.483 626.535 766.525 626.441C766.698 626.047 767.18 625.858 767.598 626.02L773.025 628.114C773.449 628.277 773.645 628.734 773.475 629.119C773.301 629.513 772.819 629.703 772.402 629.541L766.975 627.446C766.657 627.323 766.464 627.037 766.464 626.733Z" fill="#FFFAEE"/>
<path d="M759.195 626.131C759.515 625.831 760.038 625.831 760.358 626.131L762.343 627.991C762.663 628.291 762.663 628.78 762.343 629.08C762.023 629.38 761.5 629.38 761.18 629.08L759.195 627.221C758.875 626.921 758.875 626.431 759.195 626.131Z" fill="#FFFAEE"/>
<path d="M769.63 621.639C769.63 621.215 769.999 620.869 770.452 620.869L774.537 620.869C774.99 620.869 775.359 621.215 775.359 621.639C775.359 622.063 774.99 622.409 774.537 622.409L770.452 622.409C769.999 622.409 769.63 622.063 769.63 621.639Z" fill="#FFFAEE"/>
<path d="M766.535 616.704C766.535 616.403 766.724 616.118 767.042 615.994L772.44 613.888C772.858 613.722 773.34 613.909 773.513 614.303C773.69 614.698 773.49 615.143 773.07 615.308L767.671 617.415C767.254 617.58 766.772 617.394 766.599 616.999C766.554 616.903 766.535 616.804 766.535 616.704Z" fill="#FFFAEE"/>
<path d="M764.929 611.002C764.929 610.804 765.009 610.608 765.17 610.458L768.06 607.753C768.381 607.452 768.901 607.452 769.222 607.753C769.543 608.054 769.54 608.544 769.222 608.842L766.332 611.547C766.011 611.848 765.491 611.848 765.17 611.547C765.009 611.397 764.929 611.198 764.929 611.003L764.929 611.002Z" fill="#FFFAEE"/>
<path d="M759.017 609.567C759.017 609.468 759.036 609.369 759.078 609.275L761.313 604.187C761.486 603.793 761.968 603.604 762.386 603.766C762.81 603.929 763.012 604.386 762.835 604.771L760.6 609.859C760.427 610.253 759.945 610.443 759.528 610.28C759.21 610.157 759.017 609.871 759.017 609.567Z" fill="#FFFAEE"/>
<path d="M759.195 616.059L761.18 614.2C761.501 613.9 762.023 613.9 762.343 614.2C762.663 614.5 762.663 614.989 762.343 615.289L760.358 617.149C760.038 617.449 759.515 617.449 759.195 617.149C758.875 616.848 758.875 616.359 759.195 616.059Z" fill="#FFFAEE"/>
<path d="M753.58 606.598L753.58 602.77C753.58 602.346 753.95 602 754.403 602C754.856 602 755.225 602.346 755.225 602.77L755.225 606.598C755.225 607.022 754.856 607.368 754.403 607.368C753.95 607.368 753.58 607.022 753.58 606.598Z" fill="#FFFAEE"/>
<path d="M746.063 604.443C746.063 604.142 746.252 603.856 746.57 603.733C746.987 603.568 747.469 603.754 747.643 604.149L749.891 609.207C750.071 609.592 749.868 610.049 749.447 610.212C749.03 610.377 748.548 610.19 748.375 609.796L746.127 604.738C746.082 604.642 746.063 604.542 746.063 604.443Z" fill="#FFFAEE"/>
<path d="M739.341 608.297C739.341 608.099 739.422 607.903 739.582 607.753C739.903 607.452 740.423 607.452 740.745 607.753L743.631 610.458C743.953 610.759 743.953 611.246 743.631 611.547C743.31 611.848 742.79 611.848 742.469 611.547L739.582 608.842C739.421 608.692 739.341 608.496 739.341 608.298L739.341 608.297Z" fill="#FFFAEE"/>
<path d="M735.266 614.451C735.266 614.352 735.285 614.252 735.327 614.159C735.501 613.765 735.982 613.575 736.4 613.738L741.827 615.832C742.251 615.994 742.447 616.458 742.277 616.837C742.103 617.231 741.621 617.421 741.204 617.258L735.777 615.164C735.459 615.041 735.266 614.755 735.266 614.451Z" fill="#FFFAEE"/>
<path d="M746.459 614.198C746.779 613.898 747.301 613.898 747.621 614.198L749.608 616.06C749.928 616.36 749.928 616.849 749.608 617.149C749.288 617.449 748.766 617.449 748.446 617.149L746.459 615.287C746.139 614.987 746.139 614.498 746.459 614.198Z" fill="#FFFAEE"/>
<path d="M733.442 621.639C733.442 621.215 733.812 620.869 734.265 620.869L738.349 620.869C738.802 620.869 739.172 621.215 739.172 621.639C739.172 622.063 738.802 622.409 738.349 622.409L734.265 622.409C733.812 622.409 733.442 622.063 733.442 621.639Z" fill="#FFFAEE"/>
<path d="M735.225 628.683C735.225 628.382 735.414 628.096 735.729 627.973L741.127 625.864C741.548 625.698 742.029 625.885 742.203 626.276C742.383 626.679 742.18 627.121 741.763 627.284L736.364 629.393C735.944 629.559 735.462 629.372 735.289 628.981C735.244 628.882 735.225 628.782 735.225 628.683L735.225 628.683Z" fill="#FFFAEE"/>
<path d="M743.071 621.096C743.221 620.955 743.425 620.87 743.652 620.87L748.684 620.87C749.138 620.87 749.506 621.215 749.506 621.64C749.506 622.066 749.138 622.41 748.684 622.41L743.652 622.41C743.198 622.41 742.831 622.066 742.831 621.64C742.831 621.427 742.921 621.236 743.071 621.095L743.071 621.096Z" fill="#FFFAEE"/>
<path d="M753.82 626.453C753.97 626.312 754.174 626.227 754.402 626.227C754.856 626.227 755.224 626.572 755.224 626.997L755.224 631.712C755.224 632.137 754.856 632.482 754.402 632.482C753.948 632.482 753.58 632.137 753.58 631.712L753.58 626.997C753.58 626.784 753.671 626.593 753.821 626.452L753.82 626.453Z" fill="#FFFAEE"/>
<path d="M759.539 621.096C759.689 620.955 759.893 620.87 760.12 620.87L765.152 620.87C765.606 620.87 765.974 621.215 765.974 621.64C765.974 622.066 765.606 622.41 765.152 622.41L760.12 622.41C759.666 622.41 759.298 622.066 759.298 621.64C759.298 621.427 759.389 621.236 759.539 621.095L759.539 621.096Z" fill="#FFFAEE"/>
<path d="M753.82 611.023C753.97 610.883 754.174 610.798 754.402 610.798C754.856 610.798 755.224 611.142 755.224 611.568L755.224 616.283C755.224 616.708 754.856 617.053 754.402 617.053C753.948 617.053 753.58 616.708 753.58 616.283L753.58 611.568C753.58 611.355 753.671 611.164 753.821 611.023L753.82 611.023Z" fill="#FFFAEE"/>
<path d="M739.341 634.98C739.341 634.782 739.422 634.586 739.582 634.436L742.469 631.731C742.79 631.43 743.31 631.43 743.631 631.731C743.953 632.032 743.953 632.519 743.631 632.82L740.745 635.525C740.423 635.826 739.903 635.826 739.582 635.525C739.421 635.375 739.341 635.179 739.341 634.981L739.341 634.98Z" fill="#FFFAEE"/>
<path d="M745.909 638.799C745.909 638.7 745.928 638.6 745.97 638.507L748.205 633.422C748.378 633.028 748.86 632.838 749.277 633.001C749.698 633.163 749.9 633.623 749.727 634.005L747.492 639.091C747.319 639.485 746.837 639.674 746.419 639.512C746.102 639.389 745.909 639.103 745.909 638.799Z" fill="#FFFAEE"/>
<path d="M746.461 627.991L748.446 626.131C748.766 625.831 749.288 625.831 749.608 626.131C749.928 626.431 749.928 626.921 749.608 627.221L747.624 629.08C747.303 629.38 746.781 629.38 746.461 629.08C746.141 628.78 746.141 628.291 746.461 627.991Z" fill="#FFFAEE"/>
<path d="M753.58 640.508L753.58 636.681C753.58 636.256 753.95 635.91 754.403 635.91C754.856 635.91 755.225 636.256 755.225 636.681L755.225 640.508C755.225 640.932 754.856 641.278 754.403 641.278C753.95 641.278 753.58 640.932 753.58 640.508Z" fill="#FFFAEE"/>
<path d="M758.847 633.78C758.847 633.479 759.037 633.193 759.354 633.07C759.772 632.904 760.254 633.091 760.427 633.485L762.675 638.543C762.852 638.937 762.656 639.386 762.232 639.548C761.814 639.714 761.332 639.527 761.159 639.133L758.911 634.075C758.866 633.978 758.847 633.879 758.847 633.78Z" fill="#FFFAEE"/>
<line x1="279" y1="419.5" x2="801" y2="419.5" stroke="#FFFAEE"/>
<line x1="279" y1="504.5" x2="801" y2="504.5" stroke="#FFFAEE"/>
<line x1="408" y1="587.5" x2="801" y2="587.5" stroke="#FFFAEE"/>
<line x1="408" y1="656.5" x2="801" y2="656.5" stroke="#FFFAEE"/>
<path d="M701.493 697.059C700.765 697.059 700.057 696.929 699.37 696.669C698.683 696.409 698.063 696.029 697.511 695.529C696.96 695.029 696.517 694.425 696.184 693.718C695.861 693.01 695.7 692.203 695.7 691.297C695.7 690.391 695.861 689.584 696.184 688.876C696.517 688.168 696.96 687.57 697.511 687.081C698.063 686.581 698.683 686.201 699.37 685.941C700.057 685.68 700.765 685.55 701.493 685.55C702.222 685.55 702.93 685.68 703.617 685.941C704.304 686.201 704.924 686.581 705.476 687.081C706.027 687.57 706.465 688.168 706.787 688.876C707.11 689.584 707.272 690.391 707.272 691.297C707.272 692.203 707.11 693.01 706.787 693.718C706.465 694.425 706.027 695.029 705.476 695.529C704.924 696.029 704.304 696.409 703.617 696.669C702.93 696.929 702.222 697.059 701.493 697.059ZM701.493 696.341C702.108 696.341 702.712 696.232 703.305 696.013C703.898 695.784 704.435 695.456 704.913 695.029C705.392 694.592 705.772 694.061 706.053 693.436C706.345 692.812 706.491 692.099 706.491 691.297C706.491 690.495 706.345 689.782 706.053 689.158C705.772 688.533 705.392 688.007 704.913 687.58C704.435 687.143 703.898 686.815 703.305 686.596C702.712 686.367 702.108 686.253 701.493 686.253C700.869 686.253 700.26 686.367 699.666 686.596C699.073 686.815 698.537 687.143 698.058 687.58C697.579 688.007 697.194 688.533 696.902 689.158C696.621 689.782 696.481 690.495 696.481 691.297C696.481 692.099 696.621 692.812 696.902 693.436C697.194 694.061 697.579 694.592 698.058 695.029C698.537 695.456 699.073 695.784 699.666 696.013C700.26 696.232 700.869 696.341 701.493 696.341ZM701.556 694.358C700.598 694.358 699.875 694.082 699.385 693.53C698.896 692.978 698.651 692.229 698.651 691.281C698.651 690.334 698.901 689.59 699.401 689.048C699.911 688.507 700.619 688.236 701.525 688.236C702.004 688.236 702.415 688.314 702.758 688.47C703.112 688.627 703.393 688.85 703.602 689.142C703.82 689.423 703.961 689.761 704.023 690.157H703.149C703.076 689.793 702.925 689.506 702.696 689.298C702.477 689.09 702.092 688.986 701.54 688.986C700.874 688.986 700.364 689.184 700.01 689.579C699.656 689.975 699.479 690.542 699.479 691.281C699.479 692.031 699.656 692.609 700.01 693.015C700.364 693.41 700.874 693.608 701.54 693.608C702.061 693.608 702.441 693.525 702.68 693.358C702.92 693.181 703.076 692.9 703.149 692.515H704.023C703.982 692.879 703.857 693.202 703.649 693.483C703.451 693.754 703.175 693.967 702.821 694.124C702.477 694.28 702.056 694.358 701.556 694.358ZM712.955 696.091L716.735 692.047C717.213 691.536 717.604 691.089 717.906 690.704C718.208 690.308 718.432 689.944 718.577 689.61C718.733 689.267 718.812 688.918 718.812 688.564C718.812 687.887 718.593 687.372 718.156 687.018C717.718 686.654 717.135 686.472 716.407 686.472C715.678 686.472 715.079 686.69 714.611 687.127C714.142 687.554 713.918 688.142 713.939 688.892H713.033C713.023 688.215 713.164 687.638 713.455 687.159C713.747 686.68 714.153 686.31 714.673 686.05C715.194 685.79 715.787 685.659 716.453 685.659C717.151 685.659 717.739 685.779 718.218 686.019C718.707 686.248 719.082 686.581 719.342 687.018C719.603 687.445 719.733 687.96 719.733 688.564C719.733 688.96 719.665 689.345 719.53 689.72C719.395 690.084 719.145 690.506 718.78 690.985C718.426 691.453 717.911 692.047 717.234 692.765L713.674 696.575L713.736 696.044H719.873V696.856H712.955V696.091ZM729.441 697.013C728.535 697.013 727.796 696.81 727.223 696.404C726.661 695.987 726.25 695.362 725.989 694.53C725.729 693.686 725.599 692.619 725.599 691.328C725.599 690.037 725.729 688.975 725.989 688.142C726.26 687.31 726.677 686.69 727.239 686.284C727.811 685.868 728.545 685.659 729.441 685.659C730.346 685.659 731.08 685.868 731.643 686.284C732.215 686.69 732.632 687.31 732.892 688.142C733.163 688.975 733.298 690.037 733.298 691.328C733.298 692.609 733.163 693.671 732.892 694.514C732.632 695.357 732.215 695.987 731.643 696.404C731.08 696.81 730.346 697.013 729.441 697.013ZM729.441 696.201C730.503 696.201 731.257 695.8 731.705 694.998C732.153 694.196 732.377 692.973 732.377 691.328C732.377 689.683 732.153 688.465 731.705 687.674C731.257 686.872 730.503 686.472 729.441 686.472C728.389 686.472 727.64 686.872 727.192 687.674C726.744 688.465 726.52 689.683 726.52 691.328C726.52 692.973 726.739 694.196 727.176 694.998C727.624 695.8 728.379 696.201 729.441 696.201ZM739.026 696.091L742.805 692.047C743.284 691.536 743.674 691.089 743.976 690.704C744.278 690.308 744.502 689.944 744.648 689.61C744.804 689.267 744.882 688.918 744.882 688.564C744.882 687.887 744.663 687.372 744.226 687.018C743.789 686.654 743.206 686.472 742.477 686.472C741.748 686.472 741.149 686.69 740.681 687.127C740.212 687.554 739.989 688.142 740.009 688.892H739.104C739.093 688.215 739.234 687.638 739.525 687.159C739.817 686.68 740.223 686.31 740.743 686.05C741.264 685.79 741.857 685.659 742.524 685.659C743.221 685.659 743.809 685.779 744.288 686.019C744.778 686.248 745.152 686.581 745.413 687.018C745.673 687.445 745.803 687.96 745.803 688.564C745.803 688.96 745.736 689.345 745.6 689.72C745.465 690.084 745.215 690.506 744.851 690.985C744.497 691.453 743.981 692.047 743.305 692.765L739.744 696.575L739.806 696.044H745.944V696.856H739.026V696.091ZM751.966 693.39C751.976 692.984 752.023 692.588 752.107 692.203C752.2 691.818 752.362 691.406 752.591 690.969C752.83 690.532 753.158 690.032 753.575 689.47L756.307 685.816H757.416L753.715 690.719L753.59 690.579C753.809 690.443 754.007 690.334 754.184 690.251C754.361 690.157 754.553 690.089 754.761 690.048C754.97 689.996 755.225 689.97 755.527 689.97C756.287 689.97 756.932 690.11 757.463 690.391C757.994 690.662 758.395 691.058 758.666 691.578C758.947 692.099 759.087 692.729 759.087 693.468C759.087 694.176 758.952 694.795 758.681 695.326C758.41 695.857 758.01 696.273 757.479 696.575C756.948 696.867 756.297 697.013 755.527 697.013C754.361 697.013 753.47 696.685 752.856 696.029C752.252 695.362 751.956 694.483 751.966 693.39ZM752.887 693.468C752.887 694.301 753.09 694.967 753.496 695.467C753.913 695.956 754.59 696.201 755.527 696.201C756.453 696.201 757.125 695.956 757.541 695.467C757.958 694.967 758.166 694.301 758.166 693.468C758.166 692.635 757.958 691.979 757.541 691.5C757.125 691.021 756.453 690.782 755.527 690.782C754.694 690.782 754.043 691.021 753.575 691.5C753.116 691.979 752.887 692.635 752.887 693.468Z" fill="#FFFAEE"/>
<path d="M305.389 458.493C303.501 458.493 302.03 457.979 300.975 456.949C299.921 455.894 299.394 454.509 299.394 452.792C299.394 451.149 300.08 449.371 301.454 447.459C302.851 445.521 304.764 443.695 307.192 441.978C309.619 440.262 312.39 438.876 315.505 437.822C316.682 437.429 318.055 437.111 319.624 436.865C321.194 436.596 322.8 436.399 324.443 436.277C326.11 436.154 327.618 436.093 328.967 436.093C330.806 436.093 332.67 436.215 334.558 436.461C336.471 436.681 337.991 436.914 339.119 437.16C340.492 437.405 341.951 437.589 343.496 437.711C345.041 437.834 346.169 437.895 346.88 437.895C348.695 437.895 350.485 437.589 352.25 436.976C354.016 436.363 355.598 435.566 356.995 434.585C358.393 433.604 359.435 432.574 360.122 431.495C360.293 431.201 360.428 431.029 360.526 430.98C360.649 430.907 360.747 430.87 360.821 430.87C361.09 430.87 361.225 430.992 361.225 431.238C361.225 431.581 360.821 432.267 360.011 433.297C358.785 434.744 357.118 436.044 355.009 437.196C352.925 438.324 350.583 439.219 347.984 439.881C345.384 440.544 342.711 440.875 339.965 440.875C338.763 440.875 337.402 440.789 335.882 440.617C334.362 440.421 332.437 440.078 330.107 439.587C328.096 439.195 326.245 438.913 324.553 438.741C322.861 438.57 321.439 438.484 320.286 438.484C318.079 438.484 315.811 438.937 313.481 439.845C311.176 440.752 309.031 441.941 307.045 443.413C305.083 444.859 303.489 446.429 302.263 448.121C301.037 449.813 300.424 451.456 300.424 453.05C300.424 454.202 300.804 455.208 301.564 456.066C302.324 456.9 303.477 457.316 305.021 457.316C306.419 457.316 307.964 456.765 309.656 455.661C311.348 454.533 312.991 453.148 314.585 451.505C316.179 449.837 317.54 448.158 318.668 446.466C319.796 444.749 320.507 443.29 320.801 442.088C320.899 441.647 320.973 441.39 321.022 441.316C321.095 441.218 321.169 441.169 321.243 441.169C321.512 441.169 321.647 441.475 321.647 442.088C321.647 444.124 321.132 446.122 320.102 448.084C319.097 450.021 317.773 451.775 316.13 453.344C314.511 454.913 312.758 456.164 310.87 457.096C308.982 458.028 307.155 458.493 305.389 458.493ZM285.527 487.074C283.859 487.074 282.302 486.828 280.855 486.338C279.409 485.847 278.231 485.149 277.324 484.241C276.441 483.309 276 482.206 276 480.931C276 479.827 276.38 479.043 277.14 478.577C277.925 478.086 278.697 477.841 279.458 477.841C279.85 477.841 280.255 477.976 280.671 478.246C281.088 478.515 281.297 478.945 281.297 479.533C281.297 479.999 281.088 480.428 280.671 480.821C280.279 481.188 279.801 481.372 279.237 481.372C278.918 481.372 278.599 481.348 278.281 481.299C277.986 481.25 277.717 481.152 277.471 481.004V481.225C277.471 482.868 278.268 484.082 279.862 484.867C281.481 485.651 283.467 486.044 285.821 486.044C289.524 486.044 293.374 484.695 297.371 481.998C301.392 479.276 305.156 475.156 308.663 469.639C309.742 467.971 310.968 466.255 312.341 464.489C313.714 462.723 315.223 460.872 316.865 458.935C319.685 455.698 322.346 452.915 324.847 450.585C327.373 448.256 329.519 446.466 331.284 445.215C333.05 443.964 334.178 443.339 334.668 443.339C335.012 443.339 335.183 443.449 335.183 443.67C335.183 443.94 334.938 444.222 334.448 444.516C333.148 445.374 332.032 446.171 331.1 446.907C330.193 447.643 329.298 448.538 328.415 449.592C327.532 450.622 326.515 451.983 325.362 453.675C324.21 455.342 322.751 457.549 320.985 460.296C316.718 466.892 312.55 472.152 308.479 476.076C304.408 479.999 300.448 482.819 296.598 484.536C292.773 486.228 289.082 487.074 285.527 487.074ZM321.282 487.221C318.879 487.221 317.163 486.595 316.133 485.345C315.103 484.094 314.563 482.562 314.514 480.747C314.49 479.423 314.76 477.951 315.324 476.333C315.888 474.715 316.476 473.476 317.089 472.618C318.904 470.092 320.865 468.032 322.974 466.439C325.083 464.845 327.143 463.68 329.154 462.944C331.189 462.184 332.979 461.804 334.524 461.804C336.02 461.804 337.062 462.049 337.651 462.54C338.264 463.03 338.582 463.594 338.607 464.232C338.681 465.188 338.166 466.304 337.062 467.579C335.983 468.829 334.083 470.19 331.361 471.662C328.639 473.133 324.838 474.678 319.958 476.296C319.1 477.669 318.524 478.859 318.229 479.864C317.935 480.845 317.788 481.728 317.788 482.513C317.788 483.665 318.168 484.56 318.928 485.198C319.713 485.835 320.633 486.154 321.687 486.154C323.992 486.154 326.15 485.725 328.161 484.867C330.196 483.984 332.047 482.88 333.715 481.556C335.407 480.232 336.89 478.896 338.166 477.547C339.441 476.174 340.483 474.984 341.292 473.979C342.101 472.949 342.641 472.311 342.911 472.066L343.683 472.692C343.315 473.01 342.69 473.709 341.807 474.788C340.949 475.867 339.845 477.105 338.497 478.503C337.172 479.901 335.64 481.262 333.899 482.586C332.158 483.91 330.221 485.014 328.087 485.897C325.978 486.779 323.71 487.221 321.282 487.221ZM320.804 475.009C325.561 473.341 329.313 471.625 332.06 469.859C334.806 468.069 336.179 466.365 336.179 464.747C336.179 463.373 335.542 462.687 334.267 462.687C332.624 462.687 330.846 463.569 328.933 465.335C327.02 467.101 324.789 469.663 322.239 473.023C321.699 473.709 321.221 474.371 320.804 475.009ZM359.981 487.074C358.632 487.074 357.455 486.816 356.449 486.301C355.469 485.786 354.978 485.1 354.978 484.241C354.978 483.579 355.125 482.807 355.42 481.924C355.714 481.017 356.413 479.778 357.516 478.209C358.644 476.64 360.41 474.506 362.813 471.809C364.75 469.626 366.086 467.934 366.822 466.733C367.558 465.531 367.926 464.636 367.926 464.048C367.926 463.704 367.803 463.398 367.558 463.128C367.313 462.858 366.847 462.723 366.16 462.723C365.67 462.723 365.008 462.883 364.174 463.202C363.365 463.52 362.396 464.06 361.268 464.82C359.331 466.144 356.952 468.192 354.132 470.963C351.312 473.709 348.075 477.326 344.422 481.814L341.001 486.301C340.363 486.179 339.652 486.117 338.867 486.117C337.985 486.117 337.249 486.166 336.66 486.264C336.096 486.338 335.667 486.411 335.373 486.485C338.119 482.513 340.412 479.227 342.251 476.627C344.09 474.003 345.562 471.907 346.665 470.337C347.793 468.768 348.627 467.579 349.166 466.77C349.73 465.936 350.111 465.347 350.307 465.004C350.503 464.636 350.613 464.342 350.638 464.121C350.687 463.41 350.417 463.055 349.829 463.055C349.485 463.055 348.946 463.398 348.21 464.084C347.474 464.771 346.641 465.629 345.709 466.659C344.802 467.689 343.907 468.756 343.024 469.859C342.141 470.938 341.369 471.882 340.706 472.692C340.535 472.79 340.314 472.728 340.044 472.508C339.897 472.287 339.86 472.14 339.934 472.066C340.645 471.306 341.442 470.362 342.325 469.234C343.232 468.081 344.176 466.941 345.157 465.813C346.138 464.661 347.143 463.704 348.173 462.944C349.203 462.184 350.196 461.804 351.153 461.804C351.864 461.804 352.563 461.963 353.249 462.282C353.96 462.576 354.255 463.3 354.132 464.452C354.108 464.845 353.985 465.347 353.764 465.96C353.544 466.549 353.102 467.309 352.44 468.241L344.716 478.981L344.9 479.386C348.725 475.07 351.913 471.686 354.463 469.234C357.038 466.757 359.208 464.93 360.974 463.753C362.151 462.969 363.181 462.454 364.063 462.209C364.971 461.939 365.804 461.804 366.565 461.804C368.159 461.804 369.274 462.196 369.912 462.981C370.574 463.741 370.893 464.587 370.868 465.519C370.844 466.5 370.513 467.677 369.875 469.05C369.262 470.399 368.195 472.091 366.675 474.126C365.179 476.137 363.07 478.626 360.348 481.593C359.098 482.917 358.338 483.775 358.068 484.168C357.823 484.536 357.7 484.879 357.7 485.198C357.7 485.443 357.945 485.651 358.436 485.823C358.951 485.97 359.588 486.044 360.348 486.044C361.844 486.044 363.377 485.615 364.946 484.756C366.516 483.898 368.036 482.831 369.507 481.556C371.003 480.257 372.364 478.932 373.59 477.584C374.816 476.235 375.834 475.046 376.643 474.016C377.477 472.986 378.016 472.336 378.262 472.066L379.034 472.692C378.74 473.01 378.163 473.697 377.305 474.751C376.471 475.806 375.417 477.032 374.142 478.43C372.867 479.803 371.457 481.152 369.912 482.476C368.367 483.8 366.749 484.903 365.057 485.786C363.365 486.644 361.673 487.074 359.981 487.074ZM414.94 458.493C413.052 458.493 411.58 457.979 410.526 456.949C409.471 455.894 408.944 454.509 408.944 452.792C408.944 451.149 409.631 449.371 411.004 447.459C412.402 445.521 414.314 443.695 416.742 441.978C419.17 440.262 421.941 438.876 425.055 437.822C426.232 437.429 427.605 437.111 429.175 436.865C430.744 436.596 432.35 436.399 433.993 436.277C435.661 436.154 437.169 436.093 438.517 436.093C440.356 436.093 442.22 436.215 444.108 436.461C446.021 436.681 447.541 436.914 448.669 437.16C450.043 437.405 451.502 437.589 453.046 437.711C454.591 437.834 455.719 437.895 456.43 437.895C458.245 437.895 460.035 437.589 461.801 436.976C463.566 436.363 465.148 435.566 466.546 434.585C467.943 433.604 468.986 432.574 469.672 431.495C469.844 431.201 469.979 431.029 470.077 430.98C470.199 430.907 470.298 430.87 470.371 430.87C470.641 430.87 470.776 430.992 470.776 431.238C470.776 431.581 470.371 432.267 469.562 433.297C468.336 434.744 466.668 436.044 464.559 437.196C462.475 438.324 460.133 439.219 457.534 439.881C454.935 440.544 452.262 440.875 449.515 440.875C448.314 440.875 446.953 440.789 445.432 440.617C443.912 440.421 441.987 440.078 439.658 439.587C437.647 439.195 435.795 438.913 434.103 438.741C432.411 438.57 430.989 438.484 429.837 438.484C427.63 438.484 425.361 438.937 423.032 439.845C420.727 440.752 418.581 441.941 416.595 443.413C414.633 444.859 413.039 446.429 411.813 448.121C410.587 449.813 409.974 451.456 409.974 453.05C409.974 454.202 410.354 455.208 411.114 456.066C411.874 456.9 413.027 457.316 414.572 457.316C415.97 457.316 417.514 456.765 419.206 455.661C420.898 454.533 422.541 453.148 424.135 451.505C425.729 449.837 427.09 448.158 428.218 446.466C429.346 444.749 430.057 443.29 430.352 442.088C430.45 441.647 430.523 441.39 430.572 441.316C430.646 441.218 430.719 441.169 430.793 441.169C431.063 441.169 431.198 441.475 431.198 442.088C431.198 444.124 430.683 446.122 429.653 448.084C428.647 450.021 427.323 451.775 425.68 453.344C424.062 454.913 422.308 456.164 420.42 457.096C418.532 458.028 416.705 458.493 414.94 458.493ZM395.077 487.074C393.41 487.074 391.852 486.828 390.406 486.338C388.959 485.847 387.782 485.149 386.875 484.241C385.992 483.309 385.55 482.206 385.55 480.931C385.55 479.827 385.93 479.043 386.691 478.577C387.475 478.086 388.248 477.841 389.008 477.841C389.4 477.841 389.805 477.976 390.222 478.246C390.639 478.515 390.847 478.945 390.847 479.533C390.847 479.999 390.639 480.428 390.222 480.821C389.829 481.188 389.351 481.372 388.787 481.372C388.468 481.372 388.15 481.348 387.831 481.299C387.537 481.25 387.267 481.152 387.022 481.004V481.225C387.022 482.868 387.819 484.082 389.413 484.867C391.031 485.651 393.017 486.044 395.371 486.044C399.074 486.044 402.924 484.695 406.921 481.998C410.943 479.276 414.707 475.156 418.213 469.639C419.292 467.971 420.518 466.255 421.892 464.489C423.265 462.723 424.773 460.872 426.416 458.935C429.236 455.698 431.896 452.915 434.398 450.585C436.923 448.256 439.069 446.466 440.835 445.215C442.6 443.964 443.728 443.339 444.219 443.339C444.562 443.339 444.734 443.449 444.734 443.67C444.734 443.94 444.488 444.222 443.998 444.516C442.698 445.374 441.583 446.171 440.651 446.907C439.743 447.643 438.848 448.538 437.966 449.592C437.083 450.622 436.065 451.983 434.913 453.675C433.76 455.342 432.301 457.549 430.536 460.296C426.269 466.892 422.1 472.152 418.029 476.076C413.959 479.999 409.999 482.819 406.149 484.536C402.323 486.228 398.633 487.074 395.077 487.074ZM447.569 487.074C446.441 487.074 445.337 486.816 444.258 486.301C443.204 485.786 442.677 485.1 442.677 484.241C442.677 483.579 442.824 482.807 443.118 481.924C443.437 481.017 444.148 479.778 445.252 478.209C446.355 476.64 448.108 474.506 450.511 471.809C452.449 469.626 453.785 467.934 454.521 466.733C455.256 465.531 455.624 464.636 455.624 464.048C455.624 463.704 455.502 463.398 455.256 463.128C455.036 462.858 454.582 462.723 453.895 462.723C453.331 462.723 452.559 462.883 451.578 463.202C450.622 463.52 449.567 464.06 448.415 464.82C446.478 466.144 444.074 468.192 441.205 470.963C438.336 473.709 435.1 477.326 431.495 481.814L428.111 486.301C427.718 486.228 427.351 486.179 427.007 486.154C426.664 486.129 426.321 486.117 425.977 486.117C425.095 486.117 424.359 486.166 423.77 486.264C423.157 486.338 422.716 486.411 422.446 486.485L463.165 428.332C463.483 428.356 463.9 428.393 464.415 428.442C464.955 428.491 465.715 428.503 466.696 428.479C466.892 428.479 467.125 428.467 467.395 428.442C467.664 428.393 467.959 428.356 468.277 428.332L431.789 478.981L431.973 479.386C435.725 475.07 438.913 471.686 441.536 469.234C444.16 466.757 446.343 464.93 448.084 463.753C449.31 462.969 450.438 462.454 451.468 462.209C452.522 461.939 453.442 461.804 454.226 461.804C455.82 461.804 456.948 462.196 457.61 462.981C458.297 463.741 458.616 464.587 458.567 465.519C458.518 466.5 458.187 467.677 457.574 469.05C456.961 470.399 455.894 472.091 454.374 474.126C452.878 476.137 450.757 478.626 448.01 481.593C446.784 482.917 446.036 483.775 445.766 484.168C445.521 484.536 445.399 484.879 445.399 485.198C445.399 485.443 445.668 485.651 446.208 485.823C446.747 485.97 447.348 486.044 448.01 486.044C449.555 486.044 451.112 485.615 452.682 484.756C454.276 483.898 455.808 482.819 457.279 481.519C458.751 480.22 460.087 478.896 461.289 477.547C462.49 476.198 463.496 475.021 464.305 474.016C465.139 472.986 465.678 472.336 465.923 472.066L466.733 472.692C466.414 473.01 465.825 473.709 464.967 474.788C464.133 475.843 463.079 477.069 461.804 478.466C460.529 479.84 459.119 481.188 457.574 482.513C456.029 483.812 454.398 484.903 452.682 485.786C450.99 486.644 449.285 487.074 447.569 487.074ZM465.08 487.074C463.02 487.074 461.5 486.608 460.519 485.676C459.538 484.719 458.987 483.555 458.864 482.181C458.79 480.514 459.134 478.724 459.894 476.811C460.679 474.899 461.525 473.292 462.432 471.993C463.633 470.301 465.093 468.682 466.809 467.137C468.526 465.568 470.401 464.293 472.437 463.312C474.497 462.307 476.605 461.804 478.763 461.804C480.063 461.804 481.179 462.147 482.111 462.834C483.067 463.496 483.594 464.563 483.692 466.034C483.815 468.118 483.41 470.313 482.478 472.618C481.547 474.899 480.284 477.02 478.69 478.981C478.861 479.693 479.413 480.048 480.345 480.048C481.252 480.048 482.245 479.693 483.324 478.981C484.403 478.246 485.446 477.387 486.451 476.407C487.481 475.426 488.364 474.518 489.099 473.685C489.835 472.851 490.325 472.311 490.571 472.066L491.38 472.692C490.914 473.133 490.252 473.82 489.394 474.751C488.535 475.659 487.579 476.603 486.525 477.584C485.495 478.54 484.428 479.361 483.324 480.048C482.245 480.735 481.228 481.078 480.271 481.078C479.094 481.078 478.297 480.71 477.881 479.975C476.066 482.034 474.018 483.739 471.738 485.087C469.482 486.411 467.263 487.074 465.08 487.074ZM466.037 485.97C466.895 485.97 467.888 485.725 469.016 485.234C470.144 484.744 471.272 484.094 472.4 483.285C474.288 481.936 475.992 480.355 477.513 478.54V478.393C477.513 476.873 477.905 475.671 478.69 474.788C479.499 473.881 480.284 473.305 481.044 473.059C482.245 470.558 482.785 468.314 482.662 466.328C482.589 465.127 482.27 464.293 481.706 463.827C481.167 463.361 480.566 463.128 479.904 463.128C478.481 463.128 476.728 463.974 474.644 465.666C472.584 467.334 470.279 469.749 467.729 472.912C465.914 475.193 464.639 477.118 463.903 478.687C463.192 480.257 462.886 481.617 462.984 482.77C462.984 483.432 463.204 484.131 463.646 484.867C464.112 485.602 464.909 485.97 466.037 485.97ZM485.792 487.074C484.198 487.074 483.058 486.681 482.371 485.897C481.684 485.112 481.329 484.266 481.304 483.359C481.206 481.544 481.893 479.57 483.364 477.437C484.811 475.303 486.895 472.643 489.617 469.455C490.574 468.327 491.567 467.113 492.597 465.813C493.651 464.514 494.742 463.251 495.87 462.025C496.704 462.172 497.685 462.245 498.813 462.245C499.156 462.245 499.634 462.233 500.247 462.209C500.86 462.184 501.265 462.159 501.461 462.135C499.377 464.366 497.293 466.721 495.208 469.197C493.124 471.674 491.26 473.918 489.617 475.928C489.078 476.591 488.379 477.424 487.521 478.43C486.662 479.411 485.902 480.465 485.24 481.593C484.603 482.696 484.296 483.775 484.321 484.83C484.321 485.173 484.443 485.48 484.688 485.749C484.934 486.019 485.399 486.154 486.086 486.154C486.577 486.154 487.337 485.995 488.367 485.676C489.421 485.357 490.537 484.818 491.714 484.057C493.357 482.954 495.22 481.446 497.305 479.533C499.389 477.596 501.657 475.107 504.11 472.066C504.649 471.404 505.09 470.865 505.434 470.448C505.777 470.031 506.096 469.651 506.39 469.308C507.248 468.253 508.18 467.125 509.186 465.924C510.191 464.722 511.282 463.422 512.459 462.025C513.244 462.098 513.796 462.159 514.114 462.209C514.433 462.233 514.862 462.245 515.402 462.245C516.554 462.245 517.437 462.209 518.05 462.135C516.603 463.704 514.948 465.605 513.085 467.836C511.245 470.068 509.419 472.311 507.604 474.567C505.789 476.799 504.195 478.761 502.822 480.453C501.645 481.826 500.897 482.77 500.578 483.285C500.284 483.775 500.137 484.254 500.137 484.719C500.162 485.014 500.26 485.308 500.431 485.602C500.627 485.897 501.167 486.044 502.05 486.044C503.349 486.044 504.759 485.615 506.28 484.756C507.825 483.898 509.345 482.831 510.841 481.556C512.361 480.257 513.771 478.932 515.071 477.584C516.395 476.235 517.511 475.046 518.418 474.016C519.325 472.986 519.914 472.336 520.184 472.066L520.919 472.692C520.625 473.01 520 473.697 519.043 474.751C518.111 475.806 516.959 477.032 515.586 478.43C514.213 479.803 512.729 481.152 511.135 482.476C509.566 483.8 507.972 484.903 506.353 485.786C504.735 486.644 503.215 487.074 501.792 487.074C500.811 487.074 499.99 486.804 499.328 486.264C498.666 485.7 498.322 484.928 498.298 483.947C498.273 483.064 498.396 482.145 498.666 481.188C498.96 480.232 499.45 479.153 500.137 477.951C497.072 481.262 494.325 483.653 491.898 485.124C490.647 485.884 489.507 486.399 488.477 486.669C487.447 486.939 486.552 487.074 485.792 487.074ZM515.111 487.846C514.35 487.846 513.369 487.748 512.168 487.552C510.966 487.356 509.9 486.939 508.968 486.301C508.011 485.664 507.533 484.67 507.533 483.322C507.533 482.096 507.913 481.09 508.674 480.306C509.409 479.496 510.231 478.896 511.138 478.503C512.045 478.111 512.72 477.915 513.161 477.915C514.166 477.915 514.669 478.381 514.669 479.312C514.645 479.705 514.363 480.073 513.823 480.416C513.308 480.735 512.732 480.894 512.094 480.894C511.8 480.894 511.518 480.796 511.248 480.6C510.954 480.379 510.721 480.22 510.549 480.122C510.28 480.391 509.875 480.796 509.336 481.335C508.772 481.85 508.49 482.525 508.49 483.359C508.49 484.29 508.87 484.989 509.63 485.455C510.366 485.897 511.199 486.191 512.131 486.338C513.063 486.461 513.774 486.522 514.265 486.522C515.294 486.522 516.582 486.117 518.127 485.308C519.672 484.474 521.106 483.089 522.43 481.152C523.779 479.214 524.649 476.578 525.042 473.243C525.164 472.066 525.275 470.436 525.373 468.351C525.495 466.267 525.888 464.268 526.55 462.356C526.574 462.282 526.587 462.172 526.587 462.025C525.655 463.177 524.649 464.415 523.571 465.74C522.492 467.064 521.449 468.339 520.444 469.565C519.463 470.791 518.617 471.833 517.906 472.692C517.416 473.28 517.06 473.66 516.839 473.832C516.619 474.003 516.521 474.089 516.545 474.089C516.521 474.089 516.422 474.102 516.251 474.126C516.104 474.126 515.981 474.04 515.883 473.869C515.834 473.746 515.944 473.513 516.214 473.17C516.508 472.826 516.815 472.459 517.134 472.066C517.698 471.429 518.568 470.411 519.745 469.013C520.922 467.616 522.161 466.12 523.46 464.526C524.784 462.932 525.925 461.522 526.881 460.296C527.028 459.56 527.249 458.898 527.543 458.31C527.837 457.721 528.254 457.427 528.794 457.427C529.775 457.427 530.265 457.831 530.265 458.641C530.24 459.107 529.676 459.977 528.573 461.252C527.911 462.037 527.555 462.552 527.506 462.797C527.457 463.018 527.433 463.312 527.433 463.68C527.408 464.563 527.494 465.666 527.69 466.99C527.911 468.29 528.144 469.663 528.389 471.11C528.634 472.532 528.794 473.893 528.867 475.193C528.941 477.13 528.72 478.81 528.205 480.232C528.597 480.281 528.929 480.306 529.198 480.306C529.983 480.306 530.878 479.95 531.883 479.239C532.913 478.528 533.931 477.682 534.936 476.701C535.942 475.72 536.812 474.788 537.548 473.905C538.308 473.023 538.811 472.41 539.056 472.066L539.865 472.692C539.448 473.133 538.835 473.82 538.026 474.751C537.217 475.659 536.297 476.615 535.267 477.62C534.237 478.601 533.183 479.447 532.104 480.158C531.05 480.845 530.044 481.188 529.088 481.188C528.867 481.188 528.659 481.188 528.463 481.188C528.266 481.164 528.07 481.139 527.874 481.115C526.722 483.665 525.017 485.431 522.761 486.411C520.505 487.368 517.955 487.846 515.111 487.846ZM535.748 487.074C534.179 487.074 533.027 486.644 532.291 485.786C531.58 484.928 531.224 483.751 531.224 482.255C531.224 480.612 531.568 478.859 532.254 476.995C532.965 475.131 534.13 473.28 535.748 471.441C539.059 467.591 542.149 465.029 545.018 463.753C547.911 462.454 550.621 461.804 553.147 461.804C554.422 461.804 555.501 462.074 556.384 462.613C557.266 463.153 557.708 463.888 557.708 464.82C557.708 465.531 557.561 466.255 557.266 466.99C558.051 466.058 558.713 465.249 559.253 464.563C559.817 463.851 560.356 463.177 560.871 462.54C561.509 462.736 562.244 462.834 563.078 462.834C563.421 462.834 563.887 462.822 564.476 462.797C565.064 462.773 565.518 462.736 565.837 462.687L553.441 477.62C551.872 479.484 550.744 481.004 550.057 482.181C549.37 483.334 549.027 484.229 549.027 484.867C549.027 485.651 549.407 486.044 550.167 486.044C551.491 486.044 552.865 485.664 554.287 484.903C555.709 484.119 557.107 483.126 558.48 481.924C559.853 480.698 561.141 479.435 562.342 478.135C563.544 476.811 564.598 475.597 565.506 474.494C566.437 473.366 567.149 472.532 567.639 471.993L568.375 472.618C567.835 473.231 567.075 474.114 566.094 475.266C565.113 476.419 563.985 477.669 562.71 479.018C561.46 480.367 560.099 481.654 558.627 482.88C557.18 484.106 555.685 485.112 554.14 485.897C552.619 486.681 551.111 487.074 549.616 487.074C547.163 487.074 545.937 486.313 545.937 484.793C545.937 484.229 546.035 483.665 546.232 483.101C546.452 482.513 546.881 481.765 547.519 480.857C548.156 479.925 549.113 478.687 550.388 477.142L550.02 476.995C547.028 480.673 544.258 483.273 541.707 484.793C539.182 486.313 537.195 487.074 535.748 487.074ZM535.896 485.97C537.465 485.97 539.537 485.063 542.112 483.248C544.687 481.409 547.776 478.356 551.381 474.089C551.97 473.378 552.509 472.716 553 472.103C553.514 471.49 554.005 470.914 554.471 470.374C555.035 469.516 555.538 468.621 555.979 467.689C556.445 466.757 556.678 465.911 556.678 465.151C556.678 464.391 556.408 463.839 555.869 463.496C555.329 463.128 554.741 462.944 554.103 462.944C552.901 462.944 550.952 463.815 548.255 465.556C545.582 467.272 542.639 470.031 539.427 473.832C537.588 476.039 536.263 478.001 535.454 479.717C534.645 481.434 534.24 482.88 534.24 484.057C534.24 485.333 534.792 485.97 535.896 485.97ZM584.599 487.074C583.25 487.074 582.073 486.816 581.068 486.301C580.087 485.786 579.596 485.1 579.596 484.241C579.596 483.579 579.743 482.807 580.038 481.924C580.332 481.017 581.031 479.778 582.134 478.209C583.262 476.64 585.028 474.506 587.431 471.809C589.368 469.626 590.705 467.934 591.44 466.733C592.176 465.531 592.544 464.636 592.544 464.048C592.544 463.704 592.421 463.398 592.176 463.128C591.931 462.858 591.465 462.723 590.778 462.723C590.288 462.723 589.626 462.883 588.792 463.202C587.983 463.52 587.014 464.06 585.886 464.82C583.949 466.144 581.57 468.192 578.75 470.963C575.93 473.709 572.693 477.326 569.04 481.814L565.619 486.301C564.981 486.179 564.27 486.117 563.486 486.117C562.603 486.117 561.867 486.166 561.279 486.264C560.715 486.338 560.285 486.411 559.991 486.485C562.738 482.513 565.03 479.227 566.87 476.627C568.709 474.003 570.18 471.907 571.283 470.337C572.411 468.768 573.245 467.579 573.785 466.77C574.349 465.936 574.729 465.347 574.925 465.004C575.121 464.636 575.231 464.342 575.256 464.121C575.305 463.41 575.035 463.055 574.447 463.055C574.103 463.055 573.564 463.398 572.828 464.084C572.093 464.771 571.259 465.629 570.327 466.659C569.42 467.689 568.525 468.756 567.642 469.859C566.759 470.938 565.987 471.882 565.325 472.692C565.153 472.79 564.932 472.728 564.663 472.508C564.515 472.287 564.479 472.14 564.552 472.066C565.263 471.306 566.06 470.362 566.943 469.234C567.85 468.081 568.794 466.941 569.775 465.813C570.756 464.661 571.762 463.704 572.792 462.944C573.821 462.184 574.815 461.804 575.771 461.804C576.482 461.804 577.181 461.963 577.868 462.282C578.579 462.576 578.873 463.3 578.75 464.452C578.726 464.845 578.603 465.347 578.382 465.96C578.162 466.549 577.72 467.309 577.058 468.241L569.334 478.981L569.518 479.386C573.343 475.07 576.531 471.686 579.081 469.234C581.656 466.757 583.826 464.93 585.592 463.753C586.769 462.969 587.799 462.454 588.682 462.209C589.589 461.939 590.423 461.804 591.183 461.804C592.777 461.804 593.892 462.196 594.53 462.981C595.192 463.741 595.511 464.587 595.486 465.519C595.462 466.5 595.131 467.677 594.493 469.05C593.88 470.399 592.814 472.091 591.293 474.126C589.797 476.137 587.688 478.626 584.967 481.593C583.716 482.917 582.956 483.775 582.686 484.168C582.441 484.536 582.318 484.879 582.318 485.198C582.318 485.443 582.563 485.651 583.054 485.823C583.569 485.97 584.206 486.044 584.967 486.044C586.462 486.044 587.995 485.615 589.564 484.756C591.134 483.898 592.654 482.831 594.125 481.556C595.621 480.257 596.982 478.932 598.208 477.584C599.434 476.235 600.452 475.046 601.261 474.016C602.095 472.986 602.634 472.336 602.88 472.066L603.652 472.692C603.358 473.01 602.782 473.697 601.923 474.751C601.09 475.806 600.035 477.032 598.76 478.43C597.485 479.803 596.075 481.152 594.53 482.476C592.985 483.8 591.367 484.903 589.675 485.786C587.983 486.644 586.291 487.074 584.599 487.074ZM600.455 487.074C598.91 487.074 597.745 486.644 596.961 485.786C596.176 484.928 595.784 483.751 595.784 482.255C595.784 480.612 596.139 478.859 596.85 476.995C597.586 475.131 598.763 473.28 600.381 471.441C603.692 467.591 606.831 465.029 609.798 463.753C612.765 462.454 615.45 461.804 617.853 461.804C618.859 461.804 619.852 462.061 620.833 462.576C621.838 463.067 622.341 463.815 622.341 464.82C622.341 464.918 622.328 465.016 622.304 465.114C622.304 465.212 622.304 465.323 622.304 465.445C624.266 462.601 626.583 459.254 629.256 455.404C631.929 451.529 634.871 447.299 638.084 442.714C641.32 438.128 644.717 433.334 648.272 428.332C648.616 428.479 649.057 428.614 649.597 428.736C650.136 428.859 650.725 428.92 651.362 428.92C651.804 428.92 652.331 428.883 652.944 428.81L618 477.804C616.578 479.693 615.499 481.201 614.763 482.329C614.052 483.457 613.697 484.339 613.697 484.977C613.697 485.639 614.003 485.97 614.616 485.97C616.235 485.97 617.865 485.553 619.508 484.719C621.151 483.861 622.721 482.795 624.217 481.519C625.712 480.22 627.073 478.896 628.299 477.547C629.55 476.198 630.592 475.021 631.426 474.016C632.26 472.986 632.811 472.336 633.081 472.066L633.89 472.692C633.572 473.01 632.959 473.697 632.051 474.751C631.168 475.806 630.053 477.032 628.704 478.43C627.38 479.803 625.909 481.152 624.29 482.476C622.696 483.8 621.016 484.903 619.251 485.786C617.51 486.644 615.769 487.074 614.028 487.074C612.826 487.074 611.968 486.841 611.453 486.375C610.938 485.909 610.681 485.308 610.681 484.572C610.705 483.101 612.176 480.624 615.094 477.142L614.8 476.995C611.465 480.698 608.608 483.309 606.23 484.83C603.876 486.326 601.951 487.074 600.455 487.074ZM600.712 485.97C601.693 485.97 602.895 485.59 604.317 484.83C605.739 484.07 607.579 482.672 609.835 480.637C610.791 479.729 611.796 478.748 612.851 477.694C613.905 476.64 614.996 475.438 616.124 474.089C616.468 473.672 616.995 472.961 617.706 471.956C618.442 470.926 619.337 469.651 620.391 468.131C620.955 466.953 621.237 465.96 621.237 465.151C621.237 464.391 620.943 463.839 620.354 463.496C619.766 463.128 619.128 462.944 618.442 462.944C617.24 462.944 615.352 463.827 612.777 465.593C610.227 467.334 607.346 470.105 604.133 473.905C602.294 476.137 600.958 478.099 600.124 479.791C599.29 481.458 598.873 482.88 598.873 484.057C598.873 485.333 599.486 485.97 600.712 485.97ZM648.499 487.074C646.562 487.074 644.907 486.595 643.533 485.639C642.185 484.658 641.51 483.493 641.51 482.145C641.51 481.017 641.89 480.232 642.651 479.791C643.411 479.325 644.171 479.092 644.931 479.092C645.348 479.092 645.753 479.214 646.145 479.46C646.562 479.705 646.77 480.134 646.77 480.747C646.77 481.213 646.562 481.63 646.145 481.998C645.728 482.365 645.238 482.549 644.674 482.549C644.355 482.549 644.048 482.537 643.754 482.513C643.46 482.463 643.19 482.365 642.945 482.218V482.439C642.945 483.493 643.472 484.376 644.526 485.087C645.581 485.774 647.003 486.117 648.793 486.117C649.823 486.117 650.816 485.97 651.773 485.676C652.729 485.382 653.71 484.989 654.715 484.499C655.99 483.886 657.376 482.978 658.872 481.777C660.368 480.551 662.145 478.822 664.205 476.591C666.265 474.335 668.742 471.392 671.635 467.763C670.139 468.204 668.828 468.609 667.7 468.977C665.027 469.908 662.403 471.11 659.828 472.581C657.253 474.028 655.292 475.769 653.943 477.804C653.845 478.025 653.71 478.135 653.538 478.135C653.367 478.135 653.305 478.037 653.354 477.841C653.379 477.768 653.391 477.694 653.391 477.62C653.416 477.522 653.489 477.351 653.612 477.105C654.004 476.272 654.691 475.438 655.672 474.604C656.677 473.746 657.78 472.937 658.982 472.177C660.184 471.416 661.263 470.791 662.219 470.301C663.322 469.737 664.708 469.148 666.375 468.535C668.043 467.922 670.103 467.272 672.555 466.586C675.571 462.491 678.379 458.959 680.978 455.992C683.577 453.001 685.637 450.72 687.158 449.151C684.705 450.671 682.646 451.725 680.978 452.314C679.335 452.878 677.913 453.16 676.711 453.16C675.461 453.16 674.418 452.853 673.585 452.24C672.776 451.627 672.371 450.72 672.371 449.519C672.371 448.292 672.714 447.079 673.401 445.877C674.087 444.675 675.436 443.29 677.447 441.721C678.379 440.96 678.967 440.421 679.212 440.102C679.482 439.783 679.617 439.501 679.617 439.256C679.617 438.521 679.225 437.92 678.44 437.454C677.68 436.988 676.466 436.755 674.799 436.755C672.984 436.755 671.157 437.098 669.318 437.785C667.503 438.447 665.873 439.44 664.426 440.764C664.058 441.108 663.752 441.279 663.506 441.279C663.237 441.279 663.102 441.157 663.102 440.911C663.102 440.789 663.163 440.654 663.286 440.507C663.433 440.36 663.592 440.188 663.764 439.992C665.137 438.766 666.804 437.797 668.766 437.086C670.728 436.35 672.739 435.983 674.799 435.983C676.834 435.983 678.416 436.363 679.544 437.123C680.672 437.858 681.236 438.876 681.236 440.176C681.236 441.549 680.843 442.898 680.058 444.222C679.298 445.521 677.802 446.895 675.571 448.341C674.786 448.832 674.284 449.212 674.063 449.482C673.842 449.727 673.732 450.021 673.732 450.365C673.732 450.708 673.977 451.1 674.468 451.542C674.982 451.958 675.89 452.167 677.189 452.167C678.734 452.167 680.672 451.591 683.001 450.438C685.355 449.286 687.697 447.692 690.027 445.656C692.283 443.646 694.158 442.015 695.654 440.764C697.15 439.514 698.413 438.521 699.443 437.785C700.497 437.025 701.466 436.424 702.349 435.983C702.692 435.835 702.974 435.713 703.195 435.615C703.415 435.517 703.575 435.468 703.673 435.468C704.016 435.468 704.188 435.553 704.188 435.725C704.188 435.774 703.93 435.958 703.415 436.277C703.219 436.375 702.937 436.547 702.569 436.792C702.202 437.012 701.589 437.442 700.73 438.079C698.278 440.09 695.618 442.922 692.748 446.576C689.879 450.23 686.618 454.619 682.964 459.744C682.278 460.651 681.591 461.534 680.904 462.392C680.218 463.226 679.556 464.048 678.918 464.857C680.88 464.342 683.038 463.802 685.392 463.238C687.746 462.65 690.333 462.012 693.153 461.326C693.447 460.958 693.754 460.59 694.073 460.222C694.391 459.854 694.71 459.474 695.029 459.082C697.751 455.87 700.669 452.829 703.783 449.96C706.922 447.066 710 444.516 713.016 442.309C716.032 440.078 718.791 438.324 721.292 437.049C723.818 435.774 725.828 435.137 727.324 435.137C728.403 435.137 729.225 435.394 729.789 435.909C730.353 436.399 730.635 437.012 730.635 437.748C730.635 438.974 729.887 440.544 728.391 442.456C726.895 444.369 724.737 446.417 721.917 448.599C719.122 450.781 715.762 452.927 711.839 455.036C707.94 457.145 703.563 458.996 698.707 460.59C696.132 463.729 693.803 466.782 691.719 469.749C689.634 472.692 687.967 475.315 686.716 477.62C685.49 479.901 684.877 481.617 684.877 482.77C684.877 483.972 685.11 484.842 685.576 485.382C686.042 485.897 686.839 486.154 687.967 486.154C689.781 486.154 691.67 485.455 693.631 484.057C695.618 482.66 697.469 480.698 699.185 478.172C700.902 475.646 702.263 472.704 703.268 469.344C703.464 468.609 703.759 468.241 704.151 468.241C704.347 468.241 704.482 468.596 704.556 469.308C704.654 470.362 704.421 471.649 703.857 473.17C703.293 474.69 702.459 476.259 701.356 477.878C700.252 479.472 698.965 480.968 697.493 482.365C696.047 483.763 694.477 484.903 692.785 485.786C691.118 486.644 689.414 487.074 687.672 487.074C686.128 487.074 684.951 486.571 684.141 485.565C683.332 484.536 682.928 483.457 682.928 482.329C682.928 479.999 683.577 477.253 684.877 474.089C686.201 470.901 688.653 467.027 692.234 462.466C690.002 463.079 687.648 463.692 685.171 464.305C682.719 464.894 680.291 465.494 677.888 466.107C674.087 470.693 670.63 474.482 667.516 477.473C664.401 480.465 661.385 482.782 658.467 484.425C656.824 485.382 655.12 486.068 653.354 486.485C651.613 486.877 649.995 487.074 648.499 487.074ZM699.811 459.303C703.955 457.733 707.817 455.894 711.397 453.785C714.977 451.676 718.104 449.531 720.777 447.348C723.474 445.166 725.571 443.167 727.067 441.353C728.587 439.538 729.347 438.14 729.347 437.16C729.347 436.326 728.759 435.909 727.582 435.909C726.159 435.909 724.382 436.571 722.248 437.895C720.139 439.195 717.81 440.96 715.259 443.192C712.734 445.399 710.147 447.9 707.498 450.696C704.85 453.491 702.287 456.36 699.811 459.303ZM708.973 487.074C706.913 487.074 705.392 486.608 704.411 485.676C703.431 484.719 702.879 483.555 702.756 482.181C702.683 480.514 703.026 478.724 703.786 476.811C704.571 474.899 705.417 473.292 706.324 471.993C707.526 470.301 708.985 468.682 710.701 467.137C712.418 465.568 714.294 464.293 716.329 463.312C718.389 462.307 720.498 461.804 722.656 461.804C723.955 461.804 725.071 462.147 726.003 462.834C726.959 463.496 727.486 464.563 727.585 466.034C727.707 468.118 727.303 470.313 726.371 472.618C725.439 474.899 724.176 477.02 722.582 478.981C722.754 479.693 723.305 480.048 724.237 480.048C725.145 480.048 726.138 479.693 727.217 478.981C728.296 478.246 729.338 477.387 730.343 476.407C731.373 475.426 732.256 474.518 732.992 473.685C733.727 472.851 734.218 472.311 734.463 472.066L735.272 472.692C734.806 473.133 734.144 473.82 733.286 474.751C732.428 475.659 731.471 476.603 730.417 477.584C729.387 478.54 728.32 479.361 727.217 480.048C726.138 480.735 725.12 481.078 724.164 481.078C722.987 481.078 722.19 480.71 721.773 479.975C719.958 482.034 717.911 483.739 715.63 485.087C713.374 486.411 711.155 487.074 708.973 487.074ZM709.929 485.97C710.787 485.97 711.78 485.725 712.908 485.234C714.036 484.744 715.164 484.094 716.292 483.285C718.18 481.936 719.885 480.355 721.405 478.54V478.393C721.405 476.873 721.797 475.671 722.582 474.788C723.391 473.881 724.176 473.305 724.936 473.059C726.138 470.558 726.677 468.314 726.555 466.328C726.481 465.127 726.162 464.293 725.598 463.827C725.059 463.361 724.458 463.128 723.796 463.128C722.374 463.128 720.62 463.974 718.536 465.666C716.476 467.334 714.171 469.749 711.621 472.912C709.806 475.193 708.531 477.118 707.795 478.687C707.084 480.257 706.778 481.617 706.876 482.77C706.876 483.432 707.097 484.131 707.538 484.867C708.004 485.602 708.801 485.97 709.929 485.97ZM729.684 487.074C728.09 487.074 726.95 486.681 726.263 485.897C725.577 485.112 725.221 484.266 725.197 483.359C725.099 481.544 725.785 479.57 727.256 477.437C728.703 475.303 730.788 472.643 733.509 469.455C734.466 468.327 735.459 467.113 736.489 465.813C737.543 464.514 738.635 463.251 739.763 462.025C740.596 462.172 741.577 462.245 742.705 462.245C743.048 462.245 743.527 462.233 744.14 462.209C744.753 462.184 745.157 462.159 745.353 462.135C743.269 464.366 741.185 466.721 739.1 469.197C737.016 471.674 735.152 473.918 733.509 475.928C732.97 476.591 732.271 477.424 731.413 478.43C730.555 479.411 729.794 480.465 729.132 481.593C728.495 482.696 728.188 483.775 728.213 484.83C728.213 485.173 728.335 485.48 728.581 485.749C728.826 486.019 729.292 486.154 729.978 486.154C730.469 486.154 731.229 485.995 732.259 485.676C733.313 485.357 734.429 484.818 735.606 484.057C737.249 482.954 739.113 481.446 741.197 479.533C743.281 477.596 745.55 475.107 748.002 472.066C748.541 471.404 748.983 470.865 749.326 470.448C749.669 470.031 749.988 469.651 750.282 469.308C751.141 468.253 752.072 467.125 753.078 465.924C754.083 464.722 755.174 463.422 756.351 462.025C757.136 462.098 757.688 462.159 758.007 462.209C758.325 462.233 758.755 462.245 759.294 462.245C760.447 462.245 761.329 462.209 761.942 462.135C760.496 463.704 758.84 465.605 756.977 467.836C755.138 470.068 753.311 472.311 751.496 474.567C749.682 476.799 748.088 478.761 746.714 480.453C745.537 481.826 744.789 482.77 744.471 483.285C744.176 483.775 744.029 484.254 744.029 484.719C744.054 485.014 744.152 485.308 744.324 485.602C744.52 485.897 745.059 486.044 745.942 486.044C747.242 486.044 748.652 485.615 750.172 484.756C751.717 483.898 753.237 482.831 754.733 481.556C756.253 480.257 757.663 478.932 758.963 477.584C760.287 476.235 761.403 475.046 762.31 474.016C763.218 472.986 763.806 472.336 764.076 472.066L764.811 472.692C764.517 473.01 763.892 473.697 762.936 474.751C762.004 475.806 760.851 477.032 759.478 478.43C758.105 479.803 756.621 481.152 755.027 482.476C753.458 483.8 751.864 484.903 750.246 485.786C748.627 486.644 747.107 487.074 745.685 487.074C744.704 487.074 743.882 486.804 743.22 486.264C742.558 485.7 742.215 484.928 742.19 483.947C742.166 483.064 742.288 482.145 742.558 481.188C742.852 480.232 743.343 479.153 744.029 477.951C740.964 481.262 738.218 483.653 735.79 485.124C734.539 485.884 733.399 486.399 732.369 486.669C731.339 486.939 730.444 487.074 729.684 487.074ZM766.948 487.074C765.575 487.074 764.459 486.73 763.601 486.044C762.742 485.333 762.313 484.413 762.313 483.285C762.313 481.323 763.748 478.957 766.617 476.186C769.486 473.415 773.372 470.387 778.277 467.101C775.776 466.684 773.618 466.267 771.803 465.85C770.013 465.433 768.578 464.979 767.5 464.489C767.009 465.47 766.298 466.671 765.366 468.094C764.434 469.516 763.245 471.049 761.798 472.692C760.817 473.844 760.082 474.653 759.591 475.119C759.101 475.585 758.758 475.867 758.561 475.965C758.39 476.039 758.292 476.1 758.267 476.149C758.194 476.174 758.144 476.1 758.12 475.928C758.12 475.757 758.132 475.622 758.157 475.524C758.157 475.426 758.341 475.193 758.708 474.825C759.076 474.457 759.849 473.538 761.026 472.066C762.252 470.521 763.343 469.05 764.299 467.652C765.256 466.255 765.991 465.029 766.506 463.974C765.624 463.41 765.109 462.785 764.962 462.098C764.765 460.921 764.998 459.854 765.66 458.898C766.322 457.942 767.181 457.464 768.235 457.464C769.535 457.464 770.185 458.028 770.185 459.156C770.185 459.72 770.074 460.198 769.854 460.59C769.633 460.982 769.412 461.363 769.192 461.73C768.75 462.245 768.529 462.895 768.529 463.68C768.529 463.925 768.946 464.195 769.78 464.489C770.638 464.759 771.68 465.029 772.907 465.298C774.157 465.543 775.383 465.764 776.585 465.96C777.786 466.132 778.73 466.242 779.417 466.291C779.883 466.316 780.165 466.402 780.263 466.549C780.386 466.671 780.447 466.77 780.447 466.843C780.447 467.088 780.091 467.493 779.38 468.057C778.032 469.087 776.646 470.337 775.224 471.809C773.802 473.256 772.477 474.764 771.251 476.333C770.025 477.878 769.032 479.337 768.272 480.71C767.512 482.083 767.132 483.211 767.132 484.094C767.132 485.247 767.598 485.823 768.529 485.823C769.731 485.823 771.043 485.418 772.465 484.609C773.887 483.8 775.322 482.782 776.769 481.556C778.24 480.33 779.613 479.067 780.888 477.768C782.188 476.443 783.304 475.266 784.236 474.236C785.167 473.182 785.817 472.459 786.185 472.066L786.921 472.692C786.381 473.207 785.609 474.028 784.603 475.156C783.623 476.259 782.47 477.498 781.146 478.871C779.822 480.22 778.375 481.519 776.806 482.77C775.261 484.021 773.654 485.051 771.987 485.86C770.32 486.669 768.64 487.074 766.948 487.074ZM781.075 487.846C780.315 487.846 779.334 487.748 778.133 487.552C776.931 487.356 775.864 486.939 774.933 486.301C773.976 485.664 773.498 484.67 773.498 483.322C773.498 482.096 773.878 481.09 774.638 480.306C775.374 479.496 776.195 478.896 777.103 478.503C778.01 478.111 778.684 477.915 779.126 477.915C780.131 477.915 780.634 478.381 780.634 479.312C780.609 479.705 780.327 480.073 779.788 480.416C779.273 480.735 778.697 480.894 778.059 480.894C777.765 480.894 777.483 480.796 777.213 480.6C776.919 480.379 776.686 480.22 776.514 480.122C776.244 480.391 775.84 480.796 775.3 481.335C774.736 481.85 774.454 482.525 774.454 483.359C774.454 484.29 774.834 484.989 775.595 485.455C776.33 485.897 777.164 486.191 778.096 486.338C779.028 486.461 779.739 486.522 780.229 486.522C781.259 486.522 782.547 486.117 784.091 485.308C785.636 484.474 787.071 483.089 788.395 481.152C789.744 479.214 790.614 476.578 791.007 473.243C791.129 472.066 791.24 470.436 791.338 468.351C791.46 466.267 791.853 464.268 792.515 462.356C792.539 462.282 792.551 462.172 792.551 462.025C791.62 463.177 790.614 464.415 789.535 465.74C788.456 467.064 787.414 468.339 786.409 469.565C785.428 470.791 784.582 471.833 783.871 472.692C783.38 473.28 783.025 473.66 782.804 473.832C782.583 474.003 782.485 474.089 782.51 474.089C782.485 474.089 782.387 474.102 782.216 474.126C782.068 474.126 781.946 474.04 781.848 473.869C781.799 473.746 781.909 473.513 782.179 473.17C782.473 472.826 782.78 472.459 783.098 472.066C783.662 471.429 784.533 470.411 785.71 469.013C786.887 467.616 788.125 466.12 789.425 464.526C790.749 462.932 791.889 461.522 792.846 460.296C792.993 459.56 793.214 458.898 793.508 458.31C793.802 457.721 794.219 457.427 794.758 457.427C795.739 457.427 796.23 457.831 796.23 458.641C796.205 459.107 795.641 459.977 794.538 461.252C793.876 462.037 793.52 462.552 793.471 462.797C793.422 463.018 793.397 463.312 793.397 463.68C793.373 464.563 793.459 465.666 793.655 466.99C793.876 468.29 794.109 469.663 794.354 471.11C794.599 472.532 794.758 473.893 794.832 475.193C794.906 477.13 794.685 478.81 794.17 480.232C794.562 480.281 794.893 480.306 795.163 480.306C795.948 480.306 796.843 479.95 797.848 479.239C798.878 478.528 799.896 477.682 800.901 476.701C801.906 475.72 802.777 474.788 803.513 473.905C804.273 473.023 804.776 472.41 805.021 472.066L805.83 472.692C805.413 473.133 804.8 473.82 803.991 474.751C803.182 475.659 802.262 476.615 801.232 477.62C800.202 478.601 799.148 479.447 798.069 480.158C797.014 480.845 796.009 481.188 795.053 481.188C794.832 481.188 794.624 481.188 794.427 481.188C794.231 481.164 794.035 481.139 793.839 481.115C792.686 483.665 790.982 485.431 788.726 486.411C786.47 487.368 783.92 487.846 781.075 487.846Z" fill="#FFFAEE"/>
<path d="M325.667 380H324.701H304V401.667H324.701H325.667V380.966V380ZM304.966 400.701V381.649L324.018 400.701H304.966ZM324.701 400.018L305.649 380.966H324.701V400.018Z" fill="#FFFAEE"/>
<path d="M367 380H366.034H345.333V401.667H366.034H367V380.966V380ZM346.299 400.701V381.649L365.351 400.701H346.299ZM366.034 400.018L346.983 380.966H366.034V400.018Z" fill="#FFFAEE"/>
<path d="M408.333 380H407.368H386.666V401.667H407.368H408.333V380.966V380ZM387.632 400.701V381.649L406.684 400.701H387.632ZM407.368 400.018L388.316 380.966H407.368V400.018Z" fill="#FFFAEE"/>
<path d="M346.334 380H345.368H324.667V401.667H345.368H346.334V380.966V380ZM325.632 400.701V381.649L344.684 400.701H325.632ZM345.368 400.018L326.316 380.966H345.368V400.018Z" fill="#FFFAEE"/>
<path d="M387.667 380H386.701H366V401.667H386.701H387.667V380.966V380ZM366.965 400.701V381.649L386.017 400.701H366.965ZM386.701 400.018L367.649 380.966H386.701V400.018Z" fill="#FFFAEE"/>
<path d="M429 380H428.034H407.333V401.667H428.034H429V380.966V380ZM408.299 400.701V381.649L427.351 400.701H408.299ZM428.034 400.018L408.982 380.966H428.034V400.018Z" fill="#FFFAEE"/>
</svg>
