<svg width="1080" height="1080" viewBox="0 0 1080 1080" fill="none" xmlns="http://www.w3.org/2000/svg">
<rect width="1080" height="1080" fill="#191919"/>
<path d="M389.036 510.172C389.036 505.468 385.222 501.654 380.518 501.654C375.814 501.654 372 505.468 372 510.172C372 514.877 375.814 518.69 380.518 518.69C385.222 518.69 389.036 514.877 389.036 510.172Z" fill="#FFFAEE"/>
<path d="M410.923 488.404C410.923 483.7 407.109 479.886 402.405 479.886C397.7 479.886 393.887 483.7 393.887 488.404C393.887 493.109 397.7 496.922 402.405 496.922C407.109 496.922 410.923 493.109 410.923 488.404Z" fill="#FFFAEE"/>
<path d="M520 510.172C520 505.468 516.186 501.654 511.482 501.654C506.778 501.654 502.964 505.468 502.964 510.172C502.964 514.877 506.778 518.69 511.482 518.69C516.186 518.69 520 514.877 520 510.172Z" fill="#FFFAEE"/>
<path d="M498.114 510.172C498.114 505.468 494.3 501.654 489.596 501.654C484.891 501.654 481.078 505.468 481.078 510.172C481.078 514.877 484.891 518.69 489.596 518.69C494.3 518.69 498.114 514.877 498.114 510.172Z" fill="#FFFAEE"/>
<path d="M432.691 510.172C432.691 505.468 428.877 501.654 424.173 501.654C419.468 501.654 415.655 505.468 415.655 510.172C415.655 514.877 419.468 518.69 424.173 518.69C428.877 518.69 432.691 514.877 432.691 510.172Z" fill="#FFFAEE"/>
<path d="M432.691 488.404C432.691 483.7 428.877 479.886 424.173 479.886C419.468 479.886 415.655 483.7 415.655 488.404C415.655 493.109 419.468 496.922 424.173 496.922C428.877 496.922 432.691 493.109 432.691 488.404Z" fill="#FFFAEE"/>
<path d="M476.345 488.404C476.345 483.7 472.532 479.886 467.827 479.886C463.123 479.886 459.309 483.7 459.309 488.404C459.309 493.109 463.123 496.922 467.827 496.922C472.532 496.922 476.345 493.109 476.345 488.404Z" fill="#FFFAEE"/>
<path d="M476.345 466.518C476.345 461.813 472.532 458 467.827 458C463.123 458 459.309 461.813 459.309 466.518C459.309 471.222 463.123 475.036 467.827 475.036C472.532 475.036 476.345 471.222 476.345 466.518Z" fill="#FFFAEE"/>
<path d="M503.464 510.173C503.464 505.745 507.054 502.154 511.482 502.154C515.91 502.155 519.5 505.745 519.5 510.173C519.5 514.601 515.91 518.19 511.482 518.19C507.054 518.19 503.464 514.601 503.464 510.173ZM481.577 510.173C481.577 505.745 485.167 502.154 489.596 502.154C494.024 502.154 497.613 505.745 497.613 510.173C497.613 514.601 494.024 518.19 489.596 518.19C485.168 518.19 481.577 514.601 481.577 510.173ZM481.577 488.404C481.577 483.976 485.167 480.386 489.596 480.386C494.024 480.386 497.613 483.976 497.613 488.404C497.613 492.832 494.024 496.422 489.596 496.422C485.168 496.422 481.577 492.832 481.577 488.404ZM459.81 488.404C459.81 483.976 463.399 480.386 467.827 480.386C472.255 480.386 475.846 483.976 475.846 488.404C475.846 492.832 472.255 496.422 467.827 496.422C463.399 496.422 459.81 492.832 459.81 488.404ZM459.81 466.518C459.81 462.089 463.399 458.5 467.827 458.5C472.255 458.5 475.846 462.089 475.846 466.518C475.846 470.946 472.255 474.535 467.827 474.535C463.399 474.535 459.81 470.946 459.81 466.518ZM437.923 510.173C437.923 505.745 441.512 502.155 445.94 502.154C450.369 502.154 453.959 505.745 453.959 510.173C453.959 514.601 450.368 518.19 445.94 518.19C441.513 518.19 437.923 514.601 437.923 510.173ZM437.923 488.404C437.923 483.976 441.512 480.386 445.94 480.386C450.369 480.386 453.959 483.976 453.959 488.404C453.959 492.832 450.369 496.422 445.94 496.422C441.512 496.422 437.923 492.832 437.923 488.404ZM416.154 510.173C416.154 505.745 419.745 502.154 424.173 502.154C428.601 502.154 432.19 505.745 432.19 510.173C432.19 514.601 428.601 518.19 424.173 518.19C419.745 518.19 416.155 514.601 416.154 510.173ZM416.154 488.404C416.154 483.976 419.745 480.386 424.173 480.386C428.601 480.386 432.19 483.976 432.19 488.404C432.19 492.832 428.601 496.422 424.173 496.422C419.745 496.422 416.154 492.832 416.154 488.404ZM416.154 466.518C416.154 462.089 419.745 458.5 424.173 458.5C428.601 458.5 432.19 462.089 432.19 466.518C432.19 470.946 428.601 474.535 424.173 474.535C419.745 474.535 416.154 470.946 416.154 466.518ZM394.387 510.173C394.387 505.745 397.976 502.154 402.404 502.154C406.833 502.154 410.423 505.745 410.423 510.173C410.423 514.601 406.832 518.19 402.404 518.19C397.976 518.19 394.387 514.601 394.387 510.173ZM394.387 488.404C394.387 483.976 397.976 480.386 402.404 480.386C406.833 480.386 410.423 483.976 410.423 488.404C410.423 492.832 406.832 496.422 402.404 496.422C397.976 496.422 394.387 492.832 394.387 488.404ZM372.5 510.173C372.5 505.745 376.09 502.155 380.518 502.154C384.946 502.154 388.536 505.745 388.536 510.173C388.536 514.601 384.946 518.19 380.518 518.19C376.09 518.19 372.5 514.601 372.5 510.173Z" stroke="#FFFAEE"/>
<path d="M649.236 552.195C648.536 552.195 647.856 552.07 647.196 551.82C646.536 551.57 645.941 551.205 645.411 550.725C644.881 550.245 644.456 549.665 644.136 548.985C643.826 548.305 643.671 547.53 643.671 546.66C643.671 545.79 643.826 545.015 644.136 544.335C644.456 543.655 644.881 543.08 645.411 542.61C645.941 542.13 646.536 541.765 647.196 541.515C647.856 541.265 648.536 541.14 649.236 541.14C649.936 541.14 650.616 541.265 651.276 541.515C651.936 541.765 652.531 542.13 653.061 542.61C653.591 543.08 654.011 543.655 654.321 544.335C654.631 545.015 654.786 545.79 654.786 546.66C654.786 547.53 654.631 548.305 654.321 548.985C654.011 549.665 653.591 550.245 653.061 550.725C652.531 551.205 651.936 551.57 651.276 551.82C650.616 552.07 649.936 552.195 649.236 552.195ZM649.236 551.505C649.826 551.505 650.406 551.4 650.976 551.19C651.546 550.97 652.061 550.655 652.521 550.245C652.981 549.825 653.346 549.315 653.616 548.715C653.896 548.115 654.036 547.43 654.036 546.66C654.036 545.89 653.896 545.205 653.616 544.605C653.346 544.005 652.981 543.5 652.521 543.09C652.061 542.67 651.546 542.355 650.976 542.145C650.406 541.925 649.826 541.815 649.236 541.815C648.636 541.815 648.051 541.925 647.481 542.145C646.911 542.355 646.396 542.67 645.936 543.09C645.476 543.5 645.106 544.005 644.826 544.605C644.556 545.205 644.421 545.89 644.421 546.66C644.421 547.43 644.556 548.115 644.826 548.715C645.106 549.315 645.476 549.825 645.936 550.245C646.396 550.655 646.911 550.97 647.481 551.19C648.051 551.4 648.636 551.505 649.236 551.505ZM649.296 549.6C648.376 549.6 647.681 549.335 647.211 548.805C646.741 548.275 646.506 547.555 646.506 546.645C646.506 545.735 646.746 545.02 647.226 544.5C647.716 543.98 648.396 543.72 649.266 543.72C649.726 543.72 650.121 543.795 650.451 543.945C650.791 544.095 651.061 544.31 651.261 544.59C651.471 544.86 651.606 545.185 651.666 545.565H650.826C650.756 545.215 650.611 544.94 650.391 544.74C650.181 544.54 649.811 544.44 649.281 544.44C648.641 544.44 648.151 544.63 647.811 545.01C647.471 545.39 647.301 545.935 647.301 546.645C647.301 547.365 647.471 547.92 647.811 548.31C648.151 548.69 648.641 548.88 649.281 548.88C649.781 548.88 650.146 548.8 650.376 548.64C650.606 548.47 650.756 548.2 650.826 547.83H651.666C651.626 548.18 651.506 548.49 651.306 548.76C651.116 549.02 650.851 549.225 650.511 549.375C650.181 549.525 649.776 549.6 649.296 549.6ZM660.245 551.265L663.875 547.38C664.335 546.89 664.71 546.46 665 546.09C665.29 545.71 665.505 545.36 665.645 545.04C665.795 544.71 665.87 544.375 665.87 544.035C665.87 543.385 665.66 542.89 665.24 542.55C664.82 542.2 664.26 542.025 663.56 542.025C662.86 542.025 662.285 542.235 661.835 542.655C661.385 543.065 661.17 543.63 661.19 544.35H660.32C660.31 543.7 660.445 543.145 660.725 542.685C661.005 542.225 661.395 541.87 661.895 541.62C662.395 541.37 662.965 541.245 663.605 541.245C664.275 541.245 664.84 541.36 665.3 541.59C665.77 541.81 666.13 542.13 666.38 542.55C666.63 542.96 666.755 543.455 666.755 544.035C666.755 544.415 666.69 544.785 666.56 545.145C666.43 545.495 666.19 545.9 665.84 546.36C665.5 546.81 665.005 547.38 664.355 548.07L660.935 551.73L660.995 551.22H666.89V552H660.245V551.265ZM676.08 552.15C675.21 552.15 674.5 551.955 673.95 551.565C673.41 551.165 673.015 550.565 672.765 549.765C672.515 548.955 672.39 547.93 672.39 546.69C672.39 545.45 672.515 544.43 672.765 543.63C673.025 542.83 673.425 542.235 673.965 541.845C674.515 541.445 675.22 541.245 676.08 541.245C676.95 541.245 677.655 541.445 678.195 541.845C678.745 542.235 679.145 542.83 679.395 543.63C679.655 544.43 679.785 545.45 679.785 546.69C679.785 547.92 679.655 548.94 679.395 549.75C679.145 550.56 678.745 551.165 678.195 551.565C677.655 551.955 676.95 552.15 676.08 552.15ZM676.08 551.37C677.1 551.37 677.825 550.985 678.255 550.215C678.685 549.445 678.9 548.27 678.9 546.69C678.9 545.11 678.685 543.94 678.255 543.18C677.825 542.41 677.1 542.025 676.08 542.025C675.07 542.025 674.35 542.41 673.92 543.18C673.49 543.94 673.275 545.11 673.275 546.69C673.275 548.27 673.485 549.445 673.905 550.215C674.335 550.985 675.06 551.37 676.08 551.37ZM685.286 551.265L688.916 547.38C689.376 546.89 689.751 546.46 690.041 546.09C690.331 545.71 690.546 545.36 690.686 545.04C690.836 544.71 690.911 544.375 690.911 544.035C690.911 543.385 690.701 542.89 690.281 542.55C689.861 542.2 689.301 542.025 688.601 542.025C687.901 542.025 687.326 542.235 686.876 542.655C686.426 543.065 686.211 543.63 686.231 544.35H685.361C685.351 543.7 685.486 543.145 685.766 542.685C686.046 542.225 686.436 541.87 686.936 541.62C687.436 541.37 688.006 541.245 688.646 541.245C689.316 541.245 689.881 541.36 690.341 541.59C690.811 541.81 691.171 542.13 691.421 542.55C691.671 542.96 691.796 543.455 691.796 544.035C691.796 544.415 691.731 544.785 691.601 545.145C691.471 545.495 691.231 545.9 690.881 546.36C690.541 546.81 690.046 547.38 689.396 548.07L685.976 551.73L686.036 551.22H691.931V552H685.286V551.265ZM697.716 548.67C697.726 548.28 697.771 547.9 697.851 547.53C697.941 547.16 698.096 546.765 698.316 546.345C698.546 545.925 698.861 545.445 699.261 544.905L701.886 541.395H702.951L699.396 546.105L699.276 545.97C699.486 545.84 699.676 545.735 699.846 545.655C700.016 545.565 700.201 545.5 700.401 545.46C700.601 545.41 700.846 545.385 701.136 545.385C701.866 545.385 702.486 545.52 702.996 545.79C703.506 546.05 703.891 546.43 704.151 546.93C704.421 547.43 704.556 548.035 704.556 548.745C704.556 549.425 704.426 550.02 704.166 550.53C703.906 551.04 703.521 551.44 703.011 551.73C702.501 552.01 701.876 552.15 701.136 552.15C700.016 552.15 699.161 551.835 698.571 551.205C697.991 550.565 697.706 549.72 697.716 548.67ZM698.601 548.745C698.601 549.545 698.796 550.185 699.186 550.665C699.586 551.135 700.236 551.37 701.136 551.37C702.026 551.37 702.671 551.135 703.071 550.665C703.471 550.185 703.671 549.545 703.671 548.745C703.671 547.945 703.471 547.315 703.071 546.855C702.671 546.395 702.026 546.165 701.136 546.165C700.336 546.165 699.711 546.395 699.261 546.855C698.821 547.315 698.601 547.945 698.601 548.745Z" fill="#FFFAEE"/>
<path d="M604.485 564.975V565.545L598.35 569.085V568.215L603.39 565.305V565.215L598.35 562.305V561.435L604.485 564.975ZM617.218 564.975V565.545L611.083 569.085V568.215L616.123 565.305V565.215L611.083 562.305V561.435L617.218 564.975ZM628.931 570.78H622.451V570H628.931V570.78ZM634.131 559.395H635.031V569.22H640.086V570H634.131V559.395ZM649.052 560.55H648.992L645.662 570H644.747L648.542 559.395H649.562L653.342 570H652.382L649.052 560.55ZM651.467 566.82H646.622V566.04H651.467V566.82ZM657.752 559.395L660.962 564.795H661.037L664.247 559.395H665.222L661.427 565.575V570H660.572V565.575L656.717 559.395H657.752ZM678.578 564.69C678.578 566.44 678.198 567.79 677.438 568.74C676.688 569.68 675.583 570.15 674.123 570.15C672.663 570.15 671.553 569.68 670.793 568.74C670.043 567.79 669.668 566.44 669.668 564.69C669.668 562.94 670.043 561.595 670.793 560.655C671.553 559.715 672.663 559.245 674.123 559.245C675.583 559.245 676.688 559.715 677.438 560.655C678.198 561.595 678.578 562.94 678.578 564.69ZM677.678 564.69C677.678 563.1 677.383 561.93 676.793 561.18C676.213 560.43 675.323 560.055 674.123 560.055C672.923 560.055 672.028 560.43 671.438 561.18C670.858 561.93 670.568 563.1 670.568 564.69C670.568 566.28 670.858 567.455 671.438 568.215C672.028 568.965 672.923 569.34 674.123 569.34C675.323 569.34 676.213 568.965 676.793 568.215C677.383 567.455 677.678 566.28 677.678 564.69ZM692.333 559.395V566.61C692.333 567.31 692.198 567.93 691.928 568.47C691.668 569.01 691.258 569.435 690.698 569.745C690.138 570.045 689.403 570.195 688.493 570.195C687.593 570.195 686.858 570.045 686.288 569.745C685.728 569.435 685.313 569.01 685.043 568.47C684.783 567.93 684.653 567.31 684.653 566.61V559.395H685.553V566.475C685.553 567.065 685.643 567.58 685.823 568.02C686.003 568.46 686.308 568.8 686.738 569.04C687.168 569.27 687.753 569.385 688.493 569.385C689.243 569.385 689.828 569.27 690.248 569.04C690.678 568.8 690.983 568.46 691.163 568.02C691.343 567.58 691.433 567.065 691.433 566.475V559.395H692.333ZM697.586 559.395H705.416V560.175H701.951V570H701.051V560.175H697.586V559.395Z" fill="#FFFAEE"/>
<path d="M377.97 547.14L380.73 552H379.725L377.07 547.305L377.97 547.14ZM376.8 546.855C377.51 546.855 378.06 546.765 378.45 546.585C378.84 546.405 379.115 546.14 379.275 545.79C379.435 545.44 379.515 545.01 379.515 544.5C379.515 543.98 379.435 543.55 379.275 543.21C379.115 542.87 378.84 542.615 378.45 542.445C378.06 542.265 377.51 542.175 376.8 542.175H374.22V546.855H376.8ZM376.875 547.635H374.22V552H373.32V541.395H376.86C377.72 541.395 378.41 541.52 378.93 541.77C379.45 542.01 379.825 542.36 380.055 542.82C380.295 543.28 380.415 543.84 380.415 544.5C380.415 545.02 380.36 545.475 380.25 545.865C380.14 546.255 379.95 546.585 379.68 546.855C379.41 547.115 379.045 547.31 378.585 547.44C378.135 547.57 377.565 547.635 376.875 547.635ZM382.022 541.395H387.992V542.175H382.922V546.3H387.647V547.08H382.922V551.22H388.067V552H382.022V541.395ZM389.786 541.395H395.831V542.175H390.686V546.3H395.336V547.08H390.686V552H389.786V541.395ZM399.432 552H398.532V541.395H399.432V552ZM396.897 542.175V541.395H401.052V542.175H396.897ZM396.897 552V551.22H401.052V552H396.897ZM410.876 552H409.871L403.946 542.895H403.826V552H402.941V541.395H403.961L409.871 550.485H409.991V541.395H410.876V552ZM412.918 541.395H418.888V542.175H413.818V546.3H418.543V547.08H413.818V551.22H418.963V552H412.918V541.395ZM420.682 552V541.395H423.967C425.507 541.395 426.672 541.845 427.462 542.745C428.252 543.645 428.647 544.96 428.647 546.69C428.647 548.41 428.242 549.725 427.432 550.635C426.632 551.545 425.427 552 423.817 552H420.682ZM423.742 551.22C424.752 551.22 425.547 551.04 426.127 550.68C426.707 550.31 427.122 549.785 427.372 549.105C427.622 548.425 427.747 547.62 427.747 546.69C427.747 545.75 427.622 544.945 427.372 544.275C427.132 543.595 426.727 543.075 426.157 542.715C425.597 542.355 424.832 542.175 423.862 542.175H421.582V551.22H423.742ZM435.378 552.78H428.898V552H435.378V552.78ZM436.079 552V541.395H439.364C440.904 541.395 442.069 541.845 442.859 542.745C443.649 543.645 444.044 544.96 444.044 546.69C444.044 548.41 443.639 549.725 442.829 550.635C442.029 551.545 440.824 552 439.214 552H436.079ZM439.139 551.22C440.149 551.22 440.944 551.04 441.524 550.68C442.104 550.31 442.519 549.785 442.769 549.105C443.019 548.425 443.144 547.62 443.144 546.69C443.144 545.75 443.019 544.945 442.769 544.275C442.529 543.595 442.124 543.075 441.554 542.715C440.994 542.355 440.229 542.175 439.259 542.175H436.979V551.22H439.139ZM447.79 552H446.89V541.395H447.79V552ZM445.255 542.175V541.395H449.41V542.175H445.255ZM445.255 552V551.22H449.41V552H445.255ZM458.475 547.5H455.46V546.72H459.375V547.92C459.375 548.67 459.225 549.37 458.925 550.02C458.635 550.66 458.18 551.175 457.56 551.565C456.95 551.955 456.16 552.15 455.19 552.15C453.74 552.15 452.615 551.68 451.815 550.74C451.025 549.79 450.63 548.44 450.63 546.69C450.63 544.94 451.025 543.595 451.815 542.655C452.615 541.715 453.74 541.245 455.19 541.245C455.88 541.245 456.505 541.365 457.065 541.605C457.625 541.835 458.095 542.185 458.475 542.655C458.855 543.125 459.115 543.725 459.255 544.455H458.325C458.165 543.595 457.81 542.98 457.26 542.61C456.72 542.24 456.03 542.055 455.19 542.055C454.01 542.055 453.105 542.425 452.475 543.165C451.845 543.905 451.53 545.08 451.53 546.69C451.53 548.29 451.845 549.465 452.475 550.215C453.105 550.965 454.01 551.34 455.19 551.34C455.8 551.34 456.305 551.255 456.705 551.085C457.105 550.905 457.425 550.67 457.665 550.38C457.905 550.09 458.08 549.775 458.19 549.435C458.31 549.095 458.385 548.755 458.415 548.415C458.455 548.075 458.475 547.77 458.475 547.5ZM463.084 552H462.184V541.395H463.084V552ZM460.549 542.175V541.395H464.704V542.175H460.549ZM460.549 552V551.22H464.704V552H460.549ZM465.504 541.395H473.334V542.175H469.869V552H468.969V542.175H465.504V541.395ZM476.766 542.55H476.706L473.376 552H472.461L476.256 541.395H477.276L481.056 552H480.096L476.766 542.55ZM479.181 548.82H474.336V548.04H479.181V548.82ZM482.151 541.395H483.051V551.22H488.106V552H482.151V541.395ZM494.358 552.78H487.878V552H494.358V552.78ZM498.418 542.55H498.358L495.028 552H494.113L497.908 541.395H498.928L502.708 552H501.748L498.418 542.55ZM500.833 548.82H495.988V548.04H500.833V548.82ZM508.454 547.14L511.214 552H510.209L507.554 547.305L508.454 547.14ZM507.284 546.855C507.994 546.855 508.544 546.765 508.934 546.585C509.324 546.405 509.599 546.14 509.759 545.79C509.919 545.44 509.999 545.01 509.999 544.5C509.999 543.98 509.919 543.55 509.759 543.21C509.599 542.87 509.324 542.615 508.934 542.445C508.544 542.265 507.994 542.175 507.284 542.175H504.704V546.855H507.284ZM507.359 547.635H504.704V552H503.804V541.395H507.344C508.204 541.395 508.894 541.52 509.414 541.77C509.934 542.01 510.309 542.36 510.539 542.82C510.779 543.28 510.899 543.84 510.899 544.5C510.899 545.02 510.844 545.475 510.734 545.865C510.624 546.255 510.434 546.585 510.164 546.855C509.894 547.115 509.529 547.31 509.069 547.44C508.619 547.57 508.049 547.635 507.359 547.635ZM511.167 541.395H518.997V542.175H515.532V552H514.632V542.175H511.167V541.395ZM522.327 552H521.427V541.395H522.327V552ZM519.792 542.175V541.395H523.947V542.175H519.792ZM519.792 552V551.22H523.947V552H519.792ZM525.837 541.395H531.882V542.175H526.737V546.3H531.387V547.08H526.737V552H525.837V541.395ZM535.54 542.55H535.48L532.15 552H531.235L535.03 541.395H536.05L539.83 552H538.87L535.54 542.55ZM537.955 548.82H533.11V548.04H537.955V548.82ZM547.462 544.47C547.332 543.66 547.007 543.055 546.487 542.655C545.977 542.255 545.297 542.055 544.447 542.055C543.327 542.055 542.457 542.435 541.837 543.195C541.227 543.955 540.922 545.115 540.922 546.675C540.922 548.245 541.227 549.415 541.837 550.185C542.457 550.945 543.327 551.325 544.447 551.325C545.297 551.325 545.977 551.125 546.487 550.725C547.007 550.325 547.337 549.725 547.477 548.925H548.422C548.252 549.975 547.832 550.775 547.162 551.325C546.492 551.875 545.587 552.15 544.447 552.15C542.967 552.15 541.857 551.675 541.117 550.725C540.387 549.765 540.022 548.415 540.022 546.675C540.022 544.945 540.387 543.61 541.117 542.67C541.857 541.72 542.967 541.245 544.447 541.245C545.157 541.245 545.787 541.365 546.337 541.605C546.897 541.845 547.352 542.205 547.702 542.685C548.062 543.165 548.297 543.76 548.407 544.47H547.462ZM548.508 541.395H556.338V542.175H552.873V552H551.973V542.175H548.508V541.395ZM562.683 543.69C562.603 543.07 562.328 542.64 561.858 542.4C561.398 542.16 560.788 542.04 560.028 542.04C559.158 542.04 558.513 542.21 558.093 542.55C557.673 542.88 557.463 543.37 557.463 544.02C557.463 544.4 557.533 544.71 557.673 544.95C557.823 545.19 558.013 545.385 558.243 545.535C558.473 545.675 558.718 545.79 558.978 545.88C559.238 545.96 559.478 546.03 559.698 546.09L560.853 546.405C561.143 546.485 561.458 546.585 561.798 546.705C562.138 546.825 562.458 546.99 562.758 547.2C563.068 547.41 563.318 547.68 563.508 548.01C563.698 548.34 563.793 548.75 563.793 549.24C563.793 549.8 563.658 550.305 563.388 550.755C563.118 551.205 562.703 551.56 562.143 551.82C561.583 552.07 560.868 552.195 559.998 552.195C558.838 552.195 557.948 551.96 557.328 551.49C556.708 551.02 556.358 550.385 556.278 549.585H557.208C557.268 550.065 557.423 550.435 557.673 550.695C557.923 550.955 558.243 551.14 558.633 551.25C559.033 551.35 559.488 551.4 559.998 551.4C560.918 551.4 561.628 551.225 562.128 550.875C562.638 550.515 562.893 549.96 562.893 549.21C562.893 548.76 562.783 548.405 562.563 548.145C562.353 547.885 562.068 547.68 561.708 547.53C561.358 547.38 560.978 547.25 560.568 547.14L559.128 546.75C558.308 546.52 557.673 546.2 557.223 545.79C556.783 545.38 556.563 544.815 556.563 544.095C556.563 543.505 556.703 543 556.983 542.58C557.273 542.15 557.678 541.82 558.198 541.59C558.728 541.36 559.353 541.245 560.073 541.245C560.773 541.245 561.373 541.35 561.873 541.56C562.383 541.76 562.783 542.045 563.073 542.415C563.373 542.775 563.543 543.2 563.583 543.69H562.683ZM376.365 563.595L380.67 570H379.59L375.72 564.225L376.365 563.595ZM374.22 570H373.32V559.395H374.22V570ZM373.995 567.075V565.83L379.29 559.395H380.385L373.995 567.075ZM384.607 570H383.707V559.395H384.607V570ZM382.072 560.175V559.395H386.227V560.175H382.072ZM382.072 570V569.22H386.227V570H382.072ZM396.051 570H395.046L389.121 560.895H389.001V570H388.116V559.395H389.136L395.046 568.485H395.166V559.395H396.051V570ZM398.092 559.395H404.062V560.175H398.992V564.3H403.717V565.08H398.992V569.22H404.137V570H398.092V559.395ZM404.752 559.395H412.582V560.175H409.117V570H408.217V560.175H404.752V559.395ZM415.913 570H415.013V559.395H415.913V570ZM413.378 560.175V559.395H417.533V560.175H413.378ZM413.378 570V569.22H417.533V570H413.378ZM426.192 562.47C426.062 561.66 425.737 561.055 425.217 560.655C424.707 560.255 424.027 560.055 423.177 560.055C422.057 560.055 421.187 560.435 420.567 561.195C419.957 561.955 419.652 563.115 419.652 564.675C419.652 566.245 419.957 567.415 420.567 568.185C421.187 568.945 422.057 569.325 423.177 569.325C424.027 569.325 424.707 569.125 425.217 568.725C425.737 568.325 426.067 567.725 426.207 566.925H427.152C426.982 567.975 426.562 568.775 425.892 569.325C425.222 569.875 424.317 570.15 423.177 570.15C421.697 570.15 420.587 569.675 419.847 568.725C419.117 567.765 418.752 566.415 418.752 564.675C418.752 562.945 419.117 561.61 419.847 560.67C420.587 559.72 421.697 559.245 423.177 559.245C423.887 559.245 424.517 559.365 425.067 559.605C425.627 559.845 426.082 560.205 426.432 560.685C426.792 561.165 427.027 561.76 427.137 562.47H426.192ZM433.855 570.78H427.375V570H433.855V570.78ZM436.715 570H435.815V559.395H436.715V570ZM434.18 560.175V559.395H438.335V560.175H434.18ZM434.18 570V569.22H438.335V570H434.18ZM440.225 570V559.395H443.51C445.05 559.395 446.215 559.845 447.005 560.745C447.795 561.645 448.19 562.96 448.19 564.69C448.19 566.41 447.785 567.725 446.975 568.635C446.175 569.545 444.97 570 443.36 570H440.225ZM443.285 569.22C444.295 569.22 445.09 569.04 445.67 568.68C446.25 568.31 446.665 567.785 446.915 567.105C447.165 566.425 447.29 565.62 447.29 564.69C447.29 563.75 447.165 562.945 446.915 562.275C446.675 561.595 446.27 561.075 445.7 560.715C445.14 560.355 444.375 560.175 443.405 560.175H441.125V569.22H443.285ZM449.776 559.395H455.746V560.175H450.676V564.3H455.401V565.08H450.676V569.22H455.821V570H449.776V559.395ZM465.475 570H464.47L458.545 560.895H458.425V570H457.54V559.395H458.56L464.47 568.485H464.59V559.395H465.475V570ZM466.251 559.395H474.081V560.175H470.616V570H469.716V560.175H466.251V559.395ZM477.411 570H476.511V559.395H477.411V570ZM474.876 560.175V559.395H479.031V560.175H474.876ZM474.876 570V569.22H479.031V570H474.876ZM479.831 559.395H487.661V560.175H484.196V570H483.296V560.175H479.831V559.395ZM490.992 570H490.092V559.395H490.992V570ZM488.457 560.175V559.395H492.612V560.175H488.457ZM488.457 570V569.22H492.612V570H488.457ZM494.501 559.395H500.471V560.175H495.401V564.3H500.126V565.08H495.401V569.22H500.546V570H494.501V559.395ZM507.879 561.69C507.799 561.07 507.524 560.64 507.054 560.4C506.594 560.16 505.984 560.04 505.224 560.04C504.354 560.04 503.709 560.21 503.289 560.55C502.869 560.88 502.659 561.37 502.659 562.02C502.659 562.4 502.729 562.71 502.869 562.95C503.019 563.19 503.209 563.385 503.439 563.535C503.669 563.675 503.914 563.79 504.174 563.88C504.434 563.96 504.674 564.03 504.894 564.09L506.049 564.405C506.339 564.485 506.654 564.585 506.994 564.705C507.334 564.825 507.654 564.99 507.954 565.2C508.264 565.41 508.514 565.68 508.704 566.01C508.894 566.34 508.989 566.75 508.989 567.24C508.989 567.8 508.854 568.305 508.584 568.755C508.314 569.205 507.899 569.56 507.339 569.82C506.779 570.07 506.064 570.195 505.194 570.195C504.034 570.195 503.144 569.96 502.524 569.49C501.904 569.02 501.554 568.385 501.474 567.585H502.404C502.464 568.065 502.619 568.435 502.869 568.695C503.119 568.955 503.439 569.14 503.829 569.25C504.229 569.35 504.684 569.4 505.194 569.4C506.114 569.4 506.824 569.225 507.324 568.875C507.834 568.515 508.089 567.96 508.089 567.21C508.089 566.76 507.979 566.405 507.759 566.145C507.549 565.885 507.264 565.68 506.904 565.53C506.554 565.38 506.174 565.25 505.764 565.14L504.324 564.75C503.504 564.52 502.869 564.2 502.419 563.79C501.979 563.38 501.759 562.815 501.759 562.095C501.759 561.505 501.899 561 502.179 560.58C502.469 560.15 502.874 559.82 503.394 559.59C503.924 559.36 504.549 559.245 505.269 559.245C505.969 559.245 506.569 559.35 507.069 559.56C507.579 559.76 507.979 560.045 508.269 560.415C508.569 560.775 508.739 561.2 508.779 561.69H507.879ZM376.44 606.15C375.57 606.15 374.86 605.955 374.31 605.565C373.77 605.165 373.375 604.565 373.125 603.765C372.875 602.955 372.75 601.93 372.75 600.69C372.75 599.45 372.875 598.43 373.125 597.63C373.385 596.83 373.785 596.235 374.325 595.845C374.875 595.445 375.58 595.245 376.44 595.245C377.31 595.245 378.015 595.445 378.555 595.845C379.105 596.235 379.505 596.83 379.755 597.63C380.015 598.43 380.145 599.45 380.145 600.69C380.145 601.92 380.015 602.94 379.755 603.75C379.505 604.56 379.105 605.165 378.555 605.565C378.015 605.955 377.31 606.15 376.44 606.15ZM376.44 605.37C377.46 605.37 378.185 604.985 378.615 604.215C379.045 603.445 379.26 602.27 379.26 600.69C379.26 599.11 379.045 597.94 378.615 597.18C378.185 596.41 377.46 596.025 376.44 596.025C375.43 596.025 374.71 596.41 374.28 597.18C373.85 597.94 373.635 599.11 373.635 600.69C373.635 602.27 373.845 603.445 374.265 604.215C374.695 604.985 375.42 605.37 376.44 605.37ZM381.147 605.265L384.777 601.38C385.237 600.89 385.612 600.46 385.902 600.09C386.192 599.71 386.407 599.36 386.547 599.04C386.697 598.71 386.772 598.375 386.772 598.035C386.772 597.385 386.562 596.89 386.142 596.55C385.722 596.2 385.162 596.025 384.462 596.025C383.762 596.025 383.187 596.235 382.737 596.655C382.287 597.065 382.072 597.63 382.092 598.35H381.222C381.212 597.7 381.347 597.145 381.627 596.685C381.907 596.225 382.297 595.87 382.797 595.62C383.297 595.37 383.867 595.245 384.507 595.245C385.177 595.245 385.742 595.36 386.202 595.59C386.672 595.81 387.032 596.13 387.282 596.55C387.532 596.96 387.657 597.455 387.657 598.035C387.657 598.415 387.592 598.785 387.462 599.145C387.332 599.495 387.092 599.9 386.742 600.36C386.402 600.81 385.907 601.38 385.257 602.07L381.837 605.73L381.897 605.22H387.792V606H381.147V605.265Z" fill="#FFFAEE"/>
<path d="M554 606V606.5H553.5V606H554ZM635 605.5H635.5V606.5H635V606V605.5ZM554.5 596.25C554.5 596.526 554.276 596.75 554 596.75C553.724 596.75 553.5 596.526 553.5 596.25H554H554.5ZM553.5 602.75C553.5 602.474 553.724 602.25 554 602.25C554.276 602.25 554.5 602.474 554.5 602.75H554H553.5ZM559.062 605.5C559.339 605.5 559.562 605.724 559.562 606C559.562 606.276 559.339 606.5 559.062 606.5V606V605.5ZM569.188 606.5C568.911 606.5 568.688 606.276 568.688 606C568.688 605.724 568.911 605.5 569.188 605.5V606V606.5ZM579.312 605.5C579.589 605.5 579.812 605.724 579.812 606C579.812 606.276 579.589 606.5 579.312 606.5V606V605.5ZM589.438 606.5C589.161 606.5 588.938 606.276 588.938 606C588.938 605.724 589.161 605.5 589.438 605.5V606V606.5ZM599.562 605.5C599.839 605.5 600.062 605.724 600.062 606C600.062 606.276 599.839 606.5 599.562 606.5V606V605.5ZM609.688 606.5C609.411 606.5 609.188 606.276 609.188 606C609.188 605.724 609.411 605.5 609.688 605.5V606V606.5ZM619.812 605.5C620.089 605.5 620.312 605.724 620.312 606C620.312 606.276 620.089 606.5 619.812 606.5V606V605.5ZM629.938 606.5C629.661 606.5 629.438 606.276 629.438 606C629.438 605.724 629.661 605.5 629.938 605.5V606V606.5ZM554 593H554.5V596.25H554H553.5V593H554ZM554 602.75H554.5V606H554H553.5V602.75H554ZM554 606V605.5H559.062V606V606.5H554V606ZM569.188 606V605.5H579.312V606V606.5H569.188V606ZM589.438 606V605.5H599.562V606V606.5H589.438V606ZM609.688 606V605.5H619.812V606V606.5H609.688V606ZM629.938 606V605.5H635V606V606.5H629.938V606Z" fill="#FFFAEE"/>
<path d="M372 445V444.5H371.5V445H372ZM435 445.5H435.5V444.5H435V445V445.5ZM372.5 454.75C372.5 454.474 372.276 454.25 372 454.25C371.724 454.25 371.5 454.474 371.5 454.75H372H372.5ZM371.5 448.25C371.5 448.526 371.724 448.75 372 448.75C372.276 448.75 372.5 448.526 372.5 448.25H372H371.5ZM377.25 445.5C377.526 445.5 377.75 445.276 377.75 445C377.75 444.724 377.526 444.5 377.25 444.5V445V445.5ZM387.75 444.5C387.474 444.5 387.25 444.724 387.25 445C387.25 445.276 387.474 445.5 387.75 445.5V445V444.5ZM398.25 445.5C398.526 445.5 398.75 445.276 398.75 445C398.75 444.724 398.526 444.5 398.25 444.5V445V445.5ZM408.75 444.5C408.474 444.5 408.25 444.724 408.25 445C408.25 445.276 408.474 445.5 408.75 445.5V445V444.5ZM419.25 445.5C419.526 445.5 419.75 445.276 419.75 445C419.75 444.724 419.526 444.5 419.25 444.5V445V445.5ZM429.75 444.5C429.474 444.5 429.25 444.724 429.25 445C429.25 445.276 429.474 445.5 429.75 445.5V445V444.5ZM372 458H372.5V454.75H372H371.5V458H372ZM372 448.25H372.5V445H372H371.5V448.25H372ZM372 445V445.5H377.25V445V444.5H372V445ZM387.75 445V445.5H398.25V445V444.5H387.75V445ZM408.75 445V445.5H419.25V445V444.5H408.75V445ZM429.75 445V445.5H435V445V444.5H429.75V445Z" fill="#FFFAEE"/>
<path d="M654.5 594C648.71 594 644 598.71 644 604.5C644 610.29 648.71 615 654.5 615C660.29 615 665 610.29 665 604.5C665 598.71 660.29 594 654.5 594ZM664.042 604.5C664.042 609.763 659.763 614.042 654.5 614.042C649.237 614.042 644.958 609.763 644.958 604.5C644.958 599.237 649.237 594.958 654.5 594.958C659.763 594.958 664.042 599.237 664.042 604.5Z" fill="#FFFAEE"/>
<path d="M665.5 594C659.71 594 655 598.71 655 604.5C655 610.29 659.71 615 665.5 615C671.29 615 676 610.29 676 604.5C676 598.71 671.29 594 665.5 594ZM675.042 604.5C675.042 609.763 670.763 614.042 665.5 614.042C660.237 614.042 655.958 609.763 655.958 604.5C655.958 599.237 660.237 594.958 665.5 594.958C670.763 594.958 675.042 599.237 675.042 604.5Z" fill="#FFFAEE"/>
<path d="M694.647 603.859C693.741 603.428 692.151 603.061 690.233 602.973C687.207 602.834 685 603.713 685 604.626C685 605.22 685.991 605.741 687.479 606.032C686.91 605.793 686.596 605.488 686.596 605.125C686.596 604.32 689.303 602.765 693.328 603.598C693.808 603.697 694.247 603.783 694.647 603.859Z" fill="#FFFAEE"/>
<path d="M696.353 605.141C697.259 605.572 698.849 605.939 700.767 606.027C703.793 606.166 706 605.287 706 604.374C706 603.78 705.009 603.259 703.521 602.968C704.09 603.207 704.404 603.512 704.404 603.875C704.404 604.68 701.697 606.235 697.672 605.402C697.192 605.303 696.753 605.217 696.353 605.141Z" fill="#FFFAEE"/>
<path d="M696.141 603.647C696.572 602.741 696.939 601.151 697.027 599.233C697.166 596.207 696.287 594 695.374 594C694.78 594 694.259 594.991 693.968 596.479C694.207 595.91 694.512 595.596 694.875 595.596C695.68 595.596 697.235 598.303 696.402 602.328C696.303 602.808 696.217 603.247 696.141 603.647Z" fill="#FFFAEE"/>
<path d="M694.859 605.353C694.428 606.259 694.061 607.849 693.973 609.767C693.834 612.793 694.713 615 695.626 615C696.22 615 696.741 614.009 697.032 612.521C696.793 613.09 696.488 613.404 696.125 613.404C695.32 613.404 693.765 610.697 694.598 606.672C694.697 606.192 694.783 605.753 694.859 605.353Z" fill="#FFFAEE"/>
<path d="M695.351 603.444C695.014 602.498 694.15 601.115 692.855 599.696C690.814 597.459 688.632 596.519 687.986 597.165C687.566 597.584 687.899 598.653 688.745 599.912C688.512 599.34 688.506 598.902 688.762 598.646C689.332 598.077 692.345 598.891 694.602 602.326C694.871 602.736 695.121 603.107 695.351 603.444Z" fill="#FFFAEE"/>
<path d="M695.649 605.556C695.986 606.502 696.85 607.885 698.145 609.304C700.186 611.541 702.368 612.481 703.014 611.835C703.434 611.416 703.101 610.347 702.255 609.088C702.488 609.66 702.494 610.098 702.238 610.354C701.668 610.923 698.655 610.109 696.398 606.674C696.128 606.264 695.879 605.893 695.649 605.556Z" fill="#FFFAEE"/>
<path d="M696.556 604.351C697.502 604.014 698.885 603.15 700.304 601.855C702.541 599.814 703.481 597.632 702.835 596.986C702.416 596.566 701.347 596.899 700.088 597.745C700.66 597.512 701.098 597.506 701.354 597.762C701.923 598.332 701.109 601.345 697.674 603.602C697.264 603.871 696.893 604.121 696.556 604.351Z" fill="#FFFAEE"/>
<path d="M694.444 604.649C693.498 604.986 692.115 605.85 690.696 607.145C688.458 609.186 687.519 611.368 688.165 612.014C688.584 612.434 689.653 612.101 690.912 611.255C690.34 611.488 689.902 611.494 689.646 611.238C689.077 610.668 689.891 607.655 693.326 605.398C693.736 605.129 694.107 604.879 694.444 604.649Z" fill="#FFFAEE"/>
<path d="M694.467 604.234C693.465 604.183 691.856 604.452 690.05 605.105C687.201 606.135 685.498 607.791 685.848 608.635C686.075 609.183 687.19 609.285 688.676 608.985C688.059 608.981 687.652 608.82 687.513 608.484C687.205 607.741 689.111 605.269 693.148 604.498C693.63 604.406 694.068 604.317 694.467 604.234Z" fill="#FFFAEE"/>
<path d="M696.533 604.766C697.535 604.817 699.144 604.548 700.95 603.895C703.799 602.865 705.502 601.209 705.152 600.365C704.925 599.817 703.81 599.715 702.324 600.015C702.941 600.019 703.348 600.18 703.487 600.516C703.795 601.259 701.889 603.731 697.852 604.502C697.37 604.594 696.932 604.683 696.533 604.766Z" fill="#FFFAEE"/>
<path d="M695.766 603.467C695.817 602.465 695.548 600.856 694.895 599.05C693.865 596.201 692.209 594.498 691.365 594.848C690.817 595.075 690.715 596.19 691.015 597.676C691.019 597.059 691.18 596.652 691.516 596.513C692.259 596.205 694.731 598.111 695.502 602.148C695.594 602.63 695.683 603.068 695.766 603.467Z" fill="#FFFAEE"/>
<path d="M695.234 605.533C695.183 606.535 695.452 608.144 696.105 609.95C697.135 612.799 698.791 614.502 699.635 614.152C700.183 613.925 700.285 612.81 699.985 611.324C699.981 611.941 699.82 612.348 699.484 612.487C698.741 612.795 696.269 610.889 695.498 606.852C695.406 606.37 695.317 605.932 695.234 605.533Z" fill="#FFFAEE"/>
<path d="M694.958 603.581C694.285 602.837 692.957 601.889 691.218 601.074C688.476 599.788 686.1 599.755 685.751 600.598C685.524 601.147 686.24 602.007 687.504 602.846C687.069 602.407 686.896 602.005 687.035 601.67C687.343 600.926 690.439 600.526 693.839 602.835C694.244 603.111 694.617 603.358 694.958 603.581Z" fill="#FFFAEE"/>
<path d="M696.042 605.419C696.715 606.163 698.043 607.111 699.782 607.926C702.524 609.212 704.9 609.245 705.249 608.402C705.476 607.853 704.76 606.993 703.496 606.154C703.931 606.593 704.104 606.995 703.965 607.33C703.657 608.074 700.561 608.474 697.161 606.165C696.756 605.889 696.383 605.642 696.042 605.419Z" fill="#FFFAEE"/>
<path d="M696.419 603.958C697.163 603.285 698.111 601.957 698.926 600.218C700.212 597.476 700.245 595.1 699.402 594.751C698.853 594.524 697.993 595.24 697.154 596.504C697.593 596.069 697.995 595.896 698.33 596.035C699.074 596.343 699.474 599.439 697.165 602.839C696.889 603.244 696.642 603.617 696.419 603.958Z" fill="#FFFAEE"/>
<path d="M694.581 605.042C693.837 605.715 692.889 607.043 692.074 608.782C690.788 611.524 690.755 613.9 691.598 614.249C692.147 614.476 693.007 613.76 693.846 612.496C693.407 612.931 693.005 613.104 692.67 612.965C691.926 612.657 691.525 609.561 693.835 606.161C694.111 605.756 694.358 605.383 694.581 605.042Z" fill="#FFFAEE"/>
<path d="M556.499 468V449.644H572.787V453.471H561.67V457.452H572.218V461.123H561.67V468H556.499ZM584.034 468.31C581.707 468.31 579.725 467.905 578.087 467.095C576.467 466.268 575.226 465.139 574.365 463.708C573.503 462.278 573.072 460.658 573.072 458.848C573.072 457.021 573.494 455.392 574.339 453.962C575.2 452.531 576.45 451.402 578.087 450.575C579.725 449.748 581.707 449.334 584.034 449.334C586.378 449.334 588.36 449.748 589.98 450.575C591.617 451.385 592.858 452.506 593.702 453.936C594.564 455.367 594.995 457.004 594.995 458.848C594.995 460.658 594.564 462.278 593.702 463.708C592.858 465.139 591.617 466.268 589.98 467.095C588.36 467.905 586.378 468.31 584.034 468.31ZM584.034 464.381C585.792 464.381 587.188 463.924 588.222 463.01C589.256 462.08 589.773 460.796 589.773 459.158V458.486C589.773 456.849 589.256 455.573 588.222 454.66C587.188 453.729 585.792 453.264 584.034 453.264C582.276 453.264 580.879 453.729 579.845 454.66C578.811 455.573 578.294 456.849 578.294 458.486V459.158C578.294 460.796 578.811 462.08 579.845 463.01C580.879 463.924 582.276 464.381 584.034 464.381ZM596.291 468V449.644H607.614C610.062 449.644 611.897 450.17 613.121 451.222C614.362 452.256 614.982 453.764 614.982 455.746C614.982 457.176 614.637 458.366 613.948 459.313C613.276 460.261 612.293 460.968 611.001 461.433L615.163 468H609.269L605.701 462.106H601.461V468H596.291ZM607.149 453.471H601.461V458.409H607.149C608.924 458.409 609.812 457.624 609.812 456.056V455.797C609.812 454.246 608.924 453.471 607.149 453.471ZM616.287 468V449.644H624.095L630.248 462.39H630.274L636.426 449.644H644.286V468H639.115V454.401H639.089L632.471 468H627.74L621.122 454.401H621.096V468H616.287ZM691.51 468.31C689.873 468.31 688.408 468.112 687.115 467.716C685.84 467.302 684.84 466.699 684.116 465.906C683.392 465.113 683.03 464.139 683.03 462.985C683.03 461.916 683.409 460.977 684.168 460.167C684.926 459.357 686.124 458.693 687.761 458.176C687.158 457.573 686.658 456.952 686.262 456.315C685.883 455.677 685.693 454.979 685.693 454.22C685.693 453.255 685.995 452.411 686.598 451.687C687.201 450.946 688.046 450.368 689.131 449.955C690.235 449.541 691.519 449.334 692.984 449.334C694.38 449.334 695.621 449.515 696.706 449.877C697.809 450.239 698.671 450.782 699.292 451.506C699.912 452.213 700.222 453.1 700.222 454.169C700.222 455.272 699.835 456.263 699.059 457.142C698.283 458.004 696.948 458.719 695.052 459.288L698.077 461.925C698.8 461.183 699.317 460.52 699.628 459.934C699.938 459.348 700.214 458.702 700.455 457.995H705.16C704.953 458.926 704.678 459.762 704.333 460.503C704.005 461.227 703.583 461.916 703.066 462.571C702.549 463.226 701.911 463.898 701.153 464.587L705.083 468H698.283L697.327 467.095C696.517 467.474 695.629 467.776 694.664 468C693.716 468.207 692.665 468.31 691.51 468.31ZM690.838 454.582C690.838 455.031 690.95 455.418 691.174 455.746C691.398 456.056 691.751 456.418 692.234 456.832C693.44 456.47 694.276 456.134 694.742 455.823C695.207 455.513 695.44 455.099 695.44 454.582C695.44 454.152 695.241 453.798 694.845 453.522C694.449 453.229 693.819 453.083 692.958 453.083C692.217 453.083 691.674 453.238 691.329 453.548C691.002 453.859 690.838 454.203 690.838 454.582ZM688.511 462.571C688.511 463.14 688.778 463.605 689.312 463.967C689.847 464.312 690.717 464.484 691.924 464.484C692.406 464.484 692.837 464.467 693.216 464.432C693.595 464.381 693.931 464.312 694.224 464.225L690.372 460.658C689.131 461.106 688.511 461.744 688.511 462.571ZM556.499 491V472.644H572.787V476.471H561.67V480.452H572.218V484.123H561.67V491H556.499ZM583.408 491.31C581.409 491.31 579.685 491.052 578.238 490.535C576.807 490 575.704 489.173 574.928 488.053C574.153 486.932 573.765 485.467 573.765 483.658V472.644H578.936V483.425C578.936 484.235 579.065 484.933 579.323 485.519C579.582 486.105 580.039 486.553 580.694 486.864C581.349 487.174 582.279 487.329 583.486 487.329C584.675 487.329 585.597 487.174 586.252 486.864C586.924 486.553 587.39 486.105 587.648 485.519C587.924 484.933 588.062 484.235 588.062 483.425V472.644H593.103V483.658C593.103 485.467 592.715 486.932 591.94 488.053C591.164 489.173 590.052 490 588.605 490.535C587.174 491.052 585.442 491.31 583.408 491.31ZM594.877 491V472.644H600.177L608.967 482.934H608.992V472.644H613.801V491H609.846L599.711 479.159H599.685V491H594.877ZM626.434 491.336C624.228 491.336 622.263 490.948 620.54 490.173C618.833 489.38 617.489 488.277 616.507 486.864C615.542 485.433 615.059 483.753 615.059 481.822C615.059 479.892 615.542 478.22 616.507 476.807C617.489 475.394 618.833 474.299 620.54 473.523C622.263 472.748 624.228 472.36 626.434 472.36C628.365 472.36 630.062 472.636 631.527 473.187C632.992 473.739 634.199 474.497 635.147 475.462C636.094 476.41 636.732 477.479 637.06 478.668L632.432 479.78C632.07 478.884 631.587 478.186 630.984 477.686C630.381 477.169 629.692 476.807 628.916 476.6C628.158 476.393 627.356 476.29 626.512 476.29C625.374 476.29 624.331 476.488 623.384 476.884C622.436 477.264 621.677 477.841 621.108 478.617C620.557 479.392 620.281 480.374 620.281 481.564V482.081C620.281 483.253 620.557 484.235 621.108 485.028C621.677 485.804 622.436 486.39 623.384 486.786C624.331 487.165 625.374 487.355 626.512 487.355C627.356 487.355 628.158 487.251 628.916 487.045C629.692 486.838 630.381 486.484 630.984 485.985C631.587 485.467 632.07 484.761 632.432 483.865L637.06 484.976C636.732 486.166 636.094 487.243 635.147 488.208C634.199 489.156 632.992 489.914 631.527 490.483C630.062 491.052 628.365 491.336 626.434 491.336ZM643.322 491V476.471H636.031V472.644H655.783V476.471H648.492V491H643.322ZM656.659 491V472.644H661.829V491H656.659ZM674.094 491.31C671.767 491.31 669.785 490.905 668.148 490.095C666.528 489.268 665.287 488.139 664.425 486.708C663.564 485.278 663.133 483.658 663.133 481.848C663.133 480.021 663.555 478.392 664.399 476.962C665.261 475.531 666.511 474.402 668.148 473.575C669.785 472.748 671.767 472.334 674.094 472.334C676.438 472.334 678.42 472.748 680.04 473.575C681.678 474.385 682.919 475.506 683.763 476.936C684.625 478.367 685.056 480.004 685.056 481.848C685.056 483.658 684.625 485.278 683.763 486.708C682.919 488.139 681.678 489.268 680.04 490.095C678.42 490.905 676.438 491.31 674.094 491.31ZM674.094 487.381C675.852 487.381 677.248 486.924 678.282 486.01C679.316 485.08 679.834 483.796 679.834 482.158V481.486C679.834 479.849 679.316 478.573 678.282 477.66C677.248 476.729 675.852 476.264 674.094 476.264C672.336 476.264 670.94 476.729 669.906 477.66C668.872 478.573 668.355 479.849 668.355 481.486V482.158C668.355 483.796 668.872 485.08 669.906 486.01C670.94 486.924 672.336 487.381 674.094 487.381ZM686.351 491V472.644H691.651L700.441 482.934H700.467V472.644H705.276V491H701.32L691.186 479.159H691.16V491H686.351Z" fill="#FFFAEE"/>
<rect x="556" y="502" width="151" height="17" fill="#FFFAEE"/>
<path d="M565.612 511.64H572.236L572.032 512.792H565.396L565.612 511.64ZM566.14 508.664H572.764L572.56 509.804H565.924L566.14 508.664ZM567.652 506.456H568.9L567.448 515H566.2L567.652 506.456ZM570.772 506.456H572.02L570.568 515H569.32L570.772 506.456ZM578.28 506.516H583.668V507.764H579.78V510.14H583.284V511.388H579.78V515H578.28V506.516ZM589.078 506.516H594.466V507.764H590.578V510.14H594.082V511.388H590.578V515H589.078V506.516ZM599.876 506.516H605.264V507.764H601.376V510.14H604.88V511.388H601.376V515H599.876V506.516ZM613.163 508.22H613.115L610.691 515H609.215L612.371 506.516H613.943L617.087 515H615.551L613.163 508.22ZM615.395 512.864H610.919V511.604H615.395V512.864ZM622.42 506.516H627.808V507.764H623.92V510.116H627.532V511.364H623.92V513.752H627.868V515H622.42V506.516ZM633.663 506.516H639.051V507.764H635.163V510.116H638.775V511.364H635.163V513.752H639.111V515H633.663V506.516ZM649.514 516.188H643.97V515H649.514V516.188ZM659.018 508.808C658.978 508.424 658.834 508.136 658.586 507.944C658.338 507.752 657.954 507.656 657.434 507.656C656.914 507.656 656.526 507.76 656.27 507.968C656.022 508.176 655.898 508.46 655.898 508.82C655.898 509.004 655.942 509.16 656.03 509.288C656.126 509.416 656.246 509.524 656.39 509.612C656.534 509.692 656.686 509.76 656.846 509.816C657.006 509.872 657.154 509.92 657.29 509.96L658.07 510.176C658.302 510.248 658.562 510.34 658.85 510.452C659.146 510.556 659.43 510.696 659.702 510.872C659.982 511.048 660.21 511.276 660.386 511.556C660.562 511.836 660.65 512.188 660.65 512.612C660.65 513.116 660.526 513.56 660.278 513.944C660.038 514.328 659.678 514.628 659.198 514.844C658.726 515.052 658.13 515.156 657.41 515.156C656.378 515.156 655.594 514.932 655.058 514.484C654.53 514.028 654.246 513.412 654.206 512.636H655.718C655.734 512.932 655.81 513.172 655.946 513.356C656.082 513.54 656.274 513.676 656.522 513.764C656.77 513.852 657.066 513.896 657.41 513.896C657.97 513.896 658.402 513.78 658.706 513.548C659.01 513.316 659.162 512.996 659.162 512.588C659.162 512.356 659.098 512.172 658.97 512.036C658.842 511.892 658.67 511.776 658.454 511.688C658.238 511.592 657.994 511.508 657.722 511.436L656.75 511.148C656.046 510.948 655.482 510.668 655.058 510.308C654.642 509.94 654.434 509.456 654.434 508.856C654.434 508.328 654.562 507.884 654.818 507.524C655.082 507.156 655.442 506.876 655.898 506.684C656.362 506.492 656.886 506.396 657.47 506.396C658.102 506.396 658.638 506.5 659.078 506.708C659.526 506.908 659.87 507.192 660.11 507.56C660.35 507.92 660.474 508.336 660.482 508.808H659.018ZM666.15 506.516H669.162C669.906 506.516 670.502 506.64 670.95 506.888C671.406 507.136 671.734 507.472 671.934 507.896C672.142 508.312 672.246 508.78 672.246 509.3C672.246 509.804 672.142 510.268 671.934 510.692C671.734 511.116 671.406 511.456 670.95 511.712C670.502 511.96 669.906 512.084 669.162 512.084H667.65V515H666.15V506.516ZM669.114 510.824C669.57 510.824 669.914 510.764 670.146 510.644C670.378 510.524 670.534 510.352 670.614 510.128C670.702 509.896 670.746 509.62 670.746 509.3C670.746 508.972 670.702 508.696 670.614 508.472C670.534 508.248 670.378 508.076 670.146 507.956C669.914 507.836 669.57 507.776 669.114 507.776H667.65V510.824H669.114ZM677.709 506.516H683.097V507.764H679.209V510.116H682.821V511.364H679.209V513.752H683.157V515H677.709V506.516ZM694.083 509.3C693.995 508.732 693.783 508.316 693.447 508.052C693.119 507.788 692.671 507.656 692.103 507.656C691.343 507.656 690.771 507.912 690.387 508.424C690.011 508.936 689.823 509.712 689.823 510.752C689.823 511.8 690.011 512.58 690.387 513.092C690.771 513.604 691.343 513.86 692.103 513.86C692.671 513.86 693.123 513.728 693.459 513.464C693.795 513.2 694.007 512.788 694.095 512.228H695.583C695.487 513.156 695.131 513.872 694.515 514.376C693.907 514.872 693.103 515.12 692.103 515.12C690.919 515.12 689.991 514.748 689.319 514.004C688.655 513.252 688.323 512.168 688.323 510.752C688.323 509.336 688.655 508.256 689.319 507.512C689.991 506.768 690.919 506.396 692.103 506.396C692.719 506.396 693.275 506.508 693.771 506.732C694.275 506.956 694.683 507.284 694.995 507.716C695.315 508.148 695.507 508.676 695.571 509.3H694.083Z" fill="#191919"/>
</svg>
