<svg width="1080" height="1080" viewBox="0 0 1080 1080" fill="none" xmlns="http://www.w3.org/2000/svg">
<rect width="1080" height="1080" fill="#191919"/>
<path d="M689.36 640.26C688.427 640.26 687.52 640.093 686.64 639.76C685.76 639.427 684.967 638.94 684.26 638.3C683.553 637.66 682.987 636.887 682.56 635.98C682.147 635.073 681.94 634.04 681.94 632.88C681.94 631.72 682.147 630.687 682.56 629.78C682.987 628.873 683.553 628.107 684.26 627.48C684.967 626.84 685.76 626.353 686.64 626.02C687.52 625.687 688.427 625.52 689.36 625.52C690.293 625.52 691.2 625.687 692.08 626.02C692.96 626.353 693.753 626.84 694.46 627.48C695.167 628.107 695.727 628.873 696.14 629.78C696.553 630.687 696.76 631.72 696.76 632.88C696.76 634.04 696.553 635.073 696.14 635.98C695.727 636.887 695.167 637.66 694.46 638.3C693.753 638.94 692.96 639.427 692.08 639.76C691.2 640.093 690.293 640.26 689.36 640.26ZM689.36 639.34C690.147 639.34 690.92 639.2 691.68 638.92C692.44 638.627 693.127 638.207 693.74 637.66C694.353 637.1 694.84 636.42 695.2 635.62C695.573 634.82 695.76 633.907 695.76 632.88C695.76 631.853 695.573 630.94 695.2 630.14C694.84 629.34 694.353 628.667 693.74 628.12C693.127 627.56 692.44 627.14 691.68 626.86C690.92 626.567 690.147 626.42 689.36 626.42C688.56 626.42 687.78 626.567 687.02 626.86C686.26 627.14 685.573 627.56 684.96 628.12C684.347 628.667 683.853 629.34 683.48 630.14C683.12 630.94 682.94 631.853 682.94 632.88C682.94 633.907 683.12 634.82 683.48 635.62C683.853 636.42 684.347 637.1 684.96 637.66C685.573 638.207 686.26 638.627 687.02 638.92C687.78 639.2 688.56 639.34 689.36 639.34ZM689.44 636.8C688.213 636.8 687.287 636.447 686.66 635.74C686.033 635.033 685.72 634.073 685.72 632.86C685.72 631.647 686.04 630.693 686.68 630C687.333 629.307 688.24 628.96 689.4 628.96C690.013 628.96 690.54 629.06 690.98 629.26C691.433 629.46 691.793 629.747 692.06 630.12C692.34 630.48 692.52 630.913 692.6 631.42H691.48C691.387 630.953 691.193 630.587 690.9 630.32C690.62 630.053 690.127 629.92 689.42 629.92C688.567 629.92 687.913 630.173 687.46 630.68C687.007 631.187 686.78 631.913 686.78 632.86C686.78 633.82 687.007 634.56 687.46 635.08C687.913 635.587 688.567 635.84 689.42 635.84C690.087 635.84 690.573 635.733 690.88 635.52C691.187 635.293 691.387 634.933 691.48 634.44H692.6C692.547 634.907 692.387 635.32 692.12 635.68C691.867 636.027 691.513 636.3 691.06 636.5C690.62 636.7 690.08 636.8 689.44 636.8ZM703.839 639.02L708.679 633.84C709.293 633.187 709.793 632.613 710.179 632.12C710.566 631.613 710.853 631.147 711.039 630.72C711.239 630.28 711.339 629.833 711.339 629.38C711.339 628.513 711.059 627.853 710.499 627.4C709.939 626.933 709.193 626.7 708.259 626.7C707.326 626.7 706.559 626.98 705.959 627.54C705.359 628.087 705.073 628.84 705.099 629.8H703.939C703.926 628.933 704.106 628.193 704.479 627.58C704.853 626.967 705.373 626.493 706.039 626.16C706.706 625.827 707.466 625.66 708.319 625.66C709.213 625.66 709.966 625.813 710.579 626.12C711.206 626.413 711.686 626.84 712.019 627.4C712.353 627.947 712.519 628.607 712.519 629.38C712.519 629.887 712.433 630.38 712.259 630.86C712.086 631.327 711.766 631.867 711.299 632.48C710.846 633.08 710.186 633.84 709.319 634.76L704.759 639.64L704.839 638.96H712.699V640H703.839V639.02ZM724.752 640.2C723.592 640.2 722.645 639.94 721.912 639.42C721.192 638.887 720.665 638.087 720.332 637.02C719.999 635.94 719.832 634.573 719.832 632.92C719.832 631.267 719.999 629.907 720.332 628.84C720.679 627.773 721.212 626.98 721.932 626.46C722.665 625.927 723.605 625.66 724.752 625.66C725.912 625.66 726.852 625.927 727.572 626.46C728.305 626.98 728.839 627.773 729.172 628.84C729.519 629.907 729.692 631.267 729.692 632.92C729.692 634.56 729.519 635.92 729.172 637C728.839 638.08 728.305 638.887 727.572 639.42C726.852 639.94 725.912 640.2 724.752 640.2ZM724.752 639.16C726.112 639.16 727.079 638.647 727.652 637.62C728.225 636.593 728.512 635.027 728.512 632.92C728.512 630.813 728.225 629.253 727.652 628.24C727.079 627.213 726.112 626.7 724.752 626.7C723.405 626.7 722.445 627.213 721.872 628.24C721.299 629.253 721.012 630.813 721.012 632.92C721.012 635.027 721.292 636.593 721.852 637.62C722.425 638.647 723.392 639.16 724.752 639.16ZM736.828 639.02L741.668 633.84C742.281 633.187 742.781 632.613 743.168 632.12C743.554 631.613 743.841 631.147 744.028 630.72C744.228 630.28 744.328 629.833 744.328 629.38C744.328 628.513 744.048 627.853 743.488 627.4C742.928 626.933 742.181 626.7 741.248 626.7C740.314 626.7 739.548 626.98 738.948 627.54C738.348 628.087 738.061 628.84 738.088 629.8H736.928C736.914 628.933 737.094 628.193 737.468 627.58C737.841 626.967 738.361 626.493 739.028 626.16C739.694 625.827 740.454 625.66 741.308 625.66C742.201 625.66 742.954 625.813 743.568 626.12C744.194 626.413 744.674 626.84 745.008 627.4C745.341 627.947 745.508 628.607 745.508 629.38C745.508 629.887 745.421 630.38 745.248 630.86C745.074 631.327 744.754 631.867 744.288 632.48C743.834 633.08 743.174 633.84 742.308 634.76L737.748 639.64L737.828 638.96H745.688V640H736.828V639.02ZM753.2 635.56C753.214 635.04 753.274 634.533 753.38 634.04C753.5 633.547 753.707 633.02 754 632.46C754.307 631.9 754.727 631.26 755.26 630.54L758.76 625.86H760.18L755.44 632.14L755.28 631.96C755.56 631.787 755.814 631.647 756.04 631.54C756.267 631.42 756.514 631.333 756.78 631.28C757.047 631.213 757.374 631.18 757.76 631.18C758.734 631.18 759.56 631.36 760.24 631.72C760.92 632.067 761.434 632.573 761.78 633.24C762.14 633.907 762.32 634.713 762.32 635.66C762.32 636.567 762.147 637.36 761.8 638.04C761.454 638.72 760.94 639.253 760.26 639.64C759.58 640.013 758.747 640.2 757.76 640.2C756.267 640.2 755.127 639.78 754.34 638.94C753.567 638.087 753.187 636.96 753.2 635.56ZM754.38 635.66C754.38 636.727 754.64 637.58 755.16 638.22C755.694 638.847 756.56 639.16 757.76 639.16C758.947 639.16 759.807 638.847 760.34 638.22C760.874 637.58 761.14 636.727 761.14 635.66C761.14 634.593 760.874 633.753 760.34 633.14C759.807 632.527 758.947 632.22 757.76 632.22C756.694 632.22 755.86 632.527 755.26 633.14C754.674 633.753 754.38 634.593 754.38 635.66Z" fill="#FFFAEE"/>
<path d="M723.616 434.085C697.147 434.085 675.616 451.349 675.616 472.585C675.616 493.82 697.147 511.085 723.616 511.085C750.085 511.085 771.616 493.82 771.616 472.585C771.616 451.349 750.085 434.085 723.616 434.085ZM721.495 440.368V454.788C717.191 454.727 713.021 454.473 709.096 454.061C713.143 448.02 718.203 443.189 721.495 440.368ZM721.495 458.747V470.612H702.756C703.121 466.071 704.682 461.737 706.84 457.79C711.449 458.359 716.399 458.686 721.507 458.759L721.495 458.747ZM721.495 474.558V486.423C716.386 486.496 711.436 486.823 706.828 487.392C704.682 483.445 703.109 479.111 702.756 474.57H721.495V474.558ZM721.495 490.37V504.801C718.203 501.981 713.131 497.15 709.083 491.109C713.009 490.685 717.191 490.431 721.495 490.37ZM725.75 504.789V490.37C730.017 490.431 734.187 490.697 738.137 491.133C734.089 497.162 729.042 501.981 725.75 504.801V504.789ZM725.75 486.411V474.546H744.489C744.123 479.098 742.563 483.433 740.405 487.38C735.796 486.811 730.858 486.472 725.75 486.399V486.411ZM725.75 470.599V458.735C730.858 458.662 735.796 458.323 740.405 457.754C742.563 461.701 744.135 466.047 744.489 470.587H725.75V470.599ZM725.75 454.788V440.368C729.042 443.189 734.089 448.008 738.137 454.037C734.187 454.473 730.017 454.727 725.75 454.8V454.788ZM729.737 438.383C740.466 439.569 749.963 443.855 756.73 450.042C752.975 451.47 748.171 452.621 742.77 453.432C738.734 446.93 733.504 441.688 729.737 438.383ZM704.45 453.468C699.049 452.657 694.27 451.507 690.478 450.066C697.245 443.855 706.755 439.569 717.508 438.371C713.741 441.688 708.498 446.943 704.463 453.456L704.45 453.468ZM702.39 457.149C700.305 461.277 698.805 465.805 698.476 470.599H679.944C680.408 464.159 683.114 458.19 687.455 453.165C691.441 454.836 696.55 456.192 702.39 457.149ZM698.476 474.558C698.805 479.353 700.305 483.881 702.39 488.009C696.562 488.966 691.454 490.309 687.455 491.992C683.114 486.968 680.408 480.999 679.944 474.558H698.464H698.476ZM704.45 491.69C708.498 498.203 713.728 503.458 717.496 506.775C706.742 505.576 697.233 501.29 690.466 495.08C694.27 493.639 699.037 492.489 704.438 491.678L704.45 491.69ZM742.758 491.726C748.171 492.537 752.962 493.699 756.718 495.116C749.951 501.303 740.453 505.588 729.724 506.775C733.492 503.458 738.71 498.215 742.758 491.726ZM744.843 488.021C746.94 483.881 748.439 479.353 748.768 474.546H767.288C766.825 480.999 764.106 486.98 759.753 492.017C755.779 490.334 750.67 488.978 744.843 488.021ZM748.768 470.599C748.439 465.805 746.94 461.265 744.843 457.124C750.67 456.168 755.767 454.812 759.753 453.129C764.106 458.166 766.825 464.146 767.288 470.599H748.768Z" fill="#FFFAEE"/>
<path d="M325.748 452.735C325.748 456.447 324.942 459.311 323.33 461.327C321.739 463.321 319.394 464.318 316.297 464.318C313.2 464.318 310.845 463.321 309.232 461.327C307.641 459.311 306.846 456.447 306.846 452.735C306.846 449.022 307.641 446.169 309.232 444.175C310.845 442.18 313.2 441.183 316.297 441.183C319.394 441.183 321.739 442.18 323.33 444.175C324.942 446.169 325.748 449.022 325.748 452.735ZM323.839 452.735C323.839 449.362 323.213 446.879 321.961 445.288C320.731 443.697 318.843 442.902 316.297 442.902C313.751 442.902 311.852 443.697 310.601 445.288C309.37 446.879 308.755 449.362 308.755 452.735C308.755 456.108 309.37 458.601 310.601 460.213C311.852 461.804 313.751 462.6 316.297 462.6C318.843 462.6 320.731 461.804 321.961 460.213C323.213 458.601 323.839 456.108 323.839 452.735ZM333.257 441.501H340.767C342.571 441.501 344.024 441.788 345.127 442.361C346.23 442.912 347.036 443.697 347.545 444.716C348.055 445.734 348.309 446.943 348.309 448.343C348.309 449.744 348.055 450.963 347.545 452.003C347.036 453.042 346.23 453.849 345.127 454.421C344.045 454.994 342.613 455.281 340.831 455.281H335.166V464H333.257V441.501ZM340.704 453.626C342.189 453.626 343.345 453.414 344.172 452.989C345 452.544 345.572 451.929 345.891 451.144C346.23 450.338 346.4 449.404 346.4 448.343C346.4 447.261 346.23 446.339 345.891 445.575C345.572 444.79 345 444.196 344.172 443.793C343.345 443.368 342.167 443.156 340.64 443.156H335.166V453.626H340.704ZM352.424 441.501H369.036V443.156H361.685V464H359.775V443.156H352.424V441.501ZM380.238 464H378.329V441.501H380.238V464ZM374.86 443.156V441.501H383.675V443.156H374.86ZM374.86 464V462.345H383.675V464H374.86ZM406.184 448.025C405.908 446.307 405.218 445.023 404.115 444.175C403.033 443.326 401.591 442.902 399.787 442.902C397.411 442.902 395.566 443.708 394.25 445.32C392.956 446.933 392.309 449.393 392.309 452.703C392.309 456.034 392.956 458.516 394.25 460.149C395.566 461.762 397.411 462.568 399.787 462.568C401.591 462.568 403.033 462.144 404.115 461.295C405.218 460.446 405.918 459.174 406.215 457.476H408.22C407.86 459.704 406.969 461.401 405.547 462.568C404.126 463.735 402.206 464.318 399.787 464.318C396.647 464.318 394.293 463.311 392.723 461.295C391.174 459.258 390.4 456.394 390.4 452.703C390.4 449.033 391.174 446.201 392.723 444.206C394.293 442.191 396.647 441.183 399.787 441.183C401.294 441.183 402.63 441.438 403.797 441.947C404.985 442.456 405.95 443.22 406.693 444.238C407.457 445.257 407.955 446.519 408.188 448.025H406.184ZM422.199 443.952H422.072L415.007 464H413.066L421.117 441.501H423.281L431.3 464H429.264L422.199 443.952ZM427.322 457.254H417.044V455.599H427.322V457.254ZM437.762 441.501H439.671V462.345H450.395V464H437.762V441.501ZM467.161 467.373H465.378L472.698 440.292H474.48L467.161 467.373ZM490.465 462.441L498.166 454.199C499.141 453.159 499.937 452.247 500.552 451.462C501.168 450.656 501.624 449.913 501.921 449.234C502.239 448.534 502.398 447.824 502.398 447.102C502.398 445.723 501.952 444.673 501.061 443.952C500.17 443.209 498.982 442.838 497.497 442.838C496.012 442.838 494.792 443.284 493.838 444.175C492.883 445.044 492.427 446.243 492.469 447.771H490.624C490.602 446.392 490.889 445.214 491.483 444.238C492.077 443.262 492.904 442.509 493.965 441.979C495.026 441.448 496.235 441.183 497.593 441.183C499.014 441.183 500.213 441.427 501.189 441.915C502.186 442.382 502.95 443.061 503.48 443.952C504.01 444.822 504.276 445.872 504.276 447.102C504.276 447.908 504.138 448.693 503.862 449.457C503.586 450.2 503.077 451.059 502.334 452.035C501.613 452.989 500.563 454.199 499.184 455.663L491.928 463.427L492.056 462.345H504.562V464H490.465V462.441ZM518.648 464.318C516.802 464.318 515.296 463.905 514.129 463.077C512.983 462.229 512.145 460.956 511.615 459.258C511.085 457.54 510.82 455.365 510.82 452.735C510.82 450.104 511.085 447.94 511.615 446.243C512.167 444.546 513.015 443.284 514.161 442.456C515.328 441.608 516.823 441.183 518.648 441.183C520.494 441.183 521.989 441.608 523.135 442.456C524.302 443.284 525.15 444.546 525.681 446.243C526.232 447.94 526.508 450.104 526.508 452.735C526.508 455.344 526.232 457.508 525.681 459.227C525.15 460.945 524.302 462.229 523.135 463.077C521.989 463.905 520.494 464.318 518.648 464.318ZM518.648 462.663C520.812 462.663 522.35 461.847 523.262 460.213C524.174 458.58 524.63 456.087 524.63 452.735C524.63 449.383 524.174 446.901 523.262 445.288C522.35 443.655 520.812 442.838 518.648 442.838C516.505 442.838 514.978 443.655 514.065 445.288C513.153 446.901 512.697 449.383 512.697 452.735C512.697 456.087 513.143 458.58 514.034 460.213C514.946 461.847 516.484 462.663 518.648 462.663Z" fill="#FFFAEE"/>
<path d="M306.814 505.401L314.515 497.159C315.491 496.12 316.286 495.207 316.902 494.422C317.517 493.616 317.973 492.874 318.27 492.195C318.588 491.495 318.747 490.784 318.747 490.063C318.747 488.684 318.302 487.634 317.411 486.912C316.52 486.17 315.332 485.798 313.847 485.798C312.362 485.798 311.142 486.244 310.187 487.135C309.232 488.005 308.776 489.203 308.819 490.731H306.973C306.952 489.352 307.238 488.175 307.832 487.199C308.426 486.223 309.254 485.47 310.314 484.939C311.375 484.409 312.584 484.144 313.942 484.144C315.364 484.144 316.562 484.388 317.538 484.876C318.535 485.342 319.299 486.021 319.829 486.912C320.36 487.782 320.625 488.832 320.625 490.063C320.625 490.869 320.487 491.654 320.211 492.418C319.935 493.16 319.426 494.019 318.684 494.995C317.962 495.95 316.912 497.159 315.533 498.623L308.278 506.388L308.405 505.306H320.911V506.96H306.814V505.401ZM327.773 499.896C327.795 499.068 327.89 498.262 328.06 497.477C328.251 496.692 328.58 495.854 329.046 494.963C329.534 494.072 330.203 493.054 331.051 491.908L336.62 484.462H338.88L331.338 494.454L331.083 494.168C331.529 493.892 331.932 493.669 332.292 493.5C332.653 493.309 333.045 493.171 333.47 493.086C333.894 492.98 334.414 492.927 335.029 492.927C336.578 492.927 337.893 493.213 338.975 493.786C340.057 494.338 340.874 495.144 341.425 496.204C341.998 497.265 342.285 498.549 342.285 500.055C342.285 501.498 342.009 502.76 341.457 503.842C340.906 504.924 340.089 505.772 339.007 506.388C337.925 506.982 336.599 507.279 335.029 507.279C332.653 507.279 330.839 506.61 329.587 505.274C328.357 503.916 327.752 502.123 327.773 499.896ZM329.651 500.055C329.651 501.752 330.065 503.11 330.892 504.128C331.741 505.125 333.12 505.624 335.029 505.624C336.917 505.624 338.286 505.125 339.134 504.128C339.983 503.11 340.407 501.752 340.407 500.055C340.407 498.358 339.983 497.021 339.134 496.045C338.286 495.069 336.917 494.581 335.029 494.581C333.332 494.581 332.006 495.069 331.051 496.045C330.118 497.021 329.651 498.358 329.651 500.055ZM360.387 510.334H358.605L365.924 483.253H367.706L360.387 510.334ZM391.806 486.912H391.679L384.614 506.96H382.673L390.724 484.462H392.888L400.907 506.96H398.871L391.806 486.912ZM396.93 500.214H386.651V498.559H396.93V500.214ZM417.234 496.65L423.089 506.96H420.957L415.324 497L417.234 496.65ZM414.752 496.045C416.258 496.045 417.425 495.854 418.252 495.473C419.079 495.091 419.663 494.528 420.002 493.786C420.342 493.043 420.511 492.131 420.511 491.049C420.511 489.946 420.342 489.034 420.002 488.312C419.663 487.591 419.079 487.05 418.252 486.69C417.425 486.308 416.258 486.117 414.752 486.117H409.278V496.045H414.752ZM414.911 497.7H409.278V506.96H407.369V484.462H414.879C416.703 484.462 418.167 484.727 419.27 485.257C420.374 485.767 421.169 486.509 421.657 487.485C422.166 488.461 422.421 489.649 422.421 491.049C422.421 492.152 422.304 493.118 422.071 493.945C421.837 494.772 421.434 495.473 420.862 496.045C420.289 496.597 419.514 497.011 418.538 497.286C417.584 497.562 416.375 497.7 414.911 497.7ZM444.796 490.986C444.52 489.267 443.83 487.984 442.727 487.135C441.645 486.286 440.203 485.862 438.399 485.862C436.023 485.862 434.178 486.668 432.862 488.281C431.568 489.893 430.921 492.354 430.921 495.663C430.921 498.994 431.568 501.476 432.862 503.11C434.178 504.722 436.023 505.528 438.399 505.528C440.203 505.528 441.645 505.104 442.727 504.256C443.83 503.407 444.531 502.134 444.828 500.437H446.832C446.472 502.664 445.581 504.362 444.159 505.528C442.738 506.695 440.818 507.279 438.399 507.279C435.26 507.279 432.905 506.271 431.335 504.256C429.786 502.219 429.012 499.355 429.012 495.663C429.012 491.993 429.786 489.161 431.335 487.167C432.905 485.151 435.26 484.144 438.399 484.144C439.906 484.144 441.242 484.398 442.409 484.907C443.597 485.417 444.562 486.18 445.305 487.199C446.069 488.217 446.567 489.479 446.801 490.986H444.796ZM454.273 484.462H456.183V494.868H468.753V484.462H470.662V506.96H468.753V496.523H456.183V506.96H454.273V484.462ZM484.188 506.96H482.279V484.462H484.188V506.96ZM478.81 486.117V484.462H487.625V486.117H478.81ZM478.81 506.96V505.306H487.625V506.96H478.81ZM493.459 484.462H510.07V486.117H502.719V506.96H500.81V486.117H493.459V484.462ZM515.851 484.462H528.517V486.117H517.761V494.868H527.785V496.523H517.761V505.306H528.676V506.96H515.851V484.462ZM550.575 490.986C550.299 489.267 549.609 487.984 548.506 487.135C547.424 486.286 545.981 485.862 544.178 485.862C541.802 485.862 539.956 486.668 538.641 488.281C537.347 489.893 536.7 492.354 536.7 495.663C536.7 498.994 537.347 501.476 538.641 503.11C539.956 504.722 541.802 505.528 544.178 505.528C545.981 505.528 547.424 505.104 548.506 504.256C549.609 503.407 550.309 502.134 550.606 500.437H552.611C552.251 502.664 551.359 504.362 549.938 505.528C548.517 506.695 546.597 507.279 544.178 507.279C541.038 507.279 538.684 506.271 537.114 504.256C535.565 502.219 534.791 499.355 534.791 495.663C534.791 491.993 535.565 489.161 537.114 487.167C538.684 485.151 541.038 484.144 544.178 484.144C545.684 484.144 547.021 484.398 548.188 484.907C549.376 485.417 550.341 486.18 551.084 487.199C551.847 488.217 552.346 489.479 552.579 490.986H550.575ZM556.932 484.462H573.544V486.117H566.193V506.96H564.283V486.117H556.932V484.462Z" fill="#FFFAEE"/>
<path d="M668.364 562.082L661.873 571.379L661.625 570.825H670.98V571.818H660.957V570.864L667.639 561.337H669.09V574.834H667.963V561.948L668.364 562.082ZM676.733 575.025C675.855 575.025 675.085 574.892 674.423 574.624C673.774 574.357 673.265 573.95 672.896 573.403C672.527 572.855 672.317 572.168 672.266 571.341H673.507C673.532 571.939 673.678 572.442 673.946 572.849C674.226 573.244 674.601 573.543 675.072 573.746C675.543 573.937 676.103 574.033 676.752 574.033C677.745 574.033 678.546 573.765 679.157 573.231C679.768 572.684 680.074 571.901 680.074 570.883C680.074 569.903 679.775 569.139 679.176 568.592C678.591 568.045 677.77 567.771 676.714 567.771H675.225L675.206 566.95L679.806 561.891L679.902 562.33H672.819V561.337H680.895V562.254L676.485 567.084V566.797C677.426 566.785 678.203 566.905 678.814 567.16C679.425 567.402 679.902 567.733 680.246 568.153C680.602 568.56 680.85 569.005 680.99 569.489C681.143 569.96 681.219 570.424 681.219 570.883C681.219 571.774 681.035 572.531 680.666 573.154C680.296 573.765 679.775 574.23 679.1 574.548C678.438 574.866 677.649 575.025 676.733 575.025ZM689.213 568.649L692.726 574.834H691.447L688.068 568.859L689.213 568.649ZM687.724 568.286C688.628 568.286 689.328 568.172 689.824 567.943C690.32 567.714 690.67 567.376 690.874 566.931C691.078 566.485 691.179 565.938 691.179 565.289C691.179 564.627 691.078 564.08 690.874 563.647C690.67 563.215 690.32 562.89 689.824 562.674C689.328 562.445 688.628 562.33 687.724 562.33H684.44V568.286H687.724ZM687.819 569.279H684.44V574.834H683.295V561.337H687.8C688.895 561.337 689.773 561.496 690.435 561.815C691.097 562.12 691.574 562.565 691.867 563.151C692.172 563.736 692.325 564.449 692.325 565.289C692.325 565.951 692.255 566.53 692.115 567.026C691.975 567.523 691.733 567.943 691.389 568.286C691.046 568.617 690.581 568.865 689.996 569.031C689.423 569.196 688.698 569.279 687.819 569.279ZM698.99 569.298H693.835V568.305H698.99V569.298ZM705.016 575.025C703.908 575.025 703.005 574.777 702.305 574.281C701.618 573.772 701.115 573.008 700.797 571.99C700.478 570.959 700.319 569.655 700.319 568.076C700.319 566.498 700.478 565.2 700.797 564.182C701.128 563.164 701.637 562.406 702.324 561.91C703.024 561.401 703.921 561.146 705.016 561.146C706.123 561.146 707.02 561.401 707.708 561.91C708.408 562.406 708.917 563.164 709.235 564.182C709.566 565.2 709.731 566.498 709.731 568.076C709.731 569.642 709.566 570.94 709.235 571.971C708.917 573.002 708.408 573.772 707.708 574.281C707.02 574.777 706.123 575.025 705.016 575.025ZM705.016 574.033C706.314 574.033 707.237 573.543 707.784 572.563C708.331 571.583 708.605 570.087 708.605 568.076C708.605 566.065 708.331 564.576 707.784 563.609C707.237 562.629 706.314 562.139 705.016 562.139C703.73 562.139 702.814 562.629 702.267 563.609C701.719 564.576 701.446 566.065 701.446 568.076C701.446 570.087 701.713 571.583 702.248 572.563C702.795 573.543 703.718 574.033 705.016 574.033ZM715.569 575.025C714.461 575.025 713.558 574.777 712.858 574.281C712.17 573.772 711.668 573.008 711.35 571.99C711.031 570.959 710.872 569.655 710.872 568.076C710.872 566.498 711.031 565.2 711.35 564.182C711.68 563.164 712.19 562.406 712.877 561.91C713.577 561.401 714.474 561.146 715.569 561.146C716.676 561.146 717.573 561.401 718.26 561.91C718.96 562.406 719.469 563.164 719.788 564.182C720.119 565.2 720.284 566.498 720.284 568.076C720.284 569.642 720.119 570.94 719.788 571.971C719.469 573.002 718.96 573.772 718.26 574.281C717.573 574.777 716.676 575.025 715.569 575.025ZM715.569 574.033C716.867 574.033 717.789 573.543 718.337 572.563C718.884 571.583 719.158 570.087 719.158 568.076C719.158 566.065 718.884 564.576 718.337 563.609C717.789 562.629 716.867 562.139 715.569 562.139C714.283 562.139 713.367 562.629 712.82 563.609C712.272 564.576 711.999 566.065 711.999 568.076C711.999 570.087 712.266 571.583 712.8 572.563C713.348 573.543 714.27 574.033 715.569 574.033ZM728.699 562.082L722.208 571.379L721.96 570.825H731.314V571.818H721.292V570.864L727.973 561.337H729.424V574.834H728.298V561.948L728.699 562.082ZM737.048 575.025C736.183 575.025 735.432 574.892 734.795 574.624C734.159 574.344 733.663 573.944 733.306 573.422C732.95 572.9 732.746 572.27 732.695 571.532H733.86C733.911 572.359 734.216 572.983 734.776 573.403C735.336 573.823 736.094 574.033 737.048 574.033C738.181 574.033 739.008 573.721 739.53 573.097C740.064 572.461 740.332 571.678 740.332 570.749C740.332 570.125 740.224 569.565 740.007 569.069C739.804 568.56 739.466 568.159 738.995 567.866C738.524 567.561 737.894 567.408 737.105 567.408C736.418 567.395 735.826 567.523 735.33 567.79C734.846 568.045 734.458 568.407 734.165 568.878H732.963L733.86 561.337H740.809V562.33H734.853L734.223 567.695H734.28C734.535 567.287 734.904 566.975 735.387 566.759C735.871 566.53 736.412 566.415 737.01 566.415C737.99 566.415 738.804 566.606 739.454 566.988C740.115 567.37 740.612 567.885 740.943 568.535C741.286 569.171 741.458 569.896 741.458 570.711C741.458 571.551 741.28 572.295 740.924 572.944C740.567 573.594 740.058 574.103 739.396 574.472C738.747 574.841 737.964 575.025 737.048 575.025ZM747.431 575.025C745.815 575.025 744.631 574.701 743.881 574.052C743.142 573.403 742.773 572.499 742.773 571.341C742.786 570.717 742.901 570.157 743.117 569.661C743.346 569.165 743.664 568.757 744.071 568.439C744.491 568.121 744.969 567.917 745.503 567.828V567.752C744.803 567.574 744.256 567.211 743.861 566.664C743.48 566.104 743.289 565.429 743.289 564.64C743.289 563.965 743.435 563.367 743.728 562.845C744.033 562.311 744.491 561.897 745.102 561.605C745.726 561.299 746.502 561.146 747.431 561.146C748.361 561.146 749.131 561.299 749.741 561.605C750.352 561.897 750.804 562.311 751.097 562.845C751.402 563.367 751.549 563.965 751.536 564.64C751.523 565.416 751.326 566.085 750.944 566.645C750.562 567.205 750.021 567.574 749.321 567.752V567.828C749.856 567.917 750.333 568.121 750.753 568.439C751.173 568.757 751.498 569.165 751.727 569.661C751.969 570.157 752.09 570.717 752.09 571.341C752.09 572.117 751.924 572.779 751.593 573.326C751.262 573.874 750.753 574.294 750.066 574.586C749.379 574.879 748.501 575.025 747.431 575.025ZM747.431 574.033C748.653 574.033 749.551 573.778 750.123 573.269C750.696 572.76 750.982 572.066 750.982 571.188C750.982 570.323 750.677 569.635 750.066 569.126C749.455 568.617 748.577 568.363 747.431 568.363C746.273 568.363 745.389 568.617 744.778 569.126C744.18 569.635 743.881 570.323 743.881 571.188C743.881 572.066 744.167 572.76 744.74 573.269C745.312 573.778 746.21 574.033 747.431 574.033ZM747.431 567.37C748.424 567.37 749.175 567.141 749.684 566.683C750.206 566.212 750.467 565.575 750.467 564.774C750.467 563.959 750.212 563.316 749.703 562.845C749.207 562.375 748.45 562.139 747.431 562.139C746.401 562.139 745.637 562.375 745.141 562.845C744.644 563.316 744.396 563.959 744.396 564.774C744.396 565.575 744.651 566.212 745.16 566.683C745.669 567.141 746.426 567.37 747.431 567.37ZM757.967 575.025C757.102 575.025 756.351 574.892 755.715 574.624C755.078 574.344 754.582 573.944 754.226 573.422C753.869 572.9 753.666 572.27 753.615 571.532H754.779C754.83 572.359 755.136 572.983 755.696 573.403C756.256 573.823 757.013 574.033 757.967 574.033C759.1 574.033 759.927 573.721 760.449 573.097C760.984 572.461 761.251 571.678 761.251 570.749C761.251 570.125 761.143 569.565 760.927 569.069C760.723 568.56 760.386 568.159 759.915 567.866C759.444 567.561 758.814 567.408 758.025 567.408C757.337 567.395 756.746 567.523 756.249 567.79C755.766 568.045 755.377 568.407 755.085 568.878H753.882L754.779 561.337H761.728V562.33H755.772L755.142 567.695H755.199C755.454 567.287 755.823 566.975 756.307 566.759C756.79 566.53 757.331 566.415 757.929 566.415C758.909 566.415 759.724 566.606 760.373 566.988C761.035 567.37 761.531 567.885 761.862 568.535C762.206 569.171 762.377 569.896 762.377 570.711C762.377 571.551 762.199 572.295 761.843 572.944C761.487 573.594 760.977 574.103 760.316 574.472C759.667 574.841 758.884 575.025 757.967 575.025Z" fill="#FFFAEE"/>
<rect x="642.282" y="555.208" width="139.754" height="26.4856" rx="13.2428" stroke="#FFFAEE" stroke-width="0.563524"/>
<path d="M675.5 434.085C652.616 434.085 634 451.355 634 472.585C634 493.815 652.616 511.085 675.5 511.085C698.384 511.085 717 493.815 717 472.585C717 451.355 698.384 434.085 675.5 434.085ZM713.214 472.585C713.214 491.881 696.3 507.573 675.5 507.573C654.7 507.573 637.786 491.881 637.786 472.585C637.786 453.289 654.7 437.597 675.5 437.597C696.3 437.597 713.214 453.289 713.214 472.585Z" fill="#FFFAEE"/>
<path d="M305 551V549.741H303.741V551H305ZM321.734 569.514C322.225 570.005 323.022 570.005 323.514 569.514C324.005 569.022 324.005 568.225 323.514 567.734L322.624 568.624L321.734 569.514ZM305 564.218H306.259V551H305H303.741V564.218H305ZM305 551V552.259H318.218V551V549.741H305V551ZM305 551L304.11 551.89L321.734 569.514L322.624 568.624L323.514 567.734L305.89 550.11L305 551Z" fill="#FFFAEE"/>
<path d="M305 586.248V587.506H303.741V586.248H305ZM321.734 567.734C322.225 567.242 323.022 567.242 323.514 567.734C324.005 568.225 324.005 569.022 323.514 569.514L322.624 568.624L321.734 567.734ZM305 573.03H306.259V586.248H305H303.741V573.03H305ZM305 586.248V584.989H318.218V586.248V587.506H305V586.248ZM305 586.248L304.11 585.357L321.734 567.734L322.624 568.624L323.514 569.514L305.89 587.138L305 586.248Z" fill="#FFFAEE"/>
<path d="M340.248 551V549.741H341.506V551H340.248ZM323.514 569.514C323.022 570.005 322.225 570.005 321.734 569.514C321.242 569.022 321.242 568.225 321.734 567.734L322.624 568.624L323.514 569.514ZM340.248 564.218H338.989V551H340.248H341.506V564.218H340.248ZM340.248 551V552.259H327.03V551V549.741H340.248V551ZM340.248 551L341.138 551.89L323.514 569.514L322.624 568.624L321.734 567.734L339.357 550.11L340.248 551Z" fill="#FFFAEE"/>
<path d="M340.248 586.248V587.506H341.506V586.248H340.248ZM323.514 567.734C323.022 567.242 322.225 567.242 321.734 567.734C321.242 568.225 321.242 569.022 321.734 569.514L322.624 568.624L323.514 567.734ZM340.248 573.03H338.989V586.248H340.248H341.506V573.03H340.248ZM340.248 586.248V584.989H327.03V586.248V587.506H340.248V586.248ZM340.248 586.248L341.138 585.357L323.514 567.734L322.624 568.624L321.734 569.514L339.357 587.138L340.248 586.248Z" fill="#FFFAEE"/>
<path fill-rule="evenodd" clip-rule="evenodd" d="M395.482 580.67V585.914C394.907 585.969 394.324 586 393.726 586C383.965 586 376 578.047 376 568.303C376 558.558 383.965 550.614 393.726 550.614C394.316 550.614 394.907 550.645 395.482 550.699V555.944C394.907 555.858 394.324 555.82 393.726 555.82C386.833 555.82 381.214 561.437 381.214 568.303C381.214 575.169 386.841 580.786 393.726 580.786C394.316 580.786 394.907 580.739 395.482 580.662V580.67Z" fill="#FFFAEE"/>
<path fill-rule="evenodd" clip-rule="evenodd" d="M403.035 565.603H413.269V571.011H403.035C404.278 576.597 409.283 580.794 415.243 580.794C415.834 580.794 416.425 580.747 417 580.67V585.914C416.417 585.969 415.834 586 415.243 586C405.475 586 397.525 578.047 397.525 568.311C397.525 558.574 405.475 550.614 415.243 550.614C415.834 550.614 416.425 550.645 417 550.699V555.944C416.417 555.858 415.834 555.82 415.243 555.82C409.283 555.82 404.271 560.017 403.035 565.603Z" fill="#FFFAEE"/>
<path d="M491.226 566.741L541.736 566.741C542.432 566.741 543 567.307 543 568C543 568.693 542.432 569.259 541.736 569.259L491.226 569.259C484.184 569.259 478.45 574.969 478.45 581.982L478.45 588.741C478.45 589.434 477.882 590 477.186 590C476.49 590 475.922 589.434 475.922 588.741L475.922 581.982C475.922 574.969 470.189 569.259 463.146 569.259L451.264 569.259C450.568 569.259 450 568.693 450 568C450 567.307 450.568 566.741 451.264 566.741L463.146 566.741C470.189 566.741 475.922 561.031 475.922 554.018L475.922 547.259C475.922 546.566 476.49 546 477.186 546C477.882 546 478.45 546.566 478.45 547.259L478.45 554.018C478.45 561.031 484.184 566.741 491.226 566.741Z" fill="#FFFAEE"/>
<path d="M304.24 627.4H304.16L299.72 640H298.5L303.56 625.86H304.92L309.96 640H308.68L304.24 627.4ZM307.46 635.76H301V634.72H307.46V635.76ZM317.221 625.86H318.421V638.96H325.161V640H317.221V625.86ZM332.006 625.86H333.206V638.96H339.946V640H332.006V625.86ZM363.343 633.52L367.023 640H365.683L362.143 633.74L363.343 633.52ZM361.783 633.14C362.729 633.14 363.463 633.02 363.983 632.78C364.503 632.54 364.869 632.187 365.083 631.72C365.296 631.253 365.403 630.68 365.403 630C365.403 629.307 365.296 628.733 365.083 628.28C364.869 627.827 364.503 627.487 363.983 627.26C363.463 627.02 362.729 626.9 361.783 626.9H358.343V633.14H361.783ZM361.883 634.18H358.343V640H357.143V625.86H361.863C363.009 625.86 363.929 626.027 364.623 626.36C365.316 626.68 365.816 627.147 366.123 627.76C366.443 628.373 366.603 629.12 366.603 630C366.603 630.693 366.529 631.3 366.383 631.82C366.236 632.34 365.983 632.78 365.623 633.14C365.263 633.487 364.776 633.747 364.163 633.92C363.563 634.093 362.803 634.18 361.883 634.18ZM377.757 640H376.557V625.86H377.757V640ZM374.377 626.9V625.86H379.917V626.9H374.377ZM374.377 640V638.96H379.917V640H374.377ZM397.804 634H393.784V632.96H399.004V634.56C399.004 635.56 398.804 636.493 398.404 637.36C398.017 638.213 397.41 638.9 396.584 639.42C395.77 639.94 394.717 640.2 393.424 640.2C391.49 640.2 389.99 639.573 388.924 638.32C387.87 637.053 387.344 635.253 387.344 632.92C387.344 630.587 387.87 628.793 388.924 627.54C389.99 626.287 391.49 625.66 393.424 625.66C394.344 625.66 395.177 625.82 395.924 626.14C396.67 626.447 397.297 626.913 397.804 627.54C398.31 628.167 398.657 628.967 398.844 629.94H397.604C397.39 628.793 396.917 627.973 396.184 627.48C395.464 626.987 394.544 626.74 393.424 626.74C391.85 626.74 390.644 627.233 389.804 628.22C388.964 629.207 388.544 630.773 388.544 632.92C388.544 635.053 388.964 636.62 389.804 637.62C390.644 638.62 391.85 639.12 393.424 639.12C394.237 639.12 394.91 639.007 395.444 638.78C395.977 638.54 396.404 638.227 396.724 637.84C397.044 637.453 397.277 637.033 397.424 636.58C397.584 636.127 397.684 635.673 397.724 635.22C397.777 634.767 397.804 634.36 397.804 634ZM406.869 625.86H408.069V632.4H415.969V625.86H417.169V640H415.969V633.44H408.069V640H406.869V625.86ZM424.01 625.86H434.45V626.9H429.83V640H428.63V626.9H424.01V625.86ZM448.71 628.92C448.603 628.093 448.236 627.52 447.61 627.2C446.996 626.88 446.183 626.72 445.17 626.72C444.01 626.72 443.15 626.947 442.59 627.4C442.03 627.84 441.75 628.493 441.75 629.36C441.75 629.867 441.843 630.28 442.03 630.6C442.23 630.92 442.483 631.18 442.79 631.38C443.096 631.567 443.423 631.72 443.77 631.84C444.116 631.947 444.436 632.04 444.73 632.12L446.27 632.54C446.656 632.647 447.076 632.78 447.53 632.94C447.983 633.1 448.41 633.32 448.81 633.6C449.223 633.88 449.556 634.24 449.81 634.68C450.063 635.12 450.19 635.667 450.19 636.32C450.19 637.067 450.01 637.74 449.65 638.34C449.29 638.94 448.736 639.413 447.99 639.76C447.243 640.093 446.29 640.26 445.13 640.26C443.583 640.26 442.396 639.947 441.57 639.32C440.743 638.693 440.276 637.847 440.17 636.78H441.41C441.49 637.42 441.696 637.913 442.03 638.26C442.363 638.607 442.79 638.853 443.31 639C443.843 639.133 444.45 639.2 445.13 639.2C446.356 639.2 447.303 638.967 447.97 638.5C448.65 638.02 448.99 637.28 448.99 636.28C448.99 635.68 448.843 635.207 448.55 634.86C448.27 634.513 447.89 634.24 447.41 634.04C446.943 633.84 446.436 633.667 445.89 633.52L443.97 633C442.876 632.693 442.03 632.267 441.43 631.72C440.843 631.173 440.55 630.42 440.55 629.46C440.55 628.673 440.736 628 441.11 627.44C441.496 626.867 442.036 626.427 442.73 626.12C443.436 625.813 444.27 625.66 445.23 625.66C446.163 625.66 446.963 625.8 447.63 626.08C448.31 626.347 448.843 626.727 449.23 627.22C449.63 627.7 449.856 628.267 449.91 628.92H448.71ZM473.773 633.52L477.453 640H476.113L472.573 633.74L473.773 633.52ZM472.213 633.14C473.159 633.14 473.893 633.02 474.413 632.78C474.933 632.54 475.299 632.187 475.513 631.72C475.726 631.253 475.833 630.68 475.833 630C475.833 629.307 475.726 628.733 475.513 628.28C475.299 627.827 474.933 627.487 474.413 627.26C473.893 627.02 473.159 626.9 472.213 626.9H468.773V633.14H472.213ZM472.313 634.18H468.773V640H467.573V625.86H472.293C473.439 625.86 474.359 626.027 475.053 626.36C475.746 626.68 476.246 627.147 476.553 627.76C476.873 628.373 477.033 629.12 477.033 630C477.033 630.693 476.959 631.3 476.813 631.82C476.666 632.34 476.413 632.78 476.053 633.14C475.693 633.487 475.206 633.747 474.593 633.92C473.993 634.093 473.233 634.18 472.313 634.18ZM484.975 625.86H492.935V626.9H486.175V632.4H492.475V633.44H486.175V638.96H493.035V640H484.975V625.86ZM508.612 628.92C508.505 628.093 508.139 627.52 507.512 627.2C506.899 626.88 506.085 626.72 505.072 626.72C503.912 626.72 503.052 626.947 502.492 627.4C501.932 627.84 501.652 628.493 501.652 629.36C501.652 629.867 501.745 630.28 501.932 630.6C502.132 630.92 502.385 631.18 502.692 631.38C502.999 631.567 503.325 631.72 503.672 631.84C504.019 631.947 504.339 632.04 504.632 632.12L506.172 632.54C506.559 632.647 506.979 632.78 507.432 632.94C507.885 633.1 508.312 633.32 508.712 633.6C509.125 633.88 509.459 634.24 509.712 634.68C509.965 635.12 510.092 635.667 510.092 636.32C510.092 637.067 509.912 637.74 509.552 638.34C509.192 638.94 508.639 639.413 507.892 639.76C507.145 640.093 506.192 640.26 505.032 640.26C503.485 640.26 502.299 639.947 501.472 639.32C500.645 638.693 500.179 637.847 500.072 636.78H501.312C501.392 637.42 501.599 637.913 501.932 638.26C502.265 638.607 502.692 638.853 503.212 639C503.745 639.133 504.352 639.2 505.032 639.2C506.259 639.2 507.205 638.967 507.872 638.5C508.552 638.02 508.892 637.28 508.892 636.28C508.892 635.68 508.745 635.207 508.452 634.86C508.172 634.513 507.792 634.24 507.312 634.04C506.845 633.84 506.339 633.667 505.792 633.52L503.872 633C502.779 632.693 501.932 632.267 501.332 631.72C500.745 631.173 500.452 630.42 500.452 629.46C500.452 628.673 500.639 628 501.012 627.44C501.399 626.867 501.939 626.427 502.632 626.12C503.339 625.813 504.172 625.66 505.132 625.66C506.065 625.66 506.865 625.8 507.532 626.08C508.212 626.347 508.745 626.727 509.132 627.22C509.532 627.7 509.759 628.267 509.812 628.92H508.612ZM517.553 625.86H525.513V626.9H518.753V632.4H525.053V633.44H518.753V638.96H525.613V640H517.553V625.86ZM539.905 633.52L543.585 640H542.245L538.705 633.74L539.905 633.52ZM538.345 633.14C539.292 633.14 540.025 633.02 540.545 632.78C541.065 632.54 541.432 632.187 541.645 631.72C541.859 631.253 541.965 630.68 541.965 630C541.965 629.307 541.859 628.733 541.645 628.28C541.432 627.827 541.065 627.487 540.545 627.26C540.025 627.02 539.292 626.9 538.345 626.9H534.905V633.14H538.345ZM538.445 634.18H534.905V640H533.705V625.86H538.425C539.572 625.86 540.492 626.027 541.185 626.36C541.879 626.68 542.379 627.147 542.685 627.76C543.005 628.373 543.165 629.12 543.165 630C543.165 630.693 543.092 631.3 542.945 631.82C542.799 632.34 542.545 632.78 542.185 633.14C541.825 633.487 541.339 633.747 540.725 633.92C540.125 634.093 539.365 634.18 538.445 634.18ZM555.591 638.62H555.711L560.371 625.86H561.631L556.471 640H554.811L549.671 625.86H550.951L555.591 638.62ZM568.881 625.86H576.841V626.9H570.081V632.4H576.381V633.44H570.081V638.96H576.941V640H568.881V625.86ZM585.033 640V625.86H589.413C591.467 625.86 593.02 626.46 594.073 627.66C595.127 628.86 595.653 630.613 595.653 632.92C595.653 635.213 595.113 636.967 594.033 638.18C592.967 639.393 591.36 640 589.213 640H585.033ZM589.113 638.96C590.46 638.96 591.52 638.72 592.293 638.24C593.067 637.747 593.62 637.047 593.953 636.14C594.287 635.233 594.453 634.16 594.453 632.92C594.453 631.667 594.287 630.593 593.953 629.7C593.633 628.793 593.093 628.1 592.333 627.62C591.587 627.14 590.567 626.9 589.273 626.9H586.233V638.96H589.113Z" fill="#FFFAEE"/>
</svg>
