<svg width="1080" height="1080" viewBox="0 0 1080 1080" fill="none" xmlns="http://www.w3.org/2000/svg">
<rect width="1080" height="1080" fill="#191919"/>
<path d="M430.821 475.874L438.922 475.874L438.922 467.778L430.821 467.778L430.821 475.874Z" fill="#FFFAEE"/>
<path d="M430.821 461.309L438.922 461.309L438.922 453.186L430.821 453.186L430.821 461.309Z" fill="#FFFAEE"/>
<path d="M445.372 475.874L453.483 475.874L453.483 467.778L445.372 467.778L445.372 475.874Z" fill="#FFFAEE"/>
<path d="M445.371 461.309L453.473 461.309L453.473 453.214L445.371 453.214L445.371 461.309Z" fill="#FFFAEE"/>
<path d="M445.371 446.745L453.473 446.745L453.473 438.622L445.371 438.622L445.371 446.745Z" fill="#FFFAEE"/>
<path d="M468.044 461.281L468.044 453.204L459.933 453.204L459.933 461.309L468.044 461.281Z" fill="#FFFAEE"/>
<path d="M468.044 420.368L468.044 412.291L459.933 412.291L459.933 420.396L468.044 420.368Z" fill="#FFFAEE"/>
<path d="M439.003 434.932L439.003 426.855L430.892 426.855L430.892 434.96L439.003 434.932Z" fill="#FFFAEE"/>
<path d="M459.933 446.745L468.044 446.745L468.044 438.622L459.933 438.622L459.933 446.745Z" fill="#FFFAEE"/>
<path d="M430.892 420.396L439.003 420.396L439.003 412.273L430.892 412.273L430.892 420.396Z" fill="#FFFAEE"/>
<path d="M474.493 475.874L482.595 475.874L482.595 467.75L474.493 467.75L474.493 475.874Z" fill="#FFFAEE"/>
<path d="M474.493 434.96L482.595 434.96L482.595 426.836L474.493 426.836L474.493 434.96Z" fill="#FFFAEE"/>
<path d="M489.053 475.874L497.164 475.874L497.164 467.75L489.053 467.75L489.053 475.874Z" fill="#FFFAEE"/>
<path d="M503.719 434.96L511.83 434.96L511.83 426.836L503.719 426.836L503.719 434.96Z" fill="#FFFAEE"/>
<path d="M503.615 461.309L511.726 461.309L511.726 453.186L503.615 453.186L503.615 461.309Z" fill="#FFFAEE"/>
<path d="M518.175 446.745L526.286 446.745L526.286 438.622L518.175 438.622L518.175 446.745Z" fill="#FFFAEE"/>
<path d="M482.732 536C456.412 536 435 557.412 435 583.732C435 610.053 456.412 631.465 482.732 631.465C509.053 631.465 530.465 610.053 530.465 583.732C530.465 557.412 509.053 536 482.732 536ZM526.11 583.732C526.11 607.656 506.656 627.11 482.732 627.11C458.809 627.11 439.354 607.656 439.354 583.732C439.354 559.809 458.809 540.354 482.732 540.354C506.656 540.354 526.11 559.809 526.11 583.732Z" fill="#FFFAEE"/>
<path d="M482.372 397C456.052 397 434.64 418.412 434.64 444.732C434.64 471.053 456.052 492.465 482.372 492.465C508.692 492.465 530.104 471.053 530.104 444.732C530.104 418.412 508.692 397 482.372 397ZM525.75 444.732C525.75 468.656 506.295 488.11 482.372 488.11C458.449 488.11 438.994 468.656 438.994 444.732C438.994 420.809 458.449 401.354 482.372 401.354C506.295 401.354 525.75 420.809 525.75 444.732Z" fill="#FFFAEE"/>
<path d="M507.818 485.032V497.892C507.818 499.62 507.335 500.95 506.369 501.882C505.42 502.797 504.09 503.254 502.379 503.254C501.278 503.254 500.321 503.068 499.507 502.695C498.711 502.305 498.093 501.763 497.652 501.069C497.228 500.357 497.017 499.51 497.017 498.527H499.787C499.821 499.289 500.041 499.874 500.448 500.281C500.871 500.67 501.515 500.865 502.379 500.865C503.294 500.865 503.955 500.628 504.361 500.154C504.785 499.679 504.997 498.925 504.997 497.892V485.032H507.818ZM525.156 485.032V496.697C525.156 498.002 524.901 499.162 524.393 500.179C523.885 501.179 523.114 501.958 522.08 502.517C521.047 503.059 519.725 503.33 518.116 503.33C516.523 503.33 515.202 503.059 514.151 502.517C513.101 501.958 512.321 501.179 511.813 500.179C511.305 499.162 511.051 498.002 511.051 496.697V485.032H513.897V496.494C513.897 497.392 514.024 498.18 514.278 498.857C514.549 499.518 514.981 500.035 515.574 500.408C516.184 500.764 517.031 500.941 518.116 500.941C519.183 500.941 520.022 500.764 520.632 500.408C521.242 500.035 521.674 499.518 521.928 498.857C522.199 498.18 522.335 497.392 522.335 496.494V485.032H525.156ZM537.507 489.683C537.422 488.836 537.083 488.209 536.49 487.802C535.914 487.379 535.067 487.167 533.949 487.167C532.746 487.167 531.856 487.404 531.28 487.878C530.721 488.336 530.441 488.98 530.441 489.81C530.441 490.25 530.543 490.623 530.746 490.928C530.967 491.216 531.238 491.462 531.56 491.665C531.882 491.852 532.22 492.004 532.576 492.123C532.949 492.241 533.288 492.351 533.593 492.453L535.27 492.936C535.762 493.071 536.312 493.249 536.922 493.47C537.549 493.69 538.142 493.995 538.701 494.385C539.26 494.757 539.718 495.24 540.073 495.833C540.446 496.409 540.633 497.129 540.633 497.993C540.633 499.061 540.378 499.993 539.87 500.789C539.379 501.585 538.633 502.212 537.634 502.67C536.634 503.11 535.389 503.33 533.898 503.33C531.746 503.33 530.111 502.873 528.993 501.958C527.892 501.026 527.282 499.764 527.163 498.171H530.035C530.103 498.832 530.289 499.366 530.594 499.772C530.916 500.179 531.356 500.476 531.915 500.662C532.475 500.848 533.135 500.941 533.898 500.941C535.152 500.941 536.117 500.687 536.795 500.179C537.473 499.654 537.812 498.908 537.812 497.943C537.812 497.4 537.668 496.977 537.38 496.672C537.092 496.35 536.702 496.087 536.211 495.884C535.736 495.681 535.202 495.494 534.609 495.325L532.475 494.715C530.984 494.291 529.806 493.707 528.942 492.961C528.078 492.199 527.646 491.182 527.646 489.912C527.646 488.81 527.917 487.878 528.459 487.116C529.001 486.354 529.747 485.777 530.696 485.388C531.661 484.981 532.771 484.778 534.025 484.778C535.329 484.778 536.439 484.99 537.354 485.413C538.286 485.82 538.998 486.396 539.489 487.141C539.997 487.87 540.26 488.717 540.277 489.683H537.507ZM540.233 485.032H554.211V487.421H548.646V503H545.799V487.421H540.233V485.032ZM560.733 503H557.887V485.032H560.733V503ZM555.219 487.421V485.032H563.377V487.421H555.219ZM555.219 503V500.611H563.377V503H555.219ZM566.128 485.032H577.361V487.421H568.974V492.834H576.548V495.223H568.974V503H566.128V485.032ZM581.109 485.032L585.81 492.936H585.887L590.614 485.032H593.841L587.284 495.655V503H584.438V495.655L577.856 485.032H581.109ZM669.418 494.512L674.145 503H670.892L666.546 494.994L669.418 494.512ZM666.724 493.8C667.758 493.8 668.537 493.69 669.063 493.47C669.588 493.232 669.944 492.885 670.13 492.428C670.316 491.953 670.409 491.36 670.409 490.649C670.409 489.937 670.316 489.344 670.13 488.87C669.944 488.395 669.579 488.039 669.037 487.802C668.512 487.565 667.732 487.446 666.699 487.446H663.319V493.8H666.724ZM666.826 496.214H663.319V503H660.472V485.032H666.801C668.41 485.032 669.681 485.278 670.613 485.769C671.562 486.243 672.231 486.904 672.621 487.751C673.027 488.598 673.23 489.564 673.23 490.649C673.23 491.428 673.137 492.157 672.951 492.834C672.765 493.495 672.434 494.08 671.96 494.588C671.485 495.096 670.833 495.494 670.003 495.782C669.173 496.07 668.114 496.214 666.826 496.214ZM681.313 503H678.467V485.032H681.313V503ZM675.798 487.421V485.032H683.956V487.421H675.798ZM675.798 503V500.611H683.956V503H675.798ZM698.306 496.011H693.858V493.597H701.127V495.833C701.127 497.172 700.864 498.408 700.339 499.544C699.831 500.662 699.026 501.56 697.925 502.238C696.84 502.915 695.417 503.254 693.655 503.254C691.063 503.254 689.063 502.466 687.657 500.891C686.268 499.298 685.573 497.002 685.573 494.003C685.573 491.021 686.268 488.743 687.657 487.167C689.063 485.574 691.063 484.778 693.655 484.778C694.976 484.778 696.162 485.015 697.213 485.489C698.263 485.964 699.119 486.642 699.78 487.523C700.458 488.404 700.864 489.471 701 490.725H698.153C697.967 489.539 697.501 488.649 696.755 488.056C696.01 487.463 694.976 487.167 693.655 487.167C691.927 487.167 690.622 487.734 689.741 488.87C688.86 489.988 688.42 491.699 688.42 494.003C688.42 496.308 688.86 498.027 689.741 499.162C690.622 500.281 691.927 500.84 693.655 500.84C694.434 500.84 695.095 500.747 695.637 500.56C696.179 500.357 696.62 500.094 696.959 499.772C697.315 499.434 697.586 499.061 697.772 498.654C697.975 498.231 698.111 497.79 698.179 497.333C698.263 496.875 698.306 496.435 698.306 496.011ZM703.263 485.032H706.109V492.783H714.649V485.032H717.495V503H714.649V495.172H706.109V503H703.263V485.032ZM718.421 485.032H732.399V487.421H726.834V503H723.987V487.421H718.421V485.032ZM371.82 512.032L377.004 526.264H377.106L382.367 512.032H386.128V530H383.434V516.683H383.307L378.402 530H375.657L370.829 516.683H370.702V530H367.982V512.032H371.82ZM394.432 530H391.586V512.032H394.432V530ZM388.917 514.421V512.032H397.075V514.421H388.917ZM388.917 530V527.611H397.075V530H388.917ZM413.957 530H411.263L402.724 516.581H402.622V530H399.827V512.032H402.546L411.111 525.476H411.212V512.032H413.957V530ZM422.256 530H419.41V512.032H422.256V530ZM416.741 514.421V512.032H424.899V514.421H416.741ZM416.741 530V527.611H424.899V530H416.741ZM431.488 512.032L436.673 526.264H436.774L442.035 512.032H445.796V530H443.103V516.683H442.975L438.071 530H435.326L430.497 516.683H430.37V530H427.651V512.032H431.488ZM455.406 515.387H455.278L450.069 530H447.273L453.931 512.032H456.854L463.513 530H460.59L455.406 515.387ZM460.056 525.349H450.704V522.909H460.056V525.349ZM464.955 512.032H467.802V527.56H475.833V530H464.955V512.032ZM368.084 539.032H374.768C376.208 539.032 377.36 539.244 378.224 539.667C379.088 540.091 379.715 540.667 380.105 541.396C380.495 542.124 380.69 542.954 380.69 543.886C380.69 544.682 380.512 545.343 380.156 545.868C379.8 546.394 379.36 546.792 378.834 547.063C378.326 547.334 377.801 547.512 377.259 547.597V547.724C377.682 547.741 378.131 547.842 378.606 548.029C379.097 548.198 379.546 548.461 379.953 548.817C380.376 549.172 380.723 549.63 380.995 550.189C381.266 550.731 381.401 551.375 381.401 552.12C381.401 553.052 381.198 553.891 380.791 554.636C380.402 555.365 379.732 555.941 378.783 556.365C377.852 556.788 376.581 557 374.971 557H368.084V539.032ZM374.946 554.611C375.962 554.611 376.733 554.509 377.259 554.306C377.784 554.103 378.14 553.806 378.326 553.417C378.512 553.01 378.606 552.536 378.606 551.993C378.606 551.4 378.478 550.884 378.224 550.443C377.987 550.003 377.606 549.664 377.081 549.427C376.572 549.172 375.903 549.045 375.073 549.045H370.93V554.611H374.946ZM374.666 546.682C375.751 546.682 376.555 546.461 377.081 546.021C377.623 545.564 377.894 544.869 377.894 543.937C377.894 543.429 377.809 542.988 377.64 542.615C377.487 542.226 377.182 541.929 376.725 541.726C376.267 541.523 375.607 541.421 374.743 541.421H370.93V546.682H374.666ZM383.247 539.032H394.455V541.421H386.093V546.783H393.87V549.147H386.093V554.611H394.582V557H383.247V539.032ZM398.55 539.032L403.252 546.936H403.328L408.055 539.032H411.283L404.726 549.655V557H401.879V549.655L395.297 539.032H398.55ZM426.816 548.003C426.816 551.002 426.13 553.298 424.757 554.891C423.385 556.466 421.402 557.254 418.81 557.254C416.235 557.254 414.253 556.466 412.863 554.891C411.491 553.298 410.805 551.002 410.805 548.003C410.805 545.021 411.491 542.743 412.863 541.167C414.253 539.574 416.235 538.778 418.81 538.778C421.402 538.778 423.385 539.574 424.757 541.167C426.13 542.743 426.816 545.021 426.816 548.003ZM423.969 548.003C423.969 545.665 423.546 543.945 422.699 542.844C421.868 541.726 420.581 541.167 418.836 541.167C417.09 541.167 415.786 541.726 414.922 542.844C414.075 543.945 413.651 545.665 413.651 548.003C413.651 550.341 414.075 552.07 414.922 553.188C415.786 554.306 417.09 554.865 418.836 554.865C420.581 554.865 421.868 554.306 422.699 553.188C423.546 552.07 423.969 550.341 423.969 548.003ZM443.146 557H440.452L431.913 543.581H431.811V557H429.016V539.032H431.735L440.3 552.476H440.401V539.032H443.146V557ZM446.117 557V539.032H452.318C455.097 539.032 457.181 539.811 458.57 541.37C459.959 542.929 460.654 545.14 460.654 548.003C460.654 550.85 459.951 553.061 458.544 554.636C457.138 556.212 454.978 557 452.064 557H446.117ZM451.937 554.611C453.394 554.611 454.554 554.365 455.418 553.874C456.283 553.383 456.901 552.646 457.274 551.663C457.646 550.68 457.833 549.46 457.833 548.003C457.833 546.529 457.646 545.309 457.274 544.344C456.901 543.361 456.299 542.632 455.469 542.158C454.639 541.667 453.529 541.421 452.14 541.421H448.963V554.611H451.937ZM512.135 539.032H526.113V541.421H520.547V557H517.701V541.421H512.135V539.032ZM527.009 539.032H529.855V546.783H538.395V539.032H541.241V557H538.395V549.172H529.855V557H527.009V539.032ZM544.185 539.032H555.392V541.421H547.031V546.783H554.808V549.147H547.031V554.611H555.519V557H544.185V539.032ZM613.527 557H610.681V539.032H613.527V557ZM608.012 541.421V539.032H616.17V541.421H608.012ZM608.012 557V554.611H616.17V557H608.012ZM633.052 557H630.358L621.819 543.581H621.717V557H618.922V539.032H621.641L630.206 552.476H630.307V539.032H633.052V557ZM634.006 539.032H647.984V541.421H642.418V557H639.572V541.421H634.006V539.032ZM648.88 539.032H660.088V541.421H651.727V546.783H659.503V549.147H651.727V554.611H660.215V557H648.88V539.032ZM671.577 548.512L676.304 557H673.051L668.705 548.994L671.577 548.512ZM668.883 547.8C669.916 547.8 670.696 547.69 671.221 547.47C671.746 547.232 672.102 546.885 672.288 546.428C672.475 545.953 672.568 545.36 672.568 544.649C672.568 543.937 672.475 543.344 672.288 542.87C672.102 542.395 671.738 542.039 671.195 541.802C670.67 541.565 669.891 541.446 668.857 541.446H665.477V547.8H668.883ZM668.984 550.214H665.477V557H662.631V539.032H668.959C670.568 539.032 671.839 539.278 672.771 539.769C673.72 540.243 674.389 540.904 674.779 541.751C675.185 542.598 675.389 543.564 675.389 544.649C675.389 545.428 675.296 546.157 675.109 546.834C674.923 547.495 674.592 548.08 674.118 548.588C673.644 549.096 672.991 549.494 672.161 549.782C671.331 550.07 670.272 550.214 668.984 550.214ZM678.094 539.032H689.327V541.421H680.94V546.834H688.514V549.223H680.94V557H678.094V539.032ZM696.02 542.387H695.893L690.683 557H687.888L694.546 539.032H697.469L704.128 557H701.205L696.02 542.387ZM700.671 552.349H691.319V549.909H700.671V552.349ZM716.339 544.801C716.153 543.547 715.687 542.632 714.941 542.056C714.196 541.463 713.196 541.167 711.942 541.167C710.282 541.167 709.02 541.734 708.155 542.87C707.308 543.988 706.885 545.699 706.885 548.003C706.885 550.308 707.308 552.027 708.155 553.162C709.02 554.298 710.282 554.865 711.942 554.865C713.196 554.865 714.196 554.569 714.941 553.976C715.687 553.383 716.161 552.468 716.364 551.231H719.211C718.974 553.162 718.22 554.653 716.949 555.704C715.678 556.737 714.009 557.254 711.942 557.254C709.452 557.254 707.512 556.466 706.122 554.891C704.733 553.298 704.038 551.002 704.038 548.003C704.038 545.004 704.733 542.717 706.122 541.141C707.529 539.566 709.469 538.778 711.942 538.778C713.23 538.778 714.382 539.007 715.399 539.464C716.432 539.922 717.279 540.599 717.94 541.497C718.601 542.395 719.016 543.496 719.185 544.801H716.339ZM721.232 539.032H732.44V541.421H724.078V546.783H731.855V549.147H724.078V554.611H732.567V557H721.232V539.032ZM367.245 582.069L373.294 575.766C373.955 575.071 374.505 574.47 374.946 573.961C375.386 573.453 375.717 572.97 375.937 572.513C376.157 572.038 376.267 571.538 376.267 571.013C376.267 570.031 375.996 569.31 375.454 568.853C374.912 568.396 374.175 568.167 373.243 568.167C372.243 568.167 371.481 568.421 370.956 568.929C370.448 569.438 370.176 570.225 370.143 571.293H367.347C367.347 570.175 367.593 569.209 368.084 568.396C368.592 567.565 369.295 566.922 370.193 566.464C371.091 566.007 372.133 565.778 373.319 565.778C374.471 565.778 375.48 565.998 376.344 566.439C377.208 566.862 377.877 567.464 378.351 568.243C378.826 569.022 379.063 569.946 379.063 571.013C379.063 571.708 378.927 572.369 378.656 572.996C378.385 573.606 377.945 574.275 377.335 575.003C376.725 575.715 375.912 576.596 374.895 577.646L370.168 582.577L369.787 581.611H379.266V584H367.245V582.069ZM387.254 584.254C385.678 584.254 384.399 583.898 383.416 583.187C382.45 582.475 381.747 581.433 381.307 580.061C380.866 578.671 380.646 576.986 380.646 575.003C380.646 573.021 380.875 571.344 381.332 569.971C381.79 568.599 382.501 567.557 383.467 566.845C384.45 566.134 385.712 565.778 387.254 565.778C388.813 565.778 390.075 566.134 391.041 566.845C392.006 567.557 392.718 568.599 393.175 569.971C393.633 571.344 393.862 573.021 393.862 575.003C393.862 576.986 393.633 578.671 393.175 580.061C392.735 581.433 392.023 582.475 391.041 583.187C390.075 583.898 388.813 584.254 387.254 584.254ZM387.254 581.84C388.609 581.84 389.583 581.306 390.176 580.239C390.769 579.171 391.066 577.426 391.066 575.003C391.066 572.58 390.769 570.835 390.176 569.768C389.583 568.701 388.609 568.167 387.254 568.167C385.915 568.167 384.95 568.701 384.357 569.768C383.764 570.835 383.467 572.58 383.467 575.003C383.467 577.426 383.755 579.171 384.331 580.239C384.924 581.306 385.898 581.84 387.254 581.84Z" fill="#FFFAEE"/>
<path d="M490.245 582.069L496.294 575.766C496.955 575.071 497.505 574.47 497.946 573.961C498.386 573.453 498.717 572.97 498.937 572.513C499.157 572.038 499.267 571.538 499.267 571.013C499.267 570.031 498.996 569.31 498.454 568.853C497.912 568.396 497.175 568.167 496.243 568.167C495.243 568.167 494.481 568.421 493.956 568.929C493.448 569.438 493.176 570.225 493.143 571.293H490.347C490.347 570.175 490.593 569.209 491.084 568.396C491.592 567.565 492.295 566.922 493.193 566.464C494.091 566.007 495.133 565.778 496.319 565.778C497.471 565.778 498.48 565.998 499.344 566.439C500.208 566.862 500.877 567.464 501.351 568.243C501.826 569.022 502.063 569.946 502.063 571.013C502.063 571.708 501.927 572.369 501.656 572.996C501.385 573.606 500.945 574.275 500.335 575.003C499.725 575.715 498.912 576.596 497.895 577.646L493.168 582.577L492.787 581.611H502.266V584H490.245V582.069ZM504.053 578.256C504.07 577.68 504.163 577.096 504.332 576.503C504.502 575.893 504.79 575.224 505.196 574.495C505.603 573.75 506.145 572.902 506.823 571.954L511.118 566.032H514.269L507.636 575.105L507.611 573.478C507.78 573.343 508.026 573.207 508.348 573.072C508.687 572.936 509.059 572.826 509.466 572.741C509.873 572.64 510.279 572.589 510.686 572.589C511.821 572.589 512.821 572.835 513.685 573.326C514.566 573.817 515.252 574.495 515.743 575.359C516.235 576.223 516.48 577.231 516.48 578.383C516.48 579.552 516.235 580.586 515.743 581.484C515.252 582.365 514.54 583.051 513.609 583.543C512.677 584.017 511.567 584.254 510.279 584.254C508.314 584.254 506.78 583.712 505.679 582.628C504.578 581.543 504.036 580.086 504.053 578.256ZM506.848 578.383C506.848 579.451 507.119 580.306 507.662 580.95C508.204 581.577 509.076 581.891 510.279 581.891C511.448 581.891 512.304 581.577 512.846 580.95C513.405 580.306 513.685 579.451 513.685 578.383C513.685 577.299 513.405 576.46 512.846 575.867C512.304 575.257 511.448 574.952 510.279 574.952C509.212 574.952 508.373 575.257 507.763 575.867C507.153 576.46 506.848 577.299 506.848 578.383Z" fill="#FFFAEE"/>
</svg>
