<svg width="1080" height="1080" viewBox="0 0 1080 1080" fill="none" xmlns="http://www.w3.org/2000/svg">
<rect width="1080" height="1080" fill="#191919"/>
<path d="M680 639C681.933 639 683.5 637.433 683.5 635.5C683.5 633.567 681.933 632 680 632C678.067 632 676.5 633.567 676.5 635.5C676.5 637.433 678.067 639 680 639Z" fill="#FFFAEE"/>
<path d="M704.5 639C706.433 639 708 637.433 708 635.5C708 633.567 706.433 632 704.5 632C702.567 632 701 633.567 701 635.5C701 637.433 702.567 639 704.5 639Z" fill="#FFFAEE"/>
<path d="M655.5 639C657.433 639 659 637.433 659 635.5C659 633.567 657.433 632 655.5 632C653.567 632 652 633.567 652 635.5C652 637.433 653.567 639 655.5 639Z" fill="#FFFAEE"/>
<path d="M680 639C681.933 639 683.5 637.433 683.5 635.5C683.5 633.567 681.933 632 680 632C678.067 632 676.5 633.567 676.5 635.5C676.5 637.433 678.067 639 680 639Z" stroke="#FFFAEE" stroke-linecap="round" stroke-linejoin="round"/>
<path d="M704.5 639C706.433 639 708 637.433 708 635.5C708 633.567 706.433 632 704.5 632C702.567 632 701 633.567 701 635.5C701 637.433 702.567 639 704.5 639Z" stroke="#FFFAEE" stroke-linecap="round" stroke-linejoin="round"/>
<path d="M655.5 639C657.433 639 659 637.433 659 635.5C659 633.567 657.433 632 655.5 632C653.567 632 652 633.567 652 635.5C652 637.433 653.567 639 655.5 639Z" stroke="#FFFAEE" stroke-linecap="round" stroke-linejoin="round"/>
<path d="M802 639C803.933 639 805.5 637.433 805.5 635.5C805.5 633.567 803.933 632 802 632C800.067 632 798.5 633.567 798.5 635.5C798.5 637.433 800.067 639 802 639Z" fill="#FFFAEE"/>
<path d="M826.5 639C828.433 639 830 637.433 830 635.5C830 633.567 828.433 632 826.5 632C824.567 632 823 633.567 823 635.5C823 637.433 824.567 639 826.5 639Z" fill="#FFFAEE"/>
<path d="M777.5 639C779.433 639 781 637.433 781 635.5C781 633.567 779.433 632 777.5 632C775.567 632 774 633.567 774 635.5C774 637.433 775.567 639 777.5 639Z" fill="#FFFAEE"/>
<path d="M802 639C803.933 639 805.5 637.433 805.5 635.5C805.5 633.567 803.933 632 802 632C800.067 632 798.5 633.567 798.5 635.5C798.5 637.433 800.067 639 802 639Z" stroke="#FFFAEE" stroke-linecap="round" stroke-linejoin="round"/>
<path d="M826.5 639C828.433 639 830 637.433 830 635.5C830 633.567 828.433 632 826.5 632C824.567 632 823 633.567 823 635.5C823 637.433 824.567 639 826.5 639Z" stroke="#FFFAEE" stroke-linecap="round" stroke-linejoin="round"/>
<path d="M777.5 639C779.433 639 781 637.433 781 635.5C781 633.567 779.433 632 777.5 632C775.567 632 774 633.567 774 635.5C774 637.433 775.567 639 777.5 639Z" stroke="#FFFAEE" stroke-linecap="round" stroke-linejoin="round"/>
<path d="M729 639C730.933 639 732.5 637.433 732.5 635.5C732.5 633.567 730.933 632 729 632C727.067 632 725.5 633.567 725.5 635.5C725.5 637.433 727.067 639 729 639Z" stroke="#FFFAEE" stroke-linecap="round" stroke-linejoin="round"/>
<path d="M753.5 639C755.433 639 757 637.433 757 635.5C757 633.567 755.433 632 753.5 632C751.567 632 750 633.567 750 635.5C750 637.433 751.567 639 753.5 639Z" stroke="#FFFAEE" stroke-linecap="round" stroke-linejoin="round"/>
<path d="M704.5 639C706.433 639 708 637.433 708 635.5C708 633.567 706.433 632 704.5 632C702.567 632 701 633.567 701 635.5C701 637.433 702.567 639 704.5 639Z" stroke="#FFFAEE" stroke-linecap="round" stroke-linejoin="round"/>
<path d="M607 639C608.933 639 610.5 637.433 610.5 635.5C610.5 633.567 608.933 632 607 632C605.067 632 603.5 633.567 603.5 635.5C603.5 637.433 605.067 639 607 639Z" stroke="#FFFAEE" stroke-linecap="round" stroke-linejoin="round"/>
<path d="M631.5 639C633.433 639 635 637.433 635 635.5C635 633.567 633.433 632 631.5 632C629.567 632 628 633.567 628 635.5C628 637.433 629.567 639 631.5 639Z" stroke="#FFFAEE" stroke-linecap="round" stroke-linejoin="round"/>
<path d="M582.5 639C584.433 639 586 637.433 586 635.5C586 633.567 584.433 632 582.5 632C580.567 632 579 633.567 579 635.5C579 637.433 580.567 639 582.5 639Z" stroke="#FFFAEE" stroke-linecap="round" stroke-linejoin="round"/>
<path d="M274.824 551.624H274.704L269.568 566H267.528L273.744 549.032H275.856L282.096 566H279.936L274.824 551.624ZM278.952 561.296H270.6V559.496H278.952V561.296ZM294.616 553.064C294.52 552.168 294.144 551.528 293.488 551.144C292.832 550.76 291.936 550.568 290.8 550.568C289.536 550.568 288.6 550.816 287.992 551.312C287.384 551.792 287.08 552.488 287.08 553.4C287.08 553.912 287.184 554.336 287.392 554.672C287.616 554.992 287.896 555.256 288.232 555.464C288.584 555.672 288.944 555.84 289.312 555.968C289.696 556.08 290.048 556.184 290.368 556.28L292.096 556.76C292.56 556.888 293.072 557.056 293.632 557.264C294.192 557.456 294.728 557.728 295.24 558.08C295.752 558.432 296.168 558.88 296.488 559.424C296.808 559.952 296.968 560.616 296.968 561.416C296.968 562.376 296.744 563.224 296.296 563.96C295.848 564.696 295.16 565.272 294.232 565.688C293.32 566.104 292.16 566.312 290.752 566.312C288.816 566.312 287.336 565.912 286.312 565.112C285.288 564.296 284.72 563.184 284.608 561.776H286.696C286.776 562.48 286.992 563.032 287.344 563.432C287.696 563.832 288.16 564.12 288.736 564.296C289.328 564.456 290 564.536 290.752 564.536C292.08 564.536 293.104 564.272 293.824 563.744C294.56 563.216 294.928 562.424 294.928 561.368C294.928 560.76 294.768 560.28 294.448 559.928C294.144 559.56 293.736 559.272 293.224 559.064C292.712 558.856 292.152 558.664 291.544 558.488L289.384 557.888C288.024 557.504 286.96 556.968 286.192 556.28C285.44 555.592 285.064 554.664 285.064 553.496C285.064 552.504 285.304 551.664 285.784 550.976C286.264 550.272 286.944 549.736 287.824 549.368C288.704 548.984 289.72 548.792 290.872 548.792C292.056 548.792 293.064 548.976 293.896 549.344C294.744 549.696 295.4 550.192 295.864 550.832C296.344 551.472 296.6 552.216 296.632 553.064H294.616ZM310.042 553.064C309.946 552.168 309.57 551.528 308.914 551.144C308.258 550.76 307.362 550.568 306.226 550.568C304.962 550.568 304.026 550.816 303.418 551.312C302.81 551.792 302.506 552.488 302.506 553.4C302.506 553.912 302.61 554.336 302.818 554.672C303.042 554.992 303.322 555.256 303.658 555.464C304.01 555.672 304.37 555.84 304.738 555.968C305.122 556.08 305.474 556.184 305.794 556.28L307.522 556.76C307.986 556.888 308.498 557.056 309.058 557.264C309.618 557.456 310.154 557.728 310.666 558.08C311.178 558.432 311.594 558.88 311.914 559.424C312.234 559.952 312.394 560.616 312.394 561.416C312.394 562.376 312.17 563.224 311.722 563.96C311.274 564.696 310.586 565.272 309.658 565.688C308.746 566.104 307.586 566.312 306.178 566.312C304.242 566.312 302.762 565.912 301.738 565.112C300.714 564.296 300.146 563.184 300.034 561.776H302.122C302.202 562.48 302.418 563.032 302.77 563.432C303.122 563.832 303.586 564.12 304.162 564.296C304.754 564.456 305.426 564.536 306.178 564.536C307.506 564.536 308.53 564.272 309.25 563.744C309.986 563.216 310.354 562.424 310.354 561.368C310.354 560.76 310.194 560.28 309.874 559.928C309.57 559.56 309.162 559.272 308.65 559.064C308.138 558.856 307.578 558.664 306.97 558.488L304.81 557.888C303.45 557.504 302.386 556.968 301.618 556.28C300.866 555.592 300.49 554.664 300.49 553.496C300.49 552.504 300.73 551.664 301.21 550.976C301.69 550.272 302.37 549.736 303.25 549.368C304.13 548.984 305.146 548.792 306.298 548.792C307.482 548.792 308.49 548.976 309.322 549.344C310.17 549.696 310.826 550.192 311.29 550.832C311.77 551.472 312.026 552.216 312.058 553.064H310.042ZM316.397 549.032H326.477V550.784H318.461V556.616H325.925V558.344H318.461V564.248H326.597V566H316.397V549.032ZM329.542 549.032H342.406V550.784H337.006V566H334.966V550.784H329.542V549.032ZM354.953 567.704H344.249V566H354.953V567.704ZM362.233 566H360.169V549.032H362.233V566ZM357.577 550.784V549.032H364.801V550.784H357.577ZM357.577 566V564.248H364.801V566H357.577ZM369.783 566V549.032H375.327C377.903 549.032 379.831 549.76 381.111 551.216C382.407 552.656 383.055 554.752 383.055 557.504C383.055 560.24 382.399 562.344 381.087 563.816C379.775 565.272 377.775 566 375.087 566H369.783ZM374.967 564.248C376.471 564.248 377.663 563.992 378.543 563.48C379.423 562.952 380.047 562.184 380.415 561.176C380.799 560.168 380.991 558.944 380.991 557.504C380.991 556.048 380.799 554.824 380.415 553.832C380.047 552.824 379.439 552.064 378.591 551.552C377.743 551.04 376.599 550.784 375.159 550.784H371.847V564.248H374.967ZM393.892 564.512L399.652 558.416C400.34 557.696 400.9 557.064 401.332 556.52C401.764 555.976 402.092 555.472 402.316 555.008C402.54 554.528 402.652 554.024 402.652 553.496C402.652 552.504 402.356 551.768 401.764 551.288C401.172 550.792 400.372 550.544 399.364 550.544C398.34 550.544 397.524 550.832 396.916 551.408C396.308 551.968 396.004 552.792 396.004 553.88H393.988C393.972 552.84 394.196 551.944 394.66 551.192C395.124 550.424 395.764 549.832 396.58 549.416C397.412 549 398.364 548.792 399.436 548.792C400.524 548.792 401.46 548.984 402.244 549.368C403.028 549.752 403.628 550.296 404.044 551C404.476 551.688 404.692 552.52 404.692 553.496C404.692 554.12 404.564 554.72 404.308 555.296C404.068 555.872 403.66 556.512 403.084 557.216C402.524 557.92 401.748 558.792 400.756 559.832L395.788 565.112L395.572 564.248H404.884V566H393.892V564.512ZM414.591 566.24C413.167 566.24 411.999 565.912 411.087 565.256C410.191 564.6 409.535 563.624 409.119 562.328C408.719 561.032 408.519 559.424 408.519 557.504C408.519 555.568 408.727 553.96 409.143 552.68C409.575 551.4 410.239 550.432 411.135 549.776C412.031 549.12 413.183 548.792 414.591 548.792C416.031 548.792 417.199 549.12 418.095 549.776C418.991 550.432 419.647 551.4 420.063 552.68C420.495 553.96 420.711 555.568 420.711 557.504C420.711 559.424 420.495 561.032 420.063 562.328C419.647 563.624 418.991 564.6 418.095 565.256C417.199 565.912 416.031 566.24 414.591 566.24ZM414.591 564.464C416.063 564.464 417.111 563.912 417.735 562.808C418.359 561.688 418.671 559.92 418.671 557.504C418.671 555.088 418.359 553.328 417.735 552.224C417.111 551.104 416.063 550.544 414.591 550.544C413.167 550.544 412.143 551.104 411.519 552.224C410.895 553.328 410.583 555.088 410.583 557.504C410.583 559.92 410.887 561.688 411.495 562.808C412.119 563.912 413.151 564.464 414.591 564.464ZM424.324 564.512L430.084 558.416C430.772 557.696 431.332 557.064 431.764 556.52C432.196 555.976 432.524 555.472 432.748 555.008C432.972 554.528 433.084 554.024 433.084 553.496C433.084 552.504 432.788 551.768 432.196 551.288C431.604 550.792 430.804 550.544 429.796 550.544C428.772 550.544 427.956 550.832 427.348 551.408C426.74 551.968 426.436 552.792 426.436 553.88H424.42C424.404 552.84 424.628 551.944 425.092 551.192C425.556 550.424 426.196 549.832 427.012 549.416C427.844 549 428.796 548.792 429.868 548.792C430.956 548.792 431.892 548.984 432.676 549.368C433.46 549.752 434.06 550.296 434.476 551C434.908 551.688 435.124 552.52 435.124 553.496C435.124 554.12 434.996 554.72 434.74 555.296C434.5 555.872 434.092 556.512 433.516 557.216C432.956 557.92 432.18 558.792 431.188 559.832L426.22 565.112L426.004 564.248H435.316V566H424.324V564.512ZM439.358 560.624C439.374 560.048 439.454 559.472 439.598 558.896C439.758 558.304 440.022 557.664 440.39 556.976C440.758 556.288 441.262 555.504 441.902 554.624L446.03 549.032H448.382L442.502 556.952L442.358 556.16C442.598 556.016 442.854 555.88 443.126 555.752C443.398 555.624 443.71 555.52 444.062 555.44C444.414 555.36 444.806 555.32 445.238 555.32C446.358 555.32 447.326 555.544 448.142 555.992C448.974 556.44 449.606 557.072 450.038 557.888C450.486 558.688 450.71 559.64 450.71 560.744C450.71 561.848 450.486 562.816 450.038 563.648C449.606 564.464 448.966 565.104 448.118 565.568C447.27 566.016 446.246 566.24 445.046 566.24C443.222 566.24 441.814 565.728 440.822 564.704C439.83 563.68 439.342 562.32 439.358 560.624ZM441.374 560.744C441.374 561.88 441.662 562.792 442.238 563.48C442.814 564.152 443.75 564.488 445.046 564.488C446.31 564.488 447.23 564.152 447.806 563.48C448.382 562.792 448.67 561.88 448.67 560.744C448.67 559.592 448.382 558.696 447.806 558.056C447.23 557.4 446.31 557.072 445.046 557.072C443.894 557.072 442.99 557.4 442.334 558.056C441.694 558.696 441.374 559.592 441.374 560.744ZM464.116 567.704H453.412V566H464.116V567.704ZM469.884 549.032L475.476 563H475.62L481.236 549.032H483.78V566H481.812V552.968H481.668L476.388 566H474.66L469.404 552.968H469.26V566H467.292V549.032H469.884ZM500.545 559.16H496.009V557.384H502.585V559.352C502.585 560.584 502.345 561.728 501.865 562.784C501.385 563.824 500.641 564.664 499.633 565.304C498.625 565.928 497.313 566.24 495.697 566.24C493.313 566.24 491.473 565.488 490.177 563.984C488.881 562.48 488.233 560.32 488.233 557.504C488.233 554.688 488.881 552.536 490.177 551.048C491.473 549.544 493.313 548.792 495.697 548.792C496.881 548.792 497.945 549 498.889 549.416C499.833 549.832 500.617 550.44 501.241 551.24C501.865 552.024 502.265 553 502.441 554.168H500.329C500.121 552.92 499.617 552.008 498.817 551.432C498.033 550.856 496.993 550.568 495.697 550.568C493.937 550.568 492.593 551.136 491.665 552.272C490.753 553.392 490.297 555.136 490.297 557.504C490.297 559.872 490.753 561.624 491.665 562.76C492.593 563.88 493.937 564.44 495.697 564.44C496.561 564.44 497.281 564.328 497.857 564.104C498.433 563.88 498.897 563.576 499.249 563.192C499.601 562.808 499.865 562.384 500.041 561.92C500.233 561.456 500.361 560.984 500.425 560.504C500.505 560.008 500.545 559.56 500.545 559.16ZM515.669 567.704H504.965V566H515.669V567.704ZM529.717 554.408C529.717 554.968 529.629 555.536 529.453 556.112C529.277 556.688 529.005 557.312 528.637 557.984C528.285 558.656 527.813 559.456 527.221 560.384L523.573 566H521.269L526.693 557.912L526.837 558.776C526.581 558.936 526.301 559.088 525.997 559.232C525.709 559.376 525.389 559.496 525.037 559.592C524.701 559.672 524.317 559.712 523.885 559.712C522.765 559.712 521.789 559.488 520.957 559.04C520.141 558.592 519.509 557.968 519.061 557.168C518.613 556.352 518.389 555.392 518.389 554.288C518.389 553.168 518.613 552.2 519.061 551.384C519.509 550.568 520.157 549.936 521.005 549.488C521.853 549.024 522.877 548.792 524.077 548.792C525.917 548.792 527.317 549.304 528.277 550.328C529.253 551.352 529.733 552.712 529.717 554.408ZM527.725 554.264C527.725 553.112 527.437 552.208 526.861 551.552C526.285 550.896 525.357 550.568 524.077 550.568C522.813 550.568 521.893 550.896 521.317 551.552C520.741 552.208 520.453 553.112 520.453 554.264C520.453 555.416 520.741 556.32 521.317 556.976C521.893 557.616 522.813 557.936 524.077 557.936C525.229 557.936 526.125 557.616 526.765 556.976C527.405 556.32 527.725 555.416 527.725 554.264ZM545.331 554.408C545.331 554.968 545.243 555.536 545.067 556.112C544.891 556.688 544.619 557.312 544.251 557.984C543.899 558.656 543.427 559.456 542.835 560.384L539.187 566H536.883L542.307 557.912L542.451 558.776C542.195 558.936 541.915 559.088 541.611 559.232C541.323 559.376 541.003 559.496 540.651 559.592C540.315 559.672 539.931 559.712 539.499 559.712C538.379 559.712 537.403 559.488 536.571 559.04C535.755 558.592 535.123 557.968 534.675 557.168C534.227 556.352 534.003 555.392 534.003 554.288C534.003 553.168 534.227 552.2 534.675 551.384C535.123 550.568 535.771 549.936 536.619 549.488C537.467 549.024 538.491 548.792 539.691 548.792C541.531 548.792 542.931 549.304 543.891 550.328C544.867 551.352 545.347 552.712 545.331 554.408ZM543.339 554.264C543.339 553.112 543.051 552.208 542.475 551.552C541.899 550.896 540.971 550.568 539.691 550.568C538.427 550.568 537.507 550.896 536.931 551.552C536.355 552.208 536.067 553.112 536.067 554.264C536.067 555.416 536.355 556.32 536.931 556.976C537.507 557.616 538.427 557.936 539.691 557.936C540.843 557.936 541.739 557.616 542.379 556.976C543.019 556.32 543.339 555.416 543.339 554.264ZM555.305 566.24C553.881 566.24 552.713 565.912 551.801 565.256C550.905 564.6 550.249 563.624 549.833 562.328C549.433 561.032 549.233 559.424 549.233 557.504C549.233 555.568 549.441 553.96 549.857 552.68C550.289 551.4 550.953 550.432 551.849 549.776C552.745 549.12 553.897 548.792 555.305 548.792C556.745 548.792 557.913 549.12 558.809 549.776C559.705 550.432 560.361 551.4 560.777 552.68C561.209 553.96 561.425 555.568 561.425 557.504C561.425 559.424 561.209 561.032 560.777 562.328C560.361 563.624 559.705 564.6 558.809 565.256C557.913 565.912 556.745 566.24 555.305 566.24ZM555.305 564.464C556.777 564.464 557.825 563.912 558.449 562.808C559.073 561.688 559.385 559.92 559.385 557.504C559.385 555.088 559.073 553.328 558.449 552.224C557.825 551.104 556.777 550.544 555.305 550.544C553.881 550.544 552.857 551.104 552.233 552.224C551.609 553.328 551.297 555.088 551.297 557.504C551.297 559.92 551.601 561.688 552.209 562.808C552.833 563.912 553.865 564.464 555.305 564.464ZM571.038 556.328L575.622 549.032H577.974L572.382 557.744L571.038 556.328ZM571.35 558.632L566.694 566H564.342L570.006 557.192L571.35 558.632ZM569.862 557.576L564.318 549.032H566.766L571.206 556.064L572.478 557.432L578.046 566H575.598L570.966 558.656L569.862 557.576Z" fill="#FFFAEE"/>
<path d="M638.452 517.096H637.54L638.188 513.916H639.208L638.452 517.096ZM640.564 517.096H639.652L640.3 513.916H641.308L640.564 517.096ZM647.984 516.532C647.936 516.084 647.748 515.764 647.42 515.572C647.092 515.38 646.644 515.284 646.076 515.284C645.444 515.284 644.976 515.408 644.672 515.656C644.368 515.896 644.216 516.244 644.216 516.7C644.216 516.956 644.268 517.168 644.372 517.336C644.484 517.496 644.624 517.628 644.792 517.732C644.968 517.836 645.148 517.92 645.332 517.984C645.524 518.04 645.7 518.092 645.86 518.14L646.724 518.38C646.956 518.444 647.212 518.528 647.492 518.632C647.772 518.728 648.04 518.864 648.296 519.04C648.552 519.216 648.76 519.44 648.92 519.712C649.08 519.976 649.16 520.308 649.16 520.708C649.16 521.188 649.048 521.612 648.824 521.98C648.6 522.348 648.256 522.636 647.792 522.844C647.336 523.052 646.756 523.156 646.052 523.156C645.084 523.156 644.344 522.956 643.832 522.556C643.32 522.148 643.036 521.592 642.98 520.888H644.024C644.064 521.24 644.172 521.516 644.348 521.716C644.524 521.916 644.756 522.06 645.044 522.148C645.34 522.228 645.676 522.268 646.052 522.268C646.716 522.268 647.228 522.136 647.588 521.872C647.956 521.608 648.14 521.212 648.14 520.684C648.14 520.38 648.06 520.14 647.9 519.964C647.748 519.78 647.544 519.636 647.288 519.532C647.032 519.428 646.752 519.332 646.448 519.244L645.368 518.944C644.688 518.752 644.156 518.484 643.772 518.14C643.396 517.796 643.208 517.332 643.208 516.748C643.208 516.252 643.328 515.832 643.568 515.488C643.808 515.136 644.148 514.868 644.588 514.684C645.028 514.492 645.536 514.396 646.112 514.396C646.704 514.396 647.208 514.488 647.624 514.672C648.048 514.848 648.376 515.096 648.608 515.416C648.848 515.736 648.976 516.108 648.992 516.532H647.984ZM656.681 517.12C656.585 516.496 656.345 516.036 655.961 515.74C655.577 515.436 655.065 515.284 654.425 515.284C653.585 515.284 652.941 515.572 652.493 516.148C652.053 516.716 651.833 517.584 651.833 518.752C651.833 519.92 652.053 520.792 652.493 521.368C652.941 521.944 653.585 522.232 654.425 522.232C655.065 522.232 655.577 522.08 655.961 521.776C656.345 521.472 656.589 521.012 656.693 520.396H657.737C657.609 521.276 657.257 521.952 656.681 522.424C656.113 522.888 655.361 523.12 654.425 523.12C653.257 523.12 652.361 522.744 651.737 521.992C651.113 521.24 650.801 520.16 650.801 518.752C650.801 517.344 651.113 516.268 651.737 515.524C652.361 514.772 653.257 514.396 654.425 514.396C655.009 514.396 655.533 514.5 655.997 514.708C656.461 514.908 656.841 515.212 657.137 515.62C657.441 516.028 657.637 516.528 657.725 517.12H656.681ZM662.599 515.812H662.539L659.971 523H658.951L662.059 514.516H663.115L666.235 523H665.155L662.599 515.812ZM664.663 520.648H660.487V519.748H664.663V520.648ZM668.087 514.516H669.119V522.1H673.055V523H668.087V514.516ZM677.838 515.812H677.778L675.21 523H674.19L677.298 514.516H678.354L681.474 523H680.394L677.838 515.812ZM679.902 520.648H675.726V519.748H679.902V520.648ZM683.326 514.516H686.374C687.022 514.516 687.542 514.612 687.934 514.804C688.326 514.996 688.61 515.26 688.786 515.596C688.962 515.932 689.05 516.32 689.05 516.76C689.05 517.136 688.966 517.452 688.798 517.708C688.638 517.964 688.434 518.16 688.186 518.296C687.946 518.432 687.698 518.52 687.442 518.56V518.632C687.65 518.64 687.866 518.692 688.09 518.788C688.314 518.876 688.522 519.008 688.714 519.184C688.914 519.352 689.074 519.568 689.194 519.832C689.322 520.088 689.386 520.392 689.386 520.744C689.386 521.184 689.294 521.576 689.11 521.92C688.926 522.256 688.622 522.52 688.198 522.712C687.774 522.904 687.198 523 686.47 523H683.326V514.516ZM686.458 522.124C686.978 522.124 687.374 522.068 687.646 521.956C687.918 521.836 688.102 521.668 688.198 521.452C688.302 521.236 688.354 520.992 688.354 520.72C688.354 520.408 688.29 520.132 688.162 519.892C688.042 519.652 687.846 519.464 687.574 519.328C687.31 519.184 686.958 519.112 686.518 519.112H684.358V522.124H686.458ZM686.326 518.248C686.902 518.248 687.326 518.124 687.598 517.876C687.878 517.62 688.018 517.256 688.018 516.784C688.018 516.512 687.974 516.272 687.886 516.064C687.798 515.848 687.634 515.684 687.394 515.572C687.162 515.452 686.822 515.392 686.374 515.392H684.358V518.248H686.326ZM691.45 514.516H692.482V522.1H696.418V523H691.45V514.516ZM698.026 514.516H703.066V515.392H699.058V518.308H702.79V519.172H699.058V522.124H703.126V523H698.026V514.516ZM711.94 521.824H712.012L714.592 514.516H715.684L712.576 523H711.376L708.268 514.516H709.372L711.94 521.824ZM717.545 514.516H722.585V515.392H718.577V518.308H722.309V519.172H718.577V522.124H722.645V523H717.545V514.516ZM730.228 517.12C730.132 516.496 729.892 516.036 729.508 515.74C729.124 515.436 728.612 515.284 727.972 515.284C727.132 515.284 726.488 515.572 726.04 516.148C725.6 516.716 725.38 517.584 725.38 518.752C725.38 519.92 725.6 520.792 726.04 521.368C726.488 521.944 727.132 522.232 727.972 522.232C728.612 522.232 729.124 522.08 729.508 521.776C729.892 521.472 730.136 521.012 730.24 520.396H731.284C731.156 521.276 730.804 521.952 730.228 522.424C729.66 522.888 728.908 523.12 727.972 523.12C726.804 523.12 725.908 522.744 725.284 521.992C724.66 521.24 724.348 520.16 724.348 518.752C724.348 517.344 724.66 516.268 725.284 515.524C725.908 514.772 726.804 514.396 727.972 514.396C728.556 514.396 729.08 514.5 729.544 514.708C730.008 514.908 730.388 515.212 730.684 515.62C730.988 516.028 731.184 516.528 731.272 517.12H730.228ZM732.3 514.516H738.732V515.392H736.032V523H735.012V515.392H732.3V514.516ZM747.048 518.752C747.048 520.16 746.732 521.24 746.1 521.992C745.476 522.744 744.564 523.12 743.364 523.12C742.172 523.12 741.26 522.744 740.628 521.992C740.004 521.24 739.692 520.16 739.692 518.752C739.692 517.344 740.004 516.268 740.628 515.524C741.26 514.772 742.172 514.396 743.364 514.396C744.564 514.396 745.476 514.772 746.1 515.524C746.732 516.268 747.048 517.344 747.048 518.752ZM746.016 518.752C746.016 517.568 745.796 516.696 745.356 516.136C744.924 515.568 744.264 515.284 743.376 515.284C742.48 515.284 741.812 515.568 741.372 516.136C740.94 516.696 740.724 517.568 740.724 518.752C740.724 519.936 740.94 520.812 741.372 521.38C741.812 521.948 742.48 522.232 743.376 522.232C744.264 522.232 744.924 521.948 745.356 521.38C745.796 520.812 746.016 519.936 746.016 518.752ZM753.261 519.088L755.469 523H754.293L752.229 519.268L753.261 519.088ZM752.133 518.764C752.669 518.764 753.077 518.704 753.357 518.584C753.637 518.456 753.829 518.268 753.933 518.02C754.045 517.772 754.101 517.46 754.101 517.084C754.101 516.708 754.045 516.396 753.933 516.148C753.829 515.9 753.637 515.716 753.357 515.596C753.077 515.468 752.669 515.404 752.133 515.404H750.309V518.764H752.133ZM752.193 519.652H750.309V523H749.277V514.516H752.181C752.917 514.516 753.497 514.624 753.921 514.84C754.353 515.048 754.661 515.344 754.845 515.728C755.029 516.112 755.121 516.564 755.121 517.084C755.121 517.476 755.077 517.832 754.989 518.152C754.901 518.464 754.749 518.732 754.533 518.956C754.317 519.18 754.017 519.352 753.633 519.472C753.257 519.592 752.777 519.652 752.193 519.652ZM766.832 519.58H764.564V518.692H767.852V519.676C767.852 520.292 767.732 520.864 767.492 521.392C767.252 521.912 766.88 522.332 766.376 522.652C765.872 522.964 765.216 523.12 764.408 523.12C763.216 523.12 762.296 522.744 761.648 521.992C761 521.24 760.676 520.16 760.676 518.752C760.676 517.344 761 516.268 761.648 515.524C762.296 514.772 763.216 514.396 764.408 514.396C765 514.396 765.532 514.5 766.004 514.708C766.476 514.916 766.868 515.22 767.18 515.62C767.492 516.012 767.692 516.5 767.78 517.084H766.724C766.62 516.46 766.368 516.004 765.968 515.716C765.576 515.428 765.056 515.284 764.408 515.284C763.528 515.284 762.856 515.568 762.392 516.136C761.936 516.696 761.708 517.568 761.708 518.752C761.708 519.936 761.936 520.812 762.392 521.38C762.856 521.94 763.528 522.22 764.408 522.22C764.84 522.22 765.2 522.164 765.488 522.052C765.776 521.94 766.008 521.788 766.184 521.596C766.36 521.404 766.492 521.192 766.58 520.96C766.676 520.728 766.74 520.492 766.772 520.252C766.812 520.004 766.832 519.78 766.832 519.58ZM774.034 519.088L776.242 523H775.066L773.002 519.268L774.034 519.088ZM772.906 518.764C773.442 518.764 773.85 518.704 774.13 518.584C774.41 518.456 774.602 518.268 774.706 518.02C774.818 517.772 774.874 517.46 774.874 517.084C774.874 516.708 774.818 516.396 774.706 516.148C774.602 515.9 774.41 515.716 774.13 515.596C773.85 515.468 773.442 515.404 772.906 515.404H771.082V518.764H772.906ZM772.966 519.652H771.082V523H770.05V514.516H772.954C773.69 514.516 774.27 514.624 774.694 514.84C775.126 515.048 775.434 515.344 775.618 515.728C775.802 516.112 775.894 516.564 775.894 517.084C775.894 517.476 775.85 517.832 775.762 518.152C775.674 518.464 775.522 518.732 775.306 518.956C775.09 519.18 774.79 519.352 774.406 519.472C774.03 519.592 773.55 519.652 772.966 519.652ZM781.171 515.812H781.111L778.543 523H777.523L780.631 514.516H781.687L784.807 523H783.727L781.171 515.812ZM783.235 520.648H779.059V519.748H783.235V520.648ZM786.66 514.516H789.54C790.26 514.516 790.832 514.632 791.256 514.864C791.688 515.088 792 515.4 792.192 515.8C792.384 516.192 792.48 516.652 792.48 517.18C792.48 517.692 792.384 518.152 792.192 518.56C792 518.968 791.692 519.288 791.268 519.52C790.844 519.752 790.276 519.868 789.564 519.868H787.692V523H786.66V514.516ZM789.516 518.98C790.044 518.98 790.448 518.908 790.728 518.764C791.008 518.612 791.2 518.404 791.304 518.14C791.408 517.868 791.46 517.548 791.46 517.18C791.46 516.804 791.408 516.484 791.304 516.22C791.2 515.956 791.008 515.756 790.728 515.62C790.448 515.476 790.036 515.404 789.492 515.404H787.692V518.98H789.516ZM794.455 514.516H795.487V518.308H799.867V514.516H800.899V523H799.867V519.184H795.487V523H794.455V514.516ZM805.721 523H804.689V514.516H805.721V523ZM803.393 515.392V514.516H807.005V515.392H803.393ZM803.393 523V522.124H807.005V523H803.393ZM814.839 517.12C814.743 516.496 814.503 516.036 814.119 515.74C813.735 515.436 813.223 515.284 812.583 515.284C811.743 515.284 811.099 515.572 810.651 516.148C810.211 516.716 809.991 517.584 809.991 518.752C809.991 519.92 810.211 520.792 810.651 521.368C811.099 521.944 811.743 522.232 812.583 522.232C813.223 522.232 813.735 522.08 814.119 521.776C814.503 521.472 814.747 521.012 814.851 520.396H815.895C815.767 521.276 815.415 521.952 814.839 522.424C814.271 522.888 813.519 523.12 812.583 523.12C811.415 523.12 810.519 522.744 809.895 521.992C809.271 521.24 808.959 520.16 808.959 518.752C808.959 517.344 809.271 516.268 809.895 515.524C810.519 514.772 811.415 514.396 812.583 514.396C813.167 514.396 813.691 514.5 814.155 514.708C814.619 514.908 814.999 515.212 815.295 515.62C815.599 516.028 815.795 516.528 815.883 517.12H814.839ZM822.6 516.532C822.552 516.084 822.364 515.764 822.036 515.572C821.708 515.38 821.26 515.284 820.692 515.284C820.06 515.284 819.592 515.408 819.288 515.656C818.984 515.896 818.832 516.244 818.832 516.7C818.832 516.956 818.884 517.168 818.988 517.336C819.1 517.496 819.24 517.628 819.408 517.732C819.584 517.836 819.764 517.92 819.948 517.984C820.14 518.04 820.316 518.092 820.476 518.14L821.34 518.38C821.572 518.444 821.828 518.528 822.108 518.632C822.388 518.728 822.656 518.864 822.912 519.04C823.168 519.216 823.376 519.44 823.536 519.712C823.696 519.976 823.776 520.308 823.776 520.708C823.776 521.188 823.664 521.612 823.44 521.98C823.216 522.348 822.872 522.636 822.408 522.844C821.952 523.052 821.372 523.156 820.668 523.156C819.7 523.156 818.96 522.956 818.448 522.556C817.936 522.148 817.652 521.592 817.596 520.888H818.64C818.68 521.24 818.788 521.516 818.964 521.716C819.14 521.916 819.372 522.06 819.66 522.148C819.956 522.228 820.292 522.268 820.668 522.268C821.332 522.268 821.844 522.136 822.204 521.872C822.572 521.608 822.756 521.212 822.756 520.684C822.756 520.38 822.676 520.14 822.516 519.964C822.364 519.78 822.16 519.636 821.904 519.532C821.648 519.428 821.368 519.332 821.064 519.244L819.984 518.944C819.304 518.752 818.772 518.484 818.388 518.14C818.012 517.796 817.824 517.332 817.824 516.748C817.824 516.252 817.944 515.832 818.184 515.488C818.424 515.136 818.764 514.868 819.204 514.684C819.644 514.492 820.152 514.396 820.728 514.396C821.32 514.396 821.824 514.488 822.24 514.672C822.664 514.848 822.992 515.096 823.224 515.416C823.464 515.736 823.592 516.108 823.608 516.532H822.6ZM826.233 517.096H825.321L825.969 513.916H826.989L826.233 517.096ZM828.345 517.096H827.433L828.081 513.916H829.089L828.345 517.096Z" fill="#FFFAEE"/>
<path d="M276.032 640.312C274.912 640.312 273.824 640.112 272.768 639.712C271.712 639.312 270.76 638.728 269.912 637.96C269.064 637.192 268.384 636.264 267.872 635.176C267.376 634.088 267.128 632.848 267.128 631.456C267.128 630.064 267.376 628.824 267.872 627.736C268.384 626.648 269.064 625.728 269.912 624.976C270.76 624.208 271.712 623.624 272.768 623.224C273.824 622.824 274.912 622.624 276.032 622.624C277.152 622.624 278.24 622.824 279.296 623.224C280.352 623.624 281.304 624.208 282.152 624.976C283 625.728 283.672 626.648 284.168 627.736C284.664 628.824 284.912 630.064 284.912 631.456C284.912 632.848 284.664 634.088 284.168 635.176C283.672 636.264 283 637.192 282.152 637.96C281.304 638.728 280.352 639.312 279.296 639.712C278.24 640.112 277.152 640.312 276.032 640.312ZM276.032 639.208C276.976 639.208 277.904 639.04 278.816 638.704C279.728 638.352 280.552 637.848 281.288 637.192C282.024 636.52 282.608 635.704 283.04 634.744C283.488 633.784 283.712 632.688 283.712 631.456C283.712 630.224 283.488 629.128 283.04 628.168C282.608 627.208 282.024 626.4 281.288 625.744C280.552 625.072 279.728 624.568 278.816 624.232C277.904 623.88 276.976 623.704 276.032 623.704C275.072 623.704 274.136 623.88 273.224 624.232C272.312 624.568 271.488 625.072 270.752 625.744C270.016 626.4 269.424 627.208 268.976 628.168C268.544 629.128 268.328 630.224 268.328 631.456C268.328 632.688 268.544 633.784 268.976 634.744C269.424 635.704 270.016 636.52 270.752 637.192C271.488 637.848 272.312 638.352 273.224 638.704C274.136 639.04 275.072 639.208 276.032 639.208ZM276.128 636.16C274.656 636.16 273.544 635.736 272.792 634.888C272.04 634.04 271.664 632.888 271.664 631.432C271.664 629.976 272.048 628.832 272.816 628C273.6 627.168 274.688 626.752 276.08 626.752C276.816 626.752 277.448 626.872 277.976 627.112C278.52 627.352 278.952 627.696 279.272 628.144C279.608 628.576 279.824 629.096 279.92 629.704H278.576C278.464 629.144 278.232 628.704 277.88 628.384C277.544 628.064 276.952 627.904 276.104 627.904C275.08 627.904 274.296 628.208 273.752 628.816C273.208 629.424 272.936 630.296 272.936 631.432C272.936 632.584 273.208 633.472 273.752 634.096C274.296 634.704 275.08 635.008 276.104 635.008C276.904 635.008 277.488 634.88 277.856 634.624C278.224 634.352 278.464 633.92 278.576 633.328H279.92C279.856 633.888 279.664 634.384 279.344 634.816C279.04 635.232 278.616 635.56 278.072 635.8C277.544 636.04 276.896 636.16 276.128 636.16ZM293.647 638.824L299.455 632.608C300.191 631.824 300.791 631.136 301.255 630.544C301.719 629.936 302.063 629.376 302.287 628.864C302.527 628.336 302.647 627.8 302.647 627.256C302.647 626.216 302.311 625.424 301.639 624.88C300.967 624.32 300.071 624.04 298.951 624.04C297.831 624.04 296.911 624.376 296.191 625.048C295.471 625.704 295.127 626.608 295.159 627.76H293.767C293.751 626.72 293.967 625.832 294.415 625.096C294.863 624.36 295.487 623.792 296.287 623.392C297.087 622.992 297.999 622.792 299.023 622.792C300.095 622.792 300.999 622.976 301.735 623.344C302.487 623.696 303.063 624.208 303.463 624.88C303.863 625.536 304.063 626.328 304.063 627.256C304.063 627.864 303.959 628.456 303.751 629.032C303.543 629.592 303.159 630.24 302.599 630.976C302.055 631.696 301.263 632.608 300.223 633.712L294.751 639.568L294.847 638.752H304.279V640H293.647V638.824ZM318.982 640.24C317.59 640.24 316.454 639.928 315.574 639.304C314.71 638.664 314.078 637.704 313.678 636.424C313.278 635.128 313.078 633.488 313.078 631.504C313.078 629.52 313.278 627.888 313.678 626.608C314.094 625.328 314.734 624.376 315.598 623.752C316.478 623.112 317.606 622.792 318.982 622.792C320.374 622.792 321.502 623.112 322.366 623.752C323.246 624.376 323.886 625.328 324.286 626.608C324.702 627.888 324.91 629.52 324.91 631.504C324.91 633.472 324.702 635.104 324.286 636.4C323.886 637.696 323.246 638.664 322.366 639.304C321.502 639.928 320.374 640.24 318.982 640.24ZM318.982 638.992C320.614 638.992 321.774 638.376 322.462 637.144C323.15 635.912 323.494 634.032 323.494 631.504C323.494 628.976 323.15 627.104 322.462 625.888C321.774 624.656 320.614 624.04 318.982 624.04C317.366 624.04 316.214 624.656 315.526 625.888C314.838 627.104 314.494 628.976 314.494 631.504C314.494 634.032 314.83 635.912 315.502 637.144C316.19 638.376 317.35 638.992 318.982 638.992ZM333.713 638.824L339.521 632.608C340.257 631.824 340.857 631.136 341.321 630.544C341.785 629.936 342.129 629.376 342.353 628.864C342.593 628.336 342.713 627.8 342.713 627.256C342.713 626.216 342.377 625.424 341.705 624.88C341.033 624.32 340.137 624.04 339.017 624.04C337.897 624.04 336.977 624.376 336.257 625.048C335.537 625.704 335.193 626.608 335.225 627.76H333.833C333.817 626.72 334.033 625.832 334.481 625.096C334.929 624.36 335.553 623.792 336.353 623.392C337.153 622.992 338.065 622.792 339.089 622.792C340.161 622.792 341.065 622.976 341.801 623.344C342.553 623.696 343.129 624.208 343.529 624.88C343.929 625.536 344.129 626.328 344.129 627.256C344.129 627.864 344.025 628.456 343.817 629.032C343.609 629.592 343.225 630.24 342.665 630.976C342.121 631.696 341.329 632.608 340.289 633.712L334.817 639.568L334.913 638.752H344.345V640H333.713V638.824ZM353.6 634.672C353.616 634.048 353.688 633.44 353.816 632.848C353.96 632.256 354.208 631.624 354.56 630.952C354.928 630.28 355.432 629.512 356.072 628.648L360.272 623.032H361.976L356.288 630.568L356.096 630.352C356.432 630.144 356.736 629.976 357.008 629.848C357.28 629.704 357.576 629.6 357.896 629.536C358.216 629.456 358.608 629.416 359.072 629.416C360.24 629.416 361.232 629.632 362.048 630.064C362.864 630.48 363.48 631.088 363.896 631.888C364.328 632.688 364.544 633.656 364.544 634.792C364.544 635.88 364.336 636.832 363.92 637.648C363.504 638.464 362.888 639.104 362.072 639.568C361.256 640.016 360.256 640.24 359.072 640.24C357.28 640.24 355.912 639.736 354.968 638.728C354.04 637.704 353.584 636.352 353.6 634.672ZM355.016 634.792C355.016 636.072 355.328 637.096 355.952 637.864C356.592 638.616 357.632 638.992 359.072 638.992C360.496 638.992 361.528 638.616 362.168 637.864C362.808 637.096 363.128 636.072 363.128 634.792C363.128 633.512 362.808 632.504 362.168 631.768C361.528 631.032 360.496 630.664 359.072 630.664C357.792 630.664 356.792 631.032 356.072 631.768C355.368 632.504 355.016 633.512 355.016 634.792Z" fill="#FFFAEE"/>
<path d="M267.8 605.544H266.456L271.976 585.12H273.32L267.8 605.544ZM277.093 586.032H282.757C284.117 586.032 285.213 586.248 286.045 586.68C286.877 587.096 287.485 587.688 287.869 588.456C288.253 589.224 288.445 590.136 288.445 591.192C288.445 592.248 288.253 593.168 287.869 593.952C287.485 594.736 286.877 595.344 286.045 595.776C285.229 596.208 284.149 596.424 282.805 596.424H278.533V603H277.093V586.032ZM282.709 595.176C283.829 595.176 284.701 595.016 285.325 594.696C285.949 594.36 286.381 593.896 286.621 593.304C286.877 592.696 287.005 591.992 287.005 591.192C287.005 590.376 286.877 589.68 286.621 589.104C286.381 588.512 285.949 588.064 285.325 587.76C284.701 587.44 283.813 587.28 282.661 587.28H278.533V595.176H282.709ZM299.96 595.224L304.376 603H302.768L298.52 595.488L299.96 595.224ZM298.088 594.768C299.224 594.768 300.104 594.624 300.728 594.336C301.352 594.048 301.792 593.624 302.048 593.064C302.304 592.504 302.432 591.816 302.432 591C302.432 590.168 302.304 589.48 302.048 588.936C301.792 588.392 301.352 587.984 300.728 587.712C300.104 587.424 299.224 587.28 298.088 587.28H293.96V594.768H298.088ZM298.208 596.016H293.96V603H292.52V586.032H298.184C299.56 586.032 300.664 586.232 301.496 586.632C302.328 587.016 302.928 587.576 303.296 588.312C303.68 589.048 303.872 589.944 303.872 591C303.872 591.832 303.784 592.56 303.608 593.184C303.432 593.808 303.128 594.336 302.696 594.768C302.264 595.184 301.68 595.496 300.944 595.704C300.224 595.912 299.312 596.016 298.208 596.016ZM322.139 594.504C322.139 597.304 321.531 599.464 320.315 600.984C319.115 602.488 317.347 603.24 315.011 603.24C312.675 603.24 310.899 602.488 309.683 600.984C308.483 599.464 307.883 597.304 307.883 594.504C307.883 591.704 308.483 589.552 309.683 588.048C310.899 586.544 312.675 585.792 315.011 585.792C317.347 585.792 319.115 586.544 320.315 588.048C321.531 589.552 322.139 591.704 322.139 594.504ZM320.699 594.504C320.699 591.96 320.227 590.088 319.283 588.888C318.355 587.688 316.931 587.088 315.011 587.088C313.091 587.088 311.659 587.688 310.715 588.888C309.787 590.088 309.323 591.96 309.323 594.504C309.323 597.048 309.787 598.928 310.715 600.144C311.659 601.344 313.091 601.944 315.011 601.944C316.931 601.944 318.355 601.344 319.283 600.144C320.227 598.928 320.699 597.048 320.699 594.504ZM338.166 590.952C337.958 589.656 337.438 588.688 336.606 588.048C335.79 587.408 334.702 587.088 333.342 587.088C331.55 587.088 330.158 587.696 329.166 588.912C328.19 590.128 327.702 591.984 327.702 594.48C327.702 596.992 328.19 598.864 329.166 600.096C330.158 601.312 331.55 601.92 333.342 601.92C334.702 601.92 335.79 601.6 336.606 600.96C337.438 600.32 337.966 599.36 338.19 598.08H339.702C339.43 599.76 338.758 601.04 337.686 601.92C336.614 602.8 335.166 603.24 333.342 603.24C330.974 603.24 329.198 602.48 328.014 600.96C326.846 599.424 326.262 597.264 326.262 594.48C326.262 591.712 326.846 589.576 328.014 588.072C329.198 586.552 330.974 585.792 333.342 585.792C334.478 585.792 335.486 585.984 336.366 586.368C337.262 586.752 337.99 587.328 338.55 588.096C339.126 588.864 339.502 589.816 339.678 590.952H338.166ZM344.354 586.032H353.906V587.28H345.794V593.88H353.354V595.128H345.794V601.752H354.026V603H344.354V586.032ZM367.919 589.704C367.791 588.712 367.351 588.024 366.599 587.64C365.863 587.256 364.887 587.064 363.671 587.064C362.279 587.064 361.247 587.336 360.575 587.88C359.903 588.408 359.567 589.192 359.567 590.232C359.567 590.84 359.679 591.336 359.903 591.72C360.143 592.104 360.447 592.416 360.815 592.656C361.183 592.88 361.575 593.064 361.991 593.208C362.407 593.336 362.791 593.448 363.143 593.544L364.991 594.048C365.455 594.176 365.959 594.336 366.503 594.528C367.047 594.72 367.559 594.984 368.039 595.32C368.535 595.656 368.935 596.088 369.239 596.616C369.543 597.144 369.695 597.8 369.695 598.584C369.695 599.48 369.479 600.288 369.047 601.008C368.615 601.728 367.951 602.296 367.055 602.712C366.159 603.112 365.015 603.312 363.623 603.312C361.767 603.312 360.343 602.936 359.351 602.184C358.359 601.432 357.799 600.416 357.671 599.136H359.159C359.255 599.904 359.503 600.496 359.903 600.912C360.303 601.328 360.815 601.624 361.439 601.8C362.079 601.96 362.807 602.04 363.623 602.04C365.095 602.04 366.231 601.76 367.031 601.2C367.847 600.624 368.255 599.736 368.255 598.536C368.255 597.816 368.079 597.248 367.727 596.832C367.391 596.416 366.935 596.088 366.359 595.848C365.799 595.608 365.191 595.4 364.535 595.224L362.231 594.6C360.919 594.232 359.903 593.72 359.183 593.064C358.479 592.408 358.127 591.504 358.127 590.352C358.127 589.408 358.351 588.6 358.799 587.928C359.263 587.24 359.911 586.712 360.743 586.344C361.591 585.976 362.591 585.792 363.743 585.792C364.863 585.792 365.823 585.96 366.623 586.296C367.439 586.616 368.079 587.072 368.543 587.664C369.023 588.24 369.295 588.92 369.359 589.704H367.919ZM383.064 589.704C382.936 588.712 382.496 588.024 381.744 587.64C381.008 587.256 380.032 587.064 378.816 587.064C377.424 587.064 376.392 587.336 375.72 587.88C375.048 588.408 374.712 589.192 374.712 590.232C374.712 590.84 374.824 591.336 375.048 591.72C375.288 592.104 375.592 592.416 375.96 592.656C376.328 592.88 376.72 593.064 377.136 593.208C377.552 593.336 377.936 593.448 378.288 593.544L380.136 594.048C380.6 594.176 381.104 594.336 381.648 594.528C382.192 594.72 382.704 594.984 383.184 595.32C383.68 595.656 384.08 596.088 384.384 596.616C384.688 597.144 384.84 597.8 384.84 598.584C384.84 599.48 384.624 600.288 384.192 601.008C383.76 601.728 383.096 602.296 382.2 602.712C381.304 603.112 380.16 603.312 378.768 603.312C376.912 603.312 375.488 602.936 374.496 602.184C373.504 601.432 372.944 600.416 372.816 599.136H374.304C374.4 599.904 374.648 600.496 375.048 600.912C375.448 601.328 375.96 601.624 376.584 601.8C377.224 601.96 377.952 602.04 378.768 602.04C380.24 602.04 381.376 601.76 382.176 601.2C382.992 600.624 383.4 599.736 383.4 598.536C383.4 597.816 383.224 597.248 382.872 596.832C382.536 596.416 382.08 596.088 381.504 595.848C380.944 595.608 380.336 595.4 379.68 595.224L377.376 594.6C376.064 594.232 375.048 593.72 374.328 593.064C373.624 592.408 373.272 591.504 373.272 590.352C373.272 589.408 373.496 588.6 373.944 587.928C374.408 587.24 375.056 586.712 375.888 586.344C376.736 585.976 377.736 585.792 378.888 585.792C380.008 585.792 380.968 585.96 381.768 586.296C382.584 586.616 383.224 587.072 383.688 587.664C384.168 588.24 384.44 588.92 384.504 589.704H383.064ZM388.681 605.544H387.337L392.857 585.12H394.201L388.681 605.544ZM403.543 601.344H403.687L409.279 586.032H410.791L404.599 603H402.607L396.439 586.032H397.975L403.543 601.344ZM419.682 603.24C418.29 603.24 417.154 602.928 416.274 602.304C415.41 601.664 414.778 600.704 414.378 599.424C413.978 598.128 413.778 596.488 413.778 594.504C413.778 592.52 413.978 590.888 414.378 589.608C414.794 588.328 415.434 587.376 416.298 586.752C417.178 586.112 418.306 585.792 419.682 585.792C421.074 585.792 422.202 586.112 423.066 586.752C423.946 587.376 424.586 588.328 424.986 589.608C425.402 590.888 425.61 592.52 425.61 594.504C425.61 596.472 425.402 598.104 424.986 599.4C424.586 600.696 423.946 601.664 423.066 602.304C422.202 602.928 421.074 603.24 419.682 603.24ZM419.682 601.992C421.314 601.992 422.474 601.376 423.162 600.144C423.85 598.912 424.194 597.032 424.194 594.504C424.194 591.976 423.85 590.104 423.162 588.888C422.474 587.656 421.314 587.04 419.682 587.04C418.066 587.04 416.914 587.656 416.226 588.888C415.538 590.104 415.194 591.976 415.194 594.504C415.194 597.032 415.53 598.912 416.202 600.144C416.89 601.376 418.05 601.992 419.682 601.992ZM435.205 603H433.765V586.992L434.269 587.112L429.445 590.376V588.864L433.597 586.032H435.205V603Z" fill="#FFFAEE"/>
<path d="M709.392 505V487.96H725.232V491.512H714.192V494.68H724.152V498.088H714.192V501.448H725.4V505H709.392ZM725.105 505L733.025 496.288L725.369 487.96H731.321L736.241 493.528L741.137 487.96H746.873L739.265 496.288L747.257 505H741.329L736.097 499.096L730.841 505H725.105ZM753.17 505V491.512H746.402V487.96H764.738V491.512H757.97V505H753.17ZM765.551 505V487.96H781.391V491.512H770.351V494.68H780.311V498.088H770.351V501.448H781.559V505H765.551ZM782.896 505V487.96H787.816L795.976 497.512H796V487.96H800.464V505H796.792L787.384 494.008H787.36V505H782.896ZM802.279 505V487.96H811.471C813.727 487.96 815.591 488.328 817.063 489.064C818.551 489.8 819.663 490.816 820.399 492.112C821.135 493.392 821.503 494.856 821.503 496.504C821.503 498.136 821.135 499.592 820.399 500.872C819.663 502.152 818.551 503.16 817.063 503.896C815.591 504.632 813.727 505 811.471 505H802.279ZM807.079 501.448H811.135C813.007 501.448 814.391 501.032 815.287 500.2C816.199 499.368 816.655 498.232 816.655 496.792V496.168C816.655 494.696 816.199 493.552 815.287 492.736C814.391 491.92 813.007 491.512 811.135 491.512H807.079V501.448Z" fill="#FFFAEE"/>
<g clip-path="url(#clip0_43_756)">
<path d="M333.046 453.443L322.535 448.611L312.024 453.443L310.642 450.47L322.535 445L334.419 450.47L333.046 453.443Z" fill="#FFFAEE"/>
<path d="M304.601 453.248L286.474 461.587L287.854 464.561L305.981 456.221L304.601 453.248Z" fill="#FFFAEE"/>
<path d="M280.434 477.641L266 471L280.434 464.367L281.816 467.339L273.846 471L281.816 474.668L280.434 477.641Z" fill="#FFFAEE"/>
<path d="M287.851 477.445L286.472 480.419L304.601 488.756L305.98 485.782L287.851 477.445Z" fill="#FFFAEE"/>
<path d="M322.535 497L310.642 491.538L312.024 488.565L322.535 493.397L333.046 488.565L334.419 491.538L322.535 497Z" fill="#FFFAEE"/>
<path d="M357.209 477.448L339.082 485.788L340.462 488.762L358.589 480.422L357.209 477.448Z" fill="#FFFAEE"/>
<path d="M364.636 477.641L363.254 474.668L371.224 471L363.254 467.339L364.636 464.367L379.07 471L364.636 477.641Z" fill="#FFFAEE"/>
<path d="M340.472 453.249L339.092 456.222L357.22 464.562L358.6 461.589L340.472 453.249Z" fill="#FFFAEE"/>
<path d="M307.261 479.907H304.279V466.041L306.935 465.976L300.666 470.09V467.086L304.628 464.517H307.261V479.907ZM311.73 474.922C311.73 474.472 311.81 474.001 311.969 473.507C312.129 472.999 312.383 472.426 312.731 471.787C313.094 471.149 313.566 470.416 314.146 469.589L317.759 464.517H321.025L314.821 473.115L314.973 470.895C315.089 470.764 315.307 470.634 315.626 470.503C315.96 470.373 316.316 470.264 316.693 470.177C317.085 470.09 317.433 470.046 317.738 470.046C318.681 470.046 319.523 470.264 320.263 470.699C321.017 471.134 321.605 471.729 322.026 472.484C322.461 473.224 322.679 474.073 322.679 475.031C322.679 476.061 322.461 476.961 322.026 477.73C321.59 478.485 320.959 479.072 320.132 479.493C319.319 479.914 318.347 480.124 317.215 480.124C315.503 480.124 314.153 479.66 313.166 478.731C312.194 477.788 311.715 476.518 311.73 474.922ZM314.668 475.031C314.668 475.829 314.872 476.467 315.278 476.946C315.684 477.411 316.33 477.643 317.215 477.643C318.086 477.643 318.724 477.411 319.131 476.946C319.552 476.467 319.762 475.829 319.762 475.031C319.762 474.218 319.559 473.594 319.153 473.159C318.746 472.709 318.1 472.484 317.215 472.484C316.446 472.484 315.829 472.709 315.365 473.159C314.901 473.594 314.668 474.218 314.668 475.031ZM325.426 467.347H328.604V470.481H325.426V467.347ZM325.426 475.727H328.604V478.862H325.426V475.727ZM342.277 469.502C342.277 470.068 342.168 470.619 341.951 471.156C341.747 471.693 341.464 472.259 341.102 472.854C340.753 473.449 340.347 474.109 339.883 474.835L336.705 479.907H333.439L339.208 471.309L339.055 473.529C338.939 473.645 338.722 473.776 338.402 473.921C338.098 474.051 337.749 474.16 337.358 474.247C336.98 474.334 336.625 474.378 336.291 474.378C335.348 474.378 334.499 474.16 333.744 473.725C333.004 473.289 332.416 472.694 331.981 471.94C331.56 471.185 331.35 470.336 331.35 469.393C331.35 468.363 331.567 467.47 332.003 466.716C332.438 465.947 333.062 465.352 333.875 464.931C334.702 464.51 335.682 464.299 336.813 464.299C338.526 464.299 339.868 464.771 340.84 465.714C341.813 466.643 342.292 467.906 342.277 469.502ZM339.36 469.393C339.36 468.58 339.157 467.942 338.751 467.478C338.344 467.013 337.699 466.781 336.813 466.781C335.943 466.781 335.297 467.013 334.876 467.478C334.47 467.942 334.267 468.58 334.267 469.393C334.267 470.191 334.47 470.815 334.876 471.265C335.282 471.715 335.928 471.94 336.813 471.94C337.583 471.94 338.199 471.715 338.664 471.265C339.128 470.815 339.36 470.191 339.36 469.393Z" fill="#FFFAEE"/>
</g>
<path d="M794.212 565.498C796.263 563.53 798.955 562.446 801.792 562.446C807.829 562.446 812.74 567.351 812.74 573.379C812.74 579.408 807.828 584.313 801.792 584.313C801.702 584.313 801.612 584.311 801.522 584.309C801.162 584.3 800.865 584.59 800.865 584.95V588.031C800.865 588.38 801.145 588.664 801.494 588.671C801.593 588.673 801.692 588.674 801.792 588.674C810.237 588.674 817.107 581.813 817.107 573.379C817.107 564.946 810.237 558.084 801.792 558.084C797.812 558.084 794.039 559.608 791.168 562.374C789.018 564.445 787.546 567.045 786.881 569.886C786.639 570.921 786.527 571.982 786.526 573.046L786.479 600.511C786.478 600.943 786.829 601.295 787.263 601.295H790.06C790.493 601.295 790.844 600.945 790.844 600.512V573.164L790.855 572.909C790.974 570.093 792.167 567.461 794.212 565.498H794.212Z" fill="#FFFAEE"/>
<path d="M801.792 556.215C806.695 556.215 811.284 558.251 814.592 561.923C817.205 564.824 818.748 568.545 818.954 572.441C819.215 577.373 817.411 582.053 813.945 585.515C810.699 588.757 806.382 590.542 801.792 590.542C801.729 590.542 801.667 590.541 801.605 590.54C801.198 590.533 800.865 590.861 800.865 591.267V594.175C800.865 594.572 801.185 594.897 801.583 594.902C801.653 594.903 801.722 594.904 801.793 594.904C807.55 594.904 812.963 592.665 817.034 588.599C821.105 584.534 823.347 579.128 823.347 573.379C823.347 567.629 821.105 562.223 817.034 558.158C812.963 554.092 807.55 551.853 801.793 551.853C796.035 551.853 790.623 554.092 786.552 558.158C782.899 561.805 780.706 566.57 780.306 571.674C780.283 571.968 780.273 572.263 780.272 572.558L780.239 600.51C780.239 600.943 780.589 601.294 781.023 601.294H783.821C784.254 601.294 784.605 600.944 784.605 600.511V573.159L784.612 572.898C784.732 568.499 786.517 564.359 789.638 561.242C792.884 558 797.201 556.215 801.791 556.215H801.792Z" fill="#FFFAEE"/>
<path d="M827.4 562.574C826 559.269 823.997 556.301 821.445 553.753C818.893 551.204 815.921 549.203 812.611 547.805C809.183 546.357 805.543 545.623 801.792 545.623C798.041 545.623 794.401 546.357 790.973 547.805C787.663 549.203 784.692 551.204 782.14 553.753C779.588 556.301 777.585 559.269 776.185 562.574C774.893 565.623 774.168 568.846 774.026 572.166L774 600.511C774 600.944 774.351 601.295 774.784 601.295H777.582C778.015 601.295 778.366 600.944 778.366 600.512V573.188L778.372 572.895C778.494 566.832 780.929 561.129 785.227 556.837C789.651 552.419 795.534 549.985 801.791 549.985C808.049 549.985 813.931 552.419 818.356 556.837C822.496 560.972 824.895 566.382 825.187 572.179C825.54 579.201 822.706 586.034 817.484 590.75C813.173 594.644 807.646 596.774 801.791 596.774C801.728 596.774 801.665 596.773 801.603 596.772H801.6C801.195 596.767 800.864 597.094 800.864 597.498V600.409C800.864 600.806 801.185 601.13 801.583 601.134C801.653 601.135 801.722 601.136 801.791 601.136C805.542 601.136 809.182 600.402 812.61 598.954C815.92 597.555 818.892 595.554 821.444 593.006C823.995 590.458 825.999 587.49 827.399 584.185C828.849 580.762 829.584 577.126 829.584 573.38C829.584 569.634 828.849 565.999 827.399 562.576L827.4 562.574Z" fill="#FFFAEE"/>
<path d="M806.501 573.379C806.501 575.972 804.389 578.081 801.793 578.081C801.711 578.081 801.626 578.079 801.54 578.074C801.173 578.055 800.865 578.347 800.865 578.714V581.797C800.865 582.143 801.139 582.426 801.485 582.437C801.591 582.441 801.694 582.442 801.793 582.442C806.797 582.442 810.869 578.376 810.869 573.378C810.869 568.38 806.797 564.314 801.793 564.314C800.369 564.314 799.016 564.646 797.808 565.239C794.723 566.754 792.803 569.928 792.796 573.362L792.718 600.509C792.717 600.942 793.068 601.294 793.502 601.294H796.299C796.731 601.294 797.083 600.943 797.083 600.511V573.176C797.083 573.171 797.083 573.167 797.083 573.162L797.104 572.94C797.212 571.78 797.748 570.705 798.613 569.912C799.484 569.115 800.612 568.676 801.791 568.676C804.388 568.676 806.5 570.785 806.5 573.378L806.501 573.379Z" fill="#FFFAEE"/>
<path d="M705.006 548C689.012 548 676 561.012 676 577.006C676 593 689.012 606.012 705.006 606.012C721 606.012 734.012 593 734.012 577.006C734.012 561.012 721 548 705.006 548ZM731.366 577.006C731.366 591.544 719.544 603.366 705.006 603.366C690.468 603.366 678.646 591.544 678.646 577.006C678.646 562.468 690.468 550.646 705.006 550.646C719.544 550.646 731.366 562.468 731.366 577.006Z" fill="#FFFAEE"/>
<path d="M704.961 582.131V579.616L709.782 570.525C710.026 570.071 710.166 569.678 710.201 569.346C710.236 568.996 710.253 568.569 710.253 568.062C710.253 567.835 710.244 567.599 710.227 567.355C710.227 567.093 710.183 566.866 710.096 566.674C710.009 566.481 709.878 566.324 709.703 566.202C709.528 566.062 709.275 565.992 708.943 565.992C708.541 565.992 708.218 566.106 707.974 566.333C707.747 566.56 707.633 566.892 707.633 567.328V568.848H704.961V567.381C704.961 566.822 705.066 566.298 705.275 565.809C705.485 565.32 705.773 564.892 706.14 564.525C706.489 564.158 706.908 563.87 707.397 563.661C707.886 563.434 708.41 563.32 708.969 563.32C709.668 563.32 710.262 563.451 710.751 563.713C711.257 563.958 711.677 564.298 712.008 564.735C712.323 565.171 712.55 565.669 712.69 566.228C712.847 566.787 712.925 567.381 712.925 568.01C712.925 568.464 712.917 568.848 712.899 569.162C712.882 569.459 712.847 569.748 712.794 570.027C712.742 570.306 712.655 570.586 712.532 570.865C712.41 571.145 712.244 571.485 712.035 571.887L708.105 579.459H712.925V582.131H704.961ZM720.656 563.477L717.617 571.311L717.669 571.363C717.757 571.293 717.888 571.241 718.062 571.206C718.254 571.154 718.499 571.127 718.796 571.127C719.267 571.127 719.704 571.241 720.106 571.468C720.507 571.695 720.822 571.983 721.049 572.332C721.171 572.525 721.267 572.717 721.337 572.909C721.407 573.101 721.468 573.354 721.52 573.669C721.555 573.983 721.582 574.385 721.599 574.874C721.617 575.345 721.625 575.948 721.625 576.681C721.625 577.293 721.617 577.799 721.599 578.201C721.582 578.585 721.555 578.908 721.52 579.17C721.468 579.45 721.398 579.686 721.311 579.878C721.241 580.07 721.145 580.271 721.023 580.48C720.673 581.057 720.202 581.502 719.608 581.816C719.032 582.131 718.377 582.288 717.643 582.288C716.909 582.288 716.255 582.131 715.678 581.816C715.102 581.485 714.639 581.039 714.29 580.48C714.15 580.271 714.036 580.07 713.949 579.878C713.879 579.686 713.827 579.45 713.792 579.17C713.739 578.908 713.704 578.585 713.687 578.201C713.67 577.799 713.661 577.293 713.661 576.681C713.661 576.105 713.67 575.634 713.687 575.267C713.704 574.883 713.731 574.551 713.766 574.271C713.801 574.009 713.853 573.773 713.923 573.564C713.993 573.337 714.071 573.101 714.159 572.856L717.669 563.477H720.656ZM718.953 574.821C718.953 574.42 718.822 574.097 718.56 573.852C718.298 573.607 717.992 573.485 717.643 573.485C717.294 573.485 716.988 573.607 716.726 573.852C716.464 574.097 716.333 574.42 716.333 574.821V578.28C716.333 578.681 716.464 579.004 716.726 579.249C716.988 579.494 717.294 579.616 717.643 579.616C717.992 579.616 718.298 579.494 718.56 579.249C718.822 579.004 718.953 578.681 718.953 578.28V574.821Z" fill="#FFFAEE"/>
<path d="M441.015 469.124C438.312 469.124 435.966 468.545 433.98 467.386C431.993 466.2 431 464.792 431 463.165C431 461.895 431.428 460.999 432.283 460.474C433.138 459.95 433.994 459.688 434.849 459.688C435.318 459.688 435.787 459.84 436.256 460.143C436.725 460.419 436.96 460.902 436.96 461.592C436.96 462.116 436.725 462.585 436.256 462.999C435.787 463.413 435.235 463.62 434.601 463.62C434.242 463.62 433.897 463.606 433.566 463.578C433.235 463.523 432.931 463.413 432.655 463.247V463.496C432.655 464.792 433.428 465.882 434.973 466.765C436.546 467.62 438.67 468.048 441.347 468.048C443.609 468.048 445.899 467.483 448.217 466.351C450.534 465.22 453.045 463.33 455.749 460.681C458.453 458.033 461.515 454.432 464.937 449.88C466.123 448.307 467.641 446.444 469.489 444.292C471.365 442.113 473.062 440.195 474.58 438.54C470.082 441.713 466.302 443.934 463.24 445.203C460.205 446.472 457.584 447.107 455.377 447.107C453.528 447.107 452.052 446.789 450.948 446.155C449.845 445.493 449.293 444.21 449.293 442.306C449.293 441.671 449.362 440.94 449.5 440.112C448.479 440.195 447.458 440.237 446.437 440.237C444.671 440.237 443.043 440.043 441.553 439.657C440.064 439.271 438.822 438.802 437.829 438.25C437.084 437.864 436.711 437.574 436.711 437.381C436.711 437.105 436.863 436.967 437.167 436.967C437.249 436.967 437.429 437.05 437.705 437.215C439.112 437.96 440.491 438.512 441.843 438.871C443.223 439.229 444.961 439.409 447.058 439.409C447.886 439.409 448.755 439.367 449.665 439.285C450.3 436.608 451.583 433.877 453.514 431.09C455.473 428.304 457.846 425.613 460.633 423.02C463.447 420.426 466.454 418.109 469.655 416.067C472.855 414.025 476.042 412.411 479.215 411.225C482.388 410.011 485.299 409.404 487.947 409.404C489.741 409.404 491.024 409.707 491.796 410.314C492.569 410.894 492.955 411.79 492.955 413.004C492.955 415.129 491.865 417.474 489.686 420.04C487.506 422.606 484.471 425.213 480.581 427.862C476.718 430.511 472.235 433.022 467.13 435.394C465.033 436.332 462.881 437.16 460.674 437.878C458.467 438.567 456.246 439.119 454.011 439.533C453.128 441.244 452.686 442.678 452.686 443.837C452.686 444.361 452.921 444.858 453.39 445.327C453.859 445.796 454.728 446.031 455.997 446.031C458.48 446.031 461.598 445.065 465.351 443.134C469.103 441.202 474.069 437.85 480.25 433.077C481.712 431.946 483.023 431.021 484.181 430.304C485.368 429.586 486.168 429.228 486.582 429.228C486.802 429.228 487.023 429.269 487.244 429.352C487.465 429.435 487.575 429.545 487.575 429.683C487.575 429.931 487.34 430.166 486.871 430.387C485.851 430.856 484.733 431.683 483.519 432.87C482.333 434.029 480.926 435.698 479.298 437.878C477.697 440.03 475.78 442.844 473.545 446.32C463.833 461.523 452.99 469.124 441.015 469.124ZM454.59 438.416C456.549 437.947 458.605 437.284 460.757 436.429C462.909 435.574 465.199 434.539 467.627 433.325C471.158 431.449 474.4 429.49 477.353 427.448C480.332 425.379 482.912 423.379 485.092 421.447C487.272 419.488 488.955 417.736 490.141 416.191C491.355 414.618 491.962 413.418 491.962 412.591C491.962 411.818 491.658 411.252 491.051 410.894C490.472 410.535 489.699 410.356 488.734 410.356C486.665 410.356 484.361 410.976 481.822 412.218C479.284 413.46 476.663 415.115 473.959 417.184C471.283 419.254 468.689 421.53 466.178 424.013C463.668 426.496 461.405 428.993 459.391 431.504C457.377 434.015 455.777 436.319 454.59 438.416ZM483.564 469.083C482.019 469.083 480.763 468.697 479.798 467.924C478.832 467.124 478.349 466.089 478.349 464.82C478.349 462.613 479.963 459.95 483.191 456.832C486.42 453.715 490.793 450.307 496.311 446.61C493.497 446.141 491.069 445.672 489.027 445.203C487.013 444.734 485.399 444.223 484.185 443.672C483.633 444.775 482.833 446.127 481.784 447.727C480.736 449.328 479.398 451.052 477.77 452.901C476.666 454.198 475.838 455.108 475.287 455.632C474.735 456.156 474.349 456.474 474.128 456.584C473.935 456.667 473.824 456.736 473.797 456.791C473.714 456.819 473.659 456.736 473.631 456.543C473.631 456.35 473.645 456.198 473.673 456.087C473.673 455.977 473.879 455.715 474.293 455.301C474.707 454.887 475.576 453.853 476.901 452.197C478.28 450.459 479.508 448.804 480.584 447.231C481.66 445.658 482.488 444.279 483.067 443.092C482.074 442.458 481.495 441.754 481.329 440.982C481.108 439.657 481.37 438.457 482.115 437.381C482.86 436.305 483.826 435.767 485.012 435.767C486.475 435.767 487.206 436.401 487.206 437.671C487.206 438.305 487.082 438.843 486.833 439.285C486.585 439.726 486.337 440.154 486.088 440.568C485.592 441.147 485.343 441.878 485.343 442.761C485.343 443.037 485.813 443.341 486.751 443.672C487.716 443.975 488.889 444.279 490.268 444.582C491.676 444.858 493.055 445.106 494.407 445.327C495.759 445.52 496.821 445.644 497.594 445.7C498.118 445.727 498.435 445.824 498.546 445.989C498.684 446.127 498.753 446.238 498.753 446.32C498.753 446.596 498.353 447.051 497.552 447.686C496.035 448.845 494.476 450.252 492.876 451.907C491.275 453.535 489.786 455.232 488.406 456.998C487.026 458.736 485.909 460.378 485.054 461.923C484.198 463.468 483.771 464.737 483.771 465.73C483.771 467.027 484.295 467.676 485.343 467.676C486.695 467.676 488.172 467.22 489.772 466.31C491.372 465.399 492.986 464.254 494.614 462.875C496.269 461.495 497.815 460.074 499.249 458.612C500.712 457.122 501.967 455.798 503.015 454.639C504.064 453.453 504.795 452.639 505.209 452.197L506.037 452.901C505.43 453.48 504.56 454.404 503.429 455.674C502.326 456.915 501.029 458.309 499.539 459.854C498.049 461.371 496.421 462.833 494.655 464.241C492.917 465.648 491.11 466.807 489.234 467.717C487.358 468.628 485.468 469.083 483.564 469.083ZM501.405 469.083C499.639 469.083 498.342 468.6 497.514 467.634C496.714 466.669 496.314 465.344 496.314 463.661C496.314 461.813 496.7 459.84 497.473 457.743C498.273 455.646 499.584 453.563 501.405 451.494C505.129 447.162 508.606 444.279 511.834 442.844C515.09 441.382 518.138 440.65 520.98 440.65C522.415 440.65 523.629 440.954 524.622 441.561C525.616 442.168 526.112 442.996 526.112 444.044C526.112 444.844 525.947 445.658 525.616 446.486C526.499 445.437 527.243 444.527 527.85 443.754C528.485 442.954 529.092 442.196 529.671 441.478C530.389 441.699 531.217 441.809 532.155 441.809C532.541 441.809 533.065 441.795 533.727 441.768C534.389 441.74 534.9 441.699 535.259 441.644L521.311 458.447C519.546 460.543 518.276 462.254 517.504 463.578C516.731 464.875 516.345 465.882 516.345 466.6C516.345 467.483 516.773 467.924 517.628 467.924C519.118 467.924 520.663 467.496 522.263 466.641C523.864 465.758 525.436 464.641 526.981 463.289C528.526 461.909 529.975 460.488 531.327 459.026C532.679 457.536 533.865 456.17 534.886 454.929C535.935 453.659 536.735 452.721 537.287 452.114L538.114 452.818C537.507 453.508 536.652 454.501 535.548 455.798C534.445 457.095 533.175 458.502 531.741 460.019C530.334 461.537 528.802 462.985 527.147 464.365C525.519 465.744 523.836 466.876 522.098 467.758C520.387 468.641 518.69 469.083 517.007 469.083C514.248 469.083 512.869 468.227 512.869 466.517C512.869 465.882 512.979 465.248 513.2 464.613C513.448 463.951 513.931 463.109 514.648 462.088C515.366 461.04 516.442 459.647 517.876 457.908L517.463 457.743C514.096 461.882 510.979 464.806 508.109 466.517C505.267 468.227 503.032 469.083 501.405 469.083ZM501.57 467.841C503.336 467.841 505.667 466.82 508.564 464.779C511.461 462.709 514.938 459.274 518.994 454.473C519.656 453.673 520.263 452.928 520.815 452.239C521.394 451.549 521.946 450.9 522.47 450.293C523.105 449.328 523.67 448.321 524.167 447.272C524.691 446.224 524.953 445.272 524.953 444.417C524.953 443.561 524.65 442.94 524.043 442.554C523.436 442.14 522.774 441.933 522.056 441.933C520.704 441.933 518.511 442.913 515.476 444.872C512.469 446.803 509.158 449.907 505.543 454.184C503.474 456.667 501.984 458.874 501.074 460.806C500.163 462.737 499.708 464.365 499.708 465.689C499.708 467.124 500.329 467.841 501.57 467.841ZM503.601 498.343C503.27 498.343 502.787 498.301 502.153 498.219C501.491 498.164 500.966 498.081 500.58 497.97C502.705 495.101 505.105 491.859 507.781 488.245C510.458 484.63 513.231 480.864 516.1 476.946C518.942 473.028 521.729 469.193 524.46 465.441C527.164 461.661 529.592 458.198 531.744 455.053C533.344 452.846 534.682 451.011 535.759 449.548C536.835 448.086 537.828 446.748 538.738 445.534C539.676 444.32 540.67 443.009 541.718 441.602C542.794 440.195 544.091 438.471 545.608 436.429C547.154 434.36 549.099 431.739 551.444 428.566C552.437 428.676 553.224 428.745 553.803 428.773C554.41 428.8 554.92 428.814 555.334 428.814C555.721 428.814 556.107 428.8 556.493 428.773C556.907 428.717 557.307 428.635 557.693 428.524C555.265 431.476 553.224 433.96 551.568 435.974C549.913 437.96 548.519 439.657 547.388 441.064C546.257 442.444 545.25 443.699 544.367 444.83C543.484 445.962 542.601 447.107 541.718 448.265C540.863 449.424 539.87 450.776 538.738 452.321C537.607 453.839 536.2 455.729 534.517 457.991L534.807 458.322C543.387 450.073 549.719 444.886 553.803 442.761C555.1 442.099 556.245 441.589 557.238 441.23C558.259 440.844 559.611 440.65 561.294 440.65C562.673 440.65 563.667 440.968 564.274 441.602C564.908 442.237 565.226 443.065 565.226 444.085C565.226 446.182 564.301 448.472 562.453 450.956C560.632 453.439 557.404 456.322 552.768 459.605C550.009 461.564 548.216 462.985 547.388 463.868C546.56 464.723 546.146 465.455 546.146 466.062C546.146 467.303 547.126 467.924 549.085 467.924C551.016 467.924 552.989 467.317 555.003 466.103C557.017 464.861 558.962 463.358 560.839 461.592C562.715 459.798 564.398 458.033 565.888 456.294C567.405 454.556 568.592 453.19 569.447 452.197L570.357 452.901C569.53 453.839 568.343 455.191 566.798 456.957C565.281 458.722 563.515 460.543 561.501 462.42C559.514 464.268 557.431 465.841 555.251 467.138C553.072 468.434 550.933 469.083 548.837 469.083C547.209 469.083 545.995 468.724 545.195 468.007C544.422 467.262 544.036 466.255 544.036 464.986C544.036 463.109 545.07 460.861 547.14 458.24C549.209 455.618 552.713 452.473 557.652 448.804C560.107 447.038 561.611 445.755 562.163 444.955C562.715 444.154 562.991 443.506 562.991 443.009C562.991 442.678 562.839 442.375 562.535 442.099C562.26 441.823 561.846 441.685 561.294 441.685C559.997 441.685 558.728 441.906 557.486 442.347C556.245 442.789 554.907 443.437 553.472 444.292C551.706 445.313 549.706 446.707 547.471 448.472C545.236 450.238 542.932 452.225 540.559 454.432C538.187 456.612 535.855 458.888 533.565 461.261C531.303 463.634 529.22 465.951 527.316 468.214C525.936 470.035 524.405 472.187 522.722 474.67C521.011 477.153 519.301 479.705 517.59 482.326C515.852 484.948 514.251 487.403 512.789 489.693C511.299 491.983 510.085 493.887 509.147 495.404C508.181 496.922 507.63 497.791 507.492 498.012C507.216 498.095 506.761 498.164 506.126 498.219C505.491 498.301 504.65 498.343 503.601 498.343ZM582.984 469.083C581.714 469.083 580.473 468.793 579.259 468.214C578.072 467.634 577.479 466.862 577.479 465.896C577.479 465.151 577.645 464.282 577.976 463.289C578.335 462.268 579.135 460.874 580.376 459.109C581.618 457.343 583.591 454.942 586.294 451.907C588.474 449.452 589.978 447.548 590.806 446.196C591.633 444.844 592.047 443.837 592.047 443.175C592.047 442.789 591.909 442.444 591.633 442.14C591.385 441.837 590.875 441.685 590.102 441.685C589.467 441.685 588.598 441.864 587.495 442.223C586.419 442.582 585.232 443.189 583.935 444.044C581.756 445.534 579.052 447.838 575.824 450.956C572.596 454.046 568.954 458.115 564.898 463.165L561.09 468.214C560.649 468.131 560.235 468.076 559.849 468.048C559.462 468.021 559.076 468.007 558.69 468.007C557.697 468.007 556.869 468.062 556.207 468.172C555.517 468.255 555.02 468.338 554.717 468.421L600.531 402.989C600.89 403.017 601.359 403.058 601.938 403.113C602.545 403.168 603.401 403.182 604.504 403.154C604.725 403.154 604.987 403.141 605.291 403.113C605.594 403.058 605.925 403.017 606.284 402.989L565.229 459.978L565.436 460.433C569.657 455.577 573.244 451.77 576.196 449.01C579.148 446.224 581.604 444.168 583.563 442.844C584.943 441.961 586.212 441.382 587.371 441.106C588.557 440.802 589.592 440.65 590.474 440.65C592.268 440.65 593.537 441.092 594.282 441.975C595.055 442.83 595.413 443.782 595.358 444.83C595.303 445.934 594.93 447.258 594.241 448.804C593.551 450.321 592.351 452.225 590.64 454.515C588.957 456.777 586.57 459.578 583.48 462.916C582.101 464.406 581.259 465.372 580.956 465.813C580.68 466.227 580.542 466.613 580.542 466.972C580.542 467.248 580.845 467.483 581.452 467.676C582.059 467.841 582.735 467.924 583.48 467.924C585.218 467.924 586.97 467.441 588.736 466.475C590.53 465.51 592.254 464.296 593.91 462.833C595.565 461.371 597.069 459.881 598.421 458.364C599.773 456.846 600.904 455.522 601.814 454.391C602.752 453.232 603.359 452.501 603.635 452.197L604.546 452.901C604.187 453.259 603.525 454.046 602.559 455.26C601.621 456.446 600.435 457.826 599 459.398C597.565 460.943 595.979 462.461 594.241 463.951C592.502 465.413 590.668 466.641 588.736 467.634C586.832 468.6 584.915 469.083 582.984 469.083ZM619.117 432.746C618.345 432.746 617.724 432.511 617.255 432.042C616.813 431.545 616.593 430.925 616.593 430.18C616.593 429.214 616.993 428.331 617.793 427.531C618.62 426.703 619.6 426.289 620.731 426.289C621.504 426.289 622.111 426.552 622.552 427.076C623.021 427.572 623.256 428.179 623.256 428.897C623.256 429.918 622.814 430.814 621.931 431.587C621.076 432.359 620.138 432.746 619.117 432.746ZM597.969 469.083C596.286 469.083 594.934 468.779 593.913 468.172C592.864 467.538 592.34 466.696 592.34 465.648C592.34 464.82 592.547 463.868 592.961 462.792C593.375 461.688 594.175 460.254 595.361 458.488C596.52 456.722 598.217 454.432 600.452 451.618C602.714 448.776 605.68 445.217 609.35 440.94C609.598 440.968 610.191 440.995 611.13 441.023C612.068 441.05 612.799 441.064 613.323 441.064C613.792 441.064 614.137 441.064 614.358 441.064C614.606 441.037 614.84 441.009 615.061 440.982C611.033 445.727 607.736 449.631 605.17 452.694C602.632 455.756 600.673 458.198 599.293 460.019C597.914 461.84 596.962 463.234 596.437 464.199C595.913 465.165 595.651 465.937 595.651 466.517C595.651 467.234 596.037 467.648 596.81 467.758C597.582 467.869 598.203 467.924 598.672 467.924C600.162 467.924 601.79 467.427 603.556 466.434C605.322 465.413 607.074 464.158 608.812 462.668C610.578 461.15 612.206 459.619 613.695 458.074C615.213 456.529 616.455 455.205 617.42 454.101C618.386 452.97 618.952 452.321 619.117 452.156L619.945 452.901C619.641 453.232 618.979 453.991 617.958 455.177C616.937 456.363 615.668 457.743 614.151 459.316C612.633 460.861 610.964 462.378 609.143 463.868C607.35 465.358 605.487 466.6 603.556 467.593C601.652 468.586 599.79 469.083 597.969 469.083ZM619.617 469.248C616.692 469.248 614.527 468.531 613.119 467.096C611.74 465.634 611.05 463.868 611.05 461.799C611.05 460.005 611.464 458.115 612.292 456.129C613.147 454.115 614.444 452.073 616.182 450.004C619.189 446.472 622.362 444.017 625.701 442.637C629.067 441.23 631.964 440.568 634.392 440.65C636.24 440.706 637.523 441.147 638.241 441.975C638.986 442.775 639.372 443.616 639.4 444.499C639.455 445.686 639 446.748 638.034 447.686C637.096 448.597 636.089 449.052 635.013 449.052C634.378 449.052 633.771 448.845 633.192 448.431C632.64 448.017 632.35 447.41 632.323 446.61C632.295 445.837 632.585 445.189 633.192 444.665C633.826 444.141 634.571 443.865 635.427 443.837C636.089 443.81 636.792 443.961 637.537 444.292V444.127C637.537 443.41 637.289 442.83 636.792 442.389C636.323 441.947 635.523 441.726 634.392 441.726C632.543 441.726 630.322 442.747 627.729 444.789C625.163 446.831 622.252 449.976 618.996 454.225C617.479 456.239 616.444 458.019 615.892 459.564C615.34 461.081 615.065 462.447 615.065 463.661C615.065 464.848 615.506 465.882 616.389 466.765C617.299 467.62 618.458 468.048 619.865 468.048C622.349 468.048 624.708 467.593 626.942 466.682C629.205 465.772 631.274 464.627 633.15 463.247C635.054 461.84 636.751 460.392 638.241 458.902C639.731 457.412 640.959 456.06 641.924 454.846C642.89 453.632 643.566 452.777 643.952 452.28C644.09 452.114 644.311 452.142 644.614 452.363C644.918 452.556 645.001 452.735 644.863 452.901C644.504 453.453 643.814 454.363 642.793 455.632C641.772 456.874 640.476 458.267 638.903 459.812C637.358 461.357 635.578 462.847 633.564 464.282C631.578 465.717 629.398 466.903 627.025 467.841C624.68 468.779 622.211 469.248 619.617 469.248ZM638.286 469.952C637.43 469.952 636.327 469.842 634.975 469.621C633.623 469.4 632.422 468.931 631.374 468.214C630.298 467.496 629.76 466.379 629.76 464.861C629.76 463.482 630.188 462.351 631.043 461.468C631.871 460.557 632.795 459.881 633.816 459.44C634.837 458.998 635.595 458.778 636.092 458.778C637.223 458.778 637.789 459.302 637.789 460.35C637.761 460.792 637.444 461.206 636.837 461.592C636.258 461.951 635.609 462.13 634.892 462.13C634.561 462.13 634.243 462.02 633.94 461.799C633.609 461.55 633.347 461.371 633.154 461.261C632.85 461.564 632.395 462.02 631.788 462.627C631.153 463.206 630.836 463.965 630.836 464.903C630.836 465.951 631.264 466.738 632.119 467.262C632.947 467.758 633.885 468.09 634.933 468.255C635.982 468.393 636.782 468.462 637.334 468.462C638.492 468.462 639.941 468.007 641.679 467.096C643.417 466.158 645.031 464.599 646.521 462.42C648.039 460.24 649.018 457.274 649.46 453.522C649.598 452.197 649.722 450.362 649.832 448.017C649.97 445.672 650.412 443.423 651.157 441.271C651.184 441.188 651.198 441.064 651.198 440.899C650.15 442.196 649.018 443.589 647.804 445.079C646.59 446.569 645.418 448.003 644.287 449.383C643.183 450.762 642.231 451.935 641.431 452.901C640.879 453.563 640.479 453.991 640.231 454.184C639.982 454.377 639.872 454.473 639.9 454.473C639.872 454.473 639.762 454.487 639.568 454.515C639.403 454.515 639.265 454.418 639.155 454.225C639.099 454.087 639.224 453.825 639.527 453.439C639.858 453.052 640.203 452.639 640.562 452.197C641.196 451.48 642.176 450.335 643.5 448.762C644.825 447.189 646.218 445.506 647.68 443.713C649.17 441.92 650.453 440.333 651.529 438.954C651.695 438.126 651.943 437.381 652.274 436.719C652.605 436.057 653.074 435.725 653.681 435.725C654.785 435.725 655.337 436.181 655.337 437.091C655.309 437.615 654.674 438.595 653.433 440.03C652.688 440.913 652.288 441.492 652.233 441.768C652.178 442.016 652.15 442.347 652.15 442.761C652.122 443.754 652.219 444.996 652.44 446.486C652.688 447.948 652.95 449.493 653.226 451.121C653.502 452.721 653.681 454.253 653.764 455.715C653.847 457.895 653.598 459.785 653.019 461.385C653.46 461.44 653.833 461.468 654.136 461.468C655.019 461.468 656.026 461.068 657.158 460.268C658.316 459.467 659.461 458.515 660.593 457.412C661.724 456.308 662.703 455.26 663.531 454.266C664.386 453.273 664.952 452.583 665.228 452.197L666.138 452.901C665.669 453.397 664.98 454.17 664.069 455.218C663.159 456.239 662.124 457.315 660.965 458.447C659.806 459.55 658.62 460.502 657.406 461.302C656.22 462.075 655.088 462.461 654.012 462.461C653.764 462.461 653.529 462.461 653.309 462.461C653.088 462.433 652.867 462.406 652.647 462.378C651.35 465.248 649.432 467.234 646.894 468.338C644.356 469.414 641.486 469.952 638.286 469.952ZM681.334 469.248C678.658 469.248 676.74 468.931 675.581 468.296C674.45 467.662 673.884 466.958 673.884 466.186C673.884 465.386 674.615 464.599 676.078 463.827C677.54 463.027 679.651 462.627 682.41 462.627C683.845 462.627 685.39 462.792 687.045 463.123C688.728 463.454 691.004 464.047 693.874 464.903C693.957 464.93 694.039 464.958 694.122 464.986C694.205 464.986 694.302 465.013 694.412 465.068C697.281 463.496 700.496 460.971 704.055 457.495C707.642 454.018 712.056 449.107 717.298 442.761C719.671 439.892 721.989 437.105 724.251 434.401C726.514 431.697 729.176 428.924 732.239 426.082C734.032 424.372 736.06 422.758 738.323 421.24C736.391 418.26 733.743 416.095 730.377 414.743C727.01 413.391 723.189 412.715 718.913 412.715C715.629 412.715 712.443 413.267 709.352 414.37C706.262 415.446 703.379 416.895 700.703 418.716C698.054 420.509 695.722 422.509 693.708 424.717C691.694 426.924 690.122 429.159 688.99 431.421C687.887 433.656 687.335 435.739 687.335 437.671C687.335 439.657 688.011 441.257 689.363 442.471C690.742 443.685 692.687 444.292 695.198 444.292C696.909 444.292 698.882 443.837 701.116 442.927C703.351 441.989 705.641 440.719 707.987 439.119C710.332 437.519 712.511 435.698 714.526 433.656C716.567 431.614 718.237 429.462 719.533 427.2C720.858 424.937 721.589 422.689 721.727 420.454C721.81 419.819 721.961 419.502 722.182 419.502C722.513 419.502 722.679 419.792 722.679 420.371C722.679 423.351 721.92 426.331 720.402 429.311C718.885 432.263 716.816 434.953 714.195 437.381C711.601 439.809 708.649 441.768 705.338 443.258C702.055 444.72 698.633 445.451 695.074 445.451C693.391 445.451 691.763 445.093 690.191 444.375C688.645 443.63 687.376 442.609 686.383 441.313C685.417 439.988 684.934 438.457 684.934 436.719C684.934 433.629 685.804 430.607 687.542 427.655C689.28 424.675 691.694 421.985 694.784 419.585C697.875 417.184 701.461 415.281 705.545 413.874C709.628 412.439 714.001 411.721 718.664 411.721C723.437 411.721 727.617 412.466 731.204 413.956C734.791 415.446 737.674 417.543 739.854 420.247C742.558 418.536 745.4 417.088 748.38 415.901C751.387 414.715 754.187 414.067 756.781 413.956C757.195 413.956 757.402 414.094 757.402 414.37C757.402 414.536 757.333 414.66 757.195 414.743C757.057 414.798 756.671 414.881 756.036 414.991C753.553 415.294 751.056 416.081 748.545 417.35C746.062 418.619 743.634 420.275 741.261 422.316C743.303 425.71 744.324 429.683 744.324 434.236C744.324 439.312 743.344 443.975 741.385 448.224C739.454 452.473 736.805 456.156 733.439 459.274C730.101 462.392 726.307 464.806 722.058 466.517C717.837 468.227 713.436 469.083 708.856 469.083C706.786 469.083 704.8 468.917 702.896 468.586C700.992 468.255 698.744 467.717 696.15 466.972C691.68 468.49 686.742 469.248 681.334 469.248ZM709.063 467.841C713.118 467.841 717.078 467.013 720.94 465.358C724.831 463.703 728.335 461.385 731.453 458.405C734.57 455.398 737.054 451.852 738.902 447.769C740.751 443.685 741.675 439.229 741.675 434.401C741.675 430.235 740.999 426.676 739.647 423.723C736.502 426.676 733.467 430.262 730.542 434.484C727.369 439.064 724.182 443.437 720.982 447.603C717.781 451.742 714.332 455.425 710.635 458.653C706.938 461.854 702.758 464.379 698.095 466.227C699.53 466.669 701.103 467.055 702.813 467.386C704.552 467.689 706.635 467.841 709.063 467.841ZM682.037 467.924C683.914 467.924 685.693 467.8 687.376 467.551C689.087 467.276 690.811 466.751 692.55 465.979C690.729 465.51 688.977 465.137 687.293 464.861C685.638 464.558 683.914 464.406 682.12 464.406C679.775 464.406 678.009 464.585 676.823 464.944C675.636 465.303 675.043 465.717 675.043 466.186C675.043 467.345 677.375 467.924 682.037 467.924ZM745.362 469.248C742.658 469.248 740.726 468.545 739.568 467.138C738.409 465.73 737.802 464.006 737.747 461.964C737.719 460.474 738.023 458.819 738.657 456.998C739.292 455.177 739.954 453.784 740.644 452.818C742.685 449.976 744.893 447.658 747.265 445.865C749.638 444.072 751.956 442.761 754.218 441.933C756.508 441.078 758.523 440.65 760.261 440.65C761.944 440.65 763.116 440.926 763.779 441.478C764.468 442.03 764.827 442.665 764.855 443.382C764.937 444.458 764.358 445.713 763.116 447.148C761.902 448.555 759.764 450.086 756.702 451.742C753.639 453.397 749.362 455.136 743.872 456.957C742.906 458.502 742.258 459.84 741.927 460.971C741.596 462.075 741.43 463.068 741.43 463.951C741.43 465.248 741.858 466.255 742.713 466.972C743.596 467.689 744.631 468.048 745.817 468.048C748.41 468.048 750.838 467.565 753.101 466.6C755.391 465.606 757.474 464.365 759.35 462.875C761.254 461.385 762.923 459.881 764.358 458.364C765.793 456.819 766.965 455.48 767.876 454.349C768.786 453.19 769.393 452.473 769.697 452.197L770.566 452.901C770.152 453.259 769.448 454.046 768.455 455.26C767.49 456.474 766.248 457.867 764.73 459.44C763.241 461.012 761.516 462.544 759.557 464.034C757.598 465.524 755.419 466.765 753.018 467.758C750.645 468.752 748.093 469.248 745.362 469.248ZM744.824 455.508C750.176 453.632 754.398 451.701 757.488 449.714C760.578 447.7 762.123 445.782 762.123 443.961C762.123 442.416 761.406 441.644 759.971 441.644C758.122 441.644 756.122 442.637 753.97 444.623C751.818 446.61 749.307 449.493 746.438 453.273C745.831 454.046 745.293 454.791 744.824 455.508ZM736.136 498.343C735.805 498.343 735.322 498.301 734.687 498.219C734.025 498.164 733.501 498.081 733.115 497.97C735.239 495.101 737.64 491.859 740.316 488.245C742.992 484.63 745.765 480.864 748.634 476.946C751.476 473.028 754.263 469.193 756.995 465.441C759.698 461.661 762.126 458.198 764.279 455.053C765.879 452.846 767.217 451.011 768.293 449.548C769.369 448.086 770.362 446.748 771.273 445.534C772.211 444.32 773.204 443.009 774.253 441.602C775.329 440.195 776.625 438.471 778.143 436.429C779.688 434.36 781.633 431.739 783.978 428.566C784.972 428.676 785.758 428.745 786.337 428.773C786.944 428.8 787.455 428.814 787.869 428.814C788.255 428.814 788.641 428.8 789.027 428.773C789.441 428.717 789.841 428.635 790.228 428.524C787.8 431.476 785.758 433.96 784.103 435.974C782.447 437.96 781.054 439.657 779.923 441.064C778.791 442.444 777.784 443.699 776.901 444.83C776.018 445.962 775.135 447.107 774.253 448.265C773.397 449.424 772.404 450.776 771.273 452.321C770.142 453.839 768.734 455.729 767.051 457.991L767.341 458.322C775.922 450.073 782.254 444.886 786.337 442.761C787.634 442.099 788.779 441.589 789.772 441.23C790.793 440.844 792.145 440.65 793.828 440.65C795.208 440.65 796.201 440.968 796.808 441.602C797.443 442.237 797.76 443.065 797.76 444.085C797.76 446.182 796.836 448.472 794.987 450.956C793.166 453.439 789.938 456.322 785.303 459.605C782.544 461.564 780.75 462.985 779.923 463.868C779.095 464.723 778.681 465.455 778.681 466.062C778.681 467.303 779.66 467.924 781.619 467.924C783.551 467.924 785.523 467.317 787.538 466.103C789.552 464.861 791.497 463.358 793.373 461.592C795.249 459.798 796.932 458.033 798.422 456.294C799.94 454.556 801.126 453.19 801.981 452.197L802.892 452.901C802.064 453.839 800.878 455.191 799.333 456.957C797.815 458.722 796.049 460.543 794.035 462.42C792.049 464.268 789.966 465.841 787.786 467.138C785.606 468.434 783.468 469.083 781.371 469.083C779.743 469.083 778.529 468.724 777.729 468.007C776.956 467.262 776.57 466.255 776.57 464.986C776.57 463.109 777.605 460.861 779.674 458.24C781.744 455.618 785.248 452.473 790.186 448.804C792.642 447.038 794.146 445.755 794.697 444.955C795.249 444.154 795.525 443.506 795.525 443.009C795.525 442.678 795.373 442.375 795.07 442.099C794.794 441.823 794.38 441.685 793.828 441.685C792.532 441.685 791.262 441.906 790.021 442.347C788.779 442.789 787.441 443.437 786.006 444.292C784.24 445.313 782.24 446.707 780.005 448.472C777.77 450.238 775.467 452.225 773.094 454.432C770.721 456.612 768.39 458.888 766.099 461.261C763.837 463.634 761.754 465.951 759.85 468.214C758.471 470.035 756.939 472.187 755.256 474.67C753.546 477.153 751.835 479.705 750.124 482.326C748.386 484.948 746.786 487.403 745.324 489.693C743.834 491.983 742.62 493.887 741.682 495.404C740.716 496.922 740.164 497.791 740.026 498.012C739.75 498.095 739.295 498.164 738.66 498.219C738.026 498.301 737.184 498.343 736.136 498.343ZM795.735 469.083C794.218 469.083 793.087 468.779 792.342 468.172C791.569 467.565 791.183 466.793 791.183 465.855C791.183 465.11 791.279 464.379 791.473 463.661C791.666 462.916 792.08 461.978 792.714 460.847C793.349 459.716 794.314 458.198 795.611 456.294C796.908 454.363 798.66 451.839 800.867 448.721L811.545 433.698H808.275C807.448 433.698 807.034 433.518 807.034 433.16C807.034 432.718 807.558 432.497 808.607 432.497H812.373L820.029 421.737C820.388 421.792 820.857 421.847 821.436 421.902C822.043 421.93 822.899 421.93 824.002 421.902C824.554 421.902 825.147 421.847 825.782 421.737L817.794 432.497H828.472C829.244 432.497 829.631 432.69 829.631 433.077C829.631 433.491 829.286 433.698 828.596 433.698H816.884L805.958 448.431C803.364 451.907 801.281 454.763 799.708 456.998C798.136 459.233 796.936 460.999 796.108 462.295C795.308 463.592 794.756 464.558 794.452 465.192C794.177 465.827 794.039 466.296 794.039 466.6C794.039 467.427 794.728 467.869 796.108 467.924C798.012 467.896 799.971 467.276 801.985 466.062C804.026 464.82 805.985 463.316 807.862 461.55C809.738 459.757 811.421 458.005 812.911 456.294C814.401 454.556 815.559 453.19 816.387 452.197L817.298 452.901C816.497 453.839 815.325 455.191 813.78 456.957C812.235 458.722 810.455 460.543 808.441 462.42C806.454 464.268 804.371 465.841 802.192 467.138C800.012 468.434 797.86 469.083 795.735 469.083ZM812.997 469.083C812.141 469.083 811.438 468.807 810.886 468.255C810.334 467.676 810.058 466.931 810.058 466.02C810.058 464.889 810.541 463.854 811.507 462.916C812.473 461.951 813.631 461.468 814.983 461.468C815.921 461.468 816.653 461.757 817.177 462.337C817.701 462.889 817.963 463.62 817.963 464.53C817.963 465.717 817.439 466.779 816.39 467.717C815.342 468.628 814.211 469.083 812.997 469.083Z" fill="#FFFAEE"/>
<defs>
<clipPath id="clip0_43_756">
<rect width="113.07" height="52" fill="white" transform="translate(266 445)"/>
</clipPath>
</defs>
</svg>
