<svg width="1080" height="1080" viewBox="0 0 1080 1080" fill="none" xmlns="http://www.w3.org/2000/svg">
<rect width="1080" height="1080" fill="#191919"/>
<path d="M539.5 413C666.667 413 781.787 493.043 825.951 612.166L827 615L252 615L253.049 612.166C297.213 493.043 412.333 413 539.5 413ZM820.938 610.787C776.619 494.868 663.908 417.193 539.5 417.193C415.092 417.193 302.381 494.868 258.062 610.787L820.938 610.787Z" fill="#FFFAEE"/>
<path d="M486.323 514V496.032H492.524C495.303 496.032 497.387 496.811 498.776 498.37C500.165 499.929 500.86 502.14 500.86 505.003C500.86 507.85 500.157 510.061 498.751 511.636C497.344 513.212 495.184 514 492.27 514H486.323ZM492.143 511.611C493.6 511.611 494.76 511.365 495.625 510.874C496.489 510.383 497.107 509.646 497.48 508.663C497.853 507.68 498.039 506.46 498.039 505.003C498.039 503.529 497.853 502.309 497.48 501.344C497.107 500.361 496.506 499.632 495.675 499.158C494.845 498.667 493.735 498.421 492.346 498.421H489.169V511.611H492.143ZM503.052 496.032H514.259V498.421H505.898V503.783H513.675V506.147H505.898V511.611H514.387V514H503.052V496.032ZM525.983 500.683C525.898 499.836 525.559 499.209 524.966 498.802C524.39 498.379 523.543 498.167 522.425 498.167C521.222 498.167 520.332 498.404 519.756 498.878C519.197 499.336 518.918 499.98 518.918 500.81C518.918 501.25 519.019 501.623 519.223 501.928C519.443 502.216 519.714 502.462 520.036 502.665C520.358 502.852 520.697 503.004 521.052 503.123C521.425 503.241 521.764 503.351 522.069 503.453L523.746 503.936C524.238 504.071 524.788 504.249 525.398 504.47C526.025 504.69 526.618 504.995 527.177 505.385C527.736 505.757 528.194 506.24 528.55 506.833C528.922 507.409 529.109 508.129 529.109 508.993C529.109 510.061 528.855 510.993 528.346 511.789C527.855 512.585 527.11 513.212 526.11 513.67C525.11 514.11 523.865 514.33 522.374 514.33C520.222 514.33 518.587 513.873 517.469 512.958C516.368 512.026 515.758 510.764 515.639 509.171H518.511C518.579 509.832 518.765 510.366 519.07 510.772C519.392 511.179 519.833 511.476 520.392 511.662C520.951 511.848 521.612 511.941 522.374 511.941C523.628 511.941 524.594 511.687 525.271 511.179C525.949 510.654 526.288 509.908 526.288 508.943C526.288 508.4 526.144 507.977 525.856 507.672C525.568 507.35 525.178 507.087 524.687 506.884C524.212 506.681 523.679 506.494 523.086 506.325L520.951 505.715C519.46 505.291 518.282 504.707 517.418 503.961C516.554 503.199 516.122 502.182 516.122 500.912C516.122 499.81 516.393 498.878 516.935 498.116C517.478 497.354 518.223 496.777 519.172 496.388C520.138 495.981 521.247 495.778 522.501 495.778C523.806 495.778 524.915 495.99 525.83 496.413C526.762 496.82 527.474 497.396 527.965 498.141C528.473 498.87 528.736 499.717 528.753 500.683H525.983ZM536.08 514H533.233V496.032H536.08V514ZM530.565 498.421V496.032H538.723V498.421H530.565ZM530.565 514V511.611H538.723V514H530.565ZM553.072 507.011H548.625V504.597H555.893V506.833C555.893 508.172 555.63 509.408 555.105 510.544C554.597 511.662 553.792 512.56 552.691 513.238C551.606 513.915 550.183 514.254 548.421 514.254C545.829 514.254 543.83 513.466 542.423 511.891C541.034 510.298 540.339 508.002 540.339 505.003C540.339 502.021 541.034 499.743 542.423 498.167C543.83 496.574 545.829 495.778 548.421 495.778C549.743 495.778 550.929 496.015 551.979 496.489C553.03 496.964 553.885 497.642 554.546 498.523C555.224 499.404 555.63 500.471 555.766 501.725H552.92C552.733 500.539 552.267 499.649 551.522 499.056C550.776 498.463 549.743 498.167 548.421 498.167C546.693 498.167 545.388 498.734 544.507 499.87C543.626 500.988 543.186 502.699 543.186 505.003C543.186 507.308 543.626 509.027 544.507 510.162C545.388 511.281 546.693 511.84 548.421 511.84C549.201 511.84 549.861 511.747 550.404 511.56C550.946 511.357 551.386 511.094 551.725 510.772C552.081 510.434 552.352 510.061 552.538 509.654C552.742 509.231 552.877 508.79 552.945 508.333C553.03 507.875 553.072 507.435 553.072 507.011ZM572.16 514H569.466L560.927 500.581H560.825V514H558.029V496.032H560.749L569.313 509.476H569.415V496.032H572.16V514ZM646.301 514V496.032H652.502C655.28 496.032 657.364 496.811 658.754 498.37C660.143 499.929 660.838 502.14 660.838 505.003C660.838 507.85 660.135 510.061 658.728 511.636C657.322 513.212 655.162 514 652.248 514H646.301ZM652.121 511.611C653.578 511.611 654.738 511.365 655.602 510.874C656.466 510.383 657.085 509.646 657.458 508.663C657.83 507.68 658.017 506.46 658.017 505.003C658.017 503.529 657.83 502.309 657.458 501.344C657.085 500.361 656.483 499.632 655.653 499.158C654.823 498.667 653.713 498.421 652.324 498.421H649.147V511.611H652.121ZM663.03 496.032H674.237V498.421H665.876V503.783H673.653V506.147H665.876V511.611H674.364V514H663.03V496.032ZM676.78 496.032H683.057C684.633 496.032 685.887 496.295 686.819 496.82C687.768 497.328 688.445 498.023 688.852 498.904C689.276 499.768 689.487 500.742 689.487 501.826C689.487 502.911 689.276 503.894 688.852 504.775C688.445 505.656 687.776 506.359 686.844 506.884C685.912 507.409 684.659 507.672 683.083 507.672H679.626V514H676.78V496.032ZM682.981 505.257C683.998 505.257 684.769 505.122 685.294 504.851C685.819 504.58 686.175 504.19 686.361 503.682C686.565 503.157 686.666 502.538 686.666 501.826C686.666 501.098 686.573 500.488 686.387 499.997C686.2 499.488 685.836 499.107 685.294 498.853C684.769 498.582 683.989 498.446 682.956 498.446H679.626V505.257H682.981ZM689.308 496.032H703.286V498.421H697.72V514H694.874V498.421H689.308V496.032ZM703.809 510.747H707.062V514H703.809V510.747ZM344.084 523.032H350.768C352.208 523.032 353.36 523.244 354.224 523.667C355.088 524.091 355.715 524.667 356.105 525.396C356.495 526.124 356.69 526.954 356.69 527.886C356.69 528.682 356.512 529.343 356.156 529.868C355.8 530.394 355.36 530.792 354.834 531.063C354.326 531.334 353.801 531.512 353.259 531.597V531.724C353.682 531.741 354.131 531.842 354.606 532.029C355.097 532.198 355.546 532.461 355.953 532.817C356.376 533.172 356.723 533.63 356.995 534.189C357.266 534.731 357.401 535.375 357.401 536.12C357.401 537.052 357.198 537.891 356.791 538.636C356.402 539.365 355.732 539.941 354.783 540.365C353.852 540.788 352.581 541 350.971 541H344.084V523.032ZM350.946 538.611C351.962 538.611 352.733 538.509 353.259 538.306C353.784 538.103 354.14 537.806 354.326 537.417C354.512 537.01 354.606 536.536 354.606 535.993C354.606 535.4 354.478 534.884 354.224 534.443C353.987 534.003 353.606 533.664 353.081 533.427C352.572 533.172 351.903 533.045 351.073 533.045H346.93V538.611H350.946ZM350.666 530.682C351.751 530.682 352.555 530.461 353.081 530.021C353.623 529.564 353.894 528.869 353.894 527.937C353.894 527.429 353.809 526.988 353.64 526.615C353.487 526.226 353.182 525.929 352.725 525.726C352.267 525.523 351.607 525.421 350.743 525.421H346.93V530.682H350.666ZM373.326 523.032V534.697C373.326 536.002 373.072 537.162 372.564 538.179C372.056 539.179 371.285 539.958 370.251 540.517C369.218 541.059 367.896 541.33 366.287 541.33C364.694 541.33 363.372 541.059 362.322 540.517C361.272 539.958 360.492 539.179 359.984 538.179C359.476 537.162 359.221 536.002 359.221 534.697V523.032H362.068V534.494C362.068 535.392 362.195 536.18 362.449 536.857C362.72 537.518 363.152 538.035 363.745 538.408C364.355 538.764 365.202 538.941 366.287 538.941C367.354 538.941 368.193 538.764 368.803 538.408C369.413 538.035 369.845 537.518 370.099 536.857C370.37 536.18 370.505 535.392 370.505 534.494V523.032H373.326ZM381.205 541H378.358V523.032H381.205V541ZM375.69 525.421V523.032H383.848V525.421H375.69ZM375.69 541V538.611H383.848V541H375.69ZM386.599 523.032H389.446V538.56H397.476V541H386.599V523.032ZM398.414 541V523.032H404.615C407.394 523.032 409.478 523.811 410.867 525.37C412.256 526.929 412.951 529.14 412.951 532.003C412.951 534.85 412.248 537.061 410.841 538.636C409.435 540.212 407.275 541 404.361 541H398.414ZM404.234 538.611C405.691 538.611 406.851 538.365 407.716 537.874C408.58 537.383 409.198 536.646 409.571 535.663C409.944 534.68 410.13 533.46 410.13 532.003C410.13 530.529 409.944 529.309 409.571 528.344C409.198 527.361 408.597 526.632 407.766 526.158C406.936 525.667 405.826 525.421 404.437 525.421H401.26V538.611H404.234ZM420.098 541H417.252V523.032H420.098V541ZM414.584 525.421V523.032H422.742V525.421H414.584ZM414.584 541V538.611H422.742V541H414.584ZM439.624 541H436.93L428.39 527.581H428.289V541H425.493V523.032H428.212L436.777 536.476H436.879V523.032H439.624V541ZM454.564 534.011H450.117V531.597H457.385V533.833C457.385 535.172 457.123 536.408 456.598 537.544C456.089 538.662 455.284 539.56 454.183 540.238C453.099 540.915 451.676 541.254 449.914 541.254C447.321 541.254 445.322 540.466 443.916 538.891C442.526 537.298 441.832 535.002 441.832 532.003C441.832 529.021 442.526 526.743 443.916 525.167C445.322 523.574 447.321 522.778 449.914 522.778C451.235 522.778 452.421 523.015 453.472 523.489C454.522 523.964 455.378 524.642 456.038 525.523C456.716 526.404 457.123 527.471 457.258 528.725H454.412C454.226 527.539 453.76 526.649 453.014 526.056C452.269 525.463 451.235 525.167 449.914 525.167C448.185 525.167 446.881 525.734 446 526.87C445.119 527.988 444.678 529.699 444.678 532.003C444.678 534.308 445.119 536.027 446 537.162C446.881 538.281 448.185 538.84 449.914 538.84C450.693 538.84 451.354 538.747 451.896 538.56C452.438 538.357 452.879 538.094 453.217 537.772C453.573 537.434 453.844 537.061 454.031 536.654C454.234 536.231 454.37 535.79 454.437 535.333C454.522 534.875 454.564 534.435 454.564 534.011ZM344.084 550.032H350.768C352.208 550.032 353.36 550.244 354.224 550.667C355.088 551.091 355.715 551.667 356.105 552.396C356.495 553.124 356.69 553.954 356.69 554.886C356.69 555.682 356.512 556.343 356.156 556.868C355.8 557.394 355.36 557.792 354.834 558.063C354.326 558.334 353.801 558.512 353.259 558.597V558.724C353.682 558.741 354.131 558.842 354.606 559.029C355.097 559.198 355.546 559.461 355.953 559.817C356.376 560.172 356.723 560.63 356.995 561.189C357.266 561.731 357.401 562.375 357.401 563.12C357.401 564.052 357.198 564.891 356.791 565.636C356.402 566.365 355.732 566.941 354.783 567.365C353.852 567.788 352.581 568 350.971 568H344.084V550.032ZM350.946 565.611C351.962 565.611 352.733 565.509 353.259 565.306C353.784 565.103 354.14 564.806 354.326 564.417C354.512 564.01 354.606 563.536 354.606 562.993C354.606 562.4 354.478 561.884 354.224 561.443C353.987 561.003 353.606 560.664 353.081 560.427C352.572 560.172 351.903 560.045 351.073 560.045H346.93V565.611H350.946ZM350.666 557.682C351.751 557.682 352.555 557.461 353.081 557.021C353.623 556.564 353.894 555.869 353.894 554.937C353.894 554.429 353.809 553.988 353.64 553.615C353.487 553.226 353.182 552.929 352.725 552.726C352.267 552.523 351.607 552.421 350.743 552.421H346.93V557.682H350.666ZM359.247 550.032H370.455V552.421H362.093V557.783H369.87V560.147H362.093V565.611H370.582V568H359.247V550.032ZM374.55 550.032L379.252 557.936H379.328L384.055 550.032H387.283L380.726 560.655V568H377.879V560.655L371.297 550.032H374.55ZM402.816 559.003C402.816 562.002 402.13 564.298 400.757 565.891C399.385 567.466 397.402 568.254 394.81 568.254C392.235 568.254 390.253 567.466 388.863 565.891C387.491 564.298 386.805 562.002 386.805 559.003C386.805 556.021 387.491 553.743 388.863 552.167C390.253 550.574 392.235 549.778 394.81 549.778C397.402 549.778 399.385 550.574 400.757 552.167C402.13 553.743 402.816 556.021 402.816 559.003ZM399.969 559.003C399.969 556.665 399.546 554.945 398.699 553.844C397.868 552.726 396.581 552.167 394.836 552.167C393.09 552.167 391.786 552.726 390.922 553.844C390.075 554.945 389.651 556.665 389.651 559.003C389.651 561.341 390.075 563.07 390.922 564.188C391.786 565.306 393.09 565.865 394.836 565.865C396.581 565.865 397.868 565.306 398.699 564.188C399.546 563.07 399.969 561.341 399.969 559.003ZM419.146 568H416.452L407.913 554.581H407.811V568H405.016V550.032H407.735L416.3 563.476H416.401V550.032H419.146V568ZM422.117 568V550.032H428.318C431.097 550.032 433.181 550.811 434.57 552.37C435.959 553.929 436.654 556.14 436.654 559.003C436.654 561.85 435.951 564.061 434.544 565.636C433.138 567.212 430.978 568 428.064 568H422.117ZM427.937 565.611C429.394 565.611 430.554 565.365 431.418 564.874C432.283 564.383 432.901 563.646 433.274 562.663C433.646 561.68 433.833 560.46 433.833 559.003C433.833 557.529 433.646 556.309 433.274 555.344C432.901 554.361 432.299 553.632 431.469 553.158C430.639 552.667 429.529 552.421 428.14 552.421H424.963V565.611H427.937ZM490.63 550.032H504.608V552.421H499.042V568H496.195V552.421H490.63V550.032ZM505.504 550.032H508.35V557.783H516.889V550.032H519.736V568H516.889V560.172H508.35V568H505.504V550.032ZM522.679 550.032H533.887V552.421H525.526V557.783H533.303V560.147H525.526V565.611H534.014V568H522.679V550.032ZM589.561 550.032H595.838C597.414 550.032 598.668 550.295 599.6 550.82C600.548 551.328 601.226 552.023 601.633 552.904C602.056 553.768 602.268 554.742 602.268 555.826C602.268 556.911 602.056 557.894 601.633 558.775C601.226 559.656 600.557 560.359 599.625 560.884C598.693 561.409 597.439 561.672 595.864 561.672H592.407V568H589.561V550.032ZM595.762 559.257C596.779 559.257 597.55 559.122 598.075 558.851C598.6 558.58 598.956 558.19 599.142 557.682C599.346 557.157 599.447 556.538 599.447 555.826C599.447 555.098 599.354 554.488 599.168 553.997C598.981 553.488 598.617 553.107 598.075 552.853C597.55 552.582 596.77 552.446 595.737 552.446H592.407V559.257H595.762ZM604.006 550.032H606.853V565.56H614.884V568H604.006V550.032ZM623 553.387H622.873L617.663 568H614.868L621.526 550.032H624.449L631.108 568H628.185L623 553.387ZM627.651 563.349H618.299V560.909H627.651V563.349ZM629.317 550.032H643.295V552.421H637.729V568H634.883V552.421H629.317V550.032ZM644.191 550.032H655.424V552.421H647.037V557.834H654.611V560.223H647.037V568H644.191V550.032ZM672.198 559.003C672.198 562.002 671.511 564.298 670.139 565.891C668.767 567.466 666.784 568.254 664.192 568.254C661.617 568.254 659.634 567.466 658.245 565.891C656.873 564.298 656.186 562.002 656.186 559.003C656.186 556.021 656.873 553.743 658.245 552.167C659.634 550.574 661.617 549.778 664.192 549.778C666.784 549.778 668.767 550.574 670.139 552.167C671.511 553.743 672.198 556.021 672.198 559.003ZM669.351 559.003C669.351 556.665 668.928 554.945 668.08 553.844C667.25 552.726 665.963 552.167 664.217 552.167C662.472 552.167 661.168 552.726 660.304 553.844C659.456 554.945 659.033 556.665 659.033 559.003C659.033 561.341 659.456 563.07 660.304 564.188C661.168 565.306 662.472 565.865 664.217 565.865C665.963 565.865 667.25 565.306 668.08 564.188C668.928 563.07 669.351 561.341 669.351 559.003ZM683.343 559.512L688.07 568H684.817L680.472 559.994L683.343 559.512ZM680.649 558.8C681.683 558.8 682.462 558.69 682.988 558.47C683.513 558.232 683.869 557.885 684.055 557.428C684.241 556.953 684.335 556.36 684.335 555.649C684.335 554.937 684.241 554.344 684.055 553.87C683.869 553.395 683.504 553.039 682.962 552.802C682.437 552.565 681.658 552.446 680.624 552.446H677.244V558.8H680.649ZM680.751 561.214H677.244V568H674.397V550.032H680.726C682.335 550.032 683.606 550.278 684.538 550.769C685.487 551.243 686.156 551.904 686.546 552.751C686.952 553.598 687.156 554.564 687.156 555.649C687.156 556.428 687.062 557.157 686.876 557.834C686.69 558.495 686.359 559.08 685.885 559.588C685.41 560.096 684.758 560.494 683.928 560.782C683.098 561.07 682.039 561.214 680.751 561.214ZM693.698 550.032L698.883 564.264H698.984L704.245 550.032H708.006V568H705.313V554.683H705.185L700.28 568H697.536L692.707 554.683H692.58V568H689.861V550.032H693.698ZM343.245 593.069L349.294 586.766C349.955 586.071 350.505 585.47 350.946 584.961C351.386 584.453 351.717 583.97 351.937 583.513C352.157 583.038 352.267 582.538 352.267 582.013C352.267 581.031 351.996 580.31 351.454 579.853C350.912 579.396 350.175 579.167 349.243 579.167C348.243 579.167 347.481 579.421 346.956 579.929C346.448 580.438 346.176 581.225 346.143 582.293H343.347C343.347 581.175 343.593 580.209 344.084 579.396C344.592 578.565 345.295 577.922 346.193 577.464C347.091 577.007 348.133 576.778 349.319 576.778C350.471 576.778 351.48 576.998 352.344 577.439C353.208 577.862 353.877 578.464 354.351 579.243C354.826 580.022 355.063 580.946 355.063 582.013C355.063 582.708 354.927 583.369 354.656 583.996C354.385 584.606 353.945 585.275 353.335 586.003C352.725 586.715 351.912 587.596 350.895 588.646L346.168 593.577L345.787 592.611H355.266V595H343.245V593.069ZM363.254 595.254C361.678 595.254 360.399 594.898 359.416 594.187C358.45 593.475 357.747 592.433 357.307 591.061C356.866 589.671 356.646 587.986 356.646 586.003C356.646 584.021 356.875 582.344 357.332 580.971C357.79 579.599 358.501 578.557 359.467 577.845C360.45 577.134 361.712 576.778 363.254 576.778C364.813 576.778 366.075 577.134 367.041 577.845C368.006 578.557 368.718 579.599 369.175 580.971C369.633 582.344 369.862 584.021 369.862 586.003C369.862 587.986 369.633 589.671 369.175 591.061C368.735 592.433 368.023 593.475 367.041 594.187C366.075 594.898 364.813 595.254 363.254 595.254ZM363.254 592.84C364.609 592.84 365.583 592.306 366.176 591.239C366.769 590.171 367.066 588.426 367.066 586.003C367.066 583.58 366.769 581.835 366.176 580.768C365.583 579.701 364.609 579.167 363.254 579.167C361.915 579.167 360.95 579.701 360.357 580.768C359.764 581.835 359.467 583.58 359.467 586.003C359.467 588.426 359.755 590.171 360.331 591.239C360.924 592.306 361.898 592.84 363.254 592.84ZM570.277 593.069L576.326 586.766C576.987 586.071 577.537 585.47 577.978 584.961C578.419 584.453 578.749 583.97 578.969 583.513C579.189 583.038 579.3 582.538 579.3 582.013C579.3 581.031 579.028 580.31 578.486 579.853C577.944 579.396 577.207 579.167 576.275 579.167C575.276 579.167 574.513 579.421 573.988 579.929C573.48 580.438 573.209 581.225 573.175 582.293H570.379C570.379 581.175 570.625 580.209 571.116 579.396C571.624 578.565 572.328 577.922 573.226 577.464C574.123 577.007 575.165 576.778 576.351 576.778C577.504 576.778 578.512 576.998 579.376 577.439C580.24 577.862 580.909 578.464 581.384 579.243C581.858 580.022 582.095 580.946 582.095 582.013C582.095 582.708 581.96 583.369 581.689 583.996C581.417 584.606 580.977 585.275 580.367 586.003C579.757 586.715 578.944 587.596 577.927 588.646L573.2 593.577L572.819 592.611H582.298V595H570.277V593.069ZM584.085 589.256C584.102 588.68 584.195 588.096 584.364 587.503C584.534 586.893 584.822 586.224 585.228 585.495C585.635 584.75 586.177 583.902 586.855 582.954L591.15 577.032H594.301L587.668 586.105L587.643 584.478C587.812 584.343 588.058 584.207 588.38 584.072C588.719 583.936 589.091 583.826 589.498 583.741C589.905 583.64 590.311 583.589 590.718 583.589C591.853 583.589 592.853 583.835 593.717 584.326C594.598 584.817 595.284 585.495 595.775 586.359C596.267 587.223 596.512 588.231 596.512 589.383C596.512 590.552 596.267 591.586 595.775 592.484C595.284 593.365 594.572 594.051 593.641 594.543C592.709 595.017 591.599 595.254 590.311 595.254C588.346 595.254 586.813 594.712 585.711 593.628C584.61 592.543 584.068 591.086 584.085 589.256ZM586.88 589.383C586.88 590.451 587.151 591.306 587.694 591.95C588.236 592.577 589.108 592.891 590.311 592.891C591.48 592.891 592.336 592.577 592.878 591.95C593.437 591.306 593.717 590.451 593.717 589.383C593.717 588.299 593.437 587.46 592.878 586.867C592.336 586.257 591.48 585.952 590.311 585.952C589.244 585.952 588.405 586.257 587.795 586.867C587.185 587.46 586.88 588.299 586.88 589.383Z" fill="#FFFAEE"/>
</svg>
