<svg width="1080" height="1080" viewBox="0 0 1080 1080" fill="none" xmlns="http://www.w3.org/2000/svg">
<rect width="1080" height="1080" fill="#191919"/>
<path d="M449.433 474.134L439.077 465.609L437.445 467.593L435.831 466.265L440.508 460.583L442.122 461.911L440.489 463.895L450.845 472.419L449.433 474.134ZM459.994 461.578L449.835 449.867L451.513 448.412L455.864 453.428L457.937 451.631L453.585 446.614L455.263 445.159L465.422 456.87L463.744 458.325L459.221 453.111L457.149 454.909L461.672 460.123L459.994 461.578ZM475.142 448.678L467.172 435.381L472.849 431.978L473.924 433.771L470.151 436.032L472.491 439.935L475.778 437.965L476.852 439.758L473.565 441.728L475.905 445.631L479.677 443.37L480.819 445.275L475.142 448.678ZM506.305 433.386L503.019 420.382L500.528 421.011L500.016 418.985L507.152 417.182L507.664 419.209L505.173 419.838L508.458 432.842L506.305 433.386ZM524.314 429.365L523.778 422.833L520.009 414.163L522.352 413.971L524.635 419.967L524.679 419.963L525.955 413.676L528.298 413.483L525.992 422.652L526.528 429.184L524.314 429.365ZM541.275 428.154L542.684 412.716L546.002 413.019C546.609 413.074 547.137 413.202 547.585 413.404C548.033 413.605 548.426 413.925 548.765 414.364C549.104 414.803 549.321 415.304 549.415 415.867C549.511 416.415 549.517 417.151 549.432 418.076C549.369 418.77 549.272 419.352 549.142 419.821C549.026 420.291 548.819 420.724 548.52 421.12C548.17 421.598 547.729 421.959 547.197 422.201C546.666 422.43 545.988 422.507 545.164 422.431L544.037 422.328L543.487 428.356L541.275 428.154ZM544.706 414.999L544.227 420.247L545.289 420.344C545.738 420.385 546.09 420.351 546.348 420.244C546.606 420.136 546.803 419.972 546.94 419.751C547.075 419.545 547.165 419.283 547.208 418.967C547.266 418.651 547.313 418.298 547.348 417.908C547.381 417.547 547.405 417.206 547.42 416.887C547.436 416.553 547.397 416.258 547.304 416.002C547.211 415.745 547.054 415.542 546.835 415.39C546.615 415.239 546.289 415.144 545.855 415.104L544.706 414.999ZM560.671 430.103L564.679 415.127L571.073 416.838L570.533 418.858L566.284 417.721L565.108 422.117L568.81 423.107L568.269 425.127L564.567 424.136L563.391 428.532L567.64 429.669L567.066 431.814L560.671 430.103ZM578.682 435.1L585.089 420.983L591.117 423.719L590.253 425.623L586.248 423.805L584.304 428.087L587.793 429.671L586.929 431.575L583.44 429.991L580.704 436.018L578.682 435.1ZM601.388 440.514L603.601 435.237L603.565 435.213L599.541 439.281L601.388 440.514ZM593.814 441.976L605.301 431.005L606.84 432.033L601.112 446.849L599.265 445.615L600.571 442.482L598.054 440.802L595.661 443.21L593.814 441.976ZM618.91 455.197L618.247 455.888C617.916 456.234 617.532 456.499 617.094 456.683C616.677 456.867 616.238 456.968 615.776 456.989C615.315 457.009 614.856 456.942 614.401 456.787C613.967 456.632 613.571 456.384 613.215 456.042C612.911 455.751 612.642 455.413 612.408 455.028C612.174 454.643 612.031 454.225 611.981 453.774C611.93 453.324 611.976 452.856 612.12 452.37C612.284 451.884 612.612 451.384 613.104 450.87L619.009 444.707C619.36 444.34 619.75 444.06 620.177 443.866C620.604 443.672 621.043 443.57 621.494 443.561C621.946 443.551 622.389 443.634 622.824 443.809C623.28 443.984 623.701 444.258 624.089 444.629C624.844 445.352 625.221 446.186 625.221 447.13C625.22 447.592 625.122 448.051 624.927 448.507C624.752 448.963 624.478 449.384 624.107 449.772L623.504 450.401L621.901 448.865L622.413 448.33C622.714 448.016 622.886 447.658 622.929 447.257C622.972 446.855 622.841 446.509 622.537 446.218C622.139 445.836 621.751 445.706 621.374 445.827C621.017 445.947 620.658 446.196 620.296 446.574L614.813 452.297C614.502 452.622 614.309 452.96 614.234 453.31C614.17 453.671 614.322 454.027 614.688 454.378C614.793 454.479 614.918 454.569 615.064 454.648C615.23 454.726 615.405 454.774 615.59 454.79C615.765 454.797 615.954 454.757 616.158 454.67C616.361 454.584 616.568 454.431 616.779 454.21L617.306 453.66L618.91 455.197ZM624.711 467.122L637.185 457.916L641.115 463.242L639.433 464.483L636.822 460.944L633.16 463.646L635.436 466.73L633.754 467.971L631.478 464.887L627.817 467.59L630.428 471.129L628.642 472.447L624.711 467.122ZM642.434 495.372L656.979 490.007L657.748 492.091L643.203 497.456L642.434 495.372ZM659.731 514.366L659.289 512.189L659.78 512.09C660.278 511.989 660.68 511.781 660.987 511.467C661.311 511.164 661.416 510.736 661.303 510.181C661.243 509.882 661.137 509.652 660.985 509.49C660.834 509.328 660.662 509.208 660.468 509.128C660.26 509.052 660.03 509.017 659.78 509.024C659.544 509.027 659.297 509.055 659.041 509.107C658.743 509.168 658.495 509.225 658.299 509.28C658.105 509.349 657.939 509.442 657.8 509.559C657.661 509.676 657.55 509.824 657.468 510.004C657.389 510.198 657.322 510.449 657.265 510.756L656.942 512.555C656.855 513.076 656.714 513.512 656.519 513.863C656.338 514.211 656.101 514.503 655.808 514.74C655.498 514.966 655.129 515.152 654.7 515.299C654.284 515.442 653.799 515.57 653.244 515.683C652.604 515.813 651.994 515.87 651.413 515.855C650.846 515.836 650.342 515.724 649.9 515.518C649.441 515.3 649.049 514.972 648.723 514.535C648.397 514.097 648.164 513.53 648.022 512.833C647.915 512.306 647.908 511.797 648.001 511.304C648.093 510.811 648.27 510.368 648.531 509.975C648.791 509.581 649.115 509.241 649.501 508.955C649.905 508.681 650.363 508.492 650.875 508.388L651.686 508.223L652.127 510.4L651.445 510.538C651.046 510.619 650.707 510.807 650.426 511.101C650.162 511.406 650.086 511.836 650.199 512.391C650.274 512.761 650.381 513.035 650.521 513.214C650.679 513.404 650.868 513.536 651.091 513.61C651.313 513.683 651.561 513.699 651.834 513.659C652.124 513.629 652.44 513.58 652.781 513.511C653.18 513.43 653.504 513.349 653.754 513.269C654.004 513.188 654.199 513.09 654.338 512.972C654.475 512.841 654.575 512.68 654.64 512.489C654.708 512.312 654.771 512.077 654.83 511.784L655.154 510.096C655.348 509.079 655.724 508.344 656.284 507.889C656.86 507.447 657.625 507.128 658.578 506.935C659.147 506.819 659.704 506.788 660.248 506.84C660.791 506.893 661.28 507.038 661.713 507.276C662.144 507.499 662.512 507.817 662.818 508.229C663.141 508.652 663.367 509.184 663.497 509.824C663.607 510.365 663.607 510.876 663.497 511.357C663.391 511.853 663.207 512.298 662.946 512.691C662.396 513.484 661.68 513.97 660.798 514.149L659.731 514.366ZM651.583 544.771L664.932 546.074L665.182 543.516L667.262 543.72L666.547 551.044L664.467 550.841L664.716 548.284L651.367 546.981L651.583 544.771ZM649.811 561.079L664.753 565.213L664.16 567.353L657.76 565.583L657.028 568.227L663.429 569.997L662.837 572.138L647.895 568.005L648.487 565.864L655.14 567.704L655.871 565.06L649.219 563.22L649.811 561.079ZM644.335 580.208L658.356 586.821L655.533 592.808L653.642 591.916L655.519 587.938L651.403 585.997L649.768 589.463L647.877 588.572L649.512 585.106L645.396 583.164L643.52 587.142L641.511 586.195L644.335 580.208ZM634.284 625.184L624.985 612.379L626.307 610.933L639.881 619.061L638.294 620.797L629.116 614.798L629.087 614.83L635.871 623.449L634.284 625.184ZM621.916 632.772C622.294 633.268 622.542 633.773 622.659 634.286C622.776 634.799 622.787 635.293 622.692 635.767C622.599 636.22 622.428 636.642 622.178 637.033C621.917 637.433 621.608 637.769 621.25 638.042C620.892 638.314 620.491 638.519 620.048 638.656C619.593 638.802 619.129 638.863 618.656 638.841C618.185 638.798 617.718 638.651 617.255 638.402C616.791 638.153 616.37 637.78 615.992 637.284L611.032 630.771C610.636 630.251 610.384 629.741 610.275 629.239C610.167 628.738 610.159 628.26 610.252 627.807C610.347 627.333 610.525 626.896 610.786 626.496C611.036 626.105 611.34 625.773 611.698 625.501C612.056 625.228 612.462 625.019 612.917 624.873C613.36 624.737 613.817 624.69 614.288 624.733C614.761 624.755 615.225 624.885 615.68 625.123C616.135 625.361 616.56 625.739 616.956 626.259L621.916 632.772ZM615.189 627.604C614.863 627.177 614.506 626.948 614.117 626.916C613.725 626.904 613.367 627.021 613.044 627.268C612.72 627.514 612.518 627.823 612.436 628.195C612.352 628.588 612.473 628.998 612.798 629.425L617.759 635.938C618.084 636.365 618.443 636.585 618.835 636.596C619.224 636.628 619.581 636.521 619.904 636.275C620.227 636.029 620.431 635.709 620.515 635.317C620.597 634.944 620.475 634.545 620.149 634.117L615.189 627.604ZM598.65 635.387L606.016 649.028L604.062 650.083L596.695 636.442L598.65 635.387ZM580.193 648.914L579.872 648.012C579.711 647.561 579.647 647.098 579.678 646.625C579.701 646.17 579.807 645.731 579.996 645.31C580.185 644.888 580.45 644.508 580.793 644.171C581.126 643.852 581.525 643.61 581.99 643.444C582.386 643.303 582.809 643.214 583.259 643.177C583.708 643.141 584.145 643.201 584.571 643.357C584.996 643.514 585.394 643.765 585.764 644.112C586.125 644.476 586.424 644.993 586.663 645.663L589.525 653.704C589.696 654.183 589.772 654.657 589.754 655.125C589.736 655.594 589.63 656.032 589.436 656.44C589.243 656.848 588.97 657.207 588.618 657.518C588.257 657.846 587.824 658.101 587.318 658.281C586.333 658.631 585.419 658.595 584.575 658.171C584.162 657.964 583.796 657.67 583.476 657.291C583.147 656.931 582.893 656.497 582.712 655.991L582.42 655.171L584.513 654.426L584.761 655.123C584.907 655.534 585.15 655.848 585.489 656.066C585.829 656.284 586.197 656.322 586.594 656.181C587.113 655.996 587.404 655.708 587.464 655.316C587.517 654.943 587.455 654.511 587.28 654.019L584.622 646.552C584.471 646.128 584.255 645.804 583.975 645.58C583.682 645.361 583.295 645.337 582.817 645.507C582.68 645.556 582.544 645.628 582.408 645.722C582.263 645.835 582.142 645.971 582.044 646.129C581.96 646.282 581.911 646.469 581.897 646.69C581.883 646.91 581.928 647.164 582.03 647.452L582.285 648.169L580.193 648.914ZM566.93 648.754L569.545 664.034L563.021 665.151L562.668 663.09L567.003 662.349L566.236 657.863L562.459 658.509L562.106 656.449L565.883 655.803L565.116 651.317L560.781 652.059L560.406 649.87L566.93 648.754ZM532.354 663.691C532.271 664.309 532.09 664.842 531.811 665.288C531.532 665.734 531.191 666.091 530.789 666.359C530.403 666.615 529.984 666.793 529.531 666.894C529.064 666.993 528.607 667.012 528.161 666.952C527.715 666.893 527.287 666.755 526.877 666.539C526.452 666.321 526.08 666.037 525.76 665.687C525.457 665.324 525.23 664.891 525.077 664.387C524.925 663.883 524.89 663.322 524.973 662.704L526.058 654.589C526.145 653.941 526.327 653.402 526.604 652.97C526.882 652.539 527.213 652.195 527.599 651.939C528.001 651.671 528.436 651.487 528.903 651.389C529.356 651.288 529.805 651.268 530.251 651.327C530.697 651.387 531.133 651.526 531.558 651.744C531.968 651.96 532.325 652.249 532.628 652.612C532.947 652.962 533.184 653.382 533.338 653.871C533.492 654.36 533.526 654.929 533.439 655.576L532.354 663.691ZM531.238 655.282C531.309 654.749 531.218 654.334 530.965 654.037C530.696 653.752 530.36 653.582 529.957 653.529C529.554 653.475 529.192 653.551 528.872 653.757C528.535 653.975 528.331 654.351 528.26 654.883L527.174 662.998C527.103 663.53 527.202 663.939 527.472 664.224C527.725 664.521 528.053 664.697 528.456 664.751C528.859 664.805 529.228 664.723 529.565 664.504C529.886 664.298 530.081 663.929 530.153 663.396L531.238 655.282ZM514.098 649.116L509.417 663.895L503.106 661.897L503.738 659.904L507.931 661.232L509.351 656.749L505.697 655.591L506.328 653.599L509.982 654.756L511.98 648.446L514.098 649.116ZM482.001 635.896L474.439 646.974L476.561 648.423L475.383 650.149L469.304 646L470.483 644.273L472.605 645.722L480.167 634.644L482.001 635.896ZM468.552 626.501L457.765 637.635L456.17 636.09L460.791 631.32L458.82 629.411L454.199 634.181L452.604 632.636L463.391 621.501L464.986 623.047L460.184 628.004L462.154 629.913L466.957 624.956L468.552 626.501ZM454.387 612.529L441.858 621.659L437.959 616.31L439.649 615.079L442.239 618.634L445.917 615.953L443.66 612.856L445.349 611.625L447.606 614.722L451.284 612.042L448.694 608.488L450.489 607.18L454.387 612.529ZM436.898 584.214L422.206 589.161L421.171 586.087C420.944 585.413 420.854 584.807 420.903 584.27C420.948 583.719 421.091 583.234 421.333 582.816C421.575 582.397 421.902 582.05 422.314 581.773C422.708 581.487 423.146 581.263 423.627 581.101L424.164 580.92C424.563 580.786 424.911 580.707 425.209 580.683C425.503 580.645 425.774 580.654 426.022 580.708C426.486 580.812 426.937 581.059 427.374 581.448C427.441 580.874 427.662 580.393 428.037 580.006C428.413 579.62 428.992 579.294 429.776 579.03L430.602 578.752C431.895 578.317 432.992 578.3 433.893 578.701C434.789 579.088 435.469 579.97 435.932 581.346L436.898 584.214ZM429.38 584.402L434.085 582.818L433.779 581.91C433.635 581.483 433.462 581.174 433.26 580.982C433.052 580.776 432.818 580.648 432.556 580.599C432.294 580.549 432.007 580.561 431.695 580.636C431.384 580.71 431.049 580.807 430.691 580.928C430.32 581.053 430.003 581.182 429.742 581.316C429.481 581.45 429.275 581.612 429.124 581.8C428.978 582.003 428.903 582.235 428.899 582.496C428.881 582.763 428.937 583.088 429.067 583.474L429.38 584.402ZM423.478 586.39L427.523 585.028L427.203 584.078C426.967 583.377 426.637 582.967 426.215 582.849C425.773 582.722 425.216 582.772 424.542 582.999C423.881 583.221 423.433 583.525 423.195 583.912C422.953 584.284 422.95 584.821 423.186 585.523L423.478 586.39ZM417.129 565.096L421.909 564.378L421.721 563.129C421.663 562.742 421.567 562.441 421.432 562.226C421.282 562.014 421.098 561.858 420.877 561.759C420.659 561.674 420.403 561.632 420.11 561.632C419.802 561.634 419.454 561.664 419.066 561.722C418.679 561.781 418.345 561.853 418.064 561.939C417.769 562.027 417.523 562.152 417.328 562.314C416.967 562.647 416.843 563.194 416.957 563.954L417.129 565.096ZM430.722 565.301L415.391 567.602L414.861 564.071C414.473 561.487 415.779 559.97 418.78 559.52C419.684 559.384 420.474 559.412 421.148 559.604C421.821 559.782 422.404 560.194 422.897 560.839L429.54 557.42L429.889 559.746L423.65 562.774L423.847 564.087L430.393 563.105L430.722 565.301ZM422.665 540.955L417.018 541.879L417.017 541.922L422.6 543.175L422.665 540.955ZM427.923 546.599L412.529 542.684L412.583 540.834L428.181 537.828L428.116 540.048L424.766 540.603L424.678 543.628L427.989 544.379L427.923 546.599ZM428.691 526.203L413.519 523.017L413.958 520.929L423.789 519.567L423.798 519.524L414.656 517.604L415.113 515.431L430.285 518.617L429.855 520.663L420.037 522.072L420.028 522.114L429.148 524.03L428.691 526.203ZM433.015 506.276L418.382 501.154L419.468 498.051C419.89 496.845 420.538 496.049 421.412 495.663C422.29 495.263 423.332 495.274 424.538 495.696L431.381 498.091C432.751 498.571 433.647 499.262 434.07 500.163C434.484 501.046 434.472 502.111 434.036 503.358L433.015 506.276ZM421.089 499.748L431.775 503.489L432.114 502.523C432.32 501.934 432.322 501.466 432.121 501.119C431.906 500.767 431.483 500.48 430.853 500.26L423.804 497.792C423.228 497.591 422.742 497.551 422.346 497.674C421.949 497.796 421.643 498.166 421.427 498.783L421.089 499.748Z" fill="#FFFAEE"/>
<circle cx="539.5" cy="539.5" r="145.442" stroke="#FFFAEE" stroke-width="1.02065"/>
<circle cx="539.5" cy="539.5" r="167.896" stroke="#FFFAEE" stroke-width="1.02065"/>
<circle cx="539.5" cy="539.5" r="188.99" stroke="#FFFAEE" stroke-width="1.02065"/>
<circle cx="405.804" cy="405.804" r="6.80431" fill="#FFFAEE"/>
<circle cx="475.804" cy="694.804" r="6.80431" fill="#FFFAEE"/>
<circle cx="726.804" cy="568.804" r="6.80431" fill="#FFFAEE"/>
<circle cx="580.804" cy="376.804" r="6.80431" fill="#FFFAEE"/>
<circle cx="413.28" cy="612.646" r="6.80431" fill="#FFFAEE"/>
<path d="M560.18 510.784L560.231 504.78L564.982 504.73C566.414 504.714 567.413 503.155 567.588 501.82C567.87 499.674 567.637 497.563 567.482 495.302C568.672 494.896 569.917 494.448 570.98 493.821C571.923 493.266 572.038 492.283 571.495 491.415C570.091 488.798 568.743 486.282 567.794 483.457C567.764 479.108 566.602 474.973 563.817 471.593C558.808 465.512 550.3 463.407 542.931 466.227C538.714 467.841 535.704 470.963 534.003 475.028C530.574 483.235 532.598 490.951 538.017 497.823L538.881 507.737C538.994 509.036 540.745 510.101 541.815 510.706C546.767 513.506 554.984 513.89 560.178 510.784H560.18ZM557.96 503.948L557.946 509.504C552.934 511.602 544.65 511.143 541.009 507.2L540.228 497.005C535.027 490.604 532.866 483.567 536.138 475.773C537.485 472.567 539.75 470.055 543.019 468.604C550.085 465.466 558.535 467.751 562.884 474.098C564.855 476.976 565.384 480.132 565.631 483.567C565.726 484.865 566.442 486.43 567.022 487.58L569.37 492.224L566.119 493.344C565.571 493.531 565.174 494.034 565.208 494.66L565.506 499.965C565.552 500.799 565.305 501.688 564.977 502.536L559.635 502.527C558.701 502.527 557.96 502.755 557.957 503.95L557.96 503.948Z" fill="#FFFAEE"/>
<path d="M519.5 510.784L519.449 504.78L514.698 504.73C513.266 504.714 512.268 503.155 512.092 501.82C511.81 499.674 512.043 497.563 512.198 495.302C511.008 494.896 509.763 494.448 508.7 493.821C507.757 493.266 507.642 492.283 508.185 491.415C509.59 488.798 510.937 486.282 511.886 483.457C511.916 479.108 513.079 474.973 515.863 471.593C520.872 465.512 529.38 463.407 536.749 466.227C540.966 467.841 543.977 470.963 545.677 475.028C549.106 483.235 547.082 490.951 541.664 497.823L540.799 507.737C540.686 509.036 538.935 510.101 537.865 510.706C532.913 513.506 524.697 513.89 519.502 510.784H519.5ZM521.72 503.948L521.734 509.504C526.746 511.602 535.03 511.143 538.671 507.2L539.452 497.005C544.654 490.604 546.814 483.567 543.542 475.773C542.195 472.567 539.931 470.055 536.661 468.604C529.595 465.466 521.145 467.751 516.796 474.098C514.825 476.976 514.296 480.132 514.049 483.567C513.954 484.865 513.238 486.43 512.658 487.58L510.31 492.224L513.562 493.344C514.109 493.531 514.507 494.034 514.472 494.66L514.174 499.965C514.128 500.799 514.375 501.688 514.703 502.536L520.045 502.527C520.979 502.527 521.72 502.755 521.723 503.95L521.72 503.948Z" fill="#FFFAEE"/>
<path d="M530.057 575.656H547.458C548.987 575.656 550.232 576.9 550.232 578.43V595.831C550.232 597.361 548.987 598.605 547.458 598.605H530.057C528.527 598.605 527.283 597.36 527.283 595.831V578.43C527.283 576.9 528.527 575.656 530.057 575.656H530.057ZM547.458 577.227H530.057C529.394 577.227 528.854 577.767 528.854 578.43V583.753H540.382L535.55 579.262H537.86L543.534 584.537L538.512 589.207H548.66V578.43C548.66 577.767 548.121 577.227 547.458 577.227ZM530.057 597.034H547.458C548.121 597.034 548.66 596.494 548.66 595.831V590.778H538.427L543.259 595.269H540.949L535.276 589.994L540.297 585.324H528.854V595.831C528.854 596.494 529.393 597.033 530.056 597.033L530.057 597.034Z" fill="#FFFAEE"/>
<path d="M497.066 575.223C489.135 575.223 482.684 580.432 482.684 586.839C482.684 593.246 489.135 598.455 497.066 598.455C504.996 598.455 511.447 593.246 511.447 586.839C511.447 580.432 504.996 575.223 497.066 575.223ZM496.43 577.119V581.469C495.141 581.451 493.891 581.374 492.715 581.25C493.928 579.427 495.444 577.97 496.43 577.119ZM496.43 582.664V586.244H490.815C490.925 584.874 491.393 583.566 492.039 582.375C493.42 582.547 494.903 582.645 496.434 582.667L496.43 582.664ZM496.43 587.434V591.014C494.899 591.036 493.416 591.135 492.036 591.306C491.393 590.116 490.921 588.808 490.815 587.438H496.43V587.434ZM496.43 592.205V596.559C495.444 595.708 493.924 594.251 492.711 592.428C493.888 592.3 495.141 592.223 496.43 592.205ZM497.705 596.556V592.205C498.983 592.223 500.233 592.304 501.416 592.435C500.204 594.254 498.691 595.708 497.705 596.559V596.556ZM497.705 591.011V587.431H503.319C503.21 588.804 502.742 590.112 502.096 591.303C500.715 591.131 499.235 591.029 497.705 591.007V591.011ZM497.705 586.24V582.66C499.235 582.638 500.715 582.536 502.096 582.364C502.742 583.555 503.214 584.866 503.319 586.236H497.705V586.24ZM497.705 581.469V577.119C498.691 577.97 500.204 579.424 501.416 581.243C500.233 581.374 498.983 581.451 497.705 581.473V581.469ZM498.899 576.519C502.114 576.877 504.96 578.171 506.987 580.037C505.862 580.468 504.423 580.815 502.804 581.06C501.595 579.098 500.028 577.517 498.899 576.519ZM491.323 581.071C489.705 580.826 488.273 580.479 487.137 580.045C489.164 578.171 492.014 576.877 495.236 576.516C494.107 577.517 492.536 579.102 491.327 581.067L491.323 581.071ZM490.706 582.181C490.081 583.427 489.632 584.793 489.533 586.24H483.981C484.12 584.297 484.931 582.496 486.231 580.98C487.426 581.484 488.956 581.893 490.706 582.181ZM489.533 587.434C489.632 588.881 490.081 590.247 490.706 591.493C488.96 591.781 487.429 592.187 486.231 592.695C484.931 591.179 484.12 589.378 483.981 587.434H489.53H489.533ZM491.323 592.603C492.536 594.569 494.103 596.154 495.232 597.155C492.01 596.793 489.161 595.5 487.133 593.626C488.273 593.191 489.701 592.844 491.32 592.6L491.323 592.603ZM502.801 592.614C504.423 592.859 505.858 593.21 506.983 593.637C504.956 595.504 502.11 596.797 498.896 597.155C500.025 596.154 501.588 594.572 502.801 592.614ZM503.425 591.496C504.054 590.247 504.503 588.881 504.602 587.431H510.15C510.012 589.378 509.197 591.182 507.893 592.702C506.702 592.194 505.171 591.785 503.425 591.496ZM504.602 586.24C504.503 584.793 504.054 583.423 503.425 582.174C505.171 581.886 506.698 581.476 507.893 580.969C509.197 582.488 510.012 584.293 510.15 586.24H504.602Z" fill="#FFFAEE"/>
<path d="M581.413 597.935C572.814 597.935 565.82 592.839 565.82 586.577C565.82 580.315 572.814 575.223 581.413 575.223C590.013 575.223 597.006 580.318 597.006 586.577C597.006 592.836 590.013 597.931 581.413 597.931V597.935ZM581.413 576.292C573.404 576.292 566.89 580.909 566.89 586.577C566.89 592.245 573.404 596.862 581.413 596.862C589.422 596.862 595.936 592.249 595.936 586.577C595.936 580.905 589.422 576.292 581.413 576.292Z" fill="#FFFAEE"/>
<path d="M590.024 590.452C587.748 590.189 585.994 588.543 585.994 586.581C585.994 584.618 587.744 582.969 590.024 582.709V580.887C586.739 581.168 584.183 583.638 584.183 586.581C584.183 589.523 586.736 591.993 590.024 592.274V590.452Z" fill="#FFFAEE"/>
<path d="M583.84 590.452C581.564 590.189 579.81 588.543 579.81 586.581C579.81 584.618 581.561 582.969 583.84 582.709V580.887C580.556 581.168 577.999 583.638 577.999 586.581C577.999 589.523 580.552 591.993 583.84 592.274V590.452Z" fill="#FFFAEE"/>
<path d="M577.999 590.452C575.723 590.189 573.97 588.543 573.97 586.581C573.97 584.618 575.72 582.969 577.999 582.709V580.887C574.715 581.168 572.158 583.638 572.158 586.581C572.158 589.523 574.711 591.993 577.999 592.274V590.452Z" fill="#FFFAEE"/>
<path d="M483.866 539.699H484.672V544.092H489.978V539.699H490.784V549.196H489.978V544.79H484.672V549.196H483.866V539.699ZM503.511 539.699V546.16C503.511 546.787 503.39 547.343 503.148 547.826C502.915 548.31 502.548 548.69 502.047 548.968C501.545 549.237 500.887 549.371 500.072 549.371C499.266 549.371 498.608 549.237 498.097 548.968C497.596 548.69 497.224 548.31 496.982 547.826C496.749 547.343 496.633 546.787 496.633 546.16V539.699H497.439V546.04C497.439 546.568 497.52 547.029 497.681 547.423C497.842 547.817 498.115 548.122 498.5 548.337C498.885 548.543 499.409 548.646 500.072 548.646C500.744 548.646 501.267 548.543 501.644 548.337C502.029 548.122 502.302 547.817 502.463 547.423C502.624 547.029 502.705 546.568 502.705 546.04V539.699H503.511ZM510.181 539.699L513.673 547.84H513.767L517.26 539.699H518.066V549.196H517.287V541.62H517.22L513.929 549.196H513.472L510.181 541.62H510.127V549.196H509.348V539.699H510.181ZM526.934 540.733H526.881L523.899 549.196H523.079L526.478 539.699H527.391L530.776 549.196H529.917L526.934 540.733ZM529.097 546.348H524.758V545.65H529.097V546.348ZM542.894 549.196H541.994L536.687 541.042H536.58V549.196H535.787V539.699H536.701L541.994 547.84H542.101V539.699H542.894V549.196ZM556.383 539.699L559.875 547.84H559.969L563.462 539.699H564.268V549.196H563.489V541.62H563.421L560.13 549.196H559.674L556.383 541.62H556.329V549.196H555.55V539.699H556.383ZM573.136 540.733H573.082L570.1 549.196H569.281L572.679 539.699H573.593L576.978 549.196H576.118L573.136 540.733ZM575.299 546.348H570.96V545.65H575.299V546.348ZM581.989 549.196V539.699H584.931C586.31 539.699 587.353 540.102 588.061 540.908C588.768 541.714 589.122 542.892 589.122 544.441C589.122 545.981 588.759 547.159 588.034 547.974C587.318 548.789 586.238 549.196 584.797 549.196H581.989ZM584.73 548.498C585.634 548.498 586.346 548.337 586.865 548.014C587.385 547.683 587.756 547.213 587.98 546.604C588.204 545.995 588.316 545.274 588.316 544.441C588.316 543.599 588.204 542.878 587.98 542.278C587.765 541.669 587.403 541.204 586.892 540.881C586.391 540.559 585.706 540.398 584.837 540.398H582.795V548.498H584.73ZM594.573 539.699H599.919V540.398H595.379V544.092H599.61V544.79H595.379V548.498H599.986V549.196H594.573V539.699Z" fill="#FFFAEE"/>
<rect x="466.864" y="532.185" width="149.355" height="23.4749" rx="11.7374" stroke="#FFFAEE" stroke-width="1.02065"/>
</svg>
