<svg width="1080" height="1080" viewBox="0 0 1080 1080" fill="none" xmlns="http://www.w3.org/2000/svg">
<rect width="1080" height="1080" fill="#191919"/>
<path d="M640.824 433.624H640.704L635.568 448H633.528L639.744 431.032H641.856L648.096 448H645.936L640.824 433.624ZM644.952 443.296H636.6V441.496H644.952V443.296ZM658.456 435.064C658.36 434.168 657.984 433.528 657.328 433.144C656.672 432.76 655.776 432.568 654.64 432.568C653.376 432.568 652.44 432.816 651.832 433.312C651.224 433.792 650.92 434.488 650.92 435.4C650.92 435.912 651.024 436.336 651.232 436.672C651.456 436.992 651.736 437.256 652.072 437.464C652.424 437.672 652.784 437.84 653.152 437.968C653.536 438.08 653.888 438.184 654.208 438.28L655.936 438.76C656.4 438.888 656.912 439.056 657.472 439.264C658.032 439.456 658.568 439.728 659.08 440.08C659.592 440.432 660.008 440.88 660.328 441.424C660.648 441.952 660.808 442.616 660.808 443.416C660.808 444.376 660.584 445.224 660.136 445.96C659.688 446.696 659 447.272 658.072 447.688C657.16 448.104 656 448.312 654.592 448.312C652.656 448.312 651.176 447.912 650.152 447.112C649.128 446.296 648.56 445.184 648.448 443.776H650.536C650.616 444.48 650.832 445.032 651.184 445.432C651.536 445.832 652 446.12 652.576 446.296C653.168 446.456 653.84 446.536 654.592 446.536C655.92 446.536 656.944 446.272 657.664 445.744C658.4 445.216 658.768 444.424 658.768 443.368C658.768 442.76 658.608 442.28 658.288 441.928C657.984 441.56 657.576 441.272 657.064 441.064C656.552 440.856 655.992 440.664 655.384 440.488L653.224 439.888C651.864 439.504 650.8 438.968 650.032 438.28C649.28 437.592 648.904 436.664 648.904 435.496C648.904 434.504 649.144 433.664 649.624 432.976C650.104 432.272 650.784 431.736 651.664 431.368C652.544 430.984 653.56 430.792 654.712 430.792C655.896 430.792 656.904 430.976 657.736 431.344C658.584 431.696 659.24 432.192 659.704 432.832C660.184 433.472 660.44 434.216 660.472 435.064H658.456ZM671.722 435.064C671.626 434.168 671.25 433.528 670.594 433.144C669.938 432.76 669.042 432.568 667.906 432.568C666.642 432.568 665.706 432.816 665.098 433.312C664.49 433.792 664.186 434.488 664.186 435.4C664.186 435.912 664.29 436.336 664.498 436.672C664.722 436.992 665.002 437.256 665.338 437.464C665.69 437.672 666.05 437.84 666.418 437.968C666.802 438.08 667.154 438.184 667.474 438.28L669.202 438.76C669.666 438.888 670.178 439.056 670.738 439.264C671.298 439.456 671.834 439.728 672.346 440.08C672.858 440.432 673.274 440.88 673.594 441.424C673.914 441.952 674.074 442.616 674.074 443.416C674.074 444.376 673.85 445.224 673.402 445.96C672.954 446.696 672.266 447.272 671.338 447.688C670.426 448.104 669.266 448.312 667.858 448.312C665.922 448.312 664.442 447.912 663.418 447.112C662.394 446.296 661.826 445.184 661.714 443.776H663.802C663.882 444.48 664.098 445.032 664.45 445.432C664.802 445.832 665.266 446.12 665.842 446.296C666.434 446.456 667.106 446.536 667.858 446.536C669.186 446.536 670.21 446.272 670.93 445.744C671.666 445.216 672.034 444.424 672.034 443.368C672.034 442.76 671.874 442.28 671.554 441.928C671.25 441.56 670.842 441.272 670.33 441.064C669.818 440.856 669.258 440.664 668.65 440.488L666.49 439.888C665.13 439.504 664.066 438.968 663.298 438.28C662.546 437.592 662.17 436.664 662.17 435.496C662.17 434.504 662.41 433.664 662.89 432.976C663.37 432.272 664.05 431.736 664.93 431.368C665.81 430.984 666.826 430.792 667.978 430.792C669.162 430.792 670.17 430.976 671.002 431.344C671.85 431.696 672.506 432.192 672.97 432.832C673.45 433.472 673.706 434.216 673.738 435.064H671.722ZM675.917 431.032H685.997V432.784H677.981V438.616H685.445V440.344H677.981V446.248H686.117V448H675.917V431.032ZM686.902 431.032H699.766V432.784H694.366V448H692.326V432.784H686.902V431.032ZM710.153 449.704H699.449V448H710.153V449.704ZM715.273 448H713.209V431.032H715.273V448ZM710.617 432.784V431.032H717.841V432.784H710.617ZM710.617 448V446.248H717.841V448H710.617ZM720.663 448V431.032H726.207C728.783 431.032 730.711 431.76 731.991 433.216C733.287 434.656 733.935 436.752 733.935 439.504C733.935 442.24 733.279 444.344 731.967 445.816C730.655 447.272 728.655 448 725.967 448H720.663ZM725.847 446.248C727.351 446.248 728.543 445.992 729.423 445.48C730.303 444.952 730.927 444.184 731.295 443.176C731.679 442.168 731.871 440.944 731.871 439.504C731.871 438.048 731.679 436.824 731.295 435.832C730.927 434.824 730.319 434.064 729.471 433.552C728.623 433.04 727.479 432.784 726.039 432.784H722.727V446.248H725.847ZM740.452 446.512L746.212 440.416C746.9 439.696 747.46 439.064 747.892 438.52C748.324 437.976 748.652 437.472 748.876 437.008C749.1 436.528 749.212 436.024 749.212 435.496C749.212 434.504 748.916 433.768 748.324 433.288C747.732 432.792 746.932 432.544 745.924 432.544C744.9 432.544 744.084 432.832 743.476 433.408C742.868 433.968 742.564 434.792 742.564 435.88H740.548C740.532 434.84 740.756 433.944 741.22 433.192C741.684 432.424 742.324 431.832 743.14 431.416C743.972 431 744.924 430.792 745.996 430.792C747.084 430.792 748.02 430.984 748.804 431.368C749.588 431.752 750.188 432.296 750.604 433C751.036 433.688 751.252 434.52 751.252 435.496C751.252 436.12 751.124 436.72 750.868 437.296C750.628 437.872 750.22 438.512 749.644 439.216C749.084 439.92 748.308 440.792 747.316 441.832L742.348 447.112L742.132 446.248H751.444V448H740.452V446.512ZM758.991 448.24C757.567 448.24 756.399 447.912 755.487 447.256C754.591 446.6 753.935 445.624 753.519 444.328C753.119 443.032 752.919 441.424 752.919 439.504C752.919 437.568 753.127 435.96 753.543 434.68C753.975 433.4 754.639 432.432 755.535 431.776C756.431 431.12 757.583 430.792 758.991 430.792C760.431 430.792 761.599 431.12 762.495 431.776C763.391 432.432 764.047 433.4 764.463 434.68C764.895 435.96 765.111 437.568 765.111 439.504C765.111 441.424 764.895 443.032 764.463 444.328C764.047 445.624 763.391 446.6 762.495 447.256C761.599 447.912 760.431 448.24 758.991 448.24ZM758.991 446.464C760.463 446.464 761.511 445.912 762.135 444.808C762.759 443.688 763.071 441.92 763.071 439.504C763.071 437.088 762.759 435.328 762.135 434.224C761.511 433.104 760.463 432.544 758.991 432.544C757.567 432.544 756.543 433.104 755.919 434.224C755.295 435.328 754.983 437.088 754.983 439.504C754.983 441.92 755.287 443.688 755.895 444.808C756.519 445.912 757.551 446.464 758.991 446.464ZM766.564 446.512L772.324 440.416C773.012 439.696 773.572 439.064 774.004 438.52C774.436 437.976 774.764 437.472 774.988 437.008C775.212 436.528 775.324 436.024 775.324 435.496C775.324 434.504 775.028 433.768 774.436 433.288C773.844 432.792 773.044 432.544 772.036 432.544C771.012 432.544 770.196 432.832 769.588 433.408C768.98 433.968 768.676 434.792 768.676 435.88H766.66C766.644 434.84 766.868 433.944 767.332 433.192C767.796 432.424 768.436 431.832 769.252 431.416C770.084 431 771.036 430.792 772.108 430.792C773.196 430.792 774.132 430.984 774.916 431.368C775.7 431.752 776.3 432.296 776.716 433C777.148 433.688 777.364 434.52 777.364 435.496C777.364 436.12 777.236 436.72 776.98 437.296C776.74 437.872 776.332 438.512 775.756 439.216C775.196 439.92 774.42 440.792 773.428 441.832L768.46 447.112L768.244 446.248H777.556V448H766.564V446.512ZM779.438 442.624C779.454 442.048 779.534 441.472 779.678 440.896C779.838 440.304 780.102 439.664 780.47 438.976C780.838 438.288 781.342 437.504 781.982 436.624L786.11 431.032H788.462L782.582 438.952L782.438 438.16C782.678 438.016 782.934 437.88 783.206 437.752C783.478 437.624 783.79 437.52 784.142 437.44C784.494 437.36 784.886 437.32 785.318 437.32C786.438 437.32 787.406 437.544 788.222 437.992C789.054 438.44 789.686 439.072 790.118 439.888C790.566 440.688 790.79 441.64 790.79 442.744C790.79 443.848 790.566 444.816 790.118 445.648C789.686 446.464 789.046 447.104 788.198 447.568C787.35 448.016 786.326 448.24 785.126 448.24C783.302 448.24 781.894 447.728 780.902 446.704C779.91 445.68 779.422 444.32 779.438 442.624ZM781.454 442.744C781.454 443.88 781.742 444.792 782.318 445.48C782.894 446.152 783.83 446.488 785.126 446.488C786.39 446.488 787.31 446.152 787.886 445.48C788.462 444.792 788.75 443.88 788.75 442.744C788.75 441.592 788.462 440.696 787.886 440.056C787.31 439.4 786.39 439.072 785.126 439.072C783.974 439.072 783.07 439.4 782.414 440.056C781.774 440.696 781.454 441.592 781.454 442.744ZM802.036 449.704H791.332V448H802.036V449.704ZM805.644 431.032L811.236 445H811.38L816.996 431.032H819.54V448H817.572V434.968H817.428L812.148 448H810.42L805.164 434.968H805.02V448H803.052V431.032H805.644ZM834.145 441.16H829.609V439.384H836.185V441.352C836.185 442.584 835.945 443.728 835.465 444.784C834.985 445.824 834.241 446.664 833.233 447.304C832.225 447.928 830.913 448.24 829.297 448.24C826.913 448.24 825.073 447.488 823.777 445.984C822.481 444.48 821.833 442.32 821.833 439.504C821.833 436.688 822.481 434.536 823.777 433.048C825.073 431.544 826.913 430.792 829.297 430.792C830.481 430.792 831.545 431 832.489 431.416C833.433 431.832 834.217 432.44 834.841 433.24C835.465 434.024 835.865 435 836.041 436.168H833.929C833.721 434.92 833.217 434.008 832.417 433.432C831.633 432.856 830.593 432.568 829.297 432.568C827.537 432.568 826.193 433.136 825.265 434.272C824.353 435.392 823.897 437.136 823.897 439.504C823.897 441.872 824.353 443.624 825.265 444.76C826.193 445.88 827.537 446.44 829.297 446.44C830.161 446.44 830.881 446.328 831.457 446.104C832.033 445.88 832.497 445.576 832.849 445.192C833.201 444.808 833.465 444.384 833.641 443.92C833.833 443.456 833.961 442.984 834.025 442.504C834.105 442.008 834.145 441.56 834.145 441.16ZM847.109 449.704H836.405V448H847.109V449.704ZM858.997 436.408C858.997 436.968 858.909 437.536 858.733 438.112C858.557 438.688 858.285 439.312 857.917 439.984C857.565 440.656 857.093 441.456 856.501 442.384L852.853 448H850.549L855.973 439.912L856.117 440.776C855.861 440.936 855.581 441.088 855.277 441.232C854.989 441.376 854.669 441.496 854.317 441.592C853.981 441.672 853.597 441.712 853.165 441.712C852.045 441.712 851.069 441.488 850.237 441.04C849.421 440.592 848.789 439.968 848.341 439.168C847.893 438.352 847.669 437.392 847.669 436.288C847.669 435.168 847.893 434.2 848.341 433.384C848.789 432.568 849.437 431.936 850.285 431.488C851.133 431.024 852.157 430.792 853.357 430.792C855.197 430.792 856.597 431.304 857.557 432.328C858.533 433.352 859.013 434.712 858.997 436.408ZM857.005 436.264C857.005 435.112 856.717 434.208 856.141 433.552C855.565 432.896 854.637 432.568 853.357 432.568C852.093 432.568 851.173 432.896 850.597 433.552C850.021 434.208 849.733 435.112 849.733 436.264C849.733 437.416 850.021 438.32 850.597 438.976C851.173 439.616 852.093 439.936 853.357 439.936C854.509 439.936 855.405 439.616 856.045 438.976C856.685 438.32 857.005 437.416 857.005 436.264ZM872.451 436.408C872.451 436.968 872.363 437.536 872.187 438.112C872.011 438.688 871.739 439.312 871.371 439.984C871.019 440.656 870.547 441.456 869.955 442.384L866.307 448H864.003L869.427 439.912L869.571 440.776C869.315 440.936 869.035 441.088 868.731 441.232C868.443 441.376 868.123 441.496 867.771 441.592C867.435 441.672 867.051 441.712 866.619 441.712C865.499 441.712 864.523 441.488 863.691 441.04C862.875 440.592 862.243 439.968 861.795 439.168C861.347 438.352 861.123 437.392 861.123 436.288C861.123 435.168 861.347 434.2 861.795 433.384C862.243 432.568 862.891 431.936 863.739 431.488C864.587 431.024 865.611 430.792 866.811 430.792C868.651 430.792 870.051 431.304 871.011 432.328C871.987 433.352 872.467 434.712 872.451 436.408ZM870.459 436.264C870.459 435.112 870.171 434.208 869.595 433.552C869.019 432.896 868.091 432.568 866.811 432.568C865.547 432.568 864.627 432.896 864.051 433.552C863.475 434.208 863.187 435.112 863.187 436.264C863.187 437.416 863.475 438.32 864.051 438.976C864.627 439.616 865.547 439.936 866.811 439.936C867.963 439.936 868.859 439.616 869.499 438.976C870.139 438.32 870.459 437.416 870.459 436.264ZM880.265 448.24C878.841 448.24 877.673 447.912 876.761 447.256C875.865 446.6 875.209 445.624 874.793 444.328C874.393 443.032 874.193 441.424 874.193 439.504C874.193 437.568 874.401 435.96 874.817 434.68C875.249 433.4 875.913 432.432 876.809 431.776C877.705 431.12 878.857 430.792 880.265 430.792C881.705 430.792 882.873 431.12 883.769 431.776C884.665 432.432 885.321 433.4 885.737 434.68C886.169 435.96 886.385 437.568 886.385 439.504C886.385 441.424 886.169 443.032 885.737 444.328C885.321 445.624 884.665 446.6 883.769 447.256C882.873 447.912 881.705 448.24 880.265 448.24ZM880.265 446.464C881.737 446.464 882.785 445.912 883.409 444.808C884.033 443.688 884.345 441.92 884.345 439.504C884.345 437.088 884.033 435.328 883.409 434.224C882.785 433.104 881.737 432.544 880.265 432.544C878.841 432.544 877.817 433.104 877.193 434.224C876.569 435.328 876.257 437.088 876.257 439.504C876.257 441.92 876.561 443.688 877.169 444.808C877.793 445.912 878.825 446.464 880.265 446.464ZM893.838 438.328L898.422 431.032H900.774L895.182 439.744L893.838 438.328ZM894.15 440.632L889.494 448H887.142L892.806 439.192L894.15 440.632ZM892.662 439.576L887.118 431.032H889.566L894.006 438.064L895.278 439.432L900.846 448H898.398L893.766 440.656L892.662 439.576Z" fill="#FFFAEE"/>
<path d="M715.536 648H713.496V632.232L714.576 632.4L709.272 635.928V633.864L713.472 631.032H715.536V648ZM720.031 646.512L725.791 640.416C726.479 639.696 727.039 639.064 727.471 638.52C727.903 637.976 728.231 637.472 728.455 637.008C728.679 636.528 728.791 636.024 728.791 635.496C728.791 634.504 728.495 633.768 727.903 633.288C727.311 632.792 726.511 632.544 725.503 632.544C724.479 632.544 723.663 632.832 723.055 633.408C722.447 633.968 722.143 634.792 722.143 635.88H720.127C720.111 634.84 720.335 633.944 720.799 633.192C721.263 632.424 721.903 631.832 722.719 631.416C723.551 631 724.503 630.792 725.575 630.792C726.663 630.792 727.599 630.984 728.383 631.368C729.167 631.752 729.767 632.296 730.183 633C730.615 633.688 730.831 634.52 730.831 635.496C730.831 636.12 730.703 636.72 730.447 637.296C730.207 637.872 729.799 638.512 729.223 639.216C728.663 639.92 727.887 640.792 726.895 641.832L721.927 647.112L721.711 646.248H731.023V648H720.031V646.512ZM742.026 649.704H731.322V648H742.026V649.704ZM754.082 636.24C753.89 634.992 753.41 634.072 752.642 633.48C751.874 632.872 750.85 632.568 749.57 632.568C747.89 632.568 746.602 633.144 745.706 634.296C744.826 635.432 744.386 637.168 744.386 639.504C744.386 641.84 744.826 643.584 745.706 644.736C746.602 645.888 747.89 646.464 749.57 646.464C750.85 646.464 751.874 646.16 752.642 645.552C753.41 644.944 753.898 644.024 754.106 642.792H756.194C755.938 644.552 755.234 645.904 754.082 646.848C752.946 647.776 751.442 648.24 749.57 648.24C747.234 648.24 745.442 647.488 744.194 645.984C742.946 644.48 742.322 642.32 742.322 639.504C742.322 636.688 742.946 634.536 744.194 633.048C745.442 631.544 747.234 630.792 749.57 630.792C750.738 630.792 751.786 631 752.714 631.416C753.642 631.816 754.402 632.424 754.994 633.24C755.602 634.056 755.994 635.056 756.17 636.24H754.082ZM772.363 639.504C772.363 642.32 771.731 644.48 770.467 645.984C769.219 647.488 767.395 648.24 764.995 648.24C762.611 648.24 760.787 647.488 759.523 645.984C758.275 644.48 757.651 642.32 757.651 639.504C757.651 636.688 758.275 634.536 759.523 633.048C760.787 631.544 762.611 630.792 764.995 630.792C767.395 630.792 769.219 631.544 770.467 633.048C771.731 634.536 772.363 636.688 772.363 639.504ZM770.299 639.504C770.299 637.136 769.859 635.392 768.979 634.272C768.115 633.136 766.795 632.568 765.019 632.568C763.227 632.568 761.891 633.136 761.011 634.272C760.147 635.392 759.715 637.136 759.715 639.504C759.715 641.872 760.147 643.624 761.011 644.76C761.891 645.896 763.227 646.464 765.019 646.464C766.795 646.464 768.115 645.896 768.979 644.76C769.859 643.624 770.299 641.872 770.299 639.504ZM774.661 631.032H776.725V646.2H784.597V648H774.661V631.032ZM794.857 649.704H784.153V648H794.857V649.704ZM798.466 631.032L804.058 645H804.202L809.818 631.032H812.362V648H810.394V634.968H810.25L804.97 648H803.242L797.986 634.968H797.842V648H795.874V631.032H798.466ZM829.366 639.504C829.366 642.32 828.734 644.48 827.47 645.984C826.222 647.488 824.398 648.24 821.999 648.24C819.615 648.24 817.79 647.488 816.526 645.984C815.278 644.48 814.654 642.32 814.654 639.504C814.654 636.688 815.278 634.536 816.526 633.048C817.79 631.544 819.615 630.792 821.999 630.792C824.398 630.792 826.222 631.544 827.47 633.048C828.734 634.536 829.366 636.688 829.366 639.504ZM827.303 639.504C827.303 637.136 826.863 635.392 825.983 634.272C825.119 633.136 823.799 632.568 822.023 632.568C820.23 632.568 818.894 633.136 818.014 634.272C817.15 635.392 816.719 637.136 816.719 639.504C816.719 641.872 817.15 643.624 818.014 644.76C818.894 645.896 820.23 646.464 822.023 646.464C823.799 646.464 825.119 645.896 825.983 644.76C826.863 643.624 827.303 641.872 827.303 639.504ZM831.665 648V631.032H837.209C839.785 631.032 841.713 631.76 842.993 633.216C844.289 634.656 844.937 636.752 844.937 639.504C844.937 642.24 844.281 644.344 842.969 645.816C841.657 647.272 839.657 648 836.969 648H831.665ZM836.849 646.248C838.353 646.248 839.545 645.992 840.425 645.48C841.305 644.952 841.929 644.184 842.297 643.176C842.681 642.168 842.873 640.944 842.873 639.504C842.873 638.048 842.681 636.824 842.297 635.832C841.929 634.824 841.321 634.064 840.473 633.552C839.625 633.04 838.481 632.784 837.041 632.784H833.729V646.248H836.849ZM859.996 631.032V642.312C859.996 643.48 859.772 644.52 859.324 645.432C858.876 646.344 858.18 647.056 857.236 647.568C856.292 648.064 855.076 648.312 853.588 648.312C852.116 648.312 850.908 648.064 849.964 647.568C849.02 647.056 848.324 646.344 847.876 645.432C847.428 644.52 847.204 643.48 847.204 642.312V631.032H849.268V642.096C849.268 642.992 849.396 643.776 849.652 644.448C849.924 645.12 850.372 645.64 850.996 646.008C851.636 646.36 852.5 646.536 853.588 646.536C854.708 646.536 855.58 646.36 856.204 646.008C856.828 645.64 857.276 645.12 857.548 644.448C857.82 643.776 857.956 642.992 857.956 642.096V631.032H859.996ZM863.002 631.032H865.066V646.2H872.938V648H863.002V631.032ZM880.343 633.624H880.223L875.087 648H873.047L879.263 631.032H881.375L887.615 648H885.455L880.343 633.624ZM884.471 643.296H876.119V641.496H884.471V643.296ZM897.128 640.176L901.544 648H899.192L895.064 640.536L897.128 640.176ZM894.872 639.528C895.944 639.528 896.76 639.408 897.32 639.168C897.88 638.912 898.264 638.536 898.472 638.04C898.696 637.544 898.808 636.92 898.808 636.168C898.808 635.416 898.696 634.792 898.472 634.296C898.264 633.8 897.88 633.432 897.32 633.192C896.76 632.936 895.944 632.808 894.872 632.808H891.224V639.528H894.872ZM894.992 641.304H891.224V648H889.16V631.032H894.968C896.44 631.032 897.6 631.248 898.448 631.68C899.312 632.096 899.928 632.688 900.296 633.456C900.664 634.224 900.848 635.128 900.848 636.168C900.848 636.952 900.76 637.664 900.584 638.304C900.408 638.928 900.104 639.464 899.672 639.912C899.24 640.36 898.64 640.704 897.872 640.944C897.12 641.184 896.16 641.304 894.992 641.304Z" fill="#FFFAEE"/>
<path d="M413.576 485.726H415.334V495.307H426.908V485.726H428.666V506.441H426.908V496.831H415.334V506.441H413.576V485.726ZM456.425 485.726V499.82C456.425 501.187 456.161 502.398 455.634 503.453C455.126 504.508 454.325 505.338 453.231 505.943C452.137 506.529 450.702 506.822 448.924 506.822C447.166 506.822 445.73 506.529 444.617 505.943C443.523 505.338 442.712 504.508 442.185 503.453C441.677 502.398 441.423 501.187 441.423 499.82V485.726H443.181V499.556C443.181 500.708 443.357 501.714 443.709 502.574C444.06 503.433 444.656 504.097 445.496 504.566C446.336 505.015 447.479 505.24 448.924 505.24C450.389 505.24 451.532 505.015 452.352 504.566C453.192 504.097 453.788 503.433 454.139 502.574C454.491 501.714 454.667 500.708 454.667 499.556V485.726H456.425ZM470.974 485.726L478.592 503.482H478.797L486.415 485.726H488.173V506.441H486.474V489.916H486.327L479.149 506.441H478.152L470.974 489.916H470.857V506.441H469.157V485.726H470.974ZM507.517 487.982H507.4L500.895 506.441H499.108L506.521 485.726H508.513L515.897 506.441H514.022L507.517 487.982ZM512.234 500.23H502.77V498.706H512.234V500.23ZM542.327 506.441H540.364L528.79 488.656H528.556V506.441H526.827V485.726H528.82L540.364 503.482H540.598V485.726H542.327V506.441ZM571.749 485.726L579.368 503.482H579.573L587.191 485.726H588.949V506.441H587.249V489.916H587.103L579.924 506.441H578.928L571.749 489.916H571.632V506.441H569.933V485.726H571.749ZM608.293 487.982H608.175L601.671 506.441H599.883L607.296 485.726H609.289L616.672 506.441H614.797L608.293 487.982ZM613.01 500.23H603.546V498.706H613.01V500.23ZM627.603 506.441V485.726H634.02C637.028 485.726 639.303 486.605 640.847 488.363C642.39 490.121 643.161 492.69 643.161 496.069C643.161 499.429 642.37 501.998 640.788 503.775C639.225 505.553 636.871 506.441 633.727 506.441H627.603ZM633.58 504.918C635.553 504.918 637.106 504.566 638.239 503.863C639.372 503.14 640.182 502.115 640.671 500.786C641.159 499.458 641.403 497.886 641.403 496.069C641.403 494.233 641.159 492.661 640.671 491.352C640.202 490.024 639.411 489.008 638.297 488.305C637.204 487.601 635.709 487.25 633.814 487.25H629.361V504.918H633.58ZM655.05 485.726H666.712V487.25H656.808V495.307H666.038V496.831H656.808V504.918H666.858V506.441H655.05V485.726Z" fill="#FFFAEE"/>
<path d="M187.032 448.312C185.912 448.312 184.824 448.112 183.768 447.712C182.712 447.312 181.76 446.728 180.912 445.96C180.064 445.192 179.384 444.264 178.872 443.176C178.376 442.088 178.128 440.848 178.128 439.456C178.128 438.064 178.376 436.824 178.872 435.736C179.384 434.648 180.064 433.728 180.912 432.976C181.76 432.208 182.712 431.624 183.768 431.224C184.824 430.824 185.912 430.624 187.032 430.624C188.152 430.624 189.24 430.824 190.296 431.224C191.352 431.624 192.304 432.208 193.152 432.976C194 433.728 194.672 434.648 195.168 435.736C195.664 436.824 195.912 438.064 195.912 439.456C195.912 440.848 195.664 442.088 195.168 443.176C194.672 444.264 194 445.192 193.152 445.96C192.304 446.728 191.352 447.312 190.296 447.712C189.24 448.112 188.152 448.312 187.032 448.312ZM187.032 447.208C187.976 447.208 188.904 447.04 189.816 446.704C190.728 446.352 191.552 445.848 192.288 445.192C193.024 444.52 193.608 443.704 194.04 442.744C194.488 441.784 194.712 440.688 194.712 439.456C194.712 438.224 194.488 437.128 194.04 436.168C193.608 435.208 193.024 434.4 192.288 433.744C191.552 433.072 190.728 432.568 189.816 432.232C188.904 431.88 187.976 431.704 187.032 431.704C186.072 431.704 185.136 431.88 184.224 432.232C183.312 432.568 182.488 433.072 181.752 433.744C181.016 434.4 180.424 435.208 179.976 436.168C179.544 437.128 179.328 438.224 179.328 439.456C179.328 440.688 179.544 441.784 179.976 442.744C180.424 443.704 181.016 444.52 181.752 445.192C182.488 445.848 183.312 446.352 184.224 446.704C185.136 447.04 186.072 447.208 187.032 447.208ZM187.128 444.16C185.656 444.16 184.544 443.736 183.792 442.888C183.04 442.04 182.664 440.888 182.664 439.432C182.664 437.976 183.048 436.832 183.816 436C184.6 435.168 185.688 434.752 187.08 434.752C187.816 434.752 188.448 434.872 188.976 435.112C189.52 435.352 189.952 435.696 190.272 436.144C190.608 436.576 190.824 437.096 190.92 437.704H189.576C189.464 437.144 189.232 436.704 188.88 436.384C188.544 436.064 187.952 435.904 187.104 435.904C186.08 435.904 185.296 436.208 184.752 436.816C184.208 437.424 183.936 438.296 183.936 439.432C183.936 440.584 184.208 441.472 184.752 442.096C185.296 442.704 186.08 443.008 187.104 443.008C187.904 443.008 188.488 442.88 188.856 442.624C189.224 442.352 189.464 441.92 189.576 441.328H190.92C190.856 441.888 190.664 442.384 190.344 442.816C190.04 443.232 189.616 443.56 189.072 443.8C188.544 444.04 187.896 444.16 187.128 444.16ZM204.647 446.824L210.455 440.608C211.191 439.824 211.791 439.136 212.255 438.544C212.719 437.936 213.063 437.376 213.287 436.864C213.527 436.336 213.647 435.8 213.647 435.256C213.647 434.216 213.311 433.424 212.639 432.88C211.967 432.32 211.071 432.04 209.951 432.04C208.831 432.04 207.911 432.376 207.191 433.048C206.471 433.704 206.127 434.608 206.159 435.76H204.767C204.751 434.72 204.967 433.832 205.415 433.096C205.863 432.36 206.487 431.792 207.287 431.392C208.087 430.992 208.999 430.792 210.023 430.792C211.095 430.792 211.999 430.976 212.735 431.344C213.487 431.696 214.063 432.208 214.463 432.88C214.863 433.536 215.063 434.328 215.063 435.256C215.063 435.864 214.959 436.456 214.751 437.032C214.543 437.592 214.159 438.24 213.599 438.976C213.055 439.696 212.263 440.608 211.223 441.712L205.751 447.568L205.847 446.752H215.279V448H204.647V446.824ZM229.982 448.24C228.59 448.24 227.454 447.928 226.574 447.304C225.71 446.664 225.078 445.704 224.678 444.424C224.278 443.128 224.078 441.488 224.078 439.504C224.078 437.52 224.278 435.888 224.678 434.608C225.094 433.328 225.734 432.376 226.598 431.752C227.478 431.112 228.606 430.792 229.982 430.792C231.374 430.792 232.502 431.112 233.366 431.752C234.246 432.376 234.886 433.328 235.286 434.608C235.702 435.888 235.91 437.52 235.91 439.504C235.91 441.472 235.702 443.104 235.286 444.4C234.886 445.696 234.246 446.664 233.366 447.304C232.502 447.928 231.374 448.24 229.982 448.24ZM229.982 446.992C231.614 446.992 232.774 446.376 233.462 445.144C234.15 443.912 234.494 442.032 234.494 439.504C234.494 436.976 234.15 435.104 233.462 433.888C232.774 432.656 231.614 432.04 229.982 432.04C228.366 432.04 227.214 432.656 226.526 433.888C225.838 435.104 225.494 436.976 225.494 439.504C225.494 442.032 225.83 443.912 226.502 445.144C227.19 446.376 228.35 446.992 229.982 446.992ZM244.713 446.824L250.521 440.608C251.257 439.824 251.857 439.136 252.321 438.544C252.785 437.936 253.129 437.376 253.353 436.864C253.593 436.336 253.713 435.8 253.713 435.256C253.713 434.216 253.377 433.424 252.705 432.88C252.033 432.32 251.137 432.04 250.017 432.04C248.897 432.04 247.977 432.376 247.257 433.048C246.537 433.704 246.193 434.608 246.225 435.76H244.833C244.817 434.72 245.033 433.832 245.481 433.096C245.929 432.36 246.553 431.792 247.353 431.392C248.153 430.992 249.065 430.792 250.089 430.792C251.161 430.792 252.065 430.976 252.801 431.344C253.553 431.696 254.129 432.208 254.529 432.88C254.929 433.536 255.129 434.328 255.129 435.256C255.129 435.864 255.025 436.456 254.817 437.032C254.609 437.592 254.225 438.24 253.665 438.976C253.121 439.696 252.329 440.608 251.289 441.712L245.817 447.568L245.913 446.752H255.345V448H244.713V446.824ZM264.6 442.672C264.616 442.048 264.688 441.44 264.816 440.848C264.96 440.256 265.208 439.624 265.56 438.952C265.928 438.28 266.432 437.512 267.072 436.648L271.272 431.032H272.976L267.288 438.568L267.096 438.352C267.432 438.144 267.736 437.976 268.008 437.848C268.28 437.704 268.576 437.6 268.896 437.536C269.216 437.456 269.608 437.416 270.072 437.416C271.24 437.416 272.232 437.632 273.048 438.064C273.864 438.48 274.48 439.088 274.896 439.888C275.328 440.688 275.544 441.656 275.544 442.792C275.544 443.88 275.336 444.832 274.92 445.648C274.504 446.464 273.888 447.104 273.072 447.568C272.256 448.016 271.256 448.24 270.072 448.24C268.28 448.24 266.912 447.736 265.968 446.728C265.04 445.704 264.584 444.352 264.6 442.672ZM266.016 442.792C266.016 444.072 266.328 445.096 266.952 445.864C267.592 446.616 268.632 446.992 270.072 446.992C271.496 446.992 272.528 446.616 273.168 445.864C273.808 445.096 274.128 444.072 274.128 442.792C274.128 441.512 273.808 440.504 273.168 439.768C272.528 439.032 271.496 438.664 270.072 438.664C268.792 438.664 267.792 439.032 267.072 439.768C266.368 440.504 266.016 441.512 266.016 442.792Z" fill="#FFFAEE"/>
<path d="M184.488 632.88H184.392L179.064 648H177.6L183.672 631.032H185.304L191.352 648H189.816L184.488 632.88ZM188.352 642.912H180.6V641.664H188.352V642.912ZM200.305 631.032H201.745V646.752H209.833V648H200.305V631.032ZM218.287 631.032H219.727V646.752H227.815V648H218.287V631.032ZM256.371 640.224L260.787 648H259.179L254.931 640.488L256.371 640.224ZM254.499 639.768C255.635 639.768 256.515 639.624 257.139 639.336C257.763 639.048 258.203 638.624 258.459 638.064C258.715 637.504 258.843 636.816 258.843 636C258.843 635.168 258.715 634.48 258.459 633.936C258.203 633.392 257.763 632.984 257.139 632.712C256.515 632.424 255.635 632.28 254.499 632.28H250.371V639.768H254.499ZM254.619 641.016H250.371V648H248.931V631.032H254.595C255.971 631.032 257.075 631.232 257.907 631.632C258.739 632.016 259.339 632.576 259.707 633.312C260.091 634.048 260.283 634.944 260.283 636C260.283 636.832 260.195 637.56 260.019 638.184C259.843 638.808 259.539 639.336 259.107 639.768C258.675 640.184 258.091 640.496 257.355 640.704C256.635 640.912 255.723 641.016 254.619 641.016ZM273.909 648H272.469V631.032H273.909V648ZM269.853 632.28V631.032H276.501V632.28H269.853ZM269.853 648V646.752H276.501V648H269.853ZM298.204 640.8H293.38V639.552H299.644V641.472C299.644 642.672 299.404 643.792 298.924 644.832C298.46 645.856 297.732 646.68 296.74 647.304C295.764 647.928 294.5 648.24 292.948 648.24C290.628 648.24 288.828 647.488 287.548 645.984C286.284 644.464 285.652 642.304 285.652 639.504C285.652 636.704 286.284 634.552 287.548 633.048C288.828 631.544 290.628 630.792 292.948 630.792C294.052 630.792 295.052 630.984 295.948 631.368C296.844 631.736 297.596 632.296 298.204 633.048C298.812 633.8 299.228 634.76 299.452 635.928H297.964C297.708 634.552 297.14 633.568 296.26 632.976C295.396 632.384 294.292 632.088 292.948 632.088C291.06 632.088 289.612 632.68 288.604 633.864C287.596 635.048 287.092 636.928 287.092 639.504C287.092 642.064 287.596 643.944 288.604 645.144C289.612 646.344 291.06 646.944 292.948 646.944C293.924 646.944 294.732 646.808 295.372 646.536C296.012 646.248 296.524 645.872 296.908 645.408C297.292 644.944 297.572 644.44 297.748 643.896C297.94 643.352 298.06 642.808 298.108 642.264C298.172 641.72 298.204 641.232 298.204 640.8ZM309.323 631.032H310.763V638.88H320.243V631.032H321.683V648H320.243V640.128H310.763V648H309.323V631.032ZM330.132 631.032H342.66V632.28H337.116V648H335.676V632.28H330.132V631.032ZM360.011 634.704C359.883 633.712 359.443 633.024 358.691 632.64C357.955 632.256 356.979 632.064 355.763 632.064C354.371 632.064 353.339 632.336 352.667 632.88C351.995 633.408 351.659 634.192 351.659 635.232C351.659 635.84 351.771 636.336 351.995 636.72C352.235 637.104 352.539 637.416 352.907 637.656C353.275 637.88 353.667 638.064 354.083 638.208C354.499 638.336 354.883 638.448 355.235 638.544L357.083 639.048C357.547 639.176 358.051 639.336 358.595 639.528C359.139 639.72 359.651 639.984 360.131 640.32C360.627 640.656 361.027 641.088 361.331 641.616C361.635 642.144 361.787 642.8 361.787 643.584C361.787 644.48 361.571 645.288 361.139 646.008C360.707 646.728 360.043 647.296 359.147 647.712C358.251 648.112 357.107 648.312 355.715 648.312C353.859 648.312 352.435 647.936 351.443 647.184C350.451 646.432 349.891 645.416 349.763 644.136H351.251C351.347 644.904 351.595 645.496 351.995 645.912C352.395 646.328 352.907 646.624 353.531 646.8C354.171 646.96 354.899 647.04 355.715 647.04C357.187 647.04 358.323 646.76 359.123 646.2C359.939 645.624 360.347 644.736 360.347 643.536C360.347 642.816 360.171 642.248 359.819 641.832C359.483 641.416 359.027 641.088 358.451 640.848C357.891 640.608 357.283 640.4 356.627 640.224L354.323 639.6C353.011 639.232 351.995 638.72 351.275 638.064C350.571 637.408 350.219 636.504 350.219 635.352C350.219 634.408 350.443 633.6 350.891 632.928C351.355 632.24 352.003 631.712 352.835 631.344C353.683 630.976 354.683 630.792 355.835 630.792C356.955 630.792 357.915 630.96 358.715 631.296C359.531 631.616 360.171 632.072 360.635 632.664C361.115 633.24 361.387 633.92 361.451 634.704H360.011ZM390.567 640.224L394.983 648H393.375L389.127 640.488L390.567 640.224ZM388.695 639.768C389.831 639.768 390.711 639.624 391.335 639.336C391.959 639.048 392.399 638.624 392.655 638.064C392.911 637.504 393.039 636.816 393.039 636C393.039 635.168 392.911 634.48 392.655 633.936C392.399 633.392 391.959 632.984 391.335 632.712C390.711 632.424 389.831 632.28 388.695 632.28H384.567V639.768H388.695ZM388.815 641.016H384.567V648H383.127V631.032H388.791C390.167 631.032 391.271 631.232 392.103 631.632C392.935 632.016 393.535 632.576 393.903 633.312C394.287 634.048 394.479 634.944 394.479 636C394.479 636.832 394.391 637.56 394.215 638.184C394.039 638.808 393.735 639.336 393.303 639.768C392.871 640.184 392.287 640.496 391.551 640.704C390.831 640.912 389.919 641.016 388.815 641.016ZM404.25 631.032H413.802V632.28H405.69V638.88H413.25V640.128H405.69V646.752H413.922V648H404.25V631.032ZM432.854 634.704C432.726 633.712 432.286 633.024 431.534 632.64C430.798 632.256 429.822 632.064 428.606 632.064C427.214 632.064 426.182 632.336 425.51 632.88C424.838 633.408 424.502 634.192 424.502 635.232C424.502 635.84 424.614 636.336 424.838 636.72C425.078 637.104 425.382 637.416 425.75 637.656C426.118 637.88 426.51 638.064 426.926 638.208C427.342 638.336 427.726 638.448 428.078 638.544L429.926 639.048C430.39 639.176 430.894 639.336 431.438 639.528C431.982 639.72 432.494 639.984 432.974 640.32C433.47 640.656 433.87 641.088 434.174 641.616C434.478 642.144 434.63 642.8 434.63 643.584C434.63 644.48 434.414 645.288 433.982 646.008C433.55 646.728 432.886 647.296 431.99 647.712C431.094 648.112 429.95 648.312 428.558 648.312C426.702 648.312 425.278 647.936 424.286 647.184C423.294 646.432 422.734 645.416 422.606 644.136H424.094C424.19 644.904 424.438 645.496 424.838 645.912C425.238 646.328 425.75 646.624 426.374 646.8C427.014 646.96 427.742 647.04 428.558 647.04C430.03 647.04 431.166 646.76 431.966 646.2C432.782 645.624 433.19 644.736 433.19 643.536C433.19 642.816 433.014 642.248 432.662 641.832C432.326 641.416 431.87 641.088 431.294 640.848C430.734 640.608 430.126 640.4 429.47 640.224L427.166 639.6C425.854 639.232 424.838 638.72 424.118 638.064C423.414 637.408 423.062 636.504 423.062 635.352C423.062 634.408 423.286 633.6 423.734 632.928C424.198 632.24 424.846 631.712 425.678 631.344C426.526 630.976 427.526 630.792 428.678 630.792C429.798 630.792 430.758 630.96 431.558 631.296C432.374 631.616 433.014 632.072 433.478 632.664C433.958 633.24 434.23 633.92 434.294 634.704H432.854ZM443.824 631.032H453.376V632.28H445.264V638.88H452.824V640.128H445.264V646.752H453.496V648H443.824V631.032ZM470.886 640.224L475.302 648H473.694L469.446 640.488L470.886 640.224ZM469.014 639.768C470.15 639.768 471.03 639.624 471.654 639.336C472.278 639.048 472.718 638.624 472.974 638.064C473.23 637.504 473.358 636.816 473.358 636C473.358 635.168 473.23 634.48 472.974 633.936C472.718 633.392 472.278 632.984 471.654 632.712C471.03 632.424 470.15 632.28 469.014 632.28H464.886V639.768H469.014ZM469.134 641.016H464.886V648H463.446V631.032H469.11C470.486 631.032 471.59 631.232 472.422 631.632C473.254 632.016 473.854 632.576 474.222 633.312C474.606 634.048 474.798 634.944 474.798 636C474.798 636.832 474.71 637.56 474.534 638.184C474.358 638.808 474.054 639.336 473.622 639.768C473.19 640.184 472.606 640.496 471.87 640.704C471.15 640.912 470.238 641.016 469.134 641.016ZM489.95 646.344H490.094L495.686 631.032H497.198L491.006 648H489.014L482.846 631.032H484.382L489.95 646.344ZM506.137 631.032H515.689V632.28H507.577V638.88H515.137V640.128H507.577V646.752H515.809V648H506.137V631.032ZM525.76 648V631.032H531.016C533.48 631.032 535.344 631.752 536.608 633.192C537.872 634.632 538.504 636.736 538.504 639.504C538.504 642.256 537.856 644.36 536.56 645.816C535.28 647.272 533.352 648 530.776 648H525.76ZM530.656 646.752C532.272 646.752 533.544 646.464 534.472 645.888C535.4 645.296 536.064 644.456 536.464 643.368C536.864 642.28 537.064 640.992 537.064 639.504C537.064 638 536.864 636.712 536.464 635.64C536.08 634.552 535.432 633.72 534.52 633.144C533.624 632.568 532.4 632.28 530.848 632.28H527.2V646.752H530.656Z" fill="#FFFAEE"/>
<rect x="376.407" y="476.407" width="327.186" height="38.2531" rx="19.1266" stroke="#FFFAEE" stroke-width="0.813896"/>
<path d="M387.75 595C383.417 588.174 381 579.266 381 570C381 560.734 383.417 551.825 387.75 545V595Z" fill="#FFFAEE"/>
<path d="M431 595C424.37 595 418.011 592.366 413.322 587.678C408.634 582.989 406 576.63 406 570C406 563.37 408.634 557.011 413.322 552.322C418.011 547.634 424.37 545 431 545L431 595Z" fill="#FFFAEE"/>
<path d="M396.072 588.871C398.628 591.599 401.679 593.675 405 595V545C401.679 546.325 398.628 548.401 396.072 551.129C391.384 556.134 388.75 562.922 388.75 570C388.75 577.078 391.384 583.866 396.072 588.871Z" fill="#FFFAEE"/>
<path d="M533.25 563.5L548.75 579L533.25 594.5" stroke="#FFFAEE" stroke-width="3.125"/>
<path d="M572 569.312V554.25C572 550.798 569.202 548 565.75 548H516.25C512.798 548 510 550.798 510 554.25V572.75C510 576.202 512.798 579 516.25 579H544.875" stroke="#FFFAEE" stroke-width="3.125" stroke-linecap="round"/>
<path d="M177 595L183.624 595L183.624 588.381L177 588.381L177 595Z" fill="#FFFAEE"/>
<path d="M177 583.092L183.624 583.092L183.624 576.451L177 576.451L177 583.092Z" fill="#FFFAEE"/>
<path d="M188.897 595L195.528 595L195.528 588.381L188.897 588.381L188.897 595Z" fill="#FFFAEE"/>
<path d="M188.897 583.092L195.521 583.092L195.521 576.474L188.897 576.474L188.897 583.092Z" fill="#FFFAEE"/>
<path d="M188.897 571.185L195.521 571.185L195.521 564.543L188.897 564.543L188.897 571.185Z" fill="#FFFAEE"/>
<path d="M207.433 583.069L207.433 576.466L200.802 576.466L200.802 583.092L207.433 583.069Z" fill="#FFFAEE"/>
<path d="M207.433 549.619L207.433 543.015L200.802 543.015L200.802 549.642L207.433 549.619Z" fill="#FFFAEE"/>
<path d="M183.69 561.526L183.69 554.922L177.058 554.922L177.058 561.549L183.69 561.526Z" fill="#FFFAEE"/>
<path d="M200.802 571.185L207.433 571.185L207.433 564.543L200.802 564.543L200.802 571.185Z" fill="#FFFAEE"/>
<path d="M177.058 549.642L183.69 549.642L183.69 543L177.058 543L177.058 549.642Z" fill="#FFFAEE"/>
<path d="M212.706 595L219.33 595L219.33 588.358L212.706 588.358L212.706 595Z" fill="#FFFAEE"/>
<path d="M212.706 561.549L219.33 561.549L219.33 554.907L212.706 554.907L212.706 561.549Z" fill="#FFFAEE"/>
<path d="M224.611 595L231.243 595L231.243 588.358L224.611 588.358L224.611 595Z" fill="#FFFAEE"/>
<path d="M236.601 561.549L243.232 561.549L243.232 554.907L236.601 554.907L236.601 561.549Z" fill="#FFFAEE"/>
<path d="M236.515 583.092L243.147 583.092L243.147 576.451L236.515 576.451L236.515 583.092Z" fill="#FFFAEE"/>
<path d="M248.42 571.185L255.052 571.185L255.052 564.543L248.42 564.543L248.42 571.185Z" fill="#FFFAEE"/>
<path d="M302.052 595H295.428V588.381H302.052V595Z" fill="#FFFAEE"/>
<path d="M302.052 583.092H295.428V576.451H302.052V583.092Z" fill="#FFFAEE"/>
<path d="M290.155 595H283.523V588.381H290.155V595Z" fill="#FFFAEE"/>
<path d="M290.155 583.092H283.531V576.474H290.155V583.092Z" fill="#FFFAEE"/>
<path d="M290.155 571.185H283.531V564.543H290.155V571.185Z" fill="#FFFAEE"/>
<path d="M271.619 583.069V576.466H278.25V583.092L271.619 583.069Z" fill="#FFFAEE"/>
<path d="M271.619 549.619V543.015H278.25V549.642L271.619 549.619Z" fill="#FFFAEE"/>
<path d="M295.362 561.526V554.922H301.993V561.549L295.362 561.526Z" fill="#FFFAEE"/>
<path d="M278.25 571.185H271.619V564.543H278.25V571.185Z" fill="#FFFAEE"/>
<path d="M301.993 549.642H295.362V543H301.993V549.642Z" fill="#FFFAEE"/>
<path d="M266.346 595H259.722V588.358H266.346V595Z" fill="#FFFAEE"/>
<path d="M266.346 561.549H259.722V554.907H266.346V561.549Z" fill="#FFFAEE"/>
<path d="M254.441 595H247.809V588.358H254.441V595Z" fill="#FFFAEE"/>
<path d="M242.451 561.549H235.819V554.907H242.451V561.549Z" fill="#FFFAEE"/>
<path d="M242.536 583.092H235.905V576.451H242.536V583.092Z" fill="#FFFAEE"/>
<path d="M230.632 571.185H224V564.543H230.632V571.185Z" fill="#FFFAEE"/>
</svg>
