<svg width="1080" height="1080" viewBox="0 0 1080 1080" fill="none" xmlns="http://www.w3.org/2000/svg">
<rect width="1080" height="1080" fill="#191919"/>
<path d="M556.785 346.002L556.878 334.989L565.536 334.896C568.147 334.867 569.967 332.008 570.287 329.559C570.8 325.623 570.375 321.749 570.093 317.602C572.262 316.856 574.532 316.034 576.469 314.885C578.187 313.867 578.398 312.064 577.408 310.471C574.848 305.67 572.392 301.054 570.662 295.872C570.607 287.894 568.488 280.309 563.414 274.109C554.284 262.952 538.778 259.091 525.348 264.265C517.663 267.224 512.175 272.951 509.076 280.41C502.826 295.465 506.515 309.62 516.391 322.227L517.966 340.414C518.172 342.795 521.364 344.749 523.314 345.86C532.339 350.996 547.314 351.7 556.781 346.002H556.785ZM552.738 333.463L552.713 343.655C543.579 347.503 528.481 346.661 521.844 339.429L520.421 320.726C510.941 308.982 507.004 296.073 512.967 281.777C515.422 275.895 519.549 271.287 525.508 268.625C538.386 262.868 553.787 267.061 561.713 278.704C565.305 283.982 566.269 289.772 566.72 296.073C566.892 298.455 568.198 301.327 569.255 303.436L573.534 311.955L567.608 314.009C566.61 314.353 565.886 315.275 565.949 316.424L566.492 326.155C566.577 327.685 566.126 329.316 565.528 330.872L555.791 330.855C554.09 330.855 552.738 331.274 552.734 333.467L552.738 333.463Z" fill="#FFFAEE"/>
<path d="M540.5 583C508.241 583 482 604.076 482 630C482 655.924 508.241 677 540.5 677C572.759 677 599 655.924 599 630C599 604.076 572.759 583 540.5 583ZM537.915 590.671V608.274C532.669 608.2 527.588 607.889 522.803 607.387C527.736 600.012 533.903 594.114 537.915 590.671ZM537.915 613.107V627.591H515.076C515.522 622.048 517.424 616.757 520.054 611.939C525.671 612.634 531.703 613.033 537.929 613.121L537.915 613.107ZM537.915 632.409V646.893C531.689 646.982 525.656 647.381 520.039 648.076C517.424 643.258 515.507 637.966 515.076 632.424H537.915V632.409ZM537.915 651.712V669.329C533.903 665.886 527.721 659.988 522.788 652.613C527.573 652.096 532.669 651.786 537.915 651.712ZM543.1 669.314V651.712C548.301 651.786 553.383 652.111 558.197 652.643C553.264 660.003 547.112 665.886 543.1 669.329V669.314ZM543.1 646.879V632.394H565.939C565.493 637.952 563.591 643.243 560.961 648.061C555.344 647.366 549.326 646.953 543.1 646.864V646.879ZM543.1 627.576V613.092C549.326 613.003 555.344 612.589 560.961 611.895C563.591 616.713 565.508 622.019 565.939 627.561H543.1V627.576ZM543.1 608.274V590.671C547.112 594.114 553.264 599.997 558.197 607.357C553.383 607.889 548.301 608.2 543.1 608.288V608.274ZM547.959 588.247C561.035 589.695 572.61 594.927 580.857 602.48C576.281 604.224 570.426 605.628 563.844 606.618C558.925 598.681 552.551 592.282 547.959 588.247ZM517.142 606.663C510.559 605.672 504.734 604.268 500.113 602.509C508.36 594.927 519.95 589.695 533.056 588.232C528.464 592.282 522.075 598.696 517.156 606.648L517.142 606.663ZM514.63 611.156C512.09 616.196 510.262 621.723 509.861 627.576H487.275C487.84 619.713 491.138 612.427 496.428 606.293C501.287 608.333 507.513 609.988 514.63 611.156ZM509.861 632.409C510.262 638.262 512.09 643.79 514.63 648.83C507.528 649.997 501.302 651.638 496.428 653.692C491.138 647.558 487.84 640.272 487.275 632.409H509.846H509.861ZM517.142 653.323C522.075 661.274 528.449 667.689 533.041 671.738C519.935 670.275 508.345 665.043 500.098 657.461C504.734 655.702 510.544 654.298 517.127 653.308L517.142 653.323ZM563.829 653.367C570.426 654.357 576.266 655.776 580.842 657.505C572.596 665.058 561.02 670.29 547.944 671.738C552.536 667.689 558.895 661.289 563.829 653.367ZM566.37 648.844C568.925 643.79 570.753 638.262 571.154 632.394H593.725C593.16 640.272 589.847 647.573 584.542 653.722C579.698 651.667 573.472 650.012 566.37 648.844ZM571.154 627.576C570.753 621.723 568.925 616.181 566.37 611.126C573.472 609.958 579.683 608.303 584.542 606.249C589.847 612.397 593.16 619.698 593.725 627.576H571.154Z" fill="#FFFAEE"/>
<path d="M546.548 440.556C546.548 441.552 546.422 442.458 546.17 443.274C545.93 444.078 545.558 444.774 545.054 445.362C544.562 445.95 543.932 446.4 543.164 446.712C542.408 447.024 541.52 447.18 540.5 447.18C539.888 447.18 539.324 447.12 538.808 447C538.292 446.892 537.824 446.724 537.404 446.496L536.594 447.702L535.298 446.838L536.144 445.596C535.58 445.008 535.154 444.288 534.866 443.436C534.59 442.572 534.452 441.606 534.452 440.538C534.452 439.206 534.668 438.048 535.1 437.064C535.544 436.08 536.21 435.318 537.098 434.778C537.998 434.226 539.138 433.95 540.518 433.95C541.13 433.95 541.694 434.01 542.21 434.13C542.726 434.25 543.194 434.418 543.614 434.634L544.388 433.5L545.684 434.346L544.856 435.552C545.42 436.128 545.84 436.842 546.116 437.694C546.404 438.534 546.548 439.488 546.548 440.556ZM544.118 440.556C544.118 439.944 544.064 439.386 543.956 438.882C543.86 438.378 543.71 437.94 543.506 437.568L538.592 444.75C538.844 444.906 539.126 445.026 539.438 445.11C539.762 445.182 540.116 445.218 540.5 445.218C541.352 445.218 542.042 445.032 542.57 444.66C543.098 444.288 543.488 443.754 543.74 443.058C543.992 442.362 544.118 441.528 544.118 440.556ZM536.882 440.556C536.882 441.168 536.93 441.732 537.026 442.248C537.134 442.752 537.296 443.196 537.512 443.58L542.444 436.38C542.18 436.224 541.886 436.104 541.562 436.02C541.25 435.936 540.902 435.894 540.518 435.894C539.678 435.894 538.988 436.08 538.448 436.452C537.92 436.824 537.524 437.358 537.26 438.054C537.008 438.75 536.882 439.584 536.882 440.556Z" fill="#FFFAEE"/>
<path d="M465.785 473V470.822H469.169V462.398H469.007L466.451 465.746L464.723 464.396L467.729 460.436H471.869V470.822H474.533V473H465.785ZM479.566 473.216C477.886 473.216 476.644 472.646 475.84 471.506C475.048 470.366 474.652 468.77 474.652 466.718C474.652 464.666 475.048 463.07 475.84 461.93C476.644 460.79 477.886 460.22 479.566 460.22C481.246 460.22 482.482 460.79 483.274 461.93C484.078 463.07 484.48 464.666 484.48 466.718C484.48 468.77 484.078 470.366 483.274 471.506C482.482 472.646 481.246 473.216 479.566 473.216ZM479.566 471.092C480.37 471.092 480.928 470.81 481.24 470.246C481.564 469.682 481.726 468.896 481.726 467.888V465.548C481.726 464.54 481.564 463.754 481.24 463.19C480.928 462.626 480.37 462.344 479.566 462.344C478.762 462.344 478.198 462.626 477.874 463.19C477.562 463.754 477.406 464.54 477.406 465.548V467.888C477.406 468.896 477.562 469.682 477.874 470.246C478.198 470.81 478.762 471.092 479.566 471.092ZM479.566 467.78C479.146 467.78 478.852 467.696 478.684 467.528C478.528 467.36 478.45 467.156 478.45 466.916V466.52C478.45 466.28 478.528 466.076 478.684 465.908C478.852 465.74 479.146 465.656 479.566 465.656C479.986 465.656 480.274 465.74 480.43 465.908C480.598 466.076 480.682 466.28 480.682 466.52V466.916C480.682 467.156 480.598 467.36 480.43 467.528C480.274 467.696 479.986 467.78 479.566 467.78ZM489.639 473.216C488.883 473.216 488.211 473.126 487.623 472.946C487.035 472.754 486.537 472.496 486.129 472.172C485.721 471.848 485.409 471.464 485.193 471.02C484.989 470.564 484.887 470.072 484.887 469.544C484.887 468.728 485.121 468.074 485.589 467.582C486.057 467.078 486.657 466.724 487.389 466.52V466.376C486.765 466.148 486.255 465.8 485.859 465.332C485.463 464.864 485.265 464.264 485.265 463.532C485.265 463.052 485.361 462.608 485.553 462.2C485.745 461.792 486.027 461.444 486.399 461.156C486.771 460.856 487.227 460.628 487.767 460.472C488.307 460.304 488.931 460.22 489.639 460.22C490.335 460.22 490.953 460.304 491.493 460.472C492.045 460.628 492.507 460.856 492.879 461.156C493.251 461.444 493.533 461.792 493.725 462.2C493.917 462.608 494.013 463.052 494.013 463.532C494.013 464.264 493.815 464.864 493.419 465.332C493.023 465.8 492.513 466.148 491.889 466.376V466.52C492.621 466.724 493.221 467.078 493.689 467.582C494.157 468.074 494.391 468.728 494.391 469.544C494.391 470.072 494.283 470.564 494.067 471.02C493.863 471.464 493.557 471.848 493.149 472.172C492.741 472.496 492.243 472.754 491.655 472.946C491.067 473.126 490.395 473.216 489.639 473.216ZM489.639 471.146C490.263 471.146 490.737 471.002 491.061 470.714C491.397 470.426 491.565 470.036 491.565 469.544V469.184C491.565 468.68 491.403 468.29 491.079 468.014C490.755 467.726 490.275 467.582 489.639 467.582C489.003 467.582 488.523 467.726 488.199 468.014C487.875 468.29 487.713 468.68 487.713 469.184V469.544C487.713 470.036 487.875 470.426 488.199 470.714C488.535 471.002 489.015 471.146 489.639 471.146ZM489.639 465.602C490.239 465.602 490.695 465.464 491.007 465.188C491.319 464.912 491.475 464.54 491.475 464.072V463.802C491.475 463.334 491.313 462.968 490.989 462.704C490.677 462.428 490.227 462.29 489.639 462.29C489.051 462.29 488.595 462.428 488.271 462.704C487.959 462.968 487.803 463.334 487.803 463.802V464.072C487.803 464.54 487.959 464.912 488.271 465.188C488.583 465.464 489.039 465.602 489.639 465.602ZM499.712 473.216C498.032 473.216 496.79 472.646 495.986 471.506C495.194 470.366 494.798 468.77 494.798 466.718C494.798 464.666 495.194 463.07 495.986 461.93C496.79 460.79 498.032 460.22 499.712 460.22C501.392 460.22 502.628 460.79 503.42 461.93C504.224 463.07 504.626 464.666 504.626 466.718C504.626 468.77 504.224 470.366 503.42 471.506C502.628 472.646 501.392 473.216 499.712 473.216ZM499.712 471.092C500.516 471.092 501.074 470.81 501.386 470.246C501.71 469.682 501.872 468.896 501.872 467.888V465.548C501.872 464.54 501.71 463.754 501.386 463.19C501.074 462.626 500.516 462.344 499.712 462.344C498.908 462.344 498.344 462.626 498.02 463.19C497.708 463.754 497.552 464.54 497.552 465.548V467.888C497.552 468.896 497.708 469.682 498.02 470.246C498.344 470.81 498.908 471.092 499.712 471.092ZM499.712 467.78C499.292 467.78 498.998 467.696 498.83 467.528C498.674 467.36 498.596 467.156 498.596 466.916V466.52C498.596 466.28 498.674 466.076 498.83 465.908C498.998 465.74 499.292 465.656 499.712 465.656C500.132 465.656 500.42 465.74 500.576 465.908C500.744 466.076 500.828 466.28 500.828 466.52V466.916C500.828 467.156 500.744 467.36 500.576 467.528C500.42 467.696 500.132 467.78 499.712 467.78ZM508.471 469.868H511.891L509.425 475.718H507.445L508.471 469.868ZM534.647 465.206C534.647 466.094 534.509 466.928 534.233 467.708C533.957 468.488 533.597 469.214 533.153 469.886C532.721 470.546 532.229 471.14 531.677 471.668C531.137 472.196 530.597 472.64 530.057 473H526.331C527.111 472.46 527.807 471.944 528.419 471.452C529.043 470.948 529.583 470.45 530.039 469.958C530.507 469.454 530.885 468.938 531.173 468.41C531.473 467.882 531.689 467.312 531.821 466.7L531.659 466.646C531.551 466.886 531.413 467.12 531.245 467.348C531.089 467.576 530.897 467.78 530.669 467.96C530.453 468.128 530.189 468.266 529.877 468.374C529.577 468.482 529.223 468.536 528.815 468.536C528.287 468.536 527.795 468.446 527.339 468.266C526.883 468.074 526.487 467.81 526.151 467.474C525.827 467.126 525.569 466.712 525.377 466.232C525.185 465.752 525.089 465.212 525.089 464.612C525.089 463.976 525.203 463.388 525.431 462.848C525.659 462.308 525.977 461.846 526.385 461.462C526.805 461.066 527.309 460.76 527.897 460.544C528.485 460.328 529.139 460.22 529.859 460.22C530.615 460.22 531.287 460.34 531.875 460.58C532.475 460.808 532.979 461.144 533.387 461.588C533.795 462.02 534.107 462.542 534.323 463.154C534.539 463.766 534.647 464.45 534.647 465.206ZM529.877 466.466C530.489 466.466 530.969 466.304 531.317 465.98C531.665 465.644 531.839 465.164 531.839 464.54V464.288C531.839 463.664 531.671 463.184 531.335 462.848C531.011 462.5 530.525 462.326 529.877 462.326C529.229 462.326 528.737 462.5 528.401 462.848C528.065 463.184 527.897 463.664 527.897 464.288V464.54C527.897 465.164 528.065 465.644 528.401 465.98C528.749 466.304 529.241 466.466 529.877 466.466ZM540.004 473.216C539.332 473.216 538.846 473.072 538.546 472.784C538.258 472.484 538.114 472.13 538.114 471.722V471.092C538.114 470.684 538.258 470.336 538.546 470.048C538.846 469.748 539.332 469.598 540.004 469.598C540.676 469.598 541.156 469.748 541.444 470.048C541.744 470.336 541.894 470.684 541.894 471.092V471.722C541.894 472.13 541.744 472.484 541.444 472.784C541.156 473.072 540.676 473.216 540.004 473.216ZM540.004 467.114C539.332 467.114 538.846 466.97 538.546 466.682C538.258 466.382 538.114 466.028 538.114 465.62V464.99C538.114 464.582 538.258 464.234 538.546 463.946C538.846 463.646 539.332 463.496 540.004 463.496C540.676 463.496 541.156 463.646 541.444 463.946C541.744 464.234 541.894 464.582 541.894 464.99V465.62C541.894 466.028 541.744 466.382 541.444 466.682C541.156 466.97 540.676 467.114 540.004 467.114ZM546.368 473V470.822H549.752V462.398H549.59L547.034 465.746L545.306 464.396L548.312 460.436H552.452V470.822H555.116V473H546.368ZM560.221 473.216C559.465 473.216 558.787 473.102 558.187 472.874C557.599 472.634 557.101 472.298 556.693 471.866C556.285 471.422 555.973 470.894 555.757 470.282C555.541 469.67 555.433 468.986 555.433 468.23C555.433 467.354 555.571 466.526 555.847 465.746C556.123 464.954 556.477 464.228 556.909 463.568C557.353 462.896 557.845 462.296 558.385 461.768C558.937 461.24 559.483 460.796 560.023 460.436H563.749C562.969 460.976 562.267 461.498 561.643 462.002C561.031 462.494 560.491 462.992 560.023 463.496C559.567 463.988 559.189 464.498 558.889 465.026C558.601 465.554 558.391 466.124 558.259 466.736L558.421 466.79C558.529 466.55 558.661 466.316 558.817 466.088C558.973 465.86 559.165 465.662 559.393 465.494C559.621 465.314 559.885 465.17 560.185 465.062C560.497 464.954 560.857 464.9 561.265 464.9C561.793 464.9 562.285 464.996 562.741 465.188C563.197 465.368 563.587 465.632 563.911 465.98C564.247 466.316 564.511 466.724 564.703 467.204C564.895 467.684 564.991 468.224 564.991 468.824C564.991 469.46 564.877 470.048 564.649 470.588C564.421 471.128 564.097 471.596 563.677 471.992C563.269 472.376 562.771 472.676 562.183 472.892C561.595 473.108 560.941 473.216 560.221 473.216ZM560.203 471.11C560.851 471.11 561.343 470.942 561.679 470.606C562.015 470.258 562.183 469.772 562.183 469.148V468.896C562.183 468.272 562.009 467.798 561.661 467.474C561.325 467.138 560.839 466.97 560.203 466.97C559.591 466.97 559.111 467.138 558.763 467.474C558.415 467.798 558.241 468.272 558.241 468.896V469.148C558.241 469.772 558.403 470.258 558.727 470.606C559.063 470.942 559.555 471.11 560.203 471.11ZM568.908 469.868H572.328L569.862 475.718H567.882L568.908 469.868ZM586.66 473V470.822H590.044V462.398H589.882L587.326 465.746L585.598 464.396L588.604 460.436H592.744V470.822H595.408V473H586.66ZM605.679 473H602.601L601.305 470.498L600.423 468.518H600.261L599.361 470.498L598.029 473H595.203L598.731 466.502L595.437 460.436H598.515L599.541 462.434L600.459 464.45H600.603L601.539 462.434L602.619 460.436H605.445L602.151 466.538L605.679 473ZM606.806 473V470.822H610.19V462.398H610.028L607.472 465.746L605.744 464.396L608.75 460.436H612.89V470.822H615.554V473H606.806Z" fill="#FFFAEE"/>
<path d="M530.629 488.712H533.293V490.404H533.419C533.647 489.852 533.977 489.396 534.409 489.036C534.841 488.676 535.429 488.496 536.173 488.496C536.689 488.496 537.157 488.592 537.577 488.784C538.009 488.976 538.375 489.27 538.675 489.666C538.987 490.062 539.227 490.566 539.395 491.178C539.575 491.79 539.665 492.516 539.665 493.356C539.665 494.196 539.575 494.922 539.395 495.534C539.227 496.146 538.987 496.65 538.675 497.046C538.375 497.442 538.009 497.736 537.577 497.928C537.157 498.12 536.689 498.216 536.173 498.216C535.429 498.216 534.841 498.042 534.409 497.694C533.977 497.334 533.647 496.872 533.419 496.308H533.293V501.6H530.629V488.712ZM535.021 496.146C535.621 496.146 536.083 495.966 536.407 495.606C536.731 495.234 536.893 494.724 536.893 494.076V492.636C536.893 491.988 536.731 491.484 536.407 491.124C536.083 490.752 535.621 490.566 535.021 490.566C534.553 490.566 534.145 490.68 533.797 490.908C533.461 491.136 533.293 491.496 533.293 491.988V494.724C533.293 495.216 533.461 495.576 533.797 495.804C534.145 496.032 534.553 496.146 535.021 496.146ZM540.054 498L543.528 493.284L540.288 488.712H543.33L544.32 490.206L545.076 491.412H545.22L545.994 490.206L547.002 488.712H549.792L546.552 493.14L550.026 498H546.966L545.796 496.254L544.986 495.012H544.842L544.05 496.254L542.862 498H540.054Z" fill="#FFFAEE"/>
<path d="M479.096 761.68H481.058L480.032 767.548H476.612L479.096 761.68ZM483.74 761.68H485.702L484.676 767.548H481.256L483.74 761.68ZM488.845 762.436H492.895C494.587 762.436 495.841 762.976 496.657 764.056C497.473 765.136 497.881 766.69 497.881 768.718C497.881 770.746 497.473 772.3 496.657 773.38C495.841 774.46 494.587 775 492.895 775H488.845V762.436ZM492.715 772.876C493.519 772.876 494.107 772.618 494.479 772.102C494.851 771.586 495.037 770.836 495.037 769.852V767.566C495.037 766.594 494.851 765.85 494.479 765.334C494.107 764.818 493.519 764.56 492.715 764.56H491.509V772.876H492.715ZM504.588 775.216C503.532 775.216 502.614 775.042 501.834 774.694C501.054 774.346 500.424 773.872 499.944 773.272L501.51 771.544C501.966 772.048 502.464 772.42 503.004 772.66C503.556 772.9 504.114 773.02 504.678 773.02C505.326 773.02 505.818 772.876 506.154 772.588C506.49 772.3 506.658 771.886 506.658 771.346C506.658 770.902 506.526 770.566 506.262 770.338C506.01 770.11 505.578 769.948 504.966 769.852L503.652 769.636C502.524 769.444 501.708 769.03 501.204 768.394C500.7 767.746 500.448 766.96 500.448 766.036C500.448 764.824 500.844 763.888 501.636 763.228C502.428 762.556 503.538 762.22 504.966 762.22C505.938 762.22 506.784 762.37 507.504 762.67C508.224 762.97 508.806 763.378 509.25 763.894L507.72 765.604C507.384 765.232 506.988 764.944 506.532 764.74C506.076 764.524 505.56 764.416 504.984 764.416C503.772 764.416 503.166 764.914 503.166 765.91C503.166 766.342 503.298 766.666 503.562 766.882C503.838 767.098 504.282 767.26 504.894 767.368L506.208 767.602C507.228 767.782 508.014 768.166 508.566 768.754C509.118 769.342 509.394 770.134 509.394 771.13C509.394 771.718 509.292 772.264 509.088 772.768C508.884 773.26 508.578 773.692 508.17 774.064C507.762 774.424 507.258 774.706 506.658 774.91C506.07 775.114 505.38 775.216 504.588 775.216ZM518.477 773.218H518.315C518.207 773.482 518.075 773.734 517.919 773.974C517.763 774.214 517.571 774.43 517.343 774.622C517.115 774.802 516.845 774.946 516.533 775.054C516.233 775.162 515.891 775.216 515.507 775.216C514.895 775.216 514.349 775.072 513.869 774.784C513.401 774.496 513.005 774.076 512.681 773.524C512.357 772.972 512.111 772.3 511.943 771.508C511.787 770.716 511.709 769.822 511.709 768.826C511.709 766.69 512.099 765.058 512.879 763.93C513.659 762.79 514.865 762.22 516.497 762.22C517.145 762.22 517.715 762.31 518.207 762.49C518.699 762.658 519.119 762.904 519.467 763.228C519.827 763.54 520.121 763.918 520.349 764.362C520.577 764.806 520.757 765.298 520.889 765.838L518.369 766.45C518.297 766.186 518.213 765.934 518.117 765.694C518.033 765.442 517.919 765.22 517.775 765.028C517.631 764.836 517.451 764.686 517.235 764.578C517.019 764.458 516.755 764.398 516.443 764.398C515.759 764.398 515.273 764.68 514.985 765.244C514.709 765.808 514.571 766.6 514.571 767.62V769.672C514.571 770.692 514.721 771.508 515.021 772.12C515.333 772.732 515.879 773.038 516.659 773.038C517.271 773.038 517.727 772.858 518.027 772.498C518.327 772.138 518.477 771.676 518.477 771.112V770.194H516.335V768.286H520.889V775H518.477V773.218ZM526.372 766.648H526.174V775H523.87V762.436H527.11L529.972 770.788H530.17V762.436H532.474V775H529.234L526.372 766.648ZM547.31 762.436H551.36C553.052 762.436 554.306 762.976 555.122 764.056C555.938 765.136 556.346 766.69 556.346 768.718C556.346 770.746 555.938 772.3 555.122 773.38C554.306 774.46 553.052 775 551.36 775H547.31V762.436ZM551.18 772.876C551.984 772.876 552.572 772.618 552.944 772.102C553.316 771.586 553.502 770.836 553.502 769.852V767.566C553.502 766.594 553.316 765.85 552.944 765.334C552.572 764.818 551.984 764.56 551.18 764.56H549.974V772.876H551.18ZM559.291 775V762.436H567.319V764.65H561.991V767.53H567.139V769.744H561.991V772.786H567.319V775H559.291ZM570.912 775V762.436H575.772C576.384 762.436 576.93 762.532 577.41 762.724C577.89 762.904 578.292 763.168 578.616 763.516C578.952 763.864 579.204 764.284 579.372 764.776C579.54 765.268 579.624 765.82 579.624 766.432C579.624 767.044 579.54 767.596 579.372 768.088C579.204 768.58 578.952 769 578.616 769.348C578.292 769.696 577.89 769.966 577.41 770.158C576.93 770.338 576.384 770.428 575.772 770.428H573.63V775H570.912ZM573.63 768.25H575.088C575.724 768.25 576.162 768.13 576.402 767.89C576.654 767.65 576.78 767.254 576.78 766.702V766.162C576.78 765.61 576.654 765.214 576.402 764.974C576.162 764.734 575.724 764.614 575.088 764.614H573.63V768.25ZM587.987 764.65V775H585.287V764.65H581.669V762.436H591.605V764.65H587.987ZM595.09 761.68H598.51L596.026 767.548H594.064L595.09 761.68ZM599.734 761.68H603.154L600.67 767.548H598.708L599.734 761.68Z" fill="#FFFAEE"/>
<path d="M519.4 801.676C518.644 801.676 517.936 801.538 517.276 801.262C516.628 800.986 516.058 800.59 515.566 800.074C515.086 799.558 514.702 798.934 514.414 798.202C514.138 797.47 514 796.642 514 795.718C514 794.806 514.138 793.984 514.414 793.252C514.702 792.508 515.086 791.878 515.566 791.362C516.058 790.846 516.628 790.45 517.276 790.174C517.936 789.898 518.644 789.76 519.4 789.76C520.156 789.76 520.858 789.898 521.506 790.174C522.166 790.45 522.736 790.846 523.216 791.362C523.708 791.878 524.092 792.508 524.368 793.252C524.656 793.984 524.8 794.806 524.8 795.718C524.8 796.642 524.656 797.47 524.368 798.202C524.092 798.934 523.708 799.558 523.216 800.074C522.736 800.59 522.166 800.986 521.506 801.262C520.858 801.538 520.156 801.676 519.4 801.676ZM519.4 800.686C520.012 800.686 520.576 800.572 521.092 800.344C521.62 800.116 522.07 799.804 522.442 799.408C522.826 799 523.126 798.526 523.342 797.986C523.558 797.446 523.666 796.87 523.666 796.258V795.178C523.666 794.566 523.558 793.99 523.342 793.45C523.126 792.91 522.826 792.442 522.442 792.046C522.07 791.638 521.62 791.32 521.092 791.092C520.576 790.864 520.012 790.75 519.4 790.75C518.788 790.75 518.218 790.864 517.69 791.092C517.174 791.32 516.724 791.638 516.34 792.046C515.968 792.442 515.674 792.91 515.458 793.45C515.242 793.99 515.134 794.566 515.134 795.178V796.258C515.134 796.87 515.242 797.446 515.458 797.986C515.674 798.526 515.968 799 516.34 799.408C516.724 799.804 517.174 800.116 517.69 800.344C518.218 800.572 518.788 800.686 519.4 800.686ZM519.562 799.246C519.058 799.246 518.602 799.162 518.194 798.994C517.786 798.826 517.438 798.592 517.15 798.292C516.862 797.98 516.64 797.608 516.484 797.176C516.328 796.744 516.25 796.264 516.25 795.736C516.25 795.196 516.328 794.71 516.484 794.278C516.652 793.834 516.88 793.462 517.168 793.162C517.468 792.85 517.816 792.61 518.212 792.442C518.62 792.274 519.07 792.19 519.562 792.19C520.306 792.19 520.9 792.364 521.344 792.712C521.788 793.048 522.118 793.486 522.334 794.026L520.804 794.8C520.684 794.524 520.528 794.302 520.336 794.134C520.156 793.954 519.91 793.864 519.598 793.864C519.238 793.864 518.956 793.978 518.752 794.206C518.548 794.422 518.446 794.704 518.446 795.052V796.366C518.446 796.714 518.548 797.002 518.752 797.23C518.956 797.458 519.244 797.572 519.616 797.572C519.952 797.572 520.216 797.482 520.408 797.302C520.612 797.122 520.78 796.9 520.912 796.636L522.442 797.41C522.334 797.65 522.202 797.884 522.046 798.112C521.89 798.328 521.692 798.52 521.452 798.688C521.224 798.856 520.954 798.994 520.642 799.102C520.33 799.198 519.97 799.246 519.562 799.246ZM534.063 802H525.027V799.534L528.987 796.24C529.671 795.652 530.163 795.142 530.463 794.71C530.763 794.278 530.913 793.822 530.913 793.342V793.162C530.913 792.634 530.757 792.238 530.445 791.974C530.133 791.698 529.713 791.56 529.185 791.56C528.585 791.56 528.123 791.734 527.799 792.082C527.475 792.43 527.247 792.844 527.115 793.324L524.757 792.424C524.901 791.992 525.099 791.584 525.351 791.2C525.603 790.804 525.921 790.462 526.305 790.174C526.701 789.886 527.157 789.658 527.673 789.49C528.189 789.31 528.783 789.22 529.455 789.22C530.139 789.22 530.751 789.316 531.291 789.508C531.831 789.7 532.287 789.964 532.659 790.3C533.031 790.636 533.313 791.038 533.505 791.506C533.697 791.962 533.793 792.46 533.793 793C533.793 793.528 533.703 794.014 533.523 794.458C533.355 794.89 533.115 795.298 532.803 795.682C532.503 796.066 532.143 796.438 531.723 796.798C531.315 797.158 530.877 797.518 530.409 797.878L528.015 799.732H534.063V802ZM539.546 802.216C537.866 802.216 536.624 801.646 535.82 800.506C535.028 799.366 534.632 797.77 534.632 795.718C534.632 793.666 535.028 792.07 535.82 790.93C536.624 789.79 537.866 789.22 539.546 789.22C541.226 789.22 542.462 789.79 543.254 790.93C544.058 792.07 544.46 793.666 544.46 795.718C544.46 797.77 544.058 799.366 543.254 800.506C542.462 801.646 541.226 802.216 539.546 802.216ZM539.546 800.092C540.35 800.092 540.908 799.81 541.22 799.246C541.544 798.682 541.706 797.896 541.706 796.888V794.548C541.706 793.54 541.544 792.754 541.22 792.19C540.908 791.626 540.35 791.344 539.546 791.344C538.742 791.344 538.178 791.626 537.854 792.19C537.542 792.754 537.386 793.54 537.386 794.548V796.888C537.386 797.896 537.542 798.682 537.854 799.246C538.178 799.81 538.742 800.092 539.546 800.092ZM539.546 796.78C539.126 796.78 538.832 796.696 538.664 796.528C538.508 796.36 538.43 796.156 538.43 795.916V795.52C538.43 795.28 538.508 795.076 538.664 794.908C538.832 794.74 539.126 794.656 539.546 794.656C539.966 794.656 540.254 794.74 540.41 794.908C540.578 795.076 540.662 795.28 540.662 795.52V795.916C540.662 796.156 540.578 796.36 540.41 796.528C540.254 796.696 539.966 796.78 539.546 796.78ZM554.209 802H545.173V799.534L549.133 796.24C549.817 795.652 550.309 795.142 550.609 794.71C550.909 794.278 551.059 793.822 551.059 793.342V793.162C551.059 792.634 550.903 792.238 550.591 791.974C550.279 791.698 549.859 791.56 549.331 791.56C548.731 791.56 548.269 791.734 547.945 792.082C547.621 792.43 547.393 792.844 547.261 793.324L544.903 792.424C545.047 791.992 545.245 791.584 545.497 791.2C545.749 790.804 546.067 790.462 546.451 790.174C546.847 789.886 547.303 789.658 547.819 789.49C548.335 789.31 548.929 789.22 549.601 789.22C550.285 789.22 550.897 789.316 551.437 789.508C551.977 789.7 552.433 789.964 552.805 790.3C553.177 790.636 553.459 791.038 553.651 791.506C553.843 791.962 553.939 792.46 553.939 793C553.939 793.528 553.849 794.014 553.669 794.458C553.501 794.89 553.261 795.298 552.949 795.682C552.649 796.066 552.289 796.438 551.869 796.798C551.461 797.158 551.023 797.518 550.555 797.878L548.161 799.732H554.209V802ZM559.764 802.216C559.008 802.216 558.33 802.102 557.73 801.874C557.142 801.634 556.644 801.298 556.236 800.866C555.828 800.422 555.516 799.894 555.3 799.282C555.084 798.67 554.976 797.986 554.976 797.23C554.976 796.354 555.114 795.526 555.39 794.746C555.666 793.954 556.02 793.228 556.452 792.568C556.896 791.896 557.388 791.296 557.928 790.768C558.48 790.24 559.026 789.796 559.566 789.436H563.292C562.512 789.976 561.81 790.498 561.186 791.002C560.574 791.494 560.034 791.992 559.566 792.496C559.11 792.988 558.732 793.498 558.432 794.026C558.144 794.554 557.934 795.124 557.802 795.736L557.964 795.79C558.072 795.55 558.204 795.316 558.36 795.088C558.516 794.86 558.708 794.662 558.936 794.494C559.164 794.314 559.428 794.17 559.728 794.062C560.04 793.954 560.4 793.9 560.808 793.9C561.336 793.9 561.828 793.996 562.284 794.188C562.74 794.368 563.13 794.632 563.454 794.98C563.79 795.316 564.054 795.724 564.246 796.204C564.438 796.684 564.534 797.224 564.534 797.824C564.534 798.46 564.42 799.048 564.192 799.588C563.964 800.128 563.64 800.596 563.22 800.992C562.812 801.376 562.314 801.676 561.726 801.892C561.138 802.108 560.484 802.216 559.764 802.216ZM559.746 800.11C560.394 800.11 560.886 799.942 561.222 799.606C561.558 799.258 561.726 798.772 561.726 798.148V797.896C561.726 797.272 561.552 796.798 561.204 796.474C560.868 796.138 560.382 795.97 559.746 795.97C559.134 795.97 558.654 796.138 558.306 796.474C557.958 796.798 557.784 797.272 557.784 797.896V798.148C557.784 798.772 557.946 799.258 558.27 799.606C558.606 799.942 559.098 800.11 559.746 800.11Z" fill="#FFFAEE"/>
</svg>
