<svg width="1080" height="1080" viewBox="0 0 1080 1080" fill="none" xmlns="http://www.w3.org/2000/svg">
<rect width="1080" height="1080" fill="#191919"/>
<path d="M555.301 501.371C552.998 501.371 551.128 500.839 549.692 499.774C548.255 498.709 547.215 497.174 546.571 495.168C545.928 493.137 545.606 490.698 545.606 487.85C545.606 484.978 545.94 482.551 546.609 480.57C547.277 478.564 548.33 477.029 549.766 475.964C551.202 474.899 553.047 474.366 555.301 474.366C557.604 474.366 559.473 474.899 560.91 475.964C562.346 477.029 563.399 478.564 564.067 480.57C564.736 482.551 565.07 484.978 565.07 487.85C565.07 490.723 564.736 493.162 564.067 495.168C563.399 497.174 562.346 498.709 560.91 499.774C559.498 500.839 557.629 501.371 555.301 501.371ZM555.301 497.471C557.133 497.471 558.458 496.741 559.275 495.28C560.117 493.794 560.538 491.317 560.538 487.85C560.538 484.383 560.117 481.919 559.275 480.458C558.458 478.997 557.133 478.267 555.301 478.267C553.518 478.267 552.205 478.997 551.363 480.458C550.546 481.919 550.137 484.383 550.137 487.85C550.137 491.317 550.546 493.794 551.363 495.28C552.18 496.741 553.493 497.471 555.301 497.471ZM576.56 501.371C574.256 501.371 572.387 500.839 570.95 499.774C569.514 498.709 568.474 497.174 567.83 495.168C567.186 493.137 566.864 490.698 566.864 487.85C566.864 484.978 567.199 482.551 567.867 480.57C568.536 478.564 569.588 477.029 571.025 475.964C572.461 474.899 574.306 474.366 576.56 474.366C578.863 474.366 580.732 474.899 582.169 475.964C583.605 477.029 584.657 478.564 585.326 480.57C585.995 482.551 586.329 484.978 586.329 487.85C586.329 490.723 585.995 493.162 585.326 495.168C584.657 497.174 583.605 498.709 582.169 499.774C580.757 500.839 578.887 501.371 576.56 501.371ZM576.56 497.471C578.392 497.471 579.717 496.741 580.534 495.28C581.376 493.794 581.797 491.317 581.797 487.85C581.797 484.383 581.376 481.919 580.534 480.458C579.717 478.997 578.392 478.267 576.56 478.267C574.776 478.267 573.464 478.997 572.622 480.458C571.805 481.919 571.396 484.383 571.396 487.85C571.396 491.317 571.805 493.794 572.622 495.28C573.439 496.741 574.752 497.471 576.56 497.471ZM598.895 501H594.289V477.152L598.004 477.19L588.012 483.764V479.121L594.698 474.738H598.895V501Z" fill="#FFFAEE"/>
<path d="M785.54 472.258H788.402C789.597 472.258 790.484 472.64 791.06 473.403C791.637 474.166 791.925 475.265 791.925 476.698C791.925 478.131 791.637 479.229 791.06 479.992C790.484 480.756 789.597 481.137 788.402 481.137H785.54V472.258ZM788.275 479.636C788.843 479.636 789.258 479.454 789.521 479.089C789.784 478.725 789.915 478.195 789.915 477.499V475.884C789.915 475.197 789.784 474.671 789.521 474.306C789.258 473.942 788.843 473.759 788.275 473.759H787.422V479.636H788.275ZM796.665 481.29C795.919 481.29 795.27 481.167 794.719 480.921C794.168 480.675 793.722 480.34 793.383 479.916L794.49 478.695C794.812 479.051 795.164 479.314 795.546 479.484C795.936 479.653 796.33 479.738 796.729 479.738C797.187 479.738 797.534 479.636 797.772 479.433C798.009 479.229 798.128 478.937 798.128 478.555C798.128 478.241 798.035 478.004 797.848 477.843C797.67 477.681 797.365 477.567 796.932 477.499L796.004 477.346C795.207 477.211 794.63 476.918 794.274 476.469C793.918 476.011 793.739 475.455 793.739 474.802C793.739 473.946 794.019 473.284 794.579 472.818C795.139 472.343 795.923 472.106 796.932 472.106C797.619 472.106 798.217 472.212 798.726 472.424C799.235 472.636 799.646 472.924 799.96 473.289L798.879 474.497C798.641 474.234 798.361 474.031 798.039 473.886C797.717 473.734 797.352 473.657 796.945 473.657C796.088 473.657 795.66 474.009 795.66 474.713C795.66 475.019 795.754 475.248 795.94 475.4C796.135 475.553 796.449 475.667 796.881 475.744L797.81 475.909C798.531 476.036 799.086 476.308 799.476 476.723C799.867 477.139 800.062 477.698 800.062 478.402C800.062 478.818 799.989 479.204 799.845 479.56C799.701 479.908 799.485 480.213 799.197 480.476C798.908 480.73 798.552 480.929 798.128 481.074C797.712 481.218 797.225 481.29 796.665 481.29ZM806.481 479.878H806.366C806.29 480.064 806.196 480.243 806.086 480.412C805.976 480.582 805.84 480.734 805.679 480.87C805.518 480.997 805.327 481.099 805.107 481.175C804.895 481.252 804.653 481.29 804.382 481.29C803.949 481.29 803.563 481.188 803.224 480.985C802.893 480.781 802.613 480.484 802.384 480.094C802.156 479.704 801.982 479.229 801.863 478.669C801.753 478.11 801.698 477.478 801.698 476.774C801.698 475.265 801.973 474.111 802.524 473.314C803.076 472.508 803.928 472.106 805.081 472.106C805.539 472.106 805.942 472.169 806.29 472.296C806.637 472.415 806.934 472.589 807.18 472.818C807.435 473.038 807.642 473.306 807.803 473.619C807.965 473.933 808.092 474.281 808.185 474.662L806.404 475.095C806.353 474.908 806.294 474.73 806.226 474.561C806.167 474.383 806.086 474.226 805.984 474.09C805.883 473.954 805.755 473.848 805.603 473.772C805.45 473.687 805.264 473.645 805.043 473.645C804.56 473.645 804.216 473.844 804.013 474.243C803.818 474.641 803.72 475.201 803.72 475.922V477.372C803.72 478.093 803.826 478.669 804.038 479.102C804.259 479.534 804.645 479.751 805.196 479.751C805.628 479.751 805.95 479.623 806.163 479.369C806.375 479.115 806.481 478.788 806.481 478.39V477.741H804.967V476.392H808.185V481.137H806.481V479.878ZM812.06 475.235H811.92V481.137H810.292V472.258H812.581L814.604 478.161H814.744V472.258H816.372V481.137H814.082L812.06 475.235ZM785.54 489.258H788.402C789.597 489.258 790.484 489.64 791.06 490.403C791.637 491.166 791.925 492.265 791.925 493.698C791.925 495.131 791.637 496.229 791.06 496.992C790.484 497.756 789.597 498.137 788.402 498.137H785.54V489.258ZM788.275 496.636C788.843 496.636 789.258 496.454 789.521 496.089C789.784 495.725 789.915 495.195 789.915 494.499V492.884C789.915 492.197 789.784 491.671 789.521 491.306C789.258 490.942 788.843 490.759 788.275 490.759H787.422V496.636H788.275ZM794.007 498.137V489.258H799.68V490.823H795.915V492.858H799.553V494.423H795.915V496.573H799.68V498.137H794.007ZM802.219 498.137V489.258H805.654C806.086 489.258 806.472 489.326 806.811 489.462C807.15 489.589 807.435 489.776 807.664 490.021C807.901 490.267 808.079 490.564 808.198 490.912C808.317 491.26 808.376 491.65 808.376 492.082C808.376 492.515 808.317 492.905 808.198 493.252C808.079 493.6 807.901 493.897 807.664 494.143C807.435 494.389 807.15 494.58 806.811 494.715C806.472 494.843 806.086 494.906 805.654 494.906H804.14V498.137H802.219ZM804.14 493.367H805.17C805.62 493.367 805.929 493.282 806.099 493.113C806.277 492.943 806.366 492.663 806.366 492.273V491.891C806.366 491.501 806.277 491.221 806.099 491.052C805.929 490.882 805.62 490.797 805.17 490.797H804.14V493.367ZM814.286 490.823V498.137H812.378V490.823H809.821V489.258H816.843V490.823H814.286Z" fill="#FFFAEE"/>
<path d="M220.889 496.752C220.889 493.05 221.534 489.779 222.826 486.938C224.117 484.097 225.839 481.729 227.991 479.836C230.057 478.028 232.382 476.65 234.964 475.703C237.633 474.756 240.302 474.283 242.97 474.283C245.639 474.283 248.265 474.756 250.848 475.703C253.516 476.65 255.927 478.028 258.079 479.836C260.145 481.729 261.824 484.097 263.115 486.938C264.406 489.779 265.052 493.05 265.052 496.752V501.401H251.881V496.752C251.881 493.567 250.977 491.242 249.169 489.779C247.447 488.229 245.381 487.454 242.97 487.454C240.56 487.454 238.451 488.229 236.643 489.779C234.921 491.242 234.06 493.567 234.06 496.752V545.306C234.06 548.491 234.921 550.858 236.643 552.408C238.451 553.872 240.56 554.603 242.97 554.603C245.381 554.603 247.447 553.872 249.169 552.408C250.977 550.858 251.881 548.491 251.881 545.306V528.002H241.421V516.38H265.052V545.306C265.052 549.18 264.406 552.494 263.115 555.249C261.824 558.004 260.145 560.285 258.079 562.093C255.927 563.987 253.516 565.407 250.848 566.354C248.265 567.301 245.639 567.775 242.97 567.775C240.302 567.775 237.633 567.301 234.964 566.354C232.382 565.407 230.057 563.987 227.991 562.093C225.839 560.285 224.117 558.004 222.826 555.249C221.534 552.494 220.889 549.18 220.889 545.306V496.752ZM284.652 487.454V516.122H292.142C294.466 516.122 296.317 515.82 297.694 515.218C299.072 514.529 300.148 513.582 300.923 512.377C301.611 511.172 302.085 509.708 302.343 507.986C302.601 506.179 302.731 504.112 302.731 501.788C302.731 499.464 302.601 497.441 302.343 495.719C302.085 493.911 301.568 492.361 300.794 491.07C299.158 488.66 296.059 487.454 291.496 487.454H284.652ZM271.48 567V475.058H292.658C308.154 475.058 315.902 484.054 315.902 502.046C315.902 507.47 315.041 512.076 313.319 515.864C311.684 519.651 308.757 522.708 304.538 525.032L318.743 567H304.797L292.529 527.744H284.652V567H271.48ZM347.899 534.846L341.442 501.53H341.184L334.727 534.846H347.899ZM315.357 567L335.889 475.058H346.866L367.398 567H354.226L350.352 547.243H332.403L328.529 567H315.357ZM368.718 567V475.058H388.476C392.091 475.058 395.277 475.531 398.031 476.478C400.786 477.425 403.283 479.104 405.521 481.514C407.759 483.925 409.309 486.766 410.17 490.037C411.031 493.222 411.461 497.57 411.461 503.079C411.461 507.212 411.203 510.698 410.686 513.539C410.256 516.38 409.266 519.049 407.716 521.545C405.908 524.558 403.498 526.926 400.485 528.648C397.472 530.283 393.512 531.101 388.605 531.101H381.89V567H368.718ZM381.89 487.454V518.704H388.217C390.886 518.704 392.952 518.317 394.416 517.542C395.879 516.767 396.955 515.691 397.644 514.314C398.333 513.023 398.72 511.43 398.806 509.536C398.978 507.642 399.064 505.533 399.064 503.209C399.064 501.056 399.021 499.033 398.935 497.139C398.849 495.159 398.462 493.437 397.773 491.974C397.084 490.51 396.051 489.391 394.674 488.617C393.297 487.842 391.316 487.454 388.734 487.454H381.89ZM416.139 567V475.058H429.311V514.443H445.581V475.058H458.753V567H445.581V526.065H429.311V567H416.139ZM466.343 567V475.058H479.515V567H466.343ZM528.986 540.786V546.468C528.986 549.309 528.426 552.021 527.307 554.603C526.274 557.1 524.811 559.338 522.917 561.318C521.023 563.298 518.784 564.891 516.202 566.096C513.705 567.215 510.993 567.775 508.066 567.775C505.57 567.775 503.03 567.43 500.448 566.742C497.865 566.053 495.541 564.848 493.474 563.126C491.408 561.404 489.687 559.209 488.309 556.54C487.018 553.785 486.372 550.299 486.372 546.081V495.461C486.372 492.447 486.889 489.65 487.922 487.067C488.955 484.484 490.418 482.246 492.312 480.352C494.206 478.458 496.445 476.995 499.027 475.962C501.696 474.842 504.623 474.283 507.808 474.283C514.007 474.283 519.043 476.306 522.917 480.352C524.811 482.332 526.274 484.7 527.307 487.454C528.426 490.123 528.986 493.05 528.986 496.235V501.401H515.814V497.01C515.814 494.428 515.083 492.189 513.619 490.295C512.156 488.401 510.176 487.454 507.679 487.454C504.408 487.454 502.212 488.487 501.093 490.554C500.06 492.534 499.544 495.073 499.544 498.172V545.177C499.544 547.845 500.103 550.084 501.222 551.891C502.428 553.699 504.537 554.603 507.55 554.603C508.411 554.603 509.315 554.474 510.262 554.216C511.295 553.872 512.242 553.355 513.103 552.666C513.877 551.978 514.523 551.031 515.04 549.825C515.556 548.62 515.814 547.114 515.814 545.306V540.786H528.986Z" fill="#FFFAEE"/>
<path d="M681.445 470.825H704.252C706.256 470.825 707.887 472.456 707.887 474.461V497.267C707.887 499.272 706.256 500.903 704.252 500.903H681.445C679.44 500.903 677.81 499.272 677.81 497.267V474.461C677.81 472.456 679.441 470.825 681.445 470.825H681.445ZM704.252 472.885H681.445C680.576 472.885 679.869 473.592 679.869 474.461V481.438H694.978L688.645 475.552H691.672L699.108 482.465L692.527 488.585H705.828V474.461C705.828 473.592 705.121 472.885 704.252 472.885ZM681.445 498.843H704.252C705.121 498.843 705.828 498.136 705.828 497.268V490.645H692.416L698.748 496.53H695.721L688.285 489.617L694.866 483.497H679.869V497.267C679.869 498.136 680.576 498.843 681.445 498.843L681.445 498.843Z" fill="#FFFAEE"/>
<path d="M638.206 470.258C627.812 470.258 619.357 477.085 619.357 485.482C619.357 493.88 627.812 500.707 638.206 500.707C648.6 500.707 657.055 493.88 657.055 485.482C657.055 477.085 648.6 470.258 638.206 470.258ZM637.373 472.743V478.445C635.683 478.421 634.046 478.32 632.504 478.157C634.093 475.768 636.08 473.858 637.373 472.743ZM637.373 480.01V484.702H630.014C630.158 482.907 630.771 481.193 631.618 479.632C633.428 479.857 635.372 479.986 637.378 480.015L637.373 480.01ZM637.373 486.263V490.955C635.367 490.983 633.423 491.113 631.613 491.338C630.771 489.777 630.153 488.063 630.014 486.268H637.373V486.263ZM637.373 492.515V498.222C636.08 497.107 634.089 495.196 632.499 492.807C634.041 492.64 635.683 492.539 637.373 492.515ZM639.044 498.217V492.515C640.719 492.539 642.357 492.645 643.908 492.817C642.319 495.201 640.336 497.107 639.044 498.222V498.217ZM639.044 490.95V486.258H646.402C646.259 488.058 645.646 489.772 644.799 491.333C642.989 491.108 641.05 490.974 639.044 490.945V490.95ZM639.044 484.697V480.005C641.05 479.977 642.989 479.843 644.799 479.618C645.646 481.178 646.264 482.897 646.402 484.692H639.044V484.697ZM639.044 478.445V472.743C640.336 473.858 642.319 475.764 643.908 478.148C642.357 478.32 640.719 478.421 639.044 478.449V478.445ZM640.609 471.957C644.822 472.427 648.552 474.121 651.209 476.568C649.735 477.133 647.848 477.588 645.727 477.908C644.143 475.337 642.089 473.264 640.609 471.957ZM630.68 477.923C628.559 477.602 626.682 477.147 625.193 476.577C627.85 474.121 631.585 472.427 635.807 471.953C634.328 473.264 632.269 475.342 630.685 477.918L630.68 477.923ZM629.871 479.378C629.052 481.011 628.463 482.801 628.334 484.697H621.057C621.239 482.15 622.302 479.79 624.006 477.803C625.571 478.464 627.577 479 629.871 479.378ZM628.334 486.263C628.463 488.159 629.052 489.949 629.871 491.582C627.582 491.96 625.576 492.491 624.006 493.157C622.302 491.17 621.239 488.81 621.057 486.263H628.329H628.334ZM630.68 493.037C632.269 495.613 634.323 497.691 635.803 499.003C631.58 498.529 627.846 496.834 625.188 494.378C626.682 493.808 628.554 493.353 630.675 493.032L630.68 493.037ZM645.723 493.052C647.848 493.372 649.73 493.832 651.204 494.392C648.547 496.839 644.818 498.533 640.605 499.003C642.084 497.691 644.133 495.618 645.723 493.052ZM646.541 491.587C647.365 489.949 647.954 488.159 648.083 486.258H655.355C655.173 488.81 654.106 491.175 652.396 493.167C650.836 492.501 648.83 491.965 646.541 491.587ZM648.083 484.697C647.954 482.801 647.365 481.006 646.541 479.369C648.83 478.99 650.831 478.454 652.396 477.789C654.106 479.78 655.173 482.145 655.355 484.697H648.083Z" fill="#FFFAEE"/>
<path d="M748.754 500.025C737.483 500.025 728.317 493.347 728.317 485.139C728.317 476.931 737.483 470.258 748.754 470.258C760.024 470.258 769.19 476.936 769.19 485.139C769.19 493.342 760.024 500.02 748.754 500.02V500.025ZM748.754 471.66C738.257 471.66 729.719 477.71 729.719 485.139C729.719 492.568 738.257 498.618 748.754 498.618C759.25 498.618 767.788 492.573 767.788 485.139C767.788 477.705 759.25 471.66 748.754 471.66Z" fill="#FFFAEE"/>
<path d="M760.038 490.217C757.055 489.872 754.757 487.715 754.757 485.143C754.757 482.571 757.051 480.409 760.038 480.069V477.681C755.734 478.049 752.383 481.287 752.383 485.143C752.383 488.999 755.729 492.237 760.038 492.605V490.217Z" fill="#FFFAEE"/>
<path d="M751.935 490.217C748.952 489.872 746.653 487.715 746.653 485.143C746.653 482.571 748.947 480.409 751.935 480.069V477.681C747.63 478.049 744.279 481.287 744.279 485.143C744.279 488.999 747.625 492.237 751.935 492.605V490.217Z" fill="#FFFAEE"/>
<path d="M744.279 490.217C741.297 489.872 738.998 487.715 738.998 485.143C738.998 482.571 741.292 480.409 744.279 480.069V477.681C739.975 478.049 736.624 481.287 736.624 485.143C736.624 488.999 739.97 492.237 744.279 492.605V490.217Z" fill="#FFFAEE"/>
<path d="M539 557H850C858.284 557 865 550.284 865 542V500C865 491.716 858.284 485 850 485H818.5" stroke="#FFFAEE" stroke-linecap="round" stroke-dasharray="2 8"/>
<path d="M620.464 539V537.686H624.064V527.552H623.938L620.77 530.504L619.888 529.55L623.218 526.436H625.576V537.686H628.888V539H620.464ZM639.375 531.044C639.375 531.98 639.231 532.862 638.943 533.69C638.667 534.506 638.307 535.256 637.863 535.94C637.419 536.612 636.927 537.212 636.387 537.74C635.859 538.256 635.337 538.676 634.821 539H632.877C633.561 538.508 634.167 538.028 634.695 537.56C635.235 537.092 635.709 536.606 636.117 536.102C636.525 535.586 636.867 535.04 637.143 534.464C637.419 533.876 637.647 533.216 637.827 532.484L637.737 532.448C637.425 532.964 637.023 533.396 636.531 533.744C636.051 534.08 635.421 534.248 634.641 534.248C634.089 534.248 633.579 534.158 633.111 533.978C632.655 533.798 632.259 533.54 631.923 533.204C631.599 532.868 631.341 532.466 631.149 531.998C630.969 531.518 630.879 530.978 630.879 530.378C630.879 529.766 630.975 529.208 631.167 528.704C631.371 528.188 631.659 527.75 632.031 527.39C632.403 527.018 632.847 526.73 633.363 526.526C633.891 526.322 634.473 526.22 635.109 526.22C635.769 526.22 636.363 526.334 636.891 526.562C637.419 526.778 637.863 527.096 638.223 527.516C638.595 527.924 638.877 528.428 639.069 529.028C639.273 529.628 639.375 530.3 639.375 531.044ZM635.127 533.006C635.991 533.006 636.657 532.772 637.125 532.304C637.605 531.836 637.845 531.176 637.845 530.324V530.18C637.845 529.328 637.605 528.668 637.125 528.2C636.657 527.732 635.991 527.498 635.127 527.498C634.263 527.498 633.591 527.732 633.111 528.2C632.643 528.668 632.409 529.328 632.409 530.18V530.324C632.409 531.176 632.643 531.836 633.111 532.304C633.591 532.772 634.263 533.006 635.127 533.006ZM650.186 539H641.798V537.452L645.992 533.672C646.604 533.12 647.108 532.556 647.504 531.98C647.9 531.392 648.098 530.774 648.098 530.126V529.91C648.098 529.154 647.9 528.572 647.504 528.164C647.108 527.744 646.52 527.534 645.74 527.534C644.972 527.534 644.378 527.732 643.958 528.128C643.55 528.512 643.244 529.028 643.04 529.676L641.69 529.172C641.81 528.8 641.972 528.44 642.176 528.092C642.392 527.732 642.662 527.414 642.986 527.138C643.31 526.862 643.7 526.64 644.156 526.472C644.624 526.304 645.164 526.22 645.776 526.22C646.4 526.22 646.952 526.31 647.432 526.49C647.924 526.67 648.332 526.922 648.656 527.246C648.992 527.57 649.244 527.954 649.412 528.398C649.592 528.842 649.682 529.328 649.682 529.856C649.682 530.336 649.61 530.786 649.466 531.206C649.334 531.626 649.142 532.028 648.89 532.412C648.65 532.796 648.356 533.174 648.008 533.546C647.672 533.906 647.294 534.266 646.874 534.626L643.364 537.686H650.186V539ZM656.713 539.216C655.945 539.216 655.285 539.072 654.733 538.784C654.181 538.484 653.725 538.058 653.365 537.506C653.005 536.954 652.741 536.276 652.573 535.472C652.405 534.668 652.321 533.75 652.321 532.718C652.321 531.698 652.405 530.786 652.573 529.982C652.741 529.166 653.005 528.482 653.365 527.93C653.725 527.378 654.181 526.958 654.733 526.67C655.285 526.37 655.945 526.22 656.713 526.22C657.481 526.22 658.141 526.37 658.693 526.67C659.245 526.958 659.701 527.378 660.061 527.93C660.421 528.482 660.685 529.166 660.853 529.982C661.021 530.786 661.105 531.698 661.105 532.718C661.105 533.75 661.021 534.668 660.853 535.472C660.685 536.276 660.421 536.954 660.061 537.506C659.701 538.058 659.245 538.484 658.693 538.784C658.141 539.072 657.481 539.216 656.713 539.216ZM656.713 537.902C657.217 537.902 657.649 537.806 658.009 537.614C658.369 537.41 658.657 537.128 658.873 536.768C659.101 536.408 659.269 535.976 659.377 535.472C659.485 534.956 659.539 534.38 659.539 533.744V531.692C659.539 531.068 659.485 530.498 659.377 529.982C659.269 529.466 659.101 529.028 658.873 528.668C658.657 528.308 658.369 528.032 658.009 527.84C657.649 527.636 657.217 527.534 656.713 527.534C656.209 527.534 655.777 527.636 655.417 527.84C655.057 528.032 654.763 528.308 654.535 528.668C654.319 529.028 654.157 529.466 654.049 529.982C653.941 530.498 653.887 531.068 653.887 531.692V533.744C653.887 534.38 653.941 534.956 654.049 535.472C654.157 535.976 654.319 536.408 654.535 536.768C654.763 537.128 655.057 537.41 655.417 537.614C655.777 537.806 656.209 537.902 656.713 537.902ZM656.713 533.78C656.293 533.78 655.999 533.696 655.831 533.528C655.675 533.36 655.597 533.156 655.597 532.916V532.52C655.597 532.28 655.675 532.076 655.831 531.908C655.999 531.74 656.293 531.656 656.713 531.656C657.133 531.656 657.421 531.74 657.577 531.908C657.745 532.076 657.829 532.28 657.829 532.52V532.916C657.829 533.156 657.745 533.36 657.577 533.528C657.421 533.696 657.133 533.78 656.713 533.78ZM674.518 541.484L680.782 525.32H682.078L675.814 541.484H674.518ZM704.132 531.044C704.132 531.98 703.988 532.862 703.7 533.69C703.424 534.506 703.064 535.256 702.62 535.94C702.176 536.612 701.684 537.212 701.144 537.74C700.616 538.256 700.094 538.676 699.578 539H697.634C698.318 538.508 698.924 538.028 699.452 537.56C699.992 537.092 700.466 536.606 700.874 536.102C701.282 535.586 701.624 535.04 701.9 534.464C702.176 533.876 702.404 533.216 702.584 532.484L702.494 532.448C702.182 532.964 701.78 533.396 701.288 533.744C700.808 534.08 700.178 534.248 699.398 534.248C698.846 534.248 698.336 534.158 697.868 533.978C697.412 533.798 697.016 533.54 696.68 533.204C696.356 532.868 696.098 532.466 695.906 531.998C695.726 531.518 695.636 530.978 695.636 530.378C695.636 529.766 695.732 529.208 695.924 528.704C696.128 528.188 696.416 527.75 696.788 527.39C697.16 527.018 697.604 526.73 698.12 526.526C698.648 526.322 699.23 526.22 699.866 526.22C700.526 526.22 701.12 526.334 701.648 526.562C702.176 526.778 702.62 527.096 702.98 527.516C703.352 527.924 703.634 528.428 703.826 529.028C704.03 529.628 704.132 530.3 704.132 531.044ZM699.884 533.006C700.748 533.006 701.414 532.772 701.882 532.304C702.362 531.836 702.602 531.176 702.602 530.324V530.18C702.602 529.328 702.362 528.668 701.882 528.2C701.414 527.732 700.748 527.498 699.884 527.498C699.02 527.498 698.348 527.732 697.868 528.2C697.4 528.668 697.166 529.328 697.166 530.18V530.324C697.166 531.176 697.4 531.836 697.868 532.304C698.348 532.772 699.02 533.006 699.884 533.006ZM710.677 539.162C710.185 539.162 709.837 539.06 709.633 538.856C709.441 538.652 709.345 538.394 709.345 538.082V537.758C709.345 537.446 709.441 537.188 709.633 536.984C709.837 536.78 710.185 536.678 710.677 536.678C711.169 536.678 711.511 536.78 711.703 536.984C711.907 537.188 712.009 537.446 712.009 537.758V538.082C712.009 538.394 711.907 538.652 711.703 538.856C711.511 539.06 711.169 539.162 710.677 539.162ZM710.677 532.034C710.185 532.034 709.837 531.932 709.633 531.728C709.441 531.524 709.345 531.266 709.345 530.954V530.63C709.345 530.318 709.441 530.06 709.633 529.856C709.837 529.652 710.185 529.55 710.677 529.55C711.169 529.55 711.511 529.652 711.703 529.856C711.907 530.06 712.009 530.318 712.009 530.63V530.954C712.009 531.266 711.907 531.524 711.703 531.728C711.511 531.932 711.169 532.034 710.677 532.034ZM717.6 539V537.686H721.2V527.552H721.074L717.906 530.504L717.024 529.55L720.354 526.436H722.712V537.686H726.024V539H717.6ZM732.281 539.216C731.621 539.216 731.027 539.108 730.499 538.892C729.971 538.664 729.521 538.346 729.149 537.938C728.789 537.518 728.507 537.008 728.303 536.408C728.111 535.808 728.015 535.136 728.015 534.392C728.015 533.456 728.153 532.58 728.429 531.764C728.717 530.936 729.077 530.186 729.509 529.514C729.953 528.83 730.445 528.23 730.985 527.714C731.525 527.186 732.053 526.76 732.569 526.436H734.513C733.829 526.928 733.217 527.408 732.677 527.876C732.149 528.344 731.681 528.836 731.273 529.352C730.865 529.856 730.523 530.402 730.247 530.99C729.971 531.566 729.743 532.22 729.563 532.952L729.653 532.988C729.953 532.472 730.349 532.046 730.841 531.71C731.333 531.362 731.969 531.188 732.749 531.188C733.301 531.188 733.805 531.278 734.261 531.458C734.717 531.638 735.113 531.896 735.449 532.232C735.785 532.568 736.043 532.976 736.223 533.456C736.415 533.936 736.511 534.47 736.511 535.058C736.511 535.67 736.409 536.234 736.205 536.75C736.001 537.254 735.713 537.692 735.341 538.064C734.981 538.424 734.537 538.706 734.009 538.91C733.493 539.114 732.917 539.216 732.281 539.216ZM732.263 537.938C733.127 537.938 733.793 537.704 734.261 537.236C734.741 536.768 734.981 536.108 734.981 535.256V535.112C734.981 534.26 734.741 533.6 734.261 533.132C733.793 532.664 733.127 532.43 732.263 532.43C731.399 532.43 730.727 532.664 730.247 533.132C729.779 533.6 729.545 534.26 729.545 535.112V535.256C729.545 536.108 729.779 536.768 730.247 537.236C730.727 537.704 731.399 537.938 732.263 537.938ZM750.069 541.484L756.333 525.32H757.629L751.365 541.484H750.069ZM771.565 539V537.686H775.165V527.552H775.039L771.871 530.504L770.989 529.55L774.319 526.436H776.677V537.686H779.989V539H771.565ZM801.971 539H800.261L798.767 536.498L797.111 533.762H797.039L795.329 536.498L793.745 539H792.089L796.193 532.592L792.323 526.436H794.033L795.491 528.866L797.057 531.404H797.129L798.677 528.866L800.189 526.436H801.845L797.957 532.574L801.971 539ZM814.737 539V537.686H818.337V527.552H818.211L815.043 530.504L814.161 529.55L817.491 526.436H819.849V537.686H823.161V539H814.737Z" fill="#FFFAEE"/>
</svg>
