<svg width="1080" height="1080" viewBox="0 0 1080 1080" fill="none" xmlns="http://www.w3.org/2000/svg">
<rect width="1080" height="1080" fill="#191919"/>
<path d="M276.361 426.61C276.361 424.257 276.753 422.166 277.537 420.336C278.387 418.506 279.498 416.937 280.87 415.63C282.243 414.323 283.811 413.343 285.576 412.689C287.406 411.97 289.301 411.611 291.262 411.611C293.223 411.611 295.085 411.97 296.85 412.689C298.68 413.343 300.281 414.323 301.654 415.63C303.026 416.937 304.105 418.506 304.889 420.336C305.739 422.166 306.163 424.257 306.163 426.61V467.589C306.163 469.942 305.739 472.033 304.889 473.863C304.105 475.693 303.026 477.262 301.654 478.569C300.281 479.876 298.68 480.889 296.85 481.608C295.085 482.261 293.223 482.588 291.262 482.588C289.301 482.588 287.406 482.261 285.576 481.608C283.811 480.889 282.243 479.876 280.87 478.569C279.498 477.262 278.387 475.693 277.537 473.863C276.753 472.033 276.361 469.942 276.361 467.589V426.61ZM286.36 467.589C286.36 469.027 286.818 470.236 287.733 471.216C288.648 472.131 289.824 472.589 291.262 472.589C292.7 472.589 293.876 472.131 294.791 471.216C295.706 470.236 296.164 469.027 296.164 467.589V426.61C296.164 425.172 295.706 423.996 294.791 423.081C293.876 422.1 292.7 421.61 291.262 421.61C289.824 421.61 288.648 422.1 287.733 423.081C286.818 423.996 286.36 425.172 286.36 426.61V467.589ZM320.778 482V422.787L310.778 430.139V419.552L320.778 412.199H330.777V482H320.778Z" fill="#FFFAEE"/>
<path d="M508.361 426.961C508.361 424.608 508.753 422.517 509.537 420.687C510.387 418.857 511.498 417.288 512.87 415.981C514.243 414.674 515.811 413.694 517.576 413.04C519.406 412.321 521.301 411.962 523.262 411.962C525.223 411.962 527.085 412.321 528.85 413.04C530.68 413.694 532.281 414.674 533.654 415.981C535.026 417.288 536.105 418.857 536.889 420.687C537.739 422.517 538.163 424.608 538.163 426.961V467.94C538.163 470.293 537.739 472.384 536.889 474.214C536.105 476.044 535.026 477.613 533.654 478.92C532.281 480.227 530.68 481.24 528.85 481.959C527.085 482.613 525.223 482.939 523.262 482.939C521.301 482.939 519.406 482.613 517.576 481.959C515.811 481.24 514.243 480.227 512.87 478.92C511.498 477.613 510.387 476.044 509.537 474.214C508.753 472.384 508.361 470.293 508.361 467.94V426.961ZM518.36 467.94C518.36 469.378 518.818 470.587 519.733 471.567C520.648 472.482 521.824 472.94 523.262 472.94C524.7 472.94 525.876 472.482 526.791 471.567C527.706 470.587 528.164 469.378 528.164 467.94V426.961C528.164 425.523 527.706 424.347 526.791 423.432C525.876 422.451 524.7 421.961 523.262 421.961C521.824 421.961 520.648 422.451 519.733 423.432C518.818 424.347 518.36 425.523 518.36 426.961V467.94ZM540.915 482.351V472.94L558.954 438.921C559.869 437.222 560.392 435.752 560.522 434.51C560.653 433.203 560.718 431.601 560.718 429.706C560.718 428.856 560.686 427.974 560.62 427.059C560.62 426.079 560.457 425.229 560.13 424.51C559.803 423.791 559.313 423.203 558.66 422.746C558.006 422.223 557.059 421.961 555.817 421.961C554.314 421.961 553.104 422.386 552.189 423.236C551.34 424.085 550.915 425.327 550.915 426.961V432.647H540.915V427.157C540.915 425.066 541.307 423.105 542.092 421.275C542.876 419.445 543.954 417.844 545.327 416.471C546.634 415.099 548.203 414.02 550.033 413.236C551.863 412.387 553.823 411.962 555.915 411.962C558.529 411.962 560.751 412.452 562.581 413.432C564.477 414.347 566.045 415.622 567.287 417.256C568.463 418.89 569.313 420.752 569.836 422.844C570.424 424.935 570.718 427.157 570.718 429.51C570.718 431.209 570.685 432.647 570.62 433.824C570.555 434.935 570.424 436.013 570.228 437.059C570.032 438.104 569.705 439.15 569.248 440.196C568.79 441.242 568.169 442.516 567.385 444.019L552.68 472.351H570.718V482.351H540.915Z" fill="#FFFAEE"/>
<path d="M748.361 426.961C748.361 424.608 748.753 422.517 749.537 420.687C750.387 418.857 751.498 417.288 752.87 415.981C754.243 414.674 755.811 413.694 757.576 413.04C759.406 412.321 761.301 411.962 763.262 411.962C765.223 411.962 767.085 412.321 768.85 413.04C770.68 413.694 772.281 414.674 773.654 415.981C775.026 417.288 776.105 418.857 776.889 420.687C777.739 422.517 778.163 424.608 778.163 426.961V467.94C778.163 470.293 777.739 472.384 776.889 474.214C776.105 476.044 775.026 477.613 773.654 478.92C772.281 480.227 770.68 481.24 768.85 481.959C767.085 482.613 765.223 482.939 763.262 482.939C761.301 482.939 759.406 482.613 757.576 481.959C755.811 481.24 754.243 480.227 752.87 478.92C751.498 477.613 750.387 476.044 749.537 474.214C748.753 472.384 748.361 470.293 748.361 467.94V426.961ZM758.36 467.94C758.36 469.378 758.818 470.587 759.733 471.567C760.648 472.482 761.824 472.94 763.262 472.94C764.7 472.94 765.876 472.482 766.791 471.567C767.706 470.587 768.164 469.378 768.164 467.94V426.961C768.164 425.523 767.706 424.347 766.791 423.432C765.876 422.451 764.7 421.961 763.262 421.961C761.824 421.961 760.648 422.451 759.733 423.432C758.818 424.347 758.36 425.523 758.36 426.961V467.94ZM792.778 441.961C795.784 441.961 797.843 441.601 798.954 440.882C800.13 440.163 800.718 438.497 800.718 435.882V426.863C800.718 425.425 800.261 424.249 799.346 423.334C798.496 422.419 797.32 421.961 795.817 421.961C794.052 421.961 792.778 422.517 791.993 423.628C791.274 424.739 790.915 425.817 790.915 426.863V432.549H780.915V426.765C780.915 424.739 781.307 422.811 782.092 420.981C782.876 419.151 783.954 417.582 785.327 416.275C786.699 414.968 788.301 413.922 790.131 413.138C791.961 412.354 793.921 411.962 796.013 411.962C798.758 411.962 801.013 412.517 802.777 413.628C804.607 414.674 805.98 415.752 806.895 416.863C807.548 417.648 808.104 418.432 808.561 419.216C809.084 420.001 809.509 420.948 809.836 422.059C810.424 424.216 810.718 427.419 810.718 431.667C810.718 434.085 810.653 436.046 810.522 437.549C810.457 439.052 810.228 440.294 809.836 441.274C809.378 442.32 808.725 443.202 807.875 443.921C807.091 444.64 805.98 445.424 804.542 446.274C806.11 447.254 807.287 448.169 808.071 449.019C808.921 449.869 809.542 450.849 809.934 451.96C810.326 453.137 810.555 454.542 810.62 456.176C810.685 457.744 810.718 459.77 810.718 462.254C810.718 464.541 810.653 466.437 810.522 467.94C810.457 469.443 810.326 470.685 810.13 471.665C809.934 472.711 809.672 473.593 809.346 474.312C809.019 475.031 808.594 475.783 808.071 476.567C806.829 478.397 805.228 479.933 803.267 481.175C801.372 482.351 798.856 482.939 795.719 482.939C794.15 482.939 792.484 482.678 790.719 482.155C788.954 481.632 787.353 480.783 785.915 479.606C784.477 478.43 783.268 476.894 782.288 474.998C781.373 473.103 780.915 470.783 780.915 468.038V462.352H790.915V467.548C790.915 469.116 791.34 470.423 792.189 471.469C793.104 472.45 794.314 472.94 795.817 472.94C797.32 472.94 798.496 472.45 799.346 471.469C800.261 470.423 800.718 469.051 800.718 467.352V457.352C800.718 454.607 800.196 452.81 799.15 451.96C798.562 451.437 797.745 451.11 796.699 450.98C795.719 450.849 794.412 450.784 792.778 450.784V441.961Z" fill="#FFFAEE"/>
<path d="M289.333 531.165H284.45V529.902H290.79V531.845C290.79 533.06 290.547 534.194 290.062 535.246C289.592 536.283 288.855 537.117 287.851 537.749C286.863 538.38 285.583 538.696 284.012 538.696C281.664 538.696 279.842 537.935 278.546 536.412C277.267 534.874 276.627 532.687 276.627 529.853C276.627 527.019 277.267 524.84 278.546 523.318C279.842 521.796 281.664 521.034 284.012 521.034C285.13 521.034 286.142 521.229 287.049 521.617C287.956 521.99 288.717 522.557 289.333 523.318C289.948 524.079 290.369 525.051 290.596 526.233H289.09C288.831 524.84 288.256 523.844 287.365 523.245C286.49 522.646 285.373 522.346 284.012 522.346C282.101 522.346 280.635 522.946 279.615 524.144C278.595 525.343 278.085 527.246 278.085 529.853C278.085 532.444 278.595 534.347 279.615 535.562C280.635 536.777 282.101 537.384 284.012 537.384C285 537.384 285.818 537.247 286.466 536.971C287.114 536.68 287.632 536.299 288.021 535.829C288.41 535.36 288.693 534.85 288.871 534.299C289.065 533.748 289.187 533.198 289.236 532.647C289.3 532.096 289.333 531.602 289.333 531.165ZM300.831 530.582L305.301 538.453H303.673L299.373 530.849L300.831 530.582ZM298.936 530.12C300.086 530.12 300.976 529.975 301.608 529.683C302.24 529.392 302.685 528.962 302.944 528.395C303.203 527.829 303.333 527.132 303.333 526.306C303.333 525.464 303.203 524.768 302.944 524.217C302.685 523.666 302.24 523.253 301.608 522.978C300.976 522.686 300.086 522.541 298.936 522.541H294.757V530.12H298.936ZM299.057 531.384H294.757V538.453H293.3V521.277H299.033C300.426 521.277 301.543 521.48 302.386 521.885C303.228 522.273 303.835 522.84 304.208 523.585C304.596 524.33 304.791 525.237 304.791 526.306C304.791 527.148 304.702 527.885 304.523 528.517C304.345 529.149 304.038 529.683 303.6 530.12C303.163 530.541 302.572 530.857 301.827 531.068C301.098 531.278 300.175 531.384 299.057 531.384ZM307.393 521.277H317.183V522.541H308.851V529.221H316.382V530.485H308.851V538.453H307.393V521.277ZM324.093 528.08L331.065 538.453H329.316L323.048 529.1L324.093 528.08ZM320.619 538.453H319.161V521.277H320.619V538.453ZM320.254 533.716V531.699L328.83 521.277H330.604L320.254 533.716Z" fill="#FFFAEE"/>
<path d="M510.699 538.453V521.277H516.019C518.513 521.277 520.4 522.006 521.68 523.464C522.959 524.921 523.599 527.051 523.599 529.853C523.599 532.639 522.943 534.769 521.631 536.242C520.335 537.716 518.384 538.453 515.776 538.453H510.699ZM515.655 537.19C517.29 537.19 518.578 536.898 519.517 536.315C520.457 535.716 521.129 534.866 521.534 533.764C521.939 532.663 522.141 531.359 522.141 529.853C522.141 528.331 521.939 527.027 521.534 525.942C521.145 524.84 520.489 523.998 519.566 523.415C518.659 522.832 517.42 522.541 515.849 522.541H512.156V537.19H515.655ZM535.497 524.994C535.367 523.99 534.922 523.294 534.161 522.905C533.416 522.516 532.428 522.322 531.197 522.322C529.788 522.322 528.743 522.597 528.063 523.148C527.383 523.682 527.043 524.476 527.043 525.529C527.043 526.144 527.156 526.646 527.383 527.035C527.626 527.424 527.933 527.74 528.306 527.982C528.678 528.209 529.075 528.395 529.496 528.541C529.917 528.671 530.306 528.784 530.662 528.881L532.533 529.392C533.003 529.521 533.513 529.683 534.064 529.877C534.614 530.072 535.132 530.339 535.618 530.679C536.12 531.019 536.525 531.456 536.833 531.991C537.141 532.525 537.295 533.189 537.295 533.983C537.295 534.89 537.076 535.708 536.639 536.437C536.201 537.166 535.529 537.741 534.622 538.162C533.715 538.566 532.557 538.769 531.148 538.769C529.27 538.769 527.828 538.388 526.824 537.627C525.82 536.866 525.253 535.837 525.123 534.542H526.63C526.727 535.319 526.978 535.918 527.383 536.34C527.788 536.761 528.306 537.06 528.938 537.238C529.585 537.4 530.322 537.481 531.148 537.481C532.638 537.481 533.788 537.198 534.598 536.631C535.424 536.048 535.837 535.149 535.837 533.934C535.837 533.206 535.659 532.631 535.302 532.21C534.962 531.789 534.501 531.456 533.918 531.214C533.351 530.971 532.735 530.76 532.071 530.582L529.739 529.95C528.411 529.578 527.383 529.059 526.654 528.395C525.941 527.731 525.585 526.816 525.585 525.65C525.585 524.695 525.812 523.877 526.265 523.197C526.735 522.5 527.391 521.966 528.233 521.593C529.091 521.221 530.104 521.034 531.27 521.034C532.403 521.034 533.375 521.204 534.185 521.545C535.011 521.869 535.659 522.33 536.128 522.929C536.614 523.512 536.89 524.201 536.954 524.994H535.497ZM551.289 531.165H546.406V529.902H552.747V531.845C552.747 533.06 552.504 534.194 552.018 535.246C551.548 536.283 550.811 537.117 549.807 537.749C548.819 538.38 547.54 538.696 545.969 538.696C543.62 538.696 541.798 537.935 540.503 536.412C539.223 534.874 538.584 532.687 538.584 529.853C538.584 527.019 539.223 524.84 540.503 523.318C541.798 521.796 543.62 521.034 545.969 521.034C547.086 521.034 548.099 521.229 549.006 521.617C549.913 521.99 550.674 522.557 551.289 523.318C551.905 524.079 552.326 525.051 552.552 526.233H551.046C550.787 524.84 550.212 523.844 549.321 523.245C548.447 522.646 547.329 522.346 545.969 522.346C544.058 522.346 542.592 522.946 541.572 524.144C540.551 525.343 540.041 527.246 540.041 529.853C540.041 532.444 540.551 534.347 541.572 535.562C542.592 536.777 544.058 537.384 545.969 537.384C546.957 537.384 547.775 537.247 548.423 536.971C549.07 536.68 549.589 536.299 549.977 535.829C550.366 535.36 550.649 534.85 550.828 534.299C551.022 533.748 551.143 533.198 551.192 532.647C551.257 532.096 551.289 531.602 551.289 531.165ZM568.108 538.453H566.48L556.884 523.707H556.689V538.453H555.256V521.277H556.908L566.48 535.999H566.674V521.277H568.108V538.453Z" fill="#FFFAEE"/>
<path d="M754.008 538.453V521.277H759.329C761.823 521.277 763.71 522.006 764.989 523.464C766.269 524.921 766.908 527.051 766.908 529.853C766.908 532.639 766.252 534.769 764.94 536.242C763.645 537.716 761.693 538.453 759.086 538.453H754.008ZM758.964 537.19C760.6 537.19 761.888 536.898 762.827 536.315C763.766 535.716 764.438 534.866 764.843 533.764C765.248 532.663 765.451 531.359 765.451 529.853C765.451 528.331 765.248 527.027 764.843 525.942C764.455 524.84 763.799 523.998 762.876 523.415C761.969 522.832 760.73 522.541 759.159 522.541H755.466V537.19H758.964ZM769.478 521.277H779.147V522.541H770.935V529.221H778.588V530.485H770.935V537.19H779.268V538.453H769.478V521.277ZM782.052 521.277H787.786C789.163 521.277 790.272 521.496 791.114 521.933C791.956 522.354 792.572 522.954 792.96 523.731C793.349 524.508 793.544 525.432 793.544 526.501C793.544 527.569 793.349 528.501 792.96 529.294C792.572 530.088 791.956 530.703 791.114 531.141C790.288 531.578 789.195 531.797 787.834 531.797H783.51V538.453H782.052V521.277ZM787.737 530.533C788.871 530.533 789.754 530.371 790.385 530.047C791.017 529.707 791.454 529.238 791.697 528.638C791.956 528.023 792.086 527.31 792.086 526.501C792.086 525.675 791.956 524.97 791.697 524.387C791.454 523.788 791.017 523.334 790.385 523.027C789.754 522.703 788.855 522.541 787.689 522.541H783.51V530.533H787.737ZM793.527 521.277H806.208V522.541H800.596V538.453H799.139V522.541H793.527V521.277Z" fill="#FFFAEE"/>
<line x1="261.759" y1="569.855" x2="819" y2="569.855" stroke="#FFFAEE" stroke-dasharray="7.59 7.59"/>
<line x1="261.759" y1="391.5" x2="819" y2="391.5" stroke="#FFFAEE" stroke-dasharray="7.59 7.59"/>
<path d="M284.186 607H274.99V606.534L280.69 600.77C281.411 600.05 281.962 599.337 282.343 598.63C282.739 597.91 282.936 597.154 282.936 596.363V595.727C282.936 595.247 282.859 594.802 282.703 594.393C282.562 593.983 282.343 593.63 282.046 593.333C281.75 593.036 281.375 592.803 280.923 592.634C280.485 592.464 279.97 592.38 279.377 592.38C278.275 592.38 277.406 592.648 276.77 593.185C276.149 593.707 275.697 594.421 275.414 595.325L274.99 595.24C275.259 594.28 275.753 593.496 276.474 592.888C277.194 592.267 278.162 591.956 279.377 591.956C280.704 591.956 281.714 592.323 282.407 593.058C283.099 593.778 283.445 594.781 283.445 596.066C283.445 597.013 283.233 597.889 282.809 598.694C282.399 599.485 281.792 600.283 280.987 601.088L275.52 606.576H284.186V607ZM291.361 607.254C290.584 607.254 289.892 607.113 289.285 606.83C288.691 606.534 288.183 606.082 287.759 605.474C287.349 604.853 287.039 604.062 286.827 603.101C286.615 602.127 286.509 600.961 286.509 599.605C286.509 598.249 286.615 597.091 286.827 596.13C287.039 595.155 287.349 594.364 287.759 593.757C288.183 593.135 288.691 592.683 289.285 592.401C289.892 592.104 290.584 591.956 291.361 591.956C292.138 591.956 292.823 592.104 293.417 592.401C294.024 592.683 294.533 593.135 294.942 593.757C295.352 594.364 295.663 595.155 295.874 596.13C296.1 597.091 296.213 598.249 296.213 599.605C296.213 600.961 296.1 602.127 295.874 603.101C295.663 604.062 295.352 604.853 294.942 605.474C294.533 606.082 294.024 606.534 293.417 606.83C292.823 607.113 292.138 607.254 291.361 607.254ZM291.361 606.83C292.774 606.83 293.847 606.287 294.582 605.199C295.331 604.111 295.705 602.473 295.705 600.283V598.927C295.705 596.737 295.331 595.099 294.582 594.011C293.847 592.923 292.774 592.38 291.361 592.38C289.949 592.38 288.868 592.923 288.119 594.011C287.385 595.099 287.017 596.737 287.017 598.927V600.283C287.017 602.473 287.385 604.111 288.119 605.199C288.868 606.287 289.949 606.83 291.361 606.83ZM291.361 600.135C291.163 600.135 291.022 600.092 290.937 600.008C290.867 599.923 290.831 599.817 290.831 599.69V599.52C290.831 599.393 290.867 599.287 290.937 599.202C291.022 599.118 291.163 599.075 291.361 599.075C291.559 599.075 291.693 599.118 291.764 599.202C291.849 599.287 291.891 599.393 291.891 599.52V599.69C291.891 599.817 291.849 599.923 291.764 600.008C291.693 600.092 291.559 600.135 291.361 600.135ZM300.824 607L307.223 592.634H298.96V596.151H298.494V592.21H307.711V592.634L301.333 607H300.824ZM322.866 607V592.21H331.468V592.634H323.332V599.287H331.172V599.711H323.332V606.576H331.468V607H322.866ZM343.559 607L341.906 602.042H335.677L334.024 607H333.537L338.474 592.21H339.109L344.046 607H343.559ZM338.813 592.74H338.749L335.804 601.639H341.779L338.813 592.74ZM350.734 607.254C350.084 607.254 349.505 607.191 348.996 607.064C348.488 606.951 348.029 606.788 347.619 606.576C347.223 606.364 346.87 606.11 346.56 605.813C346.249 605.517 345.959 605.192 345.691 604.839L346.072 604.563C346.326 604.902 346.602 605.213 346.899 605.496C347.195 605.764 347.527 606.004 347.894 606.216C348.262 606.414 348.671 606.569 349.123 606.682C349.59 606.781 350.126 606.83 350.734 606.83C352.09 606.83 353.135 606.534 353.87 605.941C354.618 605.333 354.993 604.443 354.993 603.271C354.993 602.663 354.894 602.155 354.696 601.745C354.512 601.321 354.258 600.982 353.933 600.728C353.623 600.46 353.255 600.255 352.831 600.114C352.408 599.958 351.97 599.845 351.518 599.775L349.823 599.499C349.074 599.372 348.452 599.188 347.958 598.948C347.478 598.694 347.089 598.397 346.793 598.058C346.51 597.719 346.312 597.345 346.199 596.935C346.086 596.526 346.03 596.102 346.03 595.664C346.03 595.042 346.136 594.499 346.348 594.032C346.574 593.566 346.884 593.185 347.28 592.888C347.69 592.577 348.177 592.344 348.742 592.189C349.307 592.034 349.936 591.956 350.628 591.956C351.829 591.956 352.789 592.147 353.509 592.528C354.244 592.909 354.816 593.404 355.226 594.011L354.866 594.308C354.428 593.672 353.87 593.192 353.192 592.867C352.514 592.542 351.645 592.38 350.585 592.38C349.3 592.38 348.297 592.655 347.577 593.206C346.856 593.743 346.496 594.562 346.496 595.664C346.496 596.243 346.588 596.73 346.771 597.126C346.955 597.521 347.202 597.853 347.513 598.122C347.824 598.376 348.184 598.581 348.594 598.736C349.003 598.878 349.441 598.984 349.907 599.054L351.602 599.33C352.379 599.457 353.015 599.654 353.509 599.923C354.018 600.177 354.414 600.481 354.696 600.834C354.979 601.187 355.176 601.569 355.289 601.978C355.402 602.388 355.459 602.812 355.459 603.25C355.459 604.577 355.028 605.58 354.166 606.258C353.319 606.922 352.175 607.254 350.734 607.254ZM362.74 592.634V607H362.273V592.634H357.019V592.21H367.994V592.634H362.74ZM385.798 599.033C386.335 599.033 386.822 598.962 387.26 598.821C387.712 598.666 388.093 598.454 388.404 598.185C388.729 597.903 388.976 597.571 389.146 597.19C389.329 596.808 389.421 596.391 389.421 595.939V595.431C389.421 594.979 389.336 594.569 389.167 594.202C388.997 593.82 388.757 593.496 388.446 593.227C388.15 592.959 387.783 592.754 387.345 592.613C386.921 592.457 386.455 592.38 385.946 592.38C384.957 592.38 384.173 592.57 383.594 592.952C383.029 593.333 382.584 593.842 382.259 594.477L381.878 594.308C382.175 593.616 382.662 593.051 383.34 592.613C384.018 592.175 384.887 591.956 385.946 591.956C387.161 591.956 388.129 592.288 388.849 592.952C389.569 593.616 389.93 594.513 389.93 595.643C389.93 596.165 389.852 596.632 389.697 597.041C389.555 597.437 389.351 597.783 389.082 598.079C388.828 598.376 388.517 598.616 388.15 598.8C387.797 598.984 387.401 599.118 386.963 599.202V599.266C387.966 599.393 388.764 599.782 389.358 600.431C389.951 601.067 390.248 601.936 390.248 603.038C390.248 604.351 389.852 605.383 389.061 606.131C388.284 606.88 387.218 607.254 385.861 607.254C384.83 607.254 383.94 607.071 383.192 606.703C382.457 606.336 381.843 605.764 381.348 604.987L381.73 604.754C382.182 605.474 382.74 606.004 383.404 606.343C384.082 606.668 384.901 606.83 385.861 606.83C386.426 606.83 386.949 606.753 387.429 606.597C387.91 606.428 388.319 606.195 388.658 605.898C388.997 605.587 389.259 605.22 389.442 604.796C389.64 604.373 389.739 603.906 389.739 603.398V602.805C389.739 601.788 389.386 600.975 388.68 600.368C387.987 599.76 387.041 599.457 385.84 599.457H383.806V599.033H385.798ZM402.762 607H393.566V606.534L399.266 600.77C399.986 600.05 400.537 599.337 400.919 598.63C401.314 597.91 401.512 597.154 401.512 596.363V595.727C401.512 595.247 401.434 594.802 401.279 594.393C401.137 593.983 400.919 593.63 400.622 593.333C400.325 593.036 399.951 592.803 399.499 592.634C399.061 592.464 398.545 592.38 397.952 592.38C396.85 592.38 395.981 592.648 395.346 593.185C394.724 593.707 394.272 594.421 393.99 595.325L393.566 595.24C393.834 594.28 394.329 593.496 395.049 592.888C395.77 592.267 396.737 591.956 397.952 591.956C399.28 591.956 400.29 592.323 400.982 593.058C401.674 593.778 402.02 594.781 402.02 596.066C402.02 597.013 401.808 597.889 401.385 598.694C400.975 599.485 400.368 600.283 399.562 601.088L394.096 606.576H402.762V607ZM406.165 592.846H406.102V607H405.657V592.21H406.335L413.708 606.364H413.772V592.21H414.217V607H413.539L406.165 592.846ZM417.726 592.21H421.582C423.362 592.21 424.648 592.832 425.439 594.075C426.23 595.304 426.625 597.147 426.625 599.605C426.625 602.063 426.23 603.913 425.439 605.157C424.648 606.386 423.362 607 421.582 607H417.726V592.21ZM421.604 606.576C422.395 606.576 423.073 606.435 423.638 606.152C424.203 605.856 424.669 605.439 425.036 604.902C425.403 604.366 425.672 603.709 425.841 602.932C426.025 602.141 426.117 601.258 426.117 600.283V598.927C426.117 597.952 426.025 597.076 425.841 596.3C425.672 595.509 425.403 594.845 425.036 594.308C424.669 593.771 424.203 593.361 423.638 593.079C423.073 592.782 422.395 592.634 421.604 592.634H418.192V606.576H421.604ZM445.594 607.254C444.944 607.254 444.365 607.191 443.857 607.064C443.348 606.951 442.889 606.788 442.479 606.576C442.084 606.364 441.731 606.11 441.42 605.813C441.109 605.517 440.82 605.192 440.551 604.839L440.933 604.563C441.187 604.902 441.462 605.213 441.759 605.496C442.056 605.764 442.388 606.004 442.755 606.216C443.122 606.414 443.532 606.569 443.984 606.682C444.45 606.781 444.987 606.83 445.594 606.83C446.95 606.83 447.996 606.534 448.73 605.941C449.479 605.333 449.853 604.443 449.853 603.271C449.853 602.663 449.754 602.155 449.556 601.745C449.373 601.321 449.119 600.982 448.794 600.728C448.483 600.46 448.116 600.255 447.692 600.114C447.268 599.958 446.83 599.845 446.378 599.775L444.683 599.499C443.934 599.372 443.313 599.188 442.818 598.948C442.338 598.694 441.95 598.397 441.653 598.058C441.37 597.719 441.173 597.345 441.06 596.935C440.947 596.526 440.89 596.102 440.89 595.664C440.89 595.042 440.996 594.499 441.208 594.032C441.434 593.566 441.745 593.185 442.14 592.888C442.55 592.577 443.037 592.344 443.602 592.189C444.167 592.034 444.796 591.956 445.488 591.956C446.689 591.956 447.649 592.147 448.37 592.528C449.104 592.909 449.677 593.404 450.086 594.011L449.726 594.308C449.288 593.672 448.73 593.192 448.052 592.867C447.374 592.542 446.505 592.38 445.446 592.38C444.16 592.38 443.157 592.655 442.437 593.206C441.717 593.743 441.356 594.562 441.356 595.664C441.356 596.243 441.448 596.73 441.632 597.126C441.815 597.521 442.063 597.853 442.373 598.122C442.684 598.376 443.044 598.581 443.454 598.736C443.864 598.878 444.302 598.984 444.768 599.054L446.463 599.33C447.24 599.457 447.876 599.654 448.37 599.923C448.878 600.177 449.274 600.481 449.556 600.834C449.839 601.187 450.037 601.569 450.15 601.978C450.263 602.388 450.319 602.812 450.319 603.25C450.319 604.577 449.888 605.58 449.027 606.258C448.179 606.922 447.035 607.254 445.594 607.254ZM457.6 592.634V607H457.134V592.634H451.879V592.21H462.855V592.634H457.6ZM465.622 607H465.156V592.21H470.326C471.541 592.21 472.459 592.57 473.081 593.291C473.702 594.011 474.013 594.979 474.013 596.194C474.013 597.408 473.702 598.376 473.081 599.097C472.459 599.817 471.541 600.177 470.326 600.177H469.521L473.907 607H473.356L468.991 600.177H465.622V607ZM470.326 599.753C470.877 599.753 471.35 599.669 471.746 599.499C472.142 599.315 472.466 599.082 472.721 598.8C472.989 598.517 473.187 598.192 473.314 597.825C473.441 597.444 473.505 597.048 473.505 596.639V595.749C473.505 595.353 473.441 594.965 473.314 594.583C473.187 594.202 472.989 593.87 472.721 593.587C472.466 593.305 472.142 593.079 471.746 592.909C471.35 592.726 470.877 592.634 470.326 592.634H465.622V599.753H470.326ZM477.014 607V592.21H485.616V592.634H477.48V599.287H485.32V599.711H477.48V606.576H485.616V607H477.014ZM488.871 607V592.21H497.474V592.634H489.337V599.287H497.177V599.711H489.337V606.576H497.474V607H488.871ZM505.03 592.634V607H504.564V592.634H499.309V592.21H510.285V592.634H505.03ZM516.295 605.347H517.206L515.532 610.645H515.171L516.295 605.347ZM536.598 592.846H536.535V607H536.09V592.21H536.768L544.141 606.364H544.205V592.21H544.65V607H543.972L536.598 592.846ZM548.159 607V592.21H556.762V592.634H548.625V599.287H556.465V599.711H548.625V606.576H556.762V607H548.159ZM560.398 607L558.957 592.21H559.402L560.801 606.534H560.885L563.809 596.745H564.382L567.306 606.534H567.39L568.789 592.21H569.213L567.772 607H566.967L564.127 597.38H564.064L561.203 607H560.398ZM587.567 607V600.77L582.037 592.21H582.566L587.779 600.262H587.842L593.055 592.21H593.563L588.033 600.77V607H587.567ZM599.658 607.254C598.881 607.254 598.188 607.113 597.581 606.83C596.988 606.534 596.479 606.082 596.055 605.474C595.646 604.853 595.335 604.062 595.123 603.101C594.911 602.127 594.805 600.961 594.805 599.605C594.805 598.249 594.911 597.091 595.123 596.13C595.335 595.155 595.646 594.364 596.055 593.757C596.479 593.135 596.988 592.683 597.581 592.401C598.188 592.104 598.881 591.956 599.658 591.956C600.434 591.956 601.12 592.104 601.713 592.401C602.32 592.683 602.829 593.135 603.239 593.757C603.648 594.364 603.959 595.155 604.171 596.13C604.397 597.091 604.51 598.249 604.51 599.605C604.51 600.961 604.397 602.127 604.171 603.101C603.959 604.062 603.648 604.853 603.239 605.474C602.829 606.082 602.32 606.534 601.713 606.83C601.12 607.113 600.434 607.254 599.658 607.254ZM599.658 606.83C601.07 606.83 602.144 606.287 602.878 605.199C603.627 604.111 604.001 602.473 604.001 600.283V598.927C604.001 596.737 603.627 595.099 602.878 594.011C602.144 592.923 601.07 592.38 599.658 592.38C598.245 592.38 597.164 592.923 596.416 594.011C595.681 595.099 595.314 596.737 595.314 598.927V600.283C595.314 602.473 595.681 604.111 596.416 605.199C597.164 606.287 598.245 606.83 599.658 606.83ZM607.913 607H607.447V592.21H612.617C613.832 592.21 614.75 592.57 615.372 593.291C615.993 594.011 616.304 594.979 616.304 596.194C616.304 597.408 615.993 598.376 615.372 599.097C614.75 599.817 613.832 600.177 612.617 600.177H611.812L616.198 607H615.647L611.282 600.177H607.913V607ZM612.617 599.753C613.168 599.753 613.641 599.669 614.037 599.499C614.432 599.315 614.757 599.082 615.011 598.8C615.28 598.517 615.477 598.192 615.605 597.825C615.732 597.444 615.795 597.048 615.795 596.639V595.749C615.795 595.353 615.732 594.965 615.605 594.583C615.477 594.202 615.28 593.87 615.011 593.587C614.757 593.305 614.432 593.079 614.037 592.909C613.641 592.726 613.168 592.634 612.617 592.634H607.913V599.753H612.617ZM622.61 598.8L619.771 601.936V607H619.304V592.21H619.771V601.3H619.813L622.716 598.079L628.013 592.21H628.564L622.949 598.461L628.628 607H628.077L622.61 598.8ZM634.87 605.347H635.781L634.107 610.645H633.747L634.87 605.347ZM655.174 592.846H655.11V607H654.665V592.21H655.343L662.717 606.364H662.781V592.21H663.226V607H662.547L655.174 592.846ZM670.57 607V600.77L665.039 592.21H665.569L670.782 600.262H670.845L676.058 592.21H676.566L671.036 600.77V607H670.57ZM690.238 607V606.576H694.878V592.549H694.815L690.238 596.384L689.962 596.045L694.539 592.21H695.344V606.576H699.815V607H690.238ZM706.376 607.254C705.599 607.254 704.906 607.113 704.299 606.83C703.706 606.534 703.197 606.082 702.773 605.474C702.364 604.853 702.053 604.062 701.841 603.101C701.629 602.127 701.523 600.961 701.523 599.605C701.523 598.249 701.629 597.091 701.841 596.13C702.053 595.155 702.364 594.364 702.773 593.757C703.197 593.135 703.706 592.683 704.299 592.401C704.906 592.104 705.599 591.956 706.376 591.956C707.152 591.956 707.838 592.104 708.431 592.401C709.038 592.683 709.547 593.135 709.956 593.757C710.366 594.364 710.677 595.155 710.889 596.13C711.115 597.091 711.228 598.249 711.228 599.605C711.228 600.961 711.115 602.127 710.889 603.101C710.677 604.062 710.366 604.853 709.956 605.474C709.547 606.082 709.038 606.534 708.431 606.83C707.838 607.113 707.152 607.254 706.376 607.254ZM706.376 606.83C707.788 606.83 708.862 606.287 709.596 605.199C710.345 604.111 710.719 602.473 710.719 600.283V598.927C710.719 596.737 710.345 595.099 709.596 594.011C708.862 592.923 707.788 592.38 706.376 592.38C704.963 592.38 703.882 592.923 703.134 594.011C702.399 595.099 702.032 596.737 702.032 598.927V600.283C702.032 602.473 702.399 604.111 703.134 605.199C703.882 606.287 704.963 606.83 706.376 606.83ZM706.376 600.135C706.178 600.135 706.037 600.092 705.952 600.008C705.881 599.923 705.846 599.817 705.846 599.69V599.52C705.846 599.393 705.881 599.287 705.952 599.202C706.037 599.118 706.178 599.075 706.376 599.075C706.573 599.075 706.708 599.118 706.778 599.202C706.863 599.287 706.905 599.393 706.905 599.52V599.69C706.905 599.817 706.863 599.923 706.778 600.008C706.708 600.092 706.573 600.135 706.376 600.135ZM718.233 607.254C717.456 607.254 716.764 607.113 716.157 606.83C715.563 606.534 715.055 606.082 714.631 605.474C714.221 604.853 713.911 604.062 713.699 603.101C713.487 602.127 713.381 600.961 713.381 599.605C713.381 598.249 713.487 597.091 713.699 596.13C713.911 595.155 714.221 594.364 714.631 593.757C715.055 593.135 715.563 592.683 716.157 592.401C716.764 592.104 717.456 591.956 718.233 591.956C719.01 591.956 719.695 592.104 720.288 592.401C720.896 592.683 721.404 593.135 721.814 593.757C722.224 594.364 722.534 595.155 722.746 596.13C722.972 597.091 723.085 598.249 723.085 599.605C723.085 600.961 722.972 602.127 722.746 603.101C722.534 604.062 722.224 604.853 721.814 605.474C721.404 606.082 720.896 606.534 720.288 606.83C719.695 607.113 719.01 607.254 718.233 607.254ZM718.233 606.83C719.646 606.83 720.719 606.287 721.454 605.199C722.203 604.111 722.577 602.473 722.577 600.283V598.927C722.577 596.737 722.203 595.099 721.454 594.011C720.719 592.923 719.646 592.38 718.233 592.38C716.82 592.38 715.74 592.923 714.991 594.011C714.257 595.099 713.889 596.737 713.889 598.927V600.283C713.889 602.473 714.257 604.111 714.991 605.199C715.74 606.287 716.82 606.83 718.233 606.83ZM718.233 600.135C718.035 600.135 717.894 600.092 717.809 600.008C717.739 599.923 717.703 599.817 717.703 599.69V599.52C717.703 599.393 717.739 599.287 717.809 599.202C717.894 599.118 718.035 599.075 718.233 599.075C718.431 599.075 718.565 599.118 718.636 599.202C718.72 599.287 718.763 599.393 718.763 599.52V599.69C718.763 599.817 718.72 599.923 718.636 600.008C718.565 600.092 718.431 600.135 718.233 600.135ZM725.81 607V606.576H730.451V592.549H730.387L725.81 596.384L725.535 596.045L730.112 592.21H730.917V606.576H735.388V607H725.81ZM741.948 607.254C741.143 607.254 740.451 607.127 739.872 606.873C739.307 606.604 738.84 606.244 738.473 605.792C738.12 605.34 737.859 604.81 737.689 604.203C737.52 603.582 737.435 602.918 737.435 602.211C737.435 601.011 737.583 599.909 737.88 598.906C738.177 597.903 738.579 596.992 739.088 596.172C739.61 595.339 740.225 594.597 740.931 593.948C741.637 593.298 742.4 592.719 743.22 592.21H743.898C742.174 593.284 740.832 594.477 739.872 595.791C738.911 597.105 738.283 598.644 737.986 600.41L738.049 600.431C738.417 599.669 738.932 599.104 739.596 598.736C740.274 598.355 741.051 598.164 741.927 598.164C742.605 598.164 743.22 598.27 743.77 598.482C744.336 598.68 744.809 598.976 745.19 599.372C745.586 599.753 745.889 600.227 746.101 600.792C746.313 601.343 746.419 601.964 746.419 602.656C746.419 603.348 746.313 603.977 746.101 604.542C745.889 605.107 745.586 605.594 745.19 606.004C744.809 606.4 744.343 606.71 743.792 606.936C743.241 607.148 742.626 607.254 741.948 607.254ZM741.927 606.83C742.549 606.83 743.107 606.739 743.601 606.555C744.095 606.357 744.512 606.089 744.851 605.75C745.19 605.411 745.451 605.008 745.635 604.542C745.819 604.076 745.911 603.574 745.911 603.038V602.381C745.911 601.844 745.819 601.35 745.635 600.898C745.451 600.431 745.19 600.029 744.851 599.69C744.512 599.351 744.095 599.082 743.601 598.885C743.107 598.687 742.549 598.588 741.927 598.588C741.291 598.588 740.726 598.687 740.232 598.885C739.737 599.082 739.321 599.351 738.982 599.69C738.643 600.029 738.381 600.431 738.198 600.898C738.028 601.35 737.943 601.844 737.943 602.381V602.974C737.943 603.525 738.035 604.041 738.219 604.521C738.403 604.987 738.664 605.39 739.003 605.729C739.356 606.068 739.773 606.336 740.253 606.534C740.748 606.732 741.305 606.83 741.927 606.83ZM753.446 605.347H754.357L752.683 610.645H752.323L753.446 605.347ZM773.707 592.21V601.215C773.707 602.303 773.763 603.207 773.876 603.928C774.003 604.648 774.208 605.227 774.491 605.665C774.787 606.089 775.176 606.393 775.656 606.576C776.151 606.746 776.772 606.83 777.521 606.83C778.255 606.83 778.87 606.746 779.364 606.576C779.859 606.393 780.247 606.089 780.53 605.665C780.826 605.227 781.031 604.648 781.144 603.928C781.271 603.207 781.335 602.303 781.335 601.215V592.21H781.801V601.215C781.801 602.374 781.73 603.341 781.589 604.118C781.448 604.895 781.208 605.517 780.869 605.983C780.544 606.449 780.106 606.781 779.555 606.979C779.004 607.162 778.326 607.254 777.521 607.254C776.716 607.254 776.038 607.162 775.487 606.979C774.936 606.781 774.491 606.449 774.152 605.983C773.827 605.517 773.594 604.895 773.453 604.118C773.311 603.341 773.241 602.374 773.241 601.215V592.21H773.707ZM789.463 607.254C788.813 607.254 788.234 607.191 787.726 607.064C787.217 606.951 786.758 606.788 786.348 606.576C785.953 606.364 785.6 606.11 785.289 605.813C784.978 605.517 784.689 605.192 784.42 604.839L784.802 604.563C785.056 604.902 785.331 605.213 785.628 605.496C785.925 605.764 786.257 606.004 786.624 606.216C786.991 606.414 787.401 606.569 787.853 606.682C788.319 606.781 788.856 606.83 789.463 606.83C790.819 606.83 791.865 606.534 792.599 605.941C793.348 605.333 793.722 604.443 793.722 603.271C793.722 602.663 793.623 602.155 793.426 601.745C793.242 601.321 792.988 600.982 792.663 600.728C792.352 600.46 791.985 600.255 791.561 600.114C791.137 599.958 790.699 599.845 790.247 599.775L788.552 599.499C787.803 599.372 787.182 599.188 786.687 598.948C786.207 598.694 785.819 598.397 785.522 598.058C785.24 597.719 785.042 597.345 784.929 596.935C784.816 596.526 784.759 596.102 784.759 595.664C784.759 595.042 784.865 594.499 785.077 594.032C785.303 593.566 785.614 593.185 786.009 592.888C786.419 592.577 786.906 592.344 787.471 592.189C788.036 592.034 788.665 591.956 789.357 591.956C790.558 591.956 791.519 592.147 792.239 592.528C792.973 592.909 793.546 593.404 793.955 594.011L793.595 594.308C793.157 593.672 792.599 593.192 791.921 592.867C791.243 592.542 790.374 592.38 789.315 592.38C788.029 592.38 787.026 592.655 786.306 593.206C785.586 593.743 785.225 594.562 785.225 595.664C785.225 596.243 785.317 596.73 785.501 597.126C785.684 597.521 785.932 597.853 786.242 598.122C786.553 598.376 786.913 598.581 787.323 598.736C787.733 598.878 788.171 598.984 788.637 599.054L790.332 599.33C791.109 599.457 791.745 599.654 792.239 599.923C792.747 600.177 793.143 600.481 793.426 600.834C793.708 601.187 793.906 601.569 794.019 601.978C794.132 602.388 794.188 602.812 794.188 603.25C794.188 604.577 793.757 605.58 792.896 606.258C792.048 606.922 790.904 607.254 789.463 607.254ZM806.003 607L804.351 602.042H798.121L796.468 607H795.981L800.918 592.21H801.554L806.491 607H806.003ZM801.257 592.74H801.194L798.248 601.639H804.224L801.257 592.74Z" fill="#FFFAEE"/>
<path d="M279.504 649.287C278.628 649.287 277.809 649.125 277.046 648.8C276.297 648.475 275.64 648.009 275.075 647.401C274.51 646.794 274.065 646.059 273.74 645.198C273.415 644.336 273.253 643.361 273.253 642.274C273.253 641.2 273.415 640.232 273.74 639.371C274.065 638.495 274.51 637.753 275.075 637.146C275.64 636.538 276.297 636.072 277.046 635.747C277.809 635.422 278.628 635.26 279.504 635.26C280.365 635.26 281.178 635.422 281.94 635.747C282.703 636.072 283.367 636.538 283.932 637.146C284.497 637.753 284.942 638.495 285.267 639.371C285.592 640.232 285.754 641.2 285.754 642.274C285.754 643.361 285.592 644.336 285.267 645.198C284.942 646.059 284.497 646.794 283.932 647.401C283.367 648.009 282.703 648.475 281.94 648.8C281.178 649.125 280.365 649.287 279.504 649.287ZM279.504 648.927C280.337 648.927 281.107 648.771 281.813 648.461C282.534 648.136 283.148 647.698 283.657 647.147C284.179 646.582 284.589 645.918 284.886 645.155C285.182 644.378 285.331 643.538 285.331 642.634V641.913C285.331 641.009 285.182 640.176 284.886 639.413C284.589 638.65 284.179 637.986 283.657 637.421C283.148 636.856 282.534 636.418 281.813 636.108C281.107 635.783 280.337 635.62 279.504 635.62C278.67 635.62 277.893 635.783 277.173 636.108C276.467 636.418 275.852 636.856 275.329 637.421C274.821 637.986 274.418 638.65 274.122 639.413C273.825 640.176 273.677 641.009 273.677 641.913V642.634C273.677 643.538 273.825 644.378 274.122 645.155C274.418 645.918 274.821 646.582 275.329 647.147C275.852 647.698 276.467 648.136 277.173 648.461C277.893 648.771 278.67 648.927 279.504 648.927ZM279.525 645.685C278.706 645.685 278.049 645.395 277.554 644.816C277.06 644.237 276.813 643.389 276.813 642.274C276.813 641.158 277.06 640.31 277.554 639.731C278.049 639.152 278.713 638.862 279.546 638.862C280.125 638.862 280.591 638.989 280.945 639.243C281.312 639.484 281.566 639.801 281.707 640.197L281.368 640.303C281.227 639.964 281.001 639.703 280.69 639.519C280.379 639.321 279.998 639.222 279.546 639.222C278.84 639.222 278.275 639.462 277.851 639.943C277.441 640.423 277.236 641.129 277.236 642.062V642.485C277.236 643.46 277.448 644.181 277.872 644.647C278.296 645.099 278.854 645.325 279.546 645.325C280.012 645.325 280.408 645.219 280.733 645.007C281.058 644.795 281.305 644.505 281.474 644.138L281.792 644.308C281.623 644.689 281.34 645.014 280.945 645.282C280.563 645.551 280.09 645.685 279.525 645.685ZM296.044 649.668H286.848V649.202L292.548 643.439C293.268 642.718 293.819 642.005 294.201 641.299C294.596 640.578 294.794 639.823 294.794 639.032V638.396C294.794 637.916 294.716 637.471 294.561 637.061C294.419 636.651 294.201 636.298 293.904 636.002C293.607 635.705 293.233 635.472 292.781 635.302C292.343 635.133 291.827 635.048 291.234 635.048C290.132 635.048 289.264 635.316 288.628 635.853C288.006 636.376 287.554 637.089 287.272 637.993L286.848 637.909C287.116 636.948 287.611 636.164 288.331 635.557C289.052 634.935 290.019 634.624 291.234 634.624C292.562 634.624 293.572 634.992 294.264 635.726C294.956 636.447 295.302 637.449 295.302 638.735C295.302 639.681 295.09 640.557 294.667 641.362C294.257 642.153 293.65 642.952 292.844 643.757L287.378 649.245H296.044V649.668ZM303.219 649.923C302.442 649.923 301.75 649.781 301.142 649.499C300.549 649.202 300.04 648.75 299.617 648.143C299.207 647.521 298.896 646.73 298.684 645.77C298.472 644.795 298.366 643.63 298.366 642.274C298.366 640.917 298.472 639.759 298.684 638.799C298.896 637.824 299.207 637.033 299.617 636.425C300.04 635.804 300.549 635.352 301.142 635.069C301.75 634.773 302.442 634.624 303.219 634.624C303.996 634.624 304.681 634.773 305.274 635.069C305.882 635.352 306.39 635.804 306.8 636.425C307.209 637.033 307.52 637.824 307.732 638.799C307.958 639.759 308.071 640.917 308.071 642.274C308.071 643.63 307.958 644.795 307.732 645.77C307.52 646.73 307.209 647.521 306.8 648.143C306.39 648.75 305.882 649.202 305.274 649.499C304.681 649.781 303.996 649.923 303.219 649.923ZM303.219 649.499C304.631 649.499 305.705 648.955 306.439 647.867C307.188 646.78 307.563 645.141 307.563 642.952V641.595C307.563 639.406 307.188 637.767 306.439 636.68C305.705 635.592 304.631 635.048 303.219 635.048C301.806 635.048 300.726 635.592 299.977 636.68C299.242 637.767 298.875 639.406 298.875 641.595V642.952C298.875 645.141 299.242 646.78 299.977 647.867C300.726 648.955 301.806 649.499 303.219 649.499ZM303.219 642.803C303.021 642.803 302.88 642.761 302.795 642.676C302.724 642.591 302.689 642.485 302.689 642.358V642.189C302.689 642.062 302.724 641.956 302.795 641.871C302.88 641.786 303.021 641.744 303.219 641.744C303.417 641.744 303.551 641.786 303.621 641.871C303.706 641.956 303.748 642.062 303.748 642.189V642.358C303.748 642.485 303.706 642.591 303.621 642.676C303.551 642.761 303.417 642.803 303.219 642.803ZM319.759 649.668H310.563V649.202L316.263 643.439C316.983 642.718 317.534 642.005 317.916 641.299C318.311 640.578 318.509 639.823 318.509 639.032V638.396C318.509 637.916 318.431 637.471 318.276 637.061C318.135 636.651 317.916 636.298 317.619 636.002C317.322 635.705 316.948 635.472 316.496 635.302C316.058 635.133 315.542 635.048 314.949 635.048C313.847 635.048 312.979 635.316 312.343 635.853C311.721 636.376 311.269 637.089 310.987 637.993L310.563 637.909C310.831 636.948 311.326 636.164 312.046 635.557C312.767 634.935 313.734 634.624 314.949 634.624C316.277 634.624 317.287 634.992 317.979 635.726C318.671 636.447 319.017 637.449 319.017 638.735C319.017 639.681 318.806 640.557 318.382 641.362C317.972 642.153 317.365 642.952 316.56 643.757L311.093 649.245H319.759V649.668ZM326.934 649.923C326.129 649.923 325.437 649.796 324.857 649.541C324.292 649.273 323.826 648.913 323.459 648.461C323.106 648.009 322.844 647.479 322.675 646.872C322.505 646.25 322.421 645.586 322.421 644.88C322.421 643.679 322.569 642.577 322.866 641.574C323.162 640.571 323.565 639.66 324.073 638.841C324.596 638.007 325.211 637.266 325.917 636.616C326.623 635.966 327.386 635.387 328.205 634.879H328.883C327.16 635.952 325.818 637.146 324.857 638.459C323.897 639.773 323.268 641.313 322.972 643.079L323.035 643.1C323.402 642.337 323.918 641.772 324.582 641.405C325.26 641.023 326.037 640.833 326.913 640.833C327.591 640.833 328.205 640.939 328.756 641.15C329.321 641.348 329.794 641.645 330.176 642.04C330.571 642.422 330.875 642.895 331.087 643.46C331.299 644.011 331.405 644.633 331.405 645.325C331.405 646.017 331.299 646.645 331.087 647.211C330.875 647.776 330.571 648.263 330.176 648.673C329.794 649.068 329.328 649.379 328.777 649.605C328.226 649.817 327.612 649.923 326.934 649.923ZM326.913 649.499C327.534 649.499 328.092 649.407 328.587 649.223C329.081 649.026 329.498 648.757 329.837 648.418C330.176 648.079 330.437 647.677 330.621 647.211C330.804 646.744 330.896 646.243 330.896 645.706V645.049C330.896 644.512 330.804 644.018 330.621 643.566C330.437 643.1 330.176 642.697 329.837 642.358C329.498 642.019 329.081 641.751 328.587 641.553C328.092 641.355 327.534 641.256 326.913 641.256C326.277 641.256 325.712 641.355 325.218 641.553C324.723 641.751 324.306 642.019 323.967 642.358C323.628 642.697 323.367 643.1 323.183 643.566C323.014 644.018 322.929 644.512 322.929 645.049V645.643C322.929 646.193 323.021 646.709 323.205 647.189C323.388 647.656 323.65 648.058 323.989 648.397C324.342 648.736 324.758 649.005 325.239 649.202C325.733 649.4 326.291 649.499 326.913 649.499Z" fill="#FFFAEE"/>
<path d="M593.359 649.668L591.706 644.71H585.476L583.824 649.668H583.336L588.273 634.879H588.909L593.846 649.668H593.359ZM588.612 635.408H588.549L585.603 644.308H591.579L588.612 635.408ZM597.186 649.668V634.879H597.652V649.245H605.28V649.668H597.186ZM609.043 649.668V634.879H609.509V649.245H617.137V649.668H609.043ZM632.419 649.668H631.953V634.879H637.123C638.338 634.879 639.256 635.239 639.878 635.959C640.499 636.68 640.81 637.647 640.81 638.862C640.81 640.077 640.499 641.045 639.878 641.765C639.256 642.485 638.338 642.846 637.123 642.846H636.318L640.704 649.668H640.153L635.788 642.846H632.419V649.668ZM637.123 642.422C637.674 642.422 638.147 642.337 638.543 642.168C638.938 641.984 639.263 641.751 639.518 641.468C639.786 641.186 639.984 640.861 640.111 640.494C640.238 640.112 640.302 639.717 640.302 639.307V638.417C640.302 638.022 640.238 637.633 640.111 637.252C639.984 636.87 639.786 636.538 639.518 636.256C639.263 635.973 638.938 635.747 638.543 635.578C638.147 635.394 637.674 635.302 637.123 635.302H632.419V642.422H637.123ZM643.472 649.668V649.266H647.646V635.281H643.472V634.879H652.286V635.281H648.112V649.266H652.286V649.668H643.472ZM663.784 647.486H663.72C663.579 647.825 663.409 648.143 663.211 648.439C663.014 648.736 662.766 648.997 662.47 649.223C662.187 649.435 661.841 649.605 661.432 649.732C661.036 649.859 660.563 649.923 660.012 649.923C659.207 649.923 658.486 649.781 657.851 649.499C657.229 649.202 656.706 648.75 656.283 648.143C655.859 647.521 655.534 646.73 655.308 645.77C655.082 644.795 654.969 643.63 654.969 642.274C654.969 640.917 655.082 639.759 655.308 638.799C655.534 637.824 655.859 637.033 656.283 636.425C656.706 635.804 657.229 635.352 657.851 635.069C658.486 634.773 659.207 634.624 660.012 634.624C660.987 634.624 661.82 634.893 662.512 635.429C663.219 635.966 663.727 636.694 664.038 637.612L663.635 637.76C663.353 636.913 662.901 636.249 662.279 635.768C661.658 635.288 660.902 635.048 660.012 635.048C658.529 635.048 657.399 635.592 656.622 636.68C655.859 637.767 655.477 639.406 655.477 641.595V642.952C655.477 645.141 655.859 646.78 656.622 647.867C657.399 648.955 658.529 649.499 660.012 649.499C660.605 649.499 661.135 649.4 661.601 649.202C662.067 649.005 662.463 648.736 662.788 648.397C663.113 648.044 663.36 647.627 663.529 647.147C663.699 646.653 663.784 646.116 663.784 645.537V643.418H660.012V642.994H664.25V649.668H663.784V647.486ZM675.408 642.379H667.78V649.668H667.314V634.879H667.78V641.956H675.408V634.879H675.874V649.668H675.408V642.379ZM683.685 635.302V649.668H683.218V635.302H677.964V634.879H688.939V635.302H683.685ZM695.394 649.923C694.744 649.923 694.165 649.859 693.656 649.732C693.148 649.619 692.689 649.457 692.279 649.245C691.884 649.033 691.53 648.779 691.22 648.482C690.909 648.185 690.619 647.86 690.351 647.507L690.732 647.232C690.987 647.571 691.262 647.882 691.559 648.164C691.855 648.432 692.187 648.673 692.555 648.884C692.922 649.082 693.331 649.238 693.783 649.351C694.25 649.45 694.786 649.499 695.394 649.499C696.75 649.499 697.795 649.202 698.53 648.609C699.279 648.002 699.653 647.112 699.653 645.939C699.653 645.332 699.554 644.823 699.356 644.414C699.173 643.99 698.918 643.651 698.593 643.397C698.283 643.128 697.915 642.923 697.492 642.782C697.068 642.627 696.63 642.514 696.178 642.443L694.483 642.168C693.734 642.04 693.113 641.857 692.618 641.617C692.138 641.362 691.749 641.066 691.453 640.727C691.17 640.388 690.972 640.013 690.859 639.604C690.746 639.194 690.69 638.77 690.69 638.332C690.69 637.711 690.796 637.167 691.008 636.701C691.234 636.235 691.545 635.853 691.94 635.557C692.35 635.246 692.837 635.013 693.402 634.857C693.967 634.702 694.596 634.624 695.288 634.624C696.489 634.624 697.449 634.815 698.17 635.196C698.904 635.578 699.476 636.072 699.886 636.68L699.526 636.976C699.088 636.341 698.53 635.86 697.852 635.535C697.174 635.211 696.305 635.048 695.246 635.048C693.96 635.048 692.957 635.324 692.237 635.874C691.516 636.411 691.156 637.231 691.156 638.332C691.156 638.912 691.248 639.399 691.432 639.794C691.615 640.19 691.862 640.522 692.173 640.79C692.484 641.045 692.844 641.249 693.254 641.405C693.663 641.546 694.101 641.652 694.567 641.723L696.263 641.998C697.04 642.125 697.675 642.323 698.17 642.591C698.678 642.846 699.074 643.149 699.356 643.502C699.639 643.856 699.836 644.237 699.949 644.647C700.062 645.056 700.119 645.48 700.119 645.918C700.119 647.246 699.688 648.249 698.826 648.927C697.979 649.591 696.835 649.923 695.394 649.923ZM715.422 649.668H714.956V634.879H720.126C721.341 634.879 722.259 635.239 722.881 635.959C723.502 636.68 723.813 637.647 723.813 638.862C723.813 640.077 723.502 641.045 722.881 641.765C722.259 642.485 721.341 642.846 720.126 642.846H719.321L723.707 649.668H723.156L718.791 642.846H715.422V649.668ZM720.126 642.422C720.677 642.422 721.15 642.337 721.546 642.168C721.941 641.984 722.266 641.751 722.52 641.468C722.789 641.186 722.987 640.861 723.114 640.494C723.241 640.112 723.304 639.717 723.304 639.307V638.417C723.304 638.022 723.241 637.633 723.114 637.252C722.987 636.87 722.789 636.538 722.52 636.256C722.266 635.973 721.941 635.747 721.546 635.578C721.15 635.394 720.677 635.302 720.126 635.302H715.422V642.422H720.126ZM726.813 649.668V634.879H735.416V635.302H727.28V641.956H735.12V642.379H727.28V649.245H735.416V649.668H726.813ZM742.824 649.923C742.174 649.923 741.595 649.859 741.087 649.732C740.578 649.619 740.119 649.457 739.709 649.245C739.314 649.033 738.961 648.779 738.65 648.482C738.339 648.185 738.049 647.86 737.781 647.507L738.162 647.232C738.417 647.571 738.692 647.882 738.989 648.164C739.286 648.432 739.617 648.673 739.985 648.884C740.352 649.082 740.762 649.238 741.214 649.351C741.68 649.45 742.217 649.499 742.824 649.499C744.18 649.499 745.225 649.202 745.96 648.609C746.709 648.002 747.083 647.112 747.083 645.939C747.083 645.332 746.984 644.823 746.786 644.414C746.603 643.99 746.348 643.651 746.024 643.397C745.713 643.128 745.346 642.923 744.922 642.782C744.498 642.627 744.06 642.514 743.608 642.443L741.913 642.168C741.164 642.04 740.543 641.857 740.048 641.617C739.568 641.362 739.18 641.066 738.883 640.727C738.6 640.388 738.403 640.013 738.29 639.604C738.177 639.194 738.12 638.77 738.12 638.332C738.12 637.711 738.226 637.167 738.438 636.701C738.664 636.235 738.975 635.853 739.37 635.557C739.78 635.246 740.267 635.013 740.832 634.857C741.397 634.702 742.026 634.624 742.718 634.624C743.919 634.624 744.879 634.815 745.6 635.196C746.334 635.578 746.906 636.072 747.316 636.68L746.956 636.976C746.518 636.341 745.96 635.86 745.282 635.535C744.604 635.211 743.735 635.048 742.676 635.048C741.39 635.048 740.387 635.324 739.667 635.874C738.946 636.411 738.586 637.231 738.586 638.332C738.586 638.912 738.678 639.399 738.862 639.794C739.045 640.19 739.293 640.522 739.603 640.79C739.914 641.045 740.274 641.249 740.684 641.405C741.094 641.546 741.532 641.652 741.998 641.723L743.693 641.998C744.47 642.125 745.105 642.323 745.6 642.591C746.108 642.846 746.504 643.149 746.786 643.502C747.069 643.856 747.267 644.237 747.38 644.647C747.493 645.056 747.549 645.48 747.549 645.918C747.549 647.246 747.118 648.249 746.257 648.927C745.409 649.591 744.265 649.923 742.824 649.923ZM750.529 649.668V634.879H759.131V635.302H750.995V641.956H758.835V642.379H750.995V649.245H759.131V649.668H750.529ZM762.852 649.668H762.386V634.879H767.556C768.771 634.879 769.689 635.239 770.311 635.959C770.932 636.68 771.243 637.647 771.243 638.862C771.243 640.077 770.932 641.045 770.311 641.765C769.689 642.485 768.771 642.846 767.556 642.846H766.751L771.137 649.668H770.586L766.221 642.846H762.852V649.668ZM767.556 642.422C768.107 642.422 768.58 642.337 768.976 642.168C769.371 641.984 769.696 641.751 769.951 641.468C770.219 641.186 770.417 640.861 770.544 640.494C770.671 640.112 770.735 639.717 770.735 639.307V638.417C770.735 638.022 770.671 637.633 770.544 637.252C770.417 636.87 770.219 636.538 769.951 636.256C769.696 635.973 769.371 635.747 768.976 635.578C768.58 635.394 768.107 635.302 767.556 635.302H762.852V642.422H767.556ZM777.994 649.668L773.121 634.879H773.629L778.291 649.139H778.354L783.037 634.879H783.503L778.63 649.668H777.994ZM786.101 649.668V634.879H794.704V635.302H786.567V641.956H794.407V642.379H786.567V649.245H794.704V649.668H786.101ZM797.959 634.879H801.815C803.595 634.879 804.881 635.5 805.672 636.743C806.463 637.972 806.858 639.816 806.858 642.274C806.858 644.731 806.463 646.582 805.672 647.825C804.881 649.054 803.595 649.668 801.815 649.668H797.959V634.879ZM801.836 649.245C802.627 649.245 803.305 649.103 803.871 648.821C804.436 648.524 804.902 648.108 805.269 647.571C805.636 647.034 805.905 646.377 806.074 645.6C806.258 644.809 806.35 643.926 806.35 642.952V641.595C806.35 640.621 806.258 639.745 806.074 638.968C805.905 638.177 805.636 637.513 805.269 636.976C804.902 636.439 804.436 636.03 803.871 635.747C803.305 635.451 802.627 635.302 801.836 635.302H798.425V649.245H801.836Z" fill="#FFFAEE"/>
<path d="M436.73 625.763H464.947C467.427 625.763 469.445 627.781 469.445 630.261V658.478C469.445 660.958 467.427 662.976 464.947 662.976H436.73C434.25 662.976 432.233 660.958 432.233 658.478V630.261C432.233 627.781 434.25 625.763 436.73 625.763H436.73ZM464.947 628.311H436.73C435.655 628.311 434.781 629.186 434.781 630.261V638.893H453.474L445.638 631.612H449.384L458.584 640.165L450.442 647.736H466.897V630.261C466.897 629.186 466.022 628.311 464.947 628.311ZM436.73 660.428H464.947C466.022 660.428 466.897 659.553 466.897 658.478V650.285H450.303L458.139 657.566H454.393L445.193 649.013L453.335 641.441H434.78V658.478C434.78 659.553 435.655 660.428 436.73 660.428L436.73 660.428Z" fill="#FFFAEE"/>
<path d="M383.234 625.061C370.374 625.061 359.914 633.507 359.914 643.897C359.914 654.286 370.374 662.733 383.234 662.733C396.093 662.733 406.554 654.286 406.554 643.897C406.554 633.507 396.093 625.061 383.234 625.061ZM382.203 628.135V635.189C380.112 635.16 378.086 635.035 376.179 634.834C378.146 631.878 380.604 629.515 382.203 628.135ZM382.203 637.126V642.931H373.099C373.277 640.71 374.035 638.589 375.083 636.658C377.322 636.937 379.727 637.097 382.209 637.132L382.203 637.126ZM382.203 644.862V650.667C379.721 650.703 377.316 650.863 375.077 651.141C374.035 649.21 373.271 647.09 373.099 644.868H382.203V644.862ZM382.203 652.598V659.659C380.604 658.279 378.14 655.915 376.173 652.96C378.081 652.752 380.112 652.628 382.203 652.598ZM384.27 659.653V652.598C386.344 652.628 388.369 652.758 390.289 652.971C388.322 655.921 385.87 658.279 384.27 659.659V659.653ZM384.27 650.661V644.856H393.375C393.197 647.084 392.439 649.204 391.39 651.135C389.151 650.857 386.752 650.691 384.27 650.655V650.661ZM384.27 642.925V637.121C386.752 637.085 389.151 636.919 391.39 636.641C392.439 638.572 393.203 640.698 393.375 642.919H384.27V642.925ZM384.27 635.189V628.135C385.87 629.515 388.322 631.872 390.289 634.822C388.369 635.035 386.344 635.16 384.27 635.195V635.189ZM386.207 627.163C391.42 627.744 396.034 629.841 399.322 632.868C397.497 633.566 395.163 634.129 392.539 634.526C390.579 631.345 388.038 628.78 386.207 627.163ZM373.922 634.544C371.298 634.147 368.976 633.584 367.134 632.879C370.422 629.841 375.042 627.744 380.266 627.157C378.436 628.78 375.889 631.351 373.928 634.538L373.922 634.544ZM372.921 636.345C371.908 638.364 371.18 640.58 371.02 642.925H362.016C362.241 639.774 363.556 636.854 365.665 634.396C367.602 635.213 370.084 635.877 372.921 636.345ZM371.02 644.862C371.18 647.208 371.908 649.423 372.921 651.443C370.09 651.911 367.608 652.569 365.665 653.392C363.556 650.934 362.241 648.014 362.016 644.862H371.014H371.02ZM373.922 653.244C375.889 656.431 378.43 659.001 380.26 660.624C375.036 660.038 370.416 657.941 367.128 654.902C368.976 654.198 371.292 653.635 373.916 653.238L373.922 653.244ZM392.534 653.262C395.163 653.659 397.491 654.227 399.316 654.92C396.028 657.947 391.414 660.044 386.201 660.624C388.032 659.001 390.567 656.437 392.534 653.262ZM393.546 651.449C394.565 649.423 395.294 647.208 395.454 644.856H404.451C404.226 648.014 402.905 650.94 400.791 653.404C398.86 652.58 396.378 651.917 393.546 651.449ZM395.454 642.925C395.294 640.58 394.565 638.358 393.546 636.333C396.378 635.865 398.854 635.201 400.791 634.378C402.905 636.842 404.226 639.768 404.451 642.925H395.454Z" fill="#FFFAEE"/>
<path d="M520.006 661.889C506.062 661.889 494.722 653.627 494.722 643.472C494.722 633.317 506.062 625.061 520.006 625.061C533.95 625.061 545.29 633.323 545.29 643.472C545.29 653.621 533.95 661.883 520.006 661.883V661.889ZM520.006 626.795C507.019 626.795 496.456 634.281 496.456 643.472C496.456 652.663 507.019 660.149 520.006 660.149C532.993 660.149 543.556 652.669 543.556 643.472C543.556 634.275 532.993 626.795 520.006 626.795Z" fill="#FFFAEE"/>
<path d="M533.968 649.755C530.278 649.329 527.434 646.66 527.434 643.478C527.434 640.295 530.272 637.621 533.968 637.2V634.246C528.643 634.701 524.497 638.707 524.497 643.478C524.497 648.248 528.637 652.254 533.968 652.71V649.755Z" fill="#FFFAEE"/>
<path d="M523.942 649.755C520.251 649.329 517.408 646.66 517.408 643.478C517.408 640.295 520.246 637.621 523.942 637.2V634.246C518.616 634.701 514.47 638.707 514.47 643.478C514.47 648.248 518.611 652.254 523.942 652.71V649.755Z" fill="#FFFAEE"/>
<path d="M514.471 649.755C510.78 649.329 507.936 646.66 507.936 643.478C507.936 640.295 510.774 637.621 514.471 637.2V634.246C509.145 634.701 504.999 638.707 504.999 643.478C504.999 648.248 509.139 652.254 514.471 652.71V649.755Z" fill="#FFFAEE"/>
<rect x="257.5" y="510.5" width="92" height="38" rx="19" stroke="#FFFAEE"/>
<rect x="493.5" y="510.5" width="92" height="38" rx="19" stroke="#FFFAEE"/>
<rect x="733.5" y="510.5" width="92" height="38" rx="19" stroke="#FFFAEE"/>
</svg>
