<svg width="1080" height="1080" viewBox="0 0 1080 1080" fill="none" xmlns="http://www.w3.org/2000/svg">
<rect width="1080" height="1080" fill="#191919"/>
<path d="M383.957 395.584L386.155 399.479H384.985L382.93 395.763L383.957 395.584ZM382.835 395.262C383.368 395.262 383.774 395.202 384.053 395.083C384.332 394.955 384.523 394.768 384.626 394.521C384.738 394.274 384.794 393.964 384.794 393.589C384.794 393.215 384.738 392.904 384.626 392.658C384.523 392.411 384.332 392.228 384.053 392.108C383.774 391.981 383.368 391.917 382.835 391.917H381.019V395.262H382.835ZM382.894 396.146H381.019V399.479H379.991V391.033H382.882C383.615 391.033 384.192 391.141 384.614 391.356C385.044 391.563 385.351 391.857 385.534 392.24C385.717 392.622 385.809 393.072 385.809 393.589C385.809 393.98 385.765 394.334 385.678 394.653C385.59 394.963 385.439 395.23 385.224 395.453C385.009 395.676 384.71 395.847 384.328 395.967C383.953 396.086 383.476 396.146 382.894 396.146ZM387.085 391.033H392.102V391.905H388.112V394.808H391.827V395.668H388.112V398.606H392.161V399.479H387.085V391.033ZM397.807 393.04C397.759 392.594 397.572 392.275 397.245 392.084C396.919 391.893 396.473 391.798 395.907 391.798C395.278 391.798 394.812 391.921 394.51 392.168C394.207 392.407 394.056 392.753 394.056 393.207C394.056 393.462 394.107 393.673 394.211 393.84C394.322 394 394.462 394.131 394.629 394.234C394.804 394.338 394.983 394.422 395.167 394.485C395.358 394.541 395.533 394.593 395.692 394.641L396.552 394.879C396.783 394.943 397.038 395.027 397.317 395.13C397.596 395.226 397.862 395.361 398.117 395.536C398.372 395.712 398.579 395.935 398.738 396.205C398.898 396.468 398.977 396.799 398.977 397.197C398.977 397.675 398.866 398.097 398.643 398.463C398.42 398.829 398.077 399.116 397.615 399.323C397.161 399.53 396.584 399.634 395.883 399.634C394.92 399.634 394.183 399.435 393.673 399.037C393.164 398.63 392.881 398.077 392.825 397.376H393.865C393.904 397.727 394.012 398.001 394.187 398.2C394.362 398.399 394.593 398.543 394.88 398.63C395.175 398.71 395.509 398.75 395.883 398.75C396.544 398.75 397.054 398.618 397.412 398.356C397.779 398.093 397.962 397.699 397.962 397.173C397.962 396.87 397.882 396.631 397.723 396.456C397.572 396.273 397.369 396.13 397.114 396.026C396.859 395.923 396.58 395.827 396.278 395.74L395.202 395.441C394.526 395.25 393.996 394.983 393.614 394.641C393.239 394.298 393.052 393.836 393.052 393.255C393.052 392.761 393.172 392.343 393.411 392.001C393.65 391.65 393.988 391.383 394.426 391.2C394.864 391.009 395.37 390.914 395.943 390.914C396.532 390.914 397.034 391.005 397.448 391.188C397.87 391.364 398.197 391.61 398.428 391.929C398.667 392.247 398.794 392.618 398.81 393.04H397.807ZM406.859 395.25C406.859 396.651 406.544 397.727 405.915 398.475C405.294 399.224 404.386 399.598 403.191 399.598C402.005 399.598 401.097 399.224 400.468 398.475C399.847 397.727 399.536 396.651 399.536 395.25C399.536 393.848 399.847 392.777 400.468 392.036C401.097 391.288 402.005 390.914 403.191 390.914C404.386 390.914 405.294 391.288 405.915 392.036C406.544 392.777 406.859 393.848 406.859 395.25ZM405.831 395.25C405.831 394.071 405.612 393.203 405.174 392.646C404.744 392.08 404.087 391.798 403.203 391.798C402.311 391.798 401.646 392.08 401.208 392.646C400.778 393.203 400.563 394.071 400.563 395.25C400.563 396.428 400.778 397.3 401.208 397.866C401.646 398.431 402.311 398.714 403.203 398.714C404.087 398.714 404.744 398.431 405.174 397.866C405.612 397.3 405.831 396.428 405.831 395.25ZM408.002 391.033H409.03V398.583H412.948V399.479H408.002V391.033ZM419.514 391.033V396.647C419.514 397.229 419.403 397.746 419.18 398.2C418.957 398.654 418.61 399.009 418.14 399.263C417.67 399.51 417.065 399.634 416.325 399.634C415.592 399.634 414.991 399.51 414.521 399.263C414.051 399.009 413.704 398.654 413.482 398.2C413.259 397.746 413.147 397.229 413.147 396.647V391.033H414.174V396.54C414.174 396.986 414.238 397.376 414.365 397.711C414.501 398.045 414.724 398.304 415.034 398.487C415.353 398.662 415.783 398.75 416.325 398.75C416.882 398.75 417.316 398.662 417.627 398.487C417.937 398.304 418.16 398.045 418.296 397.711C418.431 397.376 418.499 396.986 418.499 396.54V391.033H419.514ZM420.026 391.033H426.429V391.905H423.741V399.479H422.726V391.905H420.026V391.033ZM429.318 399.479H428.291V391.033H429.318V399.479ZM427 391.905V391.033H430.596V391.905H427ZM427 399.479V398.606H430.596V399.479H427ZM438.79 395.25C438.79 396.651 438.475 397.727 437.846 398.475C437.225 399.224 436.317 399.598 435.122 399.598C433.936 399.598 433.028 399.224 432.399 398.475C431.777 397.727 431.467 396.651 431.467 395.25C431.467 393.848 431.777 392.777 432.399 392.036C433.028 391.288 433.936 390.914 435.122 390.914C436.317 390.914 437.225 391.288 437.846 392.036C438.475 392.777 438.79 393.848 438.79 395.25ZM437.762 395.25C437.762 394.071 437.543 393.203 437.105 392.646C436.675 392.08 436.018 391.798 435.134 391.798C434.242 391.798 433.577 392.08 433.139 392.646C432.709 393.203 432.494 394.071 432.494 395.25C432.494 396.428 432.709 397.3 433.139 397.866C433.577 398.431 434.242 398.714 435.134 398.714C436.018 398.714 436.675 398.431 437.105 397.866C437.543 397.3 437.762 396.428 437.762 395.25ZM446.396 399.479H445.368L441.008 392.705H440.937V399.479H439.933V391.033H440.973L445.333 397.806H445.404V391.033H446.396V399.479Z" fill="#FFFAEE"/>
<path d="M489.701 303.904C489.067 303.904 488.501 303.773 488.004 303.509C487.507 303.246 487.112 302.871 486.819 302.383C486.536 301.896 486.395 301.315 486.395 300.643C486.395 299.97 486.536 299.389 486.819 298.902C487.112 298.414 487.507 298.044 488.004 297.79C488.501 297.527 489.067 297.395 489.701 297.395C490.335 297.395 490.9 297.527 491.397 297.79C491.895 298.044 492.285 298.414 492.568 298.902C492.86 299.389 493.006 299.97 493.006 300.643C493.006 301.315 492.86 301.896 492.568 302.383C492.285 302.871 491.895 303.246 491.397 303.509C490.9 303.773 490.335 303.904 489.701 303.904ZM489.701 303.158C490.403 303.158 490.993 302.944 491.471 302.515C491.948 302.086 492.187 301.462 492.187 300.643C492.187 299.833 491.948 299.209 491.471 298.77C490.993 298.331 490.403 298.112 489.701 298.112C488.989 298.112 488.394 298.331 487.916 298.77C487.438 299.209 487.199 299.833 487.199 300.643C487.199 301.189 487.307 301.652 487.521 302.032C487.746 302.403 488.048 302.685 488.428 302.88C488.808 303.066 489.233 303.158 489.701 303.158ZM488.443 299.004H489.145V302.266H488.443V299.004ZM488.867 299.004H489.876C490.081 299.004 490.276 299.034 490.461 299.092C490.656 299.141 490.812 299.243 490.929 299.399C491.046 299.545 491.105 299.76 491.105 300.043C491.105 300.335 491.046 300.56 490.929 300.716C490.812 300.862 490.656 300.964 490.461 301.023C490.276 301.072 490.081 301.096 489.876 301.096H488.867V300.482H489.818C490.013 300.482 490.159 300.457 490.257 300.408C490.354 300.35 490.403 300.228 490.403 300.043C490.403 299.848 490.354 299.726 490.257 299.677C490.159 299.628 490.013 299.604 489.818 299.604H488.867V299.004ZM489.628 300.73H490.359L491.237 302.266H490.476L489.628 300.73Z" fill="#FFFAEE"/>
<path d="M379.991 455.539H382.858C383.575 455.539 384.145 455.654 384.567 455.885C384.997 456.108 385.307 456.419 385.498 456.817C385.689 457.207 385.785 457.665 385.785 458.191C385.785 458.7 385.689 459.158 385.498 459.565C385.307 459.971 385.001 460.289 384.579 460.52C384.156 460.751 383.591 460.867 382.882 460.867H381.019V463.984H379.991V455.539ZM382.835 459.983C383.36 459.983 383.762 459.911 384.041 459.768C384.32 459.616 384.511 459.409 384.614 459.146C384.718 458.876 384.77 458.557 384.77 458.191C384.77 457.817 384.718 457.498 384.614 457.235C384.511 456.972 384.32 456.773 384.041 456.638C383.762 456.495 383.352 456.423 382.811 456.423H381.019V459.983H382.835ZM390.642 460.09L392.84 463.984H391.67L389.615 460.269L390.642 460.09ZM389.519 459.768C390.053 459.768 390.459 459.708 390.738 459.588C391.017 459.461 391.208 459.274 391.311 459.027C391.423 458.78 391.478 458.47 391.478 458.095C391.478 457.721 391.423 457.41 391.311 457.163C391.208 456.917 391.017 456.733 390.738 456.614C390.459 456.487 390.053 456.423 389.519 456.423H387.704V459.768H389.519ZM389.579 460.652H387.704V463.984H386.676V455.539H389.567C390.3 455.539 390.877 455.646 391.299 455.861C391.729 456.068 392.036 456.363 392.219 456.745C392.402 457.128 392.494 457.578 392.494 458.095C392.494 458.485 392.45 458.84 392.362 459.158C392.275 459.469 392.123 459.736 391.908 459.959C391.693 460.182 391.395 460.353 391.013 460.472C390.638 460.592 390.16 460.652 389.579 460.652ZM400.734 459.756C400.734 461.157 400.419 462.232 399.79 462.981C399.169 463.73 398.261 464.104 397.066 464.104C395.88 464.104 394.972 463.73 394.343 462.981C393.722 462.232 393.411 461.157 393.411 459.756C393.411 458.354 393.722 457.283 394.343 456.542C394.972 455.794 395.88 455.419 397.066 455.419C398.261 455.419 399.169 455.794 399.79 456.542C400.419 457.283 400.734 458.354 400.734 459.756ZM399.706 459.756C399.706 458.577 399.487 457.709 399.049 457.152C398.619 456.586 397.962 456.303 397.078 456.303C396.186 456.303 395.521 456.586 395.083 457.152C394.653 457.709 394.438 458.577 394.438 459.756C394.438 460.934 394.653 461.806 395.083 462.372C395.521 462.937 396.186 463.22 397.078 463.22C397.962 463.22 398.619 462.937 399.049 462.372C399.487 461.806 399.706 460.934 399.706 459.756ZM401.877 455.539H406.942V456.411H402.905V459.326H406.56V460.198H402.905V463.984H401.877V455.539ZM410.022 463.984H408.994V455.539H410.022V463.984ZM407.704 456.411V455.539H411.3V456.411H407.704ZM407.704 463.984V463.112H411.3V463.984H407.704ZM412.704 455.539H413.731V463.088H417.649V463.984H412.704V455.539ZM418.176 455.539H423.193V456.411H419.203V459.314H422.918V460.174H419.203V463.112H423.252V463.984H418.176V455.539Z" fill="#FFFAEE"/>
<path d="M493.988 392.323H493.928L491.371 399.479H490.356L493.45 391.033H494.501L497.607 399.479H496.532L493.988 392.323ZM496.042 397.137H491.885V396.241H496.042V397.137ZM502.763 393.04C502.715 392.594 502.528 392.275 502.202 392.084C501.875 391.893 501.429 391.798 500.864 391.798C500.235 391.798 499.769 391.921 499.466 392.168C499.164 392.407 499.012 392.753 499.012 393.207C499.012 393.462 499.064 393.673 499.168 393.84C499.279 394 499.419 394.131 499.586 394.234C499.761 394.338 499.94 394.422 500.123 394.485C500.314 394.541 500.49 394.593 500.649 394.641L501.509 394.879C501.74 394.943 501.995 395.027 502.273 395.13C502.552 395.226 502.819 395.361 503.074 395.536C503.329 395.712 503.536 395.935 503.695 396.205C503.854 396.468 503.934 396.799 503.934 397.197C503.934 397.675 503.822 398.097 503.599 398.463C503.376 398.829 503.034 399.116 502.572 399.323C502.118 399.53 501.541 399.634 500.84 399.634C499.876 399.634 499.14 399.435 498.63 399.037C498.12 398.63 497.838 398.077 497.782 397.376H498.821C498.861 397.727 498.969 398.001 499.144 398.2C499.319 398.399 499.55 398.543 499.837 398.63C500.131 398.71 500.466 398.75 500.84 398.75C501.501 398.75 502.011 398.618 502.369 398.356C502.735 398.093 502.919 397.699 502.919 397.173C502.919 396.87 502.839 396.631 502.68 396.456C502.528 396.273 502.325 396.13 502.07 396.026C501.816 395.923 501.537 395.827 501.234 395.74L500.159 395.441C499.482 395.25 498.953 394.983 498.57 394.641C498.196 394.298 498.009 393.836 498.009 393.255C498.009 392.761 498.128 392.343 498.367 392.001C498.606 391.65 498.945 391.383 499.383 391.2C499.821 391.009 500.326 390.914 500.9 390.914C501.489 390.914 501.991 391.005 502.405 391.188C502.827 391.364 503.153 391.61 503.384 391.929C503.623 392.247 503.751 392.618 503.767 393.04H502.763ZM504.851 391.033H507.718C508.435 391.033 509.004 391.149 509.426 391.379C509.856 391.602 510.167 391.913 510.358 392.311C510.549 392.701 510.645 393.159 510.645 393.685C510.645 394.195 510.549 394.653 510.358 395.059C510.167 395.465 509.86 395.783 509.438 396.014C509.016 396.245 508.451 396.361 507.742 396.361H505.878V399.479H504.851V391.033ZM507.694 395.477C508.22 395.477 508.622 395.405 508.901 395.262C509.179 395.11 509.37 394.903 509.474 394.641C509.577 394.37 509.629 394.051 509.629 393.685C509.629 393.311 509.577 392.992 509.474 392.729C509.37 392.466 509.179 392.267 508.901 392.132C508.622 391.989 508.212 391.917 507.67 391.917H505.878V395.477H507.694ZM511.536 391.033H516.553V391.905H512.563V394.808H516.278V395.668H512.563V398.606H516.613V399.479H511.536V391.033ZM523.086 393.625C522.99 393.004 522.751 392.546 522.369 392.251C521.987 391.949 521.477 391.798 520.84 391.798C520.004 391.798 519.363 392.084 518.917 392.658C518.479 393.223 518.26 394.087 518.26 395.25C518.26 396.412 518.479 397.281 518.917 397.854C519.363 398.427 520.004 398.714 520.84 398.714C521.477 398.714 521.987 398.563 522.369 398.26C522.751 397.957 522.994 397.5 523.098 396.886H524.137C524.009 397.762 523.659 398.435 523.086 398.905C522.52 399.367 521.772 399.598 520.84 399.598C519.677 399.598 518.785 399.224 518.164 398.475C517.543 397.727 517.232 396.651 517.232 395.25C517.232 393.848 517.543 392.777 518.164 392.036C518.785 391.288 519.677 390.914 520.84 390.914C521.421 390.914 521.943 391.017 522.405 391.224C522.867 391.423 523.245 391.726 523.54 392.132C523.842 392.538 524.037 393.036 524.125 393.625H523.086ZM524.073 391.033H530.476V391.905H527.788V399.479H526.773V391.905H524.073V391.033ZM537.75 395.584L539.948 399.479H538.777L536.723 395.763L537.75 395.584ZM536.627 395.262C537.161 395.262 537.567 395.202 537.845 395.083C538.124 394.955 538.315 394.768 538.419 394.521C538.53 394.274 538.586 393.964 538.586 393.589C538.586 393.215 538.53 392.904 538.419 392.658C538.315 392.411 538.124 392.228 537.845 392.108C537.567 391.981 537.161 391.917 536.627 391.917H534.811V395.262H536.627ZM536.687 396.146H534.811V399.479H533.784V391.033H536.675C537.407 391.033 537.985 391.141 538.407 391.356C538.837 391.563 539.143 391.857 539.327 392.24C539.51 392.622 539.601 393.072 539.601 393.589C539.601 393.98 539.558 394.334 539.47 394.653C539.382 394.963 539.231 395.23 539.016 395.453C538.801 395.676 538.502 395.847 538.12 395.967C537.746 396.086 537.268 396.146 536.687 396.146ZM543.78 392.323H543.72L541.164 399.479H540.148L543.242 391.033H544.293L547.399 399.479H546.324L543.78 392.323ZM545.834 397.137H541.677V396.241H545.834V397.137ZM546.613 391.033H553.016V391.905H550.328V399.479H549.313V391.905H546.613V391.033ZM555.904 399.479H554.877V391.033H555.904V399.479ZM553.587 391.905V391.033H557.183V391.905H553.587ZM553.587 399.479V398.606H557.183V399.479H553.587ZM565.376 395.25C565.376 396.651 565.061 397.727 564.432 398.475C563.811 399.224 562.903 399.598 561.709 399.598C560.522 399.598 559.614 399.224 558.985 398.475C558.364 397.727 558.053 396.651 558.053 395.25C558.053 393.848 558.364 392.777 558.985 392.036C559.614 391.288 560.522 390.914 561.709 390.914C562.903 390.914 563.811 391.288 564.432 392.036C565.061 392.777 565.376 393.848 565.376 395.25ZM564.349 395.25C564.349 394.071 564.13 393.203 563.692 392.646C563.262 392.08 562.605 391.798 561.721 391.798C560.829 391.798 560.164 392.08 559.726 392.646C559.296 393.203 559.081 394.071 559.081 395.25C559.081 396.428 559.296 397.3 559.726 397.866C560.164 398.431 560.829 398.714 561.721 398.714C562.605 398.714 563.262 398.431 563.692 397.866C564.13 397.3 564.349 396.428 564.349 395.25Z" fill="#FFFAEE"/>
<path d="M419.711 417.202V408.864H422.625C423.31 408.864 423.828 409.067 424.178 409.473C424.529 409.88 424.704 410.425 424.704 411.11C424.704 411.795 424.529 412.34 424.178 412.746C423.828 413.153 423.31 413.356 422.625 413.356H419.973V417.202H419.711ZM419.973 413.117H422.625C422.936 413.117 423.203 413.069 423.426 412.973C423.649 412.87 423.832 412.739 423.975 412.579C424.126 412.42 424.238 412.237 424.31 412.03C424.381 411.815 424.417 411.592 424.417 411.361V410.859C424.417 410.636 424.381 410.417 424.31 410.202C424.238 409.987 424.126 409.8 423.975 409.641C423.832 409.481 423.649 409.354 423.426 409.258C423.203 409.155 422.936 409.103 422.625 409.103H419.973V413.117ZM426.395 417.202V408.864H429.31C429.995 408.864 430.513 409.067 430.863 409.473C431.213 409.88 431.389 410.425 431.389 411.11C431.389 411.795 431.213 412.34 430.863 412.746C430.513 413.153 429.995 413.356 429.31 413.356H426.658V417.202H426.395ZM426.658 413.117H429.31C429.621 413.117 429.887 413.069 430.11 412.973C430.333 412.87 430.517 412.739 430.66 412.579C430.811 412.42 430.923 412.237 430.994 412.03C431.066 411.815 431.102 411.592 431.102 411.361V410.859C431.102 410.636 431.066 410.417 430.994 410.202C430.923 409.987 430.811 409.8 430.66 409.641C430.517 409.481 430.333 409.354 430.11 409.258C429.887 409.155 429.621 409.103 429.31 409.103H426.658V413.117ZM432.889 417.202V416.975H435.242V409.091H432.889V408.864H437.858V409.091H435.505V416.975H437.858V417.202H432.889Z" fill="#FFFAEE"/>
<path d="M526.24 417.202L525.428 408.864H525.679L526.467 416.939H526.515L528.164 411.421H528.486L530.135 416.939H530.183L530.971 408.864H531.21L530.398 417.202H529.944L528.343 411.779H528.307L526.694 417.202H526.24ZM535.004 417.262C534.733 417.262 534.598 417.154 534.598 416.939V416.844C534.598 416.629 534.733 416.521 535.004 416.521C535.275 416.521 535.41 416.629 535.41 416.844V416.939C535.41 417.154 535.275 417.262 535.004 417.262ZM535.004 411.719C534.733 411.719 534.598 411.612 534.598 411.397V411.301C534.598 411.086 534.733 410.979 535.004 410.979C535.275 410.979 535.41 411.086 535.41 411.301V411.397C535.41 411.612 535.275 411.719 535.004 411.719ZM543.839 413.093H539.538V417.202H539.276V408.864H539.538V412.854H543.839V408.864H544.102V417.202H543.839V413.093Z" fill="#FFFAEE"/>
<path d="M380.153 433.202V429.948L386.391 418.183C386.707 417.596 386.888 417.087 386.933 416.658C386.978 416.206 387.001 415.652 387.001 414.997C387.001 414.703 386.99 414.398 386.967 414.081C386.967 413.742 386.911 413.448 386.798 413.2C386.685 412.951 386.515 412.748 386.289 412.59C386.063 412.409 385.735 412.318 385.306 412.318C384.786 412.318 384.368 412.465 384.051 412.759C383.758 413.053 383.611 413.482 383.611 414.047V416.014H380.153V414.115C380.153 413.392 380.288 412.714 380.56 412.081C380.831 411.448 381.204 410.894 381.678 410.42C382.13 409.945 382.673 409.572 383.306 409.301C383.938 409.007 384.616 408.86 385.34 408.86C386.244 408.86 387.012 409.03 387.645 409.369C388.301 409.685 388.843 410.126 389.272 410.691C389.679 411.256 389.973 411.9 390.154 412.623C390.357 413.347 390.459 414.115 390.459 414.929C390.459 415.516 390.448 416.014 390.425 416.42C390.402 416.805 390.357 417.178 390.289 417.539C390.222 417.901 390.109 418.263 389.95 418.624C389.792 418.986 389.578 419.427 389.306 419.946L384.221 429.744H390.459V433.202H380.153ZM401.717 409.064V412.318H394.869V418.828C395.185 418.511 395.592 418.251 396.089 418.048C396.586 417.822 397.14 417.709 397.75 417.709C398.926 417.709 399.875 418.07 400.598 418.794C401.344 419.494 401.717 420.557 401.717 421.98V428.219C401.717 429.032 401.57 429.755 401.276 430.388C401.005 431.021 400.632 431.564 400.157 432.016C399.683 432.468 399.129 432.818 398.496 433.067C397.886 433.293 397.242 433.406 396.564 433.406C395.886 433.406 395.23 433.293 394.597 433.067C393.987 432.818 393.445 432.468 392.97 432.016C392.496 431.564 392.111 431.021 391.817 430.388C391.546 429.755 391.411 429.032 391.411 428.219V427.201H394.869V428.083C394.869 428.671 395.027 429.134 395.343 429.473C395.682 429.789 396.112 429.948 396.632 429.948C397.151 429.948 397.547 429.789 397.818 429.473C398.112 429.156 398.259 428.716 398.259 428.151V422.489C398.259 422.014 398.101 421.608 397.784 421.269C397.49 420.93 397.106 420.76 396.632 420.76C396.338 420.76 396.089 420.816 395.886 420.93C395.682 421.02 395.513 421.133 395.377 421.269C395.242 421.404 395.14 421.551 395.072 421.709C394.959 421.913 394.891 422.037 394.869 422.082H391.817V409.064H401.717ZM402.669 414.047C402.669 413.234 402.804 412.51 403.075 411.878C403.369 411.245 403.753 410.702 404.228 410.25C404.703 409.798 405.245 409.459 405.855 409.233C406.488 408.985 407.144 408.86 407.822 408.86C408.5 408.86 409.144 408.985 409.754 409.233C410.387 409.459 410.941 409.798 411.415 410.25C411.89 410.702 412.263 411.245 412.534 411.878C412.828 412.51 412.975 413.234 412.975 414.047V428.219C412.975 429.032 412.828 429.755 412.534 430.388C412.263 431.021 411.89 431.564 411.415 432.016C410.941 432.468 410.387 432.818 409.754 433.067C409.144 433.293 408.5 433.406 407.822 433.406C407.144 433.406 406.488 433.293 405.855 433.067C405.245 432.818 404.703 432.468 404.228 432.016C403.753 431.564 403.369 431.021 403.075 430.388C402.804 429.755 402.669 429.032 402.669 428.219V414.047ZM406.127 428.219C406.127 428.716 406.285 429.134 406.601 429.473C406.918 429.789 407.325 429.948 407.822 429.948C408.319 429.948 408.726 429.789 409.042 429.473C409.359 429.134 409.517 428.716 409.517 428.219V414.047C409.517 413.55 409.359 413.143 409.042 412.827C408.726 412.488 408.319 412.318 407.822 412.318C407.325 412.318 406.918 412.488 406.601 412.827C406.285 413.143 406.127 413.55 406.127 414.047V428.219Z" fill="#FFFAEE"/>
<path d="M391.612 491.118V492.61C391.612 493.355 391.465 494.067 391.171 494.745C390.9 495.401 390.515 495.988 390.018 496.508C389.521 497.028 388.933 497.446 388.255 497.763C387.6 498.057 386.888 498.203 386.119 498.203C385.464 498.203 384.797 498.113 384.119 497.932C383.441 497.751 382.831 497.435 382.289 496.983C381.746 496.531 381.294 495.955 380.932 495.254C380.593 494.531 380.424 493.615 380.424 492.508V479.218C380.424 478.427 380.56 477.693 380.831 477.014C381.102 476.336 381.486 475.749 381.983 475.252C382.481 474.754 383.068 474.37 383.746 474.099C384.447 473.805 385.215 473.658 386.052 473.658C387.679 473.658 389.001 474.189 390.018 475.252C390.515 475.771 390.9 476.393 391.171 477.116C391.465 477.817 391.612 478.585 391.612 479.422V480.778H388.154V479.625C388.154 478.947 387.962 478.359 387.577 477.862C387.193 477.365 386.673 477.116 386.018 477.116C385.159 477.116 384.583 477.387 384.289 477.93C384.018 478.45 383.882 479.116 383.882 479.93V492.271C383.882 492.971 384.029 493.559 384.323 494.033C384.639 494.508 385.193 494.745 385.984 494.745C386.21 494.745 386.447 494.711 386.696 494.644C386.967 494.553 387.216 494.418 387.442 494.237C387.645 494.056 387.815 493.807 387.95 493.491C388.086 493.175 388.154 492.779 388.154 492.304V491.118H391.612ZM393.077 498V473.862H396.4L400.841 486.643H400.909L405.316 473.862H408.672V498H405.214V483.32H405.146L401.722 493.694H399.993L396.603 483.32H396.535V498H393.077ZM413.78 498V487.795L409.034 473.862H412.695L415.475 483.456H415.543L418.323 473.862H421.984L417.238 487.795V498H413.78ZM422.347 498V473.862H425.805V484.88H425.873L430.924 473.862H434.382L429.67 483.524L435.264 498H431.602L427.67 487.287L425.805 490.779V498H422.347Z" fill="#FFFAEE"/>
<path d="M497.281 433.202V429.609H490.398V426.354L495.382 409.064H499.043L493.856 426.354H497.281V419.472H500.739V426.354H502.4V429.609H500.739V433.202H497.281ZM502.775 433.202V429.744H506.233V433.202H502.775ZM502.775 425.506V422.048H506.233V425.506H502.775ZM517.745 409.064V412.318H510.896V418.828C511.213 418.511 511.62 418.251 512.117 418.048C512.614 417.822 513.168 417.709 513.778 417.709C514.953 417.709 515.903 418.07 516.626 418.794C517.372 419.494 517.745 420.557 517.745 421.98V428.219C517.745 429.032 517.598 429.755 517.304 430.388C517.033 431.021 516.66 431.564 516.185 432.016C515.71 432.468 515.157 432.818 514.524 433.067C513.914 433.293 513.269 433.406 512.591 433.406C511.913 433.406 511.258 433.293 510.625 433.067C510.015 432.818 509.472 432.468 508.998 432.016C508.523 431.564 508.139 431.021 507.845 430.388C507.574 429.755 507.438 429.032 507.438 428.219V427.201H510.896V428.083C510.896 428.671 511.055 429.134 511.371 429.473C511.71 429.789 512.139 429.948 512.659 429.948C513.179 429.948 513.575 429.789 513.846 429.473C514.14 429.156 514.287 428.716 514.287 428.151V422.489C514.287 422.014 514.128 421.608 513.812 421.269C513.518 420.93 513.134 420.76 512.659 420.76C512.365 420.76 512.117 420.816 511.913 420.93C511.71 421.02 511.54 421.133 511.405 421.269C511.269 421.404 511.168 421.551 511.1 421.709C510.987 421.913 510.919 422.037 510.896 422.082H507.845V409.064H517.745Z" fill="#FFFAEE"/>
<path d="M381.25 665.673V657.189H383.878C385.11 657.189 386.042 657.549 386.674 658.269C387.306 658.989 387.622 660.041 387.622 661.425C387.622 662.801 387.298 663.853 386.65 664.581C386.01 665.309 385.046 665.673 383.758 665.673H381.25ZM383.698 665.049C384.506 665.049 385.142 664.905 385.606 664.617C386.07 664.321 386.402 663.901 386.602 663.357C386.802 662.813 386.902 662.169 386.902 661.425C386.902 660.673 386.802 660.029 386.602 659.493C386.41 658.949 386.086 658.533 385.63 658.245C385.182 657.957 384.57 657.813 383.794 657.813H381.97V665.049H383.698ZM390.619 665.673H389.899V657.189H390.619V665.673ZM388.591 657.813V657.189H391.915V657.813H388.591ZM388.591 665.673V665.049H391.915V665.673H388.591ZM399.167 662.073H396.755V661.449H399.887V662.409C399.887 663.009 399.767 663.569 399.527 664.089C399.295 664.601 398.931 665.013 398.435 665.325C397.947 665.637 397.315 665.793 396.539 665.793C395.379 665.793 394.479 665.417 393.839 664.665C393.207 663.905 392.891 662.825 392.891 661.425C392.891 660.025 393.207 658.949 393.839 658.197C394.479 657.445 395.379 657.069 396.539 657.069C397.091 657.069 397.591 657.165 398.039 657.357C398.487 657.541 398.863 657.821 399.167 658.197C399.471 658.573 399.679 659.053 399.791 659.637H399.047C398.919 658.949 398.635 658.457 398.195 658.161C397.763 657.865 397.211 657.717 396.539 657.717C395.595 657.717 394.871 658.013 394.367 658.605C393.863 659.197 393.611 660.137 393.611 661.425C393.611 662.705 393.863 663.645 394.367 664.245C394.871 664.845 395.595 665.145 396.539 665.145C397.027 665.145 397.431 665.077 397.751 664.941C398.071 664.797 398.327 664.609 398.519 664.377C398.711 664.145 398.851 663.893 398.939 663.621C399.035 663.349 399.095 663.077 399.119 662.805C399.151 662.533 399.167 662.289 399.167 662.073ZM402.855 665.673H402.135V657.189H402.855V665.673ZM400.827 657.813V657.189H404.151V657.813H400.827ZM400.827 665.673V665.049H404.151V665.673H400.827ZM404.791 657.189H411.055V657.813H408.283V665.673H407.563V657.813H404.791V657.189ZM413.8 658.113H413.752L411.088 665.673H410.356L413.392 657.189H414.208L417.232 665.673H416.464L413.8 658.113ZM415.732 663.129H411.856V662.505H415.732V663.129ZM418.109 657.189H418.829V665.049H422.873V665.673H418.109V657.189ZM427.874 666.297H422.69V665.673H427.874V666.297ZM428.434 665.673V657.189H431.062C432.294 657.189 433.226 657.549 433.858 658.269C434.49 658.989 434.806 660.041 434.806 661.425C434.806 662.801 434.482 663.853 433.834 664.581C433.194 665.309 432.23 665.673 430.942 665.673H428.434ZM430.882 665.049C431.69 665.049 432.326 664.905 432.79 664.617C433.254 664.321 433.586 663.901 433.786 663.357C433.986 662.813 434.086 662.169 434.086 661.425C434.086 660.673 433.986 660.029 433.786 659.493C433.594 658.949 433.27 658.533 432.814 658.245C432.366 657.957 431.754 657.813 430.978 657.813H429.154V665.049H430.882ZM436.075 657.189H440.851V657.813H436.795V661.113H440.575V661.737H436.795V665.049H440.911V665.673H436.075V657.189ZM446.777 659.025C446.713 658.529 446.493 658.185 446.117 657.993C445.749 657.801 445.261 657.705 444.653 657.705C443.957 657.705 443.441 657.841 443.105 658.113C442.769 658.377 442.601 658.769 442.601 659.289C442.601 659.593 442.657 659.841 442.769 660.033C442.889 660.225 443.041 660.381 443.225 660.501C443.409 660.613 443.605 660.705 443.813 660.777C444.021 660.841 444.213 660.897 444.389 660.945L445.313 661.197C445.545 661.261 445.797 661.341 446.069 661.437C446.341 661.533 446.597 661.665 446.837 661.833C447.085 662.001 447.285 662.217 447.437 662.481C447.589 662.745 447.665 663.073 447.665 663.465C447.665 663.913 447.557 664.317 447.341 664.677C447.125 665.037 446.793 665.321 446.345 665.529C445.897 665.729 445.325 665.829 444.629 665.829C443.701 665.829 442.989 665.641 442.493 665.265C441.997 664.889 441.717 664.381 441.653 663.741H442.397C442.445 664.125 442.569 664.421 442.769 664.629C442.969 664.837 443.225 664.985 443.537 665.073C443.857 665.153 444.221 665.193 444.629 665.193C445.365 665.193 445.933 665.053 446.333 664.773C446.741 664.485 446.945 664.041 446.945 663.441C446.945 663.081 446.857 662.797 446.681 662.589C446.513 662.381 446.285 662.217 445.997 662.097C445.717 661.977 445.413 661.873 445.085 661.785L443.933 661.473C443.277 661.289 442.769 661.033 442.409 660.705C442.057 660.377 441.881 659.925 441.881 659.349C441.881 658.877 441.993 658.473 442.217 658.137C442.449 657.793 442.773 657.529 443.189 657.345C443.613 657.161 444.113 657.069 444.689 657.069C445.249 657.069 445.729 657.153 446.129 657.321C446.537 657.481 446.857 657.709 447.089 658.005C447.329 658.293 447.465 658.633 447.497 659.025H446.777ZM450.483 665.673H449.763V657.189H450.483V665.673ZM448.455 657.813V657.189H451.779V657.813H448.455ZM448.455 665.673V665.049H451.779V665.673H448.455ZM459.031 662.073H456.619V661.449H459.751V662.409C459.751 663.009 459.631 663.569 459.391 664.089C459.159 664.601 458.795 665.013 458.299 665.325C457.811 665.637 457.179 665.793 456.403 665.793C455.243 665.793 454.343 665.417 453.703 664.665C453.071 663.905 452.755 662.825 452.755 661.425C452.755 660.025 453.071 658.949 453.703 658.197C454.343 657.445 455.243 657.069 456.403 657.069C456.955 657.069 457.455 657.165 457.903 657.357C458.351 657.541 458.727 657.821 459.031 658.197C459.335 658.573 459.543 659.053 459.655 659.637H458.911C458.783 658.949 458.499 658.457 458.059 658.161C457.627 657.865 457.075 657.717 456.403 657.717C455.459 657.717 454.735 658.013 454.231 658.605C453.727 659.197 453.475 660.137 453.475 661.425C453.475 662.705 453.727 663.645 454.231 664.245C454.735 664.845 455.459 665.145 456.403 665.145C456.891 665.145 457.295 665.077 457.615 664.941C457.935 664.797 458.191 664.609 458.383 664.377C458.575 664.145 458.715 663.893 458.803 663.621C458.899 663.349 458.959 663.077 458.983 662.805C459.015 662.533 459.031 662.289 459.031 662.073ZM467.339 665.673H466.535L461.795 658.389H461.699V665.673H460.991V657.189H461.807L466.535 664.461H466.631V657.189H467.339V665.673ZM473.088 666.297H467.904V665.673H473.088V666.297ZM476.336 658.113H476.288L473.624 665.673H472.892L475.928 657.189H476.744L479.768 665.673H479L476.336 658.113ZM478.268 663.129H474.392V662.505H478.268V663.129ZM484.365 661.785L486.573 665.673H485.769L483.645 661.917L484.365 661.785ZM483.429 661.557C483.997 661.557 484.437 661.485 484.749 661.341C485.061 661.197 485.281 660.985 485.409 660.705C485.537 660.425 485.601 660.081 485.601 659.673C485.601 659.257 485.537 658.913 485.409 658.641C485.281 658.369 485.061 658.165 484.749 658.029C484.437 657.885 483.997 657.813 483.429 657.813H481.365V661.557H483.429ZM483.489 662.181H481.365V665.673H480.645V657.189H483.477C484.165 657.189 484.717 657.289 485.133 657.489C485.549 657.681 485.849 657.961 486.033 658.329C486.225 658.697 486.321 659.145 486.321 659.673C486.321 660.089 486.277 660.453 486.189 660.765C486.101 661.077 485.949 661.341 485.733 661.557C485.517 661.765 485.225 661.921 484.857 662.025C484.497 662.129 484.041 662.181 483.489 662.181ZM486.535 657.189H492.799V657.813H490.027V665.673H489.307V657.813H486.535V657.189ZM495.463 665.673H494.743V657.189H495.463V665.673ZM493.435 657.813V657.189H496.759V657.813H493.435ZM493.435 665.673V665.049H496.759V665.673H493.435ZM498.271 657.189H503.107V657.813H498.991V661.113H502.711V661.737H498.991V665.673H498.271V657.189ZM506.034 658.113H505.986L503.322 665.673H502.59L505.626 657.189H506.442L509.466 665.673H508.698L506.034 658.113ZM507.966 663.129H504.09V662.505H507.966V663.129ZM515.571 659.649C515.467 659.001 515.207 658.517 514.791 658.197C514.383 657.877 513.839 657.717 513.159 657.717C512.263 657.717 511.567 658.021 511.071 658.629C510.583 659.237 510.339 660.165 510.339 661.413C510.339 662.669 510.583 663.605 511.071 664.221C511.567 664.829 512.263 665.133 513.159 665.133C513.839 665.133 514.383 664.973 514.791 664.653C515.207 664.333 515.471 663.853 515.583 663.213H516.339C516.203 664.053 515.867 664.693 515.331 665.133C514.795 665.573 514.071 665.793 513.159 665.793C511.975 665.793 511.087 665.413 510.495 664.653C509.911 663.885 509.619 662.805 509.619 661.413C509.619 660.029 509.911 658.961 510.495 658.209C511.087 657.449 511.975 657.069 513.159 657.069C513.727 657.069 514.231 657.165 514.671 657.357C515.119 657.549 515.483 657.837 515.763 658.221C516.051 658.605 516.239 659.081 516.327 659.649H515.571ZM516.408 657.189H522.672V657.813H519.9V665.673H519.18V657.813H516.408V657.189ZM527.748 659.025C527.684 658.529 527.464 658.185 527.088 657.993C526.72 657.801 526.232 657.705 525.624 657.705C524.928 657.705 524.412 657.841 524.076 658.113C523.74 658.377 523.572 658.769 523.572 659.289C523.572 659.593 523.628 659.841 523.74 660.033C523.86 660.225 524.012 660.381 524.196 660.501C524.38 660.613 524.576 660.705 524.784 660.777C524.992 660.841 525.184 660.897 525.36 660.945L526.284 661.197C526.516 661.261 526.768 661.341 527.04 661.437C527.312 661.533 527.568 661.665 527.808 661.833C528.056 662.001 528.256 662.217 528.408 662.481C528.56 662.745 528.636 663.073 528.636 663.465C528.636 663.913 528.528 664.317 528.312 664.677C528.096 665.037 527.764 665.321 527.316 665.529C526.868 665.729 526.296 665.829 525.6 665.829C524.672 665.829 523.96 665.641 523.464 665.265C522.968 664.889 522.688 664.381 522.624 663.741H523.368C523.416 664.125 523.54 664.421 523.74 664.629C523.94 664.837 524.196 664.985 524.508 665.073C524.828 665.153 525.192 665.193 525.6 665.193C526.336 665.193 526.904 665.053 527.304 664.773C527.712 664.485 527.916 664.041 527.916 663.441C527.916 663.081 527.828 662.797 527.652 662.589C527.484 662.381 527.256 662.217 526.968 662.097C526.688 661.977 526.384 661.873 526.056 661.785L524.904 661.473C524.248 661.289 523.74 661.033 523.38 660.705C523.028 660.377 522.852 659.925 522.852 659.349C522.852 658.877 522.964 658.473 523.188 658.137C523.42 657.793 523.744 657.529 524.16 657.345C524.584 657.161 525.084 657.069 525.66 657.069C526.22 657.069 526.7 657.153 527.1 657.321C527.508 657.481 527.828 657.709 528.06 658.005C528.3 658.293 528.436 658.633 528.468 659.025H527.748ZM383.686 674.549L387.13 679.673H386.266L383.17 675.053L383.686 674.549ZM381.97 679.673H381.25V671.189H381.97V679.673ZM381.79 677.333V676.337L386.026 671.189H386.902L381.79 677.333ZM390.28 679.673H389.56V671.189H390.28V679.673ZM388.252 671.813V671.189H391.576V671.813H388.252ZM388.252 679.673V679.049H391.576V679.673H388.252ZM399.435 679.673H398.631L393.891 672.389H393.795V679.673H393.087V671.189H393.903L398.631 678.461H398.727V671.189H399.435V679.673ZM401.068 671.189H405.844V671.813H401.788V675.113H405.568V675.737H401.788V679.049H405.904V679.673H401.068V671.189ZM406.396 671.189H412.66V671.813H409.888V679.673H409.168V671.813H406.396V671.189ZM415.324 679.673H414.604V671.189H415.324V679.673ZM413.296 671.813V671.189H416.62V671.813H413.296ZM413.296 679.673V679.049H416.62V679.673H413.296ZM423.548 673.649C423.444 673.001 423.184 672.517 422.768 672.197C422.36 671.877 421.816 671.717 421.136 671.717C420.24 671.717 419.544 672.021 419.048 672.629C418.56 673.237 418.316 674.165 418.316 675.413C418.316 676.669 418.56 677.605 419.048 678.221C419.544 678.829 420.24 679.133 421.136 679.133C421.816 679.133 422.36 678.973 422.768 678.653C423.184 678.333 423.448 677.853 423.56 677.213H424.316C424.18 678.053 423.844 678.693 423.308 679.133C422.772 679.573 422.048 679.793 421.136 679.793C419.952 679.793 419.064 679.413 418.472 678.653C417.888 677.885 417.596 676.805 417.596 675.413C417.596 674.029 417.888 672.961 418.472 672.209C419.064 671.449 419.952 671.069 421.136 671.069C421.704 671.069 422.208 671.165 422.648 671.357C423.096 671.549 423.46 671.837 423.74 672.221C424.028 672.605 424.216 673.081 424.304 673.649H423.548ZM429.678 680.297H424.494V679.673H429.678V680.297ZM434.846 673.025C434.782 672.529 434.562 672.185 434.186 671.993C433.818 671.801 433.33 671.705 432.722 671.705C432.026 671.705 431.51 671.841 431.174 672.113C430.838 672.377 430.67 672.769 430.67 673.289C430.67 673.593 430.726 673.841 430.838 674.033C430.958 674.225 431.11 674.381 431.294 674.501C431.478 674.613 431.674 674.705 431.882 674.777C432.09 674.841 432.282 674.897 432.458 674.945L433.382 675.197C433.614 675.261 433.866 675.341 434.138 675.437C434.41 675.533 434.666 675.665 434.906 675.833C435.154 676.001 435.354 676.217 435.506 676.481C435.658 676.745 435.734 677.073 435.734 677.465C435.734 677.913 435.626 678.317 435.41 678.677C435.194 679.037 434.862 679.321 434.414 679.529C433.966 679.729 433.394 679.829 432.698 679.829C431.77 679.829 431.058 679.641 430.562 679.265C430.066 678.889 429.786 678.381 429.722 677.741H430.466C430.514 678.125 430.638 678.421 430.838 678.629C431.038 678.837 431.294 678.985 431.606 679.073C431.926 679.153 432.29 679.193 432.698 679.193C433.434 679.193 434.002 679.053 434.402 678.773C434.81 678.485 435.014 678.041 435.014 677.441C435.014 677.081 434.926 676.797 434.75 676.589C434.582 676.381 434.354 676.217 434.066 676.097C433.786 675.977 433.482 675.873 433.154 675.785L432.002 675.473C431.346 675.289 430.838 675.033 430.478 674.705C430.126 674.377 429.95 673.925 429.95 673.349C429.95 672.877 430.062 672.473 430.286 672.137C430.518 671.793 430.842 671.529 431.258 671.345C431.682 671.161 432.182 671.069 432.758 671.069C433.318 671.069 433.798 671.153 434.198 671.321C434.606 671.481 434.926 671.709 435.158 672.005C435.398 672.293 435.534 672.633 435.566 673.025H434.846ZM436.462 671.189L439.03 675.509H439.09L441.658 671.189H442.438L439.402 676.133V679.673H438.718V676.133L435.634 671.189H436.462ZM447.539 673.025C447.475 672.529 447.255 672.185 446.879 671.993C446.511 671.801 446.023 671.705 445.415 671.705C444.719 671.705 444.203 671.841 443.867 672.113C443.531 672.377 443.363 672.769 443.363 673.289C443.363 673.593 443.419 673.841 443.531 674.033C443.651 674.225 443.803 674.381 443.987 674.501C444.171 674.613 444.367 674.705 444.575 674.777C444.783 674.841 444.975 674.897 445.151 674.945L446.075 675.197C446.307 675.261 446.559 675.341 446.831 675.437C447.103 675.533 447.359 675.665 447.599 675.833C447.847 676.001 448.047 676.217 448.199 676.481C448.351 676.745 448.427 677.073 448.427 677.465C448.427 677.913 448.319 678.317 448.103 678.677C447.887 679.037 447.555 679.321 447.107 679.529C446.659 679.729 446.087 679.829 445.391 679.829C444.463 679.829 443.751 679.641 443.255 679.265C442.759 678.889 442.479 678.381 442.415 677.741H443.159C443.207 678.125 443.331 678.421 443.531 678.629C443.731 678.837 443.987 678.985 444.299 679.073C444.619 679.153 444.983 679.193 445.391 679.193C446.127 679.193 446.695 679.053 447.095 678.773C447.503 678.485 447.707 678.041 447.707 677.441C447.707 677.081 447.619 676.797 447.443 676.589C447.275 676.381 447.047 676.217 446.759 676.097C446.479 675.977 446.175 675.873 445.847 675.785L444.695 675.473C444.039 675.289 443.531 675.033 443.171 674.705C442.819 674.377 442.643 673.925 442.643 673.349C442.643 672.877 442.755 672.473 442.979 672.137C443.211 671.793 443.535 671.529 443.951 671.345C444.375 671.161 444.875 671.069 445.451 671.069C446.011 671.069 446.491 671.153 446.891 671.321C447.299 671.481 447.619 671.709 447.851 672.005C448.091 672.293 448.227 672.633 448.259 673.025H447.539ZM448.317 671.189H454.581V671.813H451.809V679.673H451.089V671.813H448.317V671.189ZM455.201 671.189H459.977V671.813H455.921V675.113H459.701V675.737H455.921V679.049H460.037V679.673H455.201V671.189ZM462.157 671.189L465.277 678.461H465.361L468.481 671.189H469.201V679.673H468.505V672.905H468.445L465.505 679.673H465.097L462.157 672.905H462.109V679.673H461.413V671.189H462.157ZM475.443 673.025C475.379 672.529 475.159 672.185 474.783 671.993C474.415 671.801 473.927 671.705 473.319 671.705C472.623 671.705 472.107 671.841 471.771 672.113C471.435 672.377 471.267 672.769 471.267 673.289C471.267 673.593 471.323 673.841 471.435 674.033C471.555 674.225 471.707 674.381 471.891 674.501C472.075 674.613 472.271 674.705 472.479 674.777C472.687 674.841 472.879 674.897 473.055 674.945L473.979 675.197C474.211 675.261 474.463 675.341 474.735 675.437C475.007 675.533 475.263 675.665 475.503 675.833C475.751 676.001 475.951 676.217 476.103 676.481C476.255 676.745 476.331 677.073 476.331 677.465C476.331 677.913 476.223 678.317 476.007 678.677C475.791 679.037 475.459 679.321 475.011 679.529C474.563 679.729 473.991 679.829 473.295 679.829C472.367 679.829 471.655 679.641 471.159 679.265C470.663 678.889 470.383 678.381 470.319 677.741H471.063C471.111 678.125 471.235 678.421 471.435 678.629C471.635 678.837 471.891 678.985 472.203 679.073C472.523 679.153 472.887 679.193 473.295 679.193C474.031 679.193 474.599 679.053 474.999 678.773C475.407 678.485 475.611 678.041 475.611 677.441C475.611 677.081 475.523 676.797 475.347 676.589C475.179 676.381 474.951 676.217 474.663 676.097C474.383 675.977 474.079 675.873 473.751 675.785L472.599 675.473C471.943 675.289 471.435 675.033 471.075 674.705C470.723 674.377 470.547 673.925 470.547 673.349C470.547 672.877 470.659 672.473 470.883 672.137C471.115 671.793 471.439 671.529 471.855 671.345C472.279 671.161 472.779 671.069 473.355 671.069C473.915 671.069 474.395 671.153 474.795 671.321C475.203 671.481 475.523 671.709 475.755 672.005C475.995 672.293 476.131 672.633 476.163 673.025H475.443ZM381.25 685.189H384.082C384.762 685.189 385.31 685.297 385.726 685.513C386.142 685.721 386.446 686.017 386.638 686.401C386.83 686.785 386.926 687.241 386.926 687.769C386.926 688.297 386.83 688.757 386.638 689.149C386.446 689.541 386.142 689.845 385.726 690.061C385.318 690.277 384.778 690.385 384.106 690.385H381.97V693.673H381.25V685.189ZM384.058 689.761C384.618 689.761 385.054 689.681 385.366 689.521C385.678 689.353 385.894 689.121 386.014 688.825C386.142 688.521 386.206 688.169 386.206 687.769C386.206 687.361 386.142 687.013 386.014 686.725C385.894 686.429 385.678 686.205 385.366 686.053C385.054 685.893 384.61 685.813 384.034 685.813H381.97V689.761H384.058ZM389.565 693.673H388.845V685.189H389.565V693.673ZM387.537 685.813V685.189H390.861V685.813H387.537ZM387.537 693.673V693.049H390.861V693.673H387.537ZM395.382 689.017L397.854 685.189H398.646L395.85 689.521L395.382 689.017ZM395.538 689.761L393.042 693.673H392.25L395.058 689.269L395.538 689.761ZM394.986 689.461L392.238 685.189H393.078L395.49 688.909L395.874 689.389L398.694 693.673H397.83L395.298 689.701L394.986 689.461ZM399.803 685.189H404.579V685.813H400.523V689.113H404.303V689.737H400.523V693.049H404.639V693.673H399.803V685.189ZM406.014 685.189H406.734V693.049H410.778V693.673H406.014V685.189ZM415.943 687.025C415.879 686.529 415.659 686.185 415.283 685.993C414.915 685.801 414.427 685.705 413.819 685.705C413.123 685.705 412.607 685.841 412.271 686.113C411.935 686.377 411.767 686.769 411.767 687.289C411.767 687.593 411.823 687.841 411.935 688.033C412.055 688.225 412.207 688.381 412.391 688.501C412.575 688.613 412.771 688.705 412.979 688.777C413.187 688.841 413.379 688.897 413.555 688.945L414.479 689.197C414.711 689.261 414.963 689.341 415.235 689.437C415.507 689.533 415.763 689.665 416.003 689.833C416.251 690.001 416.451 690.217 416.603 690.481C416.755 690.745 416.831 691.073 416.831 691.465C416.831 691.913 416.723 692.317 416.507 692.677C416.291 693.037 415.959 693.321 415.511 693.529C415.063 693.729 414.491 693.829 413.795 693.829C412.867 693.829 412.155 693.641 411.659 693.265C411.163 692.889 410.883 692.381 410.819 691.741H411.563C411.611 692.125 411.735 692.421 411.935 692.629C412.135 692.837 412.391 692.985 412.703 693.073C413.023 693.153 413.387 693.193 413.795 693.193C414.531 693.193 415.099 693.053 415.499 692.773C415.907 692.485 416.111 692.041 416.111 691.441C416.111 691.081 416.023 690.797 415.847 690.589C415.679 690.381 415.451 690.217 415.163 690.097C414.883 689.977 414.579 689.873 414.251 689.785L413.099 689.473C412.443 689.289 411.935 689.033 411.575 688.705C411.223 688.377 411.047 687.925 411.047 687.349C411.047 686.877 411.159 686.473 411.383 686.137C411.615 685.793 411.939 685.529 412.355 685.345C412.779 685.161 413.279 685.069 413.855 685.069C414.415 685.069 414.895 685.153 415.295 685.321C415.703 685.481 416.023 685.709 416.255 686.005C416.495 686.293 416.631 686.633 416.663 687.025H415.943ZM421.943 694.297H416.759V693.673H421.943V694.297ZM422.504 685.189H427.34V685.813H423.224V689.113H426.944V689.737H423.224V693.673H422.504V685.189ZM435.038 689.425C435.038 690.825 434.734 691.905 434.126 692.665C433.526 693.417 432.642 693.793 431.474 693.793C430.306 693.793 429.418 693.417 428.81 692.665C428.21 691.905 427.91 690.825 427.91 689.425C427.91 688.025 428.21 686.949 428.81 686.197C429.418 685.445 430.306 685.069 431.474 685.069C432.642 685.069 433.526 685.445 434.126 686.197C434.734 686.949 435.038 688.025 435.038 689.425ZM434.318 689.425C434.318 688.153 434.082 687.217 433.61 686.617C433.146 686.017 432.434 685.717 431.474 685.717C430.514 685.717 429.798 686.017 429.326 686.617C428.862 687.217 428.63 688.153 428.63 689.425C428.63 690.697 428.862 691.637 429.326 692.245C429.798 692.845 430.514 693.145 431.474 693.145C432.434 693.145 433.146 692.845 433.61 692.245C434.082 691.637 434.318 690.697 434.318 689.425ZM440.029 689.785L442.237 693.673H441.433L439.309 689.917L440.029 689.785ZM439.093 689.557C439.661 689.557 440.101 689.485 440.413 689.341C440.725 689.197 440.945 688.985 441.073 688.705C441.201 688.425 441.265 688.081 441.265 687.673C441.265 687.257 441.201 686.913 441.073 686.641C440.945 686.369 440.725 686.165 440.413 686.029C440.101 685.885 439.661 685.813 439.093 685.813H437.029V689.557H439.093ZM439.153 690.181H437.029V693.673H436.309V685.189H439.141C439.829 685.189 440.381 685.289 440.797 685.489C441.213 685.681 441.513 685.961 441.697 686.329C441.889 686.697 441.985 687.145 441.985 687.673C441.985 688.089 441.941 688.453 441.853 688.765C441.765 689.077 441.613 689.341 441.397 689.557C441.181 689.765 440.889 689.921 440.521 690.025C440.161 690.129 439.705 690.181 439.153 690.181ZM444.015 685.189L447.135 692.461H447.219L450.339 685.189H451.059V693.673H450.363V686.905H450.303L447.363 693.673H446.955L444.015 686.905H443.967V693.673H443.271V685.189H444.015Z" fill="#FFFAEE"/>
<path d="M676.145 297C676.825 297 677.377 297.552 677.377 298.232C677.377 298.912 676.825 299.464 676.145 299.464C675.465 299.464 674.913 298.912 674.913 298.232C674.913 297.552 675.465 297 676.145 297Z" fill="#FFFAEE"/>
<path d="M684.768 297C685.449 297 686 297.552 686 298.232C686 298.912 685.449 299.464 684.768 299.464C684.088 299.464 683.536 298.912 683.536 298.232C683.536 297.552 684.088 297 684.768 297Z" fill="#FFFAEE"/>
<path d="M667.522 297C668.202 297 668.754 297.552 668.754 298.232C668.754 298.912 668.202 299.464 667.522 299.464C666.842 299.464 666.29 298.912 666.29 298.232C666.29 297.552 666.842 297 667.522 297Z" fill="#FFFAEE"/>
<path d="M676.145 297C676.825 297 677.377 297.552 677.377 298.232C677.377 298.912 676.825 299.464 676.145 299.464C675.465 299.464 674.913 298.912 674.913 298.232C674.913 297.552 675.465 297 676.145 297Z" stroke="#FFFAEE" stroke-width="2.43949" stroke-linecap="round" stroke-linejoin="round"/>
<path d="M684.768 297C685.449 297 686 297.552 686 298.232C686 298.912 685.449 299.464 684.768 299.464C684.088 299.464 683.536 298.912 683.536 298.232C683.536 297.552 684.088 297 684.768 297Z" stroke="#FFFAEE" stroke-width="2.43949" stroke-linecap="round" stroke-linejoin="round"/>
<path d="M667.522 297C668.202 297 668.754 297.552 668.754 298.232C668.754 298.912 668.202 299.464 667.522 299.464C666.842 299.464 666.29 298.912 666.29 298.232C666.29 297.552 666.842 297 667.522 297Z" stroke="#FFFAEE" stroke-width="2.43949" stroke-linecap="round" stroke-linejoin="round"/>
<path d="M469.511 588.973V588.375V588.973ZM473.287 589.363L473.558 588.831L473.558 588.831L473.287 589.363ZM474.854 590.93L475.386 590.659L475.386 590.659L474.854 590.93ZM475.244 594.706H475.841H475.244ZM475.244 599.954H475.841H475.244ZM474.854 603.73L475.386 604.002L475.386 604.002L474.854 603.73ZM473.287 605.297L473.558 605.829L473.558 605.829L473.287 605.297ZM469.511 605.688V606.285V605.688ZM453.369 609.328L452.947 608.906H452.947L453.369 609.328ZM452.451 594.706H451.854H452.451ZM452.842 590.93L452.31 590.659L452.31 590.659L452.842 590.93ZM454.408 589.363L454.137 588.831L454.137 588.831L454.408 589.363ZM458.185 588.973V588.375V588.973ZM456.66 606.037L456.238 605.615L456.66 606.037ZM469.511 588.973V589.57C470.524 589.57 471.248 589.57 471.815 589.617C472.376 589.663 472.731 589.75 473.016 589.895L473.287 589.363L473.558 588.831C473.077 588.586 472.547 588.478 471.913 588.426C471.285 588.375 470.504 588.375 469.511 588.375V588.973ZM473.287 589.363L473.016 589.895C473.578 590.182 474.035 590.639 474.321 591.201L474.854 590.93L475.386 590.659C474.985 589.872 474.345 589.232 473.558 588.831L473.287 589.363ZM474.854 590.93L474.321 591.201C474.467 591.486 474.554 591.841 474.6 592.402C474.646 592.969 474.647 593.693 474.647 594.706H475.244H475.841C475.841 593.713 475.842 592.932 475.791 592.304C475.739 591.67 475.631 591.14 475.386 590.659L474.854 590.93ZM475.244 594.706H474.647V599.954H475.244H475.841V594.706H475.244ZM475.244 599.954H474.647C474.647 600.967 474.646 601.691 474.6 602.259C474.554 602.819 474.467 603.174 474.321 603.459L474.854 603.73L475.386 604.002C475.631 603.52 475.739 602.99 475.791 602.356C475.842 601.729 475.841 600.948 475.841 599.954H475.244ZM474.854 603.73L474.321 603.459C474.035 604.021 473.578 604.478 473.016 604.765L473.287 605.297L473.558 605.829C474.345 605.428 474.985 604.788 475.386 604.002L474.854 603.73ZM473.287 605.297L473.016 604.765C472.731 604.91 472.376 604.997 471.815 605.043C471.248 605.09 470.524 605.09 469.511 605.09V605.688V606.285C470.504 606.285 471.285 606.285 471.913 606.234C472.547 606.182 473.077 606.074 473.558 605.829L473.287 605.297ZM469.511 605.688V605.09H457.505V605.688V606.285H469.511V605.688ZM456.66 606.037L456.238 605.615L452.947 608.906L453.369 609.328L453.791 609.75L457.082 606.46L456.66 606.037ZM453.369 609.328L452.947 608.906C452.95 608.902 452.963 608.894 452.981 608.89C452.995 608.888 453.006 608.89 453.012 608.893C453.017 608.895 453.026 608.901 453.035 608.913C453.046 608.928 453.048 608.943 453.048 608.948H452.451H451.854C451.854 609.96 453.077 610.465 453.791 609.75L453.369 609.328ZM452.451 608.948H453.048V594.706H452.451H451.854V608.948H452.451ZM452.451 594.706H453.048C453.048 593.693 453.049 592.969 453.095 592.402C453.141 591.841 453.229 591.486 453.374 591.201L452.842 590.93L452.31 590.659C452.064 591.14 451.957 591.67 451.905 592.304C451.853 592.932 451.854 593.713 451.854 594.706H452.451ZM452.842 590.93L453.374 591.201C453.66 590.639 454.117 590.182 454.679 589.895L454.408 589.363L454.137 588.831C453.35 589.232 452.71 589.872 452.31 590.659L452.842 590.93ZM454.408 589.363L454.679 589.895C454.964 589.75 455.32 589.663 455.88 589.617C456.448 589.57 457.171 589.57 458.185 589.57V588.973V588.375C457.191 588.375 456.41 588.375 455.783 588.426C455.148 588.478 454.619 588.586 454.137 588.831L454.408 589.363ZM458.185 588.973V589.57H469.511V588.973V588.375H458.185V588.973ZM457.505 605.688V605.09C457.029 605.09 456.574 605.279 456.238 605.615L456.66 606.037L457.082 606.46C457.194 606.348 457.346 606.285 457.505 606.285V605.688Z" fill="#FFFAEE"/>
<circle cx="475.148" cy="587.778" r="4.77821" fill="#FFFAEE"/>
<path d="M474.773 590.254C474.462 590.254 474.195 590.202 473.972 590.099C473.749 589.991 473.578 589.848 473.459 589.669C473.339 589.49 473.28 589.29 473.28 589.071H474.08C474.092 589.231 474.15 589.354 474.253 589.442C474.357 589.525 474.53 589.567 474.773 589.567C475.016 589.567 475.197 589.507 475.316 589.388C475.436 589.265 475.495 589.093 475.495 588.874C475.495 588.723 475.472 588.596 475.424 588.492C475.38 588.385 475.306 588.303 475.203 588.247C475.099 588.187 474.962 588.158 474.791 588.158C474.631 588.154 474.492 588.182 474.373 588.241C474.257 588.301 474.168 588.391 474.104 588.51H473.333L473.662 585.972H476.087V586.658H474.373L474.169 588.265L473.632 588.241C473.811 588.014 474.006 587.833 474.217 587.698C474.428 587.558 474.679 587.489 474.97 587.489C475.221 587.489 475.446 587.544 475.645 587.656C475.848 587.767 476.007 587.927 476.123 588.134C476.238 588.337 476.296 588.58 476.296 588.862C476.296 589.137 476.234 589.38 476.111 589.591C475.987 589.798 475.81 589.961 475.579 590.081C475.352 590.196 475.083 590.254 474.773 590.254Z" fill="#191919"/>
<path d="M393.076 585.642L403.203 588.383C403.724 588.524 404.085 588.996 404.085 589.536V600.978C404.085 603.358 402.905 605.582 400.934 606.915L392.809 612.411C392.405 612.685 391.875 612.685 391.471 612.411L383.346 606.915C381.375 605.582 380.194 603.358 380.194 600.978V589.536C380.194 588.996 380.556 588.524 381.077 588.383L391.204 585.642C391.817 585.477 392.463 585.477 393.076 585.642Z" stroke="#FFFAEE" stroke-width="1.19455" stroke-linecap="round"/>
<path d="M387.362 597.505L390.628 600.713C390.744 600.827 390.93 600.827 391.046 600.713L396.918 594.945" stroke="#FFFAEE" stroke-width="1.19455" stroke-linecap="round"/>
<path d="M661.6 692.029C661.096 692.029 660.624 691.937 660.184 691.753C659.752 691.569 659.372 691.305 659.044 690.961C658.724 690.617 658.468 690.201 658.276 689.713C658.092 689.225 658 688.673 658 688.057C658 687.449 658.092 686.901 658.276 686.413C658.468 685.917 658.724 685.497 659.044 685.153C659.372 684.809 659.752 684.545 660.184 684.361C660.624 684.177 661.096 684.085 661.6 684.085C662.104 684.085 662.572 684.177 663.004 684.361C663.444 684.545 663.824 684.809 664.144 685.153C664.472 685.497 664.728 685.917 664.912 686.413C665.104 686.901 665.2 687.449 665.2 688.057C665.2 688.673 665.104 689.225 664.912 689.713C664.728 690.201 664.472 690.617 664.144 690.961C663.824 691.305 663.444 691.569 663.004 691.753C662.572 691.937 662.104 692.029 661.6 692.029ZM661.6 691.369C662.008 691.369 662.384 691.293 662.728 691.141C663.08 690.989 663.38 690.781 663.628 690.517C663.884 690.245 664.084 689.929 664.228 689.569C664.372 689.209 664.444 688.825 664.444 688.417V687.697C664.444 687.289 664.372 686.905 664.228 686.545C664.084 686.185 663.884 685.873 663.628 685.609C663.38 685.337 663.08 685.125 662.728 684.973C662.384 684.821 662.008 684.745 661.6 684.745C661.192 684.745 660.812 684.821 660.46 684.973C660.116 685.125 659.816 685.337 659.56 685.609C659.312 685.873 659.116 686.185 658.972 686.545C658.828 686.905 658.756 687.289 658.756 687.697V688.417C658.756 688.825 658.828 689.209 658.972 689.569C659.116 689.929 659.312 690.245 659.56 690.517C659.816 690.781 660.116 690.989 660.46 691.141C660.812 691.293 661.192 691.369 661.6 691.369ZM661.66 690.193C661.076 690.193 660.62 690.001 660.292 689.617C659.972 689.225 659.812 688.705 659.812 688.057C659.812 687.401 659.976 686.881 660.304 686.497C660.632 686.113 661.084 685.921 661.66 685.921C662.044 685.921 662.356 686.009 662.596 686.185C662.844 686.361 663.036 686.593 663.172 686.881L662.536 687.229C662.448 687.037 662.336 686.885 662.2 686.773C662.064 686.661 661.884 686.605 661.66 686.605C661.348 686.605 661.104 686.709 660.928 686.917C660.76 687.117 660.676 687.381 660.676 687.709V688.393C660.676 688.729 660.76 689.001 660.928 689.209C661.096 689.409 661.344 689.509 661.672 689.509C661.912 689.509 662.104 689.449 662.248 689.329C662.392 689.209 662.52 689.049 662.632 688.849L663.232 689.221C663.096 689.501 662.896 689.733 662.632 689.917C662.376 690.101 662.052 690.193 661.66 690.193ZM671.159 692.245H665.567V691.213L668.363 688.693C668.771 688.325 669.107 687.949 669.371 687.565C669.635 687.173 669.767 686.761 669.767 686.329V686.185C669.767 685.681 669.635 685.293 669.371 685.021C669.107 684.741 668.715 684.601 668.195 684.601C667.683 684.601 667.287 684.733 667.007 684.997C666.735 685.253 666.531 685.597 666.395 686.029L665.495 685.693C665.575 685.445 665.683 685.205 665.819 684.973C665.963 684.733 666.143 684.521 666.359 684.337C666.575 684.153 666.835 684.005 667.139 683.893C667.451 683.781 667.811 683.725 668.219 683.725C668.635 683.725 669.003 683.785 669.323 683.905C669.651 684.025 669.923 684.193 670.139 684.409C670.363 684.625 670.531 684.881 670.643 685.177C670.763 685.473 670.823 685.797 670.823 686.149C670.823 686.469 670.775 686.769 670.679 687.049C670.591 687.329 670.463 687.597 670.295 687.853C670.135 688.109 669.939 688.361 669.707 688.609C669.483 688.849 669.231 689.089 668.951 689.329L666.611 691.369H671.159V692.245ZM675.031 692.389C674.519 692.389 674.079 692.293 673.711 692.101C673.343 691.901 673.039 691.617 672.799 691.249C672.559 690.881 672.383 690.429 672.271 689.893C672.159 689.357 672.103 688.745 672.103 688.057C672.103 687.377 672.159 686.769 672.271 686.233C672.383 685.689 672.559 685.233 672.799 684.865C673.039 684.497 673.343 684.217 673.711 684.025C674.079 683.825 674.519 683.725 675.031 683.725C675.543 683.725 675.983 683.825 676.351 684.025C676.719 684.217 677.023 684.497 677.263 684.865C677.503 685.233 677.679 685.689 677.791 686.233C677.903 686.769 677.959 687.377 677.959 688.057C677.959 688.745 677.903 689.357 677.791 689.893C677.679 690.429 677.503 690.881 677.263 691.249C677.023 691.617 676.719 691.901 676.351 692.101C675.983 692.293 675.543 692.389 675.031 692.389ZM675.031 691.513C675.367 691.513 675.655 691.449 675.895 691.321C676.135 691.185 676.327 690.997 676.471 690.757C676.623 690.517 676.735 690.229 676.807 689.893C676.879 689.549 676.915 689.165 676.915 688.741V687.373C676.915 686.957 676.879 686.577 676.807 686.233C676.735 685.889 676.623 685.597 676.471 685.357C676.327 685.117 676.135 684.933 675.895 684.805C675.655 684.669 675.367 684.601 675.031 684.601C674.695 684.601 674.407 684.669 674.167 684.805C673.927 684.933 673.731 685.117 673.579 685.357C673.435 685.597 673.327 685.889 673.255 686.233C673.183 686.577 673.147 686.957 673.147 687.373V688.741C673.147 689.165 673.183 689.549 673.255 689.893C673.327 690.229 673.435 690.517 673.579 690.757C673.731 690.997 673.927 691.185 674.167 691.321C674.407 691.449 674.695 691.513 675.031 691.513ZM675.031 688.765C674.751 688.765 674.555 688.709 674.443 688.597C674.339 688.485 674.287 688.349 674.287 688.189V687.925C674.287 687.765 674.339 687.629 674.443 687.517C674.555 687.405 674.751 687.349 675.031 687.349C675.311 687.349 675.503 687.405 675.607 687.517C675.719 687.629 675.775 687.765 675.775 687.925V688.189C675.775 688.349 675.719 688.485 675.607 688.597C675.503 688.709 675.311 688.765 675.031 688.765ZM684.59 692.245H678.998V691.213L681.794 688.693C682.202 688.325 682.538 687.949 682.802 687.565C683.066 687.173 683.198 686.761 683.198 686.329V686.185C683.198 685.681 683.066 685.293 682.802 685.021C682.538 684.741 682.146 684.601 681.626 684.601C681.114 684.601 680.718 684.733 680.438 684.997C680.166 685.253 679.962 685.597 679.826 686.029L678.926 685.693C679.006 685.445 679.114 685.205 679.25 684.973C679.394 684.733 679.574 684.521 679.79 684.337C680.006 684.153 680.266 684.005 680.57 683.893C680.882 683.781 681.242 683.725 681.65 683.725C682.066 683.725 682.434 683.785 682.754 683.905C683.082 684.025 683.354 684.193 683.57 684.409C683.794 684.625 683.962 684.881 684.074 685.177C684.194 685.473 684.254 685.797 684.254 686.149C684.254 686.469 684.206 686.769 684.11 687.049C684.022 687.329 683.894 687.597 683.726 687.853C683.566 688.109 683.37 688.361 683.138 688.609C682.914 688.849 682.662 689.089 682.382 689.329L680.042 691.369H684.59V692.245ZM688.473 692.389C688.033 692.389 687.637 692.317 687.285 692.173C686.933 692.021 686.633 691.809 686.385 691.537C686.145 691.257 685.957 690.917 685.821 690.517C685.693 690.117 685.629 689.669 685.629 689.173C685.629 688.549 685.721 687.965 685.905 687.421C686.097 686.869 686.337 686.369 686.625 685.921C686.921 685.465 687.249 685.065 687.609 684.721C687.969 684.369 688.321 684.085 688.665 683.869H689.961C689.505 684.197 689.097 684.517 688.737 684.829C688.385 685.141 688.073 685.469 687.801 685.813C687.529 686.149 687.301 686.513 687.117 686.905C686.933 687.289 686.781 687.725 686.661 688.213L686.721 688.237C686.921 687.893 687.185 687.609 687.513 687.385C687.841 687.153 688.265 687.037 688.785 687.037C689.153 687.037 689.489 687.097 689.793 687.217C690.097 687.337 690.361 687.509 690.585 687.733C690.809 687.957 690.981 688.229 691.101 688.549C691.229 688.869 691.293 689.225 691.293 689.617C691.293 690.025 691.225 690.401 691.089 690.745C690.953 691.081 690.761 691.373 690.513 691.621C690.273 691.861 689.977 692.049 689.625 692.185C689.281 692.321 688.897 692.389 688.473 692.389ZM688.461 691.537C689.037 691.537 689.481 691.381 689.793 691.069C690.113 690.757 690.273 690.317 690.273 689.749V689.653C690.273 689.085 690.113 688.645 689.793 688.333C689.481 688.021 689.037 687.865 688.461 687.865C687.885 687.865 687.437 688.021 687.117 688.333C686.805 688.645 686.649 689.085 686.649 689.653V689.749C686.649 690.317 686.805 690.757 687.117 691.069C687.437 691.381 687.885 691.537 688.461 691.537Z" fill="#FFFAEE"/>
<path d="M380.901 304.318C380.901 303.123 381.11 302.066 381.527 301.149C381.944 300.232 382.5 299.468 383.195 298.856C383.862 298.272 384.612 297.828 385.446 297.522C386.308 297.216 387.17 297.063 388.031 297.063C388.893 297.063 389.741 297.216 390.575 297.522C391.436 297.828 392.215 298.272 392.91 298.856C393.577 299.468 394.119 300.232 394.536 301.149C394.953 302.066 395.161 303.123 395.161 304.318V305.819H390.908V304.318C390.908 303.29 390.616 302.539 390.033 302.066C389.477 301.566 388.81 301.316 388.031 301.316C387.253 301.316 386.572 301.566 385.988 302.066C385.432 302.539 385.154 303.29 385.154 304.318V319.995C385.154 321.024 385.432 321.788 385.988 322.288C386.572 322.761 387.253 322.997 388.031 322.997C388.81 322.997 389.477 322.761 390.033 322.288C390.616 321.788 390.908 321.024 390.908 319.995V314.408H387.531V310.656H395.161V319.995C395.161 321.246 394.953 322.316 394.536 323.206C394.119 324.095 393.577 324.832 392.91 325.416C392.215 326.027 391.436 326.486 390.575 326.792C389.741 327.097 388.893 327.25 388.031 327.25C387.17 327.25 386.308 327.097 385.446 326.792C384.612 326.486 383.862 326.027 383.195 325.416C382.5 324.832 381.944 324.095 381.527 323.206C381.11 322.316 380.901 321.246 380.901 319.995V304.318ZM401.49 301.316V310.572H403.908C404.658 310.572 405.256 310.475 405.701 310.28C406.145 310.058 406.493 309.752 406.743 309.363C406.965 308.974 407.118 308.501 407.202 307.945C407.285 307.362 407.327 306.695 407.327 305.944C407.327 305.194 407.285 304.54 407.202 303.984C407.118 303.401 406.952 302.9 406.701 302.483C406.173 301.705 405.173 301.316 403.699 301.316H401.49ZM397.237 327V297.313H404.075C409.078 297.313 411.58 300.218 411.58 306.028C411.58 307.779 411.302 309.266 410.746 310.489C410.218 311.712 409.273 312.699 407.911 313.449L412.497 327H407.994L404.033 314.325H401.49V327H397.237ZM421.911 316.618L419.826 305.861H419.743L417.658 316.618H421.911ZM411.404 327L418.033 297.313H421.577L428.207 327H423.954L422.703 320.621H416.907L415.657 327H411.404ZM428.633 327V297.313H435.012C436.18 297.313 437.208 297.466 438.098 297.772C438.987 298.078 439.793 298.62 440.516 299.398C441.239 300.176 441.739 301.094 442.017 302.15C442.295 303.178 442.434 304.582 442.434 306.361C442.434 307.695 442.351 308.821 442.184 309.738C442.045 310.656 441.725 311.517 441.225 312.323C440.641 313.296 439.863 314.061 438.89 314.617C437.917 315.145 436.639 315.409 435.054 315.409H432.886V327H428.633ZM432.886 301.316V311.406H434.929C435.791 311.406 436.458 311.281 436.93 311.031C437.403 310.781 437.75 310.433 437.973 309.989C438.195 309.572 438.32 309.057 438.348 308.446C438.404 307.834 438.431 307.153 438.431 306.403C438.431 305.708 438.418 305.055 438.39 304.443C438.362 303.804 438.237 303.248 438.015 302.775C437.792 302.303 437.459 301.941 437.014 301.691C436.569 301.441 435.93 301.316 435.096 301.316H432.886ZM443.945 327V297.313H448.197V310.03H453.451V297.313H457.704V327H453.451V313.783H448.197V327H443.945ZM460.155 327V297.313H464.408V327H460.155ZM480.381 318.536V320.371C480.381 321.288 480.2 322.163 479.839 322.997C479.505 323.803 479.033 324.526 478.421 325.165C477.81 325.805 477.087 326.319 476.253 326.708C475.447 327.069 474.572 327.25 473.626 327.25C472.82 327.25 472 327.139 471.166 326.917C470.333 326.694 469.582 326.305 468.915 325.749C468.248 325.193 467.692 324.484 467.247 323.623C466.83 322.733 466.622 321.607 466.622 320.245V303.901C466.622 302.928 466.789 302.025 467.122 301.191C467.456 300.357 467.928 299.634 468.54 299.023C469.151 298.411 469.874 297.939 470.708 297.605C471.57 297.244 472.515 297.063 473.543 297.063C475.544 297.063 477.171 297.716 478.421 299.023C479.033 299.662 479.505 300.426 479.839 301.316C480.2 302.178 480.381 303.123 480.381 304.151V305.819H476.128V304.401C476.128 303.568 475.892 302.845 475.419 302.233C474.947 301.622 474.307 301.316 473.501 301.316C472.445 301.316 471.736 301.65 471.375 302.317C471.041 302.956 470.875 303.776 470.875 304.777V319.954C470.875 320.815 471.055 321.538 471.417 322.122C471.806 322.705 472.487 322.997 473.46 322.997C473.738 322.997 474.03 322.956 474.335 322.872C474.669 322.761 474.975 322.594 475.253 322.372C475.503 322.15 475.711 321.844 475.878 321.455C476.045 321.065 476.128 320.579 476.128 319.995V318.536H480.381Z" fill="#FFFAEE"/>
<rect x="644.25" y="679.25" width="60.5" height="17.5" rx="8.75" stroke="#FFFAEE" stroke-width="0.5"/>
<path d="M534 596.579L541.333 603.912L534 611.245" stroke="#FFFAEE" stroke-width="1.19"/>
<path d="M552.333 599.328V595.495C552.333 592.043 549.535 589.245 546.083 589.245H529.25C525.798 589.245 523 592.043 523 595.495V597.662C523 601.114 525.798 603.912 529.25 603.912H539.5" stroke="#FFFAEE" stroke-width="1.19" stroke-linecap="round"/>
</svg>
