<svg width="1080" height="1080" viewBox="0 0 1080 1080" fill="none" xmlns="http://www.w3.org/2000/svg">
<rect width="1080" height="1080" fill="#191919"/>
<path d="M619.14 397.42L622.315 393.878L619.495 388.994L614.84 389.972L614.46 389.314L628.84 386.3L629.33 387.149L619.52 398.078L619.14 397.42ZM628.407 387.151L628.357 387.064L620.139 388.83L622.779 393.402L628.407 387.151ZM633.821 423.327C633.014 421.93 632.894 420.575 633.46 419.263C634.045 417.956 635.422 416.675 637.593 415.422C639.753 414.175 641.544 413.626 642.969 413.773C644.4 413.932 645.519 414.71 646.326 416.107C646.839 416.996 647.023 417.861 646.876 418.7C646.741 419.532 646.386 420.291 645.812 420.977L645.267 420.553C645.791 419.942 646.108 419.289 646.215 418.596C646.335 417.896 646.181 417.176 645.754 416.437C645.068 415.248 644.12 414.594 642.913 414.475C641.723 414.362 640.303 414.781 638.651 415.735L637.335 416.495C635.684 417.448 634.604 418.472 634.097 419.565C633.607 420.664 633.705 421.808 634.392 422.997C634.819 423.736 635.359 424.233 636.014 424.486C636.68 424.733 637.408 424.782 638.2 424.633L638.295 425.317C637.414 425.471 636.573 425.402 635.773 425.11C634.985 424.811 634.334 424.216 633.821 423.327ZM639.167 432.587C638.407 431.271 638.329 429.976 638.934 428.703C639.545 427.442 640.93 426.188 643.089 424.941C645.249 423.695 647.027 423.122 648.425 423.223C649.83 423.336 650.912 424.051 651.672 425.367C652.432 426.683 652.506 427.972 651.895 429.233C651.291 430.506 649.909 431.766 647.749 433.013C645.59 434.259 643.808 434.826 642.404 434.713C641.006 434.612 639.927 433.903 639.167 432.587ZM639.738 432.257C640.385 433.377 641.29 433.971 642.453 434.039C643.627 434.099 645.04 433.653 646.691 432.7L648.008 431.94C649.659 430.987 650.746 429.989 651.269 428.949C651.803 427.901 651.747 426.817 651.1 425.697C650.454 424.577 649.543 423.986 648.369 423.926C647.206 423.858 645.799 424.301 644.148 425.254L642.831 426.014C641.18 426.968 640.087 427.968 639.553 429.016C639.03 430.056 639.092 431.137 639.738 432.257ZM654.532 432.76L654.492 432.691L643.251 439.181L642.911 438.592L655 431.612L655.52 432.512L647.499 444.58L647.539 444.649L658.78 438.159L659.12 438.748L647.031 445.728L646.511 444.827L654.532 432.76ZM650.389 452.024C650.076 451.482 649.847 450.967 649.705 450.48C649.557 450.01 649.473 449.559 649.453 449.124C649.445 448.682 649.485 448.259 649.574 447.853C649.681 447.452 649.816 447.059 649.978 446.673L650.639 446.938C650.32 447.692 650.153 448.442 650.138 449.19C650.141 449.943 650.41 450.781 650.943 451.704C651.55 452.755 652.256 453.433 653.063 453.737C653.87 454.041 654.724 453.933 655.624 453.413C656.075 453.153 656.416 452.863 656.648 452.545C656.879 452.226 657.029 451.886 657.097 451.523C657.165 451.161 657.16 450.779 657.082 450.377C657.011 449.987 656.894 449.585 656.732 449.171L656.157 447.655C655.907 446.983 655.77 446.385 655.745 445.861C655.726 445.348 655.788 444.896 655.932 444.505C656.076 444.115 656.285 443.77 656.56 443.473C656.853 443.181 657.179 442.931 657.537 442.725C658.587 442.118 659.567 442.014 660.475 442.414C661.394 442.807 662.191 443.586 662.864 444.752C663.431 445.734 663.732 446.615 663.767 447.395C663.808 448.187 663.672 448.912 663.36 449.57L662.691 449.333C662.993 448.681 663.123 448.013 663.082 447.329C663.041 446.644 662.777 445.881 662.29 445.038C661.717 444.045 661.056 443.394 660.309 443.087C659.573 442.773 658.778 442.862 657.924 443.355C657.497 443.602 657.17 443.876 656.943 444.176C656.722 444.488 656.575 444.819 656.501 445.17C656.444 445.526 656.446 445.902 656.506 446.299C656.577 446.689 656.697 447.097 656.866 447.523L657.431 449.021C657.687 449.705 657.822 450.312 657.836 450.843C657.861 451.367 657.8 451.833 657.651 452.243C657.502 452.652 657.281 453.003 656.988 453.295C656.695 453.587 656.37 453.837 656.012 454.044C654.915 454.677 653.88 454.805 652.908 454.427C651.935 454.049 651.096 453.248 650.389 452.024ZM654.063 457.908L654.582 457.608L656.502 460.933L667.553 454.553L665.633 451.228L666.152 450.928L670.352 458.202L669.833 458.502L667.913 455.177L656.862 461.557L658.782 464.882L658.263 465.182L654.063 457.908ZM671.899 460.88L673.749 464.085C674.589 465.54 674.694 466.895 674.064 468.152C673.435 469.408 672.121 470.613 670.124 471.766C668.126 472.92 666.426 473.455 665.023 473.372C663.62 473.289 662.499 472.52 661.659 471.065L659.809 467.86L671.899 460.88ZM662.23 470.735C662.93 471.947 663.868 472.584 665.042 472.645C666.223 472.717 667.57 472.317 669.083 471.443L670.365 470.703C671.877 469.83 672.897 468.864 673.425 467.805C673.96 466.757 673.877 465.627 673.177 464.415L671.687 461.834L660.74 468.154L662.23 470.735ZM665.395 477.536L677.485 470.556L681.595 477.675L681.023 478.005L677.273 471.509L672.181 474.449L675.801 480.719L675.229 481.049L671.609 474.779L666.327 477.829L670.077 484.325L669.505 484.655L665.395 477.536ZM671.351 487.852L670.991 487.229L683.081 480.249L685.541 484.509C686.134 485.537 686.281 486.484 685.98 487.35C685.698 488.221 685.049 488.95 684.033 489.537C683.04 490.11 682.102 490.313 681.22 490.145C680.337 489.977 679.601 489.409 679.012 488.441L678.722 487.938L675.231 494.572L674.811 493.845L678.304 487.255L676.824 484.692L671.351 487.852ZM679.479 488.009C679.719 488.425 679.989 488.746 680.289 488.973C680.596 489.212 680.91 489.369 681.231 489.445C681.571 489.527 681.912 489.53 682.254 489.456C682.602 489.393 682.938 489.268 683.262 489.082L684.024 488.642C684.335 488.462 684.606 488.236 684.834 487.966C685.07 487.707 685.231 487.413 685.319 487.085C685.425 486.762 685.452 486.408 685.399 486.023C685.352 485.65 685.209 485.255 684.969 484.839L682.869 481.202L677.379 484.372L679.479 488.009ZM676.587 496.921L688.677 489.941L692.787 497.06L692.215 497.39L688.465 490.895L683.373 493.835L686.993 500.105L686.421 500.435L682.801 494.165L677.519 497.215L681.269 503.71L680.697 504.04L676.587 496.921ZM694.283 499.651L696.133 502.856C696.973 504.31 697.078 505.666 696.449 506.923C695.819 508.179 694.506 509.384 692.508 510.537C690.51 511.69 688.81 512.226 687.407 512.143C686.005 512.059 684.883 511.29 684.043 509.836L682.193 506.631L694.283 499.651ZM684.615 509.506C685.315 510.718 686.252 511.355 687.427 511.416C688.608 511.488 689.955 511.088 691.467 510.214L692.749 509.474C694.262 508.601 695.282 507.635 695.81 506.576C696.344 505.528 696.261 504.398 695.561 503.186L694.071 500.605L683.125 506.925L684.615 509.506ZM710.164 555.078L722.253 548.098L726.423 555.32L725.852 555.65L722.042 549.051L716.95 551.991L720.47 558.088L719.898 558.418L716.378 552.321L710.524 555.701L710.164 555.078ZM728.11 558.241L720.766 562.481C719.946 562.954 719.276 563.394 718.757 563.802C718.25 564.203 717.886 564.613 717.666 565.032C717.458 565.445 717.389 565.885 717.459 566.353C717.529 566.821 717.737 567.355 718.084 567.955C718.43 568.556 718.789 569.003 719.159 569.297C719.529 569.592 719.945 569.752 720.406 569.778C720.879 569.797 721.416 569.688 722.017 569.448C722.63 569.203 723.346 568.843 724.166 568.37L731.51 564.13L731.87 564.753L724.612 568.943C723.677 569.483 722.853 569.882 722.139 570.14C721.444 570.403 720.815 570.512 720.25 570.468C719.705 570.429 719.212 570.229 718.772 569.867C718.339 569.517 717.919 568.989 717.512 568.285C717.105 567.581 716.855 566.948 716.762 566.386C716.675 565.835 716.748 565.308 716.98 564.805C717.231 564.306 717.641 563.815 718.209 563.333C718.796 562.856 719.557 562.347 720.492 561.807L727.75 557.617L728.11 558.241ZM735.014 571.52L723.496 578.17L723.136 577.546L734.654 570.896L732.204 566.653L732.776 566.323L738.036 575.433L737.464 575.763L735.014 571.52ZM739.302 577.626L731.958 581.866C731.138 582.339 730.468 582.78 729.949 583.187C729.442 583.588 729.078 583.998 728.858 584.418C728.65 584.83 728.581 585.271 728.651 585.738C728.721 586.206 728.929 586.74 729.276 587.341C729.622 587.941 729.981 588.388 730.351 588.683C730.721 588.977 731.137 589.137 731.598 589.163C732.071 589.183 732.608 589.073 733.209 588.834C733.822 588.588 734.538 588.228 735.358 587.755L742.702 583.515L743.062 584.139L735.804 588.329C734.869 588.869 734.045 589.267 733.332 589.525C732.636 589.788 732.007 589.898 731.443 589.854C730.897 589.815 730.404 589.614 729.964 589.253C729.531 588.902 729.111 588.375 728.704 587.671C728.297 586.966 728.047 586.333 727.954 585.771C727.867 585.221 727.94 584.694 728.173 584.19C728.423 583.691 728.833 583.201 729.402 582.718C729.988 582.241 730.749 581.733 731.684 581.193L738.942 577.003L739.302 577.626ZM732.908 594.472L732.548 593.848L744.638 586.868L747.098 591.129C747.691 592.157 747.838 593.104 747.537 593.97C747.255 594.841 746.606 595.57 745.59 596.157C744.597 596.73 743.659 596.933 742.777 596.765C741.894 596.597 741.158 596.029 740.569 595.061L740.279 594.558L736.788 601.192L736.368 600.465L739.861 593.875L738.381 591.312L732.908 594.472ZM741.036 594.629C741.276 595.045 741.546 595.366 741.846 595.593C742.153 595.832 742.467 595.989 742.788 596.065C743.128 596.146 743.469 596.15 743.811 596.076C744.159 596.013 744.495 595.888 744.819 595.701L745.581 595.261C745.892 595.081 746.163 594.856 746.391 594.586C746.627 594.327 746.788 594.033 746.876 593.705C746.982 593.382 747.009 593.028 746.956 592.643C746.909 592.27 746.766 591.875 746.526 591.459L744.426 587.822L738.936 590.992L741.036 594.629ZM738.144 603.541L750.234 596.561L754.344 603.68L753.772 604.01L750.022 597.515L744.93 600.455L748.55 606.725L747.979 607.055L744.359 600.785L739.076 603.835L742.826 610.33L742.254 610.66L738.144 603.541Z" fill="#FFFAEE"/>
<path d="M635.63 339.339L637.48 342.543C638.32 343.998 638.425 345.354 637.796 346.61C637.166 347.866 635.853 349.071 633.855 350.225C631.857 351.378 630.157 351.913 628.754 351.83C627.352 351.747 626.23 350.978 625.39 349.523L623.54 346.319L635.63 339.339ZM625.962 349.193C626.662 350.405 627.599 351.042 628.773 351.103C629.955 351.175 631.301 350.775 632.814 349.902L634.096 349.162C635.608 348.288 636.629 347.322 637.157 346.263C637.691 345.215 637.608 344.085 636.908 342.873L635.418 340.292L624.472 346.612L625.962 349.193ZM629.126 355.994L641.216 349.014L645.326 356.133L644.754 356.463L641.004 349.968L635.912 352.908L639.532 359.178L638.961 359.508L635.341 353.238L630.058 356.288L633.808 362.783L633.236 363.113L629.126 355.994ZM636.504 369.254C636.191 368.711 635.963 368.196 635.82 367.709C635.673 367.24 635.589 366.788 635.569 366.353C635.56 365.911 635.6 365.488 635.69 365.082C635.797 364.681 635.932 364.288 636.094 363.902L636.755 364.167C636.436 364.921 636.269 365.672 636.254 366.419C636.257 367.172 636.525 368.01 637.059 368.934C637.665 369.984 638.372 370.662 639.179 370.966C639.986 371.27 640.839 371.162 641.74 370.642C642.19 370.382 642.531 370.092 642.763 369.774C642.995 369.455 643.145 369.115 643.213 368.752C643.28 368.39 643.275 368.008 643.198 367.606C643.126 367.216 643.01 366.814 642.847 366.4L642.273 364.884C642.023 364.212 641.886 363.614 641.86 363.09C641.841 362.577 641.904 362.126 642.048 361.735C642.191 361.344 642.401 361 642.676 360.702C642.969 360.41 643.294 360.16 643.652 359.954C644.703 359.347 645.682 359.244 646.59 359.643C647.51 360.036 648.307 360.815 648.98 361.982C649.547 362.963 649.847 363.844 649.882 364.624C649.924 365.416 649.788 366.141 649.475 366.799L648.807 366.562C649.108 365.91 649.238 365.243 649.197 364.558C649.156 363.874 648.892 363.11 648.406 362.267C647.832 361.274 647.172 360.624 646.425 360.316C645.689 360.002 644.894 360.091 644.04 360.585C643.612 360.831 643.285 361.105 643.058 361.405C642.838 361.717 642.691 362.048 642.616 362.399C642.56 362.755 642.562 363.131 642.621 363.528C642.692 363.918 642.812 364.326 642.981 364.752L643.546 366.25C643.802 366.934 643.937 367.541 643.951 368.072C643.977 368.596 643.915 369.063 643.767 369.472C643.618 369.881 643.397 370.232 643.104 370.524C642.811 370.816 642.485 371.066 642.127 371.273C641.03 371.906 639.996 372.034 639.023 371.656C638.051 371.278 637.211 370.478 636.504 369.254ZM640.178 375.137L640.698 374.837L642.618 378.163L653.669 371.783L651.749 368.457L652.268 368.157L656.468 375.432L655.949 375.732L654.029 372.406L642.978 378.786L644.898 382.112L644.378 382.412L640.178 375.137ZM651.424 390.575L651.384 390.505C651.04 390.55 650.7 390.561 650.364 390.54C650.047 390.523 649.735 390.449 649.428 390.318C649.122 390.187 648.823 389.99 648.533 389.727C648.249 389.475 647.977 389.124 647.717 388.674C646.963 387.369 646.88 386.078 647.466 384.8C648.053 383.522 649.431 382.257 651.602 381.003C653.784 379.743 655.579 379.185 656.985 379.327C658.403 379.463 659.502 380.207 660.282 381.558C660.789 382.435 660.969 383.293 660.822 384.133C660.687 384.965 660.332 385.724 659.758 386.41L659.213 385.985C659.738 385.374 660.054 384.722 660.162 384.029C660.288 383.34 660.14 382.632 659.72 381.905C659.054 380.75 658.123 380.125 656.929 380.029C655.746 379.927 654.329 380.353 652.678 381.306L651.378 382.056C649.727 383.009 648.635 384.025 648.103 385.102C647.581 386.173 647.654 387.286 648.321 388.44C648.588 388.902 648.899 389.269 649.256 389.54C649.62 389.823 650.013 390.011 650.437 390.105C650.861 390.199 651.294 390.203 651.737 390.117C652.198 390.035 652.654 389.865 653.104 389.605L654.715 388.675L653.005 385.713L653.542 385.403L655.602 388.971L650.024 392.191L649.674 391.585L651.424 390.575ZM663.032 388.76L662.992 388.691L651.751 395.181L651.411 394.592L663.5 387.612L664.02 388.512L655.999 400.58L656.039 400.649L667.28 394.159L667.62 394.748L655.531 401.728L655.011 400.827L663.032 388.76ZM698.745 449.978L687.227 456.628L686.867 456.004L698.385 449.354L695.935 445.111L696.507 444.781L701.767 453.891L701.195 454.221L698.745 449.978ZM700.198 465.573L696.798 459.684L690.943 463.064L690.583 462.441L702.673 455.461L703.033 456.084L697.352 459.364L700.752 465.253L706.433 461.973L706.793 462.597L694.703 469.577L694.343 468.953L700.198 465.573ZM696.279 472.307L708.369 465.327L712.479 472.445L711.907 472.775L708.157 466.28L703.065 469.22L706.685 475.49L706.114 475.82L702.494 469.55L697.211 472.6L700.961 479.095L700.389 479.425L696.279 472.307ZM707.472 491.692L719.561 484.712L722.021 488.973C722.615 490.001 722.761 490.948 722.461 491.814C722.178 492.685 721.529 493.414 720.513 494.001C719.497 494.587 718.535 494.788 717.628 494.604C716.728 494.431 715.981 493.831 715.387 492.803L713.287 489.166L707.832 492.316L707.472 491.692ZM713.859 488.836L715.959 492.473C716.199 492.889 716.469 493.21 716.77 493.437C717.077 493.675 717.391 493.833 717.712 493.909C718.051 493.99 718.392 493.994 718.734 493.919C719.083 493.857 719.419 493.732 719.742 493.545L720.504 493.105C720.816 492.925 721.086 492.7 721.315 492.429C721.55 492.17 721.712 491.877 721.8 491.549C721.906 491.226 721.932 490.872 721.879 490.487C721.833 490.113 721.69 489.719 721.45 489.303L719.35 485.666L713.859 488.836ZM714.82 504.9C714.06 503.583 713.982 502.289 714.587 501.016C715.198 499.755 716.583 498.501 718.742 497.254C720.902 496.007 722.68 495.435 724.078 495.536C725.483 495.649 726.565 496.363 727.325 497.68C728.085 498.996 728.16 500.285 727.548 501.546C726.944 502.819 725.562 504.079 723.402 505.325C721.243 506.572 719.461 507.139 718.057 507.026C716.659 506.925 715.58 506.216 714.82 504.9ZM715.391 504.57C716.038 505.69 716.943 506.284 718.106 506.351C719.28 506.412 720.693 505.966 722.344 505.013L723.661 504.253C725.312 503.299 726.399 502.302 726.922 501.261C727.456 500.214 727.4 499.13 726.754 498.01C726.107 496.89 725.196 496.299 724.022 496.238C722.859 496.171 721.452 496.613 719.801 497.567L718.484 498.327C716.833 499.28 715.74 500.281 715.206 501.328C714.683 502.369 714.745 503.45 715.391 504.57ZM720.446 514.644C720.133 514.102 719.904 513.587 719.762 513.099C719.614 512.63 719.53 512.178 719.51 511.744C719.502 511.302 719.542 510.878 719.631 510.473C719.738 510.072 719.873 509.679 720.035 509.293L720.696 509.558C720.377 510.312 720.21 511.062 720.195 511.81C720.198 512.562 720.467 513.401 721 514.324C721.607 515.375 722.314 516.053 723.12 516.357C723.927 516.661 724.781 516.553 725.681 516.033C726.132 515.773 726.473 515.483 726.705 515.165C726.936 514.846 727.086 514.506 727.154 514.143C727.222 513.781 727.217 513.399 727.139 512.997C727.068 512.607 726.951 512.205 726.789 511.791L726.214 510.275C725.965 509.603 725.827 509.005 725.802 508.481C725.783 507.968 725.845 507.516 725.989 507.125C726.133 506.734 726.342 506.39 726.617 506.093C726.91 505.801 727.236 505.551 727.594 505.345C728.644 504.738 729.624 504.634 730.532 505.034C731.451 505.427 732.248 506.206 732.921 507.372C733.488 508.354 733.789 509.235 733.824 510.015C733.865 510.807 733.729 511.532 733.417 512.19L732.748 511.953C733.05 511.301 733.18 510.633 733.139 509.949C733.098 509.264 732.834 508.501 732.347 507.658C731.774 506.665 731.113 506.014 730.366 505.707C729.63 505.393 728.835 505.482 727.981 505.975C727.554 506.222 727.227 506.496 727 506.796C726.779 507.108 726.632 507.439 726.558 507.79C726.501 508.146 726.503 508.522 726.563 508.919C726.634 509.309 726.754 509.717 726.923 510.143L727.488 511.641C727.744 512.325 727.879 512.932 727.893 513.463C727.918 513.987 727.857 514.453 727.708 514.863C727.559 515.272 727.338 515.622 727.045 515.915C726.752 516.207 726.427 516.457 726.069 516.663C724.972 517.297 723.937 517.425 722.965 517.047C721.992 516.669 721.153 515.868 720.446 514.644ZM726.042 524.337C725.729 523.794 725.501 523.279 725.358 522.792C725.21 522.323 725.126 521.871 725.106 521.436C725.098 520.995 725.138 520.571 725.227 520.166C725.334 519.765 725.469 519.372 725.631 518.986L726.292 519.25C725.973 520.004 725.806 520.755 725.791 521.503C725.795 522.255 726.063 523.093 726.596 524.017C727.203 525.068 727.91 525.745 728.716 526.049C729.523 526.353 730.377 526.245 731.278 525.725C731.728 525.465 732.069 525.176 732.301 524.857C732.532 524.539 732.682 524.198 732.75 523.836C732.818 523.473 732.813 523.091 732.735 522.69C732.664 522.3 732.547 521.898 732.385 521.483L731.81 519.968C731.561 519.296 731.423 518.698 731.398 518.173C731.379 517.661 731.441 517.209 731.585 516.818C731.729 516.427 731.938 516.083 732.213 515.786C732.506 515.493 732.832 515.244 733.19 515.037C734.24 514.431 735.22 514.327 736.128 514.727C737.048 515.119 737.844 515.899 738.517 517.065C739.084 518.047 739.385 518.928 739.42 519.708C739.461 520.5 739.326 521.225 739.013 521.883L738.344 521.645C738.646 520.994 738.776 520.326 738.735 519.642C738.694 518.957 738.43 518.193 737.943 517.35C737.37 516.357 736.709 515.707 735.962 515.4C735.227 515.085 734.431 515.175 733.577 515.668C733.15 515.915 732.823 516.188 732.596 516.489C732.376 516.801 732.228 517.132 732.154 517.483C732.097 517.839 732.099 518.215 732.159 518.612C732.23 519.002 732.35 519.41 732.519 519.835L733.084 521.334C733.34 522.017 733.475 522.625 733.489 523.155C733.514 523.679 733.453 524.146 733.304 524.555C733.155 524.964 732.934 525.315 732.641 525.608C732.348 525.9 732.023 526.149 731.665 526.356C730.568 526.989 729.533 527.117 728.561 526.74C727.588 526.362 726.749 525.561 726.042 524.337ZM729.716 530.221L730.236 529.921L732.156 533.246L743.206 526.866L741.286 523.541L741.806 523.241L746.006 530.515L745.486 530.815L743.566 527.49L732.516 533.87L734.436 537.195L733.916 537.495L729.716 530.221ZM747.462 533.037L749.712 536.934C750.252 537.87 750.406 538.75 750.175 539.577C749.955 540.396 749.343 541.096 748.339 541.676C747.565 542.123 746.863 542.32 746.233 542.268C745.621 542.222 745.071 541.977 744.585 541.534L744.55 541.554C744.82 542.368 744.811 543.112 744.523 543.787C744.253 544.466 743.702 545.046 742.871 545.526C742.386 545.806 741.907 545.99 741.435 546.078C740.962 546.166 740.505 546.161 740.063 546.062C739.627 545.974 739.219 545.787 738.837 545.499C738.467 545.205 738.142 544.815 737.862 544.33L735.372 540.017L747.462 533.037ZM738.374 543.896C738.614 544.312 738.881 544.642 739.177 544.887C739.484 545.126 739.801 545.289 740.129 545.377C740.457 545.464 740.789 545.48 741.127 545.424C741.464 545.368 741.788 545.25 742.1 545.07L742.827 544.65C743.139 544.47 743.404 544.248 743.621 543.984C743.838 543.72 743.99 543.424 744.078 543.097C744.178 542.762 744.195 542.406 744.13 542.027C744.077 541.642 743.931 541.242 743.691 540.826L741.621 537.241L736.304 540.311L738.374 543.896ZM744.028 540.17C744.255 540.562 744.509 540.87 744.791 541.092C745.073 541.314 745.366 541.46 745.669 541.532C745.978 541.615 746.293 541.626 746.612 541.565C746.949 541.509 747.267 541.394 747.568 541.221L748.278 540.811C748.578 540.637 748.831 540.422 749.036 540.165C749.249 539.919 749.396 539.641 749.479 539.332C749.569 539.034 749.588 538.707 749.537 538.352C749.486 537.996 749.347 537.622 749.12 537.23L747.25 533.991L742.158 536.931L744.028 540.17ZM740.908 549.606L741.428 549.306L743.348 552.631L754.398 546.251L752.478 542.926L752.998 542.626L757.198 549.901L756.678 550.201L754.758 546.875L743.708 553.255L745.628 556.581L745.108 556.881L740.908 549.606ZM747.004 560.165L759.094 553.185L759.454 553.808L747.936 560.458L751.476 566.59L750.904 566.92L747.004 560.165ZM752.1 568.991L752.62 568.691L754.54 572.017L765.59 565.637L763.67 562.311L764.19 562.011L768.39 569.286L767.87 569.586L765.95 566.26L754.9 572.64L756.82 575.966L756.3 576.266L752.1 568.991ZM771.494 575.983L759.976 582.633L759.616 582.01L771.134 575.36L768.684 571.116L769.256 570.786L774.516 579.897L773.944 580.227L771.494 575.983ZM765.212 591.702L770.218 588.812L774.732 580.271L775.152 580.998L771.046 588.727L771.076 588.779L779.822 589.087L780.232 589.797L770.578 589.436L765.572 592.326L765.212 591.702Z" fill="#FFFAEE"/>
<path d="M282.923 635.707L285.173 631.81C285.713 630.875 286.398 630.301 287.23 630.088C288.049 629.868 288.961 630.048 289.966 630.628C290.74 631.075 291.262 631.584 291.532 632.156C291.797 632.71 291.86 633.308 291.72 633.95L291.754 633.97C292.325 633.33 292.974 632.965 293.702 632.878C294.425 632.772 295.202 632.959 296.034 633.439C296.519 633.719 296.917 634.041 297.23 634.407C297.543 634.772 297.767 635.171 297.902 635.603C298.044 636.024 298.086 636.471 298.027 636.945C297.958 637.413 297.783 637.89 297.503 638.375L295.013 642.687L282.923 635.707ZM296.871 638.148C297.111 637.733 297.263 637.336 297.328 636.957C297.381 636.572 297.363 636.216 297.275 635.888C297.188 635.56 297.035 635.264 296.818 635C296.601 634.736 296.336 634.514 296.025 634.334L295.297 633.914C294.985 633.734 294.661 633.616 294.324 633.56C293.987 633.504 293.654 633.52 293.326 633.608C292.987 633.689 292.67 633.852 292.374 634.097C292.067 634.336 291.794 634.663 291.554 635.078L289.484 638.664L294.801 641.734L296.871 638.148ZM290.817 635.115C291.043 634.722 291.182 634.348 291.233 633.993C291.285 633.638 291.265 633.311 291.176 633.013C291.093 632.703 290.945 632.425 290.733 632.18C290.516 631.916 290.257 631.697 289.957 631.524L289.247 631.114C288.947 630.941 288.634 630.829 288.308 630.78C287.989 630.719 287.675 630.73 287.365 630.813C287.062 630.884 286.77 631.031 286.488 631.253C286.205 631.475 285.951 631.782 285.724 632.175L283.854 635.414L288.947 638.354L290.817 635.115ZM304.799 625.737L300.144 624.759L297.324 629.643L300.499 633.185L300.119 633.843L290.319 622.897L290.809 622.048L305.179 625.079L304.799 625.737ZM291.272 622.847L291.222 622.933L296.86 629.168L299.5 624.595L291.272 622.847ZM308.483 619.837C308.169 620.379 307.837 620.834 307.487 621.201C307.154 621.564 306.805 621.862 306.438 622.097C306.06 622.325 305.673 622.502 305.277 622.628C304.877 622.735 304.469 622.815 304.053 622.868L303.952 622.163C304.765 622.063 305.498 621.832 306.153 621.471C306.803 621.092 307.395 620.44 307.928 619.517C308.535 618.466 308.768 617.515 308.628 616.664C308.488 615.814 307.968 615.128 307.067 614.608C306.617 614.348 306.196 614.198 305.804 614.156C305.412 614.115 305.042 614.155 304.694 614.278C304.347 614.4 304.018 614.596 303.71 614.864C303.407 615.12 303.117 615.423 302.84 615.77L301.815 617.026C301.357 617.578 300.908 617.996 300.467 618.28C300.032 618.553 299.61 618.725 299.199 618.795C298.789 618.866 298.386 618.857 297.991 618.768C297.592 618.66 297.213 618.503 296.855 618.296C295.804 617.69 295.225 616.893 295.117 615.907C294.997 614.914 295.274 613.835 295.947 612.669C296.514 611.687 297.126 610.986 297.785 610.566C298.45 610.134 299.146 609.889 299.872 609.831L300 610.528C299.286 610.593 298.642 610.814 298.07 611.192C297.498 611.57 296.968 612.18 296.481 613.023C295.908 614.016 295.675 614.913 295.782 615.714C295.878 616.508 296.353 617.152 297.208 617.645C297.635 617.892 298.035 618.039 298.409 618.085C298.789 618.12 299.15 618.082 299.491 617.971C299.827 617.842 300.152 617.652 300.466 617.402C300.768 617.145 301.061 616.837 301.346 616.478L302.361 615.24C302.825 614.676 303.283 614.256 303.736 613.978C304.177 613.694 304.612 613.514 305.041 613.438C305.469 613.363 305.883 613.378 306.283 613.486C306.683 613.594 307.062 613.751 307.42 613.957C308.517 614.591 309.145 615.423 309.304 616.454C309.463 617.485 309.189 618.613 308.483 619.837ZM311.881 613.471L299.791 606.491L303.901 599.372L304.473 599.702L300.723 606.197L305.815 609.137L309.435 602.867L310.007 603.197L306.387 609.467L311.669 612.517L315.419 606.022L315.991 606.352L311.881 613.471ZM319.6 606.02L319.046 605.7L323.846 597.386L324.4 597.706L319.6 606.02ZM311.243 586.655L318.587 590.895C319.407 591.368 320.123 591.728 320.736 591.974C321.337 592.213 321.874 592.323 322.347 592.303C322.808 592.277 323.224 592.117 323.594 591.823C323.964 591.528 324.323 591.081 324.669 590.48C325.016 589.88 325.224 589.346 325.294 588.878C325.364 588.41 325.295 587.97 325.087 587.557C324.867 587.138 324.503 586.728 323.996 586.327C323.477 585.92 322.807 585.479 321.987 585.006L314.643 580.766L315.003 580.142L322.261 584.332C323.196 584.872 323.954 585.387 324.534 585.876C325.109 586.346 325.518 586.837 325.762 587.347C326.002 587.839 326.075 588.366 325.981 588.928C325.894 589.479 325.648 590.106 325.241 590.81C324.834 591.515 324.411 592.048 323.971 592.41C323.538 592.76 323.045 592.96 322.492 593.011C321.935 593.043 321.305 592.934 320.604 592.682C319.897 592.413 319.076 592.008 318.141 591.468L310.883 587.278L311.243 586.655ZM317.708 577.417L317.668 577.487L328.909 583.977L328.569 584.566L316.479 577.586L316.999 576.685L331.46 577.598L331.5 577.529L320.259 571.039L320.599 570.45L332.689 577.43L332.169 578.33L317.708 577.417ZM334.125 574.942L333.606 574.642L335.526 571.317L324.475 564.937L322.555 568.262L322.035 567.962L326.235 560.688L326.755 560.988L324.835 564.313L335.886 570.693L337.806 567.368L338.325 567.668L334.125 574.942ZM330.483 554.65L342.001 561.3L341.641 561.924L330.123 555.274L327.673 559.517L327.102 559.187L332.362 550.077L332.933 550.407L330.483 554.65ZM347.521 551.979C347.368 552.245 347.206 552.406 347.035 552.461C346.853 552.51 346.67 552.481 346.485 552.374L346.312 552.274C346.127 552.168 346.016 552.027 345.979 551.851C345.93 551.669 345.982 551.445 346.136 551.179C346.289 550.914 346.457 550.757 346.639 550.708C346.809 550.652 346.987 550.678 347.172 550.785L347.345 550.885C347.53 550.991 347.647 551.136 347.695 551.318C347.733 551.493 347.675 551.714 347.521 551.979ZM339.762 547.499C339.608 547.765 339.446 547.926 339.276 547.981C339.094 548.03 338.91 548.001 338.726 547.894L338.552 547.794C338.368 547.688 338.257 547.547 338.219 547.371C338.17 547.189 338.223 546.965 338.376 546.699C338.529 546.434 338.697 546.277 338.879 546.228C339.05 546.172 339.228 546.198 339.412 546.305L339.586 546.405C339.77 546.511 339.887 546.656 339.936 546.838C339.973 547.013 339.915 547.234 339.762 547.499ZM359.65 530.733L356.965 529.183L353.365 535.418L352.793 535.088L347.42 523.995L347.91 523.146L356.795 528.276L357.935 526.302L358.455 526.602L357.315 528.576L360 530.126L359.65 530.733ZM353.185 534.529L356.445 528.883L348.201 524.123L348.171 524.175L353.185 534.529ZM362.246 526.236L350.156 519.256L352.616 514.995C353.209 513.968 353.956 513.367 354.857 513.194C355.752 513.003 356.708 513.201 357.724 513.788C358.74 514.374 359.395 515.107 359.689 515.984C359.989 516.851 359.843 517.798 359.25 518.825L357.15 522.463L362.606 525.613L362.246 526.236ZM356.578 522.133L358.678 518.495C358.918 518.08 359.061 517.685 359.108 517.311C359.161 516.926 359.14 516.576 359.045 516.259C358.946 515.925 358.779 515.628 358.543 515.369C358.315 515.098 358.039 514.87 357.715 514.683L356.953 514.243C356.641 514.063 356.311 513.942 355.962 513.879C355.62 513.805 355.286 513.811 354.958 513.899C354.625 513.969 354.305 514.123 353.998 514.361C353.698 514.588 353.428 514.91 353.188 515.325L351.088 518.963L356.578 522.133ZM358.464 506.187L369.982 512.837L369.622 513.46L358.104 506.81L355.654 511.054L355.082 510.724L360.342 501.613L360.914 501.943L358.464 506.187ZM324.118 655.796L308.564 646.816L311.034 642.538L311.519 642.818L309.359 646.559L323.943 654.979L326.103 651.238L326.588 651.518L324.118 655.796ZM328.001 644.029C327.688 644.572 327.356 645.027 327.005 645.394C326.673 645.757 326.324 646.055 325.957 646.29C325.579 646.518 325.192 646.695 324.796 646.821C324.395 646.928 323.987 647.008 323.572 647.061L323.471 646.356C324.283 646.255 325.017 646.025 325.672 645.664C326.322 645.284 326.914 644.633 327.447 643.709C328.054 642.658 328.287 641.708 328.147 640.857C328.007 640.006 327.486 639.321 326.586 638.801C326.135 638.541 325.714 638.39 325.323 638.349C324.931 638.307 324.561 638.348 324.213 638.47C323.865 638.593 323.537 638.788 323.228 639.056C322.926 639.313 322.636 639.615 322.358 639.963L321.333 641.219C320.876 641.771 320.427 642.189 319.986 642.473C319.551 642.745 319.129 642.917 318.718 642.988C318.308 643.059 317.905 643.05 317.51 642.96C317.11 642.853 316.731 642.696 316.374 642.489C315.323 641.882 314.743 641.086 314.635 640.1C314.516 639.107 314.792 638.027 315.466 636.861C316.032 635.88 316.645 635.179 317.303 634.758C317.969 634.326 318.664 634.081 319.391 634.023L319.519 634.721C318.804 634.786 318.161 635.007 317.588 635.385C317.016 635.763 316.487 636.373 316 637.216C315.427 638.209 315.194 639.106 315.301 639.907C315.397 640.701 315.872 641.345 316.726 641.838C317.153 642.085 317.554 642.231 317.927 642.278C318.308 642.312 318.668 642.274 319.009 642.163C319.346 642.034 319.671 641.845 319.984 641.595C320.287 641.338 320.58 641.03 320.864 640.671L321.879 639.433C322.343 638.869 322.802 638.448 323.254 638.171C323.696 637.887 324.131 637.707 324.559 637.631C324.988 637.555 325.402 637.571 325.802 637.679C326.202 637.786 326.58 637.944 326.938 638.15C328.035 638.784 328.663 639.616 328.823 640.647C328.982 641.678 328.708 642.805 328.001 644.029ZM320.438 630.688L320.398 630.758L331.639 637.248L331.299 637.837L319.21 630.857L319.73 629.956L334.191 630.869L334.231 630.799L322.99 624.309L323.33 623.72L335.419 630.7L334.899 631.601L320.438 630.688ZM341.106 620.852L336.451 619.874L333.631 624.758L336.806 628.3L336.426 628.958L326.626 618.011L327.116 617.163L341.486 620.194L341.106 620.852ZM327.579 617.961L327.529 618.048L333.167 624.282L335.807 619.709L327.579 617.961ZM342.592 618.278L330.502 611.298L332.962 607.037C333.555 606.009 334.302 605.409 335.203 605.236C336.098 605.045 337.054 605.243 338.07 605.829C339.086 606.416 339.741 607.148 340.035 608.026C340.335 608.892 340.189 609.839 339.596 610.867L337.496 614.504L342.952 617.654L342.592 618.278ZM336.924 614.174L339.024 610.537C339.264 610.121 339.407 609.727 339.454 609.353C339.507 608.968 339.486 608.617 339.391 608.301C339.292 607.967 339.125 607.67 338.889 607.411C338.661 607.14 338.385 606.912 338.061 606.725L337.299 606.285C336.987 606.105 336.657 605.983 336.308 605.921C335.966 605.846 335.632 605.853 335.304 605.941C334.971 606.011 334.651 606.165 334.344 606.403C334.044 606.63 333.774 606.951 333.534 607.367L331.434 611.004L336.924 614.174ZM350.311 610.827L349.757 610.507L354.557 602.193L355.111 602.513L350.311 610.827ZM344.406 588.536L355.924 595.186L355.564 595.809L344.046 589.159L341.596 593.403L341.024 593.073L346.284 583.962L346.856 584.292L344.406 588.536ZM361.548 585.925C360.788 587.241 359.706 587.956 358.301 588.069C356.903 588.17 355.124 587.597 352.965 586.351C350.806 585.104 349.421 583.85 348.809 582.589C348.205 581.316 348.282 580.021 349.042 578.705C349.802 577.389 350.881 576.68 352.279 576.578C353.684 576.466 355.466 577.033 357.625 578.279C359.784 579.526 361.166 580.786 361.771 582.058C362.382 583.32 362.308 584.609 361.548 585.925ZM360.976 585.595C361.623 584.475 361.685 583.394 361.162 582.353C360.627 581.306 359.534 580.305 357.883 579.352L356.567 578.592C354.916 577.639 353.509 577.196 352.346 577.263C351.171 577.324 350.261 577.915 349.614 579.035C348.967 580.155 348.911 581.239 349.446 582.286C349.969 583.327 351.056 584.324 352.707 585.278L354.023 586.038C355.674 586.991 357.087 587.437 358.262 587.376C359.425 587.309 360.33 586.715 360.976 585.595ZM367.099 581.749L366.545 581.429L371.345 573.115L371.899 573.435L367.099 581.749ZM372.583 562.292L372.543 562.361C372.753 562.637 372.933 562.925 373.082 563.227C373.226 563.51 373.319 563.817 373.358 564.148C373.398 564.479 373.377 564.836 373.294 565.22C373.218 565.591 373.05 566.003 372.79 566.453C372.037 567.758 370.96 568.476 369.56 568.607C368.161 568.738 366.375 568.177 364.205 566.923C362.022 565.663 360.641 564.389 360.061 563.099C359.47 561.803 359.565 560.48 360.345 559.129C360.851 558.251 361.505 557.666 362.305 557.374C363.093 557.075 363.928 557.002 364.809 557.157L364.714 557.841C363.922 557.692 363.199 557.744 362.545 557.998C361.886 558.233 361.346 558.714 360.926 559.442C360.259 560.596 360.183 561.715 360.698 562.797C361.201 563.873 362.278 564.887 363.929 565.84L365.228 566.59C366.879 567.544 368.305 567.982 369.504 567.904C370.692 567.82 371.619 567.201 372.286 566.046C372.552 565.584 372.714 565.131 372.771 564.687C372.834 564.23 372.8 563.795 372.67 563.381C372.539 562.967 372.326 562.59 372.03 562.25C371.729 561.891 371.353 561.582 370.903 561.322L369.292 560.392L367.582 563.354L367.045 563.044L369.105 559.476L374.682 562.696L374.332 563.302L372.583 562.292ZM376.528 559.498L376.168 560.122L364.079 553.142L366.539 548.881C367.132 547.853 367.879 547.253 368.779 547.08C369.675 546.889 370.631 547.086 371.647 547.673C372.64 548.246 373.284 548.957 373.58 549.805C373.875 550.653 373.751 551.575 373.208 552.569L372.918 553.072L380.408 552.778L379.988 553.505L372.535 553.775L371.055 556.338L376.528 559.498ZM372.601 552.381C372.841 551.965 372.984 551.57 373.03 551.197C373.083 550.812 373.062 550.461 372.968 550.145C372.868 549.81 372.701 549.513 372.466 549.254C372.237 548.984 371.961 548.755 371.638 548.569L370.876 548.129C370.564 547.949 370.234 547.827 369.885 547.764C369.543 547.69 369.208 547.697 368.88 547.785C368.548 547.854 368.228 548.008 367.921 548.247C367.62 548.474 367.35 548.795 367.11 549.211L365.01 552.848L370.501 556.018L372.601 552.381ZM381.624 550.671L381.105 550.371L383.025 547.046L371.974 540.666L370.054 543.991L369.535 543.691L373.735 536.417L374.254 536.717L372.334 540.042L383.385 546.422L385.305 543.097L385.824 543.397L381.624 550.671ZM375.281 533.739L377.131 530.535C377.971 529.08 379.092 528.311 380.495 528.228C381.898 528.144 383.598 528.68 385.596 529.833C387.593 530.986 388.907 532.191 389.536 533.448C390.166 534.704 390.06 536.06 389.22 537.515L387.37 540.719L375.281 533.739ZM388.649 537.185C389.349 535.972 389.432 534.842 388.897 533.794C388.369 532.735 387.349 531.769 385.836 530.896L384.555 530.156C383.042 529.282 381.695 528.882 380.514 528.954C379.34 529.015 378.402 529.652 377.702 530.865L376.212 533.445L387.159 539.765L388.649 537.185ZM382.193 519.286L397.747 528.266L395.277 532.545L394.792 532.265L396.952 528.523L382.368 520.103L380.208 523.845L379.723 523.565L382.193 519.286Z" fill="#FFFAEE"/>
<path d="M369.1 445.04H372.8C374.48 445.04 375.707 445.627 376.48 446.8C377.253 447.973 377.64 449.713 377.64 452.02C377.64 454.327 377.253 456.067 376.48 457.24C375.707 458.413 374.48 459 372.8 459H369.1V445.04ZM372.8 458.34C374.2 458.34 375.22 457.847 375.86 456.86C376.513 455.873 376.84 454.507 376.84 452.76V451.28C376.84 449.533 376.513 448.167 375.86 447.18C375.22 446.193 374.2 445.7 372.8 445.7H369.82V458.34H372.8ZM379.872 459V445.04H388.092V445.7H380.592V451.58H387.832V452.24H380.592V458.34H388.092V459H379.872ZM394.644 459.24C394.018 459.24 393.458 459.18 392.964 459.06C392.484 458.953 392.051 458.8 391.664 458.6C391.278 458.387 390.931 458.14 390.624 457.86C390.331 457.567 390.058 457.253 389.804 456.92L390.364 456.48C390.858 457.133 391.424 457.653 392.064 458.04C392.718 458.413 393.578 458.6 394.644 458.6C395.858 458.6 396.798 458.327 397.464 457.78C398.131 457.233 398.464 456.44 398.464 455.4C398.464 454.88 398.384 454.44 398.224 454.08C398.064 453.72 397.844 453.42 397.564 453.18C397.284 452.94 396.951 452.753 396.564 452.62C396.191 452.487 395.784 452.387 395.344 452.32L393.744 452.06C393.038 451.94 392.451 451.76 391.984 451.52C391.531 451.28 391.171 451 390.904 450.68C390.638 450.36 390.444 450.007 390.324 449.62C390.218 449.22 390.164 448.813 390.164 448.4C390.164 447.187 390.564 446.287 391.364 445.7C392.164 445.1 393.238 444.8 394.584 444.8C395.718 444.8 396.631 444.98 397.324 445.34C398.031 445.7 398.591 446.18 399.004 446.78L398.464 447.24C398.051 446.653 397.538 446.207 396.924 445.9C396.311 445.593 395.518 445.44 394.544 445.44C393.398 445.44 392.504 445.687 391.864 446.18C391.224 446.66 390.904 447.393 390.904 448.38C390.904 448.873 390.978 449.293 391.124 449.64C391.284 449.987 391.498 450.28 391.764 450.52C392.044 450.747 392.371 450.933 392.744 451.08C393.118 451.213 393.531 451.313 393.984 451.38L395.564 451.64C396.284 451.76 396.878 451.947 397.344 452.2C397.811 452.44 398.184 452.727 398.464 453.06C398.744 453.393 398.938 453.76 399.044 454.16C399.151 454.56 399.204 454.967 399.204 455.38C399.204 456.647 398.798 457.607 397.984 458.26C397.171 458.913 396.058 459.24 394.644 459.24ZM401.177 459V458.4H405.017V445.64H401.177V445.04H409.577V445.64H405.737V458.4H409.577V459H401.177ZM419.769 456.98H419.689C419.555 457.3 419.395 457.6 419.209 457.88C419.035 458.147 418.815 458.38 418.549 458.58C418.282 458.78 417.962 458.94 417.589 459.06C417.229 459.18 416.789 459.24 416.269 459.24C414.762 459.24 413.602 458.667 412.789 457.52C411.975 456.373 411.569 454.547 411.569 452.04C411.569 449.52 411.982 447.687 412.809 446.54C413.635 445.38 414.829 444.8 416.389 444.8C417.402 444.8 418.235 445.073 418.889 445.62C419.542 446.153 420.022 446.84 420.329 447.68L419.689 447.94C419.422 447.18 419.015 446.58 418.469 446.14C417.935 445.687 417.249 445.46 416.409 445.46C415.075 445.46 414.069 445.953 413.389 446.94C412.709 447.913 412.369 449.353 412.369 451.26V452.76C412.369 454.667 412.702 456.12 413.369 457.12C414.035 458.107 415.035 458.6 416.369 458.6C416.902 458.6 417.375 458.513 417.789 458.34C418.215 458.167 418.575 457.92 418.869 457.6C419.162 457.28 419.382 456.907 419.529 456.48C419.689 456.04 419.769 455.56 419.769 455.04V453.18H416.349V452.56H420.469V459H419.769V456.98ZM423.601 446.02H423.521V459H422.841V445.04H423.881L430.321 458.02H430.401V445.04H431.081V459H430.041L423.601 446.02ZM487.814 445.04H491.514C493.194 445.04 494.421 445.627 495.194 446.8C495.967 447.973 496.354 449.713 496.354 452.02C496.354 454.327 495.967 456.067 495.194 457.24C494.421 458.413 493.194 459 491.514 459H487.814V445.04ZM491.514 458.34C492.914 458.34 493.934 457.847 494.574 456.86C495.227 455.873 495.554 454.507 495.554 452.76V451.28C495.554 449.533 495.227 448.167 494.574 447.18C493.934 446.193 492.914 445.7 491.514 445.7H488.534V458.34H491.514ZM498.586 459V445.04H506.806V445.7H499.306V451.58H506.546V452.24H499.306V458.34H506.806V459H498.586ZM509.378 459V445.04H514.298C515.485 445.04 516.378 445.387 516.978 446.08C517.592 446.76 517.898 447.687 517.898 448.86C517.898 450.033 517.592 450.967 516.978 451.66C516.378 452.353 515.485 452.7 514.298 452.7H510.098V459H509.378ZM510.098 452.04H514.298C514.778 452.04 515.192 451.967 515.538 451.82C515.898 451.673 516.192 451.48 516.418 451.24C516.658 450.987 516.832 450.693 516.938 450.36C517.058 450.027 517.118 449.673 517.118 449.3V448.42C517.118 448.06 517.058 447.713 516.938 447.38C516.832 447.047 516.658 446.76 516.418 446.52C516.192 446.267 515.898 446.067 515.538 445.92C515.192 445.773 514.778 445.7 514.298 445.7H510.098V452.04ZM524.451 445.7V459H523.731V445.7H518.831V445.04H529.351V445.7H524.451Z" fill="#FFFAEE"/>
<line x1="368.5" y1="689.25" x2="718.5" y2="689.25" stroke="#FFFAEE" stroke-width="1.5"/>
<line x1="564.15" y1="346.625" x2="739.15" y2="649.734" stroke="#FFFAEE" stroke-width="1.5"/>
<line y1="-0.75" x2="350" y2="-0.75" transform="matrix(-0.5 0.866025 0.866025 0.5 521 347)" stroke="#FFFAEE" stroke-width="1.5"/>
<path d="M690.893 702V726M698.701 702V726M706.508 702V726M714.316 702V726M719 705L685 724.486" stroke="#FFFAEE" stroke-width="2" stroke-linecap="square" stroke-linejoin="round"/>
<path d="M545.311 400.44C544.141 400.44 543.097 400.197 542.179 399.711C541.261 399.225 540.532 398.532 539.992 397.632C539.47 396.732 539.209 395.661 539.209 394.419C539.209 393.177 539.47 392.106 539.992 391.206C540.532 390.306 541.261 389.622 542.179 389.154C543.097 388.668 544.141 388.425 545.311 388.425C546.481 388.425 547.525 388.668 548.443 389.154C549.361 389.622 550.081 390.306 550.603 391.206C551.143 392.106 551.413 393.177 551.413 394.419C551.413 395.661 551.143 396.732 550.603 397.632C550.081 398.532 549.361 399.225 548.443 399.711C547.525 400.197 546.481 400.44 545.311 400.44ZM545.311 399.063C546.607 399.063 547.696 398.667 548.578 397.875C549.46 397.083 549.901 395.931 549.901 394.419C549.901 392.925 549.46 391.773 548.578 390.963C547.696 390.153 546.607 389.748 545.311 389.748C543.997 389.748 542.899 390.153 542.017 390.963C541.135 391.773 540.694 392.925 540.694 394.419C540.694 395.427 540.892 396.282 541.288 396.984C541.702 397.668 542.26 398.19 542.962 398.55C543.664 398.892 544.447 399.063 545.311 399.063ZM542.989 391.395H544.285V397.416H542.989V391.395ZM543.772 391.395H545.635C546.013 391.395 546.373 391.449 546.715 391.557C547.075 391.647 547.363 391.836 547.579 392.124C547.795 392.394 547.903 392.79 547.903 393.312C547.903 393.852 547.795 394.266 547.579 394.554C547.363 394.824 547.075 395.013 546.715 395.121C546.373 395.211 546.013 395.256 545.635 395.256H543.772V394.122H545.527C545.887 394.122 546.157 394.077 546.337 393.987C546.517 393.879 546.607 393.654 546.607 393.312C546.607 392.952 546.517 392.727 546.337 392.637C546.157 392.547 545.887 392.502 545.527 392.502H543.772V391.395ZM545.176 394.581H546.526L548.146 397.416H546.742L545.176 394.581Z" fill="#FFFAEE"/>
<path d="M366.158 400.161C366.158 398.201 366.5 396.469 367.184 394.965C367.868 393.46 368.78 392.207 369.919 391.204C371.013 390.246 372.244 389.517 373.612 389.016C375.025 388.514 376.438 388.263 377.851 388.263C379.264 388.263 380.655 388.514 382.022 389.016C383.436 389.517 384.712 390.246 385.852 391.204C386.946 392.207 387.835 393.46 388.518 394.965C389.202 396.469 389.544 398.201 389.544 400.161V402.623H382.569V400.161C382.569 398.475 382.091 397.244 381.133 396.469C380.222 395.648 379.128 395.238 377.851 395.238C376.575 395.238 375.458 395.648 374.501 396.469C373.589 397.244 373.133 398.475 373.133 400.161V425.872C373.133 427.559 373.589 428.812 374.501 429.633C375.458 430.408 376.575 430.795 377.851 430.795C379.128 430.795 380.222 430.408 381.133 429.633C382.091 428.812 382.569 427.559 382.569 425.872V416.709H377.031V410.555H389.544V425.872C389.544 427.923 389.202 429.679 388.518 431.137C387.835 432.596 386.946 433.804 385.852 434.761C384.712 435.764 383.436 436.517 382.022 437.018C380.655 437.519 379.264 437.77 377.851 437.77C376.438 437.77 375.025 437.519 373.612 437.018C372.244 436.517 371.013 435.764 369.919 434.761C368.78 433.804 367.868 432.596 367.184 431.137C366.5 429.679 366.158 427.923 366.158 425.872V400.161ZM399.923 395.238V410.418H403.889C405.12 410.418 406.1 410.259 406.829 409.94C407.559 409.575 408.128 409.074 408.539 408.435C408.903 407.797 409.154 407.022 409.291 406.11C409.428 405.153 409.496 404.059 409.496 402.828C409.496 401.597 409.428 400.526 409.291 399.614C409.154 398.657 408.881 397.837 408.47 397.153C407.604 395.876 405.963 395.238 403.547 395.238H399.923ZM392.948 437.36V388.674H404.162C412.368 388.674 416.471 393.437 416.471 402.965C416.471 405.837 416.015 408.276 415.103 410.282C414.237 412.287 412.687 413.906 410.453 415.137L417.975 437.36H410.59L404.094 416.572H399.923V437.36H392.948ZM433.414 420.333L429.995 402.691H429.858L426.439 420.333H433.414ZM416.182 437.36L427.055 388.674H432.867L443.739 437.36H436.764L434.713 426.898H425.208L423.157 437.36H416.182ZM444.438 437.36V388.674H454.9C456.815 388.674 458.502 388.924 459.961 389.426C461.419 389.927 462.741 390.816 463.927 392.093C465.112 393.369 465.932 394.873 466.388 396.606C466.844 398.292 467.072 400.594 467.072 403.512C467.072 405.7 466.935 407.546 466.662 409.051C466.434 410.555 465.91 411.968 465.089 413.29C464.132 414.886 462.855 416.139 461.26 417.051C459.664 417.917 457.567 418.35 454.969 418.35H451.413V437.36H444.438ZM451.413 395.238V411.786H454.764C456.177 411.786 457.271 411.581 458.046 411.171C458.821 410.76 459.391 410.19 459.755 409.461C460.12 408.777 460.325 407.934 460.371 406.931C460.462 405.928 460.508 404.811 460.508 403.58C460.508 402.441 460.485 401.369 460.439 400.367C460.394 399.318 460.188 398.406 459.824 397.631C459.459 396.856 458.912 396.264 458.183 395.853C457.453 395.443 456.405 395.238 455.037 395.238H451.413ZM469.549 437.36V388.674H476.524V409.529H485.14V388.674H492.114V437.36H485.14V415.684H476.524V437.36H469.549ZM496.134 437.36V388.674H503.109V437.36H496.134ZM529.305 423.479V426.488C529.305 427.992 529.009 429.428 528.416 430.795C527.869 432.117 527.094 433.303 526.091 434.351C525.088 435.4 523.903 436.243 522.535 436.881C521.213 437.474 519.777 437.77 518.227 437.77C516.905 437.77 515.561 437.588 514.193 437.223C512.825 436.858 511.595 436.22 510.501 435.308C509.406 434.397 508.495 433.234 507.765 431.821C507.082 430.362 506.74 428.516 506.74 426.282V399.478C506.74 397.882 507.013 396.401 507.56 395.033C508.107 393.665 508.882 392.48 509.885 391.477C510.888 390.474 512.073 389.699 513.441 389.152C514.854 388.56 516.404 388.263 518.091 388.263C521.373 388.263 524.04 389.335 526.091 391.477C527.094 392.526 527.869 393.779 528.416 395.238C529.009 396.651 529.305 398.201 529.305 399.888V402.623H522.33V400.298C522.33 398.931 521.943 397.745 521.168 396.742C520.393 395.74 519.344 395.238 518.022 395.238C516.29 395.238 515.128 395.785 514.535 396.879C513.988 397.928 513.714 399.272 513.714 400.914V425.804C513.714 427.217 514.011 428.402 514.603 429.359C515.241 430.317 516.358 430.795 517.954 430.795C518.41 430.795 518.888 430.727 519.39 430.59C519.937 430.408 520.438 430.134 520.894 429.77C521.304 429.405 521.646 428.904 521.92 428.265C522.193 427.627 522.33 426.829 522.33 425.872V423.479H529.305Z" fill="#FFFAEE"/>
<path d="M395 680.874L403.102 680.874L403.102 672.778L395 672.778L395 680.874Z" fill="#FFFAEE"/>
<path d="M395 666.309L403.102 666.309L403.102 658.186L395 658.186L395 666.309Z" fill="#FFFAEE"/>
<path d="M409.552 680.874L417.663 680.874L417.663 672.778L409.552 672.778L409.552 680.874Z" fill="#FFFAEE"/>
<path d="M409.551 666.309L417.652 666.309L417.652 658.214L409.551 658.214L409.551 666.309Z" fill="#FFFAEE"/>
<path d="M409.551 651.745L417.652 651.745L417.652 643.622L409.551 643.622L409.551 651.745Z" fill="#FFFAEE"/>
<path d="M432.223 666.281L432.223 658.204L424.112 658.204L424.112 666.309L432.223 666.281Z" fill="#FFFAEE"/>
<path d="M432.223 625.368L432.223 617.291L424.112 617.291L424.112 625.396L432.223 625.368Z" fill="#FFFAEE"/>
<path d="M403.183 639.932L403.183 631.855L395.072 631.855L395.072 639.96L403.183 639.932Z" fill="#FFFAEE"/>
<path d="M424.112 651.745L432.223 651.745L432.223 643.622L424.112 643.622L424.112 651.745Z" fill="#FFFAEE"/>
<path d="M395.072 625.396L403.183 625.396L403.183 617.273L395.072 617.273L395.072 625.396Z" fill="#FFFAEE"/>
<path d="M438.672 680.874L446.774 680.874L446.774 672.75L438.672 672.75L438.672 680.874Z" fill="#FFFAEE"/>
<path d="M438.672 639.96L446.774 639.96L446.774 631.836L438.672 631.836L438.672 639.96Z" fill="#FFFAEE"/>
<path d="M453.232 680.874L461.343 680.874L461.343 672.75L453.232 672.75L453.232 680.874Z" fill="#FFFAEE"/>
<path d="M467.898 639.96L476.009 639.96L476.009 631.836L467.898 631.836L467.898 639.96Z" fill="#FFFAEE"/>
<path d="M467.794 666.309L475.905 666.309L475.905 658.186L467.794 658.186L467.794 666.309Z" fill="#FFFAEE"/>
<path d="M482.354 651.745L490.465 651.745L490.465 643.622L482.354 643.622L482.354 651.745Z" fill="#FFFAEE"/>
<path d="M446.551 602C420.231 602 398.819 623.412 398.819 649.732C398.819 676.053 420.231 697.465 446.551 697.465C472.872 697.465 494.283 676.053 494.283 649.732C494.283 623.412 472.872 602 446.551 602ZM489.929 649.732C489.929 673.656 470.474 693.11 446.551 693.11C422.628 693.11 403.173 673.656 403.173 649.732C403.173 625.809 422.628 606.354 446.551 606.354C470.474 606.354 489.929 625.809 489.929 649.732Z" fill="#FFFAEE"/>
<path d="M528.705 570.682C535.517 596.105 561.741 611.246 587.165 604.434C612.589 597.621 627.729 571.397 620.917 545.974C614.105 520.55 587.88 505.41 562.457 512.222C537.033 519.034 521.893 545.258 528.705 570.682ZM563.584 516.428C586.692 510.236 610.519 523.993 616.711 547.101C622.903 570.209 609.146 594.036 586.038 600.228C562.93 606.42 539.103 592.663 532.911 569.555C526.719 546.447 540.476 522.619 563.584 516.428Z" fill="#FFFAEE"/>
<path d="M582.094 500.194L585.255 540.69L553.026 510.462L549.528 514.232L580.116 542.952L514.002 530.745L513.135 535.757L579.728 548.102L542.959 564.594L545.089 569.246L580.133 553.571L543.43 601.649L547.522 604.713L584.428 556.404L578.467 598.812L583.512 599.496L589.75 555.154L615.489 603.056L620.045 600.596L596.363 556.746L612.697 569.544L615.859 565.51L594.464 548.668L626.477 543.454L625.666 538.448L593.301 543.668L608.511 517.638L604.096 515.014L590.213 538.741L587.203 499.799L582.094 500.194Z" fill="#FFFAEE"/>
<path d="M621 710L629 718L621 726" stroke="#FFFAEE" stroke-width="2"/>
<path d="M641 713V708.25C641 704.798 638.202 702 634.75 702H615.25C611.798 702 609 704.798 609 708.25V711.75C609 715.202 611.798 718 615.25 718H627" stroke="#FFFAEE" stroke-width="2" stroke-linecap="round"/>
</svg>
