<svg width="1080" height="1080" viewBox="0 0 1080 1080" fill="none" xmlns="http://www.w3.org/2000/svg">
<rect width="1080" height="1080" fill="#191919"/>
<path d="M454.91 458C434.557 458 418 474.557 418 494.91C418 515.263 434.557 531.82 454.91 531.82C475.263 531.82 491.82 515.263 491.82 494.91C491.82 474.557 475.263 458 454.91 458ZM488.453 494.91C488.453 513.409 473.409 528.453 454.91 528.453C436.411 528.453 421.367 513.409 421.367 494.91C421.367 476.411 436.411 461.367 454.91 461.367C473.409 461.367 488.453 476.411 488.453 494.91Z" fill="#FFFAEE"/>
<path d="M510.91 458C490.557 458 474 474.557 474 494.91C474 515.263 490.557 531.82 510.91 531.82C531.263 531.82 547.82 515.263 547.82 494.91C547.82 474.557 531.263 458 510.91 458ZM544.453 494.91C544.453 513.409 529.409 528.453 510.91 528.453C492.411 528.453 477.367 513.409 477.367 494.91C477.367 476.411 492.411 461.367 510.91 461.367C529.409 461.367 544.453 476.411 544.453 494.91Z" fill="#FFFAEE"/>
<path d="M567.91 458C547.557 458 531 474.557 531 494.91C531 515.263 547.557 531.82 567.91 531.82C588.263 531.82 604.82 515.263 604.82 494.91C604.82 474.557 588.263 458 567.91 458ZM601.453 494.91C601.453 513.409 586.409 528.453 567.91 528.453C549.411 528.453 534.367 513.409 534.367 494.91C534.367 476.411 549.411 461.367 567.91 461.367C586.409 461.367 601.453 476.411 601.453 494.91Z" fill="#FFFAEE"/>
<path d="M625.91 458C605.557 458 589 474.557 589 494.91C589 515.263 605.557 531.82 625.91 531.82C646.263 531.82 662.82 515.263 662.82 494.91C662.82 474.557 646.263 458 625.91 458ZM659.453 494.91C659.453 513.409 644.409 528.453 625.91 528.453C607.411 528.453 592.367 513.409 592.367 494.91C592.367 476.411 607.411 461.367 625.91 461.367C644.409 461.367 659.453 476.411 659.453 494.91Z" fill="#FFFAEE"/>
<path d="M448.406 510.558V479.12H455.073C457.663 479.12 459.621 479.826 460.945 481.239C462.299 482.652 462.976 484.654 462.976 487.244V501.948C462.976 504.891 462.255 507.069 460.813 508.482C459.4 509.866 457.354 510.558 454.676 510.558H448.406ZM452.909 483.359V506.319H454.985C456.25 506.319 457.148 506.01 457.678 505.392C458.208 504.744 458.473 503.743 458.473 502.389V487.244C458.473 486.008 458.223 485.051 457.722 484.374C457.222 483.697 456.309 483.359 454.985 483.359H452.909Z" fill="#FFFAEE"/>
<path d="M519.666 488.171H515.163V487.156C515.163 486.126 514.912 485.243 514.412 484.507C513.941 483.741 513.132 483.359 511.984 483.359C511.365 483.359 510.865 483.476 510.482 483.712C510.1 483.947 509.791 484.242 509.555 484.595C509.32 484.978 509.158 485.419 509.069 485.92C508.981 486.391 508.937 486.891 508.937 487.421C508.937 488.039 508.952 488.554 508.981 488.966C509.04 489.378 509.158 489.746 509.334 490.07C509.511 490.394 509.761 490.674 510.085 490.909C510.438 491.145 510.909 491.38 511.498 491.615L514.942 492.984C515.943 493.367 516.752 493.823 517.37 494.353C517.989 494.853 518.474 495.442 518.827 496.119C519.151 496.826 519.372 497.635 519.49 498.548C519.608 499.431 519.666 500.446 519.666 501.594C519.666 502.919 519.534 504.155 519.269 505.303C519.004 506.422 518.577 507.379 517.989 508.173C517.37 508.998 516.561 509.645 515.56 510.116C514.559 510.587 513.338 510.823 511.895 510.823C510.806 510.823 509.791 510.631 508.849 510.249C507.907 509.866 507.097 509.336 506.42 508.659C505.743 507.982 505.199 507.202 504.786 506.319C504.404 505.406 504.212 504.42 504.212 503.36V501.683H508.716V503.096C508.716 503.92 508.952 504.67 509.423 505.347C509.923 505.995 510.747 506.319 511.895 506.319C512.661 506.319 513.249 506.216 513.661 506.01C514.103 505.774 514.442 505.45 514.677 505.038C514.912 504.626 515.045 504.141 515.074 503.581C515.133 502.993 515.163 502.345 515.163 501.638C515.163 500.814 515.133 500.137 515.074 499.607C515.016 499.078 514.898 498.651 514.721 498.327C514.515 498.003 514.235 497.738 513.882 497.532C513.558 497.326 513.117 497.105 512.558 496.87L509.334 495.545C507.392 494.75 506.082 493.705 505.405 492.41C504.757 491.086 504.433 489.437 504.433 487.465C504.433 486.288 504.595 485.169 504.919 484.109C505.243 483.05 505.728 482.137 506.376 481.372C506.994 480.606 507.774 480.003 508.716 479.561C509.688 479.09 510.836 478.855 512.16 478.855C513.279 478.855 514.294 479.061 515.207 479.473C516.149 479.885 516.958 480.43 517.635 481.107C518.989 482.52 519.666 484.139 519.666 485.964V488.171Z" fill="#FFFAEE"/>
<path d="M561.831 486.538C561.831 485.272 562.051 484.153 562.493 483.182C562.934 482.211 563.523 481.401 564.259 480.754C564.966 480.135 565.76 479.664 566.643 479.341C567.556 479.017 568.468 478.855 569.381 478.855C570.293 478.855 571.191 479.017 572.074 479.341C572.987 479.664 573.811 480.135 574.547 480.754C575.253 481.401 575.827 482.211 576.269 483.182C576.711 484.153 576.931 485.272 576.931 486.538V488.127H572.428V486.538C572.428 485.449 572.119 484.654 571.5 484.153C570.912 483.624 570.205 483.359 569.381 483.359C568.557 483.359 567.836 483.624 567.217 484.153C566.629 484.654 566.334 485.449 566.334 486.538V503.14C566.334 504.229 566.629 505.038 567.217 505.568C567.836 506.069 568.557 506.319 569.381 506.319C570.205 506.319 570.912 506.069 571.5 505.568C572.119 505.038 572.428 504.229 572.428 503.14V497.223H568.851V493.249H576.931V503.14C576.931 504.464 576.711 505.598 576.269 506.54C575.827 507.482 575.253 508.262 574.547 508.88C573.811 509.527 572.987 510.013 572.074 510.337C571.191 510.661 570.293 510.823 569.381 510.823C568.468 510.823 567.556 510.661 566.643 510.337C565.76 510.013 564.966 509.527 564.259 508.88C563.523 508.262 562.934 507.482 562.493 506.54C562.051 505.598 561.831 504.464 561.831 503.14V486.538Z" fill="#FFFAEE"/>
<path d="M620.609 510.558V479.12H624.936L631.736 498.062H631.824V479.12H636.328V510.558H632.089L625.201 491.66H625.113V510.558H620.609Z" fill="#FFFAEE"/>
<path d="M473.096 551.68H475.058L474.032 557.548H470.612L473.096 551.68ZM477.74 551.68H479.702L478.676 557.548H475.256L477.74 551.68ZM482.845 552.436H486.895C488.587 552.436 489.841 552.976 490.657 554.056C491.473 555.136 491.881 556.69 491.881 558.718C491.881 560.746 491.473 562.3 490.657 563.38C489.841 564.46 488.587 565 486.895 565H482.845V552.436ZM486.715 562.876C487.519 562.876 488.107 562.618 488.479 562.102C488.851 561.586 489.037 560.836 489.037 559.852V557.566C489.037 556.594 488.851 555.85 488.479 555.334C488.107 554.818 487.519 554.56 486.715 554.56H485.509V562.876H486.715ZM494.826 565V552.436H502.854V554.65H497.526V557.53H502.674V559.744H497.526V562.786H502.854V565H494.826ZM506.447 565V552.436H511.307C511.919 552.436 512.465 552.532 512.945 552.724C513.425 552.904 513.827 553.168 514.151 553.516C514.487 553.864 514.739 554.284 514.907 554.776C515.075 555.268 515.159 555.82 515.159 556.432C515.159 557.044 515.075 557.596 514.907 558.088C514.739 558.58 514.487 559 514.151 559.348C513.827 559.696 513.425 559.966 512.945 560.158C512.465 560.338 511.919 560.428 511.307 560.428H509.165V565H506.447ZM509.165 558.25H510.623C511.259 558.25 511.697 558.13 511.937 557.89C512.189 557.65 512.315 557.254 512.315 556.702V556.162C512.315 555.61 512.189 555.214 511.937 554.974C511.697 554.734 511.259 554.614 510.623 554.614H509.165V558.25ZM524.602 565L523.81 561.976H520.372L519.598 565H516.862L520.264 552.436H524.08L527.482 565H524.602ZM522.172 555.046H522.028L520.804 559.798H523.396L522.172 555.046ZM532.497 565H529.833V552.436H534.693C535.305 552.436 535.851 552.532 536.331 552.724C536.811 552.904 537.213 553.168 537.537 553.516C537.873 553.864 538.125 554.284 538.293 554.776C538.461 555.268 538.545 555.82 538.545 556.432C538.545 557.32 538.353 558.082 537.969 558.718C537.585 559.354 537.039 559.774 536.331 559.978L538.797 565H535.845L533.739 560.338H532.497V565ZM534.045 558.25C534.681 558.25 535.119 558.13 535.359 557.89C535.611 557.65 535.737 557.254 535.737 556.702V556.162C535.737 555.61 535.611 555.214 535.359 554.974C535.119 554.734 534.681 554.614 534.045 554.614H532.497V558.25H534.045ZM546.908 554.65V565H544.208V554.65H540.59V552.436H550.526V554.65H546.908ZM559.609 559.402L559.753 555.892H559.591L557.251 562.354L554.911 555.892H554.749L554.893 559.402V565H552.553V552.436H555.739L557.287 556.666H557.431L558.979 552.436H561.949V565H559.609V559.402ZM564.984 565V552.436H573.012V554.65H567.684V557.53H572.832V559.744H567.684V562.786H573.012V565H564.984ZM578.837 556.648H578.639V565H576.335V552.436H579.575L582.437 560.788H582.635V552.436H584.939V565H581.699L578.837 556.648ZM593.68 554.65V565H590.98V554.65H587.362V552.436H597.298V554.65H593.68ZM600.783 551.68H604.203L601.719 557.548H599.757L600.783 551.68ZM605.427 551.68H608.847L606.363 557.548H604.401L605.427 551.68Z" fill="#FFFAEE"/>
<path d="M487.4 584.676C486.656 584.676 485.954 584.538 485.294 584.262C484.646 583.986 484.076 583.59 483.584 583.074C483.104 582.558 482.726 581.934 482.45 581.202C482.174 580.47 482.036 579.642 482.036 578.718C482.036 577.806 482.174 576.984 482.45 576.252C482.726 575.508 483.104 574.878 483.584 574.362C484.076 573.846 484.646 573.45 485.294 573.174C485.954 572.898 486.656 572.76 487.4 572.76C488.144 572.76 488.84 572.898 489.488 573.174C490.148 573.45 490.718 573.846 491.198 574.362C491.69 574.878 492.074 575.508 492.35 576.252C492.626 576.984 492.764 577.806 492.764 578.718C492.764 579.642 492.626 580.47 492.35 581.202C492.074 581.934 491.69 582.558 491.198 583.074C490.718 583.59 490.148 583.986 489.488 584.262C488.84 584.538 488.144 584.676 487.4 584.676ZM487.4 583.956C488.048 583.956 488.648 583.836 489.2 583.596C489.764 583.344 490.244 583.002 490.64 582.57C491.048 582.138 491.366 581.634 491.594 581.058C491.822 580.47 491.936 579.84 491.936 579.168V578.268C491.936 577.596 491.822 576.972 491.594 576.396C491.366 575.808 491.048 575.298 490.64 574.866C490.244 574.434 489.764 574.098 489.2 573.858C488.648 573.606 488.048 573.48 487.4 573.48C486.752 573.48 486.146 573.606 485.582 573.858C485.03 574.098 484.55 574.434 484.142 574.866C483.746 575.298 483.434 575.808 483.206 576.396C482.978 576.972 482.864 577.596 482.864 578.268V579.168C482.864 579.84 482.978 580.47 483.206 581.058C483.434 581.634 483.746 582.138 484.142 582.57C484.55 583.002 485.03 583.344 485.582 583.596C486.146 583.836 486.752 583.956 487.4 583.956ZM487.454 581.796C486.65 581.796 486.02 581.526 485.564 580.986C485.108 580.446 484.88 579.69 484.88 578.718C484.88 577.746 485.108 576.99 485.564 576.45C486.032 575.91 486.668 575.64 487.472 575.64C488.012 575.64 488.45 575.76 488.786 576C489.134 576.24 489.392 576.558 489.56 576.954L488.876 577.314C488.744 577.026 488.564 576.798 488.336 576.63C488.108 576.462 487.82 576.378 487.472 576.378C486.944 576.378 486.53 576.552 486.23 576.9C485.942 577.236 485.798 577.71 485.798 578.322V579.096C485.798 579.72 485.942 580.206 486.23 580.554C486.53 580.89 486.944 581.058 487.472 581.058C487.856 581.058 488.168 580.968 488.408 580.788C488.648 580.608 488.846 580.368 489.002 580.068L489.65 580.464C489.47 580.848 489.194 581.166 488.822 581.418C488.462 581.67 488.006 581.796 487.454 581.796ZM501.631 585H493.459V583.902L497.905 579.69C498.517 579.114 499.009 578.532 499.381 577.944C499.753 577.344 499.939 576.714 499.939 576.054V575.712C499.939 574.932 499.717 574.314 499.273 573.858C498.841 573.39 498.193 573.156 497.329 573.156C496.489 573.156 495.835 573.366 495.367 573.786C494.911 574.194 494.575 574.746 494.359 575.442L493.405 575.1C493.525 574.716 493.687 574.35 493.891 574.002C494.095 573.654 494.353 573.348 494.665 573.084C494.989 572.82 495.373 572.61 495.817 572.454C496.261 572.298 496.771 572.22 497.347 572.22C497.947 572.22 498.475 572.31 498.931 572.49C499.399 572.658 499.789 572.898 500.101 573.21C500.425 573.522 500.665 573.9 500.821 574.344C500.989 574.776 501.073 575.262 501.073 575.802C501.073 576.69 500.845 577.5 500.389 578.232C499.933 578.952 499.321 579.666 498.553 580.374L494.593 584.064H501.631V585ZM507.546 585.216C506.094 585.216 505.014 584.676 504.306 583.596C503.61 582.504 503.262 580.878 503.262 578.718C503.262 576.558 503.61 574.938 504.306 573.858C505.014 572.766 506.094 572.22 507.546 572.22C508.998 572.22 510.072 572.766 510.768 573.858C511.476 574.938 511.83 576.558 511.83 578.718C511.83 580.878 511.476 582.504 510.768 583.596C510.072 584.676 508.998 585.216 507.546 585.216ZM507.546 584.28C508.626 584.28 509.418 583.872 509.922 583.056C510.426 582.228 510.678 581.064 510.678 579.564V577.872C510.678 576.384 510.426 575.226 509.922 574.398C509.418 573.57 508.626 573.156 507.546 573.156C506.466 573.156 505.674 573.57 505.17 574.398C504.666 575.226 504.414 576.384 504.414 577.872V579.564C504.414 581.064 504.666 582.228 505.17 583.056C505.674 583.872 506.466 584.28 507.546 584.28ZM507.546 579.546C507.234 579.546 507.012 579.48 506.88 579.348C506.748 579.216 506.682 579.054 506.682 578.862V578.574C506.682 578.382 506.748 578.22 506.88 578.088C507.012 577.956 507.234 577.89 507.546 577.89C507.858 577.89 508.08 577.956 508.212 578.088C508.344 578.22 508.41 578.382 508.41 578.574V578.862C508.41 579.054 508.344 579.216 508.212 579.348C508.08 579.48 507.858 579.546 507.546 579.546ZM521.777 585H513.605V583.902L518.051 579.69C518.663 579.114 519.155 578.532 519.527 577.944C519.899 577.344 520.085 576.714 520.085 576.054V575.712C520.085 574.932 519.863 574.314 519.419 573.858C518.987 573.39 518.339 573.156 517.475 573.156C516.635 573.156 515.981 573.366 515.513 573.786C515.057 574.194 514.721 574.746 514.505 575.442L513.551 575.1C513.671 574.716 513.833 574.35 514.037 574.002C514.241 573.654 514.499 573.348 514.811 573.084C515.135 572.82 515.519 572.61 515.963 572.454C516.407 572.298 516.917 572.22 517.493 572.22C518.093 572.22 518.621 572.31 519.077 572.49C519.545 572.658 519.935 572.898 520.247 573.21C520.571 573.522 520.811 573.9 520.967 574.344C521.135 574.776 521.219 575.262 521.219 575.802C521.219 576.69 520.991 577.5 520.535 578.232C520.079 578.952 519.467 579.666 518.699 580.374L514.739 584.064H521.777V585ZM527.71 585.216C527.038 585.216 526.444 585.108 525.928 584.892C525.424 584.664 524.998 584.352 524.65 583.956C524.302 583.548 524.038 583.062 523.858 582.498C523.69 581.922 523.606 581.292 523.606 580.608C523.606 579.636 523.738 578.736 524.002 577.908C524.278 577.068 524.632 576.306 525.064 575.622C525.508 574.938 526.012 574.332 526.576 573.804C527.14 573.264 527.716 572.808 528.304 572.436H529.708C529 572.916 528.37 573.396 527.818 573.876C527.278 574.356 526.804 574.866 526.396 575.406C525.988 575.934 525.646 576.504 525.37 577.116C525.106 577.728 524.896 578.4 524.74 579.132L524.812 579.15C525.124 578.586 525.538 578.142 526.054 577.818C526.57 577.482 527.212 577.314 527.98 577.314C528.544 577.314 529.054 577.404 529.51 577.584C529.978 577.764 530.38 578.022 530.716 578.358C531.052 578.682 531.31 579.084 531.49 579.564C531.67 580.032 531.76 580.56 531.76 581.148C531.76 581.76 531.664 582.318 531.472 582.822C531.28 583.314 531.01 583.74 530.662 584.1C530.314 584.448 529.888 584.724 529.384 584.928C528.88 585.12 528.322 585.216 527.71 585.216ZM527.692 584.298C528.628 584.298 529.354 584.04 529.87 583.524C530.398 582.996 530.662 582.294 530.662 581.418V581.094C530.662 580.218 530.398 579.522 529.87 579.006C529.354 578.478 528.628 578.214 527.692 578.214C526.744 578.214 526.006 578.478 525.478 579.006C524.962 579.522 524.704 580.218 524.704 581.094V581.418C524.704 582.294 524.962 582.996 525.478 583.524C526.006 584.04 526.744 584.298 527.692 584.298Z" fill="#FFFAEE"/>
<path d="M419.262 612C419.041 612 418.886 611.956 418.797 611.867C418.709 611.779 418.664 611.69 418.664 611.601C418.664 611.38 418.83 611.236 419.163 611.17L419.694 611.07C420.403 610.937 420.956 610.727 421.355 610.439C421.776 610.129 422.13 609.642 422.418 608.977L425.74 601.071C425.851 600.828 425.917 600.584 425.939 600.34C425.983 600.075 425.939 599.798 425.806 599.51L421.654 590.309C421.433 589.799 421.189 589.456 420.923 589.279C420.68 589.102 420.414 588.991 420.126 588.947L419.495 588.847C419.14 588.781 418.963 588.637 418.963 588.415C418.963 588.194 419.152 588.083 419.528 588.083H425.374C425.773 588.083 425.972 588.194 425.972 588.415C425.972 588.637 425.784 588.781 425.408 588.847L424.776 588.947C424.4 589.013 424.134 589.146 423.979 589.345C423.846 589.545 423.88 589.866 424.079 590.309L427.235 597.384C427.323 597.583 427.423 597.683 427.534 597.683C427.666 597.683 427.777 597.583 427.866 597.384L430.722 590.641C430.922 590.154 430.988 589.799 430.922 589.578C430.855 589.334 430.634 589.168 430.257 589.08L429.327 588.88C428.951 588.792 428.763 588.637 428.763 588.415C428.763 588.194 428.962 588.083 429.361 588.083H434.443C434.686 588.083 434.842 588.127 434.908 588.216C434.997 588.282 435.041 588.371 435.041 588.482C435.041 588.703 434.875 588.847 434.543 588.914L434.011 589.013C433.457 589.102 432.992 589.312 432.616 589.644C432.239 589.954 431.907 590.442 431.619 591.106L428.464 598.48C428.353 598.768 428.287 599.045 428.264 599.311C428.264 599.576 428.342 599.864 428.497 600.174L432.782 609.774C433.026 610.306 433.269 610.649 433.513 610.804C433.779 610.959 434.044 611.059 434.31 611.103L434.941 611.203C435.318 611.269 435.506 611.424 435.506 611.668C435.506 611.889 435.307 612 434.908 612H429.028C428.63 612 428.43 611.867 428.43 611.601C428.43 611.402 428.608 611.269 428.962 611.203L429.626 611.103C430.003 611.059 430.269 610.937 430.424 610.738C430.579 610.516 430.567 610.195 430.39 609.774L426.969 602.167C426.88 601.968 426.77 601.869 426.637 601.869C426.526 601.869 426.426 601.968 426.338 602.167L423.348 609.442C423.149 609.929 423.082 610.295 423.149 610.538C423.215 610.76 423.437 610.915 423.813 611.003L424.743 611.203C425.12 611.291 425.308 611.446 425.308 611.668C425.308 611.889 425.109 612 424.71 612H419.262ZM434.669 612C434.337 612 434.171 611.878 434.171 611.635C434.171 611.435 434.315 611.302 434.603 611.236L435.367 611.103C435.832 611.015 436.131 610.893 436.264 610.738C436.419 610.583 436.496 610.273 436.496 609.808V590.275C436.496 589.81 436.419 589.5 436.264 589.345C436.131 589.19 435.832 589.069 435.367 588.98L434.603 588.847C434.315 588.781 434.171 588.648 434.171 588.448C434.171 588.205 434.337 588.083 434.669 588.083H440.682C441.014 588.083 441.18 588.205 441.18 588.448C441.18 588.648 441.036 588.781 440.748 588.847L439.984 588.98C439.519 589.069 439.209 589.19 439.054 589.345C438.921 589.5 438.855 589.81 438.855 590.275V609.808C438.855 610.273 438.921 610.583 439.054 610.738C439.209 610.893 439.519 611.015 439.984 611.103L440.748 611.236C441.036 611.302 441.18 611.435 441.18 611.635C441.18 611.878 441.014 612 440.682 612H434.669ZM448.09 612.332C448.001 612.332 447.902 612.299 447.791 612.233C447.68 612.166 447.603 612.022 447.559 611.801L442.31 590.74C442.155 590.12 441.978 589.689 441.779 589.445C441.601 589.201 441.291 589.035 440.849 588.947L440.35 588.847C440.04 588.781 439.885 588.637 439.885 588.415C439.885 588.194 440.051 588.083 440.383 588.083H446.064C446.374 588.083 446.529 588.205 446.529 588.448C446.529 588.692 446.341 588.825 445.964 588.847L445.333 588.914C444.956 588.936 444.713 589.057 444.602 589.279C444.514 589.478 444.525 589.821 444.635 590.309L448.489 606.287C448.533 606.419 448.599 606.486 448.688 606.486C448.799 606.486 448.865 606.419 448.887 606.287L452.707 591.006C453.017 589.744 452.685 589.046 451.711 588.914L451.213 588.847C450.836 588.781 450.648 588.648 450.648 588.448C450.648 588.205 450.803 588.083 451.113 588.083H455.763C456.096 588.083 456.262 588.194 456.262 588.415C456.262 588.637 456.107 588.781 455.797 588.847L455.298 588.947C454.878 589.035 454.545 589.257 454.302 589.611C454.08 589.943 453.892 590.419 453.737 591.039L448.588 611.801C448.544 612.022 448.467 612.166 448.356 612.233C448.267 612.299 448.179 612.332 448.09 612.332Z" fill="#FFFAEE"/>
<path fill-rule="evenodd" clip-rule="evenodd" d="M578.437 608.273V612.159C578.011 612.199 577.579 612.222 577.136 612.222C569.903 612.222 564 606.329 564 599.108C564 591.887 569.903 586 577.136 586C577.573 586 578.011 586.023 578.437 586.063V589.95C578.011 589.887 577.579 589.858 577.136 589.858C572.028 589.858 567.864 594.02 567.864 599.108C567.864 604.196 572.033 608.359 577.136 608.359C577.573 608.359 578.011 608.324 578.437 608.267V608.273Z" fill="#FFFAEE"/>
<path fill-rule="evenodd" clip-rule="evenodd" d="M584.035 597.108H591.619V601.115H584.035C584.956 605.254 588.664 608.365 593.081 608.365C593.519 608.365 593.957 608.33 594.383 608.273V612.159C593.951 612.199 593.519 612.222 593.081 612.222C585.843 612.222 579.952 606.329 579.952 599.114C579.952 591.899 585.843 586 593.081 586C593.519 586 593.957 586.023 594.383 586.063V589.95C593.951 589.887 593.519 589.858 593.081 589.858C588.664 589.858 584.95 592.968 584.035 597.108Z" fill="#FFFAEE"/>
<path d="M486.31 592.32L482.91 597.19L482.78 596.9H487.68V597.42H482.43V596.92L485.93 591.93H486.69V599H486.1V592.25L486.31 592.32ZM491.094 599.1C490.634 599.1 490.23 599.03 489.884 598.89C489.544 598.75 489.277 598.537 489.084 598.25C488.89 597.963 488.78 597.603 488.754 597.17H489.404C489.417 597.483 489.494 597.747 489.634 597.96C489.78 598.167 489.977 598.323 490.224 598.43C490.47 598.53 490.764 598.58 491.104 598.58C491.624 598.58 492.044 598.44 492.364 598.16C492.684 597.873 492.844 597.463 492.844 596.93C492.844 596.417 492.687 596.017 492.374 595.73C492.067 595.443 491.637 595.3 491.084 595.3H490.304L490.294 594.87L492.704 592.22L492.754 592.45H489.044V591.93H493.274V592.41L490.964 594.94V594.79C491.457 594.783 491.864 594.847 492.184 594.98C492.504 595.107 492.754 595.28 492.934 595.5C493.12 595.713 493.25 595.947 493.324 596.2C493.404 596.447 493.444 596.69 493.444 596.93C493.444 597.397 493.347 597.793 493.154 598.12C492.96 598.44 492.687 598.683 492.334 598.85C491.987 599.017 491.574 599.1 491.094 599.1ZM498.031 595.76L499.871 599H499.201L497.431 595.87L498.031 595.76ZM497.251 595.57C497.724 595.57 498.091 595.51 498.351 595.39C498.611 595.27 498.794 595.093 498.901 594.86C499.007 594.627 499.061 594.34 499.061 594C499.061 593.653 499.007 593.367 498.901 593.14C498.794 592.913 498.611 592.743 498.351 592.63C498.091 592.51 497.724 592.45 497.251 592.45H495.531V595.57H497.251ZM497.301 596.09H495.531V599H494.931V591.93H497.291C497.864 591.93 498.324 592.013 498.671 592.18C499.017 592.34 499.267 592.573 499.421 592.88C499.581 593.187 499.661 593.56 499.661 594C499.661 594.347 499.624 594.65 499.551 594.91C499.477 595.17 499.351 595.39 499.171 595.57C498.991 595.743 498.747 595.873 498.441 595.96C498.141 596.047 497.761 596.09 497.301 596.09ZM484.96 611.1C484.38 611.1 483.907 610.97 483.54 610.71C483.18 610.443 482.917 610.043 482.75 609.51C482.583 608.97 482.5 608.287 482.5 607.46C482.5 606.633 482.583 605.953 482.75 605.42C482.923 604.887 483.19 604.49 483.55 604.23C483.917 603.963 484.387 603.83 484.96 603.83C485.54 603.83 486.01 603.963 486.37 604.23C486.737 604.49 487.003 604.887 487.17 605.42C487.343 605.953 487.43 606.633 487.43 607.46C487.43 608.28 487.343 608.96 487.17 609.5C487.003 610.04 486.737 610.443 486.37 610.71C486.01 610.97 485.54 611.1 484.96 611.1ZM484.96 610.58C485.64 610.58 486.123 610.323 486.41 609.81C486.697 609.297 486.84 608.513 486.84 607.46C486.84 606.407 486.697 605.627 486.41 605.12C486.123 604.607 485.64 604.35 484.96 604.35C484.287 604.35 483.807 604.607 483.52 605.12C483.233 605.627 483.09 606.407 483.09 607.46C483.09 608.513 483.23 609.297 483.51 609.81C483.797 610.323 484.28 610.58 484.96 610.58ZM490.888 611.1C490.308 611.1 489.834 610.97 489.468 610.71C489.108 610.443 488.844 610.043 488.678 609.51C488.511 608.97 488.428 608.287 488.428 607.46C488.428 606.633 488.511 605.953 488.678 605.42C488.851 604.887 489.118 604.49 489.478 604.23C489.844 603.963 490.314 603.83 490.888 603.83C491.468 603.83 491.938 603.963 492.298 604.23C492.664 604.49 492.931 604.887 493.098 605.42C493.271 605.953 493.358 606.633 493.358 607.46C493.358 608.28 493.271 608.96 493.098 609.5C492.931 610.04 492.664 610.443 492.298 610.71C491.938 610.97 491.468 611.1 490.888 611.1ZM490.888 610.58C491.568 610.58 492.051 610.323 492.338 609.81C492.624 609.297 492.768 608.513 492.768 607.46C492.768 606.407 492.624 605.627 492.338 605.12C492.051 604.607 491.568 604.35 490.888 604.35C490.214 604.35 489.734 604.607 489.448 605.12C489.161 605.627 489.018 606.407 489.018 607.46C489.018 608.513 489.158 609.297 489.438 609.81C489.724 610.323 490.208 610.58 490.888 610.58ZM498.165 604.32L494.765 609.19L494.635 608.9H499.535V609.42H494.285V608.92L497.785 603.93H498.545V611H497.955V604.25L498.165 604.32ZM502.939 611.1C502.486 611.1 502.092 611.03 501.759 610.89C501.426 610.743 501.166 610.533 500.979 610.26C500.792 609.987 500.686 609.657 500.659 609.27H501.269C501.296 609.703 501.456 610.03 501.749 610.25C502.042 610.47 502.439 610.58 502.939 610.58C503.532 610.58 503.966 610.417 504.239 610.09C504.519 609.757 504.659 609.347 504.659 608.86C504.659 608.533 504.602 608.24 504.489 607.98C504.382 607.713 504.206 607.503 503.959 607.35C503.712 607.19 503.382 607.11 502.969 607.11C502.609 607.103 502.299 607.17 502.039 607.31C501.786 607.443 501.582 607.633 501.429 607.88H500.799L501.269 603.93H504.909V604.45H501.789L501.459 607.26H501.489C501.622 607.047 501.816 606.883 502.069 606.77C502.322 606.65 502.606 606.59 502.919 606.59C503.432 606.59 503.859 606.69 504.199 606.89C504.546 607.09 504.806 607.36 504.979 607.7C505.159 608.033 505.249 608.413 505.249 608.84C505.249 609.28 505.156 609.67 504.969 610.01C504.782 610.35 504.516 610.617 504.169 610.81C503.829 611.003 503.419 611.1 502.939 611.1ZM508.778 611.1C507.931 611.1 507.311 610.93 506.918 610.59C506.531 610.25 506.338 609.777 506.338 609.17C506.345 608.843 506.405 608.55 506.518 608.29C506.638 608.03 506.805 607.817 507.018 607.65C507.238 607.483 507.488 607.377 507.768 607.33V607.29C507.401 607.197 507.115 607.007 506.908 606.72C506.708 606.427 506.608 606.073 506.608 605.66C506.608 605.307 506.685 604.993 506.838 604.72C506.998 604.44 507.238 604.223 507.558 604.07C507.885 603.91 508.291 603.83 508.778 603.83C509.265 603.83 509.668 603.91 509.988 604.07C510.308 604.223 510.545 604.44 510.698 604.72C510.858 604.993 510.935 605.307 510.928 605.66C510.921 606.067 510.818 606.417 510.618 606.71C510.418 607.003 510.135 607.197 509.768 607.29V607.33C510.048 607.377 510.298 607.483 510.518 607.65C510.738 607.817 510.908 608.03 511.028 608.29C511.155 608.55 511.218 608.843 511.218 609.17C511.218 609.577 511.131 609.923 510.958 610.21C510.785 610.497 510.518 610.717 510.158 610.87C509.798 611.023 509.338 611.1 508.778 611.1ZM508.778 610.58C509.418 610.58 509.888 610.447 510.188 610.18C510.488 609.913 510.638 609.55 510.638 609.09C510.638 608.637 510.478 608.277 510.158 608.01C509.838 607.743 509.378 607.61 508.778 607.61C508.171 607.61 507.708 607.743 507.388 608.01C507.075 608.277 506.918 608.637 506.918 609.09C506.918 609.55 507.068 609.913 507.368 610.18C507.668 610.447 508.138 610.58 508.778 610.58ZM508.778 607.09C509.298 607.09 509.691 606.97 509.958 606.73C510.231 606.483 510.368 606.15 510.368 605.73C510.368 605.303 510.235 604.967 509.968 604.72C509.708 604.473 509.311 604.35 508.778 604.35C508.238 604.35 507.838 604.473 507.578 604.72C507.318 604.967 507.188 605.303 507.188 605.73C507.188 606.15 507.321 606.483 507.588 606.73C507.855 606.97 508.251 607.09 508.778 607.09ZM514.697 611.1C514.243 611.1 513.85 611.03 513.517 610.89C513.183 610.743 512.923 610.533 512.737 610.26C512.55 609.987 512.443 609.657 512.417 609.27H513.027C513.053 609.703 513.213 610.03 513.507 610.25C513.8 610.47 514.197 610.58 514.697 610.58C515.29 610.58 515.723 610.417 515.997 610.09C516.277 609.757 516.417 609.347 516.417 608.86C516.417 608.533 516.36 608.24 516.247 607.98C516.14 607.713 515.963 607.503 515.717 607.35C515.47 607.19 515.14 607.11 514.727 607.11C514.367 607.103 514.057 607.17 513.797 607.31C513.543 607.443 513.34 607.633 513.187 607.88H512.557L513.027 603.93H516.667V604.45H513.547L513.217 607.26H513.247C513.38 607.047 513.573 606.883 513.827 606.77C514.08 606.65 514.363 606.59 514.677 606.59C515.19 606.59 515.617 606.69 515.957 606.89C516.303 607.09 516.563 607.36 516.737 607.7C516.917 608.033 517.007 608.413 517.007 608.84C517.007 609.28 516.913 609.67 516.727 610.01C516.54 610.35 516.273 610.617 515.927 610.81C515.587 611.003 515.177 611.1 514.697 611.1Z" fill="#FFFAEE"/>
</svg>
