<svg width="1080" height="1080" viewBox="0 0 1080 1080" fill="none" xmlns="http://www.w3.org/2000/svg">
<rect width="1080" height="1080" fill="#191919"/>
<path d="M497.126 424.432C495.889 428.827 495.035 433.371 494.566 438.064C494.097 442.757 493.862 447.472 493.862 452.208C493.862 456.603 494.139 460.805 494.694 464.816C495.291 468.784 496.102 472.645 497.126 476.4H494.95C493.67 474.565 492.539 472.56 491.558 470.384C490.619 468.251 489.851 466.032 489.254 463.728C488.614 461.424 488.123 459.141 487.782 456.88C487.483 454.619 487.334 452.464 487.334 450.416C487.334 448.24 487.505 446 487.846 443.696C488.187 441.392 488.699 439.088 489.382 436.784C490.662 432.219 492.518 428.101 494.95 424.432H497.126ZM507.253 433.84C507.253 432.304 507.509 430.939 508.021 429.744C508.575 428.549 509.301 427.525 510.197 426.672C511.093 425.819 512.117 425.179 513.269 424.752C514.463 424.283 515.701 424.048 516.981 424.048C518.261 424.048 519.477 424.283 520.629 424.752C521.823 425.179 522.869 425.819 523.765 426.672C524.661 427.525 525.365 428.549 525.877 429.744C526.431 430.939 526.709 432.304 526.709 433.84V460.592C526.709 462.128 526.431 463.493 525.877 464.688C525.365 465.883 524.661 466.907 523.765 467.76C522.869 468.613 521.823 469.275 520.629 469.744C519.477 470.171 518.261 470.384 516.981 470.384C515.701 470.384 514.463 470.171 513.269 469.744C512.117 469.275 511.093 468.613 510.197 467.76C509.301 466.907 508.575 465.883 508.021 464.688C507.509 463.493 507.253 462.128 507.253 460.592V433.84ZM513.781 460.592C513.781 461.531 514.079 462.32 514.677 462.96C515.274 463.557 516.042 463.856 516.981 463.856C517.919 463.856 518.687 463.557 519.285 462.96C519.882 462.32 520.181 461.531 520.181 460.592V433.84C520.181 432.901 519.882 432.133 519.285 431.536C518.687 430.896 517.919 430.576 516.981 430.576C516.042 430.576 515.274 430.896 514.677 431.536C514.079 432.133 513.781 432.901 513.781 433.84V460.592ZM528.505 433.84C528.505 432.304 528.761 430.939 529.273 429.744C529.828 428.549 530.553 427.525 531.449 426.672C532.345 425.819 533.369 425.179 534.521 424.752C535.716 424.283 536.953 424.048 538.233 424.048C539.513 424.048 540.729 424.283 541.881 424.752C543.076 425.179 544.121 425.819 545.017 426.672C545.913 427.525 546.617 428.549 547.129 429.744C547.684 430.939 547.961 432.304 547.961 433.84V460.592C547.961 462.128 547.684 463.493 547.129 464.688C546.617 465.883 545.913 466.907 545.017 467.76C544.121 468.613 543.076 469.275 541.881 469.744C540.729 470.171 539.513 470.384 538.233 470.384C536.953 470.384 535.716 470.171 534.521 469.744C533.369 469.275 532.345 468.613 531.449 467.76C530.553 466.907 529.828 465.883 529.273 464.688C528.761 463.493 528.505 462.128 528.505 460.592V433.84ZM535.033 460.592C535.033 461.531 535.332 462.32 535.929 462.96C536.526 463.557 537.294 463.856 538.233 463.856C539.172 463.856 539.94 463.557 540.537 462.96C541.134 462.32 541.433 461.531 541.433 460.592V433.84C541.433 432.901 541.134 432.133 540.537 431.536C539.94 430.896 539.172 430.576 538.233 430.576C537.294 430.576 536.526 430.896 535.929 431.536C535.332 432.133 535.033 432.901 535.033 433.84V460.592ZM557.502 470V431.344L550.974 436.144V429.232L557.502 424.432H564.03V470H557.502ZM579.365 476.4C580.602 472.005 581.456 467.461 581.925 462.768C582.394 458.075 582.629 453.36 582.629 448.624C582.629 444.229 582.33 440.048 581.733 436.08C581.178 432.069 580.389 428.187 579.365 424.432H581.541C582.821 426.352 583.93 428.379 584.869 430.512C585.85 432.603 586.661 434.8 587.301 437.104C587.898 439.408 588.346 441.691 588.645 443.952C588.986 446.213 589.157 448.368 589.157 450.416C589.157 452.592 588.986 454.832 588.645 457.136C588.304 459.44 587.813 461.744 587.173 464.048C585.808 468.656 583.93 472.773 581.541 476.4H579.365Z" fill="#FFFAEE"/>
<path d="M426.334 611H425.834V611.5H426.334V611ZM426.334 567.308V566.808H425.834V567.308H426.334ZM438.272 567.308H438.772V566.808H438.272V567.308ZM438.272 591.123H437.772V592.2L438.595 591.505L438.272 591.123ZM452.18 579.369V578.869H451.997L451.857 578.987L452.18 579.369ZM467.811 579.369L468.127 579.757L469.214 578.869H467.811V579.369ZM452.734 591.677L452.418 591.29L452.053 591.587L452.328 591.969L452.734 591.677ZM466.642 611V611.5H467.618L467.048 610.708L466.642 611ZM451.996 611L451.583 611.283L451.732 611.5H451.996V611ZM443.626 598.815L444.038 598.532L443.731 598.085L443.31 598.428L443.626 598.815ZM438.272 603.185L437.956 602.797L437.772 602.947V603.185H438.272ZM438.272 611V611.5H438.772V611H438.272ZM426.334 611H426.834V567.308H426.334H425.834V611H426.334ZM426.334 567.308V567.808H438.272V567.308V566.808H426.334V567.308ZM438.272 567.308H437.772V591.123H438.272H438.772V567.308H438.272ZM438.272 591.123L438.595 591.505L452.503 579.751L452.18 579.369L451.857 578.987L437.95 590.741L438.272 591.123ZM452.18 579.369V579.869H467.811V579.369V578.869H452.18V579.369ZM467.811 579.369L467.495 578.982L452.418 591.29L452.734 591.677L453.05 592.064L468.127 579.757L467.811 579.369ZM452.734 591.677L452.328 591.969L466.236 611.292L466.642 611L467.048 610.708L453.14 591.385L452.734 591.677ZM466.642 611V610.5H451.996V611V611.5H466.642V611ZM451.996 611L452.408 610.717L444.038 598.532L443.626 598.815L443.214 599.098L451.583 611.283L451.996 611ZM443.626 598.815L443.31 598.428L437.956 602.797L438.272 603.185L438.589 603.572L443.942 599.203L443.626 598.815ZM438.272 603.185H437.772V611H438.272H438.772V603.185H438.272ZM438.272 611V610.5H426.334V611V611.5H438.272V611ZM467.88 575.308H467.38V575.808H467.88V575.308ZM467.88 566.692V566.192H467.38V566.692H467.88ZM479.696 566.692H480.196V566.192H479.696V566.692ZM479.696 575.308V575.808H480.196V575.308H479.696ZM467.757 611H467.257V611.5H467.757V611ZM467.757 579.369V578.869H467.257V579.369H467.757ZM479.696 579.369H480.196V578.869H479.696V579.369ZM479.696 611V611.5H480.196V611H479.696ZM467.88 575.308H468.38V566.692H467.88H467.38V575.308H467.88ZM467.88 566.692V567.192H479.696V566.692V566.192H467.88V566.692ZM479.696 566.692H479.196V575.308H479.696H480.196V566.692H479.696ZM479.696 575.308V574.808H467.88V575.308V575.808H479.696V575.308ZM467.757 611H468.257V579.369H467.757H467.257V611H467.757ZM467.757 579.369V579.869H479.696V579.369V578.869H467.757V579.369ZM479.696 579.369H479.196V611H479.696H480.196V579.369H479.696ZM479.696 611V610.5H467.757V611V611.5H479.696V611ZM484.24 611H483.74V611.5H484.24V611ZM484.24 579.369V578.869H483.74V579.369H484.24ZM495.994 579.369H496.494V578.869H495.994V579.369ZM495.994 582.385H495.494V583.552L496.339 582.747L495.994 582.385ZM512.733 579.185L512.835 578.695V578.695L512.733 579.185ZM517.594 581.154L517.325 581.575L517.333 581.58L517.594 581.154ZM521.163 584.969L520.725 585.21L520.729 585.217L520.733 585.223L521.163 584.969ZM522.579 611V611.5H523.079V611H522.579ZM510.64 611H510.14V611.5H510.64V611ZM508.671 588.231L508.397 588.649L508.406 588.655L508.671 588.231ZM498.21 588.231L498.475 588.655L498.484 588.649L498.21 588.231ZM496.179 592.292L495.679 592.281V592.292H496.179ZM496.179 611V611.5H496.679V611H496.179ZM484.24 611H484.74V579.369H484.24H483.74V611H484.24ZM484.24 579.369V579.869H495.994V579.369V578.869H484.24V579.369ZM495.994 579.369H495.494V582.385H495.994H496.494V579.369H495.994ZM495.994 582.385L496.339 582.747C498.84 580.363 502.553 579.131 507.563 579.131V578.631V578.131C502.4 578.131 498.4 579.401 495.649 582.023L495.994 582.385ZM507.563 578.631V579.131C509.209 579.131 510.897 579.311 512.63 579.674L512.733 579.185L512.835 578.695C511.04 578.319 509.282 578.131 507.563 578.131V578.631ZM512.733 579.185L512.63 579.674C514.337 580.031 515.9 580.665 517.325 581.575L517.594 581.154L517.863 580.732C516.334 579.755 514.657 579.076 512.835 578.695L512.733 579.185ZM517.594 581.154L517.333 581.58C518.73 582.434 519.861 583.639 520.725 585.21L521.163 584.969L521.601 584.728C520.661 583.017 519.412 581.679 517.855 580.727L517.594 581.154ZM521.163 584.969L520.733 585.223C521.618 586.725 522.079 588.661 522.079 591.062H522.579H523.079C523.079 588.539 522.595 586.413 521.594 584.715L521.163 584.969ZM522.579 591.062H522.079V611H522.579H523.079V591.062H522.579ZM522.579 611V610.5H510.64V611V611.5H522.579V611ZM510.64 611H511.14V592.292H510.64H510.14V611H510.64ZM510.64 592.292H511.14C511.14 590.276 510.429 588.74 508.936 587.807L508.671 588.231L508.406 588.655C509.539 589.363 510.14 590.534 510.14 592.292H510.64ZM508.671 588.231L508.945 587.813C507.525 586.881 505.676 586.438 503.44 586.438V586.938V587.438C505.553 587.438 507.191 587.858 508.397 588.649L508.671 588.231ZM503.44 586.938V586.438C501.205 586.438 499.355 586.881 497.935 587.813L498.21 588.231L498.484 588.649C499.689 587.858 501.327 587.438 503.44 587.438V586.938ZM498.21 588.231L497.945 587.807C496.456 588.737 495.723 590.268 495.679 592.281L496.179 592.292L496.679 592.303C496.717 590.542 497.337 589.366 498.475 588.655L498.21 588.231ZM496.179 592.292H495.679V611H496.179H496.679V592.292H496.179ZM496.179 611V610.5H484.24V611V611.5H496.179V611ZM536.036 609.831L535.857 610.298V610.298L536.036 609.831ZM528.159 604.231L527.762 604.535L527.765 604.539L528.159 604.231ZM528.036 586.077L528.439 586.373V586.373L528.036 586.077ZM535.605 580.538L535.783 581.006L535.786 581.005L535.605 580.538ZM558.559 580.785L558.352 581.24L558.357 581.242L558.559 580.785ZM565.574 587.123L565.134 587.359L565.138 587.367L565.574 587.123ZM567.298 597.523V598.023H567.75L567.795 597.572L567.298 597.523ZM537.328 597.523V597.023H536.765L536.832 597.582L537.328 597.523ZM540.036 601.892L539.738 602.294L539.742 602.297L540.036 601.892ZM553.513 602.692L553.284 602.248L553.278 602.251L553.513 602.692ZM556.282 600.108L556.335 599.611L556.001 599.575L555.842 599.871L556.282 600.108ZM567.174 601.277L567.658 601.405L567.807 600.842L567.228 600.78L567.174 601.277ZM560.467 609.092L560.688 609.541L560.692 609.538L560.467 609.092ZM540.159 587.677L540.439 588.091L540.441 588.09L540.159 587.677ZM537.39 591.431L536.902 591.322L536.767 591.931H537.39V591.431ZM556.405 591.431V591.931H556.982L556.9 591.36L556.405 591.431ZM553.698 587.492L553.434 587.917L553.44 587.921L553.447 587.925L553.698 587.492ZM547.359 611.738V611.238C543.183 611.238 539.471 610.61 536.215 609.364L536.036 609.831L535.857 610.298C539.247 611.595 543.084 612.238 547.359 612.238V611.738ZM536.036 609.831L536.215 609.364C532.964 608.12 530.418 606.303 528.553 603.922L528.159 604.231L527.765 604.539C529.757 607.081 532.461 608.998 535.857 610.298L536.036 609.831ZM528.159 604.231L528.556 603.927C526.745 601.565 525.828 598.661 525.828 595.185H525.328H524.828C524.828 598.847 525.798 601.973 527.762 604.535L528.159 604.231ZM525.328 595.185H525.828C525.828 591.661 526.708 588.734 528.439 586.373L528.036 586.077L527.633 585.781C525.754 588.343 524.828 591.488 524.828 595.185H525.328ZM528.036 586.077L528.439 586.373C530.18 583.999 532.619 582.207 535.783 581.006L535.605 580.538L535.428 580.071C532.109 581.331 529.502 583.232 527.633 585.781L528.036 586.077ZM535.605 580.538L535.786 581.005C538.999 579.76 542.731 579.131 546.99 579.131V578.631V578.131C542.634 578.131 538.776 578.774 535.425 580.072L535.605 580.538ZM546.99 578.631V579.131C551.494 579.131 555.275 579.841 558.352 581.24L558.559 580.785L558.766 580.329C555.525 578.856 551.594 578.131 546.99 578.131V578.631ZM558.559 580.785L558.357 581.242C561.422 582.595 563.673 584.634 565.134 587.359L565.574 587.123L566.015 586.887C564.44 583.95 562.014 581.764 558.761 580.327L558.559 580.785ZM565.574 587.123L565.138 587.367C566.634 590.044 567.203 593.401 566.8 597.474L567.298 597.523L567.795 597.572C568.212 593.358 567.633 589.782 566.011 586.879L565.574 587.123ZM567.298 597.523V597.023H537.328V597.523V598.023H567.298V597.523ZM537.328 597.523L536.832 597.582C537.056 599.462 538.045 601.035 539.738 602.294L540.036 601.892L540.334 601.491C538.827 600.37 538.011 599.03 537.825 597.464L537.328 597.523ZM540.036 601.892L539.742 602.297C541.506 603.576 544.071 604.177 547.359 604.177V603.677V603.177C544.165 603.177 541.848 602.588 540.329 601.488L540.036 601.892ZM547.359 603.677V604.177C550.243 604.177 552.402 603.852 553.748 603.133L553.513 602.692L553.278 602.251C552.162 602.846 550.218 603.177 547.359 603.177V603.677ZM553.513 602.692L553.742 603.137C555.087 602.443 556.092 601.515 556.722 600.345L556.282 600.108L555.842 599.871C555.323 600.833 554.482 601.629 553.284 602.248L553.513 602.692ZM556.282 600.108L556.229 600.605L567.121 601.774L567.174 601.277L567.228 600.78L556.335 599.611L556.282 600.108ZM567.174 601.277L566.691 601.149C565.83 604.397 563.702 606.896 560.241 608.646L560.467 609.092L560.692 609.538C564.37 607.679 566.713 604.968 567.658 601.405L567.174 601.277ZM560.467 609.092L560.245 608.644C556.762 610.366 552.474 611.238 547.359 611.238V611.738V612.238C552.583 612.238 557.033 611.347 560.688 609.541L560.467 609.092ZM547.113 586.077V585.577C543.993 585.577 541.556 586.115 539.877 587.264L540.159 587.677L540.441 588.09C541.88 587.105 544.079 586.577 547.113 586.577V586.077ZM540.159 587.677L539.879 587.263C538.279 588.344 537.263 589.695 536.902 591.322L537.39 591.431L537.878 591.539C538.173 590.212 539.003 589.061 540.439 588.091L540.159 587.677ZM537.39 591.431V591.931H556.405V591.431V590.931H537.39V591.431ZM556.405 591.431L556.9 591.36C556.631 589.479 555.634 588.036 553.948 587.06L553.698 587.492L553.447 587.925C554.879 588.754 555.687 589.936 555.91 591.501L556.405 591.431ZM553.698 587.492L553.961 587.068C552.33 586.053 550.027 585.577 547.113 585.577V586.077V586.577C549.943 586.577 552.029 587.044 553.434 587.917L553.698 587.492ZM581.978 610.754L581.831 611.232L581.841 611.235L581.978 610.754ZM576.624 607.308L576.234 607.62L576.238 607.625L576.624 607.308ZM574.655 587.185H575.155V586.685H574.655V587.185ZM567.086 587.185H566.586V587.685H567.086V587.185ZM567.086 579.369V578.869H566.586V579.369H567.086ZM574.901 579.369V579.869H575.332L575.396 579.444L574.901 579.369ZM576.378 569.585V569.085H575.948L575.884 569.51L576.378 569.585ZM586.594 569.585H587.094V569.085H586.594V569.585ZM586.594 579.369H586.094V579.869H586.594V579.369ZM599.948 579.369H600.448V578.869H599.948V579.369ZM599.948 587.185V587.685H600.448V587.185H599.948ZM586.594 587.185V586.685H586.094V587.185H586.594ZM587.517 602.077L587.163 602.43V602.43L587.517 602.077ZM589.917 603.308L589.815 603.797L589.825 603.799L589.835 603.801L589.917 603.308ZM596.563 603.308L596.499 602.812L596.497 602.812L596.563 603.308ZM600.563 602.754H601.063V602.175L600.49 602.259L600.563 602.754ZM600.563 610.508L600.667 610.997L601.063 610.913V610.508H600.563ZM595.148 611.431L595.087 610.934L595.085 610.935L595.148 611.431ZM589.855 611.738V611.238C586.937 611.238 584.359 610.914 582.116 610.273L581.978 610.754L581.841 611.235C584.192 611.906 586.865 612.238 589.855 612.238V611.738ZM581.978 610.754L582.126 610.276C579.95 609.603 578.253 608.504 577.011 606.991L576.624 607.308L576.238 607.625C577.621 609.311 579.494 610.509 581.831 611.232L581.978 610.754ZM576.624 607.308L577.015 606.995C575.793 605.468 575.155 603.375 575.155 600.662H574.655H574.155C574.155 603.528 574.83 605.865 576.234 607.62L576.624 607.308ZM574.655 600.662H575.155V587.185H574.655H574.155V600.662H574.655ZM574.655 587.185V586.685H567.086V587.185V587.685H574.655V587.185ZM567.086 587.185H567.586V579.369H567.086H566.586V587.185H567.086ZM567.086 579.369V579.869H574.901V579.369V578.869H567.086V579.369ZM574.901 579.369L575.396 579.444L576.873 569.659L576.378 569.585L575.884 569.51L574.407 579.295L574.901 579.369ZM576.378 569.585V570.085H586.594V569.585V569.085H576.378V569.585ZM586.594 569.585H586.094V579.369H586.594H587.094V569.585H586.594ZM586.594 579.369V579.869H599.948V579.369V578.869H586.594V579.369ZM599.948 579.369H599.448V587.185H599.948H600.448V579.369H599.948ZM599.948 587.185V586.685H586.594V587.185V587.685H599.948V587.185ZM586.594 587.185H586.094V599.246H586.594H587.094V587.185H586.594ZM586.594 599.246H586.094C586.094 600.589 586.418 601.686 587.163 602.43L587.517 602.077L587.87 601.723C587.384 601.238 587.094 600.446 587.094 599.246H586.594ZM587.517 602.077L587.163 602.43C587.858 603.125 588.75 603.575 589.815 603.797L589.917 603.308L590.019 602.818C589.114 602.63 588.407 602.26 587.87 601.723L587.517 602.077ZM589.917 603.308L589.835 603.801C590.848 603.97 591.901 604.054 592.994 604.054V603.554V603.054C591.953 603.054 590.955 602.974 589.999 602.814L589.917 603.308ZM592.994 603.554V604.054C594.166 604.054 595.378 603.97 596.629 603.803L596.563 603.308L596.497 602.812C595.286 602.973 594.119 603.054 592.994 603.054V603.554ZM596.563 603.308L596.627 603.804C597.902 603.639 599.238 603.454 600.636 603.249L600.563 602.754L600.49 602.259C599.098 602.464 597.768 602.648 596.499 602.812L596.563 603.308ZM600.563 602.754H600.063V610.508H600.563H601.063V602.754H600.563ZM600.563 610.508L600.459 610.019C598.543 610.426 596.752 610.731 595.087 610.934L595.148 611.431L595.208 611.927C596.907 611.72 598.727 611.41 600.667 610.997L600.563 610.508ZM595.148 611.431L595.085 610.935C593.468 611.137 591.724 611.238 589.855 611.238V611.738V612.238C591.76 612.238 593.545 612.135 595.21 611.927L595.148 611.431ZM602.984 575.308H602.484V575.808H602.984V575.308ZM602.984 566.692V566.192H602.484V566.692H602.984ZM614.799 566.692H615.299V566.192H614.799V566.692ZM614.799 575.308V575.808H615.299V575.308H614.799ZM602.86 611H602.36V611.5H602.86V611ZM602.86 579.369V578.869H602.36V579.369H602.86ZM614.799 579.369H615.299V578.869H614.799V579.369ZM614.799 611V611.5H615.299V611H614.799ZM602.984 575.308H603.484V566.692H602.984H602.484V575.308H602.984ZM602.984 566.692V567.192H614.799V566.692V566.192H602.984V566.692ZM614.799 566.692H614.299V575.308H614.799H615.299V566.692H614.799ZM614.799 575.308V574.808H602.984V575.308V575.808H614.799V575.308ZM602.86 611H603.36V579.369H602.86H602.36V611H602.86ZM602.86 579.369V579.869H614.799V579.369V578.869H602.86V579.369ZM614.799 579.369H614.299V611H614.799H615.299V579.369H614.799ZM614.799 611V610.5H602.86V611V611.5H614.799V611ZM631.282 610.692L631.143 611.173L631.15 611.175L631.282 610.692ZM624.39 607.492L624.105 607.903L624.109 607.906L624.39 607.492ZM619.59 602.323L619.157 602.574V602.574L619.59 602.323ZM620.698 586.077L620.304 585.769V585.769L620.698 586.077ZM628.451 580.538L628.629 581.006L628.632 581.005L628.451 580.538ZM648.021 579.923L647.871 580.4L647.88 580.403L648.021 579.923ZM655.098 583.862L654.756 584.227L654.764 584.234L655.098 583.862ZM658.974 590.754L659.027 591.251L659.581 591.193L659.463 590.648L658.974 590.754ZM647.898 591.923L647.432 592.107L647.572 592.46L647.95 592.42L647.898 591.923ZM644.759 588.169L644.484 588.587L644.49 588.591L644.759 588.169ZM632.328 589.031L632.658 589.407L632.663 589.402L632.328 589.031ZM632.328 601.338L631.993 601.71V601.71L632.328 601.338ZM644.759 602.2L644.49 601.779L644.484 601.782L644.759 602.2ZM647.898 598.446L647.95 597.949L647.572 597.909L647.432 598.263L647.898 598.446ZM658.974 599.615L659.463 599.722L659.581 599.177L659.027 599.118L658.974 599.615ZM655.098 606.569L655.435 606.938L655.435 606.938L655.098 606.569ZM648.021 610.508L648.164 610.987L648.168 610.985L648.021 610.508ZM639.221 611.738V611.238C636.515 611.238 633.913 610.895 631.414 610.21L631.282 610.692L631.15 611.175C633.738 611.884 636.429 612.238 639.221 612.238V611.738ZM631.282 610.692L631.422 610.212C628.925 609.487 626.676 608.442 624.671 607.079L624.39 607.492L624.109 607.906C626.206 609.332 628.552 610.42 631.143 611.172L631.282 610.692ZM624.39 607.492L624.675 607.082C622.723 605.727 621.174 604.058 620.022 602.072L619.59 602.323L619.157 602.574C620.385 604.691 622.036 606.468 624.105 607.903L624.39 607.492ZM619.59 602.323L620.022 602.072C618.883 600.107 618.305 597.817 618.305 595.185H617.805H617.305C617.305 597.968 617.917 600.436 619.157 602.574L619.59 602.323ZM617.805 595.185H618.305C618.305 591.668 619.242 588.746 621.091 586.385L620.698 586.077L620.304 585.769C618.296 588.331 617.305 591.481 617.305 595.185H617.805ZM620.698 586.077L621.091 586.385C622.957 584.003 625.463 582.208 628.629 581.006L628.451 580.538L628.274 580.071C624.957 581.331 622.294 583.228 620.304 585.769L620.698 586.077ZM628.451 580.538L628.632 581.005C631.851 579.757 635.378 579.131 639.221 579.131V578.631V578.131C635.268 578.131 631.616 578.776 628.271 580.072L628.451 580.538ZM639.221 578.631V579.131C642.292 579.131 645.175 579.555 647.871 580.4L648.021 579.923L648.17 579.446C645.369 578.568 642.385 578.131 639.221 578.131V578.631ZM648.021 579.923L647.88 580.403C650.602 581.203 652.89 582.48 654.756 584.227L655.098 583.862L655.439 583.497C653.448 581.633 651.019 580.284 648.162 579.443L648.021 579.923ZM655.098 583.862L654.764 584.234C656.647 585.921 657.891 588.122 658.486 590.86L658.974 590.754L659.463 590.648C658.828 587.724 657.486 585.33 655.431 583.489L655.098 583.862ZM658.974 590.754L658.922 590.257L647.845 591.426L647.898 591.923L647.95 592.42L659.027 591.251L658.974 590.754ZM647.898 591.923L648.363 591.739C647.707 590.078 646.59 588.745 645.028 587.748L644.759 588.169L644.49 588.591C645.882 589.48 646.858 590.65 647.432 592.107L647.898 591.923ZM644.759 588.169L645.034 587.751C643.493 586.739 641.522 586.254 639.159 586.254V586.754V587.254C641.391 587.254 643.153 587.712 644.484 588.587L644.759 588.169ZM639.159 586.754V586.254C636.198 586.254 633.79 587.038 631.993 588.66L632.328 589.031L632.663 589.402C634.231 587.987 636.377 587.254 639.159 587.254V586.754ZM632.328 589.031L631.998 588.655C630.199 590.235 629.305 592.326 629.305 594.877H629.805H630.305C630.305 592.587 631.094 590.78 632.658 589.406L632.328 589.031ZM629.805 594.877H629.305V595.492H629.805H630.305V594.877H629.805ZM629.805 595.492H629.305C629.305 598.005 630.2 600.092 631.993 601.71L632.328 601.338L632.663 600.967C631.092 599.549 630.305 597.738 630.305 595.492H629.805ZM632.328 601.338L631.993 601.71C633.79 603.331 636.198 604.115 639.159 604.115V603.615V603.115C636.377 603.115 634.231 602.382 632.663 600.967L632.328 601.338ZM639.159 603.615V604.115C641.522 604.115 643.493 603.63 645.034 602.618L644.759 602.2L644.484 601.782C643.153 602.657 641.391 603.115 639.159 603.115V603.615ZM644.759 602.2L645.028 602.621C646.59 601.624 647.707 600.291 648.363 598.63L647.898 598.446L647.432 598.263C646.858 599.719 645.882 600.889 644.49 601.779L644.759 602.2ZM647.898 598.446L647.845 598.943L658.922 600.113L658.974 599.615L659.027 599.118L647.95 597.949L647.898 598.446ZM658.974 599.615L658.486 599.509C657.89 602.248 656.646 604.471 654.76 606.201L655.098 606.569L655.435 606.938C657.487 605.057 658.828 602.644 659.463 599.722L658.974 599.615ZM655.098 606.569L654.76 606.2C652.892 607.909 650.601 609.188 647.873 610.03L648.021 610.508L648.168 610.985C651.02 610.105 653.446 608.758 655.435 606.938L655.098 606.569ZM648.021 610.508L647.878 610.029C645.179 610.834 642.294 611.238 639.221 611.238V611.738V612.238C642.383 612.238 645.365 611.822 648.164 610.987L648.021 610.508Z" fill="#FFFAEE"/>
<path d="M432.545 549.293C431.495 549.293 430.474 549.105 429.483 548.73C428.493 548.355 427.6 547.807 426.804 547.086C426.009 546.366 425.371 545.495 424.89 544.474C424.425 543.454 424.192 542.29 424.192 540.984C424.192 539.679 424.425 538.515 424.89 537.495C425.371 536.474 426.009 535.611 426.804 534.905C427.6 534.185 428.493 533.637 429.483 533.262C430.474 532.886 431.495 532.699 432.545 532.699C433.596 532.699 434.617 532.886 435.608 533.262C436.598 533.637 437.491 534.185 438.287 534.905C439.082 535.611 439.713 536.474 440.178 537.495C440.644 538.515 440.876 539.679 440.876 540.984C440.876 542.29 440.644 543.454 440.178 544.474C439.713 545.495 439.082 546.366 438.287 547.086C437.491 547.807 436.598 548.355 435.608 548.73C434.617 549.105 433.596 549.293 432.545 549.293ZM432.545 548.257C433.431 548.257 434.302 548.099 435.157 547.784C436.013 547.454 436.786 546.981 437.476 546.366C438.167 545.735 438.715 544.97 439.12 544.069C439.54 543.168 439.75 542.14 439.75 540.984C439.75 539.829 439.54 538.8 439.12 537.9C438.715 536.999 438.167 536.241 437.476 535.626C436.786 534.995 436.013 534.523 435.157 534.207C434.302 533.877 433.431 533.712 432.545 533.712C431.645 533.712 430.767 533.877 429.911 534.207C429.056 534.523 428.283 534.995 427.592 535.626C426.902 536.241 426.346 536.999 425.926 537.9C425.521 538.8 425.318 539.829 425.318 540.984C425.318 542.14 425.521 543.168 425.926 544.069C426.346 544.97 426.902 545.735 427.592 546.366C428.283 546.981 429.056 547.454 429.911 547.784C430.767 548.099 431.645 548.257 432.545 548.257ZM432.636 545.398C431.255 545.398 430.211 545 429.506 544.204C428.8 543.409 428.448 542.328 428.448 540.962C428.448 539.596 428.808 538.523 429.528 537.742C430.264 536.962 431.285 536.571 432.591 536.571C433.281 536.571 433.874 536.684 434.369 536.909C434.88 537.134 435.285 537.457 435.585 537.877C435.9 538.283 436.103 538.77 436.193 539.341H434.932C434.827 538.816 434.609 538.403 434.279 538.103C433.964 537.802 433.409 537.652 432.613 537.652C431.652 537.652 430.917 537.937 430.407 538.508C429.896 539.078 429.641 539.896 429.641 540.962C429.641 542.043 429.896 542.876 430.407 543.461C430.917 544.032 431.652 544.317 432.613 544.317C433.364 544.317 433.911 544.197 434.257 543.957C434.602 543.701 434.827 543.296 434.932 542.741H436.193C436.133 543.266 435.953 543.731 435.653 544.137C435.367 544.527 434.97 544.835 434.459 545.06C433.964 545.285 433.356 545.398 432.636 545.398ZM443.217 547.897L448.666 542.065C449.356 541.33 449.919 540.684 450.354 540.129C450.79 539.559 451.112 539.033 451.323 538.553C451.548 538.057 451.66 537.555 451.66 537.044C451.66 536.069 451.345 535.326 450.715 534.815C450.084 534.29 449.244 534.027 448.193 534.027C447.142 534.027 446.279 534.342 445.604 534.973C444.928 535.588 444.605 536.436 444.635 537.517H443.33C443.315 536.541 443.517 535.708 443.937 535.018C444.358 534.327 444.943 533.795 445.694 533.419C446.444 533.044 447.3 532.856 448.26 532.856C449.266 532.856 450.114 533.029 450.805 533.374C451.51 533.704 452.051 534.185 452.426 534.815C452.801 535.431 452.989 536.174 452.989 537.044C452.989 537.615 452.891 538.17 452.696 538.71C452.501 539.236 452.141 539.844 451.615 540.534C451.105 541.21 450.362 542.065 449.386 543.101L444.253 548.595L444.343 547.829H453.191V549H443.217V547.897ZM461.131 549.225C459.825 549.225 458.76 548.932 457.934 548.347C457.123 547.747 456.531 546.846 456.155 545.645C455.78 544.429 455.592 542.891 455.592 541.03C455.592 539.168 455.78 537.637 456.155 536.436C456.546 535.236 457.146 534.342 457.956 533.757C458.782 533.157 459.84 532.856 461.131 532.856C462.437 532.856 463.495 533.157 464.306 533.757C465.131 534.342 465.732 535.236 466.107 536.436C466.497 537.637 466.692 539.168 466.692 541.03C466.692 542.876 466.497 544.407 466.107 545.623C465.732 546.839 465.131 547.747 464.306 548.347C463.495 548.932 462.437 549.225 461.131 549.225ZM461.131 548.054C462.662 548.054 463.75 547.476 464.396 546.321C465.041 545.165 465.364 543.401 465.364 541.03C465.364 538.658 465.041 536.902 464.396 535.761C463.75 534.605 462.662 534.027 461.131 534.027C459.615 534.027 458.534 534.605 457.889 535.761C457.243 536.902 456.921 538.658 456.921 541.03C456.921 543.401 457.236 545.165 457.866 546.321C458.512 547.476 459.6 548.054 461.131 548.054ZM469.097 547.897L474.545 542.065C475.236 541.33 475.799 540.684 476.234 540.129C476.669 539.559 476.992 539.033 477.202 538.553C477.427 538.057 477.54 537.555 477.54 537.044C477.54 536.069 477.225 535.326 476.594 534.815C475.964 534.29 475.123 534.027 474.072 534.027C473.022 534.027 472.159 534.342 471.483 534.973C470.808 535.588 470.485 536.436 470.515 537.517H469.209C469.194 536.541 469.397 535.708 469.817 535.018C470.237 534.327 470.823 533.795 471.573 533.419C472.324 533.044 473.179 532.856 474.14 532.856C475.146 532.856 475.994 533.029 476.684 533.374C477.39 533.704 477.93 534.185 478.305 534.815C478.681 535.431 478.868 536.174 478.868 537.044C478.868 537.615 478.771 538.17 478.576 538.71C478.38 539.236 478.02 539.844 477.495 540.534C476.984 541.21 476.241 542.065 475.266 543.101L470.132 548.595L470.222 547.829H479.071V549H469.097V547.897ZM481.9 544.002C481.915 543.416 481.982 542.846 482.102 542.29C482.237 541.735 482.47 541.142 482.8 540.512C483.146 539.881 483.618 539.161 484.219 538.35L488.159 533.082H489.758L484.421 540.151L484.241 539.949C484.557 539.754 484.842 539.596 485.097 539.476C485.352 539.341 485.63 539.243 485.93 539.183C486.23 539.108 486.598 539.071 487.033 539.071C488.129 539.071 489.06 539.273 489.825 539.679C490.591 540.069 491.169 540.639 491.559 541.39C491.964 542.14 492.167 543.048 492.167 544.114C492.167 545.135 491.972 546.028 491.581 546.793C491.191 547.559 490.613 548.159 489.848 548.595C489.082 549.015 488.144 549.225 487.033 549.225C485.352 549.225 484.069 548.752 483.183 547.807C482.313 546.846 481.885 545.578 481.9 544.002ZM483.228 544.114C483.228 545.315 483.521 546.276 484.106 546.996C484.707 547.702 485.682 548.054 487.033 548.054C488.369 548.054 489.337 547.702 489.938 546.996C490.538 546.276 490.838 545.315 490.838 544.114C490.838 542.913 490.538 541.968 489.938 541.277C489.337 540.587 488.369 540.241 487.033 540.241C485.832 540.241 484.894 540.587 484.219 541.277C483.558 541.968 483.228 542.913 483.228 544.114Z" fill="#FFFAEE"/>
<path d="M425.115 472V456.082H430.046C432.358 456.082 434.107 456.757 435.292 458.108C436.478 459.459 437.071 461.433 437.071 464.03C437.071 466.611 436.463 468.585 435.247 469.951C434.047 471.317 432.238 472 429.821 472H425.115ZM429.709 470.829C431.225 470.829 432.418 470.559 433.289 470.019C434.159 469.463 434.782 468.675 435.157 467.655C435.533 466.634 435.72 465.425 435.72 464.03C435.72 462.619 435.533 461.41 435.157 460.405C434.797 459.384 434.189 458.603 433.334 458.063C432.493 457.523 431.345 457.252 429.889 457.252H426.466V470.829H429.709ZM440.353 456.082H449.314V457.252H441.704V463.444H448.796V464.615H441.704V470.829H449.427V472H440.353V456.082ZM452.908 456.082H458.222C459.497 456.082 460.526 456.284 461.306 456.689C462.087 457.08 462.657 457.635 463.017 458.356C463.378 459.076 463.558 459.932 463.558 460.922C463.558 461.913 463.378 462.776 463.017 463.512C462.657 464.247 462.087 464.818 461.306 465.223C460.541 465.628 459.527 465.831 458.267 465.831H454.259V472H452.908V456.082ZM458.177 464.66C459.227 464.66 460.045 464.51 460.631 464.21C461.216 463.894 461.621 463.459 461.847 462.904C462.087 462.333 462.207 461.673 462.207 460.922C462.207 460.157 462.087 459.504 461.847 458.964C461.621 458.408 461.216 457.988 460.631 457.703C460.045 457.402 459.212 457.252 458.132 457.252H454.259V464.66H458.177ZM464.443 456.082H476.196V457.252H470.995V472H469.644V457.252H464.443V456.082Z" fill="#FFFAEE"/>
<path d="M428.704 496.96L421.049 507.925L420.756 507.272H431.789V508.443H419.968V507.317L427.849 496.082H429.56V512H428.231V496.802L428.704 496.96ZM439.474 512.225C438.439 512.225 437.531 512.068 436.75 511.752C435.985 511.437 435.384 510.957 434.949 510.311C434.514 509.666 434.266 508.855 434.206 507.88H435.669C435.699 508.585 435.872 509.178 436.187 509.658C436.517 510.124 436.96 510.476 437.516 510.717C438.071 510.942 438.731 511.054 439.497 511.054C440.668 511.054 441.613 510.739 442.334 510.109C443.054 509.463 443.415 508.54 443.415 507.339C443.415 506.184 443.062 505.283 442.356 504.637C441.666 503.992 440.698 503.669 439.452 503.669H437.696L437.673 502.701L443.099 496.735L443.212 497.252H434.859V496.082H444.383V497.162L439.182 502.859V502.521C440.293 502.506 441.208 502.649 441.929 502.949C442.649 503.234 443.212 503.624 443.617 504.12C444.038 504.6 444.33 505.125 444.495 505.696C444.676 506.251 444.766 506.799 444.766 507.339C444.766 508.39 444.548 509.283 444.113 510.019C443.677 510.739 443.062 511.287 442.266 511.662C441.486 512.038 440.555 512.225 439.474 512.225ZM455.094 504.705L459.237 512H457.728L453.743 504.953L455.094 504.705ZM453.338 504.277C454.404 504.277 455.229 504.142 455.815 503.872C456.4 503.602 456.813 503.204 457.053 502.679C457.293 502.153 457.413 501.508 457.413 500.742C457.413 499.962 457.293 499.316 457.053 498.806C456.813 498.296 456.4 497.913 455.815 497.658C455.229 497.387 454.404 497.252 453.338 497.252H449.465V504.277H453.338ZM453.45 505.448H449.465V512H448.114V496.082H453.428C454.719 496.082 455.755 496.269 456.535 496.644C457.316 497.005 457.878 497.53 458.224 498.221C458.584 498.911 458.764 499.752 458.764 500.742C458.764 501.523 458.682 502.206 458.516 502.791C458.351 503.377 458.066 503.872 457.661 504.277C457.256 504.667 456.708 504.96 456.017 505.155C455.342 505.35 454.486 505.448 453.45 505.448ZM467.525 505.471H461.446V504.3H467.525V505.471ZM475.533 512.225C474.227 512.225 473.161 511.932 472.336 511.347C471.525 510.747 470.932 509.846 470.557 508.645C470.182 507.429 469.994 505.891 469.994 504.03C469.994 502.168 470.182 500.637 470.557 499.436C470.947 498.236 471.548 497.342 472.358 496.757C473.184 496.157 474.242 495.856 475.533 495.856C476.839 495.856 477.897 496.157 478.707 496.757C479.533 497.342 480.133 498.236 480.509 499.436C480.899 500.637 481.094 502.168 481.094 504.03C481.094 505.876 480.899 507.407 480.509 508.623C480.133 509.839 479.533 510.747 478.707 511.347C477.897 511.932 476.839 512.225 475.533 512.225ZM475.533 511.054C477.064 511.054 478.152 510.476 478.798 509.321C479.443 508.165 479.766 506.401 479.766 504.03C479.766 501.658 479.443 499.902 478.798 498.761C478.152 497.605 477.064 497.027 475.533 497.027C474.017 497.027 472.936 497.605 472.291 498.761C471.645 499.902 471.322 501.658 471.322 504.03C471.322 506.401 471.638 508.165 472.268 509.321C472.914 510.476 474.002 511.054 475.533 511.054ZM488.879 512.225C487.573 512.225 486.508 511.932 485.682 511.347C484.872 510.747 484.279 509.846 483.903 508.645C483.528 507.429 483.341 505.891 483.341 504.03C483.341 502.168 483.528 500.637 483.903 499.436C484.294 498.236 484.894 497.342 485.705 496.757C486.53 496.157 487.588 495.856 488.879 495.856C490.185 495.856 491.244 496.157 492.054 496.757C492.88 497.342 493.48 498.236 493.855 499.436C494.246 500.637 494.441 502.168 494.441 504.03C494.441 505.876 494.246 507.407 493.855 508.623C493.48 509.839 492.88 510.747 492.054 511.347C491.244 511.932 490.185 512.225 488.879 512.225ZM488.879 511.054C490.41 511.054 491.499 510.476 492.144 509.321C492.79 508.165 493.112 506.401 493.112 504.03C493.112 501.658 492.79 499.902 492.144 498.761C491.499 497.605 490.41 497.027 488.879 497.027C487.363 497.027 486.283 497.605 485.637 498.761C484.992 499.902 484.669 501.658 484.669 504.03C484.669 506.401 484.984 508.165 485.615 509.321C486.26 510.476 487.348 511.054 488.879 511.054ZM505.266 496.96L497.61 507.925L497.318 507.272H508.35V508.443H496.53V507.317L504.41 496.082H506.121V512H504.793V496.802L505.266 496.96ZM516.013 512.225C514.993 512.225 514.107 512.068 513.357 511.752C512.606 511.422 512.021 510.949 511.6 510.334C511.18 509.718 510.94 508.975 510.88 508.105H512.253C512.313 509.08 512.674 509.816 513.334 510.311C513.994 510.807 514.888 511.054 516.013 511.054C517.349 511.054 518.325 510.687 518.94 509.951C519.571 509.201 519.886 508.277 519.886 507.182C519.886 506.446 519.758 505.786 519.503 505.2C519.263 504.6 518.865 504.127 518.31 503.782C517.755 503.422 517.012 503.241 516.081 503.241C515.27 503.226 514.572 503.377 513.987 503.692C513.417 503.992 512.959 504.42 512.613 504.975H511.195L512.253 496.082H520.449V497.252H513.424L512.681 503.579H512.749C513.049 503.099 513.484 502.731 514.054 502.476C514.625 502.206 515.263 502.071 515.968 502.071C517.124 502.071 518.085 502.296 518.85 502.746C519.631 503.196 520.216 503.804 520.606 504.57C521.012 505.32 521.214 506.176 521.214 507.137C521.214 508.127 521.004 509.005 520.584 509.771C520.164 510.536 519.563 511.137 518.783 511.572C518.017 512.008 517.094 512.225 516.013 512.225ZM529.16 512.225C527.254 512.225 525.858 511.842 524.972 511.077C524.101 510.311 523.666 509.246 523.666 507.88C523.681 507.144 523.816 506.484 524.071 505.898C524.342 505.313 524.717 504.833 525.197 504.457C525.693 504.082 526.255 503.842 526.886 503.737V503.647C526.06 503.437 525.415 503.009 524.949 502.363C524.499 501.703 524.274 500.907 524.274 499.977C524.274 499.181 524.447 498.476 524.792 497.86C525.152 497.23 525.693 496.742 526.413 496.397C527.149 496.037 528.064 495.856 529.16 495.856C530.256 495.856 531.164 496.037 531.884 496.397C532.605 496.742 533.138 497.23 533.483 497.86C533.843 498.476 534.016 499.181 534.001 499.977C533.986 500.892 533.753 501.68 533.303 502.341C532.852 503.001 532.214 503.437 531.389 503.647V503.737C532.019 503.842 532.582 504.082 533.078 504.457C533.573 504.833 533.956 505.313 534.226 505.898C534.511 506.484 534.654 507.144 534.654 507.88C534.654 508.795 534.459 509.576 534.068 510.221C533.678 510.867 533.078 511.362 532.267 511.707C531.456 512.053 530.421 512.225 529.16 512.225ZM529.16 511.054C530.601 511.054 531.659 510.754 532.335 510.154C533.01 509.553 533.348 508.735 533.348 507.7C533.348 506.679 532.988 505.868 532.267 505.268C531.547 504.667 530.511 504.367 529.16 504.367C527.794 504.367 526.751 504.667 526.03 505.268C525.325 505.868 524.972 506.679 524.972 507.7C524.972 508.735 525.31 509.553 525.985 510.154C526.661 510.754 527.719 511.054 529.16 511.054ZM529.16 503.196C530.331 503.196 531.216 502.926 531.817 502.386C532.432 501.831 532.74 501.08 532.74 500.134C532.74 499.174 532.44 498.416 531.839 497.86C531.254 497.305 530.361 497.027 529.16 497.027C527.944 497.027 527.043 497.305 526.458 497.86C525.873 498.416 525.58 499.174 525.58 500.134C525.58 501.08 525.88 501.831 526.481 502.386C527.081 502.926 527.974 503.196 529.16 503.196ZM542.487 512.225C541.466 512.225 540.58 512.068 539.83 511.752C539.079 511.422 538.494 510.949 538.074 510.334C537.653 509.718 537.413 508.975 537.353 508.105H538.727C538.787 509.08 539.147 509.816 539.807 510.311C540.468 510.807 541.361 511.054 542.487 511.054C543.823 511.054 544.798 510.687 545.414 509.951C546.044 509.201 546.359 508.277 546.359 507.182C546.359 506.446 546.232 505.786 545.976 505.2C545.736 504.6 545.339 504.127 544.783 503.782C544.228 503.422 543.485 503.241 542.554 503.241C541.744 503.226 541.046 503.377 540.46 503.692C539.89 503.992 539.432 504.42 539.087 504.975H537.668L538.727 496.082H546.922V497.252H539.897L539.154 503.579H539.222C539.522 503.099 539.957 502.731 540.528 502.476C541.098 502.206 541.736 502.071 542.442 502.071C543.597 502.071 544.558 502.296 545.324 502.746C546.104 503.196 546.689 503.804 547.08 504.57C547.485 505.32 547.688 506.176 547.688 507.137C547.688 508.127 547.478 509.005 547.057 509.771C546.637 510.536 546.037 511.137 545.256 511.572C544.49 512.008 543.567 512.225 542.487 512.225Z" fill="#FFFAEE"/>
<path d="M573.088 523.567H595.895C597.899 523.567 599.53 525.198 599.53 527.203V550.009C599.53 552.014 597.899 553.645 595.895 553.645H573.088C571.083 553.645 569.452 552.014 569.452 550.009V527.203C569.452 525.198 571.083 523.567 573.088 523.567H573.088ZM595.895 525.627H573.088C572.219 525.627 571.512 526.334 571.512 527.203V534.18H586.621L580.288 528.294H583.315L590.751 535.207L584.17 541.327H597.47V527.203C597.47 526.334 596.764 525.627 595.895 525.627ZM573.088 551.586H595.895C596.764 551.586 597.47 550.879 597.47 550.01V543.387H584.058L590.391 549.272H587.364L579.928 542.359L586.509 536.239H571.512V550.009C571.512 550.878 572.219 551.585 573.087 551.585L573.088 551.586Z" fill="#FFFAEE"/>
<path d="M529.849 523C519.455 523 511 529.827 511 538.225C511 546.622 519.455 553.449 529.849 553.449C540.243 553.449 548.698 546.622 548.698 538.225C548.698 529.827 540.243 523 529.849 523ZM529.016 525.485V531.187C527.326 531.163 525.688 531.062 524.147 530.9C525.736 528.511 527.723 526.6 529.016 525.485ZM529.016 532.752V537.444H521.657C521.801 535.649 522.414 533.935 523.261 532.374C525.071 532.599 527.015 532.728 529.021 532.757L529.016 532.752ZM529.016 539.005V543.697C527.01 543.726 525.066 543.855 523.256 544.08C522.414 542.519 521.796 540.805 521.657 539.01H529.016V539.005ZM529.016 545.258V550.964C527.723 549.849 525.731 547.939 524.142 545.55C525.684 545.382 527.326 545.282 529.016 545.258ZM530.687 550.96V545.258C532.362 545.282 534 545.387 535.551 545.559C533.961 547.943 531.979 549.849 530.687 550.964V550.96ZM530.687 543.692V539H538.045C537.902 540.8 537.289 542.514 536.441 544.075C534.632 543.85 532.693 543.716 530.687 543.687V543.692ZM530.687 537.439V532.748C532.693 532.719 534.632 532.585 536.441 532.36C537.289 533.921 537.906 535.639 538.045 537.435H530.687V537.439ZM530.687 531.187V525.485C531.979 526.6 533.961 528.506 535.551 530.89C534 531.062 532.362 531.163 530.687 531.192V531.187ZM532.252 524.7C536.465 525.169 540.195 526.864 542.852 529.31C541.377 529.875 539.491 530.33 537.37 530.651C535.785 528.08 533.732 526.007 532.252 524.7ZM522.323 530.665C520.202 530.344 518.325 529.889 516.836 529.32C519.493 526.864 523.228 525.169 527.45 524.695C525.971 526.007 523.912 528.084 522.327 530.66L522.323 530.665ZM521.514 532.12C520.695 533.753 520.106 535.544 519.977 537.439H512.7C512.882 534.892 513.944 532.532 515.649 530.545C517.214 531.206 519.22 531.742 521.514 532.12ZM519.977 539.005C520.106 540.901 520.695 542.691 521.514 544.324C519.225 544.702 517.219 545.234 515.649 545.899C513.944 543.912 512.882 541.552 512.7 539.005H519.972H519.977ZM522.323 545.779C523.912 548.355 525.966 550.433 527.445 551.745C523.223 551.271 519.488 549.576 516.831 547.12C518.325 546.55 520.197 546.095 522.318 545.775L522.323 545.779ZM537.365 545.794C539.491 546.115 541.373 546.574 542.847 547.134C540.19 549.581 536.46 551.276 532.247 551.745C533.727 550.433 535.776 548.36 537.365 545.794ZM538.184 544.329C539.007 542.691 539.596 540.901 539.726 539H546.998C546.816 541.552 545.748 543.917 544.039 545.909C542.479 545.243 540.472 544.707 538.184 544.329ZM539.726 537.439C539.596 535.544 539.007 533.748 538.184 532.111C540.472 531.733 542.474 531.196 544.039 530.531C545.748 532.523 546.816 534.888 546.998 537.439H539.726Z" fill="#FFFAEE"/>
<path d="M640.396 552.767C629.126 552.767 619.96 546.089 619.96 537.881C619.96 529.674 629.126 523 640.396 523C651.667 523 660.833 529.678 660.833 537.881C660.833 546.084 651.667 552.762 640.396 552.762V552.767ZM640.396 524.402C629.9 524.402 621.362 530.452 621.362 537.881C621.362 545.31 629.9 551.361 640.396 551.361C650.893 551.361 659.431 545.315 659.431 537.881C659.431 530.448 650.893 524.402 640.396 524.402Z" fill="#FFFAEE"/>
<path d="M651.681 542.958C648.698 542.614 646.4 540.457 646.4 537.885C646.4 535.312 648.694 533.151 651.681 532.811V530.423C647.377 530.791 644.026 534.029 644.026 537.885C644.026 541.741 647.372 544.978 651.681 545.347V542.958Z" fill="#FFFAEE"/>
<path d="M643.577 542.958C640.594 542.614 638.296 540.457 638.296 537.885C638.296 535.312 640.59 533.151 643.577 532.811V530.423C639.273 530.791 635.922 534.029 635.922 537.885C635.922 541.741 639.268 544.978 643.577 545.347V542.958Z" fill="#FFFAEE"/>
<path d="M635.922 542.958C632.939 542.614 630.641 540.457 630.641 537.885C630.641 535.312 632.935 533.151 635.922 532.811V530.423C631.618 530.791 628.267 534.029 628.267 537.885C628.267 541.741 631.613 544.978 635.922 545.347V542.958Z" fill="#FFFAEE"/>
</svg>
