<svg width="1080" height="1080" viewBox="0 0 1080 1080" fill="none" xmlns="http://www.w3.org/2000/svg">
<rect width="1080" height="1080" fill="#191919"/>
<path d="M424.085 453V450.982H429.615V435.416H429.421L424.555 439.951L423.201 438.485L428.315 433.702H431.937V450.982H437.024V453H424.085ZM450.229 435.721H441.603L441.05 443.102H441.243C441.723 442.457 442.257 441.95 442.847 441.582C443.437 441.195 444.248 441.001 445.28 441.001C446.128 441.001 446.902 441.139 447.602 441.416C448.321 441.674 448.938 442.061 449.455 442.577C449.971 443.093 450.376 443.72 450.671 444.457C450.966 445.176 451.113 446.005 451.113 446.945C451.113 447.885 450.966 448.752 450.671 449.544C450.376 450.318 449.943 450.991 449.372 451.562C448.8 452.115 448.109 452.548 447.298 452.862C446.487 453.175 445.566 453.332 444.533 453.332C443.722 453.332 442.994 453.24 442.349 453.055C441.723 452.871 441.16 452.622 440.663 452.309C440.184 451.995 439.76 451.645 439.391 451.258C439.022 450.871 438.691 450.466 438.396 450.042L440.137 448.715C440.396 449.102 440.654 449.452 440.912 449.765C441.188 450.079 441.501 450.355 441.852 450.595C442.202 450.816 442.598 450.991 443.04 451.12C443.483 451.249 443.999 451.314 444.589 451.314C445.916 451.314 446.929 450.954 447.63 450.235C448.349 449.516 448.708 448.521 448.708 447.249V447.028C448.708 445.756 448.349 444.761 447.63 444.042C446.911 443.324 445.879 442.964 444.533 442.964C443.612 442.964 442.893 443.121 442.377 443.434C441.879 443.747 441.418 444.135 440.995 444.595L439.032 444.319L439.723 433.702H450.229V435.721ZM453.37 453V450.982H458.899V435.416H458.706L453.84 439.951L452.485 438.485L457.6 433.702H461.221V450.982H466.308V453H453.37ZM489.759 435.721V453H487.437V435.721H480.995V433.702H496.201V435.721H489.759ZM507 444.236H499.48V453H497.158V433.702H499.48V442.218H507V433.702H509.323V453H507V444.236ZM511.911 453V451.148H516.721V435.555H511.911V433.702H523.854V435.555H519.043V451.148H523.854V453H511.911ZM529.041 453H526.719V433.702H533.741C535.529 433.702 536.893 434.191 537.833 435.168C538.773 436.145 539.243 437.508 539.243 439.259C539.243 440.826 538.837 442.079 538.026 443.019C537.215 443.959 536.036 444.503 534.487 444.651L539.409 453H536.81L532.11 444.761H529.041V453ZM533.686 442.798C534.662 442.798 535.418 442.559 535.953 442.079C536.506 441.582 536.782 440.881 536.782 439.978V438.541C536.782 437.637 536.506 436.946 535.953 436.467C535.418 435.969 534.662 435.721 533.686 435.721H529.041V442.798H533.686ZM541.499 433.702H546.89C549.249 433.702 551.01 434.513 552.171 436.135C553.332 437.757 553.912 440.163 553.912 443.351C553.912 446.54 553.332 448.945 552.171 450.567C551.01 452.189 549.249 453 546.89 453H541.499V433.702ZM546.78 450.982C548.328 450.982 549.489 450.447 550.263 449.378C551.056 448.309 551.452 446.798 551.452 444.844V441.858C551.452 439.905 551.056 438.393 550.263 437.324C549.489 436.255 548.328 435.721 546.78 435.721H543.821V450.982H546.78ZM576.396 453.332C574.663 453.332 573.244 453.018 572.138 452.392C571.032 451.747 570.12 450.926 569.401 449.931L571.087 448.549C571.843 449.489 572.636 450.189 573.465 450.65C574.313 451.111 575.317 451.341 576.479 451.341C577.879 451.341 578.948 451.019 579.686 450.374C580.423 449.728 580.791 448.825 580.791 447.664C580.791 446.724 580.524 445.996 579.99 445.48C579.455 444.945 578.524 444.568 577.197 444.346L575.041 443.987C574.101 443.821 573.308 443.572 572.663 443.241C572.037 442.909 571.53 442.513 571.143 442.052C570.756 441.573 570.479 441.056 570.313 440.504C570.147 439.932 570.064 439.342 570.064 438.734C570.064 436.965 570.645 435.628 571.806 434.725C572.967 433.822 574.534 433.371 576.506 433.371C578.054 433.371 579.354 433.629 580.404 434.145C581.473 434.661 582.33 435.389 582.976 436.329L581.344 437.739C580.81 437.038 580.165 436.467 579.409 436.025C578.653 435.582 577.677 435.361 576.479 435.361C575.17 435.361 574.165 435.638 573.465 436.191C572.765 436.744 572.414 437.573 572.414 438.679C572.414 439.545 572.672 440.255 573.189 440.808C573.723 441.342 574.672 441.729 576.036 441.969L578.11 442.328C579.05 442.494 579.842 442.743 580.487 443.075C581.132 443.406 581.649 443.803 582.036 444.264C582.441 444.724 582.727 445.24 582.893 445.812C583.059 446.383 583.141 446.982 583.141 447.609C583.141 449.397 582.552 450.797 581.372 451.811C580.211 452.825 578.552 453.332 576.396 453.332ZM592.254 435.721V453H589.932V435.721H583.49V433.702H598.696V435.721H592.254ZM602.252 453H599.929V433.702H606.952C608.739 433.702 610.103 434.191 611.043 435.168C611.983 436.145 612.453 437.508 612.453 439.259C612.453 440.826 612.048 442.079 611.237 443.019C610.426 443.959 609.246 444.503 607.698 444.651L612.619 453H610.02L605.32 444.761H602.252V453ZM606.896 442.798C607.873 442.798 608.629 442.559 609.163 442.079C609.716 441.582 609.993 440.881 609.993 439.978V438.541C609.993 437.637 609.716 436.946 609.163 436.467C608.629 435.969 607.873 435.721 606.896 435.721H602.252V442.798H606.896ZM614.571 453V433.702H626.46V435.721H616.894V442.218H626.128V444.236H616.894V450.982H626.46V453H614.571ZM629.214 453V433.702H641.102V435.721H631.536V442.218H640.77V444.236H631.536V450.982H641.102V453H629.214ZM650.823 435.721V453H648.5V435.721H642.059V433.702H657.265V435.721H650.823Z" fill="#FFFAEE"/>
<path d="M366.386 489.273C364.653 489.273 363.234 488.96 362.128 488.333C361.022 487.688 360.11 486.868 359.391 485.873L361.078 484.49C361.833 485.43 362.626 486.131 363.455 486.591C364.303 487.052 365.308 487.283 366.469 487.283C367.87 487.283 368.939 486.96 369.676 486.315C370.413 485.67 370.782 484.767 370.782 483.606C370.782 482.666 370.514 481.937 369.98 481.421C369.445 480.887 368.515 480.509 367.188 480.288L365.031 479.928C364.091 479.763 363.299 479.514 362.653 479.182C362.027 478.85 361.52 478.454 361.133 477.993C360.746 477.514 360.469 476.998 360.303 476.445C360.138 475.874 360.055 475.284 360.055 474.676C360.055 472.906 360.635 471.57 361.796 470.667C362.958 469.764 364.524 469.312 366.496 469.312C368.045 469.312 369.344 469.57 370.395 470.086C371.464 470.602 372.321 471.33 372.966 472.27L371.335 473.68C370.8 472.98 370.155 472.408 369.399 471.966C368.644 471.524 367.667 471.303 366.469 471.303C365.16 471.303 364.156 471.579 363.455 472.132C362.755 472.685 362.405 473.514 362.405 474.62C362.405 475.487 362.663 476.196 363.179 476.749C363.713 477.284 364.662 477.671 366.026 477.91L368.1 478.27C369.04 478.436 369.832 478.684 370.478 479.016C371.123 479.348 371.639 479.744 372.026 480.205C372.431 480.666 372.717 481.182 372.883 481.753C373.049 482.325 373.132 482.924 373.132 483.55C373.132 485.338 372.542 486.739 371.362 487.753C370.201 488.766 368.542 489.273 366.386 489.273ZM386.087 488.941L384.456 483.44H377.683L376.051 488.941H373.646L379.563 469.644H382.631L388.548 488.941H386.087ZM381.194 472.104H380.945L378.236 481.421H383.903L381.194 472.104ZM391.938 472.685H391.744V488.941H389.643V469.644H392.933L399.513 485.9H399.707V469.644H401.808V488.941H398.518L391.938 472.685ZM419.204 488.941V469.644H431.368V471.662H421.526V478.159H430.539V480.177H421.526V488.941H419.204ZM436.168 488.941H433.846V469.644H440.868C442.656 469.644 444.02 470.132 444.96 471.109C445.9 472.086 446.37 473.45 446.37 475.201C446.37 476.767 445.965 478.021 445.154 478.961C444.343 479.901 443.163 480.445 441.615 480.592L446.536 488.941H443.937L439.237 480.703H436.168V488.941ZM440.813 478.74C441.79 478.74 442.546 478.5 443.08 478.021C443.633 477.523 443.909 476.823 443.909 475.92V474.482C443.909 473.579 443.633 472.888 443.08 472.408C442.546 471.911 441.79 471.662 440.813 471.662H436.168V478.74H440.813ZM459.298 488.941L457.667 483.44H450.893L449.262 488.941H446.857L452.773 469.644H455.842L461.759 488.941H459.298ZM454.405 472.104H454.156L451.446 481.421H457.114L454.405 472.104ZM465.148 472.685H464.955V488.941H462.854V469.644H466.144L472.724 485.9H472.917V469.644H475.018V488.941H471.728L465.148 472.685ZM484.214 489.273C481.855 489.273 480.095 488.416 478.934 486.702C477.791 484.988 477.219 482.518 477.219 479.293C477.219 476.067 477.791 473.597 478.934 471.883C480.095 470.169 481.855 469.312 484.214 469.312C485.099 469.312 485.864 469.432 486.509 469.671C487.154 469.911 487.707 470.234 488.168 470.639C488.628 471.045 489.015 471.505 489.329 472.021C489.642 472.519 489.919 473.026 490.158 473.542L488.168 474.454C488.002 474.03 487.808 473.634 487.587 473.266C487.366 472.878 487.099 472.547 486.785 472.27C486.49 471.975 486.131 471.745 485.707 471.579C485.302 471.413 484.804 471.33 484.214 471.33C482.684 471.33 481.542 471.911 480.786 473.072C480.049 474.233 479.68 475.781 479.68 477.717V480.868C479.68 482.804 480.049 484.352 480.786 485.513C481.542 486.674 482.684 487.255 484.214 487.255C484.804 487.255 485.302 487.172 485.707 487.006C486.131 486.84 486.49 486.619 486.785 486.343C487.099 486.048 487.366 485.716 487.587 485.347C487.808 484.96 488.002 484.555 488.168 484.131L490.158 485.043C489.919 485.578 489.642 486.094 489.329 486.591C489.015 487.089 488.628 487.541 488.168 487.946C487.707 488.352 487.154 488.674 486.509 488.914C485.864 489.153 485.099 489.273 484.214 489.273ZM492.249 488.941V487.089H497.059V471.496H492.249V469.644H504.192V471.496H499.382V487.089H504.192V488.941H492.249ZM512.807 489.273C511.075 489.273 509.655 488.96 508.55 488.333C507.444 487.688 506.531 486.868 505.812 485.873L507.499 484.49C508.255 485.43 509.047 486.131 509.877 486.591C510.724 487.052 511.729 487.283 512.89 487.283C514.291 487.283 515.36 486.96 516.097 486.315C516.834 485.67 517.203 484.767 517.203 483.606C517.203 482.666 516.936 481.937 516.401 481.421C515.867 480.887 514.936 480.509 513.609 480.288L511.452 479.928C510.512 479.763 509.72 479.514 509.075 479.182C508.448 478.85 507.941 478.454 507.554 477.993C507.167 477.514 506.891 476.998 506.725 476.445C506.559 475.874 506.476 475.284 506.476 474.676C506.476 472.906 507.057 471.57 508.218 470.667C509.379 469.764 510.946 469.312 512.918 469.312C514.466 469.312 515.765 469.57 516.816 470.086C517.885 470.602 518.742 471.33 519.387 472.27L517.756 473.68C517.222 472.98 516.576 472.408 515.821 471.966C515.065 471.524 514.088 471.303 512.89 471.303C511.582 471.303 510.577 471.579 509.877 472.132C509.176 472.685 508.826 473.514 508.826 474.62C508.826 475.487 509.084 476.196 509.6 476.749C510.135 477.284 511.084 477.671 512.448 477.91L514.521 478.27C515.461 478.436 516.254 478.684 516.899 479.016C517.544 479.348 518.06 479.744 518.447 480.205C518.853 480.666 519.138 481.182 519.304 481.753C519.47 482.325 519.553 482.924 519.553 483.55C519.553 485.338 518.963 486.739 517.784 487.753C516.622 488.766 514.964 489.273 512.807 489.273ZM528.141 489.273C525.781 489.273 524.021 488.416 522.86 486.702C521.717 484.988 521.146 482.518 521.146 479.293C521.146 476.067 521.717 473.597 522.86 471.883C524.021 470.169 525.781 469.312 528.141 469.312C529.025 469.312 529.79 469.432 530.435 469.671C531.08 469.911 531.633 470.234 532.094 470.639C532.555 471.045 532.942 471.505 533.255 472.021C533.569 472.519 533.845 473.026 534.085 473.542L532.094 474.454C531.928 474.03 531.735 473.634 531.513 473.266C531.292 472.878 531.025 472.547 530.712 472.27C530.417 471.975 530.057 471.745 529.633 471.579C529.228 471.413 528.73 471.33 528.141 471.33C526.611 471.33 525.468 471.911 524.712 473.072C523.975 474.233 523.606 475.781 523.606 477.717V480.868C523.606 482.804 523.975 484.352 524.712 485.513C525.468 486.674 526.611 487.255 528.141 487.255C528.73 487.255 529.228 487.172 529.633 487.006C530.057 486.84 530.417 486.619 530.712 486.343C531.025 486.048 531.292 485.716 531.513 485.347C531.735 484.96 531.928 484.555 532.094 484.131L534.085 485.043C533.845 485.578 533.569 486.094 533.255 486.591C532.942 487.089 532.555 487.541 532.094 487.946C531.633 488.352 531.08 488.674 530.435 488.914C529.79 489.153 529.025 489.273 528.141 489.273ZM542.147 489.273C540.967 489.273 539.953 489.052 539.106 488.61C538.258 488.149 537.557 487.495 537.004 486.647C536.451 485.799 536.046 484.757 535.788 483.523C535.53 482.288 535.401 480.878 535.401 479.293C535.401 477.726 535.53 476.325 535.788 475.09C536.046 473.837 536.451 472.786 537.004 471.938C537.557 471.091 538.258 470.446 539.106 470.003C539.953 469.542 540.967 469.312 542.147 469.312C543.326 469.312 544.34 469.542 545.188 470.003C546.036 470.446 546.736 471.091 547.289 471.938C547.842 472.786 548.248 473.837 548.506 475.09C548.764 476.325 548.893 477.726 548.893 479.293C548.893 480.878 548.764 482.288 548.506 483.523C548.248 484.757 547.842 485.799 547.289 486.647C546.736 487.495 546.036 488.149 545.188 488.61C544.34 489.052 543.326 489.273 542.147 489.273ZM542.147 487.255C542.921 487.255 543.575 487.107 544.11 486.813C544.644 486.499 545.087 486.066 545.437 485.513C545.787 484.96 546.036 484.297 546.183 483.523C546.349 482.73 546.432 481.845 546.432 480.868V477.717C546.432 476.758 546.349 475.883 546.183 475.09C546.036 474.298 545.787 473.625 545.437 473.072C545.087 472.519 544.644 472.095 544.11 471.8C543.575 471.487 542.921 471.33 542.147 471.33C541.373 471.33 540.718 471.487 540.184 471.8C539.649 472.095 539.207 472.519 538.857 473.072C538.507 473.625 538.249 474.298 538.083 475.09C537.935 475.883 537.861 476.758 537.861 477.717V480.868C537.861 481.845 537.935 482.73 538.083 483.523C538.249 484.297 538.507 484.96 538.857 485.513C539.207 486.066 539.649 486.499 540.184 486.813C540.718 487.107 541.373 487.255 542.147 487.255ZM555.6 485.181H559.167L555.987 492.84H554.135L555.6 485.181ZM615.993 489.273C613.634 489.273 611.874 488.416 610.713 486.702C609.57 484.988 608.999 482.518 608.999 479.293C608.999 476.067 609.57 473.597 610.713 471.883C611.874 470.169 613.634 469.312 615.993 469.312C616.878 469.312 617.643 469.432 618.288 469.671C618.933 469.911 619.486 470.234 619.947 470.639C620.408 471.045 620.795 471.505 621.108 472.021C621.421 472.519 621.698 473.026 621.937 473.542L619.947 474.454C619.781 474.03 619.587 473.634 619.366 473.266C619.145 472.878 618.878 472.547 618.565 472.27C618.27 471.975 617.91 471.745 617.486 471.579C617.081 471.413 616.583 471.33 615.993 471.33C614.464 471.33 613.321 471.911 612.565 473.072C611.828 474.233 611.459 475.781 611.459 477.717V480.868C611.459 482.804 611.828 484.352 612.565 485.513C613.321 486.674 614.464 487.255 615.993 487.255C616.583 487.255 617.081 487.172 617.486 487.006C617.91 486.84 618.27 486.619 618.565 486.343C618.878 486.048 619.145 485.716 619.366 485.347C619.587 484.96 619.781 484.555 619.947 484.131L621.937 485.043C621.698 485.578 621.421 486.094 621.108 486.591C620.795 487.089 620.408 487.541 619.947 487.946C619.486 488.352 618.933 488.674 618.288 488.914C617.643 489.153 616.878 489.273 615.993 489.273ZM635.004 488.941L633.373 483.44H626.599L624.968 488.941H622.563L628.479 469.644H631.548L637.464 488.941H635.004ZM630.11 472.104H629.861L627.152 481.421H632.82L630.11 472.104ZM665.809 476.721C665.809 478.159 665.587 479.514 665.145 480.786C664.721 482.039 664.168 483.191 663.486 484.241C662.804 485.274 662.049 486.195 661.219 487.006C660.408 487.799 659.606 488.444 658.814 488.941H655.828C656.879 488.186 657.809 487.448 658.62 486.73C659.45 486.011 660.178 485.264 660.804 484.49C661.431 483.698 661.956 482.859 662.38 481.974C662.804 481.071 663.154 480.057 663.431 478.933L663.293 478.878C662.814 479.67 662.196 480.334 661.44 480.868C660.703 481.385 659.735 481.643 658.537 481.643C657.69 481.643 656.906 481.504 656.187 481.228C655.487 480.951 654.879 480.555 654.363 480.039C653.865 479.523 653.469 478.906 653.174 478.187C652.897 477.449 652.759 476.62 652.759 475.698C652.759 474.758 652.907 473.901 653.202 473.127C653.515 472.335 653.957 471.662 654.529 471.109C655.1 470.538 655.782 470.095 656.574 469.782C657.385 469.469 658.279 469.312 659.256 469.312C660.27 469.312 661.182 469.487 661.993 469.837C662.804 470.169 663.486 470.657 664.039 471.303C664.611 471.929 665.044 472.703 665.339 473.625C665.652 474.547 665.809 475.579 665.809 476.721ZM659.284 479.735C660.611 479.735 661.634 479.376 662.353 478.657C663.09 477.938 663.459 476.924 663.459 475.616V475.394C663.459 474.086 663.09 473.072 662.353 472.353C661.634 471.634 660.611 471.275 659.284 471.275C657.957 471.275 656.925 471.634 656.187 472.353C655.469 473.072 655.109 474.086 655.109 475.394V475.616C655.109 476.924 655.469 477.938 656.187 478.657C656.925 479.376 657.957 479.735 659.284 479.735ZM676.083 488.941V485.154H666.572V483.108L674.921 469.644H678.294V483.246H681.17V485.154H678.294V488.941H676.083ZM668.645 483.246H676.083V471.441H675.972L668.645 483.246ZM682.624 488.941V486.923H688.153V471.358H687.96L683.094 475.892L681.739 474.427L686.854 469.644H690.476V486.923H695.563V488.941H682.624ZM703.21 489.273C702.031 489.273 701.017 489.052 700.169 488.61C699.321 488.149 698.621 487.495 698.068 486.647C697.515 485.799 697.11 484.757 696.851 483.523C696.593 482.288 696.464 480.878 696.464 479.293C696.464 477.726 696.593 476.325 696.851 475.09C697.11 473.837 697.515 472.786 698.068 471.938C698.621 471.091 699.321 470.446 700.169 470.003C701.017 469.542 702.031 469.312 703.21 469.312C704.39 469.312 705.404 469.542 706.251 470.003C707.099 470.446 707.8 471.091 708.353 471.938C708.906 472.786 709.311 473.837 709.569 475.09C709.827 476.325 709.956 477.726 709.956 479.293C709.956 480.878 709.827 482.288 709.569 483.523C709.311 484.757 708.906 485.799 708.353 486.647C707.8 487.495 707.099 488.149 706.251 488.61C705.404 489.052 704.39 489.273 703.21 489.273ZM703.21 487.255C703.984 487.255 704.648 487.107 705.201 486.813C705.754 486.499 706.196 486.066 706.528 485.513C706.878 484.96 707.136 484.297 707.302 483.523C707.468 482.73 707.551 481.845 707.551 480.868V477.717C707.551 476.758 707.468 475.883 707.302 475.09C707.136 474.298 706.878 473.625 706.528 473.072C706.196 472.519 705.754 472.095 705.201 471.8C704.648 471.487 703.984 471.33 703.21 471.33C702.436 471.33 701.773 471.487 701.22 471.8C700.667 472.095 700.215 472.519 699.865 473.072C699.533 473.625 699.284 474.298 699.119 475.09C698.953 475.883 698.87 476.758 698.87 477.717V480.868C698.87 481.845 698.953 482.73 699.119 483.523C699.284 484.297 699.533 484.96 699.865 485.513C700.215 486.066 700.667 486.499 701.22 486.813C701.773 487.107 702.436 487.255 703.21 487.255ZM703.21 480.924C702.565 480.924 702.114 480.795 701.856 480.537C701.616 480.279 701.496 479.965 701.496 479.597V478.988C701.496 478.62 701.616 478.307 701.856 478.048C702.114 477.79 702.565 477.661 703.21 477.661C703.855 477.661 704.298 477.79 704.537 478.048C704.795 478.307 704.924 478.62 704.924 478.988V479.597C704.924 479.965 704.795 480.279 704.537 480.537C704.298 480.795 703.855 480.924 703.21 480.924ZM717.023 477.827C718.369 477.827 719.373 477.532 720.037 476.943C720.719 476.334 721.06 475.56 721.06 474.62V474.427C721.06 473.395 720.728 472.62 720.064 472.104C719.419 471.588 718.571 471.33 717.521 471.33C716.489 471.33 715.65 471.561 715.005 472.021C714.378 472.464 713.862 473.054 713.457 473.791L711.715 472.464C711.954 472.077 712.249 471.699 712.6 471.33C712.95 470.943 713.355 470.602 713.816 470.307C714.295 470.012 714.839 469.773 715.447 469.588C716.074 469.404 716.783 469.312 717.576 469.312C718.405 469.312 719.18 469.423 719.898 469.644C720.617 469.847 721.244 470.16 721.778 470.584C722.313 470.989 722.728 471.496 723.022 472.104C723.336 472.713 723.492 473.404 723.492 474.178C723.492 474.805 723.391 475.367 723.188 475.864C723.004 476.362 722.737 476.795 722.387 477.164C722.055 477.532 721.659 477.846 721.198 478.104C720.737 478.362 720.249 478.555 719.732 478.684V478.795C720.267 478.906 720.783 479.09 721.281 479.348C721.778 479.587 722.221 479.91 722.608 480.316C722.995 480.703 723.299 481.182 723.52 481.753C723.76 482.306 723.88 482.942 723.88 483.661C723.88 484.49 723.714 485.255 723.382 485.956C723.069 486.637 722.617 487.227 722.027 487.725C721.456 488.204 720.755 488.582 719.926 488.858C719.115 489.135 718.212 489.273 717.217 489.273C716.369 489.273 715.613 489.181 714.95 488.997C714.304 488.812 713.724 488.564 713.208 488.25C712.71 487.937 712.268 487.587 711.881 487.2C711.512 486.813 711.18 486.407 710.885 485.983L712.627 484.656C712.885 485.043 713.152 485.393 713.429 485.707C713.705 486.02 714.019 486.297 714.369 486.536C714.738 486.757 715.152 486.932 715.613 487.061C716.074 487.19 716.608 487.255 717.217 487.255C718.581 487.255 719.622 486.942 720.341 486.315C721.078 485.688 721.447 484.794 721.447 483.633V483.412C721.447 482.269 721.087 481.385 720.368 480.758C719.668 480.131 718.608 479.818 717.189 479.818H714.894V477.827H717.023Z" fill="#FFFAEE"/>
<path d="M479.93 522.45C477.571 522.45 475.811 521.593 474.649 519.879C473.507 518.165 472.935 515.695 472.935 512.469C472.935 509.244 473.507 506.774 474.649 505.06C475.811 503.346 477.571 502.489 479.93 502.489C480.815 502.489 481.58 502.609 482.225 502.848C482.87 503.088 483.423 503.41 483.884 503.816C484.344 504.221 484.731 504.682 485.045 505.198C485.358 505.696 485.635 506.203 485.874 506.719L483.884 507.631C483.718 507.207 483.524 506.811 483.303 506.442C483.082 506.055 482.815 505.723 482.501 505.447C482.206 505.152 481.847 504.922 481.423 504.756C481.017 504.59 480.52 504.507 479.93 504.507C478.4 504.507 477.257 505.088 476.502 506.249C475.765 507.41 475.396 508.958 475.396 510.893V514.045C475.396 515.981 475.765 517.529 476.502 518.69C477.257 519.851 478.4 520.432 479.93 520.432C480.52 520.432 481.017 520.349 481.423 520.183C481.847 520.017 482.206 519.796 482.501 519.519C482.815 519.224 483.082 518.893 483.303 518.524C483.524 518.137 483.718 517.731 483.884 517.308L485.874 518.22C485.635 518.754 485.358 519.271 485.045 519.768C484.731 520.266 484.344 520.717 483.884 521.123C483.423 521.528 482.87 521.851 482.225 522.091C481.58 522.33 480.815 522.45 479.93 522.45ZM498.94 522.118L497.309 516.616H490.536L488.904 522.118H486.499L492.416 502.821H495.484L501.401 522.118H498.94ZM494.047 505.281H493.798L491.089 514.598H496.756L494.047 505.281ZM525.571 514.875V512.552H533.588V514.875H525.571ZM567.821 502.821V514.405C567.821 515.345 567.849 516.183 567.904 516.921C567.96 517.658 568.107 518.294 568.347 518.828C568.586 519.344 568.955 519.741 569.452 520.017C569.969 520.293 570.678 520.432 571.581 520.432C572.484 520.432 573.185 520.293 573.682 520.017C574.199 519.741 574.576 519.344 574.816 518.828C575.056 518.294 575.203 517.658 575.258 516.921C575.314 516.183 575.341 515.345 575.341 514.405V502.821H577.664V513.852C577.664 515.289 577.59 516.543 577.442 517.612C577.313 518.681 577.028 519.575 576.585 520.293C576.161 521.012 575.544 521.556 574.733 521.925C573.941 522.275 572.89 522.45 571.581 522.45C570.273 522.45 569.213 522.275 568.402 521.925C567.609 521.556 566.992 521.012 566.55 520.293C566.126 519.575 565.84 518.681 565.692 517.612C565.563 516.543 565.499 515.289 565.499 513.852V502.821H567.821ZM586.168 522.45C584.436 522.45 583.016 522.137 581.91 521.51C580.805 520.865 579.892 520.045 579.173 519.049L580.86 517.667C581.616 518.607 582.408 519.307 583.238 519.768C584.085 520.229 585.09 520.459 586.251 520.459C587.652 520.459 588.721 520.137 589.458 519.492C590.195 518.847 590.564 517.943 590.564 516.782C590.564 515.842 590.297 515.114 589.762 514.598C589.228 514.064 588.297 513.686 586.97 513.465L584.813 513.105C583.873 512.939 583.081 512.691 582.436 512.359C581.809 512.027 581.302 511.631 580.915 511.17C580.528 510.691 580.252 510.175 580.086 509.622C579.92 509.05 579.837 508.461 579.837 507.852C579.837 506.083 580.418 504.747 581.579 503.843C582.74 502.94 584.307 502.489 586.279 502.489C587.827 502.489 589.126 502.747 590.177 503.263C591.246 503.779 592.103 504.507 592.748 505.447L591.117 506.857C590.582 506.157 589.937 505.585 589.182 505.143C588.426 504.701 587.449 504.479 586.251 504.479C584.942 504.479 583.938 504.756 583.238 505.309C582.537 505.862 582.187 506.691 582.187 507.797C582.187 508.663 582.445 509.373 582.961 509.926C583.496 510.46 584.445 510.847 585.809 511.087L587.882 511.446C588.822 511.612 589.615 511.861 590.26 512.193C590.905 512.525 591.421 512.921 591.808 513.382C592.214 513.842 592.499 514.359 592.665 514.93C592.831 515.501 592.914 516.1 592.914 516.727C592.914 518.515 592.324 519.916 591.145 520.929C589.983 521.943 588.325 522.45 586.168 522.45ZM605.87 522.118L604.239 516.616H597.465L595.834 522.118H593.429L599.345 502.821H602.414L608.33 522.118H605.87ZM600.976 505.281H600.727L598.018 514.598H603.686L600.976 505.281Z" fill="#FFFAEE"/>
<path d="M365.833 519.118V515.331H356.322V513.285L364.672 499.821H368.045V513.423H370.92V515.331H368.045V519.118H365.833ZM358.396 513.423H365.833V501.618H365.722L358.396 513.423ZM357.732 548.118V546.1H363.262V530.535H363.068L358.202 535.069L356.848 533.603L361.962 528.821H365.584V546.1H370.671V548.118H357.732ZM369.234 559.839H360.608L360.055 567.221H360.248C360.727 566.575 361.262 566.069 361.852 565.7C362.442 565.313 363.253 565.119 364.285 565.119C365.133 565.119 365.907 565.258 366.607 565.534C367.326 565.792 367.943 566.179 368.459 566.695C368.975 567.211 369.381 567.838 369.676 568.575C369.971 569.294 370.118 570.123 370.118 571.063C370.118 572.003 369.971 572.87 369.676 573.662C369.381 574.436 368.948 575.109 368.376 575.681C367.805 576.233 367.114 576.667 366.303 576.98C365.492 577.293 364.57 577.45 363.538 577.45C362.727 577.45 361.999 577.358 361.354 577.173C360.727 576.989 360.165 576.74 359.668 576.427C359.188 576.114 358.764 575.763 358.396 575.376C358.027 574.989 357.695 574.584 357.401 574.16L359.142 572.833C359.4 573.22 359.658 573.57 359.916 573.883C360.193 574.197 360.506 574.473 360.856 574.713C361.207 574.934 361.603 575.109 362.045 575.238C362.488 575.367 363.004 575.432 363.594 575.432C364.921 575.432 365.934 575.072 366.635 574.353C367.354 573.635 367.713 572.639 367.713 571.368V571.146C367.713 569.875 367.354 568.879 366.635 568.161C365.916 567.442 364.884 567.082 363.538 567.082C362.617 567.082 361.898 567.239 361.382 567.552C360.884 567.866 360.423 568.253 359.999 568.713L358.036 568.437L358.728 557.821H369.234V559.839Z" fill="#FFFAEE"/>
<path d="M721.098 519.118V515.331H711.587V513.285L719.936 499.821H723.309V513.423H726.185V515.331H723.309V519.118H721.098ZM713.661 513.423H721.098V501.618H720.987L713.661 513.423ZM712.997 548.118V546.1H718.526V530.535H718.333L713.467 535.069L712.112 533.603L717.227 528.821H720.849V546.1H725.936V548.118H712.997ZM724.498 559.839H715.872L715.319 567.221H715.513C715.992 566.575 716.527 566.069 717.116 565.7C717.706 565.313 718.517 565.119 719.549 565.119C720.397 565.119 721.171 565.258 721.872 565.534C722.591 565.792 723.208 566.179 723.724 566.695C724.24 567.211 724.646 567.838 724.941 568.575C725.235 569.294 725.383 570.123 725.383 571.063C725.383 572.003 725.235 572.87 724.941 573.662C724.646 574.436 724.212 575.109 723.641 575.681C723.07 576.233 722.379 576.667 721.568 576.98C720.757 577.293 719.835 577.45 718.803 577.45C717.992 577.45 717.264 577.358 716.619 577.173C715.992 576.989 715.43 576.74 714.932 576.427C714.453 576.114 714.029 575.763 713.661 575.376C713.292 574.989 712.96 574.584 712.665 574.16L714.407 572.833C714.665 573.22 714.923 573.57 715.181 573.883C715.458 574.197 715.771 574.473 716.121 574.713C716.471 574.934 716.868 575.109 717.31 575.238C717.752 575.367 718.268 575.432 718.858 575.432C720.185 575.432 721.199 575.072 721.899 574.353C722.618 573.635 722.978 572.639 722.978 571.368V571.146C722.978 569.875 722.618 568.879 721.899 568.161C721.181 567.442 720.148 567.082 718.803 567.082C717.881 567.082 717.162 567.239 716.646 567.552C716.149 567.866 715.688 568.253 715.264 568.713L713.301 568.437L713.992 557.821H724.498V559.839Z" fill="#FFFAEE"/>
<path d="M380.582 603.344V597.566H375.053V595.686H380.582V589.908H382.684V595.686H388.213V597.566H382.684V603.344H380.582ZM404.973 605.059V603.04H410.503V587.475H410.309L405.443 592.009L404.088 590.544L409.203 585.761H412.825V603.04H417.912V605.059H404.973ZM471.642 605.059V601.271H462.132V599.225L470.481 585.761H473.854V599.363H476.729V601.271H473.854V605.059H471.642ZM464.205 599.363H471.642V587.558H471.532L464.205 599.363ZM478.184 605.059V603.04H483.713V587.475H483.52L478.654 592.009L477.299 590.544L482.414 585.761H486.036V603.04H491.123V605.059H478.184ZM504.327 587.779H495.701L495.148 595.161H495.342C495.821 594.516 496.356 594.009 496.945 593.64C497.535 593.253 498.346 593.06 499.378 593.06C500.226 593.06 501 593.198 501.701 593.474C502.419 593.733 503.037 594.12 503.553 594.636C504.069 595.152 504.475 595.778 504.769 596.516C505.064 597.234 505.212 598.064 505.212 599.004C505.212 599.944 505.064 600.81 504.769 601.603C504.475 602.377 504.041 603.05 503.47 603.621C502.899 604.174 502.208 604.607 501.397 604.92C500.586 605.234 499.664 605.39 498.632 605.39C497.821 605.39 497.093 605.298 496.448 605.114C495.821 604.93 495.259 604.681 494.761 604.367C494.282 604.054 493.858 603.704 493.489 603.317C493.121 602.93 492.789 602.524 492.494 602.1L494.236 600.773C494.494 601.16 494.752 601.511 495.01 601.824C495.287 602.137 495.6 602.414 495.95 602.653C496.3 602.874 496.697 603.05 497.139 603.179C497.581 603.308 498.097 603.372 498.687 603.372C500.014 603.372 501.028 603.013 501.728 602.294C502.447 601.575 502.807 600.58 502.807 599.308V599.087C502.807 597.815 502.447 596.82 501.728 596.101C501.009 595.382 499.977 595.023 498.632 595.023C497.71 595.023 496.991 595.179 496.475 595.493C495.978 595.806 495.517 596.193 495.093 596.654L493.13 596.377L493.821 585.761H504.327V587.779ZM571.151 593.944C572.497 593.944 573.501 593.65 574.165 593.06C574.847 592.452 575.188 591.677 575.188 590.737V590.544C575.188 589.512 574.856 588.738 574.193 588.222C573.547 587.705 572.7 587.447 571.649 587.447C570.617 587.447 569.778 587.678 569.133 588.139C568.506 588.581 567.99 589.171 567.585 589.908L565.843 588.581C566.083 588.194 566.378 587.816 566.728 587.447C567.078 587.06 567.484 586.719 567.944 586.424C568.424 586.13 568.967 585.89 569.575 585.706C570.202 585.521 570.912 585.429 571.704 585.429C572.534 585.429 573.308 585.54 574.027 585.761C574.745 585.964 575.372 586.277 575.907 586.701C576.441 587.106 576.856 587.613 577.151 588.222C577.464 588.83 577.621 589.521 577.621 590.295C577.621 590.922 577.519 591.484 577.317 591.982C577.132 592.479 576.865 592.912 576.515 593.281C576.183 593.65 575.787 593.963 575.326 594.221C574.865 594.479 574.377 594.673 573.861 594.802V594.912C574.395 595.023 574.911 595.207 575.409 595.465C575.907 595.705 576.349 596.027 576.736 596.433C577.123 596.82 577.427 597.299 577.648 597.87C577.888 598.423 578.008 599.059 578.008 599.778C578.008 600.607 577.842 601.372 577.51 602.073C577.197 602.755 576.745 603.344 576.155 603.842C575.584 604.321 574.884 604.699 574.054 604.976C573.243 605.252 572.34 605.39 571.345 605.39C570.497 605.39 569.741 605.298 569.078 605.114C568.433 604.93 567.852 604.681 567.336 604.367C566.838 604.054 566.396 603.704 566.009 603.317C565.64 602.93 565.309 602.524 565.014 602.1L566.755 600.773C567.014 601.16 567.281 601.511 567.557 601.824C567.834 602.137 568.147 602.414 568.497 602.653C568.866 602.874 569.281 603.05 569.741 603.179C570.202 603.308 570.737 603.372 571.345 603.372C572.709 603.372 573.75 603.059 574.469 602.432C575.206 601.805 575.575 600.912 575.575 599.75V599.529C575.575 598.386 575.215 597.502 574.497 596.875C573.796 596.248 572.736 595.935 571.317 595.935H569.023V593.944H571.151ZM592.18 587.779H583.554L583.001 595.161H583.195C583.674 594.516 584.208 594.009 584.798 593.64C585.388 593.253 586.199 593.06 587.231 593.06C588.079 593.06 588.853 593.198 589.553 593.474C590.272 593.733 590.89 594.12 591.406 594.636C591.922 595.152 592.327 595.778 592.622 596.516C592.917 597.234 593.065 598.064 593.065 599.004C593.065 599.944 592.917 600.81 592.622 601.603C592.327 602.377 591.894 603.05 591.323 603.621C590.752 604.174 590.06 604.607 589.249 604.92C588.438 605.234 587.517 605.39 586.485 605.39C585.674 605.39 584.946 605.298 584.301 605.114C583.674 604.93 583.112 604.681 582.614 604.367C582.135 604.054 581.711 603.704 581.342 603.317C580.974 602.93 580.642 602.524 580.347 602.1L582.089 600.773C582.347 601.16 582.605 601.511 582.863 601.824C583.139 602.137 583.453 602.414 583.803 602.653C584.153 602.874 584.549 603.05 584.992 603.179C585.434 603.308 585.95 603.372 586.54 603.372C587.867 603.372 588.881 603.013 589.581 602.294C590.3 601.575 590.659 600.58 590.659 599.308V599.087C590.659 597.815 590.3 596.82 589.581 596.101C588.862 595.382 587.83 595.023 586.485 595.023C585.563 595.023 584.844 595.179 584.328 595.493C583.831 595.806 583.37 596.193 582.946 596.654L580.983 596.377L581.674 585.761H592.18V587.779ZM597.754 605.059L605.302 587.752H596.842V591.346H594.768V585.761H607.652V587.807L600.242 605.059H597.754ZM661.99 605.059V601.271H652.479V599.225L660.829 585.761H664.202V599.363H667.077V601.271H664.202V605.059H661.99ZM654.553 599.363H661.99V587.558H661.879L654.553 599.363ZM674.476 605.39C673.296 605.39 672.282 605.169 671.435 604.727C670.587 604.266 669.886 603.612 669.333 602.764C668.78 601.916 668.375 600.875 668.117 599.64C667.859 598.405 667.73 596.995 667.73 595.41C667.73 593.843 667.859 592.442 668.117 591.207C668.375 589.954 668.78 588.903 669.333 588.056C669.886 587.208 670.587 586.563 671.435 586.12C672.282 585.66 673.296 585.429 674.476 585.429C675.655 585.429 676.669 585.66 677.517 586.12C678.365 586.563 679.065 587.208 679.618 588.056C680.171 588.903 680.577 589.954 680.835 591.207C681.093 592.442 681.222 593.843 681.222 595.41C681.222 596.995 681.093 598.405 680.835 599.64C680.577 600.875 680.171 601.916 679.618 602.764C679.065 603.612 678.365 604.266 677.517 604.727C676.669 605.169 675.655 605.39 674.476 605.39ZM674.476 603.372C675.25 603.372 675.913 603.225 676.466 602.93C677.019 602.616 677.462 602.183 677.793 601.63C678.144 601.077 678.402 600.414 678.568 599.64C678.733 598.847 678.816 597.963 678.816 596.986V593.834C678.816 592.875 678.733 592 678.568 591.207C678.402 590.415 678.144 589.742 677.793 589.189C677.462 588.636 677.019 588.212 676.466 587.917C675.913 587.604 675.25 587.447 674.476 587.447C673.702 587.447 673.038 587.604 672.485 587.917C671.932 588.212 671.481 588.636 671.13 589.189C670.799 589.742 670.55 590.415 670.384 591.207C670.218 592 670.135 592.875 670.135 593.834V596.986C670.135 597.963 670.218 598.847 670.384 599.64C670.55 600.414 670.799 601.077 671.13 601.63C671.481 602.183 671.932 602.616 672.485 602.93C673.038 603.225 673.702 603.372 674.476 603.372ZM674.476 597.041C673.831 597.041 673.379 596.912 673.121 596.654C672.881 596.396 672.762 596.083 672.762 595.714V595.106C672.762 594.737 672.881 594.424 673.121 594.166C673.379 593.908 673.831 593.779 674.476 593.779C675.121 593.779 675.563 593.908 675.803 594.166C676.061 594.424 676.19 594.737 676.19 595.106V595.714C676.19 596.083 676.061 596.396 675.803 596.654C675.563 596.912 675.121 597.041 674.476 597.041ZM689.118 605.39C687.938 605.39 686.925 605.169 686.077 604.727C685.229 604.266 684.528 603.612 683.976 602.764C683.423 601.916 683.017 600.875 682.759 599.64C682.501 598.405 682.372 596.995 682.372 595.41C682.372 593.843 682.501 592.442 682.759 591.207C683.017 589.954 683.423 588.903 683.976 588.056C684.528 587.208 685.229 586.563 686.077 586.12C686.925 585.66 687.938 585.429 689.118 585.429C690.298 585.429 691.311 585.66 692.159 586.12C693.007 586.563 693.707 587.208 694.26 588.056C694.813 588.903 695.219 589.954 695.477 591.207C695.735 592.442 695.864 593.843 695.864 595.41C695.864 596.995 695.735 598.405 695.477 599.64C695.219 600.875 694.813 601.916 694.26 602.764C693.707 603.612 693.007 604.266 692.159 604.727C691.311 605.169 690.298 605.39 689.118 605.39ZM689.118 603.372C689.892 603.372 690.556 603.225 691.108 602.93C691.661 602.616 692.104 602.183 692.436 601.63C692.786 601.077 693.044 600.414 693.21 599.64C693.376 598.847 693.458 597.963 693.458 596.986V593.834C693.458 592.875 693.376 592 693.21 591.207C693.044 590.415 692.786 589.742 692.436 589.189C692.104 588.636 691.661 588.212 691.108 587.917C690.556 587.604 689.892 587.447 689.118 587.447C688.344 587.447 687.68 587.604 687.127 587.917C686.574 588.212 686.123 588.636 685.773 589.189C685.441 589.742 685.192 590.415 685.026 591.207C684.86 592 684.777 592.875 684.777 593.834V596.986C684.777 597.963 684.86 598.847 685.026 599.64C685.192 600.414 685.441 601.077 685.773 601.63C686.123 602.183 686.574 602.616 687.127 602.93C687.68 603.225 688.344 603.372 689.118 603.372ZM689.118 597.041C688.473 597.041 688.021 596.912 687.763 596.654C687.524 596.396 687.404 596.083 687.404 595.714V595.106C687.404 594.737 687.524 594.424 687.763 594.166C688.021 593.908 688.473 593.779 689.118 593.779C689.763 593.779 690.205 593.908 690.445 594.166C690.703 594.424 690.832 594.737 690.832 595.106V595.714C690.832 596.083 690.703 596.396 690.445 596.654C690.205 596.912 689.763 597.041 689.118 597.041ZM703.76 605.39C702.58 605.39 701.567 605.169 700.719 604.727C699.871 604.266 699.171 603.612 698.618 602.764C698.065 601.916 697.659 600.875 697.401 599.64C697.143 598.405 697.014 596.995 697.014 595.41C697.014 593.843 697.143 592.442 697.401 591.207C697.659 589.954 698.065 588.903 698.618 588.056C699.171 587.208 699.871 586.563 700.719 586.12C701.567 585.66 702.58 585.429 703.76 585.429C704.94 585.429 705.953 585.66 706.801 586.12C707.649 586.563 708.349 587.208 708.902 588.056C709.455 588.903 709.861 589.954 710.119 591.207C710.377 592.442 710.506 593.843 710.506 595.41C710.506 596.995 710.377 598.405 710.119 599.64C709.861 600.875 709.455 601.916 708.902 602.764C708.349 603.612 707.649 604.266 706.801 604.727C705.953 605.169 704.94 605.39 703.76 605.39ZM703.76 603.372C704.534 603.372 705.198 603.225 705.751 602.93C706.304 602.616 706.746 602.183 707.078 601.63C707.428 601.077 707.686 600.414 707.852 599.64C708.018 598.847 708.101 597.963 708.101 596.986V593.834C708.101 592.875 708.018 592 707.852 591.207C707.686 590.415 707.428 589.742 707.078 589.189C706.746 588.636 706.304 588.212 705.751 587.917C705.198 587.604 704.534 587.447 703.76 587.447C702.986 587.447 702.322 587.604 701.769 587.917C701.216 588.212 700.765 588.636 700.415 589.189C700.083 589.742 699.834 590.415 699.668 591.207C699.502 592 699.419 592.875 699.419 593.834V596.986C699.419 597.963 699.502 598.847 699.668 599.64C699.834 600.414 700.083 601.077 700.415 601.63C700.765 602.183 701.216 602.616 701.769 602.93C702.322 603.225 702.986 603.372 703.76 603.372ZM703.76 597.041C703.115 597.041 702.663 596.912 702.405 596.654C702.166 596.396 702.046 596.083 702.046 595.714V595.106C702.046 594.737 702.166 594.424 702.405 594.166C702.663 593.908 703.115 593.779 703.76 593.779C704.405 593.779 704.847 593.908 705.087 594.166C705.345 594.424 705.474 594.737 705.474 595.106V595.714C705.474 596.083 705.345 596.396 705.087 596.654C704.847 596.912 704.405 597.041 703.76 597.041ZM476.752 641.39C475.019 641.39 473.6 641.077 472.494 640.45C471.388 639.805 470.476 638.985 469.757 637.99L471.443 636.607C472.199 637.547 472.992 638.248 473.821 638.709C474.669 639.169 475.673 639.4 476.834 639.4C478.235 639.4 479.304 639.077 480.042 638.432C480.779 637.787 481.147 636.884 481.147 635.723C481.147 634.783 480.88 634.055 480.346 633.539C479.811 633.004 478.88 632.626 477.553 632.405L475.397 632.046C474.457 631.88 473.664 631.631 473.019 631.299C472.393 630.967 471.886 630.571 471.499 630.11C471.112 629.631 470.835 629.115 470.669 628.562C470.503 627.991 470.42 627.401 470.42 626.793C470.42 625.023 471.001 623.687 472.162 622.784C473.323 621.881 474.89 621.429 476.862 621.429C478.41 621.429 479.71 621.687 480.76 622.203C481.829 622.719 482.686 623.447 483.332 624.387L481.7 625.797C481.166 625.097 480.521 624.526 479.765 624.083C479.009 623.641 478.033 623.42 476.834 623.42C475.526 623.42 474.521 623.696 473.821 624.249C473.121 624.802 472.77 625.632 472.77 626.737C472.77 627.604 473.028 628.313 473.544 628.866C474.079 629.401 475.028 629.788 476.392 630.027L478.466 630.387C479.406 630.553 480.198 630.802 480.843 631.133C481.488 631.465 482.004 631.861 482.392 632.322C482.797 632.783 483.083 633.299 483.249 633.87C483.414 634.442 483.497 635.041 483.497 635.667C483.497 637.455 482.908 638.856 481.728 639.87C480.567 640.883 478.908 641.39 476.752 641.39ZM485.643 641.059V621.761H497.808V623.779H487.965V630.276H496.978V632.294H487.965V641.059H485.643ZM510.376 631.382V625.272H510.155L506.091 635.197L502.027 625.272H501.806V631.382V641.059H499.677V621.761H502.663L506.063 630.276H506.229L509.63 621.761H512.505V641.059H510.376V631.382ZM520.733 641.39C519.554 641.39 518.54 641.169 517.692 640.727C516.844 640.266 516.144 639.612 515.591 638.764C515.038 637.916 514.632 636.875 514.374 635.64C514.116 634.405 513.987 632.995 513.987 631.41C513.987 629.843 514.116 628.442 514.374 627.207C514.632 625.954 515.038 624.903 515.591 624.056C516.144 623.208 516.844 622.563 517.692 622.12C518.54 621.66 519.554 621.429 520.733 621.429C521.913 621.429 522.927 621.66 523.774 622.12C524.622 622.563 525.323 623.208 525.876 624.056C526.429 624.903 526.834 625.954 527.092 627.207C527.35 628.442 527.479 629.843 527.479 631.41C527.479 632.995 527.35 634.405 527.092 635.64C526.834 636.875 526.429 637.916 525.876 638.764C525.323 639.612 524.622 640.266 523.774 640.727C522.927 641.169 521.913 641.39 520.733 641.39ZM520.733 639.372C521.507 639.372 522.162 639.225 522.696 638.93C523.231 638.616 523.673 638.183 524.023 637.63C524.373 637.077 524.622 636.414 524.77 635.64C524.936 634.847 525.019 633.963 525.019 632.986V629.834C525.019 628.875 524.936 628 524.77 627.207C524.622 626.415 524.373 625.742 524.023 625.189C523.673 624.636 523.231 624.212 522.696 623.917C522.162 623.604 521.507 623.447 520.733 623.447C519.959 623.447 519.305 623.604 518.77 623.917C518.236 624.212 517.793 624.636 517.443 625.189C517.093 625.742 516.835 626.415 516.669 627.207C516.522 628 516.448 628.875 516.448 629.834V632.986C516.448 633.963 516.522 634.847 516.669 635.64C516.835 636.414 517.093 637.077 517.443 637.63C517.793 638.183 518.236 638.616 518.77 638.93C519.305 639.225 519.959 639.372 520.733 639.372ZM539.661 631.382V625.272H539.44L535.375 635.197L531.311 625.272H531.09V631.382V641.059H528.961V621.761H531.947L535.348 630.276H535.514L538.914 621.761H541.79V641.059H539.661V631.382ZM555.022 641.059L553.39 635.557H546.617L544.986 641.059H542.58L548.497 621.761H551.566L557.482 641.059H555.022ZM550.128 624.222H549.879L547.17 633.539H552.838L550.128 624.222ZM564.66 641.307C563.904 641.307 563.369 641.151 563.056 640.837C562.761 640.524 562.614 640.128 562.614 639.649V639.151C562.614 638.672 562.761 638.275 563.056 637.962C563.369 637.649 563.904 637.492 564.66 637.492C565.415 637.492 565.941 637.649 566.236 637.962C566.549 638.275 566.706 638.672 566.706 639.151V639.649C566.706 640.128 566.549 640.524 566.236 640.837C565.941 641.151 565.415 641.307 564.66 641.307ZM579.938 641.39C577.579 641.39 575.818 640.533 574.657 638.819C573.514 637.105 572.943 634.635 572.943 631.41C572.943 628.184 573.514 625.714 574.657 624C575.818 622.286 577.579 621.429 579.938 621.429C580.822 621.429 581.587 621.549 582.232 621.789C582.878 622.028 583.43 622.351 583.891 622.756C584.352 623.162 584.739 623.623 585.052 624.139C585.366 624.636 585.642 625.143 585.882 625.659L583.891 626.572C583.725 626.148 583.532 625.751 583.311 625.383C583.089 624.996 582.822 624.664 582.509 624.387C582.214 624.093 581.855 623.862 581.431 623.696C581.025 623.53 580.528 623.447 579.938 623.447C578.408 623.447 577.265 624.028 576.509 625.189C575.772 626.35 575.404 627.899 575.404 629.834V632.986C575.404 634.921 575.772 636.469 576.509 637.63C577.265 638.792 578.408 639.372 579.938 639.372C580.528 639.372 581.025 639.289 581.431 639.123C581.855 638.957 582.214 638.736 582.509 638.46C582.822 638.165 583.089 637.833 583.311 637.464C583.532 637.077 583.725 636.672 583.891 636.248L585.882 637.16C585.642 637.695 585.366 638.211 585.052 638.709C584.739 639.206 584.352 639.658 583.891 640.063C583.43 640.469 582.878 640.791 582.232 641.031C581.587 641.271 580.822 641.39 579.938 641.39ZM593.944 641.39C592.764 641.39 591.751 641.169 590.903 640.727C590.055 640.266 589.355 639.612 588.802 638.764C588.249 637.916 587.843 636.875 587.585 635.64C587.327 634.405 587.198 632.995 587.198 631.41C587.198 629.843 587.327 628.442 587.585 627.207C587.843 625.954 588.249 624.903 588.802 624.056C589.355 623.208 590.055 622.563 590.903 622.12C591.751 621.66 592.764 621.429 593.944 621.429C595.124 621.429 596.137 621.66 596.985 622.12C597.833 622.563 598.533 623.208 599.086 624.056C599.639 624.903 600.045 625.954 600.303 627.207C600.561 628.442 600.69 629.843 600.69 631.41C600.69 632.995 600.561 634.405 600.303 635.64C600.045 636.875 599.639 637.916 599.086 638.764C598.533 639.612 597.833 640.266 596.985 640.727C596.137 641.169 595.124 641.39 593.944 641.39ZM593.944 639.372C594.718 639.372 595.372 639.225 595.907 638.93C596.441 638.616 596.884 638.183 597.234 637.63C597.584 637.077 597.833 636.414 597.98 635.64C598.146 634.847 598.229 633.963 598.229 632.986V629.834C598.229 628.875 598.146 628 597.98 627.207C597.833 626.415 597.584 625.742 597.234 625.189C596.884 624.636 596.441 624.212 595.907 623.917C595.372 623.604 594.718 623.447 593.944 623.447C593.17 623.447 592.516 623.604 591.981 623.917C591.447 624.212 591.004 624.636 590.654 625.189C590.304 625.742 590.046 626.415 589.88 627.207C589.732 628 589.659 628.875 589.659 629.834V632.986C589.659 633.963 589.732 634.847 589.88 635.64C590.046 636.414 590.304 637.077 590.654 637.63C591.004 638.183 591.447 638.616 591.981 638.93C592.516 639.225 593.17 639.372 593.944 639.372ZM612.871 631.382V625.272H612.65L608.586 635.197L604.522 625.272H604.301V631.382V641.059H602.172V621.761H605.158L608.558 630.276H608.724L612.125 621.761H615V641.059H612.871V631.382Z" fill="#FFFAEE"/>
<path d="M316.056 519.332C314.323 519.332 312.904 519.018 311.798 518.392C310.692 517.747 309.78 516.926 309.061 515.931L310.747 514.549C311.503 515.489 312.296 516.189 313.125 516.65C313.973 517.111 314.977 517.341 316.138 517.341C317.539 517.341 318.608 517.019 319.346 516.374C320.083 515.728 320.451 514.825 320.451 513.664C320.451 512.724 320.184 511.996 319.65 511.48C319.115 510.945 318.184 510.568 316.857 510.346L314.701 509.987C313.761 509.821 312.968 509.572 312.323 509.241C311.696 508.909 311.19 508.513 310.803 508.052C310.416 507.573 310.139 507.056 309.973 506.504C309.807 505.932 309.724 505.342 309.724 504.734C309.724 502.965 310.305 501.628 311.466 500.725C312.627 499.822 314.194 499.371 316.166 499.371C317.714 499.371 319.014 499.629 320.064 500.145C321.133 500.661 321.99 501.389 322.636 502.329L321.004 503.739C320.47 503.038 319.825 502.467 319.069 502.025C318.313 501.582 317.336 501.361 316.138 501.361C314.83 501.361 313.825 501.638 313.125 502.191C312.425 502.744 312.074 503.573 312.074 504.679C312.074 505.545 312.332 506.255 312.848 506.808C313.383 507.342 314.332 507.729 315.696 507.969L317.77 508.328C318.71 508.494 319.502 508.743 320.147 509.075C320.792 509.406 321.308 509.803 321.696 510.264C322.101 510.724 322.387 511.24 322.553 511.812C322.718 512.383 322.801 512.982 322.801 513.609C322.801 515.397 322.212 516.797 321.032 517.811C319.871 518.825 318.212 519.332 316.056 519.332ZM330.753 519.332C329.573 519.332 328.56 519.111 327.712 518.668C326.864 518.207 326.164 517.553 325.611 516.705C325.058 515.857 324.652 514.816 324.394 513.581C324.136 512.346 324.007 510.936 324.007 509.351C324.007 507.785 324.136 506.384 324.394 505.149C324.652 503.895 325.058 502.845 325.611 501.997C326.164 501.149 326.864 500.504 327.712 500.062C328.56 499.601 329.573 499.371 330.753 499.371C331.933 499.371 332.946 499.601 333.794 500.062C334.642 500.504 335.342 501.149 335.895 501.997C336.448 502.845 336.854 503.895 337.112 505.149C337.37 506.384 337.499 507.785 337.499 509.351C337.499 510.936 337.37 512.346 337.112 513.581C336.854 514.816 336.448 515.857 335.895 516.705C335.342 517.553 334.642 518.207 333.794 518.668C332.946 519.111 331.933 519.332 330.753 519.332ZM330.753 517.314C331.527 517.314 332.181 517.166 332.716 516.871C333.25 516.558 333.693 516.125 334.043 515.572C334.393 515.019 334.642 514.355 334.789 513.581C334.955 512.789 335.038 511.904 335.038 510.927V507.775C335.038 506.817 334.955 505.941 334.789 505.149C334.642 504.356 334.393 503.684 334.043 503.131C333.693 502.578 333.25 502.154 332.716 501.859C332.181 501.545 331.527 501.389 330.753 501.389C329.979 501.389 329.325 501.545 328.79 501.859C328.255 502.154 327.813 502.578 327.463 503.131C327.113 503.684 326.855 504.356 326.689 505.149C326.541 505.941 326.468 506.817 326.468 507.775V510.927C326.468 511.904 326.541 512.789 326.689 513.581C326.855 514.355 327.113 515.019 327.463 515.572C327.813 516.125 328.255 516.558 328.79 516.871C329.325 517.166 329.979 517.314 330.753 517.314ZM320.396 539.324V533.214H320.175L316.111 543.139L312.047 533.214H311.826V539.324V549H309.697V529.702H312.683L316.083 538.218H316.249L319.65 529.702H322.525V549H320.396V539.324ZM335.757 549L334.126 543.498H327.352L325.721 549H323.316L329.232 529.702H332.301L338.218 549H335.757ZM330.864 532.163H330.615L327.905 541.48H333.573L330.864 532.163Z" fill="#FFFAEE"/>
<path d="M756.056 519.332C754.323 519.332 752.904 519.018 751.798 518.392C750.692 517.747 749.78 516.926 749.061 515.931L750.747 514.549C751.503 515.489 752.296 516.189 753.125 516.65C753.973 517.111 754.977 517.341 756.138 517.341C757.539 517.341 758.608 517.019 759.346 516.374C760.083 515.728 760.451 514.825 760.451 513.664C760.451 512.724 760.184 511.996 759.65 511.48C759.115 510.945 758.184 510.568 756.857 510.346L754.701 509.987C753.761 509.821 752.968 509.572 752.323 509.241C751.696 508.909 751.19 508.513 750.803 508.052C750.416 507.573 750.139 507.056 749.973 506.504C749.807 505.932 749.724 505.342 749.724 504.734C749.724 502.965 750.305 501.628 751.466 500.725C752.627 499.822 754.194 499.371 756.166 499.371C757.714 499.371 759.014 499.629 760.064 500.145C761.133 500.661 761.99 501.389 762.636 502.329L761.004 503.739C760.47 503.038 759.825 502.467 759.069 502.025C758.313 501.582 757.336 501.361 756.138 501.361C754.83 501.361 753.825 501.638 753.125 502.191C752.425 502.744 752.074 503.573 752.074 504.679C752.074 505.545 752.332 506.255 752.848 506.808C753.383 507.342 754.332 507.729 755.696 507.969L757.77 508.328C758.71 508.494 759.502 508.743 760.147 509.075C760.792 509.406 761.308 509.803 761.696 510.264C762.101 510.724 762.387 511.24 762.553 511.812C762.718 512.383 762.801 512.982 762.801 513.609C762.801 515.397 762.212 516.797 761.032 517.811C759.871 518.825 758.212 519.332 756.056 519.332ZM770.753 519.332C769.573 519.332 768.56 519.111 767.712 518.668C766.864 518.207 766.164 517.553 765.611 516.705C765.058 515.857 764.652 514.816 764.394 513.581C764.136 512.346 764.007 510.936 764.007 509.351C764.007 507.785 764.136 506.384 764.394 505.149C764.652 503.895 765.058 502.845 765.611 501.997C766.164 501.149 766.864 500.504 767.712 500.062C768.56 499.601 769.573 499.371 770.753 499.371C771.933 499.371 772.946 499.601 773.794 500.062C774.642 500.504 775.342 501.149 775.895 501.997C776.448 502.845 776.854 503.895 777.112 505.149C777.37 506.384 777.499 507.785 777.499 509.351C777.499 510.936 777.37 512.346 777.112 513.581C776.854 514.816 776.448 515.857 775.895 516.705C775.342 517.553 774.642 518.207 773.794 518.668C772.946 519.111 771.933 519.332 770.753 519.332ZM770.753 517.314C771.527 517.314 772.181 517.166 772.716 516.871C773.25 516.558 773.693 516.125 774.043 515.572C774.393 515.019 774.642 514.355 774.789 513.581C774.955 512.789 775.038 511.904 775.038 510.927V507.775C775.038 506.817 774.955 505.941 774.789 505.149C774.642 504.356 774.393 503.684 774.043 503.131C773.693 502.578 773.25 502.154 772.716 501.859C772.181 501.545 771.527 501.389 770.753 501.389C769.979 501.389 769.325 501.545 768.79 501.859C768.255 502.154 767.813 502.578 767.463 503.131C767.113 503.684 766.855 504.356 766.689 505.149C766.541 505.941 766.468 506.817 766.468 507.775V510.927C766.468 511.904 766.541 512.789 766.689 513.581C766.855 514.355 767.113 515.019 767.463 515.572C767.813 516.125 768.255 516.558 768.79 516.871C769.325 517.166 769.979 517.314 770.753 517.314ZM760.396 539.324V533.214H760.175L756.111 543.139L752.047 533.214H751.826V539.324V549H749.697V529.702H752.683L756.083 538.218H756.249L759.65 529.702H762.525V549H760.396V539.324ZM775.757 549L774.126 543.498H767.352L765.721 549H763.316L769.232 529.702H772.301L778.218 549H775.757ZM770.864 532.163H770.615L767.905 541.48H773.573L770.864 532.163Z" fill="#FFFAEE"/>
</svg>
