<svg width="1080" height="1080" viewBox="0 0 1080 1080" fill="none" xmlns="http://www.w3.org/2000/svg">
<rect width="1080" height="1080" fill="#191919"/>
<path d="M444.545 417V325.058H464.044C471.62 325.058 477.345 327.124 481.219 331.256C485.179 335.388 487.159 341.242 487.159 348.818V391.819C487.159 400.428 485.05 406.799 480.831 410.931C476.699 414.977 470.716 417 462.882 417H444.545ZM457.716 337.454V404.603H463.786C467.487 404.603 470.113 403.699 471.663 401.891C473.212 399.998 473.987 397.071 473.987 393.11V348.818C473.987 345.202 473.255 342.404 471.792 340.424C470.328 338.444 467.66 337.454 463.786 337.454H457.716ZM536.976 351.53H523.804V348.56C523.804 345.547 523.072 342.964 521.609 340.812C520.231 338.573 517.864 337.454 514.507 337.454C512.699 337.454 511.235 337.799 510.116 338.487C508.997 339.176 508.093 340.037 507.404 341.07C506.716 342.189 506.242 343.481 505.984 344.944C505.726 346.321 505.596 347.785 505.596 349.335C505.596 351.142 505.639 352.649 505.726 353.854C505.898 355.059 506.242 356.136 506.759 357.083C507.275 358.029 508.007 358.847 508.954 359.536C509.987 360.225 511.364 360.913 513.086 361.602L523.158 365.605C526.085 366.724 528.453 368.059 530.261 369.608C532.069 371.072 533.489 372.794 534.522 374.774C535.469 376.84 536.115 379.207 536.459 381.876C536.803 384.459 536.976 387.429 536.976 390.786C536.976 394.66 536.588 398.276 535.813 401.633C535.039 404.905 533.79 407.702 532.069 410.027C530.261 412.437 527.893 414.331 524.966 415.709C522.039 417.086 518.467 417.775 514.248 417.775C511.063 417.775 508.093 417.215 505.338 416.096C502.583 414.977 500.216 413.427 498.236 411.447C496.256 409.467 494.663 407.186 493.458 404.603C492.339 401.935 491.779 399.051 491.779 395.951V391.044H504.951V395.177C504.951 397.587 505.639 399.782 507.017 401.762C508.48 403.656 510.891 404.603 514.248 404.603C516.487 404.603 518.208 404.302 519.414 403.699C520.705 403.011 521.695 402.064 522.384 400.858C523.072 399.653 523.46 398.233 523.546 396.597C523.718 394.875 523.804 392.981 523.804 390.915C523.804 388.505 523.718 386.525 523.546 384.975C523.374 383.426 523.029 382.177 522.513 381.23C521.91 380.283 521.092 379.509 520.059 378.906C519.112 378.303 517.821 377.658 516.185 376.969L506.759 373.095C501.077 370.771 497.246 367.714 495.266 363.927C493.372 360.053 492.425 355.232 492.425 349.464C492.425 346.02 492.898 342.749 493.845 339.65C494.792 336.55 496.213 333.882 498.107 331.643C499.915 329.405 502.196 327.64 504.951 326.349C507.792 324.972 511.149 324.283 515.023 324.283C518.294 324.283 521.264 324.885 523.933 326.091C526.688 327.296 529.055 328.889 531.035 330.869C534.996 335.001 536.976 339.736 536.976 345.073V351.53ZM540.882 346.752C540.882 343.05 541.528 339.779 542.819 336.938C544.11 334.097 545.832 331.729 547.984 329.836C550.05 328.028 552.375 326.65 554.957 325.703C557.626 324.756 560.295 324.283 562.964 324.283C565.632 324.283 568.258 324.756 570.841 325.703C573.509 326.65 575.92 328.028 578.072 329.836C580.138 331.729 581.817 334.097 583.108 336.938C584.4 339.779 585.045 343.05 585.045 346.752V351.401H571.874V346.752C571.874 343.567 570.97 341.242 569.162 339.779C567.44 338.229 565.374 337.454 562.964 337.454C560.553 337.454 558.444 338.229 556.636 339.779C554.914 341.242 554.053 343.567 554.053 346.752V395.306C554.053 398.491 554.914 400.858 556.636 402.408C558.444 403.872 560.553 404.603 562.964 404.603C565.374 404.603 567.44 403.872 569.162 402.408C570.97 400.858 571.874 398.491 571.874 395.306V378.002H561.414V366.38H585.045V395.306C585.045 399.18 584.4 402.494 583.108 405.249C581.817 408.004 580.138 410.285 578.072 412.093C575.92 413.987 573.509 415.407 570.841 416.354C568.258 417.301 565.632 417.775 562.964 417.775C560.295 417.775 557.626 417.301 554.957 416.354C552.375 415.407 550.05 413.987 547.984 412.093C545.832 410.285 544.11 408.004 542.819 405.249C541.528 402.494 540.882 399.18 540.882 395.306V346.752ZM590.957 417V325.058H603.612L623.498 380.455H623.757V325.058H636.928V417H624.532L604.387 361.731H604.129V417H590.957Z" fill="#FFFAEE"/>
<path d="M361.55 489.375V505H359.45V489.375H353.625V487.55H367.375V489.375H361.55ZM377.14 497.075H370.34V505H368.24V487.55H370.34V495.25H377.14V487.55H379.24V505H377.14V497.075ZM381.73 505V487.55H392.48V489.375H383.83V495.25H392.18V497.075H383.83V503.175H392.48V505H381.73ZM434.816 487.55H439.691C441.825 487.55 443.416 488.283 444.466 489.75C445.516 491.217 446.041 493.392 446.041 496.275C446.041 499.158 445.516 501.333 444.466 502.8C443.416 504.267 441.825 505 439.691 505H434.816V487.55ZM439.591 503.175C440.991 503.175 442.041 502.692 442.741 501.725C443.458 500.758 443.816 499.392 443.816 497.625V494.925C443.816 493.158 443.458 491.792 442.741 490.825C442.041 489.858 440.991 489.375 439.591 489.375H436.916V503.175H439.591ZM447.932 505V487.55H458.682V489.375H450.032V495.25H458.382V497.075H450.032V503.175H458.682V505H447.932ZM466.372 505.3C464.805 505.3 463.522 505.017 462.522 504.45C461.522 503.867 460.697 503.125 460.047 502.225L461.572 500.975C462.255 501.825 462.972 502.458 463.722 502.875C464.489 503.292 465.397 503.5 466.447 503.5C467.714 503.5 468.68 503.208 469.347 502.625C470.014 502.042 470.347 501.225 470.347 500.175C470.347 499.325 470.105 498.667 469.622 498.2C469.139 497.717 468.297 497.375 467.097 497.175L465.147 496.85C464.297 496.7 463.58 496.475 462.997 496.175C462.43 495.875 461.972 495.517 461.622 495.1C461.272 494.667 461.022 494.2 460.872 493.7C460.722 493.183 460.647 492.65 460.647 492.1C460.647 490.5 461.172 489.292 462.222 488.475C463.272 487.658 464.689 487.25 466.472 487.25C467.872 487.25 469.047 487.483 469.997 487.95C470.964 488.417 471.739 489.075 472.322 489.925L470.847 491.2C470.364 490.567 469.78 490.05 469.097 489.65C468.414 489.25 467.53 489.05 466.447 489.05C465.264 489.05 464.355 489.3 463.722 489.8C463.089 490.3 462.772 491.05 462.772 492.05C462.772 492.833 463.005 493.475 463.472 493.975C463.955 494.458 464.814 494.808 466.047 495.025L467.922 495.35C468.772 495.5 469.489 495.725 470.072 496.025C470.655 496.325 471.122 496.683 471.472 497.1C471.839 497.517 472.097 497.983 472.247 498.5C472.397 499.017 472.472 499.558 472.472 500.125C472.472 501.742 471.939 503.008 470.872 503.925C469.822 504.842 468.322 505.3 466.372 505.3ZM474.262 505V503.325H478.612V489.225H474.262V487.55H485.062V489.225H480.712V503.325H485.062V505H474.262ZM496.502 502.675H496.377C496.227 503.008 496.052 503.333 495.852 503.65C495.652 503.967 495.394 504.25 495.077 504.5C494.777 504.733 494.411 504.925 493.977 505.075C493.544 505.225 493.027 505.3 492.427 505.3C490.527 505.3 489.111 504.533 488.177 503C487.261 501.467 486.802 499.267 486.802 496.4C486.802 493.4 487.311 491.125 488.327 489.575C489.344 488.025 490.911 487.25 493.027 487.25C493.844 487.25 494.552 487.358 495.152 487.575C495.752 487.792 496.261 488.083 496.677 488.45C497.111 488.817 497.469 489.233 497.752 489.7C498.036 490.15 498.269 490.608 498.452 491.075L496.652 491.9C496.502 491.517 496.327 491.158 496.127 490.825C495.944 490.475 495.711 490.175 495.427 489.925C495.161 489.658 494.836 489.45 494.452 489.3C494.069 489.15 493.619 489.075 493.102 489.075C491.702 489.075 490.669 489.6 490.002 490.65C489.352 491.7 489.027 493.1 489.027 494.85V497.55C489.027 498.433 489.094 499.242 489.227 499.975C489.361 500.692 489.577 501.317 489.877 501.85C490.194 502.383 490.594 502.8 491.077 503.1C491.577 503.383 492.186 503.525 492.902 503.525C494.036 503.525 494.919 503.183 495.552 502.5C496.186 501.817 496.502 500.933 496.502 499.85V498.05H492.827V496.375H498.452V505H496.502V502.675ZM502.718 490.3H502.543V505H500.643V487.55H503.618L509.568 502.25H509.743V487.55H511.643V505H508.668L502.718 490.3ZM593.699 487.55H598.574C600.708 487.55 602.299 488.283 603.349 489.75C604.399 491.217 604.924 493.392 604.924 496.275C604.924 499.158 604.399 501.333 603.349 502.8C602.299 504.267 600.708 505 598.574 505H593.699V487.55ZM598.474 503.175C599.874 503.175 600.924 502.692 601.624 501.725C602.341 500.758 602.699 499.392 602.699 497.625V494.925C602.699 493.158 602.341 491.792 601.624 490.825C600.924 489.858 599.874 489.375 598.474 489.375H595.799V503.175H598.474ZM606.814 505V487.55H617.564V489.375H608.914V495.25H617.264V497.075H608.914V503.175H617.564V505H606.814ZM620.055 505V487.55H626.405C628.021 487.55 629.255 487.992 630.105 488.875C630.955 489.758 631.38 490.992 631.38 492.575C631.38 494.158 630.955 495.392 630.105 496.275C629.255 497.158 628.021 497.6 626.405 497.6H622.155V505H620.055ZM622.155 495.775H626.355C627.238 495.775 627.921 495.558 628.405 495.125C628.905 494.675 629.155 494.042 629.155 493.225V491.925C629.155 491.108 628.905 490.483 628.405 490.05C627.921 489.6 627.238 489.375 626.355 489.375H622.155V495.775ZM643.07 505L641.595 500.025H635.47L633.995 505H631.82L637.17 487.55H639.945L645.295 505H643.07ZM638.645 489.775H638.42L635.97 498.2H641.095L638.645 489.775ZM648.635 505H646.535V487.55H652.885C654.502 487.55 655.735 487.992 656.585 488.875C657.435 489.758 657.86 490.992 657.86 492.575C657.86 493.992 657.493 495.125 656.76 495.975C656.027 496.825 654.96 497.317 653.56 497.45L658.01 505H655.66L651.41 497.55H648.635V505ZM652.835 495.775C653.718 495.775 654.402 495.558 654.885 495.125C655.385 494.675 655.635 494.042 655.635 493.225V491.925C655.635 491.108 655.385 490.483 654.885 490.05C654.402 489.6 653.718 489.375 652.835 489.375H648.635V495.775H652.835ZM666.075 489.375V505H663.975V489.375H658.15V487.55H671.9V489.375H666.075ZM682.141 496.25V490.725H681.941L678.266 499.7L674.591 490.725H674.391V496.25V505H672.466V487.55H675.166L678.241 495.25H678.391L681.466 487.55H684.066V505H682.141V496.25ZM686.256 505V487.55H697.006V489.375H688.356V495.25H696.706V497.075H688.356V503.175H697.006V505H686.256ZM701.321 490.3H701.146V505H699.246V487.55H702.221L708.171 502.25H708.346V487.55H710.246V505H707.271L701.321 490.3ZM719.036 489.375V505H716.936V489.375H711.111V487.55H724.861V489.375H719.036ZM356 539V521.55H358.1V537.175H366.375V539H356ZM378.265 539L376.79 534.025H370.665L369.19 539H367.015L372.365 521.55H375.14L380.49 539H378.265ZM373.84 523.775H373.615L371.165 532.2H376.29L373.84 523.775ZM385.93 539V532.15L379.905 521.55H382.305L384.805 526.1L386.93 530.075H387.03L389.205 526.1L391.705 521.55H394.055L388.03 532.15V539H385.93ZM400.221 539.3C399.154 539.3 398.237 539.1 397.471 538.7C396.704 538.283 396.071 537.692 395.571 536.925C395.071 536.158 394.704 535.217 394.471 534.1C394.237 532.983 394.121 531.708 394.121 530.275C394.121 528.858 394.237 527.592 394.471 526.475C394.704 525.342 395.071 524.392 395.571 523.625C396.071 522.858 396.704 522.275 397.471 521.875C398.237 521.458 399.154 521.25 400.221 521.25C401.287 521.25 402.204 521.458 402.971 521.875C403.737 522.275 404.371 522.858 404.871 523.625C405.371 524.392 405.737 525.342 405.971 526.475C406.204 527.592 406.321 528.858 406.321 530.275C406.321 531.708 406.204 532.983 405.971 534.1C405.737 535.217 405.371 536.158 404.871 536.925C404.371 537.692 403.737 538.283 402.971 538.7C402.204 539.1 401.287 539.3 400.221 539.3ZM400.221 537.475C400.921 537.475 401.512 537.342 401.996 537.075C402.479 536.792 402.879 536.4 403.196 535.9C403.512 535.4 403.737 534.8 403.871 534.1C404.021 533.383 404.096 532.583 404.096 531.7V528.85C404.096 527.983 404.021 527.192 403.871 526.475C403.737 525.758 403.512 525.15 403.196 524.65C402.879 524.15 402.479 523.767 401.996 523.5C401.512 523.217 400.921 523.075 400.221 523.075C399.521 523.075 398.929 523.217 398.446 523.5C397.962 523.767 397.562 524.15 397.246 524.65C396.929 525.15 396.696 525.758 396.546 526.475C396.412 527.192 396.346 527.983 396.346 528.85V531.7C396.346 532.583 396.412 533.383 396.546 534.1C396.696 534.8 396.929 535.4 397.246 535.9C397.562 536.4 397.962 536.792 398.446 537.075C398.929 537.342 399.521 537.475 400.221 537.475ZM410.061 521.55V532.025C410.061 532.875 410.086 533.633 410.136 534.3C410.186 534.967 410.319 535.542 410.536 536.025C410.753 536.492 411.086 536.85 411.536 537.1C412.003 537.35 412.644 537.475 413.461 537.475C414.278 537.475 414.911 537.35 415.361 537.1C415.828 536.85 416.169 536.492 416.386 536.025C416.603 535.542 416.736 534.967 416.786 534.3C416.836 533.633 416.861 532.875 416.861 532.025V521.55H418.961V531.525C418.961 532.825 418.894 533.958 418.761 534.925C418.644 535.892 418.386 536.7 417.986 537.35C417.603 538 417.044 538.492 416.311 538.825C415.594 539.142 414.644 539.3 413.461 539.3C412.278 539.3 411.319 539.142 410.586 538.825C409.869 538.492 409.311 538 408.911 537.35C408.528 536.7 408.269 535.892 408.136 534.925C408.019 533.958 407.961 532.825 407.961 531.525V521.55H410.061ZM427.751 523.375V539H425.651V523.375H419.826V521.55H433.576V523.375H427.751ZM438.866 535.6H442.091L439.216 542.525H437.541L438.866 535.6ZM485.742 539.3C483.608 539.3 482.017 538.525 480.967 536.975C479.933 535.425 479.417 533.192 479.417 530.275C479.417 527.358 479.933 525.125 480.967 523.575C482.017 522.025 483.608 521.25 485.742 521.25C486.542 521.25 487.233 521.358 487.817 521.575C488.4 521.792 488.9 522.083 489.317 522.45C489.733 522.817 490.083 523.233 490.367 523.7C490.65 524.15 490.9 524.608 491.117 525.075L489.317 525.9C489.167 525.517 488.992 525.158 488.792 524.825C488.592 524.475 488.35 524.175 488.067 523.925C487.8 523.658 487.475 523.45 487.092 523.3C486.725 523.15 486.275 523.075 485.742 523.075C484.358 523.075 483.325 523.6 482.642 524.65C481.975 525.7 481.642 527.1 481.642 528.85V531.7C481.642 533.45 481.975 534.85 482.642 535.9C483.325 536.95 484.358 537.475 485.742 537.475C486.275 537.475 486.725 537.4 487.092 537.25C487.475 537.1 487.8 536.9 488.067 536.65C488.35 536.383 488.592 536.083 488.792 535.75C488.992 535.4 489.167 535.033 489.317 534.65L491.117 535.475C490.9 535.958 490.65 536.425 490.367 536.875C490.083 537.325 489.733 537.733 489.317 538.1C488.9 538.467 488.4 538.758 487.817 538.975C487.233 539.192 486.542 539.3 485.742 539.3ZM498.407 539.3C497.34 539.3 496.424 539.1 495.657 538.7C494.89 538.283 494.257 537.692 493.757 536.925C493.257 536.158 492.89 535.217 492.657 534.1C492.424 532.983 492.307 531.708 492.307 530.275C492.307 528.858 492.424 527.592 492.657 526.475C492.89 525.342 493.257 524.392 493.757 523.625C494.257 522.858 494.89 522.275 495.657 521.875C496.424 521.458 497.34 521.25 498.407 521.25C499.474 521.25 500.39 521.458 501.157 521.875C501.924 522.275 502.557 522.858 503.057 523.625C503.557 524.392 503.924 525.342 504.157 526.475C504.39 527.592 504.507 528.858 504.507 530.275C504.507 531.708 504.39 532.983 504.157 534.1C503.924 535.217 503.557 536.158 503.057 536.925C502.557 537.692 501.924 538.283 501.157 538.7C500.39 539.1 499.474 539.3 498.407 539.3ZM498.407 537.475C499.107 537.475 499.699 537.342 500.182 537.075C500.665 536.792 501.065 536.4 501.382 535.9C501.699 535.4 501.924 534.8 502.057 534.1C502.207 533.383 502.282 532.583 502.282 531.7V528.85C502.282 527.983 502.207 527.192 502.057 526.475C501.924 525.758 501.699 525.15 501.382 524.65C501.065 524.15 500.665 523.767 500.182 523.5C499.699 523.217 499.107 523.075 498.407 523.075C497.707 523.075 497.115 523.217 496.632 523.5C496.149 523.767 495.749 524.15 495.432 524.65C495.115 525.15 494.882 525.758 494.732 526.475C494.599 527.192 494.532 527.983 494.532 528.85V531.7C494.532 532.583 494.599 533.383 494.732 534.1C494.882 534.8 495.115 535.4 495.432 535.9C495.749 536.4 496.149 536.792 496.632 537.075C497.115 537.342 497.707 537.475 498.407 537.475ZM508.222 524.3H508.047V539H506.147V521.55H509.122L515.072 536.25H515.247V521.55H517.147V539H514.172L508.222 524.3ZM525.462 539.3C523.329 539.3 521.737 538.525 520.687 536.975C519.654 535.425 519.137 533.192 519.137 530.275C519.137 527.358 519.654 525.125 520.687 523.575C521.737 522.025 523.329 521.25 525.462 521.25C526.262 521.25 526.954 521.358 527.537 521.575C528.121 521.792 528.621 522.083 529.037 522.45C529.454 522.817 529.804 523.233 530.087 523.7C530.371 524.15 530.621 524.608 530.837 525.075L529.037 525.9C528.887 525.517 528.712 525.158 528.512 524.825C528.312 524.475 528.071 524.175 527.787 523.925C527.521 523.658 527.196 523.45 526.812 523.3C526.446 523.15 525.996 523.075 525.462 523.075C524.079 523.075 523.046 523.6 522.362 524.65C521.696 525.7 521.362 527.1 521.362 528.85V531.7C521.362 533.45 521.696 534.85 522.362 535.9C523.046 536.95 524.079 537.475 525.462 537.475C525.996 537.475 526.446 537.4 526.812 537.25C527.196 537.1 527.521 536.9 527.787 536.65C528.071 536.383 528.312 536.083 528.512 535.75C528.712 535.4 528.887 535.033 529.037 534.65L530.837 535.475C530.621 535.958 530.371 536.425 530.087 536.875C529.804 537.325 529.454 537.733 529.037 538.1C528.621 538.467 528.121 538.758 527.537 538.975C526.954 539.192 526.262 539.3 525.462 539.3ZM532.878 539V521.55H543.628V523.375H534.978V529.25H543.328V531.075H534.978V537.175H543.628V539H532.878ZM546.118 539V521.55H552.468C554.085 521.55 555.318 521.992 556.168 522.875C557.018 523.758 557.443 524.992 557.443 526.575C557.443 528.158 557.018 529.392 556.168 530.275C555.318 531.158 554.085 531.6 552.468 531.6H548.218V539H546.118ZM548.218 529.775H552.418C553.301 529.775 553.985 529.558 554.468 529.125C554.968 528.675 555.218 528.042 555.218 527.225V525.925C555.218 525.108 554.968 524.483 554.468 524.05C553.985 523.6 553.301 523.375 552.418 523.375H548.218V529.775ZM565.658 523.375V539H563.558V523.375H557.733V521.55H571.483V523.375H565.658ZM576.773 535.6H579.998L577.123 542.525H575.448L576.773 535.6ZM649.809 539V521.55H656.159C657.775 521.55 659.009 521.992 659.859 522.875C660.709 523.758 661.134 524.992 661.134 526.575C661.134 528.158 660.709 529.392 659.859 530.275C659.009 531.158 657.775 531.6 656.159 531.6H651.909V539H649.809ZM651.909 529.775H656.109C656.992 529.775 657.675 529.558 658.159 529.125C658.659 528.675 658.909 528.042 658.909 527.225V525.925C658.909 525.108 658.659 524.483 658.159 524.05C657.675 523.6 656.992 523.375 656.109 523.375H651.909V529.775ZM662.899 539V537.325H667.249V523.225H662.899V521.55H673.699V523.225H669.349V537.325H673.699V539H662.899ZM688.414 539H686.039L683.964 535.525L681.664 531.725H681.564L679.189 535.525L676.989 539H674.689L680.389 530.1L675.014 521.55H677.389L679.414 524.925L681.589 528.45H681.689L683.839 524.925L685.939 521.55H688.239L682.839 530.075L688.414 539ZM689.529 539V521.55H700.279V523.375H691.629V529.25H699.979V531.075H691.629V537.175H700.279V539H689.529ZM703.52 539V521.55H705.62V537.175H713.895V539H703.52ZM721.21 539.3C719.643 539.3 718.36 539.017 717.36 538.45C716.36 537.867 715.535 537.125 714.885 536.225L716.41 534.975C717.093 535.825 717.81 536.458 718.56 536.875C719.326 537.292 720.235 537.5 721.285 537.5C722.551 537.5 723.518 537.208 724.185 536.625C724.851 536.042 725.185 535.225 725.185 534.175C725.185 533.325 724.943 532.667 724.46 532.2C723.976 531.717 723.135 531.375 721.935 531.175L719.985 530.85C719.135 530.7 718.418 530.475 717.835 530.175C717.268 529.875 716.81 529.517 716.46 529.1C716.11 528.667 715.86 528.2 715.71 527.7C715.56 527.183 715.485 526.65 715.485 526.1C715.485 524.5 716.01 523.292 717.06 522.475C718.11 521.658 719.526 521.25 721.31 521.25C722.71 521.25 723.885 521.483 724.835 521.95C725.801 522.417 726.576 523.075 727.16 523.925L725.685 525.2C725.201 524.567 724.618 524.05 723.935 523.65C723.251 523.25 722.368 523.05 721.285 523.05C720.101 523.05 719.193 523.3 718.56 523.8C717.926 524.3 717.61 525.05 717.61 526.05C717.61 526.833 717.843 527.475 718.31 527.975C718.793 528.458 719.651 528.808 720.885 529.025L722.76 529.35C723.61 529.5 724.326 529.725 724.91 530.025C725.493 530.325 725.96 530.683 726.31 531.1C726.676 531.517 726.935 531.983 727.085 532.5C727.235 533.017 727.31 533.558 727.31 534.125C727.31 535.742 726.776 537.008 725.71 537.925C724.66 538.842 723.16 539.3 721.21 539.3ZM365.025 573L363.55 568.025H357.425L355.95 573H353.775L359.125 555.55H361.9L367.25 573H365.025ZM360.6 557.775H360.375L357.925 566.2H363.05L360.6 557.775ZM369.24 573V555.55H371.34V571.175H379.615V573H369.24ZM382.48 573V555.55H384.58V571.175H392.855V573H382.48Z" fill="#FFFAEE"/>
<path d="M467.375 564.25V558.725H467.175L463.5 567.7L459.825 558.725H459.625V564.25V573H457.7V555.55H460.4L463.475 563.25H463.625L466.7 555.55H469.3V573H467.375V564.25ZM481.265 573L479.79 568.025H473.665L472.19 573H470.015L475.365 555.55H478.14L483.49 573H481.265ZM476.84 557.775H476.615L474.165 566.2H479.29L476.84 557.775ZM484.855 555.55H489.73C491.864 555.55 493.455 556.283 494.505 557.75C495.555 559.217 496.08 561.392 496.08 564.275C496.08 567.158 495.555 569.333 494.505 570.8C493.455 572.267 491.864 573 489.73 573H484.855V555.55ZM489.63 571.175C491.03 571.175 492.08 570.692 492.78 569.725C493.497 568.758 493.855 567.392 493.855 565.625V562.925C493.855 561.158 493.497 559.792 492.78 558.825C492.08 557.858 491.03 557.375 489.63 557.375H486.955V571.175H489.63ZM497.971 573V555.55H508.721V557.375H500.071V563.25H508.421V565.075H500.071V571.175H508.721V573H497.971ZM524.401 555.55H530.326C531.826 555.55 533.001 555.958 533.851 556.775C534.701 557.592 535.126 558.683 535.126 560.05C535.126 561.1 534.868 561.925 534.351 562.525C533.851 563.125 533.201 563.55 532.401 563.8V563.875C533.385 564.108 534.193 564.55 534.826 565.2C535.46 565.833 535.776 566.758 535.776 567.975C535.776 568.675 535.66 569.333 535.426 569.95C535.193 570.567 534.86 571.1 534.426 571.55C534.01 572 533.51 572.358 532.926 572.625C532.36 572.875 531.743 573 531.076 573H524.401V555.55ZM530.451 571.175C531.418 571.175 532.176 570.958 532.726 570.525C533.276 570.092 533.551 569.425 533.551 568.525V567.5C533.551 566.617 533.276 565.958 532.726 565.525C532.176 565.075 531.418 564.85 530.451 564.85H526.501V571.175H530.451ZM530.101 563.125C530.985 563.125 531.676 562.933 532.176 562.55C532.676 562.15 532.926 561.55 532.926 560.75V559.775C532.926 558.975 532.676 558.375 532.176 557.975C531.676 557.575 530.985 557.375 530.101 557.375H526.501V563.125H530.101ZM541.891 573V566.15L535.866 555.55H538.266L540.766 560.1L542.891 564.075H542.991L545.166 560.1L547.666 555.55H550.016L543.991 566.15V573H541.891ZM572.822 565.075H566.022V573H563.922V555.55H566.022V563.25H572.822V555.55H574.922V573H572.822V565.075ZM579.262 555.55V566.025C579.262 566.875 579.287 567.633 579.337 568.3C579.387 568.967 579.52 569.542 579.737 570.025C579.954 570.492 580.287 570.85 580.737 571.1C581.204 571.35 581.845 571.475 582.662 571.475C583.479 571.475 584.112 571.35 584.562 571.1C585.029 570.85 585.37 570.492 585.587 570.025C585.804 569.542 585.937 568.967 585.987 568.3C586.037 567.633 586.062 566.875 586.062 566.025V555.55H588.162V565.525C588.162 566.825 588.095 567.958 587.962 568.925C587.845 569.892 587.587 570.7 587.187 571.35C586.804 572 586.245 572.492 585.512 572.825C584.795 573.142 583.845 573.3 582.662 573.3C581.479 573.3 580.52 573.142 579.787 572.825C579.07 572.492 578.512 572 578.112 571.35C577.729 570.7 577.47 569.892 577.337 568.925C577.22 567.958 577.162 566.825 577.162 565.525V555.55H579.262ZM599.777 564.25V558.725H599.577L595.902 567.7L592.227 558.725H592.027V564.25V573H590.102V555.55H592.802L595.877 563.25H596.027L599.102 555.55H601.702V573H599.777V564.25ZM613.668 573L612.193 568.025H606.068L604.593 573H602.418L607.768 555.55H610.543L615.893 573H613.668ZM609.243 557.775H609.018L606.568 566.2H611.693L609.243 557.775ZM618.958 558.3H618.783V573H616.883V555.55H619.858L625.808 570.25H625.983V555.55H627.883V573H624.908L618.958 558.3ZM635.573 573.3C634.006 573.3 632.723 573.017 631.723 572.45C630.723 571.867 629.898 571.125 629.248 570.225L630.773 568.975C631.456 569.825 632.173 570.458 632.923 570.875C633.69 571.292 634.598 571.5 635.648 571.5C636.915 571.5 637.881 571.208 638.548 570.625C639.215 570.042 639.548 569.225 639.548 568.175C639.548 567.325 639.306 566.667 638.823 566.2C638.34 565.717 637.498 565.375 636.298 565.175L634.348 564.85C633.498 564.7 632.781 564.475 632.198 564.175C631.631 563.875 631.173 563.517 630.823 563.1C630.473 562.667 630.223 562.2 630.073 561.7C629.923 561.183 629.848 560.65 629.848 560.1C629.848 558.5 630.373 557.292 631.423 556.475C632.473 555.658 633.89 555.25 635.673 555.25C637.073 555.25 638.248 555.483 639.198 555.95C640.165 556.417 640.94 557.075 641.523 557.925L640.048 559.2C639.565 558.567 638.981 558.05 638.298 557.65C637.615 557.25 636.731 557.05 635.648 557.05C634.465 557.05 633.556 557.3 632.923 557.8C632.29 558.3 631.973 559.05 631.973 560.05C631.973 560.833 632.206 561.475 632.673 561.975C633.156 562.458 634.015 562.808 635.248 563.025L637.123 563.35C637.973 563.5 638.69 563.725 639.273 564.025C639.856 564.325 640.323 564.683 640.673 565.1C641.04 565.517 641.298 565.983 641.448 566.5C641.598 567.017 641.673 567.558 641.673 568.125C641.673 569.742 641.14 571.008 640.073 571.925C639.023 572.842 637.523 573.3 635.573 573.3Z" fill="#FFFAEE"/>
<rect x="417.75" y="550.658" width="264.5" height="28.5" rx="14.25" stroke="#FFFAEE" stroke-width="1.5"/>
<path d="M334.5 690.55C333.45 690.55 332.467 690.358 331.55 689.975C330.65 689.592 329.858 689.042 329.175 688.325C328.508 687.608 327.975 686.742 327.575 685.725C327.192 684.708 327 683.558 327 682.275C327 681.008 327.192 679.867 327.575 678.85C327.975 677.817 328.508 676.942 329.175 676.225C329.858 675.508 330.65 674.958 331.55 674.575C332.467 674.192 333.45 674 334.5 674C335.55 674 336.525 674.192 337.425 674.575C338.342 674.958 339.133 675.508 339.8 676.225C340.483 676.942 341.017 677.817 341.4 678.85C341.8 679.867 342 681.008 342 682.275C342 683.558 341.8 684.708 341.4 685.725C341.017 686.742 340.483 687.608 339.8 688.325C339.133 689.042 338.342 689.592 337.425 689.975C336.525 690.358 335.55 690.55 334.5 690.55ZM334.5 689.175C335.35 689.175 336.133 689.017 336.85 688.7C337.583 688.383 338.208 687.95 338.725 687.4C339.258 686.833 339.675 686.175 339.975 685.425C340.275 684.675 340.425 683.875 340.425 683.025V681.525C340.425 680.675 340.275 679.875 339.975 679.125C339.675 678.375 339.258 677.725 338.725 677.175C338.208 676.608 337.583 676.167 336.85 675.85C336.133 675.533 335.35 675.375 334.5 675.375C333.65 675.375 332.858 675.533 332.125 675.85C331.408 676.167 330.783 676.608 330.25 677.175C329.733 677.725 329.325 678.375 329.025 679.125C328.725 679.875 328.575 680.675 328.575 681.525V683.025C328.575 683.875 328.725 684.675 329.025 685.425C329.325 686.175 329.733 686.833 330.25 687.4C330.783 687.95 331.408 688.383 332.125 688.7C332.858 689.017 333.65 689.175 334.5 689.175ZM334.625 686.725C333.408 686.725 332.458 686.325 331.775 685.525C331.108 684.708 330.775 683.625 330.775 682.275C330.775 680.908 331.117 679.825 331.8 679.025C332.483 678.225 333.425 677.825 334.625 677.825C335.425 677.825 336.075 678.008 336.575 678.375C337.092 678.742 337.492 679.225 337.775 679.825L336.45 680.55C336.267 680.15 336.033 679.833 335.75 679.6C335.467 679.367 335.092 679.25 334.625 679.25C333.975 679.25 333.467 679.467 333.1 679.9C332.75 680.317 332.575 680.867 332.575 681.55V682.975C332.575 683.675 332.75 684.242 333.1 684.675C333.45 685.092 333.967 685.3 334.65 685.3C335.15 685.3 335.55 685.175 335.85 684.925C336.15 684.675 336.417 684.342 336.65 683.925L337.9 684.7C337.617 685.283 337.2 685.767 336.65 686.15C336.117 686.533 335.442 686.725 334.625 686.725ZM380.146 691H368.496V688.85L374.321 683.6C375.171 682.833 375.871 682.05 376.421 681.25C376.971 680.433 377.246 679.575 377.246 678.675V678.375C377.246 677.325 376.971 676.517 376.421 675.95C375.871 675.367 375.054 675.075 373.971 675.075C372.904 675.075 372.079 675.35 371.496 675.9C370.929 676.433 370.504 677.15 370.221 678.05L368.346 677.35C368.512 676.833 368.737 676.333 369.021 675.85C369.321 675.35 369.696 674.908 370.146 674.525C370.596 674.142 371.137 673.833 371.771 673.6C372.421 673.367 373.171 673.25 374.021 673.25C374.887 673.25 375.654 673.375 376.321 673.625C377.004 673.875 377.571 674.225 378.021 674.675C378.487 675.125 378.837 675.658 379.071 676.275C379.321 676.892 379.446 677.567 379.446 678.3C379.446 678.967 379.346 679.592 379.146 680.175C378.962 680.758 378.696 681.317 378.346 681.85C378.012 682.383 377.604 682.908 377.121 683.425C376.654 683.925 376.129 684.425 375.546 684.925L370.671 689.175H380.146V691ZM387.461 691.3C386.394 691.3 385.478 691.1 384.711 690.7C383.944 690.283 383.311 689.692 382.811 688.925C382.311 688.158 381.944 687.217 381.711 686.1C381.478 684.983 381.361 683.708 381.361 682.275C381.361 680.858 381.478 679.592 381.711 678.475C381.944 677.342 382.311 676.392 382.811 675.625C383.311 674.858 383.944 674.275 384.711 673.875C385.478 673.458 386.394 673.25 387.461 673.25C388.528 673.25 389.444 673.458 390.211 673.875C390.978 674.275 391.611 674.858 392.111 675.625C392.611 676.392 392.978 677.342 393.211 678.475C393.444 679.592 393.561 680.858 393.561 682.275C393.561 683.708 393.444 684.983 393.211 686.1C392.978 687.217 392.611 688.158 392.111 688.925C391.611 689.692 390.978 690.283 390.211 690.7C389.444 691.1 388.528 691.3 387.461 691.3ZM387.461 689.475C388.161 689.475 388.761 689.342 389.261 689.075C389.761 688.792 390.161 688.4 390.461 687.9C390.778 687.4 391.011 686.8 391.161 686.1C391.311 685.383 391.386 684.583 391.386 683.7V680.85C391.386 679.983 391.311 679.192 391.161 678.475C391.011 677.758 390.778 677.15 390.461 676.65C390.161 676.15 389.761 675.767 389.261 675.5C388.761 675.217 388.161 675.075 387.461 675.075C386.761 675.075 386.161 675.217 385.661 675.5C385.161 675.767 384.753 676.15 384.436 676.65C384.136 677.15 383.911 677.758 383.761 678.475C383.611 679.192 383.536 679.983 383.536 680.85V683.7C383.536 684.583 383.611 685.383 383.761 686.1C383.911 686.8 384.136 687.4 384.436 687.9C384.753 688.4 385.161 688.792 385.661 689.075C386.161 689.342 386.761 689.475 387.461 689.475ZM387.461 683.75C386.878 683.75 386.469 683.633 386.236 683.4C386.019 683.167 385.911 682.883 385.911 682.55V682C385.911 681.667 386.019 681.383 386.236 681.15C386.469 680.917 386.878 680.8 387.461 680.8C388.044 680.8 388.444 680.917 388.661 681.15C388.894 681.383 389.011 681.667 389.011 682V682.55C389.011 682.883 388.894 683.167 388.661 683.4C388.444 683.633 388.044 683.75 387.461 683.75ZM406.626 691H394.976V688.85L400.801 683.6C401.651 682.833 402.351 682.05 402.901 681.25C403.451 680.433 403.726 679.575 403.726 678.675V678.375C403.726 677.325 403.451 676.517 402.901 675.95C402.351 675.367 401.535 675.075 400.451 675.075C399.385 675.075 398.56 675.35 397.976 675.9C397.41 676.433 396.985 677.15 396.701 678.05L394.826 677.35C394.993 676.833 395.218 676.333 395.501 675.85C395.801 675.35 396.176 674.908 396.626 674.525C397.076 674.142 397.618 673.833 398.251 673.6C398.901 673.367 399.651 673.25 400.501 673.25C401.368 673.25 402.135 673.375 402.801 673.625C403.485 673.875 404.051 674.225 404.501 674.675C404.968 675.125 405.318 675.658 405.551 676.275C405.801 676.892 405.926 677.567 405.926 678.3C405.926 678.967 405.826 679.592 405.626 680.175C405.443 680.758 405.176 681.317 404.826 681.85C404.493 682.383 404.085 682.908 403.601 683.425C403.135 683.925 402.61 684.425 402.026 684.925L397.151 689.175H406.626V691ZM413.966 691.3C413.05 691.3 412.225 691.15 411.491 690.85C410.758 690.533 410.133 690.092 409.616 689.525C409.116 688.942 408.725 688.233 408.441 687.4C408.175 686.567 408.041 685.633 408.041 684.6C408.041 683.3 408.233 682.083 408.616 680.95C409.016 679.8 409.516 678.758 410.116 677.825C410.733 676.875 411.416 676.042 412.166 675.325C412.916 674.592 413.65 674 414.366 673.55H417.066C416.116 674.233 415.266 674.9 414.516 675.55C413.783 676.2 413.133 676.883 412.566 677.6C412 678.3 411.525 679.058 411.141 679.875C410.758 680.675 410.441 681.583 410.191 682.6L410.316 682.65C410.733 681.933 411.283 681.342 411.966 680.875C412.65 680.392 413.533 680.15 414.616 680.15C415.383 680.15 416.083 680.275 416.716 680.525C417.35 680.775 417.9 681.133 418.366 681.6C418.833 682.067 419.191 682.633 419.441 683.3C419.708 683.967 419.841 684.708 419.841 685.525C419.841 686.375 419.7 687.158 419.416 687.875C419.133 688.575 418.733 689.183 418.216 689.7C417.716 690.2 417.1 690.592 416.366 690.875C415.65 691.158 414.85 691.3 413.966 691.3ZM413.941 689.525C415.141 689.525 416.066 689.2 416.716 688.55C417.383 687.9 417.716 686.983 417.716 685.8V685.6C417.716 684.417 417.383 683.5 416.716 682.85C416.066 682.2 415.141 681.875 413.941 681.875C412.741 681.875 411.808 682.2 411.141 682.85C410.491 683.5 410.166 684.417 410.166 685.6V685.8C410.166 686.983 410.491 687.9 411.141 688.55C411.808 689.2 412.741 689.525 413.941 689.525ZM474.893 691V673.55H481.243C482.859 673.55 484.093 673.992 484.943 674.875C485.793 675.758 486.218 676.992 486.218 678.575C486.218 680.158 485.793 681.392 484.943 682.275C484.093 683.158 482.859 683.6 481.243 683.6H476.993V691H474.893ZM476.993 681.775H481.193C482.076 681.775 482.759 681.558 483.243 681.125C483.743 680.675 483.993 680.042 483.993 679.225V677.925C483.993 677.108 483.743 676.483 483.243 676.05C482.759 675.6 482.076 675.375 481.193 675.375H476.993V681.775ZM490.233 691H488.133V673.55H494.483C496.099 673.55 497.333 673.992 498.183 674.875C499.033 675.758 499.458 676.992 499.458 678.575C499.458 679.992 499.091 681.125 498.358 681.975C497.624 682.825 496.558 683.317 495.158 683.45L499.608 691H497.258L493.008 683.55H490.233V691ZM494.433 681.775C495.316 681.775 495.999 681.558 496.483 681.125C496.983 680.675 497.233 680.042 497.233 679.225V677.925C497.233 677.108 496.983 676.483 496.483 676.05C495.999 675.6 495.316 675.375 494.433 675.375H490.233V681.775H494.433ZM506.623 691.3C505.556 691.3 504.64 691.1 503.873 690.7C503.106 690.283 502.473 689.692 501.973 688.925C501.473 688.158 501.106 687.217 500.873 686.1C500.64 684.983 500.523 683.708 500.523 682.275C500.523 680.858 500.64 679.592 500.873 678.475C501.106 677.342 501.473 676.392 501.973 675.625C502.473 674.858 503.106 674.275 503.873 673.875C504.64 673.458 505.556 673.25 506.623 673.25C507.69 673.25 508.606 673.458 509.373 673.875C510.14 674.275 510.773 674.858 511.273 675.625C511.773 676.392 512.14 677.342 512.373 678.475C512.606 679.592 512.723 680.858 512.723 682.275C512.723 683.708 512.606 684.983 512.373 686.1C512.14 687.217 511.773 688.158 511.273 688.925C510.773 689.692 510.14 690.283 509.373 690.7C508.606 691.1 507.69 691.3 506.623 691.3ZM506.623 689.475C507.323 689.475 507.915 689.342 508.398 689.075C508.881 688.792 509.281 688.4 509.598 687.9C509.915 687.4 510.14 686.8 510.273 686.1C510.423 685.383 510.498 684.583 510.498 683.7V680.85C510.498 679.983 510.423 679.192 510.273 678.475C510.14 677.758 509.915 677.15 509.598 676.65C509.281 676.15 508.881 675.767 508.398 675.5C507.915 675.217 507.323 675.075 506.623 675.075C505.923 675.075 505.331 675.217 504.848 675.5C504.365 675.767 503.965 676.15 503.648 676.65C503.331 677.15 503.098 677.758 502.948 678.475C502.815 679.192 502.748 679.983 502.748 680.85V683.7C502.748 684.583 502.815 685.383 502.948 686.1C503.098 686.8 503.331 687.4 503.648 687.9C503.965 688.4 504.365 688.792 504.848 689.075C505.331 689.342 505.923 689.475 506.623 689.475ZM514.613 691V673.55H520.963C522.58 673.55 523.813 673.992 524.663 674.875C525.513 675.758 525.938 676.992 525.938 678.575C525.938 680.158 525.513 681.392 524.663 682.275C523.813 683.158 522.58 683.6 520.963 683.6H516.713V691H514.613ZM516.713 681.775H520.913C521.797 681.775 522.48 681.558 522.963 681.125C523.463 680.675 523.713 680.042 523.713 679.225V677.925C523.713 677.108 523.463 676.483 522.963 676.05C522.48 675.6 521.797 675.375 520.913 675.375H516.713V681.775ZM527.854 691V673.55H538.604V675.375H529.954V681.25H538.304V683.075H529.954V689.175H538.604V691H527.854ZM543.194 691H541.094V673.55H547.444C549.06 673.55 550.294 673.992 551.144 674.875C551.994 675.758 552.419 676.992 552.419 678.575C552.419 679.992 552.052 681.125 551.319 681.975C550.585 682.825 549.519 683.317 548.119 683.45L552.569 691H550.219L545.969 683.55H543.194V691ZM547.394 681.775C548.277 681.775 548.96 681.558 549.444 681.125C549.944 680.675 550.194 680.042 550.194 679.225V677.925C550.194 677.108 549.944 676.483 549.444 676.05C548.96 675.6 548.277 675.375 547.394 675.375H543.194V681.775H547.394ZM560.634 675.375V691H558.534V675.375H552.709V673.55H566.459V675.375H560.634ZM571.774 691V684.15L565.749 673.55H568.149L570.649 678.1L572.774 682.075H572.874L575.049 678.1L577.549 673.55H579.899L573.874 684.15V691H571.774ZM599.305 691.3C598.238 691.3 597.321 691.1 596.555 690.7C595.788 690.283 595.155 689.692 594.655 688.925C594.155 688.158 593.788 687.217 593.555 686.1C593.321 684.983 593.205 683.708 593.205 682.275C593.205 680.858 593.321 679.592 593.555 678.475C593.788 677.342 594.155 676.392 594.655 675.625C595.155 674.858 595.788 674.275 596.555 673.875C597.321 673.458 598.238 673.25 599.305 673.25C600.371 673.25 601.288 673.458 602.055 673.875C602.821 674.275 603.455 674.858 603.955 675.625C604.455 676.392 604.821 677.342 605.055 678.475C605.288 679.592 605.405 680.858 605.405 682.275C605.405 683.708 605.288 684.983 605.055 686.1C604.821 687.217 604.455 688.158 603.955 688.925C603.455 689.692 602.821 690.283 602.055 690.7C601.288 691.1 600.371 691.3 599.305 691.3ZM599.305 689.475C600.005 689.475 600.596 689.342 601.08 689.075C601.563 688.792 601.963 688.4 602.28 687.9C602.596 687.4 602.821 686.8 602.955 686.1C603.105 685.383 603.18 684.583 603.18 683.7V680.85C603.18 679.983 603.105 679.192 602.955 678.475C602.821 677.758 602.596 677.15 602.28 676.65C601.963 676.15 601.563 675.767 601.08 675.5C600.596 675.217 600.005 675.075 599.305 675.075C598.605 675.075 598.013 675.217 597.53 675.5C597.046 675.767 596.646 676.15 596.33 676.65C596.013 677.15 595.78 677.758 595.63 678.475C595.496 679.192 595.43 679.983 595.43 680.85V683.7C595.43 684.583 595.496 685.383 595.63 686.1C595.78 686.8 596.013 687.4 596.33 687.9C596.646 688.4 597.046 688.792 597.53 689.075C598.013 689.342 598.605 689.475 599.305 689.475ZM607.295 691V673.55H618.295V675.375H609.395V681.25H617.545V683.075H609.395V691H607.295ZM633.9 673.55H638.775C640.909 673.55 642.5 674.283 643.55 675.75C644.6 677.217 645.125 679.392 645.125 682.275C645.125 685.158 644.6 687.333 643.55 688.8C642.5 690.267 640.909 691 638.775 691H633.9V673.55ZM638.675 689.175C640.075 689.175 641.125 688.692 641.825 687.725C642.542 686.758 642.9 685.392 642.9 683.625V680.925C642.9 679.158 642.542 677.792 641.825 676.825C641.125 675.858 640.075 675.375 638.675 675.375H636V689.175H638.675ZM652.216 691.3C650.649 691.3 649.366 691.017 648.366 690.45C647.366 689.867 646.541 689.125 645.891 688.225L647.416 686.975C648.099 687.825 648.816 688.458 649.566 688.875C650.332 689.292 651.241 689.5 652.291 689.5C653.557 689.5 654.524 689.208 655.191 688.625C655.857 688.042 656.191 687.225 656.191 686.175C656.191 685.325 655.949 684.667 655.466 684.2C654.982 683.717 654.141 683.375 652.941 683.175L650.991 682.85C650.141 682.7 649.424 682.475 648.841 682.175C648.274 681.875 647.816 681.517 647.466 681.1C647.116 680.667 646.866 680.2 646.716 679.7C646.566 679.183 646.491 678.65 646.491 678.1C646.491 676.5 647.016 675.292 648.066 674.475C649.116 673.658 650.532 673.25 652.316 673.25C653.716 673.25 654.891 673.483 655.841 673.95C656.807 674.417 657.582 675.075 658.166 675.925L656.691 677.2C656.207 676.567 655.624 676.05 654.941 675.65C654.257 675.25 653.374 675.05 652.291 675.05C651.107 675.05 650.199 675.3 649.566 675.8C648.932 676.3 648.616 677.05 648.616 678.05C648.616 678.833 648.849 679.475 649.316 679.975C649.799 680.458 650.657 680.808 651.891 681.025L653.766 681.35C654.616 681.5 655.332 681.725 655.916 682.025C656.499 682.325 656.966 682.683 657.316 683.1C657.682 683.517 657.941 683.983 658.091 684.5C658.241 685.017 658.316 685.558 658.316 686.125C658.316 687.742 657.782 689.008 656.716 689.925C655.666 690.842 654.166 691.3 652.216 691.3ZM669.106 688.675H668.981C668.831 689.008 668.656 689.333 668.456 689.65C668.256 689.967 667.998 690.25 667.681 690.5C667.381 690.733 667.014 690.925 666.581 691.075C666.148 691.225 665.631 691.3 665.031 691.3C663.131 691.3 661.714 690.533 660.781 689C659.864 687.467 659.406 685.267 659.406 682.4C659.406 679.4 659.914 677.125 660.931 675.575C661.948 674.025 663.514 673.25 665.631 673.25C666.448 673.25 667.156 673.358 667.756 673.575C668.356 673.792 668.864 674.083 669.281 674.45C669.714 674.817 670.073 675.233 670.356 675.7C670.639 676.15 670.873 676.608 671.056 677.075L669.256 677.9C669.106 677.517 668.931 677.158 668.731 676.825C668.548 676.475 668.314 676.175 668.031 675.925C667.764 675.658 667.439 675.45 667.056 675.3C666.673 675.15 666.223 675.075 665.706 675.075C664.306 675.075 663.273 675.6 662.606 676.65C661.956 677.7 661.631 679.1 661.631 680.85V683.55C661.631 684.433 661.698 685.242 661.831 685.975C661.964 686.692 662.181 687.317 662.481 687.85C662.798 688.383 663.198 688.8 663.681 689.1C664.181 689.383 664.789 689.525 665.506 689.525C666.639 689.525 667.523 689.183 668.156 688.5C668.789 687.817 669.106 686.933 669.106 685.85V684.05H665.431V682.375H671.056V691H669.106V688.675ZM675.321 676.3H675.146V691H673.246V673.55H676.221L682.171 688.25H682.346V673.55H684.246V691H681.271L675.321 676.3ZM700.102 673.55H704.977C707.11 673.55 708.702 674.283 709.752 675.75C710.802 677.217 711.327 679.392 711.327 682.275C711.327 685.158 710.802 687.333 709.752 688.8C708.702 690.267 707.11 691 704.977 691H700.102V673.55ZM704.877 689.175C706.277 689.175 707.327 688.692 708.027 687.725C708.743 686.758 709.102 685.392 709.102 683.625V680.925C709.102 679.158 708.743 677.792 708.027 676.825C707.327 675.858 706.277 675.375 704.877 675.375H702.202V689.175H704.877ZM713.217 691V673.55H723.967V675.375H715.317V681.25H723.667V683.075H715.317V689.175H723.967V691H713.217ZM726.457 691V673.55H732.807C734.424 673.55 735.657 673.992 736.507 674.875C737.357 675.758 737.782 676.992 737.782 678.575C737.782 680.158 737.357 681.392 736.507 682.275C735.657 683.158 734.424 683.6 732.807 683.6H728.557V691H726.457ZM728.557 681.775H732.757C733.64 681.775 734.324 681.558 734.807 681.125C735.307 680.675 735.557 680.042 735.557 679.225V677.925C735.557 677.108 735.307 676.483 734.807 676.05C734.324 675.6 733.64 675.375 732.757 675.375H728.557V681.775ZM745.997 675.375V691H743.897V675.375H738.072V673.55H751.822V675.375H745.997Z" fill="#FFFAEE"/>
<path fill-rule="evenodd" clip-rule="evenodd" d="M538.678 639.362V645.183C538.039 645.244 537.392 645.278 536.728 645.278C525.894 645.278 517.053 636.451 517.053 625.635C517.053 614.818 525.894 606 536.728 606C537.384 606 538.039 606.034 538.678 606.095V611.916C538.039 611.822 537.392 611.778 536.728 611.778C529.077 611.778 522.841 618.013 522.841 625.635C522.841 633.256 529.086 639.491 536.728 639.491C537.384 639.491 538.039 639.439 538.678 639.353V639.362Z" fill="#FFFAEE"/>
<path fill-rule="evenodd" clip-rule="evenodd" d="M547.062 622.638H558.422V628.64H547.062C548.442 634.841 553.997 639.5 560.613 639.5C561.269 639.5 561.924 639.448 562.562 639.362V645.183C561.916 645.244 561.269 645.278 560.613 645.278C549.77 645.278 540.946 636.451 540.946 625.643C540.946 614.836 549.77 606 560.613 606C561.269 606 561.924 606.034 562.562 606.095V611.916C561.916 611.822 561.269 611.778 560.613 611.778C553.997 611.778 548.433 616.437 547.062 622.638Z" fill="#FFFAEE"/>
<path d="M441.639 606C430.81 606 422 614.81 422 625.639C422 636.468 430.81 645.278 441.639 645.278C452.468 645.278 461.278 636.468 461.278 625.639C461.278 614.81 452.468 606 441.639 606ZM459.486 625.639C459.486 635.482 451.482 643.486 441.639 643.486C431.796 643.486 423.791 635.482 423.791 625.639C423.791 615.796 431.796 607.791 441.639 607.791C451.482 607.791 459.486 615.796 459.486 625.639Z" fill="#FFFAEE"/>
<path d="M439.592 629V627.328L442.798 621.282C442.96 620.98 443.053 620.719 443.077 620.498C443.1 620.266 443.111 619.982 443.111 619.645C443.111 619.494 443.106 619.337 443.094 619.174C443.094 619 443.065 618.849 443.007 618.721C442.949 618.594 442.862 618.489 442.746 618.408C442.629 618.315 442.461 618.268 442.24 618.268C441.973 618.268 441.758 618.344 441.596 618.495C441.445 618.646 441.369 618.867 441.369 619.157V620.167H439.592V619.192C439.592 618.82 439.662 618.472 439.801 618.147C439.941 617.821 440.132 617.537 440.376 617.293C440.609 617.049 440.887 616.857 441.213 616.718C441.538 616.567 441.886 616.491 442.258 616.491C442.722 616.491 443.117 616.579 443.442 616.753C443.779 616.915 444.058 617.142 444.279 617.432C444.488 617.723 444.639 618.054 444.732 618.425C444.836 618.797 444.888 619.192 444.888 619.61C444.888 619.912 444.883 620.167 444.871 620.376C444.859 620.574 444.836 620.766 444.801 620.951C444.766 621.137 444.708 621.323 444.627 621.509C444.546 621.695 444.435 621.921 444.296 622.188L441.683 627.223H444.888V629H439.592ZM450.029 616.596L448.008 621.805L448.043 621.84C448.101 621.793 448.188 621.759 448.304 621.735C448.432 621.7 448.595 621.683 448.792 621.683C449.106 621.683 449.396 621.759 449.663 621.91C449.93 622.061 450.139 622.252 450.29 622.484C450.372 622.612 450.435 622.74 450.482 622.868C450.528 622.995 450.569 623.164 450.604 623.373C450.627 623.582 450.644 623.849 450.656 624.174C450.668 624.488 450.674 624.889 450.674 625.376C450.674 625.783 450.668 626.12 450.656 626.387C450.644 626.642 450.627 626.857 450.604 627.031C450.569 627.217 450.523 627.374 450.464 627.502C450.418 627.63 450.354 627.763 450.273 627.902C450.041 628.286 449.727 628.582 449.332 628.791C448.949 629 448.513 629.105 448.025 629.105C447.538 629.105 447.102 629 446.719 628.791C446.336 628.57 446.028 628.274 445.796 627.902C445.703 627.763 445.627 627.63 445.569 627.502C445.523 627.374 445.488 627.217 445.465 627.031C445.43 626.857 445.406 626.642 445.395 626.387C445.383 626.12 445.377 625.783 445.377 625.376C445.377 624.993 445.383 624.68 445.395 624.436C445.406 624.18 445.424 623.959 445.447 623.774C445.47 623.599 445.505 623.443 445.552 623.303C445.598 623.152 445.65 622.995 445.708 622.833L448.043 616.596H450.029ZM448.897 624.139C448.897 623.872 448.809 623.657 448.635 623.495C448.461 623.332 448.258 623.251 448.025 623.251C447.793 623.251 447.59 623.332 447.416 623.495C447.242 623.657 447.154 623.872 447.154 624.139V626.439C447.154 626.706 447.242 626.921 447.416 627.084C447.59 627.246 447.793 627.328 448.025 627.328C448.258 627.328 448.461 627.246 448.635 627.084C448.809 626.921 448.897 626.706 448.897 626.439V624.139Z" fill="#FFFAEE"/>
<path d="M623.137 606H652.92C655.538 606 657.668 608.13 657.668 610.748V640.53C657.668 643.148 655.538 645.278 652.92 645.278H623.138C620.52 645.278 618.39 643.148 618.39 640.53V610.748C618.39 608.13 620.52 606 623.138 606H623.137ZM652.92 608.69H623.138C622.003 608.69 621.08 609.613 621.08 610.748V619.858H640.81L632.54 612.173H636.493L646.204 621.201L637.61 629.193H654.978V610.748C654.978 609.613 654.055 608.69 652.92 608.69ZM623.137 642.589H652.92C654.055 642.589 654.978 641.665 654.978 640.531V631.882H637.464L645.734 639.568H641.78L632.07 630.54L640.664 622.548H621.079V640.53C621.079 641.665 622.002 642.588 623.137 642.588L623.137 642.589Z" fill="#FFFAEE"/>
<path d="M654.144 345.56C652.064 345.56 650.208 345.128 648.576 344.264C646.944 343.4 645.648 342.168 644.688 340.568C643.76 338.968 643.296 337.064 643.296 334.856C643.296 332.648 643.76 330.744 644.688 329.144C645.648 327.544 646.944 326.328 648.576 325.496C650.208 324.632 652.064 324.2 654.144 324.2C656.224 324.2 658.08 324.632 659.712 325.496C661.344 326.328 662.624 327.544 663.552 329.144C664.512 330.744 664.992 332.648 664.992 334.856C664.992 337.064 664.512 338.968 663.552 340.568C662.624 342.168 661.344 343.4 659.712 344.264C658.08 345.128 656.224 345.56 654.144 345.56ZM654.144 343.112C656.448 343.112 658.384 342.408 659.952 341C661.52 339.592 662.304 337.544 662.304 334.856C662.304 332.2 661.52 330.152 659.952 328.712C658.384 327.272 656.448 326.552 654.144 326.552C651.808 326.552 649.856 327.272 648.288 328.712C646.72 330.152 645.936 332.2 645.936 334.856C645.936 336.648 646.288 338.168 646.992 339.416C647.728 340.632 648.72 341.56 649.968 342.2C651.216 342.808 652.608 343.112 654.144 343.112ZM650.016 329.48H652.32V340.184H650.016V329.48ZM651.408 329.48H654.72C655.392 329.48 656.032 329.576 656.64 329.768C657.28 329.928 657.792 330.264 658.176 330.776C658.56 331.256 658.752 331.96 658.752 332.888C658.752 333.848 658.56 334.584 658.176 335.096C657.792 335.576 657.28 335.912 656.64 336.104C656.032 336.264 655.392 336.344 654.72 336.344H651.408V334.328H654.528C655.168 334.328 655.648 334.248 655.968 334.088C656.288 333.896 656.448 333.496 656.448 332.888C656.448 332.248 656.288 331.848 655.968 331.688C655.648 331.528 655.168 331.448 654.528 331.448H651.408V329.48ZM653.904 335.144H656.304L659.184 340.184H656.688L653.904 335.144Z" fill="#FFFAEE"/>
</svg>
