<svg width="1080" height="1080" viewBox="0 0 1080 1080" fill="none" xmlns="http://www.w3.org/2000/svg">
<rect width="1080" height="1080" fill="#191919"/>
<line x1="271.249" y1="481.151" x2="799.545" y2="481.151" stroke="#FFFAEE" stroke-width="2.49785"/>
<path d="M491.06 359L491.06 588.558" stroke="#FFFAEE" stroke-width="2.49785"/>
<line x1="565.758" y1="408.221" x2="415.627" y2="558.352" stroke="#FFFAEE" stroke-width="2.49785"/>
<path d="M589.795 521.379V510.783H593.077C594.616 510.783 595.78 511.233 596.569 512.132C597.359 513.031 597.753 514.345 597.753 516.073C597.753 517.792 597.349 519.106 596.539 520.015C595.74 520.924 594.536 521.379 592.928 521.379H589.795ZM592.853 520.6C593.862 520.6 594.656 520.42 595.236 520.06C595.815 519.69 596.23 519.166 596.48 518.486C596.729 517.807 596.854 517.003 596.854 516.073C596.854 515.134 596.729 514.33 596.48 513.661C596.24 512.981 595.835 512.462 595.266 512.102C594.706 511.742 593.942 511.562 592.973 511.562H590.694V520.6H592.853ZM601.497 521.379H600.597V510.783H601.497V521.379ZM598.964 511.562V510.783H603.115V511.562H598.964ZM598.964 521.379V520.6H603.115V521.379H598.964ZM612.172 516.883H609.16V516.103H613.071V517.302C613.071 518.052 612.922 518.751 612.622 519.401C612.332 520.04 611.877 520.555 611.258 520.944C610.649 521.334 609.859 521.529 608.89 521.529C607.441 521.529 606.317 521.059 605.518 520.12C604.729 519.171 604.334 517.822 604.334 516.073C604.334 514.325 604.729 512.981 605.518 512.042C606.317 511.103 607.441 510.633 608.89 510.633C609.579 510.633 610.204 510.753 610.763 510.993C611.323 511.223 611.793 511.572 612.172 512.042C612.552 512.512 612.812 513.111 612.952 513.84H612.022C611.862 512.981 611.508 512.367 610.958 511.997C610.419 511.627 609.729 511.442 608.89 511.442C607.711 511.442 606.807 511.812 606.177 512.551C605.548 513.291 605.233 514.465 605.233 516.073C605.233 517.672 605.548 518.846 606.177 519.595C606.807 520.345 607.711 520.719 608.89 520.719C609.499 520.719 610.004 520.635 610.404 520.465C610.803 520.285 611.123 520.05 611.363 519.76C611.603 519.471 611.778 519.156 611.887 518.816C612.007 518.476 612.082 518.137 612.112 517.797C612.152 517.457 612.172 517.153 612.172 516.883ZM616.778 521.379H615.878V510.783H616.778V521.379ZM614.245 511.562V510.783H618.396V511.562H614.245ZM614.245 521.379V520.6H618.396V521.379H614.245ZM619.195 510.783H627.019V511.562H623.557V521.379H622.657V511.562H619.195V510.783ZM630.447 511.937H630.388L627.06 521.379H626.146L629.938 510.783H630.957L634.734 521.379H633.775L630.447 511.937ZM632.86 518.202H628.02V517.422H632.86V518.202ZM635.829 510.783H636.728V520.6H641.778V521.379H635.829V510.783ZM648.024 522.158H641.55V521.379H648.024V522.158ZM648.724 521.379V510.783H652.006C653.545 510.783 654.709 511.233 655.498 512.132C656.287 513.031 656.682 514.345 656.682 516.073C656.682 517.792 656.277 519.106 655.468 520.015C654.669 520.924 653.465 521.379 651.856 521.379H648.724ZM651.781 520.6C652.79 520.6 653.585 520.42 654.164 520.06C654.744 519.69 655.158 519.166 655.408 518.486C655.658 517.807 655.783 517.003 655.783 516.073C655.783 515.134 655.658 514.33 655.408 513.661C655.168 512.981 654.764 512.462 654.194 512.102C653.635 511.742 652.87 511.562 651.901 511.562H649.623V520.6H651.781ZM658.267 510.783H664.232V511.562H659.166V515.684H663.887V516.463H659.166V520.6H664.307V521.379H658.267V510.783ZM671.633 513.076C671.553 512.457 671.279 512.027 670.809 511.787C670.349 511.547 669.74 511.427 668.981 511.427C668.111 511.427 667.467 511.597 667.047 511.937C666.628 512.267 666.418 512.756 666.418 513.406C666.418 513.785 666.488 514.095 666.628 514.335C666.778 514.575 666.967 514.77 667.197 514.919C667.427 515.059 667.672 515.174 667.932 515.264C668.191 515.344 668.431 515.414 668.651 515.474L669.805 515.789C670.095 515.869 670.409 515.969 670.749 516.088C671.089 516.208 671.409 516.373 671.708 516.583C672.018 516.793 672.268 517.063 672.458 517.392C672.647 517.722 672.742 518.132 672.742 518.621C672.742 519.181 672.608 519.685 672.338 520.135C672.068 520.585 671.653 520.939 671.094 521.199C670.534 521.449 669.82 521.574 668.951 521.574C667.792 521.574 666.902 521.339 666.283 520.869C665.663 520.4 665.314 519.765 665.234 518.966H666.163C666.223 519.446 666.378 519.815 666.628 520.075C666.877 520.335 667.197 520.52 667.587 520.63C667.987 520.729 668.441 520.779 668.951 520.779C669.87 520.779 670.579 520.605 671.079 520.255C671.588 519.895 671.843 519.341 671.843 518.591C671.843 518.142 671.733 517.787 671.513 517.527C671.304 517.267 671.019 517.063 670.659 516.913C670.31 516.763 669.93 516.633 669.52 516.523L668.081 516.133C667.262 515.904 666.628 515.584 666.178 515.174C665.738 514.765 665.519 514.2 665.519 513.481C665.519 512.891 665.659 512.387 665.938 511.967C666.228 511.537 666.633 511.208 667.152 510.978C667.682 510.748 668.306 510.633 669.026 510.633C669.725 510.633 670.324 510.738 670.824 510.948C671.334 511.148 671.733 511.432 672.023 511.802C672.323 512.162 672.493 512.586 672.533 513.076H671.633ZM676.262 521.379H675.363V510.783H676.262V521.379ZM673.73 511.562V510.783H677.881V511.562H673.73ZM673.73 521.379V520.6H677.881V521.379H673.73ZM686.938 516.883H683.926V516.103H687.837V517.302C687.837 518.052 687.687 518.751 687.388 519.401C687.098 520.04 686.643 520.555 686.024 520.944C685.414 521.334 684.625 521.529 683.656 521.529C682.207 521.529 681.083 521.059 680.284 520.12C679.494 519.171 679.1 517.822 679.1 516.073C679.1 514.325 679.494 512.981 680.284 512.042C681.083 511.103 682.207 510.633 683.656 510.633C684.345 510.633 684.97 510.753 685.529 510.993C686.089 511.223 686.558 511.572 686.938 512.042C687.318 512.512 687.577 513.111 687.717 513.84H686.788C686.628 512.981 686.274 512.367 685.724 511.997C685.185 511.627 684.495 511.442 683.656 511.442C682.477 511.442 681.573 511.812 680.943 512.551C680.314 513.291 679.999 514.465 679.999 516.073C679.999 517.672 680.314 518.846 680.943 519.595C681.573 520.345 682.477 520.719 683.656 520.719C684.265 520.719 684.77 520.635 685.17 520.465C685.569 520.285 685.889 520.05 686.129 519.76C686.369 519.471 686.543 519.156 686.653 518.816C686.773 518.476 686.848 518.137 686.878 517.797C686.918 517.457 686.938 517.153 686.938 516.883ZM697.313 521.379H696.309L690.389 512.282H690.27V521.379H689.385V510.783H690.404L696.309 519.865H696.429V510.783H697.313V521.379ZM704.493 522.158H698.019V521.379H704.493V522.158ZM708.55 511.937H708.49L705.163 521.379H704.249L708.041 510.783H709.06L712.837 521.379H711.877L708.55 511.937ZM710.963 518.202H706.122V517.422H710.963V518.202ZM718.577 516.523L721.335 521.379H720.331L717.678 516.688L718.577 516.523ZM717.408 516.238C718.118 516.238 718.667 516.148 719.057 515.969C719.447 515.789 719.721 515.524 719.881 515.174C720.041 514.825 720.121 514.395 720.121 513.885C720.121 513.366 720.041 512.936 719.881 512.596C719.721 512.257 719.447 512.002 719.057 511.832C718.667 511.652 718.118 511.562 717.408 511.562H714.831V516.238H717.408ZM717.483 517.018H714.831V521.379H713.931V510.783H717.468C718.328 510.783 719.017 510.908 719.537 511.158C720.056 511.397 720.431 511.747 720.661 512.207C720.9 512.666 721.02 513.226 721.02 513.885C721.02 514.405 720.965 514.86 720.855 515.249C720.746 515.639 720.556 515.969 720.286 516.238C720.016 516.498 719.651 516.693 719.192 516.823C718.742 516.953 718.173 517.018 717.483 517.018ZM721.288 510.783H729.111V511.562H725.649V521.379H724.75V511.562H721.288V510.783ZM732.439 521.379H731.54V510.783H732.439V521.379ZM729.906 511.562V510.783H734.058V511.562H729.906ZM729.906 521.379V520.6H734.058V521.379H729.906ZM735.945 510.783H741.985V511.562H736.845V515.684H741.491V516.463H736.845V521.379H735.945V510.783ZM745.64 511.937H745.581L742.253 521.379H741.339L745.131 510.783H746.15L749.927 521.379H748.968L745.64 511.937ZM748.053 518.202H743.213V517.422H748.053V518.202ZM757.552 513.855C757.422 513.046 757.097 512.442 756.578 512.042C756.068 511.642 755.389 511.442 754.539 511.442C753.42 511.442 752.551 511.822 751.932 512.581C751.322 513.341 751.017 514.5 751.017 516.058C751.017 517.627 751.322 518.796 751.932 519.565C752.551 520.325 753.42 520.704 754.539 520.704C755.389 520.704 756.068 520.505 756.578 520.105C757.097 519.705 757.427 519.106 757.567 518.307H758.511C758.341 519.356 757.922 520.155 757.252 520.704C756.583 521.254 755.678 521.529 754.539 521.529C753.061 521.529 751.952 521.054 751.212 520.105C750.483 519.146 750.118 517.797 750.118 516.058C750.118 514.33 750.483 512.996 751.212 512.057C751.952 511.108 753.061 510.633 754.539 510.633C755.249 510.633 755.878 510.753 756.428 510.993C756.987 511.233 757.442 511.592 757.792 512.072C758.151 512.551 758.386 513.146 758.496 513.855H757.552ZM758.598 510.783H766.421V511.562H762.959V521.379H762.06V511.562H758.598V510.783ZM772.76 513.076C772.68 512.457 772.405 512.027 771.936 511.787C771.476 511.547 770.867 511.427 770.107 511.427C769.238 511.427 768.594 511.597 768.174 511.937C767.754 512.267 767.545 512.756 767.545 513.406C767.545 513.785 767.615 514.095 767.754 514.335C767.904 514.575 768.094 514.77 768.324 514.919C768.554 515.059 768.799 515.174 769.058 515.264C769.318 515.344 769.558 515.414 769.778 515.474L770.932 515.789C771.221 515.869 771.536 515.969 771.876 516.088C772.216 516.208 772.535 516.373 772.835 516.583C773.145 516.793 773.395 517.063 773.584 517.392C773.774 517.722 773.869 518.132 773.869 518.621C773.869 519.181 773.734 519.685 773.465 520.135C773.195 520.585 772.78 520.939 772.221 521.199C771.661 521.449 770.947 521.574 770.077 521.574C768.918 521.574 768.029 521.339 767.41 520.869C766.79 520.4 766.441 519.765 766.361 518.966H767.29C767.35 519.446 767.505 519.815 767.754 520.075C768.004 520.335 768.324 520.52 768.714 520.63C769.113 520.729 769.568 520.779 770.077 520.779C770.997 520.779 771.706 520.605 772.206 520.255C772.715 519.895 772.97 519.341 772.97 518.591C772.97 518.142 772.86 517.787 772.64 517.527C772.43 517.267 772.146 517.063 771.786 516.913C771.436 516.763 771.057 516.633 770.647 516.523L769.208 516.133C768.389 515.904 767.754 515.584 767.305 515.174C766.865 514.765 766.645 514.2 766.645 513.481C766.645 512.891 766.785 512.387 767.065 511.967C767.355 511.537 767.759 511.208 768.279 510.978C768.809 510.748 769.433 510.633 770.152 510.633C770.852 510.633 771.451 510.738 771.951 510.948C772.46 511.148 772.86 511.432 773.15 511.802C773.45 512.162 773.619 512.586 773.659 513.076H772.76ZM592.838 532.979L597.139 539.379H596.06L592.193 533.609L592.838 532.979ZM590.694 539.379H589.795V528.783H590.694V539.379ZM590.47 536.456V535.212L595.76 528.783H596.854L590.47 536.456ZM601.072 539.379H600.173V528.783H601.072V539.379ZM598.539 529.562V528.783H602.691V529.562H598.539ZM598.539 539.379V538.6H602.691V539.379H598.539ZM612.507 539.379H611.503L605.583 530.282H605.463V539.379H604.579V528.783H605.598L611.503 537.865H611.623V528.783H612.507V539.379ZM614.546 528.783H620.511V529.562H615.445V533.684H620.166V534.463H615.445V538.6H620.586V539.379H614.546V528.783ZM621.2 528.783H629.024V529.562H625.562V539.379H624.662V529.562H621.2V528.783ZM632.351 539.379H631.452V528.783H632.351V539.379ZM629.818 529.562V528.783H633.97V529.562H629.818ZM629.818 539.379V538.6H633.97V539.379H629.818ZM642.622 531.855C642.492 531.046 642.168 530.442 641.648 530.042C641.139 529.642 640.459 529.442 639.61 529.442C638.491 529.442 637.622 529.822 637.002 530.581C636.393 531.341 636.088 532.5 636.088 534.058C636.088 535.627 636.393 536.796 637.002 537.565C637.622 538.325 638.491 538.704 639.61 538.704C640.459 538.704 641.139 538.505 641.648 538.105C642.168 537.705 642.497 537.106 642.637 536.307H643.581C643.412 537.356 642.992 538.155 642.323 538.704C641.653 539.254 640.749 539.529 639.61 539.529C638.131 539.529 637.022 539.054 636.283 538.105C635.553 537.146 635.189 535.797 635.189 534.058C635.189 532.33 635.553 530.996 636.283 530.057C637.022 529.108 638.131 528.633 639.61 528.633C640.319 528.633 640.949 528.753 641.498 528.993C642.058 529.233 642.512 529.592 642.862 530.072C643.222 530.551 643.457 531.146 643.566 531.855H642.622ZM650.278 540.158H643.804V539.379H650.278V540.158ZM656.733 531.076C656.653 530.457 656.378 530.027 655.909 529.787C655.449 529.547 654.84 529.427 654.08 529.427C653.211 529.427 652.566 529.597 652.147 529.937C651.727 530.267 651.517 530.756 651.517 531.406C651.517 531.785 651.587 532.095 651.727 532.335C651.877 532.575 652.067 532.77 652.297 532.919C652.527 533.059 652.771 533.174 653.031 533.264C653.291 533.344 653.531 533.414 653.75 533.474L654.904 533.789C655.194 533.869 655.509 533.969 655.849 534.088C656.188 534.208 656.508 534.373 656.808 534.583C657.118 534.793 657.367 535.063 657.557 535.392C657.747 535.722 657.842 536.132 657.842 536.621C657.842 537.181 657.707 537.685 657.437 538.135C657.168 538.585 656.753 538.939 656.193 539.199C655.634 539.449 654.919 539.574 654.05 539.574C652.891 539.574 652.002 539.339 651.382 538.869C650.763 538.4 650.413 537.765 650.333 536.966H651.263C651.323 537.446 651.477 537.815 651.727 538.075C651.977 538.335 652.297 538.52 652.686 538.63C653.086 538.729 653.541 538.779 654.05 538.779C654.969 538.779 655.679 538.605 656.178 538.255C656.688 537.895 656.943 537.341 656.943 536.591C656.943 536.142 656.833 535.787 656.613 535.527C656.403 535.267 656.118 535.063 655.759 534.913C655.409 534.763 655.029 534.633 654.62 534.523L653.181 534.133C652.362 533.904 651.727 533.584 651.278 533.174C650.838 532.765 650.618 532.2 650.618 531.481C650.618 530.891 650.758 530.387 651.038 529.967C651.328 529.537 651.732 529.208 652.252 528.978C652.781 528.748 653.406 528.633 654.125 528.633C654.825 528.633 655.424 528.738 655.924 528.948C656.433 529.148 656.833 529.432 657.123 529.802C657.422 530.162 657.592 530.586 657.632 531.076H656.733ZM658.75 528.783L661.958 534.178H662.033L665.24 528.783H666.214L662.422 534.958V539.379H661.568V534.958L657.716 528.783H658.75ZM672.585 531.076C672.505 530.457 672.23 530.027 671.76 529.787C671.301 529.547 670.691 529.427 669.932 529.427C669.063 529.427 668.418 529.597 667.999 529.937C667.579 530.267 667.369 530.756 667.369 531.406C667.369 531.785 667.439 532.095 667.579 532.335C667.729 532.575 667.919 532.77 668.149 532.919C668.378 533.059 668.623 533.174 668.883 533.264C669.143 533.344 669.382 533.414 669.602 533.474L670.756 533.789C671.046 533.869 671.361 533.969 671.7 534.088C672.04 534.208 672.36 534.373 672.66 534.583C672.969 534.793 673.219 535.063 673.409 535.392C673.599 535.722 673.694 536.132 673.694 536.621C673.694 537.181 673.559 537.685 673.289 538.135C673.019 538.585 672.605 538.939 672.045 539.199C671.486 539.449 670.771 539.574 669.902 539.574C668.743 539.574 667.854 539.339 667.234 538.869C666.615 538.4 666.265 537.765 666.185 536.966H667.114C667.174 537.446 667.329 537.815 667.579 538.075C667.829 538.335 668.149 538.52 668.538 538.63C668.938 538.729 669.392 538.779 669.902 538.779C670.821 538.779 671.531 538.605 672.03 538.255C672.54 537.895 672.795 537.341 672.795 536.591C672.795 536.142 672.685 535.787 672.465 535.527C672.255 535.267 671.97 535.063 671.611 534.913C671.261 534.763 670.881 534.633 670.472 534.523L669.033 534.133C668.213 533.904 667.579 533.584 667.129 533.174C666.69 532.765 666.47 532.2 666.47 531.481C666.47 530.891 666.61 530.387 666.89 529.967C667.179 529.537 667.584 529.208 668.104 528.978C668.633 528.748 669.258 528.633 669.977 528.633C670.676 528.633 671.276 528.738 671.775 528.948C672.285 529.148 672.685 529.432 672.974 529.802C673.274 530.162 673.444 530.586 673.484 531.076H672.585ZM673.557 528.783H681.38V529.562H677.918V539.379H677.019V529.562H673.557V528.783ZM682.155 528.783H688.119V529.562H683.054V533.684H687.775V534.463H683.054V538.6H688.194V539.379H682.155V528.783ZM690.841 528.783L694.738 537.865H694.843L698.74 528.783H699.639V539.379H698.77V530.926H698.695L695.023 539.379H694.513L690.841 530.926H690.781V539.379H689.912V528.783H690.841ZM707.435 531.076C707.355 530.457 707.08 530.027 706.611 529.787C706.151 529.547 705.542 529.427 704.782 529.427C703.913 529.427 703.269 529.597 702.849 529.937C702.429 530.267 702.22 530.756 702.22 531.406C702.22 531.785 702.289 532.095 702.429 532.335C702.579 532.575 702.769 532.77 702.999 532.919C703.229 533.059 703.473 533.174 703.733 533.264C703.993 533.344 704.233 533.414 704.453 533.474L705.607 533.789C705.896 533.869 706.211 533.969 706.551 534.088C706.89 534.208 707.21 534.373 707.51 534.583C707.82 534.793 708.069 535.063 708.259 535.392C708.449 535.722 708.544 536.132 708.544 536.621C708.544 537.181 708.409 537.685 708.139 538.135C707.87 538.585 707.455 538.939 706.895 539.199C706.336 539.449 705.622 539.574 704.752 539.574C703.593 539.574 702.704 539.339 702.085 538.869C701.465 538.4 701.115 537.765 701.036 536.966H701.965C702.025 537.446 702.18 537.815 702.429 538.075C702.679 538.335 702.999 538.52 703.389 538.63C703.788 538.729 704.243 538.779 704.752 538.779C705.672 538.779 706.381 538.605 706.881 538.255C707.39 537.895 707.645 537.341 707.645 536.591C707.645 536.142 707.535 535.787 707.315 535.527C707.105 535.267 706.821 535.063 706.461 534.913C706.111 534.763 705.731 534.633 705.322 534.523L703.883 534.133C703.064 533.904 702.429 533.584 701.98 533.174C701.54 532.765 701.32 532.2 701.32 531.481C701.32 530.891 701.46 530.387 701.74 529.967C702.03 529.537 702.434 529.208 702.954 528.978C703.483 528.748 704.108 528.633 704.827 528.633C705.527 528.633 706.126 528.738 706.626 528.948C707.135 529.148 707.535 529.432 707.825 529.802C708.124 530.162 708.294 530.586 708.334 531.076H707.435ZM589.795 546.783H593.332C594.181 546.783 594.866 546.918 595.385 547.188C595.905 547.447 596.285 547.817 596.524 548.297C596.764 548.776 596.884 549.346 596.884 550.005C596.884 550.665 596.764 551.239 596.524 551.729C596.285 552.218 595.905 552.598 595.385 552.868C594.876 553.138 594.201 553.272 593.362 553.272H590.694V557.379H589.795V546.783ZM593.302 552.493C594.002 552.493 594.546 552.393 594.936 552.193C595.325 551.984 595.595 551.694 595.745 551.324C595.905 550.944 595.985 550.505 595.985 550.005C595.985 549.496 595.905 549.061 595.745 548.701C595.595 548.332 595.325 548.052 594.936 547.862C594.546 547.662 593.992 547.562 593.272 547.562H590.694V552.493H593.302ZM600.179 557.379H599.28V546.783H600.179V557.379ZM597.647 547.562V546.783H601.798V547.562H597.647ZM597.647 557.379V556.6H601.798V557.379H597.647ZM607.444 551.564L610.532 546.783H611.521L608.029 552.193L607.444 551.564ZM607.639 552.493L604.522 557.379H603.533L607.04 551.879L607.639 552.493ZM606.95 552.118L603.518 546.783H604.567L607.579 551.429L608.059 552.029L611.581 557.379H610.502L607.339 552.418L606.95 552.118ZM612.966 546.783H618.93V547.562H613.865V551.684H618.586V552.463H613.865V556.6H619.005V557.379H612.966V546.783ZM620.723 546.783H621.622V556.6H626.673V557.379H620.723V546.783ZM633.123 549.076C633.044 548.457 632.769 548.027 632.299 547.787C631.84 547.547 631.23 547.427 630.471 547.427C629.602 547.427 628.957 547.597 628.537 547.937C628.118 548.267 627.908 548.756 627.908 549.406C627.908 549.785 627.978 550.095 628.118 550.335C628.268 550.575 628.457 550.77 628.687 550.919C628.917 551.059 629.162 551.174 629.422 551.264C629.681 551.344 629.921 551.414 630.141 551.474L631.295 551.789C631.585 551.869 631.9 551.969 632.239 552.088C632.579 552.208 632.899 552.373 633.198 552.583C633.508 552.793 633.758 553.063 633.948 553.392C634.138 553.722 634.233 554.132 634.233 554.621C634.233 555.181 634.098 555.685 633.828 556.135C633.558 556.585 633.143 556.939 632.584 557.199C632.024 557.449 631.31 557.574 630.441 557.574C629.282 557.574 628.393 557.339 627.773 556.869C627.154 556.4 626.804 555.765 626.724 554.966H627.653C627.713 555.446 627.868 555.815 628.118 556.075C628.368 556.335 628.687 556.52 629.077 556.63C629.477 556.729 629.931 556.779 630.441 556.779C631.36 556.779 632.069 556.605 632.569 556.255C633.079 555.895 633.333 555.341 633.333 554.591C633.333 554.142 633.223 553.787 633.004 553.527C632.794 553.267 632.509 553.063 632.149 552.913C631.8 552.763 631.42 552.633 631.01 552.523L629.572 552.133C628.752 551.904 628.118 551.584 627.668 551.174C627.229 550.765 627.009 550.2 627.009 549.481C627.009 548.891 627.149 548.387 627.428 547.967C627.718 547.537 628.123 547.208 628.642 546.978C629.172 546.748 629.796 546.633 630.516 546.633C631.215 546.633 631.815 546.738 632.314 546.948C632.824 547.148 633.223 547.432 633.513 547.802C633.813 548.162 633.983 548.586 634.023 549.076H633.123ZM640.618 558.158H634.143V557.379H640.618V558.158ZM641.318 546.783H647.357V547.562H642.217V551.684H646.863V552.463H642.217V557.379H641.318V546.783ZM656.972 552.073C656.972 553.822 656.592 555.171 655.833 556.12C655.083 557.059 653.979 557.529 652.521 557.529C651.062 557.529 649.953 557.059 649.193 556.12C648.444 555.171 648.069 553.822 648.069 552.073C648.069 550.325 648.444 548.981 649.193 548.042C649.953 547.103 651.062 546.633 652.521 546.633C653.979 546.633 655.083 547.103 655.833 548.042C656.592 548.981 656.972 550.325 656.972 552.073ZM656.073 552.073C656.073 550.485 655.778 549.316 655.188 548.566C654.609 547.817 653.72 547.442 652.521 547.442C651.322 547.442 650.427 547.817 649.838 548.566C649.258 549.316 648.969 550.485 648.969 552.073C648.969 553.662 649.258 554.836 649.838 555.595C650.427 556.345 651.322 556.719 652.521 556.719C653.72 556.719 654.609 556.345 655.188 555.595C655.778 554.836 656.073 553.662 656.073 552.073ZM663.206 552.523L665.963 557.379H664.959L662.307 552.688L663.206 552.523ZM662.037 552.238C662.746 552.238 663.296 552.148 663.685 551.969C664.075 551.789 664.35 551.524 664.51 551.174C664.67 550.825 664.749 550.395 664.749 549.885C664.749 549.366 664.67 548.936 664.51 548.596C664.35 548.257 664.075 548.002 663.685 547.832C663.296 547.652 662.746 547.562 662.037 547.562H659.459V552.238H662.037ZM662.112 553.018H659.459V557.379H658.56V546.783H662.097C662.956 546.783 663.645 546.908 664.165 547.158C664.685 547.397 665.059 547.747 665.289 548.207C665.529 548.666 665.649 549.226 665.649 549.885C665.649 550.405 665.594 550.86 665.484 551.249C665.374 551.639 665.184 551.969 664.914 552.238C664.645 552.498 664.28 552.693 663.82 552.823C663.371 552.953 662.801 553.018 662.112 553.018ZM668.183 546.783L672.08 555.865H672.185L676.082 546.783H676.981V557.379H676.111V548.926H676.037L672.365 557.379H671.855L668.183 548.926H668.123V557.379H667.254V546.783H668.183Z" fill="#FFFAEE"/>
<path d="M278.323 626.728C278.243 626.109 277.968 625.679 277.499 625.439C277.039 625.2 276.429 625.08 275.67 625.08C274.801 625.08 274.156 625.25 273.737 625.589C273.317 625.919 273.107 626.409 273.107 627.058C273.107 627.438 273.177 627.748 273.317 627.987C273.467 628.227 273.657 628.422 273.887 628.572C274.116 628.712 274.361 628.827 274.621 628.917C274.881 628.996 275.121 629.066 275.34 629.126L276.494 629.441C276.784 629.521 277.099 629.621 277.439 629.741C277.778 629.861 278.098 630.026 278.398 630.235C278.708 630.445 278.957 630.715 279.147 631.045C279.337 631.374 279.432 631.784 279.432 632.274C279.432 632.833 279.297 633.338 279.027 633.787C278.757 634.237 278.343 634.592 277.783 634.851C277.224 635.101 276.509 635.226 275.64 635.226C274.481 635.226 273.592 634.991 272.972 634.522C272.353 634.052 272.003 633.418 271.923 632.618H272.853C272.913 633.098 273.067 633.468 273.317 633.727C273.567 633.987 273.887 634.172 274.276 634.282C274.676 634.382 275.131 634.432 275.64 634.432C276.559 634.432 277.269 634.257 277.768 633.907C278.278 633.548 278.533 632.993 278.533 632.244C278.533 631.794 278.423 631.439 278.203 631.18C277.993 630.92 277.708 630.715 277.349 630.565C276.999 630.415 276.619 630.285 276.21 630.175L274.771 629.786C273.952 629.556 273.317 629.236 272.868 628.827C272.428 628.417 272.208 627.852 272.208 627.133C272.208 626.544 272.348 626.039 272.628 625.619C272.917 625.19 273.322 624.86 273.842 624.63C274.371 624.4 274.996 624.285 275.715 624.285C276.414 624.285 277.014 624.39 277.514 624.6C278.023 624.8 278.423 625.085 278.713 625.454C279.012 625.814 279.182 626.239 279.222 626.728H278.323ZM280.34 624.435L283.548 629.831H283.623L286.83 624.435H287.804L284.012 630.61V635.031H283.158V630.61L279.306 624.435H280.34ZM294.175 626.728C294.095 626.109 293.82 625.679 293.35 625.439C292.891 625.2 292.281 625.08 291.522 625.08C290.653 625.08 290.008 625.25 289.589 625.589C289.169 625.919 288.959 626.409 288.959 627.058C288.959 627.438 289.029 627.748 289.169 627.987C289.319 628.227 289.509 628.422 289.738 628.572C289.968 628.712 290.213 628.827 290.473 628.917C290.733 628.996 290.972 629.066 291.192 629.126L292.346 629.441C292.636 629.521 292.951 629.621 293.29 629.741C293.63 629.861 293.95 630.026 294.25 630.235C294.559 630.445 294.809 630.715 294.999 631.045C295.189 631.374 295.284 631.784 295.284 632.274C295.284 632.833 295.149 633.338 294.879 633.787C294.609 634.237 294.195 634.592 293.635 634.851C293.076 635.101 292.361 635.226 291.492 635.226C290.333 635.226 289.444 634.991 288.824 634.522C288.205 634.052 287.855 633.418 287.775 632.618H288.704C288.764 633.098 288.919 633.468 289.169 633.727C289.419 633.987 289.738 634.172 290.128 634.282C290.528 634.382 290.982 634.432 291.492 634.432C292.411 634.432 293.121 634.257 293.62 633.907C294.13 633.548 294.384 632.993 294.384 632.244C294.384 631.794 294.275 631.439 294.055 631.18C293.845 630.92 293.56 630.715 293.201 630.565C292.851 630.415 292.471 630.285 292.061 630.175L290.623 629.786C289.803 629.556 289.169 629.236 288.719 628.827C288.28 628.417 288.06 627.852 288.06 627.133C288.06 626.544 288.2 626.039 288.48 625.619C288.769 625.19 289.174 624.86 289.694 624.63C290.223 624.4 290.848 624.285 291.567 624.285C292.266 624.285 292.866 624.39 293.365 624.6C293.875 624.8 294.275 625.085 294.564 625.454C294.864 625.814 295.034 626.239 295.074 626.728H294.175ZM295.147 624.435H302.97V625.215H299.508V635.031H298.609V625.215H295.147V624.435ZM303.745 624.435H309.709V625.215H304.644V629.336H309.365V630.115H304.644V634.252H309.784V635.031H303.745V624.435ZM312.431 624.435L316.328 633.518H316.433L320.33 624.435H321.229V635.031H320.36V626.579H320.285L316.613 635.031H316.103L312.431 626.579H312.371V635.031H311.502V624.435H312.431ZM329.025 626.728C328.945 626.109 328.67 625.679 328.201 625.439C327.741 625.2 327.132 625.08 326.372 625.08C325.503 625.08 324.859 625.25 324.439 625.589C324.019 625.919 323.809 626.409 323.809 627.058C323.809 627.438 323.879 627.748 324.019 627.987C324.169 628.227 324.359 628.422 324.589 628.572C324.819 628.712 325.063 628.827 325.323 628.917C325.583 628.996 325.823 629.066 326.043 629.126L327.197 629.441C327.486 629.521 327.801 629.621 328.141 629.741C328.48 629.861 328.8 630.026 329.1 630.235C329.41 630.445 329.659 630.715 329.849 631.045C330.039 631.374 330.134 631.784 330.134 632.274C330.134 632.833 329.999 633.338 329.729 633.787C329.46 634.237 329.045 634.592 328.485 634.851C327.926 635.101 327.212 635.226 326.342 635.226C325.183 635.226 324.294 634.991 323.675 634.522C323.055 634.052 322.705 633.418 322.625 632.618H323.555C323.615 633.098 323.77 633.468 324.019 633.727C324.269 633.987 324.589 634.172 324.978 634.282C325.378 634.382 325.833 634.432 326.342 634.432C327.262 634.432 327.971 634.257 328.47 633.907C328.98 633.548 329.235 632.993 329.235 632.244C329.235 631.794 329.125 631.439 328.905 631.18C328.695 630.92 328.411 630.715 328.051 630.565C327.701 630.415 327.321 630.285 326.912 630.175L325.473 629.786C324.654 629.556 324.019 629.236 323.57 628.827C323.13 628.417 322.91 627.852 322.91 627.133C322.91 626.544 323.05 626.039 323.33 625.619C323.62 625.19 324.024 624.86 324.544 624.63C325.073 624.4 325.698 624.285 326.417 624.285C327.117 624.285 327.716 624.39 328.216 624.6C328.725 624.8 329.125 625.085 329.415 625.454C329.714 625.814 329.884 626.239 329.924 626.728H329.025ZM279.087 645.748C279.087 646.137 279.032 646.512 278.922 646.872C278.822 647.231 278.663 647.621 278.443 648.041C278.223 648.46 277.928 648.95 277.559 649.509L275.25 653.031H274.201L277.588 648.026L277.693 648.31C277.434 648.48 277.199 648.62 276.989 648.73C276.789 648.84 276.589 648.92 276.39 648.97C276.19 649.02 275.955 649.045 275.685 649.045C274.956 649.045 274.336 648.915 273.827 648.655C273.317 648.385 272.927 648.001 272.658 647.501C272.398 646.991 272.268 646.382 272.268 645.673C272.268 644.993 272.398 644.399 272.658 643.889C272.917 643.38 273.302 642.985 273.812 642.705C274.321 642.425 274.946 642.285 275.685 642.285C276.814 642.285 277.663 642.605 278.233 643.245C278.812 643.874 279.097 644.708 279.087 645.748ZM278.233 645.673C278.233 644.873 278.033 644.244 277.633 643.784C277.234 643.325 276.584 643.095 275.685 643.095C274.796 643.095 274.151 643.325 273.752 643.784C273.352 644.244 273.152 644.873 273.152 645.673C273.152 646.472 273.352 647.096 273.752 647.546C274.161 647.996 274.806 648.22 275.685 648.22C276.484 648.22 277.109 647.996 277.559 647.546C278.008 647.096 278.233 646.472 278.233 645.673ZM280.809 644.504H282.143V645.897H280.809V644.504ZM280.809 650.798H282.143V652.192H280.809V650.798ZM287.382 653.031H286.483V643.035L286.797 643.11L283.785 645.148V644.204L286.378 642.435H287.382V653.031ZM290.638 649.704C290.648 649.314 290.693 648.935 290.773 648.565C290.863 648.195 291.018 647.801 291.238 647.381C291.467 646.961 291.782 646.482 292.182 645.942L294.805 642.435H295.869L292.317 647.141L292.197 647.006C292.407 646.877 292.596 646.772 292.766 646.692C292.936 646.602 293.121 646.537 293.321 646.497C293.521 646.447 293.765 646.422 294.055 646.422C294.785 646.422 295.404 646.557 295.914 646.827C296.423 647.086 296.808 647.466 297.068 647.966C297.337 648.465 297.472 649.07 297.472 649.779C297.472 650.458 297.342 651.053 297.083 651.563C296.823 652.072 296.438 652.472 295.929 652.761C295.419 653.041 294.795 653.181 294.055 653.181C292.936 653.181 292.082 652.866 291.492 652.237C290.913 651.597 290.628 650.753 290.638 649.704ZM291.522 649.779C291.522 650.578 291.717 651.218 292.107 651.697C292.507 652.167 293.156 652.402 294.055 652.402C294.944 652.402 295.589 652.167 295.989 651.697C296.388 651.218 296.588 650.578 296.588 649.779C296.588 648.98 296.388 648.35 295.989 647.891C295.589 647.431 294.944 647.201 294.055 647.201C293.256 647.201 292.631 647.431 292.182 647.891C291.742 648.35 291.522 648.98 291.522 649.779Z" fill="#FFFAEE"/>
<path d="M428.684 624.435H429.583V634.252H434.634V635.031H428.684V624.435ZM439.096 625.589H439.036L435.709 635.031H434.795L438.586 624.435H439.605L443.382 635.031H442.423L439.096 625.589ZM441.509 631.854H436.668V631.075H441.509V631.854ZM443.292 624.435L446.499 629.831H446.574L449.781 624.435H450.755L446.964 630.61V635.031H446.109V630.61L442.258 624.435H443.292ZM459.604 629.726C459.604 631.474 459.225 632.823 458.465 633.772C457.716 634.712 456.612 635.181 455.153 635.181C453.694 635.181 452.585 634.712 451.826 633.772C451.077 632.823 450.702 631.474 450.702 629.726C450.702 627.977 451.077 626.633 451.826 625.694C452.585 624.755 453.694 624.285 455.153 624.285C456.612 624.285 457.716 624.755 458.465 625.694C459.225 626.633 459.604 627.977 459.604 629.726ZM458.705 629.726C458.705 628.137 458.41 626.968 457.821 626.219C457.241 625.469 456.352 625.095 455.153 625.095C453.954 625.095 453.06 625.469 452.47 626.219C451.891 626.968 451.601 628.137 451.601 629.726C451.601 631.314 451.891 632.488 452.47 633.248C453.06 633.997 453.954 634.372 455.153 634.372C456.352 634.372 457.241 633.997 457.821 633.248C458.41 632.488 458.705 631.314 458.705 629.726ZM468.851 624.435V631.644C468.851 632.344 468.716 632.963 468.446 633.503C468.186 634.042 467.777 634.467 467.217 634.776C466.658 635.076 465.923 635.226 465.014 635.226C464.115 635.226 463.38 635.076 462.811 634.776C462.251 634.467 461.837 634.042 461.567 633.503C461.307 632.963 461.177 632.344 461.177 631.644V624.435H462.077V631.509C462.077 632.099 462.166 632.613 462.346 633.053C462.526 633.493 462.831 633.832 463.26 634.072C463.69 634.302 464.275 634.417 465.014 634.417C465.763 634.417 466.348 634.302 466.767 634.072C467.197 633.832 467.502 633.493 467.682 633.053C467.862 632.613 467.951 632.099 467.951 631.509V624.435H468.851ZM469.603 624.435H477.426V625.215H473.964V635.031H473.065V625.215H469.603V624.435ZM483.765 626.728C483.685 626.109 483.41 625.679 482.941 625.439C482.481 625.2 481.872 625.08 481.112 625.08C480.243 625.08 479.599 625.25 479.179 625.589C478.759 625.919 478.55 626.409 478.55 627.058C478.55 627.438 478.62 627.748 478.759 627.987C478.909 628.227 479.099 628.422 479.329 628.572C479.559 628.712 479.804 628.827 480.063 628.917C480.323 628.996 480.563 629.066 480.783 629.126L481.937 629.441C482.226 629.521 482.541 629.621 482.881 629.741C483.221 629.861 483.54 630.026 483.84 630.235C484.15 630.445 484.4 630.715 484.589 631.045C484.779 631.374 484.874 631.784 484.874 632.274C484.874 632.833 484.739 633.338 484.469 633.787C484.2 634.237 483.785 634.592 483.226 634.851C482.666 635.101 481.952 635.226 481.082 635.226C479.923 635.226 479.034 634.991 478.415 634.522C477.795 634.052 477.446 633.418 477.366 632.618H478.295C478.355 633.098 478.51 633.468 478.759 633.727C479.009 633.987 479.329 634.172 479.719 634.282C480.118 634.382 480.573 634.432 481.082 634.432C482.002 634.432 482.711 634.257 483.211 633.907C483.72 633.548 483.975 632.993 483.975 632.244C483.975 631.794 483.865 631.439 483.645 631.18C483.435 630.92 483.151 630.715 482.791 630.565C482.441 630.415 482.062 630.285 481.652 630.175L480.213 629.786C479.394 629.556 478.759 629.236 478.31 628.827C477.87 628.417 477.65 627.852 477.65 627.133C477.65 626.544 477.79 626.039 478.07 625.619C478.36 625.19 478.764 624.86 479.284 624.63C479.813 624.4 480.438 624.285 481.157 624.285C481.857 624.285 482.456 624.39 482.956 624.6C483.465 624.8 483.865 625.085 484.155 625.454C484.455 625.814 484.624 626.239 484.664 626.728H483.765ZM433.824 643.02L428.729 650.319L428.534 649.884H435.877V650.663H428.009V649.914L433.255 642.435H434.394V653.031H433.51V642.915L433.824 643.02ZM437.262 644.504H438.595V645.897H437.262V644.504ZM437.262 650.798H438.595V652.192H437.262V650.798ZM443.804 653.181C443.125 653.181 442.535 653.076 442.036 652.866C441.536 652.647 441.147 652.332 440.867 651.922C440.587 651.513 440.427 651.018 440.387 650.438H441.301C441.341 651.088 441.581 651.577 442.021 651.907C442.46 652.237 443.055 652.402 443.804 652.402C444.694 652.402 445.343 652.157 445.753 651.667C446.172 651.168 446.382 650.553 446.382 649.824C446.382 649.334 446.297 648.895 446.127 648.505C445.967 648.105 445.703 647.791 445.333 647.561C444.963 647.321 444.469 647.201 443.849 647.201C443.31 647.191 442.845 647.291 442.455 647.501C442.076 647.701 441.771 647.986 441.541 648.355H440.597L441.301 642.435H446.757V643.215H442.081L441.586 647.426H441.631C441.831 647.106 442.121 646.862 442.5 646.692C442.88 646.512 443.305 646.422 443.774 646.422C444.544 646.422 445.183 646.572 445.693 646.872C446.212 647.171 446.602 647.576 446.862 648.085C447.131 648.585 447.266 649.155 447.266 649.794C447.266 650.453 447.126 651.038 446.847 651.548C446.567 652.057 446.167 652.457 445.648 652.746C445.138 653.036 444.524 653.181 443.804 653.181Z" fill="#FFFAEE"/>
<path d="M588.277 633.997H588.367L591.859 624.435H592.803L588.936 635.031H587.692L583.84 624.435H584.8L588.277 633.997ZM593.889 624.435H599.854V625.215H594.788V629.336H599.509V630.115H594.788V634.252H599.929V635.031H593.889V624.435ZM608.294 627.508C608.164 626.698 607.839 626.094 607.32 625.694C606.81 625.295 606.131 625.095 605.282 625.095C604.163 625.095 603.293 625.474 602.674 626.234C602.064 626.993 601.76 628.152 601.76 629.711C601.76 631.279 602.064 632.448 602.674 633.218C603.293 633.977 604.163 634.357 605.282 634.357C606.131 634.357 606.81 634.157 607.32 633.757C607.839 633.358 608.169 632.758 608.309 631.959H609.253C609.083 633.008 608.664 633.807 607.994 634.357C607.325 634.906 606.421 635.181 605.282 635.181C603.803 635.181 602.694 634.707 601.954 633.757C601.225 632.798 600.86 631.449 600.86 629.711C600.86 627.982 601.225 626.648 601.954 625.709C602.694 624.76 603.803 624.285 605.282 624.285C605.991 624.285 606.62 624.405 607.17 624.645C607.729 624.885 608.184 625.245 608.534 625.724C608.893 626.204 609.128 626.798 609.238 627.508H608.294ZM609.34 624.435H617.163V625.215H613.701V635.031H612.802V625.215H609.34V624.435ZM626.024 629.726C626.024 631.474 625.645 632.823 624.885 633.772C624.136 634.712 623.032 635.181 621.573 635.181C620.114 635.181 619.005 634.712 618.246 633.772C617.497 632.823 617.122 631.474 617.122 629.726C617.122 627.977 617.497 626.633 618.246 625.694C619.005 624.755 620.114 624.285 621.573 624.285C623.032 624.285 624.136 624.755 624.885 625.694C625.645 626.633 626.024 627.977 626.024 629.726ZM625.125 629.726C625.125 628.137 624.83 626.968 624.241 626.219C623.661 625.469 622.772 625.095 621.573 625.095C620.374 625.095 619.48 625.469 618.89 626.219C618.311 626.968 618.021 628.137 618.021 629.726C618.021 631.314 618.311 632.488 618.89 633.248C619.48 633.997 620.374 634.372 621.573 634.372C622.772 634.372 623.661 633.997 624.241 633.248C624.83 632.488 625.125 631.314 625.125 629.726ZM632.258 630.175L635.016 635.031H634.012L631.359 630.34L632.258 630.175ZM631.089 629.891C631.799 629.891 632.348 629.801 632.738 629.621C633.128 629.441 633.402 629.176 633.562 628.827C633.722 628.477 633.802 628.047 633.802 627.538C633.802 627.018 633.722 626.589 633.562 626.249C633.402 625.909 633.128 625.654 632.738 625.484C632.348 625.305 631.799 625.215 631.089 625.215H628.512V629.891H631.089ZM631.164 630.67H628.512V635.031H627.612V624.435H631.149C632.009 624.435 632.698 624.56 633.218 624.81C633.737 625.05 634.112 625.4 634.342 625.859C634.581 626.319 634.701 626.878 634.701 627.538C634.701 628.057 634.646 628.512 634.536 628.902C634.427 629.291 634.237 629.621 633.967 629.891C633.697 630.15 633.332 630.345 632.873 630.475C632.423 630.605 631.854 630.67 631.164 630.67ZM642.062 626.728C641.982 626.109 641.707 625.679 641.237 625.439C640.778 625.2 640.168 625.08 639.409 625.08C638.54 625.08 637.895 625.25 637.476 625.589C637.056 625.919 636.846 626.409 636.846 627.058C636.846 627.438 636.916 627.748 637.056 627.987C637.206 628.227 637.396 628.422 637.626 628.572C637.855 628.712 638.1 628.827 638.36 628.917C638.62 628.996 638.86 629.066 639.079 629.126L640.233 629.441C640.523 629.521 640.838 629.621 641.178 629.741C641.517 629.861 641.837 630.026 642.137 630.235C642.446 630.445 642.696 630.715 642.886 631.045C643.076 631.374 643.171 631.784 643.171 632.274C643.171 632.833 643.036 633.338 642.766 633.787C642.496 634.237 642.082 634.592 641.522 634.851C640.963 635.101 640.248 635.226 639.379 635.226C638.22 635.226 637.331 634.991 636.711 634.522C636.092 634.052 635.742 633.418 635.662 632.618H636.591C636.651 633.098 636.806 633.468 637.056 633.727C637.306 633.987 637.626 634.172 638.015 634.282C638.415 634.382 638.869 634.432 639.379 634.432C640.298 634.432 641.008 634.257 641.507 633.907C642.017 633.548 642.272 632.993 642.272 632.244C642.272 631.794 642.162 631.439 641.942 631.18C641.732 630.92 641.447 630.715 641.088 630.565C640.738 630.415 640.358 630.285 639.949 630.175L638.51 629.786C637.691 629.556 637.056 629.236 636.606 628.827C636.167 628.417 635.947 627.852 635.947 627.133C635.947 626.544 636.087 626.039 636.367 625.619C636.656 625.19 637.061 624.86 637.581 624.63C638.11 624.4 638.735 624.285 639.454 624.285C640.153 624.285 640.753 624.39 641.252 624.6C641.762 624.8 642.162 625.085 642.451 625.454C642.751 625.814 642.921 626.239 642.961 626.728H642.062ZM587.962 653.181C587.272 653.181 586.668 653.076 586.148 652.866C585.639 652.657 585.239 652.337 584.949 651.907C584.66 651.478 584.495 650.938 584.455 650.289H585.429C585.449 650.758 585.564 651.153 585.774 651.473C585.994 651.782 586.288 652.017 586.658 652.177C587.028 652.327 587.467 652.402 587.977 652.402C588.756 652.402 589.386 652.192 589.865 651.772C590.345 651.343 590.585 650.728 590.585 649.929C590.585 649.16 590.35 648.56 589.88 648.13C589.421 647.701 588.776 647.486 587.947 647.486H586.778L586.763 646.842L590.375 642.87L590.45 643.215H584.89V642.435H591.229V643.155L587.767 646.946V646.722C588.506 646.712 589.116 646.807 589.595 647.006C590.075 647.196 590.45 647.456 590.719 647.786C590.999 648.105 591.194 648.455 591.304 648.835C591.424 649.205 591.484 649.569 591.484 649.929C591.484 650.628 591.339 651.223 591.049 651.712C590.759 652.192 590.35 652.557 589.82 652.806C589.301 653.056 588.681 653.181 587.962 653.181ZM593.143 644.504H594.477V645.897H593.143V644.504ZM593.143 650.798H594.477V652.192H593.143V650.798ZM601.679 643.02L596.584 650.319L596.389 649.884H603.733V650.663H595.864V649.914L601.11 642.435H602.249V653.031H601.365V642.915L601.679 643.02Z" fill="#FFFAEE"/>
<path d="M741.845 624.435L745.741 633.518H745.846L749.743 624.435H750.642V635.031H749.773V626.579H749.698L746.026 635.031H745.516L741.845 626.579H741.785V635.031H740.915V624.435H741.845ZM761.136 629.726C761.136 631.474 760.756 632.823 759.997 633.772C759.248 634.712 758.144 635.181 756.685 635.181C755.226 635.181 754.117 634.712 753.358 633.772C752.608 632.823 752.234 631.474 752.234 629.726C752.234 627.977 752.608 626.633 753.358 625.694C754.117 624.755 755.226 624.285 756.685 624.285C758.144 624.285 759.248 624.755 759.997 625.694C760.756 626.633 761.136 627.977 761.136 629.726ZM760.237 629.726C760.237 628.137 759.942 626.968 759.353 626.219C758.773 625.469 757.884 625.095 756.685 625.095C755.486 625.095 754.592 625.469 754.002 626.219C753.423 626.968 753.133 628.137 753.133 629.726C753.133 631.314 753.423 632.488 754.002 633.248C754.592 633.997 755.486 634.372 756.685 634.372C757.884 634.372 758.773 633.997 759.353 633.248C759.942 632.488 760.237 631.314 760.237 629.726ZM769.796 627.508C769.666 626.698 769.341 626.094 768.822 625.694C768.312 625.295 767.633 625.095 766.783 625.095C765.664 625.095 764.795 625.474 764.176 626.234C763.566 626.993 763.261 628.152 763.261 629.711C763.261 631.279 763.566 632.448 764.176 633.218C764.795 633.977 765.664 634.357 766.783 634.357C767.633 634.357 768.312 634.157 768.822 633.757C769.341 633.358 769.671 632.758 769.811 631.959H770.755C770.585 633.008 770.166 633.807 769.496 634.357C768.827 634.906 767.922 635.181 766.783 635.181C765.305 635.181 764.196 634.707 763.456 633.757C762.727 632.798 762.362 631.449 762.362 629.711C762.362 627.982 762.727 626.648 763.456 625.709C764.196 624.76 765.305 624.285 766.783 624.285C767.493 624.285 768.122 624.405 768.672 624.645C769.231 624.885 769.686 625.245 770.036 625.724C770.395 626.204 770.63 626.798 770.74 627.508H769.796ZM775.353 628.632L779.655 635.031H778.576L774.709 629.261L775.353 628.632ZM773.21 635.031H772.311V624.435H773.21V635.031ZM772.986 632.109V630.865L778.276 624.435H779.37L772.986 632.109ZM788.313 624.435V631.644C788.313 632.344 788.178 632.963 787.908 633.503C787.648 634.042 787.238 634.467 786.679 634.776C786.119 635.076 785.385 635.226 784.476 635.226C783.577 635.226 782.842 635.076 782.273 634.776C781.713 634.467 781.299 634.042 781.029 633.503C780.769 632.963 780.639 632.344 780.639 631.644V624.435H781.538V631.509C781.538 632.099 781.628 632.613 781.808 633.053C781.988 633.493 782.293 633.832 782.722 634.072C783.152 634.302 783.736 634.417 784.476 634.417C785.225 634.417 785.81 634.302 786.229 634.072C786.659 633.832 786.964 633.493 787.144 633.053C787.323 632.613 787.413 632.099 787.413 631.509V624.435H788.313ZM790.329 624.435H793.866C794.715 624.435 795.4 624.57 795.919 624.84C796.439 625.1 796.818 625.469 797.058 625.949C797.298 626.429 797.418 626.998 797.418 627.658C797.418 628.317 797.298 628.892 797.058 629.381C796.818 629.871 796.439 630.25 795.919 630.52C795.41 630.79 794.735 630.925 793.896 630.925H791.228V635.031H790.329V624.435ZM793.836 630.145C794.535 630.145 795.08 630.046 795.47 629.846C795.859 629.636 796.129 629.346 796.279 628.976C796.439 628.597 796.519 628.157 796.519 627.658C796.519 627.148 796.439 626.713 796.279 626.354C796.129 625.984 795.859 625.704 795.47 625.514C795.08 625.315 794.525 625.215 793.806 625.215H791.228V630.145H793.836ZM804.339 626.728C804.259 626.109 803.985 625.679 803.515 625.439C803.055 625.2 802.446 625.08 801.687 625.08C800.817 625.08 800.173 625.25 799.753 625.589C799.334 625.919 799.124 626.409 799.124 627.058C799.124 627.438 799.194 627.748 799.334 627.987C799.483 628.227 799.673 628.422 799.903 628.572C800.133 628.712 800.378 628.827 800.637 628.917C800.897 628.996 801.137 629.066 801.357 629.126L802.511 629.441C802.801 629.521 803.115 629.621 803.455 629.741C803.795 629.861 804.114 630.026 804.414 630.235C804.724 630.445 804.974 630.715 805.164 631.045C805.353 631.374 805.448 631.784 805.448 632.274C805.448 632.833 805.313 633.338 805.044 633.787C804.774 634.237 804.359 634.592 803.8 634.851C803.24 635.101 802.526 635.226 801.657 635.226C800.498 635.226 799.608 634.991 798.989 634.522C798.369 634.052 798.02 633.418 797.94 632.618H798.869C798.929 633.098 799.084 633.468 799.334 633.727C799.583 633.987 799.903 634.172 800.293 634.282C800.692 634.382 801.147 634.432 801.657 634.432C802.576 634.432 803.285 634.257 803.785 633.907C804.294 633.548 804.549 632.993 804.549 632.244C804.549 631.794 804.439 631.439 804.219 631.18C804.01 630.92 803.725 630.715 803.365 630.565C803.015 630.415 802.636 630.285 802.226 630.175L800.787 629.786C799.968 629.556 799.334 629.236 798.884 628.827C798.444 628.417 798.225 627.852 798.225 627.133C798.225 626.544 798.364 626.039 798.644 625.619C798.934 625.19 799.339 624.86 799.858 624.63C800.388 624.4 801.012 624.285 801.732 624.285C802.431 624.285 803.03 624.39 803.53 624.6C804.04 624.8 804.439 625.085 804.729 625.454C805.029 625.814 805.199 626.239 805.239 626.728H804.339ZM744.093 653.031H743.193V643.035L743.508 643.11L740.496 645.148V644.204L743.089 642.435H744.093V653.031ZM747.664 644.504H748.998V645.897H747.664V644.504ZM747.664 650.798H748.998V652.192H747.664V650.798ZM754.237 653.031H753.337V643.035L753.652 643.11L750.64 645.148V644.204L753.232 642.435H754.237V653.031Z" fill="#FFFAEE"/>
<path d="M290.216 440.574V437.814H290.116L288.28 442.298L286.444 437.814H286.344V440.574V444.945H285.382V436.228H286.731L288.267 440.074H288.342L289.878 436.228H291.177V444.945H290.216V440.574ZM297.155 444.945L296.418 442.46H293.358L292.621 444.945H291.535L294.207 436.228H295.594L298.266 444.945H297.155ZM294.944 437.339H294.832L293.608 441.548H296.168L294.944 437.339ZM298.948 436.228H301.384C302.449 436.228 303.245 436.594 303.769 437.327C304.294 438.06 304.556 439.146 304.556 440.587C304.556 442.027 304.294 443.114 303.769 443.846C303.245 444.579 302.449 444.945 301.384 444.945H298.948V436.228ZM301.334 444.034C302.033 444.034 302.558 443.792 302.907 443.309C303.265 442.826 303.444 442.144 303.444 441.261V439.912C303.444 439.03 303.265 438.347 302.907 437.864C302.558 437.381 302.033 437.14 301.334 437.14H299.997V444.034H301.334ZM305.5 444.945V436.228H310.871V437.14H306.549V440.074H310.721V440.986H306.549V444.034H310.871V444.945H305.5ZM318.704 436.228H321.664C322.414 436.228 323 436.432 323.425 436.84C323.85 437.248 324.062 437.793 324.062 438.476C324.062 439 323.933 439.413 323.675 439.712C323.425 440.012 323.1 440.224 322.701 440.349V440.387C323.192 440.503 323.596 440.724 323.912 441.049C324.229 441.365 324.387 441.827 324.387 442.435C324.387 442.785 324.329 443.114 324.212 443.422C324.095 443.73 323.929 443.996 323.712 444.221C323.504 444.446 323.254 444.625 322.963 444.758C322.68 444.883 322.372 444.945 322.039 444.945H318.704V436.228ZM321.727 444.034C322.21 444.034 322.588 443.925 322.863 443.709C323.138 443.492 323.275 443.159 323.275 442.71V442.198C323.275 441.756 323.138 441.428 322.863 441.211C322.588 440.986 322.21 440.874 321.727 440.874H319.753V444.034H321.727ZM321.552 440.012C321.993 440.012 322.339 439.916 322.588 439.725C322.838 439.525 322.963 439.225 322.963 438.826V438.338C322.963 437.939 322.838 437.639 322.588 437.439C322.339 437.239 321.993 437.14 321.552 437.14H319.753V440.012H321.552ZM327.442 444.945V441.523L324.432 436.228H325.631L326.88 438.501L327.941 440.487H327.991L329.078 438.501L330.327 436.228H331.501L328.491 441.523V444.945H327.442ZM342.894 440.986H339.497V444.945H338.448V436.228H339.497V440.074H342.894V436.228H343.943V444.945H342.894V440.986ZM346.111 436.228V441.461C346.111 441.885 346.124 442.264 346.149 442.597C346.174 442.93 346.24 443.218 346.348 443.459C346.457 443.692 346.623 443.871 346.848 443.996C347.081 444.121 347.402 444.183 347.81 444.183C348.218 444.183 348.534 444.121 348.759 443.996C348.992 443.871 349.163 443.692 349.271 443.459C349.379 443.218 349.446 442.93 349.471 442.597C349.496 442.264 349.508 441.885 349.508 441.461V436.228H350.557V441.211C350.557 441.86 350.524 442.427 350.457 442.91C350.399 443.392 350.27 443.796 350.07 444.121C349.879 444.446 349.6 444.691 349.233 444.858C348.875 445.016 348.401 445.095 347.81 445.095C347.218 445.095 346.74 445.016 346.373 444.858C346.015 444.691 345.736 444.446 345.537 444.121C345.345 443.796 345.216 443.392 345.149 442.91C345.091 442.427 345.062 441.86 345.062 441.211V436.228H346.111ZM356.36 440.574V437.814H356.26L354.424 442.298L352.588 437.814H352.488V440.574V444.945H351.527V436.228H352.875L354.412 440.074H354.487L356.023 436.228H357.322V444.945H356.36V440.574ZM363.299 444.945L362.562 442.46H359.502L358.765 444.945H357.679L360.352 436.228H361.738L364.411 444.945H363.299ZM361.088 437.339H360.976L359.752 441.548H362.312L361.088 437.339ZM365.942 437.602H365.854V444.945H364.905V436.228H366.392L369.364 443.571H369.451V436.228H370.401V444.945H368.914L365.942 437.602ZM374.242 445.095C373.46 445.095 372.819 444.954 372.319 444.671C371.819 444.379 371.407 444.009 371.083 443.559L371.844 442.935C372.186 443.359 372.544 443.676 372.919 443.884C373.302 444.092 373.755 444.196 374.28 444.196C374.913 444.196 375.396 444.05 375.729 443.759C376.062 443.467 376.228 443.059 376.228 442.535C376.228 442.11 376.107 441.781 375.866 441.548C375.625 441.307 375.204 441.136 374.605 441.036L373.63 440.874C373.206 440.799 372.848 440.686 372.556 440.537C372.273 440.387 372.044 440.208 371.869 440C371.695 439.783 371.57 439.55 371.495 439.3C371.42 439.042 371.382 438.776 371.382 438.501C371.382 437.702 371.645 437.098 372.169 436.69C372.694 436.282 373.401 436.078 374.292 436.078C374.992 436.078 375.579 436.194 376.053 436.428C376.536 436.661 376.923 436.99 377.215 437.414L376.478 438.051C376.237 437.735 375.945 437.477 375.604 437.277C375.262 437.077 374.821 436.977 374.28 436.977C373.689 436.977 373.235 437.102 372.919 437.352C372.602 437.602 372.444 437.976 372.444 438.476C372.444 438.867 372.561 439.188 372.794 439.438C373.035 439.679 373.464 439.854 374.08 439.962L375.017 440.124C375.441 440.199 375.799 440.312 376.091 440.462C376.382 440.612 376.615 440.791 376.79 440.999C376.973 441.207 377.102 441.44 377.177 441.698C377.252 441.956 377.29 442.227 377.29 442.51C377.29 443.318 377.023 443.95 376.49 444.408C375.966 444.866 375.217 445.095 374.242 445.095Z" fill="#FFFAEE"/>
<rect x="271.817" y="430.015" width="118.762" height="21.3453" rx="10.6726" stroke="#FFFAEE" stroke-width="1.13539"/>
<path d="M598.095 451.29C596.294 451.29 594.832 450.874 593.709 450.042C592.586 449.209 591.772 448.008 591.269 446.44C590.766 444.852 590.514 442.945 590.514 440.718C590.514 438.472 590.775 436.574 591.298 435.025C591.821 433.457 592.644 432.256 593.767 431.423C594.89 430.591 596.333 430.174 598.095 430.174C599.895 430.174 601.357 430.591 602.481 431.423C603.604 432.256 604.427 433.457 604.949 435.025C605.472 436.574 605.734 438.472 605.734 440.718C605.734 442.964 605.472 444.871 604.949 446.44C604.427 448.008 603.604 449.209 602.481 450.042C601.377 450.874 599.915 451.29 598.095 451.29ZM598.095 448.241C599.528 448.241 600.564 447.669 601.203 446.527C601.861 445.365 602.19 443.429 602.19 440.718C602.19 438.007 601.861 436.08 601.203 434.938C600.564 433.795 599.528 433.224 598.095 433.224C596.7 433.224 595.674 433.795 595.016 434.938C594.377 436.08 594.057 438.007 594.057 440.718C594.057 443.429 594.377 445.365 595.016 446.527C595.655 447.669 596.681 448.241 598.095 448.241ZM614.717 451.29C612.917 451.29 611.455 450.874 610.332 450.042C609.209 449.209 608.395 448.008 607.892 446.44C607.388 444.852 607.137 442.945 607.137 440.718C607.137 438.472 607.398 436.574 607.921 435.025C608.444 433.457 609.267 432.256 610.39 431.423C611.513 430.591 612.955 430.174 614.717 430.174C616.518 430.174 617.98 430.591 619.103 431.423C620.226 432.256 621.049 433.457 621.572 435.025C622.095 436.574 622.356 438.472 622.356 440.718C622.356 442.964 622.095 444.871 621.572 446.44C621.049 448.008 620.226 449.209 619.103 450.042C618 450.874 616.538 451.29 614.717 451.29ZM614.717 448.241C616.15 448.241 617.186 447.669 617.825 446.527C618.484 445.365 618.813 443.429 618.813 440.718C618.813 438.007 618.484 436.08 617.825 434.938C617.186 433.795 616.15 433.224 614.717 433.224C613.323 433.224 612.297 433.795 611.639 434.938C611 436.08 610.68 438.007 610.68 440.718C610.68 443.429 611 445.365 611.639 446.527C612.278 447.669 613.304 448.241 614.717 448.241ZM632.183 451H628.581V432.353L631.486 432.382L623.672 437.523V433.892L628.9 430.465H632.183V451Z" fill="#FFFAEE"/>
<path d="M786.637 431.057H788.875C789.81 431.057 790.502 431.356 790.953 431.952C791.404 432.549 791.63 433.408 791.63 434.529C791.63 435.649 791.404 436.508 790.953 437.105C790.502 437.702 789.81 438 788.875 438H786.637V431.057ZM788.775 436.826C789.219 436.826 789.544 436.684 789.75 436.399C789.955 436.113 790.058 435.699 790.058 435.155V433.892C790.058 433.355 789.955 432.944 789.75 432.659C789.544 432.374 789.219 432.231 788.775 432.231H788.109V436.826H788.775ZM795.336 438.119C794.752 438.119 794.245 438.023 793.814 437.831C793.383 437.639 793.035 437.377 792.77 437.045L793.635 436.09C793.887 436.369 794.162 436.574 794.461 436.707C794.766 436.84 795.074 436.906 795.386 436.906C795.744 436.906 796.016 436.826 796.201 436.667C796.387 436.508 796.48 436.279 796.48 435.981C796.48 435.735 796.407 435.55 796.261 435.424C796.122 435.298 795.883 435.208 795.545 435.155L794.819 435.036C794.195 434.93 793.745 434.701 793.466 434.35C793.188 433.992 793.048 433.557 793.048 433.047C793.048 432.377 793.267 431.86 793.705 431.495C794.142 431.124 794.756 430.938 795.545 430.938C796.082 430.938 796.549 431.021 796.947 431.187C797.345 431.352 797.667 431.578 797.912 431.863L797.067 432.808C796.881 432.602 796.662 432.443 796.41 432.33C796.158 432.211 795.873 432.151 795.555 432.151C794.885 432.151 794.55 432.427 794.55 432.977C794.55 433.216 794.623 433.395 794.769 433.514C794.922 433.633 795.167 433.723 795.505 433.783L796.231 433.912C796.795 434.011 797.229 434.224 797.534 434.549C797.839 434.873 797.992 435.311 797.992 435.861C797.992 436.186 797.935 436.488 797.823 436.767C797.71 437.038 797.541 437.277 797.315 437.483C797.09 437.682 796.811 437.838 796.48 437.95C796.155 438.063 795.774 438.119 795.336 438.119ZM803.011 437.015H802.921C802.862 437.161 802.789 437.3 802.703 437.433C802.616 437.566 802.51 437.685 802.384 437.791C802.258 437.891 802.109 437.97 801.937 438.03C801.771 438.09 801.582 438.119 801.37 438.119C801.032 438.119 800.73 438.04 800.465 437.881C800.206 437.721 799.987 437.489 799.808 437.184C799.629 436.879 799.493 436.508 799.4 436.07C799.314 435.633 799.271 435.139 799.271 434.588C799.271 433.408 799.486 432.506 799.917 431.883C800.349 431.253 801.015 430.938 801.917 430.938C802.275 430.938 802.59 430.988 802.862 431.087C803.134 431.18 803.366 431.316 803.558 431.495C803.757 431.667 803.919 431.876 804.045 432.122C804.171 432.367 804.271 432.639 804.344 432.937L802.951 433.275C802.911 433.129 802.865 432.99 802.812 432.858C802.766 432.718 802.703 432.596 802.623 432.49C802.543 432.383 802.444 432.301 802.325 432.241C802.205 432.175 802.059 432.141 801.887 432.141C801.509 432.141 801.24 432.297 801.081 432.609C800.929 432.921 800.852 433.358 800.852 433.922V435.056C800.852 435.619 800.935 436.07 801.101 436.409C801.274 436.747 801.575 436.916 802.006 436.916C802.344 436.916 802.596 436.816 802.762 436.617C802.928 436.418 803.011 436.163 803.011 435.852V435.344H801.827V434.29H804.344V438H803.011V437.015ZM807.374 433.385H807.264V438H805.991V431.057H807.781L809.363 435.672H809.472V431.057H810.745V438H808.955L807.374 433.385ZM786.637 444.057H788.875C789.81 444.057 790.502 444.356 790.953 444.952C791.404 445.549 791.63 446.408 791.63 447.529C791.63 448.649 791.404 449.508 790.953 450.105C790.502 450.702 789.81 451 788.875 451H786.637V444.057ZM788.775 449.826C789.219 449.826 789.544 449.684 789.75 449.399C789.955 449.113 790.058 448.699 790.058 448.155V446.892C790.058 446.355 789.955 445.944 789.75 445.659C789.544 445.374 789.219 445.231 788.775 445.231H788.109V449.826H788.775ZM793.257 451V444.057H797.693V445.281H794.749V446.872H797.594V448.096H794.749V449.777H797.693V451H793.257ZM799.679 451V444.057H802.364C802.703 444.057 803.004 444.11 803.269 444.216C803.535 444.316 803.757 444.462 803.936 444.654C804.122 444.846 804.261 445.078 804.354 445.35C804.447 445.622 804.493 445.927 804.493 446.265C804.493 446.604 804.447 446.909 804.354 447.181C804.261 447.452 804.122 447.684 803.936 447.877C803.757 448.069 803.535 448.218 803.269 448.324C803.004 448.424 802.703 448.474 802.364 448.474H801.181V451H799.679ZM801.181 447.27H801.986C802.338 447.27 802.58 447.204 802.712 447.071C802.852 446.938 802.921 446.72 802.921 446.415V446.116C802.921 445.811 802.852 445.592 802.712 445.46C802.58 445.327 802.338 445.261 801.986 445.261H801.181V447.27ZM809.114 445.281V451H807.622V445.281H805.623V444.057H811.113V445.281H809.114Z" fill="#FFFAEE"/>
<path d="M701.324 429H719.157C720.725 429 722 430.275 722 431.843V449.676C722 451.243 720.725 452.518 719.157 452.518H701.324C699.757 452.518 698.482 451.243 698.482 449.676V431.843C698.482 430.275 699.757 429 701.324 429H701.324ZM719.157 430.61H701.324C700.645 430.61 700.092 431.163 700.092 431.843V437.298H711.906L706.954 432.696H709.321L715.135 438.102L709.99 442.887H720.39V431.843C720.39 431.163 719.837 430.61 719.157 430.61ZM701.324 450.908H719.157C719.837 450.908 720.39 450.355 720.39 449.676V444.498H709.902L714.854 449.099H712.487L706.673 443.694L711.819 438.909H700.092V449.676C700.092 450.355 700.644 450.908 701.324 450.908L701.324 450.908Z" fill="#FFFAEE"/>
<path d="M667.738 429C659.611 429 653 434.338 653 440.905C653 447.471 659.611 452.809 667.738 452.809C675.866 452.809 682.477 447.471 682.477 440.905C682.477 434.338 675.866 429 667.738 429ZM667.087 430.943V435.401C665.766 435.383 664.485 435.304 663.28 435.177C664.523 433.309 666.076 431.815 667.087 430.943ZM667.087 436.626V440.294H661.333C661.445 438.89 661.925 437.55 662.587 436.33C664.002 436.506 665.522 436.607 667.091 436.629L667.087 436.626ZM667.087 441.515V445.183C665.518 445.206 663.999 445.307 662.584 445.483C661.925 444.262 661.442 442.922 661.333 441.518H667.087V441.515ZM667.087 446.404V450.866C666.076 449.994 664.519 448.5 663.276 446.632C664.482 446.501 665.766 446.423 667.087 446.404ZM668.394 450.862V446.404C669.704 446.423 670.984 446.505 672.197 446.64C670.954 448.504 669.404 449.994 668.394 450.866V450.862ZM668.394 445.18V441.511H674.147C674.035 442.919 673.556 444.259 672.893 445.479C671.478 445.303 669.962 445.198 668.394 445.176V445.18ZM668.394 440.291V436.622C669.962 436.599 671.478 436.495 672.893 436.319C673.556 437.539 674.039 438.883 674.147 440.287H668.394V440.291ZM668.394 435.401V430.943C669.404 431.815 670.954 433.305 672.197 435.169C670.984 435.304 669.704 435.383 668.394 435.405V435.401ZM669.618 430.329C672.912 430.696 675.828 432.021 677.906 433.934C676.753 434.376 675.278 434.731 673.62 434.982C672.38 432.972 670.774 431.351 669.618 430.329ZM661.854 434.993C660.195 434.743 658.728 434.387 657.563 433.942C659.641 432.021 662.561 430.696 665.863 430.325C664.706 431.351 663.096 432.976 661.857 434.99L661.854 434.993ZM661.221 436.131C660.581 437.408 660.12 438.808 660.019 440.291H654.329C654.471 438.299 655.302 436.453 656.635 434.9C657.859 435.416 659.428 435.836 661.221 436.131ZM660.019 441.515C660.12 442.997 660.581 444.397 661.221 445.674C659.431 445.97 657.863 446.385 656.635 446.905C655.302 445.352 654.471 443.506 654.329 441.515H660.015H660.019ZM661.854 446.812C663.096 448.826 664.702 450.451 665.859 451.476C662.557 451.106 659.637 449.781 657.56 447.86C658.728 447.415 660.191 447.059 661.85 446.808L661.854 446.812ZM673.616 446.823C675.278 447.074 676.749 447.433 677.902 447.871C675.824 449.784 672.908 451.109 669.614 451.476C670.771 450.451 672.373 448.83 673.616 446.823ZM674.256 445.678C674.9 444.397 675.36 442.997 675.461 441.511H681.148C681.006 443.506 680.171 445.356 678.834 446.913C677.614 446.393 676.045 445.973 674.256 445.678ZM675.461 440.291C675.36 438.808 674.9 437.404 674.256 436.124C676.045 435.828 677.61 435.409 678.834 434.889C680.171 436.446 681.006 438.295 681.148 440.291H675.461Z" fill="#FFFAEE"/>
<path d="M753.98 452.276C745.167 452.276 738 447.054 738 440.636C738 434.218 745.167 429 753.98 429C762.792 429 769.959 434.222 769.959 440.636C769.959 447.05 762.792 452.272 753.98 452.272V452.276ZM753.98 430.096C745.772 430.096 739.096 434.827 739.096 440.636C739.096 446.445 745.772 451.176 753.98 451.176C762.187 451.176 768.863 446.449 768.863 440.636C768.863 434.824 762.187 430.096 753.98 430.096Z" fill="#FFFAEE"/>
<path d="M762.803 444.607C760.471 444.337 758.674 442.651 758.674 440.639C758.674 438.628 760.467 436.938 762.803 436.672V434.805C759.438 435.093 756.818 437.624 756.818 440.639C756.818 443.654 759.434 446.186 762.803 446.474V444.607Z" fill="#FFFAEE"/>
<path d="M756.467 444.607C754.135 444.337 752.337 442.651 752.337 440.639C752.337 438.628 754.131 436.938 756.467 436.672V434.805C753.101 435.093 750.481 437.624 750.481 440.639C750.481 443.654 753.097 446.186 756.467 446.474V444.607Z" fill="#FFFAEE"/>
<path d="M750.481 444.607C748.149 444.337 746.351 442.651 746.351 440.639C746.351 438.628 748.145 436.938 750.481 436.672V434.805C747.115 435.093 744.495 437.624 744.495 440.639C744.495 443.654 747.112 446.186 750.481 446.474V444.607Z" fill="#FFFAEE"/>
<circle cx="491.06" cy="357.494" r="7.49356" fill="#FFFAEE"/>
<circle cx="802.043" cy="481.15" r="7.49356" fill="#FFFAEE"/>
<circle cx="277.494" cy="481.15" r="7.49356" fill="#FFFAEE"/>
<circle cx="491.06" cy="588.558" r="7.49356" fill="#FFFAEE"/>
<circle cx="414.876" cy="559.833" r="7.49356" fill="#FFFAEE"/>
<circle cx="564.747" cy="409.962" r="7.49356" fill="#FFFAEE"/>
<path d="M282.05 401.708L293.139 416H286.774L278.327 404.791L282.05 401.708ZM278.167 416H272.802V387.216H278.167V416ZM277.606 403.55L285.813 395.223H292.178L277.686 409.274L277.606 403.55ZM300.421 395.223V416H295.056V395.223H300.421ZM294.936 387.216H300.541V392.741H294.936V387.216ZM309.973 416H304.608V395.223H309.973L309.933 397.665C310.547 396.677 311.28 395.957 312.135 395.503C312.989 395.049 314.056 394.822 315.337 394.822C317.686 394.822 319.567 395.476 320.982 396.784C322.423 398.092 323.144 400.254 323.144 403.269V416H317.779V403.229C317.779 401.735 317.472 400.667 316.858 400.027C316.271 399.36 315.377 399.026 314.176 399.026C313.242 399.026 312.455 399.199 311.814 399.546C311.2 399.867 310.733 400.374 310.413 401.068C310.12 401.762 309.973 402.669 309.973 403.79V416ZM329.134 403.67H340.663C340.583 402.282 340.17 401.148 339.422 400.267C338.675 399.36 337.608 398.906 336.22 398.906C334.512 398.906 333.271 399.426 332.497 400.467C331.749 401.508 331.376 403.256 331.376 405.711C331.376 408.14 331.749 409.848 332.497 410.836C333.244 411.823 334.578 412.317 336.5 412.317C337.861 412.317 338.809 412.13 339.342 411.756C339.903 411.383 340.236 410.836 340.343 410.115H345.868C345.734 411.343 345.307 412.437 344.587 413.398C343.893 414.332 342.879 415.066 341.544 415.6C340.21 416.133 338.528 416.4 336.5 416.4C333.11 416.4 330.522 415.493 328.734 413.678C326.945 411.837 326.051 409.181 326.051 405.711C326.051 402.215 326.945 399.533 328.734 397.665C330.522 395.77 333.017 394.822 336.22 394.822C338.301 394.822 340.063 395.25 341.504 396.104C342.972 396.958 344.093 398.199 344.867 399.827C345.641 401.428 346.028 403.39 346.028 405.711V407.313H329.094L329.134 403.67ZM359.02 399.426H354.896V411.797H359.02V416H355.657C353.869 416 352.401 415.573 351.253 414.719C350.105 413.838 349.532 412.464 349.532 410.596V399.426H346.329V395.223H349.532V389.418H354.896V395.223H359.02V399.426ZM366.73 395.223V416H361.366V395.223H366.73ZM361.246 387.216H366.85V392.741H361.246V387.216ZM380.043 416.4C376.68 416.4 374.118 415.48 372.356 413.638C370.595 411.77 369.714 409.101 369.714 405.631C369.714 402.162 370.608 399.493 372.396 397.625C374.184 395.757 376.706 394.822 379.962 394.822C381.697 394.822 383.259 395.156 384.646 395.823C386.034 396.491 387.142 397.385 387.969 398.506C388.796 399.626 389.21 400.894 389.21 402.309H383.846C383.846 401.535 383.552 400.801 382.965 400.107C382.404 399.386 381.417 399.026 380.002 399.026C378.214 399.026 376.947 399.573 376.199 400.667C375.452 401.762 375.078 403.416 375.078 405.631C375.078 407.847 375.452 409.501 376.199 410.596C376.947 411.663 378.214 412.197 380.002 412.197C381.39 412.197 382.378 411.89 382.965 411.276C383.579 410.662 383.912 409.902 383.966 408.994H389.33C389.33 410.222 388.943 411.41 388.169 412.557C387.422 413.678 386.354 414.599 384.967 415.319C383.579 416.04 381.937 416.4 380.043 416.4Z" fill="#FFFAEE"/>
<path d="M342.055 569C341.667 569 341.327 568.737 341.235 568.363L337.909 555.035L333.267 568.183C333.143 568.53 332.815 568.765 332.443 568.745C332.075 568.733 331.756 568.486 331.656 568.136L327.845 554.931L324.139 568.132C324.039 568.494 323.707 568.745 323.331 568.745C322.952 568.745 322.62 568.502 322.516 568.14L318.638 555.051L315.379 568.104C315.287 568.478 314.947 568.741 314.559 568.741C314.172 568.741 313.832 568.478 313.74 568.104L310.389 554.684L308.338 560.165C308.214 560.496 307.899 560.715 307.547 560.715H270V559.03H306.959L309.758 551.55C309.886 551.203 310.225 550.984 310.597 551.004C310.969 551.024 311.281 551.283 311.369 551.641L314.555 564.411L317.746 551.637C317.838 551.267 318.166 551.008 318.55 551C318.929 550.996 319.269 551.239 319.377 551.605L323.303 564.854L327.022 551.617C327.122 551.255 327.453 551.004 327.833 551C328.209 551 328.541 551.247 328.645 551.609L332.547 565.132L337.245 551.817C337.369 551.466 337.705 551.239 338.081 551.255C338.452 551.271 338.772 551.534 338.86 551.892L342.047 564.662L343.294 559.667C343.386 559.293 343.726 559.03 344.114 559.03H374V560.715H344.773L342.866 568.359C342.774 568.733 342.435 568.996 342.047 568.996L342.055 569Z" fill="#FFFAEE"/>
<path d="M271.03 590C270.849 590 270.723 589.964 270.65 589.892C270.578 589.819 270.542 589.747 270.542 589.675C270.542 589.494 270.677 589.377 270.948 589.323L271.382 589.241C271.96 589.133 272.412 588.961 272.737 588.726C273.08 588.473 273.369 588.076 273.604 587.534L276.314 581.084C276.404 580.886 276.459 580.687 276.477 580.488C276.513 580.272 276.477 580.046 276.368 579.811L272.981 572.304C272.8 571.889 272.601 571.609 272.385 571.464C272.186 571.32 271.969 571.23 271.734 571.193L271.219 571.112C270.93 571.058 270.786 570.94 270.786 570.76C270.786 570.579 270.939 570.489 271.247 570.489H276.016C276.341 570.489 276.504 570.579 276.504 570.76C276.504 570.94 276.35 571.058 276.043 571.112L275.528 571.193C275.221 571.248 275.004 571.356 274.878 571.519C274.769 571.681 274.797 571.943 274.959 572.304L277.533 578.076C277.606 578.239 277.687 578.32 277.777 578.32C277.886 578.32 277.976 578.239 278.048 578.076L280.379 572.575C280.541 572.178 280.596 571.889 280.541 571.708C280.487 571.51 280.307 571.374 279.999 571.302L279.241 571.139C278.934 571.067 278.78 570.94 278.78 570.76C278.78 570.579 278.943 570.489 279.268 570.489H283.414C283.613 570.489 283.739 570.525 283.793 570.597C283.866 570.651 283.902 570.724 283.902 570.814C283.902 570.995 283.766 571.112 283.495 571.166L283.062 571.248C282.61 571.32 282.231 571.491 281.924 571.762C281.616 572.015 281.345 572.413 281.111 572.955L278.536 578.971C278.446 579.206 278.392 579.431 278.374 579.648C278.374 579.865 278.437 580.1 278.563 580.353L282.059 588.184C282.258 588.618 282.456 588.898 282.655 589.024C282.872 589.151 283.089 589.232 283.306 589.268L283.82 589.35C284.128 589.404 284.281 589.53 284.281 589.729C284.281 589.91 284.119 590 283.793 590H278.997C278.672 590 278.509 589.892 278.509 589.675C278.509 589.512 278.654 589.404 278.943 589.35L279.485 589.268C279.792 589.232 280.009 589.133 280.135 588.97C280.261 588.79 280.252 588.528 280.108 588.184L277.317 581.979C277.244 581.816 277.154 581.735 277.046 581.735C276.955 581.735 276.874 581.816 276.802 581.979L274.363 587.913C274.2 588.311 274.146 588.609 274.2 588.808C274.255 588.988 274.435 589.115 274.742 589.187L275.501 589.35C275.808 589.422 275.962 589.548 275.962 589.729C275.962 589.91 275.799 590 275.474 590H271.03ZM283.599 590C283.328 590 283.192 589.901 283.192 589.702C283.192 589.539 283.309 589.431 283.544 589.377L284.168 589.268C284.547 589.196 284.791 589.097 284.899 588.97C285.026 588.844 285.089 588.591 285.089 588.211V572.277C285.089 571.898 285.026 571.645 284.899 571.519C284.791 571.392 284.547 571.293 284.168 571.22L283.544 571.112C283.309 571.058 283.192 570.949 283.192 570.787C283.192 570.588 283.328 570.489 283.599 570.489H288.503C288.774 570.489 288.91 570.588 288.91 570.787C288.91 570.949 288.793 571.058 288.558 571.112L287.934 571.22C287.555 571.293 287.302 571.392 287.176 571.519C287.067 571.645 287.013 571.898 287.013 572.277V588.211C287.013 588.591 287.067 588.844 287.176 588.97C287.302 589.097 287.555 589.196 287.934 589.268L288.558 589.377C288.793 589.431 288.91 589.539 288.91 589.702C288.91 589.901 288.774 590 288.503 590H283.599ZM294.547 590.271C294.475 590.271 294.394 590.244 294.303 590.19C294.213 590.135 294.15 590.018 294.114 589.837L289.832 572.657C289.705 572.151 289.561 571.799 289.398 571.6C289.254 571.401 289.001 571.266 288.64 571.193L288.233 571.112C287.98 571.058 287.854 570.94 287.854 570.76C287.854 570.579 287.989 570.489 288.26 570.489H292.894C293.147 570.489 293.273 570.588 293.273 570.787C293.273 570.986 293.12 571.094 292.813 571.112L292.298 571.166C291.991 571.184 291.792 571.284 291.702 571.464C291.629 571.627 291.639 571.907 291.729 572.304L294.872 585.339C294.908 585.447 294.963 585.502 295.035 585.502C295.125 585.502 295.179 585.447 295.198 585.339L298.314 572.874C298.567 571.844 298.296 571.275 297.501 571.166L297.094 571.112C296.787 571.058 296.634 570.949 296.634 570.787C296.634 570.588 296.76 570.489 297.013 570.489H300.807C301.078 570.489 301.213 570.579 301.213 570.76C301.213 570.94 301.087 571.058 300.834 571.112L300.428 571.193C300.084 571.266 299.813 571.446 299.615 571.735C299.434 572.006 299.28 572.395 299.154 572.901L294.954 589.837C294.917 590.018 294.854 590.135 294.764 590.19C294.692 590.244 294.619 590.271 294.547 590.271Z" fill="#FFFAEE"/>
</svg>
