<svg width="1080" height="1080" viewBox="0 0 1080 1080" fill="none" xmlns="http://www.w3.org/2000/svg">
<rect width="1080" height="1080" fill="#191919"/>
<g clip-path="url(#clip0_94_197)">
<path d="M783.046 597.443L772.535 592.611L762.024 597.443L760.642 594.47L772.535 589L784.419 594.47L783.046 597.443Z" fill="#FFFAEE"/>
<path d="M772.535 641L760.642 635.538L762.024 632.565L772.535 637.397L783.046 632.565L784.419 635.538L772.535 641Z" fill="#FFFAEE"/>
</g>
<path d="M361.55 509.375V525H359.45V509.375H353.625V507.55H367.375V509.375H361.55ZM377.14 517.075H370.34V525H368.24V507.55H370.34V515.25H377.14V507.55H379.24V525H377.14V517.075ZM381.73 525V507.55H392.48V509.375H383.83V515.25H392.18V517.075H383.83V523.175H392.48V525H381.73ZM434.816 507.55H439.691C441.825 507.55 443.416 508.283 444.466 509.75C445.516 511.217 446.041 513.392 446.041 516.275C446.041 519.158 445.516 521.333 444.466 522.8C443.416 524.267 441.825 525 439.691 525H434.816V507.55ZM439.591 523.175C440.991 523.175 442.041 522.692 442.741 521.725C443.458 520.758 443.816 519.392 443.816 517.625V514.925C443.816 513.158 443.458 511.792 442.741 510.825C442.041 509.858 440.991 509.375 439.591 509.375H436.916V523.175H439.591ZM447.932 525V507.55H458.682V509.375H450.032V515.25H458.382V517.075H450.032V523.175H458.682V525H447.932ZM466.372 525.3C464.805 525.3 463.522 525.017 462.522 524.45C461.522 523.867 460.697 523.125 460.047 522.225L461.572 520.975C462.255 521.825 462.972 522.458 463.722 522.875C464.489 523.292 465.397 523.5 466.447 523.5C467.714 523.5 468.68 523.208 469.347 522.625C470.014 522.042 470.347 521.225 470.347 520.175C470.347 519.325 470.105 518.667 469.622 518.2C469.139 517.717 468.297 517.375 467.097 517.175L465.147 516.85C464.297 516.7 463.58 516.475 462.997 516.175C462.43 515.875 461.972 515.517 461.622 515.1C461.272 514.667 461.022 514.2 460.872 513.7C460.722 513.183 460.647 512.65 460.647 512.1C460.647 510.5 461.172 509.292 462.222 508.475C463.272 507.658 464.689 507.25 466.472 507.25C467.872 507.25 469.047 507.483 469.997 507.95C470.964 508.417 471.739 509.075 472.322 509.925L470.847 511.2C470.364 510.567 469.78 510.05 469.097 509.65C468.414 509.25 467.53 509.05 466.447 509.05C465.264 509.05 464.355 509.3 463.722 509.8C463.089 510.3 462.772 511.05 462.772 512.05C462.772 512.833 463.005 513.475 463.472 513.975C463.955 514.458 464.814 514.808 466.047 515.025L467.922 515.35C468.772 515.5 469.489 515.725 470.072 516.025C470.655 516.325 471.122 516.683 471.472 517.1C471.839 517.517 472.097 517.983 472.247 518.5C472.397 519.017 472.472 519.558 472.472 520.125C472.472 521.742 471.939 523.008 470.872 523.925C469.822 524.842 468.322 525.3 466.372 525.3ZM474.262 525V523.325H478.612V509.225H474.262V507.55H485.062V509.225H480.712V523.325H485.062V525H474.262ZM496.502 522.675H496.377C496.227 523.008 496.052 523.333 495.852 523.65C495.652 523.967 495.394 524.25 495.077 524.5C494.777 524.733 494.411 524.925 493.977 525.075C493.544 525.225 493.027 525.3 492.427 525.3C490.527 525.3 489.111 524.533 488.177 523C487.261 521.467 486.802 519.267 486.802 516.4C486.802 513.4 487.311 511.125 488.327 509.575C489.344 508.025 490.911 507.25 493.027 507.25C493.844 507.25 494.552 507.358 495.152 507.575C495.752 507.792 496.261 508.083 496.677 508.45C497.111 508.817 497.469 509.233 497.752 509.7C498.036 510.15 498.269 510.608 498.452 511.075L496.652 511.9C496.502 511.517 496.327 511.158 496.127 510.825C495.944 510.475 495.711 510.175 495.427 509.925C495.161 509.658 494.836 509.45 494.452 509.3C494.069 509.15 493.619 509.075 493.102 509.075C491.702 509.075 490.669 509.6 490.002 510.65C489.352 511.7 489.027 513.1 489.027 514.85V517.55C489.027 518.433 489.094 519.242 489.227 519.975C489.361 520.692 489.577 521.317 489.877 521.85C490.194 522.383 490.594 522.8 491.077 523.1C491.577 523.383 492.186 523.525 492.902 523.525C494.036 523.525 494.919 523.183 495.552 522.5C496.186 521.817 496.502 520.933 496.502 519.85V518.05H492.827V516.375H498.452V525H496.502V522.675ZM502.718 510.3H502.543V525H500.643V507.55H503.618L509.568 522.25H509.743V507.55H511.643V525H508.668L502.718 510.3ZM593.699 507.55H598.574C600.708 507.55 602.299 508.283 603.349 509.75C604.399 511.217 604.924 513.392 604.924 516.275C604.924 519.158 604.399 521.333 603.349 522.8C602.299 524.267 600.708 525 598.574 525H593.699V507.55ZM598.474 523.175C599.874 523.175 600.924 522.692 601.624 521.725C602.341 520.758 602.699 519.392 602.699 517.625V514.925C602.699 513.158 602.341 511.792 601.624 510.825C600.924 509.858 599.874 509.375 598.474 509.375H595.799V523.175H598.474ZM606.814 525V507.55H617.564V509.375H608.914V515.25H617.264V517.075H608.914V523.175H617.564V525H606.814ZM620.055 525V507.55H626.405C628.021 507.55 629.255 507.992 630.105 508.875C630.955 509.758 631.38 510.992 631.38 512.575C631.38 514.158 630.955 515.392 630.105 516.275C629.255 517.158 628.021 517.6 626.405 517.6H622.155V525H620.055ZM622.155 515.775H626.355C627.238 515.775 627.921 515.558 628.405 515.125C628.905 514.675 629.155 514.042 629.155 513.225V511.925C629.155 511.108 628.905 510.483 628.405 510.05C627.921 509.6 627.238 509.375 626.355 509.375H622.155V515.775ZM643.07 525L641.595 520.025H635.47L633.995 525H631.82L637.17 507.55H639.945L645.295 525H643.07ZM638.645 509.775H638.42L635.97 518.2H641.095L638.645 509.775ZM648.635 525H646.535V507.55H652.885C654.502 507.55 655.735 507.992 656.585 508.875C657.435 509.758 657.86 510.992 657.86 512.575C657.86 513.992 657.493 515.125 656.76 515.975C656.027 516.825 654.96 517.317 653.56 517.45L658.01 525H655.66L651.41 517.55H648.635V525ZM652.835 515.775C653.718 515.775 654.402 515.558 654.885 515.125C655.385 514.675 655.635 514.042 655.635 513.225V511.925C655.635 511.108 655.385 510.483 654.885 510.05C654.402 509.6 653.718 509.375 652.835 509.375H648.635V515.775H652.835ZM666.075 509.375V525H663.975V509.375H658.15V507.55H671.9V509.375H666.075ZM682.141 516.25V510.725H681.941L678.266 519.7L674.591 510.725H674.391V516.25V525H672.466V507.55H675.166L678.241 515.25H678.391L681.466 507.55H684.066V525H682.141V516.25ZM686.256 525V507.55H697.006V509.375H688.356V515.25H696.706V517.075H688.356V523.175H697.006V525H686.256ZM701.321 510.3H701.146V525H699.246V507.55H702.221L708.171 522.25H708.346V507.55H710.246V525H707.271L701.321 510.3ZM719.036 509.375V525H716.936V509.375H711.111V507.55H724.861V509.375H719.036ZM356 593V575.55H358.1V591.175H366.375V593H356ZM378.265 593L376.79 588.025H370.665L369.19 593H367.015L372.365 575.55H375.14L380.49 593H378.265ZM373.84 577.775H373.615L371.165 586.2H376.29L373.84 577.775ZM385.93 593V586.15L379.905 575.55H382.305L384.805 580.1L386.93 584.075H387.03L389.205 580.1L391.705 575.55H394.055L388.03 586.15V593H385.93ZM400.221 593.3C399.154 593.3 398.237 593.1 397.471 592.7C396.704 592.283 396.071 591.692 395.571 590.925C395.071 590.158 394.704 589.217 394.471 588.1C394.237 586.983 394.121 585.708 394.121 584.275C394.121 582.858 394.237 581.592 394.471 580.475C394.704 579.342 395.071 578.392 395.571 577.625C396.071 576.858 396.704 576.275 397.471 575.875C398.237 575.458 399.154 575.25 400.221 575.25C401.287 575.25 402.204 575.458 402.971 575.875C403.737 576.275 404.371 576.858 404.871 577.625C405.371 578.392 405.737 579.342 405.971 580.475C406.204 581.592 406.321 582.858 406.321 584.275C406.321 585.708 406.204 586.983 405.971 588.1C405.737 589.217 405.371 590.158 404.871 590.925C404.371 591.692 403.737 592.283 402.971 592.7C402.204 593.1 401.287 593.3 400.221 593.3ZM400.221 591.475C400.921 591.475 401.512 591.342 401.996 591.075C402.479 590.792 402.879 590.4 403.196 589.9C403.512 589.4 403.737 588.8 403.871 588.1C404.021 587.383 404.096 586.583 404.096 585.7V582.85C404.096 581.983 404.021 581.192 403.871 580.475C403.737 579.758 403.512 579.15 403.196 578.65C402.879 578.15 402.479 577.767 401.996 577.5C401.512 577.217 400.921 577.075 400.221 577.075C399.521 577.075 398.929 577.217 398.446 577.5C397.962 577.767 397.562 578.15 397.246 578.65C396.929 579.15 396.696 579.758 396.546 580.475C396.412 581.192 396.346 581.983 396.346 582.85V585.7C396.346 586.583 396.412 587.383 396.546 588.1C396.696 588.8 396.929 589.4 397.246 589.9C397.562 590.4 397.962 590.792 398.446 591.075C398.929 591.342 399.521 591.475 400.221 591.475ZM410.061 575.55V586.025C410.061 586.875 410.086 587.633 410.136 588.3C410.186 588.967 410.319 589.542 410.536 590.025C410.753 590.492 411.086 590.85 411.536 591.1C412.003 591.35 412.644 591.475 413.461 591.475C414.278 591.475 414.911 591.35 415.361 591.1C415.828 590.85 416.169 590.492 416.386 590.025C416.603 589.542 416.736 588.967 416.786 588.3C416.836 587.633 416.861 586.875 416.861 586.025V575.55H418.961V585.525C418.961 586.825 418.894 587.958 418.761 588.925C418.644 589.892 418.386 590.7 417.986 591.35C417.603 592 417.044 592.492 416.311 592.825C415.594 593.142 414.644 593.3 413.461 593.3C412.278 593.3 411.319 593.142 410.586 592.825C409.869 592.492 409.311 592 408.911 591.35C408.528 590.7 408.269 589.892 408.136 588.925C408.019 587.958 407.961 586.825 407.961 585.525V575.55H410.061ZM427.751 577.375V593H425.651V577.375H419.826V575.55H433.576V577.375H427.751ZM434.691 596.45L443.391 574H445.191L436.491 596.45H434.691ZM495.114 593.3C492.981 593.3 491.389 592.525 490.339 590.975C489.306 589.425 488.789 587.192 488.789 584.275C488.789 581.358 489.306 579.125 490.339 577.575C491.389 576.025 492.981 575.25 495.114 575.25C495.914 575.25 496.606 575.358 497.189 575.575C497.772 575.792 498.272 576.083 498.689 576.45C499.106 576.817 499.456 577.233 499.739 577.7C500.022 578.15 500.272 578.608 500.489 579.075L498.689 579.9C498.539 579.517 498.364 579.158 498.164 578.825C497.964 578.475 497.722 578.175 497.439 577.925C497.172 577.658 496.847 577.45 496.464 577.3C496.097 577.15 495.647 577.075 495.114 577.075C493.731 577.075 492.697 577.6 492.014 578.65C491.347 579.7 491.014 581.1 491.014 582.85V585.7C491.014 587.45 491.347 588.85 492.014 589.9C492.697 590.95 493.731 591.475 495.114 591.475C495.647 591.475 496.097 591.4 496.464 591.25C496.847 591.1 497.172 590.9 497.439 590.65C497.722 590.383 497.964 590.083 498.164 589.75C498.364 589.4 498.539 589.033 498.689 588.65L500.489 589.475C500.272 589.958 500.022 590.425 499.739 590.875C499.456 591.325 499.106 591.733 498.689 592.1C498.272 592.467 497.772 592.758 497.189 592.975C496.606 593.192 495.914 593.3 495.114 593.3ZM507.779 593.3C506.713 593.3 505.796 593.1 505.029 592.7C504.263 592.283 503.629 591.692 503.129 590.925C502.629 590.158 502.263 589.217 502.029 588.1C501.796 586.983 501.679 585.708 501.679 584.275C501.679 582.858 501.796 581.592 502.029 580.475C502.263 579.342 502.629 578.392 503.129 577.625C503.629 576.858 504.263 576.275 505.029 575.875C505.796 575.458 506.713 575.25 507.779 575.25C508.846 575.25 509.763 575.458 510.529 575.875C511.296 576.275 511.929 576.858 512.429 577.625C512.929 578.392 513.296 579.342 513.529 580.475C513.763 581.592 513.879 582.858 513.879 584.275C513.879 585.708 513.763 586.983 513.529 588.1C513.296 589.217 512.929 590.158 512.429 590.925C511.929 591.692 511.296 592.283 510.529 592.7C509.763 593.1 508.846 593.3 507.779 593.3ZM507.779 591.475C508.479 591.475 509.071 591.342 509.554 591.075C510.038 590.792 510.438 590.4 510.754 589.9C511.071 589.4 511.296 588.8 511.429 588.1C511.579 587.383 511.654 586.583 511.654 585.7V582.85C511.654 581.983 511.579 581.192 511.429 580.475C511.296 579.758 511.071 579.15 510.754 578.65C510.438 578.15 510.038 577.767 509.554 577.5C509.071 577.217 508.479 577.075 507.779 577.075C507.079 577.075 506.488 577.217 506.004 577.5C505.521 577.767 505.121 578.15 504.804 578.65C504.488 579.15 504.254 579.758 504.104 580.475C503.971 581.192 503.904 581.983 503.904 582.85V585.7C503.904 586.583 503.971 587.383 504.104 588.1C504.254 588.8 504.488 589.4 504.804 589.9C505.121 590.4 505.521 590.792 506.004 591.075C506.488 591.342 507.079 591.475 507.779 591.475ZM517.595 578.3H517.42V593H515.52V575.55H518.495L524.445 590.25H524.62V575.55H526.52V593H523.545L517.595 578.3ZM534.835 593.3C532.701 593.3 531.11 592.525 530.06 590.975C529.026 589.425 528.51 587.192 528.51 584.275C528.51 581.358 529.026 579.125 530.06 577.575C531.11 576.025 532.701 575.25 534.835 575.25C535.635 575.25 536.326 575.358 536.91 575.575C537.493 575.792 537.993 576.083 538.41 576.45C538.826 576.817 539.176 577.233 539.46 577.7C539.743 578.15 539.993 578.608 540.21 579.075L538.41 579.9C538.26 579.517 538.085 579.158 537.885 578.825C537.685 578.475 537.443 578.175 537.16 577.925C536.893 577.658 536.568 577.45 536.185 577.3C535.818 577.15 535.368 577.075 534.835 577.075C533.451 577.075 532.418 577.6 531.735 578.65C531.068 579.7 530.735 581.1 530.735 582.85V585.7C530.735 587.45 531.068 588.85 531.735 589.9C532.418 590.95 533.451 591.475 534.835 591.475C535.368 591.475 535.818 591.4 536.185 591.25C536.568 591.1 536.893 590.9 537.16 590.65C537.443 590.383 537.685 590.083 537.885 589.75C538.085 589.4 538.26 589.033 538.41 588.65L540.21 589.475C539.993 589.958 539.743 590.425 539.46 590.875C539.176 591.325 538.826 591.733 538.41 592.1C537.993 592.467 537.493 592.758 536.91 592.975C536.326 593.192 535.635 593.3 534.835 593.3ZM542.25 593V575.55H553V577.375H544.35V583.25H552.7V585.075H544.35V591.175H553V593H542.25ZM555.49 593V575.55H561.84C563.457 575.55 564.69 575.992 565.54 576.875C566.39 577.758 566.815 578.992 566.815 580.575C566.815 582.158 566.39 583.392 565.54 584.275C564.69 585.158 563.457 585.6 561.84 585.6H557.59V593H555.49ZM557.59 583.775H561.79C562.674 583.775 563.357 583.558 563.84 583.125C564.34 582.675 564.59 582.042 564.59 581.225V579.925C564.59 579.108 564.34 578.483 563.84 578.05C563.357 577.6 562.674 577.375 561.79 577.375H557.59V583.775ZM575.03 577.375V593H572.93V577.375H567.105V575.55H580.855V577.375H575.03ZM581.971 596.45L590.671 574H592.471L583.771 596.45H581.971ZM636.568 593V575.55H642.918C644.535 575.55 645.768 575.992 646.618 576.875C647.468 577.758 647.893 578.992 647.893 580.575C647.893 582.158 647.468 583.392 646.618 584.275C645.768 585.158 644.535 585.6 642.918 585.6H638.668V593H636.568ZM638.668 583.775H642.868C643.752 583.775 644.435 583.558 644.918 583.125C645.418 582.675 645.668 582.042 645.668 581.225V579.925C645.668 579.108 645.418 578.483 644.918 578.05C644.435 577.6 643.752 577.375 642.868 577.375H638.668V583.775ZM649.659 593V591.325H654.009V577.225H649.659V575.55H660.459V577.225H656.109V591.325H660.459V593H649.659ZM675.174 593H672.799L670.724 589.525L668.424 585.725H668.324L665.949 589.525L663.749 593H661.449L667.149 584.1L661.774 575.55H664.149L666.174 578.925L668.349 582.45H668.449L670.599 578.925L672.699 575.55H674.999L669.599 584.075L675.174 593ZM676.289 593V575.55H687.039V577.375H678.389V583.25H686.739V585.075H678.389V591.175H687.039V593H676.289ZM690.279 593V575.55H692.379V591.175H700.654V593H690.279ZM707.97 593.3C706.403 593.3 705.12 593.017 704.12 592.45C703.12 591.867 702.295 591.125 701.645 590.225L703.17 588.975C703.853 589.825 704.57 590.458 705.32 590.875C706.086 591.292 706.995 591.5 708.045 591.5C709.311 591.5 710.278 591.208 710.945 590.625C711.611 590.042 711.945 589.225 711.945 588.175C711.945 587.325 711.703 586.667 711.22 586.2C710.736 585.717 709.895 585.375 708.695 585.175L706.745 584.85C705.895 584.7 705.178 584.475 704.595 584.175C704.028 583.875 703.57 583.517 703.22 583.1C702.87 582.667 702.62 582.2 702.47 581.7C702.32 581.183 702.245 580.65 702.245 580.1C702.245 578.5 702.77 577.292 703.82 576.475C704.87 575.658 706.286 575.25 708.07 575.25C709.47 575.25 710.645 575.483 711.595 575.95C712.561 576.417 713.336 577.075 713.92 577.925L712.445 579.2C711.961 578.567 711.378 578.05 710.695 577.65C710.011 577.25 709.128 577.05 708.045 577.05C706.861 577.05 705.953 577.3 705.32 577.8C704.686 578.3 704.37 579.05 704.37 580.05C704.37 580.833 704.603 581.475 705.07 581.975C705.553 582.458 706.411 582.808 707.645 583.025L709.52 583.35C710.37 583.5 711.086 583.725 711.67 584.025C712.253 584.325 712.72 584.683 713.07 585.1C713.436 585.517 713.695 585.983 713.845 586.5C713.995 587.017 714.07 587.558 714.07 588.125C714.07 589.742 713.536 591.008 712.47 591.925C711.42 592.842 709.92 593.3 707.97 593.3ZM716.01 596.45L724.71 574H726.51L717.81 596.45H716.01ZM365.025 627L363.55 622.025H357.425L355.95 627H353.775L359.125 609.55H361.9L367.25 627H365.025ZM360.6 611.775H360.375L357.925 620.2H363.05L360.6 611.775ZM369.24 627V609.55H371.34V625.175H379.615V627H369.24ZM382.48 627V609.55H384.58V625.175H392.855V627H382.48Z" fill="#FFFAEE"/>
<path d="M467.375 619.25V613.725H467.175L463.5 622.7L459.825 613.725H459.625V619.25V628H457.7V610.55H460.4L463.475 618.25H463.625L466.7 610.55H469.3V628H467.375V619.25ZM481.265 628L479.79 623.025H473.665L472.19 628H470.015L475.365 610.55H478.14L483.49 628H481.265ZM476.84 612.775H476.615L474.165 621.2H479.29L476.84 612.775ZM484.855 610.55H489.73C491.864 610.55 493.455 611.283 494.505 612.75C495.555 614.217 496.08 616.392 496.08 619.275C496.08 622.158 495.555 624.333 494.505 625.8C493.455 627.267 491.864 628 489.73 628H484.855V610.55ZM489.63 626.175C491.03 626.175 492.08 625.692 492.78 624.725C493.497 623.758 493.855 622.392 493.855 620.625V617.925C493.855 616.158 493.497 614.792 492.78 613.825C492.08 612.858 491.03 612.375 489.63 612.375H486.955V626.175H489.63ZM497.971 628V610.55H508.721V612.375H500.071V618.25H508.421V620.075H500.071V626.175H508.721V628H497.971ZM524.401 610.55H530.326C531.826 610.55 533.001 610.958 533.851 611.775C534.701 612.592 535.126 613.683 535.126 615.05C535.126 616.1 534.868 616.925 534.351 617.525C533.851 618.125 533.201 618.55 532.401 618.8V618.875C533.385 619.108 534.193 619.55 534.826 620.2C535.46 620.833 535.776 621.758 535.776 622.975C535.776 623.675 535.66 624.333 535.426 624.95C535.193 625.567 534.86 626.1 534.426 626.55C534.01 627 533.51 627.358 532.926 627.625C532.36 627.875 531.743 628 531.076 628H524.401V610.55ZM530.451 626.175C531.418 626.175 532.176 625.958 532.726 625.525C533.276 625.092 533.551 624.425 533.551 623.525V622.5C533.551 621.617 533.276 620.958 532.726 620.525C532.176 620.075 531.418 619.85 530.451 619.85H526.501V626.175H530.451ZM530.101 618.125C530.985 618.125 531.676 617.933 532.176 617.55C532.676 617.15 532.926 616.55 532.926 615.75V614.775C532.926 613.975 532.676 613.375 532.176 612.975C531.676 612.575 530.985 612.375 530.101 612.375H526.501V618.125H530.101ZM541.891 628V621.15L535.866 610.55H538.266L540.766 615.1L542.891 619.075H542.991L545.166 615.1L547.666 610.55H550.016L543.991 621.15V628H541.891ZM572.822 620.075H566.022V628H563.922V610.55H566.022V618.25H572.822V610.55H574.922V628H572.822V620.075ZM579.262 610.55V621.025C579.262 621.875 579.287 622.633 579.337 623.3C579.387 623.967 579.52 624.542 579.737 625.025C579.954 625.492 580.287 625.85 580.737 626.1C581.204 626.35 581.845 626.475 582.662 626.475C583.479 626.475 584.112 626.35 584.562 626.1C585.029 625.85 585.37 625.492 585.587 625.025C585.804 624.542 585.937 623.967 585.987 623.3C586.037 622.633 586.062 621.875 586.062 621.025V610.55H588.162V620.525C588.162 621.825 588.095 622.958 587.962 623.925C587.845 624.892 587.587 625.7 587.187 626.35C586.804 627 586.245 627.492 585.512 627.825C584.795 628.142 583.845 628.3 582.662 628.3C581.479 628.3 580.52 628.142 579.787 627.825C579.07 627.492 578.512 627 578.112 626.35C577.729 625.7 577.47 624.892 577.337 623.925C577.22 622.958 577.162 621.825 577.162 620.525V610.55H579.262ZM599.777 619.25V613.725H599.577L595.902 622.7L592.227 613.725H592.027V619.25V628H590.102V610.55H592.802L595.877 618.25H596.027L599.102 610.55H601.702V628H599.777V619.25ZM613.668 628L612.193 623.025H606.068L604.593 628H602.418L607.768 610.55H610.543L615.893 628H613.668ZM609.243 612.775H609.018L606.568 621.2H611.693L609.243 612.775ZM618.958 613.3H618.783V628H616.883V610.55H619.858L625.808 625.25H625.983V610.55H627.883V628H624.908L618.958 613.3ZM635.573 628.3C634.006 628.3 632.723 628.017 631.723 627.45C630.723 626.867 629.898 626.125 629.248 625.225L630.773 623.975C631.456 624.825 632.173 625.458 632.923 625.875C633.69 626.292 634.598 626.5 635.648 626.5C636.915 626.5 637.881 626.208 638.548 625.625C639.215 625.042 639.548 624.225 639.548 623.175C639.548 622.325 639.306 621.667 638.823 621.2C638.34 620.717 637.498 620.375 636.298 620.175L634.348 619.85C633.498 619.7 632.781 619.475 632.198 619.175C631.631 618.875 631.173 618.517 630.823 618.1C630.473 617.667 630.223 617.2 630.073 616.7C629.923 616.183 629.848 615.65 629.848 615.1C629.848 613.5 630.373 612.292 631.423 611.475C632.473 610.658 633.89 610.25 635.673 610.25C637.073 610.25 638.248 610.483 639.198 610.95C640.165 611.417 640.94 612.075 641.523 612.925L640.048 614.2C639.565 613.567 638.981 613.05 638.298 612.65C637.615 612.25 636.731 612.05 635.648 612.05C634.465 612.05 633.556 612.3 632.923 612.8C632.29 613.3 631.973 614.05 631.973 615.05C631.973 615.833 632.206 616.475 632.673 616.975C633.156 617.458 634.015 617.808 635.248 618.025L637.123 618.35C637.973 618.5 638.69 618.725 639.273 619.025C639.856 619.325 640.323 619.683 640.673 620.1C641.04 620.517 641.298 620.983 641.448 621.5C641.598 622.017 641.673 622.558 641.673 623.125C641.673 624.742 641.14 626.008 640.073 626.925C639.023 627.842 637.523 628.3 635.573 628.3Z" fill="#FFFAEE"/>
<path d="M490.075 373.3H489.9V388H488V370.55H490.975L496.925 385.25H497.1V370.55H499V388H496.025L490.075 373.3ZM505.69 388V381.15L499.665 370.55H502.065L504.565 375.1L506.69 379.075H506.79L508.965 375.1L511.465 370.55H513.815L507.79 381.15V388H505.69ZM527.846 388V386.175H532.846V372.1H532.671L528.271 376.2L527.046 374.875L531.671 370.55H534.946V386.175H539.546V388H527.846ZM546.461 388.3C545.394 388.3 544.478 388.1 543.711 387.7C542.944 387.283 542.311 386.692 541.811 385.925C541.311 385.158 540.944 384.217 540.711 383.1C540.478 381.983 540.361 380.708 540.361 379.275C540.361 377.858 540.478 376.592 540.711 375.475C540.944 374.342 541.311 373.392 541.811 372.625C542.311 371.858 542.944 371.275 543.711 370.875C544.478 370.458 545.394 370.25 546.461 370.25C547.528 370.25 548.444 370.458 549.211 370.875C549.978 371.275 550.611 371.858 551.111 372.625C551.611 373.392 551.978 374.342 552.211 375.475C552.444 376.592 552.561 377.858 552.561 379.275C552.561 380.708 552.444 381.983 552.211 383.1C551.978 384.217 551.611 385.158 551.111 385.925C550.611 386.692 549.978 387.283 549.211 387.7C548.444 388.1 547.528 388.3 546.461 388.3ZM546.461 386.475C547.161 386.475 547.761 386.342 548.261 386.075C548.761 385.792 549.161 385.4 549.461 384.9C549.778 384.4 550.011 383.8 550.161 383.1C550.311 382.383 550.386 381.583 550.386 380.7V377.85C550.386 376.983 550.311 376.192 550.161 375.475C550.011 374.758 549.778 374.15 549.461 373.65C549.161 373.15 548.761 372.767 548.261 372.5C547.761 372.217 547.161 372.075 546.461 372.075C545.761 372.075 545.161 372.217 544.661 372.5C544.161 372.767 543.753 373.15 543.436 373.65C543.136 374.15 542.911 374.758 542.761 375.475C542.611 376.192 542.536 376.983 542.536 377.85V380.7C542.536 381.583 542.611 382.383 542.761 383.1C542.911 383.8 543.136 384.4 543.436 384.9C543.753 385.4 544.161 385.792 544.661 386.075C545.161 386.342 545.761 386.475 546.461 386.475ZM546.461 380.75C545.878 380.75 545.469 380.633 545.236 380.4C545.019 380.167 544.911 379.883 544.911 379.55V379C544.911 378.667 545.019 378.383 545.236 378.15C545.469 377.917 545.878 377.8 546.461 377.8C547.044 377.8 547.444 377.917 547.661 378.15C547.894 378.383 548.011 378.667 548.011 379V379.55C548.011 379.883 547.894 380.167 547.661 380.4C547.444 380.633 547.044 380.75 546.461 380.75ZM559.701 388.3C558.635 388.3 557.718 388.1 556.951 387.7C556.185 387.283 555.551 386.692 555.051 385.925C554.551 385.158 554.185 384.217 553.951 383.1C553.718 381.983 553.601 380.708 553.601 379.275C553.601 377.858 553.718 376.592 553.951 375.475C554.185 374.342 554.551 373.392 555.051 372.625C555.551 371.858 556.185 371.275 556.951 370.875C557.718 370.458 558.635 370.25 559.701 370.25C560.768 370.25 561.685 370.458 562.451 370.875C563.218 371.275 563.851 371.858 564.351 372.625C564.851 373.392 565.218 374.342 565.451 375.475C565.685 376.592 565.801 377.858 565.801 379.275C565.801 380.708 565.685 381.983 565.451 383.1C565.218 384.217 564.851 385.158 564.351 385.925C563.851 386.692 563.218 387.283 562.451 387.7C561.685 388.1 560.768 388.3 559.701 388.3ZM559.701 386.475C560.401 386.475 561.001 386.342 561.501 386.075C562.001 385.792 562.401 385.4 562.701 384.9C563.018 384.4 563.251 383.8 563.401 383.1C563.551 382.383 563.626 381.583 563.626 380.7V377.85C563.626 376.983 563.551 376.192 563.401 375.475C563.251 374.758 563.018 374.15 562.701 373.65C562.401 373.15 562.001 372.767 561.501 372.5C561.001 372.217 560.401 372.075 559.701 372.075C559.001 372.075 558.401 372.217 557.901 372.5C557.401 372.767 556.993 373.15 556.676 373.65C556.376 374.15 556.151 374.758 556.001 375.475C555.851 376.192 555.776 376.983 555.776 377.85V380.7C555.776 381.583 555.851 382.383 556.001 383.1C556.151 383.8 556.376 384.4 556.676 384.9C556.993 385.4 557.401 385.792 557.901 386.075C558.401 386.342 559.001 386.475 559.701 386.475ZM559.701 380.75C559.118 380.75 558.71 380.633 558.476 380.4C558.26 380.167 558.151 379.883 558.151 379.55V379C558.151 378.667 558.26 378.383 558.476 378.15C558.71 377.917 559.118 377.8 559.701 377.8C560.285 377.8 560.685 377.917 560.901 378.15C561.135 378.383 561.251 378.667 561.251 379V379.55C561.251 379.883 561.135 380.167 560.901 380.4C560.685 380.633 560.285 380.75 559.701 380.75ZM567.566 388V386.175H572.566V372.1H572.391L567.991 376.2L566.766 374.875L571.391 370.55H574.666V386.175H579.266V388H567.566ZM586.182 388.3C585.165 388.3 584.273 388.175 583.507 387.925C582.74 387.658 582.098 387.3 581.582 386.85C581.082 386.4 580.698 385.867 580.432 385.25C580.182 384.633 580.057 383.967 580.057 383.25C580.057 382.05 580.382 381.1 581.032 380.4C581.682 379.7 582.54 379.208 583.607 378.925V378.725C582.673 378.408 581.932 377.9 581.382 377.2C580.848 376.483 580.582 375.625 580.582 374.625C580.582 373.292 581.073 372.233 582.057 371.45C583.04 370.65 584.415 370.25 586.182 370.25C587.948 370.25 589.323 370.65 590.307 371.45C591.29 372.233 591.782 373.292 591.782 374.625C591.782 375.625 591.507 376.483 590.957 377.2C590.423 377.9 589.69 378.408 588.757 378.725V378.925C589.823 379.208 590.682 379.7 591.332 380.4C591.982 381.1 592.307 382.05 592.307 383.25C592.307 383.967 592.173 384.633 591.907 385.25C591.657 385.867 591.273 386.4 590.757 386.85C590.24 387.3 589.598 387.658 588.832 387.925C588.082 388.175 587.198 388.3 586.182 388.3ZM586.182 386.525C587.415 386.525 588.382 386.25 589.082 385.7C589.782 385.15 590.132 384.375 590.132 383.375V382.825C590.132 381.825 589.782 381.05 589.082 380.5C588.398 379.95 587.432 379.675 586.182 379.675C584.932 379.675 583.957 379.95 583.257 380.5C582.573 381.05 582.232 381.825 582.232 382.825V383.375C582.232 384.375 582.582 385.15 583.282 385.7C583.982 386.25 584.948 386.525 586.182 386.525ZM586.182 377.975C587.315 377.975 588.173 377.733 588.757 377.25C589.357 376.767 589.657 376.075 589.657 375.175V374.825C589.657 373.925 589.348 373.233 588.732 372.75C588.132 372.267 587.282 372.025 586.182 372.025C585.082 372.025 584.223 372.267 583.607 372.75C583.007 373.233 582.707 373.925 582.707 374.825V375.175C582.707 376.075 582.998 376.767 583.582 377.25C584.182 377.733 585.048 377.975 586.182 377.975Z" fill="#FFFAEE"/>
<rect x="417.75" y="605.658" width="264.5" height="28.5" rx="14.25" stroke="#FFFAEE" stroke-width="1.5"/>
<path d="M593.142 438.683C595.07 436.833 597.601 435.814 600.268 435.814C605.943 435.814 610.559 440.425 610.559 446.092C610.559 451.758 605.942 456.369 600.268 456.369C600.183 456.369 600.098 456.368 600.014 456.366C599.675 456.358 599.396 456.63 599.396 456.968V459.864C599.396 460.192 599.659 460.46 599.987 460.466C600.08 460.468 600.174 460.469 600.268 460.469C608.206 460.469 614.665 454.019 614.665 446.092C614.665 438.164 608.206 431.714 600.268 431.714C596.526 431.714 592.979 433.146 590.28 435.746C588.259 437.693 586.875 440.137 586.25 442.807C586.023 443.781 585.918 444.778 585.917 445.778L585.872 471.596C585.872 472.003 586.202 472.333 586.609 472.333H589.239C589.646 472.333 589.976 472.004 589.976 471.597V445.889L589.986 445.649C590.098 443.002 591.22 440.528 593.142 438.683H593.142Z" fill="#FFFAEE"/>
<path d="M600.268 429.958C604.876 429.958 609.19 431.872 612.3 435.323C614.757 438.051 616.207 441.548 616.4 445.211C616.646 449.847 614.95 454.246 611.692 457.501C608.64 460.548 604.583 462.227 600.268 462.227C600.209 462.227 600.15 462.225 600.092 462.224C599.71 462.218 599.396 462.526 599.396 462.907V465.641C599.396 466.015 599.697 466.32 600.071 466.324C600.137 466.326 600.202 466.327 600.268 466.327C605.68 466.327 610.768 464.222 614.595 460.4C618.422 456.578 620.53 451.497 620.53 446.092C620.53 440.687 618.422 435.606 614.595 431.784C610.768 427.962 605.68 425.857 600.268 425.857C594.856 425.857 589.768 427.962 585.941 431.784C582.507 435.213 580.446 439.691 580.069 444.49C580.048 444.766 580.039 445.043 580.038 445.32L580.007 471.597C580.007 472.004 580.336 472.334 580.744 472.334H583.374C583.781 472.334 584.111 472.004 584.111 471.598V445.886L584.117 445.64C584.23 441.505 585.908 437.614 588.842 434.683C591.894 431.636 595.951 429.958 600.267 429.958H600.268Z" fill="#FFFAEE"/>
<path d="M624.34 435.935C623.024 432.827 621.141 430.038 618.742 427.642C616.343 425.246 613.549 423.366 610.438 422.051C607.216 420.69 603.794 420 600.268 420C596.741 420 593.32 420.69 590.097 422.051C586.986 423.366 584.192 425.246 581.794 427.642C579.395 430.038 577.512 432.828 576.195 435.935C574.982 438.8 574.3 441.83 574.167 444.951L574.142 471.596C574.142 472.003 574.472 472.333 574.879 472.333H577.509C577.916 472.333 578.246 472.004 578.246 471.597V445.912L578.251 445.636C578.367 439.937 580.655 434.577 584.696 430.542C588.855 426.388 594.385 424.101 600.267 424.101C606.149 424.101 611.679 426.388 615.838 430.542C619.73 434.428 621.986 439.514 622.26 444.964C622.592 451.564 619.928 457.988 615.019 462.421C610.966 466.081 605.771 468.084 600.267 468.084C600.207 468.084 600.148 468.083 600.089 468.082H600.087C599.706 468.077 599.395 468.384 599.395 468.764V471.5C599.395 471.874 599.697 472.178 600.071 472.182C600.137 472.183 600.201 472.184 600.267 472.184C603.793 472.184 607.215 471.494 610.437 470.132C613.549 468.818 616.343 466.937 618.741 464.542C621.139 462.147 623.023 459.356 624.339 456.249C625.702 453.032 626.393 449.614 626.393 446.093C626.393 442.571 625.702 439.154 624.339 435.936L624.34 435.935Z" fill="#FFFAEE"/>
<path d="M604.695 446.091C604.695 448.528 602.709 450.511 600.268 450.511C600.192 450.511 600.112 450.509 600.031 450.505C599.686 450.486 599.396 450.761 599.396 451.106V454.004C599.396 454.329 599.654 454.595 599.979 454.606C600.078 454.609 600.176 454.611 600.268 454.611C604.973 454.611 608.8 450.788 608.8 446.09C608.8 441.392 604.973 437.569 600.268 437.569C598.93 437.569 597.658 437.882 596.523 438.439C593.622 439.863 591.817 442.846 591.811 446.074L591.738 471.594C591.736 472.001 592.067 472.332 592.475 472.332H595.103C595.51 472.332 595.84 472.002 595.84 471.596V445.9C595.84 445.895 595.84 445.891 595.841 445.887L595.86 445.678C595.962 444.588 596.466 443.577 597.279 442.832C598.098 442.082 599.159 441.669 600.267 441.669C602.708 441.669 604.694 443.653 604.694 446.09L604.695 446.091Z" fill="#FFFAEE"/>
<path d="M462.211 420.449V472.76C447.732 472.737 436 461.03 436 446.605C436 432.156 447.732 420.449 462.211 420.449ZM514.091 461.772C505.67 461.772 500.265 454.424 500.265 446.515C500.265 438.605 505.692 431.527 514.024 431.527C519.788 431.527 524.449 435.212 526.476 440.47H540.234C539.739 437.482 538.433 434.583 536.767 432.066C531.61 424.292 523.414 420 514.091 420C502.044 420 491.911 427.46 488.421 438.246V420.449C473.942 420.449 462.211 432.156 462.211 446.605C462.211 461.053 473.942 472.76 488.421 472.76V454.896C491.934 465.727 502.179 473.299 514.226 473.299C526.679 473.299 537.239 465.255 540.234 453.098H526.476C524.179 458.154 519.856 461.772 514.091 461.772Z" fill="#FFFAEE"/>
<path d="M760.637 605.057H762.875C763.81 605.057 764.502 605.356 764.953 605.952C765.404 606.549 765.63 607.408 765.63 608.529C765.63 609.649 765.404 610.508 764.953 611.105C764.502 611.702 763.81 612 762.875 612H760.637V605.057ZM762.775 610.826C763.219 610.826 763.544 610.684 763.75 610.399C763.955 610.113 764.058 609.699 764.058 609.155V607.892C764.058 607.355 763.955 606.944 763.75 606.659C763.544 606.374 763.219 606.231 762.775 606.231H762.109V610.826H762.775ZM769.336 612.119C768.752 612.119 768.245 612.023 767.814 611.831C767.383 611.639 767.035 611.377 766.77 611.045L767.635 610.09C767.887 610.369 768.162 610.574 768.461 610.707C768.766 610.84 769.074 610.906 769.386 610.906C769.744 610.906 770.016 610.826 770.201 610.667C770.387 610.508 770.48 610.279 770.48 609.981C770.48 609.735 770.407 609.55 770.261 609.424C770.122 609.298 769.883 609.208 769.545 609.155L768.819 609.036C768.195 608.93 767.745 608.701 767.466 608.35C767.188 607.992 767.048 607.557 767.048 607.047C767.048 606.377 767.267 605.86 767.705 605.495C768.142 605.124 768.756 604.938 769.545 604.938C770.082 604.938 770.549 605.021 770.947 605.187C771.345 605.352 771.667 605.578 771.912 605.863L771.067 606.808C770.881 606.602 770.662 606.443 770.41 606.33C770.158 606.211 769.873 606.151 769.555 606.151C768.885 606.151 768.55 606.427 768.55 606.977C768.55 607.216 768.623 607.395 768.769 607.514C768.922 607.633 769.167 607.723 769.505 607.783L770.231 607.912C770.795 608.011 771.229 608.224 771.534 608.549C771.839 608.873 771.992 609.311 771.992 609.861C771.992 610.186 771.935 610.488 771.823 610.767C771.71 611.038 771.541 611.277 771.315 611.483C771.09 611.682 770.811 611.838 770.48 611.95C770.155 612.063 769.774 612.119 769.336 612.119ZM777.011 611.015H776.921C776.862 611.161 776.789 611.3 776.703 611.433C776.616 611.566 776.51 611.685 776.384 611.791C776.258 611.891 776.109 611.97 775.937 612.03C775.771 612.09 775.582 612.119 775.37 612.119C775.032 612.119 774.73 612.04 774.465 611.881C774.206 611.721 773.987 611.489 773.808 611.184C773.629 610.879 773.493 610.508 773.4 610.07C773.314 609.633 773.271 609.139 773.271 608.588C773.271 607.408 773.486 606.506 773.917 605.883C774.349 605.253 775.015 604.938 775.917 604.938C776.275 604.938 776.59 604.988 776.862 605.087C777.134 605.18 777.366 605.316 777.558 605.495C777.757 605.667 777.919 605.876 778.045 606.122C778.171 606.367 778.271 606.639 778.344 606.937L776.951 607.275C776.911 607.129 776.865 606.99 776.812 606.858C776.766 606.718 776.703 606.596 776.623 606.49C776.543 606.383 776.444 606.301 776.325 606.241C776.205 606.175 776.059 606.141 775.887 606.141C775.509 606.141 775.24 606.297 775.081 606.609C774.929 606.921 774.852 607.358 774.852 607.922V609.056C774.852 609.619 774.935 610.07 775.101 610.409C775.274 610.747 775.575 610.916 776.006 610.916C776.344 610.916 776.596 610.816 776.762 610.617C776.928 610.418 777.011 610.163 777.011 609.852V609.344H775.827V608.29H778.344V612H777.011V611.015ZM781.374 607.385H781.264V612H779.991V605.057H781.781L783.363 609.672H783.472V605.057H784.745V612H782.955L781.374 607.385ZM760.637 618.057H762.875C763.81 618.057 764.502 618.356 764.953 618.952C765.404 619.549 765.63 620.408 765.63 621.529C765.63 622.649 765.404 623.508 764.953 624.105C764.502 624.702 763.81 625 762.875 625H760.637V618.057ZM762.775 623.826C763.219 623.826 763.544 623.684 763.75 623.399C763.955 623.113 764.058 622.699 764.058 622.155V620.892C764.058 620.355 763.955 619.944 763.75 619.659C763.544 619.374 763.219 619.231 762.775 619.231H762.109V623.826H762.775ZM767.257 625V618.057H771.693V619.281H768.749V620.872H771.594V622.096H768.749V623.777H771.693V625H767.257ZM773.679 625V618.057H776.364C776.703 618.057 777.004 618.11 777.269 618.216C777.535 618.316 777.757 618.462 777.936 618.654C778.122 618.846 778.261 619.078 778.354 619.35C778.447 619.622 778.493 619.927 778.493 620.265C778.493 620.604 778.447 620.909 778.354 621.181C778.261 621.452 778.122 621.684 777.936 621.877C777.757 622.069 777.535 622.218 777.269 622.324C777.004 622.424 776.703 622.474 776.364 622.474H775.181V625H773.679ZM775.181 621.27H775.986C776.338 621.27 776.58 621.204 776.712 621.071C776.852 620.938 776.921 620.72 776.921 620.415V620.116C776.921 619.811 776.852 619.592 776.712 619.46C776.58 619.327 776.338 619.261 775.986 619.261H775.181V621.27ZM783.114 619.281V625H781.622V619.281H779.623V618.057H785.113V619.281H783.114Z" fill="#FFFAEE"/>
<path d="M290 551C271.803 551 257 563.108 257 578C257 592.892 271.803 605 290 605C308.197 605 323 592.892 323 578C323 563.108 308.197 551 290 551ZM288.542 555.407V565.519C285.583 565.476 282.716 565.298 280.017 565.009C282.8 560.773 286.278 557.385 288.542 555.407ZM288.542 568.295V576.616H275.658C275.91 573.432 276.983 570.392 278.466 567.625C281.635 568.024 285.038 568.253 288.55 568.304L288.542 568.295ZM288.542 579.384V587.705C285.029 587.756 281.626 587.985 278.458 588.384C276.983 585.616 275.901 582.576 275.658 579.392H288.542V579.384ZM288.542 590.473V600.593C286.278 598.615 282.791 595.227 280.009 590.991C282.708 590.693 285.583 590.515 288.542 590.473ZM291.467 600.585V590.473C294.401 590.515 297.267 590.702 299.983 591.008C297.2 595.236 293.73 598.615 291.467 600.593V600.585ZM291.467 587.696V579.375H304.35C304.099 582.568 303.026 585.608 301.542 588.375C298.374 587.976 294.979 587.739 291.467 587.688V587.696ZM291.467 576.608V568.287C294.979 568.236 298.374 567.998 301.542 567.599C303.026 570.367 304.107 573.415 304.35 576.599H291.467V576.608ZM291.467 565.519V555.407C293.73 557.385 297.2 560.764 299.983 564.992C297.267 565.298 294.401 565.476 291.467 565.527V565.519ZM294.208 554.014C301.584 554.846 308.114 557.852 312.766 562.191C310.184 563.192 306.881 563.999 303.168 564.568C300.394 560.008 296.798 556.332 294.208 554.014ZM276.823 564.593C273.11 564.025 269.824 563.218 267.218 562.208C271.87 557.852 278.408 554.846 285.801 554.006C283.211 556.332 279.606 560.017 276.832 564.585L276.823 564.593ZM275.407 567.175C273.974 570.07 272.943 573.245 272.716 576.608H259.976C260.294 572.091 262.155 567.905 265.139 564.381C267.88 565.553 271.392 566.504 275.407 567.175ZM272.716 579.384C272.943 582.746 273.974 585.922 275.407 588.817C271.4 589.488 267.888 590.43 265.139 591.61C262.155 588.087 260.294 583.901 259.976 579.384H272.708H272.716ZM276.823 591.398C279.606 595.966 283.202 599.651 285.792 601.977C278.399 601.137 271.861 598.131 267.209 593.775C269.824 592.765 273.102 591.958 276.815 591.39L276.823 591.398ZM303.16 591.424C306.881 591.992 310.176 592.808 312.757 593.801C308.105 598.14 301.576 601.145 294.199 601.977C296.789 599.651 300.377 595.975 303.16 591.424ZM304.593 588.825C306.035 585.922 307.066 582.746 307.292 579.375H320.024C319.706 583.901 317.837 588.095 314.844 591.627C312.112 590.447 308.6 589.496 304.593 588.825ZM307.292 576.608C307.066 573.245 306.035 570.061 304.593 567.158C308.6 566.487 312.103 565.536 314.844 564.356C317.837 567.888 319.706 572.082 320.024 576.608H307.292Z" fill="#FFFAEE"/>
<path d="M289.588 678.381C270.513 678.381 255 667.078 255 653.186C255 639.295 270.513 628 289.588 628C308.664 628 324.177 639.303 324.177 653.186C324.177 667.07 308.664 678.373 289.588 678.373V678.381ZM289.588 630.372C271.823 630.372 257.372 640.613 257.372 653.186C257.372 665.76 271.823 676 289.588 676C307.354 676 321.804 665.768 321.804 653.186C321.804 640.605 307.354 630.372 289.588 630.372Z" fill="#FFFAEE"/>
<path d="M308.688 661.781C303.64 661.198 299.749 657.547 299.749 653.194C299.749 648.84 303.632 645.182 308.688 644.606V640.564C301.403 641.188 295.731 646.667 295.731 653.194C295.731 659.72 301.395 665.2 308.688 665.823V661.781Z" fill="#FFFAEE"/>
<path d="M294.973 661.781C289.924 661.198 286.034 657.547 286.034 653.194C286.034 648.84 289.916 645.182 294.973 644.606V640.564C287.688 641.188 282.016 646.667 282.016 653.194C282.016 659.72 287.68 665.2 294.973 665.823V661.781Z" fill="#FFFAEE"/>
<path d="M282.016 661.781C276.968 661.198 273.077 657.547 273.077 653.194C273.077 648.84 276.96 645.182 282.016 644.606V640.564C274.731 641.188 269.059 646.667 269.059 653.194C269.059 659.72 274.723 665.2 282.016 665.823V661.781Z" fill="#FFFAEE"/>
<defs>
<clipPath id="clip0_94_197">
<rect width="33" height="52" fill="white" transform="translate(756 589)"/>
</clipPath>
</defs>
</svg>
