<svg width="1080" height="1080" viewBox="0 0 1080 1080" fill="none" xmlns="http://www.w3.org/2000/svg">
<rect width="1080" height="1080" fill="#191919"/>
<path d="M228.198 577V485.058H247.697C255.273 485.058 260.998 487.124 264.872 491.256C268.832 495.388 270.812 501.242 270.812 508.818V551.819C270.812 560.428 268.703 566.799 264.485 570.931C260.352 574.977 254.369 577 246.535 577H228.198ZM241.37 497.454V564.603H247.439C251.141 564.603 253.767 563.699 255.316 561.891C256.866 559.998 257.641 557.071 257.641 553.11V508.818C257.641 505.202 256.909 502.404 255.445 500.424C253.982 498.444 251.313 497.454 247.439 497.454H241.37ZM320.629 511.53H307.457V508.56C307.457 505.547 306.726 502.964 305.262 500.812C303.885 498.573 301.517 497.454 298.16 497.454C296.352 497.454 294.889 497.799 293.769 498.487C292.65 499.176 291.746 500.037 291.058 501.07C290.369 502.189 289.895 503.481 289.637 504.944C289.379 506.321 289.25 507.785 289.25 509.335C289.25 511.142 289.293 512.649 289.379 513.854C289.551 515.059 289.895 516.136 290.412 517.083C290.929 518.029 291.66 518.847 292.607 519.536C293.64 520.225 295.018 520.913 296.739 521.602L306.812 525.605C309.739 526.724 312.106 528.059 313.914 529.608C315.722 531.072 317.142 532.794 318.175 534.774C319.122 536.84 319.768 539.207 320.112 541.876C320.457 544.459 320.629 547.429 320.629 550.786C320.629 554.66 320.242 558.276 319.467 561.633C318.692 564.905 317.444 567.702 315.722 570.027C313.914 572.437 311.547 574.331 308.62 575.709C305.693 577.086 302.12 577.775 297.902 577.775C294.716 577.775 291.746 577.215 288.992 576.096C286.237 574.977 283.869 573.427 281.889 571.447C279.909 569.467 278.317 567.186 277.111 564.603C275.992 561.935 275.433 559.051 275.433 555.951V551.044H288.604V555.177C288.604 557.587 289.293 559.782 290.67 561.762C292.134 563.656 294.544 564.603 297.902 564.603C300.14 564.603 301.862 564.302 303.067 563.699C304.358 563.011 305.348 562.064 306.037 560.858C306.726 559.653 307.113 558.233 307.199 556.597C307.371 554.875 307.457 552.981 307.457 550.915C307.457 548.505 307.371 546.525 307.199 544.975C307.027 543.426 306.683 542.177 306.166 541.23C305.564 540.283 304.746 539.509 303.713 538.906C302.766 538.303 301.474 537.658 299.839 536.969L290.412 533.095C284.73 530.771 280.899 527.714 278.919 523.927C277.025 520.053 276.078 515.232 276.078 509.464C276.078 506.02 276.552 502.749 277.499 499.65C278.446 496.55 279.866 493.882 281.76 491.643C283.568 489.405 285.849 487.64 288.604 486.349C291.445 484.972 294.803 484.283 298.676 484.283C301.948 484.283 304.918 484.885 307.587 486.091C310.341 487.296 312.709 488.889 314.689 490.869C318.649 495.001 320.629 499.736 320.629 505.073V511.53ZM324.535 506.752C324.535 503.05 325.181 499.779 326.472 496.938C327.764 494.097 329.485 491.729 331.638 489.836C333.704 488.028 336.028 486.65 338.611 485.703C341.279 484.756 343.948 484.283 346.617 484.283C349.286 484.283 351.911 484.756 354.494 485.703C357.163 486.65 359.573 488.028 361.725 489.836C363.792 491.729 365.47 494.097 366.762 496.938C368.053 499.779 368.699 503.05 368.699 506.752V511.401H355.527V506.752C355.527 503.567 354.623 501.242 352.815 499.779C351.094 498.229 349.027 497.454 346.617 497.454C344.206 497.454 342.097 498.229 340.289 499.779C338.568 501.242 337.707 503.567 337.707 506.752V555.306C337.707 558.491 338.568 560.858 340.289 562.408C342.097 563.872 344.206 564.603 346.617 564.603C349.027 564.603 351.094 563.872 352.815 562.408C354.623 560.858 355.527 558.491 355.527 555.306V538.002H345.067V526.38H368.699V555.306C368.699 559.18 368.053 562.494 366.762 565.249C365.47 568.004 363.792 570.285 361.725 572.093C359.573 573.987 357.163 575.407 354.494 576.354C351.911 577.301 349.286 577.775 346.617 577.775C343.948 577.775 341.279 577.301 338.611 576.354C336.028 575.407 333.704 573.987 331.638 572.093C329.485 570.285 327.764 568.004 326.472 565.249C325.181 562.494 324.535 559.18 324.535 555.306V506.752ZM374.61 577V485.058H387.265L407.152 540.455H407.41V485.058H420.582V577H408.185L388.04 521.731H387.782V577H374.61ZM426.823 547.816V534.645H465.692V547.816H426.823ZM470.557 504.04C470.557 500.941 471.073 498.186 472.107 495.776C473.226 493.365 474.689 491.299 476.497 489.577C478.305 487.856 480.371 486.564 482.695 485.703C485.106 484.756 487.602 484.283 490.185 484.283C492.768 484.283 495.221 484.756 497.546 485.703C499.956 486.564 502.065 487.856 503.873 489.577C505.681 491.299 507.101 493.365 508.135 495.776C509.254 498.186 509.813 500.941 509.813 504.04V558.018C509.813 561.117 509.254 563.872 508.135 566.282C507.101 568.692 505.681 570.759 503.873 572.48C502.065 574.202 499.956 575.536 497.546 576.483C495.221 577.344 492.768 577.775 490.185 577.775C487.602 577.775 485.106 577.344 482.695 576.483C480.371 575.536 478.305 574.202 476.497 572.48C474.689 570.759 473.226 568.692 472.107 566.282C471.073 563.872 470.557 561.117 470.557 558.018V504.04ZM483.728 558.018C483.728 559.911 484.331 561.504 485.536 562.795C486.742 564.001 488.291 564.603 490.185 564.603C492.079 564.603 493.629 564.001 494.834 562.795C496.039 561.504 496.642 559.911 496.642 558.018V504.04C496.642 502.146 496.039 500.597 494.834 499.391C493.629 498.1 492.079 497.454 490.185 497.454C488.291 497.454 486.742 498.1 485.536 499.391C484.331 500.597 483.728 502.146 483.728 504.04V558.018ZM513.438 504.04C513.438 500.941 513.955 498.186 514.988 495.776C516.107 493.365 517.57 491.299 519.378 489.577C521.186 487.856 523.252 486.564 525.576 485.703C527.987 484.756 530.484 484.283 533.066 484.283C535.649 484.283 538.102 484.756 540.427 485.703C542.837 486.564 544.946 487.856 546.754 489.577C548.562 491.299 549.983 493.365 551.016 495.776C552.135 498.186 552.694 500.941 552.694 504.04V558.018C552.694 561.117 552.135 563.872 551.016 566.282C549.983 568.692 548.562 570.759 546.754 572.48C544.946 574.202 542.837 575.536 540.427 576.483C538.102 577.344 535.649 577.775 533.066 577.775C530.484 577.775 527.987 577.344 525.576 576.483C523.252 575.536 521.186 574.202 519.378 572.48C517.57 570.759 516.107 568.692 514.988 566.282C513.955 563.872 513.438 561.117 513.438 558.018V504.04ZM526.61 558.018C526.61 559.911 527.212 561.504 528.417 562.795C529.623 564.001 531.172 564.603 533.066 564.603C534.96 564.603 536.51 564.001 537.715 562.795C538.92 561.504 539.523 559.911 539.523 558.018V504.04C539.523 502.146 538.92 500.597 537.715 499.391C536.51 498.1 534.96 497.454 533.066 497.454C531.172 497.454 529.623 498.1 528.417 499.391C527.212 500.597 526.61 502.146 526.61 504.04V558.018ZM571.944 577V499.004L558.773 508.689V494.743L571.944 485.058H585.116V577H571.944Z" fill="#FFFAEE"/>
<path d="M513.042 456V427.52H519.082C521.429 427.52 523.202 428.16 524.402 429.44C525.629 430.72 526.242 432.533 526.242 434.88V448.2C526.242 450.867 525.589 452.84 524.282 454.12C523.002 455.373 521.149 456 518.722 456H513.042ZM517.122 431.36V452.16H519.002C520.149 452.16 520.962 451.88 521.442 451.32C521.922 450.733 522.162 449.827 522.162 448.6V434.88C522.162 433.76 521.935 432.893 521.482 432.28C521.029 431.667 520.202 431.36 519.002 431.36H517.122ZM528.473 456V427.52H540.633V431.36H532.553V439.72H539.593V443.56H532.553V451.92H540.633V456H528.473ZM541.678 456V427.52H547.798C548.918 427.52 549.904 427.667 550.758 427.96C551.611 428.253 552.384 428.773 553.078 429.52C553.771 430.267 554.251 431.147 554.518 432.16C554.784 433.147 554.918 434.493 554.918 436.2C554.918 437.48 554.838 438.56 554.678 439.44C554.544 440.32 554.238 441.147 553.758 441.92C553.198 442.853 552.451 443.587 551.518 444.12C550.584 444.627 549.358 444.88 547.838 444.88H545.758V456H541.678ZM545.758 431.36V441.04H547.718C548.544 441.04 549.184 440.92 549.638 440.68C550.091 440.44 550.424 440.107 550.638 439.68C550.851 439.28 550.971 438.787 550.998 438.2C551.051 437.613 551.078 436.96 551.078 436.24C551.078 435.573 551.064 434.947 551.038 434.36C551.011 433.747 550.891 433.213 550.678 432.76C550.464 432.307 550.144 431.96 549.718 431.72C549.291 431.48 548.678 431.36 547.878 431.36H545.758ZM559.047 456V431.36H554.327V427.52H567.847V431.36H563.127V456H559.047ZM564.136 456V451.92H568.216V456H564.136Z" fill="#FFFAEE"/>
<path d="M657.641 496.824V501.432H647.945V510.648C648.393 510.2 648.969 509.832 649.673 509.544C650.377 509.224 651.161 509.064 652.025 509.064C653.689 509.064 655.033 509.576 656.057 510.6C657.113 511.592 657.641 513.096 657.641 515.112V523.944C657.641 525.096 657.433 526.12 657.017 527.016C656.633 527.912 656.105 528.68 655.433 529.32C654.761 529.96 653.977 530.456 653.081 530.808C652.217 531.128 651.305 531.288 650.345 531.288C649.385 531.288 648.457 531.128 647.561 530.808C646.697 530.456 645.929 529.96 645.257 529.32C644.585 528.68 644.041 527.912 643.625 527.016C643.241 526.12 643.049 525.096 643.049 523.944V522.504H647.945V523.752C647.945 524.584 648.169 525.24 648.617 525.72C649.097 526.168 649.705 526.392 650.441 526.392C651.177 526.392 651.737 526.168 652.121 525.72C652.537 525.272 652.745 524.648 652.745 523.848V515.832C652.745 515.16 652.521 514.584 652.073 514.104C651.657 513.624 651.113 513.384 650.441 513.384C650.025 513.384 649.673 513.464 649.385 513.624C649.097 513.752 648.857 513.912 648.665 514.104C648.473 514.296 648.329 514.504 648.233 514.728C648.073 515.016 647.977 515.192 647.945 515.256H643.625V496.824H657.641ZM665.974 503.88C665.974 502.728 666.166 501.704 666.55 500.808C666.966 499.912 667.51 499.144 668.182 498.504C668.854 497.864 669.622 497.384 670.486 497.064C671.382 496.712 672.31 496.536 673.27 496.536C674.23 496.536 675.142 496.712 676.006 497.064C676.902 497.384 677.686 497.864 678.358 498.504C679.03 499.144 679.558 499.912 679.942 500.808C680.358 501.704 680.566 502.728 680.566 503.88V523.944C680.566 525.096 680.358 526.12 679.942 527.016C679.558 527.912 679.03 528.68 678.358 529.32C677.686 529.96 676.902 530.456 676.006 530.808C675.142 531.128 674.23 531.288 673.27 531.288C672.31 531.288 671.382 531.128 670.486 530.808C669.622 530.456 668.854 529.96 668.182 529.32C667.51 528.68 666.966 527.912 666.55 527.016C666.166 526.12 665.974 525.096 665.974 523.944V503.88ZM670.87 523.944C670.87 524.648 671.094 525.24 671.542 525.72C671.99 526.168 672.566 526.392 673.27 526.392C673.974 526.392 674.55 526.168 674.998 525.72C675.446 525.24 675.67 524.648 675.67 523.944V503.88C675.67 503.176 675.446 502.6 674.998 502.152C674.55 501.672 673.974 501.432 673.27 501.432C672.566 501.432 671.99 501.672 671.542 502.152C671.094 502.6 670.87 503.176 670.87 503.88V523.944ZM703.492 496.824V501.432H693.796V510.648C694.244 510.2 694.82 509.832 695.524 509.544C696.228 509.224 697.012 509.064 697.876 509.064C699.54 509.064 700.884 509.576 701.908 510.6C702.964 511.592 703.492 513.096 703.492 515.112V523.944C703.492 525.096 703.284 526.12 702.868 527.016C702.484 527.912 701.956 528.68 701.284 529.32C700.612 529.96 699.828 530.456 698.932 530.808C698.068 531.128 697.156 531.288 696.196 531.288C695.236 531.288 694.308 531.128 693.412 530.808C692.548 530.456 691.78 529.96 691.108 529.32C690.436 528.68 689.892 527.912 689.476 527.016C689.092 526.12 688.9 525.096 688.9 523.944V522.504H693.796V523.752C693.796 524.584 694.02 525.24 694.468 525.72C694.948 526.168 695.556 526.392 696.292 526.392C697.028 526.392 697.588 526.168 697.972 525.72C698.388 525.272 698.596 524.648 698.596 523.848V515.832C698.596 515.16 698.372 514.584 697.924 514.104C697.508 513.624 696.964 513.384 696.292 513.384C695.876 513.384 695.524 513.464 695.236 513.624C694.948 513.752 694.708 513.912 694.516 514.104C694.324 514.296 694.18 514.504 694.084 514.728C693.924 515.016 693.828 515.192 693.796 515.256H689.476V496.824H703.492ZM717.42 531.288L723.756 496.536H727.596L721.26 531.288H717.42ZM756.097 496.824V501.432H746.401V510.648C746.849 510.2 747.425 509.832 748.129 509.544C748.833 509.224 749.617 509.064 750.481 509.064C752.145 509.064 753.489 509.576 754.513 510.6C755.569 511.592 756.097 513.096 756.097 515.112V523.944C756.097 525.096 755.889 526.12 755.473 527.016C755.089 527.912 754.561 528.68 753.889 529.32C753.217 529.96 752.433 530.456 751.537 530.808C750.673 531.128 749.761 531.288 748.801 531.288C747.841 531.288 746.913 531.128 746.017 530.808C745.153 530.456 744.385 529.96 743.713 529.32C743.041 528.68 742.497 527.912 742.081 527.016C741.697 526.12 741.505 525.096 741.505 523.944V522.504H746.401V523.752C746.401 524.584 746.625 525.24 747.073 525.72C747.553 526.168 748.161 526.392 748.897 526.392C749.633 526.392 750.193 526.168 750.577 525.72C750.993 525.272 751.201 524.648 751.201 523.848V515.832C751.201 515.16 750.977 514.584 750.529 514.104C750.113 513.624 749.569 513.384 748.897 513.384C748.481 513.384 748.129 513.464 747.841 513.624C747.553 513.752 747.313 513.912 747.121 514.104C746.929 514.296 746.785 514.504 746.689 514.728C746.529 515.016 746.433 515.192 746.401 515.256H742.081V496.824H756.097ZM772.974 531V525.912H763.23V521.304L770.286 496.824H775.47L768.126 521.304H772.974V511.56H777.87V521.304H780.222V525.912H777.87V531H772.974ZM793.164 531V502.008L788.268 505.608V500.424L793.164 496.824H798.06V531H793.164Z" fill="#FFFAEE"/>
<path d="M503.816 620C503.576 620 503.456 619.912 503.456 619.736C503.456 619.592 503.56 619.496 503.768 619.448L504.32 619.352C504.656 619.288 504.872 619.2 504.968 619.088C505.08 618.976 505.136 618.752 505.136 618.416V604.304C505.136 603.968 505.08 603.744 504.968 603.632C504.872 603.52 504.656 603.432 504.32 603.368L503.768 603.272C503.56 603.224 503.456 603.128 503.456 602.984C503.456 602.808 503.576 602.72 503.816 602.72H508.832C509.776 602.72 510.608 602.928 511.328 603.344C512.048 603.744 512.608 604.304 513.008 605.024C513.408 605.744 513.608 606.576 513.608 607.52C513.608 608.432 513.408 609.24 513.008 609.944C512.608 610.648 512.056 611.2 511.352 611.6C510.648 611.984 509.832 612.176 508.904 612.176H507.176C506.952 612.176 506.84 612.288 506.84 612.512V618.32C506.84 618.656 506.904 618.888 507.032 619.016C507.16 619.128 507.448 619.224 507.896 619.304L508.784 619.448C508.96 619.48 509.048 619.568 509.048 619.712C509.048 619.904 508.928 620 508.688 620H503.816ZM506.84 610.256C506.84 611.136 507.376 611.576 508.448 611.576C509.488 611.576 510.304 611.208 510.896 610.472C511.504 609.736 511.808 608.728 511.808 607.448C511.808 606.136 511.504 605.12 510.896 604.4C510.288 603.68 509.424 603.32 508.304 603.32C507.328 603.32 506.84 603.64 506.84 604.28V610.256ZM514.036 620C513.796 620 513.676 619.912 513.676 619.736C513.676 619.592 513.78 619.496 513.988 619.448L514.54 619.352C515.084 619.256 515.356 618.944 515.356 618.416V604.304C515.356 603.968 515.3 603.744 515.188 603.632C515.092 603.52 514.876 603.432 514.54 603.368L513.988 603.272C513.78 603.224 513.676 603.128 513.676 602.984C513.676 602.808 513.796 602.72 514.036 602.72H518.884C520.132 602.72 521.212 603.088 522.124 603.824C523.036 604.544 523.74 605.56 524.236 606.872C524.732 608.184 524.98 609.704 524.98 611.432C524.98 613.176 524.716 614.688 524.188 615.968C523.676 617.248 522.948 618.24 522.004 618.944C521.06 619.648 519.94 620 518.644 620H514.036ZM518.74 619.376C520.164 619.376 521.244 618.696 521.98 617.336C522.732 615.976 523.108 614.008 523.108 611.432C523.108 608.872 522.748 606.888 522.028 605.48C521.324 604.056 520.276 603.344 518.884 603.344C517.668 603.344 517.06 603.928 517.06 605.096V617.624C517.06 618.264 517.188 618.72 517.444 618.992C517.716 619.248 518.148 619.376 518.74 619.376ZM524.703 620C524.543 620 524.431 619.968 524.367 619.904C524.303 619.84 524.271 619.776 524.271 619.712C524.271 619.552 524.391 619.448 524.631 619.4L525.015 619.328C525.527 619.232 525.927 619.08 526.215 618.872C526.519 618.648 526.775 618.296 526.983 617.816L529.383 612.104C529.463 611.928 529.511 611.752 529.527 611.576C529.559 611.384 529.527 611.184 529.431 610.976L526.431 604.328C526.271 603.96 526.095 603.712 525.903 603.584C525.727 603.456 525.535 603.376 525.327 603.344L524.871 603.272C524.615 603.224 524.487 603.12 524.487 602.96C524.487 602.8 524.623 602.72 524.895 602.72H529.119C529.407 602.72 529.551 602.8 529.551 602.96C529.551 603.12 529.415 603.224 529.143 603.272L528.687 603.344C528.415 603.392 528.223 603.488 528.111 603.632C528.015 603.776 528.039 604.008 528.183 604.328L530.463 609.44C530.527 609.584 530.599 609.656 530.679 609.656C530.775 609.656 530.855 609.584 530.919 609.44L532.983 604.568C533.127 604.216 533.175 603.96 533.127 603.8C533.079 603.624 532.919 603.504 532.647 603.44L531.975 603.296C531.703 603.232 531.567 603.12 531.567 602.96C531.567 602.8 531.711 602.72 531.999 602.72H535.671C535.847 602.72 535.959 602.752 536.007 602.816C536.071 602.864 536.103 602.928 536.103 603.008C536.103 603.168 535.983 603.272 535.743 603.32L535.359 603.392C534.959 603.456 534.623 603.608 534.351 603.848C534.079 604.072 533.839 604.424 533.631 604.904L531.351 610.232C531.271 610.44 531.223 610.64 531.207 610.832C531.207 611.024 531.263 611.232 531.375 611.456L534.471 618.392C534.647 618.776 534.823 619.024 534.999 619.136C535.191 619.248 535.383 619.32 535.575 619.352L536.031 619.424C536.303 619.472 536.439 619.584 536.439 619.76C536.439 619.92 536.295 620 536.007 620H531.759C531.471 620 531.327 619.904 531.327 619.712C531.327 619.568 531.455 619.472 531.711 619.424L532.191 619.352C532.463 619.32 532.655 619.232 532.767 619.088C532.879 618.928 532.871 618.696 532.743 618.392L530.271 612.896C530.207 612.752 530.127 612.68 530.031 612.68C529.951 612.68 529.879 612.752 529.815 612.896L527.655 618.152C527.511 618.504 527.463 618.768 527.511 618.944C527.559 619.104 527.719 619.216 527.991 619.28L528.663 619.424C528.935 619.488 529.071 619.6 529.071 619.76C529.071 619.92 528.927 620 528.639 620H524.703ZM537.756 623.744C537.58 623.92 537.428 623.952 537.3 623.84C537.156 623.728 537.18 623.576 537.372 623.384C537.836 622.92 538.164 622.488 538.356 622.088C538.548 621.688 538.644 621.272 538.644 620.84C538.644 620.584 538.58 620.384 538.452 620.24C538.324 620.112 538.18 619.992 538.02 619.88C537.86 619.768 537.716 619.64 537.588 619.496C537.46 619.336 537.396 619.112 537.396 618.824C537.396 618.504 537.5 618.24 537.708 618.032C537.932 617.808 538.212 617.696 538.548 617.696C538.948 617.696 539.26 617.84 539.484 618.128C539.724 618.416 539.844 618.808 539.844 619.304C539.844 620.152 539.644 620.968 539.244 621.752C538.86 622.552 538.364 623.216 537.756 623.744ZM549.774 620.216C549.006 620.216 548.286 619.992 547.614 619.544C546.942 619.08 546.35 618.448 545.838 617.648C545.342 616.848 544.95 615.912 544.662 614.84C544.39 613.752 544.254 612.584 544.254 611.336C544.254 610.088 544.39 608.928 544.662 607.856C544.95 606.784 545.342 605.848 545.838 605.048C546.35 604.232 546.942 603.6 547.614 603.152C548.286 602.704 549.006 602.48 549.774 602.48C550.542 602.48 551.254 602.704 551.91 603.152C552.582 603.6 553.174 604.232 553.686 605.048C554.198 605.848 554.59 606.784 554.862 607.856C555.15 608.928 555.294 610.088 555.294 611.336C555.294 612.584 555.15 613.752 554.862 614.84C554.59 615.912 554.198 616.848 553.686 617.648C553.174 618.448 552.582 619.08 551.91 619.544C551.254 619.992 550.542 620.216 549.774 620.216ZM549.774 619.568C550.91 619.568 551.798 618.888 552.438 617.528C553.078 616.168 553.398 614.104 553.398 611.336C553.398 608.568 553.078 606.512 552.438 605.168C551.798 603.808 550.91 603.128 549.774 603.128C548.654 603.128 547.766 603.808 547.11 605.168C546.47 606.512 546.15 608.568 546.15 611.336C546.15 614.104 546.47 616.168 547.11 617.528C547.766 618.888 548.654 619.568 549.774 619.568ZM565.86 620.216C564.468 620.216 563.58 619.304 563.196 617.48L562.644 614.816C562.468 613.952 562.268 613.296 562.044 612.848C561.836 612.4 561.54 612.096 561.156 611.936C560.788 611.776 560.276 611.696 559.62 611.696C559.396 611.696 559.22 611.76 559.092 611.888C558.964 612 558.9 612.144 558.9 612.32V618.32C558.9 618.656 558.964 618.888 559.092 619.016C559.22 619.128 559.508 619.224 559.956 619.304L560.844 619.448C561.02 619.48 561.108 619.568 561.108 619.712C561.108 619.904 560.988 620 560.748 620H555.876C555.636 620 555.516 619.912 555.516 619.736C555.516 619.592 555.62 619.496 555.828 619.448L556.38 619.352C556.716 619.288 556.932 619.2 557.028 619.088C557.14 618.976 557.196 618.752 557.196 618.416V604.304C557.196 603.968 557.14 603.744 557.028 603.632C556.932 603.52 556.716 603.432 556.38 603.368L555.828 603.272C555.62 603.224 555.516 603.128 555.516 602.984C555.516 602.808 555.636 602.72 555.876 602.72H560.748C561.692 602.72 562.532 602.904 563.268 603.272C564.004 603.64 564.58 604.152 564.996 604.808C565.412 605.448 565.62 606.192 565.62 607.04C565.62 608.048 565.316 608.96 564.708 609.776C564.1 610.576 563.332 611.144 562.404 611.48C562.292 611.512 562.228 611.568 562.212 611.648C562.212 611.712 562.268 611.768 562.38 611.816C562.892 612.056 563.292 612.392 563.58 612.824C563.884 613.256 564.116 613.832 564.276 614.552L564.804 617C564.98 617.832 565.188 618.424 565.428 618.776C565.668 619.128 565.972 619.304 566.34 619.304C566.468 619.304 566.58 619.288 566.676 619.256C566.788 619.208 566.924 619.128 567.084 619.016C567.212 618.936 567.332 618.92 567.444 618.968C567.556 619 567.612 619.08 567.612 619.208C567.612 619.48 567.436 619.72 567.084 619.928C566.732 620.12 566.324 620.216 565.86 620.216ZM560.508 611.096C561.596 611.096 562.42 610.736 562.98 610.016C563.54 609.28 563.82 608.304 563.82 607.088C563.82 605.904 563.492 604.984 562.836 604.328C562.196 603.656 561.308 603.32 560.172 603.32C559.324 603.32 558.9 603.64 558.9 604.28V609.776C558.9 610.656 559.436 611.096 560.508 611.096ZM566.94 620C566.7 620 566.58 619.912 566.58 619.736C566.58 619.592 566.684 619.496 566.892 619.448L567.444 619.352C567.78 619.288 567.996 619.2 568.092 619.088C568.204 618.976 568.26 618.752 568.26 618.416V604.304C568.26 603.968 568.204 603.744 568.092 603.632C567.996 603.52 567.78 603.432 567.444 603.368L566.892 603.272C566.684 603.224 566.58 603.128 566.58 602.984C566.58 602.808 566.7 602.72 566.94 602.72H575.004C575.372 602.72 575.572 602.904 575.604 603.272L575.796 607.256C575.828 607.528 575.724 607.664 575.484 607.664C575.292 607.664 575.18 607.56 575.148 607.352L575.004 606.464C574.828 605.376 574.468 604.584 573.924 604.088C573.38 603.576 572.628 603.32 571.668 603.32C571.028 603.32 570.58 603.416 570.324 603.608C570.084 603.784 569.964 604.104 569.964 604.568V610.352C569.964 610.576 570.076 610.688 570.3 610.688H571.5C572.204 610.688 572.636 610.312 572.796 609.56L573.036 608.36C573.1 608.12 573.236 608.016 573.444 608.048C573.62 608.08 573.708 608.216 573.708 608.456V613.856C573.708 614.096 573.62 614.232 573.444 614.264C573.236 614.296 573.1 614.192 573.036 613.952L572.796 612.776C572.684 612.216 572.524 611.848 572.316 611.672C572.124 611.496 571.844 611.408 571.476 611.408H570.3C570.076 611.408 569.964 611.52 569.964 611.744V617.768C569.964 618.344 570.108 618.76 570.396 619.016C570.7 619.272 571.244 619.4 572.028 619.4C572.828 619.4 573.508 619.2 574.068 618.8C574.644 618.384 575.044 617.616 575.268 616.496L575.556 615.08C575.604 614.872 575.724 614.768 575.916 614.768C576.14 614.768 576.236 614.904 576.204 615.176L575.964 619.448C575.932 619.816 575.732 620 575.364 620H566.94Z" fill="#FFFAEE"/>
<path d="M286.354 436C286.114 436 285.994 435.912 285.994 435.736C285.994 435.56 286.098 435.464 286.306 435.448L287.338 435.304C287.674 435.256 287.89 435.176 287.986 435.064C288.098 434.936 288.154 434.72 288.154 434.416V431.296C288.154 431.072 288.042 430.96 287.818 430.96H282.97C282.666 430.96 282.514 430.824 282.514 430.552C282.514 430.472 282.53 430.392 282.562 430.312C282.61 430.216 282.666 430.096 282.73 429.952L288.49 418.96C288.554 418.8 288.682 418.72 288.874 418.72H289.354C289.642 418.72 289.714 418.856 289.57 419.128L283.81 429.28C283.698 429.504 283.762 429.616 284.002 429.616H287.818C288.042 429.616 288.154 429.504 288.154 429.28V424.576C288.154 424.432 288.234 424.304 288.394 424.192L289.282 423.688C289.394 423.624 289.49 423.616 289.57 423.664C289.65 423.696 289.69 423.776 289.69 423.904V429.28C289.69 429.504 289.802 429.616 290.026 429.616H291.082C291.274 429.616 291.37 429.712 291.37 429.904V430.672C291.37 430.864 291.274 430.96 291.082 430.96H290.026C289.802 430.96 289.69 431.072 289.69 431.296V434.416C289.69 434.752 289.738 434.976 289.834 435.088C289.946 435.2 290.17 435.288 290.506 435.352L291.058 435.448C291.266 435.496 291.37 435.592 291.37 435.736C291.37 435.912 291.25 436 291.01 436H286.354ZM297.264 436.216C296.832 436.216 296.384 436.152 295.92 436.024C295.472 435.896 295.096 435.704 294.792 435.448C294.488 435.192 294.336 434.88 294.336 434.512C294.336 434.272 294.408 434.08 294.552 433.936C294.696 433.776 294.888 433.696 295.128 433.696C295.4 433.696 295.592 433.792 295.704 433.984C295.832 434.176 295.944 434.392 296.04 434.632C296.136 434.872 296.288 435.088 296.496 435.28C296.72 435.472 297.064 435.568 297.528 435.568C298.04 435.568 298.536 435.424 299.016 435.136C299.512 434.832 299.92 434.344 300.24 433.672C300.576 433 300.744 432.112 300.744 431.008C300.744 429.488 300.384 428.32 299.664 427.504C298.944 426.672 297.72 426.184 295.992 426.04C295.752 426.008 295.656 425.88 295.704 425.656L296.976 419.032C297.024 418.824 297.144 418.72 297.336 418.72H301.104C301.376 418.72 301.568 418.672 301.68 418.576C301.808 418.464 301.912 418.36 301.992 418.264C302.072 418.168 302.176 418.12 302.304 418.12C302.432 418.12 302.504 418.176 302.52 418.288C302.552 418.384 302.552 418.496 302.52 418.624L302.16 419.872C302.112 420.064 301.992 420.16 301.8 420.16H297.84C297.648 420.16 297.528 420.264 297.48 420.472L296.784 424.144C296.736 424.368 296.832 424.488 297.072 424.504C298.336 424.648 299.36 425.008 300.144 425.584C300.944 426.144 301.528 426.856 301.896 427.72C302.28 428.568 302.472 429.496 302.472 430.504C302.472 431.704 302.208 432.736 301.68 433.6C301.168 434.448 300.512 435.096 299.712 435.544C298.928 435.992 298.112 436.216 297.264 436.216ZM307.455 436.216C307.103 436.216 306.799 436.104 306.543 435.88C306.303 435.64 306.183 435.328 306.183 434.944C306.183 434.576 306.303 434.28 306.543 434.056C306.799 433.816 307.103 433.696 307.455 433.696C307.775 433.696 308.063 433.816 308.319 434.056C308.575 434.28 308.703 434.576 308.703 434.944C308.703 435.328 308.575 435.64 308.319 435.88C308.063 436.104 307.775 436.216 307.455 436.216ZM315.564 436.216C315.132 436.216 314.684 436.152 314.22 436.024C313.772 435.896 313.396 435.704 313.092 435.448C312.788 435.192 312.636 434.88 312.636 434.512C312.636 434.272 312.708 434.08 312.852 433.936C312.996 433.776 313.188 433.696 313.428 433.696C313.7 433.696 313.892 433.792 314.004 433.984C314.132 434.176 314.244 434.392 314.34 434.632C314.436 434.872 314.588 435.088 314.796 435.28C315.02 435.472 315.364 435.568 315.828 435.568C316.34 435.568 316.836 435.424 317.316 435.136C317.812 434.832 318.22 434.344 318.54 433.672C318.876 433 319.044 432.112 319.044 431.008C319.044 429.488 318.684 428.32 317.964 427.504C317.244 426.672 316.02 426.184 314.292 426.04C314.052 426.008 313.956 425.88 314.004 425.656L315.276 419.032C315.324 418.824 315.444 418.72 315.636 418.72H319.404C319.676 418.72 319.868 418.672 319.98 418.576C320.108 418.464 320.212 418.36 320.292 418.264C320.372 418.168 320.476 418.12 320.604 418.12C320.732 418.12 320.804 418.176 320.82 418.288C320.852 418.384 320.852 418.496 320.82 418.624L320.46 419.872C320.412 420.064 320.292 420.16 320.1 420.16H316.14C315.948 420.16 315.828 420.264 315.78 420.472L315.084 424.144C315.036 424.368 315.132 424.488 315.372 424.504C316.636 424.648 317.66 425.008 318.444 425.584C319.244 426.144 319.828 426.856 320.196 427.72C320.58 428.568 320.772 429.496 320.772 430.504C320.772 431.704 320.508 432.736 319.98 433.6C319.468 434.448 318.812 435.096 318.012 435.544C317.228 435.992 316.412 436.216 315.564 436.216ZM324.872 436C324.584 436 324.44 435.896 324.44 435.688C324.44 435.576 324.496 435.432 324.608 435.256L327.488 430.864C328.688 429.04 329.552 427.472 330.08 426.16C330.624 424.832 330.896 423.616 330.896 422.512C330.896 421.52 330.688 420.76 330.272 420.232C329.872 419.704 329.288 419.44 328.52 419.44C327.752 419.44 327.056 419.712 326.432 420.256C325.808 420.784 325.408 421.632 325.232 422.8C325.184 423.056 325.064 423.184 324.872 423.184C324.632 423.184 324.528 423.024 324.56 422.704C324.672 421.648 324.944 420.816 325.376 420.208C325.824 419.584 326.36 419.144 326.984 418.888C327.608 418.616 328.24 418.48 328.88 418.48C329.984 418.48 330.88 418.816 331.568 419.488C332.272 420.144 332.624 421.064 332.624 422.248C332.624 423.08 332.424 423.936 332.024 424.816C331.64 425.68 331.104 426.632 330.416 427.672C329.744 428.696 328.968 429.872 328.088 431.2L326.216 434.032C326.12 434.176 326.112 434.304 326.192 434.416C326.288 434.512 326.416 434.56 326.576 434.56H329.144C329.752 434.56 330.256 434.496 330.656 434.368C331.056 434.224 331.376 433.968 331.616 433.6C331.856 433.216 332.04 432.672 332.168 431.968L332.384 430.84C332.432 430.632 332.552 430.528 332.744 430.528C332.968 430.528 333.064 430.664 333.032 430.936L332.744 435.448C332.712 435.816 332.512 436 332.144 436H324.872ZM340.143 436C339.903 436 339.783 435.912 339.783 435.736C339.783 435.56 339.887 435.464 340.095 435.448L341.127 435.304C341.463 435.256 341.679 435.176 341.775 435.064C341.887 434.936 341.943 434.72 341.943 434.416V431.296C341.943 431.072 341.831 430.96 341.607 430.96H336.759C336.455 430.96 336.303 430.824 336.303 430.552C336.303 430.472 336.319 430.392 336.351 430.312C336.399 430.216 336.455 430.096 336.519 429.952L342.279 418.96C342.343 418.8 342.471 418.72 342.663 418.72H343.143C343.431 418.72 343.503 418.856 343.359 419.128L337.599 429.28C337.487 429.504 337.551 429.616 337.791 429.616H341.607C341.831 429.616 341.943 429.504 341.943 429.28V424.576C341.943 424.432 342.023 424.304 342.183 424.192L343.071 423.688C343.183 423.624 343.279 423.616 343.359 423.664C343.439 423.696 343.479 423.776 343.479 423.904V429.28C343.479 429.504 343.591 429.616 343.815 429.616H344.871C345.063 429.616 345.159 429.712 345.159 429.904V430.672C345.159 430.864 345.063 430.96 344.871 430.96H343.815C343.591 430.96 343.479 431.072 343.479 431.296V434.416C343.479 434.752 343.527 434.976 343.623 435.088C343.735 435.2 343.959 435.288 344.295 435.352L344.847 435.448C345.055 435.496 345.159 435.592 345.159 435.736C345.159 435.912 345.039 436 344.799 436H340.143ZM353.045 436.216C352.117 436.216 351.317 436.008 350.645 435.592C349.973 435.16 349.453 434.616 349.085 433.96C348.733 433.288 348.557 432.592 348.557 431.872C348.557 430.88 348.837 430 349.397 429.232C349.957 428.448 350.749 427.784 351.773 427.24C351.869 427.192 351.917 427.136 351.917 427.072C351.917 426.992 351.877 426.92 351.797 426.856C350.901 426.248 350.237 425.56 349.805 424.792C349.373 424.008 349.157 423.232 349.157 422.464C349.157 421.664 349.349 420.968 349.733 420.376C350.133 419.784 350.653 419.32 351.293 418.984C351.933 418.648 352.629 418.48 353.381 418.48C354.101 418.48 354.749 418.648 355.325 418.984C355.901 419.304 356.357 419.752 356.693 420.328C357.029 420.888 357.197 421.528 357.197 422.248C357.197 423.08 356.941 423.856 356.429 424.576C355.917 425.28 355.237 425.864 354.389 426.328C354.293 426.376 354.245 426.44 354.245 426.52C354.245 426.584 354.293 426.648 354.389 426.712C355.557 427.448 356.381 428.208 356.861 428.992C357.357 429.76 357.605 430.608 357.605 431.536C357.605 432.432 357.405 433.232 357.005 433.936C356.605 434.64 356.061 435.2 355.373 435.616C354.685 436.016 353.909 436.216 353.045 436.216ZM353.309 426.04C353.517 426.184 353.725 426.176 353.933 426.016C354.541 425.584 354.997 425.032 355.301 424.36C355.621 423.688 355.781 422.96 355.781 422.176C355.781 421.248 355.573 420.512 355.157 419.968C354.757 419.408 354.149 419.128 353.333 419.128C352.501 419.128 351.829 419.376 351.317 419.872C350.821 420.368 350.573 421.024 350.573 421.84C350.573 422.32 350.637 422.792 350.765 423.256C350.909 423.72 351.181 424.184 351.581 424.648C351.981 425.096 352.557 425.56 353.309 426.04ZM353.093 435.568C354.053 435.568 354.805 435.28 355.349 434.704C355.909 434.128 356.189 433.352 356.189 432.376C356.189 431.56 356.037 430.864 355.733 430.288C355.445 429.696 355.053 429.184 354.557 428.752C354.061 428.304 353.493 427.896 352.853 427.528C352.645 427.384 352.437 427.384 352.229 427.528C350.757 428.536 350.021 430.008 350.021 431.944C350.021 432.552 350.117 433.136 350.309 433.696C350.501 434.256 350.821 434.712 351.269 435.064C351.717 435.4 352.325 435.568 353.093 435.568ZM365.804 425.224C365.164 425.224 364.58 425.072 364.052 424.768C363.524 424.448 363.108 424.024 362.804 423.496C362.5 422.968 362.348 422.392 362.348 421.768C362.348 421.144 362.5 420.576 362.804 420.064C363.108 419.536 363.524 419.12 364.052 418.816C364.58 418.512 365.164 418.36 365.804 418.36C366.46 418.36 367.044 418.512 367.556 418.816C368.068 419.12 368.468 419.536 368.756 420.064C369.06 420.576 369.212 421.144 369.212 421.768C369.212 422.392 369.06 422.968 368.756 423.496C368.468 424.024 368.068 424.448 367.556 424.768C367.044 425.072 366.46 425.224 365.804 425.224ZM365.804 424.48C366.556 424.48 367.18 424.216 367.676 423.688C368.188 423.16 368.444 422.52 368.444 421.768C368.444 421.032 368.188 420.408 367.676 419.896C367.18 419.368 366.556 419.104 365.804 419.104C365.036 419.104 364.396 419.368 363.884 419.896C363.372 420.408 363.116 421.032 363.116 421.768C363.116 422.52 363.372 423.16 363.884 423.688C364.396 424.216 365.036 424.48 365.804 424.48ZM390.061 436.216C389.805 436.216 389.589 436.024 389.413 435.64L382.909 421.528C382.861 421.416 382.797 421.368 382.717 421.384C382.653 421.4 382.621 421.472 382.621 421.6V433.936C382.621 434.384 382.693 434.728 382.837 434.968C382.997 435.192 383.277 435.336 383.677 435.4L383.989 435.448C384.197 435.464 384.301 435.56 384.301 435.736C384.301 435.912 384.181 436 383.941 436H380.509C380.269 436 380.149 435.912 380.149 435.736C380.149 435.56 380.253 435.464 380.461 435.448L380.773 435.4C381.189 435.336 381.477 435.192 381.637 434.968C381.797 434.728 381.877 434.384 381.877 433.936V420.304C381.877 419.968 381.821 419.744 381.709 419.632C381.613 419.52 381.381 419.432 381.013 419.368L380.461 419.272C380.253 419.224 380.149 419.128 380.149 418.984C380.149 418.808 380.269 418.72 380.509 418.72H383.077C383.477 418.72 383.757 418.896 383.917 419.248L389.581 431.704C389.629 431.8 389.685 431.84 389.749 431.824C389.829 431.808 389.869 431.752 389.869 431.656V420.784C389.869 420.272 389.781 419.92 389.605 419.728C389.429 419.52 389.205 419.392 388.933 419.344L388.501 419.272C388.293 419.224 388.189 419.128 388.189 418.984C388.189 418.808 388.309 418.72 388.549 418.72H391.981C392.221 418.72 392.341 418.808 392.341 418.984C392.341 419.16 392.237 419.256 392.029 419.272L391.717 419.32C391.301 419.384 391.013 419.52 390.853 419.728C390.693 419.92 390.613 420.272 390.613 420.784V435.448C390.613 435.736 390.557 435.936 390.445 436.048C390.349 436.16 390.221 436.216 390.061 436.216Z" fill="#FFFAEE"/>
<path d="M683.527 436C683.287 436 683.167 435.912 683.167 435.736C683.167 435.56 683.271 435.464 683.479 435.448L684.415 435.352C684.751 435.32 684.975 435.24 685.087 435.112C685.215 434.984 685.279 434.752 685.279 434.416V420.16C685.279 419.888 685.199 419.712 685.039 419.632C684.895 419.536 684.703 419.504 684.463 419.536L683.599 419.632C683.311 419.648 683.167 419.544 683.167 419.32C683.167 419.144 683.295 419.032 683.551 418.984C684.399 418.84 685.023 418.704 685.423 418.576C685.823 418.432 686.119 418.36 686.311 418.36C686.647 418.36 686.815 418.536 686.815 418.888V434.416C686.815 434.752 686.871 434.984 686.983 435.112C687.111 435.24 687.343 435.32 687.679 435.352L688.471 435.448C688.679 435.464 688.783 435.56 688.783 435.736C688.783 435.912 688.663 436 688.423 436H683.527ZM692.335 436C692.047 436 691.903 435.896 691.903 435.688C691.903 435.576 691.959 435.432 692.071 435.256L694.951 430.864C696.151 429.04 697.015 427.472 697.543 426.16C698.087 424.832 698.359 423.616 698.359 422.512C698.359 421.52 698.151 420.76 697.735 420.232C697.335 419.704 696.751 419.44 695.983 419.44C695.215 419.44 694.519 419.712 693.895 420.256C693.271 420.784 692.871 421.632 692.695 422.8C692.647 423.056 692.527 423.184 692.335 423.184C692.095 423.184 691.991 423.024 692.023 422.704C692.135 421.648 692.407 420.816 692.839 420.208C693.287 419.584 693.823 419.144 694.447 418.888C695.071 418.616 695.703 418.48 696.343 418.48C697.447 418.48 698.343 418.816 699.031 419.488C699.735 420.144 700.087 421.064 700.087 422.248C700.087 423.08 699.887 423.936 699.487 424.816C699.103 425.68 698.567 426.632 697.879 427.672C697.207 428.696 696.431 429.872 695.551 431.2L693.679 434.032C693.583 434.176 693.575 434.304 693.655 434.416C693.751 434.512 693.879 434.56 694.039 434.56H696.607C697.215 434.56 697.719 434.496 698.119 434.368C698.519 434.224 698.839 433.968 699.079 433.6C699.319 433.216 699.503 432.672 699.631 431.968L699.847 430.84C699.895 430.632 700.015 430.528 700.207 430.528C700.431 430.528 700.527 430.664 700.495 430.936L700.207 435.448C700.175 435.816 699.975 436 699.607 436H692.335ZM704.439 436C704.151 436 704.007 435.896 704.007 435.688C704.007 435.576 704.063 435.432 704.175 435.256L707.055 430.864C708.255 429.04 709.119 427.472 709.647 426.16C710.191 424.832 710.463 423.616 710.463 422.512C710.463 421.52 710.255 420.76 709.839 420.232C709.439 419.704 708.855 419.44 708.087 419.44C707.319 419.44 706.623 419.712 705.999 420.256C705.375 420.784 704.975 421.632 704.799 422.8C704.751 423.056 704.631 423.184 704.439 423.184C704.199 423.184 704.095 423.024 704.127 422.704C704.239 421.648 704.511 420.816 704.943 420.208C705.391 419.584 705.927 419.144 706.551 418.888C707.175 418.616 707.807 418.48 708.447 418.48C709.551 418.48 710.447 418.816 711.135 419.488C711.839 420.144 712.191 421.064 712.191 422.248C712.191 423.08 711.991 423.936 711.591 424.816C711.207 425.68 710.671 426.632 709.983 427.672C709.311 428.696 708.535 429.872 707.655 431.2L705.783 434.032C705.687 434.176 705.679 434.304 705.759 434.416C705.855 434.512 705.983 434.56 706.143 434.56H708.711C709.319 434.56 709.823 434.496 710.223 434.368C710.623 434.224 710.943 433.968 711.183 433.6C711.423 433.216 711.607 432.672 711.735 431.968L711.951 430.84C711.999 430.632 712.119 430.528 712.311 430.528C712.535 430.528 712.631 430.664 712.599 430.936L712.311 435.448C712.279 435.816 712.079 436 711.711 436H704.439ZM718.198 436.216C717.846 436.216 717.542 436.104 717.286 435.88C717.046 435.64 716.926 435.328 716.926 434.944C716.926 434.576 717.046 434.28 717.286 434.056C717.542 433.816 717.846 433.696 718.198 433.696C718.518 433.696 718.806 433.816 719.062 434.056C719.318 434.28 719.446 434.576 719.446 434.944C719.446 435.328 719.318 435.64 719.062 435.88C718.806 436.104 718.518 436.216 718.198 436.216ZM728.083 436.216C727.283 436.216 726.571 435.944 725.947 435.4C725.339 434.856 724.859 434.096 724.507 433.12C724.171 432.144 724.003 431.016 724.003 429.736C724.003 428.424 724.187 427.152 724.555 425.92C724.939 424.672 725.467 423.536 726.139 422.512C726.811 421.488 727.587 420.624 728.467 419.92C729.363 419.216 730.323 418.744 731.347 418.504C731.507 418.472 731.619 418.488 731.683 418.552C731.763 418.616 731.803 418.696 731.803 418.792C731.803 418.952 731.715 419.056 731.539 419.104C730.131 419.568 728.995 420.32 728.131 421.36C727.267 422.384 726.627 423.728 726.211 425.392C726.179 425.504 726.187 425.584 726.235 425.632C726.299 425.664 726.379 425.648 726.475 425.584C726.971 425.232 727.555 425.056 728.227 425.056C728.979 425.056 729.651 425.296 730.243 425.776C730.835 426.24 731.299 426.88 731.635 427.696C731.987 428.512 732.163 429.448 732.163 430.504C732.163 431.544 731.979 432.504 731.611 433.384C731.243 434.248 730.747 434.936 730.123 435.448C729.515 435.96 728.835 436.216 728.083 436.216ZM728.035 435.568C728.851 435.568 729.451 435.168 729.835 434.368C730.235 433.552 730.435 432.304 730.435 430.624C730.435 428.912 730.251 427.656 729.883 426.856C729.515 426.056 728.931 425.656 728.131 425.656C726.435 425.656 725.587 427.36 725.587 430.768C725.587 433.968 726.403 435.568 728.035 435.568ZM740.402 436.216C739.474 436.216 738.674 436.008 738.002 435.592C737.33 435.16 736.81 434.616 736.442 433.96C736.09 433.288 735.914 432.592 735.914 431.872C735.914 430.88 736.194 430 736.754 429.232C737.314 428.448 738.106 427.784 739.13 427.24C739.226 427.192 739.274 427.136 739.274 427.072C739.274 426.992 739.234 426.92 739.154 426.856C738.258 426.248 737.594 425.56 737.162 424.792C736.73 424.008 736.514 423.232 736.514 422.464C736.514 421.664 736.706 420.968 737.09 420.376C737.49 419.784 738.01 419.32 738.65 418.984C739.29 418.648 739.986 418.48 740.738 418.48C741.458 418.48 742.106 418.648 742.682 418.984C743.258 419.304 743.714 419.752 744.05 420.328C744.386 420.888 744.554 421.528 744.554 422.248C744.554 423.08 744.298 423.856 743.786 424.576C743.274 425.28 742.594 425.864 741.746 426.328C741.65 426.376 741.602 426.44 741.602 426.52C741.602 426.584 741.65 426.648 741.746 426.712C742.914 427.448 743.738 428.208 744.218 428.992C744.714 429.76 744.962 430.608 744.962 431.536C744.962 432.432 744.762 433.232 744.362 433.936C743.962 434.64 743.418 435.2 742.73 435.616C742.042 436.016 741.266 436.216 740.402 436.216ZM740.666 426.04C740.874 426.184 741.082 426.176 741.29 426.016C741.898 425.584 742.354 425.032 742.658 424.36C742.978 423.688 743.138 422.96 743.138 422.176C743.138 421.248 742.93 420.512 742.514 419.968C742.114 419.408 741.506 419.128 740.69 419.128C739.858 419.128 739.186 419.376 738.674 419.872C738.178 420.368 737.93 421.024 737.93 421.84C737.93 422.32 737.994 422.792 738.122 423.256C738.266 423.72 738.538 424.184 738.938 424.648C739.338 425.096 739.914 425.56 740.666 426.04ZM740.45 435.568C741.41 435.568 742.162 435.28 742.706 434.704C743.266 434.128 743.546 433.352 743.546 432.376C743.546 431.56 743.394 430.864 743.09 430.288C742.802 429.696 742.41 429.184 741.914 428.752C741.418 428.304 740.85 427.896 740.21 427.528C740.002 427.384 739.794 427.384 739.586 427.528C738.114 428.536 737.378 430.008 737.378 431.944C737.378 432.552 737.474 433.136 737.666 433.696C737.858 434.256 738.178 434.712 738.626 435.064C739.074 435.4 739.682 435.568 740.45 435.568ZM752.105 436C751.865 436 751.745 435.912 751.745 435.736C751.745 435.56 751.849 435.464 752.057 435.448L753.089 435.304C753.425 435.256 753.641 435.176 753.737 435.064C753.849 434.936 753.905 434.72 753.905 434.416V431.296C753.905 431.072 753.793 430.96 753.569 430.96H748.721C748.417 430.96 748.265 430.824 748.265 430.552C748.265 430.472 748.281 430.392 748.313 430.312C748.361 430.216 748.417 430.096 748.481 429.952L754.241 418.96C754.305 418.8 754.433 418.72 754.625 418.72H755.105C755.393 418.72 755.465 418.856 755.321 419.128L749.561 429.28C749.449 429.504 749.513 429.616 749.753 429.616H753.569C753.793 429.616 753.905 429.504 753.905 429.28V424.576C753.905 424.432 753.985 424.304 754.145 424.192L755.033 423.688C755.145 423.624 755.241 423.616 755.321 423.664C755.401 423.696 755.441 423.776 755.441 423.904V429.28C755.441 429.504 755.553 429.616 755.777 429.616H756.833C757.025 429.616 757.121 429.712 757.121 429.904V430.672C757.121 430.864 757.025 430.96 756.833 430.96H755.777C755.553 430.96 755.441 431.072 755.441 431.296V434.416C755.441 434.752 755.489 434.976 755.585 435.088C755.697 435.2 755.921 435.288 756.257 435.352L756.809 435.448C757.017 435.496 757.121 435.592 757.121 435.736C757.121 435.912 757.001 436 756.761 436H752.105ZM760.327 436C760.087 436 759.967 435.912 759.967 435.736C759.967 435.56 760.071 435.464 760.279 435.448L761.215 435.352C761.551 435.32 761.775 435.24 761.887 435.112C762.015 434.984 762.079 434.752 762.079 434.416V420.16C762.079 419.888 761.999 419.712 761.839 419.632C761.695 419.536 761.503 419.504 761.263 419.536L760.399 419.632C760.111 419.648 759.967 419.544 759.967 419.32C759.967 419.144 760.095 419.032 760.351 418.984C761.199 418.84 761.823 418.704 762.223 418.576C762.623 418.432 762.919 418.36 763.111 418.36C763.447 418.36 763.615 418.536 763.615 418.888V434.416C763.615 434.752 763.671 434.984 763.783 435.112C763.911 435.24 764.143 435.32 764.479 435.352L765.271 435.448C765.479 435.464 765.583 435.56 765.583 435.736C765.583 435.912 765.463 436 765.223 436H760.327ZM773.359 425.224C772.719 425.224 772.135 425.072 771.607 424.768C771.079 424.448 770.663 424.024 770.359 423.496C770.055 422.968 769.903 422.392 769.903 421.768C769.903 421.144 770.055 420.576 770.359 420.064C770.663 419.536 771.079 419.12 771.607 418.816C772.135 418.512 772.719 418.36 773.359 418.36C774.015 418.36 774.599 418.512 775.111 418.816C775.623 419.12 776.023 419.536 776.311 420.064C776.615 420.576 776.767 421.144 776.767 421.768C776.767 422.392 776.615 422.968 776.311 423.496C776.023 424.024 775.623 424.448 775.111 424.768C774.599 425.072 774.015 425.224 773.359 425.224ZM773.359 424.48C774.111 424.48 774.735 424.216 775.231 423.688C775.743 423.16 775.999 422.52 775.999 421.768C775.999 421.032 775.743 420.408 775.231 419.896C774.735 419.368 774.111 419.104 773.359 419.104C772.591 419.104 771.951 419.368 771.439 419.896C770.927 420.408 770.671 421.032 770.671 421.768C770.671 422.52 770.927 423.16 771.439 423.688C771.951 424.216 772.591 424.48 773.359 424.48ZM797.688 436.24C797.624 436.24 797.56 436.216 797.496 436.168C797.432 436.12 797.384 436.016 797.352 435.856L795.504 428.416C795.488 428.288 795.44 428.232 795.36 428.248C795.28 428.248 795.224 428.304 795.192 428.416L793.128 435.856C793.08 436.016 793.024 436.12 792.96 436.168C792.912 436.216 792.856 436.24 792.792 436.24C792.728 436.24 792.656 436.216 792.576 436.168C792.512 436.12 792.464 436.016 792.432 435.856L788.64 420.64C788.528 420.192 788.4 419.88 788.256 419.704C788.128 419.528 787.904 419.408 787.584 419.344L787.224 419.272C787 419.224 786.888 419.12 786.888 418.96C786.888 418.8 787.008 418.72 787.248 418.72H791.112C791.336 418.72 791.448 418.808 791.448 418.984C791.448 419.128 791.328 419.224 791.088 419.272L790.824 419.32C790.552 419.368 790.376 419.464 790.296 419.608C790.232 419.736 790.24 419.976 790.32 420.328L793.152 432.04C793.184 432.152 793.232 432.208 793.296 432.208C793.376 432.208 793.432 432.152 793.464 432.04L794.544 428.128C794.72 427.52 794.808 426.96 794.808 426.448C794.808 425.936 794.728 425.368 794.568 424.744L793.56 420.64C793.448 420.192 793.336 419.872 793.224 419.68C793.128 419.488 792.992 419.376 792.816 419.344L792.456 419.272C792.232 419.224 792.12 419.12 792.12 418.96C792.12 418.8 792.24 418.72 792.48 418.72H795.768C795.992 418.72 796.104 418.808 796.104 418.984C796.104 419.128 795.984 419.224 795.744 419.272L795.48 419.32C795.272 419.352 795.144 419.44 795.096 419.584C795.064 419.728 795.088 419.976 795.168 420.328L795.984 423.76C796.016 423.872 796.064 423.928 796.128 423.928C796.208 423.928 796.264 423.872 796.296 423.76L797.16 420.832C797.336 420.224 797.4 419.824 797.352 419.632C797.32 419.44 797.232 419.336 797.088 419.32L796.824 419.272C796.584 419.224 796.464 419.128 796.464 418.984C796.464 418.808 796.576 418.72 796.8 418.72H799.08C799.352 418.72 799.488 418.808 799.488 418.984C799.488 419.144 799.352 419.24 799.08 419.272L798.816 419.296C798.608 419.312 798.432 419.44 798.288 419.68C798.16 419.92 798.016 420.312 797.856 420.856L796.944 424C796.768 424.592 796.672 425.152 796.656 425.68C796.656 426.192 796.728 426.76 796.872 427.384L797.952 431.896C797.984 432.008 798.032 432.064 798.096 432.064C798.176 432.064 798.224 432.008 798.24 431.896L801 420.832C801.224 419.904 801.08 419.4 800.568 419.32L800.304 419.272C800.064 419.224 799.944 419.12 799.944 418.96C799.944 418.8 800.056 418.72 800.28 418.72H802.968C803.24 418.72 803.376 418.808 803.376 418.984C803.376 419.144 803.24 419.24 802.968 419.272L802.704 419.296C802.496 419.312 802.312 419.44 802.152 419.68C802.008 419.904 801.872 420.296 801.744 420.856L798.024 435.856C797.992 436.016 797.944 436.12 797.88 436.168C797.816 436.216 797.752 436.24 797.688 436.24Z" fill="#FFFAEE"/>
<path d="M651.049 465C650.825 465 650.665 464.936 650.569 464.808C650.489 464.68 650.497 464.512 650.593 464.304L657.529 448.824C657.625 448.568 657.537 448.44 657.265 448.44H654.865C654.273 448.44 653.729 448.632 653.233 449.016C652.753 449.384 652.353 450.096 652.033 451.152L651.673 452.352C651.625 452.56 651.513 452.664 651.337 452.664C651.097 452.664 650.993 452.528 651.025 452.256L651.457 447.792C651.489 447.424 651.625 447.24 651.865 447.24C651.977 447.24 652.081 447.28 652.177 447.36C652.273 447.44 652.433 447.52 652.657 447.6C652.897 447.68 653.273 447.72 653.785 447.72H659.089C659.313 447.72 659.465 447.784 659.545 447.912C659.641 448.024 659.641 448.192 659.545 448.416L652.609 463.896C652.513 464.152 652.601 464.28 652.873 464.28H655.537C655.985 464.28 656.425 464.216 656.857 464.088C657.289 463.96 657.673 463.696 658.009 463.296C658.345 462.88 658.593 462.264 658.753 461.448L659.065 459.84C659.113 459.632 659.233 459.528 659.425 459.528C659.649 459.528 659.745 459.664 659.713 459.936L659.425 464.448C659.393 464.816 659.193 465 658.825 465H651.049ZM669.211 465.216C668.443 465.216 667.723 464.992 667.051 464.544C666.379 464.08 665.787 463.448 665.275 462.648C664.779 461.848 664.387 460.912 664.099 459.84C663.827 458.752 663.691 457.584 663.691 456.336C663.691 455.088 663.827 453.928 664.099 452.856C664.387 451.784 664.779 450.848 665.275 450.048C665.787 449.232 666.379 448.6 667.051 448.152C667.723 447.704 668.443 447.48 669.211 447.48C669.979 447.48 670.691 447.704 671.347 448.152C672.019 448.6 672.611 449.232 673.123 450.048C673.635 450.848 674.027 451.784 674.299 452.856C674.587 453.928 674.731 455.088 674.731 456.336C674.731 457.584 674.587 458.752 674.299 459.84C674.027 460.912 673.635 461.848 673.123 462.648C672.611 463.448 672.019 464.08 671.347 464.544C670.691 464.992 669.979 465.216 669.211 465.216ZM669.211 464.568C670.347 464.568 671.235 463.888 671.875 462.528C672.515 461.168 672.835 459.104 672.835 456.336C672.835 453.568 672.515 451.512 671.875 450.168C671.235 448.808 670.347 448.128 669.211 448.128C668.091 448.128 667.203 448.808 666.547 450.168C665.907 451.512 665.587 453.568 665.587 456.336C665.587 459.104 665.907 461.168 666.547 462.528C667.203 463.888 668.091 464.568 669.211 464.568ZM688.201 465.216C687.945 465.216 687.729 465.024 687.553 464.64L681.049 450.528C681.001 450.416 680.937 450.368 680.857 450.384C680.793 450.4 680.761 450.472 680.761 450.6V462.936C680.761 463.384 680.833 463.728 680.977 463.968C681.137 464.192 681.417 464.336 681.817 464.4L682.129 464.448C682.337 464.464 682.441 464.56 682.441 464.736C682.441 464.912 682.321 465 682.081 465H678.649C678.409 465 678.289 464.912 678.289 464.736C678.289 464.56 678.393 464.464 678.601 464.448L678.913 464.4C679.329 464.336 679.617 464.192 679.777 463.968C679.937 463.728 680.017 463.384 680.017 462.936V449.304C680.017 448.968 679.961 448.744 679.849 448.632C679.753 448.52 679.521 448.432 679.153 448.368L678.601 448.272C678.393 448.224 678.289 448.128 678.289 447.984C678.289 447.808 678.409 447.72 678.649 447.72H681.217C681.617 447.72 681.897 447.896 682.057 448.248L687.721 460.704C687.769 460.8 687.825 460.84 687.889 460.824C687.969 460.808 688.009 460.752 688.009 460.656V449.784C688.009 449.272 687.921 448.92 687.745 448.728C687.569 448.52 687.345 448.392 687.073 448.344L686.641 448.272C686.433 448.224 686.329 448.128 686.329 447.984C686.329 447.808 686.449 447.72 686.689 447.72H690.121C690.361 447.72 690.481 447.808 690.481 447.984C690.481 448.16 690.377 448.256 690.169 448.272L689.857 448.32C689.441 448.384 689.153 448.52 688.993 448.728C688.833 448.92 688.753 449.272 688.753 449.784V464.448C688.753 464.736 688.697 464.936 688.585 465.048C688.489 465.16 688.361 465.216 688.201 465.216ZM694.082 465C693.842 465 693.722 464.912 693.722 464.736C693.722 464.592 693.826 464.496 694.034 464.448L694.586 464.352C694.922 464.288 695.138 464.2 695.234 464.088C695.346 463.976 695.402 463.752 695.402 463.416V449.304C695.402 448.968 695.346 448.744 695.234 448.632C695.138 448.52 694.922 448.432 694.586 448.368L694.034 448.272C693.826 448.224 693.722 448.128 693.722 447.984C693.722 447.808 693.842 447.72 694.082 447.72H702.146C702.514 447.72 702.714 447.904 702.746 448.272L702.938 452.256C702.97 452.528 702.866 452.664 702.626 452.664C702.434 452.664 702.322 452.56 702.29 452.352L702.146 451.464C701.97 450.376 701.61 449.584 701.066 449.088C700.522 448.576 699.77 448.32 698.81 448.32C698.17 448.32 697.722 448.416 697.466 448.608C697.226 448.784 697.106 449.104 697.106 449.568V455.352C697.106 455.576 697.218 455.688 697.442 455.688H698.642C699.346 455.688 699.778 455.312 699.938 454.56L700.178 453.36C700.242 453.12 700.378 453.016 700.586 453.048C700.762 453.08 700.85 453.216 700.85 453.456V458.856C700.85 459.096 700.762 459.232 700.586 459.264C700.378 459.296 700.242 459.192 700.178 458.952L699.938 457.776C699.826 457.216 699.666 456.848 699.458 456.672C699.266 456.496 698.986 456.408 698.618 456.408H697.442C697.218 456.408 697.106 456.52 697.106 456.744V462.768C697.106 463.344 697.25 463.76 697.538 464.016C697.842 464.272 698.386 464.4 699.17 464.4C699.97 464.4 700.65 464.2 701.21 463.8C701.786 463.384 702.186 462.616 702.41 461.496L702.698 460.08C702.746 459.872 702.866 459.768 703.058 459.768C703.282 459.768 703.378 459.904 703.346 460.176L703.106 464.448C703.074 464.816 702.874 465 702.506 465H694.082ZM713.499 465C713.259 465 713.139 464.912 713.139 464.736C713.139 464.56 713.243 464.464 713.451 464.448L714.387 464.352C714.723 464.32 714.947 464.24 715.059 464.112C715.187 463.984 715.251 463.752 715.251 463.416V449.16C715.251 448.888 715.171 448.712 715.011 448.632C714.867 448.536 714.675 448.504 714.435 448.536L713.571 448.632C713.283 448.648 713.139 448.544 713.139 448.32C713.139 448.144 713.267 448.032 713.523 447.984C714.371 447.84 714.995 447.704 715.395 447.576C715.795 447.432 716.091 447.36 716.283 447.36C716.619 447.36 716.787 447.536 716.787 447.888V463.416C716.787 463.752 716.843 463.984 716.955 464.112C717.083 464.24 717.315 464.32 717.651 464.352L718.443 464.448C718.651 464.464 718.755 464.56 718.755 464.736C718.755 464.912 718.635 465 718.395 465H713.499ZM726.339 465.216C725.539 465.216 724.827 464.944 724.203 464.4C723.595 463.856 723.115 463.096 722.763 462.12C722.427 461.144 722.259 460.016 722.259 458.736C722.259 457.424 722.443 456.152 722.811 454.92C723.195 453.672 723.723 452.536 724.395 451.512C725.067 450.488 725.843 449.624 726.723 448.92C727.619 448.216 728.579 447.744 729.603 447.504C729.763 447.472 729.875 447.488 729.939 447.552C730.019 447.616 730.059 447.696 730.059 447.792C730.059 447.952 729.971 448.056 729.795 448.104C728.387 448.568 727.251 449.32 726.387 450.36C725.523 451.384 724.883 452.728 724.467 454.392C724.435 454.504 724.443 454.584 724.491 454.632C724.555 454.664 724.635 454.648 724.731 454.584C725.227 454.232 725.811 454.056 726.483 454.056C727.235 454.056 727.907 454.296 728.499 454.776C729.091 455.24 729.555 455.88 729.891 456.696C730.243 457.512 730.419 458.448 730.419 459.504C730.419 460.544 730.235 461.504 729.867 462.384C729.499 463.248 729.003 463.936 728.379 464.448C727.771 464.96 727.091 465.216 726.339 465.216ZM726.291 464.568C727.107 464.568 727.707 464.168 728.091 463.368C728.491 462.552 728.691 461.304 728.691 459.624C728.691 457.912 728.507 456.656 728.139 455.856C727.771 455.056 727.187 454.656 726.387 454.656C724.691 454.656 723.843 456.36 723.843 459.768C723.843 462.968 724.659 464.568 726.291 464.568ZM757.255 465.216C755.863 465.216 754.975 464.304 754.591 462.48L754.039 459.816C753.863 458.952 753.663 458.296 753.439 457.848C753.231 457.4 752.935 457.096 752.551 456.936C752.183 456.776 751.671 456.696 751.015 456.696C750.791 456.696 750.615 456.76 750.487 456.888C750.359 457 750.295 457.144 750.295 457.32V463.32C750.295 463.656 750.359 463.888 750.487 464.016C750.615 464.128 750.903 464.224 751.351 464.304L752.239 464.448C752.415 464.48 752.503 464.568 752.503 464.712C752.503 464.904 752.383 465 752.143 465H747.271C747.031 465 746.911 464.912 746.911 464.736C746.911 464.592 747.015 464.496 747.223 464.448L747.775 464.352C748.111 464.288 748.327 464.2 748.423 464.088C748.535 463.976 748.591 463.752 748.591 463.416V449.304C748.591 448.968 748.535 448.744 748.423 448.632C748.327 448.52 748.111 448.432 747.775 448.368L747.223 448.272C747.015 448.224 746.911 448.128 746.911 447.984C746.911 447.808 747.031 447.72 747.271 447.72H752.143C753.087 447.72 753.927 447.904 754.663 448.272C755.399 448.64 755.975 449.152 756.391 449.808C756.807 450.448 757.015 451.192 757.015 452.04C757.015 453.048 756.711 453.96 756.103 454.776C755.495 455.576 754.727 456.144 753.799 456.48C753.687 456.512 753.623 456.568 753.607 456.648C753.607 456.712 753.663 456.768 753.775 456.816C754.287 457.056 754.687 457.392 754.975 457.824C755.279 458.256 755.511 458.832 755.671 459.552L756.199 462C756.375 462.832 756.583 463.424 756.823 463.776C757.063 464.128 757.367 464.304 757.735 464.304C757.863 464.304 757.975 464.288 758.071 464.256C758.183 464.208 758.319 464.128 758.479 464.016C758.607 463.936 758.727 463.92 758.839 463.968C758.951 464 759.007 464.08 759.007 464.208C759.007 464.48 758.831 464.72 758.479 464.928C758.127 465.12 757.719 465.216 757.255 465.216ZM751.903 456.096C752.991 456.096 753.815 455.736 754.375 455.016C754.935 454.28 755.215 453.304 755.215 452.088C755.215 450.904 754.887 449.984 754.231 449.328C753.591 448.656 752.703 448.32 751.567 448.32C750.719 448.32 750.295 448.64 750.295 449.28V454.776C750.295 455.656 750.831 456.096 751.903 456.096ZM761.694 465C761.454 465 761.334 464.912 761.334 464.736C761.334 464.592 761.438 464.496 761.646 464.448L762.198 464.352C762.534 464.288 762.75 464.2 762.846 464.088C762.958 463.976 763.014 463.752 763.014 463.416V449.304C763.014 448.968 762.958 448.744 762.846 448.632C762.75 448.52 762.534 448.432 762.198 448.368L761.646 448.272C761.438 448.224 761.334 448.128 761.334 447.984C761.334 447.808 761.454 447.72 761.694 447.72H769.758C770.126 447.72 770.326 447.904 770.358 448.272L770.55 452.256C770.582 452.528 770.478 452.664 770.238 452.664C770.046 452.664 769.934 452.56 769.902 452.352L769.758 451.464C769.582 450.376 769.222 449.584 768.678 449.088C768.134 448.576 767.382 448.32 766.422 448.32C765.782 448.32 765.334 448.416 765.078 448.608C764.838 448.784 764.718 449.104 764.718 449.568V455.352C764.718 455.576 764.83 455.688 765.054 455.688H766.254C766.958 455.688 767.39 455.312 767.55 454.56L767.79 453.36C767.854 453.12 767.99 453.016 768.198 453.048C768.374 453.08 768.462 453.216 768.462 453.456V458.856C768.462 459.096 768.374 459.232 768.198 459.264C767.99 459.296 767.854 459.192 767.79 458.952L767.55 457.776C767.438 457.216 767.278 456.848 767.07 456.672C766.878 456.496 766.598 456.408 766.23 456.408H765.054C764.83 456.408 764.718 456.52 764.718 456.744V462.768C764.718 463.344 764.862 463.76 765.15 464.016C765.454 464.272 765.998 464.4 766.782 464.4C767.582 464.4 768.262 464.2 768.822 463.8C769.398 463.384 769.798 462.616 770.022 461.496L770.31 460.08C770.358 459.872 770.478 459.768 770.67 459.768C770.894 459.768 770.99 459.904 770.958 460.176L770.718 464.448C770.686 464.816 770.486 465 770.118 465H761.694ZM781.137 465.216C779.841 465.216 778.745 464.848 777.849 464.112C776.953 463.376 776.273 462.344 775.809 461.016C775.345 459.672 775.113 458.088 775.113 456.264C775.113 454.504 775.385 452.968 775.929 451.656C776.473 450.328 777.217 449.304 778.161 448.584C779.121 447.848 780.217 447.48 781.449 447.48C782.073 447.48 782.641 447.544 783.153 447.672C783.665 447.784 784.113 447.936 784.497 448.128C784.705 448.24 784.809 448.408 784.809 448.632L784.881 452.28C784.881 452.552 784.785 452.688 784.593 452.688C784.417 452.688 784.305 452.584 784.257 452.376L784.065 451.656C783.713 450.328 783.313 449.416 782.865 448.92C782.417 448.424 781.801 448.176 781.017 448.176C779.849 448.176 778.881 448.872 778.113 450.264C777.361 451.64 776.985 453.64 776.985 456.264C776.985 458.968 777.369 461.032 778.137 462.456C778.921 463.864 779.921 464.568 781.137 464.568C781.793 464.568 782.289 464.424 782.625 464.136C782.961 463.848 783.129 463.312 783.129 462.528V457.272C783.129 456.936 783.073 456.704 782.961 456.576C782.865 456.448 782.649 456.368 782.313 456.336L781.377 456.24C781.169 456.224 781.065 456.128 781.065 455.952C781.065 455.776 781.185 455.688 781.425 455.688H785.817C786.057 455.688 786.177 455.784 786.177 455.976C786.177 456.12 786.089 456.208 785.913 456.24L785.553 456.288C785.201 456.336 784.993 456.432 784.929 456.576C784.865 456.72 784.833 456.96 784.833 457.296V463.8C784.833 463.976 784.785 464.12 784.689 464.232C784.593 464.328 784.425 464.44 784.185 464.568C783.801 464.76 783.361 464.912 782.865 465.024C782.369 465.152 781.793 465.216 781.137 465.216ZM791.637 465.216C791.285 465.216 790.981 465.104 790.725 464.88C790.485 464.64 790.365 464.328 790.365 463.944C790.365 463.576 790.485 463.28 790.725 463.056C790.981 462.816 791.285 462.696 791.637 462.696C791.957 462.696 792.245 462.816 792.501 463.056C792.757 463.28 792.885 463.576 792.885 463.944C792.885 464.328 792.757 464.64 792.501 464.88C792.245 465.104 791.957 465.216 791.637 465.216ZM791.637 456.096C791.285 456.096 790.981 455.984 790.725 455.76C790.485 455.52 790.365 455.208 790.365 454.824C790.365 454.456 790.485 454.16 790.725 453.936C790.981 453.696 791.285 453.576 791.637 453.576C791.957 453.576 792.245 453.696 792.501 453.936C792.757 454.16 792.885 454.456 792.885 454.824C792.885 455.208 792.757 455.52 792.501 455.76C792.245 455.984 791.957 456.096 791.637 456.096ZM808.576 465.216C807.648 465.216 806.832 464.824 806.128 464.04C805.424 463.256 804.88 462.192 804.496 460.848C804.112 459.504 803.92 458 803.92 456.336C803.92 454.672 804.112 453.176 804.496 451.848C804.88 450.504 805.424 449.44 806.128 448.656C806.832 447.872 807.648 447.48 808.576 447.48C809.504 447.48 810.312 447.872 811 448.656C811.704 449.44 812.248 450.504 812.632 451.848C813.032 453.176 813.232 454.672 813.232 456.336C813.232 458 813.032 459.504 812.632 460.848C812.248 462.192 811.704 463.256 811 464.04C810.312 464.824 809.504 465.216 808.576 465.216ZM808.576 464.568C809.584 464.568 810.32 463.888 810.784 462.528C811.264 461.168 811.504 459.104 811.504 456.336C811.504 453.568 811.264 451.512 810.784 450.168C810.32 448.808 809.584 448.128 808.576 448.128C807.568 448.128 806.824 448.808 806.344 450.168C805.88 451.512 805.648 453.568 805.648 456.336C805.648 459.104 805.88 461.168 806.344 462.528C806.824 463.888 807.568 464.568 808.576 464.568ZM822.015 465.216C821.087 465.216 820.271 464.824 819.567 464.04C818.863 463.256 818.319 462.192 817.935 460.848C817.551 459.504 817.359 458 817.359 456.336C817.359 454.672 817.551 453.176 817.935 451.848C818.319 450.504 818.863 449.44 819.567 448.656C820.271 447.872 821.087 447.48 822.015 447.48C822.943 447.48 823.751 447.872 824.439 448.656C825.143 449.44 825.687 450.504 826.071 451.848C826.471 453.176 826.671 454.672 826.671 456.336C826.671 458 826.471 459.504 826.071 460.848C825.687 462.192 825.143 463.256 824.439 464.04C823.751 464.824 822.943 465.216 822.015 465.216ZM822.015 464.568C823.023 464.568 823.759 463.888 824.223 462.528C824.703 461.168 824.943 459.104 824.943 456.336C824.943 453.568 824.703 451.512 824.223 450.168C823.759 448.808 823.023 448.128 822.015 448.128C821.007 448.128 820.263 448.808 819.783 450.168C819.319 451.512 819.087 453.568 819.087 456.336C819.087 459.104 819.319 461.168 819.783 462.528C820.263 463.888 821.007 464.568 822.015 464.568ZM830.414 465C830.174 465 830.054 464.912 830.054 464.736C830.054 464.56 830.158 464.464 830.366 464.448L831.302 464.352C831.638 464.32 831.862 464.24 831.974 464.112C832.102 463.984 832.166 463.752 832.166 463.416V449.16C832.166 448.888 832.086 448.712 831.926 448.632C831.782 448.536 831.59 448.504 831.35 448.536L830.486 448.632C830.198 448.648 830.054 448.544 830.054 448.32C830.054 448.144 830.182 448.032 830.438 447.984C831.286 447.84 831.91 447.704 832.31 447.576C832.71 447.432 833.006 447.36 833.198 447.36C833.534 447.36 833.702 447.536 833.702 447.888V463.416C833.702 463.752 833.758 463.984 833.87 464.112C833.998 464.24 834.23 464.32 834.566 464.352L835.358 464.448C835.566 464.464 835.67 464.56 835.67 464.736C835.67 464.912 835.55 465 835.31 465H830.414Z" fill="#FFFAEE"/>
<path d="M265.944 465C265.704 465 265.584 464.912 265.584 464.736C265.584 464.592 265.688 464.496 265.896 464.448L266.448 464.352C266.784 464.288 267 464.2 267.096 464.088C267.208 463.976 267.264 463.752 267.264 463.416V449.304C267.264 448.968 267.208 448.744 267.096 448.632C267 448.52 266.784 448.432 266.448 448.368L265.896 448.272C265.688 448.224 265.584 448.128 265.584 447.984C265.584 447.808 265.704 447.72 265.944 447.72H270.336C270.576 447.72 270.696 447.816 270.696 448.008C270.696 448.152 270.608 448.24 270.432 448.272L269.784 448.368C269.448 448.416 269.224 448.504 269.112 448.632C269.016 448.76 268.968 448.992 268.968 449.328V462.768C268.968 463.344 269.128 463.76 269.448 464.016C269.784 464.272 270.2 464.4 270.696 464.4C271.064 464.4 271.44 464.328 271.824 464.184C272.224 464.024 272.584 463.736 272.904 463.32C273.224 462.888 273.464 462.264 273.624 461.448L273.936 459.84C273.984 459.632 274.104 459.528 274.296 459.528C274.52 459.528 274.616 459.664 274.584 459.936L274.296 464.448C274.264 464.816 274.064 465 273.696 465H265.944ZM283.594 465.216C282.826 465.216 282.106 464.992 281.434 464.544C280.762 464.08 280.17 463.448 279.658 462.648C279.162 461.848 278.77 460.912 278.482 459.84C278.21 458.752 278.074 457.584 278.074 456.336C278.074 455.088 278.21 453.928 278.482 452.856C278.77 451.784 279.162 450.848 279.658 450.048C280.17 449.232 280.762 448.6 281.434 448.152C282.106 447.704 282.826 447.48 283.594 447.48C284.362 447.48 285.074 447.704 285.73 448.152C286.402 448.6 286.994 449.232 287.506 450.048C288.018 450.848 288.41 451.784 288.682 452.856C288.97 453.928 289.114 455.088 289.114 456.336C289.114 457.584 288.97 458.752 288.682 459.84C288.41 460.912 288.018 461.848 287.506 462.648C286.994 463.448 286.402 464.08 285.73 464.544C285.074 464.992 284.362 465.216 283.594 465.216ZM283.594 464.568C284.73 464.568 285.618 463.888 286.258 462.528C286.898 461.168 287.218 459.104 287.218 456.336C287.218 453.568 286.898 451.512 286.258 450.168C285.618 448.808 284.73 448.128 283.594 448.128C282.474 448.128 281.586 448.808 280.93 450.168C280.29 451.512 279.97 453.568 279.97 456.336C279.97 459.104 280.29 461.168 280.93 462.528C281.586 463.888 282.474 464.568 283.594 464.568ZM299.339 465.216C298.155 465.216 297.115 464.848 296.219 464.112C295.339 463.376 294.651 462.344 294.155 461.016C293.675 459.672 293.435 458.088 293.435 456.264C293.435 454.504 293.699 452.968 294.227 451.656C294.771 450.328 295.491 449.304 296.387 448.584C297.299 447.848 298.307 447.48 299.411 447.48C300.067 447.48 300.643 447.544 301.139 447.672C301.635 447.784 302.075 447.936 302.459 448.128C302.651 448.24 302.747 448.408 302.747 448.632L302.819 452.28C302.819 452.552 302.723 452.688 302.531 452.688C302.355 452.688 302.243 452.584 302.195 452.376L301.955 451.488C301.619 450.24 301.227 449.376 300.779 448.896C300.347 448.416 299.827 448.176 299.219 448.176C298.099 448.176 297.163 448.872 296.411 450.264C295.675 451.64 295.307 453.64 295.307 456.264C295.307 458.056 295.491 459.568 295.859 460.8C296.243 462.032 296.731 462.96 297.323 463.584C297.931 464.208 298.571 464.52 299.243 464.52C299.963 464.52 300.539 464.296 300.971 463.848C301.419 463.4 301.795 462.536 302.099 461.256L302.387 460.08C302.435 459.84 302.563 459.736 302.771 459.768C302.947 459.8 303.035 459.936 303.035 460.176L302.939 464.064C302.939 464.288 302.835 464.456 302.627 464.568C302.243 464.76 301.787 464.912 301.259 465.024C300.747 465.152 300.107 465.216 299.339 465.216ZM308.974 465.216C308.622 465.216 308.318 465.104 308.062 464.88C307.822 464.64 307.702 464.328 307.702 463.944C307.702 463.576 307.822 463.28 308.062 463.056C308.318 462.816 308.622 462.696 308.974 462.696C309.294 462.696 309.582 462.816 309.838 463.056C310.094 463.28 310.222 463.576 310.222 463.944C310.222 464.328 310.094 464.64 309.838 464.88C309.582 465.104 309.294 465.216 308.974 465.216ZM308.974 456.096C308.622 456.096 308.318 455.984 308.062 455.76C307.822 455.52 307.702 455.208 307.702 454.824C307.702 454.456 307.822 454.16 308.062 453.936C308.318 453.696 308.622 453.576 308.974 453.576C309.294 453.576 309.582 453.696 309.838 453.936C310.094 454.16 310.222 454.456 310.222 454.824C310.222 455.208 310.094 455.52 309.838 455.76C309.582 455.984 309.294 456.096 308.974 456.096ZM321.21 465C320.97 465 320.85 464.912 320.85 464.736C320.85 464.592 320.954 464.496 321.162 464.448L321.714 464.352C322.05 464.288 322.266 464.2 322.362 464.088C322.474 463.976 322.53 463.752 322.53 463.416V449.304C322.53 448.968 322.474 448.744 322.362 448.632C322.266 448.52 322.05 448.432 321.714 448.368L321.162 448.272C320.954 448.224 320.85 448.128 320.85 447.984C320.85 447.808 320.97 447.72 321.21 447.72H326.226C327.17 447.72 328.002 447.928 328.722 448.344C329.442 448.744 330.002 449.304 330.402 450.024C330.802 450.744 331.002 451.576 331.002 452.52C331.002 453.432 330.802 454.24 330.402 454.944C330.002 455.648 329.45 456.2 328.746 456.6C328.042 456.984 327.226 457.176 326.298 457.176H324.57C324.346 457.176 324.234 457.288 324.234 457.512V463.32C324.234 463.656 324.298 463.888 324.426 464.016C324.554 464.128 324.842 464.224 325.29 464.304L326.178 464.448C326.354 464.48 326.442 464.568 326.442 464.712C326.442 464.904 326.322 465 326.082 465H321.21ZM324.234 455.256C324.234 456.136 324.77 456.576 325.842 456.576C326.882 456.576 327.698 456.208 328.29 455.472C328.898 454.736 329.202 453.728 329.202 452.448C329.202 451.136 328.898 450.12 328.29 449.4C327.682 448.68 326.818 448.32 325.698 448.32C324.722 448.32 324.234 448.64 324.234 449.28V455.256ZM344.269 465.216C344.013 465.216 343.797 465.024 343.621 464.64L337.117 450.528C337.069 450.416 337.005 450.368 336.925 450.384C336.861 450.4 336.829 450.472 336.829 450.6V462.936C336.829 463.384 336.901 463.728 337.045 463.968C337.205 464.192 337.485 464.336 337.885 464.4L338.197 464.448C338.405 464.464 338.509 464.56 338.509 464.736C338.509 464.912 338.389 465 338.149 465H334.717C334.477 465 334.357 464.912 334.357 464.736C334.357 464.56 334.461 464.464 334.669 464.448L334.981 464.4C335.397 464.336 335.685 464.192 335.845 463.968C336.005 463.728 336.085 463.384 336.085 462.936V449.304C336.085 448.968 336.029 448.744 335.917 448.632C335.821 448.52 335.589 448.432 335.221 448.368L334.669 448.272C334.461 448.224 334.357 448.128 334.357 447.984C334.357 447.808 334.477 447.72 334.717 447.72H337.285C337.685 447.72 337.965 447.896 338.125 448.248L343.789 460.704C343.837 460.8 343.893 460.84 343.957 460.824C344.037 460.808 344.077 460.752 344.077 460.656V449.784C344.077 449.272 343.989 448.92 343.813 448.728C343.637 448.52 343.413 448.392 343.141 448.344L342.709 448.272C342.501 448.224 342.397 448.128 342.397 447.984C342.397 447.808 342.517 447.72 342.757 447.72H346.189C346.429 447.72 346.549 447.808 346.549 447.984C346.549 448.16 346.445 448.256 346.237 448.272L345.925 448.32C345.509 448.384 345.221 448.52 345.061 448.728C344.901 448.92 344.821 449.272 344.821 449.784V464.448C344.821 464.736 344.765 464.936 344.653 465.048C344.557 465.16 344.429 465.216 344.269 465.216ZM359.421 465.24C359.357 465.24 359.293 465.216 359.229 465.168C359.165 465.12 359.117 465.016 359.085 464.856L357.237 457.416C357.221 457.288 357.173 457.232 357.093 457.248C357.013 457.248 356.957 457.304 356.925 457.416L354.861 464.856C354.813 465.016 354.757 465.12 354.693 465.168C354.645 465.216 354.589 465.24 354.525 465.24C354.461 465.24 354.389 465.216 354.309 465.168C354.245 465.12 354.197 465.016 354.165 464.856L350.373 449.64C350.261 449.192 350.133 448.88 349.989 448.704C349.861 448.528 349.637 448.408 349.317 448.344L348.957 448.272C348.733 448.224 348.621 448.12 348.621 447.96C348.621 447.8 348.741 447.72 348.981 447.72H352.845C353.069 447.72 353.181 447.808 353.181 447.984C353.181 448.128 353.061 448.224 352.821 448.272L352.557 448.32C352.285 448.368 352.109 448.464 352.029 448.608C351.965 448.736 351.973 448.976 352.053 449.328L354.885 461.04C354.917 461.152 354.965 461.208 355.029 461.208C355.109 461.208 355.165 461.152 355.197 461.04L356.277 457.128C356.453 456.52 356.541 455.96 356.541 455.448C356.541 454.936 356.461 454.368 356.301 453.744L355.293 449.64C355.181 449.192 355.069 448.872 354.957 448.68C354.861 448.488 354.725 448.376 354.549 448.344L354.189 448.272C353.965 448.224 353.853 448.12 353.853 447.96C353.853 447.8 353.973 447.72 354.213 447.72H357.501C357.725 447.72 357.837 447.808 357.837 447.984C357.837 448.128 357.717 448.224 357.477 448.272L357.213 448.32C357.005 448.352 356.877 448.44 356.829 448.584C356.797 448.728 356.821 448.976 356.901 449.328L357.717 452.76C357.749 452.872 357.797 452.928 357.861 452.928C357.941 452.928 357.997 452.872 358.029 452.76L358.893 449.832C359.069 449.224 359.133 448.824 359.085 448.632C359.053 448.44 358.965 448.336 358.821 448.32L358.557 448.272C358.317 448.224 358.197 448.128 358.197 447.984C358.197 447.808 358.309 447.72 358.533 447.72H360.813C361.085 447.72 361.221 447.808 361.221 447.984C361.221 448.144 361.085 448.24 360.813 448.272L360.549 448.296C360.341 448.312 360.165 448.44 360.021 448.68C359.893 448.92 359.749 449.312 359.589 449.856L358.677 453C358.501 453.592 358.405 454.152 358.389 454.68C358.389 455.192 358.461 455.76 358.605 456.384L359.685 460.896C359.717 461.008 359.765 461.064 359.829 461.064C359.909 461.064 359.957 461.008 359.973 460.896L362.733 449.832C362.957 448.904 362.813 448.4 362.301 448.32L362.037 448.272C361.797 448.224 361.677 448.12 361.677 447.96C361.677 447.8 361.789 447.72 362.013 447.72H364.701C364.973 447.72 365.109 447.808 365.109 447.984C365.109 448.144 364.973 448.24 364.701 448.272L364.437 448.296C364.229 448.312 364.045 448.44 363.885 448.68C363.741 448.904 363.605 449.296 363.477 449.856L359.757 464.856C359.725 465.016 359.677 465.12 359.613 465.168C359.549 465.216 359.485 465.24 359.421 465.24ZM383.98 470.16C383.5 470.16 382.988 470.056 382.444 469.848C381.916 469.656 381.444 469.312 381.028 468.816C380.612 468.32 380.324 467.616 380.164 466.704C380.084 466.192 379.956 465.824 379.78 465.6C379.604 465.376 379.308 465.184 378.892 465.024C378.06 464.752 377.308 464.208 376.636 463.392C375.98 462.56 375.46 461.536 375.076 460.32C374.708 459.104 374.524 457.776 374.524 456.336C374.524 455.088 374.66 453.928 374.932 452.856C375.22 451.784 375.612 450.848 376.108 450.048C376.62 449.232 377.212 448.6 377.884 448.152C378.556 447.704 379.276 447.48 380.044 447.48C380.812 447.48 381.524 447.704 382.18 448.152C382.852 448.6 383.444 449.232 383.956 450.048C384.468 450.848 384.86 451.784 385.132 452.856C385.42 453.928 385.564 455.088 385.564 456.336C385.564 457.808 385.364 459.168 384.964 460.416C384.58 461.648 384.044 462.672 383.356 463.488C382.684 464.304 381.916 464.832 381.052 465.072C380.956 465.088 380.908 465.128 380.908 465.192C380.908 465.272 380.948 465.344 381.028 465.408C381.236 465.552 381.412 465.728 381.556 465.936C381.7 466.16 381.82 466.44 381.916 466.776C382.204 467.704 382.572 468.376 383.02 468.792C383.484 469.208 383.988 469.416 384.532 469.416C385.012 469.416 385.5 469.264 385.996 468.96C386.124 468.88 386.244 468.856 386.356 468.888C386.468 468.92 386.524 469 386.524 469.128C386.524 469.24 386.46 469.352 386.332 469.464C386.076 469.656 385.756 469.816 385.372 469.944C385.004 470.088 384.54 470.16 383.98 470.16ZM380.044 464.568C381.18 464.568 382.068 463.888 382.708 462.528C383.348 461.168 383.668 459.104 383.668 456.336C383.668 453.568 383.348 451.512 382.708 450.168C382.068 448.808 381.18 448.128 380.044 448.128C378.924 448.128 378.036 448.808 377.38 450.168C376.74 451.512 376.42 453.568 376.42 456.336C376.42 459.104 376.74 461.168 377.38 462.528C378.036 463.888 378.924 464.568 380.044 464.568ZM393.341 465.216C393.021 465.216 392.661 465.184 392.261 465.12C391.877 465.056 391.509 464.976 391.157 464.88C390.821 464.784 390.557 464.68 390.365 464.568C390.253 464.504 390.165 464.44 390.101 464.376C390.053 464.296 390.029 464.168 390.029 463.992L389.909 460.224C389.909 459.904 390.013 459.744 390.221 459.744C390.397 459.744 390.517 459.888 390.581 460.176L390.797 461.088C391.341 463.376 392.357 464.52 393.845 464.52C394.645 464.52 395.277 464.256 395.741 463.728C396.221 463.184 396.461 462.424 396.461 461.448C396.461 460.504 396.213 459.624 395.717 458.808C395.237 457.992 394.461 457.184 393.389 456.384C392.205 455.536 391.341 454.72 390.797 453.936C390.253 453.136 389.981 452.288 389.981 451.392C389.981 450.208 390.389 449.264 391.205 448.56C392.037 447.84 393.093 447.48 394.373 447.48C394.853 447.48 395.317 447.536 395.765 447.648C396.213 447.76 396.581 447.92 396.869 448.128C396.965 448.192 397.037 448.264 397.085 448.344C397.149 448.424 397.181 448.528 397.181 448.656L397.253 452.28C397.253 452.552 397.149 452.688 396.941 452.688C396.797 452.688 396.693 452.576 396.629 452.352L396.461 451.752C396.109 450.52 395.741 449.624 395.357 449.064C394.989 448.488 394.453 448.2 393.749 448.2C393.061 448.2 392.509 448.424 392.093 448.872C391.693 449.32 391.493 449.952 391.493 450.768C391.493 451.456 391.717 452.112 392.165 452.736C392.613 453.36 393.397 454.12 394.517 455.016C395.717 455.992 396.589 456.936 397.133 457.848C397.693 458.744 397.973 459.704 397.973 460.728C397.973 461.624 397.773 462.408 397.373 463.08C396.973 463.752 396.421 464.28 395.717 464.664C395.029 465.032 394.237 465.216 393.341 465.216ZM401.774 465C401.534 465 401.414 464.912 401.414 464.736C401.414 464.592 401.518 464.496 401.726 464.448L402.278 464.352C402.614 464.288 402.83 464.2 402.926 464.088C403.038 463.976 403.094 463.752 403.094 463.416V449.304C403.094 448.968 403.038 448.744 402.926 448.632C402.83 448.52 402.614 448.432 402.278 448.368L401.726 448.272C401.518 448.224 401.414 448.128 401.414 447.984C401.414 447.808 401.534 447.72 401.774 447.72H406.166C406.406 447.72 406.526 447.816 406.526 448.008C406.526 448.152 406.438 448.24 406.262 448.272L405.614 448.368C405.278 448.416 405.054 448.504 404.942 448.632C404.846 448.76 404.798 448.992 404.798 449.328V462.768C404.798 463.344 404.958 463.76 405.278 464.016C405.614 464.272 406.03 464.4 406.526 464.4C406.894 464.4 407.27 464.328 407.654 464.184C408.054 464.024 408.414 463.736 408.734 463.32C409.054 462.888 409.294 462.264 409.454 461.448L409.766 459.84C409.814 459.632 409.934 459.528 410.126 459.528C410.35 459.528 410.446 459.664 410.414 459.936L410.126 464.448C410.094 464.816 409.894 465 409.526 465H401.774Z" fill="#FFFAEE"/>
<line x1="229" y1="646.5" x2="851" y2="646.5" stroke="#FFFAEE" stroke-dasharray="7.59 7.59"/>
<line x1="229" y1="389.5" x2="851" y2="389.5" stroke="#FFFAEE" stroke-dasharray="7.59 7.59"/>
<rect x="198.5" y="362.5" width="683" height="314" stroke="#FFFAEE"/>
<path fill-rule="evenodd" clip-rule="evenodd" d="M811.678 614.362V620.183C811.039 620.244 810.392 620.278 809.728 620.278C798.894 620.278 790.053 611.451 790.053 600.635C790.053 589.818 798.894 581 809.728 581C810.384 581 811.039 581.034 811.678 581.095V586.916C811.039 586.822 810.392 586.778 809.728 586.778C802.077 586.778 795.841 593.013 795.841 600.635C795.841 608.256 802.086 614.491 809.728 614.491C810.384 614.491 811.039 614.439 811.678 614.353V614.362Z" fill="#FFFAEE"/>
<path fill-rule="evenodd" clip-rule="evenodd" d="M820.062 597.638H831.422V603.64H820.062C821.442 609.841 826.997 614.5 833.613 614.5C834.268 614.5 834.924 614.448 835.562 614.362V620.183C834.915 620.244 834.268 620.278 833.613 620.278C822.77 620.278 813.946 611.451 813.946 600.643C813.946 589.836 822.77 581 833.613 581C834.268 581 834.924 581.034 835.562 581.095V586.916C834.915 586.822 834.268 586.778 833.613 586.778C826.997 586.778 821.433 591.437 820.062 597.638Z" fill="#FFFAEE"/>
<path d="M714.639 581C703.81 581 695 589.81 695 600.639C695 611.468 703.81 620.278 714.639 620.278C725.468 620.278 734.278 611.468 734.278 600.639C734.278 589.81 725.468 581 714.639 581ZM732.486 600.639C732.486 610.482 724.482 618.486 714.639 618.486C704.796 618.486 696.791 610.482 696.791 600.639C696.791 590.796 704.796 582.791 714.639 582.791C724.482 582.791 732.486 590.796 732.486 600.639Z" fill="#FFFAEE"/>
<path d="M712.592 604V602.328L715.798 596.282C715.96 595.98 716.053 595.719 716.077 595.498C716.1 595.266 716.111 594.982 716.111 594.645C716.111 594.494 716.106 594.337 716.094 594.174C716.094 594 716.065 593.849 716.007 593.721C715.949 593.594 715.862 593.489 715.746 593.408C715.629 593.315 715.461 593.268 715.24 593.268C714.973 593.268 714.758 593.344 714.596 593.495C714.445 593.646 714.369 593.867 714.369 594.157V595.167H712.592V594.192C712.592 593.82 712.662 593.472 712.801 593.147C712.941 592.821 713.132 592.537 713.376 592.293C713.609 592.049 713.887 591.857 714.213 591.718C714.538 591.567 714.886 591.491 715.258 591.491C715.722 591.491 716.117 591.579 716.442 591.753C716.779 591.915 717.058 592.142 717.279 592.432C717.488 592.723 717.639 593.054 717.732 593.425C717.836 593.797 717.888 594.192 717.888 594.61C717.888 594.912 717.883 595.167 717.871 595.376C717.859 595.574 717.836 595.766 717.801 595.951C717.766 596.137 717.708 596.323 717.627 596.509C717.546 596.695 717.435 596.921 717.296 597.188L714.683 602.223H717.888V604H712.592ZM723.029 591.596L721.008 596.805L721.043 596.84C721.101 596.793 721.188 596.759 721.304 596.735C721.432 596.7 721.595 596.683 721.792 596.683C722.106 596.683 722.396 596.759 722.663 596.91C722.93 597.061 723.139 597.252 723.29 597.484C723.372 597.612 723.435 597.74 723.482 597.868C723.528 597.995 723.569 598.164 723.604 598.373C723.627 598.582 723.644 598.849 723.656 599.174C723.668 599.488 723.674 599.889 723.674 600.376C723.674 600.783 723.668 601.12 723.656 601.387C723.644 601.642 723.627 601.857 723.604 602.031C723.569 602.217 723.523 602.374 723.464 602.502C723.418 602.63 723.354 602.763 723.273 602.902C723.041 603.286 722.727 603.582 722.332 603.791C721.949 604 721.513 604.105 721.025 604.105C720.538 604.105 720.102 604 719.719 603.791C719.336 603.57 719.028 603.274 718.796 602.902C718.703 602.763 718.627 602.63 718.569 602.502C718.523 602.374 718.488 602.217 718.465 602.031C718.43 601.857 718.406 601.642 718.395 601.387C718.383 601.12 718.377 600.783 718.377 600.376C718.377 599.993 718.383 599.68 718.395 599.436C718.406 599.18 718.424 598.959 718.447 598.774C718.47 598.599 718.505 598.443 718.552 598.303C718.598 598.152 718.65 597.995 718.708 597.833L721.043 591.596H723.029ZM721.897 599.139C721.897 598.872 721.809 598.657 721.635 598.495C721.461 598.332 721.258 598.251 721.025 598.251C720.793 598.251 720.59 598.332 720.416 598.495C720.242 598.657 720.154 598.872 720.154 599.139V601.439C720.154 601.706 720.242 601.921 720.416 602.084C720.59 602.246 720.793 602.328 721.025 602.328C721.258 602.328 721.461 602.246 721.635 602.084C721.809 601.921 721.897 601.706 721.897 601.439V599.139Z" fill="#FFFAEE"/>
<path d="M835 540H608V487H835" stroke="#FFFAEE" stroke-width="2" stroke-linecap="round" stroke-dasharray="2 8"/>
</svg>
