<svg width="1080" height="1080" viewBox="0 0 1080 1080" fill="none" xmlns="http://www.w3.org/2000/svg">
<rect width="1080" height="1080" fill="#191919"/>
<path d="M499.562 424.032V436.892C499.562 438.62 499.08 439.95 498.114 440.882C497.165 441.797 495.835 442.254 494.124 442.254C493.022 442.254 492.065 442.068 491.252 441.695C490.456 441.305 489.837 440.763 489.397 440.069C488.973 439.357 488.761 438.51 488.761 437.527H491.531C491.565 438.289 491.786 438.874 492.192 439.281C492.616 439.67 493.26 439.865 494.124 439.865C495.039 439.865 495.699 439.628 496.106 439.154C496.53 438.679 496.741 437.925 496.741 436.892V424.032H499.562ZM502.821 424.032H509.098C510.674 424.032 511.927 424.295 512.859 424.82C513.808 425.328 514.486 426.023 514.892 426.904C515.316 427.768 515.528 428.742 515.528 429.826C515.528 430.911 515.316 431.894 514.892 432.775C514.486 433.656 513.817 434.359 512.885 434.884C511.953 435.409 510.699 435.672 509.123 435.672H505.667V442H502.821V424.032ZM509.022 433.257C510.038 433.257 510.809 433.122 511.334 432.851C511.86 432.58 512.215 432.19 512.402 431.682C512.605 431.157 512.707 430.538 512.707 429.826C512.707 429.098 512.614 428.488 512.427 427.997C512.241 427.488 511.877 427.107 511.334 426.853C510.809 426.582 510.03 426.446 508.996 426.446H505.667V433.257H509.022ZM517.266 424.032H528.474V426.421H520.113V431.783H527.889V434.147H520.113V439.611H528.601V442H517.266V424.032ZM542.441 435.011H537.993V432.597H545.262V434.833C545.262 436.172 544.999 437.408 544.474 438.544C543.966 439.662 543.161 440.56 542.06 441.238C540.975 441.915 539.552 442.254 537.79 442.254C535.198 442.254 533.199 441.466 531.792 439.891C530.403 438.298 529.708 436.002 529.708 433.003C529.708 430.021 530.403 427.743 531.792 426.167C533.199 424.574 535.198 423.778 537.79 423.778C539.112 423.778 540.298 424.015 541.348 424.489C542.399 424.964 543.254 425.642 543.915 426.523C544.593 427.404 544.999 428.471 545.135 429.725H542.288C542.102 428.539 541.636 427.649 540.891 427.056C540.145 426.463 539.112 426.167 537.79 426.167C536.062 426.167 534.757 426.734 533.876 427.87C532.995 428.988 532.555 430.699 532.555 433.003C532.555 435.308 532.995 437.027 533.876 438.162C534.757 439.281 536.062 439.84 537.79 439.84C538.569 439.84 539.23 439.747 539.772 439.56C540.315 439.357 540.755 439.094 541.094 438.772C541.45 438.434 541.721 438.061 541.907 437.654C542.11 437.231 542.246 436.79 542.314 436.333C542.399 435.875 542.441 435.435 542.441 435.011ZM613.05 442V424.032H619.251C622.03 424.032 624.114 424.811 625.503 426.37C626.892 427.929 627.587 430.14 627.587 433.003C627.587 435.85 626.884 438.061 625.478 439.636C624.071 441.212 621.911 442 618.997 442H613.05ZM618.87 439.611C620.327 439.611 621.488 439.365 622.352 438.874C623.216 438.383 623.834 437.646 624.207 436.663C624.58 435.68 624.766 434.46 624.766 433.003C624.766 431.529 624.58 430.309 624.207 429.344C623.834 428.361 623.233 427.632 622.402 427.158C621.572 426.667 620.463 426.421 619.073 426.421H615.896V439.611H618.87ZM634.735 442H631.888V424.032H634.735V442ZM629.22 426.421V424.032H637.378V426.421H629.22ZM629.22 442V439.611H637.378V442H629.22ZM646.288 438.62H646.39L651.448 424.032H654.447L647.839 442H644.84L638.258 424.032H641.256L646.288 438.62ZM660.846 442H658V424.032H660.846V442ZM655.331 426.421V424.032H663.489V426.421H655.331ZM655.331 442V439.611H663.489V442H655.331ZM675.297 428.683C675.212 427.836 674.873 427.209 674.28 426.802C673.704 426.379 672.857 426.167 671.739 426.167C670.536 426.167 669.647 426.404 669.071 426.878C668.511 427.336 668.232 427.98 668.232 428.81C668.232 429.25 668.334 429.623 668.537 429.928C668.757 430.216 669.028 430.462 669.35 430.665C669.672 430.852 670.011 431.004 670.367 431.123C670.739 431.241 671.078 431.351 671.383 431.453L673.061 431.936C673.552 432.071 674.103 432.249 674.713 432.47C675.339 432.69 675.932 432.995 676.492 433.385C677.051 433.757 677.508 434.24 677.864 434.833C678.237 435.409 678.423 436.129 678.423 436.993C678.423 438.061 678.169 438.993 677.661 439.789C677.169 440.585 676.424 441.212 675.424 441.67C674.424 442.11 673.179 442.33 671.688 442.33C669.536 442.33 667.901 441.873 666.783 440.958C665.682 440.026 665.072 438.764 664.953 437.171H667.825C667.893 437.832 668.079 438.366 668.384 438.772C668.706 439.179 669.147 439.476 669.706 439.662C670.265 439.848 670.926 439.941 671.688 439.941C672.942 439.941 673.908 439.687 674.585 439.179C675.263 438.654 675.602 437.908 675.602 436.943C675.602 436.4 675.458 435.977 675.17 435.672C674.882 435.35 674.492 435.087 674.001 434.884C673.527 434.681 672.993 434.494 672.4 434.325L670.265 433.715C668.774 433.291 667.596 432.707 666.732 431.961C665.868 431.199 665.436 430.182 665.436 428.912C665.436 427.81 665.707 426.878 666.25 426.116C666.792 425.354 667.537 424.777 668.486 424.388C669.452 423.981 670.562 423.778 671.815 423.778C673.12 423.778 674.23 423.99 675.145 424.413C676.076 424.82 676.788 425.396 677.279 426.141C677.788 426.87 678.05 427.717 678.067 428.683H675.297ZM685.394 442H682.547V424.032H685.394V442ZM679.879 426.421V424.032H688.037V426.421H679.879ZM679.879 442V439.611H688.037V442H679.879ZM705.665 433.003C705.665 436.002 704.979 438.298 703.606 439.891C702.234 441.466 700.251 442.254 697.659 442.254C695.084 442.254 693.101 441.466 691.712 439.891C690.34 438.298 689.654 436.002 689.654 433.003C689.654 430.021 690.34 427.743 691.712 426.167C693.101 424.574 695.084 423.778 697.659 423.778C700.251 423.778 702.234 424.574 703.606 426.167C704.979 427.743 705.665 430.021 705.665 433.003ZM702.818 433.003C702.818 430.665 702.395 428.945 701.548 427.844C700.717 426.726 699.43 426.167 697.685 426.167C695.939 426.167 694.635 426.726 693.771 427.844C692.924 428.945 692.5 430.665 692.5 433.003C692.5 435.341 692.924 437.07 693.771 438.188C694.635 439.306 695.939 439.865 697.685 439.865C699.43 439.865 700.717 439.306 701.548 438.188C702.395 437.07 702.818 435.341 702.818 433.003ZM721.995 442H719.301L710.762 428.581H710.66V442H707.865V424.032H710.584L719.149 437.476H719.25V424.032H721.995V442ZM359.084 478.032H365.768C367.208 478.032 368.36 478.244 369.224 478.667C370.088 479.091 370.715 479.667 371.105 480.396C371.495 481.124 371.69 481.954 371.69 482.886C371.69 483.682 371.512 484.343 371.156 484.868C370.8 485.394 370.36 485.792 369.834 486.063C369.326 486.334 368.801 486.512 368.259 486.597V486.724C368.682 486.741 369.131 486.842 369.606 487.029C370.097 487.198 370.546 487.461 370.953 487.817C371.376 488.172 371.723 488.63 371.995 489.189C372.266 489.731 372.401 490.375 372.401 491.12C372.401 492.052 372.198 492.891 371.791 493.636C371.402 494.365 370.732 494.941 369.783 495.365C368.852 495.788 367.581 496 365.971 496H359.084V478.032ZM365.946 493.611C366.962 493.611 367.733 493.509 368.259 493.306C368.784 493.103 369.14 492.806 369.326 492.417C369.512 492.01 369.606 491.536 369.606 490.993C369.606 490.4 369.478 489.884 369.224 489.443C368.987 489.003 368.606 488.664 368.081 488.427C367.572 488.172 366.903 488.045 366.073 488.045H361.93V493.611H365.946ZM365.666 485.682C366.751 485.682 367.555 485.461 368.081 485.021C368.623 484.564 368.894 483.869 368.894 482.937C368.894 482.429 368.809 481.988 368.64 481.615C368.487 481.226 368.182 480.929 367.725 480.726C367.267 480.523 366.607 480.421 365.743 480.421H361.93V485.682H365.666ZM374.247 478.032H385.455V480.421H377.093V485.783H384.87V488.147H377.093V493.611H385.582V496H374.247V478.032ZM389.55 478.032L394.252 485.936H394.328L399.055 478.032H402.283L395.726 488.655V496H392.879V488.655L386.297 478.032H389.55ZM417.816 487.003C417.816 490.002 417.13 492.298 415.757 493.891C414.385 495.466 412.402 496.254 409.81 496.254C407.235 496.254 405.253 495.466 403.863 493.891C402.491 492.298 401.805 490.002 401.805 487.003C401.805 484.021 402.491 481.743 403.863 480.167C405.253 478.574 407.235 477.778 409.81 477.778C412.402 477.778 414.385 478.574 415.757 480.167C417.13 481.743 417.816 484.021 417.816 487.003ZM414.969 487.003C414.969 484.665 414.546 482.945 413.699 481.844C412.868 480.726 411.581 480.167 409.836 480.167C408.09 480.167 406.786 480.726 405.922 481.844C405.075 482.945 404.651 484.665 404.651 487.003C404.651 489.341 405.075 491.07 405.922 492.188C406.786 493.306 408.09 493.865 409.836 493.865C411.581 493.865 412.868 493.306 413.699 492.188C414.546 491.07 414.969 489.341 414.969 487.003ZM434.146 496H431.452L422.913 482.581H422.811V496H420.016V478.032H422.735L431.3 491.476H431.401V478.032H434.146V496ZM437.117 496V478.032H443.318C446.097 478.032 448.181 478.811 449.57 480.37C450.959 481.929 451.654 484.14 451.654 487.003C451.654 489.85 450.951 492.061 449.544 493.636C448.138 495.212 445.978 496 443.064 496H437.117ZM442.937 493.611C444.394 493.611 445.554 493.365 446.418 492.874C447.283 492.383 447.901 491.646 448.274 490.663C448.646 489.68 448.833 488.46 448.833 487.003C448.833 485.529 448.646 484.309 448.274 483.344C447.901 482.361 447.299 481.632 446.469 481.158C445.639 480.667 444.529 480.421 443.14 480.421H439.963V493.611H442.937ZM543.151 478.032H557.129V480.421H551.564V496H548.717V480.421H543.151V478.032ZM558.026 478.032H560.872V485.783H569.411V478.032H572.258V496H569.411V488.172H560.872V496H558.026V478.032ZM575.201 478.032H586.409V480.421H578.048V485.783H585.824V488.147H578.048V493.611H586.536V496H575.201V478.032ZM630.117 478.032L635.302 492.264H635.403L640.664 478.032H644.425V496H641.731V482.683H641.604L636.699 496H633.955L629.126 482.683H628.999V496H626.279V478.032H630.117ZM647.401 478.032H658.609V480.421H650.248V485.783H658.024V488.147H650.248V493.611H658.736V496H647.401V478.032ZM661.152 496V478.032H667.353C670.131 478.032 672.215 478.811 673.605 480.37C674.994 481.929 675.689 484.14 675.689 487.003C675.689 489.85 674.986 492.061 673.579 493.636C672.173 495.212 670.013 496 667.099 496H661.152ZM666.972 493.611C668.429 493.611 669.589 493.365 670.453 492.874C671.317 492.383 671.936 491.646 672.309 490.663C672.681 489.68 672.868 488.46 672.868 487.003C672.868 485.529 672.681 484.309 672.309 483.344C671.936 482.361 671.334 481.632 670.504 481.158C669.674 480.667 668.564 480.421 667.175 480.421H663.998V493.611H666.972ZM682.836 496H679.99V478.032H682.836V496ZM677.321 480.421V478.032H685.479V480.421H677.321ZM677.321 496V493.611H685.479V496H677.321ZM701.938 478.032V489.697C701.938 491.002 701.684 492.162 701.176 493.179C700.668 494.179 699.897 494.958 698.863 495.517C697.83 496.059 696.508 496.33 694.899 496.33C693.306 496.33 691.984 496.059 690.934 495.517C689.883 494.958 689.104 494.179 688.596 493.179C688.087 492.162 687.833 491.002 687.833 489.697V478.032H690.68V489.494C690.68 490.392 690.807 491.18 691.061 491.857C691.332 492.518 691.764 493.035 692.357 493.408C692.967 493.764 693.814 493.941 694.899 493.941C695.966 493.941 696.805 493.764 697.415 493.408C698.024 493.035 698.457 492.518 698.711 491.857C698.982 491.18 699.117 490.392 699.117 489.494V478.032H701.938ZM708.698 478.032L713.883 492.264H713.984L719.245 478.032H723.006V496H720.313V482.683H720.185L715.28 496H712.536L707.707 482.683H707.58V496H704.861V478.032H708.698ZM358.245 521.069L364.294 514.766C364.955 514.071 365.505 513.47 365.946 512.961C366.386 512.453 366.717 511.97 366.937 511.513C367.157 511.038 367.267 510.538 367.267 510.013C367.267 509.031 366.996 508.31 366.454 507.853C365.912 507.396 365.175 507.167 364.243 507.167C363.243 507.167 362.481 507.421 361.956 507.929C361.448 508.438 361.176 509.225 361.143 510.293H358.347C358.347 509.175 358.593 508.209 359.084 507.396C359.592 506.565 360.295 505.922 361.193 505.464C362.091 505.007 363.133 504.778 364.319 504.778C365.471 504.778 366.48 504.998 367.344 505.439C368.208 505.862 368.877 506.464 369.351 507.243C369.826 508.022 370.063 508.946 370.063 510.013C370.063 510.708 369.927 511.369 369.656 511.996C369.385 512.606 368.945 513.275 368.335 514.003C367.725 514.715 366.912 515.596 365.895 516.646L361.168 521.577L360.787 520.611H370.266V523H358.245V521.069ZM378.254 523.254C376.678 523.254 375.399 522.898 374.416 522.187C373.45 521.475 372.747 520.433 372.307 519.061C371.866 517.671 371.646 515.986 371.646 514.003C371.646 512.021 371.875 510.344 372.332 508.971C372.79 507.599 373.501 506.557 374.467 505.845C375.45 505.134 376.712 504.778 378.254 504.778C379.813 504.778 381.075 505.134 382.041 505.845C383.006 506.557 383.718 507.599 384.175 508.971C384.633 510.344 384.862 512.021 384.862 514.003C384.862 515.986 384.633 517.671 384.175 519.061C383.735 520.433 383.023 521.475 382.041 522.187C381.075 522.898 379.813 523.254 378.254 523.254ZM378.254 520.84C379.609 520.84 380.583 520.306 381.176 519.239C381.769 518.171 382.066 516.426 382.066 514.003C382.066 511.58 381.769 509.835 381.176 508.768C380.583 507.701 379.609 507.167 378.254 507.167C376.915 507.167 375.95 507.701 375.357 508.768C374.764 509.835 374.467 511.58 374.467 514.003C374.467 516.426 374.755 518.171 375.331 519.239C375.924 520.306 376.898 520.84 378.254 520.84ZM442.049 548.069L448.098 541.766C448.759 541.071 449.309 540.47 449.75 539.961C450.19 539.453 450.521 538.97 450.741 538.513C450.961 538.038 451.071 537.538 451.071 537.013C451.071 536.031 450.8 535.31 450.258 534.853C449.716 534.396 448.979 534.167 448.047 534.167C447.048 534.167 446.285 534.421 445.76 534.929C445.252 535.438 444.98 536.225 444.947 537.293H442.151C442.151 536.175 442.397 535.209 442.888 534.396C443.396 533.565 444.099 532.922 444.997 532.464C445.895 532.007 446.937 531.778 448.123 531.778C449.276 531.778 450.284 531.998 451.148 532.439C452.012 532.862 452.681 533.464 453.155 534.243C453.63 535.022 453.867 535.946 453.867 537.013C453.867 537.708 453.731 538.369 453.46 538.996C453.189 539.606 452.749 540.275 452.139 541.003C451.529 541.715 450.716 542.596 449.699 543.646L444.972 548.577L444.591 547.611H454.07V550H442.049V548.069ZM455.857 544.256C455.874 543.68 455.967 543.096 456.136 542.503C456.306 541.893 456.594 541.224 457 540.495C457.407 539.75 457.949 538.902 458.627 537.954L462.922 532.032H466.073L459.44 541.105L459.415 539.478C459.584 539.343 459.83 539.207 460.152 539.072C460.491 538.936 460.863 538.826 461.27 538.741C461.677 538.64 462.083 538.589 462.49 538.589C463.625 538.589 464.625 538.835 465.489 539.326C466.37 539.817 467.056 540.495 467.547 541.359C468.039 542.223 468.284 543.231 468.284 544.383C468.284 545.552 468.039 546.586 467.547 547.484C467.056 548.365 466.344 549.051 465.413 549.543C464.481 550.017 463.371 550.254 462.083 550.254C460.118 550.254 458.585 549.712 457.483 548.628C456.382 547.543 455.84 546.086 455.857 544.256ZM458.652 544.383C458.652 545.451 458.923 546.306 459.466 546.95C460.008 547.577 460.88 547.891 462.083 547.891C463.252 547.891 464.108 547.577 464.65 546.95C465.209 546.306 465.489 545.451 465.489 544.383C465.489 543.299 465.209 542.46 464.65 541.867C464.108 541.257 463.252 540.952 462.083 540.952C461.016 540.952 460.177 541.257 459.567 541.867C458.957 542.46 458.652 543.299 458.652 544.383ZM370.953 570.011H366.505V567.597H373.774V569.833C373.774 571.172 373.511 572.408 372.986 573.544C372.477 574.662 371.673 575.56 370.571 576.238C369.487 576.915 368.064 577.254 366.302 577.254C363.709 577.254 361.71 576.466 360.304 574.891C358.915 573.298 358.22 571.002 358.22 568.003C358.22 565.021 358.915 562.743 360.304 561.167C361.71 559.574 363.709 558.778 366.302 558.778C367.623 558.778 368.809 559.015 369.86 559.489C370.91 559.964 371.766 560.642 372.427 561.523C373.104 562.404 373.511 563.471 373.646 564.725H370.8C370.614 563.539 370.148 562.649 369.402 562.056C368.657 561.463 367.623 561.167 366.302 561.167C364.573 561.167 363.269 561.734 362.388 562.87C361.507 563.988 361.066 565.699 361.066 568.003C361.066 570.308 361.507 572.027 362.388 573.162C363.269 574.281 364.573 574.84 366.302 574.84C367.081 574.84 367.742 574.747 368.284 574.56C368.826 574.357 369.267 574.094 369.606 573.772C369.961 573.434 370.232 573.061 370.419 572.654C370.622 572.231 370.758 571.79 370.825 571.333C370.91 570.875 370.953 570.435 370.953 570.011ZM384.856 568.512L389.583 577H386.33L381.984 568.994L384.856 568.512ZM382.162 567.8C383.195 567.8 383.975 567.69 384.5 567.47C385.025 567.232 385.381 566.885 385.567 566.428C385.754 565.953 385.847 565.36 385.847 564.649C385.847 563.937 385.754 563.344 385.567 562.87C385.381 562.395 385.017 562.039 384.474 561.802C383.949 561.565 383.17 561.446 382.136 561.446H378.756V567.8H382.162ZM382.263 570.214H378.756V577H375.91V559.032H382.238C383.847 559.032 385.118 559.278 386.05 559.769C386.999 560.243 387.668 560.904 388.058 561.751C388.464 562.598 388.668 563.564 388.668 564.649C388.668 565.428 388.575 566.157 388.388 566.834C388.202 567.495 387.871 568.08 387.397 568.588C386.923 569.096 386.27 569.494 385.44 569.782C384.61 570.07 383.551 570.214 382.263 570.214ZM391.373 559.032H402.581V561.421H394.219V566.783H401.996V569.147H394.219V574.611H402.708V577H391.373V559.032ZM411.732 562.387H411.605L406.395 577H403.599L410.258 559.032H413.18L419.839 577H416.916L411.732 562.387ZM416.383 572.349H407.03V569.909H416.383V572.349ZM418.048 559.032H432.026V561.421H426.46V577H423.614V561.421H418.048V559.032ZM566.997 577V559.032H573.198C575.977 559.032 578.061 559.811 579.45 561.37C580.84 562.929 581.534 565.14 581.534 568.003C581.534 570.85 580.831 573.061 579.425 574.636C578.019 576.212 575.858 577 572.944 577H566.997ZM572.817 574.611C574.274 574.611 575.435 574.365 576.299 573.874C577.163 573.383 577.781 572.646 578.154 571.663C578.527 570.68 578.713 569.46 578.713 568.003C578.713 566.529 578.527 565.309 578.154 564.344C577.781 563.361 577.18 562.632 576.35 562.158C575.52 561.667 574.41 561.421 573.021 561.421H569.844V574.611H572.817ZM583.726 559.032H594.934V561.421H586.573V566.783H594.349V569.147H586.573V574.611H595.061V577H583.726V559.032ZM606.657 563.683C606.573 562.836 606.234 562.209 605.641 561.802C605.065 561.379 604.218 561.167 603.099 561.167C601.896 561.167 601.007 561.404 600.431 561.878C599.872 562.336 599.592 562.98 599.592 563.81C599.592 564.25 599.694 564.623 599.897 564.928C600.117 565.216 600.388 565.462 600.71 565.665C601.032 565.852 601.371 566.004 601.727 566.123C602.1 566.241 602.438 566.351 602.743 566.453L604.421 566.936C604.912 567.071 605.463 567.249 606.073 567.47C606.7 567.69 607.293 567.995 607.852 568.385C608.411 568.757 608.868 569.24 609.224 569.833C609.597 570.409 609.783 571.129 609.783 571.993C609.783 573.061 609.529 573.993 609.021 574.789C608.529 575.585 607.784 576.212 606.784 576.67C605.785 577.11 604.539 577.33 603.048 577.33C600.897 577.33 599.262 576.873 598.143 575.958C597.042 575.026 596.432 573.764 596.314 572.171H599.185C599.253 572.832 599.44 573.366 599.745 573.772C600.066 574.179 600.507 574.476 601.066 574.662C601.625 574.848 602.286 574.941 603.048 574.941C604.302 574.941 605.268 574.687 605.946 574.179C606.623 573.654 606.962 572.908 606.962 571.943C606.962 571.4 606.818 570.977 606.53 570.672C606.242 570.35 605.852 570.087 605.361 569.884C604.887 569.681 604.353 569.494 603.76 569.325L601.625 568.715C600.134 568.291 598.957 567.707 598.093 566.961C597.229 566.199 596.796 565.182 596.796 563.912C596.796 562.81 597.068 561.878 597.61 561.116C598.152 560.354 598.897 559.777 599.846 559.388C600.812 558.981 601.922 558.778 603.176 558.778C604.48 558.778 605.59 558.99 606.505 559.413C607.437 559.82 608.148 560.396 608.64 561.141C609.148 561.87 609.411 562.717 609.427 563.683H606.657ZM616.754 577H613.908V559.032H616.754V577ZM611.239 561.421V559.032H619.397V561.421H611.239ZM611.239 577V574.611H619.397V577H611.239ZM633.746 570.011H629.299V567.597H636.567V569.833C636.567 571.172 636.305 572.408 635.78 573.544C635.271 574.662 634.467 575.56 633.365 576.238C632.281 576.915 630.858 577.254 629.096 577.254C626.503 577.254 624.504 576.466 623.098 574.891C621.708 573.298 621.014 571.002 621.014 568.003C621.014 565.021 621.708 562.743 623.098 561.167C624.504 559.574 626.503 558.778 629.096 558.778C630.417 558.778 631.603 559.015 632.654 559.489C633.704 559.964 634.56 560.642 635.22 561.523C635.898 562.404 636.305 563.471 636.44 564.725H633.594C633.408 563.539 632.942 562.649 632.196 562.056C631.451 561.463 630.417 561.167 629.096 561.167C627.367 561.167 626.063 561.734 625.182 562.87C624.301 563.988 623.86 565.699 623.86 568.003C623.86 570.308 624.301 572.027 625.182 573.162C626.063 574.281 627.367 574.84 629.096 574.84C629.875 574.84 630.536 574.747 631.078 574.56C631.62 574.357 632.061 574.094 632.399 573.772C632.755 573.434 633.026 573.061 633.213 572.654C633.416 572.231 633.552 571.79 633.619 571.333C633.704 570.875 633.746 570.435 633.746 570.011ZM652.834 577H650.14L641.601 563.581H641.499V577H638.704V559.032H641.423L649.988 572.476H650.089V559.032H652.834V577ZM675.583 577H672.737V559.032H675.583V577ZM670.068 561.421V559.032H678.226V561.421H670.068ZM670.068 577V574.611H678.226V577H670.068ZM690.034 563.683C689.95 562.836 689.611 562.209 689.018 561.802C688.442 561.379 687.595 561.167 686.476 561.167C685.273 561.167 684.384 561.404 683.808 561.878C683.249 562.336 682.969 562.98 682.969 563.81C682.969 564.25 683.071 564.623 683.274 564.928C683.494 565.216 683.766 565.462 684.087 565.665C684.409 565.852 684.748 566.004 685.104 566.123C685.477 566.241 685.816 566.351 686.121 566.453L687.798 566.936C688.289 567.071 688.84 567.249 689.45 567.47C690.077 567.69 690.67 567.995 691.229 568.385C691.788 568.757 692.245 569.24 692.601 569.833C692.974 570.409 693.16 571.129 693.16 571.993C693.16 573.061 692.906 573.993 692.398 574.789C691.907 575.585 691.161 576.212 690.161 576.67C689.162 577.11 687.917 577.33 686.426 577.33C684.274 577.33 682.639 576.873 681.521 575.958C680.419 575.026 679.809 573.764 679.691 572.171H682.563C682.63 572.832 682.817 573.366 683.122 573.772C683.444 574.179 683.884 574.476 684.443 574.662C685.002 574.848 685.663 574.941 686.426 574.941C687.679 574.941 688.645 574.687 689.323 574.179C690.001 573.654 690.339 572.908 690.339 571.943C690.339 571.4 690.195 570.977 689.907 570.672C689.619 570.35 689.23 570.087 688.738 569.884C688.264 569.681 687.73 569.494 687.137 569.325L685.002 568.715C683.511 568.291 682.334 567.707 681.47 566.961C680.606 566.199 680.174 565.182 680.174 563.912C680.174 562.81 680.445 561.878 680.987 561.116C681.529 560.354 682.275 559.777 683.223 559.388C684.189 558.981 685.299 558.778 686.553 558.778C687.857 558.778 688.967 558.99 689.882 559.413C690.814 559.82 691.525 560.396 692.017 561.141C692.525 561.87 692.788 562.717 692.805 563.683H690.034ZM716.433 562.387H716.306L711.096 577H708.3L714.959 559.032H717.881L724.54 577H721.617L716.433 562.387ZM721.083 572.349H711.731V569.909H721.083V572.349ZM358.982 586.032H370.215V588.421H361.829V593.834H369.402V596.223H361.829V604H358.982V586.032ZM386.989 595.003C386.989 598.002 386.303 600.298 384.93 601.891C383.558 603.466 381.576 604.254 378.983 604.254C376.408 604.254 374.426 603.466 373.036 601.891C371.664 600.298 370.978 598.002 370.978 595.003C370.978 592.021 371.664 589.743 373.036 588.167C374.426 586.574 376.408 585.778 378.983 585.778C381.576 585.778 383.558 586.574 384.93 588.167C386.303 589.743 386.989 592.021 386.989 595.003ZM384.142 595.003C384.142 592.665 383.719 590.945 382.872 589.844C382.041 588.726 380.754 588.167 379.009 588.167C377.264 588.167 375.959 588.726 375.095 589.844C374.248 590.945 373.824 592.665 373.824 595.003C373.824 597.341 374.248 599.07 375.095 600.188C375.959 601.306 377.264 601.865 379.009 601.865C380.754 601.865 382.041 601.306 382.872 600.188C383.719 599.07 384.142 597.341 384.142 595.003ZM398.135 595.512L402.862 604H399.609L395.263 595.994L398.135 595.512ZM395.441 594.8C396.474 594.8 397.254 594.69 397.779 594.47C398.304 594.232 398.66 593.885 398.846 593.428C399.033 592.953 399.126 592.36 399.126 591.649C399.126 590.937 399.033 590.344 398.846 589.87C398.66 589.395 398.296 589.039 397.753 588.802C397.228 588.565 396.449 588.446 395.415 588.446H392.035V594.8H395.441ZM395.542 597.214H392.035V604H389.189V586.032H395.517C397.127 586.032 398.397 586.278 399.329 586.769C400.278 587.243 400.947 587.904 401.337 588.751C401.743 589.598 401.947 590.564 401.947 591.649C401.947 592.428 401.854 593.157 401.667 593.834C401.481 594.495 401.15 595.08 400.676 595.588C400.202 596.096 399.549 596.494 398.719 596.782C397.889 597.07 396.83 597.214 395.542 597.214ZM408.489 586.032L413.674 600.264H413.776L419.036 586.032H422.798V604H420.104V590.683H419.977L415.072 604H412.327L407.498 590.683H407.371V604H404.652V586.032H408.489ZM536.601 622.003C536.601 625.002 535.915 627.298 534.543 628.891C533.17 630.466 531.188 631.254 528.596 631.254C526.02 631.254 524.038 630.466 522.649 628.891C521.276 627.298 520.59 625.002 520.59 622.003C520.59 619.021 521.276 616.743 522.649 615.167C524.038 613.574 526.02 612.778 528.596 612.778C531.188 612.778 533.17 613.574 534.543 615.167C535.915 616.743 536.601 619.021 536.601 622.003ZM533.755 622.003C533.755 619.665 533.331 617.945 532.484 616.844C531.654 615.726 530.366 615.167 528.621 615.167C526.876 615.167 525.571 615.726 524.707 616.844C523.86 617.945 523.437 619.665 523.437 622.003C523.437 624.341 523.86 626.07 524.707 627.188C525.571 628.306 526.876 628.865 528.621 628.865C530.366 628.865 531.654 628.306 532.484 627.188C533.331 626.07 533.755 624.341 533.755 622.003ZM538.801 613.032H550.034V615.421H541.648V620.834H549.221V623.223H541.648V631H538.801V613.032ZM669.176 651.011H664.728V648.597H671.997V650.833C671.997 652.172 671.734 653.408 671.209 654.544C670.701 655.662 669.896 656.56 668.795 657.238C667.71 657.915 666.287 658.254 664.525 658.254C661.933 658.254 659.933 657.466 658.527 655.891C657.138 654.298 656.443 652.002 656.443 649.003C656.443 646.021 657.138 643.743 658.527 642.167C659.933 640.574 661.933 639.778 664.525 639.778C665.846 639.778 667.032 640.015 668.083 640.489C669.133 640.964 669.989 641.642 670.65 642.523C671.328 643.404 671.734 644.471 671.87 645.725H669.023C668.837 644.539 668.371 643.649 667.625 643.056C666.88 642.463 665.846 642.167 664.525 642.167C662.797 642.167 661.492 642.734 660.611 643.87C659.73 644.988 659.29 646.699 659.29 649.003C659.29 651.308 659.73 653.027 660.611 654.162C661.492 655.281 662.797 655.84 664.525 655.84C665.304 655.84 665.965 655.747 666.507 655.56C667.049 655.357 667.49 655.094 667.829 654.772C668.185 654.434 668.456 654.061 668.642 653.654C668.845 653.231 668.981 652.79 669.049 652.333C669.133 651.875 669.176 651.435 669.176 651.011ZM689.382 649.003C689.382 652.002 688.695 654.298 687.323 655.891C685.951 657.466 683.968 658.254 681.376 658.254C678.801 658.254 676.818 657.466 675.429 655.891C674.057 654.298 673.371 652.002 673.371 649.003C673.371 646.021 674.057 643.743 675.429 642.167C676.818 640.574 678.801 639.778 681.376 639.778C683.968 639.778 685.951 640.574 687.323 642.167C688.695 643.743 689.382 646.021 689.382 649.003ZM686.535 649.003C686.535 646.665 686.112 644.945 685.264 643.844C684.434 642.726 683.147 642.167 681.401 642.167C679.656 642.167 678.352 642.726 677.488 643.844C676.641 644.945 676.217 646.665 676.217 649.003C676.217 651.341 676.641 653.07 677.488 654.188C678.352 655.306 679.656 655.865 681.401 655.865C683.147 655.865 684.434 655.306 685.264 654.188C686.112 653.07 686.535 651.341 686.535 649.003ZM707.054 649.003C707.054 652.002 706.367 654.298 704.995 655.891C703.623 657.466 701.64 658.254 699.048 658.254C696.473 658.254 694.49 657.466 693.101 655.891C691.729 654.298 691.042 652.002 691.042 649.003C691.042 646.021 691.729 643.743 693.101 642.167C694.49 640.574 696.473 639.778 699.048 639.778C701.64 639.778 703.623 640.574 704.995 642.167C706.367 643.743 707.054 646.021 707.054 649.003ZM704.207 649.003C704.207 646.665 703.784 644.945 702.936 643.844C702.106 642.726 700.819 642.167 699.073 642.167C697.328 642.167 696.024 642.726 695.16 643.844C694.312 644.945 693.889 646.665 693.889 649.003C693.889 651.341 694.312 653.07 695.16 654.188C696.024 655.306 697.328 655.865 699.073 655.865C700.819 655.865 702.106 655.306 702.936 654.188C703.784 653.07 704.207 651.341 704.207 649.003ZM709.254 658V640.032H715.455C718.233 640.032 720.317 640.811 721.707 642.37C723.096 643.929 723.791 646.14 723.791 649.003C723.791 651.85 723.087 654.061 721.681 655.636C720.275 657.212 718.115 658 715.2 658H709.254ZM715.073 655.611C716.53 655.611 717.691 655.365 718.555 654.874C719.419 654.383 720.038 653.646 720.41 652.663C720.783 651.68 720.97 650.46 720.97 649.003C720.97 647.529 720.783 646.309 720.41 645.344C720.038 644.361 719.436 643.632 718.606 643.158C717.776 642.667 716.666 642.421 715.277 642.421H712.1V655.611H715.073ZM362.82 667.032L368.004 681.264H368.106L373.367 667.032H377.128V685H374.434V671.683H374.307L369.402 685H366.657L361.829 671.683H361.702V685H358.982V667.032H362.82ZM386.737 670.387H386.61L381.4 685H378.605L385.263 667.032H388.186L394.844 685H391.922L386.737 670.387ZM391.388 680.349H382.036V677.909H391.388V680.349ZM410.417 685H407.723L399.184 671.581H399.082V685H396.287V667.032H399.006L407.571 680.476H407.673V667.032H410.417V685ZM427.518 685H424.825L416.285 671.581H416.184V685H413.388V667.032H416.107L424.672 680.476H424.774V667.032H427.518V685ZM430.489 667.032H441.697V669.421H433.336V674.783H441.112V677.147H433.336V682.611H441.824V685H430.489V667.032ZM453.186 676.512L457.913 685H454.66L450.314 676.994L453.186 676.512ZM450.492 675.8C451.525 675.8 452.305 675.69 452.83 675.47C453.355 675.232 453.711 674.885 453.897 674.428C454.084 673.953 454.177 673.36 454.177 672.649C454.177 671.937 454.084 671.344 453.897 670.87C453.711 670.395 453.347 670.039 452.804 669.802C452.279 669.565 451.5 669.446 450.466 669.446H447.086V675.8H450.492ZM450.593 678.214H447.086V685H444.24V667.032H450.568C452.178 667.032 453.448 667.278 454.38 667.769C455.329 668.243 455.998 668.904 456.388 669.751C456.794 670.598 456.998 671.564 456.998 672.649C456.998 673.428 456.905 674.157 456.718 674.834C456.532 675.495 456.201 676.08 455.727 676.588C455.253 677.096 454.6 677.494 453.77 677.782C452.94 678.07 451.881 678.214 450.593 678.214ZM469.132 671.683C469.047 670.836 468.708 670.209 468.115 669.802C467.539 669.379 466.692 669.167 465.574 669.167C464.371 669.167 463.481 669.404 462.905 669.878C462.346 670.336 462.066 670.98 462.066 671.81C462.066 672.25 462.168 672.623 462.371 672.928C462.592 673.216 462.863 673.462 463.185 673.665C463.507 673.852 463.845 674.004 464.201 674.123C464.574 674.241 464.913 674.351 465.218 674.453L466.895 674.936C467.386 675.071 467.937 675.249 468.547 675.47C469.174 675.69 469.767 675.995 470.326 676.385C470.885 676.757 471.343 677.24 471.698 677.833C472.071 678.409 472.258 679.129 472.258 679.993C472.258 681.061 472.003 681.993 471.495 682.789C471.004 683.585 470.258 684.212 469.259 684.67C468.259 685.11 467.014 685.33 465.523 685.33C463.371 685.33 461.736 684.873 460.618 683.958C459.516 683.026 458.907 681.764 458.788 680.171H461.66C461.728 680.832 461.914 681.366 462.219 681.772C462.541 682.179 462.981 682.476 463.54 682.662C464.1 682.848 464.76 682.941 465.523 682.941C466.777 682.941 467.742 682.687 468.42 682.179C469.098 681.654 469.437 680.908 469.437 679.943C469.437 679.4 469.293 678.977 469.005 678.672C468.716 678.35 468.327 678.087 467.835 677.884C467.361 677.681 466.827 677.494 466.234 677.325L464.1 676.715C462.609 676.291 461.431 675.707 460.567 674.961C459.703 674.199 459.271 673.182 459.271 671.912C459.271 670.81 459.542 669.878 460.084 669.116C460.626 668.354 461.372 667.777 462.321 667.388C463.286 666.981 464.396 666.778 465.65 666.778C466.954 666.778 468.064 666.99 468.979 667.413C469.911 667.82 470.623 668.396 471.114 669.141C471.622 669.87 471.885 670.717 471.902 671.683H469.132Z" fill="#FFFAEE"/>
<line x1="489" y1="459.5" x2="724" y2="459.5" stroke="#FFFAEE"/>
<line x1="357" y1="698.5" x2="476" y2="698.5" stroke="#FFFAEE"/>
<path d="M534.5 604.5C542.575 604.5 549.861 606.387 555.11 609.412C560.373 612.445 563.5 616.56 563.5 621C563.5 625.44 560.373 629.555 555.11 632.588C549.861 635.613 542.575 637.5 534.5 637.5C526.425 637.5 519.139 635.613 513.89 632.588C508.627 629.555 505.5 625.44 505.5 621C505.5 616.56 508.627 612.445 513.89 609.412C519.139 606.387 526.425 604.5 534.5 604.5Z" stroke="#FFFAEE"/>
<path d="M440.143 325.958L439.799 325.935V325.242C439.799 325.162 439.787 325.081 439.776 325H436.558C436.558 325.081 436.535 325.162 436.535 325.242V325.993L436.201 326.016C418.446 327.332 404.563 343.519 401 358.793C404.16 355.803 408.562 354.117 413.24 354.117C417.917 354.117 422.433 355.861 425.594 358.92C428.295 355.618 432.11 353.378 436.133 352.743L436.546 352.674V395.068C436.546 397.516 434.696 399.502 432.432 399.502C430.168 399.502 428.318 397.516 428.318 395.068V394.814H425.054V395.068C425.054 399.444 428.364 403 432.432 403C436.5 403 439.81 399.444 439.81 395.068V352.593L440.201 352.639C444.534 353.09 448.648 355.376 451.544 358.92C454.716 355.861 459.186 354.117 463.898 354.117C468.61 354.117 472.851 355.768 476 358.666C472.322 343.126 458.198 326.917 440.143 325.958Z" fill="#FFFAEE"/>
<circle cx="467" cy="389" r="2" fill="#FFFAEE"/>
<circle cx="416" cy="372" r="2" fill="#FFFAEE"/>
<circle cx="451" cy="452" r="2" fill="#FFFAEE"/>
<circle cx="424" cy="617" r="2" fill="#FFFAEE"/>
<circle cx="432" cy="656" r="2" fill="#FFFAEE"/>
<circle cx="441" cy="590" r="2" fill="#FFFAEE"/>
<circle cx="430" cy="543" r="2" fill="#FFFAEE"/>
<circle cx="410" cy="640" r="2" fill="#FFFAEE"/>
<circle cx="420" cy="523" r="2" fill="#FFFAEE"/>
<circle cx="434" cy="437" r="2" fill="#FFFAEE"/>
<circle cx="412" cy="462" r="2" fill="#FFFAEE"/>
<circle cx="457" cy="366" r="2" fill="#FFFAEE"/>
<circle cx="445" cy="510" r="2" fill="#FFFAEE"/>
<circle cx="453" cy="633" r="2" fill="#FFFAEE"/>
<circle cx="405" cy="410" r="2" fill="#FFFAEE"/>
</svg>
