<svg width="1080" height="1080" viewBox="0 0 1080 1080" fill="none" xmlns="http://www.w3.org/2000/svg">
<rect width="1080" height="1080" fill="#191919"/>
<path d="M348.24 458.06H348.16C348.04 458.353 347.893 458.633 347.72 458.9C347.547 459.153 347.333 459.38 347.08 459.58C346.827 459.78 346.513 459.94 346.14 460.06C345.78 460.18 345.353 460.24 344.86 460.24C343.34 460.24 342.193 459.647 341.42 458.46C340.647 457.273 340.26 455.48 340.26 453.08C340.26 450.613 340.667 448.787 341.48 447.6C342.307 446.4 343.533 445.8 345.16 445.8C345.733 445.8 346.247 445.88 346.7 446.04C347.153 446.2 347.547 446.413 347.88 446.68C348.213 446.947 348.493 447.26 348.72 447.62C348.96 447.98 349.153 448.36 349.3 448.76L348.26 449.22C348.007 448.54 347.64 447.973 347.16 447.52C346.693 447.067 346.04 446.84 345.2 446.84C343.96 446.84 343.04 447.3 342.44 448.22C341.84 449.127 341.54 450.413 341.54 452.08V453.9C341.54 455.553 341.82 456.853 342.38 457.8C342.953 458.747 343.86 459.22 345.1 459.22C345.593 459.22 346.033 459.14 346.42 458.98C346.807 458.82 347.133 458.593 347.4 458.3C347.667 458.007 347.873 457.667 348.02 457.28C348.167 456.88 348.24 456.44 348.24 455.96V454.3H345.06V453.34H349.36V460H348.24V458.06ZM353.332 460H352.132V446.04H357.132C358.372 446.04 359.312 446.393 359.952 447.1C360.592 447.793 360.912 448.747 360.912 449.96C360.912 451.093 360.619 452 360.032 452.68C359.459 453.36 358.606 453.733 357.472 453.8H357.172L360.952 460H359.612L355.932 453.86H353.332V460ZM357.112 452.84C357.952 452.84 358.586 452.613 359.012 452.16C359.439 451.707 359.652 451.133 359.652 450.44V449.48C359.652 448.787 359.439 448.213 359.012 447.76C358.586 447.307 357.952 447.08 357.112 447.08H353.332V452.84H357.112ZM371.344 460L370.024 455.74H364.744L363.404 460H362.164L366.604 446.04H368.184L372.604 460H371.344ZM367.444 447.32H367.304L365.024 454.7H369.724L367.444 447.32ZM374.517 460V446.04H379.517C380.757 446.04 381.697 446.393 382.337 447.1C382.977 447.793 383.297 448.747 383.297 449.96C383.297 451.173 382.977 452.133 382.337 452.84C381.697 453.533 380.757 453.88 379.517 453.88H375.717V460H374.517ZM375.717 452.84H379.497C380.337 452.84 380.97 452.613 381.397 452.16C381.823 451.707 382.037 451.133 382.037 450.44V449.48C382.037 448.787 381.823 448.213 381.397 447.76C380.97 447.307 380.337 447.08 379.497 447.08H375.717V452.84ZM392.829 453.44H386.709V460H385.509V446.04H386.709V452.4H392.829V446.04H394.029V460H392.829V453.44ZM396.701 460V459.04H400.361V447H396.701V446.04H405.221V447H401.561V459.04H405.221V460H396.701ZM412.633 460.24C409.3 460.24 407.633 457.833 407.633 453.02C407.633 448.207 409.3 445.8 412.633 445.8C413.206 445.8 413.713 445.88 414.153 446.04C414.593 446.2 414.98 446.413 415.313 446.68C415.646 446.947 415.926 447.26 416.153 447.62C416.393 447.98 416.593 448.36 416.753 448.76L415.733 449.22C415.6 448.887 415.44 448.573 415.253 448.28C415.08 447.987 414.866 447.733 414.613 447.52C414.373 447.307 414.086 447.14 413.753 447.02C413.433 446.9 413.06 446.84 412.633 446.84C411.38 446.84 410.446 447.3 409.833 448.22C409.22 449.127 408.913 450.413 408.913 452.08V453.96C408.913 455.627 409.22 456.92 409.833 457.84C410.446 458.747 411.38 459.2 412.633 459.2C413.06 459.2 413.433 459.14 413.753 459.02C414.086 458.9 414.373 458.733 414.613 458.52C414.866 458.307 415.08 458.06 415.253 457.78C415.44 457.487 415.6 457.167 415.733 456.82L416.753 457.28C416.593 457.68 416.393 458.06 416.153 458.42C415.926 458.78 415.646 459.093 415.313 459.36C414.98 459.627 414.593 459.84 414.153 460C413.713 460.16 413.206 460.24 412.633 460.24ZM423.345 460.24C422.719 460.24 422.159 460.18 421.665 460.06C421.172 459.94 420.725 459.78 420.325 459.58C419.925 459.367 419.565 459.113 419.245 458.82C418.939 458.527 418.659 458.207 418.405 457.86L419.285 457.14C419.805 457.807 420.379 458.32 421.005 458.68C421.632 459.027 422.425 459.2 423.385 459.2C424.505 459.2 425.365 458.953 425.965 458.46C426.565 457.953 426.865 457.227 426.865 456.28C426.865 455.413 426.612 454.773 426.105 454.36C425.612 453.947 424.905 453.667 423.985 453.52L422.425 453.26C421.732 453.14 421.152 452.96 420.685 452.72C420.232 452.48 419.865 452.2 419.585 451.88C419.305 451.547 419.105 451.18 418.985 450.78C418.879 450.38 418.825 449.967 418.825 449.54C418.825 448.287 419.232 447.353 420.045 446.74C420.872 446.113 421.979 445.8 423.365 445.8C424.499 445.8 425.425 445.987 426.145 446.36C426.879 446.72 427.465 447.22 427.905 447.86L427.065 448.6C426.665 448.04 426.172 447.607 425.585 447.3C425.012 446.993 424.259 446.84 423.325 446.84C422.285 446.84 421.472 447.067 420.885 447.52C420.312 447.96 420.025 448.62 420.025 449.5C420.025 450.313 420.265 450.933 420.745 451.36C421.225 451.773 421.939 452.053 422.885 452.2L424.425 452.46C425.132 452.58 425.719 452.767 426.185 453.02C426.652 453.26 427.025 453.547 427.305 453.88C427.585 454.213 427.779 454.58 427.885 454.98C428.005 455.38 428.065 455.8 428.065 456.24C428.065 457.52 427.652 458.507 426.825 459.2C425.999 459.893 424.839 460.24 423.345 460.24ZM442.87 460H441.67V446.04H446.67C447.91 446.04 448.85 446.393 449.49 447.1C450.13 447.793 450.45 448.747 450.45 449.96C450.45 451.093 450.156 452 449.57 452.68C448.996 453.36 448.143 453.733 447.01 453.8H446.71L450.49 460H449.15L445.47 453.86H442.87V460ZM446.65 452.84C447.49 452.84 448.123 452.613 448.55 452.16C448.976 451.707 449.19 451.133 449.19 450.44V449.48C449.19 448.787 448.976 448.213 448.55 447.76C448.123 447.307 447.49 447.08 446.65 447.08H442.87V452.84H446.65ZM452.862 460V446.04H461.282V447.08H454.062V452.4H461.022V453.44H454.062V458.96H461.282V460H452.862ZM468.114 460.24C467.487 460.24 466.927 460.18 466.434 460.06C465.941 459.94 465.494 459.78 465.094 459.58C464.694 459.367 464.334 459.113 464.014 458.82C463.707 458.527 463.427 458.207 463.174 457.86L464.054 457.14C464.574 457.807 465.147 458.32 465.774 458.68C466.401 459.027 467.194 459.2 468.154 459.2C469.274 459.2 470.134 458.953 470.734 458.46C471.334 457.953 471.634 457.227 471.634 456.28C471.634 455.413 471.381 454.773 470.874 454.36C470.381 453.947 469.674 453.667 468.754 453.52L467.194 453.26C466.501 453.14 465.921 452.96 465.454 452.72C465.001 452.48 464.634 452.2 464.354 451.88C464.074 451.547 463.874 451.18 463.754 450.78C463.647 450.38 463.594 449.967 463.594 449.54C463.594 448.287 464.001 447.353 464.814 446.74C465.641 446.113 466.747 445.8 468.134 445.8C469.267 445.8 470.194 445.987 470.914 446.36C471.647 446.72 472.234 447.22 472.674 447.86L471.834 448.6C471.434 448.04 470.941 447.607 470.354 447.3C469.781 446.993 469.027 446.84 468.094 446.84C467.054 446.84 466.241 447.067 465.654 447.52C465.081 447.96 464.794 448.62 464.794 449.5C464.794 450.313 465.034 450.933 465.514 451.36C465.994 451.773 466.707 452.053 467.654 452.2L469.194 452.46C469.901 452.58 470.487 452.767 470.954 453.02C471.421 453.26 471.794 453.547 472.074 453.88C472.354 454.213 472.547 454.58 472.654 454.98C472.774 455.38 472.834 455.8 472.834 456.24C472.834 457.52 472.421 458.507 471.594 459.2C470.767 459.893 469.607 460.24 468.114 460.24ZM475.246 460V446.04H483.666V447.08H476.446V452.4H483.406V453.44H476.446V458.96H483.666V460H475.246ZM494.458 460L493.138 455.74H487.858L486.518 460H485.278L489.718 446.04H491.298L495.718 460H494.458ZM490.558 447.32H490.418L488.138 454.7H492.838L490.558 447.32ZM498.831 460H497.631V446.04H502.631C503.871 446.04 504.811 446.393 505.451 447.1C506.091 447.793 506.411 448.747 506.411 449.96C506.411 451.093 506.117 452 505.531 452.68C504.957 453.36 504.104 453.733 502.971 453.8H502.671L506.451 460H505.111L501.431 453.86H498.831V460ZM502.611 452.84C503.451 452.84 504.084 452.613 504.511 452.16C504.937 451.707 505.151 451.133 505.151 450.44V449.48C505.151 448.787 504.937 448.213 504.511 447.76C504.084 447.307 503.451 447.08 502.611 447.08H498.831V452.84H502.611ZM513.363 460.24C510.029 460.24 508.363 457.833 508.363 453.02C508.363 448.207 510.029 445.8 513.363 445.8C513.936 445.8 514.443 445.88 514.883 446.04C515.323 446.2 515.709 446.413 516.043 446.68C516.376 446.947 516.656 447.26 516.883 447.62C517.123 447.98 517.323 448.36 517.483 448.76L516.463 449.22C516.329 448.887 516.169 448.573 515.983 448.28C515.809 447.987 515.596 447.733 515.343 447.52C515.103 447.307 514.816 447.14 514.483 447.02C514.163 446.9 513.789 446.84 513.363 446.84C512.109 446.84 511.176 447.3 510.563 448.22C509.949 449.127 509.643 450.413 509.643 452.08V453.96C509.643 455.627 509.949 456.92 510.563 457.84C511.176 458.747 512.109 459.2 513.363 459.2C513.789 459.2 514.163 459.14 514.483 459.02C514.816 458.9 515.103 458.733 515.343 458.52C515.596 458.307 515.809 458.06 515.983 457.78C516.169 457.487 516.329 457.167 516.463 456.82L517.483 457.28C517.323 457.68 517.123 458.06 516.883 458.42C516.656 458.78 516.376 459.093 516.043 459.36C515.709 459.627 515.323 459.84 514.883 460C514.443 460.16 513.936 460.24 513.363 460.24ZM527.135 453.44H521.015V460H519.815V446.04H521.015V452.4H527.135V446.04H528.335V460H527.135V453.44ZM543.059 460V446.04H544.259V458.96H551.099V460H543.059ZM561.612 460L560.292 455.74H555.012L553.672 460H552.432L556.872 446.04H558.452L562.872 460H561.612ZM557.712 447.32H557.572L555.292 454.7H559.992L557.712 447.32ZM564.684 446.04H569.304C570.437 446.04 571.324 446.353 571.964 446.98C572.604 447.607 572.924 448.487 572.924 449.62C572.924 450.487 572.737 451.173 572.364 451.68C571.99 452.173 571.484 452.52 570.844 452.72V452.76C571.657 452.933 572.297 453.3 572.764 453.86C573.244 454.407 573.484 455.16 573.484 456.12C573.484 456.68 573.397 457.2 573.224 457.68C573.05 458.147 572.804 458.553 572.484 458.9C572.164 459.247 571.777 459.52 571.324 459.72C570.884 459.907 570.39 460 569.844 460H564.684V446.04ZM569.544 458.96C570.424 458.96 571.09 458.74 571.544 458.3C571.997 457.86 572.224 457.28 572.224 456.56V455.74C572.224 455.02 571.997 454.44 571.544 454C571.09 453.56 570.424 453.34 569.544 453.34H565.884V458.96H569.544ZM569.204 452.34C570.004 452.34 570.61 452.14 571.024 451.74C571.45 451.34 571.664 450.8 571.664 450.12V449.32C571.664 448.64 571.45 448.1 571.024 447.7C570.61 447.287 570.004 447.08 569.204 447.08H565.884V452.34H569.204Z" fill="#FFFAEE"/>
<path d="M377.576 551.424C377.341 551.19 377.341 550.81 377.576 550.576L381.394 546.757C381.628 546.523 382.008 546.523 382.243 546.757C382.477 546.992 382.477 547.372 382.243 547.606L378.849 551L382.243 554.394C382.477 554.628 382.477 555.008 382.243 555.243C382.008 555.477 381.628 555.477 381.394 555.243L377.576 551.424ZM712.5 551L712.5 551.6L378 551.6L378 551L378 550.4L712.5 550.4L712.5 551Z" fill="#FFFAEE"/>
<path d="M674.924 640.586C675.159 640.82 675.159 641.2 674.924 641.434L671.106 645.252C670.872 645.487 670.492 645.487 670.257 645.252C670.023 645.018 670.023 644.638 670.257 644.404L673.651 641.01L670.257 637.616C670.023 637.381 670.023 637.001 670.257 636.767C670.492 636.533 670.872 636.533 671.106 636.767L674.924 640.586ZM340 641.01L340 640.41L674.5 640.41L674.5 641.01L674.5 641.61L340 641.61L340 641.01Z" fill="#FFFAEE"/>
<path d="M613.485 514.975V515.545L607.35 519.085V518.215L612.39 515.305V515.215L607.35 512.305V511.435L613.485 514.975ZM626.218 514.975V515.545L620.083 519.085V518.215L625.123 515.305V515.215L620.083 512.305V511.435L626.218 514.975ZM637.931 520.78H631.451V520H637.931V520.78ZM643.131 509.395H644.031V519.22H649.086V520H643.131V509.395ZM658.052 510.55H657.992L654.662 520H653.747L657.542 509.395H658.562L662.342 520H661.382L658.052 510.55ZM660.467 516.82H655.622V516.04H660.467V516.82ZM666.752 509.395L669.962 514.795H670.037L673.247 509.395H674.222L670.427 515.575V520H669.572V515.575L665.717 509.395H666.752ZM687.578 514.69C687.578 516.44 687.198 517.79 686.438 518.74C685.688 519.68 684.583 520.15 683.123 520.15C681.663 520.15 680.553 519.68 679.793 518.74C679.043 517.79 678.668 516.44 678.668 514.69C678.668 512.94 679.043 511.595 679.793 510.655C680.553 509.715 681.663 509.245 683.123 509.245C684.583 509.245 685.688 509.715 686.438 510.655C687.198 511.595 687.578 512.94 687.578 514.69ZM686.678 514.69C686.678 513.1 686.383 511.93 685.793 511.18C685.213 510.43 684.323 510.055 683.123 510.055C681.923 510.055 681.028 510.43 680.438 511.18C679.858 511.93 679.568 513.1 679.568 514.69C679.568 516.28 679.858 517.455 680.438 518.215C681.028 518.965 681.923 519.34 683.123 519.34C684.323 519.34 685.213 518.965 685.793 518.215C686.383 517.455 686.678 516.28 686.678 514.69ZM701.333 509.395V516.61C701.333 517.31 701.198 517.93 700.928 518.47C700.668 519.01 700.258 519.435 699.698 519.745C699.138 520.045 698.403 520.195 697.493 520.195C696.593 520.195 695.858 520.045 695.288 519.745C694.728 519.435 694.313 519.01 694.043 518.47C693.783 517.93 693.653 517.31 693.653 516.61V509.395H694.553V516.475C694.553 517.065 694.643 517.58 694.823 518.02C695.003 518.46 695.308 518.8 695.738 519.04C696.168 519.27 696.753 519.385 697.493 519.385C698.243 519.385 698.828 519.27 699.248 519.04C699.678 518.8 699.983 518.46 700.163 518.02C700.343 517.58 700.433 517.065 700.433 516.475V509.395H701.333ZM706.586 509.395H714.416V510.175H710.951V520H710.051V510.175H706.586V509.395Z" fill="#FFFAEE"/>
<path d="M345.97 495.14L348.73 500H347.725L345.07 495.305L345.97 495.14ZM344.8 494.855C345.51 494.855 346.06 494.765 346.45 494.585C346.84 494.405 347.115 494.14 347.275 493.79C347.435 493.44 347.515 493.01 347.515 492.5C347.515 491.98 347.435 491.55 347.275 491.21C347.115 490.87 346.84 490.615 346.45 490.445C346.06 490.265 345.51 490.175 344.8 490.175H342.22V494.855H344.8ZM344.875 495.635H342.22V500H341.32V489.395H344.86C345.72 489.395 346.41 489.52 346.93 489.77C347.45 490.01 347.825 490.36 348.055 490.82C348.295 491.28 348.415 491.84 348.415 492.5C348.415 493.02 348.36 493.475 348.25 493.865C348.14 494.255 347.95 494.585 347.68 494.855C347.41 495.115 347.045 495.31 346.585 495.44C346.135 495.57 345.565 495.635 344.875 495.635ZM350.022 489.395H355.992V490.175H350.922V494.3H355.647V495.08H350.922V499.22H356.067V500H350.022V489.395ZM357.786 489.395H363.831V490.175H358.686V494.3H363.336V495.08H358.686V500H357.786V489.395ZM367.432 500H366.532V489.395H367.432V500ZM364.897 490.175V489.395H369.052V490.175H364.897ZM364.897 500V499.22H369.052V500H364.897ZM378.876 500H377.871L371.946 490.895H371.826V500H370.941V489.395H371.961L377.871 498.485H377.991V489.395H378.876V500ZM380.918 489.395H386.888V490.175H381.818V494.3H386.543V495.08H381.818V499.22H386.963V500H380.918V489.395ZM388.682 500V489.395H391.967C393.507 489.395 394.672 489.845 395.462 490.745C396.252 491.645 396.647 492.96 396.647 494.69C396.647 496.41 396.242 497.725 395.432 498.635C394.632 499.545 393.427 500 391.817 500H388.682ZM391.742 499.22C392.752 499.22 393.547 499.04 394.127 498.68C394.707 498.31 395.122 497.785 395.372 497.105C395.622 496.425 395.747 495.62 395.747 494.69C395.747 493.75 395.622 492.945 395.372 492.275C395.132 491.595 394.727 491.075 394.157 490.715C393.597 490.355 392.832 490.175 391.862 490.175H389.582V499.22H391.742ZM403.378 500.78H396.898V500H403.378V500.78ZM404.079 500V489.395H407.364C408.904 489.395 410.069 489.845 410.859 490.745C411.649 491.645 412.044 492.96 412.044 494.69C412.044 496.41 411.639 497.725 410.829 498.635C410.029 499.545 408.824 500 407.214 500H404.079ZM407.139 499.22C408.149 499.22 408.944 499.04 409.524 498.68C410.104 498.31 410.519 497.785 410.769 497.105C411.019 496.425 411.144 495.62 411.144 494.69C411.144 493.75 411.019 492.945 410.769 492.275C410.529 491.595 410.124 491.075 409.554 490.715C408.994 490.355 408.229 490.175 407.259 490.175H404.979V499.22H407.139ZM415.79 500H414.89V489.395H415.79V500ZM413.255 490.175V489.395H417.41V490.175H413.255ZM413.255 500V499.22H417.41V500H413.255ZM426.475 495.5H423.46V494.72H427.375V495.92C427.375 496.67 427.225 497.37 426.925 498.02C426.635 498.66 426.18 499.175 425.56 499.565C424.95 499.955 424.16 500.15 423.19 500.15C421.74 500.15 420.615 499.68 419.815 498.74C419.025 497.79 418.63 496.44 418.63 494.69C418.63 492.94 419.025 491.595 419.815 490.655C420.615 489.715 421.74 489.245 423.19 489.245C423.88 489.245 424.505 489.365 425.065 489.605C425.625 489.835 426.095 490.185 426.475 490.655C426.855 491.125 427.115 491.725 427.255 492.455H426.325C426.165 491.595 425.81 490.98 425.26 490.61C424.72 490.24 424.03 490.055 423.19 490.055C422.01 490.055 421.105 490.425 420.475 491.165C419.845 491.905 419.53 493.08 419.53 494.69C419.53 496.29 419.845 497.465 420.475 498.215C421.105 498.965 422.01 499.34 423.19 499.34C423.8 499.34 424.305 499.255 424.705 499.085C425.105 498.905 425.425 498.67 425.665 498.38C425.905 498.09 426.08 497.775 426.19 497.435C426.31 497.095 426.385 496.755 426.415 496.415C426.455 496.075 426.475 495.77 426.475 495.5ZM431.084 500H430.184V489.395H431.084V500ZM428.549 490.175V489.395H432.704V490.175H428.549ZM428.549 500V499.22H432.704V500H428.549ZM433.504 489.395H441.334V490.175H437.869V500H436.969V490.175H433.504V489.395ZM444.766 490.55H444.706L441.376 500H440.461L444.256 489.395H445.276L449.056 500H448.096L444.766 490.55ZM447.181 496.82H442.336V496.04H447.181V496.82ZM450.151 489.395H451.051V499.22H456.106V500H450.151V489.395ZM462.358 500.78H455.878V500H462.358V500.78ZM466.418 490.55H466.358L463.028 500H462.113L465.908 489.395H466.928L470.708 500H469.748L466.418 490.55ZM468.833 496.82H463.988V496.04H468.833V496.82ZM476.454 495.14L479.214 500H478.209L475.554 495.305L476.454 495.14ZM475.284 494.855C475.994 494.855 476.544 494.765 476.934 494.585C477.324 494.405 477.599 494.14 477.759 493.79C477.919 493.44 477.999 493.01 477.999 492.5C477.999 491.98 477.919 491.55 477.759 491.21C477.599 490.87 477.324 490.615 476.934 490.445C476.544 490.265 475.994 490.175 475.284 490.175H472.704V494.855H475.284ZM475.359 495.635H472.704V500H471.804V489.395H475.344C476.204 489.395 476.894 489.52 477.414 489.77C477.934 490.01 478.309 490.36 478.539 490.82C478.779 491.28 478.899 491.84 478.899 492.5C478.899 493.02 478.844 493.475 478.734 493.865C478.624 494.255 478.434 494.585 478.164 494.855C477.894 495.115 477.529 495.31 477.069 495.44C476.619 495.57 476.049 495.635 475.359 495.635ZM479.167 489.395H486.997V490.175H483.532V500H482.632V490.175H479.167V489.395ZM490.327 500H489.427V489.395H490.327V500ZM487.792 490.175V489.395H491.947V490.175H487.792ZM487.792 500V499.22H491.947V500H487.792ZM493.837 489.395H499.882V490.175H494.737V494.3H499.387V495.08H494.737V500H493.837V489.395ZM503.54 490.55H503.48L500.15 500H499.235L503.03 489.395H504.05L507.83 500H506.87L503.54 490.55ZM505.955 496.82H501.11V496.04H505.955V496.82ZM515.462 492.47C515.332 491.66 515.007 491.055 514.487 490.655C513.977 490.255 513.297 490.055 512.447 490.055C511.327 490.055 510.457 490.435 509.837 491.195C509.227 491.955 508.922 493.115 508.922 494.675C508.922 496.245 509.227 497.415 509.837 498.185C510.457 498.945 511.327 499.325 512.447 499.325C513.297 499.325 513.977 499.125 514.487 498.725C515.007 498.325 515.337 497.725 515.477 496.925H516.422C516.252 497.975 515.832 498.775 515.162 499.325C514.492 499.875 513.587 500.15 512.447 500.15C510.967 500.15 509.857 499.675 509.117 498.725C508.387 497.765 508.022 496.415 508.022 494.675C508.022 492.945 508.387 491.61 509.117 490.67C509.857 489.72 510.967 489.245 512.447 489.245C513.157 489.245 513.787 489.365 514.337 489.605C514.897 489.845 515.352 490.205 515.702 490.685C516.062 491.165 516.297 491.76 516.407 492.47H515.462ZM516.508 489.395H524.338V490.175H520.873V500H519.973V490.175H516.508V489.395ZM530.683 491.69C530.603 491.07 530.328 490.64 529.858 490.4C529.398 490.16 528.788 490.04 528.028 490.04C527.158 490.04 526.513 490.21 526.093 490.55C525.673 490.88 525.463 491.37 525.463 492.02C525.463 492.4 525.533 492.71 525.673 492.95C525.823 493.19 526.013 493.385 526.243 493.535C526.473 493.675 526.718 493.79 526.978 493.88C527.238 493.96 527.478 494.03 527.698 494.09L528.853 494.405C529.143 494.485 529.458 494.585 529.798 494.705C530.138 494.825 530.458 494.99 530.758 495.2C531.068 495.41 531.318 495.68 531.508 496.01C531.698 496.34 531.793 496.75 531.793 497.24C531.793 497.8 531.658 498.305 531.388 498.755C531.118 499.205 530.703 499.56 530.143 499.82C529.583 500.07 528.868 500.195 527.998 500.195C526.838 500.195 525.948 499.96 525.328 499.49C524.708 499.02 524.358 498.385 524.278 497.585H525.208C525.268 498.065 525.423 498.435 525.673 498.695C525.923 498.955 526.243 499.14 526.633 499.25C527.033 499.35 527.488 499.4 527.998 499.4C528.918 499.4 529.628 499.225 530.128 498.875C530.638 498.515 530.893 497.96 530.893 497.21C530.893 496.76 530.783 496.405 530.563 496.145C530.353 495.885 530.068 495.68 529.708 495.53C529.358 495.38 528.978 495.25 528.568 495.14L527.128 494.75C526.308 494.52 525.673 494.2 525.223 493.79C524.783 493.38 524.563 492.815 524.563 492.095C524.563 491.505 524.703 491 524.983 490.58C525.273 490.15 525.678 489.82 526.198 489.59C526.728 489.36 527.353 489.245 528.073 489.245C528.773 489.245 529.373 489.35 529.873 489.56C530.383 489.76 530.783 490.045 531.073 490.415C531.373 490.775 531.543 491.2 531.583 491.69H530.683ZM344.365 511.595L348.67 518H347.59L343.72 512.225L344.365 511.595ZM342.22 518H341.32V507.395H342.22V518ZM341.995 515.075V513.83L347.29 507.395H348.385L341.995 515.075ZM352.607 518H351.707V507.395H352.607V518ZM350.072 508.175V507.395H354.227V508.175H350.072ZM350.072 518V517.22H354.227V518H350.072ZM364.051 518H363.046L357.121 508.895H357.001V518H356.116V507.395H357.136L363.046 516.485H363.166V507.395H364.051V518ZM366.092 507.395H372.062V508.175H366.992V512.3H371.717V513.08H366.992V517.22H372.137V518H366.092V507.395ZM372.752 507.395H380.582V508.175H377.117V518H376.217V508.175H372.752V507.395ZM383.913 518H383.013V507.395H383.913V518ZM381.378 508.175V507.395H385.533V508.175H381.378ZM381.378 518V517.22H385.533V518H381.378ZM394.192 510.47C394.062 509.66 393.737 509.055 393.217 508.655C392.707 508.255 392.027 508.055 391.177 508.055C390.057 508.055 389.187 508.435 388.567 509.195C387.957 509.955 387.652 511.115 387.652 512.675C387.652 514.245 387.957 515.415 388.567 516.185C389.187 516.945 390.057 517.325 391.177 517.325C392.027 517.325 392.707 517.125 393.217 516.725C393.737 516.325 394.067 515.725 394.207 514.925H395.152C394.982 515.975 394.562 516.775 393.892 517.325C393.222 517.875 392.317 518.15 391.177 518.15C389.697 518.15 388.587 517.675 387.847 516.725C387.117 515.765 386.752 514.415 386.752 512.675C386.752 510.945 387.117 509.61 387.847 508.67C388.587 507.72 389.697 507.245 391.177 507.245C391.887 507.245 392.517 507.365 393.067 507.605C393.627 507.845 394.082 508.205 394.432 508.685C394.792 509.165 395.027 509.76 395.137 510.47H394.192ZM401.855 518.78H395.375V518H401.855V518.78ZM404.715 518H403.815V507.395H404.715V518ZM402.18 508.175V507.395H406.335V508.175H402.18ZM402.18 518V517.22H406.335V518H402.18ZM408.225 518V507.395H411.51C413.05 507.395 414.215 507.845 415.005 508.745C415.795 509.645 416.19 510.96 416.19 512.69C416.19 514.41 415.785 515.725 414.975 516.635C414.175 517.545 412.97 518 411.36 518H408.225ZM411.285 517.22C412.295 517.22 413.09 517.04 413.67 516.68C414.25 516.31 414.665 515.785 414.915 515.105C415.165 514.425 415.29 513.62 415.29 512.69C415.29 511.75 415.165 510.945 414.915 510.275C414.675 509.595 414.27 509.075 413.7 508.715C413.14 508.355 412.375 508.175 411.405 508.175H409.125V517.22H411.285ZM417.776 507.395H423.746V508.175H418.676V512.3H423.401V513.08H418.676V517.22H423.821V518H417.776V507.395ZM433.475 518H432.47L426.545 508.895H426.425V518H425.54V507.395H426.56L432.47 516.485H432.59V507.395H433.475V518ZM434.251 507.395H442.081V508.175H438.616V518H437.716V508.175H434.251V507.395ZM445.411 518H444.511V507.395H445.411V518ZM442.876 508.175V507.395H447.031V508.175H442.876ZM442.876 518V517.22H447.031V518H442.876ZM447.831 507.395H455.661V508.175H452.196V518H451.296V508.175H447.831V507.395ZM458.992 518H458.092V507.395H458.992V518ZM456.457 508.175V507.395H460.612V508.175H456.457ZM456.457 518V517.22H460.612V518H456.457ZM462.501 507.395H468.471V508.175H463.401V512.3H468.126V513.08H463.401V517.22H468.546V518H462.501V507.395ZM475.879 509.69C475.799 509.07 475.524 508.64 475.054 508.4C474.594 508.16 473.984 508.04 473.224 508.04C472.354 508.04 471.709 508.21 471.289 508.55C470.869 508.88 470.659 509.37 470.659 510.02C470.659 510.4 470.729 510.71 470.869 510.95C471.019 511.19 471.209 511.385 471.439 511.535C471.669 511.675 471.914 511.79 472.174 511.88C472.434 511.96 472.674 512.03 472.894 512.09L474.049 512.405C474.339 512.485 474.654 512.585 474.994 512.705C475.334 512.825 475.654 512.99 475.954 513.2C476.264 513.41 476.514 513.68 476.704 514.01C476.894 514.34 476.989 514.75 476.989 515.24C476.989 515.8 476.854 516.305 476.584 516.755C476.314 517.205 475.899 517.56 475.339 517.82C474.779 518.07 474.064 518.195 473.194 518.195C472.034 518.195 471.144 517.96 470.524 517.49C469.904 517.02 469.554 516.385 469.474 515.585H470.404C470.464 516.065 470.619 516.435 470.869 516.695C471.119 516.955 471.439 517.14 471.829 517.25C472.229 517.35 472.684 517.4 473.194 517.4C474.114 517.4 474.824 517.225 475.324 516.875C475.834 516.515 476.089 515.96 476.089 515.21C476.089 514.76 475.979 514.405 475.759 514.145C475.549 513.885 475.264 513.68 474.904 513.53C474.554 513.38 474.174 513.25 473.764 513.14L472.324 512.75C471.504 512.52 470.869 512.2 470.419 511.79C469.979 511.38 469.759 510.815 469.759 510.095C469.759 509.505 469.899 509 470.179 508.58C470.469 508.15 470.874 507.82 471.394 507.59C471.924 507.36 472.549 507.245 473.269 507.245C473.969 507.245 474.569 507.35 475.069 507.56C475.579 507.76 475.979 508.045 476.269 508.415C476.569 508.775 476.739 509.2 476.779 509.69H475.879ZM344.44 554.15C343.57 554.15 342.86 553.955 342.31 553.565C341.77 553.165 341.375 552.565 341.125 551.765C340.875 550.955 340.75 549.93 340.75 548.69C340.75 547.45 340.875 546.43 341.125 545.63C341.385 544.83 341.785 544.235 342.325 543.845C342.875 543.445 343.58 543.245 344.44 543.245C345.31 543.245 346.015 543.445 346.555 543.845C347.105 544.235 347.505 544.83 347.755 545.63C348.015 546.43 348.145 547.45 348.145 548.69C348.145 549.92 348.015 550.94 347.755 551.75C347.505 552.56 347.105 553.165 346.555 553.565C346.015 553.955 345.31 554.15 344.44 554.15ZM344.44 553.37C345.46 553.37 346.185 552.985 346.615 552.215C347.045 551.445 347.26 550.27 347.26 548.69C347.26 547.11 347.045 545.94 346.615 545.18C346.185 544.41 345.46 544.025 344.44 544.025C343.43 544.025 342.71 544.41 342.28 545.18C341.85 545.94 341.635 547.11 341.635 548.69C341.635 550.27 341.845 551.445 342.265 552.215C342.695 552.985 343.42 553.37 344.44 553.37ZM349.147 553.265L352.777 549.38C353.237 548.89 353.612 548.46 353.902 548.09C354.192 547.71 354.407 547.36 354.547 547.04C354.697 546.71 354.772 546.375 354.772 546.035C354.772 545.385 354.562 544.89 354.142 544.55C353.722 544.2 353.162 544.025 352.462 544.025C351.762 544.025 351.187 544.235 350.737 544.655C350.287 545.065 350.072 545.63 350.092 546.35H349.222C349.212 545.7 349.347 545.145 349.627 544.685C349.907 544.225 350.297 543.87 350.797 543.62C351.297 543.37 351.867 543.245 352.507 543.245C353.177 543.245 353.742 543.36 354.202 543.59C354.672 543.81 355.032 544.13 355.282 544.55C355.532 544.96 355.657 545.455 355.657 546.035C355.657 546.415 355.592 546.785 355.462 547.145C355.332 547.495 355.092 547.9 354.742 548.36C354.402 548.81 353.907 549.38 353.257 550.07L349.837 553.73L349.897 553.22H355.792V554H349.147V553.265Z" fill="#FFFAEE"/>
<path d="M545.651 672.14L548.411 677H547.406L544.751 672.305L545.651 672.14ZM544.481 671.855C545.191 671.855 545.741 671.765 546.131 671.585C546.521 671.405 546.796 671.14 546.956 670.79C547.116 670.44 547.196 670.01 547.196 669.5C547.196 668.98 547.116 668.55 546.956 668.21C546.796 667.87 546.521 667.615 546.131 667.445C545.741 667.265 545.191 667.175 544.481 667.175H541.901V671.855H544.481ZM544.556 672.635H541.901V677H541.001V666.395H544.541C545.401 666.395 546.091 666.52 546.611 666.77C547.131 667.01 547.506 667.36 547.736 667.82C547.976 668.28 548.096 668.84 548.096 669.5C548.096 670.02 548.041 670.475 547.931 670.865C547.821 671.255 547.631 671.585 547.361 671.855C547.091 672.115 546.726 672.31 546.266 672.44C545.816 672.57 545.246 672.635 544.556 672.635ZM549.703 666.395H555.673V667.175H550.603V671.3H555.328V672.08H550.603V676.22H555.748V677H549.703V666.395ZM557.467 666.395H563.512V667.175H558.367V671.3H563.017V672.08H558.367V677H557.467V666.395ZM567.113 677H566.213V666.395H567.113V677ZM564.578 667.175V666.395H568.733V667.175H564.578ZM564.578 677V676.22H568.733V677H564.578ZM578.558 677H577.553L571.628 667.895H571.508V677H570.623V666.395H571.643L577.553 675.485H577.673V666.395H578.558V677ZM580.599 666.395H586.569V667.175H581.499V671.3H586.224V672.08H581.499V676.22H586.644V677H580.599V666.395ZM588.363 677V666.395H591.648C593.188 666.395 594.353 666.845 595.143 667.745C595.933 668.645 596.328 669.96 596.328 671.69C596.328 673.41 595.923 674.725 595.113 675.635C594.313 676.545 593.108 677 591.498 677H588.363ZM591.423 676.22C592.433 676.22 593.228 676.04 593.808 675.68C594.388 675.31 594.803 674.785 595.053 674.105C595.303 673.425 595.428 672.62 595.428 671.69C595.428 670.75 595.303 669.945 595.053 669.275C594.813 668.595 594.408 668.075 593.838 667.715C593.278 667.355 592.513 667.175 591.543 667.175H589.263V676.22H591.423ZM603.06 677.78H596.58V677H603.06V677.78ZM603.76 677V666.395H607.045C608.585 666.395 609.75 666.845 610.54 667.745C611.33 668.645 611.725 669.96 611.725 671.69C611.725 673.41 611.32 674.725 610.51 675.635C609.71 676.545 608.505 677 606.895 677H603.76ZM606.82 676.22C607.83 676.22 608.625 676.04 609.205 675.68C609.785 675.31 610.2 674.785 610.45 674.105C610.7 673.425 610.825 672.62 610.825 671.69C610.825 670.75 610.7 669.945 610.45 669.275C610.21 668.595 609.805 668.075 609.235 667.715C608.675 667.355 607.91 667.175 606.94 667.175H604.66V676.22H606.82ZM615.471 677H614.571V666.395H615.471V677ZM612.936 667.175V666.395H617.091V667.175H612.936ZM612.936 677V676.22H617.091V677H612.936ZM626.156 672.5H623.141V671.72H627.056V672.92C627.056 673.67 626.906 674.37 626.606 675.02C626.316 675.66 625.861 676.175 625.241 676.565C624.631 676.955 623.841 677.15 622.871 677.15C621.421 677.15 620.296 676.68 619.496 675.74C618.706 674.79 618.311 673.44 618.311 671.69C618.311 669.94 618.706 668.595 619.496 667.655C620.296 666.715 621.421 666.245 622.871 666.245C623.561 666.245 624.186 666.365 624.746 666.605C625.306 666.835 625.776 667.185 626.156 667.655C626.536 668.125 626.796 668.725 626.936 669.455H626.006C625.846 668.595 625.491 667.98 624.941 667.61C624.401 667.24 623.711 667.055 622.871 667.055C621.691 667.055 620.786 667.425 620.156 668.165C619.526 668.905 619.211 670.08 619.211 671.69C619.211 673.29 619.526 674.465 620.156 675.215C620.786 675.965 621.691 676.34 622.871 676.34C623.481 676.34 623.986 676.255 624.386 676.085C624.786 675.905 625.106 675.67 625.346 675.38C625.586 675.09 625.761 674.775 625.871 674.435C625.991 674.095 626.066 673.755 626.096 673.415C626.136 673.075 626.156 672.77 626.156 672.5ZM630.765 677H629.865V666.395H630.765V677ZM628.23 667.175V666.395H632.385V667.175H628.23ZM628.23 677V676.22H632.385V677H628.23ZM633.185 666.395H641.015V667.175H637.55V677H636.65V667.175H633.185V666.395ZM644.447 667.55H644.387L641.057 677H640.142L643.937 666.395H644.957L648.737 677H647.777L644.447 667.55ZM646.862 673.82H642.017V673.04H646.862V673.82ZM649.833 666.395H650.733V676.22H655.788V677H649.833V666.395ZM662.039 677.78H655.559V677H662.039V677.78ZM666.099 667.55H666.039L662.709 677H661.794L665.589 666.395H666.609L670.389 677H669.429L666.099 667.55ZM668.514 673.82H663.669V673.04H668.514V673.82ZM676.135 672.14L678.895 677H677.89L675.235 672.305L676.135 672.14ZM674.965 671.855C675.675 671.855 676.225 671.765 676.615 671.585C677.005 671.405 677.28 671.14 677.44 670.79C677.6 670.44 677.68 670.01 677.68 669.5C677.68 668.98 677.6 668.55 677.44 668.21C677.28 667.87 677.005 667.615 676.615 667.445C676.225 667.265 675.675 667.175 674.965 667.175H672.385V671.855H674.965ZM675.04 672.635H672.385V677H671.485V666.395H675.025C675.885 666.395 676.575 666.52 677.095 666.77C677.615 667.01 677.99 667.36 678.22 667.82C678.46 668.28 678.58 668.84 678.58 669.5C678.58 670.02 678.525 670.475 678.415 670.865C678.305 671.255 678.115 671.585 677.845 671.855C677.575 672.115 677.21 672.31 676.75 672.44C676.3 672.57 675.73 672.635 675.04 672.635ZM678.848 666.395H686.678V667.175H683.213V677H682.313V667.175H678.848V666.395ZM690.008 677H689.108V666.395H690.008V677ZM687.473 667.175V666.395H691.628V667.175H687.473ZM687.473 677V676.22H691.628V677H687.473ZM693.518 666.395H699.563V667.175H694.418V671.3H699.068V672.08H694.418V677H693.518V666.395ZM703.221 667.55H703.161L699.831 677H698.916L702.711 666.395H703.731L707.511 677H706.551L703.221 667.55ZM705.636 673.82H700.791V673.04H705.636V673.82ZM715.143 669.47C715.013 668.66 714.688 668.055 714.168 667.655C713.658 667.255 712.978 667.055 712.128 667.055C711.008 667.055 710.138 667.435 709.518 668.195C708.908 668.955 708.603 670.115 708.603 671.675C708.603 673.245 708.908 674.415 709.518 675.185C710.138 675.945 711.008 676.325 712.128 676.325C712.978 676.325 713.658 676.125 714.168 675.725C714.688 675.325 715.018 674.725 715.158 673.925H716.103C715.933 674.975 715.513 675.775 714.843 676.325C714.173 676.875 713.268 677.15 712.128 677.15C710.648 677.15 709.538 676.675 708.798 675.725C708.068 674.765 707.703 673.415 707.703 671.675C707.703 669.945 708.068 668.61 708.798 667.67C709.538 666.72 710.648 666.245 712.128 666.245C712.838 666.245 713.468 666.365 714.018 666.605C714.578 666.845 715.033 667.205 715.383 667.685C715.743 668.165 715.978 668.76 716.088 669.47H715.143ZM716.19 666.395H724.02V667.175H720.555V677H719.655V667.175H716.19V666.395ZM730.364 668.69C730.284 668.07 730.009 667.64 729.539 667.4C729.079 667.16 728.469 667.04 727.709 667.04C726.839 667.04 726.194 667.21 725.774 667.55C725.354 667.88 725.144 668.37 725.144 669.02C725.144 669.4 725.214 669.71 725.354 669.95C725.504 670.19 725.694 670.385 725.924 670.535C726.154 670.675 726.399 670.79 726.659 670.88C726.919 670.96 727.159 671.03 727.379 671.09L728.534 671.405C728.824 671.485 729.139 671.585 729.479 671.705C729.819 671.825 730.139 671.99 730.439 672.2C730.749 672.41 730.999 672.68 731.189 673.01C731.379 673.34 731.474 673.75 731.474 674.24C731.474 674.8 731.339 675.305 731.069 675.755C730.799 676.205 730.384 676.56 729.824 676.82C729.264 677.07 728.549 677.195 727.679 677.195C726.519 677.195 725.629 676.96 725.009 676.49C724.389 676.02 724.039 675.385 723.959 674.585H724.889C724.949 675.065 725.104 675.435 725.354 675.695C725.604 675.955 725.924 676.14 726.314 676.25C726.714 676.35 727.169 676.4 727.679 676.4C728.599 676.4 729.309 676.225 729.809 675.875C730.319 675.515 730.574 674.96 730.574 674.21C730.574 673.76 730.464 673.405 730.244 673.145C730.034 672.885 729.749 672.68 729.389 672.53C729.039 672.38 728.659 672.25 728.249 672.14L726.809 671.75C725.989 671.52 725.354 671.2 724.904 670.79C724.464 670.38 724.244 669.815 724.244 669.095C724.244 668.505 724.384 668 724.664 667.58C724.954 667.15 725.359 666.82 725.879 666.59C726.409 666.36 727.034 666.245 727.754 666.245C728.454 666.245 729.054 666.35 729.554 666.56C730.064 666.76 730.464 667.045 730.754 667.415C731.054 667.775 731.224 668.2 731.264 668.69H730.364ZM595.759 688.595L600.064 695H598.984L595.114 689.225L595.759 688.595ZM593.614 695H592.714V684.395H593.614V695ZM593.389 692.075V690.83L598.684 684.395H599.779L593.389 692.075ZM604 695H603.1V684.395H604V695ZM601.465 685.175V684.395H605.62V685.175H601.465ZM601.465 695V694.22H605.62V695H601.465ZM615.445 695H614.44L608.515 685.895H608.395V695H607.51V684.395H608.53L614.44 693.485H614.56V684.395H615.445V695ZM617.486 684.395H623.456V685.175H618.386V689.3H623.111V690.08H618.386V694.22H623.531V695H617.486V684.395ZM624.146 684.395H631.976V685.175H628.511V695H627.611V685.175H624.146V684.395ZM635.306 695H634.406V684.395H635.306V695ZM632.771 685.175V684.395H636.926V685.175H632.771ZM632.771 695V694.22H636.926V695H632.771ZM645.586 687.47C645.456 686.66 645.131 686.055 644.611 685.655C644.101 685.255 643.421 685.055 642.571 685.055C641.451 685.055 640.581 685.435 639.961 686.195C639.351 686.955 639.046 688.115 639.046 689.675C639.046 691.245 639.351 692.415 639.961 693.185C640.581 693.945 641.451 694.325 642.571 694.325C643.421 694.325 644.101 694.125 644.611 693.725C645.131 693.325 645.461 692.725 645.601 691.925H646.546C646.376 692.975 645.956 693.775 645.286 694.325C644.616 694.875 643.711 695.15 642.571 695.15C641.091 695.15 639.981 694.675 639.241 693.725C638.511 692.765 638.146 691.415 638.146 689.675C638.146 687.945 638.511 686.61 639.241 685.67C639.981 684.72 641.091 684.245 642.571 684.245C643.281 684.245 643.911 684.365 644.461 684.605C645.021 684.845 645.476 685.205 645.826 685.685C646.186 686.165 646.421 686.76 646.531 687.47H645.586ZM653.249 695.78H646.769V695H653.249V695.78ZM656.109 695H655.209V684.395H656.109V695ZM653.574 685.175V684.395H657.729V685.175H653.574ZM653.574 695V694.22H657.729V695H653.574ZM659.618 695V684.395H662.903C664.443 684.395 665.608 684.845 666.398 685.745C667.188 686.645 667.583 687.96 667.583 689.69C667.583 691.41 667.178 692.725 666.368 693.635C665.568 694.545 664.363 695 662.753 695H659.618ZM662.678 694.22C663.688 694.22 664.483 694.04 665.063 693.68C665.643 693.31 666.058 692.785 666.308 692.105C666.558 691.425 666.683 690.62 666.683 689.69C666.683 688.75 666.558 687.945 666.308 687.275C666.068 686.595 665.663 686.075 665.093 685.715C664.533 685.355 663.768 685.175 662.798 685.175H660.518V694.22H662.678ZM669.17 684.395H675.14V685.175H670.07V689.3H674.795V690.08H670.07V694.22H675.215V695H669.17V684.395ZM684.869 695H683.864L677.939 685.895H677.819V695H676.934V684.395H677.954L683.864 693.485H683.984V684.395H684.869V695ZM685.645 684.395H693.475V685.175H690.01V695H689.11V685.175H685.645V684.395ZM696.805 695H695.905V684.395H696.805V695ZM694.27 685.175V684.395H698.425V685.175H694.27ZM694.27 695V694.22H698.425V695H694.27ZM699.225 684.395H707.055V685.175H703.59V695H702.69V685.175H699.225V684.395ZM710.385 695H709.485V684.395H710.385V695ZM707.85 685.175V684.395H712.005V685.175H707.85ZM707.85 695V694.22H712.005V695H707.85ZM713.895 684.395H719.865V685.175H714.795V689.3H719.52V690.08H714.795V694.22H719.94V695H713.895V684.395ZM727.273 686.69C727.193 686.07 726.918 685.64 726.448 685.4C725.988 685.16 725.378 685.04 724.618 685.04C723.748 685.04 723.103 685.21 722.683 685.55C722.263 685.88 722.053 686.37 722.053 687.02C722.053 687.4 722.123 687.71 722.263 687.95C722.413 688.19 722.603 688.385 722.833 688.535C723.063 688.675 723.308 688.79 723.568 688.88C723.828 688.96 724.068 689.03 724.288 689.09L725.443 689.405C725.733 689.485 726.048 689.585 726.388 689.705C726.728 689.825 727.048 689.99 727.348 690.2C727.658 690.41 727.908 690.68 728.098 691.01C728.288 691.34 728.383 691.75 728.383 692.24C728.383 692.8 728.248 693.305 727.978 693.755C727.708 694.205 727.293 694.56 726.733 694.82C726.173 695.07 725.458 695.195 724.588 695.195C723.428 695.195 722.538 694.96 721.918 694.49C721.298 694.02 720.948 693.385 720.868 692.585H721.798C721.858 693.065 722.013 693.435 722.263 693.695C722.513 693.955 722.833 694.14 723.223 694.25C723.623 694.35 724.078 694.4 724.588 694.4C725.508 694.4 726.218 694.225 726.718 693.875C727.228 693.515 727.483 692.96 727.483 692.21C727.483 691.76 727.373 691.405 727.153 691.145C726.943 690.885 726.658 690.68 726.298 690.53C725.948 690.38 725.568 690.25 725.158 690.14L723.718 689.75C722.898 689.52 722.263 689.2 721.813 688.79C721.373 688.38 721.153 687.815 721.153 687.095C721.153 686.505 721.293 686 721.573 685.58C721.863 685.15 722.268 684.82 722.788 684.59C723.318 684.36 723.943 684.245 724.663 684.245C725.363 684.245 725.963 684.35 726.463 684.56C726.973 684.76 727.373 685.045 727.663 685.415C727.963 685.775 728.133 686.2 728.173 686.69H727.273ZM720.824 731.15C719.954 731.15 719.244 730.955 718.694 730.565C718.154 730.165 717.759 729.565 717.509 728.765C717.259 727.955 717.134 726.93 717.134 725.69C717.134 724.45 717.259 723.43 717.509 722.63C717.769 721.83 718.169 721.235 718.709 720.845C719.259 720.445 719.964 720.245 720.824 720.245C721.694 720.245 722.399 720.445 722.939 720.845C723.489 721.235 723.889 721.83 724.139 722.63C724.399 723.43 724.529 724.45 724.529 725.69C724.529 726.92 724.399 727.94 724.139 728.75C723.889 729.56 723.489 730.165 722.939 730.565C722.399 730.955 721.694 731.15 720.824 731.15ZM720.824 730.37C721.844 730.37 722.569 729.985 722.999 729.215C723.429 728.445 723.644 727.27 723.644 725.69C723.644 724.11 723.429 722.94 722.999 722.18C722.569 721.41 721.844 721.025 720.824 721.025C719.814 721.025 719.094 721.41 718.664 722.18C718.234 722.94 718.019 724.11 718.019 725.69C718.019 727.27 718.229 728.445 718.649 729.215C719.079 729.985 719.804 730.37 720.824 730.37ZM729.176 731H728.276V720.995L728.591 721.07L725.576 723.11V722.165L728.171 720.395H729.176V731Z" fill="#FFFAEE"/>
<path d="M343.95 585.31V595H343.05V585.31H339.465V584.53H347.535V585.31H343.95ZM353.739 590.08H349.149V595H348.249V584.53H349.149V589.3H353.739V584.53H354.639V595H353.739V590.08ZM356.343 595V584.53H362.658V585.31H357.243V589.3H362.463V590.08H357.243V594.22H362.658V595H356.343ZM388.165 584.53H391.015C392.285 584.53 393.22 584.975 393.82 585.865C394.43 586.745 394.735 588.045 394.735 589.765C394.735 591.495 394.43 592.8 393.82 593.68C393.22 594.56 392.285 595 391.015 595H388.165V584.53ZM390.985 594.22C391.935 594.22 392.635 593.89 393.085 593.23C393.545 592.56 393.775 591.63 393.775 590.44V589.09C393.775 587.9 393.545 586.975 393.085 586.315C392.635 585.645 391.935 585.31 390.985 585.31H389.065V594.22H390.985ZM396.064 595V584.53H402.379V585.31H396.964V589.3H402.184V590.08H396.964V594.22H402.379V595H396.064ZM407.053 595.18C406.583 595.18 406.163 595.135 405.793 595.045C405.423 594.955 405.088 594.835 404.788 594.685C404.488 594.525 404.218 594.335 403.978 594.115C403.748 593.895 403.538 593.655 403.348 593.395L404.008 592.855C404.398 593.355 404.828 593.74 405.298 594.01C405.768 594.27 406.363 594.4 407.083 594.4C407.923 594.4 408.568 594.215 409.018 593.845C409.468 593.465 409.693 592.92 409.693 592.21C409.693 591.56 409.503 591.08 409.123 590.77C408.753 590.46 408.223 590.25 407.533 590.14L406.363 589.945C405.843 589.855 405.408 589.72 405.058 589.54C404.718 589.36 404.443 589.15 404.233 588.91C404.023 588.66 403.873 588.385 403.783 588.085C403.703 587.785 403.663 587.475 403.663 587.155C403.663 586.215 403.968 585.515 404.578 585.055C405.198 584.585 406.028 584.35 407.068 584.35C407.918 584.35 408.613 584.49 409.153 584.77C409.703 585.04 410.143 585.415 410.473 585.895L409.843 586.45C409.543 586.03 409.173 585.705 408.733 585.475C408.303 585.245 407.738 585.13 407.038 585.13C406.258 585.13 405.648 585.3 405.208 585.64C404.778 585.97 404.563 586.465 404.563 587.125C404.563 587.735 404.743 588.2 405.103 588.52C405.463 588.83 405.998 589.04 406.708 589.15L407.863 589.345C408.393 589.435 408.833 589.575 409.183 589.765C409.533 589.945 409.813 590.16 410.023 590.41C410.233 590.66 410.378 590.935 410.458 591.235C410.548 591.535 410.593 591.85 410.593 592.18C410.593 593.14 410.283 593.88 409.663 594.4C409.043 594.92 408.173 595.18 407.053 595.18ZM411.802 595V594.28H414.547V585.25H411.802V584.53H418.192V585.25H415.447V594.28H418.192V595H411.802ZM425.371 593.545H425.311C425.221 593.765 425.111 593.975 424.981 594.175C424.851 594.365 424.691 594.535 424.501 594.685C424.311 594.835 424.076 594.955 423.796 595.045C423.526 595.135 423.206 595.18 422.836 595.18C421.696 595.18 420.836 594.735 420.256 593.845C419.676 592.955 419.386 591.61 419.386 589.81C419.386 587.96 419.691 586.59 420.301 585.7C420.921 584.8 421.841 584.35 423.061 584.35C423.491 584.35 423.876 584.41 424.216 584.53C424.556 584.65 424.851 584.81 425.101 585.01C425.351 585.21 425.561 585.445 425.731 585.715C425.911 585.985 426.056 586.27 426.166 586.57L425.386 586.915C425.196 586.405 424.921 585.98 424.561 585.64C424.211 585.3 423.721 585.13 423.091 585.13C422.161 585.13 421.471 585.475 421.021 586.165C420.571 586.845 420.346 587.81 420.346 589.06V590.425C420.346 591.665 420.556 592.64 420.976 593.35C421.406 594.06 422.086 594.415 423.016 594.415C423.386 594.415 423.716 594.355 424.006 594.235C424.296 594.115 424.541 593.945 424.741 593.725C424.941 593.505 425.096 593.25 425.206 592.96C425.316 592.66 425.371 592.33 425.371 591.97V590.725H422.986V590.005H426.211V595H425.371V593.545ZM428.591 585.715H428.516V595H427.691V584.53H428.966L433.181 593.815H433.256V584.53H434.081V595H432.806L428.591 585.715ZM483.495 584.53H486.345C487.615 584.53 488.55 584.975 489.15 585.865C489.76 586.745 490.065 588.045 490.065 589.765C490.065 591.495 489.76 592.8 489.15 593.68C488.55 594.56 487.615 595 486.345 595H483.495V584.53ZM486.315 594.22C487.265 594.22 487.965 593.89 488.415 593.23C488.875 592.56 489.105 591.63 489.105 590.44V589.09C489.105 587.9 488.875 586.975 488.415 586.315C487.965 585.645 487.265 585.31 486.315 585.31H484.395V594.22H486.315ZM491.394 595V584.53H497.709V585.31H492.294V589.3H497.514V590.08H492.294V594.22H497.709V595H491.394ZM499.338 595V584.53H503.088C504.018 584.53 504.723 584.795 505.203 585.325C505.683 585.845 505.923 586.56 505.923 587.47C505.923 588.38 505.683 589.1 505.203 589.63C504.723 590.15 504.018 590.41 503.088 590.41H500.238V595H499.338ZM500.238 589.63H503.073C503.703 589.63 504.178 589.46 504.498 589.12C504.818 588.78 504.978 588.35 504.978 587.83V587.11C504.978 586.59 504.818 586.16 504.498 585.82C504.178 585.48 503.703 585.31 503.073 585.31H500.238V589.63ZM513.297 595L512.307 591.805H508.347L507.342 595H506.412L509.742 584.53H510.927L514.242 595H513.297ZM510.372 585.49H510.267L508.557 591.025H512.082L510.372 585.49ZM516.126 595H515.226V584.53H518.976C519.906 584.53 520.611 584.795 521.091 585.325C521.571 585.845 521.811 586.56 521.811 587.47C521.811 588.32 521.591 589 521.151 589.51C520.721 590.02 520.081 590.3 519.231 590.35H519.006L521.841 595H520.836L518.076 590.395H516.126V595ZM518.961 589.63C519.591 589.63 520.066 589.46 520.386 589.12C520.706 588.78 520.866 588.35 520.866 587.83V587.11C520.866 586.59 520.706 586.16 520.386 585.82C520.066 585.48 519.591 585.31 518.961 585.31H516.126V589.63H518.961ZM526.665 585.31V595H525.765V585.31H522.18V584.53H530.25V585.31H526.665ZM536.709 585.88H536.619L534.159 591.625L531.699 585.88H531.609V595H530.784V584.53H531.954L534.144 589.705H534.219L536.394 584.53H537.534V595H536.709V585.88ZM539.059 595V584.53H545.374V585.31H539.959V589.3H545.179V590.08H539.959V594.22H545.374V595H539.059ZM547.753 585.715H547.678V595H546.853V584.53H548.128L552.343 593.815H552.418V584.53H553.243V595H551.968L547.753 585.715ZM558.442 585.31V595H557.542V585.31H553.957V584.53H562.027V585.31H558.442ZM340.95 615V604.53H341.85V614.22H346.98V615H340.95ZM354.414 615L353.424 611.805H349.464L348.459 615H347.529L350.859 604.53H352.044L355.359 615H354.414ZM351.489 605.49H351.384L349.674 611.025H353.199L351.489 605.49ZM358.938 615V610.77L355.203 604.53H356.238L359.358 609.87H359.418L362.568 604.53H363.573L359.838 610.77V615H358.938ZM367.332 615.18C366.122 615.18 365.222 614.73 364.632 613.83C364.052 612.92 363.762 611.565 363.762 609.765C363.762 607.965 364.052 606.615 364.632 605.715C365.222 604.805 366.122 604.35 367.332 604.35C368.542 604.35 369.437 604.805 370.017 605.715C370.607 606.615 370.902 607.965 370.902 609.765C370.902 611.565 370.607 612.92 370.017 613.83C369.437 614.73 368.542 615.18 367.332 615.18ZM367.332 614.4C368.232 614.4 368.892 614.06 369.312 613.38C369.732 612.69 369.942 611.72 369.942 610.47V609.06C369.942 607.82 369.732 606.855 369.312 606.165C368.892 605.475 368.232 605.13 367.332 605.13C366.432 605.13 365.772 605.475 365.352 606.165C364.932 606.855 364.722 607.82 364.722 609.06V610.47C364.722 611.72 364.932 612.69 365.352 613.38C365.772 614.06 366.432 614.4 367.332 614.4ZM372.982 604.53V610.845C372.982 611.455 373.007 611.985 373.057 612.435C373.107 612.875 373.212 613.245 373.372 613.545C373.532 613.835 373.762 614.05 374.062 614.19C374.362 614.33 374.767 614.4 375.277 614.4C375.787 614.4 376.192 614.33 376.492 614.19C376.792 614.05 377.022 613.835 377.182 613.545C377.342 613.245 377.447 612.875 377.497 612.435C377.547 611.985 377.572 611.455 377.572 610.845V604.53H378.472V610.665C378.472 611.465 378.427 612.15 378.337 612.72C378.257 613.28 378.097 613.745 377.857 614.115C377.627 614.485 377.302 614.755 376.882 614.925C376.472 615.095 375.937 615.18 375.277 615.18C374.617 615.18 374.077 615.095 373.657 614.925C373.247 614.755 372.922 614.485 372.682 614.115C372.452 613.745 372.292 613.28 372.202 612.72C372.122 612.15 372.082 611.465 372.082 610.665V604.53H372.982ZM383.671 605.31V615H382.771V605.31H379.186V604.53H387.256V605.31H383.671ZM390.67 613.305H392.11L390.595 617.295H389.875L390.67 613.305ZM407.413 615.18C404.913 615.18 403.663 613.375 403.663 609.765C403.663 606.155 404.913 604.35 407.413 604.35C407.843 604.35 408.223 604.41 408.553 604.53C408.883 604.65 409.173 604.81 409.423 605.01C409.673 605.21 409.883 605.445 410.053 605.715C410.233 605.985 410.383 606.27 410.503 606.57L409.738 606.915C409.638 606.665 409.518 606.43 409.378 606.21C409.248 605.99 409.088 605.8 408.898 605.64C408.718 605.48 408.503 605.355 408.253 605.265C408.013 605.175 407.733 605.13 407.413 605.13C406.473 605.13 405.773 605.475 405.313 606.165C404.853 606.845 404.623 607.81 404.623 609.06V610.47C404.623 611.72 404.853 612.69 405.313 613.38C405.773 614.06 406.473 614.4 407.413 614.4C407.733 614.4 408.013 614.355 408.253 614.265C408.503 614.175 408.718 614.05 408.898 613.89C409.088 613.73 409.248 613.545 409.378 613.335C409.518 613.115 409.638 612.875 409.738 612.615L410.503 612.96C410.383 613.26 410.233 613.545 410.053 613.815C409.883 614.085 409.673 614.32 409.423 614.52C409.173 614.72 408.883 614.88 408.553 615C408.223 615.12 407.843 615.18 407.413 615.18ZM414.997 615.18C413.787 615.18 412.887 614.73 412.297 613.83C411.717 612.92 411.427 611.565 411.427 609.765C411.427 607.965 411.717 606.615 412.297 605.715C412.887 604.805 413.787 604.35 414.997 604.35C416.207 604.35 417.102 604.805 417.682 605.715C418.272 606.615 418.567 607.965 418.567 609.765C418.567 611.565 418.272 612.92 417.682 613.83C417.102 614.73 416.207 615.18 414.997 615.18ZM414.997 614.4C415.897 614.4 416.557 614.06 416.977 613.38C417.397 612.69 417.607 611.72 417.607 610.47V609.06C417.607 607.82 417.397 606.855 416.977 606.165C416.557 605.475 415.897 605.13 414.997 605.13C414.097 605.13 413.437 605.475 413.017 606.165C412.597 606.855 412.387 607.82 412.387 609.06V610.47C412.387 611.72 412.597 612.69 413.017 613.38C413.437 614.06 414.097 614.4 414.997 614.4ZM420.646 605.715H420.571V615H419.746V604.53H421.021L425.236 613.815H425.311V604.53H426.136V615H424.861L420.646 605.715ZM431.246 615.18C428.746 615.18 427.496 613.375 427.496 609.765C427.496 606.155 428.746 604.35 431.246 604.35C431.676 604.35 432.056 604.41 432.386 604.53C432.716 604.65 433.006 604.81 433.256 605.01C433.506 605.21 433.716 605.445 433.886 605.715C434.066 605.985 434.216 606.27 434.336 606.57L433.571 606.915C433.471 606.665 433.351 606.43 433.211 606.21C433.081 605.99 432.921 605.8 432.731 605.64C432.551 605.48 432.336 605.355 432.086 605.265C431.846 605.175 431.566 605.13 431.246 605.13C430.306 605.13 429.606 605.475 429.146 606.165C428.686 606.845 428.456 607.81 428.456 609.06V610.47C428.456 611.72 428.686 612.69 429.146 613.38C429.606 614.06 430.306 614.4 431.246 614.4C431.566 614.4 431.846 614.355 432.086 614.265C432.336 614.175 432.551 614.05 432.731 613.89C432.921 613.73 433.081 613.545 433.211 613.335C433.351 613.115 433.471 612.875 433.571 612.615L434.336 612.96C434.216 613.26 434.066 613.545 433.886 613.815C433.716 614.085 433.506 614.32 433.256 614.52C433.006 614.72 432.716 614.88 432.386 615C432.056 615.12 431.676 615.18 431.246 615.18ZM435.785 615V604.53H442.1V605.31H436.685V609.3H441.905V610.08H436.685V614.22H442.1V615H435.785ZM443.729 615V604.53H447.479C448.409 604.53 449.114 604.795 449.594 605.325C450.074 605.845 450.314 606.56 450.314 607.47C450.314 608.38 450.074 609.1 449.594 609.63C449.114 610.15 448.409 610.41 447.479 610.41H444.629V615H443.729ZM444.629 609.63H447.464C448.094 609.63 448.569 609.46 448.889 609.12C449.209 608.78 449.369 608.35 449.369 607.83V607.11C449.369 606.59 449.209 606.16 448.889 605.82C448.569 605.48 448.094 605.31 447.464 605.31H444.629V609.63ZM455.168 605.31V615H454.268V605.31H450.683V604.53H458.753V605.31H455.168ZM462.167 613.305H463.607L462.092 617.295H461.372L462.167 613.305ZM483.45 615V604.53H487.2C488.13 604.53 488.835 604.795 489.315 605.325C489.795 605.845 490.035 606.56 490.035 607.47C490.035 608.38 489.795 609.1 489.315 609.63C488.835 610.15 488.13 610.41 487.2 610.41H484.35V615H483.45ZM484.35 609.63H487.185C487.815 609.63 488.29 609.46 488.61 609.12C488.93 608.78 489.09 608.35 489.09 607.83V607.11C489.09 606.59 488.93 606.16 488.61 605.82C488.29 605.48 487.815 605.31 487.185 605.31H484.35V609.63ZM491.244 615V614.28H493.989V605.25H491.244V604.53H497.634V605.25H494.889V614.28H497.634V615H491.244ZM506.373 615H505.338L502.428 610.35H502.383L499.398 615H498.408L501.888 609.675L498.573 604.53H499.608L502.398 608.94H502.443L505.263 604.53H506.253L502.938 609.645L506.373 615ZM507.282 615V604.53H513.597V605.31H508.182V609.3H513.402V610.08H508.182V614.22H513.597V615H507.282ZM515.721 615V604.53H516.621V614.22H521.751V615H515.721ZM526.215 615.18C525.745 615.18 525.325 615.135 524.955 615.045C524.585 614.955 524.25 614.835 523.95 614.685C523.65 614.525 523.38 614.335 523.14 614.115C522.91 613.895 522.7 613.655 522.51 613.395L523.17 612.855C523.56 613.355 523.99 613.74 524.46 614.01C524.93 614.27 525.525 614.4 526.245 614.4C527.085 614.4 527.73 614.215 528.18 613.845C528.63 613.465 528.855 612.92 528.855 612.21C528.855 611.56 528.665 611.08 528.285 610.77C527.915 610.46 527.385 610.25 526.695 610.14L525.525 609.945C525.005 609.855 524.57 609.72 524.22 609.54C523.88 609.36 523.605 609.15 523.395 608.91C523.185 608.66 523.035 608.385 522.945 608.085C522.865 607.785 522.825 607.475 522.825 607.155C522.825 606.215 523.13 605.515 523.74 605.055C524.36 604.585 525.19 604.35 526.23 604.35C527.08 604.35 527.775 604.49 528.315 604.77C528.865 605.04 529.305 605.415 529.635 605.895L529.005 606.45C528.705 606.03 528.335 605.705 527.895 605.475C527.465 605.245 526.9 605.13 526.2 605.13C525.42 605.13 524.81 605.3 524.37 605.64C523.94 605.97 523.725 606.465 523.725 607.125C523.725 607.735 523.905 608.2 524.265 608.52C524.625 608.83 525.16 609.04 525.87 609.15L527.025 609.345C527.555 609.435 527.995 609.575 528.345 609.765C528.695 609.945 528.975 610.16 529.185 610.41C529.395 610.66 529.54 610.935 529.62 611.235C529.71 611.535 529.755 611.85 529.755 612.18C529.755 613.14 529.445 613.88 528.825 614.4C528.205 614.92 527.335 615.18 526.215 615.18Z" fill="#FFFAEE"/>
<path d="M364.054 410.058C350.237 410.058 339 398.832 339 385.029C339 371.226 350.237 360 364.054 360C377.87 360 389.107 371.226 389.107 385.029C389.107 398.832 377.87 410.058 364.054 410.058ZM364.054 361.321C350.957 361.321 340.31 371.958 340.31 385.042C340.31 398.126 350.957 408.763 364.054 408.763C377.15 408.763 387.797 398.126 387.797 385.042C387.797 371.958 377.15 361.321 364.054 361.321Z" fill="#FFFAEE"/>
<path d="M364.708 375.963H363.398V394.123H364.708V375.963Z" fill="#FFFAEE"/>
<path d="M373.143 384.389H354.965V385.697H373.143V384.389Z" fill="#FFFAEE"/>
<path d="M715.054 477.058C701.237 477.058 690 465.832 690 452.029C690 438.226 701.237 427 715.054 427C728.87 427 740.107 438.226 740.107 452.029C740.107 465.832 728.87 477.058 715.054 477.058ZM715.054 428.321C701.957 428.321 691.31 438.958 691.31 452.042C691.31 465.126 701.957 475.763 715.054 475.763C728.15 475.763 738.797 465.126 738.797 452.042C738.797 438.958 728.15 428.321 715.054 428.321Z" fill="#FFFAEE"/>
<path d="M715.708 442.963H714.398V461.123H715.708V442.963Z" fill="#FFFAEE"/>
<path d="M724.143 451.389H705.965V452.697H724.143V451.389Z" fill="#FFFAEE"/>
</svg>
