<svg width="1080" height="1080" viewBox="0 0 1080 1080" fill="none" xmlns="http://www.w3.org/2000/svg">
<rect width="1080" height="1080" fill="#191919"/>
<path d="M410.829 513.857L391.974 512.28L392.505 505.933C392.749 503.017 393.74 500.907 395.478 499.602C397.217 498.297 399.606 497.772 402.646 498.026C405.669 498.279 407.936 499.212 409.448 500.824C410.962 502.419 411.591 504.736 411.337 507.777L410.829 513.857ZM409.113 507.725C409.246 506.125 409.086 504.831 408.632 503.844C408.161 502.838 407.409 502.086 406.376 501.588C405.326 501.088 404.01 500.772 402.428 500.64C400.827 500.506 399.477 500.599 398.376 500.919C397.275 501.238 396.419 501.838 395.809 502.718C395.199 503.58 394.831 504.776 394.703 506.305L394.408 509.825L408.836 511.032L409.113 507.725ZM395.28 482.005L398.444 470.914L400.58 471.523L398.143 480.067L404.01 481.741L406.279 473.789L408.389 474.391L406.12 482.343L412.065 484.039L414.539 475.367L416.675 475.976L413.474 487.196L395.28 482.005ZM412.067 449.483C411.173 449.155 410.383 449.198 409.697 449.612C408.994 450.019 408.371 450.764 407.828 451.849C407.229 453.045 407.016 454.046 407.191 454.852C407.366 455.658 407.876 456.273 408.722 456.697C409.184 456.928 409.619 457.017 410.026 456.961C410.433 456.906 410.812 456.766 411.163 456.543C411.522 456.304 411.854 456.041 412.157 455.754C412.453 455.443 412.724 455.16 412.972 454.905L414.253 453.482C414.613 453.083 415.036 452.657 415.523 452.202C416.018 451.732 416.569 451.329 417.176 450.995C417.79 450.644 418.453 450.437 419.163 450.374C419.873 450.311 420.635 450.483 421.448 450.891C422.421 451.378 423.167 452.041 423.685 452.879C424.187 453.709 424.421 454.695 424.388 455.836C424.34 456.969 423.964 458.237 423.26 459.641C422.269 461.619 421.099 462.918 419.751 463.539C418.386 464.153 416.95 464.151 415.442 463.536L416.641 461.143C417.327 461.407 417.949 461.479 418.508 461.36C419.058 461.217 419.561 460.91 420.016 460.44C420.472 459.97 420.883 459.367 421.251 458.634C421.874 457.39 422.102 456.297 421.935 455.355C421.769 454.413 421.199 453.699 420.226 453.211C419.667 452.932 419.153 452.863 418.682 453.007C418.203 453.126 417.748 453.377 417.317 453.76C416.87 454.134 416.419 454.577 415.964 455.087L414.322 456.869C413.252 458.049 412.167 458.862 411.065 459.308C409.972 459.738 408.835 459.657 407.654 459.065C406.65 458.562 405.92 457.887 405.466 457.041C404.996 456.187 404.801 455.221 404.882 454.144C404.947 453.059 405.271 451.935 405.854 450.77C406.453 449.574 407.156 448.649 407.963 447.995C408.761 447.318 409.611 446.916 410.513 446.789C411.423 446.646 412.324 446.778 413.217 447.186L412.067 449.483ZM434.492 439.164L432.916 441.294L417.706 430.041L419.282 427.911L434.492 439.164ZM417.773 433.685L415.987 432.364L420.985 425.609L422.771 426.93L417.773 433.685ZM431.197 443.617L429.412 442.296L434.409 435.541L436.195 436.862L431.197 443.617ZM447.805 413.315L444.24 416.673L442.68 415.017L448.155 409.861L449.678 411.478C450.632 412.491 451.318 413.61 451.735 414.834C452.153 416.058 452.191 417.322 451.849 418.624C451.507 419.926 450.667 421.207 449.329 422.467C447.368 424.314 445.28 425.129 443.065 424.911C440.851 424.693 438.667 423.441 436.514 421.155C434.361 418.869 433.249 416.621 433.176 414.41C433.091 412.186 434.03 410.151 435.991 408.304C436.978 407.374 438.033 406.712 439.155 406.316C440.278 405.921 441.404 405.816 442.534 406.001C443.665 406.187 444.741 406.692 445.764 407.518L443.796 409.371C442.735 408.557 441.686 408.21 440.647 408.33C439.609 408.425 438.571 408.962 437.532 409.94C436.155 411.237 435.532 412.67 435.661 414.239C435.779 415.794 436.706 417.495 438.443 419.339C440.18 421.183 441.827 422.217 443.385 422.44C444.932 422.651 446.393 422.108 447.77 420.811C448.419 420.2 448.891 419.608 449.186 419.036C449.469 418.452 449.618 417.894 449.634 417.365C449.65 416.81 449.571 416.296 449.396 415.824C449.222 415.327 448.989 414.872 448.699 414.459C448.409 414.021 448.111 413.64 447.805 413.315ZM476.116 401.672L473.921 403.006L458.315 395.36L458.2 395.429L465.802 407.939L463.583 409.287L453.759 393.118L455.977 391.77L471.583 399.417L471.697 399.347L464.096 386.837L466.292 385.503L476.116 401.672ZM500.878 390.26L496.756 371.794L502.972 370.406C505.828 369.769 508.138 370.085 509.902 371.355C511.666 372.625 512.88 374.748 513.545 377.726C514.206 380.686 513.992 383.128 512.905 385.053C511.834 386.973 509.811 388.266 506.833 388.931L500.878 390.26ZM506.219 386.792C507.786 386.442 508.972 385.903 509.779 385.175C510.598 384.425 511.092 383.483 511.259 382.349C511.423 381.197 511.331 379.847 510.985 378.297C510.636 376.73 510.144 375.469 509.51 374.513C508.877 373.558 508.049 372.92 507.027 372.6C506.022 372.276 504.771 372.281 503.274 372.615L499.826 373.385L502.98 387.515L506.219 386.792ZM526.637 365.914L538.167 365.624L538.223 367.845L529.341 368.068L529.495 374.167L537.761 373.96L537.816 376.153L529.55 376.361L529.705 382.541L538.721 382.315L538.776 384.535L527.112 384.828L526.637 365.914ZM553.63 365.918L560.056 366.912C561.678 367.163 562.924 367.627 563.795 368.303C564.685 368.965 565.272 369.778 565.556 370.742C565.843 371.689 565.898 372.736 565.72 373.882C565.546 375.01 565.176 376 564.611 376.851C564.049 377.685 563.25 378.293 562.217 378.674C561.183 379.056 559.855 379.121 558.233 378.87L554.398 378.277L553.354 385.02L550.736 384.615L553.63 365.918ZM558.475 376.606C559.603 376.78 560.481 376.763 561.11 376.553C561.738 376.344 562.201 375.973 562.5 375.442C562.799 374.91 563.009 374.256 563.129 373.481C563.251 372.687 563.249 372.001 563.122 371.422C563.013 370.845 562.68 370.369 562.125 369.994C561.589 369.605 560.749 369.321 559.602 369.144L555.9 368.571L554.746 376.029L558.475 376.606ZM584.935 376.085L584.784 376.031L574.249 388.859L571.78 387.975L584.785 372.535L587.254 373.419L587.502 393.604L584.932 392.684L584.935 376.085ZM585.847 387.668L576.752 384.411L577.528 382.244L586.623 385.501L585.847 387.668ZM610.008 394.91L609.699 404.934L607.106 403.376L607.48 393.922L610.008 394.91ZM608.096 392.793C609.09 393.391 609.903 393.734 610.537 393.823C611.179 393.897 611.725 393.767 612.175 393.434C612.625 393.101 613.052 392.598 613.457 391.925C613.87 391.237 614.119 390.616 614.202 390.062C614.294 389.493 614.152 388.95 613.776 388.432C613.409 387.9 612.729 387.335 611.735 386.737L608.454 384.766L604.815 390.822L608.096 392.793ZM607.039 394.812L603.644 392.772L599.881 399.034L597.61 397.669L607.355 381.452L612.998 384.843C614.435 385.707 615.438 386.601 616.007 387.525C616.6 388.443 616.847 389.383 616.749 390.344C616.65 391.304 616.302 392.282 615.705 393.276C615.273 393.994 614.789 394.609 614.253 395.12C613.727 395.615 613.124 395.96 612.444 396.156C611.765 396.351 610.977 396.346 610.081 396.14C609.2 395.944 608.186 395.501 607.039 394.812ZM629.92 395.539L640.782 405.192L639.306 406.853L634.866 402.906L623.773 415.388L621.812 413.646L632.905 401.164L628.444 397.2L629.92 395.539ZM652.962 418.147L644.165 431.929L644.244 432.037L660.036 427.761L662.097 430.563L646.858 441.776L645.351 439.728L656.84 431.275L656.745 431.145L641.973 435.137L640.514 433.154L648.736 420.26L648.641 420.131L637.151 428.584L635.645 426.536L650.884 415.323L652.962 418.147ZM671.144 444.353L675.853 454.882L673.825 455.789L670.198 447.678L664.628 450.169L668.003 457.718L666 458.613L662.625 451.064L656.981 453.588L660.663 461.821L658.635 462.728L653.872 452.076L671.144 444.353ZM666.4 488.1L665.827 485.595L678.01 473.202L677.98 473.071L663.71 476.334L663.132 473.803L681.576 469.586L682.154 472.117L669.972 484.51L670.002 484.641L684.272 481.378L684.844 483.883L666.4 488.1ZM687.486 497.075L688.377 511.579L686.16 511.715L685.795 505.785L669.128 506.809L668.967 504.191L685.635 503.168L685.269 497.211L687.486 497.075Z" fill="#FFFAEE"/>
<path d="M511.922 470.973H517.708C519.168 470.973 520.327 471.211 521.184 471.687C522.057 472.148 522.684 472.783 523.065 473.592C523.446 474.386 523.636 475.298 523.636 476.33C523.636 477.346 523.446 478.266 523.065 479.092C522.684 479.901 522.065 480.544 521.208 481.02C520.351 481.496 519.192 481.735 517.732 481.735H514.279V487.806H511.922V470.973ZM517.636 479.711C518.652 479.711 519.422 479.576 519.946 479.306C520.47 479.036 520.827 478.647 521.017 478.139C521.208 477.632 521.303 477.028 521.303 476.33C521.303 475.616 521.208 475.013 521.017 474.521C520.843 474.029 520.485 473.656 519.946 473.402C519.422 473.132 518.644 472.997 517.613 472.997H514.279V479.711H517.636ZM533.648 487.806V470.973H539.315C541.918 470.973 543.862 471.695 545.148 473.14C546.434 474.584 547.076 476.663 547.076 479.378C547.076 482.076 546.418 484.155 545.1 485.615C543.799 487.076 541.791 487.806 539.077 487.806H533.648ZM538.958 485.83C540.386 485.83 541.521 485.591 542.362 485.115C543.219 484.623 543.83 483.901 544.196 482.949C544.561 481.981 544.743 480.79 544.743 479.378C544.743 477.949 544.561 476.759 544.196 475.806C543.83 474.854 543.235 474.14 542.41 473.664C541.6 473.187 540.513 472.949 539.148 472.949H536.005V485.83H538.958ZM562.687 478.044L567.068 470.973H569.782L564.235 479.639L562.687 478.044ZM562.997 480.735L558.568 487.806H555.83L561.473 479.068L562.997 480.735ZM561.33 479.449L555.83 470.973H558.616L562.854 477.759L564.354 479.306L569.83 487.806H567.044L562.687 480.83L561.33 479.449Z" fill="#FFFAEE"/>
<path d="M393.024 545.375L398.261 558.945H398.38L403.642 545.375H406.737V562.207H404.475V549.517H404.333L399.404 562.207H397.214L392.309 549.517H392.166V562.207H389.905V545.375H393.024ZM423.955 548.303H423.812L418.836 562.207H416.503L422.765 545.375H425.098L431.359 562.207H428.931L423.955 548.303ZM428.193 557.731H419.598V555.684H428.193V557.731ZM441.122 562.207V545.375H446.789C449.392 545.375 451.336 546.097 452.622 547.541C453.907 548.985 454.55 551.065 454.55 553.779C454.55 556.477 453.892 558.556 452.574 560.017C451.273 561.477 449.265 562.207 446.551 562.207H441.122ZM446.432 560.231C447.86 560.231 448.995 559.993 449.836 559.517C450.693 559.025 451.304 558.302 451.669 557.35C452.035 556.382 452.217 555.192 452.217 553.779C452.217 552.35 452.035 551.16 451.669 550.208C451.304 549.255 450.709 548.541 449.884 548.065C449.074 547.589 447.987 547.351 446.622 547.351H443.479V560.231H446.432ZM465.034 545.375H475.295V547.351H467.391V552.779H474.748V554.731H467.391V560.231H475.414V562.207H465.034V545.375ZM499.349 545.375H505.539C506.856 545.375 507.912 545.573 508.705 545.97C509.499 546.351 510.07 546.874 510.42 547.541C510.785 548.208 510.967 548.978 510.967 549.851C510.967 550.596 510.8 551.223 510.467 551.731C510.15 552.223 509.745 552.604 509.253 552.874C508.777 553.128 508.285 553.295 507.777 553.374V553.517C508.189 553.533 508.618 553.636 509.062 553.826C509.507 554.001 509.92 554.263 510.3 554.612C510.697 554.945 511.015 555.374 511.253 555.898C511.507 556.406 511.634 557.009 511.634 557.707C511.634 558.58 511.451 559.358 511.086 560.04C510.721 560.707 510.102 561.239 509.229 561.636C508.372 562.017 507.205 562.207 505.729 562.207H499.349V545.375ZM505.705 560.231C506.69 560.231 507.436 560.128 507.943 559.921C508.467 559.715 508.824 559.421 509.015 559.041C509.205 558.644 509.301 558.175 509.301 557.636C509.301 557.033 509.181 556.509 508.943 556.064C508.705 555.604 508.332 555.247 507.824 554.993C507.316 554.739 506.65 554.612 505.824 554.612H501.706V560.231H505.705ZM505.444 552.66C506.507 552.66 507.301 552.43 507.824 551.969C508.364 551.509 508.634 550.819 508.634 549.898C508.634 549.374 508.547 548.922 508.372 548.541C508.213 548.16 507.904 547.866 507.443 547.66C506.999 547.454 506.356 547.351 505.515 547.351H501.706V552.66H505.444ZM522.288 545.375L526.86 553.065H526.955L531.526 545.375H534.216L528.098 555.279V562.207H525.741V555.279L519.574 545.375H522.288ZM557.133 545.375H559.49V552.779H567.847V545.375H570.204V562.207H567.847V554.755H559.49V562.207H557.133V545.375ZM594.321 545.375V556.422C594.321 557.628 594.091 558.691 593.631 559.612C593.171 560.533 592.464 561.247 591.512 561.755C590.56 562.263 589.338 562.517 587.846 562.517C586.369 562.517 585.147 562.263 584.179 561.755C583.227 561.247 582.52 560.533 582.06 559.612C581.6 558.691 581.37 557.628 581.37 556.422V545.375H583.727V556.231C583.727 557.104 583.854 557.866 584.108 558.517C584.362 559.152 584.782 559.644 585.369 559.993C585.973 560.342 586.798 560.517 587.846 560.517C588.893 560.517 589.718 560.342 590.322 559.993C590.925 559.644 591.353 559.152 591.607 558.517C591.861 557.866 591.988 557.104 591.988 556.231V545.375H594.321ZM608.61 545.375L613.848 558.945H613.967L619.228 545.375H622.324V562.207H620.062V549.517H619.919L614.991 562.207H612.8L607.896 549.517H607.753V562.207H605.491V545.375H608.61ZM639.541 548.303H639.399L634.423 562.207H632.089L638.351 545.375H640.684L646.946 562.207H644.517L639.541 548.303ZM643.779 557.731H635.185V555.684H643.779V557.731ZM669.756 562.207H667.47L659.137 549.184H659.018V562.207H656.709V545.375H659.018L667.351 558.398H667.47V545.375H669.756V562.207ZM689.898 549.565C689.803 548.724 689.453 548.112 688.85 547.732C688.247 547.335 687.406 547.136 686.326 547.136C685.136 547.136 684.255 547.366 683.684 547.827C683.112 548.287 682.827 548.938 682.827 549.779C682.827 550.239 682.93 550.62 683.136 550.922C683.343 551.223 683.604 551.469 683.922 551.66C684.255 551.85 684.596 552.009 684.946 552.136C685.311 552.247 685.644 552.35 685.946 552.446L687.588 552.898C688.049 553.025 688.557 553.192 689.112 553.398C689.683 553.604 690.223 553.882 690.731 554.231C691.255 554.58 691.683 555.025 692.017 555.565C692.35 556.104 692.517 556.779 692.517 557.588C692.517 558.556 692.287 559.414 691.826 560.16C691.366 560.89 690.675 561.469 689.755 561.898C688.834 562.31 687.676 562.517 686.279 562.517C684.311 562.517 682.811 562.104 681.779 561.279C680.747 560.437 680.176 559.294 680.065 557.85H682.446C682.509 558.501 682.7 559.025 683.017 559.421C683.35 559.802 683.795 560.08 684.35 560.255C684.906 560.429 685.549 560.517 686.279 560.517C687.517 560.517 688.477 560.263 689.16 559.755C689.842 559.247 690.183 558.509 690.183 557.541C690.183 556.985 690.033 556.549 689.731 556.231C689.445 555.898 689.064 555.636 688.588 555.445C688.112 555.239 687.58 555.057 686.993 554.898L684.922 554.303C683.557 553.922 682.477 553.382 681.684 552.684C680.906 551.985 680.517 551.049 680.517 549.874C680.517 548.874 680.763 548.025 681.255 547.327C681.747 546.613 682.438 546.073 683.327 545.708C684.215 545.327 685.239 545.136 686.398 545.136C687.588 545.136 688.604 545.327 689.445 545.708C690.302 546.073 690.961 546.589 691.421 547.255C691.898 547.922 692.152 548.692 692.183 549.565H689.898Z" fill="#FFFAEE"/>
<path d="M480.784 635H480.064V626.516H480.784V635ZM478.756 627.14V626.516H482.08V627.14H478.756ZM478.756 635V634.376H482.08V635H478.756ZM489.94 635H489.136L484.396 627.716H484.3V635H483.592V626.516H484.408L489.136 633.788H489.232V626.516H489.94V635ZM490.56 626.516H496.824V627.14H494.052V635H493.332V627.14H490.56V626.516ZM497.444 626.516H502.22V627.14H498.164V630.44H501.944V631.064H498.164V634.376H502.28V635H497.444V626.516ZM510.004 635H509.2L504.46 627.716H504.364V635H503.656V626.516H504.472L509.2 633.788H509.296V626.516H510.004V635ZM510.624 626.516H516.888V627.14H514.116V635H513.396V627.14H510.624V626.516ZM519.552 635H518.832V626.516H519.552V635ZM517.524 627.14V626.516H520.848V627.14H517.524ZM517.524 635V634.376H520.848V635H517.524ZM528.952 630.752C528.952 632.152 528.648 633.232 528.04 633.992C527.44 634.744 526.556 635.12 525.388 635.12C524.22 635.12 523.332 634.744 522.724 633.992C522.124 633.232 521.824 632.152 521.824 630.752C521.824 629.352 522.124 628.276 522.724 627.524C523.332 626.772 524.22 626.396 525.388 626.396C526.556 626.396 527.44 626.772 528.04 627.524C528.648 628.276 528.952 629.352 528.952 630.752ZM528.232 630.752C528.232 629.48 527.996 628.544 527.524 627.944C527.06 627.344 526.348 627.044 525.388 627.044C524.428 627.044 523.712 627.344 523.24 627.944C522.776 628.544 522.544 629.48 522.544 630.752C522.544 632.024 522.776 632.964 523.24 633.572C523.712 634.172 524.428 634.472 525.388 634.472C526.348 634.472 527.06 634.172 527.524 633.572C527.996 632.964 528.232 632.024 528.232 630.752ZM536.572 635H535.768L531.028 627.716H530.932V635H530.224V626.516H531.04L535.768 633.788H535.864V626.516H536.572V635ZM577.236 630.752C577.236 632.152 576.932 633.232 576.324 633.992C575.724 634.744 574.84 635.12 573.672 635.12C572.504 635.12 571.616 634.744 571.008 633.992C570.408 633.232 570.108 632.152 570.108 630.752C570.108 629.352 570.408 628.276 571.008 627.524C571.616 626.772 572.504 626.396 573.672 626.396C574.84 626.396 575.724 626.772 576.324 627.524C576.932 628.276 577.236 629.352 577.236 630.752ZM576.516 630.752C576.516 629.48 576.28 628.544 575.808 627.944C575.344 627.344 574.632 627.044 573.672 627.044C572.712 627.044 571.996 627.344 571.524 627.944C571.06 628.544 570.828 629.48 570.828 630.752C570.828 632.024 571.06 632.964 571.524 633.572C571.996 634.172 572.712 634.472 573.672 634.472C574.632 634.472 575.344 634.172 575.808 633.572C576.28 632.964 576.516 632.024 576.516 630.752ZM580.987 634.172H581.059L583.855 626.516H584.611L581.515 635H580.519L577.435 626.516H578.203L580.987 634.172ZM585.481 626.516H590.257V627.14H586.201V630.44H589.981V631.064H586.201V634.376H590.317V635H585.481V626.516ZM595.412 631.112L597.62 635H596.816L594.692 631.244L595.412 631.112ZM594.476 630.884C595.044 630.884 595.484 630.812 595.796 630.668C596.108 630.524 596.328 630.312 596.456 630.032C596.584 629.752 596.648 629.408 596.648 629C596.648 628.584 596.584 628.24 596.456 627.968C596.328 627.696 596.108 627.492 595.796 627.356C595.484 627.212 595.044 627.14 594.476 627.14H592.412V630.884H594.476ZM594.536 631.508H592.412V635H591.692V626.516H594.524C595.212 626.516 595.764 626.616 596.18 626.816C596.596 627.008 596.896 627.288 597.08 627.656C597.272 628.024 597.368 628.472 597.368 629C597.368 629.416 597.324 629.78 597.236 630.092C597.148 630.404 596.996 630.668 596.78 630.884C596.564 631.092 596.272 631.248 595.904 631.352C595.544 631.456 595.088 631.508 594.536 631.508ZM630.222 626.516H636.486V627.14H633.714V635H632.994V627.14H630.222V626.516ZM639.15 635H638.43V626.516H639.15V635ZM637.122 627.14V626.516H640.446V627.14H637.122ZM637.122 635V634.376H640.446V635H637.122ZM642.702 626.516L645.822 633.788H645.906L649.026 626.516H649.746V635H649.05V628.232H648.99L646.05 635H645.642L642.702 628.232H642.654V635H641.958V626.516H642.702ZM651.38 626.516H656.156V627.14H652.1V630.44H655.88V631.064H652.1V634.376H656.216V635H651.38V626.516ZM689.855 626.516H690.575V634.376H694.619V635H689.855V626.516ZM695.246 626.516H700.022V627.14H695.966V630.44H699.746V631.064H695.966V634.376H700.082V635H695.246V626.516ZM704.134 627.44H704.086L701.422 635H700.69L703.726 626.516H704.542L707.566 635H706.798L704.134 627.44ZM706.066 632.456H702.19V631.832H706.066V632.456ZM708.442 635V626.516H711.07C712.302 626.516 713.234 626.876 713.866 627.596C714.498 628.316 714.814 629.368 714.814 630.752C714.814 632.128 714.49 633.18 713.842 633.908C713.202 634.636 712.238 635 710.95 635H708.442ZM710.89 634.376C711.698 634.376 712.334 634.232 712.798 633.944C713.262 633.648 713.594 633.228 713.794 632.684C713.994 632.14 714.094 631.496 714.094 630.752C714.094 630 713.994 629.356 713.794 628.82C713.602 628.276 713.278 627.86 712.822 627.572C712.374 627.284 711.762 627.14 710.986 627.14H709.162V634.376H710.89ZM720.691 628.352C720.627 627.856 720.407 627.512 720.031 627.32C719.663 627.128 719.175 627.032 718.567 627.032C717.871 627.032 717.355 627.168 717.019 627.44C716.683 627.704 716.515 628.096 716.515 628.616C716.515 628.92 716.571 629.168 716.683 629.36C716.803 629.552 716.955 629.708 717.139 629.828C717.323 629.94 717.519 630.032 717.727 630.104C717.935 630.168 718.127 630.224 718.303 630.272L719.227 630.524C719.459 630.588 719.711 630.668 719.983 630.764C720.255 630.86 720.511 630.992 720.751 631.16C720.999 631.328 721.199 631.544 721.351 631.808C721.503 632.072 721.579 632.4 721.579 632.792C721.579 633.24 721.471 633.644 721.255 634.004C721.039 634.364 720.707 634.648 720.259 634.856C719.811 635.056 719.239 635.156 718.543 635.156C717.615 635.156 716.903 634.968 716.407 634.592C715.911 634.216 715.631 633.708 715.567 633.068H716.311C716.359 633.452 716.483 633.748 716.683 633.956C716.883 634.164 717.139 634.312 717.451 634.4C717.771 634.48 718.135 634.52 718.543 634.52C719.279 634.52 719.847 634.38 720.247 634.1C720.655 633.812 720.859 633.368 720.859 632.768C720.859 632.408 720.771 632.124 720.595 631.916C720.427 631.708 720.199 631.544 719.911 631.424C719.631 631.304 719.327 631.2 718.999 631.112L717.847 630.8C717.191 630.616 716.683 630.36 716.323 630.032C715.971 629.704 715.795 629.252 715.795 628.676C715.795 628.204 715.907 627.8 716.131 627.464C716.363 627.12 716.687 626.856 717.103 626.672C717.527 626.488 718.027 626.396 718.603 626.396C719.163 626.396 719.643 626.48 720.043 626.648C720.451 626.808 720.771 627.036 721.003 627.332C721.243 627.62 721.379 627.96 721.411 628.352H720.691ZM478.36 640.516H484.624V641.14H481.852V649H481.132V641.14H478.36V640.516ZM495.079 644.752C495.079 646.152 494.775 647.232 494.167 647.992C493.567 648.744 492.683 649.12 491.515 649.12C490.347 649.12 489.459 648.744 488.851 647.992C488.251 647.232 487.951 646.152 487.951 644.752C487.951 643.352 488.251 642.276 488.851 641.524C489.459 640.772 490.347 640.396 491.515 640.396C492.683 640.396 493.567 640.772 494.167 641.524C494.775 642.276 495.079 643.352 495.079 644.752ZM494.359 644.752C494.359 643.48 494.123 642.544 493.651 641.944C493.187 641.344 492.475 641.044 491.515 641.044C490.555 641.044 489.839 641.344 489.367 641.944C488.903 642.544 488.671 643.48 488.671 644.752C488.671 646.024 488.903 646.964 489.367 647.572C489.839 648.172 490.555 648.472 491.515 648.472C492.475 648.472 493.187 648.172 493.651 647.572C494.123 646.964 494.359 646.024 494.359 644.752ZM505.544 640.516H506.264V644.44H511.004V640.516H511.724V649H511.004V645.064H506.264V649H505.544V640.516ZM518.624 649H517.904V640.516H518.624V649ZM516.596 641.14V640.516H519.92V641.14H516.596ZM516.596 649V648.376H519.92V649H516.596ZM530.532 645.4H528.12V644.776H531.252V645.736C531.252 646.336 531.132 646.896 530.892 647.416C530.66 647.928 530.296 648.34 529.8 648.652C529.312 648.964 528.68 649.12 527.904 649.12C526.744 649.12 525.844 648.744 525.204 647.992C524.572 647.232 524.256 646.152 524.256 644.752C524.256 643.352 524.572 642.276 525.204 641.524C525.844 640.772 526.744 640.396 527.904 640.396C528.456 640.396 528.956 640.492 529.404 640.684C529.852 640.868 530.228 641.148 530.532 641.524C530.836 641.9 531.044 642.38 531.156 642.964H530.412C530.284 642.276 530 641.784 529.56 641.488C529.128 641.192 528.576 641.044 527.904 641.044C526.96 641.044 526.236 641.34 525.732 641.932C525.228 642.524 524.976 643.464 524.976 644.752C524.976 646.032 525.228 646.972 525.732 647.572C526.236 648.172 526.96 648.472 527.904 648.472C528.392 648.472 528.796 648.404 529.116 648.268C529.436 648.124 529.692 647.936 529.884 647.704C530.076 647.472 530.216 647.22 530.304 646.948C530.4 646.676 530.46 646.404 530.484 646.132C530.516 645.86 530.532 645.616 530.532 645.4ZM535.852 640.516H536.572V644.44H541.312V640.516H542.032V649H541.312V645.064H536.572V649H535.852V640.516ZM552.862 640.516H557.698V641.14H553.582V644.44H557.302V645.064H553.582V649H552.862V640.516ZM568.756 644.752C568.756 646.152 568.452 647.232 567.844 647.992C567.244 648.744 566.36 649.12 565.192 649.12C564.024 649.12 563.136 648.744 562.528 647.992C561.928 647.232 561.628 646.152 561.628 644.752C561.628 643.352 561.928 642.276 562.528 641.524C563.136 640.772 564.024 640.396 565.192 640.396C566.36 640.396 567.244 640.772 567.844 641.524C568.452 642.276 568.756 643.352 568.756 644.752ZM568.036 644.752C568.036 643.48 567.8 642.544 567.328 641.944C566.864 641.344 566.152 641.044 565.192 641.044C564.232 641.044 563.516 641.344 563.044 641.944C562.58 642.544 562.348 643.48 562.348 644.752C562.348 646.024 562.58 646.964 563.044 647.572C563.516 648.172 564.232 648.472 565.192 648.472C566.152 648.472 566.864 648.172 567.328 647.572C567.8 646.964 568.036 646.024 568.036 644.752ZM577.107 645.112L579.315 649H578.511L576.387 645.244L577.107 645.112ZM576.171 644.884C576.739 644.884 577.179 644.812 577.491 644.668C577.803 644.524 578.023 644.312 578.151 644.032C578.279 643.752 578.343 643.408 578.343 643C578.343 642.584 578.279 642.24 578.151 641.968C578.023 641.696 577.803 641.492 577.491 641.356C577.179 641.212 576.739 641.14 576.171 641.14H574.107V644.884H576.171ZM576.231 645.508H574.107V649H573.387V640.516H576.219C576.907 640.516 577.459 640.616 577.875 640.816C578.291 641.008 578.591 641.288 578.775 641.656C578.967 642.024 579.063 642.472 579.063 643C579.063 643.416 579.019 643.78 578.931 644.092C578.843 644.404 578.691 644.668 578.475 644.884C578.259 645.092 577.967 645.248 577.599 645.352C577.239 645.456 576.783 645.508 576.231 645.508ZM584.453 640.516L587.573 647.788H587.657L590.777 640.516H591.497V649H590.801V642.232H590.741L587.801 649H587.393L584.453 642.232H584.405V649H583.709V640.516H584.453ZM601.099 642.352C601.035 641.856 600.815 641.512 600.439 641.32C600.071 641.128 599.583 641.032 598.975 641.032C598.279 641.032 597.763 641.168 597.427 641.44C597.091 641.704 596.923 642.096 596.923 642.616C596.923 642.92 596.979 643.168 597.091 643.36C597.211 643.552 597.363 643.708 597.547 643.828C597.731 643.94 597.927 644.032 598.135 644.104C598.343 644.168 598.535 644.224 598.711 644.272L599.635 644.524C599.867 644.588 600.119 644.668 600.391 644.764C600.663 644.86 600.919 644.992 601.159 645.16C601.407 645.328 601.607 645.544 601.759 645.808C601.911 646.072 601.987 646.4 601.987 646.792C601.987 647.24 601.879 647.644 601.663 648.004C601.447 648.364 601.115 648.648 600.667 648.856C600.219 649.056 599.647 649.156 598.951 649.156C598.023 649.156 597.311 648.968 596.815 648.592C596.319 648.216 596.039 647.708 595.975 647.068H596.719C596.767 647.452 596.891 647.748 597.091 647.956C597.291 648.164 597.547 648.312 597.859 648.4C598.179 648.48 598.543 648.52 598.951 648.52C599.687 648.52 600.255 648.38 600.655 648.1C601.063 647.812 601.267 647.368 601.267 646.768C601.267 646.408 601.179 646.124 601.003 645.916C600.835 645.708 600.607 645.544 600.319 645.424C600.039 645.304 599.735 645.2 599.407 645.112L598.255 644.8C597.599 644.616 597.091 644.36 596.731 644.032C596.379 643.704 596.203 643.252 596.203 642.676C596.203 642.204 596.315 641.8 596.539 641.464C596.771 641.12 597.095 640.856 597.511 640.672C597.935 640.488 598.435 640.396 599.011 640.396C599.571 640.396 600.051 640.48 600.451 640.648C600.859 640.808 601.179 641.036 601.411 641.332C601.651 641.62 601.787 641.96 601.819 642.352H601.099ZM618.945 644.752C618.945 646.152 618.641 647.232 618.033 647.992C617.433 648.744 616.549 649.12 615.381 649.12C614.213 649.12 613.325 648.744 612.717 647.992C612.117 647.232 611.817 646.152 611.817 644.752C611.817 643.352 612.117 642.276 612.717 641.524C613.325 640.772 614.213 640.396 615.381 640.396C616.549 640.396 617.433 640.772 618.033 641.524C618.641 642.276 618.945 643.352 618.945 644.752ZM618.225 644.752C618.225 643.48 617.989 642.544 617.517 641.944C617.053 641.344 616.341 641.044 615.381 641.044C614.421 641.044 613.705 641.344 613.233 641.944C612.769 642.544 612.537 643.48 612.537 644.752C612.537 646.024 612.769 646.964 613.233 647.572C613.705 648.172 614.421 648.472 615.381 648.472C616.341 648.472 617.053 648.172 617.517 647.572C617.989 646.964 618.225 646.024 618.225 644.752ZM623.576 640.516H628.412V641.14H624.296V644.44H628.016V645.064H624.296V649H623.576V640.516ZM644.397 642.976C644.293 642.328 644.033 641.844 643.617 641.524C643.209 641.204 642.665 641.044 641.985 641.044C641.089 641.044 640.393 641.348 639.897 641.956C639.409 642.564 639.165 643.492 639.165 644.74C639.165 645.996 639.409 646.932 639.897 647.548C640.393 648.156 641.089 648.46 641.985 648.46C642.665 648.46 643.209 648.3 643.617 647.98C644.033 647.66 644.297 647.18 644.409 646.54H645.165C645.029 647.38 644.693 648.02 644.157 648.46C643.621 648.9 642.897 649.12 641.985 649.12C640.801 649.12 639.913 648.74 639.321 647.98C638.737 647.212 638.445 646.132 638.445 644.74C638.445 643.356 638.737 642.288 639.321 641.536C639.913 640.776 640.801 640.396 641.985 640.396C642.553 640.396 643.057 640.492 643.497 640.684C643.945 640.876 644.309 641.164 644.589 641.548C644.877 641.932 645.065 642.408 645.153 642.976H644.397ZM653.491 645.112L655.699 649H654.895L652.771 645.244L653.491 645.112ZM652.555 644.884C653.123 644.884 653.563 644.812 653.875 644.668C654.187 644.524 654.407 644.312 654.535 644.032C654.663 643.752 654.727 643.408 654.727 643C654.727 642.584 654.663 642.24 654.535 641.968C654.407 641.696 654.187 641.492 653.875 641.356C653.563 641.212 653.123 641.14 652.555 641.14H650.491V644.884H652.555ZM652.615 645.508H650.491V649H649.771V640.516H652.603C653.291 640.516 653.843 640.616 654.259 640.816C654.675 641.008 654.975 641.288 655.159 641.656C655.351 642.024 655.447 642.472 655.447 643C655.447 643.416 655.403 643.78 655.315 644.092C655.227 644.404 655.075 644.668 654.859 644.884C654.643 645.092 654.351 645.248 653.983 645.352C653.623 645.456 653.167 645.508 652.615 645.508ZM662.78 641.44H662.732L660.068 649H659.336L662.372 640.516H663.188L666.212 649H665.444L662.78 641.44ZM664.712 646.456H660.836V645.832H664.712V646.456ZM670.449 640.516H675.285V641.14H671.169V644.44H674.889V645.064H671.169V649H670.449V640.516ZM679.008 640.516H685.272V641.14H682.5V649H681.78V641.14H679.008V640.516Z" fill="#FFFAEE"/>
<rect x="357.325" y="622.325" width="94.3493" height="30.5822" rx="15.2911" stroke="#FFFAEE" stroke-width="0.650685"/>
<rect x="357.325" y="673.325" width="30.3493" height="30.3493" rx="15.1747" stroke="#FFFAEE" stroke-width="0.650685"/>
<path fill-rule="evenodd" clip-rule="evenodd" d="M449.087 699.33V703.925C448.583 703.973 448.072 704 447.548 704C438.998 704 432.02 697.033 432.02 688.497C432.02 679.96 438.998 673 447.548 673C448.066 673 448.583 673.027 449.087 673.075V677.669C448.583 677.595 448.072 677.561 447.548 677.561C441.51 677.561 436.588 682.481 436.588 688.497C436.588 694.512 441.516 699.432 447.548 699.432C448.066 699.432 448.583 699.392 449.087 699.324V699.33Z" fill="#FFFAEE"/>
<path fill-rule="evenodd" clip-rule="evenodd" d="M455.704 686.131H464.67V690.869H455.704C456.793 695.762 461.177 699.439 466.399 699.439C466.916 699.439 467.434 699.398 467.938 699.33V703.925C467.427 703.973 466.916 704 466.399 704C457.842 704 450.877 697.033 450.877 688.503C450.877 679.973 457.842 673 466.399 673C466.916 673 467.434 673.027 467.938 673.075V677.669C467.427 677.595 466.916 677.561 466.399 677.561C461.177 677.561 456.786 681.238 455.704 686.131Z" fill="#FFFAEE"/>
<path d="M515.83 673.239H539.154C541.204 673.239 542.872 674.907 542.872 676.957V700.282C542.872 702.332 541.204 704 539.154 704H515.83C513.78 704 512.112 702.332 512.112 700.282V676.957C512.112 674.907 513.78 673.239 515.83 673.239H515.83ZM539.154 675.346H515.83C514.941 675.346 514.218 676.069 514.218 676.957V684.093H529.67L523.193 678.074H526.29L533.894 685.144L527.164 691.403H540.766V676.957C540.766 676.069 540.043 675.346 539.154 675.346ZM515.83 701.894H539.154C540.043 701.894 540.766 701.171 540.766 700.282V693.509H527.05L533.526 699.528H530.43L522.825 692.458L529.556 686.199H514.218V700.282C514.218 701.17 514.941 701.893 515.829 701.893L515.83 701.894Z" fill="#FFFAEE"/>
<path d="M611.869 696.896C611.869 696.741 611.933 696.585 612.059 696.466C612.313 696.229 612.723 696.229 612.977 696.466L615.258 698.601C615.509 698.839 615.514 699.223 615.258 699.461C615.004 699.698 614.594 699.698 614.34 699.461L612.059 697.326C611.932 697.207 611.869 697.053 611.869 696.896L611.869 696.896Z" fill="#FFFAEE"/>
<path d="M613.081 692.521C613.081 692.443 613.096 692.364 613.129 692.291C613.266 691.979 613.646 691.83 613.976 691.958L618.259 693.611C618.594 693.739 618.748 694.1 618.614 694.404C618.477 694.715 618.097 694.865 617.767 694.737L613.484 693.084C613.233 692.986 613.081 692.761 613.081 692.521Z" fill="#FFFAEE"/>
<path d="M607.344 692.046C607.597 691.809 608.009 691.809 608.262 692.046L609.828 693.513C610.081 693.75 610.081 694.137 609.828 694.373C609.576 694.61 609.163 694.61 608.911 694.373L607.344 692.905C607.092 692.669 607.092 692.282 607.344 692.046Z" fill="#FFFAEE"/>
<path d="M615.58 688.5C615.58 688.165 615.871 687.892 616.229 687.892L619.452 687.892C619.81 687.892 620.101 688.165 620.101 688.5C620.101 688.835 619.81 689.108 619.452 689.108L616.229 689.108C615.871 689.108 615.58 688.835 615.58 688.5Z" fill="#FFFAEE"/>
<path d="M613.137 684.605C613.137 684.368 613.286 684.142 613.537 684.045L617.798 682.383C618.127 682.252 618.507 682.399 618.644 682.71C618.784 683.022 618.626 683.373 618.294 683.504L614.034 685.166C613.704 685.297 613.324 685.149 613.187 684.838C613.152 684.762 613.137 684.684 613.137 684.605Z" fill="#FFFAEE"/>
<path d="M611.869 680.105C611.869 679.948 611.933 679.794 612.059 679.675L614.34 677.54C614.594 677.303 615.004 677.303 615.258 677.54C615.511 677.778 615.509 678.165 615.258 678.4L612.977 680.535C612.723 680.772 612.313 680.772 612.059 680.535C611.932 680.416 611.869 680.259 611.869 680.105L611.869 680.105Z" fill="#FFFAEE"/>
<path d="M607.203 678.972C607.203 678.894 607.219 678.815 607.252 678.742L609.016 674.726C609.152 674.415 609.533 674.265 609.862 674.394C610.197 674.522 610.356 674.883 610.217 675.187L608.453 679.202C608.316 679.514 607.936 679.663 607.607 679.535C607.356 679.437 607.203 679.212 607.203 678.972Z" fill="#FFFAEE"/>
<path d="M607.344 684.097L608.911 682.629C609.164 682.392 609.576 682.392 609.828 682.629C610.081 682.866 610.081 683.252 609.828 683.489L608.262 684.956C608.009 685.193 607.597 685.193 607.344 684.956C607.092 684.719 607.092 684.333 607.344 684.097Z" fill="#FFFAEE"/>
<path d="M602.913 676.63L602.913 673.609C602.913 673.274 603.204 673.001 603.562 673.001C603.919 673.001 604.211 673.274 604.211 673.609L604.211 676.63C604.211 676.965 603.919 677.238 603.562 677.238C603.204 677.238 602.913 676.965 602.913 676.63Z" fill="#FFFAEE"/>
<path d="M596.98 674.928C596.98 674.691 597.129 674.465 597.38 674.368C597.709 674.237 598.09 674.385 598.227 674.696L600.001 678.688C600.143 678.992 599.983 679.353 599.651 679.481C599.321 679.612 598.941 679.464 598.804 679.153L597.03 675.161C596.995 675.085 596.98 675.007 596.98 674.928Z" fill="#FFFAEE"/>
<path d="M591.675 677.97C591.675 677.813 591.738 677.659 591.865 677.54C592.118 677.303 592.529 677.303 592.782 677.54L595.061 679.675C595.314 679.913 595.314 680.298 595.061 680.535C594.807 680.772 594.397 680.772 594.143 680.535L591.865 678.4C591.738 678.281 591.675 678.127 591.675 677.97L591.675 677.97Z" fill="#FFFAEE"/>
<path d="M588.459 682.827C588.459 682.749 588.474 682.671 588.507 682.597C588.644 682.286 589.024 682.136 589.353 682.265L593.637 683.918C593.971 684.046 594.126 684.412 593.992 684.711C593.855 685.022 593.474 685.171 593.145 685.043L588.862 683.39C588.611 683.293 588.459 683.067 588.459 682.827Z" fill="#FFFAEE"/>
<path d="M597.292 682.628C597.545 682.391 597.957 682.391 598.21 682.628L599.778 684.097C600.031 684.334 600.031 684.72 599.778 684.957C599.526 685.193 599.113 685.194 598.861 684.957L597.292 683.487C597.04 683.251 597.04 682.864 597.292 682.628Z" fill="#FFFAEE"/>
<path d="M587.019 688.5C587.019 688.165 587.311 687.892 587.668 687.892L590.892 687.892C591.249 687.892 591.541 688.165 591.541 688.5C591.541 688.835 591.249 689.108 590.892 689.108L587.668 689.108C587.311 689.108 587.019 688.835 587.019 688.5Z" fill="#FFFAEE"/>
<path d="M588.426 694.06C588.426 693.822 588.575 693.597 588.824 693.499L593.084 691.835C593.416 691.704 593.796 691.852 593.933 692.16C594.075 692.478 593.915 692.827 593.586 692.956L589.325 694.62C588.993 694.751 588.613 694.604 588.476 694.295C588.441 694.217 588.426 694.138 588.426 694.06L588.426 694.06Z" fill="#FFFAEE"/>
<path d="M594.618 688.071C594.737 687.96 594.898 687.893 595.077 687.893L599.049 687.893C599.407 687.893 599.697 688.165 599.697 688.5C599.697 688.836 599.407 689.108 599.049 689.108L595.077 689.108C594.719 689.108 594.429 688.836 594.429 688.5C594.429 688.332 594.5 688.181 594.619 688.07L594.618 688.071Z" fill="#FFFAEE"/>
<path d="M603.102 692.3C603.221 692.189 603.382 692.122 603.561 692.122C603.919 692.122 604.21 692.394 604.21 692.73L604.21 696.451C604.21 696.787 603.919 697.059 603.561 697.059C603.203 697.059 602.912 696.787 602.912 696.451L602.912 692.73C602.912 692.562 602.984 692.411 603.102 692.3L603.102 692.3Z" fill="#FFFAEE"/>
<path d="M607.615 688.071C607.734 687.96 607.895 687.893 608.074 687.893L612.045 687.893C612.404 687.893 612.694 688.165 612.694 688.5C612.694 688.836 612.404 689.108 612.045 689.108L608.074 689.108C607.716 689.108 607.425 688.836 607.425 688.5C607.425 688.332 607.497 688.181 607.615 688.07L607.615 688.071Z" fill="#FFFAEE"/>
<path d="M603.102 680.122C603.221 680.011 603.382 679.944 603.561 679.944C603.919 679.944 604.21 680.216 604.21 680.552L604.21 684.273C604.21 684.609 603.919 684.881 603.561 684.881C603.203 684.881 602.912 684.609 602.912 684.273L602.912 680.552C602.912 680.384 602.984 680.233 603.102 680.122L603.102 680.122Z" fill="#FFFAEE"/>
<path d="M591.675 699.031C591.675 698.874 591.738 698.72 591.865 698.601L594.143 696.466C594.397 696.229 594.807 696.229 595.061 696.466C595.314 696.704 595.314 697.088 595.061 697.326L592.782 699.461C592.529 699.698 592.118 699.698 591.865 699.461C591.738 699.342 591.675 699.188 591.675 699.031L591.675 699.031Z" fill="#FFFAEE"/>
<path d="M596.858 702.044C596.858 701.966 596.873 701.887 596.906 701.814L598.67 697.8C598.807 697.489 599.187 697.34 599.517 697.468C599.849 697.596 600.008 697.959 599.872 698.261L598.108 702.274C597.971 702.586 597.591 702.735 597.261 702.607C597.01 702.51 596.858 702.284 596.858 702.044Z" fill="#FFFAEE"/>
<path d="M597.294 693.513L598.861 692.046C599.113 691.809 599.526 691.809 599.778 692.046C600.031 692.283 600.031 692.669 599.778 692.905L598.212 694.373C597.959 694.61 597.547 694.61 597.294 694.373C597.042 694.136 597.041 693.75 597.294 693.513Z" fill="#FFFAEE"/>
<path d="M602.913 703.392L602.913 700.372C602.913 700.037 603.204 699.764 603.562 699.764C603.919 699.764 604.211 700.037 604.211 700.372L604.211 703.392C604.211 703.727 603.919 704 603.562 704C603.204 704 602.913 703.727 602.913 703.392Z" fill="#FFFAEE"/>
<path d="M607.069 698.084C607.069 697.846 607.219 697.62 607.47 697.523C607.799 697.393 608.18 697.54 608.316 697.851L610.091 701.843C610.23 702.154 610.075 702.508 609.741 702.636C609.411 702.767 609.031 702.62 608.894 702.308L607.12 698.316C607.085 698.241 607.069 698.162 607.069 698.084Z" fill="#FFFAEE"/>
<path d="M378.493 643.059C377.765 643.059 377.057 642.929 376.37 642.669C375.683 642.409 375.063 642.029 374.511 641.529C373.96 641.029 373.517 640.425 373.184 639.718C372.861 639.01 372.7 638.203 372.7 637.297C372.7 636.391 372.861 635.584 373.184 634.876C373.517 634.168 373.96 633.57 374.511 633.081C375.063 632.581 375.683 632.201 376.37 631.941C377.057 631.68 377.765 631.55 378.493 631.55C379.222 631.55 379.93 631.68 380.617 631.941C381.304 632.201 381.924 632.581 382.476 633.081C383.027 633.57 383.465 634.168 383.787 634.876C384.11 635.584 384.272 636.391 384.272 637.297C384.272 638.203 384.11 639.01 383.787 639.718C383.465 640.425 383.027 641.029 382.476 641.529C381.924 642.029 381.304 642.409 380.617 642.669C379.93 642.929 379.222 643.059 378.493 643.059ZM378.493 642.341C379.108 642.341 379.712 642.232 380.305 642.013C380.898 641.784 381.435 641.456 381.913 641.029C382.392 640.592 382.772 640.061 383.053 639.436C383.345 638.812 383.491 638.099 383.491 637.297C383.491 636.495 383.345 635.782 383.053 635.158C382.772 634.533 382.392 634.007 381.913 633.58C381.435 633.143 380.898 632.815 380.305 632.596C379.712 632.367 379.108 632.253 378.493 632.253C377.869 632.253 377.26 632.367 376.666 632.596C376.073 632.815 375.537 633.143 375.058 633.58C374.579 634.007 374.194 634.533 373.902 635.158C373.621 635.782 373.481 636.495 373.481 637.297C373.481 638.099 373.621 638.812 373.902 639.436C374.194 640.061 374.579 640.592 375.058 641.029C375.537 641.456 376.073 641.784 376.666 642.013C377.26 642.232 377.869 642.341 378.493 642.341ZM378.556 640.358C377.598 640.358 376.875 640.082 376.385 639.53C375.896 638.978 375.651 638.229 375.651 637.281C375.651 636.334 375.901 635.59 376.401 635.048C376.911 634.507 377.619 634.236 378.525 634.236C379.004 634.236 379.415 634.314 379.758 634.47C380.112 634.627 380.393 634.85 380.602 635.142C380.82 635.423 380.961 635.761 381.023 636.157H380.149C380.076 635.793 379.925 635.506 379.696 635.298C379.477 635.09 379.092 634.986 378.54 634.986C377.874 634.986 377.364 635.184 377.01 635.579C376.656 635.975 376.479 636.542 376.479 637.281C376.479 638.031 376.656 638.609 377.01 639.015C377.364 639.41 377.874 639.608 378.54 639.608C379.061 639.608 379.441 639.525 379.68 639.358C379.92 639.181 380.076 638.9 380.149 638.515H381.023C380.982 638.879 380.857 639.202 380.649 639.483C380.451 639.754 380.175 639.967 379.821 640.124C379.477 640.28 379.056 640.358 378.556 640.358ZM389.955 642.091L393.735 638.047C394.213 637.536 394.604 637.089 394.906 636.704C395.208 636.308 395.432 635.944 395.577 635.61C395.733 635.267 395.812 634.918 395.812 634.564C395.812 633.887 395.593 633.372 395.156 633.018C394.718 632.654 394.135 632.472 393.407 632.472C392.678 632.472 392.079 632.69 391.611 633.127C391.142 633.554 390.918 634.142 390.939 634.892H390.033C390.023 634.215 390.164 633.638 390.455 633.159C390.747 632.68 391.153 632.31 391.673 632.05C392.194 631.79 392.787 631.659 393.453 631.659C394.151 631.659 394.739 631.779 395.218 632.019C395.707 632.248 396.082 632.581 396.342 633.018C396.603 633.445 396.733 633.96 396.733 634.564C396.733 634.96 396.665 635.345 396.53 635.72C396.395 636.084 396.145 636.506 395.78 636.985C395.426 637.453 394.911 638.047 394.234 638.765L390.674 642.575L390.736 642.044H396.873V642.856H389.955V642.091ZM406.441 643.013C405.535 643.013 404.796 642.81 404.223 642.404C403.661 641.987 403.25 641.362 402.989 640.53C402.729 639.686 402.599 638.619 402.599 637.328C402.599 636.037 402.729 634.975 402.989 634.142C403.26 633.31 403.677 632.69 404.239 632.284C404.811 631.868 405.545 631.659 406.441 631.659C407.346 631.659 408.08 631.868 408.643 632.284C409.215 632.69 409.632 633.31 409.892 634.142C410.163 634.975 410.298 636.037 410.298 637.328C410.298 638.609 410.163 639.671 409.892 640.514C409.632 641.357 409.215 641.987 408.643 642.404C408.08 642.81 407.346 643.013 406.441 643.013ZM406.441 642.201C407.503 642.201 408.257 641.8 408.705 640.998C409.153 640.196 409.377 638.973 409.377 637.328C409.377 635.683 409.153 634.465 408.705 633.674C408.257 632.872 407.503 632.472 406.441 632.472C405.389 632.472 404.64 632.872 404.192 633.674C403.744 634.465 403.52 635.683 403.52 637.328C403.52 638.973 403.739 640.196 404.176 640.998C404.624 641.8 405.379 642.201 406.441 642.201ZM416.026 642.091L419.805 638.047C420.284 637.536 420.674 637.089 420.976 636.704C421.278 636.308 421.502 635.944 421.648 635.61C421.804 635.267 421.882 634.918 421.882 634.564C421.882 633.887 421.663 633.372 421.226 633.018C420.789 632.654 420.206 632.472 419.477 632.472C418.748 632.472 418.149 632.69 417.681 633.127C417.212 633.554 416.989 634.142 417.009 634.892H416.104C416.093 634.215 416.234 633.638 416.525 633.159C416.817 632.68 417.223 632.31 417.743 632.05C418.264 631.79 418.857 631.659 419.524 631.659C420.221 631.659 420.809 631.779 421.288 632.019C421.778 632.248 422.152 632.581 422.413 633.018C422.673 633.445 422.803 633.96 422.803 634.564C422.803 634.96 422.736 635.345 422.6 635.72C422.465 636.084 422.215 636.506 421.851 636.985C421.497 637.453 420.981 638.047 420.305 638.765L416.744 642.575L416.806 642.044H422.944V642.856H416.026V642.091ZM428.966 639.39C428.976 638.984 429.023 638.588 429.107 638.203C429.2 637.818 429.362 637.406 429.591 636.969C429.83 636.532 430.158 636.032 430.575 635.47L433.307 631.816H434.416L430.715 636.719L430.59 636.579C430.809 636.443 431.007 636.334 431.184 636.251C431.361 636.157 431.553 636.089 431.761 636.048C431.97 635.996 432.225 635.97 432.527 635.97C433.287 635.97 433.932 636.11 434.463 636.391C434.994 636.662 435.395 637.058 435.666 637.578C435.947 638.099 436.087 638.729 436.087 639.468C436.087 640.176 435.952 640.795 435.681 641.326C435.41 641.857 435.01 642.273 434.479 642.575C433.948 642.867 433.297 643.013 432.527 643.013C431.361 643.013 430.47 642.685 429.856 642.029C429.252 641.362 428.956 640.483 428.966 639.39ZM429.887 639.468C429.887 640.301 430.09 640.967 430.496 641.467C430.913 641.956 431.59 642.201 432.527 642.201C433.453 642.201 434.125 641.956 434.541 641.467C434.958 640.967 435.166 640.301 435.166 639.468C435.166 638.635 434.958 637.979 434.541 637.5C434.125 637.021 433.453 636.782 432.527 636.782C431.694 636.782 431.043 637.021 430.575 637.5C430.116 637.979 429.887 638.635 429.887 639.468Z" fill="#FFFAEE"/>
<path d="M370.55 679.879C370.55 679.504 370.615 679.172 370.746 678.884C370.877 678.596 371.052 678.356 371.27 678.165C371.479 677.981 371.715 677.842 371.977 677.746C372.247 677.65 372.518 677.602 372.788 677.602C373.059 677.602 373.325 677.65 373.587 677.746C373.857 677.842 374.101 677.981 374.32 678.165C374.529 678.356 374.699 678.596 374.83 678.884C374.961 679.172 375.026 679.504 375.026 679.879V680.35H373.691V679.879C373.691 679.556 373.6 679.321 373.416 679.172C373.242 679.015 373.032 678.937 372.788 678.937C372.544 678.937 372.33 679.015 372.147 679.172C371.972 679.321 371.885 679.556 371.885 679.879V684.801C371.885 685.124 371.972 685.364 372.147 685.521C372.33 685.669 372.544 685.743 372.788 685.743C373.032 685.743 373.242 685.669 373.416 685.521C373.6 685.364 373.691 685.124 373.691 684.801V683.047H372.631V681.869H375.026V684.801C375.026 685.194 374.961 685.53 374.83 685.809C374.699 686.088 374.529 686.319 374.32 686.503C374.101 686.695 373.857 686.839 373.587 686.935C373.325 687.031 373.059 687.079 372.788 687.079C372.518 687.079 372.247 687.031 371.977 686.935C371.715 686.839 371.479 686.695 371.27 686.503C371.052 686.319 370.877 686.088 370.746 685.809C370.615 685.53 370.55 685.194 370.55 684.801V679.879ZM370.628 699V689.68H372.605C373.373 689.68 373.953 689.89 374.346 690.308C374.747 690.727 374.948 691.321 374.948 692.089V696.448C374.948 697.32 374.734 697.966 374.306 698.385C373.888 698.795 373.281 699 372.487 699H370.628ZM371.963 690.937V697.743H372.579C372.954 697.743 373.22 697.652 373.377 697.469C373.534 697.277 373.613 696.98 373.613 696.578V692.089C373.613 691.722 373.539 691.439 373.39 691.238C373.242 691.037 372.971 690.937 372.579 690.937H371.963Z" fill="#FFFAEE"/>
<path d="M541 327.873C646.596 327.873 732.198 413.475 732.198 519.071V599.27H349.802V519.071C349.802 413.475 435.404 327.873 541 327.873Z" stroke="#FFFAEE" stroke-width="1.60289"/>
</svg>
