<svg width="1080" height="1080" viewBox="0 0 1080 1080" fill="none" xmlns="http://www.w3.org/2000/svg">
<rect width="1080" height="1080" fill="#191919"/>
<path d="M739.591 486.22H751.798C752.729 486.22 753.484 486.975 753.484 487.906V503.509C753.484 504.44 752.729 505.195 751.798 505.195H739.591V486.22Z" fill="#FFFAEE"/>
<path d="M756.194 490.286H768.401C769.332 490.286 770.087 491.041 770.087 491.972V506.22C770.087 507.151 769.332 507.906 768.401 507.906H757.881C756.949 507.906 756.194 507.151 756.194 506.22V490.286Z" fill="#FFFAEE"/>
<path d="M772.967 486.218H777.033C779.279 486.218 781.099 488.038 781.099 490.284V499.772C781.099 502.017 779.279 503.838 777.033 503.838H772.967V486.218Z" fill="#FFFAEE"/>
<rect x="734" y="483" width="2.71075" height="44.3885" rx="1.35537" fill="#FFFAEE"/>
<path d="M524.766 494V483.999H527.864C529.317 483.999 530.415 484.423 531.16 485.272C531.905 486.121 532.278 487.361 532.278 488.992C532.278 490.614 531.896 491.855 531.132 492.713C530.378 493.571 529.241 494 527.723 494H524.766ZM527.652 493.264C528.605 493.264 529.354 493.095 529.901 492.755C530.448 492.406 530.84 491.911 531.075 491.27C531.311 490.629 531.429 489.869 531.429 488.992C531.429 488.106 531.311 487.347 531.075 486.715C530.849 486.074 530.467 485.583 529.93 485.244C529.402 484.904 528.68 484.735 527.765 484.735H525.615V493.264H527.652ZM535.811 494H534.962V483.999H535.811V494ZM533.42 484.735V483.999H537.338V484.735H533.42ZM533.42 494V493.264H537.338V494H533.42ZM545.887 489.756H543.044V489.021H546.736V490.152C546.736 490.86 546.594 491.52 546.311 492.133C546.038 492.736 545.609 493.222 545.024 493.59C544.449 493.958 543.704 494.141 542.789 494.141C541.422 494.141 540.361 493.698 539.606 492.812C538.861 491.916 538.489 490.643 538.489 488.992C538.489 487.342 538.861 486.074 539.606 485.187C540.361 484.301 541.422 483.858 542.789 483.858C543.44 483.858 544.029 483.971 544.557 484.197C545.085 484.414 545.529 484.744 545.887 485.187C546.245 485.631 546.49 486.196 546.622 486.885H545.745C545.595 486.074 545.26 485.494 544.741 485.145C544.232 484.796 543.581 484.621 542.789 484.621C541.676 484.621 540.823 484.97 540.229 485.668C539.635 486.366 539.337 487.474 539.337 488.992C539.337 490.501 539.635 491.609 540.229 492.317C540.823 493.024 541.676 493.378 542.789 493.378C543.364 493.378 543.841 493.297 544.218 493.137C544.595 492.967 544.897 492.746 545.123 492.472C545.349 492.199 545.514 491.902 545.618 491.581C545.731 491.26 545.802 490.94 545.83 490.619C545.868 490.299 545.887 490.011 545.887 489.756ZM550.234 494H549.385V483.999H550.234V494ZM547.843 484.735V483.999H551.761V484.735H547.843ZM547.843 494V493.264H551.761V494H547.843ZM552.516 483.999H559.9V484.735H556.632V494H555.783V484.735H552.516V483.999ZM563.136 485.088H563.079L559.939 494H559.076L562.655 483.999H563.617L567.182 494H566.276L563.136 485.088ZM565.413 491.001H560.844V490.266H565.413V491.001ZM568.215 483.999H569.064V493.264H573.831V494H568.215V483.999ZM579.726 494.736H573.615V494H579.726V494.736ZM580.386 494V483.999H583.484C584.936 483.999 586.035 484.423 586.78 485.272C587.525 486.121 587.897 487.361 587.897 488.992C587.897 490.614 587.515 491.855 586.752 492.713C585.997 493.571 584.861 494 583.343 494H580.386ZM583.272 493.264C584.224 493.264 584.974 493.095 585.521 492.755C586.068 492.406 586.459 491.911 586.695 491.27C586.931 490.629 587.049 489.869 587.049 488.992C587.049 488.106 586.931 487.347 586.695 486.715C586.469 486.074 586.087 485.583 585.549 485.244C585.021 484.904 584.3 484.735 583.385 484.735H581.235V493.264H583.272ZM589.393 483.999H595.023V484.735H590.242V488.625H594.698V489.36H590.242V493.264H595.094V494H589.393V483.999ZM602.009 486.163C601.934 485.579 601.674 485.173 601.231 484.947C600.797 484.721 600.222 484.607 599.505 484.607C598.685 484.607 598.077 484.768 597.681 485.088C597.285 485.4 597.086 485.862 597.086 486.475C597.086 486.833 597.153 487.125 597.285 487.352C597.426 487.578 597.605 487.762 597.822 487.903C598.039 488.035 598.27 488.144 598.515 488.229C598.76 488.304 598.987 488.37 599.194 488.427L600.283 488.724C600.557 488.799 600.854 488.893 601.175 489.007C601.495 489.12 601.797 489.275 602.08 489.473C602.372 489.671 602.608 489.926 602.787 490.237C602.966 490.548 603.056 490.935 603.056 491.397C603.056 491.925 602.929 492.402 602.674 492.826C602.419 493.25 602.028 493.585 601.5 493.83C600.972 494.066 600.298 494.184 599.477 494.184C598.383 494.184 597.544 493.962 596.959 493.519C596.374 493.076 596.044 492.477 595.969 491.723H596.846C596.903 492.175 597.049 492.524 597.285 492.769C597.52 493.015 597.822 493.189 598.19 493.293C598.567 493.387 598.996 493.434 599.477 493.434C600.345 493.434 601.014 493.269 601.486 492.939C601.967 492.6 602.207 492.076 602.207 491.369C602.207 490.945 602.103 490.61 601.896 490.365C601.698 490.119 601.429 489.926 601.09 489.785C600.76 489.643 600.401 489.521 600.015 489.417L598.657 489.049C597.883 488.832 597.285 488.53 596.86 488.144C596.445 487.757 596.238 487.224 596.238 486.545C596.238 485.989 596.37 485.513 596.634 485.117C596.907 484.711 597.289 484.4 597.78 484.183C598.279 483.966 598.869 483.858 599.548 483.858C600.208 483.858 600.774 483.957 601.245 484.155C601.726 484.343 602.103 484.612 602.377 484.961C602.66 485.3 602.82 485.701 602.858 486.163H602.009ZM606.378 494H605.53V483.999H606.378V494ZM603.988 484.735V483.999H607.906V484.735H603.988ZM603.988 494V493.264H607.906V494H603.988ZM616.454 489.756H613.611V489.021H617.303V490.152C617.303 490.86 617.162 491.52 616.879 492.133C616.605 492.736 616.176 493.222 615.592 493.59C615.016 493.958 614.271 494.141 613.357 494.141C611.989 494.141 610.928 493.698 610.174 492.812C609.429 491.916 609.056 490.643 609.056 488.992C609.056 487.342 609.429 486.074 610.174 485.187C610.928 484.301 611.989 483.858 613.357 483.858C614.007 483.858 614.597 483.971 615.125 484.197C615.653 484.414 616.096 484.744 616.454 485.187C616.813 485.631 617.058 486.196 617.19 486.885H616.313C616.162 486.074 615.827 485.494 615.309 485.145C614.799 484.796 614.149 484.621 613.357 484.621C612.244 484.621 611.39 484.97 610.796 485.668C610.202 486.366 609.905 487.474 609.905 488.992C609.905 490.501 610.202 491.609 610.796 492.317C611.39 493.024 612.244 493.378 613.357 493.378C613.932 493.378 614.408 493.297 614.785 493.137C615.162 492.967 615.464 492.746 615.691 492.472C615.917 492.199 616.082 491.902 616.186 491.581C616.299 491.26 616.37 490.94 616.398 490.619C616.436 490.299 616.454 490.011 616.454 489.756ZM626.247 494H625.299L619.712 485.414H619.599V494H618.764V483.999H619.726L625.299 492.571H625.413V483.999H626.247V494ZM633.024 494.736H626.913V494H633.024V494.736ZM636.853 485.088H636.796L633.656 494H632.793L636.372 483.999H637.334L640.899 494H639.993L636.853 485.088ZM639.13 491.001H634.561V490.266H639.13V491.001ZM646.317 489.417L648.92 494H647.972L645.468 489.572L646.317 489.417ZM645.214 489.148C645.883 489.148 646.402 489.063 646.77 488.893C647.138 488.724 647.397 488.474 647.548 488.144C647.699 487.814 647.774 487.408 647.774 486.927C647.774 486.437 647.699 486.031 647.548 485.711C647.397 485.39 647.138 485.15 646.77 484.989C646.402 484.82 645.883 484.735 645.214 484.735H642.781V489.148H645.214ZM645.284 489.884H642.781V494H641.932V483.999H645.27C646.081 483.999 646.732 484.117 647.222 484.353C647.713 484.579 648.066 484.909 648.283 485.343C648.51 485.777 648.623 486.305 648.623 486.927C648.623 487.418 648.571 487.847 648.467 488.214C648.363 488.582 648.184 488.893 647.93 489.148C647.675 489.393 647.331 489.577 646.897 489.7C646.473 489.822 645.935 489.884 645.284 489.884ZM648.876 483.999H656.26V484.735H652.992V494H652.143V484.735H648.876V483.999ZM659.4 494H658.552V483.999H659.4V494ZM657.01 484.735V483.999H660.928V484.735H657.01ZM657.01 494V493.264H660.928V494H657.01ZM662.71 483.999H668.411V484.735H663.559V488.625H667.944V489.36H663.559V494H662.71V483.999ZM671.861 485.088H671.804L668.664 494H667.801L671.38 483.999H672.341L675.906 494H675.001L671.861 485.088ZM674.138 491.001H669.569V490.266H674.138V491.001ZM683.103 486.899C682.98 486.135 682.674 485.565 682.184 485.187C681.703 484.81 681.061 484.621 680.26 484.621C679.204 484.621 678.383 484.98 677.798 485.697C677.223 486.413 676.936 487.507 676.936 488.978C676.936 490.459 677.223 491.562 677.798 492.288C678.383 493.005 679.204 493.363 680.26 493.363C681.061 493.363 681.703 493.175 682.184 492.798C682.674 492.42 682.985 491.855 683.117 491.1H684.008C683.848 492.09 683.452 492.845 682.82 493.363C682.188 493.882 681.335 494.141 680.26 494.141C678.864 494.141 677.817 493.694 677.119 492.798C676.431 491.892 676.087 490.619 676.087 488.978C676.087 487.347 676.431 486.088 677.119 485.201C677.817 484.306 678.864 483.858 680.26 483.858C680.929 483.858 681.523 483.971 682.042 484.197C682.57 484.423 682.999 484.763 683.329 485.216C683.669 485.668 683.89 486.229 683.994 486.899H683.103ZM684.09 483.999H691.474V484.735H688.207V494H687.358V484.735H684.09V483.999ZM697.457 486.163C697.382 485.579 697.123 485.173 696.679 484.947C696.246 484.721 695.67 484.607 694.954 484.607C694.133 484.607 693.525 484.768 693.129 485.088C692.733 485.4 692.535 485.862 692.535 486.475C692.535 486.833 692.601 487.125 692.733 487.352C692.874 487.578 693.053 487.762 693.27 487.903C693.487 488.035 693.718 488.144 693.963 488.229C694.209 488.304 694.435 488.37 694.642 488.427L695.732 488.724C696.005 488.799 696.302 488.893 696.623 489.007C696.943 489.12 697.245 489.275 697.528 489.473C697.82 489.671 698.056 489.926 698.235 490.237C698.415 490.548 698.504 490.935 698.504 491.397C698.504 491.925 698.377 492.402 698.122 492.826C697.868 493.25 697.476 493.585 696.948 493.83C696.42 494.066 695.746 494.184 694.925 494.184C693.831 494.184 692.992 493.962 692.407 493.519C691.823 493.076 691.493 492.477 691.417 491.723H692.294C692.351 492.175 692.497 492.524 692.733 492.769C692.969 493.015 693.27 493.189 693.638 493.293C694.015 493.387 694.444 493.434 694.925 493.434C695.793 493.434 696.462 493.269 696.934 492.939C697.415 492.6 697.655 492.076 697.655 491.369C697.655 490.945 697.552 490.61 697.344 490.365C697.146 490.119 696.877 489.926 696.538 489.785C696.208 489.643 695.849 489.521 695.463 489.417L694.105 489.049C693.332 488.832 692.733 488.53 692.308 488.144C691.893 487.757 691.686 487.224 691.686 486.545C691.686 485.989 691.818 485.513 692.082 485.117C692.356 484.711 692.737 484.4 693.228 484.183C693.728 483.966 694.317 483.858 694.996 483.858C695.656 483.858 696.222 483.957 696.693 484.155C697.174 484.343 697.552 484.612 697.825 484.961C698.108 485.3 698.268 485.701 698.306 486.163H697.457ZM589.295 504.96L593.355 511H592.336L588.687 505.554L589.295 504.96ZM587.272 511H586.423V500.999H587.272V511ZM587.06 508.242V507.068L592.053 500.999H593.086L587.06 508.242ZM597.067 511H596.218V500.999H597.067V511ZM594.676 501.735V500.999H598.595V501.735H594.676ZM594.676 511V510.264H598.595V511H594.676ZM607.86 511H606.912L601.324 502.414H601.211V511H600.377V500.999H601.339L606.912 509.571H607.025V500.999H607.86V511ZM609.785 500.999H615.414V501.735H610.633V505.625H615.089V506.36H610.633V510.264H615.485V511H609.785V500.999ZM616.065 500.999H623.449V501.735H620.181V511H619.333V501.735H616.065V500.999ZM626.59 511H625.741V500.999H626.59V511ZM624.199 501.735V500.999H628.118V501.735H624.199ZM624.199 511V510.264H628.118V511H624.199ZM636.284 503.899C636.161 503.135 635.855 502.565 635.365 502.187C634.884 501.81 634.242 501.621 633.441 501.621C632.385 501.621 631.564 501.98 630.979 502.697C630.404 503.413 630.117 504.507 630.117 505.978C630.117 507.459 630.404 508.562 630.979 509.288C631.564 510.005 632.385 510.363 633.441 510.363C634.242 510.363 634.884 510.175 635.365 509.798C635.855 509.42 636.166 508.855 636.298 508.1H637.189C637.029 509.09 636.633 509.845 636.001 510.363C635.369 510.882 634.516 511.141 633.441 511.141C632.045 511.141 630.998 510.694 630.3 509.798C629.612 508.892 629.268 507.619 629.268 505.978C629.268 504.347 629.612 503.088 630.3 502.201C630.998 501.306 632.045 500.858 633.441 500.858C634.11 500.858 634.704 500.971 635.223 501.197C635.751 501.423 636.18 501.763 636.51 502.216C636.85 502.668 637.071 503.229 637.175 503.899H636.284ZM643.51 511.736H637.399V511H643.51V511.736ZM649.602 503.163C649.527 502.579 649.268 502.173 648.824 501.947C648.39 501.721 647.815 501.607 647.099 501.607C646.278 501.607 645.67 501.768 645.274 502.088C644.878 502.4 644.68 502.862 644.68 503.475C644.68 503.833 644.746 504.125 644.878 504.352C645.019 504.578 645.198 504.762 645.415 504.903C645.632 505.035 645.863 505.144 646.108 505.229C646.354 505.304 646.58 505.37 646.787 505.427L647.877 505.724C648.15 505.799 648.447 505.893 648.768 506.007C649.088 506.12 649.39 506.275 649.673 506.473C649.965 506.671 650.201 506.926 650.38 507.237C650.559 507.548 650.649 507.935 650.649 508.397C650.649 508.925 650.522 509.402 650.267 509.826C650.013 510.25 649.621 510.585 649.093 510.83C648.565 511.066 647.891 511.184 647.07 511.184C645.976 511.184 645.137 510.962 644.552 510.519C643.968 510.076 643.638 509.477 643.562 508.723H644.439C644.496 509.175 644.642 509.524 644.878 509.769C645.113 510.015 645.415 510.189 645.783 510.293C646.16 510.387 646.589 510.434 647.07 510.434C647.938 510.434 648.607 510.269 649.079 509.939C649.56 509.6 649.8 509.076 649.8 508.369C649.8 507.945 649.697 507.61 649.489 507.365C649.291 507.119 649.022 506.926 648.683 506.785C648.353 506.643 647.994 506.521 647.608 506.417L646.25 506.049C645.477 505.832 644.878 505.53 644.453 505.144C644.038 504.757 643.831 504.224 643.831 503.545C643.831 502.989 643.963 502.513 644.227 502.117C644.5 501.711 644.882 501.4 645.373 501.183C645.873 500.966 646.462 500.858 647.141 500.858C647.801 500.858 648.367 500.957 648.838 501.155C649.319 501.343 649.697 501.612 649.97 501.961C650.253 502.3 650.413 502.701 650.451 503.163H649.602ZM651.507 500.999L654.534 506.091H654.604L657.632 500.999H658.551L654.972 506.827V511H654.166V506.827L650.53 500.999H651.507ZM664.564 503.163C664.489 502.579 664.229 502.173 663.786 501.947C663.352 501.721 662.777 501.607 662.06 501.607C661.24 501.607 660.632 501.768 660.235 502.088C659.839 502.4 659.641 502.862 659.641 503.475C659.641 503.833 659.707 504.125 659.839 504.352C659.981 504.578 660.16 504.762 660.377 504.903C660.594 505.035 660.825 505.144 661.07 505.229C661.315 505.304 661.542 505.37 661.749 505.427L662.838 505.724C663.112 505.799 663.409 505.893 663.729 506.007C664.05 506.12 664.352 506.275 664.635 506.473C664.927 506.671 665.163 506.926 665.342 507.237C665.521 507.548 665.611 507.935 665.611 508.397C665.611 508.925 665.483 509.402 665.229 509.826C664.974 510.25 664.583 510.585 664.055 510.83C663.527 511.066 662.852 511.184 662.032 511.184C660.938 511.184 660.099 510.962 659.514 510.519C658.929 510.076 658.599 509.477 658.524 508.723H659.401C659.457 509.175 659.604 509.524 659.839 509.769C660.075 510.015 660.377 510.189 660.745 510.293C661.122 510.387 661.551 510.434 662.032 510.434C662.9 510.434 663.569 510.269 664.041 509.939C664.522 509.6 664.762 509.076 664.762 508.369C664.762 507.945 664.658 507.61 664.451 507.365C664.253 507.119 663.984 506.926 663.645 506.785C663.314 506.643 662.956 506.521 662.569 506.417L661.211 506.049C660.438 505.832 659.839 505.53 659.415 505.144C659 504.757 658.793 504.224 658.793 503.545C658.793 502.989 658.925 502.513 659.189 502.117C659.462 501.711 659.844 501.4 660.334 501.183C660.834 500.966 661.424 500.858 662.103 500.858C662.763 500.858 663.329 500.957 663.8 501.155C664.281 501.343 664.658 501.612 664.932 501.961C665.215 502.3 665.375 502.701 665.413 503.163H664.564ZM665.482 500.999H672.866V501.735H669.598V511H668.749V501.735H665.482V500.999ZM673.596 500.999H679.226V501.735H674.445V505.625H678.901V506.36H674.445V510.264H679.297V511H673.596V500.999ZM681.795 500.999L685.473 509.571H685.572L689.25 500.999H690.099V511H689.278V503.022H689.208L685.742 511H685.261L681.795 503.022H681.739V511H680.918V500.999H681.795ZM697.457 503.163C697.382 502.579 697.123 502.173 696.679 501.947C696.246 501.721 695.67 501.607 694.954 501.607C694.133 501.607 693.525 501.768 693.129 502.088C692.733 502.4 692.535 502.862 692.535 503.475C692.535 503.833 692.601 504.125 692.733 504.352C692.874 504.578 693.053 504.762 693.27 504.903C693.487 505.035 693.718 505.144 693.963 505.229C694.209 505.304 694.435 505.37 694.642 505.427L695.732 505.724C696.005 505.799 696.302 505.893 696.623 506.007C696.943 506.12 697.245 506.275 697.528 506.473C697.82 506.671 698.056 506.926 698.235 507.237C698.415 507.548 698.504 507.935 698.504 508.397C698.504 508.925 698.377 509.402 698.122 509.826C697.868 510.25 697.476 510.585 696.948 510.83C696.42 511.066 695.746 511.184 694.925 511.184C693.831 511.184 692.992 510.962 692.407 510.519C691.823 510.076 691.493 509.477 691.417 508.723H692.294C692.351 509.175 692.497 509.524 692.733 509.769C692.969 510.015 693.27 510.189 693.638 510.293C694.015 510.387 694.444 510.434 694.925 510.434C695.793 510.434 696.462 510.269 696.934 509.939C697.415 509.6 697.655 509.076 697.655 508.369C697.655 507.945 697.552 507.61 697.344 507.365C697.146 507.119 696.877 506.926 696.538 506.785C696.208 506.643 695.849 506.521 695.463 506.417L694.105 506.049C693.332 505.832 692.733 505.53 692.308 505.144C691.893 504.757 691.686 504.224 691.686 503.545C691.686 502.989 691.818 502.513 692.082 502.117C692.356 501.711 692.737 501.4 693.228 501.183C693.728 500.966 694.317 500.858 694.996 500.858C695.656 500.858 696.222 500.957 696.693 501.155C697.174 501.343 697.552 501.612 697.825 501.961C698.108 502.3 698.268 502.701 698.306 503.163H697.457ZM615.463 517.999H618.801C619.603 517.999 620.249 518.126 620.739 518.381C621.229 518.626 621.588 518.975 621.814 519.428C622.04 519.88 622.154 520.418 622.154 521.04C622.154 521.663 622.04 522.205 621.814 522.667C621.588 523.129 621.229 523.488 620.739 523.742C620.258 523.997 619.621 524.124 618.829 524.124H616.311V528H615.463V517.999ZM618.773 523.389C619.433 523.389 619.947 523.294 620.315 523.106C620.682 522.908 620.937 522.634 621.078 522.285C621.229 521.927 621.305 521.512 621.305 521.04C621.305 520.559 621.229 520.149 621.078 519.81C620.937 519.461 620.682 519.197 620.315 519.018C619.947 518.829 619.423 518.735 618.744 518.735H616.311V523.389H618.773ZM625.264 528H624.415V517.999H625.264V528ZM622.873 518.735V517.999H626.791V518.735H622.873ZM622.873 528V527.264H626.791V528H622.873ZM632.121 522.512L635.035 517.999H635.968L632.672 523.106L632.121 522.512ZM632.305 523.389L629.362 528H628.429L631.739 522.809L632.305 523.389ZM631.654 523.035L628.415 517.999H629.405L632.248 522.384L632.701 522.95L636.025 528H635.006L632.022 523.318L631.654 523.035ZM637.332 517.999H642.962V518.735H638.181V522.625H642.637V523.36H638.181V527.264H643.033V528H637.332V517.999ZM644.654 517.999H645.503V527.264H650.27V528H644.654V517.999ZM656.358 520.163C656.282 519.579 656.023 519.173 655.58 518.947C655.146 518.721 654.571 518.607 653.854 518.607C653.034 518.607 652.425 518.768 652.029 519.088C651.633 519.4 651.435 519.862 651.435 520.475C651.435 520.833 651.501 521.125 651.633 521.352C651.775 521.578 651.954 521.762 652.171 521.903C652.388 522.035 652.619 522.144 652.864 522.229C653.109 522.304 653.335 522.37 653.543 522.427L654.632 522.724C654.906 522.799 655.203 522.893 655.523 523.007C655.844 523.12 656.146 523.275 656.429 523.473C656.721 523.671 656.957 523.926 657.136 524.237C657.315 524.548 657.405 524.935 657.405 525.397C657.405 525.925 657.277 526.402 657.023 526.826C656.768 527.25 656.377 527.585 655.849 527.83C655.321 528.066 654.646 528.184 653.826 528.184C652.732 528.184 651.893 527.962 651.308 527.519C650.723 527.076 650.393 526.477 650.318 525.723H651.195C651.251 526.175 651.398 526.524 651.633 526.769C651.869 527.015 652.171 527.189 652.539 527.293C652.916 527.387 653.345 527.434 653.826 527.434C654.693 527.434 655.363 527.269 655.835 526.939C656.315 526.6 656.556 526.076 656.556 525.369C656.556 524.945 656.452 524.61 656.245 524.365C656.047 524.119 655.778 523.926 655.438 523.785C655.108 523.643 654.75 523.521 654.363 523.417L653.005 523.049C652.232 522.832 651.633 522.53 651.209 522.144C650.794 521.757 650.587 521.224 650.587 520.545C650.587 519.989 650.719 519.513 650.983 519.117C651.256 518.711 651.638 518.4 652.128 518.183C652.628 517.966 653.218 517.858 653.897 517.858C654.557 517.858 655.123 517.957 655.594 518.155C656.075 518.343 656.452 518.612 656.726 518.961C657.009 519.3 657.169 519.701 657.207 520.163H656.358ZM663.431 528.736H657.321V528H663.431V528.736ZM664.092 517.999H669.793V518.735H664.941V522.625H669.326V523.36H664.941V528H664.092V517.999ZM678.867 522.992C678.867 524.643 678.509 525.916 677.792 526.812C677.085 527.698 676.043 528.141 674.666 528.141C673.289 528.141 672.242 527.698 671.525 526.812C670.818 525.916 670.465 524.643 670.465 522.992C670.465 521.342 670.818 520.074 671.525 519.187C672.242 518.301 673.289 517.858 674.666 517.858C676.043 517.858 677.085 518.301 677.792 519.187C678.509 520.074 678.867 521.342 678.867 522.992ZM678.018 522.992C678.018 521.493 677.74 520.39 677.184 519.682C676.637 518.975 675.797 518.621 674.666 518.621C673.534 518.621 672.69 518.975 672.134 519.682C671.587 520.39 671.313 521.493 671.313 522.992C671.313 524.492 671.587 525.6 672.134 526.317C672.69 527.024 673.534 527.378 674.666 527.378C675.797 527.378 676.637 527.024 677.184 526.317C677.74 525.6 678.018 524.492 678.018 522.992ZM684.751 523.417L687.354 528H686.406L683.902 523.572L684.751 523.417ZM683.648 523.148C684.317 523.148 684.836 523.063 685.204 522.893C685.571 522.724 685.831 522.474 685.982 522.144C686.133 521.814 686.208 521.408 686.208 520.927C686.208 520.437 686.133 520.031 685.982 519.711C685.831 519.39 685.571 519.15 685.204 518.989C684.836 518.82 684.317 518.735 683.648 518.735H681.215V523.148H683.648ZM683.718 523.884H681.215V528H680.366V517.999H683.704C684.515 517.999 685.166 518.117 685.656 518.353C686.147 518.579 686.5 518.909 686.717 519.343C686.944 519.777 687.057 520.305 687.057 520.927C687.057 521.418 687.005 521.847 686.901 522.214C686.797 522.582 686.618 522.893 686.364 523.148C686.109 523.393 685.765 523.577 685.331 523.7C684.907 523.822 684.369 523.884 683.718 523.884ZM689.449 517.999L693.127 526.571H693.226L696.904 517.999H697.752V528H696.932V520.022H696.861L693.396 528H692.915L689.449 520.022H689.392V528H688.572V517.999H689.449Z" fill="#FFFAEE"/>
<path d="M368.188 494.142C367.368 494.142 366.698 493.958 366.179 493.59C365.67 493.212 365.297 492.646 365.061 491.892C364.825 491.128 364.707 490.161 364.707 488.991C364.707 487.821 364.825 486.859 365.061 486.104C365.307 485.35 365.684 484.788 366.193 484.42C366.712 484.043 367.377 483.854 368.188 483.854C369.009 483.854 369.674 484.043 370.184 484.42C370.702 484.788 371.08 485.35 371.316 486.104C371.561 486.859 371.683 487.821 371.683 488.991C371.683 490.151 371.561 491.113 371.316 491.877C371.08 492.642 370.702 493.212 370.184 493.59C369.674 493.958 369.009 494.142 368.188 494.142ZM368.188 493.406C369.151 493.406 369.835 493.043 370.24 492.316C370.646 491.59 370.849 490.481 370.849 488.991C370.849 487.5 370.646 486.397 370.24 485.68C369.835 484.953 369.151 484.59 368.188 484.59C367.236 484.59 366.556 484.953 366.151 485.68C365.745 486.397 365.542 487.5 365.542 488.991C365.542 490.481 365.74 491.59 366.137 492.316C366.542 493.043 367.226 493.406 368.188 493.406ZM376.067 494H375.218V484.562L375.515 484.633L372.671 486.557V485.666L375.119 483.996H376.067V494ZM364.425 500.996H371.811V501.732H368.542V511H367.693V501.732H364.425V500.996ZM372.929 500.996L375.957 506.09H376.028L379.056 500.996H379.976L376.396 506.826V511H375.589V506.826L371.953 500.996H372.929ZM380.737 500.996H384.076C384.878 500.996 385.524 501.123 386.015 501.378C386.505 501.623 386.864 501.972 387.09 502.425C387.316 502.878 387.43 503.416 387.43 504.038C387.43 504.661 387.316 505.203 387.09 505.665C386.864 506.128 386.505 506.486 386.015 506.741C385.534 506.996 384.897 507.123 384.104 507.123H381.586V511H380.737V500.996ZM384.048 506.387C384.708 506.387 385.222 506.293 385.59 506.104C385.958 505.906 386.213 505.632 386.354 505.283C386.505 504.925 386.581 504.51 386.581 504.038C386.581 503.557 386.505 503.147 386.354 502.807C386.213 502.458 385.958 502.194 385.59 502.015C385.222 501.826 384.699 501.732 384.019 501.732H381.586V506.387H384.048ZM388.558 500.996H394.19V501.732H389.407V505.623H393.865V506.359H389.407V510.264H394.261V511H388.558V500.996ZM368.528 527.024H368.613L371.91 517.996H372.801L369.151 528H367.976L364.34 517.996H365.245L368.528 527.024ZM373.827 517.996H379.459V518.732H374.676V522.623H379.133V523.359H374.676V527.264H379.529V528H373.827V517.996ZM387.427 520.897C387.305 520.133 386.998 519.562 386.508 519.185C386.026 518.807 385.385 518.619 384.583 518.619C383.527 518.619 382.706 518.977 382.121 519.694C381.546 520.411 381.258 521.505 381.258 522.977C381.258 524.458 381.546 525.561 382.121 526.288C382.706 527.005 383.527 527.363 384.583 527.363C385.385 527.363 386.026 527.175 386.508 526.797C386.998 526.42 387.309 525.854 387.441 525.099H388.333C388.173 526.09 387.776 526.844 387.144 527.363C386.512 527.882 385.659 528.142 384.583 528.142C383.187 528.142 382.14 527.693 381.442 526.797C380.753 525.892 380.409 524.618 380.409 522.977C380.409 521.345 380.753 520.085 381.442 519.199C382.14 518.303 383.187 517.854 384.583 517.854C385.253 517.854 385.847 517.968 386.366 518.194C386.894 518.42 387.324 518.76 387.654 519.213C387.993 519.666 388.215 520.227 388.319 520.897H387.427ZM388.415 517.996H395.801V518.732H392.532V528H391.683V518.732H388.415V517.996ZM404.167 522.991C404.167 524.642 403.809 525.915 403.092 526.811C402.384 527.698 401.342 528.142 399.965 528.142C398.588 528.142 397.54 527.698 396.823 526.811C396.116 525.915 395.762 524.642 395.762 522.991C395.762 521.34 396.116 520.071 396.823 519.185C397.54 518.298 398.588 517.854 399.965 517.854C401.342 517.854 402.384 518.298 403.092 519.185C403.809 520.071 404.167 521.34 404.167 522.991ZM403.318 522.991C403.318 521.491 403.04 520.387 402.483 519.68C401.936 518.972 401.097 518.619 399.965 518.619C398.833 518.619 397.988 518.972 397.432 519.68C396.885 520.387 396.611 521.491 396.611 522.991C396.611 524.491 396.885 525.599 397.432 526.316C397.988 527.024 398.833 527.377 399.965 527.377C401.097 527.377 401.936 527.024 402.483 526.316C403.04 525.599 403.318 524.491 403.318 522.991ZM410.053 523.415L412.657 528H411.709L409.204 523.571L410.053 523.415ZM408.949 523.147C409.619 523.147 410.138 523.062 410.506 522.892C410.874 522.722 411.133 522.472 411.284 522.142C411.435 521.812 411.511 521.406 411.511 520.925C411.511 520.434 411.435 520.029 411.284 519.708C411.133 519.387 410.874 519.147 410.506 518.986C410.138 518.817 409.619 518.732 408.949 518.732H406.516V523.147H408.949ZM409.02 523.882H406.516V528H405.667V517.996H409.006C409.817 517.996 410.468 518.114 410.959 518.35C411.449 518.576 411.803 518.906 412.02 519.34C412.246 519.774 412.36 520.302 412.36 520.925C412.36 521.416 412.308 521.845 412.204 522.213C412.1 522.581 411.921 522.892 411.666 523.147C411.412 523.392 411.067 523.576 410.633 523.698C410.209 523.821 409.671 523.882 409.02 523.882Z" fill="#FFFAEE"/>
<path d="M445.993 529C445.819 529 445.697 528.965 445.627 528.895C445.558 528.826 445.523 528.756 445.523 528.686C445.523 528.512 445.654 528.399 445.915 528.346L446.333 528.268C446.891 528.163 447.327 527.998 447.64 527.771C447.971 527.527 448.25 527.144 448.477 526.621L451.091 520.399C451.178 520.208 451.23 520.016 451.248 519.824C451.283 519.615 451.248 519.397 451.143 519.171L447.876 511.93C447.701 511.529 447.51 511.259 447.3 511.119C447.109 510.98 446.9 510.893 446.673 510.858L446.176 510.779C445.898 510.727 445.758 510.614 445.758 510.44C445.758 510.265 445.906 510.178 446.203 510.178H450.803C451.117 510.178 451.274 510.265 451.274 510.44C451.274 510.614 451.126 510.727 450.83 510.779L450.333 510.858C450.037 510.91 449.827 511.015 449.705 511.171C449.601 511.328 449.627 511.581 449.784 511.93L452.267 517.498C452.337 517.655 452.415 517.733 452.503 517.733C452.607 517.733 452.694 517.655 452.764 517.498L455.012 512.191C455.169 511.808 455.221 511.529 455.169 511.354C455.117 511.163 454.942 511.032 454.646 510.962L453.914 510.806C453.618 510.736 453.47 510.614 453.47 510.44C453.47 510.265 453.627 510.178 453.94 510.178H457.94C458.132 510.178 458.254 510.213 458.306 510.283C458.376 510.335 458.411 510.405 458.411 510.492C458.411 510.666 458.28 510.779 458.018 510.832L457.6 510.91C457.165 510.98 456.799 511.145 456.502 511.407C456.206 511.651 455.945 512.034 455.718 512.557L453.235 518.36C453.147 518.587 453.095 518.805 453.078 519.014C453.078 519.223 453.139 519.45 453.261 519.694L456.633 527.249C456.825 527.667 457.016 527.937 457.208 528.059C457.417 528.181 457.626 528.259 457.835 528.294L458.332 528.373C458.628 528.425 458.777 528.547 458.777 528.739C458.777 528.913 458.62 529 458.306 529H453.679C453.365 529 453.208 528.895 453.208 528.686C453.208 528.529 453.348 528.425 453.627 528.373L454.15 528.294C454.446 528.259 454.655 528.163 454.777 528.007C454.899 527.832 454.89 527.58 454.751 527.249L452.058 521.262C451.988 521.105 451.901 521.027 451.797 521.027C451.71 521.027 451.631 521.105 451.562 521.262L449.209 526.987C449.052 527.371 449 527.658 449.052 527.85C449.104 528.024 449.278 528.146 449.575 528.216L450.307 528.373C450.603 528.442 450.751 528.564 450.751 528.739C450.751 528.913 450.594 529 450.281 529H445.993ZM458.118 529C457.857 529 457.726 528.904 457.726 528.712C457.726 528.556 457.839 528.451 458.066 528.399L458.667 528.294C459.033 528.224 459.268 528.129 459.373 528.007C459.495 527.885 459.556 527.641 459.556 527.275V511.903C459.556 511.537 459.495 511.293 459.373 511.171C459.268 511.049 459.033 510.954 458.667 510.884L458.066 510.779C457.839 510.727 457.726 510.623 457.726 510.466C457.726 510.274 457.857 510.178 458.118 510.178H462.85C463.111 510.178 463.242 510.274 463.242 510.466C463.242 510.623 463.129 510.727 462.902 510.779L462.301 510.884C461.935 510.954 461.691 511.049 461.569 511.171C461.464 511.293 461.412 511.537 461.412 511.903V527.275C461.412 527.641 461.464 527.885 461.569 528.007C461.691 528.129 461.935 528.224 462.301 528.294L462.902 528.399C463.129 528.451 463.242 528.556 463.242 528.712C463.242 528.904 463.111 529 462.85 529H458.118ZM468.68 529.261C468.61 529.261 468.532 529.235 468.445 529.183C468.358 529.131 468.297 529.017 468.262 528.843L464.131 512.269C464.009 511.781 463.87 511.442 463.713 511.25C463.574 511.058 463.33 510.927 462.981 510.858L462.589 510.779C462.345 510.727 462.223 510.614 462.223 510.44C462.223 510.265 462.354 510.178 462.615 510.178H467.085C467.329 510.178 467.451 510.274 467.451 510.466C467.451 510.657 467.303 510.762 467.007 510.779L466.51 510.832C466.214 510.849 466.022 510.945 465.935 511.119C465.865 511.276 465.874 511.546 465.961 511.93L468.994 524.504C469.028 524.608 469.081 524.661 469.15 524.661C469.238 524.661 469.29 524.608 469.307 524.504L472.314 512.479C472.558 511.485 472.296 510.936 471.529 510.832L471.137 510.779C470.841 510.727 470.693 510.623 470.693 510.466C470.693 510.274 470.815 510.178 471.059 510.178H474.719C474.98 510.178 475.111 510.265 475.111 510.44C475.111 510.614 474.989 510.727 474.745 510.779L474.353 510.858C474.022 510.927 473.76 511.102 473.568 511.381C473.394 511.642 473.246 512.017 473.124 512.505L469.072 528.843C469.037 529.017 468.976 529.131 468.889 529.183C468.819 529.235 468.75 529.261 468.68 529.261Z" fill="#FFFAEE"/>
<path fill-rule="evenodd" clip-rule="evenodd" d="M501.454 525.776V528.59C501.145 528.619 500.833 528.636 500.511 528.636C495.274 528.636 491 524.369 491 519.14C491 513.911 495.274 509.648 500.511 509.648C500.828 509.648 501.145 509.665 501.454 509.694V512.508C501.145 512.463 500.833 512.442 500.511 512.442C496.813 512.442 493.798 515.456 493.798 519.14C493.798 522.824 496.817 525.838 500.511 525.838C500.828 525.838 501.145 525.813 501.454 525.772V525.776Z" fill="#FFFAEE"/>
<path fill-rule="evenodd" clip-rule="evenodd" d="M505.507 517.691H510.999V520.593H505.507C506.174 523.59 508.859 525.843 512.058 525.843C512.375 525.843 512.691 525.818 513 525.776V528.59C512.687 528.619 512.375 528.636 512.058 528.636C506.816 528.636 502.551 524.369 502.551 519.144C502.551 513.92 506.816 509.648 512.058 509.648C512.375 509.648 512.691 509.665 513 509.694V512.508C512.687 512.463 512.375 512.442 512.058 512.442C508.859 512.442 506.17 514.694 505.507 517.691Z" fill="#FFFAEE"/>
<rect x="273.5" y="471.5" width="532" height="68" rx="34" stroke="#FFFAEE" stroke-dasharray="10 10"/>
<path d="M318 482C305.317 482 295 492.314 295 505C295 517.686 305.317 528 318 528C330.683 528 341 517.686 341 505C341 492.314 330.683 482 318 482ZM316.983 485.754V494.368C314.921 494.332 312.923 494.18 311.042 493.934C312.982 490.325 315.406 487.439 316.983 485.754ZM316.983 496.733V503.821H308.004C308.18 501.109 308.927 498.519 309.961 496.162C312.17 496.502 314.542 496.697 316.989 496.74L316.983 496.733ZM316.983 506.179V513.267C314.536 513.31 312.164 513.506 309.956 513.846C308.927 511.488 308.174 508.898 308.004 506.186H316.983V506.179ZM316.983 515.625V524.246C315.406 522.561 312.976 519.675 311.036 516.066C312.917 515.813 314.921 515.661 316.983 515.625ZM319.022 524.239V515.625C321.067 515.661 323.065 515.82 324.958 516.081C323.018 519.682 320.6 522.561 319.022 524.246V524.239ZM319.022 513.26V506.172H328.002C327.826 508.891 327.078 511.481 326.044 513.838C323.836 513.498 321.47 513.296 319.022 513.253V513.26ZM319.022 503.814V496.726C321.47 496.682 323.836 496.48 326.044 496.14C327.078 498.498 327.832 501.094 328.002 503.807H319.022V503.814ZM319.022 494.368V485.754C320.6 487.439 323.018 490.318 324.958 493.919C323.065 494.18 321.067 494.332 319.022 494.375V494.368ZM320.933 484.568C326.074 485.276 330.625 487.837 333.867 491.533C332.068 492.386 329.766 493.073 327.178 493.558C325.244 489.674 322.738 486.542 320.933 484.568ZM308.816 493.58C306.228 493.095 303.938 492.408 302.121 491.547C305.364 487.837 309.92 485.276 315.073 484.56C313.268 486.542 310.756 489.681 308.822 493.572L308.816 493.58ZM307.829 495.778C306.83 498.245 306.112 500.95 305.954 503.814H297.074C297.296 499.966 298.593 496.4 300.673 493.399C302.583 494.397 305.031 495.207 307.829 495.778ZM305.954 506.179C306.112 509.043 306.83 511.748 307.829 514.214C305.037 514.786 302.589 515.589 300.673 516.594C298.593 513.592 297.296 510.027 297.074 506.179H305.948H305.954ZM308.816 516.413C310.756 520.304 313.262 523.443 315.067 525.425C309.915 524.709 305.358 522.149 302.116 518.438C303.938 517.578 306.223 516.891 308.811 516.406L308.816 516.413ZM327.172 516.435C329.766 516.919 332.062 517.614 333.861 518.46C330.619 522.156 326.068 524.716 320.927 525.425C322.732 523.443 325.232 520.312 327.172 516.435ZM328.171 514.222C329.176 511.748 329.894 509.043 330.052 506.172H338.926C338.704 510.027 337.401 513.6 335.316 516.608C333.411 515.603 330.963 514.793 328.171 514.222ZM330.052 503.814C329.894 500.95 329.176 498.237 328.171 495.764C330.963 495.192 333.405 494.382 335.316 493.377C337.401 496.386 338.704 499.959 338.926 503.814H330.052Z" fill="#FFFAEE"/>
<path d="M542.97 527.888V521.675H541.342V527.875C541.203 528.722 540.411 529 540.411 529H541.361H542.949H543.898C543.898 529 543.115 528.725 542.97 527.888Z" fill="#FFFAEE"/>
<path d="M548.213 519.713V518.763C548.213 518.763 547.938 519.544 547.105 519.691H546.112V517.1C546.112 515.59 545.402 514.379 544.058 513.597C543.734 513.41 543.37 513.246 542.97 513.106V511.929C542.97 510.314 541.631 509 539.987 509H537.76C535.816 509 534.234 510.552 534.234 512.459V512.881C534.603 512.705 535.187 512.477 535.865 512.392C535.902 511.414 536.737 510.628 537.76 510.628H539.987C540.734 510.628 541.341 511.212 541.341 511.93V512.706C540.54 512.575 539.642 512.508 538.65 512.508C534.131 512.508 531.095 514.353 531.095 517.1V519.691H530.108C529.275 519.544 529.001 518.763 529.001 518.763V519.691H529V521.319H529.001V522.251C529.001 522.251 529.279 521.456 530.129 521.319H531.095V525.132C530.944 525.958 530.17 526.231 530.17 526.231H531.095V526.234H532.723V526.231H533.657C533.657 526.231 532.859 525.952 532.724 525.098L532.723 525.157V521.319H534.234V528.514L534.225 527.867C534.09 528.721 533.292 529 533.292 529H534.242V528.985H535.83V529H536.779C536.779 529 536.031 528.736 535.862 527.942V521.318H544.484V525.139C544.33 525.959 543.56 526.231 543.56 526.231H547.048C547.048 526.231 546.25 525.951 546.115 525.097L546.112 525.272V521.318H547.084C547.934 521.455 548.213 522.25 548.213 522.25V521.301H548.207V519.713H548.213ZM544.485 519.691H542.97V515.353C542.74 514.996 541.671 514.74 541.342 514.748V519.691H532.723V517.1C532.723 516.268 533.278 515.557 534.234 515.039V519.257H535.863V514.439C536.676 514.243 537.616 514.136 538.65 514.136C542.522 514.136 544.485 515.133 544.485 517.1V519.691V519.691Z" fill="#FFFAEE"/>
</svg>
