<svg width="1080" height="1080" viewBox="0 0 1080 1080" fill="none" xmlns="http://www.w3.org/2000/svg">
<rect width="1080" height="1080" fill="#191919"/>
<path d="M368.935 521.033C368.935 477.599 375.503 437.869 386.317 407.341L386.317 634.725C375.503 604.197 368.935 564.467 368.935 521.033Z" stroke="#FFFAEE" stroke-width="0.463073"/>
<path d="M336.349 521.033C336.349 477.599 342.917 437.869 353.731 407.341L353.731 634.725C342.917 604.197 336.349 564.467 336.349 521.033Z" stroke="#FFFAEE" stroke-width="0.463073"/>
<path d="M303.763 521.035C303.763 477.601 310.331 437.871 321.145 407.343L321.145 634.727C310.331 604.199 303.763 564.469 303.763 521.035Z" stroke="#FFFAEE" stroke-width="0.463073"/>
<path d="M710.47 521.033C710.47 564.468 703.902 604.198 693.088 634.727L693.088 407.34C703.902 437.868 710.47 477.599 710.47 521.033Z" stroke="#FFFAEE" stroke-width="0.463073"/>
<path d="M743.056 521.035C743.056 564.47 736.488 604.2 725.674 634.729L725.674 407.342C736.488 437.87 743.056 477.6 743.056 521.035Z" stroke="#FFFAEE" stroke-width="0.463073"/>
<path d="M775.642 521.031C775.642 564.466 769.074 604.196 758.26 634.725L758.26 407.338C769.074 437.866 775.642 477.597 775.642 521.031Z" stroke="#FFFAEE" stroke-width="0.463073"/>
<path d="M620.857 413.696C621.561 413.696 622.132 413.125 622.132 412.421C622.132 411.716 621.561 411.146 620.857 411.146C620.153 411.146 619.582 411.716 619.582 412.421C619.582 413.125 620.153 413.696 620.857 413.696Z" fill="#FFFAEE"/>
<path d="M620.857 417.761C621.561 417.761 622.132 417.19 622.132 416.486C622.132 415.782 621.561 415.211 620.857 415.211C620.153 415.211 619.582 415.782 619.582 416.486C619.582 417.19 620.153 417.761 620.857 417.761Z" fill="#FFFAEE"/>
<path d="M620.857 421.832C621.561 421.832 622.132 421.261 622.132 420.557C622.132 419.853 621.561 419.282 620.857 419.282C620.153 419.282 619.582 419.853 619.582 420.557C619.582 421.261 620.153 421.832 620.857 421.832Z" fill="#FFFAEE"/>
<path d="M620.857 425.905C621.561 425.905 622.132 425.335 622.132 424.63C622.132 423.926 621.561 423.355 620.857 423.355C620.153 423.355 619.582 423.926 619.582 424.63C619.582 425.335 620.153 425.905 620.857 425.905Z" fill="#FFFAEE"/>
<path d="M620.857 429.977C621.561 429.977 622.132 429.406 622.132 428.702C622.132 427.998 621.561 427.427 620.857 427.427C620.153 427.427 619.582 427.998 619.582 428.702C619.582 429.406 620.153 429.977 620.857 429.977Z" fill="#FFFAEE"/>
<path d="M603.231 423.863C603.935 423.863 604.506 423.293 604.506 422.588C604.506 421.884 603.935 421.313 603.231 421.313C602.527 421.313 601.956 421.884 601.956 422.588C601.956 423.293 602.527 423.863 603.231 423.863Z" fill="#FFFAEE"/>
<path d="M606.755 425.905C607.459 425.905 608.03 425.335 608.03 424.63C608.03 423.926 607.459 423.355 606.755 423.355C606.05 423.355 605.479 423.926 605.479 424.63C605.479 425.335 606.05 425.905 606.755 425.905Z" fill="#FFFAEE"/>
<path d="M610.278 427.937C610.983 427.937 611.553 427.366 611.553 426.662C611.553 425.958 610.983 425.387 610.278 425.387C609.574 425.387 609.003 425.958 609.003 426.662C609.003 427.366 609.574 427.937 610.278 427.937Z" fill="#FFFAEE"/>
<path d="M613.802 429.977C614.506 429.977 615.077 429.406 615.077 428.702C615.077 427.998 614.506 427.427 613.802 427.427C613.098 427.427 612.527 427.998 612.527 428.702C612.527 429.406 613.098 429.977 613.802 429.977Z" fill="#FFFAEE"/>
<path d="M617.326 432.009C618.03 432.009 618.601 431.438 618.601 430.734C618.601 430.03 618.03 429.459 617.326 429.459C616.621 429.459 616.051 430.03 616.051 430.734C616.051 431.438 616.621 432.009 617.326 432.009Z" fill="#FFFAEE"/>
<path d="M603.231 444.219C603.935 444.219 604.506 443.648 604.506 442.944C604.506 442.24 603.935 441.669 603.231 441.669C602.527 441.669 601.956 442.24 601.956 442.944C601.956 443.648 602.527 444.219 603.231 444.219Z" fill="#FFFAEE"/>
<path d="M606.755 442.186C607.459 442.186 608.03 441.615 608.03 440.911C608.03 440.207 607.459 439.636 606.755 439.636C606.05 439.636 605.479 440.207 605.479 440.911C605.479 441.615 606.05 442.186 606.755 442.186Z" fill="#FFFAEE"/>
<path d="M610.278 440.147C610.983 440.147 611.553 439.576 611.553 438.872C611.553 438.168 610.983 437.597 610.278 437.597C609.574 437.597 609.003 438.168 609.003 438.872C609.003 439.576 609.574 440.147 610.278 440.147Z" fill="#FFFAEE"/>
<path d="M613.802 438.113C614.506 438.113 615.077 437.543 615.077 436.838C615.077 436.134 614.506 435.563 613.802 435.563C613.098 435.563 612.527 436.134 612.527 436.838C612.527 437.543 613.098 438.113 613.802 438.113Z" fill="#FFFAEE"/>
<path d="M617.326 436.082C618.03 436.082 618.601 435.511 618.601 434.807C618.601 434.103 618.03 433.532 617.326 433.532C616.621 433.532 616.051 434.103 616.051 434.807C616.051 435.511 616.621 436.082 617.326 436.082Z" fill="#FFFAEE"/>
<path d="M620.857 454.396C621.561 454.396 622.132 453.825 622.132 453.121C622.132 452.417 621.561 451.846 620.857 451.846C620.153 451.846 619.582 452.417 619.582 453.121C619.582 453.825 620.153 454.396 620.857 454.396Z" fill="#FFFAEE"/>
<path d="M620.857 450.323C621.561 450.323 622.132 449.753 622.132 449.048C622.132 448.344 621.561 447.773 620.857 447.773C620.153 447.773 619.582 448.344 619.582 449.048C619.582 449.753 620.153 450.323 620.857 450.323Z" fill="#FFFAEE"/>
<path d="M620.857 446.259C621.561 446.259 622.132 445.688 622.132 444.984C622.132 444.28 621.561 443.709 620.857 443.709C620.153 443.709 619.582 444.28 619.582 444.984C619.582 445.688 620.153 446.259 620.857 446.259Z" fill="#FFFAEE"/>
<path d="M620.857 442.186C621.561 442.186 622.132 441.615 622.132 440.911C622.132 440.207 621.561 439.636 620.857 439.636C620.153 439.636 619.582 440.207 619.582 440.911C619.582 441.615 620.153 442.186 620.857 442.186Z" fill="#FFFAEE"/>
<path d="M620.857 438.113C621.561 438.113 622.132 437.543 622.132 436.838C622.132 436.134 621.561 435.563 620.857 435.563C620.153 435.563 619.582 436.134 619.582 436.838C619.582 437.543 620.153 438.113 620.857 438.113Z" fill="#FFFAEE"/>
<path d="M638.475 444.219C639.179 444.219 639.75 443.648 639.75 442.944C639.75 442.24 639.179 441.669 638.475 441.669C637.771 441.669 637.2 442.24 637.2 442.944C637.2 443.648 637.771 444.219 638.475 444.219Z" fill="#FFFAEE"/>
<path d="M634.952 442.186C635.656 442.186 636.227 441.615 636.227 440.911C636.227 440.207 635.656 439.636 634.952 439.636C634.248 439.636 633.677 440.207 633.677 440.911C633.677 441.615 634.248 442.186 634.952 442.186Z" fill="#FFFAEE"/>
<path d="M631.428 440.147C632.132 440.147 632.703 439.576 632.703 438.872C632.703 438.168 632.132 437.597 631.428 437.597C630.724 437.597 630.153 438.168 630.153 438.872C630.153 439.576 630.724 440.147 631.428 440.147Z" fill="#FFFAEE"/>
<path d="M627.904 438.113C628.608 438.113 629.179 437.543 629.179 436.838C629.179 436.134 628.608 435.563 627.904 435.563C627.2 435.563 626.629 436.134 626.629 436.838C626.629 437.543 627.2 438.113 627.904 438.113Z" fill="#FFFAEE"/>
<path d="M624.381 436.082C625.085 436.082 625.656 435.511 625.656 434.807C625.656 434.103 625.085 433.532 624.381 433.532C623.677 433.532 623.106 434.103 623.106 434.807C623.106 435.511 623.677 436.082 624.381 436.082Z" fill="#FFFAEE"/>
<path d="M638.475 423.863C639.179 423.863 639.75 423.293 639.75 422.588C639.75 421.884 639.179 421.313 638.475 421.313C637.771 421.313 637.2 421.884 637.2 422.588C637.2 423.293 637.771 423.863 638.475 423.863Z" fill="#FFFAEE"/>
<path d="M634.952 425.905C635.656 425.905 636.227 425.335 636.227 424.63C636.227 423.926 635.656 423.355 634.952 423.355C634.248 423.355 633.677 423.926 633.677 424.63C633.677 425.335 634.248 425.905 634.952 425.905Z" fill="#FFFAEE"/>
<path d="M631.428 427.937C632.132 427.937 632.703 427.366 632.703 426.662C632.703 425.958 632.132 425.387 631.428 425.387C630.724 425.387 630.153 425.958 630.153 426.662C630.153 427.366 630.724 427.937 631.428 427.937Z" fill="#FFFAEE"/>
<path d="M627.904 429.977C628.608 429.977 629.179 429.406 629.179 428.702C629.179 427.998 628.608 427.427 627.904 427.427C627.2 427.427 626.629 427.998 626.629 428.702C626.629 429.406 627.2 429.977 627.904 429.977Z" fill="#FFFAEE"/>
<path d="M624.381 432.009C625.085 432.009 625.656 431.438 625.656 430.734C625.656 430.03 625.085 429.459 624.381 429.459C623.677 429.459 623.106 430.03 623.106 430.734C623.106 431.438 623.677 432.009 624.381 432.009Z" fill="#FFFAEE"/>
<path d="M620.857 434.042C621.561 434.042 622.132 433.471 622.132 432.767C622.132 432.063 621.561 431.492 620.857 431.492C620.153 431.492 619.582 432.063 619.582 432.767C619.582 433.471 620.153 434.042 620.857 434.042Z" fill="#FFFAEE"/>
<path d="M477.694 514.265V455.211H490.218C495.084 455.211 498.761 456.538 501.249 459.193C503.792 461.847 505.064 465.607 505.064 470.472V498.091C505.064 503.621 503.709 507.712 501 510.366C498.346 512.965 494.503 514.265 489.471 514.265H477.694ZM486.154 463.174V506.302H490.052C492.43 506.302 494.116 505.722 495.111 504.561C496.107 503.344 496.604 501.464 496.604 498.921V470.472C496.604 468.15 496.134 466.353 495.194 465.081C494.254 463.81 492.54 463.174 490.052 463.174H486.154ZM537.061 472.214H528.601V470.306C528.601 468.371 528.131 466.712 527.191 465.33C526.306 463.892 524.786 463.174 522.629 463.174C521.468 463.174 520.528 463.395 519.809 463.837C519.09 464.28 518.51 464.832 518.068 465.496C517.625 466.215 517.321 467.044 517.155 467.984C516.989 468.869 516.906 469.809 516.906 470.804C516.906 471.965 516.934 472.933 516.989 473.707C517.1 474.481 517.321 475.172 517.653 475.781C517.985 476.389 518.455 476.914 519.063 477.356C519.726 477.799 520.611 478.241 521.717 478.683L528.186 481.255C530.066 481.973 531.587 482.83 532.748 483.826C533.909 484.766 534.821 485.872 535.485 487.143C536.093 488.47 536.508 489.991 536.729 491.705C536.95 493.364 537.061 495.271 537.061 497.428C537.061 499.916 536.812 502.238 536.314 504.395C535.817 506.496 535.015 508.293 533.909 509.786C532.748 511.334 531.227 512.551 529.347 513.435C527.467 514.32 525.173 514.762 522.463 514.762C520.418 514.762 518.51 514.403 516.741 513.684C514.971 512.965 513.451 511.97 512.179 510.698C510.907 509.426 509.884 507.961 509.11 506.302C508.391 504.588 508.032 502.736 508.032 500.745V497.594H516.492V500.248C516.492 501.796 516.934 503.206 517.819 504.478C518.759 505.694 520.307 506.302 522.463 506.302C523.901 506.302 525.007 506.109 525.781 505.722C526.61 505.279 527.246 504.671 527.689 503.897C528.131 503.123 528.38 502.211 528.435 501.16C528.546 500.054 528.601 498.838 528.601 497.511C528.601 495.963 528.546 494.691 528.435 493.696C528.324 492.7 528.103 491.899 527.772 491.29C527.384 490.682 526.859 490.184 526.196 489.797C525.587 489.41 524.758 488.996 523.707 488.553L517.653 486.065C514.003 484.572 511.543 482.609 510.271 480.176C509.055 477.688 508.447 474.592 508.447 470.887C508.447 468.675 508.751 466.574 509.359 464.584C509.967 462.593 510.879 460.879 512.096 459.441C513.257 458.004 514.722 456.87 516.492 456.041C518.316 455.156 520.473 454.714 522.961 454.714C525.062 454.714 526.97 455.101 528.684 455.875C530.453 456.649 531.974 457.672 533.246 458.944C535.789 461.598 537.061 464.639 537.061 468.067V472.214ZM539.57 469.145C539.57 466.768 539.984 464.667 540.814 462.842C541.643 461.017 542.749 459.497 544.131 458.28C545.458 457.119 546.951 456.234 548.61 455.626C550.324 455.018 552.038 454.714 553.752 454.714C555.467 454.714 557.153 455.018 558.812 455.626C560.526 456.234 562.074 457.119 563.456 458.28C564.783 459.497 565.862 461.017 566.691 462.842C567.52 464.667 567.935 466.768 567.935 469.145V472.131H559.475V469.145C559.475 467.099 558.895 465.607 557.734 464.667C556.628 463.671 555.301 463.174 553.752 463.174C552.204 463.174 550.85 463.671 549.688 464.667C548.583 465.607 548.03 467.099 548.03 469.145V500.331C548.03 502.377 548.583 503.897 549.688 504.892C550.85 505.832 552.204 506.302 553.752 506.302C555.301 506.302 556.628 505.832 557.734 504.892C558.895 503.897 559.475 502.377 559.475 500.331V489.217H552.757V481.752H567.935V500.331C567.935 502.819 567.52 504.948 566.691 506.717C565.862 508.487 564.783 509.952 563.456 511.113C562.074 512.329 560.526 513.242 558.812 513.85C557.153 514.458 555.467 514.762 553.752 514.762C552.038 514.762 550.324 514.458 548.61 513.85C546.951 513.242 545.458 512.329 544.131 511.113C542.749 509.952 541.643 508.487 540.814 506.717C539.984 504.948 539.57 502.819 539.57 500.331V469.145ZM571.732 514.265V455.211H579.86L592.633 490.793H592.799V455.211H601.259V514.265H593.297L580.358 478.766H580.192V514.265H571.732Z" fill="#FFFAEE"/>
<path d="M422.669 602.214C422.077 602.214 421.523 602.106 421.006 601.89C420.499 601.674 420.053 601.364 419.668 600.96C419.292 600.556 418.991 600.068 418.766 599.495C418.55 598.922 418.442 598.273 418.442 597.55C418.442 596.836 418.55 596.193 418.766 595.62C418.991 595.037 419.292 594.544 419.668 594.14C420.053 593.736 420.499 593.426 421.006 593.21C421.523 592.994 422.077 592.886 422.669 592.886C423.261 592.886 423.81 592.994 424.318 593.21C424.834 593.426 425.281 593.736 425.656 594.14C426.041 594.544 426.342 595.037 426.558 595.62C426.784 596.193 426.896 596.836 426.896 597.55C426.896 598.273 426.784 598.922 426.558 599.495C426.342 600.068 426.041 600.556 425.656 600.96C425.281 601.364 424.834 601.674 424.318 601.89C423.81 602.106 423.261 602.214 422.669 602.214ZM422.669 601.439C423.148 601.439 423.59 601.35 423.994 601.171C424.407 600.993 424.759 600.749 425.05 600.439C425.351 600.119 425.586 599.748 425.755 599.325C425.924 598.903 426.009 598.452 426.009 597.973V597.127C426.009 596.648 425.924 596.197 425.755 595.775C425.586 595.352 425.351 594.985 425.05 594.675C424.759 594.356 424.407 594.107 423.994 593.929C423.59 593.75 423.148 593.661 422.669 593.661C422.19 593.661 421.744 593.75 421.33 593.929C420.926 594.107 420.574 594.356 420.273 594.675C419.982 594.985 419.752 595.352 419.583 595.775C419.414 596.197 419.329 596.648 419.329 597.127V597.973C419.329 598.452 419.414 598.903 419.583 599.325C419.752 599.748 419.982 600.119 420.273 600.439C420.574 600.749 420.926 600.993 421.33 601.171C421.744 601.35 422.19 601.439 422.669 601.439ZM422.739 600.058C422.054 600.058 421.518 599.833 421.133 599.382C420.757 598.922 420.569 598.311 420.569 597.55C420.569 596.78 420.762 596.169 421.147 595.718C421.532 595.267 422.063 595.042 422.739 595.042C423.19 595.042 423.557 595.145 423.839 595.352C424.13 595.558 424.355 595.831 424.515 596.169L423.768 596.578C423.665 596.352 423.533 596.174 423.374 596.042C423.214 595.911 423.002 595.845 422.739 595.845C422.373 595.845 422.087 595.967 421.88 596.211C421.683 596.446 421.584 596.756 421.584 597.141V597.945C421.584 598.339 421.683 598.658 421.88 598.903C422.077 599.138 422.368 599.255 422.754 599.255C423.035 599.255 423.261 599.185 423.43 599.044C423.599 598.903 423.749 598.715 423.881 598.48L424.585 598.917C424.426 599.246 424.191 599.518 423.881 599.734C423.58 599.95 423.2 600.058 422.739 600.058ZM448.397 602.468H441.83V601.256L445.114 598.297C445.593 597.865 445.987 597.423 446.297 596.972C446.607 596.512 446.762 596.028 446.762 595.521V595.352C446.762 594.76 446.607 594.304 446.297 593.985C445.987 593.656 445.527 593.492 444.916 593.492C444.315 593.492 443.85 593.647 443.521 593.957C443.202 594.257 442.962 594.661 442.803 595.169L441.746 594.774C441.84 594.483 441.967 594.201 442.126 593.929C442.295 593.647 442.507 593.398 442.76 593.182C443.014 592.966 443.319 592.792 443.676 592.66C444.043 592.529 444.465 592.463 444.945 592.463C445.433 592.463 445.865 592.534 446.241 592.674C446.626 592.815 446.946 593.013 447.199 593.266C447.462 593.52 447.659 593.821 447.791 594.168C447.932 594.516 448.002 594.896 448.002 595.309C448.002 595.685 447.946 596.038 447.833 596.366C447.73 596.695 447.58 597.01 447.382 597.31C447.194 597.611 446.964 597.907 446.692 598.198C446.429 598.48 446.133 598.762 445.804 599.044L443.056 601.439H448.397V602.468ZM452.52 602.637C451.919 602.637 451.402 602.524 450.97 602.299C450.538 602.064 450.181 601.73 449.899 601.298C449.617 600.866 449.411 600.335 449.279 599.706C449.148 599.077 449.082 598.358 449.082 597.55C449.082 596.751 449.148 596.038 449.279 595.408C449.411 594.769 449.617 594.234 449.899 593.802C450.181 593.37 450.538 593.041 450.97 592.815C451.402 592.581 451.919 592.463 452.52 592.463C453.121 592.463 453.638 592.581 454.07 592.815C454.502 593.041 454.859 593.37 455.141 593.802C455.423 594.234 455.63 594.769 455.761 595.408C455.893 596.038 455.958 596.751 455.958 597.55C455.958 598.358 455.893 599.077 455.761 599.706C455.63 600.335 455.423 600.866 455.141 601.298C454.859 601.73 454.502 602.064 454.07 602.299C453.638 602.524 453.121 602.637 452.52 602.637ZM452.52 601.608C452.915 601.608 453.253 601.533 453.535 601.383C453.816 601.223 454.042 601.002 454.211 600.72C454.389 600.439 454.521 600.1 454.606 599.706C454.69 599.302 454.732 598.851 454.732 598.353V596.747C454.732 596.258 454.69 595.812 454.606 595.408C454.521 595.004 454.389 594.661 454.211 594.379C454.042 594.098 453.816 593.882 453.535 593.731C453.253 593.572 452.915 593.492 452.52 593.492C452.126 593.492 451.787 593.572 451.506 593.731C451.224 593.882 450.994 594.098 450.815 594.379C450.646 594.661 450.519 595.004 450.435 595.408C450.35 595.812 450.308 596.258 450.308 596.747V598.353C450.308 598.851 450.35 599.302 450.435 599.706C450.519 600.1 450.646 600.439 450.815 600.72C450.994 601.002 451.224 601.223 451.506 601.383C451.787 601.533 452.126 601.608 452.52 601.608ZM452.52 598.381C452.191 598.381 451.961 598.316 451.83 598.184C451.707 598.053 451.646 597.893 451.646 597.705V597.395C451.646 597.207 451.707 597.047 451.83 596.916C451.961 596.784 452.191 596.719 452.52 596.719C452.849 596.719 453.074 596.784 453.196 596.916C453.328 597.047 453.394 597.207 453.394 597.395V597.705C453.394 597.893 453.328 598.053 453.196 598.184C453.074 598.316 452.849 598.381 452.52 598.381ZM463.322 602.468H456.756V601.256L460.039 598.297C460.518 597.865 460.913 597.423 461.223 596.972C461.533 596.512 461.688 596.028 461.688 595.521V595.352C461.688 594.76 461.533 594.304 461.223 593.985C460.913 593.656 460.453 593.492 459.842 593.492C459.241 593.492 458.776 593.647 458.447 593.957C458.128 594.257 457.888 594.661 457.728 595.169L456.671 594.774C456.765 594.483 456.892 594.201 457.052 593.929C457.221 593.647 457.432 593.398 457.686 593.182C457.94 592.966 458.245 592.792 458.602 592.66C458.968 592.529 459.391 592.463 459.87 592.463C460.359 592.463 460.791 592.534 461.166 592.674C461.552 592.815 461.871 593.013 462.125 593.266C462.388 593.52 462.585 593.821 462.717 594.168C462.857 594.516 462.928 594.896 462.928 595.309C462.928 595.685 462.872 596.038 462.759 596.366C462.655 596.695 462.505 597.01 462.308 597.31C462.12 597.611 461.89 597.907 461.617 598.198C461.354 598.48 461.058 598.762 460.73 599.044L457.982 601.439H463.322V602.468ZM467.46 602.637C466.943 602.637 466.478 602.552 466.065 602.383C465.651 602.205 465.299 601.956 465.008 601.636C464.726 601.308 464.505 600.908 464.346 600.439C464.195 599.969 464.12 599.443 464.12 598.86C464.12 598.128 464.228 597.442 464.444 596.803C464.67 596.155 464.951 595.568 465.29 595.042C465.637 594.506 466.022 594.037 466.445 593.633C466.868 593.219 467.281 592.886 467.685 592.632H469.207C468.672 593.017 468.192 593.393 467.77 593.759C467.356 594.126 466.99 594.511 466.671 594.915C466.351 595.309 466.083 595.737 465.867 596.197C465.651 596.648 465.473 597.16 465.332 597.733L465.402 597.761C465.637 597.357 465.947 597.024 466.332 596.761C466.718 596.488 467.215 596.352 467.826 596.352C468.258 596.352 468.653 596.423 469.01 596.564C469.367 596.705 469.677 596.906 469.94 597.17C470.203 597.433 470.405 597.752 470.546 598.128C470.696 598.503 470.771 598.922 470.771 599.382C470.771 599.861 470.691 600.302 470.532 600.706C470.372 601.101 470.146 601.444 469.855 601.735C469.573 602.017 469.226 602.238 468.812 602.397C468.409 602.557 467.958 602.637 467.46 602.637ZM467.446 601.636C468.122 601.636 468.643 601.453 469.01 601.087C469.385 600.72 469.573 600.204 469.573 599.537V599.424C469.573 598.757 469.385 598.24 469.01 597.874C468.643 597.508 468.122 597.325 467.446 597.325C466.769 597.325 466.243 597.508 465.867 597.874C465.501 598.24 465.318 598.757 465.318 599.424V599.537C465.318 600.204 465.501 600.72 465.867 601.087C466.243 601.453 466.769 601.636 467.446 601.636ZM501.8 602.468V592.632H505.38C506.291 592.632 506.986 592.881 507.465 593.379C507.944 593.877 508.184 594.572 508.184 595.465C508.184 596.357 507.944 597.052 507.465 597.55C506.986 598.048 506.291 598.297 505.38 598.297H502.984V602.468H501.8ZM502.984 597.268H505.351C505.849 597.268 506.234 597.146 506.507 596.902C506.789 596.648 506.93 596.291 506.93 595.831V595.098C506.93 594.638 506.789 594.286 506.507 594.041C506.234 593.788 505.849 593.661 505.351 593.661H502.984V597.268ZM510.447 602.468H509.263V592.632H512.842C513.753 592.632 514.449 592.881 514.928 593.379C515.407 593.877 515.646 594.572 515.646 595.465C515.646 596.263 515.44 596.902 515.026 597.381C514.613 597.86 514.012 598.137 513.223 598.212L515.731 602.468H514.406L512.011 598.269H510.447V602.468ZM512.814 597.268C513.312 597.268 513.697 597.146 513.97 596.902C514.251 596.648 514.392 596.291 514.392 595.831V595.098C514.392 594.638 514.251 594.286 513.97 594.041C513.697 593.788 513.312 593.661 512.814 593.661H510.447V597.268H512.814ZM519.685 602.637C519.084 602.637 518.567 602.524 518.135 602.299C517.703 602.064 517.346 601.73 517.064 601.298C516.782 600.866 516.576 600.335 516.444 599.706C516.313 599.077 516.247 598.358 516.247 597.55C516.247 596.751 516.313 596.038 516.444 595.408C516.576 594.769 516.782 594.234 517.064 593.802C517.346 593.37 517.703 593.041 518.135 592.815C518.567 592.581 519.084 592.463 519.685 592.463C520.286 592.463 520.803 592.581 521.235 592.815C521.667 593.041 522.024 593.37 522.306 593.802C522.588 594.234 522.794 594.769 522.926 595.408C523.058 596.038 523.123 596.751 523.123 597.55C523.123 598.358 523.058 599.077 522.926 599.706C522.794 600.335 522.588 600.866 522.306 601.298C522.024 601.73 521.667 602.064 521.235 602.299C520.803 602.524 520.286 602.637 519.685 602.637ZM519.685 601.608C520.08 601.608 520.413 601.533 520.686 601.383C520.958 601.223 521.183 601.002 521.362 600.72C521.54 600.439 521.667 600.1 521.742 599.706C521.827 599.302 521.869 598.851 521.869 598.353V596.747C521.869 596.258 521.827 595.812 521.742 595.408C521.667 595.004 521.54 594.661 521.362 594.379C521.183 594.098 520.958 593.882 520.686 593.731C520.413 593.572 520.08 593.492 519.685 593.492C519.29 593.492 518.957 593.572 518.685 593.731C518.412 593.882 518.187 594.098 518.008 594.379C517.83 594.661 517.698 595.004 517.614 595.408C517.538 595.812 517.501 596.258 517.501 596.747V598.353C517.501 598.851 517.538 599.302 517.614 599.706C517.698 600.1 517.83 600.439 518.008 600.72C518.187 601.002 518.412 601.223 518.685 601.383C518.957 601.533 519.29 601.608 519.685 601.608ZM524.189 602.468V592.632H527.768C528.679 592.632 529.374 592.881 529.853 593.379C530.332 593.877 530.572 594.572 530.572 595.465C530.572 596.357 530.332 597.052 529.853 597.55C529.374 598.048 528.679 598.297 527.768 598.297H525.372V602.468H524.189ZM525.372 597.268H527.74C528.238 597.268 528.623 597.146 528.895 596.902C529.177 596.648 529.318 596.291 529.318 595.831V595.098C529.318 594.638 529.177 594.286 528.895 594.041C528.623 593.788 528.238 593.661 527.74 593.661H525.372V597.268ZM531.651 602.468V592.632H537.711V593.661H532.835V596.972H537.542V598.001H532.835V601.439H537.711V602.468H531.651ZM540.298 602.468H539.114V592.632H542.693C543.605 592.632 544.3 592.881 544.779 593.379C545.258 593.877 545.497 594.572 545.497 595.465C545.497 596.263 545.291 596.902 544.877 597.381C544.464 597.86 543.863 598.137 543.074 598.212L545.582 602.468H544.257L541.862 598.269H540.298V602.468ZM542.665 597.268C543.163 597.268 543.548 597.146 543.821 596.902C544.102 596.648 544.243 596.291 544.243 595.831V595.098C544.243 594.638 544.102 594.286 543.821 594.041C543.548 593.788 543.163 593.661 542.665 593.661H540.298V597.268H542.665ZM550.128 593.661V602.468H548.944V593.661H545.661V592.632H553.411V593.661H550.128ZM556.407 602.468V598.607L553.011 592.632H554.364L555.773 595.197L556.971 597.437H557.027L558.253 595.197L559.662 592.632H560.987L557.591 598.607V602.468H556.407ZM571.924 602.637C571.323 602.637 570.807 602.524 570.374 602.299C569.942 602.064 569.585 601.73 569.304 601.298C569.022 600.866 568.815 600.335 568.684 599.706C568.552 599.077 568.486 598.358 568.486 597.55C568.486 596.751 568.552 596.038 568.684 595.408C568.815 594.769 569.022 594.234 569.304 593.802C569.585 593.37 569.942 593.041 570.374 592.815C570.807 592.581 571.323 592.463 571.924 592.463C572.526 592.463 573.042 592.581 573.474 592.815C573.907 593.041 574.264 593.37 574.545 593.802C574.827 594.234 575.034 594.769 575.165 595.408C575.297 596.038 575.363 596.751 575.363 597.55C575.363 598.358 575.297 599.077 575.165 599.706C575.034 600.335 574.827 600.866 574.545 601.298C574.264 601.73 573.907 602.064 573.474 602.299C573.042 602.524 572.526 602.637 571.924 602.637ZM571.924 601.608C572.319 601.608 572.652 601.533 572.925 601.383C573.197 601.223 573.423 601.002 573.601 600.72C573.78 600.439 573.907 600.1 573.982 599.706C574.066 599.302 574.109 598.851 574.109 598.353V596.747C574.109 596.258 574.066 595.812 573.982 595.408C573.907 595.004 573.78 594.661 573.601 594.379C573.423 594.098 573.197 593.882 572.925 593.731C572.652 593.572 572.319 593.492 571.924 593.492C571.53 593.492 571.196 593.572 570.924 593.731C570.652 593.882 570.426 594.098 570.248 594.379C570.069 594.661 569.938 595.004 569.853 595.408C569.778 595.812 569.74 596.258 569.74 596.747V598.353C569.74 598.851 569.778 599.302 569.853 599.706C569.938 600.1 570.069 600.439 570.248 600.72C570.426 601.002 570.652 601.223 570.924 601.383C571.196 601.533 571.53 601.608 571.924 601.608ZM576.428 602.468V592.632H582.628V593.661H577.612V596.972H582.205V598.001H577.612V602.468H576.428ZM591.424 592.632H594.172C595.374 592.632 596.271 593.046 596.863 593.872C597.455 594.699 597.751 595.925 597.751 597.55C597.751 599.175 597.455 600.401 596.863 601.228C596.271 602.054 595.374 602.468 594.172 602.468H591.424V592.632ZM594.116 601.439C594.905 601.439 595.496 601.167 595.891 600.622C596.295 600.077 596.497 599.307 596.497 598.311V596.789C596.497 595.793 596.295 595.023 595.891 594.478C595.496 593.933 594.905 593.661 594.116 593.661H592.608V601.439H594.116ZM601.747 602.637C600.864 602.637 600.141 602.477 599.577 602.158C599.014 601.829 598.549 601.411 598.182 600.904L599.042 600.199C599.427 600.678 599.831 601.035 600.254 601.27C600.686 601.505 601.198 601.622 601.79 601.622C602.504 601.622 603.048 601.458 603.424 601.129C603.8 600.8 603.988 600.34 603.988 599.748C603.988 599.269 603.852 598.898 603.579 598.635C603.307 598.363 602.832 598.17 602.156 598.057L601.057 597.874C600.578 597.79 600.174 597.663 599.845 597.494C599.526 597.325 599.267 597.123 599.07 596.888C598.873 596.643 598.732 596.38 598.647 596.099C598.563 595.807 598.521 595.507 598.521 595.197C598.521 594.295 598.816 593.614 599.408 593.154C600 592.693 600.799 592.463 601.804 592.463C602.593 592.463 603.255 592.595 603.791 592.858C604.335 593.121 604.772 593.492 605.101 593.971L604.27 594.689C603.997 594.333 603.668 594.041 603.283 593.816C602.898 593.59 602.4 593.478 601.79 593.478C601.123 593.478 600.611 593.619 600.254 593.9C599.897 594.182 599.718 594.605 599.718 595.169C599.718 595.61 599.85 595.972 600.113 596.254C600.385 596.526 600.869 596.723 601.564 596.845L602.621 597.029C603.1 597.113 603.504 597.24 603.833 597.409C604.162 597.578 604.425 597.78 604.622 598.015C604.829 598.25 604.974 598.513 605.059 598.804C605.143 599.095 605.186 599.401 605.186 599.72C605.186 600.631 604.885 601.345 604.284 601.862C603.692 602.379 602.846 602.637 601.747 602.637ZM611.267 601.157H611.197C611.112 601.345 611.014 601.528 610.901 601.707C610.788 601.885 610.643 602.045 610.464 602.186C610.295 602.317 610.088 602.426 609.844 602.51C609.6 602.595 609.309 602.637 608.971 602.637C607.9 602.637 607.101 602.205 606.575 601.34C606.058 600.476 605.8 599.236 605.8 597.62C605.8 595.93 606.087 594.647 606.66 593.774C607.233 592.9 608.116 592.463 609.309 592.463C609.769 592.463 610.168 592.524 610.507 592.646C610.845 592.768 611.131 592.933 611.366 593.139C611.61 593.346 611.812 593.581 611.972 593.844C612.132 594.098 612.263 594.356 612.367 594.619L611.352 595.084C611.267 594.868 611.169 594.666 611.056 594.478C610.953 594.281 610.821 594.112 610.662 593.971C610.511 593.821 610.328 593.703 610.112 593.619C609.896 593.534 609.642 593.492 609.351 593.492C608.562 593.492 607.98 593.788 607.604 594.379C607.237 594.971 607.054 595.76 607.054 596.747V598.269C607.054 598.767 607.092 599.222 607.167 599.635C607.242 600.039 607.364 600.392 607.533 600.692C607.712 600.993 607.937 601.228 608.21 601.397C608.492 601.557 608.834 601.636 609.238 601.636C609.877 601.636 610.375 601.444 610.732 601.059C611.089 600.674 611.267 600.176 611.267 599.565V598.55H609.196V597.606H612.367V602.468H611.267V601.157ZM614.771 594.182H614.672V602.468H613.601V592.632H615.278L618.632 600.918H618.73V592.632H619.801V602.468H618.124L614.771 594.182ZM628.738 592.632H631.486C632.688 592.632 633.585 593.046 634.177 593.872C634.769 594.699 635.065 595.925 635.065 597.55C635.065 599.175 634.769 600.401 634.177 601.228C633.585 602.054 632.688 602.468 631.486 602.468H628.738V592.632ZM631.429 601.439C632.218 601.439 632.81 601.167 633.205 600.622C633.609 600.077 633.811 599.307 633.811 598.311V596.789C633.811 595.793 633.609 595.023 633.205 594.478C632.81 593.933 632.218 593.661 631.429 593.661H629.922V601.439H631.429ZM636.13 602.468V592.632H642.189V593.661H637.314V596.972H642.02V598.001H637.314V601.439H642.189V602.468H636.13ZM643.593 602.468V592.632H647.172C648.083 592.632 648.779 592.881 649.258 593.379C649.737 593.877 649.976 594.572 649.976 595.465C649.976 596.357 649.737 597.052 649.258 597.55C648.779 598.048 648.083 598.297 647.172 598.297H644.777V602.468H643.593ZM644.777 597.268H647.144C647.642 597.268 648.027 597.146 648.299 596.902C648.581 596.648 648.722 596.291 648.722 595.831V595.098C648.722 594.638 648.581 594.286 648.299 594.041C648.027 593.788 647.642 593.661 647.144 593.661H644.777V597.268ZM654.607 593.661V602.468H653.423V593.661H650.14V592.632H657.89V593.661H654.607Z" fill="#FFFAEE"/>
<path fill-rule="evenodd" clip-rule="evenodd" d="M537.753 574.017V577.298C537.393 577.332 537.028 577.352 536.654 577.352C530.547 577.352 525.564 572.376 525.564 566.28C525.564 560.183 530.547 555.213 536.654 555.213C537.023 555.213 537.393 555.232 537.753 555.266V558.548C537.393 558.494 537.028 558.47 536.654 558.47C532.341 558.47 528.826 561.984 528.826 566.28C528.826 570.576 532.346 574.09 536.654 574.09C537.023 574.09 537.393 574.061 537.753 574.012V574.017Z" fill="#FFFAEE"/>
<path fill-rule="evenodd" clip-rule="evenodd" d="M542.478 564.591H548.881V567.974H542.478C543.256 571.469 546.387 574.095 550.116 574.095C550.485 574.095 550.855 574.066 551.215 574.017V577.298C550.85 577.332 550.485 577.352 550.116 577.352C544.004 577.352 539.031 572.376 539.031 566.285C539.031 560.193 544.004 555.213 550.116 555.213C550.485 555.213 550.855 555.232 551.215 555.266V558.548C550.85 558.494 550.485 558.47 550.116 558.47C546.387 558.47 543.251 561.096 542.478 564.591Z" fill="#FFFAEE"/>
<path d="M483.057 555.213C476.953 555.213 471.988 560.178 471.988 566.282C471.988 572.386 476.953 577.352 483.057 577.352C489.161 577.352 494.127 572.386 494.127 566.282C494.127 560.178 489.161 555.213 483.057 555.213ZM493.117 566.282C493.117 571.83 488.605 576.342 483.057 576.342C477.509 576.342 472.998 571.83 472.998 566.282C472.998 560.734 477.509 556.223 483.057 556.223C488.605 556.223 493.117 560.734 493.117 566.282Z" fill="#FFFAEE"/>
<path d="M494.684 555.213C488.581 555.213 483.615 560.178 483.615 566.282C483.615 572.386 488.581 577.352 494.684 577.352C500.788 577.352 505.754 572.386 505.754 566.282C505.754 560.178 500.788 555.213 494.684 555.213ZM504.744 566.282C504.744 571.83 500.232 576.342 494.684 576.342C489.136 576.342 484.625 571.83 484.625 566.282C484.625 560.734 489.136 556.223 494.684 556.223C500.232 556.223 504.744 560.734 504.744 566.282Z" fill="#FFFAEE"/>
<path d="M585.357 555.213H602.144C603.62 555.213 604.82 556.413 604.82 557.889V574.676C604.82 576.151 603.62 577.352 602.144 577.352H585.357C583.882 577.352 582.682 576.151 582.682 574.676V557.889C582.682 556.413 583.882 555.213 585.357 555.213H585.357ZM602.144 556.729H585.357C584.718 556.729 584.198 557.249 584.198 557.889V563.024H595.318L590.657 558.692H592.885L598.358 563.781L593.515 568.285H603.304V557.889C603.304 557.249 602.784 556.729 602.144 556.729ZM585.357 575.836H602.144C602.784 575.836 603.304 575.316 603.304 574.676V569.801H593.432L598.094 574.133H595.865L590.392 569.045L595.236 564.54H584.197V574.676C584.197 575.315 584.718 575.836 585.357 575.836L585.357 575.836Z" fill="#FFFAEE"/>
<path d="M503.711 624.7L498.341 632.391L498.135 631.933H505.874V632.755H497.583V631.965L503.11 624.084H504.311V635.25H503.379V624.589L503.711 624.7ZM510.634 635.408C509.907 635.408 509.27 635.297 508.723 635.076C508.186 634.855 507.764 634.518 507.459 634.065C507.154 633.613 506.98 633.044 506.938 632.36H507.965C507.986 632.855 508.107 633.271 508.328 633.607C508.559 633.934 508.87 634.181 509.26 634.35C509.649 634.508 510.112 634.587 510.649 634.587C511.471 634.587 512.134 634.366 512.639 633.923C513.145 633.471 513.397 632.823 513.397 631.981C513.397 631.17 513.15 630.538 512.655 630.086C512.171 629.633 511.492 629.406 510.618 629.406H509.386L509.37 628.727L513.176 624.542L513.255 624.905H507.396V624.084H514.077V624.842L510.428 628.838V628.601C511.207 628.59 511.85 628.69 512.355 628.901C512.86 629.101 513.255 629.375 513.54 629.722C513.834 630.059 514.04 630.428 514.156 630.828C514.282 631.217 514.345 631.602 514.345 631.981C514.345 632.718 514.192 633.344 513.887 633.86C513.582 634.366 513.15 634.75 512.592 635.013C512.044 635.276 511.392 635.408 510.634 635.408ZM520.958 630.133L523.864 635.25H522.806L520.011 630.307L520.958 630.133ZM519.726 629.833C520.474 629.833 521.053 629.738 521.464 629.549C521.874 629.359 522.164 629.08 522.332 628.712C522.501 628.343 522.585 627.89 522.585 627.353C522.585 626.806 522.501 626.353 522.332 625.995C522.164 625.637 521.874 625.369 521.464 625.19C521.053 625 520.474 624.905 519.726 624.905H517.01V629.833H519.726ZM519.805 630.654H517.01V635.25H516.062V624.084H519.789C520.695 624.084 521.421 624.216 521.969 624.479C522.516 624.732 522.911 625.1 523.153 625.584C523.406 626.069 523.533 626.658 523.533 627.353C523.533 627.901 523.475 628.38 523.359 628.79C523.243 629.201 523.043 629.549 522.759 629.833C522.474 630.107 522.09 630.312 521.606 630.449C521.132 630.586 520.532 630.654 519.805 630.654ZM529.046 630.67H524.782V629.849H529.046V630.67ZM534.031 635.408C533.115 635.408 532.368 635.203 531.789 634.792C531.22 634.371 530.804 633.739 530.541 632.897C530.278 632.044 530.146 630.965 530.146 629.659C530.146 628.354 530.278 627.28 530.541 626.437C530.815 625.595 531.236 624.968 531.805 624.558C532.384 624.137 533.126 623.926 534.031 623.926C534.947 623.926 535.69 624.137 536.258 624.558C536.837 624.968 537.259 625.595 537.522 626.437C537.796 627.28 537.932 628.354 537.932 629.659C537.932 630.954 537.796 632.028 537.522 632.881C537.259 633.734 536.837 634.371 536.258 634.792C535.69 635.203 534.947 635.408 534.031 635.408ZM534.031 634.587C535.105 634.587 535.869 634.181 536.321 633.371C536.774 632.56 537.001 631.323 537.001 629.659C537.001 627.996 536.774 626.764 536.321 625.963C535.869 625.153 535.105 624.747 534.031 624.747C532.968 624.747 532.21 625.153 531.757 625.963C531.304 626.764 531.078 627.996 531.078 629.659C531.078 631.323 531.299 632.56 531.741 633.371C532.194 634.181 532.957 634.587 534.031 634.587ZM542.762 635.408C541.846 635.408 541.098 635.203 540.519 634.792C539.95 634.371 539.534 633.739 539.271 632.897C539.008 632.044 538.876 630.965 538.876 629.659C538.876 628.354 539.008 627.28 539.271 626.437C539.545 625.595 539.966 624.968 540.535 624.558C541.114 624.137 541.856 623.926 542.762 623.926C543.678 623.926 544.42 624.137 544.988 624.558C545.568 624.968 545.989 625.595 546.252 626.437C546.526 627.28 546.663 628.354 546.663 629.659C546.663 630.954 546.526 632.028 546.252 632.881C545.989 633.734 545.568 634.371 544.988 634.792C544.42 635.203 543.678 635.408 542.762 635.408ZM542.762 634.587C543.836 634.587 544.599 634.181 545.052 633.371C545.504 632.56 545.731 631.323 545.731 629.659C545.731 627.996 545.504 626.764 545.052 625.963C544.599 625.153 543.836 624.747 542.762 624.747C541.698 624.747 540.94 625.153 540.487 625.963C540.035 626.764 539.808 627.996 539.808 629.659C539.808 631.323 540.029 632.56 540.472 633.371C540.924 634.181 541.688 634.587 542.762 634.587ZM553.624 624.7L548.254 632.391L548.049 631.933H555.788V632.755H547.496V631.965L553.024 624.084H554.224V635.25H553.292V624.589L553.624 624.7ZM560.531 635.408C559.815 635.408 559.194 635.297 558.668 635.076C558.141 634.845 557.73 634.513 557.436 634.081C557.141 633.65 556.972 633.128 556.93 632.518H557.894C557.936 633.202 558.188 633.718 558.652 634.065C559.115 634.413 559.742 634.587 560.531 634.587C561.468 634.587 562.153 634.329 562.584 633.813C563.027 633.286 563.248 632.639 563.248 631.87C563.248 631.354 563.158 630.891 562.979 630.48C562.811 630.059 562.532 629.728 562.142 629.485C561.753 629.233 561.231 629.106 560.579 629.106C560.01 629.096 559.52 629.201 559.11 629.422C558.71 629.633 558.389 629.933 558.146 630.322H557.151L557.894 624.084H563.642V624.905H558.715L558.194 629.343H558.241C558.452 629.006 558.757 628.748 559.157 628.569C559.557 628.38 560.005 628.285 560.5 628.285C561.31 628.285 561.984 628.443 562.521 628.759C563.069 629.075 563.479 629.501 563.753 630.038C564.037 630.565 564.179 631.165 564.179 631.839C564.179 632.534 564.032 633.149 563.737 633.686C563.442 634.223 563.021 634.645 562.474 634.95C561.937 635.255 561.289 635.408 560.531 635.408ZM569.121 635.408C567.784 635.408 566.805 635.139 566.183 634.602C565.573 634.065 565.267 633.318 565.267 632.36C565.278 631.844 565.373 631.381 565.552 630.97C565.741 630.559 566.005 630.222 566.341 629.959C566.689 629.696 567.084 629.528 567.526 629.454V629.391C566.947 629.243 566.494 628.943 566.168 628.49C565.852 628.027 565.694 627.469 565.694 626.816C565.694 626.258 565.815 625.763 566.057 625.332C566.31 624.89 566.689 624.547 567.194 624.305C567.71 624.052 568.352 623.926 569.121 623.926C569.89 623.926 570.527 624.052 571.032 624.305C571.537 624.547 571.911 624.89 572.153 625.332C572.406 625.763 572.527 626.258 572.517 626.816C572.506 627.459 572.343 628.011 572.027 628.475C571.711 628.938 571.264 629.243 570.685 629.391V629.454C571.127 629.528 571.522 629.696 571.869 629.959C572.217 630.222 572.485 630.559 572.675 630.97C572.875 631.381 572.975 631.844 572.975 632.36C572.975 633.002 572.838 633.55 572.564 634.002C572.29 634.455 571.869 634.803 571.301 635.045C570.732 635.287 570.006 635.408 569.121 635.408ZM569.121 634.587C570.132 634.587 570.874 634.376 571.348 633.955C571.822 633.534 572.059 632.96 572.059 632.233C572.059 631.517 571.806 630.949 571.301 630.528C570.795 630.107 570.069 629.896 569.121 629.896C568.163 629.896 567.431 630.107 566.926 630.528C566.431 630.949 566.183 631.517 566.183 632.233C566.183 632.96 566.42 633.534 566.894 633.955C567.368 634.376 568.11 634.587 569.121 634.587ZM569.121 629.075C569.942 629.075 570.564 628.885 570.985 628.506C571.416 628.117 571.632 627.59 571.632 626.927C571.632 626.253 571.422 625.721 571 625.332C570.59 624.942 569.963 624.747 569.121 624.747C568.268 624.747 567.636 624.942 567.226 625.332C566.815 625.721 566.61 626.253 566.61 626.927C566.61 627.59 566.82 628.117 567.242 628.506C567.663 628.885 568.289 629.075 569.121 629.075ZM577.837 635.408C577.121 635.408 576.5 635.297 575.974 635.076C575.447 634.845 575.037 634.513 574.742 634.081C574.447 633.65 574.279 633.128 574.236 632.518H575.2C575.242 633.202 575.495 633.718 575.958 634.065C576.421 634.413 577.048 634.587 577.837 634.587C578.774 634.587 579.459 634.329 579.89 633.813C580.333 633.286 580.554 632.639 580.554 631.87C580.554 631.354 580.464 630.891 580.285 630.48C580.117 630.059 579.838 629.728 579.448 629.485C579.059 629.233 578.537 629.106 577.885 629.106C577.316 629.096 576.827 629.201 576.416 629.422C576.016 629.633 575.695 629.933 575.453 630.322H574.458L575.2 624.084H580.949V624.905H576.021L575.5 629.343H575.547C575.758 629.006 576.063 628.748 576.463 628.569C576.863 628.38 577.311 628.285 577.806 628.285C578.616 628.285 579.29 628.443 579.827 628.759C580.375 629.075 580.785 629.501 581.059 630.038C581.343 630.565 581.486 631.165 581.486 631.839C581.486 632.534 581.338 633.149 581.043 633.686C580.749 634.223 580.327 634.645 579.78 634.95C579.243 635.255 578.595 635.408 577.837 635.408Z" fill="#FFFAEE"/>
<rect x="482.133" y="618.904" width="115.615" height="21.911" rx="10.9555" stroke="#FFFAEE" stroke-width="0.466191"/>
</svg>
