<svg width="1080" height="1080" viewBox="0 0 1080 1080" fill="none" xmlns="http://www.w3.org/2000/svg">
<rect width="1080" height="1080" fill="#191919"/>
<g clip-path="url(#clip0_94_258)">
<path d="M414.282 504.857C416.406 504.857 418.127 506.579 418.127 508.703C418.127 510.827 416.406 512.549 414.282 512.549C412.158 512.549 410.436 510.827 410.436 508.703C410.436 506.579 412.158 504.857 414.282 504.857Z" fill="#FFFAEE"/>
<path d="M414.282 513.714C416.166 513.714 417.692 515.24 417.692 517.123C417.692 519.007 416.166 520.533 414.282 520.533C412.398 520.533 410.872 519.007 410.872 517.123C410.872 515.24 412.398 513.714 414.282 513.714Z" fill="#FFFAEE"/>
<path d="M414.282 522.571C415.925 522.571 417.256 523.901 417.256 525.545C417.256 527.188 415.925 528.519 414.282 528.519C412.638 528.519 411.308 527.188 411.308 525.545C411.308 523.901 412.638 522.571 414.282 522.571Z" fill="#FFFAEE"/>
<path d="M414.282 531.427C415.682 531.427 416.82 532.565 416.82 533.965C416.82 535.365 415.682 536.503 414.282 536.503C412.882 536.503 411.744 535.365 411.744 533.965C411.744 532.565 412.882 531.427 414.282 531.427Z" fill="#FFFAEE"/>
<path d="M414.281 540.285C415.441 540.285 416.383 541.227 416.383 542.387C416.383 543.546 415.441 544.488 414.281 544.488C413.122 544.488 412.18 543.546 412.18 542.387C412.18 541.227 413.122 540.285 414.281 540.285Z" fill="#FFFAEE"/>
<path d="M414.281 549.138C415.201 549.138 415.947 549.884 415.947 550.804C415.947 551.724 415.201 552.47 414.281 552.47C413.362 552.47 412.616 551.724 412.616 550.804C412.616 549.884 413.362 549.138 414.281 549.138Z" fill="#FFFAEE"/>
<path d="M414.281 557.996C414.961 557.996 415.511 558.546 415.511 559.225C415.511 559.905 414.961 560.458 414.281 560.458C413.602 560.458 413.052 559.907 413.052 559.228C413.052 558.549 413.602 557.999 414.281 557.999V557.996Z" fill="#FFFAEE"/>
<path d="M422.267 504.857C424.391 504.857 426.112 506.579 426.112 508.703C426.112 510.827 424.391 512.549 422.267 512.549C420.143 512.549 418.421 510.827 418.421 508.703C418.421 506.579 420.143 504.857 422.267 504.857Z" fill="#FFFAEE"/>
<path d="M422.267 513.714C424.15 513.714 425.676 515.24 425.676 517.123C425.676 519.007 424.15 520.533 422.267 520.533C420.383 520.533 418.857 519.007 418.857 517.123C418.857 515.24 420.383 513.714 422.267 513.714Z" fill="#FFFAEE"/>
<path d="M422.267 522.571C423.91 522.571 425.24 523.901 425.24 525.545C425.24 527.188 423.91 528.519 422.267 528.519C420.623 528.519 419.293 527.188 419.293 525.545C419.293 523.901 420.623 522.571 422.267 522.571Z" fill="#FFFAEE"/>
<path d="M422.267 531.427C423.67 531.427 424.804 532.565 424.804 533.965C424.804 535.365 423.667 536.503 422.267 536.503C420.867 536.503 419.729 535.365 419.729 533.965C419.729 532.565 420.867 531.427 422.267 531.427Z" fill="#FFFAEE"/>
<path d="M422.267 540.285C423.427 540.285 424.368 541.227 424.368 542.387C424.368 543.546 423.427 544.488 422.267 544.488C421.107 544.488 420.165 543.546 420.165 542.387C420.165 541.227 421.107 540.285 422.267 540.285Z" fill="#FFFAEE"/>
<path d="M422.267 549.138C423.186 549.138 423.933 549.884 423.933 550.804C423.933 551.724 423.186 552.47 422.267 552.47C421.347 552.47 420.601 551.724 420.601 550.804C420.601 549.884 421.347 549.138 422.267 549.138Z" fill="#FFFAEE"/>
<path d="M422.267 557.996C422.946 557.996 423.497 558.546 423.497 559.225C423.497 559.904 422.946 560.455 422.267 560.455C421.588 560.455 421.037 559.904 421.037 559.225C421.037 558.546 421.588 557.996 422.267 557.996Z" fill="#FFFAEE"/>
<path d="M430.251 504.857C432.376 504.857 434.097 506.579 434.097 508.703C434.097 510.827 432.376 512.549 430.251 512.549C428.127 512.549 426.406 510.827 426.406 508.703C426.406 506.579 428.127 504.857 430.251 504.857Z" fill="#FFFAEE"/>
<path d="M430.252 513.714C432.135 513.714 433.661 515.24 433.661 517.123C433.661 519.007 432.135 520.533 430.252 520.533C428.368 520.533 426.842 519.007 426.842 517.123C426.842 515.24 428.368 513.714 430.252 513.714Z" fill="#FFFAEE"/>
<path d="M430.252 522.571C431.895 522.571 433.225 523.901 433.225 525.545C433.225 527.188 431.895 528.519 430.252 528.519C428.608 528.519 427.278 527.188 427.278 525.545C427.278 523.901 428.608 522.571 430.252 522.571Z" fill="#FFFAEE"/>
<path d="M430.252 531.427C431.655 531.427 432.789 532.565 432.789 533.965C432.789 535.365 431.652 536.503 430.252 536.503C428.851 536.503 427.714 535.365 427.714 533.965C427.714 532.565 428.851 531.427 430.252 531.427Z" fill="#FFFAEE"/>
<path d="M430.252 540.285C431.411 540.285 432.353 541.227 432.353 542.387C432.353 543.546 431.411 544.488 430.252 544.488C429.092 544.488 428.15 543.546 428.15 542.387C428.15 541.227 429.092 540.285 430.252 540.285Z" fill="#FFFAEE"/>
<path d="M430.252 549.138C431.171 549.138 431.917 549.884 431.917 550.804C431.917 551.724 431.171 552.47 430.252 552.47C429.332 552.47 428.586 551.724 428.586 550.804C428.586 549.884 429.332 549.138 430.252 549.138Z" fill="#FFFAEE"/>
<path d="M430.252 557.996C430.931 557.996 431.481 558.546 431.481 559.225C431.481 559.904 430.931 560.455 430.252 560.455C429.573 560.455 429.022 559.904 429.022 559.225C429.022 558.546 429.573 557.996 430.252 557.996Z" fill="#FFFAEE"/>
<path d="M438.236 504.857C440.36 504.857 442.082 506.579 442.082 508.703C442.082 510.827 440.36 512.549 438.236 512.549C436.112 512.549 434.391 510.827 434.391 508.703C434.391 506.579 436.112 504.857 438.236 504.857Z" fill="#FFFAEE"/>
<path d="M438.236 513.714C440.12 513.714 441.646 515.24 441.646 517.123C441.646 519.007 440.12 520.533 438.236 520.533C436.353 520.533 434.827 519.007 434.827 517.123C434.827 515.24 436.353 513.714 438.236 513.714Z" fill="#FFFAEE"/>
<path d="M441.208 525.394C441.29 527.034 440.027 528.43 438.386 528.512C436.746 528.594 435.35 527.331 435.268 525.691C435.186 524.05 436.449 522.654 438.09 522.572C439.73 522.49 441.126 523.754 441.208 525.394Z" fill="#FFFAEE"/>
<path d="M438.236 531.427C439.637 531.427 440.774 532.565 440.774 533.965C440.774 535.365 439.637 536.503 438.236 536.503C436.836 536.503 435.699 535.365 435.699 533.965C435.699 532.565 436.836 531.427 438.236 531.427Z" fill="#FFFAEE"/>
<path d="M438.236 540.285C439.396 540.285 440.338 541.227 440.338 542.387C440.338 543.546 439.396 544.488 438.236 544.488C437.077 544.488 436.135 543.546 436.135 542.387C436.135 541.227 437.077 540.285 438.236 540.285Z" fill="#FFFAEE"/>
<path d="M438.237 549.138C439.156 549.138 439.902 549.884 439.902 550.804C439.902 551.724 439.156 552.47 438.237 552.47C437.317 552.47 436.571 551.724 436.571 550.804C436.571 549.884 437.317 549.138 438.237 549.138Z" fill="#FFFAEE"/>
<path d="M438.237 557.996C438.916 557.996 439.466 558.546 439.466 559.225C439.466 559.904 438.916 560.455 438.237 560.455C437.557 560.455 437.007 559.904 437.007 559.225C437.007 558.546 437.557 557.996 438.237 557.996Z" fill="#FFFAEE"/>
<path d="M446.221 504.857C448.345 504.857 450.067 506.579 450.067 508.703C450.067 510.827 448.345 512.549 446.221 512.549C444.097 512.549 442.375 510.827 442.375 508.703C442.375 506.579 444.097 504.857 446.221 504.857Z" fill="#FFFAEE"/>
<path d="M446.221 513.714C448.105 513.714 449.631 515.24 449.631 517.123C449.631 519.007 448.105 520.533 446.221 520.533C444.338 520.533 442.812 519.007 442.812 517.123C442.812 515.24 444.338 513.714 446.221 513.714Z" fill="#FFFAEE"/>
<path d="M446.221 522.571C447.865 522.571 449.195 523.901 449.195 525.545C449.195 527.188 447.865 528.519 446.221 528.519C444.578 528.519 443.248 527.188 443.248 525.545C443.248 523.901 444.578 522.571 446.221 522.571Z" fill="#FFFAEE"/>
<path d="M446.221 531.427C447.624 531.427 448.759 532.565 448.759 533.965C448.759 535.365 447.622 536.503 446.221 536.503C444.821 536.503 443.684 535.365 443.684 533.965C443.684 532.565 444.821 531.427 446.221 531.427Z" fill="#FFFAEE"/>
<path d="M446.221 540.285C447.381 540.285 448.323 541.227 448.323 542.387C448.323 543.546 447.381 544.488 446.221 544.488C445.061 544.488 444.12 543.546 444.12 542.387C444.12 541.227 445.061 540.285 446.221 540.285Z" fill="#FFFAEE"/>
<path d="M446.221 549.138C447.141 549.138 447.887 549.884 447.887 550.804C447.887 551.724 447.141 552.47 446.221 552.47C445.302 552.47 444.556 551.724 444.556 550.804C444.556 549.884 445.302 549.138 446.221 549.138Z" fill="#FFFAEE"/>
<path d="M446.221 557.996C446.901 557.996 447.451 558.546 447.451 559.225C447.451 559.904 446.901 560.455 446.221 560.455C445.542 560.455 444.992 559.904 444.992 559.225C444.992 558.546 445.542 557.996 446.221 557.996Z" fill="#FFFAEE"/>
<path d="M454.206 504.857C456.33 504.857 458.052 506.579 458.052 508.703C458.052 510.827 456.33 512.549 454.206 512.549C452.082 512.549 450.36 510.827 450.36 508.703C450.36 506.579 452.082 504.857 454.206 504.857Z" fill="#FFFAEE"/>
<path d="M454.206 513.714C456.09 513.714 457.616 515.24 457.616 517.123C457.616 519.007 456.09 520.533 454.206 520.533C452.322 520.533 450.796 519.007 450.796 517.123C450.796 515.24 452.322 513.714 454.206 513.714Z" fill="#FFFAEE"/>
<path d="M454.206 522.571C455.85 522.571 457.18 523.901 457.18 525.545C457.18 527.188 455.85 528.519 454.206 528.519C452.563 528.519 451.232 527.188 451.232 525.545C451.232 523.901 452.563 522.571 454.206 522.571Z" fill="#FFFAEE"/>
<path d="M454.206 531.427C455.609 531.427 456.744 532.565 456.744 533.965C456.744 535.365 455.606 536.503 454.206 536.503C452.806 536.503 451.668 535.365 451.668 533.965C451.668 532.565 452.803 531.427 454.206 531.427Z" fill="#FFFAEE"/>
<path d="M454.206 540.285C455.366 540.285 456.308 541.227 456.308 542.387C456.308 543.546 455.366 544.488 454.206 544.488C453.046 544.488 452.104 543.546 452.104 542.387C452.104 541.227 453.046 540.285 454.206 540.285Z" fill="#FFFAEE"/>
<path d="M454.206 549.138C455.126 549.138 455.872 549.884 455.872 550.804C455.872 551.724 455.126 552.47 454.206 552.47C453.287 552.47 452.541 551.724 452.541 550.804C452.541 549.884 453.287 549.138 454.206 549.138Z" fill="#FFFAEE"/>
<path d="M454.206 557.996C454.885 557.996 455.436 558.546 455.436 559.225C455.436 559.904 454.885 560.455 454.206 560.455C453.527 560.455 452.977 559.904 452.977 559.225C452.977 558.546 453.527 557.996 454.206 557.996Z" fill="#FFFAEE"/>
<path d="M462.191 504.857C464.315 504.857 466.037 506.579 466.037 508.703C466.037 510.827 464.315 512.549 462.191 512.549C460.067 512.549 458.345 510.827 458.345 508.703C458.345 506.579 460.067 504.857 462.191 504.857Z" fill="#FFFAEE"/>
<path d="M462.191 513.714C464.075 513.714 465.601 515.24 465.601 517.123C465.601 519.007 464.075 520.533 462.191 520.533C460.307 520.533 458.781 519.007 458.781 517.123C458.781 515.24 460.307 513.714 462.191 513.714Z" fill="#FFFAEE"/>
<path d="M462.191 522.571C463.834 522.571 465.165 523.901 465.165 525.545C465.165 527.188 463.834 528.519 462.191 528.519C460.548 528.519 459.217 527.188 459.217 525.545C459.217 523.901 460.548 522.571 462.191 522.571Z" fill="#FFFAEE"/>
<path d="M462.191 531.427C463.594 531.427 464.729 532.565 464.729 533.965C464.729 535.365 463.591 536.503 462.191 536.503C460.791 536.503 459.653 535.365 459.653 533.965C459.653 532.565 460.791 531.427 462.191 531.427Z" fill="#FFFAEE"/>
<path d="M462.191 540.285C463.351 540.285 464.293 541.227 464.293 542.387C464.293 543.546 463.351 544.488 462.191 544.488C461.031 544.488 460.089 543.546 460.089 542.387C460.089 541.227 461.031 540.285 462.191 540.285Z" fill="#FFFAEE"/>
<path d="M462.191 549.138C463.111 549.138 463.857 549.884 463.857 550.804C463.857 551.724 463.111 552.47 462.191 552.47C461.272 552.47 460.525 551.724 460.525 550.804C460.525 549.884 461.272 549.138 462.191 549.138Z" fill="#FFFAEE"/>
<path d="M462.191 557.996C462.87 557.996 463.421 558.546 463.421 559.225C463.421 559.904 462.87 560.455 462.191 560.455C461.512 560.455 460.961 559.904 460.961 559.225C460.961 558.546 461.512 557.996 462.191 557.996Z" fill="#FFFAEE"/>
<path d="M470.176 504.857C472.3 504.857 474.022 506.579 474.022 508.703C474.022 510.827 472.3 512.549 470.176 512.549C468.052 512.549 466.33 510.827 466.33 508.703C466.33 506.579 468.052 504.857 470.176 504.857Z" fill="#FFFAEE"/>
<path d="M470.176 513.714C472.06 513.714 473.586 515.24 473.586 517.123C473.586 519.007 472.06 520.533 470.176 520.533C468.292 520.533 466.766 519.007 466.766 517.123C466.766 515.24 468.292 513.714 470.176 513.714Z" fill="#FFFAEE"/>
<path d="M470.176 522.571C471.819 522.571 473.15 523.901 473.15 525.545C473.15 527.188 471.819 528.519 470.176 528.519C468.532 528.519 467.202 527.188 467.202 525.545C467.202 523.901 468.532 522.571 470.176 522.571Z" fill="#FFFAEE"/>
<path d="M470.176 531.427C471.579 531.427 472.714 532.565 472.714 533.965C472.714 535.365 471.579 536.503 470.176 536.503C468.773 536.503 467.638 535.365 467.638 533.965C467.638 532.565 468.776 531.427 470.176 531.427Z" fill="#FFFAEE"/>
<path d="M470.176 540.285C471.336 540.285 472.278 541.227 472.278 542.387C472.278 543.546 471.336 544.488 470.176 544.488C469.016 544.488 468.074 543.546 468.074 542.387C468.074 541.227 469.016 540.285 470.176 540.285Z" fill="#FFFAEE"/>
<path d="M470.176 549.138C471.095 549.138 471.842 549.884 471.842 550.804C471.842 551.724 471.095 552.47 470.176 552.47C469.256 552.47 468.51 551.724 468.51 550.804C468.51 549.884 469.256 549.138 470.176 549.138Z" fill="#FFFAEE"/>
<path d="M470.176 557.996C470.855 557.996 471.406 558.546 471.406 559.225C471.406 559.904 470.855 560.455 470.176 560.455C469.497 560.455 468.946 559.904 468.946 559.225C468.946 558.546 469.497 557.996 470.176 557.996Z" fill="#FFFAEE"/>
<path d="M478.127 504.857C480.252 504.857 481.973 506.579 481.973 508.703C481.973 510.827 480.252 512.549 478.127 512.549C476.003 512.549 474.282 510.827 474.282 508.703C474.282 506.579 476.003 504.857 478.127 504.857Z" fill="#FFFAEE"/>
<path d="M478.127 513.714C480.011 513.714 481.537 515.24 481.537 517.123C481.537 519.007 480.011 520.533 478.127 520.533C476.244 520.533 474.718 519.007 474.718 517.123C474.718 515.24 476.244 513.714 478.127 513.714Z" fill="#FFFAEE"/>
<path d="M478.128 522.571C479.771 522.571 481.101 523.901 481.101 525.545C481.101 527.188 479.771 528.519 478.128 528.519C476.484 528.519 475.154 527.188 475.154 525.545C475.154 523.901 476.484 522.571 478.128 522.571Z" fill="#FFFAEE"/>
<path d="M478.128 531.427C479.528 531.427 480.665 532.565 480.665 533.965C480.665 535.365 479.528 536.503 478.128 536.503C476.727 536.503 475.59 535.365 475.59 533.965C475.59 532.565 476.727 531.427 478.128 531.427Z" fill="#FFFAEE"/>
<path d="M478.127 540.285C479.287 540.285 480.229 541.227 480.229 542.387C480.229 543.546 479.287 544.488 478.127 544.488C476.967 544.488 476.025 543.546 476.025 542.387C476.025 541.227 476.967 540.285 478.127 540.285Z" fill="#FFFAEE"/>
<path d="M478.127 549.138C479.047 549.138 479.793 549.884 479.793 550.804C479.793 551.724 479.047 552.47 478.127 552.47C477.208 552.47 476.461 551.724 476.461 550.804C476.461 549.884 477.208 549.138 478.127 549.138Z" fill="#FFFAEE"/>
<path d="M478.127 557.996C478.806 557.996 479.357 558.546 479.357 559.225C479.357 559.904 478.806 560.455 478.127 560.455C477.448 560.455 476.897 559.904 476.897 559.225C476.897 558.546 477.448 557.996 478.127 557.996Z" fill="#FFFAEE"/>
<path d="M486.112 504.857C488.236 504.857 489.958 506.579 489.958 508.703C489.958 510.827 488.236 512.549 486.112 512.549C483.988 512.549 482.267 510.827 482.267 508.703C482.267 506.579 483.988 504.857 486.112 504.857Z" fill="#FFFAEE"/>
<path d="M486.112 513.714C487.996 513.714 489.522 515.24 489.522 517.123C489.522 519.007 487.996 520.533 486.112 520.533C484.229 520.533 482.703 519.007 482.703 517.123C482.703 515.24 484.229 513.714 486.112 513.714Z" fill="#FFFAEE"/>
<path d="M486.112 522.571C487.756 522.571 489.086 523.901 489.086 525.545C489.086 527.188 487.756 528.519 486.112 528.519C484.469 528.519 483.139 527.188 483.139 525.545C483.139 523.901 484.469 522.571 486.112 522.571Z" fill="#FFFAEE"/>
<path d="M486.112 531.427C487.515 531.427 488.65 532.565 488.65 533.965C488.65 535.365 487.512 536.503 486.112 536.503C484.712 536.503 483.574 535.365 483.574 533.965C483.574 532.565 484.712 531.427 486.112 531.427Z" fill="#FFFAEE"/>
<path d="M486.112 540.285C487.272 540.285 488.214 541.227 488.214 542.387C488.214 543.546 487.272 544.488 486.112 544.488C484.952 544.488 484.01 543.546 484.01 542.387C484.01 541.227 484.952 540.285 486.112 540.285Z" fill="#FFFAEE"/>
<path d="M486.112 549.138C487.032 549.138 487.778 549.884 487.778 550.804C487.778 551.724 487.032 552.47 486.112 552.47C485.193 552.47 484.446 551.724 484.446 550.804C484.446 549.884 485.193 549.138 486.112 549.138Z" fill="#FFFAEE"/>
<path d="M486.112 557.996C486.791 557.996 487.342 558.546 487.342 559.225C487.342 559.904 486.791 560.455 486.112 560.455C485.433 560.455 484.882 559.904 484.882 559.225C484.882 558.546 485.433 557.996 486.112 557.996Z" fill="#FFFAEE"/>
<path d="M494.097 504.857C496.221 504.857 497.943 506.579 497.943 508.703C497.943 510.827 496.221 512.549 494.097 512.549C491.973 512.549 490.251 510.827 490.251 508.703C490.251 506.579 491.973 504.857 494.097 504.857Z" fill="#FFFAEE"/>
<path d="M494.097 513.714C495.981 513.714 497.507 515.24 497.507 517.123C497.507 519.007 495.981 520.533 494.097 520.533C492.213 520.533 490.688 519.007 490.688 517.123C490.688 515.24 492.213 513.714 494.097 513.714Z" fill="#FFFAEE"/>
<path d="M497.075 525.391C497.157 527.031 495.893 528.427 494.253 528.509C492.613 528.591 491.217 527.328 491.135 525.688C491.053 524.047 492.316 522.651 493.956 522.569C495.597 522.487 496.993 523.751 497.075 525.391Z" fill="#FFFAEE"/>
<path d="M494.097 531.427C495.5 531.427 496.635 532.565 496.635 533.965C496.635 535.365 495.5 536.503 494.097 536.503C492.694 536.503 491.559 535.365 491.559 533.965C491.559 532.565 492.697 531.427 494.097 531.427Z" fill="#FFFAEE"/>
<path d="M494.097 540.285C495.257 540.285 496.199 541.227 496.199 542.387C496.199 543.546 495.257 544.488 494.097 544.488C492.937 544.488 491.995 543.546 491.995 542.387C491.995 541.227 492.937 540.285 494.097 540.285Z" fill="#FFFAEE"/>
<path d="M494.097 549.138C495.016 549.138 495.763 549.884 495.763 550.804C495.763 551.724 495.016 552.47 494.097 552.47C493.177 552.47 492.431 551.724 492.431 550.804C492.431 549.884 493.177 549.138 494.097 549.138Z" fill="#FFFAEE"/>
<path d="M494.097 557.996C494.776 557.996 495.327 558.546 495.327 559.225C495.327 559.904 494.776 560.455 494.097 560.455C493.418 560.455 492.867 559.904 492.867 559.225C492.867 558.546 493.418 557.996 494.097 557.996Z" fill="#FFFAEE"/>
<path d="M502.085 504.857C504.209 504.857 505.931 506.579 505.931 508.703C505.931 510.827 504.209 512.549 502.085 512.549C499.961 512.549 498.239 510.827 498.239 508.703C498.239 506.579 499.961 504.857 502.085 504.857Z" fill="#FFFAEE"/>
<path d="M502.085 513.714C503.968 513.714 505.494 515.24 505.494 517.123C505.494 519.007 503.968 520.533 502.085 520.533C500.201 520.533 498.675 519.007 498.675 517.123C498.675 515.24 500.201 513.714 502.085 513.714Z" fill="#FFFAEE"/>
<path d="M502.085 522.571C503.727 522.571 505.058 523.902 505.058 525.545C505.058 527.187 503.727 528.519 502.085 528.519C500.442 528.519 499.111 527.187 499.111 525.545C499.111 523.902 500.442 522.571 502.085 522.571Z" fill="#FFFAEE"/>
<path d="M502.085 531.427C503.485 531.427 504.622 532.565 504.622 533.965C504.622 535.365 503.485 536.503 502.085 536.503C500.684 536.503 499.547 535.365 499.547 533.965C499.547 532.565 500.684 531.427 502.085 531.427Z" fill="#FFFAEE"/>
<path d="M502.085 540.285C503.245 540.285 504.186 541.227 504.186 542.387C504.186 543.546 503.245 544.488 502.085 544.488C500.925 544.488 499.983 543.546 499.983 542.387C499.983 541.227 500.925 540.285 502.085 540.285Z" fill="#FFFAEE"/>
<path d="M502.085 549.138C503.004 549.138 503.75 549.884 503.75 550.804C503.75 551.724 503.004 552.47 502.085 552.47C501.165 552.47 500.419 551.724 500.419 550.804C500.419 549.884 501.165 549.138 502.085 549.138Z" fill="#FFFAEE"/>
<path d="M502.085 557.996C502.764 557.996 503.314 558.546 503.314 559.225C503.314 559.904 502.764 560.455 502.085 560.455C501.406 560.455 500.855 559.904 500.855 559.225C500.855 558.546 501.406 557.996 502.085 557.996Z" fill="#FFFAEE"/>
<path d="M510.07 504.857C512.194 504.857 513.916 506.579 513.916 508.703C513.916 510.827 512.194 512.549 510.07 512.549C507.946 512.549 506.224 510.827 506.224 508.703C506.224 506.579 507.946 504.857 510.07 504.857Z" fill="#FFFAEE"/>
<path d="M510.07 513.714C511.954 513.714 513.48 515.24 513.48 517.123C513.48 519.007 511.954 520.533 510.07 520.533C508.186 520.533 506.66 519.007 506.66 517.123C506.66 515.24 508.186 513.714 510.07 513.714Z" fill="#FFFAEE"/>
<path d="M510.07 522.571C511.713 522.571 513.044 523.901 513.044 525.545C513.044 527.188 511.713 528.519 510.07 528.519C508.427 528.519 507.096 527.188 507.096 525.545C507.096 523.901 508.427 522.571 510.07 522.571Z" fill="#FFFAEE"/>
<path d="M510.07 531.427C511.473 531.427 512.608 532.565 512.608 533.965C512.608 535.365 511.47 536.503 510.07 536.503C508.67 536.503 507.532 535.365 507.532 533.965C507.532 532.565 508.667 531.427 510.07 531.427Z" fill="#FFFAEE"/>
<path d="M510.069 540.285C511.229 540.285 512.171 541.227 512.171 542.387C512.171 543.546 511.229 544.488 510.069 544.488C508.91 544.488 507.968 543.546 507.968 542.387C507.968 541.227 508.91 540.285 510.069 540.285Z" fill="#FFFAEE"/>
<path d="M510.07 549.138C510.989 549.138 511.735 549.884 511.735 550.804C511.735 551.724 510.989 552.47 510.07 552.47C509.15 552.47 508.404 551.724 508.404 550.804C508.404 549.884 509.15 549.138 510.07 549.138Z" fill="#FFFAEE"/>
<path d="M510.07 557.996C510.749 557.996 511.299 558.546 511.299 559.225C511.299 559.904 510.749 560.455 510.07 560.455C509.39 560.455 508.84 559.904 508.84 559.225C508.84 558.546 509.39 557.996 510.07 557.996Z" fill="#FFFAEE"/>
<path d="M518.055 504.857C520.179 504.857 521.9 506.579 521.9 508.703C521.9 510.827 520.179 512.549 518.055 512.549C515.931 512.549 514.209 510.827 514.209 508.703C514.209 506.579 515.931 504.857 518.055 504.857Z" fill="#FFFAEE"/>
<path d="M518.055 513.714C519.938 513.714 521.464 515.24 521.464 517.123C521.464 519.007 519.938 520.533 518.055 520.533C516.171 520.533 514.645 519.007 514.645 517.123C514.645 515.24 516.171 513.714 518.055 513.714Z" fill="#FFFAEE"/>
<path d="M518.055 522.571C519.698 522.571 521.028 523.901 521.028 525.545C521.028 527.188 519.698 528.519 518.055 528.519C516.411 528.519 515.081 527.188 515.081 525.545C515.081 523.901 516.411 522.571 518.055 522.571Z" fill="#FFFAEE"/>
<path d="M518.054 531.427C519.457 531.427 520.592 532.565 520.592 533.965C520.592 535.365 519.455 536.503 518.054 536.503C516.654 536.503 515.517 535.365 515.517 533.965C515.517 532.565 516.654 531.427 518.054 531.427Z" fill="#FFFAEE"/>
<path d="M518.054 540.285C519.214 540.285 520.156 541.227 520.156 542.387C520.156 543.546 519.214 544.488 518.054 544.488C516.894 544.488 515.953 543.546 515.953 542.387C515.953 541.227 516.894 540.285 518.054 540.285Z" fill="#FFFAEE"/>
<path d="M518.054 549.138C518.974 549.138 519.72 549.884 519.72 550.804C519.72 551.724 518.974 552.47 518.054 552.47C517.135 552.47 516.389 551.724 516.389 550.804C516.389 549.884 517.135 549.138 518.054 549.138Z" fill="#FFFAEE"/>
<path d="M518.054 557.996C518.734 557.996 519.284 558.546 519.284 559.225C519.284 559.904 518.734 560.455 518.054 560.455C517.375 560.455 516.825 559.904 516.825 559.225C516.825 558.546 517.375 557.996 518.054 557.996Z" fill="#FFFAEE"/>
<path d="M526.04 504.857C528.164 504.857 529.885 506.579 529.885 508.703C529.885 510.827 528.164 512.549 526.04 512.549C523.915 512.549 522.194 510.827 522.194 508.703C522.194 506.579 523.915 504.857 526.04 504.857Z" fill="#FFFAEE"/>
<path d="M526.04 513.714C527.923 513.714 529.449 515.24 529.449 517.123C529.449 519.007 527.923 520.533 526.04 520.533C524.156 520.533 522.63 519.007 522.63 517.123C522.63 515.24 524.156 513.714 526.04 513.714Z" fill="#FFFAEE"/>
<path d="M526.039 522.571C527.683 522.571 529.013 523.901 529.013 525.545C529.013 527.188 527.683 528.519 526.039 528.519C524.396 528.519 523.065 527.188 523.065 525.545C523.065 523.901 524.396 522.571 526.039 522.571Z" fill="#FFFAEE"/>
<path d="M526.039 531.427C527.442 531.427 528.577 532.565 528.577 533.965C528.577 535.365 527.442 536.503 526.039 536.503C524.636 536.503 523.501 535.365 523.501 533.965C523.501 532.565 524.639 531.427 526.039 531.427Z" fill="#FFFAEE"/>
<path d="M526.039 540.285C527.199 540.285 528.141 541.227 528.141 542.387C528.141 543.546 527.199 544.488 526.039 544.488C524.879 544.488 523.938 543.546 523.938 542.387C523.938 541.227 524.879 540.285 526.039 540.285Z" fill="#FFFAEE"/>
<path d="M526.039 549.138C526.959 549.138 527.705 549.884 527.705 550.804C527.705 551.724 526.959 552.47 526.039 552.47C525.12 552.47 524.374 551.724 524.374 550.804C524.374 549.884 525.12 549.138 526.039 549.138Z" fill="#FFFAEE"/>
<path d="M526.039 557.996C526.718 557.996 527.269 558.546 527.269 559.225C527.269 559.904 526.718 560.455 526.039 560.455C525.36 560.455 524.81 559.904 524.81 559.225C524.81 558.546 525.36 557.996 526.039 557.996Z" fill="#FFFAEE"/>
<path d="M534.024 504.857C536.149 504.857 537.87 506.579 537.87 508.703C537.87 510.827 536.149 512.549 534.024 512.549C531.9 512.549 530.179 510.827 530.179 508.703C530.179 506.579 531.9 504.857 534.024 504.857Z" fill="#FFFAEE"/>
<path d="M534.024 513.714C535.908 513.714 537.434 515.24 537.434 517.123C537.434 519.007 535.908 520.533 534.024 520.533C532.141 520.533 530.615 519.007 530.615 517.123C530.615 515.24 532.141 513.714 534.024 513.714Z" fill="#FFFAEE"/>
<path d="M534.025 522.571C535.668 522.571 536.998 523.901 536.998 525.545C536.998 527.188 535.668 528.519 534.025 528.519C532.381 528.519 531.051 527.188 531.051 525.545C531.051 523.901 532.381 522.571 534.025 522.571Z" fill="#FFFAEE"/>
<path d="M534.025 531.427C535.428 531.427 536.562 532.565 536.562 533.965C536.562 535.365 535.425 536.503 534.025 536.503C532.624 536.503 531.487 535.365 531.487 533.965C531.487 532.565 532.624 531.427 534.025 531.427Z" fill="#FFFAEE"/>
<path d="M534.025 540.285C535.184 540.285 536.126 541.227 536.126 542.387C536.126 543.546 535.184 544.488 534.025 544.488C532.865 544.488 531.923 543.546 531.923 542.387C531.923 541.227 532.865 540.285 534.025 540.285Z" fill="#FFFAEE"/>
<path d="M534.024 549.138C534.944 549.138 535.69 549.884 535.69 550.804C535.69 551.724 534.944 552.47 534.024 552.47C533.105 552.47 532.358 551.724 532.358 550.804C532.358 549.884 533.105 549.138 534.024 549.138Z" fill="#FFFAEE"/>
<path d="M534.024 557.996C534.703 557.996 535.254 558.546 535.254 559.225C535.254 559.904 534.703 560.455 534.024 560.455C533.345 560.455 532.794 559.904 532.794 559.225C532.794 558.546 533.345 557.996 534.024 557.996Z" fill="#FFFAEE"/>
<path d="M541.976 504.857C544.1 504.857 545.821 506.579 545.821 508.703C545.821 510.827 544.1 512.549 541.976 512.549C539.852 512.549 538.13 510.827 538.13 508.703C538.13 506.579 539.852 504.857 541.976 504.857Z" fill="#FFFAEE"/>
<path d="M541.976 513.714C543.859 513.714 545.385 515.24 545.385 517.123C545.385 519.007 543.859 520.533 541.976 520.533C540.092 520.533 538.566 519.007 538.566 517.123C538.566 515.24 540.092 513.714 541.976 513.714Z" fill="#FFFAEE"/>
<path d="M541.976 522.571C543.619 522.571 544.949 523.901 544.949 525.545C544.949 527.188 543.619 528.519 541.976 528.519C540.332 528.519 539.002 527.188 539.002 525.545C539.002 523.901 540.332 522.571 541.976 522.571Z" fill="#FFFAEE"/>
<path d="M541.976 531.427C543.376 531.427 544.513 532.565 544.513 533.965C544.513 535.365 543.376 536.503 541.976 536.503C540.575 536.503 539.438 535.365 539.438 533.965C539.438 532.565 540.575 531.427 541.976 531.427Z" fill="#FFFAEE"/>
<path d="M541.976 540.285C543.136 540.285 544.077 541.227 544.077 542.387C544.077 543.546 543.136 544.488 541.976 544.488C540.816 544.488 539.874 543.546 539.874 542.387C539.874 541.227 540.816 540.285 541.976 540.285Z" fill="#FFFAEE"/>
<path d="M541.976 549.138C542.895 549.138 543.642 549.884 543.642 550.804C543.642 551.724 542.895 552.47 541.976 552.47C541.056 552.47 540.31 551.724 540.31 550.804C540.31 549.884 541.056 549.138 541.976 549.138Z" fill="#FFFAEE"/>
<path d="M541.976 557.996C542.655 557.996 543.206 558.546 543.206 559.225C543.206 559.904 542.655 560.455 541.976 560.455C541.297 560.455 540.746 559.904 540.746 559.225C540.746 558.546 541.297 557.996 541.976 557.996Z" fill="#FFFAEE"/>
<path d="M549.96 504.857C552.085 504.857 553.806 506.579 553.806 508.703C553.806 510.827 552.085 512.549 549.96 512.549C547.836 512.549 546.115 510.827 546.115 508.703C546.115 506.579 547.836 504.857 549.96 504.857Z" fill="#FFFAEE"/>
<path d="M549.961 513.714C551.844 513.714 553.37 515.24 553.37 517.123C553.37 519.007 551.844 520.533 549.961 520.533C548.077 520.533 546.551 519.007 546.551 517.123C546.551 515.24 548.077 513.714 549.961 513.714Z" fill="#FFFAEE"/>
<path d="M549.961 522.571C551.604 522.571 552.934 523.901 552.934 525.545C552.934 527.188 551.604 528.519 549.961 528.519C548.317 528.519 546.987 527.188 546.987 525.545C546.987 523.901 548.317 522.571 549.961 522.571Z" fill="#FFFAEE"/>
<path d="M549.961 531.427C551.364 531.427 552.498 532.565 552.498 533.965C552.498 535.365 551.364 536.503 549.961 536.503C548.558 536.503 547.423 535.365 547.423 533.965C547.423 532.565 548.56 531.427 549.961 531.427Z" fill="#FFFAEE"/>
<path d="M549.961 540.285C551.12 540.285 552.062 541.227 552.062 542.387C552.062 543.546 551.12 544.488 549.961 544.488C548.801 544.488 547.859 543.546 547.859 542.387C547.859 541.227 548.801 540.285 549.961 540.285Z" fill="#FFFAEE"/>
<path d="M549.961 549.138C550.88 549.138 551.626 549.884 551.626 550.804C551.626 551.724 550.88 552.47 549.961 552.47C549.041 552.47 548.295 551.724 548.295 550.804C548.295 549.884 549.041 549.138 549.961 549.138Z" fill="#FFFAEE"/>
<path d="M549.961 557.996C550.64 557.996 551.19 558.546 551.19 559.225C551.19 559.904 550.64 560.455 549.961 560.455C549.282 560.455 548.731 559.904 548.731 559.225C548.731 558.546 549.282 557.996 549.961 557.996Z" fill="#FFFAEE"/>
<path d="M557.945 504.857C560.069 504.857 561.791 506.579 561.791 508.703C561.791 510.827 560.069 512.549 557.945 512.549C555.821 512.549 554.1 510.827 554.1 508.703C554.1 506.579 555.821 504.857 557.945 504.857Z" fill="#FFFAEE"/>
<path d="M557.945 513.714C559.829 513.714 561.355 515.24 561.355 517.123C561.355 519.007 559.829 520.533 557.945 520.533C556.062 520.533 554.536 519.007 554.536 517.123C554.536 515.24 556.062 513.714 557.945 513.714Z" fill="#FFFAEE"/>
<path d="M557.945 522.571C559.588 522.571 560.919 523.902 560.919 525.545C560.919 527.187 559.588 528.519 557.945 528.519C556.303 528.519 554.972 527.187 554.972 525.545C554.972 523.902 556.303 522.571 557.945 522.571Z" fill="#FFFAEE"/>
<path d="M557.945 531.427C559.348 531.427 560.483 532.565 560.483 533.965C560.483 535.365 559.346 536.503 557.945 536.503C556.545 536.503 555.408 535.365 555.408 533.965C555.408 532.565 556.545 531.427 557.945 531.427Z" fill="#FFFAEE"/>
<path d="M557.945 540.285C559.105 540.285 560.047 541.227 560.047 542.387C560.047 543.546 559.105 544.488 557.945 544.488C556.786 544.488 555.844 543.546 555.844 542.387C555.844 541.227 556.786 540.285 557.945 540.285Z" fill="#FFFAEE"/>
<path d="M557.946 549.138C558.865 549.138 559.611 549.884 559.611 550.804C559.611 551.724 558.865 552.47 557.946 552.47C557.026 552.47 556.28 551.724 556.28 550.804C556.28 549.884 557.026 549.138 557.946 549.138Z" fill="#FFFAEE"/>
<path d="M557.946 557.996C558.625 557.996 559.175 558.546 559.175 559.225C559.175 559.904 558.625 560.455 557.946 560.455C557.266 560.455 556.716 559.904 556.716 559.225C556.716 558.546 557.266 557.996 557.946 557.996Z" fill="#FFFAEE"/>
<path d="M565.93 504.857C568.054 504.857 569.776 506.579 569.776 508.703C569.776 510.827 568.054 512.549 565.93 512.549C563.806 512.549 562.084 510.827 562.084 508.703C562.084 506.579 563.806 504.857 565.93 504.857Z" fill="#FFFAEE"/>
<path d="M565.93 513.714C567.814 513.714 569.34 515.24 569.34 517.123C569.34 519.007 567.814 520.533 565.93 520.533C564.047 520.533 562.521 519.007 562.521 517.123C562.521 515.24 564.047 513.714 565.93 513.714Z" fill="#FFFAEE"/>
<path d="M565.93 522.571C567.574 522.571 568.904 523.901 568.904 525.545C568.904 527.188 567.574 528.519 565.93 528.519C564.287 528.519 562.957 527.188 562.957 525.545C562.957 523.901 564.287 522.571 565.93 522.571Z" fill="#FFFAEE"/>
<path d="M565.93 531.427C567.331 531.427 568.468 532.565 568.468 533.965C568.468 535.365 567.331 536.503 565.93 536.503C564.53 536.503 563.393 535.365 563.393 533.965C563.393 532.565 564.527 531.427 565.93 531.427Z" fill="#FFFAEE"/>
<path d="M565.93 540.285C567.09 540.285 568.032 541.227 568.032 542.387C568.032 543.546 567.09 544.488 565.93 544.488C564.77 544.488 563.829 543.546 563.829 542.387C563.829 541.227 564.77 540.285 565.93 540.285Z" fill="#FFFAEE"/>
<path d="M565.93 549.138C566.85 549.138 567.596 549.884 567.596 550.804C567.596 551.724 566.85 552.47 565.93 552.47C565.011 552.47 564.265 551.724 564.265 550.804C564.265 549.884 565.011 549.138 565.93 549.138Z" fill="#FFFAEE"/>
<path d="M565.93 557.996C566.61 557.996 567.16 558.546 567.16 559.225C567.16 559.904 566.61 560.455 565.93 560.455C565.251 560.455 564.701 559.904 564.701 559.225C564.701 558.546 565.251 557.996 565.93 557.996Z" fill="#FFFAEE"/>
<path d="M573.915 504.857C576.039 504.857 577.761 506.579 577.761 508.703C577.761 510.827 576.039 512.549 573.915 512.549C571.791 512.549 570.069 510.827 570.069 508.703C570.069 506.579 571.791 504.857 573.915 504.857Z" fill="#FFFAEE"/>
<path d="M573.915 513.714C575.799 513.714 577.325 515.24 577.325 517.123C577.325 519.007 575.799 520.533 573.915 520.533C572.031 520.533 570.505 519.007 570.505 517.123C570.505 515.24 572.031 513.714 573.915 513.714Z" fill="#FFFAEE"/>
<path d="M573.915 522.571C575.559 522.571 576.889 523.901 576.889 525.545C576.889 527.188 575.559 528.519 573.915 528.519C572.272 528.519 570.941 527.188 570.941 525.545C570.941 523.901 572.272 522.571 573.915 522.571Z" fill="#FFFAEE"/>
<path d="M573.915 531.427C575.318 531.427 576.453 532.565 576.453 533.965C576.453 535.365 575.315 536.503 573.915 536.503C572.515 536.503 571.377 535.365 571.377 533.965C571.377 532.565 572.515 531.427 573.915 531.427Z" fill="#FFFAEE"/>
<path d="M573.915 540.285C575.075 540.285 576.017 541.227 576.017 542.387C576.017 543.546 575.075 544.488 573.915 544.488C572.755 544.488 571.813 543.546 571.813 542.387C571.813 541.227 572.755 540.285 573.915 540.285Z" fill="#FFFAEE"/>
<path d="M573.915 549.138C574.835 549.138 575.581 549.884 575.581 550.804C575.581 551.724 574.835 552.47 573.915 552.47C572.996 552.47 572.25 551.724 572.25 550.804C572.25 549.884 572.996 549.138 573.915 549.138Z" fill="#FFFAEE"/>
<path d="M573.915 557.996C574.594 557.996 575.145 558.546 575.145 559.225C575.145 559.904 574.594 560.455 573.915 560.455C573.236 560.455 572.686 559.904 572.686 559.225C572.686 558.546 573.236 557.996 573.915 557.996Z" fill="#FFFAEE"/>
<path d="M581.9 504.857C584.024 504.857 585.746 506.579 585.746 508.703C585.746 510.827 584.024 512.549 581.9 512.549C579.776 512.549 578.054 510.827 578.054 508.703C578.054 506.579 579.776 504.857 581.9 504.857Z" fill="#FFFAEE"/>
<path d="M581.9 513.714C583.784 513.714 585.31 515.24 585.31 517.123C585.31 519.007 583.784 520.533 581.9 520.533C580.016 520.533 578.49 519.007 578.49 517.123C578.49 515.24 580.016 513.714 581.9 513.714Z" fill="#FFFAEE"/>
<path d="M581.9 522.571C583.543 522.571 584.874 523.901 584.874 525.545C584.874 527.188 583.543 528.519 581.9 528.519C580.257 528.519 578.926 527.188 578.926 525.545C578.926 523.901 580.257 522.571 581.9 522.571Z" fill="#FFFAEE"/>
<path d="M581.9 531.427C583.303 531.427 584.438 532.565 584.438 533.965C584.438 535.365 583.303 536.503 581.9 536.503C580.497 536.503 579.362 535.365 579.362 533.965C579.362 532.565 580.5 531.427 581.9 531.427Z" fill="#FFFAEE"/>
<path d="M581.9 540.285C583.06 540.285 584.002 541.227 584.002 542.387C584.002 543.546 583.06 544.488 581.9 544.488C580.74 544.488 579.798 543.546 579.798 542.387C579.798 541.227 580.74 540.285 581.9 540.285Z" fill="#FFFAEE"/>
<path d="M581.9 549.138C582.82 549.138 583.566 549.884 583.566 550.804C583.566 551.724 582.82 552.47 581.9 552.47C580.981 552.47 580.234 551.724 580.234 550.804C580.234 549.884 580.981 549.138 581.9 549.138Z" fill="#FFFAEE"/>
<path d="M581.9 557.996C582.579 557.996 583.13 558.546 583.13 559.225C583.13 559.904 582.579 560.455 581.9 560.455C581.221 560.455 580.67 559.904 580.67 559.225C580.67 558.546 581.221 557.996 581.9 557.996Z" fill="#FFFAEE"/>
<path d="M589.885 504.857C592.009 504.857 593.731 506.579 593.731 508.703C593.731 510.827 592.009 512.549 589.885 512.549C587.761 512.549 586.04 510.827 586.04 508.703C586.04 506.579 587.761 504.857 589.885 504.857Z" fill="#FFFAEE"/>
<path d="M589.885 513.714C591.769 513.714 593.295 515.24 593.295 517.123C593.295 519.007 591.769 520.533 589.885 520.533C588.002 520.533 586.476 519.007 586.476 517.123C586.476 515.24 588.002 513.714 589.885 513.714Z" fill="#FFFAEE"/>
<path d="M589.885 522.571C591.528 522.571 592.859 523.901 592.859 525.545C592.859 527.188 591.528 528.519 589.885 528.519C588.241 528.519 586.911 527.188 586.911 525.545C586.911 523.901 588.241 522.571 589.885 522.571Z" fill="#FFFAEE"/>
<path d="M589.885 531.427C591.288 531.427 592.423 532.565 592.423 533.965C592.423 535.365 591.285 536.503 589.885 536.503C588.485 536.503 587.347 535.365 587.347 533.965C587.347 532.565 588.485 531.427 589.885 531.427Z" fill="#FFFAEE"/>
<path d="M589.885 540.285C591.045 540.285 591.987 541.227 591.987 542.387C591.987 543.546 591.045 544.488 589.885 544.488C588.725 544.488 587.783 543.546 587.783 542.387C587.783 541.227 588.725 540.285 589.885 540.285Z" fill="#FFFAEE"/>
<path d="M589.885 549.138C590.804 549.138 591.551 549.884 591.551 550.804C591.551 551.724 590.804 552.47 589.885 552.47C588.965 552.47 588.219 551.724 588.219 550.804C588.219 549.884 588.965 549.138 589.885 549.138Z" fill="#FFFAEE"/>
<path d="M589.885 557.996C590.564 557.996 591.115 558.546 591.115 559.225C591.115 559.904 590.564 560.455 589.885 560.455C589.206 560.455 588.655 559.904 588.655 559.225C588.655 558.546 589.206 557.996 589.885 557.996Z" fill="#FFFAEE"/>
<path d="M597.873 504.857C599.997 504.857 601.718 506.579 601.718 508.703C601.718 510.827 599.997 512.549 597.873 512.549C595.748 512.549 594.027 510.827 594.027 508.703C594.027 506.579 595.748 504.857 597.873 504.857Z" fill="#FFFAEE"/>
<path d="M597.873 513.714C599.756 513.714 601.282 515.24 601.282 517.123C601.282 519.007 599.756 520.533 597.873 520.533C595.989 520.533 594.463 519.007 594.463 517.123C594.463 515.24 595.989 513.714 597.873 513.714Z" fill="#FFFAEE"/>
<path d="M597.873 522.571C599.516 522.571 600.846 523.901 600.846 525.545C600.846 527.188 599.516 528.519 597.873 528.519C596.229 528.519 594.899 527.188 594.899 525.545C594.899 523.901 596.229 522.571 597.873 522.571Z" fill="#FFFAEE"/>
<path d="M597.873 531.427C599.276 531.427 600.41 532.565 600.41 533.965C600.41 535.365 599.273 536.503 597.873 536.503C596.472 536.503 595.335 535.365 595.335 533.965C595.335 532.565 596.472 531.427 597.873 531.427Z" fill="#FFFAEE"/>
<path d="M597.873 540.285C599.033 540.285 599.974 541.227 599.974 542.387C599.974 543.546 599.033 544.488 597.873 544.488C596.713 544.488 595.771 543.546 595.771 542.387C595.771 541.227 596.713 540.285 597.873 540.285Z" fill="#FFFAEE"/>
<path d="M597.873 549.138C598.792 549.138 599.538 549.884 599.538 550.804C599.538 551.724 598.792 552.47 597.873 552.47C596.953 552.47 596.207 551.724 596.207 550.804C596.207 549.884 596.953 549.138 597.873 549.138Z" fill="#FFFAEE"/>
<path d="M597.873 557.996C598.552 557.996 599.103 558.546 599.103 559.225C599.103 559.904 598.552 560.455 597.873 560.455C597.194 560.455 596.643 559.904 596.643 559.225C596.643 558.546 597.194 557.996 597.873 557.996Z" fill="#FFFAEE"/>
<path d="M605.824 504.857C607.948 504.857 609.67 506.579 609.67 508.703C609.67 510.827 607.948 512.549 605.824 512.549C603.7 512.549 601.979 510.827 601.979 508.703C601.979 506.579 603.7 504.857 605.824 504.857Z" fill="#FFFAEE"/>
<path d="M605.824 513.714C607.708 513.714 609.234 515.24 609.234 517.123C609.234 519.007 607.708 520.533 605.824 520.533C603.941 520.533 602.415 519.007 602.415 517.123C602.415 515.24 603.941 513.714 605.824 513.714Z" fill="#FFFAEE"/>
<path d="M605.824 522.571C607.468 522.571 608.798 523.901 608.798 525.545C608.798 527.188 607.468 528.519 605.824 528.519C604.181 528.519 602.851 527.188 602.851 525.545C602.851 523.901 604.181 522.571 605.824 522.571Z" fill="#FFFAEE"/>
<path d="M605.824 531.427C607.224 531.427 608.362 532.565 608.362 533.965C608.362 535.365 607.227 536.503 605.824 536.503C604.421 536.503 603.286 535.365 603.286 533.965C603.286 532.565 604.424 531.427 605.824 531.427Z" fill="#FFFAEE"/>
<path d="M605.824 540.285C606.984 540.285 607.926 541.227 607.926 542.387C607.926 543.546 606.984 544.488 605.824 544.488C604.664 544.488 603.722 543.546 603.722 542.387C603.722 541.227 604.664 540.285 605.824 540.285Z" fill="#FFFAEE"/>
<path d="M605.824 549.138C606.743 549.138 607.49 549.884 607.49 550.804C607.49 551.724 606.743 552.47 605.824 552.47C604.904 552.47 604.158 551.724 604.158 550.804C604.158 549.884 604.904 549.138 605.824 549.138Z" fill="#FFFAEE"/>
<path d="M605.824 557.996C606.503 557.996 607.054 558.546 607.054 559.225C607.054 559.904 606.503 560.455 605.824 560.455C605.145 560.455 604.594 559.904 604.594 559.225C604.594 558.546 605.145 557.996 605.824 557.996Z" fill="#FFFAEE"/>
<path d="M613.809 504.857C615.933 504.857 617.655 506.579 617.655 508.703C617.655 510.827 615.933 512.549 613.809 512.549C611.685 512.549 609.963 510.827 609.963 508.703C609.963 506.579 611.685 504.857 613.809 504.857Z" fill="#FFFAEE"/>
<path d="M613.809 513.714C615.693 513.714 617.219 515.24 617.219 517.123C617.219 519.007 615.693 520.533 613.809 520.533C611.925 520.533 610.399 519.007 610.399 517.123C610.399 515.24 611.925 513.714 613.809 513.714Z" fill="#FFFAEE"/>
<path d="M613.809 522.571C615.452 522.571 616.782 523.901 616.782 525.545C616.782 527.188 615.452 528.519 613.809 528.519C612.165 528.519 610.835 527.188 610.835 525.545C610.835 523.901 612.165 522.571 613.809 522.571Z" fill="#FFFAEE"/>
<path d="M613.809 531.427C615.212 531.427 616.346 532.565 616.346 533.965C616.346 535.365 615.209 536.503 613.809 536.503C612.408 536.503 611.271 535.365 611.271 533.965C611.271 532.565 612.408 531.427 613.809 531.427Z" fill="#FFFAEE"/>
<path d="M613.809 540.285C614.969 540.285 615.91 541.227 615.91 542.387C615.91 543.546 614.969 544.488 613.809 544.488C612.649 544.488 611.707 543.546 611.707 542.387C611.707 541.227 612.649 540.285 613.809 540.285Z" fill="#FFFAEE"/>
<path d="M613.809 549.138C614.728 549.138 615.475 549.884 615.475 550.804C615.475 551.724 614.728 552.47 613.809 552.47C612.889 552.47 612.143 551.724 612.143 550.804C612.143 549.884 612.889 549.138 613.809 549.138Z" fill="#FFFAEE"/>
<path d="M613.809 557.996C614.488 557.996 615.039 558.546 615.039 559.225C615.039 559.904 614.488 560.455 613.809 560.455C613.13 560.455 612.579 559.904 612.579 559.225C612.579 558.546 613.13 557.996 613.809 557.996Z" fill="#FFFAEE"/>
<path d="M621.794 504.857C623.918 504.857 625.64 506.579 625.64 508.703C625.64 510.827 623.918 512.549 621.794 512.549C619.67 512.549 617.948 510.827 617.948 508.703C617.948 506.579 619.67 504.857 621.794 504.857Z" fill="#FFFAEE"/>
<path d="M621.794 513.714C623.678 513.714 625.204 515.24 625.204 517.123C625.204 519.007 623.678 520.533 621.794 520.533C619.91 520.533 618.384 519.007 618.384 517.123C618.384 515.24 619.91 513.714 621.794 513.714Z" fill="#FFFAEE"/>
<path d="M621.915 522.567C623.556 522.635 624.831 524.021 624.763 525.662C624.695 527.302 623.309 528.577 621.668 528.509C620.028 528.441 618.753 527.056 618.821 525.415C618.889 523.774 620.274 522.499 621.915 522.567Z" fill="#FFFAEE"/>
<path d="M621.794 531.427C623.197 531.427 624.331 532.565 624.331 533.965C624.331 535.365 623.194 536.503 621.794 536.503C620.393 536.503 619.256 535.365 619.256 533.965C619.256 532.565 620.393 531.427 621.794 531.427Z" fill="#FFFAEE"/>
<path d="M621.794 540.285C622.954 540.285 623.896 541.227 623.896 542.387C623.896 543.546 622.954 544.488 621.794 544.488C620.634 544.488 619.692 543.546 619.692 542.387C619.692 541.227 620.634 540.285 621.794 540.285Z" fill="#FFFAEE"/>
<path d="M621.794 549.138C622.713 549.138 623.459 549.884 623.459 550.804C623.459 551.724 622.713 552.47 621.794 552.47C620.874 552.47 620.128 551.724 620.128 550.804C620.128 549.884 620.874 549.138 621.794 549.138Z" fill="#FFFAEE"/>
<path d="M621.794 557.996C622.473 557.996 623.023 558.546 623.023 559.225C623.023 559.904 622.473 560.455 621.794 560.455C621.115 560.455 620.564 559.904 620.564 559.225C620.564 558.546 621.115 557.996 621.794 557.996Z" fill="#FFFAEE"/>
<path d="M629.779 504.857C631.903 504.857 633.625 506.579 633.625 508.703C633.625 510.827 631.903 512.549 629.779 512.549C627.655 512.549 625.933 510.827 625.933 508.703C625.933 506.579 627.655 504.857 629.779 504.857Z" fill="#FFFAEE"/>
<path d="M629.779 513.714C631.663 513.714 633.189 515.24 633.189 517.123C633.189 519.007 631.663 520.533 629.779 520.533C627.895 520.533 626.369 519.007 626.369 517.123C626.369 515.24 627.895 513.714 629.779 513.714Z" fill="#FFFAEE"/>
<path d="M629.779 522.571C631.422 522.571 632.753 523.901 632.753 525.545C632.753 527.188 631.422 528.519 629.779 528.519C628.136 528.519 626.805 527.188 626.805 525.545C626.805 523.901 628.136 522.571 629.779 522.571Z" fill="#FFFAEE"/>
<path d="M629.779 531.427C631.179 531.427 632.317 532.565 632.317 533.965C632.317 535.365 631.179 536.503 629.779 536.503C628.379 536.503 627.241 535.365 627.241 533.965C627.241 532.565 628.379 531.427 629.779 531.427Z" fill="#FFFAEE"/>
<path d="M629.779 540.285C630.939 540.285 631.881 541.227 631.881 542.387C631.881 543.546 630.939 544.488 629.779 544.488C628.619 544.488 627.677 543.546 627.677 542.387C627.677 541.227 628.619 540.285 629.779 540.285Z" fill="#FFFAEE"/>
<path d="M629.779 549.138C630.699 549.138 631.445 549.884 631.445 550.804C631.445 551.724 630.699 552.47 629.779 552.47C628.86 552.47 628.113 551.724 628.113 550.804C628.113 549.884 628.86 549.138 629.779 549.138Z" fill="#FFFAEE"/>
<path d="M629.779 557.996C630.458 557.996 631.008 558.546 631.008 559.225C631.008 559.904 630.458 560.455 629.779 560.455C629.099 560.455 628.549 559.904 628.549 559.225C628.549 558.546 629.099 557.996 629.779 557.996Z" fill="#FFFAEE"/>
<path d="M637.764 504.857C639.888 504.857 641.609 506.579 641.609 508.703C641.609 510.827 639.888 512.549 637.764 512.549C635.64 512.549 633.918 510.827 633.918 508.703C633.918 506.579 635.64 504.857 637.764 504.857Z" fill="#FFFAEE"/>
<path d="M637.764 513.714C639.647 513.714 641.173 515.24 641.173 517.123C641.173 519.007 639.647 520.533 637.764 520.533C635.88 520.533 634.354 519.007 634.354 517.123C634.354 515.24 635.88 513.714 637.764 513.714Z" fill="#FFFAEE"/>
<path d="M637.764 522.571C639.407 522.571 640.737 523.901 640.737 525.545C640.737 527.188 639.407 528.519 637.764 528.519C636.12 528.519 634.79 527.188 634.79 525.545C634.79 523.901 636.12 522.571 637.764 522.571Z" fill="#FFFAEE"/>
<path d="M637.764 531.427C639.167 531.427 640.302 532.565 640.302 533.965C640.302 535.365 639.164 536.503 637.764 536.503C636.364 536.503 635.226 535.365 635.226 533.965C635.226 532.565 636.364 531.427 637.764 531.427Z" fill="#FFFAEE"/>
<path d="M637.764 540.285C638.924 540.285 639.866 541.227 639.866 542.387C639.866 543.546 638.924 544.488 637.764 544.488C636.604 544.488 635.662 543.546 635.662 542.387C635.662 541.227 636.604 540.285 637.764 540.285Z" fill="#FFFAEE"/>
<path d="M637.763 549.138C638.683 549.138 639.429 549.884 639.429 550.804C639.429 551.724 638.683 552.47 637.763 552.47C636.844 552.47 636.098 551.724 636.098 550.804C636.098 549.884 636.844 549.138 637.763 549.138Z" fill="#FFFAEE"/>
<path d="M637.763 557.996C638.443 557.996 638.993 558.546 638.993 559.225C638.993 559.904 638.443 560.455 637.763 560.455C637.084 560.455 636.534 559.904 636.534 559.225C636.534 558.546 637.084 557.996 637.763 557.996Z" fill="#FFFAEE"/>
<path d="M645.749 504.857C647.873 504.857 649.594 506.579 649.594 508.703C649.594 510.827 647.873 512.549 645.749 512.549C643.624 512.549 641.903 510.827 641.903 508.703C641.903 506.579 643.624 504.857 645.749 504.857Z" fill="#FFFAEE"/>
<path d="M645.749 513.714C647.632 513.714 649.158 515.24 649.158 517.123C649.158 519.007 647.632 520.533 645.749 520.533C643.865 520.533 642.339 519.007 642.339 517.123C642.339 515.24 643.865 513.714 645.749 513.714Z" fill="#FFFAEE"/>
<path d="M645.749 522.571C647.392 522.571 648.722 523.901 648.722 525.545C648.722 527.188 647.392 528.519 645.749 528.519C644.105 528.519 642.775 527.188 642.775 525.545C642.775 523.901 644.105 522.571 645.749 522.571Z" fill="#FFFAEE"/>
<path d="M645.749 531.427C647.152 531.427 648.286 532.565 648.286 533.965C648.286 535.365 647.149 536.503 645.749 536.503C644.348 536.503 643.211 535.365 643.211 533.965C643.211 532.565 644.348 531.427 645.749 531.427Z" fill="#FFFAEE"/>
<path d="M645.749 540.285C646.909 540.285 647.85 541.227 647.85 542.387C647.85 543.546 646.909 544.488 645.749 544.488C644.589 544.488 643.647 543.546 643.647 542.387C643.647 541.227 644.589 540.285 645.749 540.285Z" fill="#FFFAEE"/>
<path d="M645.748 549.138C646.668 549.138 647.414 549.884 647.414 550.804C647.414 551.724 646.668 552.47 645.748 552.47C644.829 552.47 644.083 551.724 644.083 550.804C644.083 549.884 644.829 549.138 645.748 549.138Z" fill="#FFFAEE"/>
<path d="M645.748 557.996C646.427 557.996 646.978 558.546 646.978 559.225C646.978 559.904 646.427 560.455 645.748 560.455C645.069 560.455 644.519 559.904 644.519 559.225C644.519 558.546 645.069 557.996 645.748 557.996Z" fill="#FFFAEE"/>
<path d="M653.733 504.857C655.858 504.857 657.579 506.579 657.579 508.703C657.579 510.827 655.858 512.549 653.733 512.549C651.609 512.549 649.888 510.827 649.888 508.703C649.888 506.579 651.609 504.857 653.733 504.857Z" fill="#FFFAEE"/>
<path d="M653.733 513.714C655.617 513.714 657.143 515.24 657.143 517.123C657.143 519.007 655.617 520.533 653.733 520.533C651.85 520.533 650.324 519.007 650.324 517.123C650.324 515.24 651.85 513.714 653.733 513.714Z" fill="#FFFAEE"/>
<path d="M653.733 522.571C655.377 522.571 656.707 523.901 656.707 525.545C656.707 527.188 655.377 528.519 653.733 528.519C652.09 528.519 650.76 527.188 650.76 525.545C650.76 523.901 652.09 522.571 653.733 522.571Z" fill="#FFFAEE"/>
<path d="M653.734 531.427C655.137 531.427 656.271 532.565 656.271 533.965C656.271 535.365 655.134 536.503 653.734 536.503C652.333 536.503 651.196 535.365 651.196 533.965C651.196 532.565 652.333 531.427 653.734 531.427Z" fill="#FFFAEE"/>
<path d="M653.734 540.285C654.893 540.285 655.835 541.227 655.835 542.387C655.835 543.546 654.893 544.488 653.734 544.488C652.574 544.488 651.632 543.546 651.632 542.387C651.632 541.227 652.574 540.285 653.734 540.285Z" fill="#FFFAEE"/>
<path d="M653.734 549.138C654.653 549.138 655.399 549.884 655.399 550.804C655.399 551.724 654.653 552.47 653.734 552.47C652.814 552.47 652.068 551.724 652.068 550.804C652.068 549.884 652.814 549.138 653.734 549.138Z" fill="#FFFAEE"/>
<path d="M653.734 557.996C654.413 557.996 654.963 558.546 654.963 559.225C654.963 559.904 654.413 560.455 653.734 560.455C653.054 560.455 652.504 559.904 652.504 559.225C652.504 558.546 653.054 557.996 653.734 557.996Z" fill="#FFFAEE"/>
<path d="M661.718 504.561C659.888 504.561 658.336 503.406 657.724 501.791C657.112 503.406 655.561 504.561 653.731 504.561C651.9 504.561 650.349 503.406 649.737 501.791C649.125 503.406 647.573 504.561 645.743 504.561C643.912 504.561 642.361 503.406 641.749 501.791C641.137 503.406 639.586 504.561 637.755 504.561C635.925 504.561 634.376 503.406 633.764 501.791C633.152 503.406 631.601 504.561 629.77 504.561C627.94 504.561 626.389 503.406 625.776 501.791C625.164 503.406 623.613 504.561 621.783 504.561C619.952 504.561 618.401 503.406 617.789 501.791C617.177 503.406 615.626 504.561 613.795 504.561C611.964 504.561 610.416 503.406 609.804 501.791C609.192 503.406 607.641 504.561 605.81 504.561C603.979 504.561 602.465 503.443 601.836 501.861C601.207 503.443 599.664 504.561 597.861 504.561C596.059 504.561 594.48 503.406 593.868 501.791C593.256 503.406 591.704 504.561 589.874 504.561C588.043 504.561 586.492 503.406 585.88 501.791C585.268 503.406 583.717 504.561 581.886 504.561C580.055 504.561 578.504 503.406 577.892 501.791C577.28 503.406 575.729 504.561 573.898 504.561C572.068 504.561 570.519 503.406 569.907 501.791C569.295 503.406 567.744 504.561 565.914 504.561C564.083 504.561 562.532 503.406 561.92 501.791C561.308 503.406 559.756 504.561 557.926 504.561C556.095 504.561 554.544 503.406 553.932 501.791C553.32 503.406 551.769 504.561 549.938 504.561C548.108 504.561 546.559 503.406 545.947 501.791C545.335 503.406 543.784 504.561 541.953 504.561C540.123 504.561 538.608 503.443 537.979 501.861C537.35 503.443 535.807 504.561 534.005 504.561C532.202 504.561 530.623 503.406 530.011 501.791C529.399 503.406 527.848 504.561 526.017 504.561C524.186 504.561 522.635 503.406 522.023 501.791C521.411 503.406 519.86 504.561 518.029 504.561C516.199 504.561 514.648 503.406 514.035 501.791C513.423 503.406 511.872 504.561 510.042 504.561C508.211 504.561 506.663 503.406 506.051 501.791C505.439 503.406 503.887 504.561 502.057 504.561C500.226 504.561 498.675 503.406 498.063 501.791C497.451 503.406 495.9 504.561 494.069 504.561C492.238 504.561 490.687 503.406 490.075 501.791C489.463 503.406 487.912 504.561 486.081 504.561C484.251 504.561 482.702 503.406 482.09 501.791C481.478 503.406 479.927 504.561 478.096 504.561C476.266 504.561 474.751 503.443 474.122 501.861C473.493 503.443 471.951 504.561 470.148 504.561C468.345 504.561 466.766 503.406 466.154 501.791C465.542 503.406 463.991 504.561 462.16 504.561C460.33 504.561 458.778 503.406 458.166 501.791C457.554 503.406 456.003 504.561 454.173 504.561C452.342 504.561 450.791 503.406 450.179 501.791C449.567 503.406 448.015 504.561 446.185 504.561C444.354 504.561 442.806 503.406 442.194 501.791C441.582 503.406 440.031 504.561 438.2 504.561C436.369 504.561 434.818 503.406 434.206 501.791C433.594 503.406 432.043 504.561 430.212 504.561C428.382 504.561 426.831 503.406 426.218 501.791C425.606 503.406 424.055 504.561 422.225 504.561C420.394 504.561 418.846 503.406 418.234 501.791C417.621 503.406 416.07 504.561 414.24 504.561C411.875 504.561 409.958 502.643 409.958 500.279C409.958 497.914 411.875 495.997 414.24 495.997C416.07 495.997 417.621 497.151 418.234 498.767C418.846 497.151 420.397 495.997 422.225 495.997C424.052 495.997 425.606 497.151 426.218 498.767C426.831 497.151 428.382 495.997 430.212 495.997C432.043 495.997 433.594 497.151 434.206 498.767C434.818 497.151 436.369 495.997 438.2 495.997C440.031 495.997 441.582 497.151 442.194 498.767C442.806 497.151 444.357 495.997 446.185 495.997C448.013 495.997 449.567 497.151 450.179 498.767C450.791 497.151 452.342 495.997 454.173 495.997C456.003 495.997 457.554 497.151 458.166 498.767C458.778 497.151 460.33 495.997 462.16 495.997C463.991 495.997 465.542 497.151 466.154 498.767C466.766 497.151 468.317 495.997 470.148 495.997C471.979 495.997 473.493 497.115 474.122 498.697C474.751 497.115 476.294 495.997 478.096 495.997C479.899 495.997 481.478 497.151 482.09 498.767C482.702 497.151 484.254 495.997 486.081 495.997C487.909 495.997 489.463 497.151 490.075 498.767C490.687 497.151 492.238 495.997 494.069 495.997C495.9 495.997 497.451 497.151 498.063 498.767C498.675 497.151 500.226 495.997 502.057 495.997C503.887 495.997 505.439 497.151 506.051 498.767C506.663 497.151 508.214 495.997 510.042 495.997C511.869 495.997 513.423 497.151 514.035 498.767C514.648 497.151 516.199 495.997 518.029 495.997C519.86 495.997 521.411 497.151 522.023 498.767C522.635 497.151 524.186 495.997 526.017 495.997C527.848 495.997 529.399 497.151 530.011 498.767C530.623 497.151 532.174 495.997 534.005 495.997C535.835 495.997 537.35 497.115 537.979 498.697C538.608 497.115 540.151 495.997 541.953 495.997C543.756 495.997 545.335 497.151 545.947 498.767C546.559 497.151 548.11 495.997 549.938 495.997C551.766 495.997 553.32 497.151 553.932 498.767C554.544 497.151 556.095 495.997 557.926 495.997C559.756 495.997 561.308 497.151 561.92 498.767C562.532 497.151 564.083 495.997 565.914 495.997C567.744 495.997 569.295 497.151 569.907 498.767C570.519 497.151 572.071 495.997 573.898 495.997C575.726 495.997 577.28 497.151 577.892 498.767C578.504 497.151 580.055 495.997 581.886 495.997C583.717 495.997 585.268 497.151 585.88 498.767C586.492 497.151 588.043 495.997 589.874 495.997C591.704 495.997 593.256 497.151 593.868 498.767C594.48 497.151 596.031 495.997 597.861 495.997C599.692 495.997 601.207 497.115 601.836 498.697C602.465 497.115 604.007 495.997 605.81 495.997C607.613 495.997 609.192 497.151 609.804 498.767C610.416 497.151 611.967 495.997 613.795 495.997C615.623 495.997 617.177 497.151 617.789 498.767C618.401 497.151 619.952 495.997 621.783 495.997C623.613 495.997 625.164 497.151 625.776 498.767C626.389 497.151 627.94 495.997 629.77 495.997C631.601 495.997 633.152 497.151 633.764 498.767C634.376 497.151 635.927 495.997 637.755 495.997C639.583 495.997 641.137 497.151 641.749 498.767C642.361 497.151 643.912 495.997 645.743 495.997C647.573 495.997 649.125 497.151 649.737 498.767C650.349 497.151 651.9 495.997 653.731 495.997C655.561 495.997 657.112 497.151 657.724 498.767C658.336 497.151 659.888 495.997 661.718 495.997C664.083 495.997 666 497.914 666 500.279C666 502.643 664.083 504.561 661.718 504.561Z" fill="#FFFAEE"/>
<path d="M661.718 504.857C663.842 504.857 665.564 506.579 665.564 508.703C665.564 510.827 663.842 512.549 661.718 512.549C659.594 512.549 657.873 510.827 657.873 508.703C657.873 506.579 659.594 504.857 661.718 504.857Z" fill="#FFFAEE"/>
<path d="M661.718 513.714C663.602 513.714 665.128 515.24 665.128 517.123C665.128 519.007 663.602 520.533 661.718 520.533C659.835 520.533 658.309 519.007 658.309 517.123C658.309 515.24 659.835 513.714 661.718 513.714Z" fill="#FFFAEE"/>
<path d="M661.718 522.571C663.362 522.571 664.692 523.901 664.692 525.545C664.692 527.188 663.362 528.519 661.718 528.519C660.075 528.519 658.745 527.188 658.745 525.545C658.745 523.901 660.075 522.571 661.718 522.571Z" fill="#FFFAEE"/>
<path d="M661.718 531.427C663.121 531.427 664.256 532.565 664.256 533.965C664.256 535.365 663.119 536.503 661.718 536.503C660.318 536.503 659.181 535.365 659.181 533.965C659.181 532.565 660.315 531.427 661.718 531.427Z" fill="#FFFAEE"/>
<path d="M661.718 540.285C662.878 540.285 663.82 541.227 663.82 542.387C663.82 543.546 662.878 544.488 661.718 544.488C660.559 544.488 659.617 543.546 659.617 542.387C659.617 541.227 660.559 540.285 661.718 540.285Z" fill="#FFFAEE"/>
<path d="M661.718 549.138C662.638 549.138 663.384 549.884 663.384 550.804C663.384 551.724 662.638 552.47 661.718 552.47C660.799 552.47 660.053 551.724 660.053 550.804C660.053 549.884 660.799 549.138 661.718 549.138Z" fill="#FFFAEE"/>
<path d="M661.719 557.996C662.398 557.996 662.948 558.546 662.948 559.225C662.948 559.904 662.398 560.455 661.719 560.455C661.039 560.455 660.489 559.904 660.489 559.225C660.489 558.546 661.039 557.996 661.719 557.996Z" fill="#FFFAEE"/>
</g>
<path fill-rule="evenodd" clip-rule="evenodd" d="M510.57 623.341V626.715C510.2 626.75 509.825 626.77 509.44 626.77C503.159 626.77 498.034 621.653 498.034 615.383C498.034 609.112 503.159 604 509.44 604C509.82 604 510.2 604.02 510.57 604.055V607.43C510.2 607.375 509.825 607.35 509.44 607.35C505.004 607.35 501.389 610.964 501.389 615.383C501.389 619.801 505.009 623.415 509.44 623.415C509.82 623.415 510.2 623.385 510.57 623.336V623.341Z" fill="#FFFAEE"/>
<path fill-rule="evenodd" clip-rule="evenodd" d="M515.431 613.645H522.016V617.125H515.431C516.231 620.72 519.451 623.42 523.286 623.42C523.666 623.42 524.046 623.39 524.416 623.341V626.715C524.041 626.75 523.666 626.77 523.286 626.77C517.001 626.77 511.885 621.653 511.885 615.388C511.885 609.122 517.001 604 523.286 604C523.666 604 524.046 604.02 524.416 604.055V607.43C524.041 607.375 523.666 607.35 523.286 607.35C519.451 607.35 516.226 610.051 515.431 613.645Z" fill="#FFFAEE"/>
<path d="M454.385 604C448.107 604 443 609.107 443 615.385C443 621.663 448.107 626.77 454.385 626.77C460.663 626.77 465.77 621.663 465.77 615.385C465.77 609.107 460.663 604 454.385 604ZM464.732 615.385C464.732 621.091 460.091 625.732 454.385 625.732C448.679 625.732 444.039 621.091 444.039 615.385C444.039 609.679 448.679 605.039 454.385 605.039C460.091 605.039 464.732 609.679 464.732 615.385Z" fill="#FFFAEE"/>
<path d="M453.576 616L455.383 609.779H454.252V610.607H453.343V608.809H456.414V609.839L454.666 616H453.576ZM459.394 608.809L458.222 611.829L458.242 611.849C458.276 611.822 458.327 611.802 458.394 611.788C458.468 611.768 458.562 611.758 458.677 611.758C458.858 611.758 459.027 611.802 459.182 611.889C459.336 611.977 459.458 612.088 459.545 612.223C459.592 612.297 459.629 612.371 459.656 612.445C459.683 612.519 459.707 612.617 459.727 612.738C459.74 612.859 459.751 613.014 459.757 613.202C459.764 613.384 459.767 613.617 459.767 613.899C459.767 614.135 459.764 614.33 459.757 614.485C459.751 614.633 459.74 614.758 459.727 614.859C459.707 614.966 459.68 615.057 459.646 615.131C459.619 615.206 459.582 615.283 459.535 615.364C459.4 615.586 459.219 615.758 458.99 615.879C458.768 616 458.515 616.061 458.232 616.061C457.949 616.061 457.697 616 457.475 615.879C457.253 615.751 457.074 615.579 456.94 615.364C456.886 615.283 456.842 615.206 456.808 615.131C456.781 615.057 456.761 614.966 456.748 614.859C456.727 614.758 456.714 614.633 456.707 614.485C456.701 614.33 456.697 614.135 456.697 613.899C456.697 613.677 456.701 613.495 456.707 613.354C456.714 613.206 456.724 613.078 456.738 612.97C456.751 612.869 456.771 612.778 456.798 612.697C456.825 612.61 456.855 612.519 456.889 612.425L458.242 608.809H459.394ZM458.737 613.182C458.737 613.027 458.687 612.903 458.586 612.809C458.485 612.714 458.367 612.667 458.232 612.667C458.098 612.667 457.98 612.714 457.879 612.809C457.778 612.903 457.727 613.027 457.727 613.182V614.515C457.727 614.67 457.778 614.795 457.879 614.889C457.98 614.983 458.098 615.03 458.232 615.03C458.367 615.03 458.485 614.983 458.586 614.889C458.687 614.795 458.737 614.67 458.737 614.515V613.182Z" fill="#FFFAEE"/>
<path d="M559.534 604H576.8C578.317 604 579.552 605.235 579.552 606.752V624.018C579.552 625.536 578.317 626.77 576.8 626.77H559.534C558.016 626.77 556.781 625.536 556.781 624.018V606.752C556.781 605.235 558.016 604 559.534 604H559.534ZM576.8 605.559H559.534C558.876 605.559 558.341 606.094 558.341 606.752V612.034H569.779L564.984 607.579H567.276L572.906 612.812L567.923 617.445H577.993V606.752C577.993 606.094 577.457 605.559 576.8 605.559ZM559.534 625.211H576.8C577.457 625.211 577.993 624.676 577.993 624.018V619.005H567.839L572.633 623.46H570.341L564.712 618.227L569.694 613.593H558.34V624.018C558.34 624.676 558.876 625.211 559.533 625.211L559.534 625.211Z" fill="#FFFAEE"/>
<path d="M426.12 586.753C425.543 586.753 425.003 586.648 424.499 586.437C424.005 586.226 423.57 585.924 423.195 585.531C422.829 585.137 422.536 584.661 422.316 584.102C422.105 583.544 422 582.912 422 582.207C422 581.512 422.105 580.885 422.316 580.326C422.536 579.758 422.829 579.278 423.195 578.884C423.57 578.49 424.005 578.188 424.499 577.978C425.003 577.767 425.543 577.662 426.12 577.662C426.696 577.662 427.232 577.767 427.726 577.978C428.23 578.188 428.665 578.49 429.031 578.884C429.406 579.278 429.699 579.758 429.91 580.326C430.13 580.885 430.239 581.512 430.239 582.207C430.239 582.912 430.13 583.544 429.91 584.102C429.699 584.661 429.406 585.137 429.031 585.531C428.665 585.924 428.23 586.226 427.726 586.437C427.232 586.648 426.696 586.753 426.12 586.753ZM426.12 585.998C426.587 585.998 427.017 585.911 427.411 585.737C427.813 585.563 428.157 585.325 428.44 585.023C428.733 584.711 428.962 584.35 429.127 583.938C429.292 583.526 429.374 583.086 429.374 582.619V581.795C429.374 581.329 429.292 580.889 429.127 580.477C428.962 580.065 428.733 579.708 428.44 579.406C428.157 579.095 427.813 578.852 427.411 578.678C427.017 578.504 426.587 578.417 426.12 578.417C425.653 578.417 425.218 578.504 424.815 578.678C424.421 578.852 424.078 579.095 423.785 579.406C423.501 579.708 423.277 580.065 423.112 580.477C422.948 580.889 422.865 581.329 422.865 581.795V582.619C422.865 583.086 422.948 583.526 423.112 583.938C423.277 584.35 423.501 584.711 423.785 585.023C424.078 585.325 424.421 585.563 424.815 585.737C425.218 585.911 425.653 585.998 426.12 585.998ZM426.188 584.652C425.52 584.652 424.998 584.432 424.623 583.993C424.257 583.544 424.074 582.949 424.074 582.207C424.074 581.457 424.261 580.862 424.637 580.422C425.012 579.983 425.529 579.763 426.188 579.763C426.628 579.763 426.985 579.864 427.26 580.065C427.543 580.267 427.763 580.532 427.919 580.862L427.191 581.26C427.09 581.04 426.962 580.866 426.806 580.738C426.651 580.61 426.445 580.546 426.188 580.546C425.831 580.546 425.552 580.665 425.351 580.903C425.158 581.132 425.062 581.434 425.062 581.809V582.592C425.062 582.976 425.158 583.288 425.351 583.526C425.543 583.755 425.827 583.869 426.202 583.869C426.477 583.869 426.696 583.8 426.861 583.663C427.026 583.526 427.173 583.343 427.301 583.114L427.987 583.539C427.832 583.86 427.603 584.125 427.301 584.336C427.008 584.546 426.637 584.652 426.188 584.652ZM451.193 587H444.793V585.819L447.993 582.935C448.46 582.514 448.844 582.084 449.147 581.644C449.449 581.196 449.6 580.724 449.6 580.23V580.065C449.6 579.488 449.449 579.044 449.147 578.733C448.844 578.413 448.396 578.252 447.801 578.252C447.215 578.252 446.762 578.404 446.441 578.706C446.13 578.999 445.897 579.392 445.741 579.887L444.711 579.502C444.803 579.218 444.926 578.944 445.082 578.678C445.247 578.404 445.453 578.161 445.7 577.95C445.947 577.74 446.244 577.57 446.592 577.442C446.949 577.314 447.361 577.25 447.828 577.25C448.304 577.25 448.725 577.319 449.092 577.456C449.467 577.593 449.778 577.786 450.025 578.033C450.282 578.28 450.474 578.573 450.602 578.912C450.74 579.25 450.808 579.621 450.808 580.024C450.808 580.39 450.753 580.733 450.643 581.054C450.543 581.374 450.396 581.681 450.204 581.974C450.021 582.267 449.797 582.555 449.531 582.839C449.275 583.114 448.986 583.388 448.666 583.663L445.988 585.998H451.193V587ZM455.211 587.165C454.625 587.165 454.122 587.055 453.7 586.835C453.279 586.606 452.931 586.281 452.657 585.86C452.382 585.439 452.181 584.922 452.052 584.308C451.924 583.695 451.86 582.995 451.86 582.207C451.86 581.429 451.924 580.733 452.052 580.12C452.181 579.498 452.382 578.976 452.657 578.555C452.931 578.133 453.279 577.813 453.7 577.593C454.122 577.364 454.625 577.25 455.211 577.25C455.797 577.25 456.3 577.364 456.722 577.593C457.143 577.813 457.491 578.133 457.765 578.555C458.04 578.976 458.241 579.498 458.369 580.12C458.498 580.733 458.562 581.429 458.562 582.207C458.562 582.995 458.498 583.695 458.369 584.308C458.241 584.922 458.04 585.439 457.765 585.86C457.491 586.281 457.143 586.606 456.722 586.835C456.3 587.055 455.797 587.165 455.211 587.165ZM455.211 586.162C455.595 586.162 455.925 586.089 456.2 585.943C456.474 585.787 456.694 585.572 456.859 585.297C457.033 585.023 457.161 584.693 457.243 584.308C457.326 583.915 457.367 583.475 457.367 582.99V581.425C457.367 580.949 457.326 580.514 457.243 580.12C457.161 579.726 457.033 579.392 456.859 579.118C456.694 578.843 456.474 578.632 456.2 578.486C455.925 578.33 455.595 578.252 455.211 578.252C454.826 578.252 454.497 578.33 454.222 578.486C453.948 578.632 453.723 578.843 453.549 579.118C453.385 579.392 453.261 579.726 453.179 580.12C453.096 580.514 453.055 580.949 453.055 581.425V582.99C453.055 583.475 453.096 583.915 453.179 584.308C453.261 584.693 453.385 585.023 453.549 585.297C453.723 585.572 453.948 585.787 454.222 585.943C454.497 586.089 454.826 586.162 455.211 586.162ZM455.211 583.018C454.891 583.018 454.666 582.954 454.538 582.825C454.419 582.697 454.36 582.542 454.36 582.358V582.056C454.36 581.873 454.419 581.718 454.538 581.589C454.666 581.461 454.891 581.397 455.211 581.397C455.531 581.397 455.751 581.461 455.87 581.589C455.998 581.718 456.062 581.873 456.062 582.056V582.358C456.062 582.542 455.998 582.697 455.87 582.825C455.751 582.954 455.531 583.018 455.211 583.018ZM465.738 587H459.339V585.819L462.539 582.935C463.006 582.514 463.39 582.084 463.692 581.644C463.994 581.196 464.145 580.724 464.145 580.23V580.065C464.145 579.488 463.994 579.044 463.692 578.733C463.39 578.413 462.941 578.252 462.346 578.252C461.761 578.252 461.307 578.404 460.987 578.706C460.676 578.999 460.442 579.392 460.287 579.887L459.257 579.502C459.348 579.218 459.472 578.944 459.627 578.678C459.792 578.404 459.998 578.161 460.245 577.95C460.493 577.74 460.79 577.57 461.138 577.442C461.495 577.314 461.907 577.25 462.374 577.25C462.85 577.25 463.271 577.319 463.637 577.456C464.013 577.593 464.324 577.786 464.571 578.033C464.827 578.28 465.02 578.573 465.148 578.912C465.285 579.25 465.354 579.621 465.354 580.024C465.354 580.39 465.299 580.733 465.189 581.054C465.088 581.374 464.942 581.681 464.75 581.974C464.566 582.267 464.342 582.555 464.077 582.839C463.82 583.114 463.532 583.388 463.212 583.663L460.534 585.998H465.738V587ZM469.77 587.165C469.267 587.165 468.814 587.082 468.411 586.918C468.008 586.744 467.665 586.501 467.381 586.19C467.106 585.869 466.891 585.48 466.735 585.023C466.589 584.565 466.516 584.052 466.516 583.485C466.516 582.77 466.621 582.102 466.832 581.48C467.051 580.848 467.326 580.276 467.655 579.763C467.994 579.241 468.37 578.783 468.782 578.39C469.194 577.987 469.596 577.662 469.99 577.415H471.473C470.951 577.79 470.484 578.156 470.072 578.513C469.67 578.87 469.313 579.246 469.001 579.639C468.69 580.024 468.429 580.44 468.219 580.889C468.008 581.329 467.834 581.827 467.697 582.386L467.765 582.413C467.994 582.02 468.296 581.695 468.672 581.438C469.047 581.173 469.532 581.04 470.127 581.04C470.548 581.04 470.933 581.109 471.281 581.246C471.629 581.383 471.931 581.58 472.187 581.837C472.444 582.093 472.64 582.404 472.778 582.77C472.924 583.137 472.997 583.544 472.997 583.993C472.997 584.46 472.92 584.89 472.764 585.283C472.608 585.668 472.389 586.002 472.105 586.286C471.83 586.561 471.491 586.776 471.089 586.931C470.695 587.087 470.255 587.165 469.77 587.165ZM469.757 586.19C470.416 586.19 470.924 586.011 471.281 585.654C471.647 585.297 471.83 584.794 471.83 584.144V584.034C471.83 583.384 471.647 582.88 471.281 582.523C470.924 582.166 470.416 581.988 469.757 581.988C469.097 581.988 468.585 582.166 468.219 582.523C467.861 582.88 467.683 583.384 467.683 584.034V584.144C467.683 584.794 467.861 585.297 468.219 585.654C468.585 586.011 469.097 586.19 469.757 586.19ZM503.237 587V577.415H506.725C507.613 577.415 508.29 577.657 508.757 578.143C509.224 578.628 509.458 579.305 509.458 580.175C509.458 581.045 509.224 581.722 508.757 582.207C508.29 582.693 507.613 582.935 506.725 582.935H504.39V587H503.237ZM504.39 581.933H506.697C507.183 581.933 507.558 581.814 507.823 581.576C508.098 581.329 508.235 580.981 508.235 580.532V579.818C508.235 579.369 508.098 579.026 507.823 578.788C507.558 578.541 507.183 578.417 506.697 578.417H504.39V581.933ZM511.663 587H510.51V577.415H513.998C514.886 577.415 515.563 577.657 516.03 578.143C516.497 578.628 516.73 579.305 516.73 580.175C516.73 580.953 516.529 581.576 516.126 582.043C515.723 582.51 515.137 582.78 514.368 582.853L516.813 587H515.522L513.187 582.908H511.663V587ZM513.97 581.933C514.455 581.933 514.831 581.814 515.096 581.576C515.371 581.329 515.508 580.981 515.508 580.532V579.818C515.508 579.369 515.371 579.026 515.096 578.788C514.831 578.541 514.455 578.417 513.97 578.417H511.663V581.933H513.97ZM520.666 587.165C520.08 587.165 519.577 587.055 519.156 586.835C518.734 586.606 518.387 586.281 518.112 585.86C517.837 585.439 517.636 584.922 517.508 584.308C517.38 583.695 517.315 582.995 517.315 582.207C517.315 581.429 517.38 580.733 517.508 580.12C517.636 579.498 517.837 578.976 518.112 578.555C518.387 578.133 518.734 577.813 519.156 577.593C519.577 577.364 520.08 577.25 520.666 577.25C521.252 577.25 521.756 577.364 522.177 577.593C522.598 577.813 522.946 578.133 523.22 578.555C523.495 578.976 523.696 579.498 523.825 580.12C523.953 580.733 524.017 581.429 524.017 582.207C524.017 582.995 523.953 583.695 523.825 584.308C523.696 584.922 523.495 585.439 523.22 585.86C522.946 586.281 522.598 586.606 522.177 586.835C521.756 587.055 521.252 587.165 520.666 587.165ZM520.666 586.162C521.051 586.162 521.376 586.089 521.641 585.943C521.907 585.787 522.126 585.572 522.3 585.297C522.474 585.023 522.598 584.693 522.671 584.308C522.754 583.915 522.795 583.475 522.795 582.99V581.425C522.795 580.949 522.754 580.514 522.671 580.12C522.598 579.726 522.474 579.392 522.3 579.118C522.126 578.843 521.907 578.632 521.641 578.486C521.376 578.33 521.051 578.252 520.666 578.252C520.282 578.252 519.957 578.33 519.691 578.486C519.426 578.632 519.206 578.843 519.032 579.118C518.858 579.392 518.73 579.726 518.648 580.12C518.574 580.514 518.538 580.949 518.538 581.425V582.99C518.538 583.475 518.574 583.915 518.648 584.308C518.73 584.693 518.858 585.023 519.032 585.297C519.206 585.572 519.426 585.787 519.691 585.943C519.957 586.089 520.282 586.162 520.666 586.162ZM525.055 587V577.415H528.543C529.431 577.415 530.109 577.657 530.576 578.143C531.043 578.628 531.276 579.305 531.276 580.175C531.276 581.045 531.043 581.722 530.576 582.207C530.109 582.693 529.431 582.935 528.543 582.935H526.209V587H525.055ZM526.209 581.933H528.516C529.001 581.933 529.376 581.814 529.642 581.576C529.916 581.329 530.054 580.981 530.054 580.532V579.818C530.054 579.369 529.916 579.026 529.642 578.788C529.376 578.541 529.001 578.417 528.516 578.417H526.209V581.933ZM532.328 587V577.415H538.233V578.417H533.482V581.644H538.068V582.647H533.482V585.998H538.233V587H532.328ZM540.754 587H539.601V577.415H543.089C543.977 577.415 544.654 577.657 545.121 578.143C545.588 578.628 545.822 579.305 545.822 580.175C545.822 580.953 545.62 581.576 545.217 582.043C544.815 582.51 544.229 582.78 543.46 582.853L545.904 587H544.613L542.279 582.908H540.754V587ZM543.061 581.933C543.547 581.933 543.922 581.814 544.187 581.576C544.462 581.329 544.599 580.981 544.599 580.532V579.818C544.599 579.369 544.462 579.026 544.187 578.788C543.922 578.541 543.547 578.417 543.061 578.417H540.754V581.933H543.061ZM550.334 578.417V587H549.181V578.417H545.981V577.415H553.534V578.417H550.334ZM556.453 587V583.237L553.144 577.415H554.462L555.835 579.914L557.003 582.098H557.058L558.252 579.914L559.626 577.415H560.916L557.607 583.237V587H556.453ZM571.576 587.165C570.99 587.165 570.486 587.055 570.065 586.835C569.644 586.606 569.296 586.281 569.022 585.86C568.747 585.439 568.546 584.922 568.417 584.308C568.289 583.695 568.225 582.995 568.225 582.207C568.225 581.429 568.289 580.733 568.417 580.12C568.546 579.498 568.747 578.976 569.022 578.555C569.296 578.133 569.644 577.813 570.065 577.593C570.486 577.364 570.99 577.25 571.576 577.25C572.162 577.25 572.665 577.364 573.086 577.593C573.508 577.813 573.855 578.133 574.13 578.555C574.405 578.976 574.606 579.498 574.734 580.12C574.862 580.733 574.927 581.429 574.927 582.207C574.927 582.995 574.862 583.695 574.734 584.308C574.606 584.922 574.405 585.439 574.13 585.86C573.855 586.281 573.508 586.606 573.086 586.835C572.665 587.055 572.162 587.165 571.576 587.165ZM571.576 586.162C571.96 586.162 572.285 586.089 572.551 585.943C572.816 585.787 573.036 585.572 573.21 585.297C573.384 585.023 573.508 584.693 573.581 584.308C573.663 583.915 573.704 583.475 573.704 582.99V581.425C573.704 580.949 573.663 580.514 573.581 580.12C573.508 579.726 573.384 579.392 573.21 579.118C573.036 578.843 572.816 578.632 572.551 578.486C572.285 578.33 571.96 578.252 571.576 578.252C571.191 578.252 570.866 578.33 570.601 578.486C570.335 578.632 570.116 578.843 569.942 579.118C569.768 579.392 569.64 579.726 569.557 580.12C569.484 580.514 569.447 580.949 569.447 581.425V582.99C569.447 583.475 569.484 583.915 569.557 584.308C569.64 584.693 569.768 585.023 569.942 585.297C570.116 585.572 570.335 585.787 570.601 585.943C570.866 586.089 571.191 586.162 571.576 586.162ZM575.965 587V577.415H582.007V578.417H577.118V581.644H581.595V582.647H577.118V587H575.965ZM590.579 577.415H593.257C594.429 577.415 595.303 577.818 595.88 578.623C596.457 579.429 596.745 580.624 596.745 582.207C596.745 583.791 596.457 584.986 595.88 585.792C595.303 586.597 594.429 587 593.257 587H590.579V577.415ZM593.202 585.998C593.971 585.998 594.548 585.732 594.932 585.201C595.326 584.67 595.523 583.919 595.523 582.949V581.466C595.523 580.495 595.326 579.745 594.932 579.214C594.548 578.683 593.971 578.417 593.202 578.417H591.733V585.998H593.202ZM600.64 587.165C599.779 587.165 599.074 587.009 598.525 586.698C597.975 586.377 597.522 585.97 597.165 585.476L598.003 584.789C598.378 585.256 598.772 585.604 599.184 585.833C599.605 586.062 600.104 586.176 600.681 586.176C601.377 586.176 601.908 586.016 602.274 585.695C602.64 585.375 602.823 584.926 602.823 584.35C602.823 583.883 602.69 583.521 602.425 583.265C602.159 582.999 601.697 582.812 601.038 582.702L599.967 582.523C599.5 582.441 599.106 582.317 598.786 582.152C598.474 581.988 598.223 581.791 598.03 581.562C597.838 581.324 597.701 581.068 597.618 580.793C597.536 580.509 597.495 580.216 597.495 579.914C597.495 579.035 597.783 578.371 598.36 577.923C598.937 577.474 599.715 577.25 600.695 577.25C601.464 577.25 602.109 577.378 602.631 577.635C603.162 577.891 603.587 578.252 603.908 578.719L603.098 579.42C602.832 579.072 602.512 578.788 602.136 578.568C601.761 578.349 601.276 578.239 600.681 578.239C600.031 578.239 599.532 578.376 599.184 578.651C598.836 578.925 598.662 579.337 598.662 579.887C598.662 580.317 598.79 580.669 599.047 580.944C599.312 581.21 599.784 581.402 600.461 581.521L601.491 581.699C601.958 581.782 602.352 581.905 602.672 582.07C602.992 582.235 603.249 582.432 603.441 582.661C603.642 582.889 603.784 583.146 603.867 583.43C603.949 583.713 603.99 584.011 603.99 584.322C603.99 585.21 603.697 585.906 603.111 586.41C602.535 586.913 601.711 587.165 600.64 587.165ZM609.917 585.723H609.849C609.766 585.906 609.67 586.085 609.56 586.258C609.45 586.432 609.309 586.588 609.135 586.725C608.97 586.854 608.768 586.959 608.53 587.041C608.292 587.124 608.009 587.165 607.679 587.165C606.635 587.165 605.857 586.744 605.344 585.901C604.841 585.059 604.589 583.851 604.589 582.276C604.589 580.628 604.868 579.379 605.427 578.527C605.985 577.676 606.846 577.25 608.009 577.25C608.457 577.25 608.846 577.31 609.176 577.429C609.505 577.548 609.785 577.708 610.013 577.909C610.251 578.111 610.448 578.339 610.604 578.596C610.76 578.843 610.888 579.095 610.988 579.351L610 579.804C609.917 579.594 609.821 579.397 609.711 579.214C609.611 579.021 609.482 578.857 609.327 578.719C609.18 578.573 609.002 578.458 608.791 578.376C608.581 578.294 608.334 578.252 608.05 578.252C607.281 578.252 606.713 578.541 606.347 579.118C605.99 579.694 605.811 580.463 605.811 581.425V582.908C605.811 583.393 605.848 583.837 605.921 584.24C605.994 584.633 606.113 584.977 606.278 585.27C606.452 585.563 606.672 585.792 606.937 585.956C607.212 586.112 607.546 586.19 607.94 586.19C608.562 586.19 609.048 586.002 609.395 585.627C609.743 585.251 609.917 584.766 609.917 584.171V583.182H607.899V582.262H610.988V587H609.917V585.723ZM613.331 578.925H613.235V587H612.192V577.415H613.826L617.094 585.489H617.19V577.415H618.234V587H616.6L613.331 578.925ZM626.943 577.415H629.621C630.793 577.415 631.667 577.818 632.244 578.623C632.821 579.429 633.109 580.624 633.109 582.207C633.109 583.791 632.821 584.986 632.244 585.792C631.667 586.597 630.793 587 629.621 587H626.943V577.415ZM629.566 585.998C630.335 585.998 630.912 585.732 631.296 585.201C631.69 584.67 631.887 583.919 631.887 582.949V581.466C631.887 580.495 631.69 579.745 631.296 579.214C630.912 578.683 630.335 578.417 629.566 578.417H628.097V585.998H629.566ZM634.147 587V577.415H640.052V578.417H635.301V581.644H639.887V582.647H635.301V585.998H640.052V587H634.147ZM641.42 587V577.415H644.908C645.796 577.415 646.474 577.657 646.94 578.143C647.407 578.628 647.641 579.305 647.641 580.175C647.641 581.045 647.407 581.722 646.94 582.207C646.474 582.693 645.796 582.935 644.908 582.935H642.574V587H641.42ZM642.574 581.933H644.881C645.366 581.933 645.741 581.814 646.007 581.576C646.281 581.329 646.419 580.981 646.419 580.532V579.818C646.419 579.369 646.281 579.026 646.007 578.788C645.741 578.541 645.366 578.417 644.881 578.417H642.574V581.933ZM652.153 578.417V587H651V578.417H647.8V577.415H655.353V578.417H652.153Z" fill="#FFFAEE"/>
<path d="M420.05 458.708L431.139 473H424.774L416.327 461.791L420.05 458.708ZM416.167 473H410.802V444.216H416.167V473ZM415.606 460.55L423.813 452.223H430.178L415.686 466.274L415.606 460.55ZM438.421 452.223V473H433.056V452.223H438.421ZM432.936 444.216H438.541V449.741H432.936V444.216ZM447.973 473H442.608V452.223H447.973L447.933 454.665C448.547 453.677 449.28 452.957 450.135 452.503C450.989 452.049 452.056 451.822 453.337 451.822C455.686 451.822 457.567 452.476 458.982 453.784C460.423 455.092 461.144 457.254 461.144 460.269V473H455.779V460.229C455.779 458.735 455.472 457.667 454.858 457.027C454.271 456.36 453.377 456.026 452.176 456.026C451.242 456.026 450.455 456.199 449.814 456.546C449.2 456.867 448.733 457.374 448.413 458.068C448.12 458.762 447.973 459.669 447.973 460.79V473ZM467.134 460.67H478.663C478.583 459.282 478.17 458.148 477.422 457.267C476.675 456.36 475.608 455.906 474.22 455.906C472.512 455.906 471.271 456.426 470.497 457.467C469.749 458.508 469.376 460.256 469.376 462.711C469.376 465.14 469.749 466.848 470.497 467.836C471.244 468.823 472.578 469.317 474.5 469.317C475.861 469.317 476.809 469.13 477.342 468.756C477.903 468.383 478.236 467.836 478.343 467.115H483.868C483.734 468.343 483.307 469.437 482.587 470.398C481.893 471.332 480.879 472.066 479.544 472.6C478.21 473.133 476.528 473.4 474.5 473.4C471.11 473.4 468.522 472.493 466.734 470.678C464.945 468.837 464.051 466.181 464.051 462.711C464.051 459.215 464.945 456.533 466.734 454.665C468.522 452.77 471.017 451.822 474.22 451.822C476.301 451.822 478.063 452.25 479.504 453.104C480.972 453.958 482.093 455.199 482.867 456.827C483.641 458.428 484.028 460.39 484.028 462.711V464.313H467.094L467.134 460.67ZM497.02 456.426H492.896V468.797H497.02V473H493.657C491.869 473 490.401 472.573 489.253 471.719C488.105 470.838 487.532 469.464 487.532 467.596V456.426H484.329V452.223H487.532V446.418H492.896V452.223H497.02V456.426ZM504.73 452.223V473H499.366V452.223H504.73ZM499.246 444.216H504.85V449.741H499.246V444.216ZM518.043 473.4C514.68 473.4 512.118 472.48 510.356 470.638C508.595 468.77 507.714 466.101 507.714 462.631C507.714 459.162 508.608 456.493 510.396 454.625C512.184 452.757 514.706 451.822 517.962 451.822C519.697 451.822 521.259 452.156 522.646 452.823C524.034 453.491 525.142 454.385 525.969 455.506C526.796 456.626 527.21 457.894 527.21 459.309H521.846C521.846 458.535 521.552 457.801 520.965 457.107C520.404 456.386 519.417 456.026 518.002 456.026C516.214 456.026 514.947 456.573 514.199 457.667C513.452 458.762 513.078 460.416 513.078 462.631C513.078 464.847 513.452 466.501 514.199 467.596C514.947 468.663 516.214 469.197 518.002 469.197C519.39 469.197 520.378 468.89 520.965 468.276C521.579 467.662 521.912 466.902 521.966 465.994H527.33C527.33 467.222 526.943 468.41 526.169 469.557C525.422 470.678 524.354 471.599 522.967 472.319C521.579 473.04 519.937 473.4 518.043 473.4Z" fill="#FFFAEE"/>
<path d="M636.401 619.551C635.322 618.463 633.884 617.92 632.465 617.94C631.626 617.94 630.867 617.497 630.447 616.772L629.248 614.698C628.828 613.973 628.828 613.067 629.248 612.342C630.487 610.227 630.207 607.448 628.389 605.616C626.251 603.461 622.774 603.461 620.616 605.616C618.798 607.448 618.518 610.207 619.757 612.342C620.177 613.067 620.177 613.973 619.757 614.698L618.558 616.772C618.138 617.497 617.379 617.96 616.54 617.94C615.121 617.92 613.683 618.463 612.604 619.551C610.465 621.705 610.465 625.209 612.604 627.384C614.742 629.539 618.218 629.539 620.376 627.384C620.736 627.022 621.036 626.619 621.275 626.196C621.695 625.471 622.454 625.008 623.294 625.008H625.671C626.511 625.008 627.29 625.451 627.69 626.196C627.929 626.619 628.229 627.022 628.589 627.384C630.727 629.539 634.203 629.539 636.361 627.384C638.539 625.209 638.539 621.705 636.401 619.551ZM621.256 618.282L622.454 616.208C622.874 615.463 623.653 615.04 624.512 615.04C624.532 615.04 624.552 615.04 624.572 615.04C625.412 615.04 626.191 615.483 626.631 616.208L627.829 618.282C628.249 619.007 628.249 619.913 627.809 620.638C627.789 620.658 627.789 620.678 627.789 620.699C627.37 621.444 626.591 621.907 625.751 621.907H623.374C622.534 621.907 621.755 621.444 621.335 620.699C621.335 620.678 621.315 620.658 621.315 620.638C620.836 619.933 620.836 619.027 621.256 618.282Z" fill="#FFFAEE"/>
<path d="M653.202 473L641.952 461.75L653.202 450.5" stroke="#FFFAEE" stroke-width="2.26815"/>
<path d="M638.686 473L627.436 461.75L638.686 450.5" stroke="#FFFAEE" stroke-width="2.26815"/>
<path d="M618 457.531L618 468.464C618 470.969 620.031 473 622.536 473L658.464 473C660.969 473 663 470.969 663 468.464L663 455.036C663 452.531 660.969 450.5 658.464 450.5L637.687 450.5" stroke="#FFFAEE" stroke-width="2.26815" stroke-linecap="round"/>
<path d="M663 465.97V455.037C663 452.532 660.969 450.501 658.464 450.501H622.536C620.031 450.501 618 452.532 618 455.037V468.465C618 470.97 620.031 473.001 622.536 473.001H643.313" stroke="#FFFAEE" stroke-width="2.26815" stroke-linecap="round"/>
<defs>
<clipPath id="clip0_94_258">
<rect width="256" height="64.4577" fill="white" transform="matrix(1 0 0 -1 410 560.458)"/>
</clipPath>
</defs>
</svg>
