<svg width="1080" height="1080" viewBox="0 0 1080 1080" fill="none" xmlns="http://www.w3.org/2000/svg">
<rect width="1080" height="1080" fill="#191919"/>
<path d="M370.555 429.831C367.481 426.946 358.102 419 348.043 419C337.984 419 328.536 426.938 325.429 429.826C324.83 430.384 324.83 431.338 325.429 431.895C328.536 434.783 337.989 442.722 348.043 442.722C358.097 442.722 367.481 434.775 370.555 431.891C371.148 431.334 371.148 430.388 370.555 429.83V429.831ZM353.893 436.815C352.315 438.405 350.216 439.281 347.985 439.281C345.753 439.281 343.655 438.405 342.077 436.815C340.498 435.225 339.629 433.11 339.629 430.861C339.629 428.612 340.498 426.497 342.077 424.907C343.655 423.317 345.753 422.441 347.985 422.441C350.216 422.441 352.315 423.317 353.893 424.907C355.471 426.497 356.34 428.612 356.34 430.861C356.34 433.11 355.471 435.225 353.893 436.815Z" fill="#FFFAEE"/>
<ellipse cx="352.26" cy="425.405" rx="2.6094" ry="2.6094" fill="#FFFAEE"/>
<g filter="url(#filter0_d_94_259)">
<path d="M329.253 399.262H410.061V463.024H304.631V423.884C304.631 410.286 315.655 399.262 329.253 399.262Z" stroke="#FFFAEE" stroke-width="1.26263" shape-rendering="crispEdges"/>
</g>
<g filter="url(#filter1_d_94_259)">
<path d="M621.551 463.025L621.551 399.263L770.541 399.263L770.541 463.025L621.551 463.025Z" stroke="#FFFAEE" stroke-width="1.26263" shape-rendering="crispEdges"/>
</g>
<g filter="url(#filter2_d_94_259)">
<path d="M728.559 647.369L304.632 647.369L304.632 563.404L770.541 563.404L770.541 605.387C770.541 628.573 751.745 647.369 728.559 647.369Z" stroke="#FFFAEE" stroke-width="1.26263" shape-rendering="crispEdges"/>
</g>
<g filter="url(#filter3_d_94_259)">
<path d="M388.596 398H620.919V463.025H388.596V398Z" fill="#FFFAEE"/>
</g>
<path d="M336.515 493.439H335.606V482.727H336.515V493.439ZM333.955 483.515V482.727H338.152V483.515H333.955ZM333.955 493.439V492.652H338.152V493.439H333.955ZM348.075 493.439H347.06L341.075 484.242H340.954V493.439H340.06V482.727H341.09L347.06 491.909H347.181V482.727H348.075V493.439ZM348.859 482.727H356.768V483.515H353.268V493.439H352.359V483.515H348.859V482.727ZM357.551 482.727H363.581V483.515H358.46V487.682H363.232V488.47H358.46V492.652H363.657V493.439H357.551V482.727ZM373.409 493.439H372.393L366.409 484.242H366.287V493.439H365.393V482.727H366.424L372.393 491.909H372.515V482.727H373.409V493.439ZM374.192 482.727H382.101V483.515H378.601V493.439H377.692V483.515H374.192V482.727ZM385.465 493.439H384.556V482.727H385.465V493.439ZM382.905 483.515V482.727H387.102V483.515H382.905ZM382.905 493.439V492.652H387.102V493.439H382.905ZM397.334 488.076C397.334 489.843 396.95 491.207 396.182 492.167C395.425 493.116 394.308 493.591 392.834 493.591C391.359 493.591 390.238 493.116 389.47 492.167C388.712 491.207 388.334 489.843 388.334 488.076C388.334 486.308 388.712 484.95 389.47 484C390.238 483.051 391.359 482.576 392.834 482.576C394.308 482.576 395.425 483.051 396.182 484C396.95 484.95 397.334 486.308 397.334 488.076ZM396.425 488.076C396.425 486.47 396.127 485.288 395.531 484.53C394.945 483.773 394.046 483.394 392.834 483.394C391.622 483.394 390.718 483.773 390.122 484.53C389.536 485.288 389.243 486.47 389.243 488.076C389.243 489.682 389.536 490.869 390.122 491.636C390.718 492.394 391.622 492.773 392.834 492.773C394.046 492.773 394.945 492.394 395.531 491.636C396.127 490.869 396.425 489.682 396.425 488.076ZM406.954 493.439H405.939L399.954 484.242H399.833V493.439H398.939V482.727H399.969L405.939 491.909H406.06V482.727H406.954V493.439ZM492.6 488.076C492.6 489.843 492.216 491.207 491.448 492.167C490.691 493.116 489.575 493.591 488.1 493.591C486.625 493.591 485.504 493.116 484.736 492.167C483.979 491.207 483.6 489.843 483.6 488.076C483.6 486.308 483.979 484.95 484.736 484C485.504 483.051 486.625 482.576 488.1 482.576C489.575 482.576 490.691 483.051 491.448 484C492.216 484.95 492.6 486.308 492.6 488.076ZM491.691 488.076C491.691 486.47 491.393 485.288 490.797 484.53C490.211 483.773 489.312 483.394 488.1 483.394C486.888 483.394 485.984 483.773 485.388 484.53C484.802 485.288 484.509 486.47 484.509 488.076C484.509 489.682 484.802 490.869 485.388 491.636C485.984 492.394 486.888 492.773 488.1 492.773C489.312 492.773 490.211 492.394 490.797 491.636C491.393 490.869 491.691 489.682 491.691 488.076ZM497.336 492.394H497.427L500.957 482.727H501.912L498.002 493.439H496.745L492.851 482.727H493.821L497.336 492.394ZM503.01 482.727H509.04V483.515H503.919V487.682H508.692V488.47H503.919V492.652H509.116V493.439H503.01V482.727ZM515.549 488.53L518.337 493.439H517.322L514.64 488.697L515.549 488.53ZM514.368 488.242C515.085 488.242 515.64 488.152 516.034 487.97C516.428 487.788 516.706 487.52 516.868 487.167C517.029 486.813 517.11 486.379 517.11 485.864C517.11 485.338 517.029 484.904 516.868 484.561C516.706 484.217 516.428 483.96 516.034 483.788C515.64 483.606 515.085 483.515 514.368 483.515H511.762V488.242H514.368ZM514.443 489.03H511.762V493.439H510.852V482.727H514.428C515.297 482.727 515.994 482.854 516.519 483.106C517.044 483.349 517.423 483.702 517.655 484.167C517.898 484.631 518.019 485.197 518.019 485.864C518.019 486.389 517.964 486.849 517.852 487.242C517.741 487.636 517.549 487.97 517.277 488.242C517.004 488.505 516.635 488.702 516.171 488.833C515.716 488.965 515.14 489.03 514.443 489.03ZM593.802 482.727H601.711V483.515H598.211V493.439H597.302V483.515H593.802V482.727ZM605.075 493.439H604.166V482.727H605.075V493.439ZM602.514 483.515V482.727H606.711V483.515H602.514ZM602.514 493.439V492.652H606.711V493.439H602.514ZM609.559 482.727L613.499 491.909H613.605L617.544 482.727H618.453V493.439H617.574V484.894H617.499L613.786 493.439H613.271L609.559 484.894H609.499V493.439H608.62V482.727H609.559ZM620.517 482.727H626.547V483.515H621.426V487.682H626.198V488.47H621.426V492.652H626.623V493.439H620.517V482.727ZM703.398 482.727H704.307V492.652H709.413V493.439H703.398V482.727ZM710.205 482.727H716.235V483.515H711.114V487.682H715.886V488.47H711.114V492.652H716.311V493.439H710.205V482.727ZM721.426 483.894H721.366L718.002 493.439H717.078L720.911 482.727H721.942L725.76 493.439H724.79L721.426 483.894ZM723.866 490.227H718.972V489.439H723.866V490.227ZM726.866 493.439V482.727H730.185C731.74 482.727 732.917 483.182 733.715 484.091C734.513 485 734.912 486.328 734.912 488.076C734.912 489.813 734.503 491.141 733.685 492.061C732.877 492.98 731.659 493.439 730.033 493.439H726.866ZM729.957 492.652C730.978 492.652 731.781 492.47 732.366 492.106C732.952 491.732 733.372 491.202 733.624 490.515C733.877 489.828 734.003 489.015 734.003 488.076C734.003 487.126 733.877 486.313 733.624 485.636C733.382 484.95 732.973 484.424 732.397 484.061C731.831 483.697 731.058 483.515 730.079 483.515H727.776V492.652H729.957ZM742.333 485.046C742.252 484.419 741.974 483.985 741.499 483.742C741.035 483.5 740.418 483.379 739.651 483.379C738.772 483.379 738.12 483.551 737.696 483.894C737.272 484.227 737.06 484.722 737.06 485.379C737.06 485.763 737.13 486.076 737.272 486.318C737.423 486.561 737.615 486.758 737.848 486.909C738.08 487.051 738.327 487.167 738.59 487.258C738.853 487.338 739.095 487.409 739.317 487.47L740.484 487.788C740.777 487.869 741.095 487.97 741.439 488.091C741.782 488.212 742.105 488.379 742.408 488.591C742.721 488.803 742.974 489.076 743.166 489.409C743.358 489.742 743.454 490.157 743.454 490.652C743.454 491.217 743.317 491.727 743.045 492.182C742.772 492.636 742.353 492.995 741.787 493.258C741.221 493.51 740.499 493.636 739.62 493.636C738.449 493.636 737.55 493.399 736.923 492.924C736.297 492.45 735.944 491.808 735.863 491H736.802C736.863 491.485 737.019 491.859 737.272 492.121C737.524 492.384 737.848 492.571 738.242 492.682C738.646 492.783 739.105 492.833 739.62 492.833C740.55 492.833 741.267 492.657 741.772 492.303C742.287 491.939 742.545 491.379 742.545 490.621C742.545 490.167 742.434 489.808 742.211 489.546C741.999 489.283 741.711 489.076 741.348 488.924C740.994 488.773 740.61 488.641 740.196 488.53L738.742 488.136C737.913 487.904 737.272 487.581 736.817 487.167C736.373 486.753 736.151 486.182 736.151 485.455C736.151 484.859 736.292 484.349 736.575 483.924C736.868 483.49 737.277 483.157 737.802 482.924C738.338 482.692 738.969 482.576 739.696 482.576C740.403 482.576 741.009 482.682 741.514 482.894C742.029 483.096 742.434 483.384 742.726 483.758C743.029 484.121 743.201 484.551 743.242 485.046H742.333ZM333.455 500.727H341.364V501.515H337.864V511.439H336.955V501.515H333.455V500.727ZM350.322 506.076C350.322 507.843 349.938 509.207 349.17 510.167C348.413 511.116 347.297 511.591 345.822 511.591C344.347 511.591 343.226 511.116 342.458 510.167C341.701 509.207 341.322 507.843 341.322 506.076C341.322 504.308 341.701 502.95 342.458 502C343.226 501.051 344.347 500.576 345.822 500.576C347.297 500.576 348.413 501.051 349.17 502C349.938 502.95 350.322 504.308 350.322 506.076ZM349.413 506.076C349.413 504.47 349.115 503.288 348.519 502.53C347.933 501.773 347.034 501.394 345.822 501.394C344.61 501.394 343.706 501.773 343.11 502.53C342.524 503.288 342.231 504.47 342.231 506.076C342.231 507.682 342.524 508.869 343.11 509.636C343.706 510.394 344.61 510.773 345.822 510.773C347.034 510.773 347.933 510.394 348.519 509.636C349.115 508.869 349.413 507.682 349.413 506.076ZM354.171 500.727H362.08V501.515H358.58V511.439H357.671V501.515H354.171V500.727ZM362.863 500.727H363.772V505.682H369.757V500.727H370.666V511.439H369.757V506.47H363.772V511.439H362.863V500.727ZM372.733 500.727H378.763V501.515H373.642V505.682H378.415V506.47H373.642V510.652H378.839V511.439H372.733V500.727ZM383.698 500.727H384.607V505.682H390.592V500.727H391.501V511.439H390.592V506.47H384.607V511.439H383.698V500.727ZM395.972 511.439H395.063V500.727H395.972V511.439ZM393.411 501.515V500.727H397.608V501.515H393.411ZM393.411 511.439V510.652H397.608V511.439H393.411ZM406.765 506.894H403.719V506.106H407.674V507.318C407.674 508.076 407.522 508.783 407.219 509.439C406.926 510.086 406.467 510.606 405.84 511C405.224 511.394 404.426 511.591 403.446 511.591C401.982 511.591 400.845 511.116 400.037 510.167C399.239 509.207 398.84 507.843 398.84 506.076C398.84 504.308 399.239 502.95 400.037 502C400.845 501.051 401.982 500.576 403.446 500.576C404.143 500.576 404.775 500.697 405.34 500.939C405.906 501.172 406.381 501.525 406.765 502C407.148 502.475 407.411 503.081 407.552 503.818H406.613C406.451 502.95 406.093 502.328 405.537 501.955C404.992 501.581 404.295 501.394 403.446 501.394C402.254 501.394 401.34 501.768 400.704 502.515C400.068 503.263 399.749 504.45 399.749 506.076C399.749 507.692 400.068 508.879 400.704 509.636C401.34 510.394 402.254 510.773 403.446 510.773C404.063 510.773 404.573 510.687 404.977 510.515C405.381 510.333 405.704 510.096 405.946 509.803C406.189 509.51 406.366 509.192 406.477 508.849C406.598 508.505 406.674 508.162 406.704 507.818C406.744 507.475 406.765 507.167 406.765 506.894ZM409.239 500.727H410.148V505.682H416.133V500.727H417.042V511.439H416.133V506.47H410.148V511.439H409.239V500.727ZM419.108 500.727H425.139V501.515H420.018V505.682H424.79V506.47H420.018V510.652H425.214V511.439H419.108V500.727ZM432.621 503.046C432.541 502.419 432.263 501.985 431.788 501.742C431.323 501.5 430.707 501.379 429.94 501.379C429.061 501.379 428.409 501.551 427.985 501.894C427.561 502.227 427.349 502.722 427.349 503.379C427.349 503.763 427.419 504.076 427.561 504.318C427.712 504.561 427.904 504.758 428.136 504.909C428.369 505.051 428.616 505.167 428.879 505.258C429.142 505.338 429.384 505.409 429.606 505.47L430.773 505.788C431.066 505.869 431.384 505.97 431.727 506.091C432.071 506.212 432.394 506.379 432.697 506.591C433.01 506.803 433.263 507.076 433.455 507.409C433.647 507.742 433.743 508.157 433.743 508.652C433.743 509.217 433.606 509.727 433.333 510.182C433.061 510.636 432.642 510.995 432.076 511.258C431.51 511.51 430.788 511.636 429.909 511.636C428.737 511.636 427.839 511.399 427.212 510.924C426.586 510.45 426.232 509.808 426.152 509H427.091C427.152 509.485 427.308 509.859 427.561 510.121C427.813 510.384 428.136 510.571 428.53 510.682C428.934 510.783 429.394 510.833 429.909 510.833C430.839 510.833 431.556 510.657 432.061 510.303C432.576 509.939 432.833 509.379 432.833 508.621C432.833 508.167 432.722 507.808 432.5 507.546C432.288 507.283 432 507.076 431.636 506.924C431.283 506.773 430.899 506.641 430.485 506.53L429.03 506.136C428.202 505.904 427.561 505.581 427.106 505.167C426.662 504.753 426.44 504.182 426.44 503.455C426.44 502.859 426.581 502.349 426.864 501.924C427.157 501.49 427.566 501.157 428.091 500.924C428.626 500.692 429.258 500.576 429.985 500.576C430.692 500.576 431.298 500.682 431.803 500.894C432.318 501.096 432.722 501.384 433.015 501.758C433.318 502.121 433.49 502.551 433.53 503.046H432.621ZM433.604 500.727H441.513V501.515H438.013V511.439H437.104V501.515H433.604V500.727ZM445.818 500.727H451.924V501.515H446.727V505.682H451.424V506.47H446.727V511.439H445.818V500.727ZM461.644 506.076C461.644 507.843 461.26 509.207 460.493 510.167C459.735 511.116 458.619 511.591 457.144 511.591C455.669 511.591 454.548 511.116 453.781 510.167C453.023 509.207 452.644 507.843 452.644 506.076C452.644 504.308 453.023 502.95 453.781 502C454.548 501.051 455.669 500.576 457.144 500.576C458.619 500.576 459.735 501.051 460.493 502C461.26 502.95 461.644 504.308 461.644 506.076ZM460.735 506.076C460.735 504.47 460.437 503.288 459.841 502.53C459.255 501.773 458.356 501.394 457.144 501.394C455.932 501.394 455.028 501.773 454.432 502.53C453.846 503.288 453.553 504.47 453.553 506.076C453.553 507.682 453.846 508.869 454.432 509.636C455.028 510.394 455.932 510.773 457.144 510.773C458.356 510.773 459.255 510.394 459.841 509.636C460.437 508.869 460.735 507.682 460.735 506.076ZM467.947 506.53L470.735 511.439H469.719L467.038 506.697L467.947 506.53ZM466.765 506.242C467.482 506.242 468.038 506.152 468.431 505.97C468.825 505.788 469.103 505.52 469.265 505.167C469.426 504.813 469.507 504.379 469.507 503.864C469.507 503.338 469.426 502.904 469.265 502.561C469.103 502.217 468.825 501.96 468.431 501.788C468.038 501.606 467.482 501.515 466.765 501.515H464.159V506.242H466.765ZM466.841 507.03H464.159V511.439H463.25V500.727H466.825C467.694 500.727 468.391 500.854 468.916 501.106C469.442 501.349 469.82 501.702 470.053 502.167C470.295 502.631 470.416 503.197 470.416 503.864C470.416 504.389 470.361 504.849 470.25 505.242C470.139 505.636 469.947 505.97 469.674 506.242C469.401 506.505 469.032 506.702 468.568 506.833C468.113 506.965 467.538 507.03 466.841 507.03ZM472.979 500.727L476.918 509.909H477.024L480.964 500.727H481.873V511.439H480.994V502.894H480.918L477.206 511.439H476.691L472.979 502.894H472.918V511.439H472.039V500.727H472.979ZM495.604 506.076C495.604 507.843 495.22 509.207 494.453 510.167C493.695 511.116 492.579 511.591 491.104 511.591C489.63 511.591 488.508 511.116 487.741 510.167C486.983 509.207 486.604 507.843 486.604 506.076C486.604 504.308 486.983 502.95 487.741 502C488.508 501.051 489.63 500.576 491.104 500.576C492.579 500.576 493.695 501.051 494.453 502C495.22 502.95 495.604 504.308 495.604 506.076ZM494.695 506.076C494.695 504.47 494.397 503.288 493.801 502.53C493.215 501.773 492.316 501.394 491.104 501.394C489.892 501.394 488.988 501.773 488.392 502.53C487.806 503.288 487.513 504.47 487.513 506.076C487.513 507.682 487.806 508.869 488.392 509.636C488.988 510.394 489.892 510.773 491.104 510.773C492.316 510.773 493.215 510.394 493.801 509.636C494.397 508.869 494.695 507.682 494.695 506.076ZM497.21 500.727H503.316V501.515H498.119V505.682H502.816V506.47H498.119V511.439H497.21V500.727ZM515.014 503.833C514.882 503.015 514.554 502.404 514.029 502C513.514 501.596 512.827 501.394 511.968 501.394C510.837 501.394 509.958 501.778 509.332 502.546C508.716 503.313 508.408 504.485 508.408 506.061C508.408 507.647 508.716 508.828 509.332 509.606C509.958 510.374 510.837 510.758 511.968 510.758C512.827 510.758 513.514 510.556 514.029 510.152C514.554 509.748 514.887 509.141 515.029 508.333H515.983C515.812 509.394 515.387 510.202 514.711 510.758C514.034 511.313 513.12 511.591 511.968 511.591C510.473 511.591 509.352 511.111 508.605 510.152C507.867 509.182 507.499 507.818 507.499 506.061C507.499 504.313 507.867 502.965 508.605 502.015C509.352 501.056 510.473 500.576 511.968 500.576C512.685 500.576 513.322 500.697 513.877 500.939C514.443 501.182 514.903 501.546 515.256 502.03C515.62 502.515 515.857 503.116 515.968 503.833H515.014ZM522.254 506.53L525.041 511.439H524.026L521.344 506.697L522.254 506.53ZM521.072 506.242C521.789 506.242 522.344 506.152 522.738 505.97C523.132 505.788 523.41 505.52 523.572 505.167C523.733 504.813 523.814 504.379 523.814 503.864C523.814 503.338 523.733 502.904 523.572 502.561C523.41 502.217 523.132 501.96 522.738 501.788C522.344 501.606 521.789 501.515 521.072 501.515H518.466V506.242H521.072ZM521.148 507.03H518.466V511.439H517.557V500.727H521.132C522.001 500.727 522.698 500.854 523.223 501.106C523.749 501.349 524.127 501.702 524.36 502.167C524.602 502.631 524.723 503.197 524.723 503.864C524.723 504.389 524.668 504.849 524.557 505.242C524.445 505.636 524.254 505.97 523.981 506.242C523.708 506.505 523.339 506.702 522.875 506.833C522.42 506.965 521.844 507.03 521.148 507.03ZM529.74 501.894H529.68L526.316 511.439H525.392L529.225 500.727H530.255L534.074 511.439H533.104L529.74 501.894ZM532.18 508.227H527.286V507.439H532.18V508.227ZM535.18 500.727H541.286V501.515H536.089V505.682H540.786V506.47H536.089V511.439H535.18V500.727ZM541.745 500.727H549.654V501.515H546.154V511.439H545.245V501.515H541.745V500.727Z" fill="#FFFAEE"/>
<path d="M656.392 431V413.96H665.584C667.84 413.96 669.704 414.328 671.176 415.064C672.664 415.8 673.776 416.816 674.512 418.112C675.248 419.392 675.616 420.856 675.616 422.504C675.616 424.136 675.248 425.592 674.512 426.872C673.776 428.152 672.664 429.16 671.176 429.896C669.704 430.632 667.84 431 665.584 431H656.392ZM661.192 427.448H665.248C667.12 427.448 668.504 427.032 669.4 426.2C670.312 425.368 670.768 424.232 670.768 422.792V422.168C670.768 420.696 670.312 419.552 669.4 418.736C668.504 417.92 667.12 417.512 665.248 417.512H661.192V427.448ZM685.447 431.288C683.959 431.288 682.575 431.144 681.295 430.856C680.015 430.552 678.903 430.056 677.959 429.368C677.015 428.664 676.287 427.72 675.775 426.536L680.071 425.264C680.391 425.84 680.767 426.312 681.199 426.68C681.647 427.032 682.231 427.296 682.951 427.472C683.671 427.632 684.599 427.712 685.735 427.712C687.127 427.712 688.183 427.56 688.903 427.256C689.623 426.952 689.983 426.56 689.983 426.08C689.983 425.712 689.807 425.4 689.455 425.144C689.103 424.888 688.431 424.704 687.439 424.592L682.807 424.016C680.663 423.744 679.063 423.216 678.007 422.432C676.951 421.648 676.423 420.56 676.423 419.168C676.423 417.936 676.791 416.92 677.527 416.12C678.263 415.304 679.303 414.696 680.647 414.296C682.007 413.88 683.591 413.672 685.399 413.672C686.711 413.672 687.959 413.808 689.143 414.08C690.343 414.352 691.407 414.816 692.335 415.472C693.279 416.128 694.023 417.048 694.567 418.232L690.463 419.504C689.983 418.608 689.303 418.008 688.423 417.704C687.559 417.4 686.423 417.248 685.015 417.248C683.831 417.248 682.879 417.376 682.159 417.632C681.455 417.872 681.103 418.224 681.103 418.688C681.103 419.088 681.295 419.408 681.679 419.648C682.079 419.888 682.727 420.064 683.623 420.176L688.711 420.8C690.791 421.056 692.311 421.592 693.271 422.408C694.231 423.224 694.711 424.304 694.711 425.648C694.711 426.896 694.327 427.944 693.559 428.792C692.791 429.624 691.711 430.248 690.319 430.664C688.927 431.08 687.303 431.288 685.447 431.288ZM705.463 431.312C703.463 431.312 701.687 430.952 700.135 430.232C698.599 429.496 697.391 428.472 696.511 427.16C695.647 425.832 695.215 424.272 695.215 422.48C695.215 420.688 695.671 419.136 696.583 417.824C697.495 416.512 698.751 415.496 700.351 414.776C701.951 414.056 703.783 413.696 705.847 413.696C707.655 413.696 709.223 413.936 710.551 414.416C711.895 414.88 712.983 415.528 713.815 416.36C714.663 417.176 715.239 418.112 715.543 419.168L711.247 420.2C710.927 419.416 710.495 418.824 709.951 418.424C709.423 418.008 708.815 417.728 708.127 417.584C707.439 417.424 706.703 417.344 705.919 417.344C704.831 417.344 703.839 417.528 702.943 417.896C702.063 418.248 701.359 418.784 700.831 419.504C700.319 420.224 700.063 421.136 700.063 422.24V422.72C700.063 423.808 700.327 424.728 700.855 425.48C701.399 426.216 702.143 426.776 703.087 427.16C704.047 427.528 705.135 427.712 706.351 427.712C707.343 427.712 708.223 427.6 708.991 427.376C709.759 427.136 710.359 426.8 710.791 426.368C711.239 425.936 711.463 425.408 711.463 424.784V424.616H705.319V421.304H715.879V431H712.063L711.871 429.32C711.055 430.008 710.087 430.512 708.967 430.832C707.847 431.152 706.679 431.312 705.463 431.312ZM717.449 431V413.96H722.369L730.53 423.512H730.553V413.96H735.017V431H731.345L721.937 420.008H721.913V431H717.449ZM656.392 446V428.96H665.584C667.84 428.96 669.704 429.328 671.176 430.064C672.664 430.8 673.776 431.816 674.512 433.112C675.248 434.392 675.616 435.856 675.616 437.504C675.616 439.136 675.248 440.592 674.512 441.872C673.776 443.152 672.664 444.16 671.176 444.896C669.704 445.632 667.84 446 665.584 446H656.392ZM661.192 442.448H665.248C667.12 442.448 668.504 442.032 669.4 441.2C670.312 440.368 670.768 439.232 670.768 437.792V437.168C670.768 435.696 670.312 434.552 669.4 433.736C668.504 432.92 667.12 432.512 665.248 432.512H661.192V442.448ZM676.807 446V428.96H692.647V432.512H681.607V435.68H691.567V439.088H681.607V442.448H692.815V446H676.807ZM694.152 446V428.96H704.184C706.472 428.96 708.24 429.456 709.488 430.448C710.752 431.424 711.384 432.888 711.384 434.84C711.384 436.728 710.752 438.16 709.488 439.136C708.24 440.112 706.472 440.6 704.184 440.6H698.952V446H694.152ZM703.944 432.512H698.952V437.168H703.944C704.888 437.168 705.576 436.992 706.008 436.64C706.44 436.272 706.656 435.744 706.656 435.056V434.768C706.656 434 706.44 433.432 706.008 433.064C705.576 432.696 704.888 432.512 703.944 432.512ZM717.866 446V432.512H711.098V428.96H729.434V432.512H722.666V446H717.866ZM726.609 446V441.872H731.145V446H726.609Z" fill="#FFFAEE"/>
<path d="M333.904 593.076L337.571 589.152C338.035 588.657 338.414 588.222 338.707 587.849C339 587.465 339.217 587.111 339.359 586.788C339.51 586.455 339.586 586.116 339.586 585.773C339.586 585.116 339.374 584.616 338.95 584.273C338.525 583.919 337.96 583.743 337.253 583.743C336.546 583.743 335.965 583.955 335.51 584.379C335.056 584.793 334.839 585.364 334.859 586.091H333.98C333.97 585.435 334.106 584.874 334.389 584.409C334.672 583.945 335.066 583.586 335.571 583.334C336.076 583.081 336.652 582.955 337.298 582.955C337.975 582.955 338.546 583.071 339.01 583.303C339.485 583.525 339.849 583.849 340.101 584.273C340.354 584.687 340.48 585.187 340.48 585.773C340.48 586.157 340.414 586.53 340.283 586.894C340.152 587.248 339.909 587.657 339.556 588.121C339.212 588.576 338.712 589.152 338.056 589.849L334.601 593.546L334.662 593.03H340.616V593.818H333.904V593.076ZM345.959 593.97C345.081 593.97 344.363 593.773 343.808 593.379C343.262 592.975 342.863 592.369 342.611 591.561C342.358 590.743 342.232 589.707 342.232 588.455C342.232 587.202 342.358 586.172 342.611 585.364C342.873 584.556 343.278 583.955 343.823 583.561C344.379 583.157 345.091 582.955 345.959 582.955C346.838 582.955 347.55 583.157 348.096 583.561C348.651 583.955 349.055 584.556 349.308 585.364C349.57 586.172 349.702 587.202 349.702 588.455C349.702 589.697 349.57 590.727 349.308 591.546C349.055 592.364 348.651 592.975 348.096 593.379C347.55 593.773 346.838 593.97 345.959 593.97ZM345.959 593.182C346.99 593.182 347.722 592.793 348.156 592.015C348.591 591.238 348.808 590.051 348.808 588.455C348.808 586.859 348.591 585.677 348.156 584.909C347.722 584.131 346.99 583.743 345.959 583.743C344.939 583.743 344.212 584.131 343.778 584.909C343.343 585.677 343.126 586.859 343.126 588.455C343.126 590.051 343.338 591.238 343.762 592.015C344.197 592.793 344.929 593.182 345.959 593.182ZM357.138 583.47L357.365 583.894H351.077V583.106H357.895V583.818L352.91 593.818H351.926L357.138 583.47ZM363.419 583.106H369.45V583.894H364.328V588.061H369.101V588.849H364.328V593.03H369.525V593.818H363.419V583.106ZM375.247 584.273H375.186L371.823 593.818H370.899L374.732 583.106H375.762L379.58 593.818H378.611L375.247 584.273ZM377.686 590.606H372.793V589.818H377.686V590.606ZM386.949 585.424C386.868 584.798 386.59 584.364 386.115 584.121C385.651 583.879 385.035 583.758 384.267 583.758C383.388 583.758 382.737 583.929 382.312 584.273C381.888 584.606 381.676 585.101 381.676 585.758C381.676 586.142 381.747 586.455 381.888 586.697C382.04 586.94 382.232 587.137 382.464 587.288C382.696 587.429 382.944 587.546 383.206 587.637C383.469 587.717 383.711 587.788 383.934 587.849L385.1 588.167C385.393 588.248 385.711 588.349 386.055 588.47C386.398 588.591 386.721 588.758 387.024 588.97C387.338 589.182 387.59 589.455 387.782 589.788C387.974 590.121 388.07 590.536 388.07 591.03C388.07 591.596 387.934 592.106 387.661 592.561C387.388 593.015 386.969 593.374 386.403 593.637C385.838 593.889 385.115 594.015 384.237 594.015C383.065 594.015 382.166 593.778 381.54 593.303C380.913 592.828 380.56 592.187 380.479 591.379H381.418C381.479 591.864 381.636 592.238 381.888 592.5C382.141 592.763 382.464 592.95 382.858 593.061C383.262 593.162 383.721 593.212 384.237 593.212C385.166 593.212 385.883 593.036 386.388 592.682C386.903 592.318 387.161 591.758 387.161 591C387.161 590.546 387.05 590.187 386.827 589.924C386.615 589.662 386.327 589.455 385.964 589.303C385.61 589.152 385.226 589.02 384.812 588.909L383.358 588.515C382.529 588.283 381.888 587.96 381.434 587.546C380.989 587.131 380.767 586.561 380.767 585.834C380.767 585.238 380.908 584.727 381.191 584.303C381.484 583.869 381.893 583.536 382.418 583.303C382.954 583.071 383.585 582.955 384.312 582.955C385.019 582.955 385.625 583.061 386.13 583.273C386.646 583.475 387.05 583.763 387.343 584.137C387.646 584.5 387.817 584.929 387.858 585.424H386.949ZM388.538 583.106H396.447V583.894H392.947V593.818H392.038V583.894H388.538V583.106ZM405.161 593.97C404.464 593.97 403.853 593.864 403.327 593.652C402.812 593.44 402.408 593.116 402.115 592.682C401.822 592.248 401.656 591.702 401.615 591.046H402.6C402.62 591.52 402.737 591.919 402.949 592.243C403.171 592.556 403.469 592.793 403.843 592.955C404.216 593.106 404.661 593.182 405.176 593.182C405.964 593.182 406.6 592.97 407.085 592.546C407.57 592.111 407.812 591.49 407.812 590.682C407.812 589.904 407.575 589.298 407.1 588.864C406.636 588.429 405.984 588.212 405.146 588.212H403.964L403.949 587.561L407.6 583.546L407.676 583.894H402.055V583.106H408.464V583.834L404.964 587.667V587.44C405.711 587.429 406.327 587.525 406.812 587.727C407.297 587.919 407.676 588.182 407.949 588.515C408.232 588.839 408.428 589.192 408.54 589.576C408.661 589.95 408.721 590.318 408.721 590.682C408.721 591.389 408.575 591.99 408.282 592.485C407.989 592.97 407.575 593.339 407.04 593.591C406.514 593.844 405.888 593.97 405.161 593.97ZM410.505 593.076L414.172 589.152C414.636 588.657 415.015 588.222 415.308 587.849C415.601 587.465 415.818 587.111 415.96 586.788C416.111 586.455 416.187 586.116 416.187 585.773C416.187 585.116 415.975 584.616 415.551 584.273C415.126 583.919 414.561 583.743 413.854 583.743C413.147 583.743 412.566 583.955 412.111 584.379C411.657 584.793 411.439 585.364 411.46 586.091H410.581C410.571 585.435 410.707 584.874 410.99 584.409C411.273 583.945 411.667 583.586 412.172 583.334C412.677 583.081 413.253 582.955 413.899 582.955C414.576 582.955 415.147 583.071 415.611 583.303C416.086 583.525 416.45 583.849 416.702 584.273C416.955 584.687 417.081 585.187 417.081 585.773C417.081 586.157 417.015 586.53 416.884 586.894C416.753 587.248 416.51 587.657 416.157 588.121C415.813 588.576 415.313 589.152 414.657 589.849L411.202 593.546L411.263 593.03H417.217V593.818H410.505V593.076ZM427.424 593.818H426.409L420.424 584.621H420.303V593.818H419.409V583.106H420.439L426.409 592.288H426.53V583.106H427.424V593.818ZM430.092 593.818V583.106H433.41C434.966 583.106 436.142 583.561 436.94 584.47C437.738 585.379 438.137 586.707 438.137 588.455C438.137 590.192 437.728 591.52 436.91 592.44C436.102 593.359 434.885 593.818 433.258 593.818H430.092ZM433.183 593.03C434.203 593.03 435.006 592.849 435.592 592.485C436.178 592.111 436.597 591.581 436.849 590.894C437.102 590.207 437.228 589.394 437.228 588.455C437.228 587.505 437.102 586.692 436.849 586.015C436.607 585.328 436.198 584.803 435.622 584.44C435.056 584.076 434.284 583.894 433.304 583.894H431.001V593.03H433.183ZM449.893 585.424C449.812 584.798 449.534 584.364 449.059 584.121C448.595 583.879 447.978 583.758 447.211 583.758C446.332 583.758 445.68 583.929 445.256 584.273C444.832 584.606 444.62 585.101 444.62 585.758C444.62 586.142 444.691 586.455 444.832 586.697C444.983 586.94 445.175 587.137 445.408 587.288C445.64 587.429 445.888 587.546 446.15 587.637C446.413 587.717 446.655 587.788 446.877 587.849L448.044 588.167C448.337 588.248 448.655 588.349 448.999 588.47C449.342 588.591 449.665 588.758 449.968 588.97C450.281 589.182 450.534 589.455 450.726 589.788C450.918 590.121 451.014 590.536 451.014 591.03C451.014 591.596 450.877 592.106 450.605 592.561C450.332 593.015 449.913 593.374 449.347 593.637C448.781 593.889 448.059 594.015 447.18 594.015C446.009 594.015 445.11 593.778 444.483 593.303C443.857 592.828 443.504 592.187 443.423 591.379H444.362C444.423 591.864 444.579 592.238 444.832 592.5C445.084 592.763 445.408 592.95 445.802 593.061C446.206 593.162 446.665 593.212 447.18 593.212C448.11 593.212 448.827 593.036 449.332 592.682C449.847 592.318 450.105 591.758 450.105 591C450.105 590.546 449.994 590.187 449.771 589.924C449.559 589.662 449.271 589.455 448.908 589.303C448.554 589.152 448.17 589.02 447.756 588.909L446.302 588.515C445.473 588.283 444.832 587.96 444.377 587.546C443.933 587.131 443.711 586.561 443.711 585.834C443.711 585.238 443.852 584.727 444.135 584.303C444.428 583.869 444.837 583.536 445.362 583.303C445.898 583.071 446.529 582.955 447.256 582.955C447.963 582.955 448.569 583.061 449.074 583.273C449.59 583.475 449.994 583.763 450.287 584.137C450.59 584.5 450.761 584.929 450.802 585.424H449.893ZM451.482 583.106H459.391V583.894H455.891V593.818H454.982V583.894H451.482V583.106ZM465.477 588.909L468.264 593.818H467.249L464.567 589.076L465.477 588.909ZM464.295 588.621C465.012 588.621 465.567 588.53 465.961 588.349C466.355 588.167 466.633 587.899 466.795 587.546C466.956 587.192 467.037 586.758 467.037 586.243C467.037 585.717 466.956 585.283 466.795 584.94C466.633 584.596 466.355 584.339 465.961 584.167C465.567 583.985 465.012 583.894 464.295 583.894H461.689V588.621H464.295ZM464.37 589.409H461.689V593.818H460.78V583.106H464.355C465.224 583.106 465.921 583.232 466.446 583.485C466.971 583.727 467.35 584.081 467.583 584.546C467.825 585.01 467.946 585.576 467.946 586.243C467.946 586.768 467.891 587.227 467.78 587.621C467.668 588.015 467.477 588.349 467.204 588.621C466.931 588.884 466.562 589.081 466.098 589.212C465.643 589.344 465.067 589.409 464.37 589.409ZM470.175 583.106H476.206V583.894H471.084V588.061H475.857V588.849H471.084V593.03H476.281V593.818H470.175V583.106ZM478.624 583.106H484.654V583.894H479.533V588.061H484.306V588.849H479.533V593.03H484.73V593.818H478.624V583.106ZM485.957 583.106H493.866V583.894H490.366V593.818H489.457V583.894H485.957V583.106ZM495.821 596.167H495.033L495.73 592.409H496.927L495.821 596.167ZM511.32 593.818H510.304L504.32 584.621H504.198V593.818H503.304V583.106H504.335L510.304 592.288H510.426V583.106H511.32V593.818ZM513.987 583.106H520.018V583.894H514.896V588.061H519.669V588.849H514.896V593.03H520.093V593.818H513.987V583.106ZM521.422 583.106H522.377L524.892 592.667H524.952L527.483 583.106H528.634L531.21 592.667H531.271L533.786 583.106H534.74L531.861 593.818H530.74L528.119 584.318H527.998L525.407 593.818H524.271L521.422 583.106ZM540.177 583.106L543.42 588.561H543.496L546.738 583.106H547.723L543.889 589.349V593.818H543.026V589.349L539.132 583.106H540.177ZM557.275 588.455C557.275 590.222 556.891 591.586 556.123 592.546C555.366 593.495 554.25 593.97 552.775 593.97C551.3 593.97 550.179 593.495 549.411 592.546C548.654 591.586 548.275 590.222 548.275 588.455C548.275 586.687 548.654 585.328 549.411 584.379C550.179 583.429 551.3 582.955 552.775 582.955C554.25 582.955 555.366 583.429 556.123 584.379C556.891 585.328 557.275 586.687 557.275 588.455ZM556.366 588.455C556.366 586.849 556.068 585.667 555.472 584.909C554.886 584.152 553.987 583.773 552.775 583.773C551.563 583.773 550.659 584.152 550.063 584.909C549.477 585.667 549.184 586.849 549.184 588.455C549.184 590.061 549.477 591.248 550.063 592.015C550.659 592.773 551.563 593.152 552.775 593.152C553.987 593.152 554.886 592.773 555.472 592.015C556.068 591.248 556.366 590.061 556.366 588.455ZM564.183 588.909L566.971 593.818H565.956L563.274 589.076L564.183 588.909ZM563.001 588.621C563.719 588.621 564.274 588.53 564.668 588.349C565.062 588.167 565.34 587.899 565.501 587.546C565.663 587.192 565.744 586.758 565.744 586.243C565.744 585.717 565.663 585.283 565.501 584.94C565.34 584.596 565.062 584.339 564.668 584.167C564.274 583.985 563.719 583.894 563.001 583.894H560.395V588.621H563.001ZM563.077 589.409H560.395V593.818H559.486V583.106H563.062C563.931 583.106 564.628 583.232 565.153 583.485C565.678 583.727 566.057 584.081 566.289 584.546C566.532 585.01 566.653 585.576 566.653 586.243C566.653 586.768 566.597 587.227 566.486 587.621C566.375 588.015 566.183 588.349 565.911 588.621C565.638 588.884 565.269 589.081 564.805 589.212C564.35 589.344 563.774 589.409 563.077 589.409ZM571.958 587.349L576.306 593.818H575.215L571.306 587.985L571.958 587.349ZM569.791 593.818H568.882V583.106H569.791V593.818ZM569.564 590.864V589.606L574.912 583.106H576.018L569.564 590.864ZM578.134 596.167H577.346L578.043 592.409H579.24L578.134 596.167ZM593.632 593.818H592.617L586.632 584.621H586.511V593.818H585.617V583.106H586.647L592.617 592.288H592.738V583.106H593.632V593.818ZM596.078 583.106L599.321 588.561H599.396L602.639 583.106H603.624L599.79 589.349V593.818H598.927V589.349L595.033 583.106H596.078ZM612.207 593.818H611.298V583.712L611.616 583.788L608.571 585.849V584.894L611.192 583.106H612.207V593.818ZM619.545 593.97C618.666 593.97 617.949 593.773 617.393 593.379C616.848 592.975 616.449 592.369 616.196 591.561C615.944 590.743 615.818 589.707 615.818 588.455C615.818 587.202 615.944 586.172 616.196 585.364C616.459 584.556 616.863 583.955 617.408 583.561C617.964 583.157 618.676 582.955 619.545 582.955C620.424 582.955 621.136 583.157 621.681 583.561C622.237 583.955 622.641 584.556 622.893 585.364C623.156 586.172 623.287 587.202 623.287 588.455C623.287 589.697 623.156 590.727 622.893 591.546C622.641 592.364 622.237 592.975 621.681 593.379C621.136 593.773 620.424 593.97 619.545 593.97ZM619.545 593.182C620.575 593.182 621.307 592.793 621.742 592.015C622.176 591.238 622.393 590.051 622.393 588.455C622.393 586.859 622.176 585.677 621.742 584.909C621.307 584.131 620.575 583.743 619.545 583.743C618.525 583.743 617.797 584.131 617.363 584.909C616.929 585.677 616.711 586.859 616.711 588.455C616.711 590.051 616.924 591.238 617.348 592.015C617.782 592.793 618.515 593.182 619.545 593.182ZM628.526 593.97C627.647 593.97 626.93 593.773 626.375 593.379C625.829 592.975 625.43 592.369 625.178 591.561C624.925 590.743 624.799 589.707 624.799 588.455C624.799 587.202 624.925 586.172 625.178 585.364C625.44 584.556 625.844 583.955 626.39 583.561C626.945 583.157 627.658 582.955 628.526 582.955C629.405 582.955 630.117 583.157 630.663 583.561C631.218 583.955 631.622 584.556 631.875 585.364C632.137 586.172 632.269 587.202 632.269 588.455C632.269 589.697 632.137 590.727 631.875 591.546C631.622 592.364 631.218 592.975 630.663 593.379C630.117 593.773 629.405 593.97 628.526 593.97ZM628.526 593.182C629.557 593.182 630.289 592.793 630.723 592.015C631.158 591.238 631.375 590.051 631.375 588.455C631.375 586.859 631.158 585.677 630.723 584.909C630.289 584.131 629.557 583.743 628.526 583.743C627.506 583.743 626.779 584.131 626.344 584.909C625.91 585.677 625.693 586.859 625.693 588.455C625.693 590.051 625.905 591.238 626.329 592.015C626.764 592.793 627.496 593.182 628.526 593.182ZM637.568 593.818H636.659V583.712L636.977 583.788L633.932 585.849V584.894L636.553 583.106H637.568V593.818ZM641.466 590.455C641.477 590.061 641.522 589.677 641.603 589.303C641.694 588.929 641.85 588.53 642.073 588.106C642.305 587.682 642.623 587.197 643.027 586.652L645.679 583.106H646.754L643.163 587.864L643.042 587.727C643.254 587.596 643.446 587.49 643.618 587.409C643.79 587.318 643.977 587.253 644.179 587.212C644.381 587.162 644.628 587.137 644.921 587.137C645.658 587.137 646.285 587.273 646.8 587.546C647.315 587.808 647.704 588.192 647.966 588.697C648.239 589.202 648.376 589.813 648.376 590.53C648.376 591.217 648.244 591.818 647.982 592.334C647.719 592.849 647.33 593.253 646.815 593.546C646.3 593.828 645.668 593.97 644.921 593.97C643.79 593.97 642.926 593.652 642.33 593.015C641.744 592.369 641.456 591.515 641.466 590.455ZM642.36 590.53C642.36 591.339 642.557 591.985 642.951 592.47C643.355 592.945 644.012 593.182 644.921 593.182C645.82 593.182 646.471 592.945 646.876 592.47C647.28 591.985 647.482 591.339 647.482 590.53C647.482 589.722 647.28 589.086 646.876 588.621C646.471 588.157 645.82 587.924 644.921 587.924C644.113 587.924 643.482 588.157 643.027 588.621C642.583 589.086 642.36 589.722 642.36 590.53ZM650.902 596.167H650.115L650.811 592.409H652.008L650.902 596.167ZM666.128 583.106V590.394C666.128 591.101 665.992 591.727 665.719 592.273C665.456 592.818 665.042 593.248 664.476 593.561C663.911 593.864 663.168 594.015 662.249 594.015C661.34 594.015 660.598 593.864 660.022 593.561C659.456 593.248 659.037 592.818 658.764 592.273C658.502 591.727 658.37 591.101 658.37 590.394V583.106H659.279V590.258C659.279 590.854 659.37 591.374 659.552 591.818C659.734 592.263 660.042 592.606 660.476 592.849C660.911 593.081 661.502 593.197 662.249 593.197C663.007 593.197 663.598 593.081 664.022 592.849C664.456 592.606 664.764 592.263 664.946 591.818C665.128 591.374 665.219 590.854 665.219 590.258V583.106H666.128ZM674.591 585.424C674.51 584.798 674.232 584.364 673.757 584.121C673.293 583.879 672.677 583.758 671.909 583.758C671.03 583.758 670.379 583.929 669.954 584.273C669.53 584.606 669.318 585.101 669.318 585.758C669.318 586.142 669.389 586.455 669.53 586.697C669.682 586.94 669.874 587.137 670.106 587.288C670.338 587.429 670.586 587.546 670.848 587.637C671.111 587.717 671.353 587.788 671.576 587.849L672.742 588.167C673.035 588.248 673.353 588.349 673.697 588.47C674.04 588.591 674.363 588.758 674.666 588.97C674.98 589.182 675.232 589.455 675.424 589.788C675.616 590.121 675.712 590.536 675.712 591.03C675.712 591.596 675.576 592.106 675.303 592.561C675.03 593.015 674.611 593.374 674.045 593.637C673.48 593.889 672.757 594.015 671.879 594.015C670.707 594.015 669.808 593.778 669.182 593.303C668.555 592.828 668.202 592.187 668.121 591.379H669.06C669.121 591.864 669.278 592.238 669.53 592.5C669.783 592.763 670.106 592.95 670.5 593.061C670.904 593.162 671.363 593.212 671.879 593.212C672.808 593.212 673.525 593.036 674.03 592.682C674.545 592.318 674.803 591.758 674.803 591C674.803 590.546 674.692 590.187 674.47 589.924C674.257 589.662 673.97 589.455 673.606 589.303C673.252 589.152 672.869 589.02 672.454 588.909L671 588.515C670.172 588.283 669.53 587.96 669.076 587.546C668.631 587.131 668.409 586.561 668.409 585.834C668.409 585.238 668.55 584.727 668.833 584.303C669.126 583.869 669.535 583.536 670.06 583.303C670.596 583.071 671.227 582.955 671.954 582.955C672.661 582.955 673.267 583.061 673.773 583.273C674.288 583.475 674.692 583.763 674.985 584.137C675.288 584.5 675.459 584.929 675.5 585.424H674.591ZM680.748 584.273H680.688L677.324 593.818H676.4L680.233 583.106H681.264L685.082 593.818H684.112L680.748 584.273ZM683.188 590.606H678.294V589.818H683.188V590.606Z" fill="#FFFAEE"/>
<path d="M392.601 530.035L387.45 537.414L387.253 536.974H394.677V537.762H386.722V537.005L392.025 529.444H393.177V540.156H392.283V529.929L392.601 530.035ZM405.864 540.308C404.985 540.308 404.268 540.111 403.712 539.717C403.167 539.313 402.768 538.707 402.516 537.899C402.263 537.08 402.137 536.045 402.137 534.793C402.137 533.54 402.263 532.51 402.516 531.702C402.778 530.894 403.182 530.293 403.728 529.899C404.283 529.495 404.995 529.293 405.864 529.293C406.743 529.293 407.455 529.495 408 529.899C408.556 530.293 408.96 530.894 409.212 531.702C409.475 532.51 409.606 533.54 409.606 534.793C409.606 536.035 409.475 537.065 409.212 537.884C408.96 538.702 408.556 539.313 408 539.717C407.455 540.111 406.743 540.308 405.864 540.308ZM405.864 539.52C406.894 539.52 407.627 539.131 408.061 538.353C408.495 537.575 408.712 536.389 408.712 534.793C408.712 533.197 408.495 532.015 408.061 531.247C407.627 530.469 406.894 530.08 405.864 530.08C404.844 530.08 404.117 530.469 403.682 531.247C403.248 532.015 403.031 533.197 403.031 534.793C403.031 536.389 403.243 537.575 403.667 538.353C404.101 539.131 404.834 539.52 405.864 539.52ZM419.664 534.368C418.886 534.368 418.275 534.126 417.83 533.641C417.396 533.146 417.179 532.535 417.179 531.808C417.179 531.07 417.396 530.459 417.83 529.974C418.275 529.49 418.886 529.247 419.664 529.247C420.451 529.247 421.063 529.49 421.497 529.974C421.941 530.459 422.164 531.07 422.164 531.808C422.164 532.535 421.941 533.146 421.497 533.641C421.063 534.126 420.451 534.368 419.664 534.368ZM419.664 533.702C420.229 533.702 420.664 533.525 420.967 533.171C421.28 532.808 421.436 532.353 421.436 531.808C421.436 531.272 421.28 530.828 420.967 530.474C420.664 530.111 420.229 529.929 419.664 529.929C419.108 529.929 418.674 530.111 418.361 530.474C418.058 530.828 417.906 531.272 417.906 531.808C417.906 532.353 418.058 532.808 418.361 533.171C418.674 533.525 419.108 533.702 419.664 533.702ZM445.297 530.035L440.145 537.414L439.949 536.974H447.373V537.762H439.418V537.005L444.721 529.444H445.873V540.156H444.979V529.929L445.297 530.035ZM460.605 530.035L455.454 537.414L455.257 536.974H462.681V537.762H454.727V537.005L460.03 529.444H461.181V540.156H460.287V529.929L460.605 530.035ZM471.383 532.49H470.671V528.565H471.489L471.383 532.49ZM495.167 530.035L490.015 537.414L489.818 536.974H497.243V537.762H489.288V537.005L494.591 529.444H495.743V540.156H494.849V529.929L495.167 530.035ZM508.43 540.308C507.551 540.308 506.834 540.111 506.278 539.717C505.733 539.313 505.334 538.707 505.081 537.899C504.829 537.08 504.702 536.045 504.702 534.793C504.702 533.54 504.829 532.51 505.081 531.702C505.344 530.894 505.748 530.293 506.293 529.899C506.849 529.495 507.561 529.293 508.43 529.293C509.308 529.293 510.021 529.495 510.566 529.899C511.122 530.293 511.526 530.894 511.778 531.702C512.041 532.51 512.172 533.54 512.172 534.793C512.172 536.035 512.041 537.065 511.778 537.884C511.526 538.702 511.122 539.313 510.566 539.717C510.021 540.111 509.308 540.308 508.43 540.308ZM508.43 539.52C509.46 539.52 510.192 539.131 510.627 538.353C511.061 537.575 511.278 536.389 511.278 534.793C511.278 533.197 511.061 532.015 510.627 531.247C510.192 530.469 509.46 530.08 508.43 530.08C507.41 530.08 506.682 530.469 506.248 531.247C505.814 532.015 505.596 533.197 505.596 534.793C505.596 536.389 505.808 537.575 506.233 538.353C506.667 539.131 507.399 539.52 508.43 539.52ZM521.032 532.49H520.305V528.565H521.154L521.032 532.49ZM523.638 532.49H522.911V528.565H523.76L523.638 532.49ZM550.281 540.156H549.266L543.281 530.959H543.16V540.156H542.266V529.444H543.297L549.266 538.626H549.387V529.444H550.281V540.156ZM559.177 542.505H558.389L559.086 538.747H560.283L559.177 542.505ZM584.129 529.808L584.357 530.232H578.069V529.444H584.887V530.156L579.902 540.156H578.917L584.129 529.808ZM595.94 540.308C595.243 540.308 594.632 540.202 594.106 539.99C593.591 539.777 593.187 539.454 592.894 539.02C592.601 538.586 592.435 538.04 592.394 537.384H593.379C593.399 537.858 593.515 538.257 593.728 538.58C593.95 538.894 594.248 539.131 594.621 539.293C594.995 539.444 595.44 539.52 595.955 539.52C596.743 539.52 597.379 539.308 597.864 538.884C598.349 538.449 598.591 537.828 598.591 537.02C598.591 536.242 598.354 535.636 597.879 535.202C597.414 534.767 596.763 534.55 595.924 534.55H594.743L594.728 533.899L598.379 529.884L598.455 530.232H592.834V529.444H599.243V530.171L595.743 534.005V533.777C596.49 533.767 597.106 533.863 597.591 534.065C598.076 534.257 598.455 534.52 598.728 534.853C599.01 535.176 599.207 535.53 599.318 535.914C599.44 536.288 599.5 536.656 599.5 537.02C599.5 537.727 599.354 538.328 599.061 538.823C598.768 539.308 598.354 539.676 597.818 539.929C597.293 540.182 596.667 540.308 595.94 540.308ZM609.723 534.368C608.946 534.368 608.335 534.126 607.89 533.641C607.456 533.146 607.239 532.535 607.239 531.808C607.239 531.07 607.456 530.459 607.89 529.974C608.335 529.49 608.946 529.247 609.723 529.247C610.511 529.247 611.122 529.49 611.557 529.974C612.001 530.459 612.223 531.07 612.223 531.808C612.223 532.535 612.001 533.146 611.557 533.641C611.122 534.126 610.511 534.368 609.723 534.368ZM609.723 533.702C610.289 533.702 610.723 533.525 611.026 533.171C611.34 532.808 611.496 532.353 611.496 531.808C611.496 531.272 611.34 530.828 611.026 530.474C610.723 530.111 610.289 529.929 609.723 529.929C609.168 529.929 608.733 530.111 608.42 530.474C608.117 530.828 607.966 531.272 607.966 531.808C607.966 532.353 608.117 532.808 608.42 533.171C608.733 533.525 609.168 533.702 609.723 533.702ZM633.342 540.308C632.655 540.308 632.059 540.202 631.554 539.99C631.049 539.767 630.655 539.449 630.372 539.035C630.089 538.621 629.928 538.121 629.887 537.535H630.811C630.852 538.192 631.094 538.687 631.539 539.02C631.983 539.353 632.584 539.52 633.342 539.52C634.241 539.52 634.897 539.272 635.311 538.777C635.736 538.272 635.948 537.651 635.948 536.914C635.948 536.419 635.862 535.974 635.69 535.58C635.529 535.176 635.261 534.858 634.887 534.626C634.513 534.384 634.013 534.262 633.387 534.262C632.842 534.252 632.372 534.353 631.978 534.565C631.594 534.767 631.286 535.055 631.054 535.429H630.099L630.811 529.444H636.326V530.232H631.599L631.099 534.49H631.145C631.347 534.166 631.64 533.919 632.023 533.747C632.407 533.565 632.837 533.474 633.311 533.474C634.089 533.474 634.736 533.626 635.251 533.929C635.776 534.232 636.17 534.641 636.433 535.156C636.705 535.661 636.842 536.237 636.842 536.884C636.842 537.55 636.7 538.141 636.417 538.656C636.135 539.171 635.731 539.575 635.205 539.868C634.69 540.161 634.069 540.308 633.342 540.308ZM648.249 540.308C646.966 540.308 646.027 540.05 645.431 539.535C644.845 539.02 644.552 538.303 644.552 537.384C644.562 536.889 644.653 536.444 644.825 536.05C645.007 535.656 645.259 535.333 645.582 535.08C645.916 534.828 646.295 534.666 646.719 534.596V534.535C646.163 534.394 645.729 534.106 645.416 533.671C645.113 533.227 644.961 532.692 644.961 532.065C644.961 531.53 645.077 531.055 645.31 530.641C645.552 530.217 645.916 529.889 646.401 529.656C646.896 529.414 647.512 529.293 648.249 529.293C648.986 529.293 649.598 529.414 650.082 529.656C650.567 529.889 650.926 530.217 651.158 530.641C651.401 531.055 651.517 531.53 651.507 532.065C651.497 532.682 651.34 533.212 651.037 533.656C650.734 534.101 650.305 534.394 649.749 534.535V534.596C650.173 534.666 650.552 534.828 650.885 535.08C651.219 535.333 651.476 535.656 651.658 536.05C651.85 536.444 651.946 536.889 651.946 537.384C651.946 538 651.815 538.525 651.552 538.959C651.289 539.394 650.885 539.727 650.34 539.959C649.795 540.192 649.098 540.308 648.249 540.308ZM648.249 539.52C649.219 539.52 649.931 539.318 650.385 538.914C650.84 538.51 651.067 537.959 651.067 537.262C651.067 536.575 650.825 536.03 650.34 535.626C649.855 535.222 649.158 535.02 648.249 535.02C647.33 535.02 646.628 535.222 646.143 535.626C645.668 536.03 645.431 536.575 645.431 537.262C645.431 537.959 645.658 538.51 646.113 538.914C646.567 539.318 647.279 539.52 648.249 539.52ZM648.249 534.232C649.037 534.232 649.633 534.05 650.037 533.687C650.451 533.313 650.658 532.808 650.658 532.171C650.658 531.525 650.456 531.015 650.052 530.641C649.658 530.267 649.057 530.08 648.249 530.08C647.431 530.08 646.825 530.267 646.431 530.641C646.037 531.015 645.84 531.525 645.84 532.171C645.84 532.808 646.042 533.313 646.446 533.687C646.85 534.05 647.451 534.232 648.249 534.232ZM660.763 532.49H660.05V528.565H660.869L660.763 532.49ZM684.546 530.035L679.394 537.414L679.197 536.974H686.622V537.762H678.667V537.005L683.97 529.444H685.122V540.156H684.228V529.929L684.546 530.035ZM694.188 539.414L697.854 535.49C698.319 534.995 698.698 534.56 698.991 534.187C699.284 533.803 699.501 533.449 699.642 533.126C699.794 532.793 699.869 532.454 699.869 532.111C699.869 531.454 699.657 530.954 699.233 530.611C698.809 530.257 698.243 530.08 697.536 530.08C696.829 530.08 696.248 530.293 695.794 530.717C695.339 531.131 695.122 531.702 695.142 532.429H694.263C694.253 531.772 694.39 531.212 694.672 530.747C694.955 530.283 695.349 529.924 695.854 529.671C696.359 529.419 696.935 529.293 697.582 529.293C698.258 529.293 698.829 529.409 699.294 529.641C699.768 529.863 700.132 530.187 700.385 530.611C700.637 531.025 700.763 531.525 700.763 532.111C700.763 532.495 700.698 532.868 700.566 533.232C700.435 533.586 700.193 533.995 699.839 534.459C699.496 534.914 698.996 535.49 698.339 536.187L694.885 539.884L694.945 539.368H700.9V540.156H694.188V539.414ZM709.864 532.49H709.137V528.565H709.985L709.864 532.49ZM712.47 532.49H711.743V528.565H712.591L712.47 532.49ZM730.128 529.444H731.083L733.598 539.005H733.659L736.189 529.444H737.34L739.916 539.005H739.977L742.492 529.444H743.446L740.568 540.156H739.446L736.825 530.656H736.704L734.113 540.156H732.977L730.128 529.444Z" fill="#FFFAEE"/>
<path d="M339.374 623.916C338.667 623.916 337.98 623.789 337.313 623.537C336.647 623.284 336.046 622.916 335.51 622.431C334.975 621.946 334.546 621.36 334.222 620.673C333.909 619.986 333.753 619.204 333.753 618.325C333.753 617.446 333.909 616.663 334.222 615.976C334.546 615.289 334.975 614.709 335.51 614.234C336.046 613.749 336.647 613.38 337.313 613.128C337.98 612.875 338.667 612.749 339.374 612.749C340.081 612.749 340.768 612.875 341.434 613.128C342.101 613.38 342.702 613.749 343.237 614.234C343.773 614.709 344.197 615.289 344.51 615.976C344.823 616.663 344.98 617.446 344.98 618.325C344.98 619.204 344.823 619.986 344.51 620.673C344.197 621.36 343.773 621.946 343.237 622.431C342.702 622.916 342.101 623.284 341.434 623.537C340.768 623.789 340.081 623.916 339.374 623.916ZM339.374 623.219C339.97 623.219 340.556 623.113 341.131 622.901C341.707 622.678 342.227 622.36 342.692 621.946C343.157 621.522 343.525 621.007 343.798 620.401C344.081 619.795 344.222 619.103 344.222 618.325C344.222 617.547 344.081 616.855 343.798 616.249C343.525 615.643 343.157 615.133 342.692 614.719C342.227 614.295 341.707 613.976 341.131 613.764C340.556 613.542 339.97 613.431 339.374 613.431C338.768 613.431 338.177 613.542 337.601 613.764C337.025 613.976 336.505 614.295 336.041 614.719C335.576 615.133 335.202 615.643 334.919 616.249C334.647 616.855 334.51 617.547 334.51 618.325C334.51 619.103 334.647 619.795 334.919 620.401C335.202 621.007 335.576 621.522 336.041 621.946C336.505 622.36 337.025 622.678 337.601 622.901C338.177 623.113 338.768 623.219 339.374 623.219ZM339.434 621.295C338.505 621.295 337.803 621.027 337.328 620.491C336.854 619.956 336.616 619.229 336.616 618.31C336.616 617.39 336.859 616.668 337.344 616.143C337.839 615.618 338.525 615.355 339.404 615.355C339.869 615.355 340.268 615.431 340.601 615.582C340.945 615.734 341.217 615.951 341.419 616.234C341.631 616.507 341.768 616.835 341.828 617.219H340.98C340.909 616.865 340.763 616.587 340.541 616.385C340.328 616.183 339.955 616.082 339.419 616.082C338.773 616.082 338.278 616.274 337.934 616.658C337.591 617.042 337.419 617.592 337.419 618.31C337.419 619.037 337.591 619.598 337.934 619.991C338.278 620.375 338.773 620.567 339.419 620.567C339.924 620.567 340.293 620.486 340.525 620.325C340.758 620.153 340.909 619.88 340.98 619.507H341.828C341.788 619.86 341.667 620.173 341.465 620.446C341.273 620.709 341.005 620.916 340.662 621.067C340.328 621.219 339.919 621.295 339.434 621.295ZM345.949 622.976L349.616 619.052C350.08 618.557 350.459 618.123 350.752 617.749C351.045 617.365 351.262 617.012 351.404 616.688C351.555 616.355 351.631 616.017 351.631 615.673C351.631 615.017 351.419 614.517 350.994 614.173C350.57 613.82 350.005 613.643 349.298 613.643C348.59 613.643 348.01 613.855 347.555 614.279C347.101 614.693 346.883 615.264 346.904 615.991H346.025C346.015 615.335 346.151 614.774 346.434 614.31C346.717 613.845 347.111 613.486 347.616 613.234C348.121 612.981 348.697 612.855 349.343 612.855C350.02 612.855 350.59 612.971 351.055 613.204C351.53 613.426 351.893 613.749 352.146 614.173C352.399 614.587 352.525 615.087 352.525 615.673C352.525 616.057 352.459 616.431 352.328 616.795C352.197 617.148 351.954 617.557 351.601 618.022C351.257 618.476 350.757 619.052 350.101 619.749L346.646 623.446L346.707 622.931H352.661V623.719H345.949V622.976ZM357.398 623.87C356.519 623.87 355.802 623.673 355.247 623.279C354.701 622.875 354.302 622.269 354.05 621.461C353.797 620.643 353.671 619.608 353.671 618.355C353.671 617.103 353.797 616.072 354.05 615.264C354.312 614.456 354.716 613.855 355.262 613.461C355.817 613.057 356.529 612.855 357.398 612.855C358.277 612.855 358.989 613.057 359.534 613.461C360.09 613.855 360.494 614.456 360.747 615.264C361.009 616.072 361.141 617.103 361.141 618.355C361.141 619.598 361.009 620.628 360.747 621.446C360.494 622.264 360.09 622.875 359.534 623.279C358.989 623.673 358.277 623.87 357.398 623.87ZM357.398 623.082C358.428 623.082 359.161 622.693 359.595 621.916C360.029 621.138 360.247 619.951 360.247 618.355C360.247 616.759 360.029 615.577 359.595 614.81C359.161 614.032 358.428 613.643 357.398 613.643C356.378 613.643 355.651 614.032 355.216 614.81C354.782 615.577 354.565 616.759 354.565 618.355C354.565 619.951 354.777 621.138 355.201 621.916C355.636 622.693 356.368 623.082 357.398 623.082ZM362.152 622.976L365.819 619.052C366.284 618.557 366.662 618.123 366.955 617.749C367.248 617.365 367.465 617.012 367.607 616.688C367.758 616.355 367.834 616.017 367.834 615.673C367.834 615.017 367.622 614.517 367.198 614.173C366.773 613.82 366.208 613.643 365.501 613.643C364.794 613.643 364.213 613.855 363.758 614.279C363.304 614.693 363.087 615.264 363.107 615.991H362.228C362.218 615.335 362.354 614.774 362.637 614.31C362.92 613.845 363.314 613.486 363.819 613.234C364.324 612.981 364.9 612.855 365.546 612.855C366.223 612.855 366.794 612.971 367.258 613.204C367.733 613.426 368.097 613.749 368.349 614.173C368.602 614.587 368.728 615.087 368.728 615.673C368.728 616.057 368.662 616.431 368.531 616.795C368.4 617.148 368.157 617.557 367.804 618.022C367.46 618.476 366.96 619.052 366.304 619.749L362.849 623.446L362.91 622.931H368.864V623.719H362.152V622.976ZM370.162 620.355C370.172 619.961 370.218 619.577 370.298 619.204C370.389 618.83 370.546 618.431 370.768 618.007C371 617.582 371.319 617.098 371.723 616.552L374.374 613.007H375.45L371.859 617.764L371.738 617.628C371.95 617.497 372.142 617.39 372.313 617.31C372.485 617.219 372.672 617.153 372.874 617.113C373.076 617.062 373.324 617.037 373.617 617.037C374.354 617.037 374.98 617.173 375.495 617.446C376.01 617.709 376.399 618.092 376.662 618.598C376.935 619.103 377.071 619.714 377.071 620.431C377.071 621.118 376.94 621.719 376.677 622.234C376.415 622.749 376.026 623.153 375.51 623.446C374.995 623.729 374.364 623.87 373.617 623.87C372.485 623.87 371.622 623.552 371.026 622.916C370.44 622.269 370.152 621.416 370.162 620.355ZM371.056 620.431C371.056 621.239 371.253 621.885 371.647 622.37C372.051 622.845 372.707 623.082 373.617 623.082C374.516 623.082 375.167 622.845 375.571 622.37C375.975 621.885 376.177 621.239 376.177 620.431C376.177 619.623 375.975 618.986 375.571 618.522C375.167 618.057 374.516 617.825 373.617 617.825C372.808 617.825 372.177 618.057 371.723 618.522C371.278 618.986 371.056 619.623 371.056 620.431Z" fill="#FFFAEE"/>
<path d="M542.448 614.173H542.387L539.024 623.719H538.1L541.933 613.007H542.963L546.781 623.719H545.812L542.448 614.173ZM544.887 620.507H539.993V619.719H544.887V620.507ZM547.888 613.007H548.797V622.931H553.903V623.719H547.888V613.007ZM554.695 613.007H555.604V622.931H560.71V623.719H554.695V613.007ZM569.647 618.81L572.435 623.719H571.42L568.738 618.976L569.647 618.81ZM568.465 618.522C569.182 618.522 569.738 618.431 570.132 618.249C570.526 618.067 570.804 617.8 570.965 617.446C571.127 617.092 571.208 616.658 571.208 616.143C571.208 615.618 571.127 615.183 570.965 614.84C570.804 614.497 570.526 614.239 570.132 614.067C569.738 613.885 569.182 613.795 568.465 613.795H565.859V618.522H568.465ZM568.541 619.31H565.859V623.719H564.95V613.007H568.526C569.395 613.007 570.092 613.133 570.617 613.385C571.142 613.628 571.521 613.981 571.753 614.446C571.996 614.911 572.117 615.476 572.117 616.143C572.117 616.668 572.061 617.128 571.95 617.522C571.839 617.916 571.647 618.249 571.374 618.522C571.102 618.784 570.733 618.981 570.268 619.113C569.814 619.244 569.238 619.31 568.541 619.31ZM576.173 623.719H575.264V613.007H576.173V623.719ZM573.613 613.795V613.007H577.81V613.795H573.613ZM573.613 623.719V622.931H577.81V623.719H573.613ZM586.966 619.173H583.92V618.385H587.875V619.598C587.875 620.355 587.723 621.062 587.42 621.719C587.128 622.365 586.668 622.885 586.042 623.279C585.425 623.673 584.628 623.87 583.648 623.87C582.183 623.87 581.047 623.396 580.239 622.446C579.441 621.486 579.042 620.123 579.042 618.355C579.042 616.587 579.441 615.229 580.239 614.279C581.047 613.33 582.183 612.855 583.648 612.855C584.345 612.855 584.976 612.976 585.542 613.219C586.107 613.451 586.582 613.805 586.966 614.279C587.35 614.754 587.612 615.36 587.754 616.098H586.814C586.653 615.229 586.294 614.608 585.739 614.234C585.193 613.86 584.496 613.673 583.648 613.673C582.456 613.673 581.542 614.047 580.905 614.795C580.269 615.542 579.951 616.729 579.951 618.355C579.951 619.971 580.269 621.158 580.905 621.916C581.542 622.673 582.456 623.052 583.648 623.052C584.264 623.052 584.774 622.966 585.178 622.795C585.582 622.613 585.905 622.375 586.148 622.082C586.39 621.789 586.567 621.471 586.678 621.128C586.799 620.784 586.875 620.441 586.905 620.098C586.946 619.754 586.966 619.446 586.966 619.173ZM589.44 613.007H590.349V617.961H596.334V613.007H597.243V623.719H596.334V618.749H590.349V623.719H589.44V613.007ZM598.031 613.007H605.941V613.795H602.441V623.719H601.531V613.795H598.031V613.007ZM612.349 615.325C612.268 614.699 611.991 614.264 611.516 614.022C611.051 613.779 610.435 613.658 609.667 613.658C608.789 613.658 608.137 613.83 607.713 614.173C607.289 614.507 607.076 615.002 607.076 615.658C607.076 616.042 607.147 616.355 607.289 616.598C607.44 616.84 607.632 617.037 607.864 617.188C608.097 617.33 608.344 617.446 608.607 617.537C608.869 617.618 609.112 617.688 609.334 617.749L610.501 618.067C610.794 618.148 611.112 618.249 611.455 618.37C611.799 618.491 612.122 618.658 612.425 618.87C612.738 619.082 612.991 619.355 613.183 619.688C613.374 620.022 613.47 620.436 613.47 620.931C613.47 621.497 613.334 622.007 613.061 622.461C612.789 622.916 612.369 623.274 611.804 623.537C611.238 623.789 610.516 623.916 609.637 623.916C608.465 623.916 607.566 623.678 606.94 623.204C606.314 622.729 605.96 622.087 605.879 621.279H606.819C606.879 621.764 607.036 622.138 607.289 622.401C607.541 622.663 607.864 622.85 608.258 622.961C608.662 623.062 609.122 623.113 609.637 623.113C610.566 623.113 611.284 622.936 611.789 622.582C612.304 622.219 612.561 621.658 612.561 620.901C612.561 620.446 612.45 620.087 612.228 619.825C612.016 619.562 611.728 619.355 611.364 619.204C611.011 619.052 610.627 618.921 610.213 618.81L608.758 618.416C607.93 618.183 607.289 617.86 606.834 617.446C606.39 617.032 606.167 616.461 606.167 615.734C606.167 615.138 606.309 614.628 606.592 614.204C606.885 613.769 607.294 613.436 607.819 613.204C608.354 612.971 608.986 612.855 609.713 612.855C610.42 612.855 611.026 612.961 611.531 613.173C612.046 613.375 612.45 613.663 612.743 614.037C613.046 614.401 613.218 614.83 613.258 615.325H612.349ZM622.548 618.81L625.336 623.719H624.321L621.639 618.976L622.548 618.81ZM621.367 618.522C622.084 618.522 622.639 618.431 623.033 618.249C623.427 618.067 623.705 617.8 623.867 617.446C624.028 617.092 624.109 616.658 624.109 616.143C624.109 615.618 624.028 615.183 623.867 614.84C623.705 614.497 623.427 614.239 623.033 614.067C622.639 613.885 622.084 613.795 621.367 613.795H618.761V618.522H621.367ZM621.442 619.31H618.761V623.719H617.851V613.007H621.427C622.296 613.007 622.993 613.133 623.518 613.385C624.043 613.628 624.422 613.981 624.654 614.446C624.897 614.911 625.018 615.476 625.018 616.143C625.018 616.668 624.963 617.128 624.851 617.522C624.74 617.916 624.548 618.249 624.276 618.522C624.003 618.784 623.634 618.981 623.17 619.113C622.715 619.244 622.139 619.31 621.442 619.31ZM626.641 613.007H632.671V613.795H627.55V617.961H632.323V618.749H627.55V622.931H632.747V623.719H626.641V613.007ZM640.154 615.325C640.073 614.699 639.795 614.264 639.321 614.022C638.856 613.779 638.24 613.658 637.472 613.658C636.593 613.658 635.942 613.83 635.518 614.173C635.093 614.507 634.881 615.002 634.881 615.658C634.881 616.042 634.952 616.355 635.093 616.598C635.245 616.84 635.437 617.037 635.669 617.188C635.901 617.33 636.149 617.446 636.412 617.537C636.674 617.618 636.917 617.688 637.139 617.749L638.306 618.067C638.598 618.148 638.917 618.249 639.26 618.37C639.603 618.491 639.927 618.658 640.23 618.87C640.543 619.082 640.795 619.355 640.987 619.688C641.179 620.022 641.275 620.436 641.275 620.931C641.275 621.497 641.139 622.007 640.866 622.461C640.593 622.916 640.174 623.274 639.609 623.537C639.043 623.789 638.321 623.916 637.442 623.916C636.27 623.916 635.371 623.678 634.745 623.204C634.119 622.729 633.765 622.087 633.684 621.279H634.624C634.684 621.764 634.841 622.138 635.093 622.401C635.346 622.663 635.669 622.85 636.063 622.961C636.467 623.062 636.927 623.113 637.442 623.113C638.371 623.113 639.088 622.936 639.593 622.582C640.109 622.219 640.366 621.658 640.366 620.901C640.366 620.446 640.255 620.087 640.033 619.825C639.821 619.562 639.533 619.355 639.169 619.204C638.816 619.052 638.432 618.921 638.018 618.81L636.563 618.416C635.735 618.183 635.093 617.86 634.639 617.446C634.194 617.032 633.972 616.461 633.972 615.734C633.972 615.138 634.114 614.628 634.396 614.204C634.689 613.769 635.098 613.436 635.624 613.204C636.159 612.971 636.79 612.855 637.518 612.855C638.225 612.855 638.831 612.961 639.336 613.173C639.851 613.375 640.255 613.663 640.548 614.037C640.851 614.401 641.023 614.83 641.063 615.325H640.154ZM642.534 613.007H648.564V613.795H643.443V617.961H648.215V618.749H643.443V622.931H648.64V623.719H642.534V613.007ZM655.073 618.81L657.861 623.719H656.846L654.164 618.976L655.073 618.81ZM653.891 618.522C654.609 618.522 655.164 618.431 655.558 618.249C655.952 618.067 656.23 617.8 656.391 617.446C656.553 617.092 656.634 616.658 656.634 616.143C656.634 615.618 656.553 615.183 656.391 614.84C656.23 614.497 655.952 614.239 655.558 614.067C655.164 613.885 654.609 613.795 653.891 613.795H651.285V618.522H653.891ZM653.967 619.31H651.285V623.719H650.376V613.007H653.952C654.821 613.007 655.518 613.133 656.043 613.385C656.568 613.628 656.947 613.981 657.179 614.446C657.422 614.911 657.543 615.476 657.543 616.143C657.543 616.668 657.487 617.128 657.376 617.522C657.265 617.916 657.073 618.249 656.801 618.522C656.528 618.784 656.159 618.981 655.694 619.113C655.24 619.244 654.664 619.31 653.967 619.31ZM662.563 622.673H662.654L666.184 613.007H667.138L663.229 623.719H661.972L658.078 613.007H659.048L662.563 622.673ZM668.237 613.007H674.267V613.795H669.146V617.961H673.919V618.749H669.146V622.931H674.343V623.719H668.237V613.007ZM676.079 623.719V613.007H679.398C680.953 613.007 682.13 613.461 682.928 614.37C683.726 615.279 684.125 616.608 684.125 618.355C684.125 620.092 683.716 621.421 682.898 622.34C682.09 623.259 680.872 623.719 679.246 623.719H676.079ZM679.17 622.931C680.191 622.931 680.994 622.749 681.579 622.385C682.165 622.012 682.584 621.481 682.837 620.795C683.09 620.108 683.216 619.295 683.216 618.355C683.216 617.406 683.09 616.592 682.837 615.916C682.595 615.229 682.185 614.704 681.61 614.34C681.044 613.976 680.271 613.795 679.292 613.795H676.989V622.931H679.17Z" fill="#FFFAEE"/>
<path d="M448.26 608.629H464.406C465.825 608.629 466.979 609.784 466.979 611.203V627.348C466.979 628.767 465.825 629.921 464.406 629.921H448.261C446.841 629.921 445.687 628.767 445.687 627.348V611.203C445.687 609.783 446.842 608.629 448.261 608.629H448.26ZM464.406 610.087H448.261C447.646 610.087 447.145 610.587 447.145 611.203V616.142H457.841L453.358 611.975H455.501L460.765 616.869L456.106 621.202H465.521V611.203C465.521 610.587 465.021 610.087 464.406 610.087ZM448.26 628.463H464.406C465.021 628.463 465.521 627.963 465.521 627.348V622.66H456.027L460.51 626.826H458.367L453.103 621.932L457.762 617.6H447.145V627.348C447.145 627.963 447.645 628.463 448.26 628.463L448.26 628.463Z" fill="#FFFAEE"/>
<path d="M408.343 608.228C400.985 608.228 395 613.061 395 619.005C395 624.95 400.985 629.783 408.343 629.783C415.701 629.783 421.687 624.95 421.687 619.005C421.687 613.061 415.701 608.228 408.343 608.228ZM407.754 609.987V614.023C406.557 614.006 405.398 613.935 404.307 613.82C405.432 612.129 406.839 610.776 407.754 609.987ZM407.754 615.131V618.453H402.544C402.646 617.182 403.08 615.969 403.68 614.864C404.961 615.023 406.337 615.114 407.757 615.135L407.754 615.131ZM407.754 619.558V622.879C406.334 622.9 404.958 622.991 403.676 623.15C403.08 622.045 402.643 620.832 402.544 619.561H407.754V619.558ZM407.754 623.984V628.024C406.839 627.234 405.429 625.882 404.303 624.191C405.395 624.072 406.557 624.001 407.754 623.984ZM408.937 628.021V623.984C410.123 624.001 411.282 624.076 412.38 624.198C411.255 625.885 409.852 627.234 408.937 628.024V628.021ZM408.937 622.876V619.554H414.146C414.044 620.829 413.61 622.042 413.01 623.147C411.729 622.988 410.357 622.893 408.937 622.872V622.876ZM408.937 618.449V615.128C410.357 615.108 411.729 615.013 413.01 614.853C413.61 615.958 414.047 617.175 414.146 618.446H408.937V618.449ZM408.937 614.023V609.987C409.852 610.776 411.255 612.125 412.38 613.813C411.282 613.935 410.123 614.006 408.937 614.027V614.023ZM410.045 609.431C413.027 609.763 415.668 610.963 417.549 612.695C416.505 613.094 415.169 613.416 413.668 613.644C412.546 611.824 411.092 610.356 410.045 609.431ZM403.016 613.654C401.514 613.427 400.186 613.105 399.131 612.701C401.012 610.963 403.656 609.763 406.645 609.427C405.598 610.356 404.141 611.827 403.019 613.65L403.016 613.654ZM402.443 614.684C401.863 615.84 401.446 617.107 401.355 618.449H396.203C396.332 616.646 397.084 614.976 398.291 613.569C399.399 614.037 400.819 614.416 402.443 614.684ZM401.355 619.558C401.446 620.9 401.863 622.167 402.443 623.323C400.823 623.591 399.403 623.967 398.291 624.438C397.084 623.032 396.332 621.361 396.203 619.558H401.351H401.355ZM403.016 624.354C404.141 626.177 405.595 627.648 406.642 628.576C403.653 628.241 401.009 627.041 399.128 625.302C400.186 624.899 401.511 624.577 403.012 624.35L403.016 624.354ZM413.665 624.364C415.169 624.591 416.501 624.916 417.545 625.313C415.664 627.045 413.024 628.244 410.041 628.576C411.089 627.648 412.539 626.18 413.665 624.364ZM414.244 623.327C414.827 622.167 415.244 620.9 415.335 619.554H420.484C420.355 621.361 419.599 623.035 418.389 624.445C417.284 623.974 415.864 623.594 414.244 623.327ZM415.335 618.449C415.244 617.107 414.827 615.836 414.244 614.677C415.864 614.41 417.281 614.03 418.389 613.559C419.599 614.969 420.355 616.643 420.484 618.449H415.335Z" fill="#FFFAEE"/>
<path d="M504.447 629.3C496.468 629.3 489.979 624.572 489.979 618.762C489.979 612.952 496.468 608.228 504.447 608.228C512.425 608.228 518.914 612.955 518.914 618.762C518.914 624.569 512.425 629.297 504.447 629.297V629.3ZM504.447 609.22C497.016 609.22 490.972 613.503 490.972 618.762C490.972 624.021 497.016 628.305 504.447 628.305C511.877 628.305 517.922 624.025 517.922 618.762C517.922 613.5 511.877 609.22 504.447 609.22Z" fill="#FFFAEE"/>
<path d="M512.435 622.358C510.324 622.114 508.697 620.587 508.697 618.766C508.697 616.945 510.321 615.415 512.435 615.174V613.483C509.388 613.744 507.016 616.036 507.016 618.766C507.016 621.496 509.385 623.788 512.435 624.048V622.358Z" fill="#FFFAEE"/>
<path d="M506.699 622.358C504.587 622.114 502.96 620.587 502.96 618.766C502.96 616.945 504.584 615.415 506.699 615.174V613.483C503.652 613.744 501.279 616.036 501.279 618.766C501.279 621.496 503.648 623.788 506.699 624.048V622.358Z" fill="#FFFAEE"/>
<path d="M501.279 622.358C499.168 622.114 497.54 620.587 497.54 618.766C497.54 616.945 499.164 615.415 501.279 615.174V613.483C498.232 613.744 495.86 616.036 495.86 618.766C495.86 621.496 498.229 623.788 501.279 624.048V622.358Z" fill="#FFFAEE"/>
<path d="M731.919 625.835L731.972 619.563L736.903 619.51C738.389 619.494 739.425 617.866 739.608 616.471C739.9 614.229 739.658 612.023 739.497 609.662C740.732 609.237 742.025 608.769 743.128 608.115C744.107 607.535 744.226 606.509 743.663 605.601C742.205 602.868 740.807 600.239 739.821 597.288C739.79 592.745 738.584 588.426 735.694 584.895C730.495 578.542 721.665 576.343 714.018 579.29C709.641 580.975 706.516 584.236 704.751 588.483C701.193 597.057 703.293 605.117 708.917 612.296L709.814 622.652C709.931 624.008 711.749 625.121 712.859 625.754C717.999 628.678 726.526 629.079 731.917 625.835H731.919ZM729.615 618.694L729.6 624.498C724.399 626.689 715.802 626.21 712.022 622.091L711.212 611.441C705.814 604.754 703.572 597.403 706.967 589.262C708.365 585.912 710.716 583.288 714.109 581.772C721.442 578.495 730.212 580.882 734.725 587.512C736.771 590.518 737.32 593.815 737.577 597.403C737.675 598.759 738.418 600.394 739.02 601.595L741.457 606.446L738.083 607.616C737.514 607.812 737.102 608.337 737.138 608.991L737.447 614.533C737.495 615.404 737.238 616.333 736.898 617.219L731.353 617.209C730.385 617.209 729.615 617.448 729.612 618.696L729.615 618.694Z" fill="#FFFAEE"/>
<line x1="306.63" y1="486" x2="306.63" y2="539" stroke="#FFFAEE" stroke-width="1.26"/>
<line x1="771.63" y1="486" x2="771.63" y2="539" stroke="#FFFAEE" stroke-width="1.26"/>
<path d="M416.088 443V417.44H423.288V428.636L434.952 417.44H443.736L432.756 427.952L443.844 443H435.204L427.572 432.344L423.288 436.412V443H416.088ZM446.919 443V417.44H454.119V443H446.919ZM459.749 443V417.44H467.129L479.369 431.768H479.405V417.44H486.101V443H480.593L466.481 426.512H466.445V443H459.749ZM491.705 443V417.44H515.465V422.768H498.905V427.52H513.845V432.632H498.905V437.672H515.717V443H491.705ZM529.031 443V422.768H518.879V417.44H546.383V422.768H536.231V443H529.031ZM550.483 443V417.44H557.683V443H550.483ZM578.182 443.468C575.11 443.468 572.374 442.928 569.974 441.848C567.598 440.744 565.726 439.208 564.358 437.24C563.014 435.248 562.342 432.908 562.342 430.22C562.342 427.532 563.014 425.204 564.358 423.236C565.726 421.268 567.598 419.744 569.974 418.664C572.374 417.584 575.11 417.044 578.182 417.044C580.87 417.044 583.234 417.428 585.274 418.196C587.314 418.964 588.994 420.02 590.314 421.364C591.634 422.684 592.522 424.172 592.978 425.828L586.534 427.376C586.03 426.128 585.358 425.156 584.518 424.46C583.678 423.74 582.718 423.236 581.638 422.948C580.582 422.66 579.466 422.516 578.29 422.516C576.706 422.516 575.254 422.792 573.934 423.344C572.614 423.872 571.558 424.676 570.766 425.756C569.998 426.836 569.614 428.204 569.614 429.86V430.58C569.614 432.212 569.998 433.58 570.766 434.684C571.558 435.764 572.614 436.58 573.934 437.132C575.254 437.66 576.706 437.924 578.29 437.924C579.466 437.924 580.582 437.78 581.638 437.492C582.718 437.204 583.678 436.712 584.518 436.016C585.358 435.296 586.03 434.312 586.534 433.064L592.978 434.612C592.522 436.268 591.634 437.768 590.314 439.112C588.994 440.432 587.314 441.488 585.274 442.28C583.234 443.072 580.87 443.468 578.182 443.468Z" fill="#191919"/>
<defs>
<filter id="filter0_d_94_259" x="301.475" y="398.631" width="111.742" height="70.0759" filterUnits="userSpaceOnUse" color-interpolation-filters="sRGB">
<feFlood flood-opacity="0" result="BackgroundImageFix"/>
<feColorMatrix in="SourceAlpha" type="matrix" values="0 0 0 0 0 0 0 0 0 0 0 0 0 0 0 0 0 0 127 0" result="hardAlpha"/>
<feOffset dy="2.52525"/>
<feGaussianBlur stdDeviation="1.26263"/>
<feComposite in2="hardAlpha" operator="out"/>
<feColorMatrix type="matrix" values="0 0 0 0 0 0 0 0 0 0 0 0 0 0 0 0 0 0 0.25 0"/>
<feBlend mode="normal" in2="BackgroundImageFix" result="effect1_dropShadow_94_259"/>
<feBlend mode="normal" in="SourceGraphic" in2="effect1_dropShadow_94_259" result="shape"/>
</filter>
<filter id="filter1_d_94_259" x="618.394" y="398.631" width="155.303" height="70.0759" filterUnits="userSpaceOnUse" color-interpolation-filters="sRGB">
<feFlood flood-opacity="0" result="BackgroundImageFix"/>
<feColorMatrix in="SourceAlpha" type="matrix" values="0 0 0 0 0 0 0 0 0 0 0 0 0 0 0 0 0 0 127 0" result="hardAlpha"/>
<feOffset dy="2.52525"/>
<feGaussianBlur stdDeviation="1.26263"/>
<feComposite in2="hardAlpha" operator="out"/>
<feColorMatrix type="matrix" values="0 0 0 0 0 0 0 0 0 0 0 0 0 0 0 0 0 0 0.25 0"/>
<feBlend mode="normal" in2="BackgroundImageFix" result="effect1_dropShadow_94_259"/>
<feBlend mode="normal" in="SourceGraphic" in2="effect1_dropShadow_94_259" result="shape"/>
</filter>
<filter id="filter2_d_94_259" x="301.475" y="562.772" width="472.222" height="90.278" filterUnits="userSpaceOnUse" color-interpolation-filters="sRGB">
<feFlood flood-opacity="0" result="BackgroundImageFix"/>
<feColorMatrix in="SourceAlpha" type="matrix" values="0 0 0 0 0 0 0 0 0 0 0 0 0 0 0 0 0 0 127 0" result="hardAlpha"/>
<feOffset dy="2.52525"/>
<feGaussianBlur stdDeviation="1.26263"/>
<feComposite in2="hardAlpha" operator="out"/>
<feColorMatrix type="matrix" values="0 0 0 0 0 0 0 0 0 0 0 0 0 0 0 0 0 0 0.25 0"/>
<feBlend mode="normal" in2="BackgroundImageFix" result="effect1_dropShadow_94_259"/>
<feBlend mode="normal" in="SourceGraphic" in2="effect1_dropShadow_94_259" result="shape"/>
</filter>
<filter id="filter3_d_94_259" x="386.07" y="398" width="237.374" height="70.0759" filterUnits="userSpaceOnUse" color-interpolation-filters="sRGB">
<feFlood flood-opacity="0" result="BackgroundImageFix"/>
<feColorMatrix in="SourceAlpha" type="matrix" values="0 0 0 0 0 0 0 0 0 0 0 0 0 0 0 0 0 0 127 0" result="hardAlpha"/>
<feOffset dy="2.52525"/>
<feGaussianBlur stdDeviation="1.26263"/>
<feComposite in2="hardAlpha" operator="out"/>
<feColorMatrix type="matrix" values="0 0 0 0 0 0 0 0 0 0 0 0 0 0 0 0 0 0 0.25 0"/>
<feBlend mode="normal" in2="BackgroundImageFix" result="effect1_dropShadow_94_259"/>
<feBlend mode="normal" in="SourceGraphic" in2="effect1_dropShadow_94_259" result="shape"/>
</filter>
</defs>
</svg>
