<svg width="1080" height="1080" viewBox="0 0 1080 1080" fill="none" xmlns="http://www.w3.org/2000/svg">
<rect width="1080" height="1080" fill="#191919"/>
<path d="M208.741 468.36V477.919H207.853V468.36H204.317V467.59H212.278V468.36H208.741ZM218.842 473.065H214.314V477.919H213.426V467.59H214.314V472.296H218.842V467.59H219.73V477.919H218.842V473.065ZM221.855 477.919V467.59H228.085V468.36H222.743V472.296H227.892V473.065H222.743V477.149H228.085V477.919H221.855ZM241.42 478.097C240.956 478.097 240.542 478.052 240.177 477.963C239.812 477.875 239.482 477.756 239.186 477.608C238.89 477.45 238.623 477.263 238.387 477.046C238.16 476.829 237.953 476.592 237.765 476.336L238.416 475.803C238.801 476.296 239.225 476.676 239.689 476.942C240.152 477.199 240.739 477.327 241.45 477.327C242.278 477.327 242.915 477.145 243.359 476.78C243.802 476.405 244.024 475.867 244.024 475.167C244.024 474.525 243.837 474.052 243.462 473.746C243.097 473.44 242.574 473.233 241.894 473.125L240.739 472.932C240.226 472.843 239.797 472.71 239.452 472.533C239.117 472.355 238.845 472.148 238.638 471.911C238.431 471.665 238.283 471.393 238.194 471.097C238.115 470.801 238.076 470.496 238.076 470.18C238.076 469.253 238.377 468.562 238.979 468.108C239.59 467.645 240.409 467.413 241.435 467.413C242.273 467.413 242.959 467.551 243.492 467.827C244.034 468.094 244.468 468.463 244.794 468.937L244.172 469.484C243.876 469.07 243.511 468.75 243.077 468.523C242.653 468.296 242.096 468.182 241.405 468.182C240.636 468.182 240.034 468.35 239.6 468.685C239.176 469.011 238.964 469.499 238.964 470.15C238.964 470.752 239.141 471.211 239.496 471.527C239.852 471.832 240.379 472.039 241.08 472.148L242.219 472.34C242.742 472.429 243.176 472.567 243.521 472.755C243.867 472.932 244.143 473.144 244.35 473.391C244.557 473.638 244.7 473.909 244.779 474.205C244.868 474.501 244.912 474.812 244.912 475.137C244.912 476.084 244.606 476.814 243.995 477.327C243.383 477.84 242.525 478.097 241.42 478.097ZM251.965 473.065H247.437V477.919H246.549V467.59H247.437V472.296H251.965V467.59H252.853V477.919H251.965V473.065ZM260.911 477.919L259.935 474.767H256.028L255.037 477.919H254.119L257.404 467.59H258.573L261.844 477.919H260.911ZM258.026 468.537H257.922L256.235 473.998H259.713L258.026 468.537ZM263.258 477.919V467.59H266.958C267.875 467.59 268.571 467.852 269.044 468.375C269.518 468.888 269.754 469.593 269.754 470.491C269.754 471.388 269.518 472.099 269.044 472.622C268.571 473.134 267.875 473.391 266.958 473.391H264.146V477.919H263.258ZM264.146 472.622H266.943C267.564 472.622 268.033 472.454 268.349 472.118C268.664 471.783 268.822 471.359 268.822 470.846V470.136C268.822 469.623 268.664 469.198 268.349 468.863C268.033 468.528 267.564 468.36 266.943 468.36H264.146V472.622ZM271.539 477.919V467.59H277.769V468.36H272.427V472.296H277.576V473.065H272.427V477.149H277.769V477.919H271.539ZM282.824 478.097C282.36 478.097 281.946 478.052 281.581 477.963C281.216 477.875 280.885 477.756 280.589 477.608C280.293 477.45 280.027 477.263 279.79 477.046C279.563 476.829 279.356 476.592 279.169 476.336L279.82 475.803C280.205 476.296 280.629 476.676 281.092 476.942C281.556 477.199 282.143 477.327 282.853 477.327C283.682 477.327 284.318 477.145 284.762 476.78C285.206 476.405 285.428 475.867 285.428 475.167C285.428 474.525 285.241 474.052 284.866 473.746C284.501 473.44 283.978 473.233 283.297 473.125L282.143 472.932C281.63 472.843 281.201 472.71 280.856 472.533C280.52 472.355 280.249 472.148 280.042 471.911C279.835 471.665 279.687 471.393 279.598 471.097C279.519 470.801 279.479 470.496 279.479 470.18C279.479 469.253 279.78 468.562 280.382 468.108C280.994 467.645 281.813 467.413 282.838 467.413C283.677 467.413 284.363 467.551 284.895 467.827C285.438 468.094 285.872 468.463 286.197 468.937L285.576 469.484C285.28 469.07 284.915 468.75 284.481 468.523C284.057 468.296 283.499 468.182 282.809 468.182C282.039 468.182 281.438 468.35 281.004 468.685C280.579 469.011 280.367 469.499 280.367 470.15C280.367 470.752 280.545 471.211 280.9 471.527C281.255 471.832 281.783 472.039 282.483 472.148L283.623 472.34C284.146 472.429 284.58 472.567 284.925 472.755C285.27 472.932 285.546 473.144 285.754 473.391C285.961 473.638 286.104 473.909 286.183 474.205C286.271 474.501 286.316 474.812 286.316 475.137C286.316 476.084 286.01 476.814 285.398 477.327C284.787 477.84 283.929 478.097 282.824 478.097Z" fill="#FFFAEE"/>
<path d="M794.626 468.36V477.919H793.738V468.36H790.202V467.59H798.163V468.36H794.626ZM804.727 473.065H800.199V477.919H799.311V467.59H800.199V472.296H804.727V467.59H805.615V477.919H804.727V473.065ZM807.74 477.919V467.59H813.969V468.36H808.628V472.296H813.777V473.065H808.628V477.149H813.969V477.919H807.74ZM827.305 478.097C826.841 478.097 826.427 478.052 826.062 477.963C825.697 477.875 825.366 477.756 825.071 477.608C824.775 477.45 824.508 477.263 824.271 477.046C824.045 476.829 823.837 476.592 823.65 476.336L824.301 475.803C824.686 476.296 825.11 476.676 825.574 476.942C826.037 477.199 826.624 477.327 827.335 477.327C828.163 477.327 828.799 477.145 829.243 476.78C829.687 476.405 829.909 475.867 829.909 475.167C829.909 474.525 829.722 474.052 829.347 473.746C828.982 473.44 828.459 473.233 827.778 473.125L826.624 472.932C826.111 472.843 825.682 472.71 825.337 472.533C825.001 472.355 824.73 472.148 824.523 471.911C824.316 471.665 824.168 471.393 824.079 471.097C824 470.801 823.961 470.496 823.961 470.18C823.961 469.253 824.262 468.562 824.863 468.108C825.475 467.645 826.294 467.413 827.32 467.413C828.158 467.413 828.844 467.551 829.377 467.827C829.919 468.094 830.353 468.463 830.679 468.937L830.057 469.484C829.761 469.07 829.396 468.75 828.962 468.523C828.538 468.296 827.981 468.182 827.29 468.182C826.521 468.182 825.919 468.35 825.485 468.685C825.061 469.011 824.849 469.499 824.849 470.15C824.849 470.752 825.026 471.211 825.381 471.527C825.736 471.832 826.264 472.039 826.965 472.148L828.104 472.34C828.627 472.429 829.061 472.567 829.406 472.755C829.751 472.932 830.028 473.144 830.235 473.391C830.442 473.638 830.585 473.909 830.664 474.205C830.753 474.501 830.797 474.812 830.797 475.137C830.797 476.084 830.491 476.814 829.88 477.327C829.268 477.84 828.41 478.097 827.305 478.097ZM837.85 473.065H833.322V477.919H832.434V467.59H833.322V472.296H837.85V467.59H838.737V477.919H837.85V473.065ZM846.796 477.919L845.82 474.767H841.913L840.922 477.919H840.004L843.289 467.59H844.458L847.728 477.919H846.796ZM843.911 468.537H843.807L842.12 473.998H845.598L843.911 468.537ZM849.143 477.919V467.59H852.843C853.76 467.59 854.455 467.852 854.929 468.375C855.402 468.888 855.639 469.593 855.639 470.491C855.639 471.388 855.402 472.099 854.929 472.622C854.455 473.134 853.76 473.391 852.843 473.391H850.031V477.919H849.143ZM850.031 472.622H852.828C853.449 472.622 853.918 472.454 854.233 472.118C854.549 471.783 854.707 471.359 854.707 470.846V470.136C854.707 469.623 854.549 469.198 854.233 468.863C853.918 468.528 853.449 468.36 852.828 468.36H850.031V472.622ZM857.424 477.919V467.59H863.654V468.36H858.312V472.296H863.461V473.065H858.312V477.149H863.654V477.919H857.424ZM868.708 478.097C868.245 478.097 867.83 478.052 867.465 477.963C867.1 477.875 866.77 477.756 866.474 477.608C866.178 477.45 865.912 477.263 865.675 477.046C865.448 476.829 865.241 476.592 865.054 476.336L865.705 475.803C866.089 476.296 866.514 476.676 866.977 476.942C867.441 477.199 868.028 477.327 868.738 477.327C869.567 477.327 870.203 477.145 870.647 476.78C871.091 476.405 871.313 475.867 871.313 475.167C871.313 474.525 871.125 474.052 870.75 473.746C870.385 473.44 869.863 473.233 869.182 473.125L868.028 472.932C867.515 472.843 867.086 472.71 866.74 472.533C866.405 472.355 866.134 472.148 865.927 471.911C865.719 471.665 865.571 471.393 865.483 471.097C865.404 470.801 865.364 470.496 865.364 470.18C865.364 469.253 865.665 468.562 866.267 468.108C866.879 467.645 867.697 467.413 868.723 467.413C869.562 467.413 870.247 467.551 870.78 467.827C871.323 468.094 871.757 468.463 872.082 468.937L871.461 469.484C871.165 469.07 870.8 468.75 870.366 468.523C869.942 468.296 869.384 468.182 868.694 468.182C867.924 468.182 867.322 468.35 866.888 468.685C866.464 469.011 866.252 469.499 866.252 470.15C866.252 470.752 866.43 471.211 866.785 471.527C867.14 471.832 867.668 472.039 868.368 472.148L869.508 472.34C870.03 472.429 870.464 472.567 870.81 472.755C871.155 472.932 871.431 473.144 871.638 473.391C871.845 473.638 871.989 473.909 872.067 474.205C872.156 474.501 872.201 474.812 872.201 475.137C872.201 476.084 871.895 476.814 871.283 477.327C870.672 477.84 869.813 478.097 868.708 478.097Z" fill="#FFFAEE"/>
<path d="M224.436 503.745C221.97 503.745 220.737 501.964 220.737 498.403C220.737 494.842 221.97 493.061 224.436 493.061C224.86 493.061 225.235 493.12 225.561 493.239C225.886 493.357 226.172 493.515 226.419 493.712C226.666 493.91 226.873 494.142 227.041 494.408C227.218 494.674 227.366 494.955 227.484 495.251L226.73 495.592C226.631 495.345 226.513 495.113 226.375 494.896C226.246 494.679 226.089 494.492 225.901 494.334C225.724 494.176 225.511 494.053 225.265 493.964C225.028 493.875 224.752 493.831 224.436 493.831C223.509 493.831 222.818 494.171 222.365 494.852C221.911 495.523 221.684 496.475 221.684 497.708V499.099C221.684 500.332 221.911 501.289 222.365 501.969C222.818 502.64 223.509 502.975 224.436 502.975C224.752 502.975 225.028 502.931 225.265 502.842C225.511 502.754 225.724 502.63 225.901 502.472C226.089 502.315 226.246 502.132 226.375 501.925C226.513 501.708 226.631 501.471 226.73 501.215L227.484 501.555C227.366 501.851 227.218 502.132 227.041 502.398C226.873 502.665 226.666 502.897 226.419 503.094C226.172 503.291 225.886 503.449 225.561 503.567C225.235 503.686 224.86 503.745 224.436 503.745ZM235.292 503.567L234.315 500.416H230.409L229.417 503.567H228.5L231.785 493.239H232.954L236.224 503.567H235.292ZM232.406 494.186H232.303L230.616 499.646H234.093L232.406 494.186ZM238.379 494.408H238.305V503.567H237.491V493.239H238.748L242.906 502.398H242.98V493.239H243.794V503.567H242.537L238.379 494.408ZM257.204 503.745C256.74 503.745 256.326 503.701 255.961 503.612C255.596 503.523 255.265 503.405 254.97 503.257C254.674 503.099 254.407 502.911 254.17 502.694C253.944 502.477 253.736 502.241 253.549 501.984L254.2 501.451C254.585 501.945 255.009 502.324 255.473 502.591C255.936 502.847 256.523 502.975 257.234 502.975C258.062 502.975 258.698 502.793 259.142 502.428C259.586 502.053 259.808 501.515 259.808 500.815C259.808 500.174 259.621 499.7 259.246 499.395C258.881 499.089 258.358 498.882 257.677 498.773L256.523 498.581C256.01 498.492 255.581 498.359 255.236 498.181C254.9 498.004 254.629 497.796 254.422 497.56C254.215 497.313 254.067 497.042 253.978 496.746C253.899 496.45 253.86 496.144 253.86 495.828C253.86 494.901 254.161 494.211 254.762 493.757C255.374 493.293 256.193 493.061 257.219 493.061C258.057 493.061 258.743 493.199 259.276 493.476C259.818 493.742 260.252 494.112 260.578 494.585L259.956 495.133C259.66 494.719 259.295 494.398 258.861 494.171C258.437 493.944 257.88 493.831 257.189 493.831C256.42 493.831 255.818 493.998 255.384 494.334C254.96 494.659 254.748 495.148 254.748 495.799C254.748 496.401 254.925 496.859 255.28 497.175C255.635 497.481 256.163 497.688 256.864 497.796L258.003 497.989C258.526 498.078 258.96 498.216 259.305 498.403C259.65 498.581 259.927 498.793 260.134 499.039C260.341 499.286 260.484 499.557 260.563 499.853C260.652 500.149 260.696 500.46 260.696 500.785C260.696 501.733 260.39 502.463 259.779 502.975C259.167 503.488 258.309 503.745 257.204 503.745ZM262.481 503.567V493.239H266.18C267.098 493.239 267.793 493.5 268.267 494.023C268.74 494.536 268.977 495.241 268.977 496.139C268.977 497.037 268.74 497.747 268.267 498.27C267.793 498.783 267.098 499.039 266.18 499.039H263.369V503.567H262.481ZM263.369 498.27H266.165C266.787 498.27 267.255 498.102 267.571 497.767C267.887 497.431 268.045 497.007 268.045 496.494V495.784C268.045 495.271 267.887 494.847 267.571 494.511C267.255 494.176 266.787 494.008 266.165 494.008H263.369V498.27ZM270.761 503.567V493.239H276.991V494.008H271.649V497.944H276.799V498.714H271.649V502.798H276.991V503.567H270.761ZM284.976 503.567L283.999 500.416H280.093L279.101 503.567H278.184L281.469 493.239H282.638L285.908 503.567H284.976ZM282.09 494.186H281.987L280.3 499.646H283.777L282.09 494.186ZM289.838 498.24L288.166 500.164V503.567H287.278V493.239H288.166V498.995H288.196L289.824 497.071L293.123 493.239H294.189L290.445 497.589L294.263 503.567H293.227L289.838 498.24ZM303.81 493.239H307.228C308.067 493.239 308.723 493.471 309.197 493.934C309.67 494.398 309.907 495.049 309.907 495.888C309.907 496.529 309.769 497.037 309.492 497.412C309.216 497.777 308.841 498.033 308.368 498.181V498.211C308.97 498.339 309.443 498.61 309.788 499.025C310.144 499.429 310.321 499.986 310.321 500.697C310.321 501.111 310.257 501.496 310.129 501.851C310.001 502.196 309.818 502.497 309.581 502.754C309.345 503.01 309.058 503.212 308.723 503.36C308.397 503.498 308.032 503.567 307.628 503.567H303.81V493.239ZM307.406 502.798C308.057 502.798 308.55 502.635 308.886 502.31C309.221 501.984 309.389 501.555 309.389 501.022V500.416C309.389 499.883 309.221 499.454 308.886 499.128C308.55 498.803 308.057 498.64 307.406 498.64H304.698V502.798H307.406ZM307.155 497.9C307.746 497.9 308.195 497.752 308.501 497.456C308.817 497.16 308.975 496.761 308.975 496.258V495.666C308.975 495.163 308.817 494.763 308.501 494.467C308.195 494.161 307.746 494.008 307.155 494.008H304.698V497.9H307.155ZM312.165 503.567V493.239H318.395V494.008H313.053V497.944H318.202V498.714H313.053V502.798H318.395V503.567H312.165ZM320.446 503.567V493.239H326.779V494.008H321.334V497.944H326.35V498.714H321.334V503.567H320.446ZM331.73 503.745C330.537 503.745 329.649 503.301 329.067 502.413C328.495 501.515 328.209 500.179 328.209 498.403C328.209 496.627 328.495 495.296 329.067 494.408C329.649 493.51 330.537 493.061 331.73 493.061C332.924 493.061 333.807 493.51 334.379 494.408C334.961 495.296 335.252 496.627 335.252 498.403C335.252 500.179 334.961 501.515 334.379 502.413C333.807 503.301 332.924 503.745 331.73 503.745ZM331.73 502.975C332.618 502.975 333.269 502.64 333.684 501.969C334.098 501.289 334.305 500.332 334.305 499.099V497.708C334.305 496.484 334.098 495.532 333.684 494.852C333.269 494.171 332.618 493.831 331.73 493.831C330.842 493.831 330.191 494.171 329.777 494.852C329.363 495.532 329.156 496.484 329.156 497.708V499.099C329.156 500.332 329.363 501.289 329.777 501.969C330.191 502.64 330.842 502.975 331.73 502.975ZM337.895 503.567H337.007V493.239H340.706C341.624 493.239 342.319 493.5 342.793 494.023C343.266 494.536 343.503 495.241 343.503 496.139C343.503 496.978 343.286 497.648 342.852 498.152C342.428 498.655 341.797 498.931 340.958 498.98H340.736L343.533 503.567H342.541L339.819 499.025H337.895V503.567ZM340.692 498.27C341.313 498.27 341.782 498.102 342.097 497.767C342.413 497.431 342.571 497.007 342.571 496.494V495.784C342.571 495.271 342.413 494.847 342.097 494.511C341.782 494.176 341.313 494.008 340.692 494.008H337.895V498.27H340.692ZM345.288 503.567V493.239H351.517V494.008H346.176V497.944H351.325V498.714H346.176V502.798H351.517V503.567H345.288Z" fill="#FFFAEE"/>
<path d="M734.988 503.745C732.522 503.745 731.289 501.964 731.289 498.403C731.289 494.842 732.522 493.061 734.988 493.061C735.412 493.061 735.787 493.12 736.113 493.239C736.438 493.357 736.724 493.515 736.971 493.712C737.218 493.91 737.425 494.142 737.592 494.408C737.77 494.674 737.918 494.955 738.036 495.251L737.282 495.592C737.183 495.345 737.065 495.113 736.927 494.896C736.798 494.679 736.641 494.492 736.453 494.334C736.276 494.176 736.063 494.053 735.817 493.964C735.58 493.875 735.304 493.831 734.988 493.831C734.061 493.831 733.37 494.171 732.917 494.852C732.463 495.523 732.236 496.475 732.236 497.708V499.099C732.236 500.332 732.463 501.289 732.917 501.969C733.37 502.64 734.061 502.975 734.988 502.975C735.304 502.975 735.58 502.931 735.817 502.842C736.063 502.754 736.276 502.63 736.453 502.472C736.641 502.315 736.798 502.132 736.927 501.925C737.065 501.708 737.183 501.471 737.282 501.215L738.036 501.555C737.918 501.851 737.77 502.132 737.592 502.398C737.425 502.665 737.218 502.897 736.971 503.094C736.724 503.291 736.438 503.449 736.113 503.567C735.787 503.686 735.412 503.745 734.988 503.745ZM745.844 503.567L744.867 500.416H740.96L739.969 503.567H739.052L742.337 493.239H743.506L746.776 503.567H745.844ZM742.958 494.186H742.855L741.168 499.646H744.645L742.958 494.186ZM748.93 494.408H748.856V503.567H748.043V493.239H749.3L753.458 502.398H753.532V493.239H754.346V503.567H753.088L748.93 494.408ZM767.756 503.745C767.292 503.745 766.878 503.701 766.513 503.612C766.148 503.523 765.817 503.405 765.521 503.257C765.225 503.099 764.959 502.911 764.722 502.694C764.495 502.477 764.288 502.241 764.101 501.984L764.752 501.451C765.137 501.945 765.561 502.324 766.025 502.591C766.488 502.847 767.075 502.975 767.785 502.975C768.614 502.975 769.25 502.793 769.694 502.428C770.138 502.053 770.36 501.515 770.36 500.815C770.36 500.174 770.173 499.7 769.798 499.395C769.433 499.089 768.91 498.882 768.229 498.773L767.075 498.581C766.562 498.492 766.133 498.359 765.788 498.181C765.452 498.004 765.181 497.796 764.974 497.56C764.767 497.313 764.619 497.042 764.53 496.746C764.451 496.45 764.412 496.144 764.412 495.828C764.412 494.901 764.713 494.211 765.314 493.757C765.926 493.293 766.745 493.061 767.771 493.061C768.609 493.061 769.295 493.199 769.827 493.476C770.37 493.742 770.804 494.112 771.13 494.585L770.508 495.133C770.212 494.719 769.847 494.398 769.413 494.171C768.989 493.944 768.432 493.831 767.741 493.831C766.972 493.831 766.37 493.998 765.936 494.334C765.512 494.659 765.299 495.148 765.299 495.799C765.299 496.401 765.477 496.859 765.832 497.175C766.187 497.481 766.715 497.688 767.415 497.796L768.555 497.989C769.078 498.078 769.512 498.216 769.857 498.403C770.202 498.581 770.479 498.793 770.686 499.039C770.893 499.286 771.036 499.557 771.115 499.853C771.204 500.149 771.248 500.46 771.248 500.785C771.248 501.733 770.942 502.463 770.331 502.975C769.719 503.488 768.861 503.745 767.756 503.745ZM773.033 503.567V493.239H776.732C777.649 493.239 778.345 493.5 778.818 494.023C779.292 494.536 779.529 495.241 779.529 496.139C779.529 497.037 779.292 497.747 778.818 498.27C778.345 498.783 777.649 499.039 776.732 499.039H773.921V503.567H773.033ZM773.921 498.27H776.717C777.339 498.27 777.807 498.102 778.123 497.767C778.439 497.431 778.596 497.007 778.596 496.494V495.784C778.596 495.271 778.439 494.847 778.123 494.511C777.807 494.176 777.339 494.008 776.717 494.008H773.921V498.27ZM781.313 503.567V493.239H787.543V494.008H782.201V497.944H787.351V498.714H782.201V502.798H787.543V503.567H781.313ZM795.528 503.567L794.551 500.416H790.645L789.653 503.567H788.736L792.021 493.239H793.19L796.46 503.567H795.528ZM792.642 494.186H792.539L790.852 499.646H794.329L792.642 494.186ZM800.39 498.24L798.718 500.164V503.567H797.83V493.239H798.718V498.995H798.748L800.376 497.071L803.675 493.239H804.741L800.997 497.589L804.815 503.567H803.779L800.39 498.24ZM814.362 493.239H817.78C818.619 493.239 819.275 493.471 819.748 493.934C820.222 494.398 820.459 495.049 820.459 495.888C820.459 496.529 820.321 497.037 820.044 497.412C819.768 497.777 819.393 498.033 818.92 498.181V498.211C819.522 498.339 819.995 498.61 820.34 499.025C820.695 499.429 820.873 499.986 820.873 500.697C820.873 501.111 820.809 501.496 820.681 501.851C820.552 502.196 820.37 502.497 820.133 502.754C819.896 503.01 819.61 503.212 819.275 503.36C818.949 503.498 818.584 503.567 818.18 503.567H814.362V493.239ZM817.958 502.798C818.609 502.798 819.102 502.635 819.438 502.31C819.773 501.984 819.941 501.555 819.941 501.022V500.416C819.941 499.883 819.773 499.454 819.438 499.128C819.102 498.803 818.609 498.64 817.958 498.64H815.25V502.798H817.958ZM817.706 497.9C818.298 497.9 818.747 497.752 819.053 497.456C819.369 497.16 819.526 496.761 819.526 496.258V495.666C819.526 495.163 819.369 494.763 819.053 494.467C818.747 494.161 818.298 494.008 817.706 494.008H815.25V497.9H817.706ZM822.717 503.567V493.239H828.947V494.008H823.605V497.944H828.754V498.714H823.605V502.798H828.947V503.567H822.717ZM830.998 503.567V493.239H837.331V494.008H831.885V497.944H836.902V498.714H831.885V503.567H830.998ZM842.282 503.745C841.089 503.745 840.201 503.301 839.619 502.413C839.047 501.515 838.76 500.179 838.76 498.403C838.76 496.627 839.047 495.296 839.619 494.408C840.201 493.51 841.089 493.061 842.282 493.061C843.476 493.061 844.359 493.51 844.931 494.408C845.513 495.296 845.804 496.627 845.804 498.403C845.804 500.179 845.513 501.515 844.931 502.413C844.359 503.301 843.476 503.745 842.282 503.745ZM842.282 502.975C843.17 502.975 843.821 502.64 844.235 501.969C844.65 501.289 844.857 500.332 844.857 499.099V497.708C844.857 496.484 844.65 495.532 844.235 494.852C843.821 494.171 843.17 493.831 842.282 493.831C841.394 493.831 840.743 494.171 840.329 494.852C839.915 495.532 839.707 496.484 839.707 497.708V499.099C839.707 500.332 839.915 501.289 840.329 501.969C840.743 502.64 841.394 502.975 842.282 502.975ZM848.447 503.567H847.559V493.239H851.258C852.176 493.239 852.871 493.5 853.345 494.023C853.818 494.536 854.055 495.241 854.055 496.139C854.055 496.978 853.838 497.648 853.404 498.152C852.98 498.655 852.348 498.931 851.51 498.98H851.288L854.085 503.567H853.093L850.371 499.025H848.447V503.567ZM851.244 498.27C851.865 498.27 852.334 498.102 852.649 497.767C852.965 497.431 853.123 497.007 853.123 496.494V495.784C853.123 495.271 852.965 494.847 852.649 494.511C852.334 494.176 851.865 494.008 851.244 494.008H848.447V498.27H851.244ZM855.84 503.567V493.239H862.069V494.008H856.728V497.944H861.877V498.714H856.728V502.798H862.069V503.567H855.84Z" fill="#FFFAEE"/>
<path d="M307.39 519.657V529.216H306.502V519.657H302.965V518.887H310.926V519.657H307.39ZM317.491 524.362H312.963V529.216H312.075V518.887H312.963V523.593H317.491V518.887H318.378V529.216H317.491V524.362ZM320.503 529.216V518.887H326.733V519.657H321.391V523.593H326.541V524.362H321.391V528.446H326.733V529.216H320.503ZM340.069 529.393C339.605 529.393 339.191 529.349 338.826 529.26C338.461 529.171 338.13 529.053 337.834 528.905C337.538 528.747 337.272 528.56 337.035 528.343C336.808 528.126 336.601 527.889 336.414 527.633L337.065 527.1C337.45 527.593 337.874 527.973 338.337 528.239C338.801 528.496 339.388 528.624 340.098 528.624C340.927 528.624 341.563 528.441 342.007 528.076C342.451 527.702 342.673 527.164 342.673 526.464C342.673 525.822 342.486 525.349 342.111 525.043C341.746 524.737 341.223 524.53 340.542 524.421L339.388 524.229C338.875 524.14 338.446 524.007 338.101 523.83C337.765 523.652 337.494 523.445 337.287 523.208C337.08 522.961 336.932 522.69 336.843 522.394C336.764 522.098 336.725 521.793 336.725 521.477C336.725 520.55 337.025 519.859 337.627 519.405C338.239 518.942 339.058 518.71 340.084 518.71C340.922 518.71 341.608 518.848 342.14 519.124C342.683 519.39 343.117 519.76 343.443 520.234L342.821 520.781C342.525 520.367 342.16 520.046 341.726 519.82C341.302 519.593 340.745 519.479 340.054 519.479C339.285 519.479 338.683 519.647 338.249 519.982C337.825 520.308 337.612 520.796 337.612 521.447C337.612 522.049 337.79 522.508 338.145 522.823C338.5 523.129 339.028 523.336 339.728 523.445L340.868 523.637C341.391 523.726 341.825 523.864 342.17 524.052C342.515 524.229 342.791 524.441 342.999 524.688C343.206 524.934 343.349 525.206 343.428 525.502C343.517 525.798 343.561 526.108 343.561 526.434C343.561 527.381 343.255 528.111 342.643 528.624C342.032 529.137 341.174 529.393 340.069 529.393ZM345.346 529.216V518.887H351.575V519.657H346.233V523.593H351.383V524.362H346.233V528.446H351.575V529.216H345.346ZM354.366 520.056H354.292V529.216H353.478V518.887H354.736L358.894 528.047H358.968V518.887H359.782V529.216H358.524L354.366 520.056ZM365.355 519.657V529.216H364.467V519.657H360.93V518.887H368.891V519.657H365.355ZM370.188 529.216V518.887H376.417V519.657H371.076V523.593H376.225V524.362H371.076V528.446H376.417V529.216H370.188ZM379.208 520.056H379.134V529.216H378.32V518.887H379.578L383.736 528.047H383.81V518.887H384.624V529.216H383.366L379.208 520.056ZM390.108 529.393C387.642 529.393 386.409 527.613 386.409 524.052C386.409 520.49 387.642 518.71 390.108 518.71C390.532 518.71 390.907 518.769 391.233 518.887C391.558 519.006 391.844 519.164 392.091 519.361C392.338 519.558 392.545 519.79 392.712 520.056C392.89 520.323 393.038 520.604 393.156 520.9L392.402 521.24C392.303 520.993 392.185 520.762 392.047 520.545C391.918 520.328 391.761 520.14 391.573 519.982C391.396 519.824 391.183 519.701 390.937 519.612C390.7 519.524 390.424 519.479 390.108 519.479C389.181 519.479 388.49 519.82 388.037 520.5C387.583 521.171 387.356 522.123 387.356 523.356V524.747C387.356 525.98 387.583 526.937 388.037 527.618C388.49 528.289 389.181 528.624 390.108 528.624C390.424 528.624 390.7 528.58 390.937 528.491C391.183 528.402 391.396 528.279 391.573 528.121C391.761 527.963 391.918 527.78 392.047 527.573C392.185 527.356 392.303 527.12 392.402 526.863L393.156 527.203C393.038 527.499 392.89 527.78 392.712 528.047C392.545 528.313 392.338 528.545 392.091 528.742C391.844 528.94 391.558 529.097 391.233 529.216C390.907 529.334 390.532 529.393 390.108 529.393ZM395.03 529.216V518.887H401.26V519.657H395.918V523.593H401.067V524.362H395.918V528.446H401.26V529.216H395.03Z" fill="#FFFAEE"/>
<path d="M677.443 519.657V529.216H676.555V519.657H673.019V518.887H680.98V519.657H677.443ZM687.544 524.362H683.016V529.216H682.128V518.887H683.016V523.593H687.544V518.887H688.432V529.216H687.544V524.362ZM690.557 529.216V518.887H696.786V519.657H691.445V523.593H696.594V524.362H691.445V528.446H696.786V529.216H690.557ZM710.122 529.393C709.658 529.393 709.244 529.349 708.879 529.26C708.514 529.171 708.183 529.053 707.888 528.905C707.592 528.747 707.325 528.56 707.088 528.343C706.862 528.126 706.654 527.889 706.467 527.633L707.118 527.1C707.503 527.593 707.927 527.973 708.391 528.239C708.854 528.496 709.441 528.624 710.152 528.624C710.98 528.624 711.616 528.441 712.06 528.076C712.504 527.702 712.726 527.164 712.726 526.464C712.726 525.822 712.539 525.349 712.164 525.043C711.799 524.737 711.276 524.53 710.595 524.421L709.441 524.229C708.928 524.14 708.499 524.007 708.154 523.83C707.818 523.652 707.547 523.445 707.34 523.208C707.133 522.961 706.985 522.69 706.896 522.394C706.817 522.098 706.778 521.793 706.778 521.477C706.778 520.55 707.079 519.859 707.68 519.405C708.292 518.942 709.111 518.71 710.137 518.71C710.975 518.71 711.661 518.848 712.194 519.124C712.736 519.39 713.17 519.76 713.496 520.234L712.874 520.781C712.578 520.367 712.213 520.046 711.779 519.82C711.355 519.593 710.798 519.479 710.107 519.479C709.338 519.479 708.736 519.647 708.302 519.982C707.878 520.308 707.666 520.796 707.666 521.447C707.666 522.049 707.843 522.508 708.198 522.823C708.553 523.129 709.081 523.336 709.782 523.445L710.921 523.637C711.444 523.726 711.878 523.864 712.223 524.052C712.568 524.229 712.845 524.441 713.052 524.688C713.259 524.934 713.402 525.206 713.481 525.502C713.57 525.798 713.614 526.108 713.614 526.434C713.614 527.381 713.308 528.111 712.697 528.624C712.085 529.137 711.227 529.393 710.122 529.393ZM715.399 529.216V518.887H721.628V519.657H716.287V523.593H721.436V524.362H716.287V528.446H721.628V529.216H715.399ZM724.419 520.056H724.345V529.216H723.532V518.887H724.789L728.947 528.047H729.021V518.887H729.835V529.216H728.577L724.419 520.056ZM735.408 519.657V529.216H734.52V519.657H730.984V518.887H738.945V519.657H735.408ZM740.241 529.216V518.887H746.471V519.657H741.129V523.593H746.278V524.362H741.129V528.446H746.471V529.216H740.241ZM749.261 520.056H749.187V529.216H748.374V518.887H749.631L753.789 528.047H753.863V518.887H754.677V529.216H753.42L749.261 520.056ZM760.161 529.393C757.695 529.393 756.462 527.613 756.462 524.052C756.462 520.49 757.695 518.71 760.161 518.71C760.585 518.71 760.96 518.769 761.286 518.887C761.611 519.006 761.898 519.164 762.144 519.361C762.391 519.558 762.598 519.79 762.766 520.056C762.943 520.323 763.091 520.604 763.21 520.9L762.455 521.24C762.356 520.993 762.238 520.762 762.1 520.545C761.972 520.328 761.814 520.14 761.626 519.982C761.449 519.824 761.237 519.701 760.99 519.612C760.753 519.524 760.477 519.479 760.161 519.479C759.234 519.479 758.543 519.82 758.09 520.5C757.636 521.171 757.409 522.123 757.409 523.356V524.747C757.409 525.98 757.636 526.937 758.09 527.618C758.543 528.289 759.234 528.624 760.161 528.624C760.477 528.624 760.753 528.58 760.99 528.491C761.237 528.402 761.449 528.279 761.626 528.121C761.814 527.963 761.972 527.78 762.1 527.573C762.238 527.356 762.356 527.12 762.455 526.863L763.21 527.203C763.091 527.499 762.943 527.78 762.766 528.047C762.598 528.313 762.391 528.545 762.144 528.742C761.898 528.94 761.611 529.097 761.286 529.216C760.96 529.334 760.585 529.393 760.161 529.393ZM765.083 529.216V518.887H771.313V519.657H765.971V523.593H771.12V524.362H765.971V528.446H771.313V529.216H765.083Z" fill="#FFFAEE"/>
<path d="M343.801 555.043C341.335 555.043 340.102 553.262 340.102 549.701C340.102 546.14 341.335 544.359 343.801 544.359C344.225 544.359 344.6 544.418 344.926 544.537C345.251 544.655 345.537 544.813 345.784 545.01C346.031 545.208 346.238 545.439 346.405 545.706C346.583 545.972 346.731 546.253 346.849 546.549L346.095 546.889C345.996 546.643 345.878 546.411 345.74 546.194C345.611 545.977 345.453 545.79 345.266 545.632C345.088 545.474 344.876 545.351 344.63 545.262C344.393 545.173 344.117 545.129 343.801 545.129C342.874 545.129 342.183 545.469 341.729 546.15C341.276 546.82 341.049 547.772 341.049 549.006V550.396C341.049 551.63 341.276 552.586 341.729 553.267C342.183 553.938 342.874 554.273 343.801 554.273C344.117 554.273 344.393 554.229 344.63 554.14C344.876 554.051 345.088 553.928 345.266 553.77C345.453 553.612 345.611 553.43 345.74 553.223C345.878 553.006 345.996 552.769 346.095 552.512L346.849 552.853C346.731 553.149 346.583 553.43 346.405 553.696C346.238 553.963 346.031 554.194 345.784 554.392C345.537 554.589 345.251 554.747 344.926 554.865C344.6 554.984 344.225 555.043 343.801 555.043ZM354.657 554.865L353.68 551.713H349.773L348.782 554.865H347.865L351.15 544.537H352.319L355.589 554.865H354.657ZM351.771 545.484H351.667L349.981 550.944H353.458L351.771 545.484ZM357.743 545.706H357.669V554.865H356.856V544.537H358.113L362.271 553.696H362.345V544.537H363.159V554.865H361.901L357.743 545.706ZM373.491 544.537H376.909C377.748 544.537 378.404 544.769 378.877 545.232C379.351 545.696 379.587 546.347 379.587 547.185C379.587 547.827 379.449 548.335 379.173 548.71C378.897 549.075 378.522 549.331 378.048 549.479V549.509C378.65 549.637 379.124 549.908 379.469 550.322C379.824 550.727 380.002 551.284 380.002 551.995C380.002 552.409 379.938 552.794 379.809 553.149C379.681 553.494 379.499 553.795 379.262 554.051C379.025 554.308 378.739 554.51 378.404 554.658C378.078 554.796 377.713 554.865 377.309 554.865H373.491V544.537ZM377.087 554.096C377.738 554.096 378.231 553.933 378.566 553.607C378.902 553.282 379.07 552.853 379.07 552.32V551.713C379.07 551.181 378.902 550.752 378.566 550.426C378.231 550.101 377.738 549.938 377.087 549.938H374.379V554.096H377.087ZM376.835 549.198C377.427 549.198 377.876 549.05 378.182 548.754C378.497 548.458 378.655 548.058 378.655 547.555V546.963C378.655 546.46 378.497 546.061 378.182 545.765C377.876 545.459 377.427 545.306 376.835 545.306H374.379V549.198H376.835ZM381.846 554.865V544.537H388.075V545.306H382.733V549.242H387.883V550.012H382.733V554.096H388.075V554.865H381.846ZM403.675 550.012H399.147V554.865H398.259V544.537H399.147V549.242H403.675V544.537H404.563V554.865H403.675V550.012ZM406.688 554.865V544.537H412.917V545.306H407.576V549.242H412.725V550.012H407.576V554.096H412.917V554.865H406.688ZM420.902 554.865L419.926 551.713H416.019L415.028 554.865H414.11L417.395 544.537H418.564L421.834 554.865H420.902ZM418.017 545.484H417.913L416.226 550.944H419.704L418.017 545.484ZM424.137 554.865H423.249V544.537H426.948C427.866 544.537 428.561 544.798 429.035 545.321C429.508 545.834 429.745 546.539 429.745 547.437C429.745 548.276 429.528 548.946 429.094 549.449C428.67 549.953 428.039 550.229 427.2 550.278H426.978L429.775 554.865H428.783L426.061 550.322H424.137V554.865ZM426.934 549.568C427.555 549.568 428.024 549.4 428.339 549.065C428.655 548.729 428.813 548.305 428.813 547.792V547.082C428.813 546.569 428.655 546.145 428.339 545.809C428.024 545.474 427.555 545.306 426.934 545.306H424.137V549.568H426.934ZM431.574 544.537H434.386C435.639 544.537 436.561 544.976 437.153 545.854C437.755 546.722 438.055 548.004 438.055 549.701C438.055 551.408 437.755 552.695 437.153 553.563C436.561 554.431 435.639 554.865 434.386 554.865H431.574V544.537ZM434.356 554.096C435.293 554.096 435.984 553.77 436.428 553.119C436.882 552.458 437.108 551.541 437.108 550.367V549.035C437.108 547.861 436.882 546.949 436.428 546.298C435.984 545.637 435.293 545.306 434.356 545.306H432.462V554.096H434.356Z" fill="#FFFAEE"/>
<path d="M642.827 555.043C640.361 555.043 639.128 553.262 639.128 549.701C639.128 546.14 640.361 544.359 642.827 544.359C643.251 544.359 643.626 544.418 643.952 544.537C644.277 544.655 644.563 544.813 644.81 545.01C645.057 545.208 645.264 545.439 645.431 545.706C645.609 545.972 645.757 546.253 645.875 546.549L645.121 546.889C645.022 546.643 644.904 546.411 644.766 546.194C644.637 545.977 644.48 545.79 644.292 545.632C644.115 545.474 643.902 545.351 643.656 545.262C643.419 545.173 643.143 545.129 642.827 545.129C641.9 545.129 641.209 545.469 640.756 546.15C640.302 546.82 640.075 547.772 640.075 549.006V550.396C640.075 551.63 640.302 552.586 640.756 553.267C641.209 553.938 641.9 554.273 642.827 554.273C643.143 554.273 643.419 554.229 643.656 554.14C643.902 554.051 644.115 553.928 644.292 553.77C644.48 553.612 644.637 553.43 644.766 553.223C644.904 553.006 645.022 552.769 645.121 552.512L645.875 552.853C645.757 553.149 645.609 553.43 645.431 553.696C645.264 553.963 645.057 554.194 644.81 554.392C644.563 554.589 644.277 554.747 643.952 554.865C643.626 554.984 643.251 555.043 642.827 555.043ZM653.683 554.865L652.706 551.713H648.799L647.808 554.865H646.891L650.176 544.537H651.345L654.615 554.865H653.683ZM650.797 545.484H650.694L649.007 550.944H652.484L650.797 545.484ZM656.769 545.706H656.695V554.865H655.882V544.537H657.139L661.297 553.696H661.371V544.537H662.185V554.865H660.928L656.769 545.706ZM672.517 544.537H675.935C676.774 544.537 677.43 544.769 677.903 545.232C678.377 545.696 678.614 546.347 678.614 547.185C678.614 547.827 678.475 548.335 678.199 548.71C677.923 549.075 677.548 549.331 677.075 549.479V549.509C677.676 549.637 678.15 549.908 678.495 550.322C678.85 550.727 679.028 551.284 679.028 551.995C679.028 552.409 678.964 552.794 678.835 553.149C678.707 553.494 678.525 553.795 678.288 554.051C678.051 554.308 677.765 554.51 677.43 554.658C677.104 554.796 676.739 554.865 676.335 554.865H672.517V544.537ZM676.113 554.096C676.764 554.096 677.257 553.933 677.592 553.607C677.928 553.282 678.096 552.853 678.096 552.32V551.713C678.096 551.181 677.928 550.752 677.592 550.426C677.257 550.101 676.764 549.938 676.113 549.938H673.405V554.096H676.113ZM675.861 549.198C676.453 549.198 676.902 549.05 677.208 548.754C677.523 548.458 677.681 548.058 677.681 547.555V546.963C677.681 546.46 677.523 546.061 677.208 545.765C676.902 545.459 676.453 545.306 675.861 545.306H673.405V549.198H675.861ZM680.872 554.865V544.537H687.101V545.306H681.76V549.242H686.909V550.012H681.76V554.096H687.101V554.865H680.872ZM702.701 550.012H698.173V554.865H697.285V544.537H698.173V549.242H702.701V544.537H703.589V554.865H702.701V550.012ZM705.714 554.865V544.537H711.943V545.306H706.602V549.242H711.751V550.012H706.602V554.096H711.943V554.865H705.714ZM719.928 554.865L718.952 551.713H715.045L714.054 554.865H713.136L716.421 544.537H717.59L720.86 554.865H719.928ZM717.043 545.484H716.939L715.252 550.944H718.73L717.043 545.484ZM723.163 554.865H722.275V544.537H725.975C726.892 544.537 727.587 544.798 728.061 545.321C728.535 545.834 728.771 546.539 728.771 547.437C728.771 548.276 728.554 548.946 728.12 549.449C727.696 549.953 727.065 550.229 726.226 550.278H726.004L728.801 554.865H727.809L725.087 550.322H723.163V554.865ZM725.96 549.568C726.581 549.568 727.05 549.4 727.366 549.065C727.681 548.729 727.839 548.305 727.839 547.792V547.082C727.839 546.569 727.681 546.145 727.366 545.809C727.05 545.474 726.581 545.306 725.96 545.306H723.163V549.568H725.96ZM730.6 544.537H733.412C734.665 544.537 735.587 544.976 736.179 545.854C736.781 546.722 737.082 548.004 737.082 549.701C737.082 551.408 736.781 552.695 736.179 553.563C735.587 554.431 734.665 554.865 733.412 554.865H730.6V544.537ZM733.382 554.096C734.319 554.096 735.01 553.77 735.454 553.119C735.908 552.458 736.135 551.541 736.135 550.367V549.035C736.135 547.861 735.908 546.949 735.454 546.298C735.01 545.637 734.319 545.306 733.382 545.306H731.488V554.096H733.382Z" fill="#FFFAEE"/>
<path d="M517.332 480C517.03 480 516.879 479.889 516.879 479.667C516.879 479.486 517.01 479.365 517.272 479.305L517.967 479.184C518.653 479.063 518.995 478.67 518.995 478.004V460.224C518.995 459.801 518.925 459.519 518.784 459.377C518.663 459.236 518.391 459.125 517.967 459.045L517.272 458.924C517.01 458.863 516.879 458.742 516.879 458.561C516.879 458.339 517.03 458.228 517.332 458.228H523.44C525.013 458.228 526.373 458.692 527.523 459.619C528.672 460.526 529.559 461.807 530.184 463.46C530.808 465.113 531.121 467.028 531.121 469.205C531.121 471.402 530.788 473.307 530.123 474.92C529.478 476.533 528.561 477.783 527.371 478.67C526.182 479.557 524.771 480 523.138 480H517.332ZM523.259 479.214C525.053 479.214 526.414 478.357 527.341 476.644C528.289 474.93 528.762 472.45 528.762 469.205C528.762 465.979 528.309 463.48 527.402 461.706C526.515 459.912 525.194 459.015 523.44 459.015C521.908 459.015 521.142 459.75 521.142 461.222V477.006C521.142 477.813 521.303 478.387 521.626 478.73C521.969 479.053 522.513 479.214 523.259 479.214ZM536.935 480.272C535.967 480.272 535.1 479.95 534.334 479.305C533.568 478.659 532.954 477.752 532.49 476.583C532.046 475.394 531.825 474.023 531.825 472.471C531.825 470.878 532.056 469.477 532.52 468.267C532.984 467.058 533.619 466.11 534.425 465.425C535.232 464.74 536.129 464.397 537.116 464.397C538.306 464.397 539.263 464.891 539.989 465.879C540.735 466.846 541.108 468.429 541.108 470.626C541.108 471.291 540.856 471.624 540.352 471.624H534.607C534.203 471.624 534.002 471.856 534.002 472.319C534.002 474.456 534.314 476.059 534.939 477.127C535.564 478.196 536.36 478.73 537.328 478.73C538.094 478.73 538.719 478.458 539.203 477.914C539.687 477.369 540.08 476.452 540.382 475.162C540.443 474.94 540.574 474.829 540.775 474.829C541.017 474.829 541.108 475.031 541.047 475.434C540.725 477.228 540.211 478.488 539.505 479.214C538.8 479.919 537.943 480.272 536.935 480.272ZM534.516 470.868H537.57C538.538 470.868 539.021 470.364 539.021 469.356C539.021 468.046 538.86 467.018 538.538 466.272C538.215 465.526 537.731 465.153 537.086 465.153C536.3 465.153 535.635 465.607 535.09 466.514C534.566 467.421 534.224 468.711 534.062 470.384C534.022 470.707 534.173 470.868 534.516 470.868ZM544.63 480.272C544.166 480.272 543.672 480.212 543.148 480.091C542.624 479.99 542.201 479.859 541.878 479.698C541.697 479.597 541.606 479.425 541.606 479.184L541.515 475.797C541.515 475.454 541.646 475.283 541.908 475.283C542.13 475.283 542.281 475.444 542.362 475.767C542.704 477.198 543.118 478.176 543.602 478.7C544.106 479.224 544.71 479.486 545.416 479.486C546 479.486 546.484 479.264 546.867 478.821C547.25 478.357 547.442 477.722 547.442 476.916C547.442 476.109 547.22 475.394 546.777 474.769C546.333 474.144 545.587 473.458 544.539 472.713C543.491 472.007 542.725 471.301 542.241 470.596C541.757 469.87 541.515 469.084 541.515 468.237C541.515 467.088 541.918 466.161 542.725 465.455C543.531 464.75 544.599 464.397 545.93 464.397C546.333 464.397 546.726 464.447 547.109 464.548C547.492 464.629 547.835 464.77 548.137 464.972C548.319 465.092 548.409 465.254 548.409 465.455L548.47 468.782C548.47 469.084 548.349 469.235 548.107 469.235C547.966 469.235 547.865 469.195 547.805 469.114C547.744 469.013 547.694 468.892 547.654 468.751C547.25 467.441 546.847 466.534 546.444 466.03C546.041 465.506 545.547 465.244 544.962 465.244C544.438 465.244 544.005 465.425 543.662 465.788C543.319 466.151 543.148 466.604 543.148 467.149C543.148 467.854 543.36 468.469 543.783 468.993C544.206 469.517 544.972 470.162 546.081 470.928C547.089 471.654 547.845 472.44 548.349 473.287C548.873 474.114 549.135 475.021 549.135 476.009C549.135 477.299 548.722 478.337 547.895 479.123C547.069 479.889 545.98 480.272 544.63 480.272ZM552.208 461.706C551.785 461.706 551.422 461.555 551.119 461.252C550.837 460.95 550.696 460.567 550.696 460.103C550.696 459.639 550.837 459.267 551.119 458.984C551.422 458.682 551.785 458.531 552.208 458.531C552.631 458.531 552.984 458.682 553.266 458.984C553.549 459.267 553.69 459.639 553.69 460.103C553.69 460.567 553.549 460.95 553.266 461.252C552.984 461.555 552.631 461.706 552.208 461.706ZM549.668 480C549.366 480 549.214 479.889 549.214 479.667C549.214 479.486 549.345 479.365 549.607 479.305L549.97 479.244C550.474 479.163 550.797 479.042 550.938 478.881C551.079 478.7 551.15 478.397 551.15 477.974V467.814C551.15 467.451 551.089 467.209 550.968 467.088C550.867 466.947 550.676 466.856 550.394 466.816L549.759 466.725C549.497 466.705 549.366 466.594 549.366 466.393C549.366 466.231 549.527 466.121 549.849 466.06C550.474 465.959 550.978 465.798 551.361 465.576C551.744 465.355 552.117 465.082 552.48 464.76C552.662 464.578 552.813 464.488 552.934 464.488C553.115 464.488 553.206 464.609 553.206 464.851V477.974C553.206 478.397 553.266 478.7 553.387 478.881C553.508 479.063 553.74 479.173 554.083 479.214L554.839 479.305C555.06 479.345 555.171 479.456 555.171 479.637C555.171 479.879 555.02 480 554.718 480H549.668ZM559.666 486.501C558.134 486.501 556.925 486.189 556.038 485.564C555.151 484.959 554.707 484.223 554.707 483.356C554.707 482.994 554.758 482.661 554.859 482.359C554.959 482.076 555.171 481.744 555.494 481.361C555.836 480.978 556.35 480.484 557.036 479.879C557.278 479.657 557.399 479.456 557.399 479.274C557.399 479.073 557.278 478.921 557.036 478.821C556.31 478.518 555.877 478.135 555.735 477.672C555.594 477.188 555.766 476.744 556.249 476.341L558.427 474.466C558.669 474.265 558.658 474.093 558.396 473.952C557.57 473.549 556.915 472.924 556.431 472.078C555.947 471.231 555.705 470.324 555.705 469.356C555.705 468.429 555.907 467.592 556.31 466.846C556.713 466.1 557.257 465.506 557.943 465.062C558.628 464.619 559.394 464.397 560.241 464.397C560.725 464.397 561.188 464.478 561.632 464.639C561.914 464.74 562.085 464.649 562.146 464.367C562.327 463.601 562.66 463.006 563.144 462.583C563.648 462.139 564.142 461.917 564.626 461.917C565.089 461.917 565.462 462.059 565.744 462.341C566.047 462.603 566.198 462.935 566.198 463.339C566.198 463.681 566.097 463.953 565.896 464.155C565.694 464.357 565.442 464.457 565.14 464.457C564.878 464.457 564.686 464.407 564.565 464.306C564.444 464.205 564.333 464.105 564.232 464.004C564.132 463.903 563.97 463.853 563.749 463.853C563.265 463.853 562.962 464.115 562.841 464.639C562.781 464.84 562.781 465.012 562.841 465.153C562.922 465.294 563.033 465.435 563.174 465.576C563.658 466.04 564.031 466.604 564.293 467.27C564.575 467.935 564.716 468.671 564.716 469.477C564.716 470.445 564.515 471.311 564.111 472.078C563.728 472.844 563.194 473.448 562.509 473.892C561.844 474.335 561.088 474.557 560.241 474.557C559.878 474.557 559.566 474.638 559.304 474.799C559.041 474.94 558.779 475.152 558.517 475.434L558.003 476.009C557.741 476.331 557.661 476.644 557.761 476.946C557.882 477.228 558.165 477.369 558.608 477.369H561.209C562.66 477.369 563.809 477.732 564.656 478.458C565.502 479.163 565.926 480.141 565.926 481.391C565.926 482.379 565.644 483.256 565.079 484.022C564.515 484.788 563.759 485.393 562.811 485.836C561.884 486.28 560.836 486.501 559.666 486.501ZM560.211 473.801C560.936 473.801 561.511 473.408 561.934 472.622C562.358 471.836 562.569 470.767 562.569 469.417C562.569 468.106 562.348 467.058 561.904 466.272C561.481 465.465 560.916 465.062 560.211 465.062C559.505 465.062 558.931 465.465 558.487 466.272C558.064 467.058 557.852 468.106 557.852 469.417C557.852 470.767 558.064 471.836 558.487 472.622C558.91 473.408 559.485 473.801 560.211 473.801ZM560.029 485.836C560.755 485.836 561.42 485.675 562.025 485.352C562.63 485.03 563.104 484.576 563.446 483.991C563.809 483.427 563.991 482.782 563.991 482.056C563.991 481.149 563.718 480.454 563.174 479.97C562.65 479.466 561.904 479.214 560.936 479.214H560.241C559.616 479.214 559.142 479.274 558.82 479.395C558.517 479.516 558.225 479.728 557.943 480.03C557.318 480.695 556.925 481.23 556.764 481.633C556.602 482.036 556.522 482.449 556.522 482.873C556.522 483.76 556.824 484.475 557.429 485.02C558.054 485.564 558.921 485.836 560.029 485.836ZM566.148 480C565.845 480 565.694 479.889 565.694 479.667C565.694 479.486 565.825 479.365 566.087 479.305L566.45 479.244C566.874 479.163 567.146 479.042 567.267 478.881C567.408 478.7 567.478 478.397 567.478 477.974V467.814C567.478 467.451 567.418 467.209 567.297 467.088C567.196 466.947 567.005 466.856 566.722 466.816L566.087 466.725C565.825 466.705 565.694 466.594 565.694 466.393C565.694 466.231 565.856 466.121 566.178 466.06C566.803 465.959 567.277 465.798 567.599 465.576C567.942 465.355 568.295 465.082 568.658 464.76C568.839 464.578 568.99 464.488 569.111 464.488C569.293 464.488 569.383 464.609 569.383 464.851V466.211C569.383 466.393 569.444 466.514 569.565 466.574C569.706 466.614 569.857 466.554 570.018 466.393C570.825 465.627 571.53 465.103 572.135 464.82C572.76 464.538 573.415 464.397 574.101 464.397C575.008 464.397 575.733 464.72 576.278 465.365C576.822 465.99 577.094 466.917 577.094 468.147V477.974C577.094 478.397 577.155 478.7 577.276 478.881C577.417 479.042 577.699 479.153 578.122 479.214L578.787 479.305C579.009 479.345 579.12 479.466 579.12 479.667C579.12 479.889 578.999 480 578.757 480H573.677C573.395 480 573.254 479.889 573.254 479.667C573.254 479.466 573.365 479.345 573.586 479.305L574.01 479.244C574.433 479.184 574.705 479.063 574.826 478.881C574.967 478.7 575.038 478.397 575.038 477.974V468.479C575.038 467.491 574.856 466.796 574.494 466.393C574.131 465.99 573.617 465.788 572.951 465.788C572.306 465.788 571.722 465.979 571.198 466.362C570.694 466.725 570.29 467.219 569.988 467.844C569.686 468.449 569.535 469.124 569.535 469.87V477.974C569.535 478.397 569.595 478.7 569.716 478.881C569.857 479.063 570.139 479.173 570.563 479.214L571.379 479.305C571.601 479.345 571.712 479.456 571.712 479.637C571.712 479.879 571.561 480 571.258 480H566.148ZM517.332 505C517.03 505 516.879 504.889 516.879 504.667C516.879 504.486 517.01 504.365 517.272 504.305L517.967 504.184C518.653 504.063 518.995 503.67 518.995 503.004V485.224C518.995 484.801 518.925 484.519 518.784 484.377C518.663 484.236 518.391 484.125 517.967 484.045L517.272 483.924C517.01 483.863 516.879 483.742 516.879 483.561C516.879 483.339 517.03 483.228 517.332 483.228H523.44C525.013 483.228 526.373 483.692 527.523 484.619C528.672 485.526 529.559 486.807 530.184 488.46C530.808 490.113 531.121 492.028 531.121 494.205C531.121 496.402 530.788 498.307 530.123 499.92C529.478 501.533 528.561 502.783 527.371 503.67C526.182 504.557 524.771 505 523.138 505H517.332ZM523.259 504.214C525.053 504.214 526.414 503.357 527.341 501.644C528.289 499.93 528.762 497.45 528.762 494.205C528.762 490.979 528.309 488.48 527.402 486.706C526.515 484.912 525.194 484.015 523.44 484.015C521.908 484.015 521.142 484.75 521.142 486.222V502.006C521.142 502.813 521.303 503.387 521.626 503.73C521.969 504.053 522.513 504.214 523.259 504.214ZM536.935 505.272C535.967 505.272 535.1 504.95 534.334 504.305C533.568 503.659 532.954 502.752 532.49 501.583C532.046 500.394 531.825 499.023 531.825 497.471C531.825 495.878 532.056 494.477 532.52 493.267C532.984 492.058 533.619 491.11 534.425 490.425C535.232 489.74 536.129 489.397 537.116 489.397C538.306 489.397 539.263 489.891 539.989 490.879C540.735 491.846 541.108 493.429 541.108 495.626C541.108 496.291 540.856 496.624 540.352 496.624H534.607C534.203 496.624 534.002 496.856 534.002 497.319C534.002 499.456 534.314 501.059 534.939 502.127C535.564 503.196 536.36 503.73 537.328 503.73C538.094 503.73 538.719 503.458 539.203 502.914C539.687 502.369 540.08 501.452 540.382 500.162C540.443 499.94 540.574 499.829 540.775 499.829C541.017 499.829 541.108 500.031 541.047 500.434C540.725 502.228 540.211 503.488 539.505 504.214C538.8 504.919 537.943 505.272 536.935 505.272ZM534.516 495.868H537.57C538.538 495.868 539.021 495.364 539.021 494.356C539.021 493.046 538.86 492.018 538.538 491.272C538.215 490.526 537.731 490.153 537.086 490.153C536.3 490.153 535.635 490.607 535.09 491.514C534.566 492.421 534.224 493.711 534.062 495.384C534.022 495.707 534.173 495.868 534.516 495.868ZM541.485 511.199C541.182 511.199 541.031 511.088 541.031 510.866C541.031 510.645 541.162 510.524 541.424 510.503L541.848 510.443C542.271 510.382 542.543 510.261 542.664 510.08C542.805 509.899 542.876 509.596 542.876 509.173V492.814C542.876 492.451 542.815 492.209 542.694 492.088C542.594 491.947 542.402 491.856 542.12 491.816L541.485 491.725C541.223 491.705 541.092 491.594 541.092 491.393C541.092 491.231 541.253 491.121 541.576 491.06C542.201 490.959 542.674 490.798 542.997 490.576C543.339 490.355 543.692 490.082 544.055 489.76C544.237 489.578 544.388 489.488 544.509 489.488C544.69 489.488 544.781 489.609 544.781 489.851V490.788C544.781 490.929 544.841 491.03 544.962 491.09C545.083 491.131 545.224 491.07 545.386 490.909L545.718 490.576C546.121 490.173 546.535 489.881 546.958 489.699C547.381 489.498 547.865 489.397 548.409 489.397C549.337 489.397 550.153 489.709 550.859 490.334C551.584 490.939 552.149 491.786 552.552 492.874C552.975 493.963 553.187 495.243 553.187 496.715C553.187 498.388 552.925 499.87 552.401 501.16C551.877 502.45 551.151 503.458 550.224 504.184C549.317 504.909 548.268 505.272 547.079 505.272C546.474 505.272 545.94 505.161 545.476 504.94C545.113 504.778 544.932 504.889 544.932 505.272V509.173C544.932 509.596 544.993 509.878 545.113 510.02C545.255 510.181 545.537 510.292 545.96 510.352L547.079 510.503C547.301 510.544 547.412 510.655 547.412 510.836C547.412 511.078 547.26 511.199 546.958 511.199H541.485ZM547.17 504.516C548.299 504.516 549.206 503.851 549.891 502.52C550.597 501.19 550.949 499.396 550.949 497.138C550.949 495.062 550.647 493.479 550.042 492.391C549.438 491.302 548.581 490.758 547.472 490.758C546.787 490.758 546.192 491.04 545.688 491.604C545.184 492.169 544.932 492.955 544.932 493.963V501.583C544.932 502.49 545.134 503.206 545.537 503.73C545.96 504.254 546.504 504.516 547.17 504.516ZM556.524 505.272C555.677 505.272 554.981 505.01 554.437 504.486C553.893 503.942 553.621 503.226 553.621 502.339C553.621 501.472 553.893 500.656 554.437 499.89C554.981 499.104 555.727 498.398 556.675 497.773C557.622 497.148 558.701 496.644 559.91 496.261C560.172 496.18 560.303 496.009 560.303 495.747V492.995C560.303 492.028 560.152 491.342 559.85 490.939C559.547 490.516 559.134 490.304 558.61 490.304C558.106 490.304 557.642 490.536 557.219 491C556.816 491.443 556.524 492.199 556.342 493.267C556.241 493.913 556.02 494.386 555.677 494.689C555.354 494.971 555.022 495.112 554.679 495.112C554.115 495.112 553.832 494.83 553.832 494.265C553.832 493.681 553.994 493.106 554.316 492.542C554.659 491.957 555.102 491.433 555.647 490.969C556.191 490.486 556.786 490.103 557.431 489.82C558.076 489.538 558.721 489.397 559.366 489.397C561.362 489.397 562.36 490.556 562.36 492.874V502.127C562.36 502.974 562.571 503.397 562.995 503.397C563.257 503.397 563.499 503.226 563.72 502.883C563.942 502.52 564.053 501.916 564.053 501.069C564.053 500.746 564.184 500.585 564.446 500.585C564.688 500.585 564.809 500.757 564.809 501.099C564.809 502.571 564.547 503.639 564.023 504.305C563.519 504.95 562.944 505.272 562.299 505.272C561.815 505.272 561.432 505.081 561.15 504.698C560.868 504.294 560.676 503.821 560.575 503.276C560.555 503.075 560.465 502.974 560.303 502.974C560.162 502.954 560.021 503.045 559.88 503.246C559.396 503.911 558.902 504.415 558.398 504.758C557.894 505.101 557.269 505.272 556.524 505.272ZM557.34 503.881C557.864 503.881 558.348 503.7 558.791 503.337C559.235 502.954 559.598 502.45 559.88 501.825C560.162 501.2 560.303 500.494 560.303 499.708V497.501C560.303 497.118 560.092 497.007 559.668 497.168C558.439 497.612 557.481 498.227 556.796 499.013C556.13 499.779 555.798 500.706 555.798 501.795C555.798 503.186 556.312 503.881 557.34 503.881ZM568.42 491.514C569.246 490.103 570.244 489.397 571.413 489.397C572.079 489.397 572.572 489.599 572.895 490.002C573.218 490.385 573.379 490.818 573.379 491.302C573.379 491.685 573.278 491.997 573.076 492.239C572.895 492.481 572.603 492.602 572.2 492.602C571.877 492.602 571.635 492.532 571.474 492.391C571.333 492.229 571.212 492.048 571.111 491.846C571.03 491.645 570.93 491.473 570.809 491.332C570.688 491.171 570.486 491.09 570.204 491.09C569.841 491.09 569.498 491.312 569.176 491.756C568.853 492.179 568.581 492.753 568.359 493.479C568.158 494.205 568.057 495.031 568.057 495.959V502.974C568.057 503.397 568.117 503.7 568.238 503.881C568.379 504.063 568.662 504.173 569.085 504.214L569.901 504.305C570.123 504.345 570.234 504.456 570.234 504.637C570.234 504.879 570.083 505 569.78 505H564.67C564.368 505 564.217 504.889 564.217 504.667C564.217 504.486 564.348 504.365 564.61 504.305L564.973 504.244C565.396 504.163 565.668 504.042 565.789 503.881C565.93 503.7 566.001 503.397 566.001 502.974V492.814C566.001 492.451 565.94 492.209 565.819 492.088C565.718 491.947 565.527 491.856 565.245 491.816L564.61 491.725C564.348 491.705 564.217 491.594 564.217 491.393C564.217 491.231 564.378 491.121 564.7 491.06C565.325 490.959 565.799 490.798 566.122 490.576C566.464 490.355 566.817 490.082 567.18 489.76C567.361 489.578 567.513 489.488 567.634 489.488C567.815 489.488 567.906 489.609 567.906 489.851V491.483C567.906 491.625 567.966 491.715 568.087 491.756C568.208 491.776 568.319 491.695 568.42 491.514ZM576.625 505.272C575.92 505.272 575.335 505.03 574.871 504.546C574.428 504.042 574.206 503.226 574.206 502.097V490.788C574.206 490.546 574.085 490.425 573.843 490.425H572.966C572.644 490.425 572.483 490.304 572.483 490.062C572.483 489.901 572.573 489.76 572.755 489.639C573.42 489.175 573.954 488.681 574.357 488.157C574.761 487.613 575.113 486.877 575.416 485.95C575.557 485.526 575.728 485.315 575.93 485.315C576.151 485.315 576.262 485.476 576.262 485.799V489.155C576.262 489.437 576.403 489.578 576.686 489.578H578.651C578.974 489.578 579.135 489.72 579.135 490.002C579.135 490.284 578.974 490.425 578.651 490.425H576.686C576.403 490.425 576.262 490.566 576.262 490.848V502.127C576.262 502.571 576.333 502.924 576.474 503.186C576.615 503.428 576.877 503.549 577.26 503.549C577.684 503.549 578.026 503.337 578.288 502.914C578.571 502.49 578.752 501.805 578.833 500.857C578.873 500.575 579.004 500.434 579.226 500.434C579.468 500.434 579.589 500.585 579.589 500.888C579.528 502.44 579.206 503.559 578.621 504.244C578.056 504.929 577.391 505.272 576.625 505.272ZM579.703 505C579.401 505 579.25 504.889 579.25 504.667C579.25 504.486 579.381 504.365 579.643 504.305L580.006 504.244C580.429 504.163 580.701 504.042 580.822 503.881C580.963 503.7 581.034 503.397 581.034 502.974V492.814C581.034 492.451 580.973 492.209 580.852 492.088C580.751 491.947 580.56 491.856 580.278 491.816L579.643 491.725C579.381 491.705 579.25 491.594 579.25 491.393C579.25 491.231 579.411 491.121 579.733 491.06C580.358 490.959 580.832 490.798 581.155 490.576C581.497 490.355 581.85 490.082 582.213 489.76C582.394 489.578 582.546 489.488 582.667 489.488C582.848 489.488 582.939 489.609 582.939 489.851V491.211C582.939 491.352 582.999 491.463 583.12 491.544C583.241 491.604 583.372 491.564 583.513 491.423C584.34 490.637 585.055 490.103 585.66 489.82C586.285 489.538 586.91 489.397 587.535 489.397C588.12 489.397 588.634 489.558 589.077 489.881C589.541 490.183 589.883 490.647 590.105 491.272C590.166 491.433 590.266 491.534 590.408 491.574C590.569 491.594 590.72 491.534 590.861 491.393C591.688 490.627 592.403 490.103 593.008 489.82C593.613 489.538 594.228 489.397 594.853 489.397C595.699 489.397 596.385 489.72 596.909 490.365C597.453 490.99 597.725 491.917 597.725 493.147V502.974C597.725 503.397 597.786 503.7 597.907 503.881C598.048 504.042 598.33 504.153 598.753 504.214L599.419 504.305C599.64 504.345 599.751 504.466 599.751 504.667C599.751 504.889 599.63 505 599.388 505H594.218C593.935 505 593.794 504.889 593.794 504.667C593.794 504.466 593.905 504.345 594.127 504.305L594.55 504.244C595.014 504.184 595.316 504.063 595.457 503.881C595.598 503.7 595.669 503.397 595.669 502.974V493.479C595.669 492.491 595.488 491.796 595.125 491.393C594.782 490.99 594.308 490.788 593.704 490.788C593.099 490.788 592.544 490.979 592.04 491.362C591.557 491.725 591.164 492.219 590.861 492.844C590.559 493.449 590.408 494.124 590.408 494.87V502.974C590.408 503.397 590.478 503.7 590.619 503.881C590.76 504.042 591.053 504.153 591.496 504.214L592.161 504.305C592.383 504.345 592.494 504.466 592.494 504.667C592.494 504.889 592.373 505 592.131 505H586.991C586.708 505 586.567 504.889 586.567 504.667C586.567 504.466 586.678 504.345 586.9 504.305L587.323 504.244C587.747 504.184 588.019 504.063 588.14 503.881C588.281 503.7 588.351 503.397 588.351 502.974V493.479C588.351 492.491 588.17 491.796 587.807 491.393C587.464 490.99 586.991 490.788 586.386 490.788C585.781 490.788 585.227 490.979 584.723 491.362C584.239 491.725 583.846 492.219 583.543 492.844C583.241 493.449 583.09 494.124 583.09 494.87V502.974C583.09 503.397 583.15 503.7 583.271 503.881C583.412 504.063 583.695 504.173 584.118 504.214L584.934 504.305C585.156 504.345 585.267 504.456 585.267 504.637C585.267 504.879 585.116 505 584.813 505H579.703ZM604.683 505.272C603.716 505.272 602.849 504.95 602.083 504.305C601.317 503.659 600.702 502.752 600.238 501.583C599.795 500.394 599.573 499.023 599.573 497.471C599.573 495.878 599.805 494.477 600.268 493.267C600.732 492.058 601.367 491.11 602.173 490.425C602.98 489.74 603.877 489.397 604.865 489.397C606.054 489.397 607.011 489.891 607.737 490.879C608.483 491.846 608.856 493.429 608.856 495.626C608.856 496.291 608.604 496.624 608.1 496.624H602.355C601.952 496.624 601.75 496.856 601.75 497.319C601.75 499.456 602.062 501.059 602.687 502.127C603.312 503.196 604.109 503.73 605.076 503.73C605.842 503.73 606.467 503.458 606.951 502.914C607.435 502.369 607.828 501.452 608.13 500.162C608.191 499.94 608.322 499.829 608.523 499.829C608.765 499.829 608.856 500.031 608.796 500.434C608.473 502.228 607.959 503.488 607.253 504.214C606.548 504.919 605.691 505.272 604.683 505.272ZM602.264 495.868H605.318C606.286 495.868 606.77 495.364 606.77 494.356C606.77 493.046 606.608 492.018 606.286 491.272C605.963 490.526 605.479 490.153 604.834 490.153C604.048 490.153 603.383 490.607 602.839 491.514C602.314 492.421 601.972 493.711 601.81 495.384C601.77 495.707 601.921 495.868 602.264 495.868ZM609.324 505C609.021 505 608.87 504.889 608.87 504.667C608.87 504.486 609.001 504.365 609.263 504.305L609.626 504.244C610.05 504.163 610.322 504.042 610.443 503.881C610.584 503.7 610.654 503.397 610.654 502.974V492.814C610.654 492.451 610.594 492.209 610.473 492.088C610.372 491.947 610.181 491.856 609.898 491.816L609.263 491.725C609.001 491.705 608.87 491.594 608.87 491.393C608.87 491.231 609.031 491.121 609.354 491.06C609.979 490.959 610.453 490.798 610.775 490.576C611.118 490.355 611.471 490.082 611.834 489.76C612.015 489.578 612.166 489.488 612.287 489.488C612.469 489.488 612.559 489.609 612.559 489.851V491.211C612.559 491.393 612.62 491.514 612.741 491.574C612.882 491.614 613.033 491.554 613.194 491.393C614.001 490.627 614.706 490.103 615.311 489.82C615.936 489.538 616.591 489.397 617.276 489.397C618.184 489.397 618.909 489.72 619.454 490.365C619.998 490.99 620.27 491.917 620.27 493.147V502.974C620.27 503.397 620.331 503.7 620.452 503.881C620.593 504.042 620.875 504.153 621.298 504.214L621.963 504.305C622.185 504.345 622.296 504.466 622.296 504.667C622.296 504.889 622.175 505 621.933 505H616.853C616.571 505 616.43 504.889 616.43 504.667C616.43 504.466 616.541 504.345 616.762 504.305L617.186 504.244C617.609 504.184 617.881 504.063 618.002 503.881C618.143 503.7 618.214 503.397 618.214 502.974V493.479C618.214 492.491 618.032 491.796 617.67 491.393C617.307 490.99 616.793 490.788 616.127 490.788C615.482 490.788 614.898 490.979 614.374 491.362C613.87 491.725 613.466 492.219 613.164 492.844C612.862 493.449 612.71 494.124 612.71 494.87V502.974C612.71 503.397 612.771 503.7 612.892 503.881C613.033 504.063 613.315 504.173 613.739 504.214L614.555 504.305C614.777 504.345 614.888 504.456 614.888 504.637C614.888 504.879 614.736 505 614.434 505H609.324ZM625.856 505.272C625.15 505.272 624.566 505.03 624.102 504.546C623.659 504.042 623.437 503.226 623.437 502.097V490.788C623.437 490.546 623.316 490.425 623.074 490.425H622.197C621.875 490.425 621.713 490.304 621.713 490.062C621.713 489.901 621.804 489.76 621.985 489.639C622.651 489.175 623.185 488.681 623.588 488.157C623.991 487.613 624.344 486.877 624.646 485.95C624.788 485.526 624.959 485.315 625.16 485.315C625.382 485.315 625.493 485.476 625.493 485.799V489.155C625.493 489.437 625.634 489.578 625.916 489.578H627.882C628.204 489.578 628.366 489.72 628.366 490.002C628.366 490.284 628.204 490.425 627.882 490.425H625.916C625.634 490.425 625.493 490.566 625.493 490.848V502.127C625.493 502.571 625.564 502.924 625.705 503.186C625.846 503.428 626.108 503.549 626.491 503.549C626.914 503.549 627.257 503.337 627.519 502.914C627.801 502.49 627.983 501.805 628.063 500.857C628.104 500.575 628.235 500.434 628.456 500.434C628.698 500.434 628.819 500.585 628.819 500.888C628.759 502.44 628.436 503.559 627.852 504.244C627.287 504.929 626.622 505.272 625.856 505.272Z" fill="#FFFAEE"/>
<path d="M472.004 474.349C473.715 472.707 475.96 471.803 478.327 471.803C483.363 471.803 487.46 475.894 487.46 480.923C487.46 485.952 483.362 490.043 478.327 490.043C478.251 490.043 478.176 490.043 478.101 490.041C477.801 490.033 477.554 490.275 477.554 490.575V493.145C477.554 493.436 477.787 493.674 478.078 493.68C478.161 493.681 478.244 493.682 478.327 493.682C485.372 493.682 491.103 487.958 491.103 480.923C491.103 473.888 485.372 468.164 478.327 468.164C475.006 468.164 471.859 469.435 469.464 471.742C467.67 473.47 466.442 475.639 465.887 478.009C465.685 478.872 465.592 479.758 465.591 480.645L465.552 503.556C465.551 503.917 465.844 504.21 466.206 504.21H468.539C468.9 504.21 469.193 503.918 469.193 503.557V480.743L469.202 480.53C469.302 478.181 470.297 475.986 472.003 474.349H472.004Z" fill="#FFFAEE"/>
<path d="M478.327 466.604C482.417 466.604 486.245 468.303 489.004 471.366C491.185 473.786 492.472 476.89 492.644 480.141C492.861 484.254 491.357 488.159 488.465 491.047C485.757 493.751 482.156 495.24 478.327 495.24C478.274 495.24 478.222 495.239 478.171 495.238C477.831 495.233 477.553 495.506 477.553 495.845V498.271C477.553 498.602 477.82 498.873 478.152 498.877C478.21 498.878 478.268 498.879 478.327 498.879C483.13 498.879 487.645 497.011 491.042 493.619C494.438 490.228 496.308 485.719 496.308 480.922C496.308 476.126 494.438 471.617 491.042 468.225C487.645 464.834 483.13 462.966 478.327 462.966C473.524 462.966 469.009 464.834 465.613 468.225C462.566 471.268 460.736 475.242 460.402 479.5C460.383 479.745 460.375 479.991 460.374 480.238L460.346 503.556C460.346 503.917 460.639 504.21 461.001 504.21H463.334C463.696 504.21 463.989 503.917 463.989 503.557V480.74L463.994 480.521C464.095 476.852 465.584 473.398 468.188 470.798C470.896 468.094 474.496 466.604 478.326 466.604H478.327Z" fill="#FFFAEE"/>
<path d="M499.689 471.908C498.522 469.151 496.85 466.675 494.722 464.549C492.593 462.423 490.113 460.754 487.352 459.588C484.493 458.38 481.456 457.768 478.327 457.768C475.198 457.768 472.161 458.38 469.301 459.588C466.54 460.754 464.061 462.423 461.932 464.549C459.803 466.675 458.132 469.151 456.964 471.908C455.887 474.451 455.282 477.14 455.164 479.909L455.142 503.555C455.142 503.916 455.435 504.209 455.796 504.209H458.13C458.491 504.209 458.784 503.917 458.784 503.556V480.762L458.789 480.517C458.891 475.46 460.922 470.703 464.508 467.123C468.199 463.437 473.106 461.407 478.326 461.407C483.546 461.407 488.454 463.437 492.145 467.123C495.598 470.572 497.6 475.084 497.843 479.921C498.138 485.778 495.774 491.478 491.418 495.412C487.821 498.66 483.211 500.438 478.326 500.438C478.273 500.438 478.221 500.437 478.169 500.436H478.166C477.829 500.432 477.553 500.704 477.553 501.042V503.47C477.553 503.801 477.82 504.071 478.152 504.075C478.21 504.076 478.268 504.076 478.326 504.076C481.455 504.076 484.492 503.464 487.352 502.256C490.113 501.09 492.592 499.42 494.721 497.295C496.849 495.169 498.521 492.693 499.689 489.936C500.898 487.08 501.511 484.048 501.511 480.923C501.511 477.798 500.898 474.765 499.689 471.91L499.689 471.908Z" fill="#FFFAEE"/>
<path d="M482.255 480.921C482.255 483.085 480.493 484.844 478.327 484.844C478.259 484.844 478.188 484.842 478.117 484.838C477.81 484.822 477.553 485.066 477.553 485.372V487.944C477.553 488.232 477.782 488.468 478.071 488.478C478.159 488.481 478.245 488.482 478.327 488.482C482.502 488.482 485.899 485.09 485.899 480.921C485.899 476.751 482.502 473.359 478.327 473.359C477.14 473.359 476.011 473.637 475.003 474.131C472.429 475.395 470.827 478.042 470.822 480.907L470.757 503.553C470.756 503.915 471.049 504.208 471.411 504.208H473.744C474.105 504.208 474.398 503.916 474.398 503.555V480.752C474.398 480.748 474.398 480.744 474.398 480.74L474.416 480.555C474.506 479.588 474.953 478.691 475.675 478.029C476.401 477.364 477.343 476.998 478.326 476.998C480.492 476.998 482.254 478.758 482.254 480.921L482.255 480.921Z" fill="#FFFAEE"/>
<path d="M495.821 586.823H495.78L493.142 592.652L490.504 586.823H490.463V596.035H490.173V586.395H490.615L493.128 591.961H493.17L495.669 586.395H496.111V596.035H495.821V586.823ZM503.564 596.035L502.486 592.803H498.426L497.349 596.035H497.031L500.249 586.395H500.663L503.881 596.035H503.564ZM500.47 586.74H500.429L498.509 592.541H502.404L500.47 586.74ZM505.119 586.395H507.633C508.793 586.395 509.63 586.8 510.146 587.611C510.662 588.412 510.919 589.613 510.919 591.215C510.919 592.817 510.662 594.023 510.146 594.834C509.63 595.635 508.793 596.035 507.633 596.035H505.119V586.395ZM507.646 595.759C508.162 595.759 508.604 595.667 508.972 595.483C509.34 595.289 509.644 595.018 509.884 594.668C510.123 594.318 510.298 593.89 510.408 593.383C510.528 592.868 510.588 592.292 510.588 591.657V590.773C510.588 590.138 510.528 589.567 510.408 589.061C510.298 588.545 510.123 588.112 509.884 587.762C509.644 587.413 509.34 587.146 508.972 586.961C508.604 586.768 508.162 586.671 507.646 586.671H505.423V595.759H507.646ZM512.433 596.035V586.395H518.04V586.671H512.737V591.008H517.847V591.284H512.737V595.759H518.04V596.035H512.433ZM526.924 586.395H529.99C530.708 586.395 531.265 586.602 531.661 587.017C532.057 587.422 532.255 588.029 532.255 588.84C532.255 589.475 532.135 589.972 531.896 590.331C531.666 590.69 531.339 590.939 530.915 591.077V591.105C531.514 591.215 531.96 591.482 532.255 591.906C532.549 592.32 532.697 592.859 532.697 593.522C532.697 594.286 532.494 594.898 532.089 595.358C531.684 595.81 531.086 596.035 530.294 596.035H526.924V586.395ZM530.294 595.759C530.653 595.759 530.961 595.704 531.219 595.593C531.477 595.483 531.689 595.34 531.854 595.165C532.029 594.981 532.158 594.774 532.241 594.544C532.324 594.304 532.365 594.06 532.365 593.812V593.232C532.365 592.983 532.324 592.744 532.241 592.513C532.158 592.274 532.029 592.067 531.854 591.892C531.689 591.708 531.477 591.56 531.219 591.45C530.961 591.339 530.653 591.284 530.294 591.284H527.228V595.759H530.294ZM529.99 591.008C530.321 591.008 530.607 590.957 530.846 590.856C531.095 590.755 531.297 590.617 531.454 590.442C531.61 590.267 531.725 590.069 531.799 589.848C531.882 589.618 531.923 589.378 531.923 589.13V588.55C531.923 588.301 531.882 588.066 531.799 587.845C531.725 587.615 531.61 587.413 531.454 587.238C531.297 587.063 531.095 586.925 530.846 586.823C530.607 586.722 530.321 586.671 529.99 586.671H527.228V591.008H529.99ZM536.876 596.035V591.975L533.271 586.395H533.617L537.014 591.643H537.056L540.453 586.395H540.785L537.18 591.975V596.035H536.876ZM554.143 591.284H549.171V596.035H548.867V586.395H549.171V591.008H554.143V586.395H554.446V596.035H554.143V591.284ZM556.485 586.395V592.265C556.485 592.974 556.522 593.563 556.596 594.033C556.678 594.502 556.812 594.88 556.996 595.165C557.189 595.441 557.443 595.639 557.756 595.759C558.078 595.869 558.483 595.925 558.971 595.925C559.45 595.925 559.85 595.869 560.173 595.759C560.495 595.639 560.748 595.441 560.932 595.165C561.125 594.88 561.259 594.502 561.333 594.033C561.415 593.563 561.457 592.974 561.457 592.265V586.395H561.761V592.265C561.761 593.02 561.715 593.65 561.623 594.157C561.531 594.663 561.374 595.068 561.153 595.372C560.941 595.676 560.656 595.892 560.297 596.021C559.938 596.141 559.496 596.201 558.971 596.201C558.446 596.201 558.004 596.141 557.645 596.021C557.286 595.892 556.996 595.676 556.775 595.372C556.563 595.068 556.411 594.663 556.319 594.157C556.227 593.65 556.181 593.02 556.181 592.265V586.395H556.485ZM568.965 586.823H568.923L566.285 592.652L563.647 586.823H563.606V596.035H563.316V586.395H563.758L566.271 591.961H566.313L568.813 586.395H569.255V596.035H568.965V586.823ZM576.707 596.035L575.63 592.803H571.569L570.492 596.035H570.175L573.392 586.395H573.807L577.025 596.035H576.707ZM573.613 586.74H573.572L571.652 592.541H575.547L573.613 586.74ZM578.456 586.81H578.414V596.035H578.124V586.395H578.566L583.372 595.621H583.414V586.395H583.704V596.035H583.262L578.456 586.81ZM588.284 596.201C587.86 596.201 587.483 596.159 587.151 596.077C586.82 596.003 586.52 595.897 586.253 595.759C585.996 595.621 585.765 595.455 585.563 595.262C585.36 595.068 585.172 594.857 584.997 594.626L585.245 594.447C585.411 594.668 585.59 594.87 585.784 595.055C585.977 595.23 586.194 595.386 586.433 595.524C586.672 595.653 586.939 595.754 587.234 595.828C587.538 595.892 587.888 595.925 588.284 595.925C589.167 595.925 589.849 595.731 590.328 595.345C590.816 594.949 591.06 594.369 591.06 593.604C591.06 593.209 590.995 592.877 590.866 592.61C590.746 592.334 590.581 592.113 590.369 591.947C590.166 591.772 589.927 591.639 589.651 591.547C589.375 591.445 589.089 591.372 588.795 591.326L587.69 591.146C587.202 591.063 586.797 590.944 586.474 590.787C586.161 590.621 585.908 590.428 585.715 590.207C585.531 589.986 585.402 589.742 585.328 589.475C585.254 589.208 585.218 588.932 585.218 588.646C585.218 588.241 585.287 587.887 585.425 587.583C585.572 587.279 585.775 587.031 586.032 586.837C586.299 586.635 586.617 586.483 586.985 586.381C587.354 586.28 587.763 586.229 588.215 586.229C588.997 586.229 589.623 586.354 590.093 586.602C590.572 586.851 590.944 587.173 591.211 587.569L590.977 587.762C590.691 587.348 590.328 587.035 589.886 586.823C589.444 586.612 588.877 586.506 588.187 586.506C587.349 586.506 586.695 586.685 586.226 587.044C585.756 587.394 585.521 587.928 585.521 588.646C585.521 589.024 585.581 589.342 585.701 589.599C585.821 589.857 585.982 590.073 586.184 590.248C586.387 590.414 586.622 590.548 586.889 590.649C587.156 590.741 587.441 590.81 587.745 590.856L588.85 591.036C589.356 591.119 589.771 591.247 590.093 591.422C590.424 591.588 590.682 591.786 590.866 592.016C591.05 592.246 591.179 592.495 591.253 592.762C591.327 593.029 591.363 593.305 591.363 593.591C591.363 594.456 591.083 595.11 590.521 595.552C589.968 595.985 589.223 596.201 588.284 596.201Z" fill="#FFFAEE"/>
<rect x="466.486" y="580.804" width="146.986" height="21.7027" rx="10.8514" stroke="#FFFAEE" stroke-width="0.986486"/>
<path fill-rule="evenodd" clip-rule="evenodd" d="M537.798 552.222V555.755C537.411 555.792 537.018 555.813 536.615 555.813C530.039 555.813 524.673 550.455 524.673 543.89C524.673 537.325 530.039 531.973 536.615 531.973C537.013 531.973 537.411 531.994 537.798 532.03V535.564C537.411 535.506 537.018 535.48 536.615 535.48C531.971 535.48 528.186 539.264 528.186 543.89C528.186 548.516 531.976 552.3 536.615 552.3C537.013 552.3 537.411 552.269 537.798 552.217V552.222Z" fill="#FFFAEE"/>
<path fill-rule="evenodd" clip-rule="evenodd" d="M542.887 542.071H549.782V545.714H542.887C543.725 549.478 547.096 552.305 551.112 552.305C551.51 552.305 551.908 552.274 552.295 552.222V555.755C551.903 555.792 551.51 555.813 551.112 555.813C544.531 555.813 539.175 550.455 539.175 543.895C539.175 537.335 544.531 531.973 551.112 531.973C551.51 531.973 551.908 531.994 552.295 532.03V535.564C551.903 535.506 551.51 535.48 551.112 535.48C547.096 535.48 543.719 538.308 542.887 542.071Z" fill="#FFFAEE"/>
<path d="M478.9 531.973C472.327 531.973 466.98 537.32 466.98 543.893C466.98 550.466 472.327 555.813 478.9 555.813C485.473 555.813 490.82 550.466 490.82 543.893C490.82 537.32 485.473 531.973 478.9 531.973ZM489.732 543.893C489.732 549.867 484.874 554.725 478.9 554.725C472.926 554.725 468.067 549.867 468.067 543.893C468.067 537.918 472.926 533.06 478.9 533.06C484.874 533.06 489.732 537.918 489.732 543.893Z" fill="#FFFAEE"/>
<path d="M478.669 547.771V546.756L480.614 543.087C480.713 542.904 480.769 542.745 480.783 542.611C480.798 542.47 480.805 542.298 480.805 542.093C480.805 542.002 480.801 541.906 480.794 541.808C480.794 541.702 480.776 541.61 480.741 541.533C480.706 541.455 480.653 541.392 480.583 541.342C480.512 541.286 480.41 541.258 480.276 541.258C480.114 541.258 479.983 541.304 479.885 541.395C479.793 541.487 479.747 541.621 479.747 541.797V542.41H478.669V541.818C478.669 541.593 478.711 541.381 478.796 541.184C478.88 540.986 478.996 540.814 479.144 540.666C479.285 540.518 479.455 540.401 479.652 540.317C479.849 540.225 480.061 540.179 480.286 540.179C480.568 540.179 480.808 540.232 481.005 540.338C481.21 540.437 481.379 540.574 481.513 540.75C481.64 540.927 481.732 541.127 481.788 541.353C481.851 541.579 481.883 541.818 481.883 542.072C481.883 542.255 481.88 542.41 481.873 542.537C481.866 542.657 481.851 542.773 481.83 542.886C481.809 542.999 481.774 543.112 481.725 543.225C481.675 543.337 481.608 543.475 481.524 543.637L479.938 546.693H481.883V547.771H478.669ZM485.003 540.243L483.777 543.404L483.798 543.426C483.833 543.397 483.886 543.376 483.956 543.362C484.034 543.341 484.133 543.33 484.252 543.33C484.443 543.33 484.619 543.376 484.781 543.468C484.943 543.559 485.07 543.676 485.162 543.817C485.211 543.894 485.25 543.972 485.278 544.049C485.306 544.127 485.331 544.229 485.352 544.356C485.366 544.483 485.377 544.645 485.384 544.842C485.391 545.033 485.394 545.276 485.394 545.572C485.394 545.819 485.391 546.023 485.384 546.185C485.377 546.34 485.366 546.471 485.352 546.577C485.331 546.689 485.303 546.785 485.268 546.862C485.239 546.94 485.201 547.021 485.151 547.105C485.01 547.338 484.82 547.518 484.58 547.645C484.348 547.771 484.083 547.835 483.787 547.835C483.491 547.835 483.227 547.771 482.994 547.645C482.762 547.511 482.575 547.331 482.434 547.105C482.377 547.021 482.332 546.94 482.296 546.862C482.268 546.785 482.247 546.689 482.233 546.577C482.212 546.471 482.198 546.34 482.191 546.185C482.183 546.023 482.18 545.819 482.18 545.572C482.18 545.339 482.183 545.149 482.191 545.001C482.198 544.846 482.208 544.712 482.222 544.599C482.236 544.494 482.257 544.398 482.286 544.314C482.314 544.222 482.346 544.127 482.381 544.028L483.798 540.243H485.003ZM484.316 544.821C484.316 544.659 484.263 544.529 484.157 544.43C484.052 544.331 483.928 544.282 483.787 544.282C483.646 544.282 483.523 544.331 483.417 544.43C483.311 544.529 483.259 544.659 483.259 544.821V546.217C483.259 546.379 483.311 546.51 483.417 546.608C483.523 546.707 483.646 546.756 483.787 546.756C483.928 546.756 484.052 546.707 484.157 546.608C484.263 546.51 484.316 546.379 484.316 546.217V544.821Z" fill="#FFFAEE"/>
<path d="M589.062 531.973H607.139C608.728 531.973 610.02 533.265 610.02 534.854V552.931C610.02 554.52 608.728 555.813 607.139 555.813H589.062C587.473 555.813 586.18 554.52 586.18 552.931V534.854C586.18 533.265 587.473 531.973 589.062 531.973H589.062ZM607.139 533.605H589.062C588.373 533.605 587.813 534.165 587.813 534.854V540.384H599.788L594.769 535.719H597.168L603.062 541.199L597.846 546.05H608.388V534.854C608.388 534.165 607.827 533.605 607.139 533.605ZM589.062 554.18H607.139C607.827 554.18 608.388 553.62 608.388 552.931V547.682H597.757L602.777 552.347H600.377L594.483 546.868L599.7 542.017H587.812V552.931C587.812 553.62 588.373 554.18 589.061 554.18L589.062 554.18Z" fill="#FFFAEE"/>
</svg>
