<svg width="1080" height="1080" viewBox="0 0 1080 1080" fill="none" xmlns="http://www.w3.org/2000/svg">
<rect width="1080" height="1080" fill="#191919"/>
<path d="M489.019 430.237C491.239 429.647 493.453 429.056 495.8 428.439C495.244 428.117 494.706 427.809 494.156 427.5C494.225 427.356 494.257 427.152 494.352 427.106C497.179 425.662 499.887 423.699 502.879 422.964C505.738 422.261 508.895 422.767 511.913 422.885C512.868 422.925 513.867 423.286 514.747 423.719C516.796 424.717 518.327 425.15 520.706 423.509C522.42 422.327 525.634 423.082 528.069 423.561C530.618 424.06 533.041 425.268 535.521 426.161C535.66 425.714 535.799 425.262 535.945 424.815C534.844 424.513 533.743 424.218 532.415 423.857C533.016 421.257 530.802 422.432 529.619 422.038C531.896 418.546 534.654 418.31 537.533 420.857C538.349 421.579 540.133 421.224 541.467 421.159C542.087 421.132 542.682 420.614 543.289 420.325C543.447 420.673 543.606 421.014 543.757 421.362C542.138 422.176 540.512 422.997 538.526 423.995C538.57 424.172 538.671 425.373 538.912 425.399C540.101 425.55 541.354 425.511 542.536 425.294C543.346 425.15 544.055 424.467 544.871 424.257C546.104 423.929 546.421 423.423 545.446 422.452C544.213 421.224 544.89 420.627 546.13 420.482C547.401 420.331 548.698 420.45 549.969 420.45C549.432 421.743 548.837 422.78 548.66 423.889C548.616 424.146 549.988 424.644 550.463 424.9C551.203 423.391 551.551 421.487 552.386 421.218C554.398 420.568 556.643 420.476 558.775 420.568C559.92 420.62 561.103 421.408 562.141 422.071C562.805 422.498 563.279 423.279 563.785 423.942C564.329 424.658 564.804 425.419 565.569 426.535C564.127 427.336 562.495 428.248 560.123 429.568C559.205 429.345 557.421 428.898 555.081 428.321C556.865 427.244 558.168 426.456 559.484 425.662C558.035 423.83 557.447 423.509 554.821 424.323C553.253 424.809 551.855 425.898 550.678 426.942C549.881 427.868 549.078 428.787 548.034 429.995C547.458 428.892 547.142 428.281 546.623 427.297C543.833 428.826 541.176 430.283 538.532 431.734C538.583 435.515 541.183 435.712 543.757 436.014C543.846 437.275 543.935 438.437 544.023 439.697C544.441 439.651 544.934 439.736 545.042 439.566C546.256 437.655 547.553 435.929 549.919 435.43C550.153 435.384 550.343 434.189 550.254 433.572C549.786 430.172 551.646 428.728 554.961 430.008C555.486 430.211 556.042 430.316 556.656 430.487C556.713 431.491 556.77 432.404 556.846 433.658C558.301 433.113 559.572 432.64 561.046 432.089C561.35 434.097 561.584 435.87 563.469 437.413C565.126 438.771 563.052 440.045 561.483 440.741C562.609 441.778 563.621 442.71 564.633 443.649C564.437 443.925 564.234 444.2 564.038 444.476C562.621 444.03 561.211 443.577 559.756 443.117C560.18 441.909 560.471 441.076 560.768 440.235C558.775 441.076 557.206 441.995 555.473 440.117C555.201 439.828 554.069 440.393 553.335 440.564C553.828 441.246 554.328 441.929 554.916 442.743C554.961 442.631 554.916 442.907 554.834 442.914C550.191 443.518 547.635 447.489 544.377 450.174C541.537 452.518 539.987 456.26 536.742 458.452C535.692 459.168 535.667 461.518 535.015 463.645C534.142 462.581 533.269 461.531 532.402 460.481C532.504 460.139 532.605 459.804 532.706 459.463C529.53 459.962 526.279 460.185 523.192 461.045C520.282 461.859 519.485 464.787 519.074 467.492C518.688 470.078 521.452 471.66 523.837 470.36C524.564 469.966 525.203 469.415 525.893 468.949C526.513 468.529 527.139 468.135 528.417 467.905C528.132 469.212 527.848 470.524 527.512 472.047C528.493 472.317 529.632 472.632 530.84 472.967C530.903 473.8 530.852 474.588 531.036 475.317C531.352 476.577 531.51 478.56 532.276 478.888C534.306 479.761 536.596 480.444 538.33 477.706C539.639 475.638 542.726 475.415 544.124 477.312C545.548 479.242 547.433 478.999 548.717 478.251C550.501 477.207 551.19 478.212 551.804 479.275C552.974 481.304 554.195 482.682 556.82 482.518C557.605 482.472 558.661 484.284 559.288 485.42C559.819 486.378 559.585 488.183 560.262 488.59C561.767 489.496 563.621 489.838 565.361 490.264C566.145 490.455 567.012 490.389 567.821 490.291C569.308 490.113 570.194 490.724 571.022 492.03C571.636 492.995 572.806 493.579 574.027 494.577C573.888 495.083 573.907 496.231 573.369 496.763C570.725 499.382 570.605 502.776 570.263 506.177C569.953 509.223 568.688 510.306 565.822 510.326C563.241 510.345 562.185 511.58 562.931 514.153C563.501 516.122 563.064 517.54 561.837 519.03C560.616 520.514 559.851 522.451 558.497 523.757C557.175 525.024 555.391 525.792 553.752 526.678C553.139 527.013 552.373 527.059 551.273 527.335C552.127 528.129 552.671 528.641 553.208 529.14C552.082 531.311 552.517 532.691 554.512 533.282C552.342 536.368 555.138 538.291 556.542 540.7C553.898 541.304 551.987 541.074 550.279 539.269C547.262 536.079 544.637 532.829 545.579 527.873C545.712 527.164 545.389 526.114 544.909 525.582C543.574 524.092 543.422 522.51 543.865 520.645C544.137 519.51 544.839 518.197 543.188 517.35C542.91 517.212 542.979 516.247 542.973 515.656C542.948 513.693 542.96 511.724 542.967 509.755C542.967 505.645 542.239 504.634 538.52 502.908C537.773 502.56 537.223 501.674 536.691 500.951C535.357 499.126 534.117 497.223 532.788 495.391C531.169 493.153 531.808 488.164 533.959 486.549C535.926 485.072 535.989 484.75 534.945 480.995C531.327 481.566 528.885 479.616 526.798 476.695C526.26 475.94 524.893 475.868 523.989 475.336C523.179 474.864 522.515 474.135 521.724 473.63C521.212 473.301 520.529 472.901 520.01 473.006C516.442 473.741 513.956 472.743 512.324 469.756C512.128 469.395 511.729 468.844 511.843 468.647C513.14 466.435 511.204 465.273 510.47 463.697C509.774 462.194 509.243 460.605 508.598 459.076C508.332 458.452 507.953 457.874 507.624 457.277C507.263 457.448 506.902 457.625 506.542 457.796C507.617 460.651 508.686 463.5 509.768 466.369C507.491 466.737 505.03 464.019 504.834 461.071C504.758 459.962 504.91 458.839 504.777 457.743C504.707 457.172 504.366 456.47 503.923 456.135C501.975 454.651 501.323 450.509 502.841 448.336C503.562 447.299 504.34 446.295 505.188 445.362C506.529 443.879 507.579 442.408 506.972 440.143C506.801 439.513 507.427 438.653 507.636 438.043C507.307 436.92 507.13 435.771 506.637 434.787C506.08 433.684 505.403 432.102 504.492 431.852C502.81 431.399 500.779 431.321 499.14 431.879C495.497 433.113 492.169 433.178 489 430.743V430.231L489.019 430.237ZM533.522 443.767C535.616 443.885 537.248 443.977 539.064 444.076C538.083 441.319 536.059 441.168 533.522 443.767ZM537.052 444.962C536.843 444.719 536.634 444.476 536.426 444.24C535.508 445.001 534.522 445.697 533.724 446.577C533.497 446.826 533.819 447.607 533.889 448.146C534.357 447.962 534.971 447.916 535.262 447.575C535.945 446.78 536.47 445.842 537.058 444.962H537.052ZM530.251 437.301C530.138 437.57 530.024 437.833 529.91 438.102C530.612 438.548 531.308 438.988 532.01 439.434C532.415 438.712 532.82 437.997 533.225 437.275C533.041 437.111 532.864 436.953 532.681 436.789C531.871 436.96 531.061 437.13 530.251 437.308V437.301ZM523.913 428.025C525.368 427.625 526.488 427.329 527.582 426.968C527.639 426.949 527.525 426.384 527.493 426.069C526.38 426.266 525.267 426.456 524.16 426.673C524.103 426.686 524.096 426.975 523.913 428.025Z" fill="#FFFAEE"/>
<path d="M668.119 478.723C667.771 479.058 667.341 479.334 667.082 479.728C666.057 481.284 665.045 480.968 664.216 479.642C662.825 477.424 661.395 475.205 660.294 472.828C659.813 471.785 659.927 470.334 660.085 469.113C660.395 466.73 659.238 465.522 657.245 465.141C653.848 464.498 650.432 463.933 646.997 463.572C643.758 463.231 640.545 463.119 639.444 459.01C639.374 458.741 638.634 458.668 638.115 458.472C637.261 460.854 637.552 462.397 640.001 463.356C642.746 464.426 645.352 465.857 648.528 467.373C648.224 467.872 647.933 468.798 647.326 469.283C644.979 471.161 642.563 472.946 640.121 474.68C636.926 476.944 634.465 475.841 633.826 471.929C633.757 471.522 633.687 471.049 633.447 470.747C631.195 467.865 628.905 465.01 626.621 462.141C626.431 462.253 626.248 462.364 626.058 462.476C626.406 463.257 626.729 464.051 627.115 464.813C628.911 468.364 630.746 471.896 632.53 475.461C633.44 477.292 634.687 478.119 636.724 477.489C638.058 477.076 639.45 476.833 640.829 476.61C641.563 476.491 642.328 476.59 643.081 476.59L643.638 477.522C639.804 482.137 636.021 486.798 632.112 491.347C631.138 492.483 630.885 493.172 631.416 494.8C632.555 498.312 633.478 501.995 630.455 505.323C629.133 506.78 628.335 508.743 627.5 510.549C626.514 511.665 625.527 512.774 624.546 513.89C622.661 516.03 621.111 518.794 618.796 520.113C616.791 521.255 613.912 520.763 612.185 520.921C610.901 517.921 609.851 515.564 608.896 513.168C608.655 512.564 608.624 511.848 608.611 511.179C608.586 509.157 608.719 507.273 607.087 505.52C606.46 504.85 606.853 502.494 607.504 501.358C608.782 499.146 608.795 497.36 607.308 495.312C604.967 492.089 603.62 488.531 604.752 484.874C602.652 483.896 600.957 482.964 599.167 482.34C598.306 482.038 596.94 481.927 596.351 482.426C593.891 484.507 590.892 482.944 588.305 483.955C587.919 484.106 587.135 483.745 586.793 483.365C584.946 481.297 582.713 479.393 581.542 476.957C580.733 475.264 581.34 472.795 581.485 470.682C581.53 470.019 582.131 469.395 582.479 468.758C579.942 467.262 579.898 466.237 582.118 464.57C583.25 463.717 584.332 462.771 585.528 462.036C587.008 461.124 587.811 460.008 587.603 458.117C587.343 455.734 589.475 455.209 590.823 454.927C595.428 453.968 600.115 453.443 604.986 452.721C605.088 454.119 605.17 455.281 605.271 456.633C607.675 457.401 610.142 458.183 612.615 458.97C613.602 456.574 615.709 455.839 617.626 457.618C619.726 459.568 622.092 459.174 624.388 458.97C625.97 458.833 626.931 457.598 626.817 455.721C626.697 453.798 625.539 453.338 623.977 453.345C623.566 453.345 623.155 453.351 622.743 453.358C619.081 453.404 618.828 453.174 617.259 448.46C616.576 449.78 615.892 451.099 614.962 452.905C614.21 451.71 613.128 450.633 612.805 449.353C612.052 446.353 609.895 444.489 606.821 444.765C606.656 447.797 609.427 448.053 611.217 449.622C610.73 450.647 610.433 451.92 609.661 452.662C609.25 453.056 608.029 452.537 607.169 452.432C607.188 452.196 607.207 451.959 607.226 451.73C607.941 451.559 608.649 451.382 609.914 451.073C607.643 449.294 605.752 447.817 604 446.445C602.848 446.681 601.393 446.609 600.406 447.279C599.167 448.119 597.939 449.399 597.37 450.784C596.383 453.2 594.726 453.404 592.632 453.318C589.538 453.2 588.134 451.421 588.893 448.323C589.456 446.025 591.411 446.55 592.929 446.32C593.543 446.229 594.302 446.8 594.833 446.596C595.295 446.419 595.845 445.552 595.795 445.053C595.687 444.003 595.206 442.992 594.884 441.962L595.89 442.342C597.376 441.095 598.812 439.762 600.381 438.633C601.26 438.003 602.336 437.557 603.38 437.314C604.303 437.097 605.309 437.268 606.372 437.268C606.277 436.349 606.195 435.509 606.081 434.445C605.182 434.701 604.366 434.937 603.797 435.095C602.918 434.242 601.975 433.592 601.419 432.692C601.058 432.108 601.026 430.559 601.267 430.454C604.05 429.206 605.417 426.206 607.795 424.683C612.483 421.683 617.556 421.592 622.585 424.08C623.604 424.585 624.622 425.097 625.634 425.609C625.634 425.865 625.634 426.121 625.641 426.377C623.604 426.673 621.56 426.961 619.239 427.296C622.554 429.43 625.369 428.465 628.418 424.349C628.835 424.867 629.227 425.347 629.816 426.075C633.453 422.891 637.862 424.907 641.822 424.559C641.905 423.233 641.974 422.031 642.05 420.804C643.834 421.031 645.209 422.764 646.175 426.003C647.674 426.226 648.382 425.524 648.136 423.994C647.838 422.176 648.876 421.651 650.198 420.823C654.379 418.204 659.01 418.355 663.571 418.007C664.109 417.968 664.811 418.086 665.19 418.421C668.221 421.099 671.833 421.086 675.47 420.863C677.842 420.718 679.993 420.994 681.866 422.78C682.321 423.213 683.827 423.305 684.13 422.931C686.971 419.451 690.266 421.23 693.461 421.887C694.973 422.195 696.447 422.839 697.965 422.931C705.031 423.384 712.129 423.482 719.176 424.171C721.915 424.441 724.547 425.95 727.223 426.889C727.153 427.25 727.077 427.618 727.008 427.979C725.173 427.762 723.339 427.546 720.992 427.27C721.694 428.255 722.137 428.878 722.769 429.764C720.669 430.664 718.645 431.53 716.393 432.489C716.861 432.988 717.715 433.71 718.328 434.609C718.967 435.541 719.467 436.611 719.821 437.695C719.941 438.069 719.556 438.87 719.189 439.093C718.815 439.316 718.044 439.257 717.683 438.981C716.285 437.931 714.786 436.913 713.717 435.548C713.166 434.845 713.35 433.441 713.394 432.364C713.426 431.589 713.767 430.828 713.685 429.791C709.731 432.082 706.195 435.476 701.35 432.18C700.907 432.719 700.439 433.178 700.103 433.723C699.053 435.43 699.572 436.552 701.501 436.894C704.247 437.379 707.403 436.848 709.055 440.104C709.219 440.432 709.32 440.8 709.459 441.161C709.149 441.285 708.96 441.436 708.865 441.384C708.055 440.964 707.264 440.504 706.467 440.064C706.752 440.918 707.207 441.758 707.29 442.638C707.429 444.043 707.328 445.467 707.328 447.043C705.727 447.121 704.437 447.187 703.178 447.246C702.109 449.465 702.589 450.968 704.766 452.012C705.752 452.485 706.537 453.423 707.41 454.152C707.328 454.408 707.245 454.671 707.163 454.927C706.303 454.736 705.31 454.763 704.614 454.31C703.02 453.259 701.622 451.894 700.046 450.817C699.154 450.213 698.06 449.924 696.947 449.445C696.207 452.452 696.523 454.677 698.699 456.463C699.717 457.303 700.685 458.321 701.375 459.463C702.634 461.55 702.09 463.769 700.103 465.194C699.376 465.719 698.509 466.054 697.674 466.402C695.833 467.183 693.259 467.163 694.068 470.728C693.86 470.701 693.645 470.682 693.436 470.655C693.025 469.953 692.677 469.205 692.19 468.568C691.759 468.003 691.19 467.196 690.659 467.176C690.197 467.163 689.248 468.161 689.305 468.594C689.488 469.914 689.919 471.253 690.526 472.428C690.88 473.124 691.766 473.518 692.392 474.069C693.569 475.113 694.258 476.36 693.094 477.785C691.791 479.38 689.988 479.347 688.622 477.87C687.888 477.076 687.186 476.248 686.471 475.434L685.674 475.671C685.927 476.813 685.933 478.113 686.49 479.065C687.799 481.329 689.393 483.417 690.817 485.616C691.222 486.24 691.418 487.001 691.715 487.704C691.525 487.842 691.336 487.979 691.139 488.111C688.736 485.702 686.117 483.476 684.048 480.791C683.257 479.761 683.675 477.68 683.656 476.078C683.605 470.682 677.109 465.771 672.092 467.229C669.916 467.859 669.378 469.717 668.961 471.43C668.385 473.793 668.328 476.294 668.05 478.736L668.081 478.684L668.119 478.723ZM607.15 436.303C611.224 437.852 613.235 436.953 614.355 433.336C614.558 432.679 614.191 431.366 613.672 431.025C611.799 429.791 612.742 429.108 613.9 428.248C614.678 427.67 615.367 426.968 616.095 426.325C612.837 426.469 610.085 428.793 610.117 430.624C610.161 433.034 610.446 435.482 607.15 436.303ZM640.038 445.021C640.076 444.64 640.114 444.259 640.152 443.878C638.856 443.741 637.464 443.255 636.319 443.622C635.806 443.786 635.553 445.677 635.648 446.734C635.705 447.377 636.603 448.021 637.23 448.506C638.255 449.301 638.805 450.023 637.552 451.106C637.23 451.388 637.065 451.868 636.743 452.386C638.128 452.741 639.279 453.134 640.462 453.318C641.645 453.502 642.708 452.918 641.943 451.631C640.937 449.938 639.463 448.546 638.204 447.01C637.881 446.616 637.609 446.169 637.135 445.48C638.356 445.283 639.197 445.152 640.038 445.014V445.021ZM620.662 450.345H628.544C627.349 448.625 626.254 447.056 625.154 445.467C623.42 446.57 619.264 445.493 620.668 450.345H620.662Z" fill="#FFFAEE"/>
<path d="M694.726 521.715C694.726 521.669 694.562 521.184 694.707 521.046C697.396 518.446 696.548 515.013 696.523 511.908C696.504 509.472 697.921 507.949 699.502 507.91C702.95 507.831 704.076 505.041 706.043 503.157C706.771 502.461 707.688 501.779 708.624 501.568C709.377 501.398 710.275 501.956 711.578 502.317C713.704 498.549 716.709 496.625 721.175 500.932C720.043 501.45 719.119 501.87 717.999 502.383C717.613 505.639 720.302 504.529 722.231 505.14C722.446 503.518 722.586 502.021 722.864 500.551C722.972 499.973 723.389 499.468 723.667 498.923C724.243 499.284 725.135 499.514 725.337 500.032C725.97 501.641 726.312 503.367 726.824 505.035C727.153 506.105 727.298 507.431 727.994 508.159C731.195 511.501 731.353 514.868 728.083 518.374C726.084 520.521 724.053 522.707 721.725 524.42C720.637 525.221 718.803 524.893 717.316 525.162C714.046 525.753 712.002 524.472 711.256 521.052C710.883 519.339 709.826 518.748 708.169 519.083C703.772 519.969 699.363 520.816 694.72 521.722L694.726 521.715Z" fill="#FFFAEE"/>
<path d="M693.638 489.674C693.271 487.002 694.505 485.577 696.795 484.474C698.541 483.634 699.977 482.111 701.565 480.877C704.304 484.553 702.982 488.945 700.464 491.498C699.705 492.267 697.763 492.24 696.529 491.905C695.422 491.61 694.543 490.396 693.562 489.588L693.638 489.674Z" fill="#FFFAEE"/>
<path d="M713.248 489.864C713.982 489.194 714.716 488.524 715.836 487.507C716.519 488.432 717.171 489.312 718.119 490.592C717.847 490.546 718.252 490.756 718.455 490.625C720.991 488.971 723.092 490.553 725.325 491.498C727.109 492.253 728.519 493.054 728.323 495.476C728.273 496.106 729.146 496.815 729.816 497.82C728.855 497.885 727.988 497.938 726.957 498.01C726.875 496.894 726.805 495.988 726.729 494.964C724.344 495.798 722.035 496.605 719.726 497.413C719.536 497.131 719.347 496.848 719.157 496.573C719.53 495.778 719.903 494.99 720.39 493.947C718.044 492.988 715.621 492.01 713.204 491.025C713.223 490.638 713.242 490.251 713.261 489.864H713.248Z" fill="#FFFAEE"/>
<path d="M641.367 499.067C641.367 505.908 638.501 510.562 635.009 514.993C632.89 513.733 632.662 511.711 633.763 509.991C634.788 508.389 635.598 507.188 634.415 505.343C634.117 504.877 634.37 504.037 634.37 503.046C637.141 504.273 638.413 502.96 639.26 500.571C639.469 499.986 640.437 499.698 641.36 499.067H641.367Z" fill="#FFFAEE"/>
<path d="M693.562 489.588C693.638 490.251 693.714 490.914 693.796 491.643C693.404 491.794 693.081 491.859 692.822 492.03C692.43 492.299 692.088 492.647 691.728 492.962C692.17 493.31 692.569 493.855 693.062 493.973C694.732 494.354 696.428 494.584 698.117 494.872C698.085 495.161 698.06 495.444 698.028 495.732C695.346 495.732 692.664 495.759 689.988 495.667C689.811 495.667 689.665 494.715 689.887 494.203C687.084 490.671 684.282 487.133 680.948 482.938C682.144 482.938 683.067 482.649 683.403 482.984C685.18 484.783 686.92 486.647 688.451 488.669C689.982 490.697 691.873 489.595 693.638 489.68L693.556 489.588H693.562Z" fill="#FFFAEE"/>
<path d="M725.673 531.74C725.78 530.88 725.698 530.269 725.9 530.131C728.564 528.392 731.132 526.376 734.01 525.149C736.136 524.243 737.977 523.843 737.825 520.869C737.736 519.162 737.964 519.149 739.527 519.162C740.349 520.481 741.064 521.617 742 523.12C736.345 525.149 732.138 530.276 725.673 531.74Z" fill="#FFFAEE"/>
<path d="M593.517 436.015C593.283 435.279 592.663 434.314 592.91 433.855C593.245 433.225 594.245 432.982 594.681 432.732C596.022 435.076 597.155 437.052 598.54 439.481C597.699 441.45 595.523 440.269 592.973 440.649C593.808 439.205 594.346 438.286 595.042 437.078C594.681 436.829 594.061 436.395 593.441 435.962L593.517 436.028V436.015Z" fill="#FFFAEE"/>
<path d="M705.562 493.737C705.328 493.101 705.088 492.457 704.645 491.262C704.259 492.582 704.031 493.35 703.759 494.276C701.843 491.322 702.88 489.188 706.22 488.61V493.698C705.999 493.711 705.784 493.724 705.562 493.737Z" fill="#FFFAEE"/>
<path d="M593.441 435.949C593.055 438.483 591.556 439.678 589.19 439.356C589.45 436.258 590.228 435.654 593.517 436.008L593.441 435.949Z" fill="#FFFAEE"/>
<path d="M714.368 528.917C715.368 528.155 716.304 527.282 717.392 526.704C717.778 526.501 718.524 527.026 719.1 527.216C718.828 527.847 718.701 528.825 718.252 529.028C717.164 529.52 715.918 529.652 714.735 529.934C714.609 529.593 714.488 529.251 714.362 528.917H714.368Z" fill="#FFFAEE"/>
<path d="M668.088 478.782C668.72 479.11 669.353 479.445 670.555 480.075C669.732 481.217 668.98 482.255 668.233 483.298C665.709 481.355 668.094 480.147 668.119 478.729L668.094 478.782H668.088Z" fill="#FFFAEE"/>
<path d="M411.87 436.782C411.87 435.506 412.092 434.378 412.538 433.399C412.983 432.419 413.576 431.603 414.318 430.95C415.031 430.327 415.832 429.852 416.722 429.525C417.642 429.199 418.562 429.036 419.482 429.036C420.402 429.036 421.308 429.199 422.198 429.525C423.118 429.852 423.949 430.327 424.691 430.95C425.403 431.603 425.982 432.419 426.427 433.399C426.873 434.378 427.095 435.506 427.095 436.782V438.385H422.554V436.782C422.554 435.684 422.243 434.882 421.619 434.378C421.026 433.844 420.313 433.577 419.482 433.577C418.651 433.577 417.924 433.844 417.301 434.378C416.707 434.882 416.411 435.684 416.411 436.782V453.521C416.411 454.619 416.707 455.435 417.301 455.969C417.924 456.474 418.651 456.726 419.482 456.726C420.313 456.726 421.026 456.474 421.619 455.969C422.243 455.435 422.554 454.619 422.554 453.521V447.555H418.948V443.549H427.095V453.521C427.095 454.856 426.873 455.999 426.427 456.949C425.982 457.899 425.403 458.685 424.691 459.308C423.949 459.961 423.118 460.451 422.198 460.777C421.308 461.104 420.402 461.267 419.482 461.267C418.562 461.267 417.642 461.104 416.722 460.777C415.832 460.451 415.031 459.961 414.318 459.308C413.576 458.685 412.983 457.899 412.538 456.949C412.092 455.999 411.87 454.856 411.87 453.521V436.782ZM429.311 461V429.303H433.852V456.459H442.845V461H429.311ZM444.008 461V429.303H450.641C452.095 429.303 453.327 429.525 454.336 429.971C455.375 430.416 456.22 431.009 456.873 431.751C457.526 432.493 457.986 433.354 458.254 434.333C458.55 435.283 458.699 436.277 458.699 437.316V438.474C458.699 439.334 458.624 440.061 458.476 440.655C458.357 441.249 458.164 441.768 457.897 442.213C457.393 443.044 456.621 443.757 455.582 444.35C456.651 444.855 457.437 445.597 457.942 446.576C458.446 447.555 458.699 448.891 458.699 450.583V452.363C458.699 455.153 458.016 457.29 456.651 458.774C455.315 460.258 453.164 461 450.196 461H444.008ZM448.548 446.309V456.459H450.507C451.427 456.459 452.14 456.326 452.644 456.058C453.178 455.791 453.579 455.42 453.846 454.945C454.113 454.471 454.277 453.907 454.336 453.254C454.395 452.601 454.425 451.889 454.425 451.117C454.425 450.316 454.38 449.618 454.291 449.025C454.202 448.431 454.024 447.926 453.757 447.511C453.46 447.095 453.06 446.799 452.555 446.621C452.051 446.413 451.383 446.309 450.552 446.309H448.548ZM448.548 433.577V442.302H450.596C452.11 442.302 453.119 441.931 453.624 441.189C454.158 440.418 454.425 439.305 454.425 437.85C454.425 436.426 454.128 435.357 453.535 434.645C452.971 433.933 451.932 433.577 450.418 433.577H448.548ZM461.182 461V429.303H465.723V456.459H474.716V461H461.182ZM412.137 498V466.303H418.859C421.471 466.303 423.445 467.015 424.78 468.44C426.145 469.864 426.828 471.882 426.828 474.494V489.319C426.828 492.287 426.101 494.483 424.647 495.908C423.222 497.303 421.159 498 418.459 498H412.137ZM416.678 470.577V493.726H418.77C420.046 493.726 420.952 493.415 421.486 492.791C422.02 492.138 422.287 491.129 422.287 489.764V474.494C422.287 473.248 422.035 472.283 421.53 471.601C421.026 470.918 420.106 470.577 418.77 470.577H416.678ZM444.002 475.429H439.461V474.405C439.461 473.366 439.209 472.476 438.705 471.734C438.23 470.962 437.414 470.577 436.256 470.577C435.633 470.577 435.128 470.695 434.743 470.933C434.357 471.17 434.045 471.467 433.808 471.823C433.57 472.209 433.407 472.654 433.318 473.159C433.229 473.634 433.184 474.138 433.184 474.672C433.184 475.296 433.199 475.815 433.229 476.23C433.288 476.646 433.407 477.017 433.585 477.343C433.763 477.67 434.015 477.952 434.342 478.189C434.698 478.427 435.173 478.664 435.766 478.902L439.239 480.282C440.248 480.667 441.064 481.127 441.687 481.662C442.311 482.166 442.8 482.76 443.157 483.442C443.483 484.155 443.706 484.971 443.824 485.891C443.943 486.781 444.002 487.805 444.002 488.963C444.002 490.298 443.869 491.545 443.602 492.702C443.335 493.83 442.904 494.795 442.311 495.596C441.687 496.427 440.871 497.08 439.862 497.555C438.853 498.03 437.621 498.267 436.167 498.267C435.069 498.267 434.045 498.074 433.095 497.688C432.146 497.303 431.329 496.768 430.647 496.086C429.964 495.403 429.415 494.617 429 493.726C428.614 492.806 428.421 491.812 428.421 490.743V489.052H432.962V490.476C432.962 491.307 433.199 492.064 433.674 492.747C434.179 493.4 435.01 493.726 436.167 493.726C436.939 493.726 437.532 493.622 437.948 493.415C438.393 493.177 438.734 492.851 438.972 492.435C439.209 492.02 439.343 491.53 439.372 490.966C439.432 490.373 439.461 489.72 439.461 489.007C439.461 488.176 439.432 487.494 439.372 486.959C439.313 486.425 439.194 485.995 439.016 485.668C438.809 485.342 438.527 485.075 438.17 484.867C437.844 484.659 437.399 484.437 436.835 484.199L433.585 482.864C431.626 482.062 430.306 481.009 429.623 479.703C428.97 478.367 428.644 476.705 428.644 474.717C428.644 473.53 428.807 472.402 429.133 471.333C429.46 470.265 429.949 469.345 430.602 468.573C431.226 467.802 432.012 467.193 432.962 466.748C433.941 466.273 435.099 466.036 436.434 466.036C437.562 466.036 438.586 466.243 439.506 466.659C440.456 467.074 441.272 467.624 441.955 468.306C443.32 469.731 444.002 471.363 444.002 473.203V475.429ZM445.349 473.782C445.349 472.506 445.572 471.378 446.017 470.399C446.462 469.419 447.056 468.603 447.798 467.95C448.51 467.327 449.311 466.852 450.202 466.525C451.122 466.199 452.042 466.036 452.962 466.036C453.882 466.036 454.787 466.199 455.677 466.525C456.597 466.852 457.428 467.327 458.17 467.95C458.883 468.603 459.461 469.419 459.907 470.399C460.352 471.378 460.574 472.506 460.574 473.782V475.385H456.033V473.782C456.033 472.684 455.722 471.882 455.099 471.378C454.505 470.844 453.793 470.577 452.962 470.577C452.131 470.577 451.404 470.844 450.78 471.378C450.187 471.882 449.89 472.684 449.89 473.782V490.521C449.89 491.619 450.187 492.435 450.78 492.969C451.404 493.474 452.131 493.726 452.962 493.726C453.793 493.726 454.505 493.474 455.099 492.969C455.722 492.435 456.033 491.619 456.033 490.521V484.555H452.427V480.549H460.574V490.521C460.574 491.856 460.352 492.999 459.907 493.949C459.461 494.899 458.883 495.685 458.17 496.308C457.428 496.961 456.597 497.451 455.677 497.777C454.787 498.104 453.882 498.267 452.962 498.267C452.042 498.267 451.122 498.104 450.202 497.777C449.311 497.451 448.51 496.961 447.798 496.308C447.056 495.685 446.462 494.899 446.017 493.949C445.572 492.999 445.349 491.856 445.349 490.521V473.782ZM462.612 498V466.303H466.975L473.831 485.401H473.92V466.303H478.461V498H474.187L467.242 478.946H467.153V498H462.612ZM412.137 535V503.303H418.859C421.471 503.303 423.445 504.015 424.78 505.44C426.145 506.864 426.828 508.882 426.828 511.494V526.319C426.828 529.287 426.101 531.483 424.647 532.908C423.222 534.303 421.159 535 418.459 535H412.137ZM416.678 507.577V530.726H418.77C420.046 530.726 420.952 530.415 421.486 529.791C422.02 529.138 422.287 528.129 422.287 526.764V511.494C422.287 510.248 422.035 509.283 421.53 508.601C421.026 507.918 420.106 507.577 418.77 507.577H416.678ZM429.311 535V503.303H442.845V507.577H433.852V516.881H441.687V521.155H433.852V530.459H442.845V535H429.311ZM444.008 535V503.303H450.819C452.065 503.303 453.164 503.466 454.113 503.793C455.063 504.119 455.924 504.698 456.695 505.529C457.467 506.36 458.001 507.339 458.298 508.467C458.595 509.565 458.743 511.064 458.743 512.963C458.743 514.388 458.654 515.59 458.476 516.569C458.328 517.549 457.986 518.469 457.452 519.329C456.829 520.368 455.998 521.184 454.959 521.778C453.92 522.342 452.555 522.624 450.863 522.624H448.548V535H444.008ZM448.548 507.577V518.35H450.73C451.65 518.35 452.362 518.217 452.867 517.949C453.371 517.682 453.742 517.311 453.98 516.836C454.217 516.391 454.351 515.842 454.38 515.189C454.44 514.536 454.469 513.809 454.469 513.008C454.469 512.266 454.455 511.568 454.425 510.916C454.395 510.233 454.262 509.639 454.024 509.135C453.787 508.63 453.431 508.244 452.956 507.977C452.481 507.71 451.798 507.577 450.908 507.577H448.548ZM463.339 535V507.577H458.086V503.303H473.133V507.577H467.88V535H463.339Z" fill="#FFFAEE"/>
<g clip-path="url(#clip0_113_71)">
<path d="M411.601 554H410.023V576.067H411.601V554Z" fill="#FFFAEE"/>
<path d="M415.062 554H413.483V576.067H415.062V554Z" fill="#FFFAEE"/>
<path d="M418.514 554H416.936V576.067H418.514V554Z" fill="#FFFAEE"/>
<path d="M421.975 554H420.396V576.067H421.975V554Z" fill="#FFFAEE"/>
<path d="M425.428 554H423.849V576.067H425.428V554Z" fill="#FFFAEE"/>
<path d="M427.879 576.067H428.752V554H427.879V576.067Z" fill="#FFFAEE"/>
<path d="M430.193 576.067H431.066V554H430.193V576.067Z" fill="#FFFAEE"/>
<path d="M432.91 576.067H433.783V554H432.91V576.067Z" fill="#FFFAEE"/>
<path d="M599.549 576.067H624.25V554H599.549V576.067Z" fill="#FFFAEE"/>
<path d="M570.553 576.067H595.254V554H570.553V576.067Z" fill="#FFFAEE"/>
<path d="M545.86 576.067H566.266V554H545.86V576.067Z" fill="#FFFAEE"/>
<path d="M528.945 576.067H541.564V554H528.945V576.067Z" fill="#FFFAEE"/>
<path d="M518.214 576.067H524.52V554H518.214V576.067Z" fill="#FFFAEE"/>
<path d="M507.476 576.067H513.782V554H507.476V576.067Z" fill="#FFFAEE"/>
<path d="M496.738 576.067H503.044V554H496.738V576.067Z" fill="#FFFAEE"/>
<path d="M489.15 576.067H492.307V554H489.15V576.067Z" fill="#FFFAEE"/>
<path d="M484.118 576.067H487.275V554H484.118V576.067Z" fill="#FFFAEE"/>
<path d="M479.079 576.067H482.236V554H479.079V576.067Z" fill="#FFFAEE"/>
<path d="M474.056 576.067H477.213V554H474.056V576.067Z" fill="#FFFAEE"/>
<path d="M469.017 576.067H472.174V554H469.017V576.067Z" fill="#FFFAEE"/>
<path d="M465.557 576.067H467.135V554H465.557V576.067Z" fill="#FFFAEE"/>
<path d="M462.104 576.067H463.682V554H462.104V576.067Z" fill="#FFFAEE"/>
<path d="M458.643 576.067H460.222V554H458.643V576.067Z" fill="#FFFAEE"/>
<path d="M455.198 576.067H456.776V554H455.198V576.067Z" fill="#FFFAEE"/>
<path d="M451.738 576.067H453.316V554H451.738V576.067Z" fill="#FFFAEE"/>
<path d="M449.286 554H448.414V576.067H449.286V554Z" fill="#FFFAEE"/>
<path d="M446.972 554H446.099V576.067H446.972V554Z" fill="#FFFAEE"/>
<path d="M444.255 554H443.382V576.067H444.255V554Z" fill="#FFFAEE"/>
<path d="M440.901 554H440.028V576.067H440.901V554Z" fill="#FFFAEE"/>
<path d="M437.342 554H436.469V576.067H437.342V554Z" fill="#FFFAEE"/>
</g>
<path d="M633.15 576C632.949 576 632.807 575.96 632.727 575.879C632.646 575.798 632.605 575.717 632.605 575.637C632.605 575.435 632.757 575.304 633.06 575.243L633.544 575.152C634.19 575.031 634.694 574.839 635.058 574.577C635.441 574.295 635.764 573.851 636.026 573.245L639.054 566.04C639.155 565.818 639.215 565.596 639.236 565.374C639.276 565.132 639.236 564.879 639.114 564.617L635.33 556.231C635.128 555.767 634.906 555.454 634.664 555.292C634.442 555.131 634.2 555.03 633.938 554.99L633.362 554.899C633.039 554.838 632.878 554.707 632.878 554.505C632.878 554.304 633.05 554.203 633.393 554.203H638.721C639.084 554.203 639.266 554.304 639.266 554.505C639.266 554.707 639.094 554.838 638.751 554.899L638.176 554.99C637.833 555.05 637.591 555.171 637.449 555.353C637.328 555.535 637.359 555.827 637.54 556.231L640.416 562.679C640.497 562.861 640.588 562.952 640.689 562.952C640.81 562.952 640.911 562.861 640.991 562.679L643.595 556.534C643.777 556.09 643.837 555.767 643.777 555.565C643.716 555.343 643.514 555.192 643.171 555.111L642.323 554.929C641.98 554.848 641.809 554.707 641.809 554.505C641.809 554.304 641.99 554.203 642.354 554.203H646.986C647.208 554.203 647.349 554.243 647.41 554.324C647.49 554.384 647.531 554.465 647.531 554.566C647.531 554.768 647.379 554.899 647.077 554.959L646.592 555.05C646.088 555.131 645.664 555.323 645.321 555.625C644.978 555.908 644.675 556.352 644.412 556.958L641.536 563.678C641.435 563.941 641.375 564.193 641.355 564.435C641.355 564.677 641.425 564.94 641.567 565.222L645.472 573.972C645.694 574.456 645.916 574.769 646.138 574.91C646.38 575.051 646.622 575.142 646.865 575.183L647.44 575.273C647.783 575.334 647.954 575.475 647.954 575.697C647.954 575.899 647.773 576 647.41 576H642.051C641.688 576 641.506 575.879 641.506 575.637C641.506 575.455 641.668 575.334 641.99 575.273L642.596 575.183C642.939 575.142 643.181 575.031 643.323 574.85C643.464 574.648 643.454 574.355 643.292 573.972L640.174 567.039C640.093 566.857 639.992 566.766 639.871 566.766C639.77 566.766 639.68 566.857 639.599 567.039L636.874 573.669C636.692 574.113 636.632 574.446 636.692 574.668C636.753 574.87 636.955 575.011 637.298 575.092L638.146 575.273C638.489 575.354 638.66 575.495 638.66 575.697C638.66 575.899 638.479 576 638.115 576H633.15ZM647.192 576C646.889 576 646.738 575.889 646.738 575.667C646.738 575.485 646.869 575.364 647.131 575.304L647.828 575.183C648.252 575.102 648.524 574.991 648.645 574.85C648.786 574.708 648.857 574.426 648.857 574.002V556.201C648.857 555.777 648.786 555.494 648.645 555.353C648.524 555.212 648.252 555.101 647.828 555.02L647.131 554.899C646.869 554.838 646.738 554.717 646.738 554.536C646.738 554.314 646.889 554.203 647.192 554.203H652.672C652.974 554.203 653.126 554.314 653.126 554.536C653.126 554.717 652.995 554.838 652.732 554.899L652.036 555.02C651.612 555.101 651.329 555.212 651.188 555.353C651.067 555.494 651.007 555.777 651.007 556.201V574.002C651.007 574.426 651.067 574.708 651.188 574.85C651.329 574.991 651.612 575.102 652.036 575.183L652.732 575.304C652.995 575.364 653.126 575.485 653.126 575.667C653.126 575.889 652.974 576 652.672 576H647.192ZM659.423 576.303C659.343 576.303 659.252 576.272 659.151 576.212C659.05 576.151 658.979 576.02 658.939 575.818L654.156 556.625C654.014 556.059 653.853 555.666 653.671 555.444C653.51 555.222 653.227 555.07 652.824 554.99L652.37 554.899C652.087 554.838 651.946 554.707 651.946 554.505C651.946 554.304 652.097 554.203 652.4 554.203H657.577C657.859 554.203 658.001 554.314 658.001 554.536C658.001 554.758 657.829 554.879 657.486 554.899L656.911 554.959C656.568 554.98 656.346 555.091 656.245 555.292C656.164 555.474 656.174 555.787 656.275 556.231L659.787 570.793C659.827 570.914 659.888 570.974 659.968 570.974C660.069 570.974 660.13 570.914 660.15 570.793L663.632 556.867C663.914 555.716 663.611 555.081 662.723 554.959L662.269 554.899C661.926 554.838 661.755 554.717 661.755 554.536C661.755 554.314 661.896 554.203 662.178 554.203H666.417C666.72 554.203 666.871 554.304 666.871 554.505C666.871 554.707 666.73 554.838 666.447 554.899L665.993 554.99C665.609 555.07 665.307 555.272 665.085 555.595C664.883 555.898 664.711 556.332 664.57 556.897L659.878 575.818C659.837 576.02 659.767 576.151 659.666 576.212C659.585 576.272 659.504 576.303 659.423 576.303Z" fill="#FFFAEE"/>
<path fill-rule="evenodd" clip-rule="evenodd" d="M723.879 572.854V576.052C723.529 576.085 723.173 576.104 722.808 576.104C716.857 576.104 712 571.255 712 565.313C712 559.372 716.857 554.527 722.808 554.527C723.168 554.527 723.529 554.546 723.879 554.579V557.777C723.529 557.725 723.173 557.702 722.808 557.702C718.605 557.702 715.179 561.127 715.179 565.313C715.179 569.5 718.61 572.925 722.808 572.925C723.168 572.925 723.529 572.897 723.879 572.849V572.854Z" fill="#FFFAEE"/>
<path fill-rule="evenodd" clip-rule="evenodd" d="M728.485 563.667H734.726V566.964H728.485C729.243 570.37 732.295 572.93 735.929 572.93C736.289 572.93 736.649 572.901 737 572.854V576.052C736.645 576.085 736.289 576.104 735.929 576.104C729.973 576.104 725.126 571.255 725.126 565.318C725.126 559.381 729.973 554.527 735.929 554.527C736.289 554.527 736.649 554.546 737 554.579V557.777C736.645 557.725 736.289 557.702 735.929 557.702C732.295 557.702 729.239 560.261 728.485 563.667Z" fill="#FFFAEE"/>
<path d="M689.5 553C683.158 553 678 558.157 678 564.5C678 570.843 683.158 576 689.5 576C695.842 576 701 570.843 701 564.5C701 558.157 695.842 553 689.5 553ZM688.992 554.877V559.184C687.961 559.166 686.962 559.09 686.021 558.967C686.991 557.162 688.203 555.719 688.992 554.877ZM688.992 560.367V563.911H684.502C684.59 562.554 684.964 561.26 685.481 560.081C686.585 560.251 687.771 560.348 688.995 560.37L688.992 560.367ZM688.992 565.089V568.633C687.768 568.655 686.582 568.753 685.478 568.923C684.964 567.744 684.587 566.449 684.502 565.093H688.992V565.089ZM688.992 569.812V574.123C688.203 573.281 686.988 571.838 686.018 570.033C686.959 569.906 687.961 569.831 688.992 569.812ZM690.011 574.119V569.812C691.034 569.831 692.033 569.91 692.979 570.04C692.009 571.841 690.8 573.281 690.011 574.123V574.119ZM690.011 568.63V565.086H694.501C694.413 566.446 694.039 567.74 693.522 568.919C692.418 568.749 691.235 568.648 690.011 568.626V568.63ZM690.011 563.907V560.363C691.235 560.341 692.418 560.24 693.522 560.07C694.039 561.249 694.416 562.547 694.501 563.903H690.011V563.907ZM690.011 559.184V554.877C690.8 555.719 692.009 557.159 692.979 558.96C692.033 559.09 691.034 559.166 690.011 559.188V559.184ZM690.966 554.284C693.537 554.638 695.812 555.918 697.433 557.766C696.534 558.193 695.383 558.537 694.089 558.779C693.122 556.837 691.869 555.271 690.966 554.284ZM684.908 558.79C683.614 558.547 682.469 558.204 681.561 557.774C683.182 555.918 685.46 554.638 688.037 554.28C687.134 555.271 685.878 556.841 684.911 558.786L684.908 558.79ZM684.415 559.889C683.915 561.122 683.556 562.475 683.477 563.907H679.037C679.148 561.983 679.796 560.2 680.836 558.699C681.791 559.198 683.015 559.603 684.415 559.889ZM683.477 565.089C683.556 566.522 683.915 567.874 684.415 569.107C683.018 569.393 681.794 569.794 680.836 570.297C679.796 568.796 679.148 567.013 679.037 565.089H683.474H683.477ZM684.908 570.207C685.878 572.152 687.131 573.722 688.034 574.713C685.457 574.355 683.179 573.074 681.558 571.219C682.469 570.789 683.611 570.445 684.905 570.203L684.908 570.207ZM694.086 570.217C695.383 570.46 696.531 570.807 697.431 571.23C695.809 573.078 693.534 574.358 690.963 574.713C691.866 573.722 693.116 572.156 694.086 570.217ZM694.585 569.111C695.088 567.874 695.447 566.522 695.526 565.086H699.963C699.852 567.013 699.201 568.8 698.158 570.304C697.206 569.802 695.982 569.397 694.585 569.111ZM695.526 563.907C695.447 562.475 695.088 561.119 694.585 559.882C695.982 559.596 697.203 559.191 698.158 558.689C699.201 560.193 699.852 561.979 699.963 563.907H695.526Z" fill="#FFFAEE"/>
<path d="M467 614H764V566H743" stroke="#FFFAEE" stroke-linecap="round" stroke-dasharray="2 8"/>
<path d="M410.53 603V601.686H414.13V591.552H414.004L410.836 594.504L409.954 593.55L413.284 590.436H415.642V601.686H418.954V603H410.53ZM429.441 595.044C429.441 595.98 429.297 596.862 429.009 597.69C428.733 598.506 428.373 599.256 427.929 599.94C427.485 600.612 426.993 601.212 426.453 601.74C425.925 602.256 425.403 602.676 424.887 603H422.943C423.627 602.508 424.233 602.028 424.761 601.56C425.301 601.092 425.775 600.606 426.183 600.102C426.591 599.586 426.933 599.04 427.209 598.464C427.485 597.876 427.713 597.216 427.893 596.484L427.803 596.448C427.491 596.964 427.089 597.396 426.597 597.744C426.117 598.08 425.487 598.248 424.707 598.248C424.155 598.248 423.645 598.158 423.177 597.978C422.721 597.798 422.325 597.54 421.989 597.204C421.665 596.868 421.407 596.466 421.215 595.998C421.035 595.518 420.945 594.978 420.945 594.378C420.945 593.766 421.041 593.208 421.233 592.704C421.437 592.188 421.725 591.75 422.097 591.39C422.469 591.018 422.913 590.73 423.429 590.526C423.957 590.322 424.539 590.22 425.175 590.22C425.835 590.22 426.429 590.334 426.957 590.562C427.485 590.778 427.929 591.096 428.289 591.516C428.661 591.924 428.943 592.428 429.135 593.028C429.339 593.628 429.441 594.3 429.441 595.044ZM425.193 597.006C426.057 597.006 426.723 596.772 427.191 596.304C427.671 595.836 427.911 595.176 427.911 594.324V594.18C427.911 593.328 427.671 592.668 427.191 592.2C426.723 591.732 426.057 591.498 425.193 591.498C424.329 591.498 423.657 591.732 423.177 592.2C422.709 592.668 422.475 593.328 422.475 594.18V594.324C422.475 595.176 422.709 595.836 423.177 596.304C423.657 596.772 424.329 597.006 425.193 597.006ZM440.252 603H431.864V601.452L436.058 597.672C436.67 597.12 437.174 596.556 437.57 595.98C437.966 595.392 438.164 594.774 438.164 594.126V593.91C438.164 593.154 437.966 592.572 437.57 592.164C437.174 591.744 436.586 591.534 435.806 591.534C435.038 591.534 434.444 591.732 434.024 592.128C433.616 592.512 433.31 593.028 433.106 593.676L431.756 593.172C431.876 592.8 432.038 592.44 432.242 592.092C432.458 591.732 432.728 591.414 433.052 591.138C433.376 590.862 433.766 590.64 434.222 590.472C434.69 590.304 435.23 590.22 435.842 590.22C436.466 590.22 437.018 590.31 437.498 590.49C437.99 590.67 438.398 590.922 438.722 591.246C439.058 591.57 439.31 591.954 439.478 592.398C439.658 592.842 439.748 593.328 439.748 593.856C439.748 594.336 439.676 594.786 439.532 595.206C439.4 595.626 439.208 596.028 438.956 596.412C438.716 596.796 438.422 597.174 438.074 597.546C437.738 597.906 437.36 598.266 436.94 598.626L433.43 601.686H440.252V603ZM446.779 603.216C446.011 603.216 445.351 603.072 444.799 602.784C444.247 602.484 443.791 602.058 443.431 601.506C443.071 600.954 442.807 600.276 442.639 599.472C442.471 598.668 442.387 597.75 442.387 596.718C442.387 595.698 442.471 594.786 442.639 593.982C442.807 593.166 443.071 592.482 443.431 591.93C443.791 591.378 444.247 590.958 444.799 590.67C445.351 590.37 446.011 590.22 446.779 590.22C447.547 590.22 448.207 590.37 448.759 590.67C449.311 590.958 449.767 591.378 450.127 591.93C450.487 592.482 450.751 593.166 450.919 593.982C451.087 594.786 451.171 595.698 451.171 596.718C451.171 597.75 451.087 598.668 450.919 599.472C450.751 600.276 450.487 600.954 450.127 601.506C449.767 602.058 449.311 602.484 448.759 602.784C448.207 603.072 447.547 603.216 446.779 603.216ZM446.779 601.902C447.283 601.902 447.715 601.806 448.075 601.614C448.435 601.41 448.723 601.128 448.939 600.768C449.167 600.408 449.335 599.976 449.443 599.472C449.551 598.956 449.605 598.38 449.605 597.744V595.692C449.605 595.068 449.551 594.498 449.443 593.982C449.335 593.466 449.167 593.028 448.939 592.668C448.723 592.308 448.435 592.032 448.075 591.84C447.715 591.636 447.283 591.534 446.779 591.534C446.275 591.534 445.843 591.636 445.483 591.84C445.123 592.032 444.829 592.308 444.601 592.668C444.385 593.028 444.223 593.466 444.115 593.982C444.007 594.498 443.953 595.068 443.953 595.692V597.744C443.953 598.38 444.007 598.956 444.115 599.472C444.223 599.976 444.385 600.408 444.601 600.768C444.829 601.128 445.123 601.41 445.483 601.614C445.843 601.806 446.275 601.902 446.779 601.902ZM446.779 597.78C446.359 597.78 446.065 597.696 445.897 597.528C445.741 597.36 445.663 597.156 445.663 596.916V596.52C445.663 596.28 445.741 596.076 445.897 595.908C446.065 595.74 446.359 595.656 446.779 595.656C447.199 595.656 447.487 595.74 447.643 595.908C447.811 596.076 447.895 596.28 447.895 596.52V596.916C447.895 597.156 447.811 597.36 447.643 597.528C447.487 597.696 447.199 597.78 446.779 597.78ZM464.585 605.484L470.849 589.32H472.145L465.881 605.484H464.585ZM494.199 595.044C494.199 595.98 494.055 596.862 493.767 597.69C493.491 598.506 493.131 599.256 492.687 599.94C492.243 600.612 491.751 601.212 491.211 601.74C490.683 602.256 490.161 602.676 489.645 603H487.701C488.385 602.508 488.991 602.028 489.519 601.56C490.059 601.092 490.533 600.606 490.941 600.102C491.349 599.586 491.691 599.04 491.967 598.464C492.243 597.876 492.471 597.216 492.651 596.484L492.561 596.448C492.249 596.964 491.847 597.396 491.355 597.744C490.875 598.08 490.245 598.248 489.465 598.248C488.913 598.248 488.403 598.158 487.935 597.978C487.479 597.798 487.083 597.54 486.747 597.204C486.423 596.868 486.165 596.466 485.973 595.998C485.793 595.518 485.703 594.978 485.703 594.378C485.703 593.766 485.799 593.208 485.991 592.704C486.195 592.188 486.483 591.75 486.855 591.39C487.227 591.018 487.671 590.73 488.187 590.526C488.715 590.322 489.297 590.22 489.933 590.22C490.593 590.22 491.187 590.334 491.715 590.562C492.243 590.778 492.687 591.096 493.047 591.516C493.419 591.924 493.701 592.428 493.893 593.028C494.097 593.628 494.199 594.3 494.199 595.044ZM489.951 597.006C490.815 597.006 491.481 596.772 491.949 596.304C492.429 595.836 492.669 595.176 492.669 594.324V594.18C492.669 593.328 492.429 592.668 491.949 592.2C491.481 591.732 490.815 591.498 489.951 591.498C489.087 591.498 488.415 591.732 487.935 592.2C487.467 592.668 487.233 593.328 487.233 594.18V594.324C487.233 595.176 487.467 595.836 487.935 596.304C488.415 596.772 489.087 597.006 489.951 597.006ZM500.744 603.162C500.252 603.162 499.904 603.06 499.7 602.856C499.508 602.652 499.412 602.394 499.412 602.082V601.758C499.412 601.446 499.508 601.188 499.7 600.984C499.904 600.78 500.252 600.678 500.744 600.678C501.236 600.678 501.578 600.78 501.77 600.984C501.974 601.188 502.076 601.446 502.076 601.758V602.082C502.076 602.394 501.974 602.652 501.77 602.856C501.578 603.06 501.236 603.162 500.744 603.162ZM500.744 596.034C500.252 596.034 499.904 595.932 499.7 595.728C499.508 595.524 499.412 595.266 499.412 594.954V594.63C499.412 594.318 499.508 594.06 499.7 593.856C499.904 593.652 500.252 593.55 500.744 593.55C501.236 593.55 501.578 593.652 501.77 593.856C501.974 594.06 502.076 594.318 502.076 594.63V594.954C502.076 595.266 501.974 595.524 501.77 595.728C501.578 595.932 501.236 596.034 500.744 596.034ZM507.667 603V601.686H511.267V591.552H511.141L507.973 594.504L507.091 593.55L510.421 590.436H512.779V601.686H516.091V603H507.667ZM522.348 603.216C521.688 603.216 521.094 603.108 520.566 602.892C520.038 602.664 519.588 602.346 519.216 601.938C518.856 601.518 518.574 601.008 518.37 600.408C518.178 599.808 518.082 599.136 518.082 598.392C518.082 597.456 518.22 596.58 518.496 595.764C518.784 594.936 519.144 594.186 519.576 593.514C520.02 592.83 520.512 592.23 521.052 591.714C521.592 591.186 522.12 590.76 522.636 590.436H524.58C523.896 590.928 523.284 591.408 522.744 591.876C522.216 592.344 521.748 592.836 521.34 593.352C520.932 593.856 520.59 594.402 520.314 594.99C520.038 595.566 519.81 596.22 519.63 596.952L519.72 596.988C520.02 596.472 520.416 596.046 520.908 595.71C521.4 595.362 522.036 595.188 522.816 595.188C523.368 595.188 523.872 595.278 524.328 595.458C524.784 595.638 525.18 595.896 525.516 596.232C525.852 596.568 526.11 596.976 526.29 597.456C526.482 597.936 526.578 598.47 526.578 599.058C526.578 599.67 526.476 600.234 526.272 600.75C526.068 601.254 525.78 601.692 525.408 602.064C525.048 602.424 524.604 602.706 524.076 602.91C523.56 603.114 522.984 603.216 522.348 603.216ZM522.33 601.938C523.194 601.938 523.86 601.704 524.328 601.236C524.808 600.768 525.048 600.108 525.048 599.256V599.112C525.048 598.26 524.808 597.6 524.328 597.132C523.86 596.664 523.194 596.43 522.33 596.43C521.466 596.43 520.794 596.664 520.314 597.132C519.846 597.6 519.612 598.26 519.612 599.112V599.256C519.612 600.108 519.846 600.768 520.314 601.236C520.794 601.704 521.466 601.938 522.33 601.938ZM540.136 605.484L546.4 589.32H547.696L541.432 605.484H540.136ZM561.632 603V601.686H565.232V591.552H565.106L561.938 594.504L561.056 593.55L564.386 590.436H566.744V601.686H570.056V603H561.632ZM592.038 603H590.328L588.834 600.498L587.178 597.762H587.106L585.396 600.498L583.812 603H582.156L586.26 596.592L582.39 590.436H584.1L585.558 592.866L587.124 595.404H587.196L588.744 592.866L590.256 590.436H591.912L588.024 596.574L592.038 603ZM604.803 603V601.686H608.403V591.552H608.277L605.109 594.504L604.227 593.55L607.557 590.436H609.915V601.686H613.227V603H604.803Z" fill="#FFFAEE"/>
<path d="M415.53 394.879L410.379 402.258L410.182 401.818H417.606V402.606H409.652V401.848L414.955 394.288H416.106V405H415.212V394.773L415.53 394.879ZM427.127 405.152C426.248 405.152 425.531 404.955 424.975 404.561C424.43 404.157 424.031 403.551 423.778 402.742C423.526 401.924 423.399 400.889 423.399 399.636C423.399 398.384 423.526 397.354 423.778 396.545C424.041 395.737 424.445 395.136 424.99 394.742C425.546 394.338 426.258 394.136 427.127 394.136C428.005 394.136 428.717 394.338 429.263 394.742C429.818 395.136 430.222 395.737 430.475 396.545C430.738 397.354 430.869 398.384 430.869 399.636C430.869 400.879 430.738 401.909 430.475 402.727C430.222 403.545 429.818 404.157 429.263 404.561C428.717 404.955 428.005 405.152 427.127 405.152ZM427.127 404.364C428.157 404.364 428.889 403.975 429.324 403.197C429.758 402.419 429.975 401.232 429.975 399.636C429.975 398.04 429.758 396.859 429.324 396.091C428.889 395.313 428.157 394.924 427.127 394.924C426.106 394.924 425.379 395.313 424.945 396.091C424.51 396.859 424.293 398.04 424.293 399.636C424.293 401.232 424.505 402.419 424.93 403.197C425.364 403.975 426.096 404.364 427.127 404.364ZM439.259 399.212C438.482 399.212 437.871 398.97 437.426 398.485C436.992 397.99 436.775 397.379 436.775 396.652C436.775 395.914 436.992 395.303 437.426 394.818C437.871 394.333 438.482 394.091 439.259 394.091C440.047 394.091 440.658 394.333 441.093 394.818C441.537 395.303 441.759 395.914 441.759 396.652C441.759 397.379 441.537 397.99 441.093 398.485C440.658 398.97 440.047 399.212 439.259 399.212ZM439.259 398.545C439.825 398.545 440.259 398.369 440.563 398.015C440.876 397.652 441.032 397.197 441.032 396.652C441.032 396.116 440.876 395.672 440.563 395.318C440.259 394.955 439.825 394.773 439.259 394.773C438.704 394.773 438.27 394.955 437.956 395.318C437.653 395.672 437.502 396.116 437.502 396.652C437.502 397.197 437.653 397.652 437.956 398.015C438.27 398.369 438.704 398.545 439.259 398.545ZM461.56 394.879L456.408 402.258L456.211 401.818H463.635V402.606H455.681V401.848L460.984 394.288H462.135V405H461.241V394.773L461.56 394.879ZM475.201 394.879L470.05 402.258L469.853 401.818H477.277V402.606H469.322V401.848L474.625 394.288H475.777V405H474.883V394.773L475.201 394.879ZM484.313 397.333H483.601V393.409H484.419L484.313 397.333ZM504.763 394.879L499.611 402.258L499.414 401.818H506.838V402.606H498.884V401.848L504.187 394.288H505.338V405H504.444V394.773L504.763 394.879ZM516.359 405.152C515.48 405.152 514.763 404.955 514.207 404.561C513.662 404.157 513.263 403.551 513.01 402.742C512.758 401.924 512.632 400.889 512.632 399.636C512.632 398.384 512.758 397.354 513.01 396.545C513.273 395.737 513.677 395.136 514.223 394.742C514.778 394.338 515.49 394.136 516.359 394.136C517.238 394.136 517.95 394.338 518.495 394.742C519.051 395.136 519.455 395.737 519.707 396.545C519.97 397.354 520.101 398.384 520.101 399.636C520.101 400.879 519.97 401.909 519.707 402.727C519.455 403.545 519.051 404.157 518.495 404.561C517.95 404.955 517.238 405.152 516.359 405.152ZM516.359 404.364C517.389 404.364 518.122 403.975 518.556 403.197C518.99 402.419 519.207 401.232 519.207 399.636C519.207 398.04 518.99 396.859 518.556 396.091C518.122 395.313 517.389 394.924 516.359 394.924C515.339 394.924 514.611 395.313 514.177 396.091C513.743 396.859 513.526 398.04 513.526 399.636C513.526 401.232 513.738 402.419 514.162 403.197C514.596 403.975 515.329 404.364 516.359 404.364ZM527.295 397.333H526.568V393.409H527.416L527.295 397.333ZM529.901 397.333H529.174V393.409H530.022L529.901 397.333ZM553.211 405H552.195L546.211 395.803H546.089V405H545.195V394.288H546.226L552.195 403.47H552.317V394.288H553.211V405ZM560.439 407.348H559.651L560.348 403.591H561.545L560.439 407.348ZM582.058 394.652L582.286 395.076H575.998V394.288H582.816V395L577.831 405H576.846L582.058 394.652ZM592.202 405.152C591.505 405.152 590.894 405.045 590.369 404.833C589.854 404.621 589.45 404.298 589.157 403.864C588.864 403.429 588.697 402.884 588.657 402.227H589.642C589.662 402.702 589.778 403.101 589.99 403.424C590.212 403.737 590.51 403.975 590.884 404.136C591.258 404.288 591.702 404.364 592.217 404.364C593.005 404.364 593.642 404.152 594.126 403.727C594.611 403.293 594.854 402.672 594.854 401.864C594.854 401.086 594.616 400.48 594.142 400.045C593.677 399.611 593.025 399.394 592.187 399.394H591.005L590.99 398.742L594.642 394.727L594.717 395.076H589.096V394.288H595.505V395.015L592.005 398.848V398.621C592.753 398.611 593.369 398.707 593.854 398.909C594.339 399.101 594.717 399.364 594.99 399.697C595.273 400.02 595.47 400.374 595.581 400.758C595.702 401.131 595.763 401.5 595.763 401.864C595.763 402.571 595.616 403.172 595.323 403.667C595.03 404.152 594.616 404.52 594.081 404.773C593.556 405.025 592.929 405.152 592.202 405.152ZM604.319 399.212C603.541 399.212 602.93 398.97 602.486 398.485C602.052 397.99 601.834 397.379 601.834 396.652C601.834 395.914 602.052 395.303 602.486 394.818C602.93 394.333 603.541 394.091 604.319 394.091C605.107 394.091 605.718 394.333 606.153 394.818C606.597 395.303 606.819 395.914 606.819 396.652C606.819 397.379 606.597 397.99 606.153 398.485C605.718 398.97 605.107 399.212 604.319 399.212ZM604.319 398.545C604.885 398.545 605.319 398.369 605.622 398.015C605.935 397.652 606.092 397.197 606.092 396.652C606.092 396.116 605.935 395.672 605.622 395.318C605.319 394.955 604.885 394.773 604.319 394.773C603.764 394.773 603.329 394.955 603.016 395.318C602.713 395.672 602.562 396.116 602.562 396.652C602.562 397.197 602.713 397.652 603.016 398.015C603.329 398.369 603.764 398.545 604.319 398.545ZM624.604 405.152C623.917 405.152 623.321 405.045 622.816 404.833C622.311 404.611 621.917 404.293 621.634 403.879C621.352 403.465 621.19 402.965 621.15 402.379H622.074C622.114 403.035 622.357 403.53 622.801 403.864C623.246 404.197 623.847 404.364 624.604 404.364C625.503 404.364 626.16 404.116 626.574 403.621C626.998 403.116 627.21 402.495 627.21 401.758C627.21 401.263 627.124 400.818 626.953 400.424C626.791 400.02 626.523 399.702 626.15 399.47C625.776 399.227 625.276 399.106 624.65 399.106C624.104 399.096 623.634 399.197 623.241 399.409C622.857 399.611 622.549 399.899 622.316 400.273H621.362L622.074 394.288H627.589V395.076H622.862L622.362 399.333H622.407C622.609 399.01 622.902 398.763 623.286 398.591C623.67 398.409 624.099 398.318 624.574 398.318C625.352 398.318 625.998 398.47 626.513 398.773C627.039 399.076 627.432 399.485 627.695 400C627.968 400.505 628.104 401.081 628.104 401.727C628.104 402.394 627.963 402.985 627.68 403.5C627.397 404.015 626.993 404.419 626.468 404.712C625.953 405.005 625.331 405.152 624.604 405.152ZM637.845 405.152C636.562 405.152 635.623 404.894 635.027 404.379C634.441 403.864 634.148 403.146 634.148 402.227C634.158 401.732 634.249 401.288 634.421 400.894C634.603 400.5 634.855 400.177 635.178 399.924C635.512 399.672 635.89 399.51 636.315 399.439V399.379C635.759 399.237 635.325 398.949 635.012 398.515C634.709 398.071 634.557 397.535 634.557 396.909C634.557 396.374 634.673 395.899 634.906 395.485C635.148 395.061 635.512 394.732 635.996 394.5C636.491 394.258 637.108 394.136 637.845 394.136C638.582 394.136 639.193 394.258 639.678 394.5C640.163 394.732 640.522 395.061 640.754 395.485C640.996 395.899 641.113 396.374 641.103 396.909C641.092 397.525 640.936 398.056 640.633 398.5C640.33 398.944 639.9 399.237 639.345 399.379V399.439C639.769 399.51 640.148 399.672 640.481 399.924C640.815 400.177 641.072 400.5 641.254 400.894C641.446 401.288 641.542 401.732 641.542 402.227C641.542 402.843 641.411 403.369 641.148 403.803C640.885 404.237 640.481 404.571 639.936 404.803C639.39 405.035 638.693 405.152 637.845 405.152ZM637.845 404.364C638.815 404.364 639.527 404.162 639.981 403.758C640.436 403.354 640.663 402.803 640.663 402.106C640.663 401.419 640.421 400.874 639.936 400.47C639.451 400.066 638.754 399.864 637.845 399.864C636.926 399.864 636.224 400.066 635.739 400.47C635.264 400.874 635.027 401.419 635.027 402.106C635.027 402.803 635.254 403.354 635.709 403.758C636.163 404.162 636.875 404.364 637.845 404.364ZM637.845 399.076C638.633 399.076 639.229 398.894 639.633 398.53C640.047 398.157 640.254 397.652 640.254 397.015C640.254 396.369 640.052 395.859 639.648 395.485C639.254 395.111 638.653 394.924 637.845 394.924C637.027 394.924 636.421 395.111 636.027 395.485C635.633 395.859 635.436 396.369 635.436 397.015C635.436 397.652 635.638 398.157 636.042 398.53C636.446 398.894 637.047 399.076 637.845 399.076ZM648.692 397.333H647.98V393.409H648.798L648.692 397.333ZM669.142 394.879L663.99 402.258L663.793 401.818H671.218V402.606H663.263V401.848L668.566 394.288H669.718V405H668.824V394.773L669.142 394.879ZM677.117 404.258L680.784 400.333C681.248 399.838 681.627 399.404 681.92 399.03C682.213 398.646 682.43 398.293 682.571 397.97C682.723 397.636 682.799 397.298 682.799 396.955C682.799 396.298 682.587 395.798 682.162 395.455C681.738 395.101 681.172 394.924 680.465 394.924C679.758 394.924 679.177 395.136 678.723 395.561C678.268 395.975 678.051 396.545 678.071 397.273H677.193C677.182 396.616 677.319 396.056 677.602 395.591C677.885 395.126 678.278 394.768 678.784 394.515C679.289 394.263 679.864 394.136 680.511 394.136C681.188 394.136 681.758 394.253 682.223 394.485C682.698 394.707 683.061 395.03 683.314 395.455C683.566 395.869 683.693 396.369 683.693 396.955C683.693 397.338 683.627 397.712 683.496 398.076C683.364 398.429 683.122 398.838 682.768 399.303C682.425 399.758 681.925 400.333 681.268 401.03L677.814 404.727L677.874 404.212H683.829V405H677.117V404.258ZM691.127 397.333H690.399V393.409H691.248L691.127 397.333ZM693.733 397.333H693.005V393.409H693.854L693.733 397.333ZM708.057 394.288H709.012L711.527 403.848H711.588L714.118 394.288H715.27L717.845 403.848H717.906L720.421 394.288H721.376L718.497 405H717.376L714.754 395.5H714.633L712.042 405H710.906L708.057 394.288Z" fill="#FFFAEE"/>
<path d="M506.227 636.746C505.645 636.746 505.095 636.638 504.579 636.422C504.071 636.206 503.625 635.896 503.24 635.492C502.864 635.088 502.568 634.6 502.352 634.027C502.136 633.454 502.028 632.806 502.028 632.082C502.028 631.368 502.136 630.725 502.352 630.152C502.568 629.569 502.864 629.076 503.24 628.672C503.625 628.268 504.071 627.958 504.579 627.742C505.095 627.526 505.645 627.418 506.227 627.418C506.81 627.418 507.355 627.526 507.862 627.742C508.379 627.958 508.825 628.268 509.201 628.672C509.586 629.076 509.886 629.569 510.102 630.152C510.318 630.725 510.426 631.368 510.426 632.082C510.426 632.806 510.318 633.454 510.102 634.027C509.886 634.6 509.586 635.088 509.201 635.492C508.825 635.896 508.379 636.206 507.862 636.422C507.355 636.638 506.81 636.746 506.227 636.746ZM506.227 636.183C506.735 636.183 507.204 636.089 507.636 635.901C508.078 635.704 508.454 635.436 508.764 635.098C509.083 634.76 509.332 634.365 509.511 633.914C509.689 633.454 509.778 632.961 509.778 632.434V631.73C509.778 631.204 509.689 630.715 509.511 630.264C509.332 629.804 509.083 629.405 508.764 629.067C508.454 628.729 508.078 628.465 507.636 628.278C507.204 628.08 506.735 627.982 506.227 627.982C505.72 627.982 505.246 628.08 504.804 628.278C504.372 628.465 503.996 628.729 503.677 629.067C503.367 629.405 503.123 629.804 502.944 630.264C502.766 630.715 502.676 631.204 502.676 631.73V632.434C502.676 632.961 502.766 633.454 502.944 633.914C503.123 634.365 503.367 634.76 503.677 635.098C503.996 635.436 504.372 635.704 504.804 635.901C505.246 636.089 505.72 636.183 506.227 636.183ZM506.27 634.492C505.64 634.492 505.147 634.28 504.79 633.858C504.433 633.435 504.255 632.843 504.255 632.082C504.255 631.321 504.433 630.729 504.79 630.307C505.156 629.884 505.654 629.673 506.284 629.673C506.706 629.673 507.049 629.767 507.312 629.954C507.585 630.142 507.787 630.391 507.918 630.701L507.383 630.983C507.279 630.758 507.139 630.579 506.96 630.448C506.782 630.316 506.556 630.25 506.284 630.25C505.87 630.25 505.546 630.387 505.311 630.659C505.086 630.922 504.973 631.293 504.973 631.772V632.378C504.973 632.867 505.086 633.247 505.311 633.52C505.546 633.783 505.87 633.914 506.284 633.914C506.584 633.914 506.829 633.844 507.016 633.703C507.204 633.562 507.359 633.374 507.481 633.139L507.989 633.449C507.848 633.75 507.632 633.999 507.341 634.196C507.059 634.393 506.702 634.492 506.27 634.492ZM531.871 637H525.473V636.14L528.954 632.843C529.433 632.392 529.818 631.937 530.109 631.476C530.401 631.007 530.546 630.513 530.546 629.997V629.729C530.546 629.118 530.372 628.635 530.025 628.278C529.687 627.911 529.179 627.728 528.503 627.728C527.845 627.728 527.333 627.892 526.967 628.221C526.61 628.541 526.347 628.973 526.178 629.518L525.431 629.25C525.525 628.949 525.652 628.663 525.812 628.39C525.971 628.118 526.173 627.878 526.417 627.672C526.671 627.465 526.972 627.301 527.319 627.179C527.667 627.056 528.066 626.995 528.517 626.995C528.987 626.995 529.4 627.066 529.757 627.207C530.123 627.338 530.429 627.526 530.673 627.77C530.927 628.015 531.114 628.31 531.237 628.658C531.368 628.996 531.434 629.377 531.434 629.799C531.434 630.495 531.255 631.129 530.898 631.702C530.541 632.265 530.062 632.824 529.461 633.379L526.361 636.267H531.871V637ZM536.078 637.169C534.942 637.169 534.096 636.746 533.542 635.901C532.997 635.046 532.725 633.773 532.725 632.082C532.725 630.391 532.997 629.123 533.542 628.278C534.096 627.423 534.942 626.995 536.078 626.995C537.215 626.995 538.056 627.423 538.601 628.278C539.155 629.123 539.432 630.391 539.432 632.082C539.432 633.773 539.155 635.046 538.601 635.901C538.056 636.746 537.215 637.169 536.078 637.169ZM536.078 636.436C536.924 636.436 537.544 636.117 537.938 635.478C538.333 634.83 538.53 633.919 538.53 632.744V631.42C538.53 630.255 538.333 629.349 537.938 628.7C537.544 628.052 536.924 627.728 536.078 627.728C535.233 627.728 534.613 628.052 534.218 628.7C533.824 629.349 533.627 630.255 533.627 631.42V632.744C533.627 633.919 533.824 634.83 534.218 635.478C534.613 636.117 535.233 636.436 536.078 636.436ZM536.078 632.73C535.834 632.73 535.66 632.679 535.557 632.575C535.454 632.472 535.402 632.345 535.402 632.195V631.969C535.402 631.819 535.454 631.692 535.557 631.589C535.66 631.486 535.834 631.434 536.078 631.434C536.323 631.434 536.496 631.486 536.6 631.589C536.703 631.692 536.755 631.819 536.755 631.969V632.195C536.755 632.345 536.703 632.472 536.6 632.575C536.496 632.679 536.323 632.73 536.078 632.73ZM546.796 637H540.399V636.14L543.879 632.843C544.358 632.392 544.744 631.937 545.035 631.476C545.326 631.007 545.472 630.513 545.472 629.997V629.729C545.472 629.118 545.298 628.635 544.95 628.278C544.612 627.911 544.105 627.728 543.428 627.728C542.771 627.728 542.259 627.892 541.893 628.221C541.536 628.541 541.273 628.973 541.103 629.518L540.357 629.25C540.451 628.949 540.577 628.663 540.737 628.39C540.897 628.118 541.099 627.878 541.343 627.672C541.597 627.465 541.897 627.301 542.245 627.179C542.592 627.056 542.992 626.995 543.443 626.995C543.912 626.995 544.326 627.066 544.683 627.207C545.049 627.338 545.354 627.526 545.598 627.77C545.852 628.015 546.04 628.31 546.162 628.658C546.294 628.996 546.359 629.377 546.359 629.799C546.359 630.495 546.181 631.129 545.824 631.702C545.467 632.265 544.988 632.824 544.387 633.379L541.287 636.267H546.796V637ZM551.018 637.169C550.492 637.169 550.027 637.085 549.623 636.915C549.228 636.737 548.895 636.493 548.623 636.183C548.35 635.863 548.143 635.483 548.003 635.041C547.871 634.59 547.805 634.097 547.805 633.562C547.805 632.801 547.909 632.096 548.115 631.448C548.331 630.791 548.608 630.194 548.947 629.659C549.294 629.123 549.689 628.649 550.13 628.235C550.572 627.813 551.023 627.456 551.483 627.164H552.582C552.028 627.54 551.535 627.916 551.103 628.292C550.68 628.667 550.309 629.067 549.989 629.489C549.67 629.903 549.402 630.349 549.186 630.828C548.98 631.307 548.815 631.833 548.693 632.406L548.749 632.42C548.994 631.979 549.318 631.631 549.722 631.378C550.126 631.115 550.628 630.983 551.229 630.983C551.671 630.983 552.07 631.054 552.427 631.194C552.794 631.335 553.108 631.537 553.371 631.8C553.634 632.054 553.836 632.369 553.977 632.744C554.118 633.111 554.189 633.524 554.189 633.985C554.189 634.464 554.113 634.9 553.963 635.295C553.813 635.68 553.601 636.014 553.329 636.295C553.057 636.568 552.723 636.784 552.329 636.944C551.934 637.094 551.497 637.169 551.018 637.169ZM551.004 636.45C551.737 636.45 552.305 636.248 552.709 635.845C553.122 635.431 553.329 634.882 553.329 634.196V633.942C553.329 633.256 553.122 632.712 552.709 632.308C552.305 631.894 551.737 631.688 551.004 631.688C550.262 631.688 549.684 631.894 549.271 632.308C548.867 632.712 548.665 633.256 548.665 633.942V634.196C548.665 634.882 548.867 635.431 549.271 635.845C549.684 636.248 550.262 636.45 551.004 636.45ZM585.457 637V627.164H588.98C589.854 627.164 590.516 627.413 590.967 627.911C591.418 628.4 591.643 629.071 591.643 629.926C591.643 630.781 591.418 631.458 590.967 631.955C590.516 632.444 589.854 632.688 588.98 632.688H586.303V637H585.457ZM586.303 631.955H588.966C589.558 631.955 590.004 631.796 590.305 631.476C590.605 631.157 590.756 630.753 590.756 630.264V629.588C590.756 629.1 590.605 628.696 590.305 628.376C590.004 628.057 589.558 627.897 588.966 627.897H586.303V631.955ZM593.766 637H592.92V627.164H596.443C597.317 627.164 597.979 627.413 598.43 627.911C598.881 628.4 599.106 629.071 599.106 629.926C599.106 630.725 598.899 631.364 598.486 631.843C598.082 632.322 597.481 632.585 596.682 632.632H596.471L599.134 637H598.19L595.597 632.674H593.766V637ZM596.429 631.955C597.021 631.955 597.467 631.796 597.767 631.476C598.068 631.157 598.218 630.753 598.218 630.264V629.588C598.218 629.1 598.068 628.696 597.767 628.376C597.467 628.057 597.021 627.897 596.429 627.897H593.766V631.955H596.429ZM603.243 637.169C602.107 637.169 601.261 636.746 600.707 635.901C600.162 635.046 599.89 633.773 599.89 632.082C599.89 630.391 600.162 629.123 600.707 628.278C601.261 627.423 602.107 626.995 603.243 626.995C604.38 626.995 605.221 627.423 605.766 628.278C606.32 629.123 606.597 630.391 606.597 632.082C606.597 633.773 606.32 635.046 605.766 635.901C605.221 636.746 604.38 637.169 603.243 637.169ZM603.243 636.436C604.089 636.436 604.709 636.117 605.103 635.478C605.498 634.83 605.695 633.919 605.695 632.744V631.42C605.695 630.255 605.498 629.349 605.103 628.7C604.709 628.052 604.089 627.728 603.243 627.728C602.398 627.728 601.778 628.052 601.383 628.7C600.989 629.349 600.792 630.255 600.792 631.42V632.744C600.792 633.919 600.989 634.83 601.383 635.478C601.778 636.117 602.398 636.436 603.243 636.436ZM607.846 637V627.164H611.368C612.242 627.164 612.904 627.413 613.355 627.911C613.806 628.4 614.032 629.071 614.032 629.926C614.032 630.781 613.806 631.458 613.355 631.955C612.904 632.444 612.242 632.688 611.368 632.688H608.691V637H607.846ZM608.691 631.955H611.354C611.946 631.955 612.392 631.796 612.693 631.476C612.994 631.157 613.144 630.753 613.144 630.264V629.588C613.144 629.1 612.994 628.696 612.693 628.376C612.392 628.057 611.946 627.897 611.354 627.897H608.691V631.955ZM615.308 637V627.164H621.241V627.897H616.154V631.645H621.058V632.378H616.154V636.267H621.241V637H615.308ZM623.617 637H622.771V627.164H626.294C627.168 627.164 627.83 627.413 628.281 627.911C628.732 628.4 628.957 629.071 628.957 629.926C628.957 630.725 628.751 631.364 628.337 631.843C627.933 632.322 627.332 632.585 626.534 632.632H626.322L628.985 637H628.041L625.449 632.674H623.617V637ZM626.28 631.955C626.872 631.955 627.318 631.796 627.619 631.476C627.919 631.157 628.069 630.753 628.069 630.264V629.588C628.069 629.1 627.919 628.696 627.619 628.376C627.318 628.057 626.872 627.897 626.28 627.897H623.617V631.955H626.28ZM633.517 627.897V637H632.672V627.897H629.304V627.164H636.885V627.897H633.517ZM640.135 637V633.026L636.626 627.164H637.598L640.529 632.181H640.585L643.545 627.164H644.489L640.98 633.026V637H640.135ZM655.483 637.169C654.346 637.169 653.501 636.746 652.946 635.901C652.402 635.046 652.129 633.773 652.129 632.082C652.129 630.391 652.402 629.123 652.946 628.278C653.501 627.423 654.346 626.995 655.483 626.995C656.619 626.995 657.46 627.423 658.005 628.278C658.559 629.123 658.836 630.391 658.836 632.082C658.836 633.773 658.559 635.046 658.005 635.901C657.46 636.746 656.619 637.169 655.483 637.169ZM655.483 636.436C656.328 636.436 656.948 636.117 657.343 635.478C657.737 634.83 657.935 633.919 657.935 632.744V631.42C657.935 630.255 657.737 629.349 657.343 628.7C656.948 628.052 656.328 627.728 655.483 627.728C654.637 627.728 654.017 628.052 653.623 628.7C653.228 629.349 653.031 630.255 653.031 631.42V632.744C653.031 633.919 653.228 634.83 653.623 635.478C654.017 636.117 654.637 636.436 655.483 636.436ZM660.085 637V627.164H666.116V627.897H660.931V631.645H665.707V632.378H660.931V637H660.085ZM675.053 627.164H677.73C678.923 627.164 679.802 627.582 680.365 628.419C680.938 629.245 681.225 630.466 681.225 632.082C681.225 633.707 680.938 634.933 680.365 635.76C679.802 636.587 678.923 637 677.73 637H675.053V627.164ZM677.702 636.267C678.594 636.267 679.252 635.957 679.675 635.337C680.107 634.708 680.323 633.834 680.323 632.716V631.448C680.323 630.33 680.107 629.461 679.675 628.841C679.252 628.212 678.594 627.897 677.702 627.897H675.898V636.267H677.702ZM685.334 637.169C684.892 637.169 684.498 637.127 684.15 637.042C683.803 636.958 683.488 636.845 683.206 636.704C682.924 636.554 682.671 636.375 682.445 636.169C682.229 635.962 682.032 635.736 681.853 635.492L682.473 634.985C682.84 635.455 683.244 635.816 683.685 636.07C684.127 636.314 684.686 636.436 685.362 636.436C686.151 636.436 686.757 636.263 687.18 635.915C687.603 635.558 687.814 635.046 687.814 634.379C687.814 633.768 687.635 633.318 687.278 633.026C686.931 632.735 686.433 632.538 685.785 632.434L684.686 632.251C684.197 632.167 683.789 632.04 683.46 631.871C683.14 631.702 682.882 631.504 682.685 631.279C682.487 631.044 682.347 630.786 682.262 630.504C682.187 630.222 682.149 629.931 682.149 629.63C682.149 628.747 682.436 628.09 683.009 627.658C683.591 627.216 684.371 626.995 685.348 626.995C686.146 626.995 686.799 627.127 687.307 627.39C687.823 627.644 688.237 627.996 688.547 628.447L687.955 628.968C687.673 628.574 687.325 628.268 686.912 628.052C686.508 627.836 685.977 627.728 685.32 627.728C684.587 627.728 684.014 627.888 683.601 628.207C683.197 628.517 682.995 628.982 682.995 629.602C682.995 630.175 683.164 630.612 683.502 630.913C683.84 631.204 684.343 631.401 685.01 631.504L686.095 631.688C686.593 631.772 687.006 631.904 687.335 632.082C687.664 632.251 687.927 632.453 688.124 632.688C688.321 632.923 688.457 633.181 688.533 633.463C688.617 633.745 688.659 634.041 688.659 634.351C688.659 635.253 688.368 635.948 687.786 636.436C687.203 636.925 686.386 637.169 685.334 637.169ZM695.079 635.633H695.023C694.939 635.84 694.835 636.037 694.713 636.225C694.591 636.403 694.441 636.563 694.262 636.704C694.084 636.845 693.863 636.958 693.6 637.042C693.346 637.127 693.046 637.169 692.698 637.169C691.627 637.169 690.819 636.751 690.274 635.915C689.73 635.079 689.457 633.815 689.457 632.124C689.457 630.387 689.744 629.1 690.317 628.264C690.899 627.418 691.763 626.995 692.909 626.995C693.313 626.995 693.675 627.052 693.994 627.164C694.314 627.277 694.591 627.427 694.826 627.615C695.061 627.803 695.258 628.024 695.418 628.278C695.587 628.531 695.723 628.799 695.826 629.081L695.094 629.405C694.915 628.926 694.657 628.527 694.319 628.207C693.99 627.888 693.529 627.728 692.938 627.728C692.064 627.728 691.416 628.052 690.993 628.7C690.57 629.339 690.359 630.246 690.359 631.42V632.702C690.359 633.867 690.556 634.783 690.951 635.45C691.355 636.117 691.993 636.45 692.867 636.45C693.215 636.45 693.525 636.394 693.797 636.281C694.07 636.169 694.3 636.009 694.488 635.802C694.675 635.596 694.821 635.356 694.924 635.084C695.028 634.802 695.079 634.492 695.079 634.154V632.984H692.839V632.308H695.869V637H695.079V635.633ZM698.104 628.278H698.033V637H697.258V627.164H698.456L702.415 635.887H702.486V627.164H703.261V637H702.063L698.104 628.278ZM712.367 627.164H715.044C716.237 627.164 717.115 627.582 717.679 628.419C718.252 629.245 718.539 630.466 718.539 632.082C718.539 633.707 718.252 634.933 717.679 635.76C717.115 636.587 716.237 637 715.044 637H712.367V627.164ZM715.016 636.267C715.908 636.267 716.566 635.957 716.989 635.337C717.421 634.708 717.637 633.834 717.637 632.716V631.448C717.637 630.33 717.421 629.461 716.989 628.841C716.566 628.212 715.908 627.897 715.016 627.897H713.212V636.267H715.016ZM719.787 637V627.164H725.72V627.897H720.633V631.645H725.536V632.378H720.633V636.267H725.72V637H719.787ZM727.25 637V627.164H730.773C731.646 627.164 732.309 627.413 732.76 627.911C733.211 628.4 733.436 629.071 733.436 629.926C733.436 630.781 733.211 631.458 732.76 631.955C732.309 632.444 731.646 632.688 730.773 632.688H728.096V637H727.25ZM728.096 631.955H730.759C731.351 631.955 731.797 631.796 732.097 631.476C732.398 631.157 732.548 630.753 732.548 630.264V629.588C732.548 629.1 732.398 628.696 732.097 628.376C731.797 628.057 731.351 627.897 730.759 627.897H728.096V631.955ZM737.996 627.897V637H737.151V627.897H733.783V627.164H741.364V627.897H737.996Z" fill="#FFFAEE"/>
<path d="M662.811 591.029L657.441 598.72L657.236 598.262H664.974V599.084H656.683V598.294L662.21 590.413H663.411V601.579H662.479V590.919L662.811 591.029ZM669.734 601.737C669.007 601.737 668.37 601.626 667.823 601.405C667.286 601.184 666.865 600.847 666.559 600.395C666.254 599.942 666.08 599.373 666.038 598.689H667.065C667.086 599.184 667.207 599.6 667.428 599.937C667.659 600.263 667.97 600.51 668.36 600.679C668.749 600.837 669.213 600.916 669.749 600.916C670.571 600.916 671.234 600.695 671.739 600.252C672.245 599.8 672.498 599.152 672.498 598.31C672.498 597.499 672.25 596.867 671.755 596.415C671.271 595.962 670.592 595.736 669.718 595.736H668.486L668.47 595.056L672.276 590.871L672.355 591.234H666.496V590.413H673.177V591.171L669.528 595.167V594.93C670.308 594.92 670.95 595.02 671.455 595.23C671.961 595.43 672.355 595.704 672.64 596.051C672.934 596.388 673.14 596.757 673.256 597.157C673.382 597.547 673.445 597.931 673.445 598.31C673.445 599.047 673.292 599.673 672.987 600.189C672.682 600.695 672.25 601.079 671.692 601.342C671.145 601.605 670.492 601.737 669.734 601.737ZM680.058 596.462L682.964 601.579H681.906L679.111 596.636L680.058 596.462ZM678.826 596.162C679.574 596.162 680.153 596.067 680.564 595.878C680.974 595.688 681.264 595.409 681.432 595.041C681.601 594.672 681.685 594.219 681.685 593.682C681.685 593.135 681.601 592.682 681.432 592.324C681.264 591.966 680.974 591.698 680.564 591.519C680.153 591.329 679.574 591.234 678.826 591.234H676.11V596.162H678.826ZM678.905 596.983H676.11V601.579H675.162V590.413H678.89C679.795 590.413 680.522 590.545 681.069 590.808C681.617 591.061 682.011 591.429 682.254 591.914C682.506 592.398 682.633 592.987 682.633 593.682C682.633 594.23 682.575 594.709 682.459 595.12C682.343 595.53 682.143 595.878 681.859 596.162C681.574 596.436 681.19 596.641 680.706 596.778C680.232 596.915 679.632 596.983 678.905 596.983ZM688.146 596.999H683.882V596.178H688.146V596.999ZM693.132 601.737C692.216 601.737 691.468 601.532 690.889 601.121C690.32 600.7 689.904 600.068 689.641 599.226C689.378 598.373 689.246 597.294 689.246 595.988C689.246 594.683 689.378 593.609 689.641 592.766C689.915 591.924 690.336 591.298 690.905 590.887C691.484 590.466 692.226 590.255 693.132 590.255C694.048 590.255 694.79 590.466 695.358 590.887C695.937 591.298 696.359 591.924 696.622 592.766C696.896 593.609 697.032 594.683 697.032 595.988C697.032 597.283 696.896 598.357 696.622 599.21C696.359 600.063 695.937 600.7 695.358 601.121C694.79 601.532 694.048 601.737 693.132 601.737ZM693.132 600.916C694.205 600.916 694.969 600.51 695.422 599.7C695.874 598.889 696.101 597.652 696.101 595.988C696.101 594.325 695.874 593.093 695.422 592.293C694.969 591.482 694.205 591.076 693.132 591.076C692.068 591.076 691.31 591.482 690.857 592.293C690.405 593.093 690.178 594.325 690.178 595.988C690.178 597.652 690.399 598.889 690.841 599.7C691.294 600.51 692.058 600.916 693.132 600.916ZM701.862 601.737C700.946 601.737 700.198 601.532 699.619 601.121C699.05 600.7 698.635 600.068 698.371 599.226C698.108 598.373 697.977 597.294 697.977 595.988C697.977 594.683 698.108 593.609 698.371 592.766C698.645 591.924 699.066 591.298 699.635 590.887C700.214 590.466 700.956 590.255 701.862 590.255C702.778 590.255 703.52 590.466 704.089 590.887C704.668 591.298 705.089 591.924 705.352 592.766C705.626 593.609 705.763 594.683 705.763 595.988C705.763 597.283 705.626 598.357 705.352 599.21C705.089 600.063 704.668 600.7 704.089 601.121C703.52 601.532 702.778 601.737 701.862 601.737ZM701.862 600.916C702.936 600.916 703.699 600.51 704.152 599.7C704.604 598.889 704.831 597.652 704.831 595.988C704.831 594.325 704.604 593.093 704.152 592.293C703.699 591.482 702.936 591.076 701.862 591.076C700.798 591.076 700.04 591.482 699.587 592.293C699.135 593.093 698.908 594.325 698.908 595.988C698.908 597.652 699.129 598.889 699.572 599.7C700.024 600.51 700.788 600.916 701.862 600.916ZM712.724 591.029L707.354 598.72L707.149 598.262H714.888V599.084H706.596V598.294L712.124 590.413H713.324V601.579H712.392V590.919L712.724 591.029ZM719.631 601.737C718.915 601.737 718.294 601.626 717.768 601.405C717.241 601.174 716.831 600.842 716.536 600.41C716.241 599.979 716.072 599.458 716.03 598.847H716.994C717.036 599.531 717.289 600.047 717.752 600.395C718.215 600.742 718.842 600.916 719.631 600.916C720.568 600.916 721.253 600.658 721.684 600.142C722.127 599.615 722.348 598.968 722.348 598.199C722.348 597.683 722.258 597.22 722.079 596.809C721.911 596.388 721.632 596.057 721.242 595.815C720.853 595.562 720.331 595.435 719.679 595.435C719.11 595.425 718.62 595.53 718.21 595.751C717.81 595.962 717.489 596.262 717.246 596.652H716.251L716.994 590.413H722.743V591.234H717.815L717.294 595.672H717.341C717.552 595.335 717.857 595.077 718.257 594.898C718.657 594.709 719.105 594.614 719.6 594.614C720.41 594.614 721.084 594.772 721.621 595.088C722.169 595.404 722.579 595.83 722.853 596.367C723.137 596.894 723.28 597.494 723.28 598.168C723.28 598.863 723.132 599.479 722.837 600.016C722.543 600.553 722.121 600.974 721.574 601.279C721.037 601.584 720.389 601.737 719.631 601.737ZM728.221 601.737C726.884 601.737 725.905 601.469 725.284 600.932C724.673 600.395 724.368 599.647 724.368 598.689C724.378 598.173 724.473 597.71 724.652 597.299C724.841 596.888 725.105 596.552 725.442 596.288C725.789 596.025 726.184 595.857 726.626 595.783V595.72C726.047 595.572 725.594 595.272 725.268 594.82C724.952 594.356 724.794 593.798 724.794 593.145C724.794 592.587 724.915 592.093 725.157 591.661C725.41 591.219 725.789 590.876 726.294 590.634C726.81 590.382 727.453 590.255 728.221 590.255C728.99 590.255 729.627 590.382 730.132 590.634C730.638 590.876 731.011 591.219 731.254 591.661C731.506 592.093 731.627 592.587 731.617 593.145C731.606 593.788 731.443 594.34 731.127 594.804C730.811 595.267 730.364 595.572 729.785 595.72V595.783C730.227 595.857 730.622 596.025 730.969 596.288C731.317 596.552 731.585 596.888 731.775 597.299C731.975 597.71 732.075 598.173 732.075 598.689C732.075 599.331 731.938 599.879 731.664 600.331C731.39 600.784 730.969 601.132 730.401 601.374C729.832 601.616 729.106 601.737 728.221 601.737ZM728.221 600.916C729.232 600.916 729.974 600.705 730.448 600.284C730.922 599.863 731.159 599.289 731.159 598.563C731.159 597.847 730.906 597.278 730.401 596.857C729.895 596.436 729.169 596.225 728.221 596.225C727.263 596.225 726.531 596.436 726.026 596.857C725.531 597.278 725.284 597.847 725.284 598.563C725.284 599.289 725.52 599.863 725.994 600.284C726.468 600.705 727.21 600.916 728.221 600.916ZM728.221 595.404C729.042 595.404 729.664 595.214 730.085 594.835C730.516 594.446 730.732 593.919 730.732 593.256C730.732 592.582 730.522 592.05 730.101 591.661C729.69 591.271 729.063 591.076 728.221 591.076C727.368 591.076 726.737 591.271 726.326 591.661C725.915 592.05 725.71 592.582 725.71 593.256C725.71 593.919 725.921 594.446 726.342 594.835C726.763 595.214 727.389 595.404 728.221 595.404ZM736.937 601.737C736.221 601.737 735.6 601.626 735.074 601.405C734.547 601.174 734.137 600.842 733.842 600.41C733.547 599.979 733.379 599.458 733.337 598.847H734.3C734.342 599.531 734.595 600.047 735.058 600.395C735.521 600.742 736.148 600.916 736.937 600.916C737.874 600.916 738.559 600.658 738.991 600.142C739.433 599.615 739.654 598.968 739.654 598.199C739.654 597.683 739.564 597.22 739.385 596.809C739.217 596.388 738.938 596.057 738.548 595.815C738.159 595.562 737.638 595.435 736.985 595.435C736.416 595.425 735.927 595.53 735.516 595.751C735.116 595.962 734.795 596.262 734.553 596.652H733.558L734.3 590.413H740.049V591.234H735.121L734.6 595.672H734.647C734.858 595.335 735.163 595.077 735.563 594.898C735.963 594.709 736.411 594.614 736.906 594.614C737.717 594.614 738.39 594.772 738.927 595.088C739.475 595.404 739.886 595.83 740.159 596.367C740.444 596.894 740.586 597.494 740.586 598.168C740.586 598.863 740.438 599.479 740.143 600.016C739.849 600.553 739.428 600.974 738.88 601.279C738.343 601.584 737.695 601.737 736.937 601.737Z" fill="#FFFAEE"/>
<rect x="641.233" y="585.233" width="115.615" height="21.911" rx="10.9555" stroke="#FFFAEE" stroke-width="0.466191"/>
<defs>
<clipPath id="clip0_113_71">
<rect width="214" height="22" fill="white" transform="translate(410 554)"/>
</clipPath>
</defs>
</svg>
