<svg width="1080" height="1080" viewBox="0 0 1080 1080" fill="none" xmlns="http://www.w3.org/2000/svg">
<rect width="1080" height="1080" fill="#191919"/>
<path d="M405.061 465.076C405.357 373.918 498.744 311.75 582.835 347.031C629.571 366.075 661.819 414.616 661.029 465.076C661.311 395.981 603.036 337.988 533.927 338.863C465.325 338.581 407.727 396.461 408.602 465.076L405.047 465.076L405.061 465.076Z" fill="#FFFAEE"/>
<path d="M415.302 465.076C415.585 381.183 501.537 323.98 578.927 356.454C621.925 373.989 651.591 418.651 650.844 465.076C651.098 401.525 597.492 348.188 533.927 349.02C470.855 348.766 417.898 401.991 418.716 465.076L415.302 465.076Z" fill="#FFFAEE"/>
<path d="M425.558 465.076C425.826 388.448 504.345 336.197 575.034 365.877C614.279 381.903 641.364 422.685 640.673 465.076C640.884 407.069 591.948 358.401 533.941 359.162C476.385 358.951 428.083 407.52 428.845 465.076L425.558 465.076Z" fill="#FFFAEE"/>
<path d="M435.8 465.077C436.068 395.714 507.138 348.428 571.126 375.315C606.633 389.817 631.136 426.72 630.502 465.077C630.671 412.614 586.418 368.6 533.941 369.306C481.915 369.122 438.254 413.037 438.96 465.077L435.8 465.077Z" fill="#FFFAEE"/>
<path d="M446.041 465.077C446.295 402.978 509.945 360.644 567.218 384.738C598.987 397.731 620.895 430.755 620.316 465.077C620.514 430.966 598.479 398.337 566.781 385.782C523.741 367.838 472.632 389.196 455.338 432.518C451.12 442.83 449.004 453.96 449.06 465.077L446.041 465.077Z" fill="#FFFAEE"/>
<path d="M456.283 465.076C456.537 410.243 512.738 372.86 563.311 394.161C591.341 405.63 610.667 434.789 610.145 465.076C610.244 423.701 575.33 388.998 533.941 389.591C492.96 389.478 458.582 424.082 459.189 465.076L456.297 465.076L456.283 465.076Z" fill="#FFFAEE"/>
<path d="M466.524 465.077C466.806 417.508 515.517 385.105 559.389 403.599C583.695 413.544 600.384 438.824 599.946 465.077C599.974 429.217 569.786 399.254 533.926 399.734C498.448 399.706 468.781 429.584 469.275 465.077L466.51 465.077L466.524 465.077Z" fill="#FFFAEE"/>
<path d="M476.766 465.076C477.034 424.773 518.31 397.321 555.482 413.022C576.049 421.458 590.156 442.858 589.775 465.076C589.775 434.761 564.256 409.439 533.926 409.89C512.16 409.834 491.352 423.899 483.396 444.156C480.701 450.786 479.347 457.938 479.39 465.09L476.766 465.09L476.766 465.076Z" fill="#FFFAEE"/>
<path d="M487.021 465.076C487.233 432.08 521.188 409.523 551.588 422.459C568.403 429.386 579.943 446.906 579.604 465.076C579.604 440.361 558.655 419.61 533.94 420.033C516.194 420.005 499.224 431.488 492.763 448.021C490.576 453.424 489.476 459.264 489.518 465.076L487.021 465.076Z" fill="#FFFAEE"/>
<path d="M497.263 465.076C497.63 432.913 536.635 416.873 559.248 439.769C565.836 446.455 569.56 455.766 569.433 465.076C569.574 446.088 552.858 429.64 533.941 430.176C515.277 430.049 499.097 446.469 499.633 465.076L497.263 465.076Z" fill="#FFFAEE"/>
<path d="M661.029 571.061C660.733 662.219 567.346 724.387 483.255 689.106C436.519 670.062 404.271 621.521 405.061 571.061C404.779 640.17 463.054 698.149 532.163 697.274C600.765 697.556 658.363 639.676 657.488 571.061L661.043 571.061L661.029 571.061Z" fill="#FFFAEE"/>
<path d="M650.787 571.061C650.505 654.954 564.552 712.157 487.162 679.683C444.165 662.148 414.498 617.486 415.232 571.061C414.992 634.612 468.584 687.949 532.149 687.117C595.22 687.371 648.177 634.146 647.359 571.061L650.773 571.061L650.787 571.061Z" fill="#FFFAEE"/>
<path d="M640.546 571.061C640.278 647.689 561.759 699.94 491.07 670.26C451.811 654.248 424.74 613.451 425.417 571.061C425.206 629.068 474.142 677.736 532.163 676.974C589.719 677.186 638.021 628.616 637.259 571.061L640.546 571.061Z" fill="#FFFAEE"/>
<path d="M630.29 571.061C630.022 640.424 558.952 687.71 494.964 660.822C459.457 646.32 434.953 609.417 435.588 571.061C435.419 623.524 479.672 667.537 532.149 666.832C584.175 667.015 627.835 623.101 627.13 571.061L630.29 571.061Z" fill="#FFFAEE"/>
<path d="M620.048 571.061C619.794 633.159 556.145 675.493 498.871 651.399C467.103 638.406 445.195 605.382 445.773 571.061C445.576 605.171 467.61 637.8 499.308 650.355C542.348 668.299 593.457 646.941 610.752 603.619C614.97 593.307 617.086 582.177 617.029 571.061L620.048 571.061Z" fill="#FFFAEE"/>
<path d="M609.807 571.061C609.553 625.894 553.352 663.277 502.779 641.975C474.749 630.507 455.422 601.348 455.944 571.061C455.846 612.436 490.76 647.138 532.149 646.546C573.129 646.659 607.508 612.055 606.901 571.061L609.793 571.061L609.807 571.061Z" fill="#FFFAEE"/>
<path d="M599.565 571.061C599.283 618.629 550.573 651.032 506.7 632.538C482.394 622.593 465.706 597.313 466.143 571.061C466.115 606.92 496.304 636.883 532.163 636.403C567.642 636.431 597.308 606.553 596.815 571.061L599.58 571.061L599.565 571.061Z" fill="#FFFAEE"/>
<path d="M589.324 571.061C589.056 611.364 547.78 638.816 510.608 623.115C490.041 614.679 475.934 593.279 476.315 571.061C476.315 601.376 501.834 626.698 532.163 626.247C553.93 626.303 574.738 612.239 582.694 591.981C585.388 585.351 586.743 578.199 586.7 571.047L589.324 571.047L589.324 571.061Z" fill="#FFFAEE"/>
<path d="M579.083 571.061C578.871 604.056 544.916 626.613 514.516 613.677C497.7 606.751 486.161 589.23 486.5 571.061C486.5 595.776 507.448 616.527 532.163 616.104C549.924 616.132 566.88 604.649 573.341 588.116C575.528 582.713 576.628 576.873 576.586 571.061L579.083 571.061Z" fill="#FFFAEE"/>
<path d="M568.827 571.061C568.46 603.224 529.455 619.263 506.841 596.368C500.254 589.682 496.529 580.371 496.656 571.061C496.515 590.048 513.232 606.497 532.149 605.961C550.812 606.088 566.993 589.667 566.457 571.061L568.827 571.061Z" fill="#FFFAEE"/>
<path d="M413.42 498.107H413.26C413.14 498.387 412.993 498.66 412.82 498.927C412.647 499.194 412.433 499.427 412.18 499.627C411.927 499.827 411.627 499.987 411.28 500.107C410.947 500.227 410.56 500.287 410.12 500.287C408.707 500.287 407.633 499.667 406.9 498.427C406.18 497.174 405.82 495.42 405.82 493.167C405.82 490.794 406.247 488.98 407.1 487.727C407.953 486.474 409.267 485.847 411.04 485.847C411.733 485.847 412.34 485.94 412.86 486.127C413.393 486.314 413.847 486.574 414.22 486.907C414.607 487.24 414.92 487.64 415.16 488.107C415.413 488.56 415.613 489.054 415.76 489.587L413.36 490.267C413.267 489.974 413.16 489.687 413.04 489.407C412.933 489.127 412.787 488.887 412.6 488.687C412.427 488.474 412.213 488.307 411.96 488.187C411.707 488.054 411.393 487.987 411.02 487.987C410.153 487.987 409.533 488.334 409.16 489.027C408.787 489.72 408.6 490.667 408.6 491.867V494.107C408.6 494.707 408.64 495.26 408.72 495.767C408.813 496.26 408.96 496.687 409.16 497.047C409.36 497.407 409.62 497.687 409.94 497.887C410.26 498.074 410.66 498.167 411.14 498.167C411.887 498.167 412.453 497.947 412.84 497.507C413.227 497.054 413.42 496.48 413.42 495.787V494.647H410.88V492.747H415.76V500.047H413.42V498.107ZM420.412 500.047H417.792V486.087H423.092C424.452 486.087 425.492 486.474 426.212 487.247C426.932 488.02 427.292 489.074 427.292 490.407C427.292 491.434 427.052 492.3 426.572 493.007C426.106 493.7 425.432 494.14 424.552 494.327L427.532 500.047H424.652L421.992 494.627H420.412V500.047ZM422.552 492.587C423.259 492.587 423.766 492.447 424.072 492.167C424.379 491.874 424.532 491.414 424.532 490.787V490.027C424.532 489.4 424.379 488.947 424.072 488.667C423.766 488.374 423.259 488.227 422.552 488.227H420.412V492.587H422.552ZM436.364 500.047L435.384 496.507H431.244L430.284 500.047H427.644L431.564 486.087H435.204L439.144 500.047H436.364ZM433.404 488.667H433.244L431.704 494.367H434.944L433.404 488.667ZM440.177 500.047V486.087H445.477C446.837 486.087 447.877 486.474 448.597 487.247C449.317 488.02 449.677 489.074 449.677 490.407C449.677 491.74 449.317 492.794 448.597 493.567C447.877 494.34 446.837 494.727 445.477 494.727H442.797V500.047H440.177ZM442.797 492.587H444.937C445.643 492.587 446.15 492.447 446.457 492.167C446.763 491.874 446.917 491.414 446.917 490.787V490.027C446.917 489.4 446.763 488.947 446.457 488.667C446.15 488.374 445.643 488.227 444.937 488.227H442.797V492.587ZM457.809 494.047H453.729V500.047H451.109V486.087H453.729V491.887H457.809V486.087H460.429V500.047H457.809V494.047ZM462.521 500.047V498.087H465.661V488.047H462.521V486.087H471.401V488.047H468.261V498.087H471.401V500.047H462.521ZM478.513 500.287C476.686 500.287 475.333 499.66 474.453 498.407C473.586 497.154 473.153 495.374 473.153 493.067C473.153 490.774 473.586 489 474.453 487.747C475.333 486.48 476.686 485.847 478.513 485.847C479.206 485.847 479.813 485.94 480.333 486.127C480.866 486.314 481.326 486.574 481.713 486.907C482.1 487.227 482.42 487.62 482.673 488.087C482.926 488.54 483.126 489.04 483.273 489.587L480.873 490.267C480.78 489.947 480.673 489.647 480.553 489.367C480.433 489.087 480.28 488.847 480.093 488.647C479.92 488.434 479.7 488.274 479.433 488.167C479.166 488.047 478.846 487.987 478.473 487.987C477.566 487.987 476.913 488.334 476.513 489.027C476.126 489.72 475.933 490.667 475.933 491.867V494.267C475.933 495.467 476.126 496.414 476.513 497.107C476.913 497.8 477.566 498.147 478.473 498.147C478.846 498.147 479.166 498.094 479.433 497.987C479.7 497.867 479.92 497.707 480.093 497.507C480.28 497.294 480.433 497.047 480.553 496.767C480.673 496.487 480.78 496.187 480.873 495.867L483.273 496.547C483.126 497.094 482.926 497.6 482.673 498.067C482.42 498.52 482.1 498.914 481.713 499.247C481.326 499.567 480.866 499.82 480.333 500.007C479.813 500.194 479.206 500.287 478.513 500.287ZM489.185 500.287C487.985 500.287 486.959 500.08 486.105 499.667C485.265 499.254 484.579 498.707 484.045 498.027L485.625 496.387C486.145 496.987 486.705 497.434 487.305 497.727C487.919 498.007 488.572 498.147 489.265 498.147C490.065 498.147 490.679 497.967 491.105 497.607C491.532 497.247 491.745 496.727 491.745 496.047C491.745 495.487 491.585 495.067 491.265 494.787C490.945 494.494 490.405 494.287 489.645 494.167L488.165 493.927C486.872 493.7 485.952 493.234 485.405 492.527C484.859 491.807 484.585 490.96 484.585 489.987C484.585 488.654 485.019 487.634 485.885 486.927C486.752 486.207 487.952 485.847 489.485 485.847C490.579 485.847 491.519 486.02 492.305 486.367C493.105 486.714 493.745 487.187 494.225 487.787L492.685 489.427C492.312 488.987 491.865 488.64 491.345 488.387C490.825 488.12 490.212 487.987 489.505 487.987C487.985 487.987 487.225 488.614 487.225 489.867C487.225 490.4 487.385 490.807 487.705 491.087C488.025 491.367 488.572 491.574 489.345 491.707L490.805 491.967C492.019 492.194 492.919 492.64 493.505 493.307C494.092 493.974 494.385 494.827 494.385 495.867C494.385 496.52 494.272 497.12 494.045 497.667C493.819 498.2 493.485 498.667 493.045 499.067C492.605 499.454 492.059 499.754 491.405 499.967C490.765 500.18 490.025 500.287 489.185 500.287ZM509.95 500.047H507.33V486.087H512.63C513.99 486.087 515.03 486.474 515.75 487.247C516.47 488.02 516.83 489.074 516.83 490.407C516.83 491.434 516.59 492.3 516.11 493.007C515.643 493.7 514.97 494.14 514.09 494.327L517.07 500.047H514.19L511.53 494.627H509.95V500.047ZM512.09 492.587C512.796 492.587 513.303 492.447 513.61 492.167C513.916 491.874 514.07 491.414 514.07 490.787V490.027C514.07 489.4 513.916 488.947 513.61 488.667C513.303 488.374 512.796 488.227 512.09 488.227H509.95V492.587H512.09ZM518.582 500.047V486.087H527.402V488.247H521.202V491.887H527.182V494.047H521.202V497.887H527.402V500.047H518.582ZM533.954 500.287C532.754 500.287 531.727 500.08 530.874 499.667C530.034 499.254 529.347 498.707 528.814 498.027L530.394 496.387C530.914 496.987 531.474 497.434 532.074 497.727C532.687 498.007 533.341 498.147 534.034 498.147C534.834 498.147 535.447 497.967 535.874 497.607C536.301 497.247 536.514 496.727 536.514 496.047C536.514 495.487 536.354 495.067 536.034 494.787C535.714 494.494 535.174 494.287 534.414 494.167L532.934 493.927C531.641 493.7 530.721 493.234 530.174 492.527C529.627 491.807 529.354 490.96 529.354 489.987C529.354 488.654 529.787 487.634 530.654 486.927C531.521 486.207 532.721 485.847 534.254 485.847C535.347 485.847 536.287 486.02 537.074 486.367C537.874 486.714 538.514 487.187 538.994 487.787L537.454 489.427C537.081 488.987 536.634 488.64 536.114 488.387C535.594 488.12 534.981 487.987 534.274 487.987C532.754 487.987 531.994 488.614 531.994 489.867C531.994 490.4 532.154 490.807 532.474 491.087C532.794 491.367 533.341 491.574 534.114 491.707L535.574 491.967C536.787 492.194 537.687 492.64 538.274 493.307C538.861 493.974 539.154 494.827 539.154 495.867C539.154 496.52 539.041 497.12 538.814 497.667C538.587 498.2 538.254 498.667 537.814 499.067C537.374 499.454 536.827 499.754 536.174 499.967C535.534 500.18 534.794 500.287 533.954 500.287ZM540.966 500.047V486.087H549.786V488.247H543.586V491.887H549.566V494.047H543.586V497.887H549.786V500.047H540.966ZM559.478 500.047L558.498 496.507H554.358L553.398 500.047H550.758L554.678 486.087H558.318L562.258 500.047H559.478ZM556.518 488.667H556.358L554.818 494.367H558.058L556.518 488.667ZM565.911 500.047H563.291V486.087H568.591C569.951 486.087 570.991 486.474 571.711 487.247C572.431 488.02 572.791 489.074 572.791 490.407C572.791 491.434 572.551 492.3 572.071 493.007C571.604 493.7 570.931 494.14 570.051 494.327L573.031 500.047H570.151L567.491 494.627H565.911V500.047ZM568.051 492.587C568.757 492.587 569.264 492.447 569.571 492.167C569.877 491.874 570.031 491.414 570.031 490.787V490.027C570.031 489.4 569.877 488.947 569.571 488.667C569.264 488.374 568.757 488.227 568.051 488.227H565.911V492.587H568.051ZM579.243 500.287C577.416 500.287 576.063 499.66 575.183 498.407C574.316 497.154 573.883 495.374 573.883 493.067C573.883 490.774 574.316 489 575.183 487.747C576.063 486.48 577.416 485.847 579.243 485.847C579.936 485.847 580.543 485.94 581.063 486.127C581.596 486.314 582.056 486.574 582.443 486.907C582.829 487.227 583.149 487.62 583.403 488.087C583.656 488.54 583.856 489.04 584.003 489.587L581.603 490.267C581.509 489.947 581.403 489.647 581.283 489.367C581.163 489.087 581.009 488.847 580.823 488.647C580.649 488.434 580.429 488.274 580.163 488.167C579.896 488.047 579.576 487.987 579.203 487.987C578.296 487.987 577.643 488.334 577.243 489.027C576.856 489.72 576.663 490.667 576.663 491.867V494.267C576.663 495.467 576.856 496.414 577.243 497.107C577.643 497.8 578.296 498.147 579.203 498.147C579.576 498.147 579.896 498.094 580.163 497.987C580.429 497.867 580.649 497.707 580.823 497.507C581.009 497.294 581.163 497.047 581.283 496.767C581.403 496.487 581.509 496.187 581.603 495.867L584.003 496.547C583.856 497.094 583.656 497.6 583.403 498.067C583.149 498.52 582.829 498.914 582.443 499.247C582.056 499.567 581.596 499.82 581.063 500.007C580.543 500.194 579.936 500.287 579.243 500.287ZM592.115 494.047H588.035V500.047H585.415V486.087H588.035V491.887H592.115V486.087H594.735V500.047H592.115V494.047ZM608.459 500.047V486.087H611.079V497.887H617.259V500.047H608.459ZM626.632 500.047L625.652 496.507H621.512L620.552 500.047H617.912L621.832 486.087H625.472L629.412 500.047H626.632ZM623.672 488.667H623.512L621.972 494.367H625.212L623.672 488.667ZM630.444 486.087H635.304C636.624 486.087 637.637 486.42 638.344 487.087C639.064 487.74 639.424 488.634 639.424 489.767C639.424 490.567 639.224 491.207 638.824 491.687C638.437 492.167 637.884 492.514 637.164 492.727V492.827C638.004 493.027 638.664 493.394 639.144 493.927C639.637 494.447 639.884 495.187 639.884 496.147C639.884 496.734 639.784 497.267 639.584 497.747C639.397 498.214 639.124 498.62 638.764 498.967C638.417 499.314 637.99 499.58 637.484 499.767C636.99 499.954 636.43 500.047 635.804 500.047H630.444V486.087ZM635.004 498.147C635.737 498.147 636.284 498.014 636.644 497.747C637.017 497.467 637.204 496.994 637.204 496.327V495.667C637.204 495.014 637.017 494.554 636.644 494.287C636.284 494.007 635.737 493.867 635.004 493.867H633.004V498.147H635.004ZM634.664 492.047C635.37 492.047 635.89 491.92 636.224 491.667C636.57 491.414 636.744 490.974 636.744 490.347V489.687C636.744 489.06 636.57 488.62 636.224 488.367C635.89 488.114 635.37 487.987 634.664 487.987H633.004V492.047H634.664Z" fill="#FFFAEE"/>
<path d="M410.97 528.187L413.73 533.047H412.725L410.07 528.352L410.97 528.187ZM409.8 527.902C410.51 527.902 411.06 527.812 411.45 527.632C411.84 527.452 412.115 527.187 412.275 526.837C412.435 526.487 412.515 526.057 412.515 525.547C412.515 525.027 412.435 524.597 412.275 524.257C412.115 523.917 411.84 523.662 411.45 523.492C411.06 523.312 410.51 523.222 409.8 523.222H407.22V527.902H409.8ZM409.875 528.682H407.22V533.047H406.32V522.442H409.86C410.72 522.442 411.41 522.567 411.93 522.817C412.45 523.057 412.825 523.407 413.055 523.867C413.295 524.327 413.415 524.887 413.415 525.547C413.415 526.067 413.36 526.522 413.25 526.912C413.14 527.302 412.95 527.632 412.68 527.902C412.41 528.162 412.045 528.357 411.585 528.487C411.135 528.617 410.565 528.682 409.875 528.682ZM415.022 522.442H420.992V523.222H415.922V527.347H420.647V528.127H415.922V532.267H421.067V533.047H415.022V522.442ZM422.786 522.442H428.831V523.222H423.686V527.347H428.336V528.127H423.686V533.047H422.786V522.442ZM432.432 533.047H431.532V522.442H432.432V533.047ZM429.897 523.222V522.442H434.052V523.222H429.897ZM429.897 533.047V532.267H434.052V533.047H429.897ZM443.876 533.047H442.871L436.946 523.942H436.826V533.047H435.941V522.442H436.961L442.871 531.532H442.991V522.442H443.876V533.047ZM445.918 522.442H451.888V523.222H446.818V527.347H451.543V528.127H446.818V532.267H451.963V533.047H445.918V522.442ZM453.682 533.047V522.442H456.967C458.507 522.442 459.672 522.892 460.462 523.792C461.252 524.692 461.647 526.007 461.647 527.737C461.647 529.457 461.242 530.772 460.432 531.682C459.632 532.592 458.427 533.047 456.817 533.047H453.682ZM456.742 532.267C457.752 532.267 458.547 532.087 459.127 531.727C459.707 531.357 460.122 530.832 460.372 530.152C460.622 529.472 460.747 528.667 460.747 527.737C460.747 526.797 460.622 525.992 460.372 525.322C460.132 524.642 459.727 524.122 459.157 523.762C458.597 523.402 457.832 523.222 456.862 523.222H454.582V532.267H456.742ZM468.378 533.827H461.898V533.047H468.378V533.827ZM469.079 533.047V522.442H472.364C473.904 522.442 475.069 522.892 475.859 523.792C476.649 524.692 477.044 526.007 477.044 527.737C477.044 529.457 476.639 530.772 475.829 531.682C475.029 532.592 473.824 533.047 472.214 533.047H469.079ZM472.139 532.267C473.149 532.267 473.944 532.087 474.524 531.727C475.104 531.357 475.519 530.832 475.769 530.152C476.019 529.472 476.144 528.667 476.144 527.737C476.144 526.797 476.019 525.992 475.769 525.322C475.529 524.642 475.124 524.122 474.554 523.762C473.994 523.402 473.229 523.222 472.259 523.222H469.979V532.267H472.139ZM480.79 533.047H479.89V522.442H480.79V533.047ZM478.255 523.222V522.442H482.41V523.222H478.255ZM478.255 533.047V532.267H482.41V533.047H478.255ZM491.475 528.547H488.46V527.767H492.375V528.967C492.375 529.717 492.225 530.417 491.925 531.067C491.635 531.707 491.18 532.222 490.56 532.612C489.95 533.002 489.16 533.197 488.19 533.197C486.74 533.197 485.615 532.727 484.815 531.787C484.025 530.837 483.63 529.487 483.63 527.737C483.63 525.987 484.025 524.642 484.815 523.702C485.615 522.762 486.74 522.292 488.19 522.292C488.88 522.292 489.505 522.412 490.065 522.652C490.625 522.882 491.095 523.232 491.475 523.702C491.855 524.172 492.115 524.772 492.255 525.502H491.325C491.165 524.642 490.81 524.027 490.26 523.657C489.72 523.287 489.03 523.102 488.19 523.102C487.01 523.102 486.105 523.472 485.475 524.212C484.845 524.952 484.53 526.127 484.53 527.737C484.53 529.337 484.845 530.512 485.475 531.262C486.105 532.012 487.01 532.387 488.19 532.387C488.8 532.387 489.305 532.302 489.705 532.132C490.105 531.952 490.425 531.717 490.665 531.427C490.905 531.137 491.08 530.822 491.19 530.482C491.31 530.142 491.385 529.802 491.415 529.462C491.455 529.122 491.475 528.817 491.475 528.547ZM496.084 533.047H495.184V522.442H496.084V533.047ZM493.549 523.222V522.442H497.704V523.222H493.549ZM493.549 533.047V532.267H497.704V533.047H493.549ZM498.504 522.442H506.334V523.222H502.869V533.047H501.969V523.222H498.504V522.442ZM509.766 523.597H509.706L506.376 533.047H505.461L509.256 522.442H510.276L514.056 533.047H513.096L509.766 523.597ZM512.181 529.867H507.336V529.087H512.181V529.867ZM515.151 522.442H516.051V532.267H521.106V533.047H515.151V522.442ZM527.358 533.827H520.878V533.047H527.358V533.827ZM531.418 523.597H531.358L528.028 533.047H527.113L530.908 522.442H531.928L535.708 533.047H534.748L531.418 523.597ZM533.833 529.867H528.988V529.087H533.833V529.867ZM541.454 528.187L544.214 533.047H543.209L540.554 528.352L541.454 528.187ZM540.284 527.902C540.994 527.902 541.544 527.812 541.934 527.632C542.324 527.452 542.599 527.187 542.759 526.837C542.919 526.487 542.999 526.057 542.999 525.547C542.999 525.027 542.919 524.597 542.759 524.257C542.599 523.917 542.324 523.662 541.934 523.492C541.544 523.312 540.994 523.222 540.284 523.222H537.704V527.902H540.284ZM540.359 528.682H537.704V533.047H536.804V522.442H540.344C541.204 522.442 541.894 522.567 542.414 522.817C542.934 523.057 543.309 523.407 543.539 523.867C543.779 524.327 543.899 524.887 543.899 525.547C543.899 526.067 543.844 526.522 543.734 526.912C543.624 527.302 543.434 527.632 543.164 527.902C542.894 528.162 542.529 528.357 542.069 528.487C541.619 528.617 541.049 528.682 540.359 528.682ZM544.167 522.442H551.997V523.222H548.532V533.047H547.632V523.222H544.167V522.442ZM555.327 533.047H554.427V522.442H555.327V533.047ZM552.792 523.222V522.442H556.947V523.222H552.792ZM552.792 533.047V532.267H556.947V533.047H552.792ZM558.837 522.442H564.882V523.222H559.737V527.347H564.387V528.127H559.737V533.047H558.837V522.442ZM568.54 523.597H568.48L565.15 533.047H564.235L568.03 522.442H569.05L572.83 533.047H571.87L568.54 523.597ZM570.955 529.867H566.11V529.087H570.955V529.867ZM580.462 525.517C580.332 524.707 580.007 524.102 579.487 523.702C578.977 523.302 578.297 523.102 577.447 523.102C576.327 523.102 575.457 523.482 574.837 524.242C574.227 525.002 573.922 526.162 573.922 527.722C573.922 529.292 574.227 530.462 574.837 531.232C575.457 531.992 576.327 532.372 577.447 532.372C578.297 532.372 578.977 532.172 579.487 531.772C580.007 531.372 580.337 530.772 580.477 529.972H581.422C581.252 531.022 580.832 531.822 580.162 532.372C579.492 532.922 578.587 533.197 577.447 533.197C575.967 533.197 574.857 532.722 574.117 531.772C573.387 530.812 573.022 529.462 573.022 527.722C573.022 525.992 573.387 524.657 574.117 523.717C574.857 522.767 575.967 522.292 577.447 522.292C578.157 522.292 578.787 522.412 579.337 522.652C579.897 522.892 580.352 523.252 580.702 523.732C581.062 524.212 581.297 524.807 581.407 525.517H580.462ZM581.508 522.442H589.338V523.222H585.873V533.047H584.973V523.222H581.508V522.442ZM595.683 524.737C595.603 524.117 595.328 523.687 594.858 523.447C594.398 523.207 593.788 523.087 593.028 523.087C592.158 523.087 591.513 523.257 591.093 523.597C590.673 523.927 590.463 524.417 590.463 525.067C590.463 525.447 590.533 525.757 590.673 525.997C590.823 526.237 591.013 526.432 591.243 526.582C591.473 526.722 591.718 526.837 591.978 526.927C592.238 527.007 592.478 527.077 592.698 527.137L593.853 527.452C594.143 527.532 594.458 527.632 594.798 527.752C595.138 527.872 595.458 528.037 595.758 528.247C596.068 528.457 596.318 528.727 596.508 529.057C596.698 529.387 596.793 529.797 596.793 530.287C596.793 530.847 596.658 531.352 596.388 531.802C596.118 532.252 595.703 532.607 595.143 532.867C594.583 533.117 593.868 533.242 592.998 533.242C591.838 533.242 590.948 533.007 590.328 532.537C589.708 532.067 589.358 531.432 589.278 530.632H590.208C590.268 531.112 590.423 531.482 590.673 531.742C590.923 532.002 591.243 532.187 591.633 532.297C592.033 532.397 592.488 532.447 592.998 532.447C593.918 532.447 594.628 532.272 595.128 531.922C595.638 531.562 595.893 531.007 595.893 530.257C595.893 529.807 595.783 529.452 595.563 529.192C595.353 528.932 595.068 528.727 594.708 528.577C594.358 528.427 593.978 528.297 593.568 528.187L592.128 527.797C591.308 527.567 590.673 527.247 590.223 526.837C589.783 526.427 589.563 525.862 589.563 525.142C589.563 524.552 589.703 524.047 589.983 523.627C590.273 523.197 590.678 522.867 591.198 522.637C591.728 522.407 592.353 522.292 593.073 522.292C593.773 522.292 594.373 522.397 594.873 522.607C595.383 522.807 595.783 523.092 596.073 523.462C596.373 523.822 596.543 524.247 596.583 524.737H595.683ZM409.365 544.642L413.67 551.047H412.59L408.72 545.272L409.365 544.642ZM407.22 551.047H406.32V540.442H407.22V551.047ZM406.995 548.122V546.877L412.29 540.442H413.385L406.995 548.122ZM417.607 551.047H416.707V540.442H417.607V551.047ZM415.072 541.222V540.442H419.227V541.222H415.072ZM415.072 551.047V550.267H419.227V551.047H415.072ZM429.051 551.047H428.046L422.121 541.942H422.001V551.047H421.116V540.442H422.136L428.046 549.532H428.166V540.442H429.051V551.047ZM431.092 540.442H437.062V541.222H431.992V545.347H436.717V546.127H431.992V550.267H437.137V551.047H431.092V540.442ZM437.752 540.442H445.582V541.222H442.117V551.047H441.217V541.222H437.752V540.442ZM448.913 551.047H448.013V540.442H448.913V551.047ZM446.378 541.222V540.442H450.533V541.222H446.378ZM446.378 551.047V550.267H450.533V551.047H446.378ZM459.192 543.517C459.062 542.707 458.737 542.102 458.217 541.702C457.707 541.302 457.027 541.102 456.177 541.102C455.057 541.102 454.187 541.482 453.567 542.242C452.957 543.002 452.652 544.162 452.652 545.722C452.652 547.292 452.957 548.462 453.567 549.232C454.187 549.992 455.057 550.372 456.177 550.372C457.027 550.372 457.707 550.172 458.217 549.772C458.737 549.372 459.067 548.772 459.207 547.972H460.152C459.982 549.022 459.562 549.822 458.892 550.372C458.222 550.922 457.317 551.197 456.177 551.197C454.697 551.197 453.587 550.722 452.847 549.772C452.117 548.812 451.752 547.462 451.752 545.722C451.752 543.992 452.117 542.657 452.847 541.717C453.587 540.767 454.697 540.292 456.177 540.292C456.887 540.292 457.517 540.412 458.067 540.652C458.627 540.892 459.082 541.252 459.432 541.732C459.792 542.212 460.027 542.807 460.137 543.517H459.192ZM466.855 551.827H460.375V551.047H466.855V551.827ZM469.715 551.047H468.815V540.442H469.715V551.047ZM467.18 541.222V540.442H471.335V541.222H467.18ZM467.18 551.047V550.267H471.335V551.047H467.18ZM473.225 551.047V540.442H476.51C478.05 540.442 479.215 540.892 480.005 541.792C480.795 542.692 481.19 544.007 481.19 545.737C481.19 547.457 480.785 548.772 479.975 549.682C479.175 550.592 477.97 551.047 476.36 551.047H473.225ZM476.285 550.267C477.295 550.267 478.09 550.087 478.67 549.727C479.25 549.357 479.665 548.832 479.915 548.152C480.165 547.472 480.29 546.667 480.29 545.737C480.29 544.797 480.165 543.992 479.915 543.322C479.675 542.642 479.27 542.122 478.7 541.762C478.14 541.402 477.375 541.222 476.405 541.222H474.125V550.267H476.285ZM482.776 540.442H488.746V541.222H483.676V545.347H488.401V546.127H483.676V550.267H488.821V551.047H482.776V540.442ZM498.475 551.047H497.47L491.545 541.942H491.425V551.047H490.54V540.442H491.56L497.47 549.532H497.59V540.442H498.475V551.047ZM499.251 540.442H507.081V541.222H503.616V551.047H502.716V541.222H499.251V540.442ZM510.411 551.047H509.511V540.442H510.411V551.047ZM507.876 541.222V540.442H512.031V541.222H507.876ZM507.876 551.047V550.267H512.031V551.047H507.876ZM512.831 540.442H520.661V541.222H517.196V551.047H516.296V541.222H512.831V540.442ZM523.992 551.047H523.092V540.442H523.992V551.047ZM521.457 541.222V540.442H525.612V541.222H521.457ZM521.457 551.047V550.267H525.612V551.047H521.457ZM527.501 540.442H533.471V541.222H528.401V545.347H533.126V546.127H528.401V550.267H533.546V551.047H527.501V540.442ZM540.879 542.737C540.799 542.117 540.524 541.687 540.054 541.447C539.594 541.207 538.984 541.087 538.224 541.087C537.354 541.087 536.709 541.257 536.289 541.597C535.869 541.927 535.659 542.417 535.659 543.067C535.659 543.447 535.729 543.757 535.869 543.997C536.019 544.237 536.209 544.432 536.439 544.582C536.669 544.722 536.914 544.837 537.174 544.927C537.434 545.007 537.674 545.077 537.894 545.137L539.049 545.452C539.339 545.532 539.654 545.632 539.994 545.752C540.334 545.872 540.654 546.037 540.954 546.247C541.264 546.457 541.514 546.727 541.704 547.057C541.894 547.387 541.989 547.797 541.989 548.287C541.989 548.847 541.854 549.352 541.584 549.802C541.314 550.252 540.899 550.607 540.339 550.867C539.779 551.117 539.064 551.242 538.194 551.242C537.034 551.242 536.144 551.007 535.524 550.537C534.904 550.067 534.554 549.432 534.474 548.632H535.404C535.464 549.112 535.619 549.482 535.869 549.742C536.119 550.002 536.439 550.187 536.829 550.297C537.229 550.397 537.684 550.447 538.194 550.447C539.114 550.447 539.824 550.272 540.324 549.922C540.834 549.562 541.089 549.007 541.089 548.257C541.089 547.807 540.979 547.452 540.759 547.192C540.549 546.932 540.264 546.727 539.904 546.577C539.554 546.427 539.174 546.297 538.764 546.187L537.324 545.797C536.504 545.567 535.869 545.247 535.419 544.837C534.979 544.427 534.759 543.862 534.759 543.142C534.759 542.552 534.899 542.047 535.179 541.627C535.469 541.197 535.874 540.867 536.394 540.637C536.924 540.407 537.549 540.292 538.269 540.292C538.969 540.292 539.569 540.397 540.069 540.607C540.579 540.807 540.979 541.092 541.269 541.462C541.569 541.822 541.739 542.247 541.779 542.737H540.879ZM409.44 587.197C408.57 587.197 407.86 587.002 407.31 586.612C406.77 586.212 406.375 585.612 406.125 584.812C405.875 584.002 405.75 582.977 405.75 581.737C405.75 580.497 405.875 579.477 406.125 578.677C406.385 577.877 406.785 577.282 407.325 576.892C407.875 576.492 408.58 576.292 409.44 576.292C410.31 576.292 411.015 576.492 411.555 576.892C412.105 577.282 412.505 577.877 412.755 578.677C413.015 579.477 413.145 580.497 413.145 581.737C413.145 582.967 413.015 583.987 412.755 584.797C412.505 585.607 412.105 586.212 411.555 586.612C411.015 587.002 410.31 587.197 409.44 587.197ZM409.44 586.417C410.46 586.417 411.185 586.032 411.615 585.262C412.045 584.492 412.26 583.317 412.26 581.737C412.26 580.157 412.045 578.987 411.615 578.227C411.185 577.457 410.46 577.072 409.44 577.072C408.43 577.072 407.71 577.457 407.28 578.227C406.85 578.987 406.635 580.157 406.635 581.737C406.635 583.317 406.845 584.492 407.265 585.262C407.695 586.032 408.42 586.417 409.44 586.417ZM414.147 586.312L417.777 582.427C418.237 581.937 418.612 581.507 418.902 581.137C419.192 580.757 419.407 580.407 419.547 580.087C419.697 579.757 419.772 579.422 419.772 579.082C419.772 578.432 419.562 577.937 419.142 577.597C418.722 577.247 418.162 577.072 417.462 577.072C416.762 577.072 416.187 577.282 415.737 577.702C415.287 578.112 415.072 578.677 415.092 579.397H414.222C414.212 578.747 414.347 578.192 414.627 577.732C414.907 577.272 415.297 576.917 415.797 576.667C416.297 576.417 416.867 576.292 417.507 576.292C418.177 576.292 418.742 576.407 419.202 576.637C419.672 576.857 420.032 577.177 420.282 577.597C420.532 578.007 420.657 578.502 420.657 579.082C420.657 579.462 420.592 579.832 420.462 580.192C420.332 580.542 420.092 580.947 419.742 581.407C419.402 581.857 418.907 582.427 418.257 583.117L414.837 586.777L414.897 586.267H420.792V587.047H414.147V586.312Z" fill="#FFFAEE"/>
<path d="M655.976 501.113C654.439 501.113 653.067 500.794 651.861 500.155C650.654 499.516 649.696 498.606 648.987 497.423C648.301 496.241 647.958 494.833 647.958 493.201C647.958 491.569 648.301 490.162 648.987 488.979C649.696 487.797 650.654 486.898 651.861 486.283C653.067 485.644 654.439 485.325 655.976 485.325C657.513 485.325 658.885 485.644 660.091 486.283C661.298 486.898 662.244 487.797 662.93 488.979C663.639 490.162 663.994 491.569 663.994 493.201C663.994 494.833 663.639 496.241 662.93 497.423C662.244 498.606 661.298 499.516 660.091 500.155C658.885 500.794 657.513 501.113 655.976 501.113ZM655.976 499.304C657.679 499.304 659.11 498.783 660.269 497.743C661.428 496.702 662.007 495.188 662.007 493.201C662.007 491.238 661.428 489.724 660.269 488.66C659.11 487.596 657.679 487.064 655.976 487.064C654.249 487.064 652.807 487.596 651.648 488.66C650.489 489.724 649.909 491.238 649.909 493.201C649.909 494.526 650.169 495.649 650.69 496.572C651.234 497.471 651.967 498.156 652.889 498.629C653.812 499.079 654.841 499.304 655.976 499.304ZM652.925 489.228H654.628V497.139H652.925V489.228ZM653.954 489.228H656.402C656.898 489.228 657.371 489.299 657.821 489.441C658.294 489.559 658.672 489.807 658.956 490.186C659.24 490.54 659.382 491.061 659.382 491.747C659.382 492.456 659.24 493 658.956 493.379C658.672 493.733 658.294 493.982 657.821 494.124C657.371 494.242 656.898 494.301 656.402 494.301H653.954V492.811H656.26C656.733 492.811 657.088 492.752 657.324 492.634C657.561 492.492 657.679 492.196 657.679 491.747C657.679 491.274 657.561 490.978 657.324 490.86C657.088 490.741 656.733 490.682 656.26 490.682H653.954V489.228ZM655.799 493.414H657.573L659.701 497.139H657.856L655.799 493.414Z" fill="#FFFAEE"/>
</svg>
