<svg width="1080" height="1080" viewBox="0 0 1080 1080" fill="none" xmlns="http://www.w3.org/2000/svg">
<rect width="1080" height="1080" fill="#191919"/>
<path d="M565.614 557C553.696 557 544 566.696 544 578.614C544 590.532 553.696 600.228 565.614 600.228C577.532 600.228 587.228 590.532 587.228 578.614C587.228 566.696 577.532 557 565.614 557ZM585.256 578.614C585.256 589.447 576.447 598.256 565.614 598.256C554.781 598.256 545.972 589.447 545.972 578.614C545.972 567.781 554.781 558.972 565.614 558.972C576.447 558.972 585.256 567.781 585.256 578.614Z" fill="#FFFAEE"/>
<path d="M665.719 601L643.719 579L665.719 557L687.719 579L665.719 601ZM646.906 579L665.726 597.82L684.546 579L665.719 560.187L646.906 579Z" fill="#FFFAEE"/>
<path d="M607.69 599.001L607.643 593.494L603.28 593.448C601.965 593.434 601.048 592.004 600.887 590.78C600.628 588.811 600.842 586.874 600.984 584.801C599.891 584.428 598.748 584.017 597.772 583.443C596.906 582.933 596.8 582.032 597.298 581.235C598.589 578.835 599.826 576.527 600.698 573.936C600.725 569.947 601.793 566.155 604.35 563.054C608.951 557.476 616.764 555.545 623.531 558.132C627.404 559.612 630.169 562.476 631.731 566.205C634.88 573.733 633.021 580.81 628.045 587.113L627.251 596.207C627.147 597.398 625.539 598.374 624.556 598.93C620.009 601.498 612.463 601.85 607.692 599.001H607.69ZM609.729 592.731L609.742 597.827C614.345 599.752 621.952 599.33 625.297 595.714L626.014 586.363C630.791 580.491 632.775 574.037 629.77 566.888C628.533 563.947 626.453 561.644 623.451 560.312C616.961 557.434 609.201 559.53 605.207 565.352C603.397 567.991 602.911 570.886 602.684 574.037C602.597 575.227 601.939 576.663 601.407 577.718L599.251 581.977L602.236 583.005C602.739 583.176 603.104 583.638 603.072 584.212L602.799 589.077C602.756 589.843 602.983 590.658 603.285 591.436L608.191 591.427C609.048 591.427 609.729 591.637 609.731 592.733L609.729 592.731Z" fill="#FFFAEE"/>
<path d="M369.24 438.06H369.16C369.04 438.353 368.893 438.633 368.72 438.9C368.547 439.153 368.333 439.38 368.08 439.58C367.827 439.78 367.513 439.94 367.14 440.06C366.78 440.18 366.353 440.24 365.86 440.24C364.34 440.24 363.193 439.647 362.42 438.46C361.647 437.273 361.26 435.48 361.26 433.08C361.26 430.613 361.667 428.787 362.48 427.6C363.307 426.4 364.533 425.8 366.16 425.8C366.733 425.8 367.247 425.88 367.7 426.04C368.153 426.2 368.547 426.413 368.88 426.68C369.213 426.947 369.493 427.26 369.72 427.62C369.96 427.98 370.153 428.36 370.3 428.76L369.26 429.22C369.007 428.54 368.64 427.973 368.16 427.52C367.693 427.067 367.04 426.84 366.2 426.84C364.96 426.84 364.04 427.3 363.44 428.22C362.84 429.127 362.54 430.413 362.54 432.08V433.9C362.54 435.553 362.82 436.853 363.38 437.8C363.953 438.747 364.86 439.22 366.1 439.22C366.593 439.22 367.033 439.14 367.42 438.98C367.807 438.82 368.133 438.593 368.4 438.3C368.667 438.007 368.873 437.667 369.02 437.28C369.167 436.88 369.24 436.44 369.24 435.96V434.3H366.06V433.34H370.36V440H369.24V438.06ZM374.332 440H373.132V426.04H378.132C379.372 426.04 380.312 426.393 380.952 427.1C381.592 427.793 381.912 428.747 381.912 429.96C381.912 431.093 381.619 432 381.032 432.68C380.459 433.36 379.606 433.733 378.472 433.8H378.172L381.952 440H380.612L376.932 433.86H374.332V440ZM378.112 432.84C378.952 432.84 379.586 432.613 380.012 432.16C380.439 431.707 380.652 431.133 380.652 430.44V429.48C380.652 428.787 380.439 428.213 380.012 427.76C379.586 427.307 378.952 427.08 378.112 427.08H374.332V432.84H378.112ZM392.344 440L391.024 435.74H385.744L384.404 440H383.164L387.604 426.04H389.184L393.604 440H392.344ZM388.444 427.32H388.304L386.024 434.7H390.724L388.444 427.32ZM395.517 440V426.04H400.517C401.757 426.04 402.697 426.393 403.337 427.1C403.977 427.793 404.297 428.747 404.297 429.96C404.297 431.173 403.977 432.133 403.337 432.84C402.697 433.533 401.757 433.88 400.517 433.88H396.717V440H395.517ZM396.717 432.84H400.497C401.337 432.84 401.97 432.613 402.397 432.16C402.823 431.707 403.037 431.133 403.037 430.44V429.48C403.037 428.787 402.823 428.213 402.397 427.76C401.97 427.307 401.337 427.08 400.497 427.08H396.717V432.84ZM413.829 433.44H407.709V440H406.509V426.04H407.709V432.4H413.829V426.04H415.029V440H413.829V433.44ZM417.701 440V439.04H421.361V427H417.701V426.04H426.221V427H422.561V439.04H426.221V440H417.701ZM433.633 440.24C430.3 440.24 428.633 437.833 428.633 433.02C428.633 428.207 430.3 425.8 433.633 425.8C434.206 425.8 434.713 425.88 435.153 426.04C435.593 426.2 435.98 426.413 436.313 426.68C436.646 426.947 436.926 427.26 437.153 427.62C437.393 427.98 437.593 428.36 437.753 428.76L436.733 429.22C436.6 428.887 436.44 428.573 436.253 428.28C436.08 427.987 435.866 427.733 435.613 427.52C435.373 427.307 435.086 427.14 434.753 427.02C434.433 426.9 434.06 426.84 433.633 426.84C432.38 426.84 431.446 427.3 430.833 428.22C430.22 429.127 429.913 430.413 429.913 432.08V433.96C429.913 435.627 430.22 436.92 430.833 437.84C431.446 438.747 432.38 439.2 433.633 439.2C434.06 439.2 434.433 439.14 434.753 439.02C435.086 438.9 435.373 438.733 435.613 438.52C435.866 438.307 436.08 438.06 436.253 437.78C436.44 437.487 436.6 437.167 436.733 436.82L437.753 437.28C437.593 437.68 437.393 438.06 437.153 438.42C436.926 438.78 436.646 439.093 436.313 439.36C435.98 439.627 435.593 439.84 435.153 440C434.713 440.16 434.206 440.24 433.633 440.24ZM444.345 440.24C443.719 440.24 443.159 440.18 442.665 440.06C442.172 439.94 441.725 439.78 441.325 439.58C440.925 439.367 440.565 439.113 440.245 438.82C439.939 438.527 439.659 438.207 439.405 437.86L440.285 437.14C440.805 437.807 441.379 438.32 442.005 438.68C442.632 439.027 443.425 439.2 444.385 439.2C445.505 439.2 446.365 438.953 446.965 438.46C447.565 437.953 447.865 437.227 447.865 436.28C447.865 435.413 447.612 434.773 447.105 434.36C446.612 433.947 445.905 433.667 444.985 433.52L443.425 433.26C442.732 433.14 442.152 432.96 441.685 432.72C441.232 432.48 440.865 432.2 440.585 431.88C440.305 431.547 440.105 431.18 439.985 430.78C439.879 430.38 439.825 429.967 439.825 429.54C439.825 428.287 440.232 427.353 441.045 426.74C441.872 426.113 442.979 425.8 444.365 425.8C445.499 425.8 446.425 425.987 447.145 426.36C447.879 426.72 448.465 427.22 448.905 427.86L448.065 428.6C447.665 428.04 447.172 427.607 446.585 427.3C446.012 426.993 445.259 426.84 444.325 426.84C443.285 426.84 442.472 427.067 441.885 427.52C441.312 427.96 441.025 428.62 441.025 429.5C441.025 430.313 441.265 430.933 441.745 431.36C442.225 431.773 442.939 432.053 443.885 432.2L445.425 432.46C446.132 432.58 446.719 432.767 447.185 433.02C447.652 433.26 448.025 433.547 448.305 433.88C448.585 434.213 448.779 434.58 448.885 434.98C449.005 435.38 449.065 435.8 449.065 436.24C449.065 437.52 448.652 438.507 447.825 439.2C446.999 439.893 445.839 440.24 444.345 440.24ZM463.87 440H462.67V426.04H467.67C468.91 426.04 469.85 426.393 470.49 427.1C471.13 427.793 471.45 428.747 471.45 429.96C471.45 431.093 471.156 432 470.57 432.68C469.996 433.36 469.143 433.733 468.01 433.8H467.71L471.49 440H470.15L466.47 433.86H463.87V440ZM467.65 432.84C468.49 432.84 469.123 432.613 469.55 432.16C469.976 431.707 470.19 431.133 470.19 430.44V429.48C470.19 428.787 469.976 428.213 469.55 427.76C469.123 427.307 468.49 427.08 467.65 427.08H463.87V432.84H467.65ZM473.862 440V426.04H482.282V427.08H475.062V432.4H482.022V433.44H475.062V438.96H482.282V440H473.862ZM489.114 440.24C488.487 440.24 487.927 440.18 487.434 440.06C486.941 439.94 486.494 439.78 486.094 439.58C485.694 439.367 485.334 439.113 485.014 438.82C484.707 438.527 484.427 438.207 484.174 437.86L485.054 437.14C485.574 437.807 486.147 438.32 486.774 438.68C487.401 439.027 488.194 439.2 489.154 439.2C490.274 439.2 491.134 438.953 491.734 438.46C492.334 437.953 492.634 437.227 492.634 436.28C492.634 435.413 492.381 434.773 491.874 434.36C491.381 433.947 490.674 433.667 489.754 433.52L488.194 433.26C487.501 433.14 486.921 432.96 486.454 432.72C486.001 432.48 485.634 432.2 485.354 431.88C485.074 431.547 484.874 431.18 484.754 430.78C484.647 430.38 484.594 429.967 484.594 429.54C484.594 428.287 485.001 427.353 485.814 426.74C486.641 426.113 487.747 425.8 489.134 425.8C490.267 425.8 491.194 425.987 491.914 426.36C492.647 426.72 493.234 427.22 493.674 427.86L492.834 428.6C492.434 428.04 491.941 427.607 491.354 427.3C490.781 426.993 490.027 426.84 489.094 426.84C488.054 426.84 487.241 427.067 486.654 427.52C486.081 427.96 485.794 428.62 485.794 429.5C485.794 430.313 486.034 430.933 486.514 431.36C486.994 431.773 487.707 432.053 488.654 432.2L490.194 432.46C490.901 432.58 491.487 432.767 491.954 433.02C492.421 433.26 492.794 433.547 493.074 433.88C493.354 434.213 493.547 434.58 493.654 434.98C493.774 435.38 493.834 435.8 493.834 436.24C493.834 437.52 493.421 438.507 492.594 439.2C491.767 439.893 490.607 440.24 489.114 440.24ZM496.246 440V426.04H504.666V427.08H497.446V432.4H504.406V433.44H497.446V438.96H504.666V440H496.246ZM515.458 440L514.138 435.74H508.858L507.518 440H506.278L510.718 426.04H512.298L516.718 440H515.458ZM511.558 427.32H511.418L509.138 434.7H513.838L511.558 427.32ZM519.831 440H518.631V426.04H523.631C524.871 426.04 525.811 426.393 526.451 427.1C527.091 427.793 527.411 428.747 527.411 429.96C527.411 431.093 527.117 432 526.531 432.68C525.957 433.36 525.104 433.733 523.971 433.8H523.671L527.451 440H526.111L522.431 433.86H519.831V440ZM523.611 432.84C524.451 432.84 525.084 432.613 525.511 432.16C525.937 431.707 526.151 431.133 526.151 430.44V429.48C526.151 428.787 525.937 428.213 525.511 427.76C525.084 427.307 524.451 427.08 523.611 427.08H519.831V432.84H523.611ZM534.363 440.24C531.029 440.24 529.363 437.833 529.363 433.02C529.363 428.207 531.029 425.8 534.363 425.8C534.936 425.8 535.443 425.88 535.883 426.04C536.323 426.2 536.709 426.413 537.043 426.68C537.376 426.947 537.656 427.26 537.883 427.62C538.123 427.98 538.323 428.36 538.483 428.76L537.463 429.22C537.329 428.887 537.169 428.573 536.983 428.28C536.809 427.987 536.596 427.733 536.343 427.52C536.103 427.307 535.816 427.14 535.483 427.02C535.163 426.9 534.789 426.84 534.363 426.84C533.109 426.84 532.176 427.3 531.563 428.22C530.949 429.127 530.643 430.413 530.643 432.08V433.96C530.643 435.627 530.949 436.92 531.563 437.84C532.176 438.747 533.109 439.2 534.363 439.2C534.789 439.2 535.163 439.14 535.483 439.02C535.816 438.9 536.103 438.733 536.343 438.52C536.596 438.307 536.809 438.06 536.983 437.78C537.169 437.487 537.329 437.167 537.463 436.82L538.483 437.28C538.323 437.68 538.123 438.06 537.883 438.42C537.656 438.78 537.376 439.093 537.043 439.36C536.709 439.627 536.323 439.84 535.883 440C535.443 440.16 534.936 440.24 534.363 440.24ZM548.135 433.44H542.015V440H540.815V426.04H542.015V432.4H548.135V426.04H549.335V440H548.135V433.44ZM564.059 440V426.04H565.259V438.96H572.099V440H564.059ZM582.612 440L581.292 435.74H576.012L574.672 440H573.432L577.872 426.04H579.452L583.872 440H582.612ZM578.712 427.32H578.572L576.292 434.7H580.992L578.712 427.32ZM585.684 426.04H590.304C591.437 426.04 592.324 426.353 592.964 426.98C593.604 427.607 593.924 428.487 593.924 429.62C593.924 430.487 593.737 431.173 593.364 431.68C592.99 432.173 592.484 432.52 591.844 432.72V432.76C592.657 432.933 593.297 433.3 593.764 433.86C594.244 434.407 594.484 435.16 594.484 436.12C594.484 436.68 594.397 437.2 594.224 437.68C594.05 438.147 593.804 438.553 593.484 438.9C593.164 439.247 592.777 439.52 592.324 439.72C591.884 439.907 591.39 440 590.844 440H585.684V426.04ZM590.544 438.96C591.424 438.96 592.09 438.74 592.544 438.3C592.997 437.86 593.224 437.28 593.224 436.56V435.74C593.224 435.02 592.997 434.44 592.544 434C592.09 433.56 591.424 433.34 590.544 433.34H586.884V438.96H590.544ZM590.204 432.34C591.004 432.34 591.61 432.14 592.024 431.74C592.45 431.34 592.664 430.8 592.664 430.12V429.32C592.664 428.64 592.45 428.1 592.024 427.7C591.61 427.287 591.004 427.08 590.204 427.08H586.884V432.34H590.204Z" fill="#FFFAEE"/>
<path d="M485.485 498.975V499.545L479.35 503.085V502.215L484.39 499.305V499.215L479.35 496.305V495.435L485.485 498.975ZM498.218 498.975V499.545L492.083 503.085V502.215L497.123 499.305V499.215L492.083 496.305V495.435L498.218 498.975ZM509.931 504.78H503.451V504H509.931V504.78ZM515.131 493.395H516.031V503.22H521.086V504H515.131V493.395ZM530.052 494.55H529.992L526.662 504H525.747L529.542 493.395H530.562L534.342 504H533.382L530.052 494.55ZM532.467 500.82H527.622V500.04H532.467V500.82ZM538.752 493.395L541.962 498.795H542.037L545.247 493.395H546.222L542.427 499.575V504H541.572V499.575L537.717 493.395H538.752ZM559.578 498.69C559.578 500.44 559.198 501.79 558.438 502.74C557.688 503.68 556.583 504.15 555.123 504.15C553.663 504.15 552.553 503.68 551.793 502.74C551.043 501.79 550.668 500.44 550.668 498.69C550.668 496.94 551.043 495.595 551.793 494.655C552.553 493.715 553.663 493.245 555.123 493.245C556.583 493.245 557.688 493.715 558.438 494.655C559.198 495.595 559.578 496.94 559.578 498.69ZM558.678 498.69C558.678 497.1 558.383 495.93 557.793 495.18C557.213 494.43 556.323 494.055 555.123 494.055C553.923 494.055 553.028 494.43 552.438 495.18C551.858 495.93 551.568 497.1 551.568 498.69C551.568 500.28 551.858 501.455 552.438 502.215C553.028 502.965 553.923 503.34 555.123 503.34C556.323 503.34 557.213 502.965 557.793 502.215C558.383 501.455 558.678 500.28 558.678 498.69ZM573.333 493.395V500.61C573.333 501.31 573.198 501.93 572.928 502.47C572.668 503.01 572.258 503.435 571.698 503.745C571.138 504.045 570.403 504.195 569.493 504.195C568.593 504.195 567.858 504.045 567.288 503.745C566.728 503.435 566.313 503.01 566.043 502.47C565.783 501.93 565.653 501.31 565.653 500.61V493.395H566.553V500.475C566.553 501.065 566.643 501.58 566.823 502.02C567.003 502.46 567.308 502.8 567.738 503.04C568.168 503.27 568.753 503.385 569.493 503.385C570.243 503.385 570.828 503.27 571.248 503.04C571.678 502.8 571.983 502.46 572.163 502.02C572.343 501.58 572.433 501.065 572.433 500.475V493.395H573.333ZM578.586 493.395H586.416V494.175H582.951V504H582.051V494.175H578.586V493.395Z" fill="#FFFAEE"/>
<path d="M366.97 454.14L369.73 459H368.725L366.07 454.305L366.97 454.14ZM365.8 453.855C366.51 453.855 367.06 453.765 367.45 453.585C367.84 453.405 368.115 453.14 368.275 452.79C368.435 452.44 368.515 452.01 368.515 451.5C368.515 450.98 368.435 450.55 368.275 450.21C368.115 449.87 367.84 449.615 367.45 449.445C367.06 449.265 366.51 449.175 365.8 449.175H363.22V453.855H365.8ZM365.875 454.635H363.22V459H362.32V448.395H365.86C366.72 448.395 367.41 448.52 367.93 448.77C368.45 449.01 368.825 449.36 369.055 449.82C369.295 450.28 369.415 450.84 369.415 451.5C369.415 452.02 369.36 452.475 369.25 452.865C369.14 453.255 368.95 453.585 368.68 453.855C368.41 454.115 368.045 454.31 367.585 454.44C367.135 454.57 366.565 454.635 365.875 454.635ZM371.022 448.395H376.992V449.175H371.922V453.3H376.647V454.08H371.922V458.22H377.067V459H371.022V448.395ZM378.786 448.395H384.831V449.175H379.686V453.3H384.336V454.08H379.686V459H378.786V448.395ZM388.432 459H387.532V448.395H388.432V459ZM385.897 449.175V448.395H390.052V449.175H385.897ZM385.897 459V458.22H390.052V459H385.897ZM399.876 459H398.871L392.946 449.895H392.826V459H391.941V448.395H392.961L398.871 457.485H398.991V448.395H399.876V459ZM401.918 448.395H407.888V449.175H402.818V453.3H407.543V454.08H402.818V458.22H407.963V459H401.918V448.395ZM409.682 459V448.395H412.967C414.507 448.395 415.672 448.845 416.462 449.745C417.252 450.645 417.647 451.96 417.647 453.69C417.647 455.41 417.242 456.725 416.432 457.635C415.632 458.545 414.427 459 412.817 459H409.682ZM412.742 458.22C413.752 458.22 414.547 458.04 415.127 457.68C415.707 457.31 416.122 456.785 416.372 456.105C416.622 455.425 416.747 454.62 416.747 453.69C416.747 452.75 416.622 451.945 416.372 451.275C416.132 450.595 415.727 450.075 415.157 449.715C414.597 449.355 413.832 449.175 412.862 449.175H410.582V458.22H412.742ZM424.378 459.78H417.898V459H424.378V459.78ZM425.079 459V448.395H428.364C429.904 448.395 431.069 448.845 431.859 449.745C432.649 450.645 433.044 451.96 433.044 453.69C433.044 455.41 432.639 456.725 431.829 457.635C431.029 458.545 429.824 459 428.214 459H425.079ZM428.139 458.22C429.149 458.22 429.944 458.04 430.524 457.68C431.104 457.31 431.519 456.785 431.769 456.105C432.019 455.425 432.144 454.62 432.144 453.69C432.144 452.75 432.019 451.945 431.769 451.275C431.529 450.595 431.124 450.075 430.554 449.715C429.994 449.355 429.229 449.175 428.259 449.175H425.979V458.22H428.139ZM436.79 459H435.89V448.395H436.79V459ZM434.255 449.175V448.395H438.41V449.175H434.255ZM434.255 459V458.22H438.41V459H434.255ZM447.475 454.5H444.46V453.72H448.375V454.92C448.375 455.67 448.225 456.37 447.925 457.02C447.635 457.66 447.18 458.175 446.56 458.565C445.95 458.955 445.16 459.15 444.19 459.15C442.74 459.15 441.615 458.68 440.815 457.74C440.025 456.79 439.63 455.44 439.63 453.69C439.63 451.94 440.025 450.595 440.815 449.655C441.615 448.715 442.74 448.245 444.19 448.245C444.88 448.245 445.505 448.365 446.065 448.605C446.625 448.835 447.095 449.185 447.475 449.655C447.855 450.125 448.115 450.725 448.255 451.455H447.325C447.165 450.595 446.81 449.98 446.26 449.61C445.72 449.24 445.03 449.055 444.19 449.055C443.01 449.055 442.105 449.425 441.475 450.165C440.845 450.905 440.53 452.08 440.53 453.69C440.53 455.29 440.845 456.465 441.475 457.215C442.105 457.965 443.01 458.34 444.19 458.34C444.8 458.34 445.305 458.255 445.705 458.085C446.105 457.905 446.425 457.67 446.665 457.38C446.905 457.09 447.08 456.775 447.19 456.435C447.31 456.095 447.385 455.755 447.415 455.415C447.455 455.075 447.475 454.77 447.475 454.5ZM452.084 459H451.184V448.395H452.084V459ZM449.549 449.175V448.395H453.704V449.175H449.549ZM449.549 459V458.22H453.704V459H449.549ZM454.504 448.395H462.334V449.175H458.869V459H457.969V449.175H454.504V448.395ZM465.766 449.55H465.706L462.376 459H461.461L465.256 448.395H466.276L470.056 459H469.096L465.766 449.55ZM468.181 455.82H463.336V455.04H468.181V455.82ZM471.151 448.395H472.051V458.22H477.106V459H471.151V448.395ZM483.358 459.78H476.878V459H483.358V459.78ZM487.418 449.55H487.358L484.028 459H483.113L486.908 448.395H487.928L491.708 459H490.748L487.418 449.55ZM489.833 455.82H484.988V455.04H489.833V455.82ZM497.454 454.14L500.214 459H499.209L496.554 454.305L497.454 454.14ZM496.284 453.855C496.994 453.855 497.544 453.765 497.934 453.585C498.324 453.405 498.599 453.14 498.759 452.79C498.919 452.44 498.999 452.01 498.999 451.5C498.999 450.98 498.919 450.55 498.759 450.21C498.599 449.87 498.324 449.615 497.934 449.445C497.544 449.265 496.994 449.175 496.284 449.175H493.704V453.855H496.284ZM496.359 454.635H493.704V459H492.804V448.395H496.344C497.204 448.395 497.894 448.52 498.414 448.77C498.934 449.01 499.309 449.36 499.539 449.82C499.779 450.28 499.899 450.84 499.899 451.5C499.899 452.02 499.844 452.475 499.734 452.865C499.624 453.255 499.434 453.585 499.164 453.855C498.894 454.115 498.529 454.31 498.069 454.44C497.619 454.57 497.049 454.635 496.359 454.635ZM500.167 448.395H507.997V449.175H504.532V459H503.632V449.175H500.167V448.395ZM511.327 459H510.427V448.395H511.327V459ZM508.792 449.175V448.395H512.947V449.175H508.792ZM508.792 459V458.22H512.947V459H508.792ZM514.837 448.395H520.882V449.175H515.737V453.3H520.387V454.08H515.737V459H514.837V448.395ZM524.54 449.55H524.48L521.15 459H520.235L524.03 448.395H525.05L528.83 459H527.87L524.54 449.55ZM526.955 455.82H522.11V455.04H526.955V455.82ZM536.462 451.47C536.332 450.66 536.007 450.055 535.487 449.655C534.977 449.255 534.297 449.055 533.447 449.055C532.327 449.055 531.457 449.435 530.837 450.195C530.227 450.955 529.922 452.115 529.922 453.675C529.922 455.245 530.227 456.415 530.837 457.185C531.457 457.945 532.327 458.325 533.447 458.325C534.297 458.325 534.977 458.125 535.487 457.725C536.007 457.325 536.337 456.725 536.477 455.925H537.422C537.252 456.975 536.832 457.775 536.162 458.325C535.492 458.875 534.587 459.15 533.447 459.15C531.967 459.15 530.857 458.675 530.117 457.725C529.387 456.765 529.022 455.415 529.022 453.675C529.022 451.945 529.387 450.61 530.117 449.67C530.857 448.72 531.967 448.245 533.447 448.245C534.157 448.245 534.787 448.365 535.337 448.605C535.897 448.845 536.352 449.205 536.702 449.685C537.062 450.165 537.297 450.76 537.407 451.47H536.462ZM537.508 448.395H545.338V449.175H541.873V459H540.973V449.175H537.508V448.395ZM551.683 450.69C551.603 450.07 551.328 449.64 550.858 449.4C550.398 449.16 549.788 449.04 549.028 449.04C548.158 449.04 547.513 449.21 547.093 449.55C546.673 449.88 546.463 450.37 546.463 451.02C546.463 451.4 546.533 451.71 546.673 451.95C546.823 452.19 547.013 452.385 547.243 452.535C547.473 452.675 547.718 452.79 547.978 452.88C548.238 452.96 548.478 453.03 548.698 453.09L549.853 453.405C550.143 453.485 550.458 453.585 550.798 453.705C551.138 453.825 551.458 453.99 551.758 454.2C552.068 454.41 552.318 454.68 552.508 455.01C552.698 455.34 552.793 455.75 552.793 456.24C552.793 456.8 552.658 457.305 552.388 457.755C552.118 458.205 551.703 458.56 551.143 458.82C550.583 459.07 549.868 459.195 548.998 459.195C547.838 459.195 546.948 458.96 546.328 458.49C545.708 458.02 545.358 457.385 545.278 456.585H546.208C546.268 457.065 546.423 457.435 546.673 457.695C546.923 457.955 547.243 458.14 547.633 458.25C548.033 458.35 548.488 458.4 548.998 458.4C549.918 458.4 550.628 458.225 551.128 457.875C551.638 457.515 551.893 456.96 551.893 456.21C551.893 455.76 551.783 455.405 551.563 455.145C551.353 454.885 551.068 454.68 550.708 454.53C550.358 454.38 549.978 454.25 549.568 454.14L548.128 453.75C547.308 453.52 546.673 453.2 546.223 452.79C545.783 452.38 545.563 451.815 545.563 451.095C545.563 450.505 545.703 450 545.983 449.58C546.273 449.15 546.678 448.82 547.198 448.59C547.728 448.36 548.353 448.245 549.073 448.245C549.773 448.245 550.373 448.35 550.873 448.56C551.383 448.76 551.783 449.045 552.073 449.415C552.373 449.775 552.543 450.2 552.583 450.69H551.683ZM365.365 470.595L369.67 477H368.59L364.72 471.225L365.365 470.595ZM363.22 477H362.32V466.395H363.22V477ZM362.995 474.075V472.83L368.29 466.395H369.385L362.995 474.075ZM373.607 477H372.707V466.395H373.607V477ZM371.072 467.175V466.395H375.227V467.175H371.072ZM371.072 477V476.22H375.227V477H371.072ZM385.051 477H384.046L378.121 467.895H378.001V477H377.116V466.395H378.136L384.046 475.485H384.166V466.395H385.051V477ZM387.092 466.395H393.062V467.175H387.992V471.3H392.717V472.08H387.992V476.22H393.137V477H387.092V466.395ZM393.752 466.395H401.582V467.175H398.117V477H397.217V467.175H393.752V466.395ZM404.913 477H404.013V466.395H404.913V477ZM402.378 467.175V466.395H406.533V467.175H402.378ZM402.378 477V476.22H406.533V477H402.378ZM415.192 469.47C415.062 468.66 414.737 468.055 414.217 467.655C413.707 467.255 413.027 467.055 412.177 467.055C411.057 467.055 410.187 467.435 409.567 468.195C408.957 468.955 408.652 470.115 408.652 471.675C408.652 473.245 408.957 474.415 409.567 475.185C410.187 475.945 411.057 476.325 412.177 476.325C413.027 476.325 413.707 476.125 414.217 475.725C414.737 475.325 415.067 474.725 415.207 473.925H416.152C415.982 474.975 415.562 475.775 414.892 476.325C414.222 476.875 413.317 477.15 412.177 477.15C410.697 477.15 409.587 476.675 408.847 475.725C408.117 474.765 407.752 473.415 407.752 471.675C407.752 469.945 408.117 468.61 408.847 467.67C409.587 466.72 410.697 466.245 412.177 466.245C412.887 466.245 413.517 466.365 414.067 466.605C414.627 466.845 415.082 467.205 415.432 467.685C415.792 468.165 416.027 468.76 416.137 469.47H415.192ZM422.855 477.78H416.375V477H422.855V477.78ZM425.715 477H424.815V466.395H425.715V477ZM423.18 467.175V466.395H427.335V467.175H423.18ZM423.18 477V476.22H427.335V477H423.18ZM429.225 477V466.395H432.51C434.05 466.395 435.215 466.845 436.005 467.745C436.795 468.645 437.19 469.96 437.19 471.69C437.19 473.41 436.785 474.725 435.975 475.635C435.175 476.545 433.97 477 432.36 477H429.225ZM432.285 476.22C433.295 476.22 434.09 476.04 434.67 475.68C435.25 475.31 435.665 474.785 435.915 474.105C436.165 473.425 436.29 472.62 436.29 471.69C436.29 470.75 436.165 469.945 435.915 469.275C435.675 468.595 435.27 468.075 434.7 467.715C434.14 467.355 433.375 467.175 432.405 467.175H430.125V476.22H432.285ZM438.776 466.395H444.746V467.175H439.676V471.3H444.401V472.08H439.676V476.22H444.821V477H438.776V466.395ZM454.475 477H453.47L447.545 467.895H447.425V477H446.54V466.395H447.56L453.47 475.485H453.59V466.395H454.475V477ZM455.251 466.395H463.081V467.175H459.616V477H458.716V467.175H455.251V466.395ZM466.411 477H465.511V466.395H466.411V477ZM463.876 467.175V466.395H468.031V467.175H463.876ZM463.876 477V476.22H468.031V477H463.876ZM468.831 466.395H476.661V467.175H473.196V477H472.296V467.175H468.831V466.395ZM479.992 477H479.092V466.395H479.992V477ZM477.457 467.175V466.395H481.612V467.175H477.457ZM477.457 477V476.22H481.612V477H477.457ZM483.501 466.395H489.471V467.175H484.401V471.3H489.126V472.08H484.401V476.22H489.546V477H483.501V466.395ZM496.879 468.69C496.799 468.07 496.524 467.64 496.054 467.4C495.594 467.16 494.984 467.04 494.224 467.04C493.354 467.04 492.709 467.21 492.289 467.55C491.869 467.88 491.659 468.37 491.659 469.02C491.659 469.4 491.729 469.71 491.869 469.95C492.019 470.19 492.209 470.385 492.439 470.535C492.669 470.675 492.914 470.79 493.174 470.88C493.434 470.96 493.674 471.03 493.894 471.09L495.049 471.405C495.339 471.485 495.654 471.585 495.994 471.705C496.334 471.825 496.654 471.99 496.954 472.2C497.264 472.41 497.514 472.68 497.704 473.01C497.894 473.34 497.989 473.75 497.989 474.24C497.989 474.8 497.854 475.305 497.584 475.755C497.314 476.205 496.899 476.56 496.339 476.82C495.779 477.07 495.064 477.195 494.194 477.195C493.034 477.195 492.144 476.96 491.524 476.49C490.904 476.02 490.554 475.385 490.474 474.585H491.404C491.464 475.065 491.619 475.435 491.869 475.695C492.119 475.955 492.439 476.14 492.829 476.25C493.229 476.35 493.684 476.4 494.194 476.4C495.114 476.4 495.824 476.225 496.324 475.875C496.834 475.515 497.089 474.96 497.089 474.21C497.089 473.76 496.979 473.405 496.759 473.145C496.549 472.885 496.264 472.68 495.904 472.53C495.554 472.38 495.174 472.25 494.764 472.14L493.324 471.75C492.504 471.52 491.869 471.2 491.419 470.79C490.979 470.38 490.759 469.815 490.759 469.095C490.759 468.505 490.899 468 491.179 467.58C491.469 467.15 491.874 466.82 492.394 466.59C492.924 466.36 493.549 466.245 494.269 466.245C494.969 466.245 495.569 466.35 496.069 466.56C496.579 466.76 496.979 467.045 497.269 467.415C497.569 467.775 497.739 468.2 497.779 468.69H496.879Z" fill="#FFFAEE"/>
<path d="M482.95 514.31V524H482.05V514.31H478.465V513.53H486.535V514.31H482.95ZM492.739 519.08H488.149V524H487.249V513.53H488.149V518.3H492.739V513.53H493.639V524H492.739V519.08ZM495.343 524V513.53H501.658V514.31H496.243V518.3H501.463V519.08H496.243V523.22H501.658V524H495.343ZM527.165 513.53H530.015C531.285 513.53 532.22 513.975 532.82 514.865C533.43 515.745 533.735 517.045 533.735 518.765C533.735 520.495 533.43 521.8 532.82 522.68C532.22 523.56 531.285 524 530.015 524H527.165V513.53ZM529.985 523.22C530.935 523.22 531.635 522.89 532.085 522.23C532.545 521.56 532.775 520.63 532.775 519.44V518.09C532.775 516.9 532.545 515.975 532.085 515.315C531.635 514.645 530.935 514.31 529.985 514.31H528.065V523.22H529.985ZM535.064 524V513.53H541.379V514.31H535.964V518.3H541.184V519.08H535.964V523.22H541.379V524H535.064ZM546.053 524.18C545.583 524.18 545.163 524.135 544.793 524.045C544.423 523.955 544.088 523.835 543.788 523.685C543.488 523.525 543.218 523.335 542.978 523.115C542.748 522.895 542.538 522.655 542.348 522.395L543.008 521.855C543.398 522.355 543.828 522.74 544.298 523.01C544.768 523.27 545.363 523.4 546.083 523.4C546.923 523.4 547.568 523.215 548.018 522.845C548.468 522.465 548.693 521.92 548.693 521.21C548.693 520.56 548.503 520.08 548.123 519.77C547.753 519.46 547.223 519.25 546.533 519.14L545.363 518.945C544.843 518.855 544.408 518.72 544.058 518.54C543.718 518.36 543.443 518.15 543.233 517.91C543.023 517.66 542.873 517.385 542.783 517.085C542.703 516.785 542.663 516.475 542.663 516.155C542.663 515.215 542.968 514.515 543.578 514.055C544.198 513.585 545.028 513.35 546.068 513.35C546.918 513.35 547.613 513.49 548.153 513.77C548.703 514.04 549.143 514.415 549.473 514.895L548.843 515.45C548.543 515.03 548.173 514.705 547.733 514.475C547.303 514.245 546.738 514.13 546.038 514.13C545.258 514.13 544.648 514.3 544.208 514.64C543.778 514.97 543.563 515.465 543.563 516.125C543.563 516.735 543.743 517.2 544.103 517.52C544.463 517.83 544.998 518.04 545.708 518.15L546.863 518.345C547.393 518.435 547.833 518.575 548.183 518.765C548.533 518.945 548.813 519.16 549.023 519.41C549.233 519.66 549.378 519.935 549.458 520.235C549.548 520.535 549.593 520.85 549.593 521.18C549.593 522.14 549.283 522.88 548.663 523.4C548.043 523.92 547.173 524.18 546.053 524.18ZM550.802 524V523.28H553.547V514.25H550.802V513.53H557.192V514.25H554.447V523.28H557.192V524H550.802ZM564.371 522.545H564.311C564.221 522.765 564.111 522.975 563.981 523.175C563.851 523.365 563.691 523.535 563.501 523.685C563.311 523.835 563.076 523.955 562.796 524.045C562.526 524.135 562.206 524.18 561.836 524.18C560.696 524.18 559.836 523.735 559.256 522.845C558.676 521.955 558.386 520.61 558.386 518.81C558.386 516.96 558.691 515.59 559.301 514.7C559.921 513.8 560.841 513.35 562.061 513.35C562.491 513.35 562.876 513.41 563.216 513.53C563.556 513.65 563.851 513.81 564.101 514.01C564.351 514.21 564.561 514.445 564.731 514.715C564.911 514.985 565.056 515.27 565.166 515.57L564.386 515.915C564.196 515.405 563.921 514.98 563.561 514.64C563.211 514.3 562.721 514.13 562.091 514.13C561.161 514.13 560.471 514.475 560.021 515.165C559.571 515.845 559.346 516.81 559.346 518.06V519.425C559.346 520.665 559.556 521.64 559.976 522.35C560.406 523.06 561.086 523.415 562.016 523.415C562.386 523.415 562.716 523.355 563.006 523.235C563.296 523.115 563.541 522.945 563.741 522.725C563.941 522.505 564.096 522.25 564.206 521.96C564.316 521.66 564.371 521.33 564.371 520.97V519.725H561.986V519.005H565.211V524H564.371V522.545ZM567.591 514.715H567.516V524H566.691V513.53H567.966L572.181 522.815H572.256V513.53H573.081V524H571.806L567.591 514.715ZM622.495 513.53H625.345C626.615 513.53 627.55 513.975 628.15 514.865C628.76 515.745 629.065 517.045 629.065 518.765C629.065 520.495 628.76 521.8 628.15 522.68C627.55 523.56 626.615 524 625.345 524H622.495V513.53ZM625.315 523.22C626.265 523.22 626.965 522.89 627.415 522.23C627.875 521.56 628.105 520.63 628.105 519.44V518.09C628.105 516.9 627.875 515.975 627.415 515.315C626.965 514.645 626.265 514.31 625.315 514.31H623.395V523.22H625.315ZM630.394 524V513.53H636.709V514.31H631.294V518.3H636.514V519.08H631.294V523.22H636.709V524H630.394ZM638.338 524V513.53H642.088C643.018 513.53 643.723 513.795 644.203 514.325C644.683 514.845 644.923 515.56 644.923 516.47C644.923 517.38 644.683 518.1 644.203 518.63C643.723 519.15 643.018 519.41 642.088 519.41H639.238V524H638.338ZM639.238 518.63H642.073C642.703 518.63 643.178 518.46 643.498 518.12C643.818 517.78 643.978 517.35 643.978 516.83V516.11C643.978 515.59 643.818 515.16 643.498 514.82C643.178 514.48 642.703 514.31 642.073 514.31H639.238V518.63ZM652.297 524L651.307 520.805H647.347L646.342 524H645.412L648.742 513.53H649.927L653.242 524H652.297ZM649.372 514.49H649.267L647.557 520.025H651.082L649.372 514.49ZM655.126 524H654.226V513.53H657.976C658.906 513.53 659.611 513.795 660.091 514.325C660.571 514.845 660.811 515.56 660.811 516.47C660.811 517.32 660.591 518 660.151 518.51C659.721 519.02 659.081 519.3 658.231 519.35H658.006L660.841 524H659.836L657.076 519.395H655.126V524ZM657.961 518.63C658.591 518.63 659.066 518.46 659.386 518.12C659.706 517.78 659.866 517.35 659.866 516.83V516.11C659.866 515.59 659.706 515.16 659.386 514.82C659.066 514.48 658.591 514.31 657.961 514.31H655.126V518.63H657.961ZM665.665 514.31V524H664.765V514.31H661.18V513.53H669.25V514.31H665.665ZM675.709 514.88H675.619L673.159 520.625L670.699 514.88H670.609V524H669.784V513.53H670.954L673.144 518.705H673.219L675.394 513.53H676.534V524H675.709V514.88ZM678.059 524V513.53H684.374V514.31H678.959V518.3H684.179V519.08H678.959V523.22H684.374V524H678.059ZM686.753 514.715H686.678V524H685.853V513.53H687.128L691.343 522.815H691.418V513.53H692.243V524H690.968L686.753 514.715ZM697.442 514.31V524H696.542V514.31H692.957V513.53H701.027V514.31H697.442ZM479.95 544V533.53H480.85V543.22H485.98V544H479.95ZM493.414 544L492.424 540.805H488.464L487.459 544H486.529L489.859 533.53H491.044L494.359 544H493.414ZM490.489 534.49H490.384L488.674 540.025H492.199L490.489 534.49ZM497.938 544V539.77L494.203 533.53H495.238L498.358 538.87H498.418L501.568 533.53H502.573L498.838 539.77V544H497.938ZM506.332 544.18C505.122 544.18 504.222 543.73 503.632 542.83C503.052 541.92 502.762 540.565 502.762 538.765C502.762 536.965 503.052 535.615 503.632 534.715C504.222 533.805 505.122 533.35 506.332 533.35C507.542 533.35 508.437 533.805 509.017 534.715C509.607 535.615 509.902 536.965 509.902 538.765C509.902 540.565 509.607 541.92 509.017 542.83C508.437 543.73 507.542 544.18 506.332 544.18ZM506.332 543.4C507.232 543.4 507.892 543.06 508.312 542.38C508.732 541.69 508.942 540.72 508.942 539.47V538.06C508.942 536.82 508.732 535.855 508.312 535.165C507.892 534.475 507.232 534.13 506.332 534.13C505.432 534.13 504.772 534.475 504.352 535.165C503.932 535.855 503.722 536.82 503.722 538.06V539.47C503.722 540.72 503.932 541.69 504.352 542.38C504.772 543.06 505.432 543.4 506.332 543.4ZM511.982 533.53V539.845C511.982 540.455 512.007 540.985 512.057 541.435C512.107 541.875 512.212 542.245 512.372 542.545C512.532 542.835 512.762 543.05 513.062 543.19C513.362 543.33 513.767 543.4 514.277 543.4C514.787 543.4 515.192 543.33 515.492 543.19C515.792 543.05 516.022 542.835 516.182 542.545C516.342 542.245 516.447 541.875 516.497 541.435C516.547 540.985 516.572 540.455 516.572 539.845V533.53H517.472V539.665C517.472 540.465 517.427 541.15 517.337 541.72C517.257 542.28 517.097 542.745 516.857 543.115C516.627 543.485 516.302 543.755 515.882 543.925C515.472 544.095 514.937 544.18 514.277 544.18C513.617 544.18 513.077 544.095 512.657 543.925C512.247 543.755 511.922 543.485 511.682 543.115C511.452 542.745 511.292 542.28 511.202 541.72C511.122 541.15 511.082 540.465 511.082 539.665V533.53H511.982ZM522.671 534.31V544H521.771V534.31H518.186V533.53H526.256V534.31H522.671ZM529.67 542.305H531.11L529.595 546.295H528.875L529.67 542.305ZM546.413 544.18C543.913 544.18 542.663 542.375 542.663 538.765C542.663 535.155 543.913 533.35 546.413 533.35C546.843 533.35 547.223 533.41 547.553 533.53C547.883 533.65 548.173 533.81 548.423 534.01C548.673 534.21 548.883 534.445 549.053 534.715C549.233 534.985 549.383 535.27 549.503 535.57L548.738 535.915C548.638 535.665 548.518 535.43 548.378 535.21C548.248 534.99 548.088 534.8 547.898 534.64C547.718 534.48 547.503 534.355 547.253 534.265C547.013 534.175 546.733 534.13 546.413 534.13C545.473 534.13 544.773 534.475 544.313 535.165C543.853 535.845 543.623 536.81 543.623 538.06V539.47C543.623 540.72 543.853 541.69 544.313 542.38C544.773 543.06 545.473 543.4 546.413 543.4C546.733 543.4 547.013 543.355 547.253 543.265C547.503 543.175 547.718 543.05 547.898 542.89C548.088 542.73 548.248 542.545 548.378 542.335C548.518 542.115 548.638 541.875 548.738 541.615L549.503 541.96C549.383 542.26 549.233 542.545 549.053 542.815C548.883 543.085 548.673 543.32 548.423 543.52C548.173 543.72 547.883 543.88 547.553 544C547.223 544.12 546.843 544.18 546.413 544.18ZM553.997 544.18C552.787 544.18 551.887 543.73 551.297 542.83C550.717 541.92 550.427 540.565 550.427 538.765C550.427 536.965 550.717 535.615 551.297 534.715C551.887 533.805 552.787 533.35 553.997 533.35C555.207 533.35 556.102 533.805 556.682 534.715C557.272 535.615 557.567 536.965 557.567 538.765C557.567 540.565 557.272 541.92 556.682 542.83C556.102 543.73 555.207 544.18 553.997 544.18ZM553.997 543.4C554.897 543.4 555.557 543.06 555.977 542.38C556.397 541.69 556.607 540.72 556.607 539.47V538.06C556.607 536.82 556.397 535.855 555.977 535.165C555.557 534.475 554.897 534.13 553.997 534.13C553.097 534.13 552.437 534.475 552.017 535.165C551.597 535.855 551.387 536.82 551.387 538.06V539.47C551.387 540.72 551.597 541.69 552.017 542.38C552.437 543.06 553.097 543.4 553.997 543.4ZM559.646 534.715H559.571V544H558.746V533.53H560.021L564.236 542.815H564.311V533.53H565.136V544H563.861L559.646 534.715ZM570.246 544.18C567.746 544.18 566.496 542.375 566.496 538.765C566.496 535.155 567.746 533.35 570.246 533.35C570.676 533.35 571.056 533.41 571.386 533.53C571.716 533.65 572.006 533.81 572.256 534.01C572.506 534.21 572.716 534.445 572.886 534.715C573.066 534.985 573.216 535.27 573.336 535.57L572.571 535.915C572.471 535.665 572.351 535.43 572.211 535.21C572.081 534.99 571.921 534.8 571.731 534.64C571.551 534.48 571.336 534.355 571.086 534.265C570.846 534.175 570.566 534.13 570.246 534.13C569.306 534.13 568.606 534.475 568.146 535.165C567.686 535.845 567.456 536.81 567.456 538.06V539.47C567.456 540.72 567.686 541.69 568.146 542.38C568.606 543.06 569.306 543.4 570.246 543.4C570.566 543.4 570.846 543.355 571.086 543.265C571.336 543.175 571.551 543.05 571.731 542.89C571.921 542.73 572.081 542.545 572.211 542.335C572.351 542.115 572.471 541.875 572.571 541.615L573.336 541.96C573.216 542.26 573.066 542.545 572.886 542.815C572.716 543.085 572.506 543.32 572.256 543.52C572.006 543.72 571.716 543.88 571.386 544C571.056 544.12 570.676 544.18 570.246 544.18ZM574.785 544V533.53H581.1V534.31H575.685V538.3H580.905V539.08H575.685V543.22H581.1V544H574.785ZM582.729 544V533.53H586.479C587.409 533.53 588.114 533.795 588.594 534.325C589.074 534.845 589.314 535.56 589.314 536.47C589.314 537.38 589.074 538.1 588.594 538.63C588.114 539.15 587.409 539.41 586.479 539.41H583.629V544H582.729ZM583.629 538.63H586.464C587.094 538.63 587.569 538.46 587.889 538.12C588.209 537.78 588.369 537.35 588.369 536.83V536.11C588.369 535.59 588.209 535.16 587.889 534.82C587.569 534.48 587.094 534.31 586.464 534.31H583.629V538.63ZM594.168 534.31V544H593.268V534.31H589.683V533.53H597.753V534.31H594.168ZM601.167 542.305H602.607L601.092 546.295H600.372L601.167 542.305ZM622.45 544V533.53H626.2C627.13 533.53 627.835 533.795 628.315 534.325C628.795 534.845 629.035 535.56 629.035 536.47C629.035 537.38 628.795 538.1 628.315 538.63C627.835 539.15 627.13 539.41 626.2 539.41H623.35V544H622.45ZM623.35 538.63H626.185C626.815 538.63 627.29 538.46 627.61 538.12C627.93 537.78 628.09 537.35 628.09 536.83V536.11C628.09 535.59 627.93 535.16 627.61 534.82C627.29 534.48 626.815 534.31 626.185 534.31H623.35V538.63ZM630.244 544V543.28H632.989V534.25H630.244V533.53H636.634V534.25H633.889V543.28H636.634V544H630.244ZM645.373 544H644.338L641.428 539.35H641.383L638.398 544H637.408L640.888 538.675L637.573 533.53H638.608L641.398 537.94H641.443L644.263 533.53H645.253L641.938 538.645L645.373 544ZM646.282 544V533.53H652.597V534.31H647.182V538.3H652.402V539.08H647.182V543.22H652.597V544H646.282ZM654.721 544V533.53H655.621V543.22H660.751V544H654.721ZM665.215 544.18C664.745 544.18 664.325 544.135 663.955 544.045C663.585 543.955 663.25 543.835 662.95 543.685C662.65 543.525 662.38 543.335 662.14 543.115C661.91 542.895 661.7 542.655 661.51 542.395L662.17 541.855C662.56 542.355 662.99 542.74 663.46 543.01C663.93 543.27 664.525 543.4 665.245 543.4C666.085 543.4 666.73 543.215 667.18 542.845C667.63 542.465 667.855 541.92 667.855 541.21C667.855 540.56 667.665 540.08 667.285 539.77C666.915 539.46 666.385 539.25 665.695 539.14L664.525 538.945C664.005 538.855 663.57 538.72 663.22 538.54C662.88 538.36 662.605 538.15 662.395 537.91C662.185 537.66 662.035 537.385 661.945 537.085C661.865 536.785 661.825 536.475 661.825 536.155C661.825 535.215 662.13 534.515 662.74 534.055C663.36 533.585 664.19 533.35 665.23 533.35C666.08 533.35 666.775 533.49 667.315 533.77C667.865 534.04 668.305 534.415 668.635 534.895L668.005 535.45C667.705 535.03 667.335 534.705 666.895 534.475C666.465 534.245 665.9 534.13 665.2 534.13C664.42 534.13 663.81 534.3 663.37 534.64C662.94 534.97 662.725 535.465 662.725 536.125C662.725 536.735 662.905 537.2 663.265 537.52C663.625 537.83 664.16 538.04 664.87 538.15L666.025 538.345C666.555 538.435 666.995 538.575 667.345 538.765C667.695 538.945 667.975 539.16 668.185 539.41C668.395 539.66 668.54 539.935 668.62 540.235C668.71 540.535 668.755 540.85 668.755 541.18C668.755 542.14 668.445 542.88 667.825 543.4C667.205 543.92 666.335 544.18 665.215 544.18Z" fill="#FFFAEE"/>
<path d="M680 477H701V427H680V477Z" fill="#FFFAEE"/>
<path d="M670 477.064H674.16V427H670V477.064Z" fill="#FFFAEE"/>
<path d="M660 477.064H664.16V427H660V477.064Z" fill="#FFFAEE"/>
<path d="M650 477.064H654.16V427H650V477.064Z" fill="#FFFAEE"/>
<path d="M640 477.064H644.16V427H640V477.064Z" fill="#FFFAEE"/>
<path d="M630 477.064H634.16V427H630V477.064Z" fill="#FFFAEE"/>
<path d="M620 477.064H624.16V427H620V477.064Z" fill="#FFFAEE"/>
<path d="M365.992 587V570.032H371.536C374.112 570.032 376.04 570.76 377.32 572.216C378.616 573.656 379.264 575.752 379.264 578.504C379.264 581.24 378.608 583.344 377.296 584.816C375.984 586.272 373.984 587 371.296 587H365.992ZM371.176 585.248C372.68 585.248 373.872 584.992 374.752 584.48C375.632 583.952 376.256 583.184 376.624 582.176C377.008 581.168 377.2 579.944 377.2 578.504C377.2 577.048 377.008 575.824 376.624 574.832C376.256 573.824 375.648 573.064 374.8 572.552C373.952 572.04 372.808 571.784 371.368 571.784H368.056V585.248H371.176ZM383.717 580.064H391.877C391.861 578.816 391.565 577.872 390.989 577.232C390.429 576.592 389.573 576.272 388.421 576.272C387.141 576.272 386.205 576.664 385.613 577.448C385.021 578.216 384.725 579.36 384.725 580.88C384.725 582.432 385.013 583.608 385.589 584.408C386.181 585.192 387.181 585.584 388.589 585.584C389.533 585.584 390.221 585.432 390.653 585.128C391.085 584.824 391.381 584.416 391.541 583.904H393.629C393.469 584.544 393.181 585.12 392.765 585.632C392.349 586.128 391.797 586.52 391.109 586.808C390.437 587.096 389.597 587.24 388.589 587.24C386.669 587.24 385.213 586.688 384.221 585.584C383.245 584.48 382.757 582.928 382.757 580.928C382.757 578.896 383.245 577.336 384.221 576.248C385.213 575.16 386.613 574.616 388.421 574.616C389.413 574.616 390.317 574.824 391.133 575.24C391.949 575.656 392.605 576.32 393.101 577.232C393.597 578.144 393.845 579.368 393.845 580.904V581.576H383.693L383.717 580.064ZM404.807 578.072C404.711 577.448 404.455 577 404.039 576.728C403.639 576.44 403.031 576.296 402.215 576.296C401.335 576.296 400.663 576.456 400.199 576.776C399.751 577.08 399.527 577.48 399.527 577.976C399.527 578.488 399.703 578.872 400.055 579.128C400.423 579.384 400.975 579.6 401.711 579.776L403.631 580.256C404.767 580.528 405.607 580.936 406.151 581.48C406.695 582.024 406.967 582.744 406.967 583.64C406.967 584.68 406.559 585.544 405.743 586.232C404.927 586.904 403.687 587.24 402.023 587.24C400.535 587.24 399.391 586.944 398.591 586.352C397.791 585.76 397.319 584.848 397.175 583.616H399.239C399.335 584.272 399.575 584.76 399.959 585.08C400.343 585.384 401.015 585.536 401.975 585.536C403.063 585.536 403.831 585.376 404.279 585.056C404.743 584.72 404.975 584.288 404.975 583.76C404.975 583.264 404.807 582.872 404.471 582.584C404.135 582.28 403.591 582.032 402.839 581.84L400.919 581.36C399.815 581.088 398.983 580.688 398.423 580.16C397.863 579.616 397.583 578.928 397.583 578.096C397.583 577.024 397.975 576.176 398.759 575.552C399.559 574.928 400.711 574.616 402.215 574.616C403.607 574.616 404.679 574.912 405.431 575.504C406.199 576.08 406.631 576.936 406.727 578.072H404.807ZM413.112 574.88V587H411.144V574.88H413.112ZM411 569.792H413.232V572.144H411V569.792ZM422.479 586.832C420.831 586.832 419.551 586.304 418.639 585.248C417.727 584.192 417.271 582.696 417.271 580.76C417.271 579.416 417.479 578.296 417.895 577.4C418.311 576.488 418.911 575.8 419.695 575.336C420.479 574.856 421.407 574.616 422.479 574.616C423.567 574.616 424.463 574.88 425.167 575.408C425.871 575.936 426.391 576.664 426.727 577.592C427.063 578.504 427.231 579.56 427.231 580.76C427.231 581.928 427.063 582.976 426.727 583.904C426.391 584.816 425.871 585.536 425.167 586.064C424.463 586.576 423.567 586.832 422.479 586.832ZM422.983 585.152C424.199 585.152 425.095 584.76 425.671 583.976C426.247 583.192 426.535 582.12 426.535 580.76C426.535 579.368 426.247 578.28 425.671 577.496C425.095 576.712 424.199 576.32 422.983 576.32C421.703 576.32 420.759 576.712 420.151 577.496C419.543 578.28 419.239 579.368 419.239 580.76C419.239 582.12 419.543 583.192 420.151 583.976C420.759 584.76 421.703 585.152 422.983 585.152ZM426.559 574.88H428.503V587H426.535V577.832L426.559 577.664V574.88ZM428.503 586.712C428.519 588.568 428.103 589.928 427.255 590.792C426.407 591.656 425.103 592.088 423.343 592.088C422.159 592.088 421.191 591.936 420.439 591.632C419.703 591.344 419.143 590.92 418.759 590.36C418.391 589.816 418.167 589.168 418.087 588.416H420.151C420.199 588.848 420.311 589.216 420.487 589.52C420.679 589.824 420.991 590.048 421.423 590.192C421.871 590.336 422.511 590.408 423.343 590.408C424.223 590.408 424.887 590.272 425.335 590C425.799 589.744 426.111 589.344 426.271 588.8C426.447 588.256 426.535 587.56 426.535 586.712H428.503ZM435.387 587H433.419V574.88H435.387V576.728C435.771 576.104 436.243 575.6 436.803 575.216C437.379 574.816 438.155 574.616 439.131 574.616C440.459 574.616 441.507 574.992 442.275 575.744C443.043 576.48 443.427 577.704 443.427 579.416V587H441.435V579.488C441.435 578.336 441.195 577.52 440.715 577.04C440.235 576.56 439.539 576.32 438.627 576.32C437.971 576.32 437.395 576.44 436.899 576.68C436.419 576.92 436.043 577.296 435.771 577.808C435.515 578.32 435.387 579.008 435.387 579.872V587ZM449.099 590.72H447.515L448.643 584.336H450.971L449.099 590.72ZM467.446 587H465.382V570.032H467.446V587ZM462.79 571.784V570.032H470.014V571.784H462.79ZM462.79 587V585.248H470.014V587H462.79ZM476.163 587H474.195V574.88H476.163V576.728C476.547 576.104 477.019 575.6 477.579 575.216C478.155 574.816 478.931 574.616 479.907 574.616C481.235 574.616 482.283 574.992 483.051 575.744C483.819 576.48 484.203 577.704 484.203 579.416V587H482.211V579.488C482.211 578.336 481.971 577.52 481.491 577.04C481.011 576.56 480.315 576.32 479.403 576.32C478.747 576.32 478.171 576.44 477.675 576.68C477.195 576.92 476.819 577.296 476.547 577.808C476.291 578.32 476.163 579.008 476.163 579.872V587ZM494.1 587.24C492.148 587.24 490.692 586.696 489.732 585.608C488.772 584.504 488.292 582.944 488.292 580.928C488.292 578.912 488.788 577.36 489.78 576.272C490.772 575.168 492.196 574.616 494.052 574.616C494.996 574.616 495.828 574.784 496.548 575.12C497.268 575.44 497.852 575.888 498.3 576.464C498.748 577.04 499.02 577.712 499.116 578.48H497.124C497.028 577.856 496.748 577.344 496.284 576.944C495.836 576.528 495.1 576.32 494.076 576.32C492.716 576.32 491.74 576.728 491.148 577.544C490.556 578.344 490.26 579.472 490.26 580.928C490.26 582.384 490.556 583.52 491.148 584.336C491.74 585.136 492.716 585.536 494.076 585.536C495.052 585.536 495.78 585.368 496.26 585.032C496.74 584.68 497.028 584.16 497.124 583.472H499.164C499.068 584.176 498.812 584.816 498.396 585.392C497.996 585.952 497.428 586.4 496.692 586.736C495.972 587.072 495.108 587.24 494.1 587.24ZM503.268 584.336H505.884V587H503.268V584.336Z" fill="#FFFAEE"/>
<line x1="526" y1="578.75" x2="704" y2="578.75" stroke="#FFFAEE" stroke-width="2.5"/>
<rect x="362.5" y="490.5" width="104" height="66" stroke="#FFFAEE" stroke-dasharray="55 55"/>
</svg>
