<svg width="1080" height="1080" viewBox="0 0 1080 1080" fill="none" xmlns="http://www.w3.org/2000/svg">
<rect width="1080" height="1080" fill="#191919"/>
<path d="M382.824 382.624H382.704L377.568 397H375.528L381.744 380.032H383.856L390.096 397H387.936L382.824 382.624ZM386.952 392.296H378.6V390.496H386.952V392.296ZM402.616 384.064C402.52 383.168 402.144 382.528 401.488 382.144C400.832 381.76 399.936 381.568 398.8 381.568C397.536 381.568 396.6 381.816 395.992 382.312C395.384 382.792 395.08 383.488 395.08 384.4C395.08 384.912 395.184 385.336 395.392 385.672C395.616 385.992 395.896 386.256 396.232 386.464C396.584 386.672 396.944 386.84 397.312 386.968C397.696 387.08 398.048 387.184 398.368 387.28L400.096 387.76C400.56 387.888 401.072 388.056 401.632 388.264C402.192 388.456 402.728 388.728 403.24 389.08C403.752 389.432 404.168 389.88 404.488 390.424C404.808 390.952 404.968 391.616 404.968 392.416C404.968 393.376 404.744 394.224 404.296 394.96C403.848 395.696 403.16 396.272 402.232 396.688C401.32 397.104 400.16 397.312 398.752 397.312C396.816 397.312 395.336 396.912 394.312 396.112C393.288 395.296 392.72 394.184 392.608 392.776H394.696C394.776 393.48 394.992 394.032 395.344 394.432C395.696 394.832 396.16 395.12 396.736 395.296C397.328 395.456 398 395.536 398.752 395.536C400.08 395.536 401.104 395.272 401.824 394.744C402.56 394.216 402.928 393.424 402.928 392.368C402.928 391.76 402.768 391.28 402.448 390.928C402.144 390.56 401.736 390.272 401.224 390.064C400.712 389.856 400.152 389.664 399.544 389.488L397.384 388.888C396.024 388.504 394.96 387.968 394.192 387.28C393.44 386.592 393.064 385.664 393.064 384.496C393.064 383.504 393.304 382.664 393.784 381.976C394.264 381.272 394.944 380.736 395.824 380.368C396.704 379.984 397.72 379.792 398.872 379.792C400.056 379.792 401.064 379.976 401.896 380.344C402.744 380.696 403.4 381.192 403.864 381.832C404.344 382.472 404.6 383.216 404.632 384.064H402.616ZM418.042 384.064C417.946 383.168 417.57 382.528 416.914 382.144C416.258 381.76 415.362 381.568 414.226 381.568C412.962 381.568 412.026 381.816 411.418 382.312C410.81 382.792 410.506 383.488 410.506 384.4C410.506 384.912 410.61 385.336 410.818 385.672C411.042 385.992 411.322 386.256 411.658 386.464C412.01 386.672 412.37 386.84 412.738 386.968C413.122 387.08 413.474 387.184 413.794 387.28L415.522 387.76C415.986 387.888 416.498 388.056 417.058 388.264C417.618 388.456 418.154 388.728 418.666 389.08C419.178 389.432 419.594 389.88 419.914 390.424C420.234 390.952 420.394 391.616 420.394 392.416C420.394 393.376 420.17 394.224 419.722 394.96C419.274 395.696 418.586 396.272 417.658 396.688C416.746 397.104 415.586 397.312 414.178 397.312C412.242 397.312 410.762 396.912 409.738 396.112C408.714 395.296 408.146 394.184 408.034 392.776H410.122C410.202 393.48 410.418 394.032 410.77 394.432C411.122 394.832 411.586 395.12 412.162 395.296C412.754 395.456 413.426 395.536 414.178 395.536C415.506 395.536 416.53 395.272 417.25 394.744C417.986 394.216 418.354 393.424 418.354 392.368C418.354 391.76 418.194 391.28 417.874 390.928C417.57 390.56 417.162 390.272 416.65 390.064C416.138 389.856 415.578 389.664 414.97 389.488L412.81 388.888C411.45 388.504 410.386 387.968 409.618 387.28C408.866 386.592 408.49 385.664 408.49 384.496C408.49 383.504 408.73 382.664 409.21 381.976C409.69 381.272 410.37 380.736 411.25 380.368C412.13 379.984 413.146 379.792 414.298 379.792C415.482 379.792 416.49 379.976 417.322 380.344C418.17 380.696 418.826 381.192 419.29 381.832C419.77 382.472 420.026 383.216 420.058 384.064H418.042ZM424.397 380.032H434.477V381.784H426.461V387.616H433.925V389.344H426.461V395.248H434.597V397H424.397V380.032ZM437.542 380.032H450.406V381.784H445.006V397H442.966V381.784H437.542V380.032ZM462.953 398.704H452.249V397H462.953V398.704ZM470.233 397H468.169V380.032H470.233V397ZM465.577 381.784V380.032H472.801V381.784H465.577ZM465.577 397V395.248H472.801V397H465.577ZM477.783 397V380.032H483.327C485.903 380.032 487.831 380.76 489.111 382.216C490.407 383.656 491.055 385.752 491.055 388.504C491.055 391.24 490.399 393.344 489.087 394.816C487.775 396.272 485.775 397 483.087 397H477.783ZM482.967 395.248C484.471 395.248 485.663 394.992 486.543 394.48C487.423 393.952 488.047 393.184 488.415 392.176C488.799 391.168 488.991 389.944 488.991 388.504C488.991 387.048 488.799 385.824 488.415 384.832C488.047 383.824 487.439 383.064 486.591 382.552C485.743 382.04 484.599 381.784 483.159 381.784H479.847V395.248H482.967ZM501.892 395.512L507.652 389.416C508.34 388.696 508.9 388.064 509.332 387.52C509.764 386.976 510.092 386.472 510.316 386.008C510.54 385.528 510.652 385.024 510.652 384.496C510.652 383.504 510.356 382.768 509.764 382.288C509.172 381.792 508.372 381.544 507.364 381.544C506.34 381.544 505.524 381.832 504.916 382.408C504.308 382.968 504.004 383.792 504.004 384.88H501.988C501.972 383.84 502.196 382.944 502.66 382.192C503.124 381.424 503.764 380.832 504.58 380.416C505.412 380 506.364 379.792 507.436 379.792C508.524 379.792 509.46 379.984 510.244 380.368C511.028 380.752 511.628 381.296 512.044 382C512.476 382.688 512.692 383.52 512.692 384.496C512.692 385.12 512.564 385.72 512.308 386.296C512.068 386.872 511.66 387.512 511.084 388.216C510.524 388.92 509.748 389.792 508.756 390.832L503.788 396.112L503.572 395.248H512.884V397H501.892V395.512ZM522.591 397.24C521.167 397.24 519.999 396.912 519.087 396.256C518.191 395.6 517.535 394.624 517.119 393.328C516.719 392.032 516.519 390.424 516.519 388.504C516.519 386.568 516.727 384.96 517.143 383.68C517.575 382.4 518.239 381.432 519.135 380.776C520.031 380.12 521.183 379.792 522.591 379.792C524.031 379.792 525.199 380.12 526.095 380.776C526.991 381.432 527.647 382.4 528.063 383.68C528.495 384.96 528.711 386.568 528.711 388.504C528.711 390.424 528.495 392.032 528.063 393.328C527.647 394.624 526.991 395.6 526.095 396.256C525.199 396.912 524.031 397.24 522.591 397.24ZM522.591 395.464C524.063 395.464 525.111 394.912 525.735 393.808C526.359 392.688 526.671 390.92 526.671 388.504C526.671 386.088 526.359 384.328 525.735 383.224C525.111 382.104 524.063 381.544 522.591 381.544C521.167 381.544 520.143 382.104 519.519 383.224C518.895 384.328 518.583 386.088 518.583 388.504C518.583 390.92 518.887 392.688 519.495 393.808C520.119 394.912 521.151 395.464 522.591 395.464ZM532.324 395.512L538.084 389.416C538.772 388.696 539.332 388.064 539.764 387.52C540.196 386.976 540.524 386.472 540.748 386.008C540.972 385.528 541.084 385.024 541.084 384.496C541.084 383.504 540.788 382.768 540.196 382.288C539.604 381.792 538.804 381.544 537.796 381.544C536.772 381.544 535.956 381.832 535.348 382.408C534.74 382.968 534.436 383.792 534.436 384.88H532.42C532.404 383.84 532.628 382.944 533.092 382.192C533.556 381.424 534.196 380.832 535.012 380.416C535.844 380 536.796 379.792 537.868 379.792C538.956 379.792 539.892 379.984 540.676 380.368C541.46 380.752 542.06 381.296 542.476 382C542.908 382.688 543.124 383.52 543.124 384.496C543.124 385.12 542.996 385.72 542.74 386.296C542.5 386.872 542.092 387.512 541.516 388.216C540.956 388.92 540.18 389.792 539.188 390.832L534.22 396.112L534.004 395.248H543.316V397H532.324V395.512ZM547.358 391.624C547.374 391.048 547.454 390.472 547.598 389.896C547.758 389.304 548.022 388.664 548.39 387.976C548.758 387.288 549.262 386.504 549.902 385.624L554.03 380.032H556.382L550.502 387.952L550.358 387.16C550.598 387.016 550.854 386.88 551.126 386.752C551.398 386.624 551.71 386.52 552.062 386.44C552.414 386.36 552.806 386.32 553.238 386.32C554.358 386.32 555.326 386.544 556.142 386.992C556.974 387.44 557.606 388.072 558.038 388.888C558.486 389.688 558.71 390.64 558.71 391.744C558.71 392.848 558.486 393.816 558.038 394.648C557.606 395.464 556.966 396.104 556.118 396.568C555.27 397.016 554.246 397.24 553.046 397.24C551.222 397.24 549.814 396.728 548.822 395.704C547.83 394.68 547.342 393.32 547.358 391.624ZM549.374 391.744C549.374 392.88 549.662 393.792 550.238 394.48C550.814 395.152 551.75 395.488 553.046 395.488C554.31 395.488 555.23 395.152 555.806 394.48C556.382 393.792 556.67 392.88 556.67 391.744C556.67 390.592 556.382 389.696 555.806 389.056C555.23 388.4 554.31 388.072 553.046 388.072C551.894 388.072 550.99 388.4 550.334 389.056C549.694 389.696 549.374 390.592 549.374 391.744ZM572.116 398.704H561.412V397H572.116V398.704ZM577.884 380.032L583.476 394H583.62L589.236 380.032H591.78V397H589.812V383.968H589.668L584.388 397H582.66L577.404 383.968H577.26V397H575.292V380.032H577.884ZM608.545 390.16H604.009V388.384H610.585V390.352C610.585 391.584 610.345 392.728 609.865 393.784C609.385 394.824 608.641 395.664 607.633 396.304C606.625 396.928 605.313 397.24 603.697 397.24C601.313 397.24 599.473 396.488 598.177 394.984C596.881 393.48 596.233 391.32 596.233 388.504C596.233 385.688 596.881 383.536 598.177 382.048C599.473 380.544 601.313 379.792 603.697 379.792C604.881 379.792 605.945 380 606.889 380.416C607.833 380.832 608.617 381.44 609.241 382.24C609.865 383.024 610.265 384 610.441 385.168H608.329C608.121 383.92 607.617 383.008 606.817 382.432C606.033 381.856 604.993 381.568 603.697 381.568C601.937 381.568 600.593 382.136 599.665 383.272C598.753 384.392 598.297 386.136 598.297 388.504C598.297 390.872 598.753 392.624 599.665 393.76C600.593 394.88 601.937 395.44 603.697 395.44C604.561 395.44 605.281 395.328 605.857 395.104C606.433 394.88 606.897 394.576 607.249 394.192C607.601 393.808 607.865 393.384 608.041 392.92C608.233 392.456 608.361 391.984 608.425 391.504C608.505 391.008 608.545 390.56 608.545 390.16ZM623.669 398.704H612.965V397H623.669V398.704ZM637.717 385.408C637.717 385.968 637.629 386.536 637.453 387.112C637.277 387.688 637.005 388.312 636.637 388.984C636.285 389.656 635.813 390.456 635.221 391.384L631.573 397H629.269L634.693 388.912L634.837 389.776C634.581 389.936 634.301 390.088 633.997 390.232C633.709 390.376 633.389 390.496 633.037 390.592C632.701 390.672 632.317 390.712 631.885 390.712C630.765 390.712 629.789 390.488 628.957 390.04C628.141 389.592 627.509 388.968 627.061 388.168C626.613 387.352 626.389 386.392 626.389 385.288C626.389 384.168 626.613 383.2 627.061 382.384C627.509 381.568 628.157 380.936 629.005 380.488C629.853 380.024 630.877 379.792 632.077 379.792C633.917 379.792 635.317 380.304 636.277 381.328C637.253 382.352 637.733 383.712 637.717 385.408ZM635.725 385.264C635.725 384.112 635.437 383.208 634.861 382.552C634.285 381.896 633.357 381.568 632.077 381.568C630.813 381.568 629.893 381.896 629.317 382.552C628.741 383.208 628.453 384.112 628.453 385.264C628.453 386.416 628.741 387.32 629.317 387.976C629.893 388.616 630.813 388.936 632.077 388.936C633.229 388.936 634.125 388.616 634.765 387.976C635.405 387.32 635.725 386.416 635.725 385.264ZM653.331 385.408C653.331 385.968 653.243 386.536 653.067 387.112C652.891 387.688 652.619 388.312 652.251 388.984C651.899 389.656 651.427 390.456 650.835 391.384L647.187 397H644.883L650.307 388.912L650.451 389.776C650.195 389.936 649.915 390.088 649.611 390.232C649.323 390.376 649.003 390.496 648.651 390.592C648.315 390.672 647.931 390.712 647.499 390.712C646.379 390.712 645.403 390.488 644.571 390.04C643.755 389.592 643.123 388.968 642.675 388.168C642.227 387.352 642.003 386.392 642.003 385.288C642.003 384.168 642.227 383.2 642.675 382.384C643.123 381.568 643.771 380.936 644.619 380.488C645.467 380.024 646.491 379.792 647.691 379.792C649.531 379.792 650.931 380.304 651.891 381.328C652.867 382.352 653.347 383.712 653.331 385.408ZM651.339 385.264C651.339 384.112 651.051 383.208 650.475 382.552C649.899 381.896 648.971 381.568 647.691 381.568C646.427 381.568 645.507 381.896 644.931 382.552C644.355 383.208 644.067 384.112 644.067 385.264C644.067 386.416 644.355 387.32 644.931 387.976C645.507 388.616 646.427 388.936 647.691 388.936C648.843 388.936 649.739 388.616 650.379 387.976C651.019 387.32 651.339 386.416 651.339 385.264ZM663.305 397.24C661.881 397.24 660.713 396.912 659.801 396.256C658.905 395.6 658.249 394.624 657.833 393.328C657.433 392.032 657.233 390.424 657.233 388.504C657.233 386.568 657.441 384.96 657.857 383.68C658.289 382.4 658.953 381.432 659.849 380.776C660.745 380.12 661.897 379.792 663.305 379.792C664.745 379.792 665.913 380.12 666.809 380.776C667.705 381.432 668.361 382.4 668.777 383.68C669.209 384.96 669.425 386.568 669.425 388.504C669.425 390.424 669.209 392.032 668.777 393.328C668.361 394.624 667.705 395.6 666.809 396.256C665.913 396.912 664.745 397.24 663.305 397.24ZM663.305 395.464C664.777 395.464 665.825 394.912 666.449 393.808C667.073 392.688 667.385 390.92 667.385 388.504C667.385 386.088 667.073 384.328 666.449 383.224C665.825 382.104 664.777 381.544 663.305 381.544C661.881 381.544 660.857 382.104 660.233 383.224C659.609 384.328 659.297 386.088 659.297 388.504C659.297 390.92 659.601 392.688 660.209 393.808C660.833 394.912 661.865 395.464 663.305 395.464ZM679.038 387.328L683.622 380.032H685.974L680.382 388.744L679.038 387.328ZM679.35 389.632L674.694 397H672.342L678.006 388.192L679.35 389.632ZM677.862 388.576L672.318 380.032H674.766L679.206 387.064L680.478 388.432L686.046 397H683.598L678.966 389.656L677.862 388.576Z" fill="#FFFAEE"/>
<path d="M549.992 525V508.032H555.536C558.112 508.032 560.04 508.76 561.32 510.216C562.616 511.656 563.264 513.752 563.264 516.504C563.264 519.24 562.608 521.344 561.296 522.816C559.984 524.272 557.984 525 555.296 525H549.992ZM555.176 523.248C556.68 523.248 557.872 522.992 558.752 522.48C559.632 521.952 560.256 521.184 560.624 520.176C561.008 519.168 561.2 517.944 561.2 516.504C561.2 515.048 561.008 513.824 560.624 512.832C560.256 511.824 559.648 511.064 558.8 510.552C557.952 510.04 556.808 509.784 555.368 509.784H552.056V523.248H555.176ZM571.819 525H569.755V508.032H571.819V525ZM567.163 509.784V508.032H574.387V509.784H567.163ZM567.163 525V523.248H574.387V525H567.163ZM590.609 518.16H586.073V516.384H592.649V518.352C592.649 519.584 592.409 520.728 591.929 521.784C591.449 522.824 590.705 523.664 589.697 524.304C588.689 524.928 587.377 525.24 585.761 525.24C583.377 525.24 581.537 524.488 580.241 522.984C578.945 521.48 578.297 519.32 578.297 516.504C578.297 513.688 578.945 511.536 580.241 510.048C581.537 508.544 583.377 507.792 585.761 507.792C586.945 507.792 588.009 508 588.953 508.416C589.897 508.832 590.681 509.44 591.305 510.24C591.929 511.024 592.329 512 592.505 513.168H590.393C590.185 511.92 589.681 511.008 588.881 510.432C588.097 509.856 587.057 509.568 585.761 509.568C584.001 509.568 582.657 510.136 581.729 511.272C580.817 512.392 580.361 514.136 580.361 516.504C580.361 518.872 580.817 520.624 581.729 521.76C582.657 522.88 584.001 523.44 585.761 523.44C586.625 523.44 587.345 523.328 587.921 523.104C588.497 522.88 588.961 522.576 589.313 522.192C589.665 521.808 589.929 521.384 590.105 520.92C590.297 520.456 590.425 519.984 590.489 519.504C590.569 519.008 590.609 518.56 590.609 518.16ZM601.149 525H599.085V508.032H601.149V525ZM596.493 509.784V508.032H603.717V509.784H596.493ZM596.493 525V523.248H603.717V525H596.493ZM607.003 508.032H619.867V509.784H614.467V525H612.427V509.784H607.003V508.032ZM627.801 510.624H627.681L622.545 525H620.505L626.721 508.032H628.833L635.073 525H632.913L627.801 510.624ZM631.929 520.296H623.577V518.496H631.929V520.296ZM638.778 508.032H640.842V523.2H648.714V525H638.778V508.032ZM659.553 525V508.032H665.097C667.673 508.032 669.601 508.76 670.881 510.216C672.177 511.656 672.825 513.752 672.825 516.504C672.825 519.24 672.169 521.344 670.857 522.816C669.545 524.272 667.545 525 664.857 525H659.553ZM664.737 523.248C666.241 523.248 667.433 522.992 668.313 522.48C669.193 521.952 669.817 521.184 670.185 520.176C670.569 519.168 670.761 517.944 670.761 516.504C670.761 515.048 670.569 513.824 670.185 512.832C669.817 511.824 669.209 511.064 668.361 510.552C667.513 510.04 666.369 509.784 664.929 509.784H661.617V523.248H664.737ZM677.276 508.032H687.356V509.784H679.34V515.616H686.804V517.344H679.34V523.248H687.476V525H677.276V508.032ZM700.978 512.064C700.882 511.168 700.506 510.528 699.85 510.144C699.194 509.76 698.298 509.568 697.162 509.568C695.898 509.568 694.962 509.816 694.354 510.312C693.746 510.792 693.442 511.488 693.442 512.4C693.442 512.912 693.546 513.336 693.754 513.672C693.978 513.992 694.258 514.256 694.594 514.464C694.946 514.672 695.306 514.84 695.674 514.968C696.058 515.08 696.41 515.184 696.73 515.28L698.458 515.76C698.922 515.888 699.434 516.056 699.994 516.264C700.554 516.456 701.09 516.728 701.602 517.08C702.114 517.432 702.53 517.88 702.85 518.424C703.17 518.952 703.33 519.616 703.33 520.416C703.33 521.376 703.106 522.224 702.658 522.96C702.21 523.696 701.522 524.272 700.594 524.688C699.682 525.104 698.522 525.312 697.114 525.312C695.178 525.312 693.698 524.912 692.674 524.112C691.65 523.296 691.082 522.184 690.97 520.776H693.058C693.138 521.48 693.354 522.032 693.706 522.432C694.058 522.832 694.522 523.12 695.098 523.296C695.69 523.456 696.362 523.536 697.114 523.536C698.442 523.536 699.466 523.272 700.186 522.744C700.922 522.216 701.29 521.424 701.29 520.368C701.29 519.76 701.13 519.28 700.81 518.928C700.506 518.56 700.098 518.272 699.586 518.064C699.074 517.856 698.514 517.664 697.906 517.488L695.746 516.888C694.386 516.504 693.322 515.968 692.554 515.28C691.802 514.592 691.426 513.664 691.426 512.496C691.426 511.504 691.666 510.664 692.146 509.976C692.626 509.272 693.306 508.736 694.186 508.368C695.066 507.984 696.082 507.792 697.234 507.792C698.418 507.792 699.426 507.976 700.258 508.344C701.106 508.696 701.762 509.192 702.226 509.832C702.706 510.472 702.962 511.216 702.994 512.064H700.978ZM711.624 525H709.56V508.032H711.624V525ZM706.968 509.784V508.032H714.192V509.784H706.968ZM706.968 525V523.248H714.192V525H706.968ZM730.414 518.16H725.878V516.384H732.454V518.352C732.454 519.584 732.214 520.728 731.734 521.784C731.254 522.824 730.51 523.664 729.502 524.304C728.494 524.928 727.182 525.24 725.566 525.24C723.182 525.24 721.342 524.488 720.046 522.984C718.75 521.48 718.102 519.32 718.102 516.504C718.102 513.688 718.75 511.536 720.046 510.048C721.342 508.544 723.182 507.792 725.566 507.792C726.75 507.792 727.814 508 728.758 508.416C729.702 508.832 730.486 509.44 731.11 510.24C731.734 511.024 732.134 512 732.31 513.168H730.198C729.99 511.92 729.486 511.008 728.686 510.432C727.902 509.856 726.862 509.568 725.566 509.568C723.806 509.568 722.462 510.136 721.534 511.272C720.622 512.392 720.166 514.136 720.166 516.504C720.166 518.872 720.622 520.624 721.534 521.76C722.462 522.88 723.806 523.44 725.566 523.44C726.43 523.44 727.15 523.328 727.726 523.104C728.302 522.88 728.766 522.576 729.118 522.192C729.47 521.808 729.734 521.384 729.91 520.92C730.102 520.456 730.23 519.984 730.294 519.504C730.374 519.008 730.414 518.56 730.414 518.16ZM749.834 525H747.77L739.01 511.392H738.866V525H736.85V508.032H738.938L747.698 521.64H747.842V508.032H749.834V525ZM762.125 508.032H764.189V523.2H772.061V525H762.125V508.032ZM781.626 510.624H781.506L776.37 525H774.33L780.546 508.032H782.658L788.898 525H786.738L781.626 510.624ZM785.754 520.296H777.402V518.496H785.754V520.296ZM792.603 508.032H798.699C799.995 508.032 801.035 508.224 801.819 508.608C802.603 508.992 803.171 509.52 803.523 510.192C803.875 510.864 804.051 511.64 804.051 512.52C804.051 513.272 803.883 513.904 803.547 514.416C803.227 514.928 802.819 515.32 802.323 515.592C801.843 515.864 801.347 516.04 800.835 516.12V516.264C801.251 516.28 801.683 516.384 802.131 516.576C802.579 516.752 802.995 517.016 803.379 517.368C803.779 517.704 804.099 518.136 804.339 518.664C804.595 519.176 804.723 519.784 804.723 520.488C804.723 521.368 804.539 522.152 804.171 522.84C803.803 523.512 803.195 524.04 802.347 524.424C801.499 524.808 800.347 525 798.891 525H792.603V508.032ZM798.867 523.248C799.907 523.248 800.699 523.136 801.243 522.912C801.787 522.672 802.155 522.336 802.347 521.904C802.555 521.472 802.659 520.984 802.659 520.44C802.659 519.816 802.531 519.264 802.275 518.784C802.035 518.304 801.643 517.928 801.099 517.656C800.571 517.368 799.867 517.224 798.987 517.224H794.667V523.248H798.867ZM798.603 515.496C799.755 515.496 800.603 515.248 801.147 514.752C801.707 514.24 801.987 513.512 801.987 512.568C801.987 512.024 801.899 511.544 801.723 511.128C801.547 510.696 801.219 510.368 800.739 510.144C800.275 509.904 799.595 509.784 798.699 509.784H794.667V515.496H798.603ZM817.922 512.064C817.826 511.168 817.45 510.528 816.794 510.144C816.138 509.76 815.242 509.568 814.106 509.568C812.842 509.568 811.906 509.816 811.298 510.312C810.69 510.792 810.386 511.488 810.386 512.4C810.386 512.912 810.49 513.336 810.698 513.672C810.922 513.992 811.202 514.256 811.538 514.464C811.89 514.672 812.25 514.84 812.618 514.968C813.002 515.08 813.354 515.184 813.674 515.28L815.402 515.76C815.866 515.888 816.378 516.056 816.938 516.264C817.498 516.456 818.034 516.728 818.546 517.08C819.058 517.432 819.474 517.88 819.794 518.424C820.114 518.952 820.274 519.616 820.274 520.416C820.274 521.376 820.05 522.224 819.602 522.96C819.154 523.696 818.466 524.272 817.538 524.688C816.626 525.104 815.466 525.312 814.058 525.312C812.122 525.312 810.642 524.912 809.618 524.112C808.594 523.296 808.026 522.184 807.914 520.776H810.002C810.082 521.48 810.298 522.032 810.65 522.432C811.002 522.832 811.466 523.12 812.042 523.296C812.634 523.456 813.306 523.536 814.058 523.536C815.386 523.536 816.41 523.272 817.13 522.744C817.866 522.216 818.234 521.424 818.234 520.368C818.234 519.76 818.074 519.28 817.754 518.928C817.45 518.56 817.042 518.272 816.53 518.064C816.018 517.856 815.458 517.664 814.85 517.488L812.69 516.888C811.33 516.504 810.266 515.968 809.498 515.28C808.746 514.592 808.37 513.664 808.37 512.496C808.37 511.504 808.61 510.664 809.09 509.976C809.57 509.272 810.25 508.736 811.13 508.368C812.01 507.984 813.026 507.792 814.178 507.792C815.362 507.792 816.37 507.976 817.202 508.344C818.05 508.696 818.706 509.192 819.17 509.832C819.65 510.472 819.906 511.216 819.938 512.064H817.922Z" fill="#FFFAEE"/>
<path d="M384.032 471.312C382.912 471.312 381.824 471.112 380.768 470.712C379.712 470.312 378.76 469.728 377.912 468.96C377.064 468.192 376.384 467.264 375.872 466.176C375.376 465.088 375.128 463.848 375.128 462.456C375.128 461.064 375.376 459.824 375.872 458.736C376.384 457.648 377.064 456.728 377.912 455.976C378.76 455.208 379.712 454.624 380.768 454.224C381.824 453.824 382.912 453.624 384.032 453.624C385.152 453.624 386.24 453.824 387.296 454.224C388.352 454.624 389.304 455.208 390.152 455.976C391 456.728 391.672 457.648 392.168 458.736C392.664 459.824 392.912 461.064 392.912 462.456C392.912 463.848 392.664 465.088 392.168 466.176C391.672 467.264 391 468.192 390.152 468.96C389.304 469.728 388.352 470.312 387.296 470.712C386.24 471.112 385.152 471.312 384.032 471.312ZM384.032 470.208C384.976 470.208 385.904 470.04 386.816 469.704C387.728 469.352 388.552 468.848 389.288 468.192C390.024 467.52 390.608 466.704 391.04 465.744C391.488 464.784 391.712 463.688 391.712 462.456C391.712 461.224 391.488 460.128 391.04 459.168C390.608 458.208 390.024 457.4 389.288 456.744C388.552 456.072 387.728 455.568 386.816 455.232C385.904 454.88 384.976 454.704 384.032 454.704C383.072 454.704 382.136 454.88 381.224 455.232C380.312 455.568 379.488 456.072 378.752 456.744C378.016 457.4 377.424 458.208 376.976 459.168C376.544 460.128 376.328 461.224 376.328 462.456C376.328 463.688 376.544 464.784 376.976 465.744C377.424 466.704 378.016 467.52 378.752 468.192C379.488 468.848 380.312 469.352 381.224 469.704C382.136 470.04 383.072 470.208 384.032 470.208ZM384.128 467.16C382.656 467.16 381.544 466.736 380.792 465.888C380.04 465.04 379.664 463.888 379.664 462.432C379.664 460.976 380.048 459.832 380.816 459C381.6 458.168 382.688 457.752 384.08 457.752C384.816 457.752 385.448 457.872 385.976 458.112C386.52 458.352 386.952 458.696 387.272 459.144C387.608 459.576 387.824 460.096 387.92 460.704H386.576C386.464 460.144 386.232 459.704 385.88 459.384C385.544 459.064 384.952 458.904 384.104 458.904C383.08 458.904 382.296 459.208 381.752 459.816C381.208 460.424 380.936 461.296 380.936 462.432C380.936 463.584 381.208 464.472 381.752 465.096C382.296 465.704 383.08 466.008 384.104 466.008C384.904 466.008 385.488 465.88 385.856 465.624C386.224 465.352 386.464 464.92 386.576 464.328H387.92C387.856 464.888 387.664 465.384 387.344 465.816C387.04 466.232 386.616 466.56 386.072 466.8C385.544 467.04 384.896 467.16 384.128 467.16ZM401.647 469.824L407.455 463.608C408.191 462.824 408.791 462.136 409.255 461.544C409.719 460.936 410.063 460.376 410.287 459.864C410.527 459.336 410.647 458.8 410.647 458.256C410.647 457.216 410.311 456.424 409.639 455.88C408.967 455.32 408.071 455.04 406.951 455.04C405.831 455.04 404.911 455.376 404.191 456.048C403.471 456.704 403.127 457.608 403.159 458.76H401.767C401.751 457.72 401.967 456.832 402.415 456.096C402.863 455.36 403.487 454.792 404.287 454.392C405.087 453.992 405.999 453.792 407.023 453.792C408.095 453.792 408.999 453.976 409.735 454.344C410.487 454.696 411.063 455.208 411.463 455.88C411.863 456.536 412.063 457.328 412.063 458.256C412.063 458.864 411.959 459.456 411.751 460.032C411.543 460.592 411.159 461.24 410.599 461.976C410.055 462.696 409.263 463.608 408.223 464.712L402.751 470.568L402.847 469.752H412.279V471H401.647V469.824ZM426.982 471.24C425.59 471.24 424.454 470.928 423.574 470.304C422.71 469.664 422.078 468.704 421.678 467.424C421.278 466.128 421.078 464.488 421.078 462.504C421.078 460.52 421.278 458.888 421.678 457.608C422.094 456.328 422.734 455.376 423.598 454.752C424.478 454.112 425.606 453.792 426.982 453.792C428.374 453.792 429.502 454.112 430.366 454.752C431.246 455.376 431.886 456.328 432.286 457.608C432.702 458.888 432.91 460.52 432.91 462.504C432.91 464.472 432.702 466.104 432.286 467.4C431.886 468.696 431.246 469.664 430.366 470.304C429.502 470.928 428.374 471.24 426.982 471.24ZM426.982 469.992C428.614 469.992 429.774 469.376 430.462 468.144C431.15 466.912 431.494 465.032 431.494 462.504C431.494 459.976 431.15 458.104 430.462 456.888C429.774 455.656 428.614 455.04 426.982 455.04C425.366 455.04 424.214 455.656 423.526 456.888C422.838 458.104 422.494 459.976 422.494 462.504C422.494 465.032 422.83 466.912 423.502 468.144C424.19 469.376 425.35 469.992 426.982 469.992ZM441.713 469.824L447.521 463.608C448.257 462.824 448.857 462.136 449.321 461.544C449.785 460.936 450.129 460.376 450.353 459.864C450.593 459.336 450.713 458.8 450.713 458.256C450.713 457.216 450.377 456.424 449.705 455.88C449.033 455.32 448.137 455.04 447.017 455.04C445.897 455.04 444.977 455.376 444.257 456.048C443.537 456.704 443.193 457.608 443.225 458.76H441.833C441.817 457.72 442.033 456.832 442.481 456.096C442.929 455.36 443.553 454.792 444.353 454.392C445.153 453.992 446.065 453.792 447.089 453.792C448.161 453.792 449.065 453.976 449.801 454.344C450.553 454.696 451.129 455.208 451.529 455.88C451.929 456.536 452.129 457.328 452.129 458.256C452.129 458.864 452.025 459.456 451.817 460.032C451.609 460.592 451.225 461.24 450.665 461.976C450.121 462.696 449.329 463.608 448.289 464.712L442.817 470.568L442.913 469.752H452.345V471H441.713V469.824ZM461.6 465.672C461.616 465.048 461.688 464.44 461.816 463.848C461.96 463.256 462.208 462.624 462.56 461.952C462.928 461.28 463.432 460.512 464.072 459.648L468.272 454.032H469.976L464.288 461.568L464.096 461.352C464.432 461.144 464.736 460.976 465.008 460.848C465.28 460.704 465.576 460.6 465.896 460.536C466.216 460.456 466.608 460.416 467.072 460.416C468.24 460.416 469.232 460.632 470.048 461.064C470.864 461.48 471.48 462.088 471.896 462.888C472.328 463.688 472.544 464.656 472.544 465.792C472.544 466.88 472.336 467.832 471.92 468.648C471.504 469.464 470.888 470.104 470.072 470.568C469.256 471.016 468.256 471.24 467.072 471.24C465.28 471.24 463.912 470.736 462.968 469.728C462.04 468.704 461.584 467.352 461.6 465.672ZM463.016 465.792C463.016 467.072 463.328 468.096 463.952 468.864C464.592 469.616 465.632 469.992 467.072 469.992C468.496 469.992 469.528 469.616 470.168 468.864C470.808 468.096 471.128 467.072 471.128 465.792C471.128 464.512 470.808 463.504 470.168 462.768C469.528 462.032 468.496 461.664 467.072 461.664C465.792 461.664 464.792 462.032 464.072 462.768C463.368 463.504 463.016 464.512 463.016 465.792Z" fill="#FFFAEE"/>
<path d="M375.8 436.544H374.456L379.976 416.12H381.32L375.8 436.544ZM385.093 417.032H390.757C392.117 417.032 393.213 417.248 394.045 417.68C394.877 418.096 395.485 418.688 395.869 419.456C396.253 420.224 396.445 421.136 396.445 422.192C396.445 423.248 396.253 424.168 395.869 424.952C395.485 425.736 394.877 426.344 394.045 426.776C393.229 427.208 392.149 427.424 390.805 427.424H386.533V434H385.093V417.032ZM390.709 426.176C391.829 426.176 392.701 426.016 393.325 425.696C393.949 425.36 394.381 424.896 394.621 424.304C394.877 423.696 395.005 422.992 395.005 422.192C395.005 421.376 394.877 420.68 394.621 420.104C394.381 419.512 393.949 419.064 393.325 418.76C392.701 418.44 391.813 418.28 390.661 418.28H386.533V426.176H390.709ZM407.96 426.224L412.376 434H410.768L406.52 426.488L407.96 426.224ZM406.088 425.768C407.224 425.768 408.104 425.624 408.728 425.336C409.352 425.048 409.792 424.624 410.048 424.064C410.304 423.504 410.432 422.816 410.432 422C410.432 421.168 410.304 420.48 410.048 419.936C409.792 419.392 409.352 418.984 408.728 418.712C408.104 418.424 407.224 418.28 406.088 418.28H401.96V425.768H406.088ZM406.208 427.016H401.96V434H400.52V417.032H406.184C407.56 417.032 408.664 417.232 409.496 417.632C410.328 418.016 410.928 418.576 411.296 419.312C411.68 420.048 411.872 420.944 411.872 422C411.872 422.832 411.784 423.56 411.608 424.184C411.432 424.808 411.128 425.336 410.696 425.768C410.264 426.184 409.68 426.496 408.944 426.704C408.224 426.912 407.312 427.016 406.208 427.016ZM430.139 425.504C430.139 428.304 429.531 430.464 428.315 431.984C427.115 433.488 425.347 434.24 423.011 434.24C420.675 434.24 418.899 433.488 417.683 431.984C416.483 430.464 415.883 428.304 415.883 425.504C415.883 422.704 416.483 420.552 417.683 419.048C418.899 417.544 420.675 416.792 423.011 416.792C425.347 416.792 427.115 417.544 428.315 419.048C429.531 420.552 430.139 422.704 430.139 425.504ZM428.699 425.504C428.699 422.96 428.227 421.088 427.283 419.888C426.355 418.688 424.931 418.088 423.011 418.088C421.091 418.088 419.659 418.688 418.715 419.888C417.787 421.088 417.323 422.96 417.323 425.504C417.323 428.048 417.787 429.928 418.715 431.144C419.659 432.344 421.091 432.944 423.011 432.944C424.931 432.944 426.355 432.344 427.283 431.144C428.227 429.928 428.699 428.048 428.699 425.504ZM446.166 421.952C445.958 420.656 445.438 419.688 444.606 419.048C443.79 418.408 442.702 418.088 441.342 418.088C439.55 418.088 438.158 418.696 437.166 419.912C436.19 421.128 435.702 422.984 435.702 425.48C435.702 427.992 436.19 429.864 437.166 431.096C438.158 432.312 439.55 432.92 441.342 432.92C442.702 432.92 443.79 432.6 444.606 431.96C445.438 431.32 445.966 430.36 446.19 429.08H447.702C447.43 430.76 446.758 432.04 445.686 432.92C444.614 433.8 443.166 434.24 441.342 434.24C438.974 434.24 437.198 433.48 436.014 431.96C434.846 430.424 434.262 428.264 434.262 425.48C434.262 422.712 434.846 420.576 436.014 419.072C437.198 417.552 438.974 416.792 441.342 416.792C442.478 416.792 443.486 416.984 444.366 417.368C445.262 417.752 445.99 418.328 446.55 419.096C447.126 419.864 447.502 420.816 447.678 421.952H446.166ZM452.354 417.032H461.906V418.28H453.794V424.88H461.354V426.128H453.794V432.752H462.026V434H452.354V417.032ZM475.919 420.704C475.791 419.712 475.351 419.024 474.599 418.64C473.863 418.256 472.887 418.064 471.671 418.064C470.279 418.064 469.247 418.336 468.575 418.88C467.903 419.408 467.567 420.192 467.567 421.232C467.567 421.84 467.679 422.336 467.903 422.72C468.143 423.104 468.447 423.416 468.815 423.656C469.183 423.88 469.575 424.064 469.991 424.208C470.407 424.336 470.791 424.448 471.143 424.544L472.991 425.048C473.455 425.176 473.959 425.336 474.503 425.528C475.047 425.72 475.559 425.984 476.039 426.32C476.535 426.656 476.935 427.088 477.239 427.616C477.543 428.144 477.695 428.8 477.695 429.584C477.695 430.48 477.479 431.288 477.047 432.008C476.615 432.728 475.951 433.296 475.055 433.712C474.159 434.112 473.015 434.312 471.623 434.312C469.767 434.312 468.343 433.936 467.351 433.184C466.359 432.432 465.799 431.416 465.671 430.136H467.159C467.255 430.904 467.503 431.496 467.903 431.912C468.303 432.328 468.815 432.624 469.439 432.8C470.079 432.96 470.807 433.04 471.623 433.04C473.095 433.04 474.231 432.76 475.031 432.2C475.847 431.624 476.255 430.736 476.255 429.536C476.255 428.816 476.079 428.248 475.727 427.832C475.391 427.416 474.935 427.088 474.359 426.848C473.799 426.608 473.191 426.4 472.535 426.224L470.231 425.6C468.919 425.232 467.903 424.72 467.183 424.064C466.479 423.408 466.127 422.504 466.127 421.352C466.127 420.408 466.351 419.6 466.799 418.928C467.263 418.24 467.911 417.712 468.743 417.344C469.591 416.976 470.591 416.792 471.743 416.792C472.863 416.792 473.823 416.96 474.623 417.296C475.439 417.616 476.079 418.072 476.543 418.664C477.023 419.24 477.295 419.92 477.359 420.704H475.919ZM491.064 420.704C490.936 419.712 490.496 419.024 489.744 418.64C489.008 418.256 488.032 418.064 486.816 418.064C485.424 418.064 484.392 418.336 483.72 418.88C483.048 419.408 482.712 420.192 482.712 421.232C482.712 421.84 482.824 422.336 483.048 422.72C483.288 423.104 483.592 423.416 483.96 423.656C484.328 423.88 484.72 424.064 485.136 424.208C485.552 424.336 485.936 424.448 486.288 424.544L488.136 425.048C488.6 425.176 489.104 425.336 489.648 425.528C490.192 425.72 490.704 425.984 491.184 426.32C491.68 426.656 492.08 427.088 492.384 427.616C492.688 428.144 492.84 428.8 492.84 429.584C492.84 430.48 492.624 431.288 492.192 432.008C491.76 432.728 491.096 433.296 490.2 433.712C489.304 434.112 488.16 434.312 486.768 434.312C484.912 434.312 483.488 433.936 482.496 433.184C481.504 432.432 480.944 431.416 480.816 430.136H482.304C482.4 430.904 482.648 431.496 483.048 431.912C483.448 432.328 483.96 432.624 484.584 432.8C485.224 432.96 485.952 433.04 486.768 433.04C488.24 433.04 489.376 432.76 490.176 432.2C490.992 431.624 491.4 430.736 491.4 429.536C491.4 428.816 491.224 428.248 490.872 427.832C490.536 427.416 490.08 427.088 489.504 426.848C488.944 426.608 488.336 426.4 487.68 426.224L485.376 425.6C484.064 425.232 483.048 424.72 482.328 424.064C481.624 423.408 481.272 422.504 481.272 421.352C481.272 420.408 481.496 419.6 481.944 418.928C482.408 418.24 483.056 417.712 483.888 417.344C484.736 416.976 485.736 416.792 486.888 416.792C488.008 416.792 488.968 416.96 489.768 417.296C490.584 417.616 491.224 418.072 491.688 418.664C492.168 419.24 492.44 419.92 492.504 420.704H491.064ZM496.681 436.544H495.337L500.857 416.12H502.201L496.681 436.544ZM511.543 432.344H511.687L517.279 417.032H518.791L512.599 434H510.607L504.439 417.032H505.975L511.543 432.344ZM527.682 434.24C526.29 434.24 525.154 433.928 524.274 433.304C523.41 432.664 522.778 431.704 522.378 430.424C521.978 429.128 521.778 427.488 521.778 425.504C521.778 423.52 521.978 421.888 522.378 420.608C522.794 419.328 523.434 418.376 524.298 417.752C525.178 417.112 526.306 416.792 527.682 416.792C529.074 416.792 530.202 417.112 531.066 417.752C531.946 418.376 532.586 419.328 532.986 420.608C533.402 421.888 533.61 423.52 533.61 425.504C533.61 427.472 533.402 429.104 532.986 430.4C532.586 431.696 531.946 432.664 531.066 433.304C530.202 433.928 529.074 434.24 527.682 434.24ZM527.682 432.992C529.314 432.992 530.474 432.376 531.162 431.144C531.85 429.912 532.194 428.032 532.194 425.504C532.194 422.976 531.85 421.104 531.162 419.888C530.474 418.656 529.314 418.04 527.682 418.04C526.066 418.04 524.914 418.656 524.226 419.888C523.538 421.104 523.194 422.976 523.194 425.504C523.194 428.032 523.53 429.912 524.202 431.144C524.89 432.376 526.05 432.992 527.682 432.992ZM543.205 434H541.765V417.992L542.269 418.112L537.445 421.376V419.864L541.597 417.032H543.205V434Z" fill="#FFFAEE"/>
<path d="M380.096 610H378.032V593.032H380.096V610ZM375.44 594.784V593.032H382.664V594.784H375.44ZM375.44 610V608.248H382.664V610H375.44ZM399.429 610H397.365L388.605 596.392H388.461V610H386.445V593.032H388.533L397.293 606.64H397.437V593.032H399.429V610ZM401.437 593.032H414.301V594.784H408.901V610H406.861V594.784H401.437V593.032ZM416.328 593.032H426.408V594.784H418.392V600.616H425.856V602.344H418.392V608.248H426.528V610H416.328V593.032ZM442.976 610H440.912L432.152 596.392H432.008V610H429.992V593.032H432.08L440.84 606.64H440.984V593.032H442.976V610ZM444.984 593.032H457.848V594.784H452.448V610H450.408V594.784H444.984V593.032ZM464.612 610H462.548V593.032H464.612V610ZM459.956 594.784V593.032H467.18V594.784H459.956ZM459.956 610V608.248H467.18V610H459.956ZM484.601 601.504C484.601 604.32 483.969 606.48 482.705 607.984C481.457 609.488 479.633 610.24 477.233 610.24C474.849 610.24 473.025 609.488 471.761 607.984C470.513 606.48 469.889 604.32 469.889 601.504C469.889 598.688 470.513 596.536 471.761 595.048C473.025 593.544 474.849 592.792 477.233 592.792C479.633 592.792 481.457 593.544 482.705 595.048C483.969 596.536 484.601 598.688 484.601 601.504ZM482.537 601.504C482.537 599.136 482.097 597.392 481.217 596.272C480.353 595.136 479.033 594.568 477.257 594.568C475.465 594.568 474.129 595.136 473.249 596.272C472.385 597.392 471.953 599.136 471.953 601.504C471.953 603.872 472.385 605.624 473.249 606.76C474.129 607.896 475.465 608.464 477.257 608.464C479.033 608.464 480.353 607.896 481.217 606.76C482.097 605.624 482.537 603.872 482.537 601.504ZM500.843 610H498.779L490.019 596.392H489.875V610H487.859V593.032H489.947L498.707 606.64H498.851V593.032H500.843V610ZM524.726 601.504C524.726 604.32 524.094 606.48 522.83 607.984C521.582 609.488 519.758 610.24 517.358 610.24C514.974 610.24 513.15 609.488 511.886 607.984C510.638 606.48 510.014 604.32 510.014 601.504C510.014 598.688 510.638 596.536 511.886 595.048C513.15 593.544 514.974 592.792 517.358 592.792C519.758 592.792 521.582 593.544 522.83 595.048C524.094 596.536 524.726 598.688 524.726 601.504ZM522.662 601.504C522.662 599.136 522.222 597.392 521.342 596.272C520.478 595.136 519.158 594.568 517.382 594.568C515.59 594.568 514.254 595.136 513.374 596.272C512.51 597.392 512.078 599.136 512.078 601.504C512.078 603.872 512.51 605.624 513.374 606.76C514.254 607.896 515.59 608.464 517.382 608.464C519.158 608.464 520.478 607.896 521.342 606.76C522.222 605.624 522.662 603.872 522.662 601.504ZM533.301 607.648H533.445L538.605 593.032H540.789L534.573 610H532.173L525.957 593.032H528.165L533.301 607.648ZM543.312 593.032H553.392V594.784H545.376V600.616H552.84V602.344H545.376V608.248H553.512V610H543.312V593.032ZM564.944 602.176L569.36 610H567.008L562.88 602.536L564.944 602.176ZM562.688 601.528C563.76 601.528 564.576 601.408 565.136 601.168C565.696 600.912 566.08 600.536 566.288 600.04C566.512 599.544 566.624 598.92 566.624 598.168C566.624 597.416 566.512 596.792 566.288 596.296C566.08 595.8 565.696 595.432 565.136 595.192C564.576 594.936 563.76 594.808 562.688 594.808H559.04V601.528H562.688ZM562.808 603.304H559.04V610H556.976V593.032H562.784C564.256 593.032 565.416 593.248 566.264 593.68C567.128 594.096 567.744 594.688 568.112 595.456C568.48 596.224 568.664 597.128 568.664 598.168C568.664 598.952 568.576 599.664 568.4 600.304C568.224 600.928 567.92 601.464 567.488 601.912C567.056 602.36 566.456 602.704 565.688 602.944C564.936 603.184 563.976 603.304 562.808 603.304ZM576.75 593.032H589.614V594.784H584.214V610H582.174V594.784H576.75V593.032ZM596.377 610H594.313V593.032H596.377V610ZM591.721 594.784V593.032H598.945V594.784H591.721ZM591.721 610V608.248H598.945V610H591.721ZM605.318 593.032L610.91 607H611.054L616.67 593.032H619.214V610H617.246V596.968H617.102L611.822 610H610.094L604.838 596.968H604.694V610H602.726V593.032H605.318ZM623.187 593.032H633.267V594.784H625.251V600.616H632.715V602.344H625.251V608.248H633.387V610H623.187V593.032ZM642.758 593.032H644.822V608.2H652.694V610H642.758V593.032ZM654.711 593.032H664.791V594.784H656.775V600.616H664.239V602.344H656.775V608.248H664.911V610H654.711V593.032ZM674.183 595.624H674.063L668.927 610H666.887L673.103 593.032H675.215L681.455 610H679.295L674.183 595.624ZM678.311 605.296H669.959V603.496H678.311V605.296ZM683.961 610V593.032H689.505C692.081 593.032 694.009 593.76 695.289 595.216C696.585 596.656 697.233 598.752 697.233 601.504C697.233 604.24 696.577 606.344 695.265 607.816C693.953 609.272 691.953 610 689.265 610H683.961ZM689.145 608.248C690.649 608.248 691.841 607.992 692.721 607.48C693.601 606.952 694.225 606.184 694.593 605.176C694.977 604.168 695.169 602.944 695.169 601.504C695.169 600.048 694.977 598.824 694.593 597.832C694.225 596.824 693.617 596.064 692.769 595.552C691.921 595.04 690.777 594.784 689.337 594.784H686.025V608.248H689.145ZM709.556 597.064C709.46 596.168 709.084 595.528 708.428 595.144C707.772 594.76 706.876 594.568 705.74 594.568C704.476 594.568 703.54 594.816 702.932 595.312C702.324 595.792 702.02 596.488 702.02 597.4C702.02 597.912 702.124 598.336 702.332 598.672C702.556 598.992 702.836 599.256 703.172 599.464C703.524 599.672 703.884 599.84 704.252 599.968C704.636 600.08 704.988 600.184 705.308 600.28L707.036 600.76C707.5 600.888 708.012 601.056 708.572 601.264C709.132 601.456 709.668 601.728 710.18 602.08C710.692 602.432 711.108 602.88 711.428 603.424C711.748 603.952 711.908 604.616 711.908 605.416C711.908 606.376 711.684 607.224 711.236 607.96C710.788 608.696 710.1 609.272 709.172 609.688C708.26 610.104 707.1 610.312 705.692 610.312C703.756 610.312 702.276 609.912 701.252 609.112C700.228 608.296 699.66 607.184 699.548 605.776H701.636C701.716 606.48 701.932 607.032 702.284 607.432C702.636 607.832 703.1 608.12 703.676 608.296C704.268 608.456 704.94 608.536 705.692 608.536C707.02 608.536 708.044 608.272 708.764 607.744C709.5 607.216 709.868 606.424 709.868 605.368C709.868 604.76 709.708 604.28 709.388 603.928C709.084 603.56 708.676 603.272 708.164 603.064C707.652 602.856 707.092 602.664 706.484 602.488L704.324 601.888C702.964 601.504 701.9 600.968 701.132 600.28C700.38 599.592 700.004 598.664 700.004 597.496C700.004 596.504 700.244 595.664 700.724 594.976C701.204 594.272 701.884 593.736 702.764 593.368C703.644 592.984 704.66 592.792 705.812 592.792C706.996 592.792 708.004 592.976 708.836 593.344C709.684 593.696 710.34 594.192 710.804 594.832C711.284 595.472 711.54 596.216 711.572 597.064H709.556ZM374.648 622.032H387.512V623.784H382.112V639H380.072V623.784H374.648V622.032ZM402.945 630.504C402.945 633.32 402.313 635.48 401.049 636.984C399.801 638.488 397.977 639.24 395.577 639.24C393.193 639.24 391.369 638.488 390.105 636.984C388.857 635.48 388.233 633.32 388.233 630.504C388.233 627.688 388.857 625.536 390.105 624.048C391.369 622.544 393.193 621.792 395.577 621.792C397.977 621.792 399.801 622.544 401.049 624.048C402.313 625.536 402.945 627.688 402.945 630.504ZM400.881 630.504C400.881 628.136 400.441 626.392 399.561 625.272C398.697 624.136 397.377 623.568 395.601 623.568C393.809 623.568 392.473 624.136 391.593 625.272C390.729 626.392 390.297 628.136 390.297 630.504C390.297 632.872 390.729 634.624 391.593 635.76C392.473 636.896 393.809 637.464 395.601 637.464C397.377 637.464 398.697 636.896 399.561 635.76C400.441 634.624 400.881 632.872 400.881 630.504ZM414.701 622.032L420.293 636H420.437L426.053 622.032H428.597V639H426.629V625.968H426.485L421.205 639H419.477L414.221 625.968H414.077V639H412.109V622.032H414.701ZM438.402 624.624H438.282L433.146 639H431.106L437.322 622.032H439.434L445.674 639H443.514L438.402 624.624ZM442.53 634.296H434.178V632.496H442.53V634.296ZM456.994 626.064C456.898 625.168 456.522 624.528 455.866 624.144C455.21 623.76 454.314 623.568 453.178 623.568C451.914 623.568 450.978 623.816 450.37 624.312C449.762 624.792 449.458 625.488 449.458 626.4C449.458 626.912 449.562 627.336 449.77 627.672C449.994 627.992 450.274 628.256 450.61 628.464C450.962 628.672 451.322 628.84 451.69 628.968C452.074 629.08 452.426 629.184 452.746 629.28L454.474 629.76C454.938 629.888 455.45 630.056 456.01 630.264C456.57 630.456 457.106 630.728 457.618 631.08C458.13 631.432 458.546 631.88 458.866 632.424C459.186 632.952 459.346 633.616 459.346 634.416C459.346 635.376 459.122 636.224 458.674 636.96C458.226 637.696 457.538 638.272 456.61 638.688C455.698 639.104 454.538 639.312 453.13 639.312C451.194 639.312 449.714 638.912 448.69 638.112C447.666 637.296 447.098 636.184 446.986 634.776H449.074C449.154 635.48 449.37 636.032 449.722 636.432C450.074 636.832 450.538 637.12 451.114 637.296C451.706 637.456 452.378 637.536 453.13 637.536C454.458 637.536 455.482 637.272 456.202 636.744C456.938 636.216 457.306 635.424 457.306 634.368C457.306 633.76 457.146 633.28 456.826 632.928C456.522 632.56 456.114 632.272 455.602 632.064C455.09 631.856 454.53 631.664 453.922 631.488L451.762 630.888C450.402 630.504 449.338 629.968 448.57 629.28C447.818 628.592 447.442 627.664 447.442 626.496C447.442 625.504 447.682 624.664 448.162 623.976C448.642 623.272 449.322 622.736 450.202 622.368C451.082 621.984 452.098 621.792 453.25 621.792C454.434 621.792 455.442 621.976 456.274 622.344C457.122 622.696 457.778 623.192 458.242 623.832C458.722 624.472 458.978 625.216 459.01 626.064H456.994ZM459.984 622.032H472.848V623.784H467.448V639H465.408V623.784H459.984V622.032ZM474.875 622.032H484.955V623.784H476.939V629.616H484.403V631.344H476.939V637.248H485.075V639H474.875V622.032ZM496.507 631.176L500.923 639H498.571L494.443 631.536L496.507 631.176ZM494.251 630.528C495.323 630.528 496.139 630.408 496.699 630.168C497.259 629.912 497.643 629.536 497.851 629.04C498.075 628.544 498.187 627.92 498.187 627.168C498.187 626.416 498.075 625.792 497.851 625.296C497.643 624.8 497.259 624.432 496.699 624.192C496.139 623.936 495.323 623.808 494.251 623.808H490.603V630.528H494.251ZM494.371 632.304H490.603V639H488.539V622.032H494.347C495.819 622.032 496.979 622.248 497.827 622.68C498.691 623.096 499.307 623.688 499.675 624.456C500.043 625.224 500.227 626.128 500.227 627.168C500.227 627.952 500.139 628.664 499.963 629.304C499.787 629.928 499.483 630.464 499.051 630.912C498.619 631.36 498.019 631.704 497.251 631.944C496.499 632.184 495.539 632.304 494.371 632.304ZM504.073 622.032L508.873 630.072H508.969L513.745 622.032H516.073L509.953 631.992V639H507.913V631.992L501.697 622.032H504.073ZM538.39 630.504C538.39 633.32 537.758 635.48 536.494 636.984C535.246 638.488 533.422 639.24 531.022 639.24C528.638 639.24 526.814 638.488 525.55 636.984C524.302 635.48 523.678 633.32 523.678 630.504C523.678 627.688 524.302 625.536 525.55 624.048C526.814 622.544 528.638 621.792 531.022 621.792C533.422 621.792 535.246 622.544 536.494 624.048C537.758 625.536 538.39 627.688 538.39 630.504ZM536.326 630.504C536.326 628.136 535.886 626.392 535.006 625.272C534.142 624.136 532.822 623.568 531.046 623.568C529.254 623.568 527.918 624.136 527.038 625.272C526.174 626.392 525.742 628.136 525.742 630.504C525.742 632.872 526.174 634.624 527.038 635.76C527.918 636.896 529.254 637.464 531.046 637.464C532.822 637.464 534.142 636.896 535.006 635.76C535.886 634.624 536.326 632.872 536.326 630.504ZM541.648 622.032H551.824V623.784H543.712V629.64H551.056V631.392H543.712V639H541.648V622.032ZM571.907 627.24C571.715 625.992 571.235 625.072 570.467 624.48C569.699 623.872 568.675 623.568 567.395 623.568C565.715 623.568 564.427 624.144 563.531 625.296C562.651 626.432 562.211 628.168 562.211 630.504C562.211 632.84 562.651 634.584 563.531 635.736C564.427 636.888 565.715 637.464 567.395 637.464C568.675 637.464 569.699 637.16 570.467 636.552C571.235 635.944 571.723 635.024 571.931 633.792H574.019C573.763 635.552 573.059 636.904 571.907 637.848C570.771 638.776 569.267 639.24 567.395 639.24C565.059 639.24 563.267 638.488 562.019 636.984C560.771 635.48 560.147 633.32 560.147 630.504C560.147 627.688 560.771 625.536 562.019 624.048C563.267 622.544 565.059 621.792 567.395 621.792C568.563 621.792 569.611 622 570.539 622.416C571.467 622.816 572.227 623.424 572.819 624.24C573.427 625.056 573.819 626.056 573.995 627.24H571.907ZM585.124 631.176L589.54 639H587.188L583.06 631.536L585.124 631.176ZM582.868 630.528C583.94 630.528 584.756 630.408 585.316 630.168C585.876 629.912 586.26 629.536 586.468 629.04C586.692 628.544 586.804 627.92 586.804 627.168C586.804 626.416 586.692 625.792 586.468 625.296C586.26 624.8 585.876 624.432 585.316 624.192C584.756 623.936 583.94 623.808 582.868 623.808H579.22V630.528H582.868ZM582.988 632.304H579.22V639H577.156V622.032H582.964C584.436 622.032 585.596 622.248 586.444 622.68C587.308 623.096 587.924 623.688 588.292 624.456C588.66 625.224 588.844 626.128 588.844 627.168C588.844 627.952 588.756 628.664 588.58 629.304C588.404 629.928 588.1 630.464 587.668 630.912C587.236 631.36 586.636 631.704 585.868 631.944C585.116 632.184 584.156 632.304 582.988 632.304ZM598.199 624.624H598.079L592.943 639H590.903L597.119 622.032H599.231L605.471 639H603.311L598.199 624.624ZM602.327 634.296H593.975V632.496H602.327V634.296ZM607.976 622.032H618.152V623.784H610.04V629.64H617.384V631.392H610.04V639H607.976V622.032ZM619.664 622.032H632.528V623.784H627.128V639H625.088V623.784H619.664V622.032Z" fill="#FFFAEE"/>
<path d="M288.5 507C271.681 507 258 517.986 258 531.5C258 545.014 271.681 556 288.5 556C305.319 556 319 545.014 319 531.5C319 517.986 305.319 507 288.5 507ZM287.152 510.999V520.175C284.417 520.136 281.768 519.974 279.273 519.712C281.845 515.868 285.06 512.794 287.152 510.999ZM287.152 522.694V530.244H275.245C275.477 527.355 276.469 524.597 277.84 522.085C280.768 522.447 283.914 522.655 287.16 522.702L287.152 522.694ZM287.152 532.756V540.306C283.906 540.352 280.761 540.56 277.832 540.922C276.469 538.411 275.47 535.653 275.245 532.764H287.152V532.756ZM287.152 542.818V552.001C285.06 550.206 281.838 547.132 279.266 543.288C281.76 543.018 284.417 542.856 287.152 542.818ZM289.856 551.994V542.818C292.567 542.856 295.217 543.026 297.727 543.303C295.155 547.14 291.947 550.206 289.856 552.001V551.994ZM289.856 540.298V532.748H301.763C301.53 535.645 300.539 538.403 299.168 540.915C296.239 540.553 293.102 540.337 289.856 540.291V540.298ZM289.856 530.236V522.686C293.102 522.64 296.239 522.424 299.168 522.062C300.539 524.574 301.538 527.34 301.763 530.229H289.856V530.236ZM289.856 520.175V510.999C291.947 512.794 295.155 515.86 297.727 519.697C295.217 519.974 292.567 520.136 289.856 520.182V520.175ZM292.389 509.735C299.206 510.49 305.241 513.217 309.541 517.154C307.155 518.064 304.102 518.795 300.671 519.312C298.106 515.174 294.783 511.838 292.389 509.735ZM276.322 519.335C272.89 518.819 269.853 518.087 267.444 517.17C271.743 513.217 277.786 510.49 284.619 509.727C282.225 511.838 278.894 515.182 276.329 519.327L276.322 519.335ZM275.012 521.677C273.688 524.304 272.735 527.186 272.526 530.236H260.75C261.045 526.138 262.764 522.339 265.522 519.142C268.056 520.205 271.302 521.068 275.012 521.677ZM272.526 532.756C272.735 535.807 273.688 538.688 275.012 541.315C271.309 541.924 268.063 542.779 265.522 543.85C262.764 540.653 261.045 536.855 260.75 532.756H272.518H272.526ZM276.322 543.658C278.894 547.803 282.217 551.146 284.611 553.257C277.778 552.494 271.735 549.767 267.436 545.815C269.853 544.898 272.882 544.166 276.314 543.65L276.322 543.658ZM300.663 543.681C304.102 544.197 307.147 544.936 309.533 545.838C305.234 549.775 299.199 552.502 292.381 553.257C294.775 551.146 298.091 547.81 300.663 543.681ZM301.988 541.323C303.32 538.688 304.273 535.807 304.482 532.748H316.25C315.955 536.855 314.228 540.661 311.462 543.866C308.937 542.795 305.691 541.932 301.988 541.323ZM304.482 530.236C304.273 527.186 303.32 524.296 301.988 521.661C305.691 521.053 308.929 520.19 311.462 519.119C314.228 522.324 315.955 526.13 316.25 530.236H304.482Z" fill="#FFFAEE"/>
<path fill-rule="evenodd" clip-rule="evenodd" d="M401.988 507C395.284 507 389.203 509.707 384.744 514.095V507H374V557H384.744V549.905C389.203 554.293 395.284 557 401.988 557H406V553.961H401.988C394.97 553.961 388.721 550.576 384.744 545.339C383.506 543.707 382.486 541.898 381.738 539.954V553.954H376.999V510.039H381.738V524.039C382.486 522.095 383.506 520.286 384.744 518.654C388.721 513.417 394.97 510.032 401.988 510.032H402.994V514.823H401.988C392.621 514.823 385.002 522.527 385.002 531.996C385.002 541.466 392.621 549.17 401.988 549.17H406V538.307H401.988C398.549 538.307 395.746 535.481 395.746 531.996C395.746 528.512 398.542 525.686 401.988 525.686H406V522.647H401.988C396.892 522.647 392.74 526.837 392.74 531.989C392.74 537.141 396.885 541.332 401.988 541.332H402.994V546.124H401.988C394.278 546.124 388.008 539.784 388.008 531.989C388.008 524.194 394.278 517.855 401.988 517.855H406V507H401.988Z" fill="#FFFAEE"/>
<path d="M467.406 504H507.594C511.126 504 514 506.874 514 510.406V550.594C514 554.126 511.126 557 507.594 557H467.406C463.874 557 461 554.126 461 550.594V510.406C461 506.874 463.874 504 467.406 504H467.406ZM507.594 507.629H467.406C465.875 507.629 464.629 508.875 464.629 510.406V522.7H491.252L480.093 512.33H485.428L498.53 524.511L486.934 535.295H510.371V510.406C510.371 508.875 509.125 507.629 507.594 507.629ZM467.406 553.371H507.594C509.125 553.371 510.371 552.125 510.371 550.594V538.925H486.737L497.896 549.295H492.562L479.459 537.114L491.056 526.329H464.628V550.594C464.628 552.125 465.874 553.371 467.405 553.371L467.406 553.371Z" fill="#FFFAEE"/>
<path d="M702.527 555C702.287 555 702.167 554.912 702.167 554.736C702.167 554.56 702.271 554.464 702.479 554.448L703.415 554.352C703.751 554.32 703.975 554.24 704.087 554.112C704.215 553.984 704.279 553.752 704.279 553.416V539.16C704.279 538.888 704.199 538.712 704.039 538.632C703.895 538.536 703.703 538.504 703.463 538.536L702.599 538.632C702.311 538.648 702.167 538.544 702.167 538.32C702.167 538.144 702.295 538.032 702.551 537.984C703.399 537.84 704.023 537.704 704.423 537.576C704.823 537.432 705.119 537.36 705.311 537.36C705.647 537.36 705.815 537.536 705.815 537.888V553.416C705.815 553.752 705.871 553.984 705.983 554.112C706.111 554.24 706.343 554.32 706.679 554.352L707.471 554.448C707.679 554.464 707.783 554.56 707.783 554.736C707.783 554.912 707.663 555 707.423 555H702.527ZM711.335 555C711.047 555 710.903 554.896 710.903 554.688C710.903 554.576 710.959 554.432 711.071 554.256L713.951 549.864C715.151 548.04 716.015 546.472 716.543 545.16C717.087 543.832 717.359 542.616 717.359 541.512C717.359 540.52 717.151 539.76 716.735 539.232C716.335 538.704 715.751 538.44 714.983 538.44C714.215 538.44 713.519 538.712 712.895 539.256C712.271 539.784 711.871 540.632 711.695 541.8C711.647 542.056 711.527 542.184 711.335 542.184C711.095 542.184 710.991 542.024 711.023 541.704C711.135 540.648 711.407 539.816 711.839 539.208C712.287 538.584 712.823 538.144 713.447 537.888C714.071 537.616 714.703 537.48 715.343 537.48C716.447 537.48 717.343 537.816 718.031 538.488C718.735 539.144 719.087 540.064 719.087 541.248C719.087 542.08 718.887 542.936 718.487 543.816C718.103 544.68 717.567 545.632 716.879 546.672C716.207 547.696 715.431 548.872 714.551 550.2L712.679 553.032C712.583 553.176 712.575 553.304 712.655 553.416C712.751 553.512 712.879 553.56 713.039 553.56H715.607C716.215 553.56 716.719 553.496 717.119 553.368C717.519 553.224 717.839 552.968 718.079 552.6C718.319 552.216 718.503 551.672 718.631 550.968L718.847 549.84C718.895 549.632 719.015 549.528 719.207 549.528C719.431 549.528 719.527 549.664 719.495 549.936L719.207 554.448C719.175 554.816 718.975 555 718.607 555H711.335ZM723.439 555C723.151 555 723.007 554.896 723.007 554.688C723.007 554.576 723.063 554.432 723.175 554.256L726.055 549.864C727.255 548.04 728.119 546.472 728.647 545.16C729.191 543.832 729.463 542.616 729.463 541.512C729.463 540.52 729.255 539.76 728.839 539.232C728.439 538.704 727.855 538.44 727.087 538.44C726.319 538.44 725.623 538.712 724.999 539.256C724.375 539.784 723.975 540.632 723.799 541.8C723.751 542.056 723.631 542.184 723.439 542.184C723.199 542.184 723.095 542.024 723.127 541.704C723.239 540.648 723.511 539.816 723.943 539.208C724.391 538.584 724.927 538.144 725.551 537.888C726.175 537.616 726.807 537.48 727.447 537.48C728.551 537.48 729.447 537.816 730.135 538.488C730.839 539.144 731.191 540.064 731.191 541.248C731.191 542.08 730.991 542.936 730.591 543.816C730.207 544.68 729.671 545.632 728.983 546.672C728.311 547.696 727.535 548.872 726.655 550.2L724.783 553.032C724.687 553.176 724.679 553.304 724.759 553.416C724.855 553.512 724.983 553.56 725.143 553.56H727.711C728.319 553.56 728.823 553.496 729.223 553.368C729.623 553.224 729.943 552.968 730.183 552.6C730.423 552.216 730.607 551.672 730.735 550.968L730.951 549.84C730.999 549.632 731.119 549.528 731.311 549.528C731.535 549.528 731.631 549.664 731.599 549.936L731.311 554.448C731.279 554.816 731.079 555 730.711 555H723.439ZM737.198 555.216C736.846 555.216 736.542 555.104 736.286 554.88C736.046 554.64 735.926 554.328 735.926 553.944C735.926 553.576 736.046 553.28 736.286 553.056C736.542 552.816 736.846 552.696 737.198 552.696C737.518 552.696 737.806 552.816 738.062 553.056C738.318 553.28 738.446 553.576 738.446 553.944C738.446 554.328 738.318 554.64 738.062 554.88C737.806 555.104 737.518 555.216 737.198 555.216ZM747.083 555.216C746.283 555.216 745.571 554.944 744.947 554.4C744.339 553.856 743.859 553.096 743.507 552.12C743.171 551.144 743.003 550.016 743.003 548.736C743.003 547.424 743.187 546.152 743.555 544.92C743.939 543.672 744.467 542.536 745.139 541.512C745.811 540.488 746.587 539.624 747.467 538.92C748.363 538.216 749.323 537.744 750.347 537.504C750.507 537.472 750.619 537.488 750.683 537.552C750.763 537.616 750.803 537.696 750.803 537.792C750.803 537.952 750.715 538.056 750.539 538.104C749.131 538.568 747.995 539.32 747.131 540.36C746.267 541.384 745.627 542.728 745.211 544.392C745.179 544.504 745.187 544.584 745.235 544.632C745.299 544.664 745.379 544.648 745.475 544.584C745.971 544.232 746.555 544.056 747.227 544.056C747.979 544.056 748.651 544.296 749.243 544.776C749.835 545.24 750.299 545.88 750.635 546.696C750.987 547.512 751.163 548.448 751.163 549.504C751.163 550.544 750.979 551.504 750.611 552.384C750.243 553.248 749.747 553.936 749.123 554.448C748.515 554.96 747.835 555.216 747.083 555.216ZM747.035 554.568C747.851 554.568 748.451 554.168 748.835 553.368C749.235 552.552 749.435 551.304 749.435 549.624C749.435 547.912 749.251 546.656 748.883 545.856C748.515 545.056 747.931 544.656 747.131 544.656C745.435 544.656 744.587 546.36 744.587 549.768C744.587 552.968 745.403 554.568 747.035 554.568ZM759.402 555.216C758.474 555.216 757.674 555.008 757.002 554.592C756.33 554.16 755.81 553.616 755.442 552.96C755.09 552.288 754.914 551.592 754.914 550.872C754.914 549.88 755.194 549 755.754 548.232C756.314 547.448 757.106 546.784 758.13 546.24C758.226 546.192 758.274 546.136 758.274 546.072C758.274 545.992 758.234 545.92 758.154 545.856C757.258 545.248 756.594 544.56 756.162 543.792C755.73 543.008 755.514 542.232 755.514 541.464C755.514 540.664 755.706 539.968 756.09 539.376C756.49 538.784 757.01 538.32 757.65 537.984C758.29 537.648 758.986 537.48 759.738 537.48C760.458 537.48 761.106 537.648 761.682 537.984C762.258 538.304 762.714 538.752 763.05 539.328C763.386 539.888 763.554 540.528 763.554 541.248C763.554 542.08 763.298 542.856 762.786 543.576C762.274 544.28 761.594 544.864 760.746 545.328C760.65 545.376 760.602 545.44 760.602 545.52C760.602 545.584 760.65 545.648 760.746 545.712C761.914 546.448 762.738 547.208 763.218 547.992C763.714 548.76 763.962 549.608 763.962 550.536C763.962 551.432 763.762 552.232 763.362 552.936C762.962 553.64 762.418 554.2 761.73 554.616C761.042 555.016 760.266 555.216 759.402 555.216ZM759.666 545.04C759.874 545.184 760.082 545.176 760.29 545.016C760.898 544.584 761.354 544.032 761.658 543.36C761.978 542.688 762.138 541.96 762.138 541.176C762.138 540.248 761.93 539.512 761.514 538.968C761.114 538.408 760.506 538.128 759.69 538.128C758.858 538.128 758.186 538.376 757.674 538.872C757.178 539.368 756.93 540.024 756.93 540.84C756.93 541.32 756.994 541.792 757.122 542.256C757.266 542.72 757.538 543.184 757.938 543.648C758.338 544.096 758.914 544.56 759.666 545.04ZM759.45 554.568C760.41 554.568 761.162 554.28 761.706 553.704C762.266 553.128 762.546 552.352 762.546 551.376C762.546 550.56 762.394 549.864 762.09 549.288C761.802 548.696 761.41 548.184 760.914 547.752C760.418 547.304 759.85 546.896 759.21 546.528C759.002 546.384 758.794 546.384 758.586 546.528C757.114 547.536 756.378 549.008 756.378 550.944C756.378 551.552 756.474 552.136 756.666 552.696C756.858 553.256 757.178 553.712 757.626 554.064C758.074 554.4 758.682 554.568 759.45 554.568ZM771.105 555C770.865 555 770.745 554.912 770.745 554.736C770.745 554.56 770.849 554.464 771.057 554.448L772.089 554.304C772.425 554.256 772.641 554.176 772.737 554.064C772.849 553.936 772.905 553.72 772.905 553.416V550.296C772.905 550.072 772.793 549.96 772.569 549.96H767.721C767.417 549.96 767.265 549.824 767.265 549.552C767.265 549.472 767.281 549.392 767.313 549.312C767.361 549.216 767.417 549.096 767.481 548.952L773.241 537.96C773.305 537.8 773.433 537.72 773.625 537.72H774.105C774.393 537.72 774.465 537.856 774.321 538.128L768.561 548.28C768.449 548.504 768.513 548.616 768.753 548.616H772.569C772.793 548.616 772.905 548.504 772.905 548.28V543.576C772.905 543.432 772.985 543.304 773.145 543.192L774.033 542.688C774.145 542.624 774.241 542.616 774.321 542.664C774.401 542.696 774.441 542.776 774.441 542.904V548.28C774.441 548.504 774.553 548.616 774.777 548.616H775.833C776.025 548.616 776.121 548.712 776.121 548.904V549.672C776.121 549.864 776.025 549.96 775.833 549.96H774.777C774.553 549.96 774.441 550.072 774.441 550.296V553.416C774.441 553.752 774.489 553.976 774.585 554.088C774.697 554.2 774.921 554.288 775.257 554.352L775.809 554.448C776.017 554.496 776.121 554.592 776.121 554.736C776.121 554.912 776.001 555 775.761 555H771.105ZM779.327 555C779.087 555 778.967 554.912 778.967 554.736C778.967 554.56 779.071 554.464 779.279 554.448L780.215 554.352C780.551 554.32 780.775 554.24 780.887 554.112C781.015 553.984 781.079 553.752 781.079 553.416V539.16C781.079 538.888 780.999 538.712 780.839 538.632C780.695 538.536 780.503 538.504 780.263 538.536L779.399 538.632C779.111 538.648 778.967 538.544 778.967 538.32C778.967 538.144 779.095 538.032 779.351 537.984C780.199 537.84 780.823 537.704 781.223 537.576C781.623 537.432 781.919 537.36 782.111 537.36C782.447 537.36 782.615 537.536 782.615 537.888V553.416C782.615 553.752 782.671 553.984 782.783 554.112C782.911 554.24 783.143 554.32 783.479 554.352L784.271 554.448C784.479 554.464 784.583 554.56 784.583 554.736C784.583 554.912 784.463 555 784.223 555H779.327ZM792.359 544.224C791.719 544.224 791.135 544.072 790.607 543.768C790.079 543.448 789.663 543.024 789.359 542.496C789.055 541.968 788.903 541.392 788.903 540.768C788.903 540.144 789.055 539.576 789.359 539.064C789.663 538.536 790.079 538.12 790.607 537.816C791.135 537.512 791.719 537.36 792.359 537.36C793.015 537.36 793.599 537.512 794.111 537.816C794.623 538.12 795.023 538.536 795.311 539.064C795.615 539.576 795.767 540.144 795.767 540.768C795.767 541.392 795.615 541.968 795.311 542.496C795.023 543.024 794.623 543.448 794.111 543.768C793.599 544.072 793.015 544.224 792.359 544.224ZM792.359 543.48C793.111 543.48 793.735 543.216 794.231 542.688C794.743 542.16 794.999 541.52 794.999 540.768C794.999 540.032 794.743 539.408 794.231 538.896C793.735 538.368 793.111 538.104 792.359 538.104C791.591 538.104 790.951 538.368 790.439 538.896C789.927 539.408 789.671 540.032 789.671 540.768C789.671 541.52 789.927 542.16 790.439 542.688C790.951 543.216 791.591 543.48 792.359 543.48ZM816.688 555.24C816.624 555.24 816.56 555.216 816.496 555.168C816.432 555.12 816.384 555.016 816.352 554.856L814.504 547.416C814.488 547.288 814.44 547.232 814.36 547.248C814.28 547.248 814.224 547.304 814.192 547.416L812.128 554.856C812.08 555.016 812.024 555.12 811.96 555.168C811.912 555.216 811.856 555.24 811.792 555.24C811.728 555.24 811.656 555.216 811.576 555.168C811.512 555.12 811.464 555.016 811.432 554.856L807.64 539.64C807.528 539.192 807.4 538.88 807.256 538.704C807.128 538.528 806.904 538.408 806.584 538.344L806.224 538.272C806 538.224 805.888 538.12 805.888 537.96C805.888 537.8 806.008 537.72 806.248 537.72H810.112C810.336 537.72 810.448 537.808 810.448 537.984C810.448 538.128 810.328 538.224 810.088 538.272L809.824 538.32C809.552 538.368 809.376 538.464 809.296 538.608C809.232 538.736 809.24 538.976 809.32 539.328L812.152 551.04C812.184 551.152 812.232 551.208 812.296 551.208C812.376 551.208 812.432 551.152 812.464 551.04L813.544 547.128C813.72 546.52 813.808 545.96 813.808 545.448C813.808 544.936 813.728 544.368 813.568 543.744L812.56 539.64C812.448 539.192 812.336 538.872 812.224 538.68C812.128 538.488 811.992 538.376 811.816 538.344L811.456 538.272C811.232 538.224 811.12 538.12 811.12 537.96C811.12 537.8 811.24 537.72 811.48 537.72H814.768C814.992 537.72 815.104 537.808 815.104 537.984C815.104 538.128 814.984 538.224 814.744 538.272L814.48 538.32C814.272 538.352 814.144 538.44 814.096 538.584C814.064 538.728 814.088 538.976 814.168 539.328L814.984 542.76C815.016 542.872 815.064 542.928 815.128 542.928C815.208 542.928 815.264 542.872 815.296 542.76L816.16 539.832C816.336 539.224 816.4 538.824 816.352 538.632C816.32 538.44 816.232 538.336 816.088 538.32L815.824 538.272C815.584 538.224 815.464 538.128 815.464 537.984C815.464 537.808 815.576 537.72 815.8 537.72H818.08C818.352 537.72 818.488 537.808 818.488 537.984C818.488 538.144 818.352 538.24 818.08 538.272L817.816 538.296C817.608 538.312 817.432 538.44 817.288 538.68C817.16 538.92 817.016 539.312 816.856 539.856L815.944 543C815.768 543.592 815.672 544.152 815.656 544.68C815.656 545.192 815.728 545.76 815.872 546.384L816.952 550.896C816.984 551.008 817.032 551.064 817.096 551.064C817.176 551.064 817.224 551.008 817.24 550.896L820 539.832C820.224 538.904 820.08 538.4 819.568 538.32L819.304 538.272C819.064 538.224 818.944 538.12 818.944 537.96C818.944 537.8 819.056 537.72 819.28 537.72H821.968C822.24 537.72 822.376 537.808 822.376 537.984C822.376 538.144 822.24 538.24 821.968 538.272L821.704 538.296C821.496 538.312 821.312 538.44 821.152 538.68C821.008 538.904 820.872 539.296 820.744 539.856L817.024 554.856C816.992 555.016 816.944 555.12 816.88 555.168C816.816 555.216 816.752 555.24 816.688 555.24Z" fill="#FFFAEE"/>
<path d="M552.354 555C552.114 555 551.994 554.912 551.994 554.736C551.994 554.56 552.098 554.464 552.306 554.448L553.338 554.304C553.674 554.256 553.89 554.176 553.986 554.064C554.098 553.936 554.154 553.72 554.154 553.416V550.296C554.154 550.072 554.042 549.96 553.818 549.96H548.97C548.666 549.96 548.514 549.824 548.514 549.552C548.514 549.472 548.53 549.392 548.562 549.312C548.61 549.216 548.666 549.096 548.73 548.952L554.49 537.96C554.554 537.8 554.682 537.72 554.874 537.72H555.354C555.642 537.72 555.714 537.856 555.57 538.128L549.81 548.28C549.698 548.504 549.762 548.616 550.002 548.616H553.818C554.042 548.616 554.154 548.504 554.154 548.28V543.576C554.154 543.432 554.234 543.304 554.394 543.192L555.282 542.688C555.394 542.624 555.49 542.616 555.57 542.664C555.65 542.696 555.69 542.776 555.69 542.904V548.28C555.69 548.504 555.802 548.616 556.026 548.616H557.082C557.274 548.616 557.37 548.712 557.37 548.904V549.672C557.37 549.864 557.274 549.96 557.082 549.96H556.026C555.802 549.96 555.69 550.072 555.69 550.296V553.416C555.69 553.752 555.738 553.976 555.834 554.088C555.946 554.2 556.17 554.288 556.506 554.352L557.058 554.448C557.266 554.496 557.37 554.592 557.37 554.736C557.37 554.912 557.25 555 557.01 555H552.354ZM563.264 555.216C562.832 555.216 562.384 555.152 561.92 555.024C561.472 554.896 561.096 554.704 560.792 554.448C560.488 554.192 560.336 553.88 560.336 553.512C560.336 553.272 560.408 553.08 560.552 552.936C560.696 552.776 560.888 552.696 561.128 552.696C561.4 552.696 561.592 552.792 561.704 552.984C561.832 553.176 561.944 553.392 562.04 553.632C562.136 553.872 562.288 554.088 562.496 554.28C562.72 554.472 563.064 554.568 563.528 554.568C564.04 554.568 564.536 554.424 565.016 554.136C565.512 553.832 565.92 553.344 566.24 552.672C566.576 552 566.744 551.112 566.744 550.008C566.744 548.488 566.384 547.32 565.664 546.504C564.944 545.672 563.72 545.184 561.992 545.04C561.752 545.008 561.656 544.88 561.704 544.656L562.976 538.032C563.024 537.824 563.144 537.72 563.336 537.72H567.104C567.376 537.72 567.568 537.672 567.68 537.576C567.808 537.464 567.912 537.36 567.992 537.264C568.072 537.168 568.176 537.12 568.304 537.12C568.432 537.12 568.504 537.176 568.52 537.288C568.552 537.384 568.552 537.496 568.52 537.624L568.16 538.872C568.112 539.064 567.992 539.16 567.8 539.16H563.84C563.648 539.16 563.528 539.264 563.48 539.472L562.784 543.144C562.736 543.368 562.832 543.488 563.072 543.504C564.336 543.648 565.36 544.008 566.144 544.584C566.944 545.144 567.528 545.856 567.896 546.72C568.28 547.568 568.472 548.496 568.472 549.504C568.472 550.704 568.208 551.736 567.68 552.6C567.168 553.448 566.512 554.096 565.712 554.544C564.928 554.992 564.112 555.216 563.264 555.216ZM573.455 555.216C573.103 555.216 572.799 555.104 572.543 554.88C572.303 554.64 572.183 554.328 572.183 553.944C572.183 553.576 572.303 553.28 572.543 553.056C572.799 552.816 573.103 552.696 573.455 552.696C573.775 552.696 574.063 552.816 574.319 553.056C574.575 553.28 574.703 553.576 574.703 553.944C574.703 554.328 574.575 554.64 574.319 554.88C574.063 555.104 573.775 555.216 573.455 555.216ZM581.564 555.216C581.132 555.216 580.684 555.152 580.22 555.024C579.772 554.896 579.396 554.704 579.092 554.448C578.788 554.192 578.636 553.88 578.636 553.512C578.636 553.272 578.708 553.08 578.852 552.936C578.996 552.776 579.188 552.696 579.428 552.696C579.7 552.696 579.892 552.792 580.004 552.984C580.132 553.176 580.244 553.392 580.34 553.632C580.436 553.872 580.588 554.088 580.796 554.28C581.02 554.472 581.364 554.568 581.828 554.568C582.34 554.568 582.836 554.424 583.316 554.136C583.812 553.832 584.22 553.344 584.54 552.672C584.876 552 585.044 551.112 585.044 550.008C585.044 548.488 584.684 547.32 583.964 546.504C583.244 545.672 582.02 545.184 580.292 545.04C580.052 545.008 579.956 544.88 580.004 544.656L581.276 538.032C581.324 537.824 581.444 537.72 581.636 537.72H585.404C585.676 537.72 585.868 537.672 585.98 537.576C586.108 537.464 586.212 537.36 586.292 537.264C586.372 537.168 586.476 537.12 586.604 537.12C586.732 537.12 586.804 537.176 586.82 537.288C586.852 537.384 586.852 537.496 586.82 537.624L586.46 538.872C586.412 539.064 586.292 539.16 586.1 539.16H582.14C581.948 539.16 581.828 539.264 581.78 539.472L581.084 543.144C581.036 543.368 581.132 543.488 581.372 543.504C582.636 543.648 583.66 544.008 584.444 544.584C585.244 545.144 585.828 545.856 586.196 546.72C586.58 547.568 586.772 548.496 586.772 549.504C586.772 550.704 586.508 551.736 585.98 552.6C585.468 553.448 584.812 554.096 584.012 554.544C583.228 554.992 582.412 555.216 581.564 555.216ZM590.872 555C590.584 555 590.44 554.896 590.44 554.688C590.44 554.576 590.496 554.432 590.608 554.256L593.488 549.864C594.688 548.04 595.552 546.472 596.08 545.16C596.624 543.832 596.896 542.616 596.896 541.512C596.896 540.52 596.688 539.76 596.272 539.232C595.872 538.704 595.288 538.44 594.52 538.44C593.752 538.44 593.056 538.712 592.432 539.256C591.808 539.784 591.408 540.632 591.232 541.8C591.184 542.056 591.064 542.184 590.872 542.184C590.632 542.184 590.528 542.024 590.56 541.704C590.672 540.648 590.944 539.816 591.376 539.208C591.824 538.584 592.36 538.144 592.984 537.888C593.608 537.616 594.24 537.48 594.88 537.48C595.984 537.48 596.88 537.816 597.568 538.488C598.272 539.144 598.624 540.064 598.624 541.248C598.624 542.08 598.424 542.936 598.024 543.816C597.64 544.68 597.104 545.632 596.416 546.672C595.744 547.696 594.968 548.872 594.088 550.2L592.216 553.032C592.12 553.176 592.112 553.304 592.192 553.416C592.288 553.512 592.416 553.56 592.576 553.56H595.144C595.752 553.56 596.256 553.496 596.656 553.368C597.056 553.224 597.376 552.968 597.616 552.6C597.856 552.216 598.04 551.672 598.168 550.968L598.384 549.84C598.432 549.632 598.552 549.528 598.744 549.528C598.968 549.528 599.064 549.664 599.032 549.936L598.744 554.448C598.712 554.816 598.512 555 598.144 555H590.872ZM606.143 555C605.903 555 605.783 554.912 605.783 554.736C605.783 554.56 605.887 554.464 606.095 554.448L607.127 554.304C607.463 554.256 607.679 554.176 607.775 554.064C607.887 553.936 607.943 553.72 607.943 553.416V550.296C607.943 550.072 607.831 549.96 607.607 549.96H602.759C602.455 549.96 602.303 549.824 602.303 549.552C602.303 549.472 602.319 549.392 602.351 549.312C602.399 549.216 602.455 549.096 602.519 548.952L608.279 537.96C608.343 537.8 608.471 537.72 608.663 537.72H609.143C609.431 537.72 609.503 537.856 609.359 538.128L603.599 548.28C603.487 548.504 603.551 548.616 603.791 548.616H607.607C607.831 548.616 607.943 548.504 607.943 548.28V543.576C607.943 543.432 608.023 543.304 608.183 543.192L609.071 542.688C609.183 542.624 609.279 542.616 609.359 542.664C609.439 542.696 609.479 542.776 609.479 542.904V548.28C609.479 548.504 609.591 548.616 609.815 548.616H610.871C611.063 548.616 611.159 548.712 611.159 548.904V549.672C611.159 549.864 611.063 549.96 610.871 549.96H609.815C609.591 549.96 609.479 550.072 609.479 550.296V553.416C609.479 553.752 609.527 553.976 609.623 554.088C609.735 554.2 609.959 554.288 610.295 554.352L610.847 554.448C611.055 554.496 611.159 554.592 611.159 554.736C611.159 554.912 611.039 555 610.799 555H606.143ZM619.045 555.216C618.117 555.216 617.317 555.008 616.645 554.592C615.973 554.16 615.453 553.616 615.085 552.96C614.733 552.288 614.557 551.592 614.557 550.872C614.557 549.88 614.837 549 615.397 548.232C615.957 547.448 616.749 546.784 617.773 546.24C617.869 546.192 617.917 546.136 617.917 546.072C617.917 545.992 617.877 545.92 617.797 545.856C616.901 545.248 616.237 544.56 615.805 543.792C615.373 543.008 615.157 542.232 615.157 541.464C615.157 540.664 615.349 539.968 615.733 539.376C616.133 538.784 616.653 538.32 617.293 537.984C617.933 537.648 618.629 537.48 619.381 537.48C620.101 537.48 620.749 537.648 621.325 537.984C621.901 538.304 622.357 538.752 622.693 539.328C623.029 539.888 623.197 540.528 623.197 541.248C623.197 542.08 622.941 542.856 622.429 543.576C621.917 544.28 621.237 544.864 620.389 545.328C620.293 545.376 620.245 545.44 620.245 545.52C620.245 545.584 620.293 545.648 620.389 545.712C621.557 546.448 622.381 547.208 622.861 547.992C623.357 548.76 623.605 549.608 623.605 550.536C623.605 551.432 623.405 552.232 623.005 552.936C622.605 553.64 622.061 554.2 621.373 554.616C620.685 555.016 619.909 555.216 619.045 555.216ZM619.309 545.04C619.517 545.184 619.725 545.176 619.933 545.016C620.541 544.584 620.997 544.032 621.301 543.36C621.621 542.688 621.781 541.96 621.781 541.176C621.781 540.248 621.573 539.512 621.157 538.968C620.757 538.408 620.149 538.128 619.333 538.128C618.501 538.128 617.829 538.376 617.317 538.872C616.821 539.368 616.573 540.024 616.573 540.84C616.573 541.32 616.637 541.792 616.765 542.256C616.909 542.72 617.181 543.184 617.581 543.648C617.981 544.096 618.557 544.56 619.309 545.04ZM619.093 554.568C620.053 554.568 620.805 554.28 621.349 553.704C621.909 553.128 622.189 552.352 622.189 551.376C622.189 550.56 622.037 549.864 621.733 549.288C621.445 548.696 621.053 548.184 620.557 547.752C620.061 547.304 619.493 546.896 618.853 546.528C618.645 546.384 618.437 546.384 618.229 546.528C616.757 547.536 616.021 549.008 616.021 550.944C616.021 551.552 616.117 552.136 616.309 552.696C616.501 553.256 616.821 553.712 617.269 554.064C617.717 554.4 618.325 554.568 619.093 554.568ZM631.804 544.224C631.164 544.224 630.58 544.072 630.052 543.768C629.524 543.448 629.108 543.024 628.804 542.496C628.5 541.968 628.348 541.392 628.348 540.768C628.348 540.144 628.5 539.576 628.804 539.064C629.108 538.536 629.524 538.12 630.052 537.816C630.58 537.512 631.164 537.36 631.804 537.36C632.46 537.36 633.044 537.512 633.556 537.816C634.068 538.12 634.468 538.536 634.756 539.064C635.06 539.576 635.212 540.144 635.212 540.768C635.212 541.392 635.06 541.968 634.756 542.496C634.468 543.024 634.068 543.448 633.556 543.768C633.044 544.072 632.46 544.224 631.804 544.224ZM631.804 543.48C632.556 543.48 633.18 543.216 633.676 542.688C634.188 542.16 634.444 541.52 634.444 540.768C634.444 540.032 634.188 539.408 633.676 538.896C633.18 538.368 632.556 538.104 631.804 538.104C631.036 538.104 630.396 538.368 629.884 538.896C629.372 539.408 629.116 540.032 629.116 540.768C629.116 541.52 629.372 542.16 629.884 542.688C630.396 543.216 631.036 543.48 631.804 543.48ZM656.061 555.216C655.805 555.216 655.589 555.024 655.413 554.64L648.909 540.528C648.861 540.416 648.797 540.368 648.717 540.384C648.653 540.4 648.621 540.472 648.621 540.6V552.936C648.621 553.384 648.693 553.728 648.837 553.968C648.997 554.192 649.277 554.336 649.677 554.4L649.989 554.448C650.197 554.464 650.301 554.56 650.301 554.736C650.301 554.912 650.181 555 649.941 555H646.509C646.269 555 646.149 554.912 646.149 554.736C646.149 554.56 646.253 554.464 646.461 554.448L646.773 554.4C647.189 554.336 647.477 554.192 647.637 553.968C647.797 553.728 647.877 553.384 647.877 552.936V539.304C647.877 538.968 647.821 538.744 647.709 538.632C647.613 538.52 647.381 538.432 647.013 538.368L646.461 538.272C646.253 538.224 646.149 538.128 646.149 537.984C646.149 537.808 646.269 537.72 646.509 537.72H649.077C649.477 537.72 649.757 537.896 649.917 538.248L655.581 550.704C655.629 550.8 655.685 550.84 655.749 550.824C655.829 550.808 655.869 550.752 655.869 550.656V539.784C655.869 539.272 655.781 538.92 655.605 538.728C655.429 538.52 655.205 538.392 654.933 538.344L654.501 538.272C654.293 538.224 654.189 538.128 654.189 537.984C654.189 537.808 654.309 537.72 654.549 537.72H657.981C658.221 537.72 658.341 537.808 658.341 537.984C658.341 538.16 658.237 538.256 658.029 538.272L657.717 538.32C657.301 538.384 657.013 538.52 656.853 538.728C656.693 538.92 656.613 539.272 656.613 539.784V554.448C656.613 554.736 656.557 554.936 656.445 555.048C656.349 555.16 656.221 555.216 656.061 555.216Z" fill="#FFFAEE"/>
<path d="M375.15 691C374.949 691 374.807 690.96 374.727 690.879C374.646 690.798 374.605 690.717 374.605 690.637C374.605 690.435 374.757 690.304 375.06 690.243L375.544 690.152C376.19 690.031 376.694 689.839 377.058 689.577C377.441 689.295 377.764 688.851 378.026 688.245L381.054 681.04C381.155 680.818 381.215 680.596 381.236 680.374C381.276 680.132 381.236 679.879 381.114 679.617L377.33 671.231C377.128 670.767 376.906 670.454 376.664 670.292C376.442 670.131 376.2 670.03 375.938 669.99L375.362 669.899C375.039 669.838 374.878 669.707 374.878 669.505C374.878 669.304 375.05 669.203 375.393 669.203H380.721C381.084 669.203 381.266 669.304 381.266 669.505C381.266 669.707 381.094 669.838 380.751 669.899L380.176 669.99C379.833 670.05 379.591 670.171 379.449 670.353C379.328 670.535 379.359 670.827 379.54 671.231L382.416 677.679C382.497 677.861 382.588 677.952 382.689 677.952C382.81 677.952 382.911 677.861 382.991 677.679L385.595 671.534C385.777 671.09 385.837 670.767 385.777 670.565C385.716 670.343 385.514 670.192 385.171 670.111L384.323 669.929C383.98 669.848 383.809 669.707 383.809 669.505C383.809 669.304 383.99 669.203 384.354 669.203H388.986C389.208 669.203 389.349 669.243 389.41 669.324C389.49 669.384 389.531 669.465 389.531 669.566C389.531 669.768 389.379 669.899 389.077 669.959L388.592 670.05C388.088 670.131 387.664 670.323 387.321 670.625C386.978 670.908 386.675 671.352 386.412 671.958L383.536 678.678C383.435 678.941 383.375 679.193 383.355 679.435C383.355 679.677 383.425 679.94 383.567 680.222L387.472 688.972C387.694 689.456 387.916 689.769 388.138 689.91C388.38 690.051 388.622 690.142 388.865 690.183L389.44 690.273C389.783 690.334 389.954 690.475 389.954 690.697C389.954 690.899 389.773 691 389.41 691H384.051C383.688 691 383.506 690.879 383.506 690.637C383.506 690.455 383.668 690.334 383.99 690.273L384.596 690.183C384.939 690.142 385.181 690.031 385.323 689.85C385.464 689.648 385.454 689.355 385.292 688.972L382.174 682.039C382.093 681.857 381.992 681.766 381.871 681.766C381.77 681.766 381.68 681.857 381.599 682.039L378.874 688.669C378.692 689.113 378.632 689.446 378.692 689.668C378.753 689.87 378.955 690.011 379.298 690.092L380.146 690.273C380.489 690.354 380.66 690.495 380.66 690.697C380.66 690.899 380.479 691 380.115 691H375.15ZM389.192 691C388.889 691 388.738 690.889 388.738 690.667C388.738 690.485 388.869 690.364 389.131 690.304L389.828 690.183C390.252 690.102 390.524 689.991 390.645 689.85C390.786 689.708 390.857 689.426 390.857 689.002V671.201C390.857 670.777 390.786 670.494 390.645 670.353C390.524 670.212 390.252 670.101 389.828 670.02L389.131 669.899C388.869 669.838 388.738 669.717 388.738 669.536C388.738 669.314 388.889 669.203 389.192 669.203H394.672C394.974 669.203 395.126 669.314 395.126 669.536C395.126 669.717 394.995 669.838 394.732 669.899L394.036 670.02C393.612 670.101 393.329 670.212 393.188 670.353C393.067 670.494 393.007 670.777 393.007 671.201V689.002C393.007 689.426 393.067 689.708 393.188 689.85C393.329 689.991 393.612 690.102 394.036 690.183L394.732 690.304C394.995 690.364 395.126 690.485 395.126 690.667C395.126 690.889 394.974 691 394.672 691H389.192ZM401.423 691.303C401.343 691.303 401.252 691.272 401.151 691.212C401.05 691.151 400.979 691.02 400.939 690.818L396.156 671.625C396.014 671.059 395.853 670.666 395.671 670.444C395.51 670.222 395.227 670.07 394.824 669.99L394.37 669.899C394.087 669.838 393.946 669.707 393.946 669.505C393.946 669.304 394.097 669.203 394.4 669.203H399.577C399.859 669.203 400.001 669.314 400.001 669.536C400.001 669.758 399.829 669.879 399.486 669.899L398.911 669.959C398.568 669.98 398.346 670.091 398.245 670.292C398.164 670.474 398.174 670.787 398.275 671.231L401.787 685.793C401.827 685.914 401.888 685.974 401.968 685.974C402.069 685.974 402.13 685.914 402.15 685.793L405.632 671.867C405.914 670.716 405.611 670.081 404.723 669.959L404.269 669.899C403.926 669.838 403.755 669.717 403.755 669.536C403.755 669.314 403.896 669.203 404.178 669.203H408.417C408.72 669.203 408.871 669.304 408.871 669.505C408.871 669.707 408.73 669.838 408.447 669.899L407.993 669.99C407.609 670.07 407.307 670.272 407.085 670.595C406.883 670.898 406.711 671.332 406.57 671.897L401.878 690.818C401.837 691.02 401.767 691.151 401.666 691.212C401.585 691.272 401.504 691.303 401.423 691.303Z" fill="#FFFAEE"/>
</svg>
