<svg width="1080" height="1080" viewBox="0 0 1080 1080" fill="none" xmlns="http://www.w3.org/2000/svg">
<rect width="1080" height="1080" fill="#191919"/>
<path d="M341.72 456.526C338.836 456.526 336.302 455.63 334.12 453.837C331.976 452.044 330.3 449.53 329.092 446.295C327.923 443.022 327.338 439.163 327.338 434.72C327.338 430.433 327.982 426.692 329.268 423.496C330.593 420.261 332.347 417.767 334.529 416.013C336.751 414.22 339.206 413.324 341.895 413.324C343.493 413.324 344.896 413.479 346.104 413.791C347.313 414.064 348.384 414.434 349.32 414.902C349.787 415.175 350.021 415.584 350.021 416.13L350.197 425.016C350.197 425.678 349.963 426.01 349.495 426.01C349.066 426.01 348.794 425.756 348.677 425.25L348.092 423.087C347.274 420.047 346.319 417.942 345.227 416.773C344.175 415.604 342.909 415.019 341.428 415.019C338.699 415.019 336.419 416.714 334.588 420.105C332.795 423.457 331.898 428.329 331.898 434.72C331.898 439.085 332.347 442.768 333.243 445.769C334.178 448.77 335.367 451.031 336.809 452.551C338.29 454.071 339.849 454.831 341.486 454.831C343.24 454.831 344.643 454.285 345.695 453.194C346.786 452.103 347.702 449.998 348.443 446.88L349.144 444.016C349.261 443.431 349.573 443.178 350.08 443.256C350.508 443.333 350.723 443.665 350.723 444.249L350.489 453.72C350.489 454.266 350.236 454.675 349.729 454.948C348.794 455.415 347.683 455.786 346.397 456.058C345.15 456.37 343.591 456.526 341.72 456.526ZM359.753 429.926C361.351 427.198 363.28 425.834 365.541 425.834C366.827 425.834 367.782 426.224 368.405 427.003C369.029 427.744 369.341 428.582 369.341 429.517C369.341 430.258 369.146 430.862 368.756 431.329C368.405 431.797 367.84 432.031 367.061 432.031C366.437 432.031 365.97 431.895 365.658 431.622C365.385 431.31 365.151 430.959 364.956 430.57C364.8 430.18 364.605 429.848 364.372 429.576C364.138 429.264 363.748 429.108 363.202 429.108C362.501 429.108 361.838 429.537 361.215 430.394C360.591 431.213 360.065 432.323 359.636 433.726C359.247 435.129 359.052 436.727 359.052 438.52V452.083C359.052 452.902 359.169 453.486 359.402 453.837C359.675 454.188 360.221 454.402 361.039 454.48L362.618 454.655C363.046 454.733 363.261 454.948 363.261 455.298C363.261 455.766 362.969 456 362.384 456H352.504C351.919 456 351.627 455.786 351.627 455.357C351.627 455.006 351.88 454.772 352.387 454.655L353.089 454.538C353.907 454.383 354.433 454.149 354.667 453.837C354.94 453.486 355.076 452.902 355.076 452.083V432.44C355.076 431.739 354.959 431.271 354.726 431.037C354.531 430.764 354.16 430.589 353.615 430.511L352.387 430.336C351.88 430.297 351.627 430.082 351.627 429.693C351.627 429.381 351.939 429.166 352.562 429.05C353.771 428.855 354.687 428.543 355.31 428.114C355.973 427.685 356.655 427.159 357.356 426.536C357.707 426.185 357.999 426.01 358.233 426.01C358.584 426.01 358.759 426.243 358.759 426.711V429.868C358.759 430.141 358.876 430.316 359.11 430.394C359.344 430.433 359.558 430.277 359.753 429.926ZM378.248 456.526C376.377 456.526 374.701 455.903 373.22 454.655C371.739 453.408 370.55 451.654 369.654 449.394C368.797 447.094 368.368 444.444 368.368 441.443C368.368 438.364 368.816 435.656 369.713 433.317C370.609 430.979 371.837 429.147 373.396 427.822C374.955 426.497 376.689 425.834 378.599 425.834C380.898 425.834 382.749 426.789 384.152 428.699C385.594 430.57 386.315 433.629 386.315 437.877C386.315 439.163 385.828 439.806 384.854 439.806H373.746C372.967 439.806 372.577 440.255 372.577 441.151C372.577 445.282 373.181 448.381 374.389 450.446C375.598 452.512 377.137 453.545 379.008 453.545C380.489 453.545 381.697 453.018 382.632 451.966C383.568 450.914 384.328 449.141 384.912 446.646C385.029 446.218 385.283 446.003 385.672 446.003C386.14 446.003 386.315 446.393 386.199 447.172C385.575 450.641 384.581 453.077 383.217 454.48C381.853 455.844 380.197 456.526 378.248 456.526ZM373.571 438.345H379.476C381.346 438.345 382.282 437.37 382.282 435.422C382.282 432.888 381.97 430.901 381.346 429.459C380.723 428.017 379.787 427.296 378.54 427.296C377.02 427.296 375.734 428.173 374.682 429.926C373.668 431.68 373.006 434.175 372.694 437.409C372.616 438.033 372.908 438.345 373.571 438.345ZM392.481 456.526C390.844 456.526 389.5 456.019 388.447 455.006C387.395 453.954 386.869 452.57 386.869 450.855C386.869 449.18 387.395 447.601 388.447 446.12C389.5 444.6 390.942 443.236 392.774 442.028C394.605 440.82 396.69 439.845 399.029 439.105C399.536 438.949 399.789 438.618 399.789 438.111V432.791C399.789 430.92 399.497 429.595 398.912 428.816C398.327 427.997 397.528 427.588 396.515 427.588C395.541 427.588 394.644 428.036 393.826 428.933C393.046 429.79 392.481 431.252 392.13 433.317C391.936 434.564 391.507 435.48 390.844 436.065C390.221 436.61 389.578 436.883 388.915 436.883C387.824 436.883 387.278 436.338 387.278 435.246C387.278 434.116 387.59 433.005 388.214 431.914C388.876 430.784 389.734 429.771 390.786 428.874C391.838 427.939 392.988 427.198 394.235 426.653C395.482 426.107 396.729 425.834 397.977 425.834C401.835 425.834 403.764 428.075 403.764 432.557V450.446C403.764 452.083 404.173 452.902 404.992 452.902C405.499 452.902 405.966 452.57 406.395 451.908C406.824 451.206 407.038 450.037 407.038 448.4C407.038 447.776 407.291 447.465 407.798 447.465C408.266 447.465 408.5 447.796 408.5 448.459C408.5 451.304 407.993 453.369 406.98 454.655C406.005 455.903 404.894 456.526 403.647 456.526C402.712 456.526 401.971 456.156 401.426 455.415C400.88 454.636 400.51 453.72 400.315 452.668C400.276 452.278 400.101 452.083 399.789 452.083C399.516 452.044 399.243 452.22 398.97 452.609C398.035 453.895 397.08 454.87 396.106 455.532C395.131 456.195 393.923 456.526 392.481 456.526ZM394.06 453.837C395.073 453.837 396.008 453.486 396.866 452.785C397.723 452.044 398.425 451.07 398.97 449.862C399.516 448.653 399.789 447.289 399.789 445.769V441.502C399.789 440.761 399.38 440.547 398.561 440.859C396.184 441.716 394.333 442.905 393.007 444.425C391.721 445.906 391.078 447.699 391.078 449.803C391.078 452.492 392.072 453.837 394.06 453.837ZM414.729 456.526C413.365 456.526 412.234 456.058 411.338 455.123C410.481 454.149 410.052 452.57 410.052 450.388V428.523C410.052 428.056 409.818 427.822 409.35 427.822H407.655C407.031 427.822 406.72 427.588 406.72 427.12C406.72 426.809 406.895 426.536 407.246 426.302C408.532 425.405 409.565 424.451 410.344 423.437C411.124 422.385 411.806 420.962 412.39 419.17C412.663 418.351 412.994 417.942 413.384 417.942C413.813 417.942 414.027 418.254 414.027 418.877V425.366C414.027 425.912 414.3 426.185 414.846 426.185H418.646C419.269 426.185 419.581 426.458 419.581 427.003C419.581 427.549 419.269 427.822 418.646 427.822H414.846C414.3 427.822 414.027 428.095 414.027 428.64V450.446C414.027 451.304 414.164 451.986 414.437 452.492C414.709 452.96 415.216 453.194 415.957 453.194C416.775 453.194 417.438 452.785 417.944 451.966C418.49 451.148 418.841 449.823 418.996 447.991C419.074 447.445 419.328 447.172 419.756 447.172C420.224 447.172 420.458 447.465 420.458 448.049C420.341 451.05 419.717 453.213 418.587 454.538C417.496 455.864 416.21 456.526 414.729 456.526ZM425.59 420.631C424.772 420.631 424.07 420.339 423.486 419.754C422.94 419.17 422.667 418.429 422.667 417.533C422.667 416.636 422.94 415.915 423.486 415.37C424.07 414.785 424.772 414.493 425.59 414.493C426.409 414.493 427.091 414.785 427.636 415.37C428.182 415.915 428.455 416.636 428.455 417.533C428.455 418.429 428.182 419.17 427.636 419.754C427.091 420.339 426.409 420.631 425.59 420.631ZM420.68 456C420.095 456 419.803 455.786 419.803 455.357C419.803 455.006 420.056 454.772 420.563 454.655L421.264 454.538C422.238 454.383 422.862 454.149 423.135 453.837C423.408 453.486 423.544 452.902 423.544 452.083V432.44C423.544 431.739 423.427 431.271 423.193 431.037C422.998 430.764 422.628 430.589 422.083 430.511L420.855 430.336C420.348 430.297 420.095 430.082 420.095 429.693C420.095 429.381 420.407 429.166 421.03 429.05C422.238 428.855 423.213 428.543 423.953 428.114C424.694 427.685 425.415 427.159 426.116 426.536C426.467 426.185 426.759 426.01 426.993 426.01C427.344 426.01 427.519 426.243 427.519 426.711V452.083C427.519 452.902 427.636 453.486 427.87 453.837C428.104 454.188 428.552 454.402 429.215 454.48L430.676 454.655C431.105 454.733 431.319 454.948 431.319 455.298C431.319 455.766 431.027 456 430.442 456H420.68ZM440.945 456.526C440.595 456.526 440.341 456.312 440.185 455.883L432.41 430.102C432.137 429.166 431.864 428.562 431.592 428.29C431.358 428.017 430.968 427.822 430.422 427.705L429.545 427.53C429.039 427.413 428.785 427.159 428.785 426.77C428.785 426.38 429.058 426.185 429.604 426.185H439.25C439.796 426.185 440.068 426.38 440.068 426.77C440.068 427.198 439.815 427.452 439.308 427.53L438.373 427.646C437.438 427.763 436.853 427.997 436.619 428.348C436.385 428.66 436.385 429.244 436.619 430.102L441.471 446.997C441.588 447.426 441.783 447.64 442.056 447.64C442.329 447.64 442.524 447.426 442.641 446.997L447.376 431.154C447.688 430.102 447.766 429.322 447.61 428.816C447.493 428.27 446.947 427.919 445.973 427.763L444.745 427.53C444.239 427.413 443.985 427.159 443.985 426.77C443.985 426.38 444.258 426.185 444.804 426.185H452.228C452.774 426.185 453.047 426.399 453.047 426.828C453.047 427.218 452.813 427.491 452.345 427.646L451.819 427.822C451.234 428.017 450.728 428.367 450.299 428.874C449.909 429.381 449.52 430.258 449.13 431.505L441.705 455.883C441.549 456.312 441.296 456.526 440.945 456.526ZM460.755 456.526C458.885 456.526 457.209 455.903 455.728 454.655C454.247 453.408 453.058 451.654 452.162 449.394C451.304 447.094 450.875 444.444 450.875 441.443C450.875 438.364 451.324 435.656 452.22 433.317C453.116 430.979 454.344 429.147 455.903 427.822C457.462 426.497 459.196 425.834 461.106 425.834C463.406 425.834 465.257 426.789 466.66 428.699C468.102 430.57 468.823 433.629 468.823 437.877C468.823 439.163 468.336 439.806 467.361 439.806H456.254C455.474 439.806 455.085 440.255 455.085 441.151C455.085 445.282 455.689 448.381 456.897 450.446C458.105 452.512 459.645 453.545 461.515 453.545C462.996 453.545 464.205 453.018 465.14 451.966C466.075 450.914 466.835 449.141 467.42 446.646C467.537 446.218 467.79 446.003 468.18 446.003C468.648 446.003 468.823 446.393 468.706 447.172C468.082 450.641 467.089 453.077 465.725 454.48C464.36 455.844 462.704 456.526 460.755 456.526ZM456.079 438.345H461.983C463.854 438.345 464.789 437.37 464.789 435.422C464.789 432.888 464.477 430.901 463.854 429.459C463.23 428.017 462.295 427.296 461.048 427.296C459.528 427.296 458.242 428.173 457.189 429.926C456.176 431.68 455.513 434.175 455.202 437.409C455.124 438.033 455.416 438.345 456.079 438.345ZM477.557 456C476.972 456 476.68 455.786 476.68 455.357C476.68 455.006 476.933 454.772 477.44 454.655L478.784 454.422C480.109 454.188 480.772 453.428 480.772 452.142V417.767C480.772 416.948 480.635 416.402 480.363 416.13C480.129 415.857 479.603 415.642 478.784 415.487L477.44 415.253C476.933 415.136 476.68 414.902 476.68 414.551C476.68 414.122 476.972 413.908 477.557 413.908H489.366C492.406 413.908 495.036 414.805 497.258 416.597C499.479 418.351 501.194 420.826 502.402 424.022C503.611 427.218 504.215 430.92 504.215 435.129C504.215 439.378 503.572 443.061 502.285 446.179C501.038 449.296 499.265 451.713 496.966 453.428C494.666 455.143 491.938 456 488.781 456H477.557ZM489.015 454.48C492.484 454.48 495.114 452.824 496.907 449.511C498.739 446.198 499.655 441.404 499.655 435.129C499.655 428.894 498.778 424.061 497.024 420.631C495.309 417.162 492.756 415.428 489.366 415.428C486.404 415.428 484.923 416.851 484.923 419.696V450.212C484.923 451.771 485.234 452.882 485.858 453.545C486.521 454.168 487.573 454.48 489.015 454.48ZM515.455 456.526C513.584 456.526 511.909 455.903 510.428 454.655C508.946 453.408 507.758 451.654 506.861 449.394C506.004 447.094 505.575 444.444 505.575 441.443C505.575 438.364 506.023 435.656 506.92 433.317C507.816 430.979 509.044 429.147 510.603 427.822C512.162 426.497 513.896 425.834 515.806 425.834C518.105 425.834 519.957 426.789 521.36 428.699C522.802 430.57 523.523 433.629 523.523 437.877C523.523 439.163 523.036 439.806 522.061 439.806H510.954C510.174 439.806 509.784 440.255 509.784 441.151C509.784 445.282 510.389 448.381 511.597 450.446C512.805 452.512 514.344 453.545 516.215 453.545C517.696 453.545 518.904 453.018 519.84 451.966C520.775 450.914 521.535 449.141 522.12 446.646C522.237 446.218 522.49 446.003 522.88 446.003C523.347 446.003 523.523 446.393 523.406 447.172C522.782 450.641 521.788 453.077 520.424 454.48C519.06 455.844 517.404 456.526 515.455 456.526ZM510.778 438.345H516.683C518.554 438.345 519.489 437.37 519.489 435.422C519.489 432.888 519.177 430.901 518.554 429.459C517.93 428.017 516.995 427.296 515.747 427.296C514.227 427.296 512.941 428.173 511.889 429.926C510.876 431.68 510.213 434.175 509.901 437.409C509.823 438.033 510.116 438.345 510.778 438.345ZM524.252 467.984C523.667 467.984 523.375 467.77 523.375 467.341C523.375 466.913 523.628 466.679 524.135 466.64L524.953 466.523C525.772 466.406 526.298 466.172 526.532 465.821C526.804 465.471 526.941 464.886 526.941 464.068V432.44C526.941 431.739 526.824 431.271 526.59 431.037C526.395 430.764 526.025 430.589 525.479 430.511L524.252 430.336C523.745 430.297 523.492 430.082 523.492 429.693C523.492 429.381 523.803 429.166 524.427 429.05C525.635 428.855 526.551 428.543 527.175 428.114C527.837 427.685 528.519 427.159 529.221 426.536C529.572 426.185 529.864 426.01 530.098 426.01C530.449 426.01 530.624 426.243 530.624 426.711V428.523C530.624 428.796 530.741 428.991 530.975 429.108C531.209 429.186 531.481 429.069 531.793 428.757L532.436 428.114C533.216 427.335 534.015 426.77 534.833 426.419C535.652 426.029 536.587 425.834 537.639 425.834C539.432 425.834 541.01 426.438 542.375 427.646C543.778 428.816 544.869 430.453 545.648 432.557C546.467 434.662 546.876 437.137 546.876 439.982C546.876 443.217 546.369 446.081 545.356 448.575C544.343 451.07 542.94 453.018 541.147 454.422C539.393 455.825 537.366 456.526 535.067 456.526C533.898 456.526 532.865 456.312 531.969 455.883C531.267 455.571 530.916 455.786 530.916 456.526V464.068C530.916 464.886 531.033 465.432 531.267 465.705C531.54 466.016 532.085 466.231 532.904 466.348L535.067 466.64C535.496 466.718 535.71 466.932 535.71 467.283C535.71 467.751 535.418 467.984 534.833 467.984H524.252ZM535.242 455.065C537.425 455.065 539.179 453.778 540.504 451.206C541.868 448.634 542.55 445.165 542.55 440.8C542.55 436.786 541.965 433.726 540.796 431.622C539.627 429.517 537.971 428.465 535.827 428.465C534.502 428.465 533.352 429.011 532.378 430.102C531.403 431.193 530.916 432.713 530.916 434.662V449.394C530.916 451.148 531.306 452.531 532.085 453.545C532.904 454.558 533.956 455.065 535.242 455.065ZM553.326 456.526C551.69 456.526 550.345 456.019 549.293 455.006C548.24 453.954 547.714 452.57 547.714 450.855C547.714 449.18 548.24 447.601 549.293 446.12C550.345 444.6 551.787 443.236 553.619 442.028C555.45 440.82 557.536 439.845 559.874 439.105C560.381 438.949 560.634 438.618 560.634 438.111V432.791C560.634 430.92 560.342 429.595 559.757 428.816C559.172 427.997 558.374 427.588 557.36 427.588C556.386 427.588 555.489 428.036 554.671 428.933C553.892 429.79 553.326 431.252 552.976 433.317C552.781 434.564 552.352 435.48 551.69 436.065C551.066 436.61 550.423 436.883 549.76 436.883C548.669 436.883 548.123 436.338 548.123 435.246C548.123 434.116 548.435 433.005 549.059 431.914C549.721 430.784 550.579 429.771 551.631 428.874C552.683 427.939 553.833 427.198 555.08 426.653C556.327 426.107 557.575 425.834 558.822 425.834C562.68 425.834 564.609 428.075 564.609 432.557V450.446C564.609 452.083 565.019 452.902 565.837 452.902C566.344 452.902 566.811 452.57 567.24 451.908C567.669 451.206 567.883 450.037 567.883 448.4C567.883 447.776 568.137 447.465 568.643 447.465C569.111 447.465 569.345 447.796 569.345 448.459C569.345 451.304 568.838 453.369 567.825 454.655C566.85 455.903 565.74 456.526 564.492 456.526C563.557 456.526 562.817 456.156 562.271 455.415C561.725 454.636 561.355 453.72 561.16 452.668C561.121 452.278 560.946 452.083 560.634 452.083C560.361 452.044 560.088 452.22 559.816 452.609C558.88 453.895 557.925 454.87 556.951 455.532C555.977 456.195 554.768 456.526 553.326 456.526ZM554.905 453.837C555.918 453.837 556.854 453.486 557.711 452.785C558.568 452.044 559.27 451.07 559.816 449.862C560.361 448.653 560.634 447.289 560.634 445.769V441.502C560.634 440.761 560.225 440.547 559.406 440.859C557.029 441.716 555.178 442.905 553.853 444.425C552.566 445.906 551.923 447.699 551.923 449.803C551.923 452.492 552.917 453.837 554.905 453.837ZM576.326 429.926C577.924 427.198 579.853 425.834 582.113 425.834C583.4 425.834 584.354 426.224 584.978 427.003C585.602 427.744 585.913 428.582 585.913 429.517C585.913 430.258 585.718 430.862 585.329 431.329C584.978 431.797 584.413 432.031 583.633 432.031C583.01 432.031 582.542 431.895 582.23 431.622C581.957 431.31 581.724 430.959 581.529 430.57C581.373 430.18 581.178 429.848 580.944 429.576C580.71 429.264 580.321 429.108 579.775 429.108C579.073 429.108 578.411 429.537 577.787 430.394C577.164 431.213 576.638 432.323 576.209 433.726C575.819 435.129 575.624 436.727 575.624 438.52V452.083C575.624 452.902 575.741 453.486 575.975 453.837C576.248 454.188 576.793 454.402 577.612 454.48L579.19 454.655C579.619 454.733 579.833 454.948 579.833 455.298C579.833 455.766 579.541 456 578.956 456H569.077C568.492 456 568.2 455.786 568.2 455.357C568.2 455.006 568.453 454.772 568.96 454.655L569.661 454.538C570.48 454.383 571.006 454.149 571.24 453.837C571.512 453.486 571.649 452.902 571.649 452.083V432.44C571.649 431.739 571.532 431.271 571.298 431.037C571.103 430.764 570.733 430.589 570.187 430.511L568.96 430.336C568.453 430.297 568.2 430.082 568.2 429.693C568.2 429.381 568.511 429.166 569.135 429.05C570.343 428.855 571.259 428.543 571.883 428.114C572.545 427.685 573.227 427.159 573.929 426.536C574.28 426.185 574.572 426.01 574.806 426.01C575.157 426.01 575.332 426.243 575.332 426.711V429.868C575.332 430.141 575.449 430.316 575.683 430.394C575.917 430.433 576.131 430.277 576.326 429.926ZM592.19 456.526C590.826 456.526 589.695 456.058 588.799 455.123C587.942 454.149 587.513 452.57 587.513 450.388V428.523C587.513 428.056 587.279 427.822 586.811 427.822H585.116C584.492 427.822 584.181 427.588 584.181 427.12C584.181 426.809 584.356 426.536 584.707 426.302C585.993 425.405 587.026 424.451 587.805 423.437C588.585 422.385 589.267 420.962 589.851 419.17C590.124 418.351 590.455 417.942 590.845 417.942C591.274 417.942 591.488 418.254 591.488 418.877V425.366C591.488 425.912 591.761 426.185 592.307 426.185H596.107C596.73 426.185 597.042 426.458 597.042 427.003C597.042 427.549 596.73 427.822 596.107 427.822H592.307C591.761 427.822 591.488 428.095 591.488 428.64V450.446C591.488 451.304 591.625 451.986 591.897 452.492C592.17 452.96 592.677 453.194 593.417 453.194C594.236 453.194 594.898 452.785 595.405 451.966C595.951 451.148 596.301 449.823 596.457 447.991C596.535 447.445 596.789 447.172 597.217 447.172C597.685 447.172 597.919 447.465 597.919 448.049C597.802 451.05 597.178 453.213 596.048 454.538C594.957 455.864 593.671 456.526 592.19 456.526ZM598.14 456C597.556 456 597.263 455.786 597.263 455.357C597.263 455.006 597.517 454.772 598.023 454.655L598.725 454.538C599.543 454.383 600.07 454.149 600.303 453.837C600.576 453.486 600.713 452.902 600.713 452.083V432.44C600.713 431.739 600.596 431.271 600.362 431.037C600.167 430.764 599.797 430.589 599.251 430.511L598.023 430.336C597.517 430.297 597.263 430.082 597.263 429.693C597.263 429.381 597.575 429.166 598.199 429.05C599.407 428.855 600.323 428.543 600.946 428.114C601.609 427.685 602.291 427.159 602.993 426.536C603.343 426.185 603.636 426.01 603.87 426.01C604.22 426.01 604.396 426.243 604.396 426.711V429.342C604.396 429.615 604.513 429.829 604.746 429.985C604.98 430.102 605.234 430.024 605.506 429.751C607.104 428.231 608.488 427.198 609.657 426.653C610.865 426.107 612.074 425.834 613.282 425.834C614.412 425.834 615.406 426.146 616.263 426.77C617.16 427.354 617.822 428.251 618.251 429.459C618.368 429.771 618.563 429.965 618.836 430.043C619.147 430.082 619.44 429.965 619.712 429.693C621.31 428.212 622.694 427.198 623.863 426.653C625.032 426.107 626.221 425.834 627.429 425.834C629.066 425.834 630.391 426.458 631.405 427.705C632.457 428.913 632.983 430.706 632.983 433.083V452.083C632.983 452.902 633.1 453.486 633.334 453.837C633.607 454.149 634.152 454.363 634.971 454.48L636.257 454.655C636.686 454.733 636.9 454.967 636.9 455.357C636.9 455.786 636.666 456 636.198 456H626.202C625.656 456 625.383 455.786 625.383 455.357C625.383 454.967 625.598 454.733 626.026 454.655L626.845 454.538C627.741 454.422 628.326 454.188 628.598 453.837C628.871 453.486 629.008 452.902 629.008 452.083V433.726C629.008 431.817 628.657 430.472 627.955 429.693C627.293 428.913 626.377 428.523 625.208 428.523C624.039 428.523 622.967 428.894 621.992 429.634C621.057 430.336 620.297 431.291 619.712 432.499C619.128 433.668 618.836 434.974 618.836 436.416V452.083C618.836 452.902 618.972 453.486 619.245 453.837C619.518 454.149 620.083 454.363 620.94 454.48L622.226 454.655C622.655 454.733 622.869 454.967 622.869 455.357C622.869 455.786 622.635 456 622.168 456H612.229C611.684 456 611.411 455.786 611.411 455.357C611.411 454.967 611.625 454.733 612.054 454.655L612.873 454.538C613.691 454.422 614.217 454.188 614.451 453.837C614.724 453.486 614.86 452.902 614.86 452.083V433.726C614.86 431.817 614.509 430.472 613.808 429.693C613.145 428.913 612.229 428.523 611.06 428.523C609.891 428.523 608.819 428.894 607.845 429.634C606.91 430.336 606.15 431.291 605.565 432.499C604.98 433.668 604.688 434.974 604.688 436.416V452.083C604.688 452.902 604.805 453.486 605.039 453.837C605.312 454.188 605.857 454.402 606.676 454.48L608.254 454.655C608.683 454.733 608.897 454.948 608.897 455.298C608.897 455.766 608.605 456 608.02 456H598.14ZM646.435 456.526C644.564 456.526 642.888 455.903 641.407 454.655C639.926 453.408 638.738 451.654 637.841 449.394C636.984 447.094 636.555 444.444 636.555 441.443C636.555 438.364 637.003 435.656 637.9 433.317C638.796 430.979 640.024 429.147 641.583 427.822C643.142 426.497 644.876 425.834 646.786 425.834C649.085 425.834 650.936 426.789 652.34 428.699C653.782 430.57 654.503 433.629 654.503 437.877C654.503 439.163 654.015 439.806 653.041 439.806H641.934C641.154 439.806 640.764 440.255 640.764 441.151C640.764 445.282 641.368 448.381 642.577 450.446C643.785 452.512 645.324 453.545 647.195 453.545C648.676 453.545 649.884 453.018 650.82 451.966C651.755 450.914 652.515 449.141 653.1 446.646C653.216 446.218 653.47 446.003 653.86 446.003C654.327 446.003 654.503 446.393 654.386 447.172C653.762 450.641 652.768 453.077 651.404 454.48C650.04 455.844 648.384 456.526 646.435 456.526ZM641.758 438.345H647.663C649.533 438.345 650.469 437.37 650.469 435.422C650.469 432.888 650.157 430.901 649.533 429.459C648.91 428.017 647.974 427.296 646.727 427.296C645.207 427.296 643.921 428.173 642.869 429.926C641.856 431.68 641.193 434.175 640.881 437.409C640.803 438.033 641.096 438.345 641.758 438.345ZM655.407 456C654.822 456 654.53 455.786 654.53 455.357C654.53 455.006 654.783 454.772 655.29 454.655L655.992 454.538C656.81 454.383 657.336 454.149 657.57 453.837C657.843 453.486 657.979 452.902 657.979 452.083V432.44C657.979 431.739 657.862 431.271 657.628 431.037C657.434 430.764 657.063 430.589 656.518 430.511L655.29 430.336C654.783 430.297 654.53 430.082 654.53 429.693C654.53 429.381 654.842 429.166 655.465 429.05C656.674 428.855 657.589 428.543 658.213 428.114C658.876 427.685 659.558 427.159 660.259 426.536C660.61 426.185 660.902 426.01 661.136 426.01C661.487 426.01 661.662 426.243 661.662 426.711V429.342C661.662 429.693 661.779 429.926 662.013 430.043C662.286 430.121 662.578 430.004 662.89 429.693C664.449 428.212 665.813 427.198 666.982 426.653C668.19 426.107 669.457 425.834 670.782 425.834C672.536 425.834 673.939 426.458 674.991 427.705C676.044 428.913 676.57 430.706 676.57 433.083V452.083C676.57 452.902 676.687 453.486 676.921 453.837C677.193 454.149 677.739 454.363 678.557 454.48L679.844 454.655C680.272 454.733 680.487 454.967 680.487 455.357C680.487 455.786 680.253 456 679.785 456H669.964C669.418 456 669.145 455.786 669.145 455.357C669.145 454.967 669.36 454.733 669.788 454.655L670.607 454.538C671.425 454.422 671.951 454.188 672.185 453.837C672.458 453.486 672.594 452.902 672.594 452.083V433.726C672.594 431.817 672.244 430.472 671.542 429.693C670.841 428.913 669.847 428.523 668.561 428.523C667.313 428.523 666.183 428.894 665.17 429.634C664.196 430.336 663.416 431.291 662.831 432.499C662.247 433.668 661.955 434.974 661.955 436.416V452.083C661.955 452.902 662.071 453.486 662.305 453.837C662.578 454.188 663.124 454.402 663.942 454.48L665.521 454.655C665.949 454.733 666.164 454.948 666.164 455.298C666.164 455.766 665.871 456 665.287 456H655.407ZM687.369 456.526C686.005 456.526 684.875 456.058 683.978 455.123C683.121 454.149 682.692 452.57 682.692 450.388V428.523C682.692 428.056 682.458 427.822 681.991 427.822H680.295C679.672 427.822 679.36 427.588 679.36 427.12C679.36 426.809 679.535 426.536 679.886 426.302C681.172 425.405 682.205 424.451 682.984 423.437C683.764 422.385 684.446 420.962 685.031 419.17C685.303 418.351 685.635 417.942 686.024 417.942C686.453 417.942 686.668 418.254 686.668 418.877V425.366C686.668 425.912 686.94 426.185 687.486 426.185H691.286C691.91 426.185 692.221 426.458 692.221 427.003C692.221 427.549 691.91 427.822 691.286 427.822H687.486C686.94 427.822 686.668 428.095 686.668 428.64V450.446C686.668 451.304 686.804 451.986 687.077 452.492C687.35 452.96 687.856 453.194 688.597 453.194C689.415 453.194 690.078 452.785 690.584 451.966C691.13 451.148 691.481 449.823 691.637 447.991C691.715 447.445 691.968 447.172 692.397 447.172C692.864 447.172 693.098 447.465 693.098 448.049C692.981 451.05 692.358 453.213 691.227 454.538C690.136 455.864 688.85 456.526 687.369 456.526Z" fill="#FFFAEE"/>
<path d="M348.752 471.407V518.81C335.631 518.79 325 508.181 325 495.109C325 482.016 335.631 471.407 348.752 471.407ZM395.766 508.853C388.134 508.853 383.237 502.195 383.237 495.027C383.237 487.86 388.154 481.446 395.704 481.446C400.928 481.446 405.152 484.785 406.988 489.55H419.456C419.007 486.842 417.824 484.215 416.314 481.934C411.641 474.889 404.213 471 395.766 471C384.849 471 375.666 477.76 372.504 487.534V471.407C359.383 471.407 348.752 482.016 348.752 495.109C348.752 508.202 359.383 518.81 372.504 518.81V502.622C375.687 512.437 384.971 519.299 395.888 519.299C407.172 519.299 416.742 512.009 419.456 500.994H406.988C404.907 505.575 400.989 508.853 395.766 508.853Z" fill="#FFFAEE"/>
<path d="M460.5 597C461.915 597 463.062 595.881 463.062 594.5C463.062 593.119 461.915 592 460.5 592C459.085 592 457.938 593.119 457.938 594.5C457.938 595.881 459.085 597 460.5 597Z" fill="#FFFAEE"/>
<path d="M478.438 597C479.853 597 481 595.881 481 594.5C481 593.119 479.853 592 478.438 592C477.022 592 475.875 593.119 475.875 594.5C475.875 595.881 477.022 597 478.438 597Z" fill="#FFFAEE"/>
<path d="M442.562 597C443.978 597 445.125 595.881 445.125 594.5C445.125 593.119 443.978 592 442.562 592C441.147 592 440 593.119 440 594.5C440 595.881 441.147 597 442.562 597Z" fill="#FFFAEE"/>
<path d="M460.5 597C461.915 597 463.062 595.881 463.062 594.5C463.062 593.119 461.915 592 460.5 592C459.085 592 457.938 593.119 457.938 594.5C457.938 595.881 459.085 597 460.5 597Z" stroke="#FFFAEE" stroke-linecap="round" stroke-linejoin="round"/>
<path d="M478.438 597C479.853 597 481 595.881 481 594.5C481 593.119 479.853 592 478.438 592C477.022 592 475.875 593.119 475.875 594.5C475.875 595.881 477.022 597 478.438 597Z" stroke="#FFFAEE" stroke-linecap="round" stroke-linejoin="round"/>
<path d="M442.562 597C443.978 597 445.125 595.881 445.125 594.5C445.125 593.119 443.978 592 442.562 592C441.147 592 440 593.119 440 594.5C440 595.881 441.147 597 442.562 597Z" stroke="#FFFAEE" stroke-linecap="round" stroke-linejoin="round"/>
<path d="M446.332 505.02H446.232L441.952 517H440.252L445.432 502.86H447.192L452.392 517H450.592L446.332 505.02ZM449.772 513.08H442.812V511.58H449.772V513.08ZM462.824 506.22C462.744 505.473 462.431 504.94 461.884 504.62C461.338 504.3 460.591 504.14 459.644 504.14C458.591 504.14 457.811 504.347 457.304 504.76C456.798 505.16 456.544 505.74 456.544 506.5C456.544 506.927 456.631 507.28 456.804 507.56C456.991 507.827 457.224 508.047 457.504 508.22C457.798 508.393 458.098 508.533 458.404 508.64C458.724 508.733 459.018 508.82 459.284 508.9L460.724 509.3C461.111 509.407 461.538 509.547 462.004 509.72C462.471 509.88 462.918 510.107 463.344 510.4C463.771 510.693 464.118 511.067 464.384 511.52C464.651 511.96 464.784 512.513 464.784 513.18C464.784 513.98 464.598 514.687 464.224 515.3C463.851 515.913 463.278 516.393 462.504 516.74C461.744 517.087 460.778 517.26 459.604 517.26C457.991 517.26 456.758 516.927 455.904 516.26C455.051 515.58 454.578 514.653 454.484 513.48H456.224C456.291 514.067 456.471 514.527 456.764 514.86C457.058 515.193 457.444 515.433 457.924 515.58C458.418 515.713 458.978 515.78 459.604 515.78C460.711 515.78 461.564 515.56 462.164 515.12C462.778 514.68 463.084 514.02 463.084 513.14C463.084 512.633 462.951 512.233 462.684 511.94C462.431 511.633 462.091 511.393 461.664 511.22C461.238 511.047 460.771 510.887 460.264 510.74L458.464 510.24C457.331 509.92 456.444 509.473 455.804 508.9C455.178 508.327 454.864 507.553 454.864 506.58C454.864 505.753 455.064 505.053 455.464 504.48C455.864 503.893 456.431 503.447 457.164 503.14C457.898 502.82 458.744 502.66 459.704 502.66C460.691 502.66 461.531 502.813 462.224 503.12C462.931 503.413 463.478 503.827 463.864 504.36C464.264 504.893 464.478 505.513 464.504 506.22H462.824ZM475.68 506.22C475.6 505.473 475.287 504.94 474.74 504.62C474.193 504.3 473.447 504.14 472.5 504.14C471.447 504.14 470.667 504.347 470.16 504.76C469.653 505.16 469.4 505.74 469.4 506.5C469.4 506.927 469.487 507.28 469.66 507.56C469.847 507.827 470.08 508.047 470.36 508.22C470.653 508.393 470.953 508.533 471.26 508.64C471.58 508.733 471.873 508.82 472.14 508.9L473.58 509.3C473.967 509.407 474.393 509.547 474.86 509.72C475.327 509.88 475.773 510.107 476.2 510.4C476.627 510.693 476.973 511.067 477.24 511.52C477.507 511.96 477.64 512.513 477.64 513.18C477.64 513.98 477.453 514.687 477.08 515.3C476.707 515.913 476.133 516.393 475.36 516.74C474.6 517.087 473.633 517.26 472.46 517.26C470.847 517.26 469.613 516.927 468.76 516.26C467.907 515.58 467.433 514.653 467.34 513.48H469.08C469.147 514.067 469.327 514.527 469.62 514.86C469.913 515.193 470.3 515.433 470.78 515.58C471.273 515.713 471.833 515.78 472.46 515.78C473.567 515.78 474.42 515.56 475.02 515.12C475.633 514.68 475.94 514.02 475.94 513.14C475.94 512.633 475.807 512.233 475.54 511.94C475.287 511.633 474.947 511.393 474.52 511.22C474.093 511.047 473.627 510.887 473.12 510.74L471.32 510.24C470.187 509.92 469.3 509.473 468.66 508.9C468.033 508.327 467.72 507.553 467.72 506.58C467.72 505.753 467.92 505.053 468.32 504.48C468.72 503.893 469.287 503.447 470.02 503.14C470.753 502.82 471.6 502.66 472.56 502.66C473.547 502.66 474.387 502.813 475.08 503.12C475.787 503.413 476.333 503.827 476.72 504.36C477.12 504.893 477.333 505.513 477.36 506.22H475.68ZM480.975 502.86H489.375V504.32H482.695V509.18H488.915V510.62H482.695V515.54H489.475V517H480.975V502.86ZM491.93 502.86H502.65V504.32H498.15V517H496.45V504.32H491.93V502.86ZM513.106 518.42H504.186V517H513.106V518.42ZM519.173 517H517.453V502.86H519.173V517ZM515.293 504.32V502.86H521.313V504.32H515.293ZM515.293 517V515.54H521.313V517H515.293ZM525.464 517V502.86H530.084C532.23 502.86 533.837 503.467 534.904 504.68C535.984 505.88 536.524 507.627 536.524 509.92C536.524 512.2 535.977 513.953 534.884 515.18C533.79 516.393 532.124 517 529.884 517H525.464ZM529.784 515.54C531.037 515.54 532.03 515.327 532.764 514.9C533.497 514.46 534.017 513.82 534.324 512.98C534.644 512.14 534.804 511.12 534.804 509.92C534.804 508.707 534.644 507.687 534.324 506.86C534.017 506.02 533.51 505.387 532.804 504.96C532.097 504.533 531.144 504.32 529.944 504.32H527.184V515.54H529.784ZM545.555 515.76L550.355 510.68C550.928 510.08 551.395 509.553 551.755 509.1C552.115 508.647 552.388 508.227 552.575 507.84C552.762 507.44 552.855 507.02 552.855 506.58C552.855 505.753 552.608 505.14 552.115 504.74C551.622 504.327 550.955 504.12 550.115 504.12C549.262 504.12 548.582 504.36 548.075 504.84C547.568 505.307 547.315 505.993 547.315 506.9H545.635C545.622 506.033 545.808 505.287 546.195 504.66C546.582 504.02 547.115 503.527 547.795 503.18C548.488 502.833 549.282 502.66 550.175 502.66C551.082 502.66 551.862 502.82 552.515 503.14C553.168 503.46 553.668 503.913 554.015 504.5C554.375 505.073 554.555 505.767 554.555 506.58C554.555 507.1 554.448 507.6 554.235 508.08C554.035 508.56 553.695 509.093 553.215 509.68C552.748 510.267 552.102 510.993 551.275 511.86L547.135 516.26L546.955 515.54H554.715V517H545.555V515.76ZM562.804 517.2C561.618 517.2 560.644 516.927 559.884 516.38C559.138 515.833 558.591 515.02 558.244 513.94C557.911 512.86 557.744 511.52 557.744 509.92C557.744 508.307 557.918 506.967 558.264 505.9C558.624 504.833 559.178 504.027 559.924 503.48C560.671 502.933 561.631 502.66 562.804 502.66C564.004 502.66 564.978 502.933 565.724 503.48C566.471 504.027 567.018 504.833 567.364 505.9C567.724 506.967 567.904 508.307 567.904 509.92C567.904 511.52 567.724 512.86 567.364 513.94C567.018 515.02 566.471 515.833 565.724 516.38C564.978 516.927 564.004 517.2 562.804 517.2ZM562.804 515.72C564.031 515.72 564.904 515.26 565.424 514.34C565.944 513.407 566.204 511.933 566.204 509.92C566.204 507.907 565.944 506.44 565.424 505.52C564.904 504.587 564.031 504.12 562.804 504.12C561.618 504.12 560.764 504.587 560.244 505.52C559.724 506.44 559.464 507.907 559.464 509.92C559.464 511.933 559.718 513.407 560.224 514.34C560.744 515.26 561.604 515.72 562.804 515.72ZM570.914 515.76L575.714 510.68C576.288 510.08 576.754 509.553 577.114 509.1C577.474 508.647 577.748 508.227 577.934 507.84C578.121 507.44 578.214 507.02 578.214 506.58C578.214 505.753 577.968 505.14 577.474 504.74C576.981 504.327 576.314 504.12 575.474 504.12C574.621 504.12 573.941 504.36 573.434 504.84C572.928 505.307 572.674 505.993 572.674 506.9H570.994C570.981 506.033 571.168 505.287 571.554 504.66C571.941 504.02 572.474 503.527 573.154 503.18C573.848 502.833 574.641 502.66 575.534 502.66C576.441 502.66 577.221 502.82 577.874 503.14C578.528 503.46 579.028 503.913 579.374 504.5C579.734 505.073 579.914 505.767 579.914 506.58C579.914 507.1 579.808 507.6 579.594 508.08C579.394 508.56 579.054 509.093 578.574 509.68C578.108 510.267 577.461 510.993 576.634 511.86L572.494 516.26L572.314 515.54H580.074V517H570.914V515.76ZM583.444 512.52C583.457 512.04 583.524 511.56 583.644 511.08C583.777 510.587 583.997 510.053 584.304 509.48C584.61 508.907 585.03 508.253 585.564 507.52L589.004 502.86H590.964L586.064 509.46L585.944 508.8C586.144 508.68 586.357 508.567 586.584 508.46C586.81 508.353 587.07 508.267 587.364 508.2C587.657 508.133 587.984 508.1 588.344 508.1C589.277 508.1 590.084 508.287 590.764 508.66C591.457 509.033 591.984 509.56 592.344 510.24C592.717 510.907 592.904 511.7 592.904 512.62C592.904 513.54 592.717 514.347 592.344 515.04C591.984 515.72 591.45 516.253 590.744 516.64C590.037 517.013 589.184 517.2 588.184 517.2C586.664 517.2 585.49 516.773 584.664 515.92C583.837 515.067 583.43 513.933 583.444 512.52ZM585.124 512.62C585.124 513.567 585.364 514.327 585.844 514.9C586.324 515.46 587.104 515.74 588.184 515.74C589.237 515.74 590.004 515.46 590.484 514.9C590.964 514.327 591.204 513.567 591.204 512.62C591.204 511.66 590.964 510.913 590.484 510.38C590.004 509.833 589.237 509.56 588.184 509.56C587.224 509.56 586.47 509.833 585.924 510.38C585.39 510.913 585.124 511.66 585.124 512.62ZM604.075 518.42H595.155V517H604.075V518.42ZM608.882 502.86L613.542 514.5H613.662L618.342 502.86H620.462V517H618.822V506.14H618.702L614.302 517H612.862L608.482 506.14H608.362V517H606.722V502.86H608.882ZM634.432 511.3H630.652V509.82H636.132V511.46C636.132 512.487 635.932 513.44 635.532 514.32C635.132 515.187 634.512 515.887 633.672 516.42C632.832 516.94 631.739 517.2 630.392 517.2C628.406 517.2 626.872 516.573 625.792 515.32C624.712 514.067 624.172 512.267 624.172 509.92C624.172 507.573 624.712 505.78 625.792 504.54C626.872 503.287 628.406 502.66 630.392 502.66C631.379 502.66 632.266 502.833 633.052 503.18C633.839 503.527 634.492 504.033 635.012 504.7C635.532 505.353 635.866 506.167 636.012 507.14H634.252C634.079 506.1 633.659 505.34 632.992 504.86C632.339 504.38 631.472 504.14 630.392 504.14C628.926 504.14 627.806 504.613 627.032 505.56C626.272 506.493 625.892 507.947 625.892 509.92C625.892 511.893 626.272 513.353 627.032 514.3C627.806 515.233 628.926 515.7 630.392 515.7C631.112 515.7 631.712 515.607 632.192 515.42C632.672 515.233 633.059 514.98 633.352 514.66C633.646 514.34 633.866 513.987 634.012 513.6C634.172 513.213 634.279 512.82 634.332 512.42C634.399 512.007 634.432 511.633 634.432 511.3ZM647.036 518.42H638.116V517H647.036V518.42ZM658.742 507.34C658.742 507.807 658.669 508.28 658.522 508.76C658.376 509.24 658.149 509.76 657.842 510.32C657.549 510.88 657.156 511.547 656.662 512.32L653.622 517H651.702L656.222 510.26L656.342 510.98C656.129 511.113 655.896 511.24 655.642 511.36C655.402 511.48 655.136 511.58 654.842 511.66C654.562 511.727 654.242 511.76 653.882 511.76C652.949 511.76 652.136 511.573 651.442 511.2C650.762 510.827 650.236 510.307 649.862 509.64C649.489 508.96 649.302 508.16 649.302 507.24C649.302 506.307 649.489 505.5 649.862 504.82C650.236 504.14 650.776 503.613 651.482 503.24C652.189 502.853 653.042 502.66 654.042 502.66C655.576 502.66 656.742 503.087 657.542 503.94C658.356 504.793 658.756 505.927 658.742 507.34ZM657.082 507.22C657.082 506.26 656.842 505.507 656.362 504.96C655.882 504.413 655.109 504.14 654.042 504.14C652.989 504.14 652.222 504.413 651.742 504.96C651.262 505.507 651.022 506.26 651.022 507.22C651.022 508.18 651.262 508.933 651.742 509.48C652.222 510.013 652.989 510.28 654.042 510.28C655.002 510.28 655.749 510.013 656.282 509.48C656.816 508.933 657.082 508.18 657.082 507.22ZM671.754 507.34C671.754 507.807 671.681 508.28 671.534 508.76C671.388 509.24 671.161 509.76 670.854 510.32C670.561 510.88 670.168 511.547 669.674 512.32L666.634 517H664.714L669.234 510.26L669.354 510.98C669.141 511.113 668.908 511.24 668.654 511.36C668.414 511.48 668.148 511.58 667.854 511.66C667.574 511.727 667.254 511.76 666.894 511.76C665.961 511.76 665.148 511.573 664.454 511.2C663.774 510.827 663.248 510.307 662.874 509.64C662.501 508.96 662.314 508.16 662.314 507.24C662.314 506.307 662.501 505.5 662.874 504.82C663.248 504.14 663.788 503.613 664.494 503.24C665.201 502.853 666.054 502.66 667.054 502.66C668.588 502.66 669.754 503.087 670.554 503.94C671.368 504.793 671.768 505.927 671.754 507.34ZM670.094 507.22C670.094 506.26 669.854 505.507 669.374 504.96C668.894 504.413 668.121 504.14 667.054 504.14C666.001 504.14 665.234 504.413 664.754 504.96C664.274 505.507 664.034 506.26 664.034 507.22C664.034 508.18 664.274 508.933 664.754 509.48C665.234 510.013 666.001 510.28 667.054 510.28C668.014 510.28 668.761 510.013 669.294 509.48C669.828 508.933 670.094 508.18 670.094 507.22ZM680.066 517.2C678.879 517.2 677.906 516.927 677.146 516.38C676.399 515.833 675.853 515.02 675.506 513.94C675.173 512.86 675.006 511.52 675.006 509.92C675.006 508.307 675.179 506.967 675.526 505.9C675.886 504.833 676.439 504.027 677.186 503.48C677.933 502.933 678.893 502.66 680.066 502.66C681.266 502.66 682.239 502.933 682.986 503.48C683.733 504.027 684.279 504.833 684.626 505.9C684.986 506.967 685.166 508.307 685.166 509.92C685.166 511.52 684.986 512.86 684.626 513.94C684.279 515.02 683.733 515.833 682.986 516.38C682.239 516.927 681.266 517.2 680.066 517.2ZM680.066 515.72C681.293 515.72 682.166 515.26 682.686 514.34C683.206 513.407 683.466 511.933 683.466 509.92C683.466 507.907 683.206 506.44 682.686 505.52C682.166 504.587 681.293 504.12 680.066 504.12C678.879 504.12 678.026 504.587 677.506 505.52C676.986 506.44 676.726 507.907 676.726 509.92C676.726 511.933 676.979 513.407 677.486 514.34C678.006 515.26 678.866 515.72 680.066 515.72ZM693.176 508.94L696.996 502.86H698.956L694.296 510.12L693.176 508.94ZM693.436 510.86L689.556 517H687.596L692.316 509.66L693.436 510.86ZM692.196 509.98L687.576 502.86H689.616L693.316 508.72L694.376 509.86L699.016 517H696.976L693.116 510.88L692.196 509.98Z" fill="#FFFAEE"/>
<path d="M435.491 480.16H433.971L435.051 474.86H436.751L435.491 480.16ZM439.011 480.16H437.491L438.571 474.86H440.251L439.011 480.16ZM451.377 479.22C451.297 478.473 450.984 477.94 450.437 477.62C449.891 477.3 449.144 477.14 448.197 477.14C447.144 477.14 446.364 477.347 445.857 477.76C445.351 478.16 445.097 478.74 445.097 479.5C445.097 479.927 445.184 480.28 445.357 480.56C445.544 480.827 445.777 481.047 446.057 481.22C446.351 481.393 446.651 481.533 446.957 481.64C447.277 481.733 447.571 481.82 447.837 481.9L449.277 482.3C449.664 482.407 450.091 482.547 450.557 482.72C451.024 482.88 451.471 483.107 451.897 483.4C452.324 483.693 452.671 484.067 452.937 484.52C453.204 484.96 453.337 485.513 453.337 486.18C453.337 486.98 453.151 487.687 452.777 488.3C452.404 488.913 451.831 489.393 451.057 489.74C450.297 490.087 449.331 490.26 448.157 490.26C446.544 490.26 445.311 489.927 444.457 489.26C443.604 488.58 443.131 487.653 443.037 486.48H444.777C444.844 487.067 445.024 487.527 445.317 487.86C445.611 488.193 445.997 488.433 446.477 488.58C446.971 488.713 447.531 488.78 448.157 488.78C449.264 488.78 450.117 488.56 450.717 488.12C451.331 487.68 451.637 487.02 451.637 486.14C451.637 485.633 451.504 485.233 451.237 484.94C450.984 484.633 450.644 484.393 450.217 484.22C449.791 484.047 449.324 483.887 448.817 483.74L447.017 483.24C445.884 482.92 444.997 482.473 444.357 481.9C443.731 481.327 443.417 480.553 443.417 479.58C443.417 478.753 443.617 478.053 444.017 477.48C444.417 476.893 444.984 476.447 445.717 476.14C446.451 475.82 447.297 475.66 448.257 475.66C449.244 475.66 450.084 475.813 450.777 476.12C451.484 476.413 452.031 476.827 452.417 477.36C452.817 477.893 453.031 478.513 453.057 479.22H451.377ZM465.873 480.2C465.713 479.16 465.313 478.393 464.673 477.9C464.033 477.393 463.179 477.14 462.113 477.14C460.713 477.14 459.639 477.62 458.893 478.58C458.159 479.527 457.793 480.973 457.793 482.92C457.793 484.867 458.159 486.32 458.893 487.28C459.639 488.24 460.713 488.72 462.113 488.72C463.179 488.72 464.033 488.467 464.673 487.96C465.313 487.453 465.719 486.687 465.893 485.66H467.633C467.419 487.127 466.833 488.253 465.873 489.04C464.926 489.813 463.673 490.2 462.113 490.2C460.166 490.2 458.673 489.573 457.633 488.32C456.593 487.067 456.073 485.267 456.073 482.92C456.073 480.573 456.593 478.78 457.633 477.54C458.673 476.287 460.166 475.66 462.113 475.66C463.086 475.66 463.959 475.833 464.733 476.18C465.506 476.513 466.139 477.02 466.633 477.7C467.139 478.38 467.466 479.213 467.613 480.2H465.873ZM475.736 478.02H475.636L471.356 490H469.656L474.836 475.86H476.596L481.796 490H479.996L475.736 478.02ZM479.176 486.08H472.216V484.58H479.176V486.08ZM484.884 475.86H486.604V488.5H493.164V490H484.884V475.86ZM501.134 478.02H501.034L496.754 490H495.054L500.234 475.86H501.994L507.194 490H505.394L501.134 478.02ZM504.574 486.08H497.614V484.58H504.574V486.08ZM510.282 475.86H515.362C516.442 475.86 517.309 476.02 517.962 476.34C518.615 476.66 519.089 477.1 519.382 477.66C519.675 478.22 519.822 478.867 519.822 479.6C519.822 480.227 519.682 480.753 519.402 481.18C519.135 481.607 518.795 481.933 518.382 482.16C517.982 482.387 517.569 482.533 517.142 482.6V482.72C517.489 482.733 517.849 482.82 518.222 482.98C518.595 483.127 518.942 483.347 519.262 483.64C519.595 483.92 519.862 484.28 520.062 484.72C520.275 485.147 520.382 485.653 520.382 486.24C520.382 486.973 520.229 487.627 519.922 488.2C519.615 488.76 519.109 489.2 518.402 489.52C517.695 489.84 516.735 490 515.522 490H510.282V475.86ZM515.502 488.54C516.369 488.54 517.029 488.447 517.482 488.26C517.935 488.06 518.242 487.78 518.402 487.42C518.575 487.06 518.662 486.653 518.662 486.2C518.662 485.68 518.555 485.22 518.342 484.82C518.142 484.42 517.815 484.107 517.362 483.88C516.922 483.64 516.335 483.52 515.602 483.52H512.002V488.54H515.502ZM515.282 482.08C516.242 482.08 516.949 481.873 517.402 481.46C517.869 481.033 518.102 480.427 518.102 479.64C518.102 479.187 518.029 478.787 517.882 478.44C517.735 478.08 517.462 477.807 517.062 477.62C516.675 477.42 516.109 477.32 515.362 477.32H512.002V482.08H515.282ZM523.821 475.86H525.541V488.5H532.101V490H523.821V475.86ZM534.782 475.86H543.182V477.32H536.502V482.18H542.722V483.62H536.502V488.54H543.282V490H534.782V475.86ZM557.971 488.04H558.091L562.391 475.86H564.211L559.031 490H557.031L551.851 475.86H553.691L557.971 488.04ZM567.313 475.86H575.713V477.32H569.033V482.18H575.253V483.62H569.033V488.54H575.813V490H567.313V475.86ZM588.451 480.2C588.291 479.16 587.891 478.393 587.251 477.9C586.611 477.393 585.757 477.14 584.691 477.14C583.291 477.14 582.217 477.62 581.471 478.58C580.737 479.527 580.371 480.973 580.371 482.92C580.371 484.867 580.737 486.32 581.471 487.28C582.217 488.24 583.291 488.72 584.691 488.72C585.757 488.72 586.611 488.467 587.251 487.96C587.891 487.453 588.297 486.687 588.471 485.66H590.211C589.997 487.127 589.411 488.253 588.451 489.04C587.504 489.813 586.251 490.2 584.691 490.2C582.744 490.2 581.251 489.573 580.211 488.32C579.171 487.067 578.651 485.267 578.651 482.92C578.651 480.573 579.171 478.78 580.211 477.54C581.251 476.287 582.744 475.66 584.691 475.66C585.664 475.66 586.537 475.833 587.311 476.18C588.084 476.513 588.717 477.02 589.211 477.7C589.717 478.38 590.044 479.213 590.191 480.2H588.451ZM591.904 475.86H602.624V477.32H598.124V490H596.424V477.32H591.904V475.86ZM616.485 482.92C616.485 485.267 615.958 487.067 614.905 488.32C613.865 489.573 612.345 490.2 610.345 490.2C608.358 490.2 606.838 489.573 605.785 488.32C604.745 487.067 604.225 485.267 604.225 482.92C604.225 480.573 604.745 478.78 605.785 477.54C606.838 476.287 608.358 475.66 610.345 475.66C612.345 475.66 613.865 476.287 614.905 477.54C615.958 478.78 616.485 480.573 616.485 482.92ZM614.765 482.92C614.765 480.947 614.398 479.493 613.665 478.56C612.945 477.613 611.845 477.14 610.365 477.14C608.872 477.14 607.758 477.613 607.025 478.56C606.305 479.493 605.945 480.947 605.945 482.92C605.945 484.893 606.305 486.353 607.025 487.3C607.758 488.247 608.872 488.72 610.365 488.72C611.845 488.72 612.945 488.247 613.665 487.3C614.398 486.353 614.765 484.893 614.765 482.92ZM626.84 483.48L630.52 490H628.56L625.12 483.78L626.84 483.48ZM624.96 482.94C625.853 482.94 626.533 482.84 627 482.64C627.467 482.427 627.787 482.113 627.96 481.7C628.147 481.287 628.24 480.767 628.24 480.14C628.24 479.513 628.147 478.993 627.96 478.58C627.787 478.167 627.467 477.86 627 477.66C626.533 477.447 625.853 477.34 624.96 477.34H621.92V482.94H624.96ZM625.06 484.42H621.92V490H620.2V475.86H625.04C626.267 475.86 627.233 476.04 627.94 476.4C628.66 476.747 629.173 477.24 629.48 477.88C629.787 478.52 629.94 479.273 629.94 480.14C629.94 480.793 629.867 481.387 629.72 481.92C629.573 482.44 629.32 482.887 628.96 483.26C628.6 483.633 628.1 483.92 627.46 484.12C626.833 484.32 626.033 484.42 625.06 484.42ZM649.458 484.3H645.678V482.82H651.158V484.46C651.158 485.487 650.958 486.44 650.558 487.32C650.158 488.187 649.538 488.887 648.698 489.42C647.858 489.94 646.764 490.2 645.418 490.2C643.431 490.2 641.898 489.573 640.818 488.32C639.738 487.067 639.198 485.267 639.198 482.92C639.198 480.573 639.738 478.78 640.818 477.54C641.898 476.287 643.431 475.66 645.418 475.66C646.404 475.66 647.291 475.833 648.078 476.18C648.864 476.527 649.518 477.033 650.038 477.7C650.558 478.353 650.891 479.167 651.038 480.14H649.278C649.104 479.1 648.684 478.34 648.018 477.86C647.364 477.38 646.498 477.14 645.418 477.14C643.951 477.14 642.831 477.613 642.058 478.56C641.298 479.493 640.918 480.947 640.918 482.92C640.918 484.893 641.298 486.353 642.058 487.3C642.831 488.233 643.951 488.7 645.418 488.7C646.138 488.7 646.738 488.607 647.218 488.42C647.698 488.233 648.084 487.98 648.378 487.66C648.671 487.34 648.891 486.987 649.038 486.6C649.198 486.213 649.304 485.82 649.358 485.42C649.424 485.007 649.458 484.633 649.458 484.3ZM661.461 483.48L665.141 490H663.181L659.741 483.78L661.461 483.48ZM659.581 482.94C660.474 482.94 661.154 482.84 661.621 482.64C662.088 482.427 662.408 482.113 662.581 481.7C662.768 481.287 662.861 480.767 662.861 480.14C662.861 479.513 662.768 478.993 662.581 478.58C662.408 478.167 662.088 477.86 661.621 477.66C661.154 477.447 660.474 477.34 659.581 477.34H656.541V482.94H659.581ZM659.681 484.42H656.541V490H654.821V475.86H659.661C660.888 475.86 661.854 476.04 662.561 476.4C663.281 476.747 663.794 477.24 664.101 477.88C664.408 478.52 664.561 479.273 664.561 480.14C664.561 480.793 664.488 481.387 664.341 481.92C664.194 482.44 663.941 482.887 663.581 483.26C663.221 483.633 662.721 483.92 662.081 484.12C661.454 484.32 660.654 484.42 659.681 484.42ZM673.357 478.02H673.257L668.977 490H667.277L672.457 475.86H674.217L679.417 490H677.617L673.357 478.02ZM676.797 486.08H669.837V484.58H676.797V486.08ZM682.505 475.86H687.305C688.505 475.86 689.458 476.053 690.165 476.44C690.885 476.813 691.405 477.333 691.725 478C692.045 478.653 692.205 479.42 692.205 480.3C692.205 481.153 692.045 481.92 691.725 482.6C691.405 483.28 690.891 483.813 690.185 484.2C689.478 484.587 688.531 484.78 687.345 484.78H684.225V490H682.505V475.86ZM687.265 483.3C688.145 483.3 688.818 483.18 689.285 482.94C689.751 482.687 690.071 482.34 690.245 481.9C690.418 481.447 690.505 480.913 690.505 480.3C690.505 479.673 690.418 479.14 690.245 478.7C690.071 478.26 689.751 477.927 689.285 477.7C688.818 477.46 688.131 477.34 687.225 477.34H684.225V483.3H687.265ZM695.497 475.86H697.217V482.18H704.517V475.86H706.237V490H704.517V483.64H697.217V490H695.497V475.86ZM714.272 490H712.552V475.86H714.272V490ZM710.392 477.32V475.86H716.412V477.32H710.392ZM710.392 490V488.54H716.412V490H710.392ZM729.47 480.2C729.31 479.16 728.91 478.393 728.27 477.9C727.63 477.393 726.777 477.14 725.71 477.14C724.31 477.14 723.237 477.62 722.49 478.58C721.757 479.527 721.39 480.973 721.39 482.92C721.39 484.867 721.757 486.32 722.49 487.28C723.237 488.24 724.31 488.72 725.71 488.72C726.777 488.72 727.63 488.467 728.27 487.96C728.91 487.453 729.317 486.687 729.49 485.66H731.23C731.017 487.127 730.43 488.253 729.47 489.04C728.524 489.813 727.27 490.2 725.71 490.2C723.764 490.2 722.27 489.573 721.23 488.32C720.19 487.067 719.67 485.267 719.67 482.92C719.67 480.573 720.19 478.78 721.23 477.54C722.27 476.287 723.764 475.66 725.71 475.66C726.684 475.66 727.557 475.833 728.33 476.18C729.104 476.513 729.737 477.02 730.23 477.7C730.737 478.38 731.064 479.213 731.21 480.2H729.47ZM742.405 479.22C742.325 478.473 742.011 477.94 741.465 477.62C740.918 477.3 740.171 477.14 739.225 477.14C738.171 477.14 737.391 477.347 736.885 477.76C736.378 478.16 736.125 478.74 736.125 479.5C736.125 479.927 736.211 480.28 736.385 480.56C736.571 480.827 736.805 481.047 737.085 481.22C737.378 481.393 737.678 481.533 737.985 481.64C738.305 481.733 738.598 481.82 738.865 481.9L740.305 482.3C740.691 482.407 741.118 482.547 741.585 482.72C742.051 482.88 742.498 483.107 742.925 483.4C743.351 483.693 743.698 484.067 743.965 484.52C744.231 484.96 744.365 485.513 744.365 486.18C744.365 486.98 744.178 487.687 743.805 488.3C743.431 488.913 742.858 489.393 742.085 489.74C741.325 490.087 740.358 490.26 739.185 490.26C737.571 490.26 736.338 489.927 735.485 489.26C734.631 488.58 734.158 487.653 734.065 486.48H735.805C735.871 487.067 736.051 487.527 736.345 487.86C736.638 488.193 737.025 488.433 737.505 488.58C737.998 488.713 738.558 488.78 739.185 488.78C740.291 488.78 741.145 488.56 741.745 488.12C742.358 487.68 742.665 487.02 742.665 486.14C742.665 485.633 742.531 485.233 742.265 484.94C742.011 484.633 741.671 484.393 741.245 484.22C740.818 484.047 740.351 483.887 739.845 483.74L738.045 483.24C736.911 482.92 736.025 482.473 735.385 481.9C734.758 481.327 734.445 480.553 734.445 479.58C734.445 478.753 734.645 478.053 735.045 477.48C735.445 476.893 736.011 476.447 736.745 476.14C737.478 475.82 738.325 475.66 739.285 475.66C740.271 475.66 741.111 475.813 741.805 476.12C742.511 476.413 743.058 476.827 743.445 477.36C743.845 477.893 744.058 478.513 744.085 479.22H742.405ZM748.46 480.16H746.94L748.02 474.86H749.72L748.46 480.16ZM751.98 480.16H750.46L751.54 474.86H753.22L751.98 480.16Z" fill="#FFFAEE"/>
<path d="M447.36 577.311C446.427 577.311 445.52 577.144 444.64 576.811C443.76 576.477 442.967 575.991 442.26 575.351C441.553 574.711 440.987 573.937 440.56 573.031C440.147 572.124 439.94 571.091 439.94 569.931C439.94 568.771 440.147 567.737 440.56 566.831C440.987 565.924 441.553 565.157 442.26 564.531C442.967 563.891 443.76 563.404 444.64 563.071C445.52 562.737 446.427 562.571 447.36 562.571C448.293 562.571 449.2 562.737 450.08 563.071C450.96 563.404 451.753 563.891 452.46 564.531C453.167 565.157 453.727 565.924 454.14 566.831C454.553 567.737 454.76 568.771 454.76 569.931C454.76 571.091 454.553 572.124 454.14 573.031C453.727 573.937 453.167 574.711 452.46 575.351C451.753 575.991 450.96 576.477 450.08 576.811C449.2 577.144 448.293 577.311 447.36 577.311ZM447.36 576.391C448.147 576.391 448.92 576.251 449.68 575.971C450.44 575.677 451.127 575.257 451.74 574.711C452.353 574.151 452.84 573.471 453.2 572.671C453.573 571.871 453.76 570.957 453.76 569.931C453.76 568.904 453.573 567.991 453.2 567.191C452.84 566.391 452.353 565.717 451.74 565.171C451.127 564.611 450.44 564.191 449.68 563.911C448.92 563.617 448.147 563.471 447.36 563.471C446.56 563.471 445.78 563.617 445.02 563.911C444.26 564.191 443.573 564.611 442.96 565.171C442.347 565.717 441.853 566.391 441.48 567.191C441.12 567.991 440.94 568.904 440.94 569.931C440.94 570.957 441.12 571.871 441.48 572.671C441.853 573.471 442.347 574.151 442.96 574.711C443.573 575.257 444.26 575.677 445.02 575.971C445.78 576.251 446.56 576.391 447.36 576.391ZM447.44 573.851C446.213 573.851 445.287 573.497 444.66 572.791C444.033 572.084 443.72 571.124 443.72 569.911C443.72 568.697 444.04 567.744 444.68 567.051C445.333 566.357 446.24 566.011 447.4 566.011C448.013 566.011 448.54 566.111 448.98 566.311C449.433 566.511 449.793 566.797 450.06 567.171C450.34 567.531 450.52 567.964 450.6 568.471H449.48C449.387 568.004 449.193 567.637 448.9 567.371C448.62 567.104 448.127 566.971 447.42 566.971C446.567 566.971 445.913 567.224 445.46 567.731C445.007 568.237 444.78 568.964 444.78 569.911C444.78 570.871 445.007 571.611 445.46 572.131C445.913 572.637 446.567 572.891 447.42 572.891C448.087 572.891 448.573 572.784 448.88 572.571C449.187 572.344 449.387 571.984 449.48 571.491H450.6C450.547 571.957 450.387 572.371 450.12 572.731C449.867 573.077 449.513 573.351 449.06 573.551C448.62 573.751 448.08 573.851 447.44 573.851ZM462.039 576.071L466.879 570.891C467.493 570.237 467.993 569.664 468.379 569.171C468.766 568.664 469.053 568.197 469.239 567.771C469.439 567.331 469.539 566.884 469.539 566.431C469.539 565.564 469.259 564.904 468.699 564.451C468.139 563.984 467.393 563.751 466.459 563.751C465.526 563.751 464.759 564.031 464.159 564.591C463.559 565.137 463.273 565.891 463.299 566.851H462.139C462.126 565.984 462.306 565.244 462.679 564.631C463.053 564.017 463.573 563.544 464.239 563.211C464.906 562.877 465.666 562.711 466.519 562.711C467.413 562.711 468.166 562.864 468.779 563.171C469.406 563.464 469.886 563.891 470.219 564.451C470.553 564.997 470.719 565.657 470.719 566.431C470.719 566.937 470.633 567.431 470.459 567.911C470.286 568.377 469.966 568.917 469.499 569.531C469.046 570.131 468.386 570.891 467.519 571.811L462.959 576.691L463.039 576.011H470.899V577.051H462.039V576.071ZM483.152 577.251C481.992 577.251 481.045 576.991 480.312 576.471C479.592 575.937 479.065 575.137 478.732 574.071C478.399 572.991 478.232 571.624 478.232 569.971C478.232 568.317 478.399 566.957 478.732 565.891C479.079 564.824 479.612 564.031 480.332 563.511C481.065 562.977 482.005 562.711 483.152 562.711C484.312 562.711 485.252 562.977 485.972 563.511C486.705 564.031 487.239 564.824 487.572 565.891C487.919 566.957 488.092 568.317 488.092 569.971C488.092 571.611 487.919 572.971 487.572 574.051C487.239 575.131 486.705 575.937 485.972 576.471C485.252 576.991 484.312 577.251 483.152 577.251ZM483.152 576.211C484.512 576.211 485.479 575.697 486.052 574.671C486.625 573.644 486.912 572.077 486.912 569.971C486.912 567.864 486.625 566.304 486.052 565.291C485.479 564.264 484.512 563.751 483.152 563.751C481.805 563.751 480.845 564.264 480.272 565.291C479.699 566.304 479.412 567.864 479.412 569.971C479.412 572.077 479.692 573.644 480.252 574.671C480.825 575.697 481.792 576.211 483.152 576.211ZM495.427 576.071L500.267 570.891C500.881 570.237 501.381 569.664 501.767 569.171C502.154 568.664 502.441 568.197 502.627 567.771C502.827 567.331 502.927 566.884 502.927 566.431C502.927 565.564 502.647 564.904 502.087 564.451C501.527 563.984 500.781 563.751 499.847 563.751C498.914 563.751 498.147 564.031 497.547 564.591C496.947 565.137 496.661 565.891 496.687 566.851H495.527C495.514 565.984 495.694 565.244 496.067 564.631C496.441 564.017 496.961 563.544 497.627 563.211C498.294 562.877 499.054 562.711 499.907 562.711C500.801 562.711 501.554 562.864 502.167 563.171C502.794 563.464 503.274 563.891 503.607 564.451C503.941 564.997 504.107 565.657 504.107 566.431C504.107 566.937 504.021 567.431 503.847 567.911C503.674 568.377 503.354 568.917 502.887 569.531C502.434 570.131 501.774 570.891 500.907 571.811L496.347 576.691L496.427 576.011H504.287V577.051H495.427V576.071ZM512 572.611C512.014 572.091 512.074 571.584 512.18 571.091C512.3 570.597 512.507 570.071 512.8 569.511C513.107 568.951 513.527 568.311 514.06 567.591L517.56 562.911H518.98L514.24 569.191L514.08 569.011C514.36 568.837 514.614 568.697 514.84 568.591C515.067 568.471 515.314 568.384 515.58 568.331C515.847 568.264 516.174 568.231 516.56 568.231C517.534 568.231 518.36 568.411 519.04 568.771C519.72 569.117 520.234 569.624 520.58 570.291C520.94 570.957 521.12 571.764 521.12 572.711C521.12 573.617 520.947 574.411 520.6 575.091C520.254 575.771 519.74 576.304 519.06 576.691C518.38 577.064 517.547 577.251 516.56 577.251C515.067 577.251 513.927 576.831 513.14 575.991C512.367 575.137 511.987 574.011 512 572.611ZM513.18 572.711C513.18 573.777 513.44 574.631 513.96 575.271C514.494 575.897 515.36 576.211 516.56 576.211C517.747 576.211 518.607 575.897 519.14 575.271C519.674 574.631 519.94 573.777 519.94 572.711C519.94 571.644 519.674 570.804 519.14 570.191C518.607 569.577 517.747 569.271 516.56 569.271C515.494 569.271 514.66 569.577 514.06 570.191C513.474 570.804 513.18 571.644 513.18 572.711Z" fill="#FFFAEE"/>
<path d="M440.5 549.145H439.38L443.98 532.125H445.1L440.5 549.145ZM448.244 532.885H452.964C454.098 532.885 455.011 533.065 455.704 533.425C456.398 533.772 456.904 534.265 457.224 534.905C457.544 535.545 457.704 536.305 457.704 537.185C457.704 538.065 457.544 538.832 457.224 539.485C456.904 540.139 456.398 540.645 455.704 541.005C455.024 541.365 454.124 541.545 453.004 541.545H449.444V547.025H448.244V532.885ZM452.924 540.505C453.858 540.505 454.584 540.372 455.104 540.105C455.624 539.825 455.984 539.439 456.184 538.945C456.398 538.439 456.504 537.852 456.504 537.185C456.504 536.505 456.398 535.925 456.184 535.445C455.984 534.952 455.624 534.579 455.104 534.325C454.584 534.059 453.844 533.925 452.884 533.925H449.444V540.505H452.924ZM467.3 540.545L470.98 547.025H469.64L466.1 540.765L467.3 540.545ZM465.74 540.165C466.687 540.165 467.42 540.045 467.94 539.805C468.46 539.565 468.827 539.212 469.04 538.745C469.253 538.279 469.36 537.705 469.36 537.025C469.36 536.332 469.253 535.759 469.04 535.305C468.827 534.852 468.46 534.512 467.94 534.285C467.42 534.045 466.687 533.925 465.74 533.925H462.3V540.165H465.74ZM465.84 541.205H462.3V547.025H461.1V532.885H465.82C466.967 532.885 467.887 533.052 468.58 533.385C469.273 533.705 469.773 534.172 470.08 534.785C470.4 535.399 470.56 536.145 470.56 537.025C470.56 537.719 470.487 538.325 470.34 538.845C470.193 539.365 469.94 539.805 469.58 540.165C469.22 540.512 468.733 540.772 468.12 540.945C467.52 541.119 466.76 541.205 465.84 541.205ZM485.782 539.945C485.782 542.279 485.276 544.079 484.262 545.345C483.262 546.599 481.789 547.225 479.842 547.225C477.896 547.225 476.416 546.599 475.402 545.345C474.402 544.079 473.902 542.279 473.902 539.945C473.902 537.612 474.402 535.819 475.402 534.565C476.416 533.312 477.896 532.685 479.842 532.685C481.789 532.685 483.262 533.312 484.262 534.565C485.276 535.819 485.782 537.612 485.782 539.945ZM484.582 539.945C484.582 537.825 484.189 536.265 483.402 535.265C482.629 534.265 481.442 533.765 479.842 533.765C478.242 533.765 477.049 534.265 476.262 535.265C475.489 536.265 475.102 537.825 475.102 539.945C475.102 542.065 475.489 543.632 476.262 544.645C477.049 545.645 478.242 546.145 479.842 546.145C481.442 546.145 482.629 545.645 483.402 544.645C484.189 543.632 484.582 542.065 484.582 539.945ZM499.139 536.985C498.965 535.905 498.532 535.099 497.839 534.565C497.159 534.032 496.252 533.765 495.119 533.765C493.625 533.765 492.465 534.272 491.639 535.285C490.825 536.299 490.419 537.845 490.419 539.925C490.419 542.019 490.825 543.579 491.639 544.605C492.465 545.619 493.625 546.125 495.119 546.125C496.252 546.125 497.159 545.859 497.839 545.325C498.532 544.792 498.972 543.992 499.159 542.925H500.419C500.192 544.325 499.632 545.392 498.739 546.125C497.845 546.859 496.639 547.225 495.119 547.225C493.145 547.225 491.665 546.592 490.679 545.325C489.705 544.045 489.219 542.245 489.219 539.925C489.219 537.619 489.705 535.839 490.679 534.585C491.665 533.319 493.145 532.685 495.119 532.685C496.065 532.685 496.905 532.845 497.639 533.165C498.385 533.485 498.992 533.965 499.459 534.605C499.939 535.245 500.252 536.039 500.399 536.985H499.139ZM504.295 532.885H512.255V533.925H505.495V539.425H511.795V540.465H505.495V545.985H512.355V547.025H504.295V532.885ZM523.932 535.945C523.826 535.119 523.459 534.545 522.832 534.225C522.219 533.905 521.406 533.745 520.392 533.745C519.232 533.745 518.372 533.972 517.812 534.425C517.252 534.865 516.972 535.519 516.972 536.385C516.972 536.892 517.066 537.305 517.252 537.625C517.452 537.945 517.706 538.205 518.012 538.405C518.319 538.592 518.646 538.745 518.992 538.865C519.339 538.972 519.659 539.065 519.952 539.145L521.492 539.565C521.879 539.672 522.299 539.805 522.752 539.965C523.206 540.125 523.632 540.345 524.032 540.625C524.446 540.905 524.779 541.265 525.032 541.705C525.286 542.145 525.412 542.692 525.412 543.345C525.412 544.092 525.232 544.765 524.872 545.365C524.512 545.965 523.959 546.439 523.212 546.785C522.466 547.119 521.512 547.285 520.352 547.285C518.806 547.285 517.619 546.972 516.792 546.345C515.966 545.719 515.499 544.872 515.392 543.805H516.632C516.712 544.445 516.919 544.939 517.252 545.285C517.586 545.632 518.012 545.879 518.532 546.025C519.066 546.159 519.672 546.225 520.352 546.225C521.579 546.225 522.526 545.992 523.192 545.525C523.872 545.045 524.212 544.305 524.212 543.305C524.212 542.705 524.066 542.232 523.772 541.885C523.492 541.539 523.112 541.265 522.632 541.065C522.166 540.865 521.659 540.692 521.112 540.545L519.192 540.025C518.099 539.719 517.252 539.292 516.652 538.745C516.066 538.199 515.772 537.445 515.772 536.485C515.772 535.699 515.959 535.025 516.332 534.465C516.719 533.892 517.259 533.452 517.952 533.145C518.659 532.839 519.492 532.685 520.452 532.685C521.386 532.685 522.186 532.825 522.852 533.105C523.532 533.372 524.066 533.752 524.452 534.245C524.852 534.725 525.079 535.292 525.132 535.945H523.932ZM536.553 535.945C536.447 535.119 536.08 534.545 535.453 534.225C534.84 533.905 534.027 533.745 533.013 533.745C531.853 533.745 530.993 533.972 530.433 534.425C529.873 534.865 529.593 535.519 529.593 536.385C529.593 536.892 529.687 537.305 529.873 537.625C530.073 537.945 530.327 538.205 530.633 538.405C530.94 538.592 531.267 538.745 531.613 538.865C531.96 538.972 532.28 539.065 532.573 539.145L534.113 539.565C534.5 539.672 534.92 539.805 535.373 539.965C535.827 540.125 536.253 540.345 536.653 540.625C537.067 540.905 537.4 541.265 537.653 541.705C537.907 542.145 538.033 542.692 538.033 543.345C538.033 544.092 537.853 544.765 537.493 545.365C537.133 545.965 536.58 546.439 535.833 546.785C535.087 547.119 534.133 547.285 532.973 547.285C531.427 547.285 530.24 546.972 529.413 546.345C528.587 545.719 528.12 544.872 528.013 543.805H529.253C529.333 544.445 529.54 544.939 529.873 545.285C530.207 545.632 530.633 545.879 531.153 546.025C531.687 546.159 532.293 546.225 532.973 546.225C534.2 546.225 535.147 545.992 535.813 545.525C536.493 545.045 536.833 544.305 536.833 543.305C536.833 542.705 536.687 542.232 536.393 541.885C536.113 541.539 535.733 541.265 535.253 541.065C534.787 540.865 534.28 540.692 533.733 540.545L531.813 540.025C530.72 539.719 529.873 539.292 529.273 538.745C528.687 538.199 528.393 537.445 528.393 536.485C528.393 535.699 528.58 535.025 528.953 534.465C529.34 533.892 529.88 533.452 530.573 533.145C531.28 532.839 532.113 532.685 533.073 532.685C534.007 532.685 534.807 532.825 535.473 533.105C536.153 533.372 536.687 533.752 537.073 534.245C537.473 534.725 537.7 535.292 537.753 535.945H536.553ZM541.234 549.145H540.114L544.714 532.125H545.834L541.234 549.145ZM553.619 545.645H553.739L558.399 532.885H559.659L554.499 547.025H552.839L547.699 532.885H548.979L553.619 545.645ZM567.068 547.225C565.908 547.225 564.962 546.965 564.228 546.445C563.508 545.912 562.982 545.112 562.648 544.045C562.315 542.965 562.148 541.599 562.148 539.945C562.148 538.292 562.315 536.932 562.648 535.865C562.995 534.799 563.528 534.005 564.248 533.485C564.982 532.952 565.922 532.685 567.068 532.685C568.228 532.685 569.168 532.952 569.888 533.485C570.622 534.005 571.155 534.799 571.488 535.865C571.835 536.932 572.008 538.292 572.008 539.945C572.008 541.585 571.835 542.945 571.488 544.025C571.155 545.105 570.622 545.912 569.888 546.445C569.168 546.965 568.228 547.225 567.068 547.225ZM567.068 546.185C568.428 546.185 569.395 545.672 569.968 544.645C570.542 543.619 570.828 542.052 570.828 539.945C570.828 537.839 570.542 536.279 569.968 535.265C569.395 534.239 568.428 533.725 567.068 533.725C565.722 533.725 564.762 534.239 564.188 535.265C563.615 536.279 563.328 537.839 563.328 539.945C563.328 542.052 563.608 543.619 564.168 544.645C564.742 545.672 565.708 546.185 567.068 546.185ZM580.004 547.025H578.804V533.685L579.224 533.785L575.204 536.505V535.245L578.664 532.885H580.004V547.025Z" fill="#FFFAEE"/>
<path d="M440 612V611.5H439.5V612H440ZM460.146 632.854C460.342 633.049 460.658 633.049 460.854 632.854C461.049 632.659 461.049 632.342 460.854 632.147L460.5 632.5L460.146 632.854ZM440 627.375H440.5V612H440H439.5V627.375H440ZM440 612V612.5H455.375V612V611.5H440V612ZM440 612L439.646 612.354L460.146 632.854L460.5 632.5L460.854 632.147L440.354 611.646L440 612Z" fill="#FFFAEE"/>
<path d="M440 653V653.5H439.5V653H440ZM460.146 632.146C460.342 631.951 460.658 631.951 460.854 632.146C461.049 632.341 461.049 632.658 460.854 632.853L460.5 632.5L460.146 632.146ZM440 637.625H440.5V653H440H439.5V637.625H440ZM440 653V652.5H455.375V653V653.5H440V653ZM440 653L439.646 652.646L460.146 632.146L460.5 632.5L460.854 632.853L440.354 653.354L440 653Z" fill="#FFFAEE"/>
<path d="M481 612V611.5H481.5V612H481ZM460.854 632.854C460.658 633.049 460.342 633.049 460.146 632.854C459.951 632.659 459.951 632.342 460.146 632.147L460.5 632.5L460.854 632.854ZM481 627.375H480.5V612H481H481.5V627.375H481ZM481 612V612.5H465.625V612V611.5H481V612ZM481 612L481.354 612.354L460.854 632.854L460.5 632.5L460.146 632.147L480.646 611.646L481 612Z" fill="#FFFAEE"/>
<path d="M481 653V653.5H481.5V653H481ZM460.854 632.146C460.658 631.951 460.342 631.951 460.146 632.146C459.951 632.341 459.951 632.658 460.146 632.853L460.5 632.5L460.854 632.146ZM481 637.625H480.5V653H481H481.5V637.625H481ZM481 653V652.5H465.625V653V653.5H481V653ZM481 653L481.354 652.646L460.854 632.146L460.5 632.5L460.146 632.853L480.646 653.354L481 653Z" fill="#FFFAEE"/>
</svg>
