<svg width="1080" height="1080" viewBox="0 0 1080 1080" fill="none" xmlns="http://www.w3.org/2000/svg">
<rect width="1080" height="1080" fill="#191919"/>
<path d="M483.609 515H476.231V486.424H483.609L483.554 490.333C484.398 488.975 485.408 487.984 486.582 487.36C487.757 486.736 489.225 486.424 490.987 486.424H493.08V492.205H489.39C487.445 492.205 485.995 492.719 485.041 493.747C484.086 494.775 483.609 496.445 483.609 498.757V515ZM497.166 498.042H513.023C512.913 496.133 512.344 494.573 511.316 493.361C510.288 492.113 508.82 491.489 506.911 491.489C504.562 491.489 502.855 492.205 501.791 493.637C500.763 495.068 500.249 497.473 500.249 500.85C500.249 504.19 500.763 506.539 501.791 507.897C502.818 509.255 504.654 509.934 507.297 509.934C509.169 509.934 510.472 509.678 511.206 509.164C511.977 508.65 512.436 507.897 512.582 506.906H520.181C519.997 508.595 519.41 510.1 518.419 511.421C517.464 512.706 516.069 513.715 514.234 514.449C512.399 515.184 510.086 515.551 507.297 515.551C502.635 515.551 499.074 514.303 496.615 511.807C494.156 509.274 492.926 505.621 492.926 500.85C492.926 496.041 494.156 492.352 496.615 489.783C499.074 487.176 502.506 485.873 506.911 485.873C509.774 485.873 512.197 486.461 514.179 487.635C516.198 488.81 517.74 490.517 518.804 492.756C519.869 494.958 520.401 497.656 520.401 500.85V503.052H497.11L497.166 498.042ZM550.809 515H546.514C544.825 515 543.504 514.431 542.55 513.293C541.632 512.155 541.136 510.742 541.063 509.054H542.66C541.962 511.072 540.824 512.669 539.246 513.844C537.704 514.982 535.722 515.551 533.3 515.551C531.281 515.551 529.464 515.239 527.849 514.615C526.27 513.954 525.022 512.981 524.105 511.696C523.187 510.375 522.728 508.705 522.728 506.686C522.728 504.851 523.077 503.346 523.774 502.171C524.508 500.96 525.463 500.024 526.637 499.363C527.812 498.702 529.097 498.243 530.491 497.986C531.886 497.693 533.263 497.546 534.621 497.546H541.063V495.949C541.063 494.408 540.678 493.27 539.907 492.536C539.173 491.765 537.98 491.379 536.328 491.379C534.566 491.379 533.318 491.691 532.584 492.315C531.85 492.939 531.391 493.894 531.207 495.178H523.829C523.939 493.196 524.582 491.508 525.756 490.113C526.931 488.718 528.454 487.672 530.326 486.974C532.198 486.24 534.254 485.873 536.493 485.873C537.704 485.873 538.989 486.02 540.347 486.314C541.705 486.607 542.972 487.14 544.146 487.91C545.358 488.681 546.349 489.746 547.12 491.104C547.89 492.462 548.276 494.224 548.276 496.39V509.219H550.809V515ZM529.886 506.356C529.886 507.604 530.235 508.54 530.932 509.164C531.629 509.751 532.749 510.045 534.291 510.045C536.456 510.045 538.126 509.531 539.301 508.503C540.476 507.438 541.063 506.007 541.063 504.208V502.556H534.676C532.988 502.556 531.758 502.887 530.987 503.548C530.253 504.172 529.886 505.108 529.886 506.356ZM568.503 492.205H562.831V509.219H568.503V515H563.878C561.418 515 559.399 514.413 557.821 513.238C556.243 512.027 555.453 510.136 555.453 507.567V492.205H551.049V486.424H555.453V478.44H562.831V486.424H568.503V492.205ZM573.563 498.042H589.421C589.311 496.133 588.742 494.573 587.714 493.361C586.686 492.113 585.218 491.489 583.309 491.489C580.96 491.489 579.253 492.205 578.188 493.637C577.161 495.068 576.647 497.473 576.647 500.85C576.647 504.19 577.161 506.539 578.188 507.897C579.216 509.255 581.052 509.934 583.694 509.934C585.567 509.934 586.87 509.678 587.604 509.164C588.375 508.65 588.833 507.897 588.98 506.906H596.578C596.395 508.595 595.808 510.1 594.817 511.421C593.862 512.706 592.467 513.715 590.632 514.449C588.797 515.184 586.484 515.551 583.694 515.551C579.033 515.551 575.472 514.303 573.013 511.807C570.553 509.274 569.324 505.621 569.324 500.85C569.324 496.041 570.553 492.352 573.013 489.783C575.472 487.176 578.904 485.873 583.309 485.873C586.172 485.873 588.595 486.461 590.577 487.635C592.596 488.81 594.138 490.517 595.202 492.756C596.266 494.958 596.799 497.656 596.799 500.85V503.052H573.508L573.563 498.042ZM612.896 486.424H620.274V489.727C621.228 488.333 622.238 487.342 623.302 486.754C624.367 486.167 625.578 485.873 626.936 485.873C628.992 485.873 630.68 486.277 632.002 487.085C633.36 487.892 634.424 489.195 635.195 490.994H635.14C636.131 489.342 637.306 488.076 638.664 487.195C640.059 486.314 641.747 485.873 643.73 485.873C644.978 485.873 646.207 486.057 647.419 486.424C648.667 486.754 649.786 487.36 650.777 488.241C651.805 489.085 652.613 490.26 653.2 491.765C653.824 493.233 654.136 495.123 654.136 497.436V515H646.758V497.931C646.758 495.766 646.409 494.169 645.712 493.141C645.051 492.113 643.858 491.6 642.133 491.6C640.298 491.6 639.013 492.187 638.279 493.361C637.545 494.536 637.177 496.335 637.177 498.757V515H629.799V497.931C629.799 496.5 629.653 495.325 629.359 494.408C629.102 493.453 628.643 492.756 627.982 492.315C627.358 491.838 626.496 491.6 625.395 491.6C623.486 491.6 622.146 492.187 621.375 493.361C620.641 494.536 620.274 496.335 620.274 498.757V515H612.896V486.424ZM672.513 515.551C668.108 515.551 664.603 514.284 661.997 511.751C659.427 509.182 658.142 505.511 658.142 500.739C658.142 495.968 659.446 492.297 662.052 489.727C664.658 487.158 668.145 485.873 672.513 485.873C675.413 485.873 677.927 486.461 680.056 487.635C682.222 488.773 683.911 490.443 685.122 492.646C686.333 494.848 686.939 497.546 686.939 500.739C686.939 505.511 685.617 509.182 682.974 511.751C680.368 514.284 676.881 515.551 672.513 515.551ZM672.513 509.769C674.899 509.769 676.661 509.035 677.799 507.567C678.973 506.062 679.561 503.786 679.561 500.739C679.561 497.693 678.973 495.417 677.799 493.912C676.661 492.407 674.899 491.655 672.513 491.655C670.164 491.655 668.402 492.407 667.227 493.912C666.089 495.417 665.52 497.693 665.52 500.739C665.52 503.786 666.089 506.062 667.227 507.567C668.402 509.035 670.164 509.769 672.513 509.769ZM698.539 515H691.161V486.424H698.539L698.484 490.333C699.328 488.975 700.337 487.984 701.512 487.36C702.687 486.736 704.155 486.424 705.917 486.424H708.009V492.205H704.32C702.375 492.205 700.925 492.719 699.97 493.747C699.016 494.775 698.539 496.445 698.539 498.757V515ZM712.095 498.042H727.952C727.842 496.133 727.273 494.573 726.246 493.361C725.218 492.113 723.75 491.489 721.841 491.489C719.492 491.489 717.785 492.205 716.72 493.637C715.692 495.068 715.179 497.473 715.179 500.85C715.179 504.19 715.692 506.539 716.72 507.897C717.748 509.255 719.583 509.934 722.226 509.934C724.098 509.934 725.401 509.678 726.135 509.164C726.906 508.65 727.365 507.897 727.512 506.906H735.11C734.927 508.595 734.339 510.1 733.348 511.421C732.394 512.706 730.999 513.715 729.164 514.449C727.328 515.184 725.016 515.551 722.226 515.551C717.564 515.551 714.004 514.303 711.545 511.807C709.085 509.274 707.856 505.621 707.856 500.85C707.856 496.041 709.085 492.352 711.545 489.783C714.004 487.176 717.436 485.873 721.841 485.873C724.704 485.873 727.127 486.461 729.109 487.635C731.128 488.81 732.669 490.517 733.734 492.756C734.798 494.958 735.331 497.656 735.331 500.85V503.052H712.04L712.095 498.042Z" fill="#FFFAEE"/>
<path d="M483.609 515V515.388H483.998V515H483.609ZM476.231 515H475.843V515.388H476.231V515ZM476.231 486.424V486.036H475.843V486.424H476.231ZM483.609 486.424L483.997 486.429L484.003 486.036H483.609V486.424ZM483.554 490.333L483.166 490.328L483.146 491.725L483.884 490.538L483.554 490.333ZM493.08 486.424H493.468V486.036H493.08V486.424ZM493.08 492.205V492.594H493.468V492.205H493.08ZM485.041 493.747L485.325 494.011V494.011L485.041 493.747ZM483.609 515V514.612H476.231V515V515.388H483.609V515ZM476.231 515H476.619V486.424H476.231H475.843V515H476.231ZM476.231 486.424V486.812H483.609V486.424V486.036H476.231V486.424ZM483.609 486.424L483.221 486.418L483.166 490.328L483.554 490.333L483.942 490.339L483.997 486.429L483.609 486.424ZM483.554 490.333L483.884 490.538C484.699 489.226 485.662 488.289 486.765 487.703L486.582 487.36L486.4 487.017C485.154 487.679 484.097 488.724 483.224 490.128L483.554 490.333ZM486.582 487.36L486.765 487.703C487.868 487.117 489.269 486.812 490.987 486.812V486.424V486.036C489.182 486.036 487.646 486.355 486.4 487.017L486.582 487.36ZM490.987 486.424V486.812H493.08V486.424V486.036H490.987V486.424ZM493.08 486.424H492.691V492.205H493.08H493.468V486.424H493.08ZM493.08 492.205V491.817H489.39V492.205V492.594H493.08V492.205ZM489.39 492.205V491.817C487.38 491.817 485.809 492.349 484.756 493.483L485.041 493.747L485.325 494.011C486.181 493.089 487.51 492.594 489.39 492.594V492.205ZM485.041 493.747L484.756 493.483C483.703 494.616 483.221 496.407 483.221 498.757H483.609H483.998C483.998 496.483 484.469 494.933 485.325 494.011L485.041 493.747ZM483.609 498.757H483.221V515H483.609H483.998V498.757H483.609ZM497.166 498.042V497.653H496.781L496.777 498.037L497.166 498.042ZM513.023 498.042V498.43H513.434L513.411 498.019L513.023 498.042ZM511.316 493.361L511.016 493.608L511.02 493.613L511.316 493.361ZM501.791 493.637L501.479 493.405L501.475 493.41L501.791 493.637ZM501.791 507.897L502.1 507.663V507.663L501.791 507.897ZM511.206 509.164L510.99 508.84L510.983 508.846L511.206 509.164ZM512.582 506.906V506.518H512.247L512.198 506.849L512.582 506.906ZM520.181 506.906L520.567 506.948L520.613 506.518H520.181V506.906ZM518.419 511.421L518.108 511.188L518.107 511.19L518.419 511.421ZM514.234 514.449L514.09 514.089L514.234 514.449ZM496.615 511.807L496.336 512.077L496.338 512.079L496.615 511.807ZM496.615 489.783L496.896 490.051L496.897 490.049L496.615 489.783ZM514.179 487.635L513.981 487.969L513.984 487.971L514.179 487.635ZM518.804 492.756L518.453 492.923L518.454 492.925L518.804 492.756ZM520.401 503.052V503.44H520.789V503.052H520.401ZM497.11 503.052L496.722 503.048L496.718 503.44H497.11V503.052ZM497.166 498.042V498.43H513.023V498.042V497.653H497.166V498.042ZM513.023 498.042L513.411 498.019C513.297 496.044 512.705 494.398 511.612 493.11L511.316 493.361L511.02 493.613C511.983 494.747 512.529 496.222 512.635 498.064L513.023 498.042ZM511.316 493.361L511.616 493.115C510.501 491.76 508.913 491.101 506.911 491.101V491.489V491.878C508.727 491.878 510.076 492.466 511.016 493.608L511.316 493.361ZM506.911 491.489V491.101C504.482 491.101 502.639 491.845 501.479 493.405L501.791 493.637L502.102 493.868C503.071 492.565 504.642 491.878 506.911 491.878V491.489ZM501.791 493.637L501.475 493.41C500.373 494.945 499.861 497.455 499.861 500.85H500.249H500.637C500.637 497.491 501.153 495.191 502.106 493.863L501.791 493.637ZM500.249 500.85H499.861C499.861 504.206 500.372 506.666 501.481 508.132L501.791 507.897L502.1 507.663C501.153 506.412 500.637 504.174 500.637 500.85H500.249ZM501.791 507.897L501.481 508.132C502.615 509.631 504.601 510.323 507.297 510.323V509.934V509.546C504.707 509.546 503.021 508.88 502.1 507.663L501.791 507.897ZM507.297 509.934V510.323C509.178 510.323 510.589 510.07 511.429 509.482L511.206 509.164L510.983 508.846C510.355 509.285 509.159 509.546 507.297 509.546V509.934ZM511.206 509.164L511.421 509.487C512.291 508.907 512.805 508.053 512.966 506.963L512.582 506.906L512.198 506.849C512.066 507.742 511.662 508.393 510.99 508.841L511.206 509.164ZM512.582 506.906V507.295H520.181V506.906V506.518H512.582V506.906ZM520.181 506.906L519.795 506.864C519.618 508.485 519.056 509.924 518.108 511.188L518.419 511.421L518.729 511.654C519.764 510.275 520.376 508.704 520.567 506.948L520.181 506.906ZM518.419 511.421L518.107 511.19C517.204 512.404 515.874 513.375 514.09 514.089L514.234 514.449L514.378 514.81C516.265 514.055 517.724 513.007 518.73 511.653L518.419 511.421ZM514.234 514.449L514.09 514.089C512.315 514.799 510.056 515.162 507.297 515.162V515.551V515.939C510.117 515.939 512.482 515.568 514.378 514.81L514.234 514.449ZM507.297 515.551V515.162C502.703 515.162 499.256 513.934 496.892 511.534L496.615 511.807L496.338 512.079C498.892 514.671 502.566 515.939 507.297 515.939V515.551ZM496.615 511.807L496.894 511.536C494.526 509.098 493.314 505.557 493.314 500.85H492.926H492.538C492.538 505.686 493.785 509.449 496.336 512.077L496.615 511.807ZM492.926 500.85H493.314C493.314 496.105 494.527 492.526 496.896 490.051L496.615 489.783L496.334 489.514C493.784 492.178 492.538 495.977 492.538 500.85H492.926ZM496.615 489.783L496.897 490.049C499.267 487.538 502.587 486.262 506.911 486.262V485.873V485.485C502.426 485.485 498.882 486.815 496.333 489.516L496.615 489.783ZM506.911 485.873V486.262C509.721 486.262 512.072 486.838 513.981 487.969L514.179 487.635L514.377 487.301C512.322 486.083 509.827 485.485 506.911 485.485V485.873ZM514.179 487.635L513.984 487.971C515.931 489.104 517.42 490.749 518.453 492.923L518.804 492.756L519.155 492.589C518.059 490.284 516.465 488.516 514.374 487.3L514.179 487.635ZM518.804 492.756L518.454 492.925C519.487 495.061 520.013 497.697 520.013 500.85H520.401H520.789C520.789 497.615 520.25 494.855 519.154 492.587L518.804 492.756ZM520.401 500.85H520.013V503.052H520.401H520.789V500.85H520.401ZM520.401 503.052V502.664H497.11V503.052V503.44H520.401V503.052ZM497.11 503.052L497.499 503.056L497.554 498.046L497.166 498.042L496.777 498.037L496.722 503.048L497.11 503.052ZM550.809 515V515.388H551.197V515H550.809ZM542.55 513.293L542.247 513.537L542.252 513.543L542.55 513.293ZM541.063 509.054V508.665H540.657L540.675 509.07L541.063 509.054ZM542.66 509.054L543.027 509.18L543.205 508.665H542.66V509.054ZM539.246 513.844L539.477 514.156L539.478 514.155L539.246 513.844ZM527.849 514.615L527.699 514.973L527.709 514.977L527.849 514.615ZM524.105 511.696L523.786 511.918L523.789 511.922L524.105 511.696ZM523.774 502.171L523.442 501.97L523.44 501.973L523.774 502.171ZM530.491 497.986L530.562 498.368L530.571 498.366L530.491 497.986ZM541.063 497.546V497.934H541.451V497.546H541.063ZM539.907 492.536L539.626 492.803L539.632 492.81L539.639 492.817L539.907 492.536ZM532.584 492.315L532.332 492.019V492.019L532.584 492.315ZM531.207 495.178V495.567H531.544L531.592 495.233L531.207 495.178ZM523.829 495.178L523.441 495.157L523.419 495.567H523.829V495.178ZM525.756 490.113L526.053 490.363V490.363L525.756 490.113ZM530.326 486.974L530.462 487.338L530.468 487.336L530.326 486.974ZM544.146 487.91L543.933 488.235L543.938 488.238L544.146 487.91ZM547.12 491.104L547.457 490.912V490.912L547.12 491.104ZM548.276 509.219H547.888V509.607H548.276V509.219ZM550.809 509.219H551.197V508.83H550.809V509.219ZM530.932 509.164L530.673 509.453L530.682 509.461L530.932 509.164ZM539.301 508.503L539.557 508.795L539.562 508.791L539.301 508.503ZM541.063 502.556H541.451V502.168H541.063V502.556ZM530.987 503.548L531.239 503.843L531.24 503.842L530.987 503.548ZM550.809 515V514.612H546.514V515V515.388H550.809V515ZM546.514 515V514.612C544.923 514.612 543.717 514.081 542.847 513.044L542.55 513.293L542.252 513.543C543.291 514.781 544.728 515.388 546.514 515.388V515ZM542.55 513.293L542.852 513.049C541.994 511.986 541.521 510.656 541.451 509.037L541.063 509.054L540.675 509.07C540.751 510.828 541.27 512.325 542.247 513.537L542.55 513.293ZM541.063 509.054V509.442H542.66V509.054V508.665H541.063V509.054ZM542.66 509.054L542.293 508.927C541.618 510.878 540.525 512.408 539.014 513.532L539.246 513.844L539.478 514.155C541.124 512.93 542.306 511.266 543.027 509.18L542.66 509.054ZM539.246 513.844L539.015 513.531C537.556 514.608 535.661 515.162 533.3 515.162V515.551V515.939C535.783 515.939 537.852 515.355 539.477 514.156L539.246 513.844ZM533.3 515.551V515.162C531.321 515.162 529.552 514.856 527.989 514.252L527.849 514.615L527.709 514.977C529.375 515.621 531.241 515.939 533.3 515.939V515.551ZM527.849 514.615L527.999 514.256C526.481 513.621 525.293 512.692 524.421 511.471L524.105 511.696L523.789 511.922C524.752 513.271 526.059 514.287 527.699 514.973L527.849 514.615ZM524.105 511.696L524.423 511.475C523.561 510.233 523.116 508.646 523.116 506.686H522.728H522.34C522.34 508.764 522.812 510.517 523.786 511.918L524.105 511.696ZM522.728 506.686H523.116C523.116 504.897 523.456 503.467 524.108 502.369L523.774 502.171L523.44 501.973C522.697 503.225 522.34 504.804 522.34 506.686H522.728ZM523.774 502.171L524.106 502.372C524.808 501.215 525.714 500.328 526.828 499.701L526.637 499.363L526.447 499.024C525.211 499.72 524.209 500.704 523.442 501.97L523.774 502.171ZM526.637 499.363L526.828 499.701C527.963 499.063 529.207 498.618 530.562 498.368L530.491 497.986L530.421 497.605C528.986 497.869 527.661 498.342 526.447 499.024L526.637 499.363ZM530.491 497.986L530.571 498.366C531.941 498.078 533.291 497.934 534.621 497.934V497.546V497.158C533.235 497.158 531.831 497.308 530.411 497.606L530.491 497.986ZM534.621 497.546V497.934H541.063V497.546V497.158H534.621V497.546ZM541.063 497.546H541.451V495.949H541.063H540.675V497.546H541.063ZM541.063 495.949H541.451C541.451 494.349 541.051 493.089 540.175 492.254L539.907 492.536L539.639 492.817C540.304 493.45 540.675 494.466 540.675 495.949H541.063ZM539.907 492.536L540.188 492.268C539.349 491.386 538.028 490.991 536.328 490.991V491.379V491.768C537.931 491.768 538.997 492.143 539.626 492.803L539.907 492.536ZM536.328 491.379V490.991C534.541 490.991 533.175 491.303 532.332 492.019L532.584 492.315L532.835 492.611C533.461 492.08 534.59 491.768 536.328 491.768V491.379ZM532.584 492.315L532.332 492.019C531.504 492.723 531.015 493.778 530.823 495.123L531.207 495.178L531.592 495.233C531.767 494.01 532.195 493.155 532.835 492.611L532.584 492.315ZM531.207 495.178V494.79H523.829V495.178V495.567H531.207V495.178ZM523.829 495.178L524.217 495.2C524.323 493.294 524.938 491.688 526.053 490.363L525.756 490.113L525.459 489.863C524.226 491.328 523.556 493.099 523.441 495.157L523.829 495.178ZM525.756 490.113L526.053 490.363C527.181 489.024 528.646 488.015 530.462 487.338L530.326 486.974L530.191 486.611C528.262 487.329 526.681 488.412 525.459 489.863L525.756 490.113ZM530.326 486.974L530.468 487.336C532.29 486.621 534.297 486.262 536.493 486.262V485.873V485.485C534.211 485.485 532.107 485.859 530.185 486.613L530.326 486.974ZM536.493 485.873V486.262C537.673 486.262 538.93 486.405 540.265 486.693L540.347 486.314L540.429 485.934C539.048 485.636 537.736 485.485 536.493 485.485V485.873ZM540.347 486.314L540.265 486.693C541.576 486.977 542.798 487.49 543.933 488.235L544.146 487.91L544.359 487.586C543.145 486.789 541.835 486.238 540.429 485.934L540.347 486.314ZM544.146 487.91L543.938 488.238C545.091 488.972 546.04 489.988 546.782 491.296L547.12 491.104L547.457 490.912C546.658 489.504 545.624 488.391 544.355 487.583L544.146 487.91ZM547.12 491.104L546.782 491.296C547.509 492.577 547.888 494.266 547.888 496.39H548.276H548.664C548.664 494.182 548.272 492.347 547.457 490.912L547.12 491.104ZM548.276 496.39H547.888V509.219H548.276H548.664V496.39H548.276ZM548.276 509.219V509.607H550.809V509.219V508.83H548.276V509.219ZM550.809 509.219H550.42V515H550.809H551.197V509.219H550.809ZM529.886 506.356H529.497C529.497 507.675 529.868 508.733 530.673 509.453L530.932 509.164L531.191 508.874C530.601 508.346 530.274 507.532 530.274 506.356H529.886ZM530.932 509.164L530.682 509.461C531.484 510.136 532.715 510.433 534.291 510.433V510.045V509.656C532.782 509.656 531.775 509.366 531.182 508.867L530.932 509.164ZM534.291 510.045V510.433C536.514 510.433 538.288 509.905 539.557 508.795L539.301 508.503L539.045 508.211C537.965 509.156 536.399 509.656 534.291 509.656V510.045ZM539.301 508.503L539.562 508.791C540.829 507.642 541.451 506.1 541.451 504.208H541.063H540.675C540.675 505.914 540.122 507.235 539.04 508.215L539.301 508.503ZM541.063 504.208H541.451V502.556H541.063H540.675V504.208H541.063ZM541.063 502.556V502.168H534.676V502.556V502.945H541.063V502.556ZM534.676 502.556V502.168C532.952 502.168 531.609 502.503 530.734 503.253L530.987 503.548L531.24 503.842C531.907 503.271 533.023 502.945 534.676 502.945V502.556ZM530.987 503.548L530.736 503.252C529.89 503.97 529.497 505.03 529.497 506.356H529.886H530.274C530.274 505.185 530.615 504.373 531.239 503.843L530.987 503.548ZM568.503 492.205V492.594H568.891V492.205H568.503ZM562.831 492.205V491.817H562.443V492.205H562.831ZM562.831 509.219H562.443V509.607H562.831V509.219ZM568.503 509.219H568.891V508.83H568.503V509.219ZM568.503 515V515.388H568.891V515H568.503ZM557.821 513.238L557.585 513.546L557.589 513.55L557.821 513.238ZM555.453 492.205H555.842V491.817H555.453V492.205ZM551.049 492.205H550.66V492.594H551.049V492.205ZM551.049 486.424V486.036H550.66V486.424H551.049ZM555.453 486.424V486.812H555.842V486.424H555.453ZM555.453 478.44V478.052H555.065V478.44H555.453ZM562.831 478.44H563.22V478.052H562.831V478.44ZM562.831 486.424H562.443V486.812H562.831V486.424ZM568.503 486.424H568.891V486.036H568.503V486.424ZM568.503 492.205V491.817H562.831V492.205V492.594H568.503V492.205ZM562.831 492.205H562.443V509.219H562.831H563.22V492.205H562.831ZM562.831 509.219V509.607H568.503V509.219V508.83H562.831V509.219ZM568.503 509.219H568.114V515H568.503H568.891V509.219H568.503ZM568.503 515V514.612H563.878V515V515.388H568.503V515ZM563.878 515V514.612C561.481 514.612 559.549 514.04 558.053 512.927L557.821 513.238L557.589 513.55C559.25 514.785 561.356 515.388 563.878 515.388V515ZM557.821 513.238L558.057 512.93C556.602 511.813 555.842 510.054 555.842 507.567H555.453H555.065C555.065 510.219 555.884 512.241 557.585 513.546L557.821 513.238ZM555.453 507.567H555.842V492.205H555.453H555.065V507.567H555.453ZM555.453 492.205V491.817H551.049V492.205V492.594H555.453V492.205ZM551.049 492.205H551.437V486.424H551.049H550.66V492.205H551.049ZM551.049 486.424V486.812H555.453V486.424V486.036H551.049V486.424ZM555.453 486.424H555.842V478.44H555.453H555.065V486.424H555.453ZM555.453 478.44V478.829H562.831V478.44V478.052H555.453V478.44ZM562.831 478.44H562.443V486.424H562.831H563.22V478.44H562.831ZM562.831 486.424V486.812H568.503V486.424V486.036H562.831V486.424ZM568.503 486.424H568.114V492.205H568.503H568.891V486.424H568.503ZM573.563 498.042V497.653H573.179L573.175 498.037L573.563 498.042ZM589.421 498.042V498.43H589.832L589.808 498.019L589.421 498.042ZM587.714 493.361L587.414 493.608L587.418 493.613L587.714 493.361ZM578.188 493.637L577.877 493.405L577.873 493.41L578.188 493.637ZM578.188 507.897L578.498 507.663V507.663L578.188 507.897ZM587.604 509.164L587.388 508.84L587.381 508.846L587.604 509.164ZM588.98 506.906V506.518H588.645L588.596 506.849L588.98 506.906ZM596.578 506.906L596.965 506.948L597.011 506.518H596.578V506.906ZM594.817 511.421L594.506 511.188L594.505 511.19L594.817 511.421ZM590.632 514.449L590.488 514.089L590.632 514.449ZM573.013 511.807L572.734 512.077L572.736 512.079L573.013 511.807ZM573.013 489.783L573.293 490.051L573.295 490.049L573.013 489.783ZM590.577 487.635L590.379 487.969L590.382 487.971L590.577 487.635ZM595.202 492.756L594.851 492.923L594.852 492.925L595.202 492.756ZM596.799 503.052V503.44H597.187V503.052H596.799ZM573.508 503.052L573.12 503.048L573.116 503.44H573.508V503.052ZM573.563 498.042V498.43H589.421V498.042V497.653H573.563V498.042ZM589.421 498.042L589.808 498.019C589.694 496.044 589.103 494.398 588.01 493.11L587.714 493.361L587.418 493.613C588.381 494.747 588.927 496.222 589.033 498.064L589.421 498.042ZM587.714 493.361L588.014 493.115C586.898 491.76 585.311 491.101 583.309 491.101V491.489V491.878C585.125 491.878 586.474 492.466 587.414 493.608L587.714 493.361ZM583.309 491.489V491.101C580.879 491.101 579.037 491.845 577.877 493.405L578.188 493.637L578.5 493.868C579.469 492.565 581.04 491.878 583.309 491.878V491.489ZM578.188 493.637L577.873 493.41C576.771 494.945 576.258 497.455 576.258 500.85H576.647H577.035C577.035 497.491 577.55 495.191 578.504 493.863L578.188 493.637ZM576.647 500.85H576.258C576.258 504.206 576.77 506.666 577.879 508.132L578.188 507.897L578.498 507.663C577.551 506.412 577.035 504.174 577.035 500.85H576.647ZM578.188 507.897L577.879 508.132C579.013 509.631 580.998 510.323 583.694 510.323V509.934V509.546C581.105 509.546 579.419 508.88 578.498 507.663L578.188 507.897ZM583.694 509.934V510.323C585.576 510.323 586.987 510.07 587.826 509.482L587.604 509.164L587.381 508.846C586.753 509.285 585.557 509.546 583.694 509.546V509.934ZM587.604 509.164L587.819 509.487C588.689 508.907 589.203 508.053 589.364 506.963L588.98 506.906L588.596 506.849C588.464 507.742 588.06 508.393 587.388 508.841L587.604 509.164ZM588.98 506.906V507.295H596.578V506.906V506.518H588.98V506.906ZM596.578 506.906L596.192 506.864C596.016 508.485 595.454 509.924 594.506 511.188L594.817 511.421L595.127 511.654C596.161 510.275 596.774 508.704 596.965 506.948L596.578 506.906ZM594.817 511.421L594.505 511.19C593.602 512.404 592.272 513.375 590.488 514.089L590.632 514.449L590.776 514.81C592.663 514.055 594.122 513.007 595.128 511.653L594.817 511.421ZM590.632 514.449L590.488 514.089C588.713 514.799 586.454 515.162 583.694 515.162V515.551V515.939C586.515 515.939 588.88 515.568 590.776 514.81L590.632 514.449ZM583.694 515.551V515.162C579.101 515.162 575.654 513.934 573.289 511.534L573.013 511.807L572.736 512.079C575.29 514.671 578.964 515.939 583.694 515.939V515.551ZM573.013 511.807L573.291 511.536C570.924 509.098 569.712 505.557 569.712 500.85H569.324H568.935C568.935 505.686 570.183 509.449 572.734 512.077L573.013 511.807ZM569.324 500.85H569.712C569.712 496.105 570.925 492.526 573.293 490.051L573.013 489.783L572.732 489.514C570.182 492.178 568.935 495.977 568.935 500.85H569.324ZM573.013 489.783L573.295 490.049C575.665 487.538 578.985 486.262 583.309 486.262V485.873V485.485C578.824 485.485 575.279 486.815 572.73 489.516L573.013 489.783ZM583.309 485.873V486.262C586.119 486.262 588.47 486.838 590.379 487.969L590.577 487.635L590.775 487.301C588.72 486.083 586.225 485.485 583.309 485.485V485.873ZM590.577 487.635L590.382 487.971C592.329 489.104 593.818 490.749 594.851 492.923L595.202 492.756L595.553 492.589C594.457 490.284 592.863 488.516 590.772 487.3L590.577 487.635ZM595.202 492.756L594.852 492.925C595.885 495.061 596.41 497.697 596.41 500.85H596.799H597.187C597.187 497.615 596.648 494.855 595.552 492.587L595.202 492.756ZM596.799 500.85H596.41V503.052H596.799H597.187V500.85H596.799ZM596.799 503.052V502.664H573.508V503.052V503.44H596.799V503.052ZM573.508 503.052L573.897 503.056L573.952 498.046L573.563 498.042L573.175 498.037L573.12 503.048L573.508 503.052ZM612.896 486.424V486.036H612.508V486.424H612.896ZM620.274 486.424H620.662V486.036H620.274V486.424ZM620.274 489.727H619.886V490.983L620.595 489.947L620.274 489.727ZM623.302 486.754L623.49 487.094V487.094L623.302 486.754ZM632.002 487.085L631.799 487.416L631.803 487.418L632.002 487.085ZM635.195 490.994V491.382H635.784L635.552 490.841L635.195 490.994ZM635.14 490.994L634.807 490.794L634.454 491.382H635.14V490.994ZM638.664 487.195L638.457 486.866L638.453 486.869L638.664 487.195ZM647.419 486.424L647.306 486.796L647.319 486.799L647.419 486.424ZM650.777 488.241L650.519 488.531L650.525 488.536L650.531 488.541L650.777 488.241ZM653.2 491.765L652.838 491.906L652.843 491.917L653.2 491.765ZM654.136 515V515.388H654.524V515H654.136ZM646.758 515H646.37V515.388H646.758V515ZM645.712 493.141L645.385 493.351L645.39 493.359L645.712 493.141ZM638.279 493.361L638.608 493.567V493.567L638.279 493.361ZM637.177 515V515.388H637.566V515H637.177ZM629.799 515H629.411V515.388H629.799V515ZM629.359 494.408L628.984 494.509L628.986 494.517L628.989 494.526L629.359 494.408ZM627.982 492.315L627.747 492.624L627.757 492.631L627.767 492.638L627.982 492.315ZM621.375 493.361L621.051 493.148L621.046 493.156L621.375 493.361ZM620.274 515V515.388H620.662V515H620.274ZM612.896 515H612.508V515.388H612.896V515ZM612.896 486.424V486.812H620.274V486.424V486.036H612.896V486.424ZM620.274 486.424H619.886V489.727H620.274H620.662V486.424H620.274ZM620.274 489.727L620.595 489.947C621.527 488.584 622.495 487.643 623.49 487.094L623.302 486.754L623.115 486.414C621.981 487.04 620.93 488.082 619.954 489.508L620.274 489.727ZM623.302 486.754L623.49 487.094C624.491 486.542 625.636 486.262 626.936 486.262V485.873V485.485C625.52 485.485 624.243 485.792 623.115 486.414L623.302 486.754ZM626.936 485.873V486.262C628.943 486.262 630.556 486.656 631.799 487.416L632.002 487.085L632.204 486.753C630.805 485.898 629.041 485.485 626.936 485.485V485.873ZM632.002 487.085L631.803 487.418C633.076 488.175 634.092 489.405 634.838 491.147L635.195 490.994L635.552 490.841C634.757 488.985 633.644 487.609 632.2 486.751L632.002 487.085ZM635.195 490.994V490.606H635.14V490.994V491.382H635.195V490.994ZM635.14 490.994L635.473 491.194C636.44 489.583 637.575 488.364 638.875 487.521L638.664 487.195L638.453 486.869C637.036 487.788 635.823 489.101 634.807 490.794L635.14 490.994ZM638.664 487.195L638.871 487.523C640.193 486.689 641.806 486.262 643.73 486.262V485.873V485.485C641.689 485.485 639.925 485.939 638.457 486.866L638.664 487.195ZM643.73 485.873V486.262C644.939 486.262 646.131 486.439 647.306 486.796L647.419 486.424L647.531 486.052C646.284 485.674 645.016 485.485 643.73 485.485V485.873ZM647.419 486.424L647.319 486.799C648.507 487.114 649.572 487.689 650.519 488.531L650.777 488.241L651.035 487.951C650 487.03 648.826 486.395 647.518 486.048L647.419 486.424ZM650.777 488.241L650.531 488.541C651.497 489.335 652.27 490.45 652.838 491.906L653.2 491.765L653.562 491.624C652.955 490.07 652.113 488.835 651.024 487.941L650.777 488.241ZM653.2 491.765L652.843 491.917C653.439 493.32 653.748 495.154 653.748 497.436H654.136H654.524C654.524 495.093 654.209 493.146 653.557 491.613L653.2 491.765ZM654.136 497.436H653.748V515H654.136H654.524V497.436H654.136ZM654.136 515V514.612H646.758V515V515.388H654.136V515ZM646.758 515H647.146V497.931H646.758H646.37V515H646.758ZM646.758 497.931H647.146C647.146 495.739 646.796 494.047 646.033 492.923L645.712 493.141L645.39 493.359C646.022 494.291 646.37 495.792 646.37 497.931H646.758ZM645.712 493.141L646.038 492.931C645.279 491.75 643.931 491.211 642.133 491.211V491.6V491.988C643.785 491.988 644.823 492.477 645.385 493.351L645.712 493.141ZM642.133 491.6V491.211C640.213 491.211 638.777 491.831 637.949 493.156L638.279 493.361L638.608 493.567C639.249 492.542 640.383 491.988 642.133 491.988V491.6ZM638.279 493.361L637.949 493.156C637.157 494.423 636.789 496.31 636.789 498.757H637.177H637.566C637.566 496.36 637.932 494.649 638.608 493.567L638.279 493.361ZM637.177 498.757H636.789V515H637.177H637.566V498.757H637.177ZM637.177 515V514.612H629.799V515V515.388H637.177V515ZM629.799 515H630.188V497.931H629.799H629.411V515H629.799ZM629.799 497.931H630.188C630.188 496.477 630.039 495.259 629.729 494.289L629.359 494.408L628.989 494.526C629.266 495.392 629.411 496.522 629.411 497.931H629.799ZM629.359 494.408L629.734 494.307C629.459 493.284 628.955 492.497 628.198 491.992L627.982 492.315L627.767 492.638C628.332 493.015 628.745 493.622 628.984 494.509L629.359 494.408ZM627.982 492.315L628.218 492.007C627.504 491.461 626.548 491.211 625.395 491.211V491.6V491.988C626.444 491.988 627.213 492.216 627.747 492.624L627.982 492.315ZM625.395 491.6V491.211C623.407 491.211 621.918 491.827 621.051 493.148L621.375 493.361L621.7 493.574C622.375 492.546 623.565 491.988 625.395 491.988V491.6ZM621.375 493.361L621.046 493.156C620.254 494.423 619.886 496.31 619.886 498.757H620.274H620.662C620.662 496.36 621.028 494.649 621.705 493.567L621.375 493.361ZM620.274 498.757H619.886V515H620.274H620.662V498.757H620.274ZM620.274 515V514.612H612.896V515V515.388H620.274V515ZM612.896 515H613.284V486.424H612.896H612.508V515H612.896ZM661.997 511.751L661.722 512.026L661.726 512.03L661.997 511.751ZM662.052 489.727L662.324 490.004V490.004L662.052 489.727ZM680.056 487.635L679.869 487.975L679.876 487.979L680.056 487.635ZM682.975 511.751L683.245 512.03L683.245 512.03L682.975 511.751ZM677.799 507.567L677.493 507.328L677.492 507.329L677.799 507.567ZM677.799 493.912L677.489 494.146L677.493 494.151L677.799 493.912ZM667.227 493.912L666.921 493.673L666.918 493.678L667.227 493.912ZM667.227 507.567L666.917 507.801L666.924 507.809L667.227 507.567ZM672.513 515.551V515.162C668.187 515.162 664.786 513.921 662.267 511.473L661.997 511.751L661.726 512.03C664.419 514.648 668.03 515.939 672.513 515.939V515.551ZM661.997 511.751L662.271 511.477C659.795 509.001 658.531 505.442 658.531 500.739H658.142H657.754C657.754 505.581 659.059 509.363 661.722 512.026L661.997 511.751ZM658.142 500.739H658.531C658.531 496.039 659.813 492.48 662.324 490.004L662.052 489.727L661.779 489.451C659.078 492.114 657.754 495.897 657.754 500.739H658.142ZM662.052 489.727L662.324 490.004C664.844 487.52 668.226 486.262 672.513 486.262V485.873V485.485C668.064 485.485 664.472 486.796 661.779 489.451L662.052 489.727ZM672.513 485.873V486.262C675.36 486.262 677.807 486.838 679.869 487.975L680.056 487.635L680.244 487.295C678.047 486.083 675.466 485.485 672.513 485.485V485.873ZM680.056 487.635L679.876 487.979C681.972 489.08 683.606 490.695 684.782 492.833L685.122 492.646L685.462 492.458C684.215 490.191 682.472 488.466 680.237 487.291L680.056 487.635ZM685.122 492.646L684.782 492.833C685.954 494.964 686.55 497.594 686.55 500.739H686.939H687.327C687.327 497.498 686.712 494.732 685.462 492.458L685.122 492.646ZM686.939 500.739H686.55C686.55 505.439 685.251 508.997 682.704 511.473L682.975 511.751L683.245 512.03C685.984 509.367 687.327 505.584 687.327 500.739H686.939ZM682.975 511.751L682.704 511.473C680.184 513.921 676.802 515.162 672.513 515.162V515.551V515.939C676.961 515.939 680.552 514.647 683.245 512.03L682.975 511.751ZM672.513 509.769V510.158C674.982 510.158 676.874 509.394 678.106 507.805L677.799 507.567L677.492 507.329C676.448 508.676 674.816 509.381 672.513 509.381V509.769ZM677.799 507.567L678.105 507.806C679.356 506.203 679.949 503.825 679.949 500.739H679.561H679.172C679.172 503.748 678.591 505.921 677.493 507.328L677.799 507.567ZM679.561 500.739H679.949C679.949 497.654 679.356 495.276 678.105 493.673L677.799 493.912L677.493 494.151C678.591 495.558 679.172 497.731 679.172 500.739H679.561ZM677.799 493.912L678.109 493.678C676.878 492.051 674.985 491.266 672.513 491.266V491.655V492.043C674.813 492.043 676.444 492.764 677.489 494.146L677.799 493.912ZM672.513 491.655V491.266C670.075 491.266 668.186 492.052 666.921 493.673L667.227 493.912L667.533 494.151C668.618 492.762 670.253 492.043 672.513 492.043V491.655ZM667.227 493.912L666.918 493.678C665.706 495.28 665.132 497.656 665.132 500.739H665.52H665.909C665.909 497.729 666.473 495.554 667.537 494.146L667.227 493.912ZM665.52 500.739H665.132C665.132 503.823 665.706 506.198 666.918 507.801L667.227 507.567L667.537 507.333C666.473 505.925 665.909 503.75 665.909 500.739H665.52ZM667.227 507.567L666.924 507.809C668.19 509.392 670.078 510.158 672.513 510.158V509.769V509.381C670.25 509.381 668.613 508.678 667.531 507.324L667.227 507.567ZM698.539 515V515.388H698.927V515H698.539ZM691.161 515H690.772V515.388H691.161V515ZM691.161 486.424V486.036H690.772V486.424H691.161ZM698.539 486.424L698.927 486.429L698.933 486.036H698.539V486.424ZM698.484 490.333L698.095 490.328L698.076 491.725L698.814 490.538L698.484 490.333ZM708.009 486.424H708.397V486.036H708.009V486.424ZM708.009 492.205V492.594H708.397V492.205H708.009ZM699.97 493.747L700.255 494.011V494.011L699.97 493.747ZM698.539 515V514.612H691.161V515V515.388H698.539V515ZM691.161 515H691.549V486.424H691.161H690.772V515H691.161ZM691.161 486.424V486.812H698.539V486.424V486.036H691.161V486.424ZM698.539 486.424L698.151 486.418L698.095 490.328L698.484 490.333L698.872 490.339L698.927 486.429L698.539 486.424ZM698.484 490.333L698.814 490.538C699.629 489.226 700.591 488.289 701.694 487.703L701.512 487.36L701.33 487.017C700.084 487.679 699.027 488.724 698.154 490.128L698.484 490.333ZM701.512 487.36L701.694 487.703C702.798 487.117 704.199 486.812 705.917 486.812V486.424V486.036C704.111 486.036 702.576 486.355 701.33 487.017L701.512 487.36ZM705.917 486.424V486.812H708.009V486.424V486.036H705.917V486.424ZM708.009 486.424H707.621V492.205H708.009H708.397V486.424H708.009ZM708.009 492.205V491.817H704.32V492.205V492.594H708.009V492.205ZM704.32 492.205V491.817C702.31 491.817 700.739 492.349 699.686 493.483L699.97 493.747L700.255 494.011C701.111 493.089 702.44 492.594 704.32 492.594V492.205ZM699.97 493.747L699.686 493.483C698.633 494.616 698.15 496.407 698.15 498.757H698.539H698.927C698.927 496.483 699.399 494.933 700.255 494.011L699.97 493.747ZM698.539 498.757H698.15V515H698.539H698.927V498.757H698.539ZM712.095 498.042V497.653H711.711L711.707 498.037L712.095 498.042ZM727.952 498.042V498.43H728.364L728.34 498.019L727.952 498.042ZM726.246 493.361L725.946 493.608L725.949 493.613L726.246 493.361ZM716.72 493.637L716.409 493.405L716.405 493.41L716.72 493.637ZM716.72 507.897L717.03 507.663V507.663L716.72 507.897ZM726.135 509.164L725.92 508.84L725.913 508.846L726.135 509.164ZM727.512 506.906V506.518H727.177L727.128 506.849L727.512 506.906ZM735.11 506.906L735.496 506.948L735.543 506.518H735.11V506.906ZM733.348 511.421L733.038 511.188L733.037 511.19L733.348 511.421ZM729.164 514.449L729.02 514.089L729.164 514.449ZM711.545 511.807L711.266 512.077L711.268 512.079L711.545 511.807ZM711.545 489.783L711.825 490.051L711.827 490.049L711.545 489.783ZM729.109 487.635L728.911 487.969L728.913 487.971L729.109 487.635ZM733.734 492.756L733.383 492.923L733.384 492.925L733.734 492.756ZM735.331 503.052V503.44H735.719V503.052H735.331ZM712.04 503.052L711.652 503.048L711.648 503.44H712.04V503.052ZM712.095 498.042V498.43H727.952V498.042V497.653H712.095V498.042ZM727.952 498.042L728.34 498.019C728.226 496.044 727.634 494.398 726.542 493.11L726.246 493.361L725.949 493.613C726.912 494.747 727.458 496.222 727.565 498.064L727.952 498.042ZM726.246 493.361L726.545 493.115C725.43 491.76 723.842 491.101 721.841 491.101V491.489V491.878C723.657 491.878 725.005 492.466 725.946 493.608L726.246 493.361ZM721.841 491.489V491.101C719.411 491.101 717.568 491.845 716.409 493.405L716.72 493.637L717.032 493.868C718.001 492.565 719.572 491.878 721.841 491.878V491.489ZM716.72 493.637L716.405 493.41C715.303 494.945 714.79 497.455 714.79 500.85H715.179H715.567C715.567 497.491 716.082 495.191 717.036 493.863L716.72 493.637ZM715.179 500.85H714.79C714.79 504.206 715.302 506.666 716.411 508.132L716.72 507.897L717.03 507.663C716.083 506.412 715.567 504.174 715.567 500.85H715.179ZM716.72 507.897L716.411 508.132C717.545 509.631 719.53 510.323 722.226 510.323V509.934V509.546C719.637 509.546 717.951 508.88 717.03 507.663L716.72 507.897ZM722.226 509.934V510.323C724.107 510.323 725.518 510.07 726.358 509.482L726.135 509.164L725.913 508.846C725.284 509.285 724.089 509.546 722.226 509.546V509.934ZM726.135 509.164L726.351 509.487C727.221 508.907 727.735 508.053 727.896 506.963L727.512 506.906L727.128 506.849C726.996 507.742 726.592 508.393 725.92 508.841L726.135 509.164ZM727.512 506.906V507.295H735.11V506.906V506.518H727.512V506.906ZM735.11 506.906L734.724 506.864C734.548 508.485 733.986 509.924 733.038 511.188L733.348 511.421L733.659 511.654C734.693 510.275 735.305 508.704 735.496 506.948L735.11 506.906ZM733.348 511.421L733.037 511.19C732.134 512.404 730.804 513.375 729.02 514.089L729.164 514.449L729.308 514.81C731.194 514.055 732.654 513.007 733.66 511.653L733.348 511.421ZM729.164 514.449L729.02 514.089C727.245 514.799 724.985 515.162 722.226 515.162V515.551V515.939C725.047 515.939 727.412 515.568 729.308 514.81L729.164 514.449ZM722.226 515.551V515.162C717.633 515.162 714.186 513.934 711.821 511.534L711.545 511.807L711.268 512.079C713.822 514.671 717.496 515.939 722.226 515.939V515.551ZM711.545 511.807L711.823 511.536C709.456 509.098 708.244 505.557 708.244 500.85H707.856H707.467C707.467 505.686 708.714 509.449 711.266 512.077L711.545 511.807ZM707.856 500.85H708.244C708.244 496.105 709.456 492.526 711.825 490.051L711.545 489.783L711.264 489.514C708.714 492.178 707.467 495.977 707.467 500.85H707.856ZM711.545 489.783L711.827 490.049C714.197 487.538 717.517 486.262 721.841 486.262V485.873V485.485C717.355 485.485 713.811 486.815 711.262 489.516L711.545 489.783ZM721.841 485.873V486.262C724.651 486.262 727.001 486.838 728.911 487.969L729.109 487.635L729.307 487.301C727.252 486.083 724.757 485.485 721.841 485.485V485.873ZM729.109 487.635L728.913 487.971C730.86 489.104 732.35 490.749 733.383 492.923L733.734 492.756L734.085 492.589C732.989 490.284 731.395 488.516 729.304 487.3L729.109 487.635ZM733.734 492.756L733.384 492.925C734.417 495.061 734.942 497.697 734.942 500.85H735.331H735.719C735.719 497.615 735.18 494.855 734.083 492.587L733.734 492.756ZM735.331 500.85H734.942V503.052H735.331H735.719V500.85H735.331ZM735.331 503.052V502.664H712.04V503.052V503.44H735.331V503.052ZM712.04 503.052L712.428 503.056L712.484 498.046L712.095 498.042L711.707 498.037L711.652 503.048L712.04 503.052Z" fill="#FFFAEE"/>
<path d="M448.4 521.317C445.684 521.317 443.06 520.859 440.527 519.941C437.994 519.023 435.718 517.702 433.699 515.977C431.717 514.215 430.139 512.067 428.964 509.535C427.79 506.965 427.202 504.065 427.202 500.835C427.202 497.605 427.79 494.724 428.964 492.191C430.139 489.658 431.717 487.511 433.699 485.749C435.718 483.987 437.994 482.647 440.527 481.729C443.06 480.812 445.684 480.353 448.4 480.353C451.117 480.353 453.723 480.812 456.219 481.729C458.752 482.647 461.009 483.987 462.991 485.749C465.01 487.511 466.607 489.658 467.782 492.191C468.956 494.724 469.544 497.605 469.544 500.835C469.544 504.065 468.956 506.965 467.782 509.535C466.607 512.067 465.01 514.215 462.991 515.977C461.009 517.702 458.752 519.023 456.219 519.941C453.723 520.859 451.117 521.317 448.4 521.317ZM448.4 517.133C450.566 517.133 452.64 516.784 454.622 516.087C456.604 515.353 458.366 514.288 459.908 512.893C461.45 511.498 462.661 509.792 463.542 507.773C464.46 505.754 464.918 503.441 464.918 500.835C464.918 498.229 464.46 495.916 463.542 493.898C462.661 491.879 461.45 490.172 459.908 488.777C458.366 487.382 456.604 486.336 454.622 485.639C452.64 484.904 450.566 484.537 448.4 484.537C446.235 484.537 444.143 484.904 442.124 485.639C440.141 486.336 438.361 487.382 436.783 488.777C435.241 490.172 434.011 491.879 433.094 493.898C432.213 495.916 431.772 498.229 431.772 500.835C431.772 503.441 432.213 505.754 433.094 507.773C434.011 509.792 435.241 511.498 436.783 512.893C438.361 514.288 440.141 515.353 442.124 516.087C444.143 516.784 446.235 517.133 448.4 517.133ZM448.676 511.682C445.079 511.682 442.344 510.691 440.472 508.709C438.637 506.727 437.719 504.102 437.719 500.835C437.719 497.568 438.655 494.944 440.527 492.962C442.399 490.979 445.079 489.988 448.566 489.988C450.401 489.988 452.053 490.337 453.521 491.034C454.989 491.732 456.164 492.668 457.045 493.843C457.926 495.017 458.366 496.357 458.366 497.862H452.97C452.97 496.981 452.64 496.21 451.979 495.549C451.319 494.852 450.199 494.503 448.621 494.503C446.492 494.503 445.042 495.054 444.271 496.155C443.537 497.22 443.17 498.78 443.17 500.835C443.17 502.891 443.537 504.469 444.271 505.57C445.042 506.635 446.492 507.167 448.621 507.167C450.162 507.167 451.282 506.873 451.979 506.286C452.677 505.699 453.044 504.891 453.081 503.863H458.476C458.476 505.185 458.073 506.451 457.265 507.663C456.458 508.837 455.32 509.81 453.851 510.581C452.42 511.315 450.695 511.682 448.676 511.682Z" fill="#FFFAEE"/>
<path d="M440.527 519.941L440.395 520.306V520.306L440.527 519.941ZM433.699 515.977L433.441 516.267L433.447 516.272L433.699 515.977ZM428.964 509.535L428.611 509.696L428.612 509.698L428.964 509.535ZM428.964 492.191L429.317 492.354V492.354L428.964 492.191ZM433.699 485.749L433.444 485.456L433.441 485.458L433.699 485.749ZM440.527 481.729L440.659 482.094V482.094L440.527 481.729ZM456.219 481.729L456.085 482.094L456.087 482.094L456.219 481.729ZM462.991 485.749L462.733 486.039L462.736 486.041L462.991 485.749ZM467.782 492.191L467.429 492.354V492.354L467.782 492.191ZM467.782 509.535L468.134 509.698L468.135 509.696L467.782 509.535ZM462.991 515.977L463.246 516.27L463.247 516.269L462.991 515.977ZM456.219 519.941L456.087 519.576L456.085 519.576L456.219 519.941ZM454.622 516.087L454.751 516.453L454.757 516.451L454.622 516.087ZM459.908 512.893L459.647 512.605V512.605L459.908 512.893ZM463.542 507.773L463.188 507.612L463.186 507.617L463.542 507.773ZM463.542 493.898L463.186 494.053L463.188 494.058L463.542 493.898ZM459.908 488.777L460.169 488.489V488.489L459.908 488.777ZM454.622 485.639L454.487 486.003L454.493 486.005L454.622 485.639ZM442.124 485.639L442.253 486.005L442.256 486.004L442.124 485.639ZM436.783 488.777L436.526 488.486L436.522 488.489L436.783 488.777ZM433.094 493.898L432.74 493.737L432.738 493.742L433.094 493.898ZM433.094 507.773L432.738 507.928L432.74 507.933L433.094 507.773ZM436.783 512.893L436.522 513.181L436.526 513.184L436.783 512.893ZM442.124 516.087L441.989 516.451L441.997 516.454L442.124 516.087ZM440.472 508.709L440.187 508.973L440.19 508.975L440.472 508.709ZM440.527 492.962L440.809 493.228V493.228L440.527 492.962ZM453.521 491.034L453.354 491.385V491.385L453.521 491.034ZM457.045 493.843L456.734 494.076V494.076L457.045 493.843ZM458.366 497.862V498.25H458.755V497.862H458.366ZM452.97 497.862H452.582V498.25H452.97V497.862ZM451.979 495.549L451.697 495.817L451.705 495.824L451.979 495.549ZM444.271 496.155L443.953 495.932L443.951 495.935L444.271 496.155ZM444.271 505.57L443.948 505.786L443.952 505.792L443.956 505.798L444.271 505.57ZM451.979 506.286L452.23 506.583V506.583L451.979 506.286ZM453.081 503.863V503.475H452.706L452.693 503.85L453.081 503.863ZM458.476 503.863H458.865V503.475H458.476V503.863ZM457.265 507.663L457.585 507.883L457.588 507.878L457.265 507.663ZM453.851 510.581L454.029 510.926L454.032 510.925L453.851 510.581ZM448.4 521.317V520.929C445.729 520.929 443.149 520.478 440.659 519.576L440.527 519.941L440.395 520.306C442.97 521.239 445.639 521.706 448.4 521.706V521.317ZM440.527 519.941L440.659 519.576C438.17 518.674 435.935 517.376 433.952 515.681L433.699 515.977L433.447 516.272C435.502 518.028 437.819 519.373 440.395 520.306L440.527 519.941ZM433.699 515.977L433.957 515.686C432.017 513.962 430.47 511.858 429.317 509.371L428.964 509.535L428.612 509.698C429.808 512.277 431.417 514.468 433.441 516.267L433.699 515.977ZM428.964 509.535L429.318 509.373C428.169 506.861 427.591 504.018 427.591 500.835H427.202H426.814C426.814 504.113 427.41 507.069 428.611 509.696L428.964 509.535ZM427.202 500.835H427.591C427.591 497.653 428.169 494.828 429.317 492.354L428.964 492.191L428.612 492.027C427.41 494.619 426.814 497.557 426.814 500.835H427.202ZM428.964 492.191L429.317 492.354C430.47 489.867 432.017 487.764 433.957 486.039L433.699 485.749L433.441 485.458C431.417 487.258 429.808 489.449 428.612 492.027L428.964 492.191ZM433.699 485.749L433.955 486.041C435.937 484.311 438.171 482.996 440.659 482.094L440.527 481.729L440.395 481.364C437.817 482.298 435.499 483.662 433.444 485.456L433.699 485.749ZM440.527 481.729L440.659 482.094C443.149 481.192 445.729 480.741 448.4 480.741V480.353V479.965C445.639 479.965 442.97 480.431 440.395 481.364L440.527 481.729ZM448.4 480.353V480.741C451.072 480.741 453.633 481.192 456.085 482.094L456.219 481.729L456.353 481.365C453.813 480.431 451.162 479.965 448.4 479.965V480.353ZM456.219 481.729L456.087 482.094C458.574 482.996 460.789 484.31 462.733 486.039L462.991 485.749L463.249 485.458C461.23 483.663 458.93 482.298 456.351 481.364L456.219 481.729ZM462.991 485.749L462.736 486.041C464.712 487.766 466.277 489.869 467.429 492.354L467.782 492.191L468.134 492.027C466.937 489.447 465.308 487.255 463.247 485.456L462.991 485.749ZM467.782 492.191L467.429 492.354C468.577 494.828 469.155 497.653 469.155 500.835H469.544H469.932C469.932 497.557 469.336 494.619 468.134 492.027L467.782 492.191ZM469.544 500.835H469.155C469.155 504.018 468.577 506.861 467.428 509.373L467.782 509.535L468.135 509.696C469.336 507.069 469.932 504.113 469.932 500.835H469.544ZM467.782 509.535L467.429 509.371C466.277 511.857 464.712 513.959 462.736 515.684L462.991 515.977L463.247 516.269C465.308 514.47 466.937 512.278 468.134 509.698L467.782 509.535ZM462.991 515.977L462.736 515.684C460.791 517.377 458.576 518.674 456.087 519.576L456.219 519.941L456.351 520.306C458.928 519.373 461.227 518.027 463.246 516.27L462.991 515.977ZM456.219 519.941L456.085 519.576C453.633 520.478 451.072 520.929 448.4 520.929V521.317V521.706C451.162 521.706 453.813 521.239 456.353 520.305L456.219 519.941ZM448.4 517.133V517.521C450.609 517.521 452.726 517.166 454.751 516.453L454.622 516.087L454.493 515.72C452.554 516.403 450.524 516.745 448.4 516.745V517.133ZM454.622 516.087L454.757 516.451C456.785 515.7 458.59 514.61 460.169 513.181L459.908 512.893L459.647 512.605C458.143 513.966 456.424 515.005 454.487 515.723L454.622 516.087ZM459.908 512.893L460.169 513.181C461.753 511.747 462.996 509.994 463.898 507.928L463.542 507.773L463.186 507.617C462.326 509.589 461.146 511.25 459.647 512.605L459.908 512.893ZM463.542 507.773L463.896 507.933C464.84 505.856 465.307 503.487 465.307 500.835H464.918H464.53C464.53 503.396 464.08 505.652 463.188 507.612L463.542 507.773ZM464.918 500.835H465.307C465.307 498.183 464.84 495.814 463.896 493.737L463.542 493.898L463.188 494.058C464.08 496.019 464.53 498.275 464.53 500.835H464.918ZM463.542 493.898L463.898 493.742C462.996 491.676 461.753 489.923 460.169 488.489L459.908 488.777L459.647 489.065C461.146 490.421 462.326 492.081 463.186 494.053L463.542 493.898ZM459.908 488.777L460.169 488.489C458.588 487.059 456.781 485.987 454.751 485.272L454.622 485.639L454.493 486.005C456.427 486.685 458.144 487.705 459.647 489.065L459.908 488.777ZM454.622 485.639L454.757 485.274C452.731 484.524 450.611 484.149 448.4 484.149V484.537V484.926C450.521 484.926 452.549 485.285 454.487 486.003L454.622 485.639ZM448.4 484.537V484.149C446.19 484.149 444.053 484.524 441.991 485.274L442.124 485.639L442.256 486.004C444.232 485.285 446.28 484.926 448.4 484.926V484.537ZM442.124 485.639L441.995 485.272C439.965 485.986 438.141 487.058 436.526 488.486L436.783 488.777L437.04 489.068C438.581 487.706 440.318 486.686 442.253 486.005L442.124 485.639ZM436.783 488.777L436.522 488.489C434.939 489.922 433.678 491.673 432.74 493.737L433.094 493.898L433.447 494.058C434.345 492.085 435.544 490.422 437.043 489.065L436.783 488.777ZM433.094 493.898L432.738 493.742C431.832 495.818 431.384 498.185 431.384 500.835H431.772H432.161C432.161 498.273 432.594 496.015 433.45 494.053L433.094 493.898ZM431.772 500.835H431.384C431.384 503.485 431.832 505.852 432.738 507.928L433.094 507.773L433.45 507.617C432.594 505.656 432.161 503.398 432.161 500.835H431.772ZM433.094 507.773L432.74 507.933C433.678 509.997 434.939 511.748 436.522 513.181L436.783 512.893L437.043 512.605C435.544 511.248 434.345 509.586 433.447 507.612L433.094 507.773ZM436.783 512.893L436.526 513.184C438.14 514.611 439.962 515.7 441.989 516.451L442.124 516.087L442.259 515.723C440.321 515.005 438.582 513.965 437.04 512.602L436.783 512.893ZM442.124 516.087L441.997 516.454C444.057 517.166 446.192 517.521 448.4 517.521V517.133V516.745C446.277 516.745 444.228 516.403 442.25 515.72L442.124 516.087ZM448.676 511.682V511.294C445.15 511.294 442.531 510.324 440.754 508.442L440.472 508.709L440.19 508.975C442.156 511.058 445.007 512.07 448.676 512.07V511.682ZM440.472 508.709L440.757 508.445C439.001 506.549 438.107 504.026 438.107 500.835H437.719H437.331C437.331 504.178 438.272 506.904 440.187 508.973L440.472 508.709ZM437.719 500.835H438.107C438.107 497.647 439.018 495.124 440.809 493.228L440.527 492.962L440.245 492.695C438.291 494.763 437.331 497.49 437.331 500.835H437.719ZM440.527 492.962L440.809 493.228C442.589 491.344 445.154 490.377 448.566 490.377V489.988V489.6C445.003 489.6 442.209 490.615 440.245 492.695L440.527 492.962ZM448.566 489.988V490.377C450.351 490.377 451.945 490.716 453.354 491.385L453.521 491.034L453.688 490.684C452.161 489.959 450.451 489.6 448.566 489.6V489.988ZM453.521 491.034L453.354 491.385C454.772 492.059 455.895 492.957 456.734 494.076L457.045 493.843L457.356 493.61C456.433 492.379 455.207 491.405 453.688 490.684L453.521 491.034ZM457.045 493.843L456.734 494.076C457.563 495.181 457.978 496.439 457.978 497.862H458.366H458.755C458.755 496.275 458.288 494.853 457.356 493.61L457.045 493.843ZM458.366 497.862V497.474H452.97V497.862V498.25H458.366V497.862ZM452.97 497.862H453.359C453.359 496.871 452.983 496.003 452.254 495.275L451.979 495.549L451.705 495.824C452.298 496.417 452.582 497.091 452.582 497.862H452.97ZM451.979 495.549L452.261 495.282C451.492 494.47 450.24 494.115 448.621 494.115V494.503V494.892C450.158 494.892 451.146 495.234 451.697 495.816L451.979 495.549ZM448.621 494.503V494.115C446.441 494.115 444.831 494.678 443.953 495.932L444.271 496.155L444.589 496.378C445.253 495.43 446.543 494.892 448.621 494.892V494.503ZM444.271 496.155L443.951 495.935C443.153 497.092 442.781 498.744 442.781 500.835H443.17H443.558C443.558 498.816 443.921 497.347 444.591 496.376L444.271 496.155ZM443.17 500.835H442.781C442.781 502.928 443.154 504.594 443.948 505.786L444.271 505.57L444.594 505.355C443.92 504.344 443.558 502.853 443.558 500.835H443.17ZM444.271 505.57L443.956 505.798C444.836 507.013 446.445 507.555 448.621 507.555V507.167V506.779C446.538 506.779 445.247 506.256 444.586 505.343L444.271 505.57ZM448.621 507.167V507.555C450.196 507.555 451.428 507.258 452.23 506.583L451.979 506.286L451.729 505.989C451.136 506.489 450.129 506.779 448.621 506.779V507.167ZM451.979 506.286L452.23 506.583C453.022 505.916 453.429 504.999 453.469 503.877L453.081 503.863L452.693 503.85C452.659 504.783 452.332 505.482 451.729 505.989L451.979 506.286ZM453.081 503.863V504.252H458.476V503.863V503.475H453.081V503.863ZM458.476 503.863H458.088C458.088 505.101 457.712 506.293 456.942 507.447L457.265 507.663L457.588 507.878C458.434 506.61 458.865 505.269 458.865 503.863H458.476ZM457.265 507.663L456.945 507.443C456.179 508.557 455.092 509.491 453.671 510.237L453.851 510.581L454.032 510.925C455.547 510.129 456.736 509.117 457.585 507.883L457.265 507.663ZM453.851 510.581L453.674 510.235C452.31 510.935 450.648 511.294 448.676 511.294V511.682V512.07C450.741 512.07 452.53 511.695 454.029 510.926L453.851 510.581Z" fill="#FFFAEE"/>
<path d="M464 490H462.8V476.66L463.22 476.76L459.2 479.48V478.22L462.66 475.86H464V490ZM478.886 490.2C477.726 490.2 476.779 489.94 476.046 489.42C475.326 488.887 474.799 488.087 474.466 487.02C474.132 485.94 473.966 484.573 473.966 482.92C473.966 481.267 474.132 479.907 474.466 478.84C474.812 477.773 475.346 476.98 476.066 476.46C476.799 475.927 477.739 475.66 478.886 475.66C480.046 475.66 480.986 475.927 481.706 476.46C482.439 476.98 482.972 477.773 483.306 478.84C483.652 479.907 483.826 481.267 483.826 482.92C483.826 484.56 483.652 485.92 483.306 487C482.972 488.08 482.439 488.887 481.706 489.42C480.986 489.94 480.046 490.2 478.886 490.2ZM478.886 489.16C480.246 489.16 481.212 488.647 481.786 487.62C482.359 486.593 482.646 485.027 482.646 482.92C482.646 480.813 482.359 479.253 481.786 478.24C481.212 477.213 480.246 476.7 478.886 476.7C477.539 476.7 476.579 477.213 476.006 478.24C475.432 479.253 475.146 480.813 475.146 482.92C475.146 485.027 475.426 486.593 475.986 487.62C476.559 488.647 477.526 489.16 478.886 489.16ZM495.941 490.2C494.781 490.2 493.834 489.94 493.101 489.42C492.381 488.887 491.854 488.087 491.521 487.02C491.188 485.94 491.021 484.573 491.021 482.92C491.021 481.267 491.188 479.907 491.521 478.84C491.868 477.773 492.401 476.98 493.121 476.46C493.854 475.927 494.794 475.66 495.941 475.66C497.101 475.66 498.041 475.927 498.761 476.46C499.494 476.98 500.028 477.773 500.361 478.84C500.708 479.907 500.881 481.267 500.881 482.92C500.881 484.56 500.708 485.92 500.361 487C500.028 488.08 499.494 488.887 498.761 489.42C498.041 489.94 497.101 490.2 495.941 490.2ZM495.941 489.16C497.301 489.16 498.268 488.647 498.841 487.62C499.414 486.593 499.701 485.027 499.701 482.92C499.701 480.813 499.414 479.253 498.841 478.24C498.268 477.213 497.301 476.7 495.941 476.7C494.594 476.7 493.634 477.213 493.061 478.24C492.488 479.253 492.201 480.813 492.201 482.92C492.201 485.027 492.481 486.593 493.041 487.62C493.614 488.647 494.581 489.16 495.941 489.16ZM511.217 481.56C510.443 481.56 509.79 481.34 509.257 480.9C508.737 480.447 508.477 479.68 508.477 478.6C508.477 477.533 508.743 476.78 509.277 476.34C509.81 475.887 510.457 475.66 511.217 475.66C511.99 475.66 512.637 475.887 513.157 476.34C513.677 476.78 513.937 477.533 513.937 478.6C513.937 479.68 513.67 480.447 513.137 480.9C512.617 481.34 511.977 481.56 511.217 481.56ZM509.417 478.6C509.417 479.413 509.59 479.967 509.937 480.26C510.297 480.553 510.723 480.7 511.217 480.7C511.71 480.7 512.13 480.553 512.477 480.26C512.823 479.967 512.997 479.413 512.997 478.6C512.997 477.787 512.823 477.233 512.477 476.94C512.13 476.647 511.71 476.5 511.217 476.5C510.737 476.513 510.317 476.667 509.957 476.96C509.597 477.24 509.417 477.787 509.417 478.6ZM519.637 475.76H520.857L511.097 490H509.877L519.637 475.76ZM516.797 487.24C516.797 486.52 516.917 485.947 517.157 485.52C517.397 485.093 517.723 484.78 518.137 484.58C518.563 484.38 519.03 484.28 519.537 484.28C520.31 484.293 520.957 484.527 521.477 484.98C521.997 485.42 522.257 486.173 522.257 487.24C522.257 488.307 521.99 489.067 521.457 489.52C520.937 489.973 520.297 490.2 519.537 490.2C518.763 490.2 518.117 489.973 517.597 489.52C517.077 489.067 516.81 488.307 516.797 487.24ZM517.737 487.24C517.737 488.053 517.91 488.607 518.257 488.9C518.617 489.193 519.043 489.34 519.537 489.34C520.017 489.34 520.43 489.193 520.777 488.9C521.137 488.607 521.317 488.053 521.317 487.24C521.317 486.413 521.143 485.86 520.797 485.58C520.45 485.287 520.03 485.14 519.537 485.14C519.057 485.153 518.637 485.3 518.277 485.58C517.917 485.86 517.737 486.413 517.737 487.24Z" fill="#FFFAEE"/>
<path d="M571.53 513.879L566.379 521.258L566.182 520.818H573.606V521.606H565.652V520.848L570.955 513.288H572.106V524H571.212V513.773L571.53 513.879ZM584.793 524.152C583.914 524.152 583.197 523.955 582.642 523.561C582.096 523.157 581.697 522.551 581.445 521.742C581.192 520.924 581.066 519.889 581.066 518.636C581.066 517.384 581.192 516.354 581.445 515.545C581.707 514.737 582.111 514.136 582.657 513.742C583.212 513.338 583.925 513.136 584.793 513.136C585.672 513.136 586.384 513.338 586.93 513.742C587.485 514.136 587.889 514.737 588.142 515.545C588.404 516.354 588.536 517.384 588.536 518.636C588.536 519.879 588.404 520.909 588.142 521.727C587.889 522.545 587.485 523.157 586.93 523.561C586.384 523.955 585.672 524.152 584.793 524.152ZM584.793 523.364C585.824 523.364 586.556 522.975 586.99 522.197C587.425 521.419 587.642 520.232 587.642 518.636C587.642 517.04 587.425 515.859 586.99 515.091C586.556 514.313 585.824 513.924 584.793 513.924C583.773 513.924 583.046 514.313 582.611 515.091C582.177 515.859 581.96 517.04 581.96 518.636C581.96 520.232 582.172 521.419 582.596 522.197C583.031 522.975 583.763 523.364 584.793 523.364ZM598.593 518.212C597.815 518.212 597.204 517.97 596.759 517.485C596.325 516.99 596.108 516.379 596.108 515.652C596.108 514.914 596.325 514.303 596.759 513.818C597.204 513.333 597.815 513.091 598.593 513.091C599.381 513.091 599.992 513.333 600.426 513.818C600.871 514.303 601.093 514.914 601.093 515.652C601.093 516.379 600.871 516.99 600.426 517.485C599.992 517.97 599.381 518.212 598.593 518.212ZM598.593 517.545C599.158 517.545 599.593 517.369 599.896 517.015C600.209 516.652 600.366 516.197 600.366 515.652C600.366 515.116 600.209 514.672 599.896 514.318C599.593 513.955 599.158 513.773 598.593 513.773C598.037 513.773 597.603 513.955 597.29 514.318C596.987 514.672 596.835 515.116 596.835 515.652C596.835 516.197 596.987 516.652 597.29 517.015C597.603 517.369 598.037 517.545 598.593 517.545ZM624.226 513.879L619.075 521.258L618.878 520.818H626.302V521.606H618.347V520.848L623.65 513.288H624.802V524H623.908V513.773L624.226 513.879ZM639.535 513.879L634.383 521.258L634.186 520.818H641.61V521.606H633.656V520.848L638.959 513.288H640.11V524H639.216V513.773L639.535 513.879ZM650.313 516.333H649.601V512.409H650.419L650.313 516.333ZM674.096 513.879L668.944 521.258L668.748 520.818H676.172V521.606H668.217V520.848L673.52 513.288H674.672V524H673.778V513.773L674.096 513.879ZM687.359 524.152C686.48 524.152 685.763 523.955 685.207 523.561C684.662 523.157 684.263 522.551 684.01 521.742C683.758 520.924 683.632 519.889 683.632 518.636C683.632 517.384 683.758 516.354 684.01 515.545C684.273 514.737 684.677 514.136 685.223 513.742C685.778 513.338 686.49 513.136 687.359 513.136C688.238 513.136 688.95 513.338 689.495 513.742C690.051 514.136 690.455 514.737 690.707 515.545C690.97 516.354 691.101 517.384 691.101 518.636C691.101 519.879 690.97 520.909 690.707 521.727C690.455 522.545 690.051 523.157 689.495 523.561C688.95 523.955 688.238 524.152 687.359 524.152ZM687.359 523.364C688.389 523.364 689.122 522.975 689.556 522.197C689.99 521.419 690.207 520.232 690.207 518.636C690.207 517.04 689.99 515.859 689.556 515.091C689.122 514.313 688.389 513.924 687.359 513.924C686.339 513.924 685.611 514.313 685.177 515.091C684.743 515.859 684.526 517.04 684.526 518.636C684.526 520.232 684.738 521.419 685.162 522.197C685.596 522.975 686.329 523.364 687.359 523.364ZM699.962 516.333H699.234V512.409H700.083L699.962 516.333ZM702.568 516.333H701.84V512.409H702.689L702.568 516.333ZM729.211 524H728.195L722.211 514.803H722.089V524H721.195V513.288H722.226L728.195 522.47H728.317V513.288H729.211V524ZM571.682 531.652L571.909 532.076H565.621V531.288H572.439V532L567.455 542H566.47L571.682 531.652ZM583.492 542.152C582.795 542.152 582.184 542.045 581.659 541.833C581.144 541.621 580.74 541.298 580.447 540.864C580.154 540.429 579.987 539.884 579.947 539.227H580.932C580.952 539.702 581.068 540.101 581.28 540.424C581.502 540.737 581.8 540.975 582.174 541.136C582.548 541.288 582.992 541.364 583.507 541.364C584.295 541.364 584.932 541.152 585.416 540.727C585.901 540.293 586.144 539.672 586.144 538.864C586.144 538.086 585.906 537.48 585.432 537.045C584.967 536.611 584.315 536.394 583.477 536.394H582.295L582.28 535.742L585.932 531.727L586.007 532.076H580.386V531.288H586.795V532.015L583.295 535.848V535.621C584.043 535.611 584.659 535.707 585.144 535.909C585.629 536.101 586.007 536.364 586.28 536.697C586.563 537.02 586.76 537.374 586.871 537.758C586.992 538.131 587.053 538.5 587.053 538.864C587.053 539.571 586.906 540.172 586.613 540.667C586.32 541.152 585.906 541.52 585.371 541.773C584.846 542.025 584.219 542.152 583.492 542.152ZM597.276 536.212C596.498 536.212 595.887 535.97 595.443 535.485C595.008 534.99 594.791 534.379 594.791 533.652C594.791 532.914 595.008 532.303 595.443 531.818C595.887 531.333 596.498 531.091 597.276 531.091C598.064 531.091 598.675 531.333 599.109 531.818C599.554 532.303 599.776 532.914 599.776 533.652C599.776 534.379 599.554 534.99 599.109 535.485C598.675 535.97 598.064 536.212 597.276 536.212ZM597.276 535.545C597.842 535.545 598.276 535.369 598.579 535.015C598.892 534.652 599.049 534.197 599.049 533.652C599.049 533.116 598.892 532.672 598.579 532.318C598.276 531.955 597.842 531.773 597.276 531.773C596.72 531.773 596.286 531.955 595.973 532.318C595.67 532.672 595.518 533.116 595.518 533.652C595.518 534.197 595.67 534.652 595.973 535.015C596.286 535.369 596.72 535.545 597.276 535.545ZM620.894 542.152C620.207 542.152 619.611 542.045 619.106 541.833C618.601 541.611 618.207 541.293 617.924 540.879C617.642 540.465 617.48 539.965 617.44 539.379H618.364C618.404 540.035 618.647 540.53 619.091 540.864C619.536 541.197 620.137 541.364 620.894 541.364C621.793 541.364 622.45 541.116 622.864 540.621C623.288 540.116 623.5 539.495 623.5 538.758C623.5 538.263 623.414 537.818 623.243 537.424C623.081 537.02 622.813 536.702 622.44 536.47C622.066 536.227 621.566 536.106 620.94 536.106C620.394 536.096 619.924 536.197 619.531 536.409C619.147 536.611 618.839 536.899 618.606 537.273H617.652L618.364 531.288H623.879V532.076H619.152L618.652 536.333H618.697C618.899 536.01 619.192 535.763 619.576 535.591C619.96 535.409 620.389 535.318 620.864 535.318C621.642 535.318 622.288 535.47 622.803 535.773C623.329 536.076 623.722 536.485 623.985 537C624.258 537.505 624.394 538.081 624.394 538.727C624.394 539.394 624.253 539.985 623.97 540.5C623.687 541.015 623.283 541.419 622.758 541.712C622.243 542.005 621.621 542.152 620.894 542.152ZM635.802 542.152C634.519 542.152 633.579 541.894 632.983 541.379C632.398 540.864 632.105 540.146 632.105 539.227C632.115 538.732 632.206 538.288 632.377 537.894C632.559 537.5 632.812 537.177 633.135 536.924C633.468 536.672 633.847 536.51 634.271 536.439V536.379C633.716 536.237 633.281 535.949 632.968 535.515C632.665 535.071 632.514 534.535 632.514 533.909C632.514 533.374 632.63 532.899 632.862 532.485C633.105 532.061 633.468 531.732 633.953 531.5C634.448 531.258 635.064 531.136 635.802 531.136C636.539 531.136 637.15 531.258 637.635 531.5C638.12 531.732 638.478 532.061 638.711 532.485C638.953 532.899 639.069 533.374 639.059 533.909C639.049 534.525 638.893 535.056 638.589 535.5C638.286 535.944 637.857 536.237 637.302 536.379V536.439C637.726 536.51 638.105 536.672 638.438 536.924C638.771 537.177 639.029 537.5 639.211 537.894C639.403 538.288 639.499 538.732 639.499 539.227C639.499 539.843 639.367 540.369 639.105 540.803C638.842 541.237 638.438 541.571 637.893 541.803C637.347 542.035 636.65 542.152 635.802 542.152ZM635.802 541.364C636.771 541.364 637.483 541.162 637.938 540.758C638.393 540.354 638.62 539.803 638.62 539.106C638.62 538.419 638.377 537.874 637.893 537.47C637.408 537.066 636.711 536.864 635.802 536.864C634.882 536.864 634.18 537.066 633.696 537.47C633.221 537.874 632.983 538.419 632.983 539.106C632.983 539.803 633.211 540.354 633.665 540.758C634.12 541.162 634.832 541.364 635.802 541.364ZM635.802 536.076C636.589 536.076 637.185 535.894 637.589 535.53C638.004 535.157 638.211 534.652 638.211 534.015C638.211 533.369 638.009 532.859 637.605 532.485C637.211 532.111 636.61 531.924 635.802 531.924C634.983 531.924 634.377 532.111 633.983 532.485C633.589 532.859 633.393 533.369 633.393 534.015C633.393 534.652 633.595 535.157 633.999 535.53C634.403 535.894 635.004 536.076 635.802 536.076ZM648.315 534.333H647.603V530.409H648.421L648.315 534.333ZM672.098 531.879L666.947 539.258L666.75 538.818H674.174V539.606H666.22V538.848L671.523 531.288H672.674V542H671.78V531.773L672.098 531.879ZM681.74 541.258L685.407 537.333C685.871 536.838 686.25 536.404 686.543 536.03C686.836 535.646 687.053 535.293 687.195 534.97C687.346 534.636 687.422 534.298 687.422 533.955C687.422 533.298 687.21 532.798 686.786 532.455C686.361 532.101 685.796 531.924 685.089 531.924C684.382 531.924 683.801 532.136 683.346 532.561C682.892 532.975 682.675 533.545 682.695 534.273H681.816C681.806 533.616 681.942 533.056 682.225 532.591C682.508 532.126 682.902 531.768 683.407 531.515C683.912 531.263 684.488 531.136 685.134 531.136C685.811 531.136 686.382 531.253 686.846 531.485C687.321 531.707 687.685 532.03 687.937 532.455C688.19 532.869 688.316 533.369 688.316 533.955C688.316 534.338 688.25 534.712 688.119 535.076C687.988 535.429 687.745 535.838 687.392 536.303C687.048 536.758 686.548 537.333 685.892 538.03L682.437 541.727L682.498 541.212H688.452V542H681.74V541.258ZM697.417 534.333H696.689V530.409H697.538L697.417 534.333ZM700.023 534.333H699.295V530.409H700.144L700.023 534.333ZM717.681 531.288H718.635L721.15 540.848H721.211L723.741 531.288H724.893L727.469 540.848H727.529L730.044 531.288H730.999L728.12 542H726.999L724.378 532.5H724.257L721.666 542H720.529L717.681 531.288Z" fill="#FFFAEE"/>
<path d="M347.97 519.14L350.73 524H349.725L347.07 519.305L347.97 519.14ZM346.8 518.855C347.51 518.855 348.06 518.765 348.45 518.585C348.84 518.405 349.115 518.14 349.275 517.79C349.435 517.44 349.515 517.01 349.515 516.5C349.515 515.98 349.435 515.55 349.275 515.21C349.115 514.87 348.84 514.615 348.45 514.445C348.06 514.265 347.51 514.175 346.8 514.175H344.22V518.855H346.8ZM346.875 519.635H344.22V524H343.32V513.395H346.86C347.72 513.395 348.41 513.52 348.93 513.77C349.45 514.01 349.825 514.36 350.055 514.82C350.295 515.28 350.415 515.84 350.415 516.5C350.415 517.02 350.36 517.475 350.25 517.865C350.14 518.255 349.95 518.585 349.68 518.855C349.41 519.115 349.045 519.31 348.585 519.44C348.135 519.57 347.565 519.635 346.875 519.635ZM352.022 513.395H357.992V514.175H352.922V518.3H357.647V519.08H352.922V523.22H358.067V524H352.022V513.395ZM359.786 513.395H365.831V514.175H360.686V518.3H365.336V519.08H360.686V524H359.786V513.395ZM369.432 524H368.532V513.395H369.432V524ZM366.897 514.175V513.395H371.052V514.175H366.897ZM366.897 524V523.22H371.052V524H366.897ZM380.876 524H379.871L373.946 514.895H373.826V524H372.941V513.395H373.961L379.871 522.485H379.991V513.395H380.876V524ZM382.918 513.395H388.888V514.175H383.818V518.3H388.543V519.08H383.818V523.22H388.963V524H382.918V513.395ZM390.682 524V513.395H393.967C395.507 513.395 396.672 513.845 397.462 514.745C398.252 515.645 398.647 516.96 398.647 518.69C398.647 520.41 398.242 521.725 397.432 522.635C396.632 523.545 395.427 524 393.817 524H390.682ZM393.742 523.22C394.752 523.22 395.547 523.04 396.127 522.68C396.707 522.31 397.122 521.785 397.372 521.105C397.622 520.425 397.747 519.62 397.747 518.69C397.747 517.75 397.622 516.945 397.372 516.275C397.132 515.595 396.727 515.075 396.157 514.715C395.597 514.355 394.832 514.175 393.862 514.175H391.582V523.22H393.742ZM405.378 524.78H398.898V524H405.378V524.78ZM406.079 524V513.395H409.364C410.904 513.395 412.069 513.845 412.859 514.745C413.649 515.645 414.044 516.96 414.044 518.69C414.044 520.41 413.639 521.725 412.829 522.635C412.029 523.545 410.824 524 409.214 524H406.079ZM409.139 523.22C410.149 523.22 410.944 523.04 411.524 522.68C412.104 522.31 412.519 521.785 412.769 521.105C413.019 520.425 413.144 519.62 413.144 518.69C413.144 517.75 413.019 516.945 412.769 516.275C412.529 515.595 412.124 515.075 411.554 514.715C410.994 514.355 410.229 514.175 409.259 514.175H406.979V523.22H409.139ZM417.79 524H416.89V513.395H417.79V524ZM415.255 514.175V513.395H419.41V514.175H415.255ZM415.255 524V523.22H419.41V524H415.255ZM428.475 519.5H425.46V518.72H429.375V519.92C429.375 520.67 429.225 521.37 428.925 522.02C428.635 522.66 428.18 523.175 427.56 523.565C426.95 523.955 426.16 524.15 425.19 524.15C423.74 524.15 422.615 523.68 421.815 522.74C421.025 521.79 420.63 520.44 420.63 518.69C420.63 516.94 421.025 515.595 421.815 514.655C422.615 513.715 423.74 513.245 425.19 513.245C425.88 513.245 426.505 513.365 427.065 513.605C427.625 513.835 428.095 514.185 428.475 514.655C428.855 515.125 429.115 515.725 429.255 516.455H428.325C428.165 515.595 427.81 514.98 427.26 514.61C426.72 514.24 426.03 514.055 425.19 514.055C424.01 514.055 423.105 514.425 422.475 515.165C421.845 515.905 421.53 517.08 421.53 518.69C421.53 520.29 421.845 521.465 422.475 522.215C423.105 522.965 424.01 523.34 425.19 523.34C425.8 523.34 426.305 523.255 426.705 523.085C427.105 522.905 427.425 522.67 427.665 522.38C427.905 522.09 428.08 521.775 428.19 521.435C428.31 521.095 428.385 520.755 428.415 520.415C428.455 520.075 428.475 519.77 428.475 519.5ZM433.084 524H432.184V513.395H433.084V524ZM430.549 514.175V513.395H434.704V514.175H430.549ZM430.549 524V523.22H434.704V524H430.549ZM435.504 513.395H443.334V514.175H439.869V524H438.969V514.175H435.504V513.395ZM446.766 514.55H446.706L443.376 524H442.461L446.256 513.395H447.276L451.056 524H450.096L446.766 514.55ZM449.181 520.82H444.336V520.04H449.181V520.82ZM452.151 513.395H453.051V523.22H458.106V524H452.151V513.395ZM464.358 524.78H457.878V524H464.358V524.78ZM468.418 514.55H468.358L465.028 524H464.113L467.908 513.395H468.928L472.708 524H471.748L468.418 514.55ZM470.833 520.82H465.988V520.04H470.833V520.82ZM478.454 519.14L481.214 524H480.209L477.554 519.305L478.454 519.14ZM477.284 518.855C477.994 518.855 478.544 518.765 478.934 518.585C479.324 518.405 479.599 518.14 479.759 517.79C479.919 517.44 479.999 517.01 479.999 516.5C479.999 515.98 479.919 515.55 479.759 515.21C479.599 514.87 479.324 514.615 478.934 514.445C478.544 514.265 477.994 514.175 477.284 514.175H474.704V518.855H477.284ZM477.359 519.635H474.704V524H473.804V513.395H477.344C478.204 513.395 478.894 513.52 479.414 513.77C479.934 514.01 480.309 514.36 480.539 514.82C480.779 515.28 480.899 515.84 480.899 516.5C480.899 517.02 480.844 517.475 480.734 517.865C480.624 518.255 480.434 518.585 480.164 518.855C479.894 519.115 479.529 519.31 479.069 519.44C478.619 519.57 478.049 519.635 477.359 519.635ZM481.167 513.395H488.997V514.175H485.532V524H484.632V514.175H481.167V513.395ZM492.327 524H491.427V513.395H492.327V524ZM489.792 514.175V513.395H493.947V514.175H489.792ZM489.792 524V523.22H493.947V524H489.792ZM495.837 513.395H501.882V514.175H496.737V518.3H501.387V519.08H496.737V524H495.837V513.395ZM505.54 514.55H505.48L502.15 524H501.235L505.03 513.395H506.05L509.83 524H508.87L505.54 514.55ZM507.955 520.82H503.11V520.04H507.955V520.82ZM517.462 516.47C517.332 515.66 517.007 515.055 516.487 514.655C515.977 514.255 515.297 514.055 514.447 514.055C513.327 514.055 512.457 514.435 511.837 515.195C511.227 515.955 510.922 517.115 510.922 518.675C510.922 520.245 511.227 521.415 511.837 522.185C512.457 522.945 513.327 523.325 514.447 523.325C515.297 523.325 515.977 523.125 516.487 522.725C517.007 522.325 517.337 521.725 517.477 520.925H518.422C518.252 521.975 517.832 522.775 517.162 523.325C516.492 523.875 515.587 524.15 514.447 524.15C512.967 524.15 511.857 523.675 511.117 522.725C510.387 521.765 510.022 520.415 510.022 518.675C510.022 516.945 510.387 515.61 511.117 514.67C511.857 513.72 512.967 513.245 514.447 513.245C515.157 513.245 515.787 513.365 516.337 513.605C516.897 513.845 517.352 514.205 517.702 514.685C518.062 515.165 518.297 515.76 518.407 516.47H517.462ZM518.508 513.395H526.338V514.175H522.873V524H521.973V514.175H518.508V513.395ZM532.683 515.69C532.603 515.07 532.328 514.64 531.858 514.4C531.398 514.16 530.788 514.04 530.028 514.04C529.158 514.04 528.513 514.21 528.093 514.55C527.673 514.88 527.463 515.37 527.463 516.02C527.463 516.4 527.533 516.71 527.673 516.95C527.823 517.19 528.013 517.385 528.243 517.535C528.473 517.675 528.718 517.79 528.978 517.88C529.238 517.96 529.478 518.03 529.698 518.09L530.853 518.405C531.143 518.485 531.458 518.585 531.798 518.705C532.138 518.825 532.458 518.99 532.758 519.2C533.068 519.41 533.318 519.68 533.508 520.01C533.698 520.34 533.793 520.75 533.793 521.24C533.793 521.8 533.658 522.305 533.388 522.755C533.118 523.205 532.703 523.56 532.143 523.82C531.583 524.07 530.868 524.195 529.998 524.195C528.838 524.195 527.948 523.96 527.328 523.49C526.708 523.02 526.358 522.385 526.278 521.585H527.208C527.268 522.065 527.423 522.435 527.673 522.695C527.923 522.955 528.243 523.14 528.633 523.25C529.033 523.35 529.488 523.4 529.998 523.4C530.918 523.4 531.628 523.225 532.128 522.875C532.638 522.515 532.893 521.96 532.893 521.21C532.893 520.76 532.783 520.405 532.563 520.145C532.353 519.885 532.068 519.68 531.708 519.53C531.358 519.38 530.978 519.25 530.568 519.14L529.128 518.75C528.308 518.52 527.673 518.2 527.223 517.79C526.783 517.38 526.563 516.815 526.563 516.095C526.563 515.505 526.703 515 526.983 514.58C527.273 514.15 527.678 513.82 528.198 513.59C528.728 513.36 529.353 513.245 530.073 513.245C530.773 513.245 531.373 513.35 531.873 513.56C532.383 513.76 532.783 514.045 533.073 514.415C533.373 514.775 533.543 515.2 533.583 515.69H532.683ZM346.365 535.595L350.67 542H349.59L345.72 536.225L346.365 535.595ZM344.22 542H343.32V531.395H344.22V542ZM343.995 539.075V537.83L349.29 531.395H350.385L343.995 539.075ZM354.607 542H353.707V531.395H354.607V542ZM352.072 532.175V531.395H356.227V532.175H352.072ZM352.072 542V541.22H356.227V542H352.072ZM366.051 542H365.046L359.121 532.895H359.001V542H358.116V531.395H359.136L365.046 540.485H365.166V531.395H366.051V542ZM368.092 531.395H374.062V532.175H368.992V536.3H373.717V537.08H368.992V541.22H374.137V542H368.092V531.395ZM374.752 531.395H382.582V532.175H379.117V542H378.217V532.175H374.752V531.395ZM385.913 542H385.013V531.395H385.913V542ZM383.378 532.175V531.395H387.533V532.175H383.378ZM383.378 542V541.22H387.533V542H383.378ZM396.192 534.47C396.062 533.66 395.737 533.055 395.217 532.655C394.707 532.255 394.027 532.055 393.177 532.055C392.057 532.055 391.187 532.435 390.567 533.195C389.957 533.955 389.652 535.115 389.652 536.675C389.652 538.245 389.957 539.415 390.567 540.185C391.187 540.945 392.057 541.325 393.177 541.325C394.027 541.325 394.707 541.125 395.217 540.725C395.737 540.325 396.067 539.725 396.207 538.925H397.152C396.982 539.975 396.562 540.775 395.892 541.325C395.222 541.875 394.317 542.15 393.177 542.15C391.697 542.15 390.587 541.675 389.847 540.725C389.117 539.765 388.752 538.415 388.752 536.675C388.752 534.945 389.117 533.61 389.847 532.67C390.587 531.72 391.697 531.245 393.177 531.245C393.887 531.245 394.517 531.365 395.067 531.605C395.627 531.845 396.082 532.205 396.432 532.685C396.792 533.165 397.027 533.76 397.137 534.47H396.192ZM403.855 542.78H397.375V542H403.855V542.78ZM406.715 542H405.815V531.395H406.715V542ZM404.18 532.175V531.395H408.335V532.175H404.18ZM404.18 542V541.22H408.335V542H404.18ZM410.225 542V531.395H413.51C415.05 531.395 416.215 531.845 417.005 532.745C417.795 533.645 418.19 534.96 418.19 536.69C418.19 538.41 417.785 539.725 416.975 540.635C416.175 541.545 414.97 542 413.36 542H410.225ZM413.285 541.22C414.295 541.22 415.09 541.04 415.67 540.68C416.25 540.31 416.665 539.785 416.915 539.105C417.165 538.425 417.29 537.62 417.29 536.69C417.29 535.75 417.165 534.945 416.915 534.275C416.675 533.595 416.27 533.075 415.7 532.715C415.14 532.355 414.375 532.175 413.405 532.175H411.125V541.22H413.285ZM419.776 531.395H425.746V532.175H420.676V536.3H425.401V537.08H420.676V541.22H425.821V542H419.776V531.395ZM435.475 542H434.47L428.545 532.895H428.425V542H427.54V531.395H428.56L434.47 540.485H434.59V531.395H435.475V542ZM436.251 531.395H444.081V532.175H440.616V542H439.716V532.175H436.251V531.395ZM447.411 542H446.511V531.395H447.411V542ZM444.876 532.175V531.395H449.031V532.175H444.876ZM444.876 542V541.22H449.031V542H444.876ZM449.831 531.395H457.661V532.175H454.196V542H453.296V532.175H449.831V531.395ZM460.992 542H460.092V531.395H460.992V542ZM458.457 532.175V531.395H462.612V532.175H458.457ZM458.457 542V541.22H462.612V542H458.457ZM464.501 531.395H470.471V532.175H465.401V536.3H470.126V537.08H465.401V541.22H470.546V542H464.501V531.395ZM477.879 533.69C477.799 533.07 477.524 532.64 477.054 532.4C476.594 532.16 475.984 532.04 475.224 532.04C474.354 532.04 473.709 532.21 473.289 532.55C472.869 532.88 472.659 533.37 472.659 534.02C472.659 534.4 472.729 534.71 472.869 534.95C473.019 535.19 473.209 535.385 473.439 535.535C473.669 535.675 473.914 535.79 474.174 535.88C474.434 535.96 474.674 536.03 474.894 536.09L476.049 536.405C476.339 536.485 476.654 536.585 476.994 536.705C477.334 536.825 477.654 536.99 477.954 537.2C478.264 537.41 478.514 537.68 478.704 538.01C478.894 538.34 478.989 538.75 478.989 539.24C478.989 539.8 478.854 540.305 478.584 540.755C478.314 541.205 477.899 541.56 477.339 541.82C476.779 542.07 476.064 542.195 475.194 542.195C474.034 542.195 473.144 541.96 472.524 541.49C471.904 541.02 471.554 540.385 471.474 539.585H472.404C472.464 540.065 472.619 540.435 472.869 540.695C473.119 540.955 473.439 541.14 473.829 541.25C474.229 541.35 474.684 541.4 475.194 541.4C476.114 541.4 476.824 541.225 477.324 540.875C477.834 540.515 478.089 539.96 478.089 539.21C478.089 538.76 477.979 538.405 477.759 538.145C477.549 537.885 477.264 537.68 476.904 537.53C476.554 537.38 476.174 537.25 475.764 537.14L474.324 536.75C473.504 536.52 472.869 536.2 472.419 535.79C471.979 535.38 471.759 534.815 471.759 534.095C471.759 533.505 471.899 533 472.179 532.58C472.469 532.15 472.874 531.82 473.394 531.59C473.924 531.36 474.549 531.245 475.269 531.245C475.969 531.245 476.569 531.35 477.069 531.56C477.579 531.76 477.979 532.045 478.269 532.415C478.569 532.775 478.739 533.2 478.779 533.69H477.879ZM346.44 578.15C345.57 578.15 344.86 577.955 344.31 577.565C343.77 577.165 343.375 576.565 343.125 575.765C342.875 574.955 342.75 573.93 342.75 572.69C342.75 571.45 342.875 570.43 343.125 569.63C343.385 568.83 343.785 568.235 344.325 567.845C344.875 567.445 345.58 567.245 346.44 567.245C347.31 567.245 348.015 567.445 348.555 567.845C349.105 568.235 349.505 568.83 349.755 569.63C350.015 570.43 350.145 571.45 350.145 572.69C350.145 573.92 350.015 574.94 349.755 575.75C349.505 576.56 349.105 577.165 348.555 577.565C348.015 577.955 347.31 578.15 346.44 578.15ZM346.44 577.37C347.46 577.37 348.185 576.985 348.615 576.215C349.045 575.445 349.26 574.27 349.26 572.69C349.26 571.11 349.045 569.94 348.615 569.18C348.185 568.41 347.46 568.025 346.44 568.025C345.43 568.025 344.71 568.41 344.28 569.18C343.85 569.94 343.635 571.11 343.635 572.69C343.635 574.27 343.845 575.445 344.265 576.215C344.695 576.985 345.42 577.37 346.44 577.37ZM351.147 577.265L354.777 573.38C355.237 572.89 355.612 572.46 355.902 572.09C356.192 571.71 356.407 571.36 356.547 571.04C356.697 570.71 356.772 570.375 356.772 570.035C356.772 569.385 356.562 568.89 356.142 568.55C355.722 568.2 355.162 568.025 354.462 568.025C353.762 568.025 353.187 568.235 352.737 568.655C352.287 569.065 352.072 569.63 352.092 570.35H351.222C351.212 569.7 351.347 569.145 351.627 568.685C351.907 568.225 352.297 567.87 352.797 567.62C353.297 567.37 353.867 567.245 354.507 567.245C355.177 567.245 355.742 567.36 356.202 567.59C356.672 567.81 357.032 568.13 357.282 568.55C357.532 568.96 357.657 569.455 357.657 570.035C357.657 570.415 357.592 570.785 357.462 571.145C357.332 571.495 357.092 571.9 356.742 572.36C356.402 572.81 355.907 573.38 355.257 574.07L351.837 577.73L351.897 577.22H357.792V578H351.147V577.265Z" fill="#FFFAEE"/>
<path d="M612.096 561.68H614.058L613.032 567.548H609.612L612.096 561.68ZM616.74 561.68H618.702L617.676 567.548H614.256L616.74 561.68ZM621.845 562.436H625.895C627.587 562.436 628.841 562.976 629.657 564.056C630.473 565.136 630.881 566.69 630.881 568.718C630.881 570.746 630.473 572.3 629.657 573.38C628.841 574.46 627.587 575 625.895 575H621.845V562.436ZM625.715 572.876C626.519 572.876 627.107 572.618 627.479 572.102C627.851 571.586 628.037 570.836 628.037 569.852V567.566C628.037 566.594 627.851 565.85 627.479 565.334C627.107 564.818 626.519 564.56 625.715 564.56H624.509V572.876H625.715ZM637.588 575.216C636.532 575.216 635.614 575.042 634.834 574.694C634.054 574.346 633.424 573.872 632.944 573.272L634.51 571.544C634.966 572.048 635.464 572.42 636.004 572.66C636.556 572.9 637.114 573.02 637.678 573.02C638.326 573.02 638.818 572.876 639.154 572.588C639.49 572.3 639.658 571.886 639.658 571.346C639.658 570.902 639.526 570.566 639.262 570.338C639.01 570.11 638.578 569.948 637.966 569.852L636.652 569.636C635.524 569.444 634.708 569.03 634.204 568.394C633.7 567.746 633.448 566.96 633.448 566.036C633.448 564.824 633.844 563.888 634.636 563.228C635.428 562.556 636.538 562.22 637.966 562.22C638.938 562.22 639.784 562.37 640.504 562.67C641.224 562.97 641.806 563.378 642.25 563.894L640.72 565.604C640.384 565.232 639.988 564.944 639.532 564.74C639.076 564.524 638.56 564.416 637.984 564.416C636.772 564.416 636.166 564.914 636.166 565.91C636.166 566.342 636.298 566.666 636.562 566.882C636.838 567.098 637.282 567.26 637.894 567.368L639.208 567.602C640.228 567.782 641.014 568.166 641.566 568.754C642.118 569.342 642.394 570.134 642.394 571.13C642.394 571.718 642.292 572.264 642.088 572.768C641.884 573.26 641.578 573.692 641.17 574.064C640.762 574.424 640.258 574.706 639.658 574.91C639.07 575.114 638.38 575.216 637.588 575.216ZM651.477 573.218H651.315C651.207 573.482 651.075 573.734 650.919 573.974C650.763 574.214 650.571 574.43 650.343 574.622C650.115 574.802 649.845 574.946 649.533 575.054C649.233 575.162 648.891 575.216 648.507 575.216C647.895 575.216 647.349 575.072 646.869 574.784C646.401 574.496 646.005 574.076 645.681 573.524C645.357 572.972 645.111 572.3 644.943 571.508C644.787 570.716 644.709 569.822 644.709 568.826C644.709 566.69 645.099 565.058 645.879 563.93C646.659 562.79 647.865 562.22 649.497 562.22C650.145 562.22 650.715 562.31 651.207 562.49C651.699 562.658 652.119 562.904 652.467 563.228C652.827 563.54 653.121 563.918 653.349 564.362C653.577 564.806 653.757 565.298 653.889 565.838L651.369 566.45C651.297 566.186 651.213 565.934 651.117 565.694C651.033 565.442 650.919 565.22 650.775 565.028C650.631 564.836 650.451 564.686 650.235 564.578C650.019 564.458 649.755 564.398 649.443 564.398C648.759 564.398 648.273 564.68 647.985 565.244C647.709 565.808 647.571 566.6 647.571 567.62V569.672C647.571 570.692 647.721 571.508 648.021 572.12C648.333 572.732 648.879 573.038 649.659 573.038C650.271 573.038 650.727 572.858 651.027 572.498C651.327 572.138 651.477 571.676 651.477 571.112V570.194H649.335V568.286H653.889V575H651.477V573.218ZM659.372 566.648H659.174V575H656.87V562.436H660.11L662.972 570.788H663.17V562.436H665.474V575H662.234L659.372 566.648ZM680.31 562.436H684.36C686.052 562.436 687.306 562.976 688.122 564.056C688.938 565.136 689.346 566.69 689.346 568.718C689.346 570.746 688.938 572.3 688.122 573.38C687.306 574.46 686.052 575 684.36 575H680.31V562.436ZM684.18 572.876C684.984 572.876 685.572 572.618 685.944 572.102C686.316 571.586 686.502 570.836 686.502 569.852V567.566C686.502 566.594 686.316 565.85 685.944 565.334C685.572 564.818 684.984 564.56 684.18 564.56H682.974V572.876H684.18ZM692.291 575V562.436H700.319V564.65H694.991V567.53H700.139V569.744H694.991V572.786H700.319V575H692.291ZM703.912 575V562.436H708.772C709.384 562.436 709.93 562.532 710.41 562.724C710.89 562.904 711.292 563.168 711.616 563.516C711.952 563.864 712.204 564.284 712.372 564.776C712.54 565.268 712.624 565.82 712.624 566.432C712.624 567.044 712.54 567.596 712.372 568.088C712.204 568.58 711.952 569 711.616 569.348C711.292 569.696 710.89 569.966 710.41 570.158C709.93 570.338 709.384 570.428 708.772 570.428H706.63V575H703.912ZM706.63 568.25H708.088C708.724 568.25 709.162 568.13 709.402 567.89C709.654 567.65 709.78 567.254 709.78 566.702V566.162C709.78 565.61 709.654 565.214 709.402 564.974C709.162 564.734 708.724 564.614 708.088 564.614H706.63V568.25ZM720.987 564.65V575H718.287V564.65H714.669V562.436H724.605V564.65H720.987ZM728.09 561.68H731.51L729.026 567.548H727.064L728.09 561.68ZM732.734 561.68H736.154L733.67 567.548H731.708L732.734 561.68Z" fill="#FFFAEE"/>
<path d="M652.4 592.676C651.644 592.676 650.936 592.538 650.276 592.262C649.628 591.986 649.058 591.59 648.566 591.074C648.086 590.558 647.702 589.934 647.414 589.202C647.138 588.47 647 587.642 647 586.718C647 585.806 647.138 584.984 647.414 584.252C647.702 583.508 648.086 582.878 648.566 582.362C649.058 581.846 649.628 581.45 650.276 581.174C650.936 580.898 651.644 580.76 652.4 580.76C653.156 580.76 653.858 580.898 654.506 581.174C655.166 581.45 655.736 581.846 656.216 582.362C656.708 582.878 657.092 583.508 657.368 584.252C657.656 584.984 657.8 585.806 657.8 586.718C657.8 587.642 657.656 588.47 657.368 589.202C657.092 589.934 656.708 590.558 656.216 591.074C655.736 591.59 655.166 591.986 654.506 592.262C653.858 592.538 653.156 592.676 652.4 592.676ZM652.4 591.686C653.012 591.686 653.576 591.572 654.092 591.344C654.62 591.116 655.07 590.804 655.442 590.408C655.826 590 656.126 589.526 656.342 588.986C656.558 588.446 656.666 587.87 656.666 587.258V586.178C656.666 585.566 656.558 584.99 656.342 584.45C656.126 583.91 655.826 583.442 655.442 583.046C655.07 582.638 654.62 582.32 654.092 582.092C653.576 581.864 653.012 581.75 652.4 581.75C651.788 581.75 651.218 581.864 650.69 582.092C650.174 582.32 649.724 582.638 649.34 583.046C648.968 583.442 648.674 583.91 648.458 584.45C648.242 584.99 648.134 585.566 648.134 586.178V587.258C648.134 587.87 648.242 588.446 648.458 588.986C648.674 589.526 648.968 590 649.34 590.408C649.724 590.804 650.174 591.116 650.69 591.344C651.218 591.572 651.788 591.686 652.4 591.686ZM652.562 590.246C652.058 590.246 651.602 590.162 651.194 589.994C650.786 589.826 650.438 589.592 650.15 589.292C649.862 588.98 649.64 588.608 649.484 588.176C649.328 587.744 649.25 587.264 649.25 586.736C649.25 586.196 649.328 585.71 649.484 585.278C649.652 584.834 649.88 584.462 650.168 584.162C650.468 583.85 650.816 583.61 651.212 583.442C651.62 583.274 652.07 583.19 652.562 583.19C653.306 583.19 653.9 583.364 654.344 583.712C654.788 584.048 655.118 584.486 655.334 585.026L653.804 585.8C653.684 585.524 653.528 585.302 653.336 585.134C653.156 584.954 652.91 584.864 652.598 584.864C652.238 584.864 651.956 584.978 651.752 585.206C651.548 585.422 651.446 585.704 651.446 586.052V587.366C651.446 587.714 651.548 588.002 651.752 588.23C651.956 588.458 652.244 588.572 652.616 588.572C652.952 588.572 653.216 588.482 653.408 588.302C653.612 588.122 653.78 587.9 653.912 587.636L655.442 588.41C655.334 588.65 655.202 588.884 655.046 589.112C654.89 589.328 654.692 589.52 654.452 589.688C654.224 589.856 653.954 589.994 653.642 590.102C653.33 590.198 652.97 590.246 652.562 590.246ZM667.063 593H658.027V590.534L661.987 587.24C662.671 586.652 663.163 586.142 663.463 585.71C663.763 585.278 663.913 584.822 663.913 584.342V584.162C663.913 583.634 663.757 583.238 663.445 582.974C663.133 582.698 662.713 582.56 662.185 582.56C661.585 582.56 661.123 582.734 660.799 583.082C660.475 583.43 660.247 583.844 660.115 584.324L657.757 583.424C657.901 582.992 658.099 582.584 658.351 582.2C658.603 581.804 658.921 581.462 659.305 581.174C659.701 580.886 660.157 580.658 660.673 580.49C661.189 580.31 661.783 580.22 662.455 580.22C663.139 580.22 663.751 580.316 664.291 580.508C664.831 580.7 665.287 580.964 665.659 581.3C666.031 581.636 666.313 582.038 666.505 582.506C666.697 582.962 666.793 583.46 666.793 584C666.793 584.528 666.703 585.014 666.523 585.458C666.355 585.89 666.115 586.298 665.803 586.682C665.503 587.066 665.143 587.438 664.723 587.798C664.315 588.158 663.877 588.518 663.409 588.878L661.015 590.732H667.063V593ZM672.546 593.216C670.866 593.216 669.624 592.646 668.82 591.506C668.028 590.366 667.632 588.77 667.632 586.718C667.632 584.666 668.028 583.07 668.82 581.93C669.624 580.79 670.866 580.22 672.546 580.22C674.226 580.22 675.462 580.79 676.254 581.93C677.058 583.07 677.46 584.666 677.46 586.718C677.46 588.77 677.058 590.366 676.254 591.506C675.462 592.646 674.226 593.216 672.546 593.216ZM672.546 591.092C673.35 591.092 673.908 590.81 674.22 590.246C674.544 589.682 674.706 588.896 674.706 587.888V585.548C674.706 584.54 674.544 583.754 674.22 583.19C673.908 582.626 673.35 582.344 672.546 582.344C671.742 582.344 671.178 582.626 670.854 583.19C670.542 583.754 670.386 584.54 670.386 585.548V587.888C670.386 588.896 670.542 589.682 670.854 590.246C671.178 590.81 671.742 591.092 672.546 591.092ZM672.546 587.78C672.126 587.78 671.832 587.696 671.664 587.528C671.508 587.36 671.43 587.156 671.43 586.916V586.52C671.43 586.28 671.508 586.076 671.664 585.908C671.832 585.74 672.126 585.656 672.546 585.656C672.966 585.656 673.254 585.74 673.41 585.908C673.578 586.076 673.662 586.28 673.662 586.52V586.916C673.662 587.156 673.578 587.36 673.41 587.528C673.254 587.696 672.966 587.78 672.546 587.78ZM687.209 593H678.173V590.534L682.133 587.24C682.817 586.652 683.309 586.142 683.609 585.71C683.909 585.278 684.059 584.822 684.059 584.342V584.162C684.059 583.634 683.903 583.238 683.591 582.974C683.279 582.698 682.859 582.56 682.331 582.56C681.731 582.56 681.269 582.734 680.945 583.082C680.621 583.43 680.393 583.844 680.261 584.324L677.903 583.424C678.047 582.992 678.245 582.584 678.497 582.2C678.749 581.804 679.067 581.462 679.451 581.174C679.847 580.886 680.303 580.658 680.819 580.49C681.335 580.31 681.929 580.22 682.601 580.22C683.285 580.22 683.897 580.316 684.437 580.508C684.977 580.7 685.433 580.964 685.805 581.3C686.177 581.636 686.459 582.038 686.651 582.506C686.843 582.962 686.939 583.46 686.939 584C686.939 584.528 686.849 585.014 686.669 585.458C686.501 585.89 686.261 586.298 685.949 586.682C685.649 587.066 685.289 587.438 684.869 587.798C684.461 588.158 684.023 588.518 683.555 588.878L681.161 590.732H687.209V593ZM692.764 593.216C692.008 593.216 691.33 593.102 690.73 592.874C690.142 592.634 689.644 592.298 689.236 591.866C688.828 591.422 688.516 590.894 688.3 590.282C688.084 589.67 687.976 588.986 687.976 588.23C687.976 587.354 688.114 586.526 688.39 585.746C688.666 584.954 689.02 584.228 689.452 583.568C689.896 582.896 690.388 582.296 690.928 581.768C691.48 581.24 692.026 580.796 692.566 580.436H696.292C695.512 580.976 694.81 581.498 694.186 582.002C693.574 582.494 693.034 582.992 692.566 583.496C692.11 583.988 691.732 584.498 691.432 585.026C691.144 585.554 690.934 586.124 690.802 586.736L690.964 586.79C691.072 586.55 691.204 586.316 691.36 586.088C691.516 585.86 691.708 585.662 691.936 585.494C692.164 585.314 692.428 585.17 692.728 585.062C693.04 584.954 693.4 584.9 693.808 584.9C694.336 584.9 694.828 584.996 695.284 585.188C695.74 585.368 696.13 585.632 696.454 585.98C696.79 586.316 697.054 586.724 697.246 587.204C697.438 587.684 697.534 588.224 697.534 588.824C697.534 589.46 697.42 590.048 697.192 590.588C696.964 591.128 696.64 591.596 696.22 591.992C695.812 592.376 695.314 592.676 694.726 592.892C694.138 593.108 693.484 593.216 692.764 593.216ZM692.746 591.11C693.394 591.11 693.886 590.942 694.222 590.606C694.558 590.258 694.726 589.772 694.726 589.148V588.896C694.726 588.272 694.552 587.798 694.204 587.474C693.868 587.138 693.382 586.97 692.746 586.97C692.134 586.97 691.654 587.138 691.306 587.474C690.958 587.798 690.784 588.272 690.784 588.896V589.148C690.784 589.772 690.946 590.258 691.27 590.606C691.606 590.942 692.098 591.11 692.746 591.11Z" fill="#FFFAEE"/>
</svg>
