<svg width="1080" height="1080" viewBox="0 0 1080 1080" fill="none" xmlns="http://www.w3.org/2000/svg">
<rect width="1080" height="1080" fill="#191919"/>
<g clip-path="url(#clip0_113_467)">
<path d="M280.105 520L280.108 520L383.379 520L385.487 520L488.758 520L490.865 520L594.135 520L596.244 520L699.514 520L701.621 520L804.892 520L806.997 520L807 520L807 544L804.892 544L804.892 522.399L754.272 522.399L754.272 531.999L753.219 531.999L753.219 522.399L701.621 522.399L701.621 544L699.514 544L699.514 522.399L648.895 522.399L648.895 531.999L647.84 531.999L647.84 522.399L596.244 522.399L596.244 544L594.135 544L594.135 522.399L543.516 522.399L543.516 531.999L542.463 531.999L542.463 522.399L490.865 522.399L490.865 544L488.758 544L488.758 522.399L438.137 522.399L438.137 531.999L437.084 531.999L437.084 522.399L385.487 522.399L385.487 544L383.379 544L383.379 522.399L332.76 522.399L332.76 531.999L331.706 531.999L331.706 522.399L280.108 522.399L280.108 544L278 544L278 520L280.105 520Z" fill="#FFFAEE"/>
</g>
<path d="M302.846 444.029H312.345V495H302.846V444.029ZM291.219 495.709C286.635 495.709 282.878 494.126 279.947 490.959C277.064 487.745 275.623 482.996 275.623 476.71C275.623 472.173 276.332 468.51 277.75 465.722C279.168 462.886 281.058 460.806 283.421 459.483C285.831 458.16 288.431 457.498 291.219 457.498C294.906 457.498 297.859 458.349 300.081 460.05C302.302 461.752 303.909 464.044 304.901 466.927C305.894 469.81 306.39 473.071 306.39 476.71C306.39 480.302 305.894 483.539 304.901 486.422C303.909 489.258 302.302 491.526 300.081 493.228C297.859 494.882 294.906 495.709 291.219 495.709ZM294.126 488.336C297.056 488.336 299.23 487.367 300.648 485.43C302.113 483.492 302.846 480.562 302.846 476.639C302.846 472.716 302.113 469.786 300.648 467.848C299.23 465.863 297.056 464.871 294.126 464.871C291.101 464.871 288.833 465.863 287.32 467.848C285.855 469.786 285.123 472.716 285.123 476.639C285.123 480.562 285.855 483.492 287.32 485.43C288.833 487.367 291.101 488.336 294.126 488.336ZM323.262 473.165H343.679C343.537 470.708 342.805 468.699 341.482 467.139C340.158 465.533 338.268 464.729 335.81 464.729C332.786 464.729 330.588 465.651 329.217 467.494C327.894 469.337 327.232 472.433 327.232 476.781C327.232 481.082 327.894 484.106 329.217 485.855C330.541 487.604 332.904 488.478 336.306 488.478C338.717 488.478 340.395 488.147 341.34 487.485C342.332 486.824 342.923 485.855 343.112 484.579H352.895C352.659 486.753 351.903 488.691 350.627 490.392C349.398 492.046 347.602 493.346 345.239 494.291C342.876 495.236 339.898 495.709 336.306 495.709C330.304 495.709 325.72 494.102 322.553 490.888C319.387 487.627 317.804 482.925 317.804 476.781C317.804 470.59 319.387 465.84 322.553 462.531C325.72 459.176 330.139 457.498 335.81 457.498C339.497 457.498 342.616 458.254 345.168 459.767C347.767 461.279 349.752 463.477 351.123 466.36C352.493 469.195 353.179 472.669 353.179 476.781V479.616H323.191L323.262 473.165ZM377.584 469.195C377.348 467.541 376.805 466.431 375.954 465.863C375.103 465.249 373.851 464.942 372.197 464.942C370.59 464.942 369.29 465.225 368.298 465.793C367.305 466.312 366.809 467.139 366.809 468.274C366.809 469.172 367.116 469.952 367.73 470.613C368.392 471.228 369.526 471.747 371.133 472.173L376.096 473.449C379.782 474.394 382.594 475.741 384.532 477.49C386.47 479.238 387.438 481.507 387.438 484.295C387.438 487.887 386.068 490.699 383.327 492.731C380.586 494.716 376.686 495.709 371.629 495.709C366.856 495.709 363.099 494.693 360.358 492.661C357.664 490.581 356.199 487.675 355.962 483.941H365.745C365.935 485.5 366.454 486.611 367.305 487.273C368.203 487.934 369.597 488.265 371.488 488.265C374.04 488.265 375.718 487.958 376.521 487.344C377.372 486.682 377.797 485.784 377.797 484.65C377.797 483.61 377.49 482.759 376.875 482.098C376.261 481.436 375.174 480.916 373.614 480.538L368.652 479.262C364.966 478.317 362.154 476.97 360.216 475.221C358.278 473.472 357.309 471.251 357.309 468.557C357.309 465.202 358.633 462.531 361.279 460.547C363.973 458.514 367.612 457.498 372.197 457.498C376.686 457.498 380.231 458.538 382.83 460.617C385.43 462.697 386.753 465.556 386.8 469.195H377.584ZM401.955 458.207V495H392.455V458.207H401.955ZM392.242 444.029H402.167V453.812H392.242V444.029ZM422.765 494.291C418.181 494.291 414.424 492.731 411.493 489.612C408.611 486.446 407.169 481.909 407.169 476.001C407.169 471.7 407.878 468.203 409.296 465.509C410.714 462.768 412.604 460.759 414.967 459.483C417.377 458.16 419.977 457.498 422.765 457.498C426.452 457.498 429.405 458.349 431.627 460.05C433.848 461.704 435.455 463.926 436.447 466.714C437.44 469.503 437.936 472.598 437.936 476.001C437.936 479.357 437.44 482.428 436.447 485.217C435.455 487.958 433.848 490.156 431.627 491.81C429.405 493.464 426.452 494.291 422.765 494.291ZM425.672 486.918C428.602 486.918 430.8 485.997 432.265 484.154C433.73 482.263 434.462 479.522 434.462 475.93C434.462 472.338 433.73 469.597 432.265 467.707C430.8 465.816 428.602 464.871 425.672 464.871C422.647 464.871 420.379 465.816 418.866 467.707C417.401 469.597 416.669 472.338 416.669 475.93C416.669 479.522 417.401 482.263 418.866 484.154C420.379 485.997 422.647 486.918 425.672 486.918ZM434.604 458.207H443.962V493.015H434.462V465.084L434.604 464.587V458.207ZM443.962 492.448C444.198 498.403 442.899 502.94 440.063 506.059C437.274 509.178 432.856 510.738 426.806 510.738C422.694 510.738 419.386 510.218 416.881 509.178C414.376 508.186 412.557 506.768 411.423 504.925C410.288 503.082 409.674 500.931 409.579 498.474H419.079C419.221 499.561 419.481 500.459 419.859 501.168C420.284 501.924 421.017 502.467 422.056 502.798C423.143 503.129 424.727 503.294 426.806 503.294C428.933 503.294 430.54 502.94 431.627 502.231C432.761 501.522 433.517 500.364 433.895 498.757C434.321 497.198 434.51 495.095 434.462 492.448H443.962ZM461.189 495H451.689V458.207H461.189L461.118 462.531C462.205 460.783 463.505 459.507 465.017 458.703C466.529 457.9 468.42 457.498 470.688 457.498C474.847 457.498 478.179 458.656 480.684 460.972C483.236 463.288 484.512 467.116 484.512 472.456V495H475.013V472.385C475.013 469.739 474.469 467.848 473.382 466.714C472.342 465.533 470.759 464.942 468.632 464.942C466.978 464.942 465.584 465.249 464.45 465.863C463.363 466.431 462.536 467.329 461.969 468.557C461.449 469.786 461.189 471.393 461.189 473.378V495ZM516.819 495H507.32V444.029H516.819V495ZM558.391 495H552.862C550.688 495 548.987 494.267 547.758 492.802C546.576 491.337 545.938 489.518 545.844 487.344H547.899C547.002 489.943 545.536 491.999 543.504 493.511C541.519 494.976 538.967 495.709 535.848 495.709C533.248 495.709 530.909 495.307 528.83 494.504C526.797 493.653 525.19 492.401 524.009 490.746C522.827 489.045 522.237 486.895 522.237 484.295C522.237 481.932 522.686 479.995 523.584 478.482C524.529 476.923 525.758 475.717 527.27 474.867C528.782 474.016 530.436 473.425 532.232 473.094C534.028 472.716 535.801 472.527 537.549 472.527H545.844V470.471C545.844 468.486 545.347 467.021 544.355 466.076C543.41 465.084 541.874 464.587 539.747 464.587C537.478 464.587 535.871 464.989 534.926 465.793C533.981 466.596 533.39 467.825 533.154 469.479H523.654C523.796 466.927 524.623 464.753 526.136 462.957C527.648 461.161 529.609 459.814 532.02 458.916C534.43 457.971 537.077 457.498 539.96 457.498C541.519 457.498 543.173 457.687 544.922 458.065C546.671 458.443 548.301 459.129 549.814 460.121C551.373 461.114 552.649 462.484 553.642 464.233C554.634 465.982 555.13 468.25 555.13 471.039V487.556H558.391V495ZM531.453 483.87C531.453 485.477 531.902 486.682 532.8 487.485C533.697 488.242 535.139 488.62 537.124 488.62C539.912 488.62 542.063 487.958 543.575 486.635C545.087 485.264 545.844 483.421 545.844 481.105V478.978H537.62C535.446 478.978 533.863 479.404 532.87 480.254C531.925 481.058 531.453 482.263 531.453 483.87ZM572.312 444.029V495H562.812V444.029H572.312ZM583.938 495.709C580.299 495.709 577.345 494.882 575.077 493.228C572.855 491.526 571.248 489.258 570.256 486.422C569.263 483.539 568.767 480.302 568.767 476.71C568.767 473.071 569.263 469.81 570.256 466.927C571.248 464.044 572.855 461.752 575.077 460.05C577.345 458.349 580.299 457.498 583.938 457.498C586.774 457.498 589.373 458.16 591.736 459.483C594.099 460.806 595.99 462.886 597.408 465.722C598.825 468.51 599.534 472.173 599.534 476.71C599.534 482.996 598.093 487.745 595.21 490.959C592.327 494.126 588.57 495.709 583.938 495.709ZM581.031 488.336C584.056 488.336 586.301 487.367 587.766 485.43C589.279 483.492 590.035 480.562 590.035 476.639C590.035 472.716 589.279 469.786 587.766 467.848C586.301 465.863 584.056 464.871 581.031 464.871C578.101 464.871 575.904 465.863 574.439 467.848C573.021 469.786 572.312 472.716 572.312 476.639C572.312 480.562 573.021 483.492 574.439 485.43C575.904 487.367 578.101 488.336 581.031 488.336ZM623.992 469.195C623.756 467.541 623.212 466.431 622.361 465.863C621.511 465.249 620.258 464.942 618.604 464.942C616.997 464.942 615.698 465.225 614.705 465.793C613.713 466.312 613.216 467.139 613.216 468.274C613.216 469.172 613.524 469.952 614.138 470.613C614.8 471.228 615.934 471.747 617.541 472.173L622.503 473.449C626.19 474.394 629.002 475.741 630.939 477.49C632.877 479.238 633.846 481.507 633.846 484.295C633.846 487.887 632.475 490.699 629.734 492.731C626.993 494.716 623.094 495.709 618.037 495.709C613.264 495.709 609.506 494.693 606.765 492.661C604.071 490.581 602.606 487.675 602.37 483.941H612.153C612.342 485.5 612.862 486.611 613.713 487.273C614.611 487.934 616.005 488.265 617.895 488.265C620.447 488.265 622.125 487.958 622.929 487.344C623.779 486.682 624.205 485.784 624.205 484.65C624.205 483.61 623.897 482.759 623.283 482.098C622.669 481.436 621.582 480.916 620.022 480.538L615.06 479.262C611.373 478.317 608.561 476.97 606.623 475.221C604.686 473.472 603.717 471.251 603.717 468.557C603.717 465.202 605.04 462.531 607.687 460.547C610.381 458.514 614.02 457.498 618.604 457.498C623.094 457.498 626.639 458.538 629.238 460.617C631.837 462.697 633.161 465.556 633.208 469.195H623.992Z" fill="#FFFAEE"/>
<path d="M302.846 444.029V443.529H302.346V444.029H302.846ZM312.345 444.029H312.845V443.529H312.345V444.029ZM312.345 495V495.5H312.845V495H312.345ZM302.846 495H302.346V495.5H302.846V495ZM279.947 490.959L279.575 491.293L279.58 491.299L279.947 490.959ZM277.75 465.722L278.195 465.948L278.197 465.945L277.75 465.722ZM283.421 459.483L283.18 459.045L283.177 459.047L283.421 459.483ZM300.081 460.05L300.385 459.653V459.653L300.081 460.05ZM304.901 466.927L305.374 466.764V466.764L304.901 466.927ZM304.901 486.422L305.373 486.587L305.374 486.585L304.901 486.422ZM300.081 493.228L300.379 493.629L300.385 493.625L300.081 493.228ZM300.648 485.43L300.249 485.128L300.244 485.134L300.648 485.43ZM300.648 467.848L300.241 468.139L300.249 468.15L300.648 467.848ZM287.32 467.848L286.922 467.545L286.921 467.547L287.32 467.848ZM287.32 485.43L286.921 485.731L286.926 485.737L287.32 485.43ZM302.846 444.029V444.529H312.345V444.029V443.529H302.846V444.029ZM312.345 444.029H311.845V495H312.345H312.845V444.029H312.345ZM312.345 495V494.5H302.846V495V495.5H312.345V495ZM302.846 495H303.346V444.029H302.846H302.346V495H302.846ZM291.219 495.709V495.209C286.764 495.209 283.144 493.677 280.314 490.62L279.947 490.959L279.58 491.299C282.612 494.575 286.505 496.209 291.219 496.209V495.709ZM279.947 490.959L280.32 490.625C277.55 487.537 276.123 482.928 276.123 476.71H275.623H275.123C275.123 483.064 276.579 487.953 279.575 491.293L279.947 490.959ZM275.623 476.71H276.123C276.123 472.219 276.826 468.642 278.195 465.948L277.75 465.722L277.304 465.495C275.838 468.378 275.123 472.127 275.123 476.71H275.623ZM277.75 465.722L278.197 465.945C279.578 463.184 281.404 461.186 283.665 459.919L283.421 459.483L283.177 459.047C280.712 460.427 278.757 462.588 277.303 465.498L277.75 465.722ZM283.421 459.483L283.662 459.921C285.997 458.639 288.514 457.998 291.219 457.998V457.498V456.998C288.348 456.998 285.666 457.68 283.18 459.045L283.421 459.483ZM291.219 457.498V457.998C294.831 457.998 297.667 458.831 299.777 460.447L300.081 460.05L300.385 459.653C298.052 457.867 294.981 456.998 291.219 456.998V457.498ZM300.081 460.05L299.777 460.447C301.913 462.083 303.465 464.291 304.429 467.09L304.901 466.927L305.374 466.764C304.353 463.797 302.691 461.42 300.385 459.653L300.081 460.05ZM304.901 466.927L304.429 467.09C305.4 469.911 305.89 473.116 305.89 476.71H306.39H306.89C306.89 473.026 306.388 469.708 305.374 466.764L304.901 466.927ZM306.39 476.71H305.89C305.89 480.256 305.4 483.437 304.429 486.259L304.901 486.422L305.374 486.585C306.388 483.641 306.89 480.348 306.89 476.71H306.39ZM304.901 486.422L304.429 486.257C303.467 489.008 301.915 491.193 299.777 492.831L300.081 493.228L300.385 493.625C302.689 491.86 304.351 489.508 305.373 486.587L304.901 486.422ZM300.081 493.228L299.782 492.827C297.672 494.398 294.833 495.209 291.219 495.209V495.709V496.209C294.978 496.209 298.047 495.365 300.379 493.629L300.081 493.228ZM294.126 488.336V488.836C297.176 488.836 299.518 487.82 301.051 485.725L300.648 485.43L300.244 485.134C298.942 486.915 296.936 487.836 294.126 487.836V488.336ZM300.648 485.43L301.047 485.731C302.607 483.668 303.346 480.609 303.346 476.639H302.846H302.346C302.346 480.515 301.619 483.316 300.249 485.128L300.648 485.43ZM302.846 476.639H303.346C303.346 472.669 302.607 469.61 301.047 467.547L300.648 467.848L300.249 468.15C301.619 469.962 302.346 472.763 302.346 476.639H302.846ZM300.648 467.848L301.055 467.558C299.523 465.414 297.181 464.371 294.126 464.371V464.871V465.371C296.931 465.371 298.937 466.313 300.241 468.139L300.648 467.848ZM294.126 464.871V464.371C290.982 464.371 288.55 465.41 286.922 467.545L287.32 467.848L287.718 468.151C289.115 466.317 291.22 465.371 294.126 465.371V464.871ZM287.32 467.848L286.921 467.547C285.361 469.61 284.623 472.669 284.623 476.639H285.123H285.623C285.623 472.763 286.349 469.962 287.719 468.15L287.32 467.848ZM285.123 476.639H284.623C284.623 480.609 285.361 483.668 286.921 485.731L287.32 485.43L287.719 485.128C286.349 483.316 285.623 480.515 285.623 476.639H285.123ZM287.32 485.43L286.926 485.737C288.555 487.824 290.986 488.836 294.126 488.836V488.336V487.836C291.216 487.836 289.11 486.91 287.714 485.122L287.32 485.43ZM323.262 473.165V472.665H322.768L322.762 473.16L323.262 473.165ZM343.679 473.165V473.665H344.209L344.178 473.136L343.679 473.165ZM341.482 467.139L341.096 467.457L341.1 467.463L341.482 467.139ZM329.217 467.494L328.816 467.196L328.811 467.202L329.217 467.494ZM329.217 485.855L329.616 485.553V485.553L329.217 485.855ZM341.34 487.485L341.062 487.069L341.053 487.076L341.34 487.485ZM343.112 484.579V484.079H342.681L342.618 484.506L343.112 484.579ZM352.895 484.579L353.392 484.633L353.452 484.079H352.895V484.579ZM350.627 490.392L350.227 490.092L350.225 490.094L350.627 490.392ZM345.239 494.291L345.053 493.827L345.239 494.291ZM322.553 490.888L322.195 491.237L322.197 491.239L322.553 490.888ZM322.553 462.531L322.915 462.877L322.917 462.875L322.553 462.531ZM345.168 459.767L344.913 460.197L344.917 460.199L345.168 459.767ZM351.123 466.36L350.671 466.574L350.673 466.577L351.123 466.36ZM353.179 479.616V480.116H353.679V479.616H353.179ZM323.191 479.616L322.692 479.611L322.686 480.116H323.191V479.616ZM323.262 473.165V473.665H343.679V473.165V472.665H323.262V473.165ZM343.679 473.165L344.178 473.136C344.032 470.593 343.27 468.474 341.863 466.816L341.482 467.139L341.1 467.463C342.34 468.924 343.043 470.822 343.18 473.194L343.679 473.165ZM341.482 467.139L341.868 466.822C340.432 465.078 338.387 464.229 335.81 464.229V464.729V465.229C338.148 465.229 339.885 465.987 341.096 467.457L341.482 467.139ZM335.81 464.729V464.229C332.682 464.229 330.309 465.187 328.816 467.196L329.217 467.494L329.619 467.792C330.866 466.114 332.889 465.229 335.81 465.229V464.729ZM329.217 467.494L328.811 467.202C327.392 469.179 326.732 472.41 326.732 476.781H327.232H327.732C327.732 472.456 328.396 469.495 329.623 467.786L329.217 467.494ZM327.232 476.781H326.732C326.732 481.102 327.391 484.27 328.819 486.157L329.217 485.855L329.616 485.553C328.397 483.942 327.732 481.061 327.732 476.781H327.232ZM329.217 485.855L328.819 486.157C330.279 488.087 332.835 488.978 336.306 488.978V488.478V487.978C332.972 487.978 330.802 487.12 329.616 485.553L329.217 485.855ZM336.306 488.478V488.978C338.729 488.978 340.545 488.652 341.627 487.895L341.34 487.485L341.053 487.076C340.244 487.642 338.705 487.978 336.306 487.978V488.478ZM341.34 487.485L341.617 487.901C342.738 487.155 343.399 486.055 343.607 484.652L343.112 484.579L342.618 484.506C342.447 485.655 341.927 486.493 341.062 487.069L341.34 487.485ZM343.112 484.579V485.079H352.895V484.579V484.079H343.112V484.579ZM352.895 484.579L352.398 484.525C352.171 486.612 351.447 488.465 350.227 490.092L350.627 490.392L351.027 490.692C352.358 488.917 353.147 486.894 353.392 484.633L352.895 484.579ZM350.627 490.392L350.225 490.094C349.063 491.658 347.351 492.908 345.053 493.827L345.239 494.291L345.425 494.755C347.853 493.784 349.732 492.434 351.028 490.69L350.627 490.392ZM345.239 494.291L345.053 493.827C342.768 494.741 339.859 495.209 336.306 495.209V495.709V496.209C339.938 496.209 342.984 495.732 345.425 494.755L345.239 494.291ZM336.306 495.709V495.209C330.392 495.209 325.954 493.627 322.91 490.537L322.553 490.888L322.197 491.239C325.486 494.577 330.216 496.209 336.306 496.209V495.709ZM322.553 490.888L322.912 490.54C319.864 487.401 318.304 482.841 318.304 476.781H317.804H317.304C317.304 483.008 318.91 487.853 322.195 491.237L322.553 490.888ZM317.804 476.781H318.304C318.304 470.672 319.865 466.064 322.915 462.877L322.553 462.531L322.192 462.186C318.909 465.616 317.304 470.507 317.304 476.781H317.804ZM322.553 462.531L322.917 462.875C325.968 459.641 330.243 457.998 335.81 457.998V457.498V456.998C330.035 456.998 325.472 458.71 322.19 462.188L322.553 462.531ZM335.81 457.498V457.998C339.429 457.998 342.455 458.74 344.913 460.197L345.168 459.767L345.423 459.337C342.777 457.769 339.565 456.998 335.81 456.998V457.498ZM345.168 459.767L344.917 460.199C347.423 461.657 349.341 463.777 350.671 466.574L351.123 466.36L351.574 466.145C350.163 463.177 348.111 460.901 345.419 459.335L345.168 459.767ZM351.123 466.36L350.673 466.577C352.002 469.328 352.679 472.722 352.679 476.781H353.179H353.679C353.679 472.616 352.985 469.063 351.573 466.142L351.123 466.36ZM353.179 476.781H352.679V479.616H353.179H353.679V476.781H353.179ZM353.179 479.616V479.116H323.191V479.616V480.116H353.179V479.616ZM323.191 479.616L323.691 479.622L323.762 473.171L323.262 473.165L322.762 473.16L322.692 479.611L323.191 479.616ZM377.584 469.195L377.089 469.266L377.151 469.695H377.584V469.195ZM375.954 465.863L375.661 466.269L375.669 466.274L375.677 466.279L375.954 465.863ZM368.298 465.793L368.53 466.235L368.538 466.231L368.546 466.227L368.298 465.793ZM367.73 470.613L367.364 470.953L367.377 470.967L367.39 470.98L367.73 470.613ZM371.133 472.173L371.005 472.656L371.009 472.657L371.133 472.173ZM376.096 473.449L375.971 473.933L375.971 473.933L376.096 473.449ZM383.327 492.731L383.62 493.136L383.624 493.133L383.327 492.731ZM360.358 492.661L360.052 493.056L360.06 493.062L360.358 492.661ZM355.962 483.941V483.441H355.43L355.463 483.972L355.962 483.941ZM365.745 483.941L366.242 483.881L366.189 483.441H365.745V483.941ZM367.305 487.273L366.998 487.668L367.008 487.675L367.305 487.273ZM376.521 487.344L376.825 487.741L376.828 487.738L376.521 487.344ZM376.875 482.098L376.509 482.438V482.438L376.875 482.098ZM373.614 480.538L373.49 481.022L373.497 481.024L373.614 480.538ZM368.652 479.262L368.777 478.778L368.776 478.778L368.652 479.262ZM361.279 460.547L361.579 460.947L361.58 460.946L361.279 460.547ZM382.83 460.617L382.518 461.008V461.008L382.83 460.617ZM386.8 469.195V469.695H387.307L387.3 469.189L386.8 469.195ZM377.584 469.195L378.079 469.125C377.835 467.416 377.258 466.132 376.231 465.447L375.954 465.863L375.677 466.279C376.352 466.73 376.861 467.666 377.089 469.266L377.584 469.195ZM375.954 465.863L376.247 465.458C375.274 464.756 373.9 464.442 372.197 464.442V464.942V465.442C373.802 465.442 374.932 465.742 375.661 466.269L375.954 465.863ZM372.197 464.942V464.442C370.536 464.442 369.142 464.734 368.05 465.358L368.298 465.793L368.546 466.227C369.438 465.717 370.643 465.442 372.197 465.442V464.942ZM368.298 465.793L368.066 465.35C367.501 465.645 367.055 466.041 366.752 466.545C366.45 467.049 366.309 467.632 366.309 468.274H366.809H367.309C367.309 467.781 367.416 467.383 367.61 467.06C367.803 466.737 368.101 466.46 368.53 466.235L368.298 465.793ZM366.809 468.274H366.309C366.309 469.299 366.664 470.2 367.364 470.953L367.73 470.613L368.097 470.273C367.568 469.703 367.309 469.045 367.309 468.274H366.809ZM367.73 470.613L367.39 470.98C368.144 471.679 369.375 472.225 371.005 472.656L371.133 472.173L371.261 471.689C369.677 471.27 368.641 470.776 368.071 470.247L367.73 470.613ZM371.133 472.173L371.009 472.657L375.971 473.933L376.096 473.449L376.22 472.965L371.258 471.689L371.133 472.173ZM376.096 473.449L375.971 473.933C379.613 474.867 382.34 476.186 384.197 477.861L384.532 477.49L384.867 477.118C382.848 475.296 379.951 473.921 376.22 472.965L376.096 473.449ZM384.532 477.49L384.197 477.861C386.022 479.508 386.938 481.638 386.938 484.295H387.438H387.938C387.938 481.376 386.917 478.969 384.867 477.118L384.532 477.49ZM387.438 484.295H386.938C386.938 487.739 385.635 490.398 383.029 492.33L383.327 492.731L383.624 493.133C386.5 491.001 387.938 488.036 387.938 484.295H387.438ZM383.327 492.731L383.033 492.326C380.41 494.226 376.63 495.209 371.629 495.209V495.709V496.209C376.742 496.209 380.761 495.207 383.62 493.136L383.327 492.731ZM371.629 495.709V495.209C366.922 495.209 363.282 494.206 360.655 492.259L360.358 492.661L360.06 493.062C362.916 495.179 366.791 496.209 371.629 496.209V495.709ZM360.358 492.661L360.663 492.265C358.095 490.283 356.69 487.515 356.461 483.909L355.962 483.941L355.463 483.972C355.708 487.834 357.232 490.88 360.052 493.056L360.358 492.661ZM355.962 483.941V484.441H365.745V483.941V483.441H355.962V483.941ZM365.745 483.941L365.249 484.001C365.447 485.632 366.002 486.893 366.998 487.667L367.305 487.273L367.612 486.878C366.907 486.329 366.422 485.369 366.242 483.881L365.745 483.941ZM367.305 487.273L367.008 487.675C368.034 488.431 369.557 488.765 371.488 488.765V488.265V487.765C369.637 487.765 368.372 487.438 367.602 486.87L367.305 487.273ZM371.488 488.265V488.765C372.781 488.765 373.871 488.688 374.75 488.527C375.62 488.367 376.331 488.118 376.825 487.741L376.521 487.344L376.217 486.946C375.907 487.183 375.378 487.395 374.57 487.543C373.772 487.689 372.747 487.765 371.488 487.765V488.265ZM376.521 487.344L376.828 487.738C377.808 486.976 378.297 485.929 378.297 484.65H377.797H377.297C377.297 485.639 376.936 486.388 376.214 486.949L376.521 487.344ZM377.797 484.65H378.297C378.297 483.504 377.955 482.526 377.242 481.757L376.875 482.098L376.509 482.438C377.025 482.993 377.297 483.716 377.297 484.65H377.797ZM376.875 482.098L377.242 481.757C376.527 480.987 375.323 480.438 373.732 480.052L373.614 480.538L373.497 481.024C375.026 481.395 375.996 481.885 376.509 482.438L376.875 482.098ZM373.614 480.538L373.739 480.054L368.777 478.778L368.652 479.262L368.528 479.746L373.49 481.022L373.614 480.538ZM368.652 479.262L368.776 478.778C365.135 477.844 362.407 476.525 360.551 474.85L360.216 475.221L359.881 475.592C361.9 477.414 364.796 478.79 368.528 479.746L368.652 479.262ZM360.216 475.221L360.551 474.85C358.722 473.2 357.809 471.115 357.809 468.557H357.309H356.809C356.809 471.388 357.834 473.745 359.881 475.592L360.216 475.221ZM357.309 468.557H357.809C357.809 465.356 359.061 462.835 361.579 460.947L361.279 460.547L360.979 460.147C358.205 462.228 356.809 465.047 356.809 468.557H357.309ZM361.279 460.547L361.58 460.946C364.161 458.999 367.682 457.998 372.197 457.998V457.498V456.998C367.542 456.998 363.785 458.03 360.978 460.147L361.279 460.547ZM372.197 457.498V457.998C376.612 457.998 380.034 459.021 382.518 461.008L382.83 460.617L383.143 460.227C380.428 458.055 376.761 456.998 372.197 456.998V457.498ZM382.83 460.617L382.518 461.008C384.989 462.984 386.255 465.696 386.3 469.202L386.8 469.195L387.3 469.189C387.251 465.416 385.871 462.409 383.143 460.227L382.83 460.617ZM386.8 469.195V468.695H377.584V469.195V469.695H386.8V469.195ZM401.955 458.207H402.455V457.707H401.955V458.207ZM401.955 495V495.5H402.455V495H401.955ZM392.455 495H391.955V495.5H392.455V495ZM392.455 458.207V457.707H391.955V458.207H392.455ZM392.242 444.029V443.529H391.742V444.029H392.242ZM402.167 444.029H402.667V443.529H402.167V444.029ZM402.167 453.812V454.312H402.667V453.812H402.167ZM392.242 453.812H391.742V454.312H392.242V453.812ZM401.955 458.207H401.455V495H401.955H402.455V458.207H401.955ZM401.955 495V494.5H392.455V495V495.5H401.955V495ZM392.455 495H392.955V458.207H392.455H391.955V495H392.455ZM392.455 458.207V458.707H401.955V458.207V457.707H392.455V458.207ZM392.242 444.029V444.529H402.167V444.029V443.529H392.242V444.029ZM402.167 444.029H401.667V453.812H402.167H402.667V444.029H402.167ZM402.167 453.812V453.312H392.242V453.812V454.312H402.167V453.812ZM392.242 453.812H392.742V444.029H392.242H391.742V453.812H392.242ZM411.493 489.612L411.124 489.949L411.129 489.955L411.493 489.612ZM409.296 465.509L409.738 465.742L409.74 465.739L409.296 465.509ZM414.967 459.483L415.205 459.923L415.208 459.921L414.967 459.483ZM431.627 460.05L431.323 460.447L431.328 460.451L431.627 460.05ZM436.447 485.217L436.918 485.387L436.918 485.385L436.447 485.217ZM431.627 491.81L431.925 492.211V492.211L431.627 491.81ZM432.265 484.154L432.656 484.465L432.66 484.46L432.265 484.154ZM432.265 467.707L432.66 467.4V467.4L432.265 467.707ZM418.866 467.707L418.476 467.394L418.471 467.4L418.866 467.707ZM418.866 484.154L418.471 484.46L418.48 484.471L418.866 484.154ZM434.604 458.207V457.707H434.104V458.207H434.604ZM443.962 458.207H444.462V457.707H443.962V458.207ZM443.962 493.015V493.515H444.462V493.015H443.962ZM434.462 493.015H433.962V493.515H434.462V493.015ZM434.462 465.084L433.982 464.946L433.962 465.014V465.084H434.462ZM434.604 464.587L435.085 464.725L435.104 464.657V464.587H434.604ZM443.962 492.448L444.462 492.428L444.443 491.948H443.962V492.448ZM440.063 506.059L439.693 505.723L439.69 505.726L440.063 506.059ZM416.881 509.178L417.073 508.717L417.065 508.714L416.881 509.178ZM411.423 504.925L410.997 505.187V505.187L411.423 504.925ZM409.579 498.474V497.974H409.06L409.08 498.493L409.579 498.474ZM419.079 498.474L419.575 498.409L419.518 497.974H419.079V498.474ZM419.859 501.168L419.417 501.403L419.423 501.413L419.859 501.168ZM422.056 502.798L421.905 503.275L421.911 503.276L422.056 502.798ZM431.627 502.231L431.362 501.807L431.354 501.812L431.627 502.231ZM433.895 498.757L433.413 498.626L433.411 498.634L433.409 498.643L433.895 498.757ZM434.462 492.448V491.948H433.953L433.963 492.457L434.462 492.448ZM422.765 494.291V493.791C418.308 493.791 414.686 492.281 411.858 489.27L411.493 489.612L411.129 489.955C414.161 493.182 418.054 494.791 422.765 494.791V494.291ZM411.493 489.612L411.863 489.276C409.091 486.231 407.669 481.832 407.669 476.001H407.169H406.669C406.669 481.986 408.13 486.66 411.124 489.949L411.493 489.612ZM407.169 476.001H407.669C407.669 471.75 408.371 468.34 409.738 465.742L409.296 465.509L408.853 465.276C407.385 468.065 406.669 471.651 406.669 476.001H407.169ZM409.296 465.509L409.74 465.739C411.119 463.073 412.943 461.145 415.205 459.923L414.967 459.483L414.73 459.043C412.265 460.374 410.309 462.463 408.852 465.279L409.296 465.509ZM414.967 459.483L415.208 459.921C417.543 458.639 420.06 457.998 422.765 457.998V457.498V456.998C419.894 456.998 417.212 457.68 414.727 459.045L414.967 459.483ZM422.765 457.498V457.998C426.377 457.998 429.213 458.831 431.323 460.447L431.627 460.05L431.931 459.653C429.598 457.867 426.527 456.998 422.765 456.998V457.498ZM431.627 460.05L431.328 460.451C433.465 462.042 435.015 464.18 435.976 466.882L436.447 466.714L436.918 466.546C435.895 463.672 434.231 461.367 431.925 459.649L431.627 460.05ZM436.447 466.714L435.976 466.882C436.947 469.609 437.436 472.647 437.436 476.001H437.936H438.436C438.436 472.549 437.933 469.396 436.918 466.546L436.447 466.714ZM437.936 476.001H437.436C437.436 479.307 436.947 482.321 435.976 485.049L436.447 485.217L436.918 485.385C437.932 482.536 438.436 479.406 438.436 476.001H437.936ZM436.447 485.217L435.977 485.047C435.016 487.701 433.467 489.816 431.328 491.409L431.627 491.81L431.925 492.211C434.229 490.495 435.894 488.215 436.918 485.387L436.447 485.217ZM431.627 491.81L431.328 491.409C429.218 492.98 426.379 493.791 422.765 493.791V494.291V494.791C426.524 494.791 429.593 493.948 431.925 492.211L431.627 491.81ZM425.672 486.918V487.418C428.714 487.418 431.073 486.456 432.656 484.465L432.265 484.154L431.873 483.842C430.526 485.538 428.491 486.418 425.672 486.418V486.918ZM432.265 484.154L432.66 484.46C434.22 482.447 434.962 479.58 434.962 475.93H434.462H433.962C433.962 479.464 433.24 482.079 431.87 483.847L432.265 484.154ZM434.462 475.93H434.962C434.962 472.28 434.22 469.413 432.66 467.4L432.265 467.707L431.87 468.013C433.24 469.781 433.962 472.396 433.962 475.93H434.462ZM432.265 467.707L432.66 467.4C431.079 465.36 428.718 464.371 425.672 464.371V464.871V465.371C428.486 465.371 430.521 466.272 431.87 468.013L432.265 467.707ZM425.672 464.871V464.371C422.537 464.371 420.106 465.356 418.476 467.394L418.866 467.707L419.257 468.019C420.651 466.276 422.757 465.371 425.672 465.371V464.871ZM418.866 467.707L418.471 467.4C416.911 469.413 416.169 472.28 416.169 475.93H416.669H417.169C417.169 472.396 417.891 469.781 419.261 468.013L418.866 467.707ZM416.669 475.93H416.169C416.169 479.58 416.911 482.447 418.471 484.46L418.866 484.154L419.261 483.847C417.891 482.079 417.169 479.464 417.169 475.93H416.669ZM418.866 484.154L418.48 484.471C420.112 486.46 422.541 487.418 425.672 487.418V486.918V486.418C422.753 486.418 420.646 485.534 419.253 483.836L418.866 484.154ZM434.604 458.207V458.707H443.962V458.207V457.707H434.604V458.207ZM443.962 458.207H443.462V493.015H443.962H444.462V458.207H443.962ZM443.962 493.015V492.515H434.462V493.015V493.515H443.962V493.015ZM434.462 493.015H434.962V465.084H434.462H433.962V493.015H434.462ZM434.462 465.084L434.943 465.221L435.085 464.725L434.604 464.587L434.123 464.45L433.982 464.946L434.462 465.084ZM434.604 464.587H435.104V458.207H434.604H434.104V464.587H434.604ZM443.962 492.448L443.462 492.468C443.696 498.346 442.409 502.735 439.693 505.723L440.063 506.059L440.433 506.395C443.388 503.145 444.701 498.459 444.462 492.428L443.962 492.448ZM440.063 506.059L439.69 505.726C437.033 508.699 432.778 510.238 426.806 510.238V510.738V511.238C432.933 511.238 437.516 509.658 440.436 506.392L440.063 506.059ZM426.806 510.738V510.238C422.73 510.238 419.494 509.722 417.073 508.717L416.881 509.178L416.69 509.64C419.278 510.715 422.659 511.238 426.806 511.238V510.738ZM416.881 509.178L417.065 508.714C414.636 507.751 412.913 506.394 411.848 504.663L411.423 504.925L410.997 505.187C412.2 507.143 414.117 508.621 416.697 509.643L416.881 509.178ZM411.423 504.925L411.848 504.663C410.765 502.902 410.171 500.838 410.079 498.454L409.579 498.474L409.08 498.493C409.177 501.025 409.812 503.261 410.997 505.187L411.423 504.925ZM409.579 498.474V498.974H419.079V498.474V497.974H409.579V498.474ZM419.079 498.474L418.583 498.538C418.73 499.665 419.003 500.625 419.418 501.403L419.859 501.168L420.3 500.932C419.958 500.292 419.711 499.457 419.575 498.409L419.079 498.474ZM419.859 501.168L419.423 501.413C419.925 502.306 420.777 502.916 421.905 503.275L422.056 502.798L422.208 502.322C421.256 502.019 420.643 501.542 420.294 500.922L419.859 501.168ZM422.056 502.798L421.911 503.276C423.069 503.629 424.711 503.794 426.806 503.794V503.294V502.794C424.742 502.794 423.218 502.629 422.202 502.32L422.056 502.798ZM426.806 503.294V503.794C428.974 503.794 430.695 503.436 431.9 502.65L431.627 502.231L431.354 501.812C430.385 502.444 428.892 502.794 426.806 502.794V503.294ZM431.627 502.231L431.892 502.655C433.163 501.861 433.981 500.575 434.382 498.872L433.895 498.757L433.409 498.643C433.053 500.153 432.359 501.184 431.362 501.807L431.627 502.231ZM433.895 498.757L434.378 498.889C434.821 497.264 435.01 495.107 434.962 492.439L434.462 492.448L433.963 492.457C434.009 495.082 433.82 497.132 433.413 498.626L433.895 498.757ZM434.462 492.448V492.948H443.962V492.448V491.948H434.462V492.448ZM461.189 495V495.5H461.689V495H461.189ZM451.689 495H451.189V495.5H451.689V495ZM451.689 458.207V457.707H451.189V458.207H451.689ZM461.189 458.207L461.689 458.215L461.697 457.707H461.189V458.207ZM461.118 462.531L460.618 462.523L460.588 464.33L461.542 462.795L461.118 462.531ZM465.017 458.703L465.251 459.145V459.145L465.017 458.703ZM480.684 460.972L480.345 461.339L480.348 461.342L480.684 460.972ZM484.512 495V495.5H485.012V495H484.512ZM475.013 495H474.513V495.5H475.013V495ZM473.382 466.714L473.007 467.044L473.014 467.052L473.021 467.06L473.382 466.714ZM464.45 465.863L464.681 466.307L464.688 466.303L464.45 465.863ZM461.969 468.557L461.515 468.348L461.511 468.355L461.508 468.362L461.969 468.557ZM461.189 495V494.5H451.689V495V495.5H461.189V495ZM451.689 495H452.189V458.207H451.689H451.189V495H451.689ZM451.689 458.207V458.707H461.189V458.207V457.707H451.689V458.207ZM461.189 458.207L460.689 458.199L460.618 462.523L461.118 462.531L461.618 462.54L461.689 458.215L461.189 458.207ZM461.118 462.531L461.542 462.795C462.592 461.107 463.831 459.899 465.251 459.145L465.017 458.703L464.782 458.262C463.178 459.114 461.817 460.459 460.693 462.268L461.118 462.531ZM465.017 458.703L465.251 459.145C466.672 458.39 468.476 457.998 470.688 457.998V457.498V456.998C468.363 456.998 466.387 457.41 464.782 458.262L465.017 458.703ZM470.688 457.498V457.998C474.75 457.998 477.951 459.126 480.345 461.339L480.684 460.972L481.023 460.605C478.407 458.186 474.944 456.998 470.688 456.998V457.498ZM480.684 460.972L480.348 461.342C482.75 463.522 484.012 467.18 484.012 472.456H484.512H485.012C485.012 467.052 483.722 463.054 481.02 460.602L480.684 460.972ZM484.512 472.456H484.012V495H484.512H485.012V472.456H484.512ZM484.512 495V494.5H475.013V495V495.5H484.512V495ZM475.013 495H475.513V472.385H475.013H474.513V495H475.013ZM475.013 472.385H475.513C475.513 469.692 474.964 467.642 473.743 466.368L473.382 466.714L473.021 467.06C473.975 468.055 474.513 469.785 474.513 472.385H475.013ZM473.382 466.714L473.757 466.384C472.593 465.06 470.85 464.442 468.632 464.442V464.942V465.442C470.668 465.442 472.092 466.005 473.007 467.044L473.382 466.714ZM468.632 464.942V464.442C466.918 464.442 465.437 464.76 464.212 465.424L464.45 465.863L464.688 466.303C465.731 465.738 467.038 465.442 468.632 465.442V464.942ZM464.45 465.863L464.218 465.42C463.023 466.044 462.123 467.03 461.515 468.348L461.969 468.557L462.422 468.767C462.948 467.627 463.702 466.817 464.681 466.307L464.45 465.863ZM461.969 468.557L461.508 468.362C460.953 469.675 460.689 471.356 460.689 473.378H461.189H461.689C461.689 471.43 461.945 469.897 462.429 468.752L461.969 468.557ZM461.189 473.378H460.689V495H461.189H461.689V473.378H461.189ZM516.819 495V495.5H517.319V495H516.819ZM507.32 495H506.82V495.5H507.32V495ZM507.32 444.029V443.529H506.82V444.029H507.32ZM516.819 444.029H517.319V443.529H516.819V444.029ZM516.819 495V494.5H507.32V495V495.5H516.819V495ZM507.32 495H507.82V444.029H507.32H506.82V495H507.32ZM507.32 444.029V444.529H516.819V444.029V443.529H507.32V444.029ZM516.819 444.029H516.319V495H516.819H517.319V444.029H516.819ZM558.392 495V495.5H558.892V495H558.392ZM547.758 492.802L547.368 493.116L547.375 493.124L547.758 492.802ZM545.844 487.344V486.844H545.321L545.344 487.365L545.844 487.344ZM547.9 487.344L548.372 487.507L548.601 486.844H547.9V487.344ZM543.504 493.511L543.801 493.914L543.803 493.912L543.504 493.511ZM528.83 494.504L528.636 494.965L528.649 494.97L528.83 494.504ZM524.009 490.746L523.598 491.032L523.602 491.037L524.009 490.746ZM523.584 478.482L523.156 478.223L523.154 478.227L523.584 478.482ZM532.232 473.094L532.323 473.586L532.335 473.584L532.232 473.094ZM545.844 472.527V473.027H546.344V472.527H545.844ZM544.355 466.076L543.993 466.421L544.001 466.43L544.01 466.438L544.355 466.076ZM534.926 465.793L534.602 465.412V465.412L534.926 465.793ZM533.154 469.479V469.979H533.588L533.649 469.55L533.154 469.479ZM523.654 469.479L523.155 469.451L523.126 469.979H523.654V469.479ZM526.136 462.957L526.518 463.279V463.279L526.136 462.957ZM532.02 458.916L532.194 459.385L532.202 459.381L532.02 458.916ZM549.814 460.121L549.539 460.539L549.545 460.543L549.814 460.121ZM553.642 464.233L554.077 463.986V463.986L553.642 464.233ZM555.13 487.556H554.63V488.056H555.13V487.556ZM558.392 487.556H558.892V487.056H558.392V487.556ZM532.799 487.485L532.466 487.858L532.472 487.863L532.477 487.868L532.799 487.485ZM543.575 486.635L543.904 487.011L543.911 487.005L543.575 486.635ZM545.844 478.978H546.344V478.478H545.844V478.978ZM532.87 480.254L533.194 480.635L533.196 480.634L532.87 480.254ZM558.392 495V494.5H552.862V495V495.5H558.392V495ZM552.862 495V494.5C550.813 494.5 549.261 493.817 548.141 492.481L547.758 492.802L547.375 493.124C548.712 494.718 550.563 495.5 552.862 495.5V495ZM547.758 492.802L548.147 492.488C547.043 491.119 546.434 489.407 546.343 487.322L545.844 487.344L545.344 487.365C545.443 489.629 546.11 491.555 547.368 493.116L547.758 492.802ZM545.844 487.344V487.844H547.9V487.344V486.844H545.844V487.344ZM547.9 487.344L547.427 487.18C546.559 489.693 545.15 491.663 543.206 493.11L543.504 493.511L543.803 493.912C545.922 492.335 547.444 490.193 548.372 487.507L547.9 487.344ZM543.504 493.511L543.207 493.109C541.329 494.496 538.889 495.209 535.848 495.209V495.709V496.209C539.045 496.209 541.71 495.457 543.801 493.914L543.504 493.511ZM535.848 495.709V495.209C533.3 495.209 531.023 494.815 529.01 494.037L528.83 494.504L528.649 494.97C530.795 495.799 533.197 496.209 535.848 496.209V495.709ZM528.83 494.504L529.023 494.043C527.069 493.225 525.539 492.028 524.416 490.456L524.009 490.746L523.602 491.037C524.842 492.773 526.526 494.082 528.637 494.965L528.83 494.504ZM524.009 490.746L524.42 490.461C523.31 488.863 522.737 486.819 522.737 484.295H522.237H521.737C521.737 486.971 522.345 489.227 523.598 491.032L524.009 490.746ZM522.237 484.295H522.737C522.737 481.992 523.175 480.15 524.013 478.737L523.584 478.482L523.154 478.227C522.197 479.839 521.737 481.872 521.737 484.295H522.237ZM523.584 478.482L524.011 478.741C524.914 477.251 526.082 476.109 527.515 475.302L527.27 474.867L527.025 474.431C525.434 475.326 524.143 476.594 523.156 478.223L523.584 478.482ZM527.27 474.867L527.515 475.302C528.977 474.48 530.578 473.907 532.323 473.586L532.232 473.094L532.142 472.603C530.294 472.943 528.588 473.552 527.025 474.431L527.27 474.867ZM532.232 473.094L532.335 473.584C534.099 473.212 535.837 473.027 537.549 473.027V472.527V472.027C535.764 472.027 533.958 472.22 532.129 472.605L532.232 473.094ZM537.549 472.527V473.027H545.844V472.527V472.027H537.549V472.527ZM545.844 472.527H546.344V470.471H545.844H545.344V472.527H545.844ZM545.844 470.471H546.344C546.344 468.412 545.829 466.789 544.7 465.714L544.355 466.076L544.01 466.438C544.866 467.253 545.344 468.561 545.344 470.471H545.844ZM544.355 466.076L544.717 465.731C543.636 464.596 541.936 464.087 539.747 464.087V464.587V465.087C541.811 465.087 543.183 465.571 543.993 466.421L544.355 466.076ZM539.747 464.587V464.087C537.447 464.087 535.688 464.489 534.602 465.412L534.926 465.793L535.25 466.173C536.055 465.489 537.51 465.087 539.747 465.087V464.587ZM534.926 465.793L534.602 465.412C533.536 466.318 532.907 467.676 532.659 469.408L533.154 469.479L533.649 469.55C533.874 467.974 534.426 466.874 535.25 466.173L534.926 465.793ZM533.154 469.479V468.979H523.654V469.479V469.979H533.154V469.479ZM523.654 469.479L524.154 469.507C524.29 467.053 525.082 464.985 526.518 463.279L526.136 462.957L525.753 462.635C524.165 464.521 523.302 466.801 523.155 469.451L523.654 469.479ZM526.136 462.957L526.518 463.279C527.97 461.555 529.857 460.255 532.194 459.385L532.02 458.916L531.845 458.447C529.362 459.373 527.326 460.767 525.753 462.635L526.136 462.957ZM532.02 458.916L532.202 459.381C534.548 458.462 537.132 457.998 539.96 457.998V457.498V456.998C537.021 456.998 534.312 457.48 531.837 458.451L532.02 458.916ZM539.96 457.498V457.998C541.479 457.998 543.097 458.182 544.816 458.554L544.922 458.065L545.028 457.577C543.249 457.192 541.559 456.998 539.96 456.998V457.498ZM544.922 458.065L544.816 458.554C546.504 458.919 548.078 459.58 549.539 460.539L549.814 460.121L550.088 459.703C548.525 458.677 546.837 457.968 545.028 457.577L544.922 458.065ZM549.814 460.121L549.545 460.543C551.03 461.488 552.251 462.796 553.207 464.48L553.642 464.233L554.077 463.986C553.047 462.173 551.716 460.739 550.082 459.699L549.814 460.121ZM553.642 464.233L553.207 464.48C554.143 466.13 554.63 468.305 554.63 471.039H555.13H555.63C555.63 468.195 555.125 465.834 554.077 463.986L553.642 464.233ZM555.13 471.039H554.63V487.556H555.13H555.63V471.039H555.13ZM555.13 487.556V488.056H558.392V487.556V487.056H555.13V487.556ZM558.392 487.556H557.892V495H558.392H558.892V487.556H558.392ZM531.453 483.87H530.953C530.953 485.569 531.43 486.931 532.466 487.858L532.799 487.485L533.133 487.113C532.373 486.433 531.953 485.385 531.953 483.87H531.453ZM532.799 487.485L532.477 487.868C533.51 488.737 535.096 489.12 537.124 489.12V488.62V488.12C535.182 488.12 533.885 487.746 533.122 487.103L532.799 487.485ZM537.124 488.62V489.12C539.987 489.12 542.271 488.44 543.904 487.011L543.575 486.635L543.246 486.258C541.855 487.476 539.838 488.12 537.124 488.12V488.62ZM543.575 486.635L543.911 487.005C545.542 485.527 546.344 483.541 546.344 481.105H545.844H545.344C545.344 483.301 544.632 485.002 543.239 486.264L543.575 486.635ZM545.844 481.105H546.344V478.978H545.844H545.344V481.105H545.844ZM545.844 478.978V478.478H537.62V478.978V479.478H545.844V478.978ZM537.62 478.978V478.478C535.4 478.478 533.671 478.909 532.545 479.875L532.87 480.254L533.196 480.634C534.054 479.898 535.492 479.478 537.62 479.478V478.978ZM532.87 480.254L532.547 479.874C531.458 480.798 530.953 482.163 530.953 483.87H531.453H531.953C531.953 482.363 532.392 481.317 533.194 480.635L532.87 480.254ZM572.312 444.029H572.812V443.529H572.312V444.029ZM572.312 495V495.5H572.812V495H572.312ZM562.812 495H562.312V495.5H562.812V495ZM562.812 444.029V443.529H562.312V444.029H562.812ZM575.077 493.228L574.772 493.625L574.782 493.632L575.077 493.228ZM570.256 486.422L569.783 486.585L569.784 486.587L570.256 486.422ZM570.256 466.927L569.783 466.764V466.764L570.256 466.927ZM575.077 460.05L574.777 459.65L574.773 459.653L575.077 460.05ZM591.736 459.483L591.98 459.047V459.047L591.736 459.483ZM597.408 465.722L596.96 465.945L596.962 465.948L597.408 465.722ZM595.21 490.959L595.58 491.296L595.582 491.293L595.21 490.959ZM587.766 485.43L587.372 485.122L587.367 485.128L587.766 485.43ZM587.766 467.848L587.364 468.145L587.372 468.156L587.766 467.848ZM574.439 467.848L574.036 467.551L574.035 467.553L574.439 467.848ZM574.439 485.43L574.035 485.725L574.04 485.731L574.439 485.43ZM572.312 444.029H571.812V495H572.312H572.812V444.029H572.312ZM572.312 495V494.5H562.812V495V495.5H572.312V495ZM562.812 495H563.312V444.029H562.812H562.312V495H562.812ZM562.812 444.029V444.529H572.312V444.029V443.529H562.812V444.029ZM583.938 495.709V495.209C580.373 495.209 577.532 494.399 575.371 492.824L575.077 493.228L574.782 493.632C577.158 495.364 580.224 496.209 583.938 496.209V495.709ZM575.077 493.228L575.381 492.831C573.242 491.193 571.691 489.008 570.728 486.257L570.256 486.422L569.784 486.587C570.806 489.508 572.468 491.86 574.773 493.625L575.077 493.228ZM570.256 486.422L570.729 486.259C569.757 483.437 569.267 480.256 569.267 476.71H568.767H568.267C568.267 480.348 568.77 483.641 569.783 486.585L570.256 486.422ZM568.767 476.71H569.267C569.267 473.116 569.757 469.911 570.729 467.09L570.256 466.927L569.783 466.764C568.77 469.708 568.267 473.026 568.267 476.71H568.767ZM570.256 466.927L570.729 467.09C571.692 464.291 573.244 462.083 575.381 460.447L575.077 460.05L574.773 459.653C572.466 461.42 570.805 463.797 569.783 466.764L570.256 466.927ZM575.077 460.05L575.377 460.45C577.537 458.83 580.376 457.998 583.938 457.998V457.498V456.998C580.222 456.998 577.153 457.868 574.777 459.65L575.077 460.05ZM583.938 457.498V457.998C586.692 457.998 589.207 458.64 591.492 459.919L591.736 459.483L591.98 459.047C589.539 457.68 586.855 456.998 583.938 456.998V457.498ZM591.736 459.483L591.492 459.919C593.753 461.186 595.579 463.184 596.96 465.945L597.408 465.722L597.855 465.498C596.4 462.588 594.445 460.427 591.98 459.047L591.736 459.483ZM597.408 465.722L596.962 465.948C598.332 468.642 599.034 472.219 599.034 476.71H599.534H600.034C600.034 472.127 599.319 468.378 597.853 465.495L597.408 465.722ZM599.534 476.71H599.034C599.034 482.928 597.608 487.537 594.838 490.625L595.21 490.959L595.582 491.293C598.578 487.953 600.034 483.064 600.034 476.71H599.534ZM595.21 490.959L594.84 490.623C592.06 493.676 588.442 495.209 583.938 495.209V495.709V496.209C588.698 496.209 592.594 494.576 595.58 491.296L595.21 490.959ZM581.031 488.336V488.836C584.17 488.836 586.582 487.824 588.165 485.731L587.766 485.43L587.367 485.128C586.02 486.91 583.942 487.836 581.031 487.836V488.336ZM587.766 485.43L588.16 485.737C589.772 483.673 590.535 480.611 590.535 476.639H590.035H589.535C589.535 480.512 588.786 483.311 587.372 485.122L587.766 485.43ZM590.035 476.639H590.535C590.535 472.667 589.772 469.605 588.16 467.541L587.766 467.848L587.372 468.156C588.786 469.967 589.535 472.766 589.535 476.639H590.035ZM587.766 467.848L588.169 467.551C586.588 465.41 584.175 464.371 581.031 464.371V464.871V465.371C583.938 465.371 586.015 466.317 587.364 468.145L587.766 467.848ZM581.031 464.871V464.371C577.976 464.371 575.614 465.414 574.036 467.551L574.439 467.848L574.841 468.145C576.193 466.313 578.226 465.371 581.031 465.371V464.871ZM574.439 467.848L574.035 467.553C572.526 469.616 571.812 472.672 571.812 476.639H572.312H572.812C572.812 472.761 573.515 469.957 574.842 468.144L574.439 467.848ZM572.312 476.639H571.812C571.812 480.606 572.526 483.662 574.035 485.725L574.439 485.43L574.842 485.134C573.515 483.321 572.812 480.517 572.812 476.639H572.312ZM574.439 485.43L574.04 485.731C575.619 487.82 577.981 488.836 581.031 488.836V488.336V487.836C578.222 487.836 576.188 486.914 574.837 485.128L574.439 485.43ZM623.992 469.195L623.497 469.266L623.558 469.695H623.992V469.195ZM622.361 465.863L622.069 466.269L622.076 466.274L622.084 466.279L622.361 465.863ZM614.705 465.793L614.937 466.235L614.945 466.231L614.953 466.227L614.705 465.793ZM614.138 470.613L613.772 470.953L613.784 470.967L613.798 470.98L614.138 470.613ZM617.541 472.173L617.413 472.656L617.416 472.657L617.541 472.173ZM622.503 473.449L622.379 473.933L622.379 473.933L622.503 473.449ZM629.734 492.731L630.027 493.136L630.032 493.133L629.734 492.731ZM606.765 492.661L606.46 493.056L606.467 493.062L606.765 492.661ZM602.37 483.941V483.441H601.837L601.871 483.972L602.37 483.941ZM612.153 483.941L612.649 483.881L612.596 483.441H612.153V483.941ZM613.713 487.273L613.406 487.668L613.416 487.675L613.713 487.273ZM622.929 487.344L623.232 487.741L623.236 487.738L622.929 487.344ZM623.283 482.098L622.917 482.438V482.438L623.283 482.098ZM620.022 480.538L619.898 481.022L619.904 481.024L620.022 480.538ZM615.06 479.262L615.184 478.778L615.184 478.778L615.06 479.262ZM607.687 460.547L607.987 460.947L607.988 460.946L607.687 460.547ZM629.238 460.617L628.926 461.008V461.008L629.238 460.617ZM633.208 469.195V469.695H633.714L633.708 469.189L633.208 469.195ZM623.992 469.195L624.487 469.125C624.243 467.416 623.665 466.132 622.639 465.447L622.361 465.863L622.084 466.279C622.759 466.73 623.268 467.666 623.497 469.266L623.992 469.195ZM622.361 465.863L622.654 465.458C621.682 464.756 620.307 464.442 618.604 464.442V464.942V465.442C620.209 465.442 621.34 465.742 622.069 466.269L622.361 465.863ZM618.604 464.942V464.442C616.944 464.442 615.55 464.734 614.457 465.358L614.705 465.793L614.953 466.227C615.846 465.717 617.051 465.442 618.604 465.442V464.942ZM614.705 465.793L614.473 465.35C613.909 465.645 613.462 466.041 613.16 466.545C612.857 467.049 612.716 467.632 612.716 468.274H613.216H613.716C613.716 467.781 613.823 467.383 614.017 467.06C614.211 466.737 614.509 466.46 614.937 466.235L614.705 465.793ZM613.216 468.274H612.716C612.716 469.299 613.072 470.2 613.772 470.953L614.138 470.613L614.504 470.273C613.975 469.703 613.716 469.045 613.716 468.274H613.216ZM614.138 470.613L613.798 470.98C614.551 471.679 615.783 472.225 617.413 472.656L617.541 472.173L617.669 471.689C616.085 471.27 615.048 470.776 614.478 470.247L614.138 470.613ZM617.541 472.173L617.416 472.657L622.379 473.933L622.503 473.449L622.628 472.965L617.665 471.689L617.541 472.173ZM622.503 473.449L622.379 473.933C626.02 474.867 628.748 476.186 630.604 477.861L630.939 477.49L631.274 477.118C629.255 475.296 626.359 473.921 622.627 472.965L622.503 473.449ZM630.939 477.49L630.604 477.861C632.429 479.508 633.346 481.638 633.346 484.295H633.846H634.346C634.346 481.376 633.325 478.969 631.274 477.118L630.939 477.49ZM633.846 484.295H633.346C633.346 487.739 632.043 490.398 629.436 492.33L629.734 492.731L630.032 493.133C632.908 491.001 634.346 488.036 634.346 484.295H633.846ZM629.734 492.731L629.441 492.326C626.818 494.226 623.038 495.209 618.037 495.209V495.709V496.209C623.15 496.209 627.168 495.207 630.027 493.136L629.734 492.731ZM618.037 495.709V495.209C613.329 495.209 609.69 494.206 607.063 492.259L606.765 492.661L606.467 493.062C609.323 495.179 613.198 496.209 618.037 496.209V495.709ZM606.765 492.661L607.071 492.265C604.503 490.283 603.097 487.515 602.869 483.909L602.37 483.941L601.871 483.972C602.115 487.834 603.64 490.88 606.46 493.056L606.765 492.661ZM602.37 483.941V484.441H612.153V483.941V483.441H602.37V483.941ZM612.153 483.941L611.657 484.001C611.854 485.632 612.41 486.893 613.406 487.667L613.713 487.273L614.02 486.878C613.314 486.329 612.83 485.369 612.649 483.881L612.153 483.941ZM613.713 487.273L613.416 487.675C614.442 488.431 615.965 488.765 617.895 488.765V488.265V487.765C616.045 487.765 614.78 487.438 614.009 486.87L613.713 487.273ZM617.895 488.265V488.765C619.188 488.765 620.278 488.688 621.158 488.527C622.028 488.367 622.739 488.118 623.232 487.741L622.929 487.344L622.625 486.946C622.315 487.183 621.785 487.395 620.978 487.543C620.179 487.689 619.154 487.765 617.895 487.765V488.265ZM622.929 487.344L623.236 487.738C624.215 486.976 624.705 485.929 624.705 484.65H624.205H623.705C623.705 485.639 623.343 486.388 622.622 486.949L622.929 487.344ZM624.205 484.65H624.705C624.705 483.504 624.363 482.526 623.649 481.757L623.283 482.098L622.917 482.438C623.432 482.993 623.705 483.716 623.705 484.65H624.205ZM623.283 482.098L623.649 481.757C622.934 480.987 621.73 480.438 620.14 480.052L620.022 480.538L619.904 481.024C621.433 481.395 622.403 481.885 622.917 482.438L623.283 482.098ZM620.022 480.538L620.147 480.054L615.184 478.778L615.06 479.262L614.935 479.746L619.898 481.022L620.022 480.538ZM615.06 479.262L615.184 478.778C611.542 477.844 608.815 476.525 606.958 474.85L606.623 475.221L606.288 475.592C608.307 477.414 611.204 478.79 614.935 479.746L615.06 479.262ZM606.623 475.221L606.958 474.85C605.13 473.2 604.217 471.115 604.217 468.557H603.717H603.217C603.217 471.388 604.242 473.745 606.288 475.592L606.623 475.221ZM603.717 468.557H604.217C604.217 465.356 605.468 462.835 607.987 460.947L607.687 460.547L607.387 460.147C604.612 462.228 603.217 465.047 603.217 468.557H603.717ZM607.687 460.547L607.988 460.946C610.569 458.999 614.09 457.998 618.604 457.998V457.498V456.998C613.95 456.998 610.193 458.03 607.386 460.147L607.687 460.547ZM618.604 457.498V457.998C623.02 457.998 626.441 459.021 628.926 461.008L629.238 460.617L629.55 460.227C626.836 458.055 623.168 456.998 618.604 456.998V457.498ZM629.238 460.617L628.926 461.008C631.396 462.984 632.662 465.696 632.708 469.202L633.208 469.195L633.708 469.189C633.659 465.416 632.278 462.409 629.55 460.227L629.238 460.617ZM633.208 469.195V468.695H623.992V469.195V469.695H633.208V469.195Z" fill="#FFFAEE"/>
<path d="M315.651 587.256C314.032 587.256 312.797 586.638 311.945 585.402C311.107 584.167 310.688 582.222 310.688 579.566C310.688 576.911 311.107 574.965 311.945 573.73C312.797 572.494 314.032 571.877 315.651 571.877C317.27 571.877 318.498 572.494 319.336 573.73C320.188 574.965 320.614 576.911 320.614 579.566C320.614 582.222 320.188 584.167 319.336 585.402C318.498 586.638 317.27 587.256 315.651 587.256ZM315.651 586.553C317.028 586.553 318.058 586.034 318.74 584.998C319.421 583.947 319.762 582.406 319.762 580.375V578.757C319.762 576.726 319.421 575.192 318.74 574.156C318.058 573.105 317.028 572.579 315.651 572.579C314.273 572.579 313.244 573.105 312.562 574.156C311.881 575.192 311.54 576.726 311.54 578.757V580.375C311.54 582.406 311.881 583.947 312.562 584.998C313.244 586.034 314.273 586.553 315.651 586.553ZM330.553 587.256C328.934 587.256 327.699 586.638 326.847 585.402C326.009 584.167 325.59 582.222 325.59 579.566C325.59 576.911 326.009 574.965 326.847 573.73C327.699 572.494 328.934 571.877 330.553 571.877C332.172 571.877 333.4 572.494 334.238 573.73C335.09 574.965 335.516 576.911 335.516 579.566C335.516 582.222 335.09 584.167 334.238 585.402C333.4 586.638 332.172 587.256 330.553 587.256ZM330.553 586.553C331.931 586.553 332.96 586.034 333.642 584.998C334.323 583.947 334.664 582.406 334.664 580.375V578.757C334.664 576.726 334.323 575.192 333.642 574.156C332.96 573.105 331.931 572.579 330.553 572.579C329.176 572.579 328.146 573.105 327.464 574.156C326.783 575.192 326.442 576.726 326.442 578.757V580.375C326.442 582.406 326.783 583.947 327.464 584.998C328.146 586.034 329.176 586.553 330.553 586.553ZM345.455 587.256C343.836 587.256 342.601 586.638 341.749 585.402C340.911 584.167 340.492 582.222 340.492 579.566C340.492 576.911 340.911 574.965 341.749 573.73C342.601 572.494 343.836 571.877 345.455 571.877C347.074 571.877 348.302 572.494 349.14 573.73C349.992 574.965 350.418 576.911 350.418 579.566C350.418 582.222 349.992 584.167 349.14 585.402C348.302 586.638 347.074 587.256 345.455 587.256ZM345.455 586.553C346.833 586.553 347.862 586.034 348.544 584.998C349.225 583.947 349.566 582.406 349.566 580.375V578.757C349.566 576.726 349.225 575.192 348.544 574.156C347.862 573.105 346.833 572.579 345.455 572.579C344.078 572.579 343.048 573.105 342.367 574.156C341.685 575.192 341.344 576.726 341.344 578.757V580.375C341.344 582.406 341.685 583.947 342.367 584.998C343.048 586.034 344.078 586.553 345.455 586.553ZM364.319 572.835H357.482L356.992 579.609H357.077C357.489 579.069 357.965 578.686 358.504 578.458C359.058 578.217 359.733 578.096 360.528 578.096C361.877 578.096 362.935 578.494 363.702 579.289C364.483 580.07 364.873 581.171 364.873 582.591C364.873 583.301 364.767 583.947 364.554 584.529C364.341 585.097 364.035 585.587 363.638 585.999C363.24 586.396 362.757 586.709 362.189 586.936C361.621 587.149 360.989 587.256 360.294 587.256C359.2 587.256 358.284 587.057 357.546 586.659C356.807 586.247 356.19 585.665 355.693 584.913L356.31 584.487C356.765 585.182 357.304 585.701 357.929 586.041C358.554 586.382 359.342 586.553 360.294 586.553C361.501 586.553 362.424 586.219 363.063 585.552C363.716 584.87 364.042 583.982 364.042 582.889V582.399C364.042 581.306 363.73 580.432 363.105 579.779C362.495 579.112 361.593 578.778 360.4 578.778C359.974 578.778 359.598 578.813 359.271 578.884C358.944 578.941 358.646 579.034 358.376 579.161C358.121 579.275 357.887 579.424 357.674 579.609C357.461 579.779 357.248 579.985 357.035 580.226L356.31 580.12L356.843 572.132H364.319V572.835Z" fill="#FFFAEE"/>
<path d="M279.598 571.905H289.375V574.355H282.537V578.168H288.885V580.617H282.537V584.515H289.481V586.965H279.598V571.905Z" fill="#FFFAEE"/>
<path d="M387.596 585.048L392.644 579.893C393.141 579.382 393.56 578.942 393.901 578.572C394.242 578.189 394.497 577.82 394.668 577.465C394.852 577.11 394.944 576.719 394.944 576.293C394.944 575.512 394.753 574.958 394.369 574.632C394 574.305 393.468 574.142 392.772 574.142C392.019 574.142 391.472 574.319 391.132 574.674C390.805 575.029 390.613 575.612 390.557 576.421H387.724C387.724 575.484 387.937 574.66 388.363 573.95C388.789 573.24 389.385 572.686 390.152 572.289C390.919 571.891 391.813 571.692 392.836 571.692C393.83 571.692 394.696 571.884 395.434 572.267C396.187 572.651 396.769 573.19 397.181 573.886C397.607 574.568 397.82 575.37 397.82 576.293C397.82 576.904 397.706 577.479 397.479 578.019C397.252 578.544 396.89 579.105 396.393 579.701C395.896 580.298 395.236 581.008 394.412 581.831L390.876 585.367L390.578 584.515H397.99V586.965H387.617L387.596 585.048ZM404.618 587.178C403.269 587.178 402.175 586.873 401.337 586.262C400.514 585.637 399.917 584.75 399.548 583.599C399.179 582.435 398.994 581.043 398.994 579.424C398.994 577.806 399.186 576.421 399.569 575.271C399.953 574.121 400.556 573.24 401.38 572.629C402.218 572.005 403.297 571.692 404.618 571.692C405.953 571.692 407.032 572.005 407.855 572.629C408.693 573.24 409.304 574.121 409.687 575.271C410.071 576.421 410.262 577.806 410.262 579.424C410.262 581.043 410.071 582.435 409.687 583.599C409.304 584.75 408.7 585.637 407.877 586.262C407.053 586.873 405.967 587.178 404.618 587.178ZM404.618 584.728C405.583 584.728 406.286 584.331 406.726 583.535C407.181 582.726 407.408 581.356 407.408 579.424C407.408 577.493 407.181 576.13 406.726 575.335C406.286 574.539 405.583 574.142 404.618 574.142C403.666 574.142 402.963 574.539 402.509 575.335C402.069 576.13 401.849 577.493 401.849 579.424C401.849 581.356 402.069 582.726 402.509 583.535C402.949 584.331 403.652 584.728 404.618 584.728Z" fill="#FFFAEE"/>
<path d="M553.787 580.396C549.419 576.296 536.086 565 521.786 565C507.486 565 494.056 576.285 489.64 580.39C488.787 581.183 488.787 582.539 489.64 583.332C494.056 587.437 507.494 598.722 521.786 598.722C536.079 598.722 549.419 587.426 553.787 583.325C554.631 582.533 554.631 581.188 553.787 580.396V580.396ZM530.102 590.325C527.859 592.586 524.876 593.831 521.703 593.831C518.531 593.831 515.548 592.586 513.304 590.325C511.061 588.064 509.825 585.058 509.825 581.861C509.825 578.664 511.061 575.658 513.304 573.397C515.548 571.137 518.531 569.891 521.703 569.891C524.876 569.891 527.859 571.137 530.102 573.397C532.345 575.658 533.581 578.664 533.581 581.861C533.581 585.058 532.345 588.064 530.102 590.325Z" fill="#FFFAEE"/>
<ellipse cx="527.78" cy="574.106" rx="3.7094" ry="3.7094" fill="#FFFAEE"/>
<path d="M680.555 558.772H711.644C714.376 558.772 716.6 560.996 716.6 563.728V594.816C716.6 597.549 714.376 599.772 711.644 599.772H680.556C677.823 599.772 675.6 597.549 675.6 594.816V563.728C675.6 560.995 677.823 558.772 680.556 558.772H680.555ZM711.644 561.58H680.556C679.371 561.58 678.408 562.544 678.408 563.728V573.238H699.003L690.37 565.216H694.497L704.633 574.639L695.662 582.982H713.792V563.728C713.792 562.544 712.828 561.58 711.644 561.58ZM680.555 596.965H711.644C712.828 596.965 713.792 596.001 713.792 594.817V585.789H695.51L704.142 593.812H700.016L689.88 584.388L698.85 576.046H678.407V594.816C678.407 596.001 679.371 596.965 680.555 596.965L680.555 596.965Z" fill="#FFFAEE"/>
<path d="M614.693 559C600.525 559 589 568.306 589 579.753C589 591.2 600.525 600.506 614.693 600.506C628.862 600.506 640.387 591.2 640.387 579.753C640.387 568.306 628.862 559 614.693 559ZM613.558 562.387V570.16C611.254 570.127 609.022 569.99 606.921 569.768C609.087 566.512 611.796 563.908 613.558 562.387ZM613.558 572.294V578.689H603.527C603.723 576.242 604.558 573.906 605.713 571.778C608.18 572.085 610.83 572.261 613.564 572.3L613.558 572.294ZM613.558 580.817V587.212C610.823 587.252 608.174 587.428 605.707 587.735C604.558 585.607 603.716 583.271 603.527 580.823H613.558V580.817ZM613.558 589.34V597.119C611.796 595.599 609.081 592.995 606.914 589.738C609.016 589.51 611.254 589.373 613.558 589.34ZM615.835 597.113V589.34C618.12 589.373 620.352 589.516 622.466 589.751C620.299 593.001 617.597 595.599 615.835 597.119V597.113ZM615.835 587.206V580.81H625.866C625.67 583.264 624.835 585.6 623.68 587.728C621.213 587.421 618.57 587.239 615.835 587.199V587.206ZM615.835 578.683V572.287C618.57 572.248 621.213 572.065 623.68 571.759C624.835 573.886 625.677 576.229 625.866 578.676H615.835V578.683ZM615.835 570.16V562.387C617.597 563.908 620.299 566.505 622.466 569.755C620.352 569.99 618.12 570.127 615.835 570.166V570.16ZM617.969 561.317C623.712 561.956 628.796 564.267 632.418 567.601C630.408 568.372 627.837 568.991 624.946 569.429C622.786 565.924 619.986 563.098 617.969 561.317ZM604.434 569.448C601.543 569.011 598.985 568.391 596.955 567.614C600.577 564.267 605.668 561.956 611.424 561.31C609.407 563.098 606.601 565.931 604.441 569.442L604.434 569.448ZM603.331 571.432C602.215 573.658 601.413 576.098 601.236 578.683H591.317C591.565 575.211 593.014 571.994 595.337 569.285C597.471 570.186 600.205 570.917 603.331 571.432ZM601.236 580.817C601.413 583.401 602.215 585.842 603.331 588.067C600.212 588.583 597.477 589.307 595.337 590.214C593.014 587.506 591.565 584.289 591.317 580.817H601.23H601.236ZM604.434 590.051C606.601 593.562 609.401 596.395 611.417 598.183C605.661 597.537 600.571 595.227 596.949 591.879C598.985 591.102 601.537 590.482 604.428 590.045L604.434 590.051ZM624.939 590.071C627.837 590.508 630.402 591.135 632.412 591.898C628.79 595.233 623.706 597.543 617.963 598.183C619.98 596.395 622.773 593.569 624.939 590.071ZM626.055 588.074C627.178 585.842 627.981 583.401 628.157 580.81H638.07C637.822 584.289 636.367 587.513 634.037 590.228C631.909 589.32 629.175 588.589 626.055 588.074ZM628.157 578.683C627.981 576.098 627.178 573.651 626.055 571.419C629.175 570.904 631.903 570.173 634.037 569.266C636.367 571.98 637.822 575.204 638.07 578.683H628.157Z" fill="#FFFAEE"/>
<path d="M780.919 599.835L780.972 593.563L785.903 593.51C787.389 593.494 788.425 591.866 788.608 590.471C788.9 588.229 788.658 586.023 788.497 583.662C789.732 583.237 791.025 582.769 792.128 582.115C793.107 581.535 793.226 580.509 792.663 579.601C791.205 576.868 789.807 574.239 788.821 571.288C788.79 566.745 787.584 562.426 784.694 558.895C779.495 552.542 770.665 550.343 763.018 553.29C758.641 554.975 755.516 558.236 753.751 562.483C750.193 571.057 752.293 579.117 757.917 586.296L758.814 596.652C758.931 598.008 760.749 599.121 761.859 599.754C766.999 602.678 775.526 603.079 780.917 599.835H780.919ZM778.615 592.694L778.6 598.498C773.399 600.689 764.802 600.21 761.022 596.091L760.212 585.441C754.814 578.754 752.572 571.403 755.967 563.262C757.365 559.912 759.716 557.288 763.109 555.772C770.442 552.495 779.212 554.882 783.725 561.512C785.771 564.518 786.32 567.815 786.577 571.403C786.675 572.759 787.418 574.394 788.02 575.595L790.457 580.446L787.083 581.616C786.514 581.812 786.102 582.337 786.138 582.991L786.447 588.533C786.495 589.404 786.238 590.333 785.898 591.219L780.353 591.209C779.385 591.209 778.615 591.448 778.612 592.696L778.615 592.694Z" fill="#FFFAEE"/>
<path d="M649.976 470.066C648.439 470.066 647.067 469.747 645.861 469.108C644.654 468.47 643.696 467.559 642.987 466.376C642.301 465.194 641.958 463.786 641.958 462.154C641.958 460.522 642.301 459.115 642.987 457.933C643.696 456.75 644.654 455.851 645.861 455.236C647.067 454.598 648.439 454.278 649.976 454.278C651.513 454.278 652.885 454.598 654.091 455.236C655.298 455.851 656.244 456.75 656.93 457.933C657.639 459.115 657.994 460.522 657.994 462.154C657.994 463.786 657.639 465.194 656.93 466.376C656.244 467.559 655.298 468.47 654.091 469.108C652.885 469.747 651.513 470.066 649.976 470.066ZM649.976 468.257C651.679 468.257 653.11 467.736 654.269 466.696C655.428 465.655 656.007 464.141 656.007 462.154C656.007 460.191 655.428 458.678 654.269 457.613C653.11 456.549 651.679 456.017 649.976 456.017C648.249 456.017 646.807 456.549 645.648 457.613C644.489 458.678 643.909 460.191 643.909 462.154C643.909 463.479 644.169 464.602 644.69 465.525C645.234 466.424 645.967 467.11 646.889 467.583C647.812 468.032 648.841 468.257 649.976 468.257ZM646.925 458.181H648.628V466.093H646.925V458.181ZM647.954 458.181H650.402C650.898 458.181 651.371 458.252 651.821 458.394C652.294 458.512 652.672 458.76 652.956 459.139C653.24 459.494 653.382 460.014 653.382 460.7C653.382 461.409 653.24 461.953 652.956 462.332C652.672 462.687 652.294 462.935 651.821 463.077C651.371 463.195 650.898 463.254 650.402 463.254H647.954V461.764H650.26C650.733 461.764 651.088 461.705 651.324 461.587C651.561 461.445 651.679 461.149 651.679 460.7C651.679 460.227 651.561 459.931 651.324 459.813C651.088 459.695 650.733 459.635 650.26 459.635H647.954V458.181ZM649.799 462.367H651.573L653.701 466.093H651.856L649.799 462.367Z" fill="#FFFAEE"/>
<path d="M289 628L297 636L289 644" stroke="#FFFAEE" stroke-width="2"/>
<path d="M309 631V626.25C309 622.798 306.202 620 302.75 620H283.25C279.798 620 277 622.798 277 626.25V629.75C277 633.202 279.798 636 283.25 636H295" stroke="#FFFAEE" stroke-width="2" stroke-linecap="round"/>
<path d="M356.996 625.92C356.86 624.87 356.394 624.141 355.598 623.735C354.818 623.328 353.785 623.125 352.497 623.125C351.023 623.125 349.93 623.413 349.219 623.989C348.507 624.548 348.151 625.378 348.151 626.48C348.151 627.123 348.27 627.649 348.507 628.055C348.761 628.462 349.083 628.792 349.473 629.046C349.863 629.284 350.278 629.478 350.718 629.631C351.159 629.766 351.565 629.885 351.938 629.987L353.895 630.52C354.386 630.656 354.92 630.825 355.496 631.029C356.072 631.232 356.614 631.512 357.123 631.867C357.648 632.223 358.071 632.681 358.393 633.24C358.715 633.799 358.876 634.494 358.876 635.324C358.876 636.273 358.648 637.128 358.19 637.891C357.733 638.653 357.029 639.255 356.081 639.695C355.132 640.119 353.92 640.33 352.446 640.33C350.481 640.33 348.973 639.932 347.923 639.136C346.872 638.34 346.279 637.264 346.144 635.908H347.719C347.821 636.722 348.084 637.348 348.507 637.789C348.931 638.229 349.473 638.543 350.134 638.729C350.811 638.899 351.582 638.983 352.446 638.983C354.005 638.983 355.208 638.687 356.055 638.094C356.919 637.484 357.351 636.544 357.351 635.273C357.351 634.51 357.165 633.909 356.792 633.468C356.436 633.028 355.954 632.681 355.344 632.427C354.751 632.172 354.107 631.952 353.412 631.766L350.972 631.105C349.583 630.715 348.507 630.173 347.745 629.478C346.999 628.784 346.627 627.826 346.627 626.607C346.627 625.607 346.864 624.751 347.338 624.04C347.829 623.311 348.516 622.752 349.397 622.362C350.295 621.973 351.354 621.778 352.573 621.778C353.76 621.778 354.776 621.956 355.623 622.312C356.487 622.65 357.165 623.133 357.656 623.76C358.165 624.37 358.453 625.09 358.52 625.92H356.996ZM360.987 622.032H366.985C368.425 622.032 369.586 622.261 370.467 622.718C371.348 623.159 371.991 623.786 372.398 624.599C372.805 625.412 373.008 626.378 373.008 627.496C373.008 628.614 372.805 629.589 372.398 630.419C371.991 631.249 371.348 631.893 370.467 632.35C369.603 632.808 368.459 633.036 367.036 633.036H362.512V640H360.987V622.032ZM366.934 631.715C368.12 631.715 369.043 631.545 369.704 631.207C370.365 630.851 370.822 630.359 371.077 629.733C371.348 629.089 371.483 628.343 371.483 627.496C371.483 626.632 371.348 625.895 371.077 625.285C370.822 624.658 370.365 624.184 369.704 623.862C369.043 623.523 368.103 623.354 366.883 623.354H362.512V631.715H366.934ZM379.338 623.989H379.237L373.595 640H372.045L378.474 622.032H380.203L386.607 640H384.98L379.338 623.989ZM383.43 634.612H375.221V633.291H383.43V634.612ZM399.537 627.242C399.317 625.87 398.766 624.845 397.885 624.167C397.021 623.489 395.869 623.15 394.429 623.15C392.531 623.15 391.057 623.794 390.007 625.082C388.973 626.369 388.456 628.335 388.456 630.978C388.456 633.638 388.973 635.62 390.007 636.925C391.057 638.213 392.531 638.856 394.429 638.856C395.869 638.856 397.021 638.517 397.885 637.84C398.766 637.162 399.325 636.145 399.563 634.79H401.164C400.876 636.569 400.164 637.924 399.029 638.856C397.894 639.788 396.36 640.254 394.429 640.254C391.921 640.254 390.041 639.449 388.787 637.84C387.55 636.213 386.932 633.926 386.932 630.978C386.932 628.047 387.55 625.785 388.787 624.192C390.041 622.583 391.921 621.778 394.429 621.778C395.632 621.778 396.699 621.981 397.631 622.388C398.58 622.794 399.351 623.404 399.944 624.218C400.554 625.031 400.952 626.039 401.138 627.242H399.537ZM403.802 622.032H413.917V623.354H405.327V630.343H413.333V631.664H405.327V638.678H414.044V640H403.802V622.032ZM427.433 622.032H433.634C434.922 622.032 435.955 622.235 436.735 622.642C437.531 623.032 438.107 623.582 438.463 624.294C438.819 625.005 438.996 625.819 438.996 626.734C438.996 627.53 438.827 628.208 438.488 628.767C438.149 629.309 437.717 629.741 437.192 630.063C436.684 630.368 436.158 630.563 435.616 630.647V630.8C436.074 630.817 436.54 630.927 437.014 631.13C437.488 631.317 437.929 631.596 438.336 631.969C438.759 632.342 439.098 632.808 439.352 633.367C439.606 633.909 439.733 634.553 439.733 635.298C439.733 636.23 439.539 637.052 439.149 637.764C438.776 638.458 438.158 639.009 437.294 639.415C436.446 639.805 435.294 640 433.837 640H427.433V622.032ZM433.812 638.678C435.015 638.678 435.93 638.526 436.557 638.221C437.184 637.899 437.607 637.476 437.827 636.95C438.065 636.425 438.183 635.866 438.183 635.273C438.183 634.578 438.039 633.951 437.751 633.392C437.48 632.816 437.031 632.359 436.404 632.02C435.794 631.681 434.972 631.512 433.939 631.512H428.958V638.678H433.812ZM433.532 630.19C434.888 630.19 435.879 629.885 436.506 629.275C437.15 628.648 437.472 627.81 437.472 626.759C437.472 626.149 437.37 625.59 437.167 625.082C436.963 624.557 436.582 624.141 436.023 623.836C435.481 623.515 434.684 623.354 433.634 623.354H428.958V630.19H433.532ZM442.077 622.032H452.192V623.354H443.602V630.343H451.607V631.664H443.602V638.678H452.319V640H442.077V622.032ZM455.158 622.032L460.597 631.181H460.724L466.162 622.032H467.814L461.385 632.503V640H459.936V632.503L453.404 622.032H455.158ZM482.82 631.003C482.82 633.968 482.176 636.256 480.888 637.865C479.618 639.458 477.745 640.254 475.272 640.254C472.798 640.254 470.917 639.458 469.63 637.865C468.359 636.256 467.724 633.968 467.724 631.003C467.724 628.038 468.359 625.759 469.63 624.167C470.917 622.574 472.798 621.778 475.272 621.778C477.745 621.778 479.618 622.574 480.888 624.167C482.176 625.759 482.82 628.038 482.82 631.003ZM481.295 631.003C481.295 628.309 480.795 626.327 479.795 625.056C478.813 623.786 477.305 623.15 475.272 623.15C473.239 623.15 471.722 623.786 470.723 625.056C469.74 626.327 469.248 628.309 469.248 631.003C469.248 633.697 469.74 635.688 470.723 636.976C471.722 638.246 473.239 638.882 475.272 638.882C477.305 638.882 478.813 638.246 479.795 636.976C480.795 635.688 481.295 633.697 481.295 631.003ZM498.957 640H497.254L487.215 624.573H487.012V640H485.513V622.032H487.241L497.254 637.433H497.458V622.032H498.957V640ZM502.415 640V622.032H507.981C510.59 622.032 512.564 622.794 513.903 624.319C515.241 625.844 515.91 628.072 515.91 631.003C515.91 633.917 515.224 636.145 513.852 637.687C512.496 639.229 510.455 640 507.727 640H502.415ZM507.6 638.678C509.311 638.678 510.658 638.373 511.641 637.764C512.623 637.137 513.327 636.247 513.75 635.095C514.174 633.943 514.385 632.579 514.385 631.003C514.385 629.411 514.174 628.047 513.75 626.912C513.344 625.759 512.657 624.878 511.692 624.268C510.743 623.659 509.447 623.354 507.803 623.354H503.94V638.678H507.6ZM530.649 622.032L537.257 637.433H537.435L544.043 622.032H545.568V640H544.094V625.666H543.966L537.74 640H536.876L530.649 625.666H530.548V640H529.074V622.032H530.649ZM553.061 640H551.536V622.032H553.061V640ZM548.766 623.354V622.032H555.806V623.354H548.766ZM548.766 640V638.678H555.806V640H548.766ZM572.451 640H570.749L560.71 624.573H560.507V640H559.007V622.032H560.735L570.749 637.433H570.952V622.032H572.451V640ZM579.942 640H578.417V622.032H579.942V640ZM575.647 623.354V622.032H582.686V623.354H575.647ZM575.647 640V638.678H582.686V640H575.647ZM587.463 622.032L594.071 637.433H594.249L600.857 622.032H602.382V640H600.908V625.666H600.781L594.554 640H593.69L587.463 625.666H587.362V640H585.888V622.032H587.463ZM611.536 623.989H611.434L605.792 640H604.242L610.672 622.032H612.4L618.804 640H617.178L611.536 623.989ZM615.628 634.612H607.419V633.291H615.628V634.612ZM620.661 622.032H622.186V638.678H630.75V640H620.661V622.032Z" fill="#FFFAEE"/>
<path d="M345 631.918H631.411V633.646H345V631.918Z" fill="#FFFAEE"/>
<path d="M702.364 624.156L695.873 633.453L695.625 632.899H704.98V633.892H694.957V632.937L701.639 623.411H703.09V636.908H701.963V624.022L702.364 624.156ZM710.733 637.099C709.855 637.099 709.085 636.965 708.423 636.698C707.774 636.431 707.265 636.024 706.896 635.476C706.527 634.929 706.317 634.242 706.266 633.415H707.507C707.532 634.013 707.678 634.515 707.946 634.923C708.226 635.317 708.601 635.616 709.072 635.82C709.543 636.011 710.103 636.106 710.752 636.106C711.745 636.106 712.546 635.839 713.157 635.305C713.768 634.757 714.074 633.975 714.074 632.956C714.074 631.976 713.775 631.213 713.176 630.666C712.591 630.118 711.77 629.845 710.714 629.845H709.225L709.206 629.024L713.806 623.965L713.902 624.404H706.819V623.411H714.895V624.327L710.485 629.157V628.871C711.426 628.858 712.203 628.979 712.814 629.234C713.425 629.476 713.902 629.806 714.246 630.226C714.602 630.634 714.85 631.079 714.99 631.563C715.143 632.034 715.219 632.498 715.219 632.956C715.219 633.847 715.035 634.605 714.666 635.228C714.296 635.839 713.775 636.304 713.1 636.622C712.438 636.94 711.649 637.099 710.733 637.099ZM723.213 630.723L726.726 636.908H725.447L722.068 630.933L723.213 630.723ZM721.724 630.36C722.628 630.36 723.328 630.246 723.824 630.016C724.32 629.787 724.67 629.45 724.874 629.005C725.078 628.559 725.179 628.012 725.179 627.363C725.179 626.701 725.078 626.154 724.874 625.721C724.67 625.288 724.32 624.964 723.824 624.747C723.328 624.518 722.628 624.404 721.724 624.404H718.44V630.36H721.724ZM721.819 631.353H718.44V636.908H717.295V623.411H721.8C722.895 623.411 723.773 623.57 724.435 623.888C725.097 624.194 725.574 624.639 725.867 625.225C726.172 625.81 726.325 626.523 726.325 627.363C726.325 628.025 726.255 628.604 726.115 629.1C725.975 629.596 725.733 630.016 725.389 630.36C725.046 630.691 724.581 630.939 723.996 631.105C723.423 631.27 722.698 631.353 721.819 631.353ZM732.99 631.372H727.835V630.379H732.99V631.372ZM739.016 637.099C737.908 637.099 737.005 636.851 736.305 636.355C735.618 635.845 735.115 635.082 734.797 634.064C734.478 633.033 734.319 631.728 734.319 630.15C734.319 628.572 734.478 627.274 734.797 626.256C735.128 625.237 735.637 624.48 736.324 623.984C737.024 623.475 737.921 623.22 739.016 623.22C740.123 623.22 741.02 623.475 741.708 623.984C742.408 624.48 742.917 625.237 743.235 626.256C743.566 627.274 743.731 628.572 743.731 630.15C743.731 631.716 743.566 633.014 743.235 634.045C742.917 635.075 742.408 635.845 741.708 636.355C741.02 636.851 740.123 637.099 739.016 637.099ZM739.016 636.106C740.314 636.106 741.237 635.616 741.784 634.636C742.331 633.656 742.605 632.161 742.605 630.15C742.605 628.139 742.331 626.65 741.784 625.683C741.237 624.703 740.314 624.213 739.016 624.213C737.73 624.213 736.814 624.703 736.267 625.683C735.719 626.65 735.446 628.139 735.446 630.15C735.446 632.161 735.713 633.656 736.248 634.636C736.795 635.616 737.718 636.106 739.016 636.106ZM749.569 637.099C748.461 637.099 747.558 636.851 746.858 636.355C746.17 635.845 745.668 635.082 745.35 634.064C745.031 633.033 744.872 631.728 744.872 630.15C744.872 628.572 745.031 627.274 745.35 626.256C745.68 625.237 746.19 624.48 746.877 623.984C747.577 623.475 748.474 623.22 749.569 623.22C750.676 623.22 751.573 623.475 752.26 623.984C752.96 624.48 753.469 625.237 753.788 626.256C754.119 627.274 754.284 628.572 754.284 630.15C754.284 631.716 754.119 633.014 753.788 634.045C753.469 635.075 752.96 635.845 752.26 636.355C751.573 636.851 750.676 637.099 749.569 637.099ZM749.569 636.106C750.867 636.106 751.789 635.616 752.337 634.636C752.884 633.656 753.158 632.161 753.158 630.15C753.158 628.139 752.884 626.65 752.337 625.683C751.789 624.703 750.867 624.213 749.569 624.213C748.283 624.213 747.367 624.703 746.82 625.683C746.272 626.65 745.999 628.139 745.999 630.15C745.999 632.161 746.266 633.656 746.8 634.636C747.348 635.616 748.27 636.106 749.569 636.106ZM762.699 624.156L756.208 633.453L755.96 632.899H765.314V633.892H755.292V632.937L761.973 623.411H763.424V636.908H762.298V624.022L762.699 624.156ZM771.048 637.099C770.183 637.099 769.432 636.965 768.795 636.698C768.159 636.418 767.663 636.017 767.306 635.495C766.95 634.974 766.746 634.344 766.695 633.605H767.86C767.911 634.433 768.216 635.056 768.776 635.476C769.336 635.896 770.094 636.106 771.048 636.106C772.181 636.106 773.008 635.795 773.53 635.171C774.064 634.535 774.332 633.752 774.332 632.823C774.332 632.199 774.224 631.639 774.007 631.143C773.804 630.634 773.466 630.233 772.995 629.94C772.524 629.635 771.894 629.482 771.105 629.482C770.418 629.469 769.826 629.596 769.33 629.864C768.846 630.118 768.458 630.481 768.165 630.952H766.963L767.86 623.411H774.809V624.404H768.853L768.223 629.768H768.28C768.535 629.361 768.904 629.049 769.387 628.833C769.871 628.604 770.412 628.489 771.01 628.489C771.99 628.489 772.804 628.68 773.454 629.062C774.115 629.444 774.612 629.959 774.943 630.608C775.286 631.245 775.458 631.97 775.458 632.785C775.458 633.625 775.28 634.369 774.924 635.018C774.567 635.667 774.058 636.176 773.396 636.545C772.747 636.915 771.964 637.099 771.048 637.099ZM781.431 637.099C779.815 637.099 778.631 636.775 777.881 636.125C777.142 635.476 776.773 634.573 776.773 633.415C776.786 632.791 776.901 632.231 777.117 631.735C777.346 631.238 777.664 630.831 778.071 630.513C778.491 630.195 778.969 629.991 779.503 629.902V629.826C778.803 629.647 778.256 629.285 777.861 628.737C777.48 628.177 777.289 627.503 777.289 626.714C777.289 626.039 777.435 625.441 777.728 624.919C778.033 624.385 778.491 623.971 779.102 623.678C779.726 623.373 780.502 623.22 781.431 623.22C782.361 623.22 783.131 623.373 783.741 623.678C784.352 623.971 784.804 624.385 785.097 624.919C785.402 625.441 785.549 626.039 785.536 626.714C785.523 627.49 785.326 628.158 784.944 628.718C784.562 629.278 784.021 629.647 783.321 629.826V629.902C783.856 629.991 784.333 630.195 784.753 630.513C785.173 630.831 785.498 631.238 785.727 631.735C785.969 632.231 786.09 632.791 786.09 633.415C786.09 634.191 785.924 634.853 785.593 635.4C785.262 635.947 784.753 636.367 784.066 636.66C783.379 636.953 782.501 637.099 781.431 637.099ZM781.431 636.106C782.653 636.106 783.551 635.852 784.123 635.343C784.696 634.834 784.982 634.14 784.982 633.262C784.982 632.396 784.677 631.709 784.066 631.2C783.455 630.691 782.577 630.436 781.431 630.436C780.273 630.436 779.389 630.691 778.778 631.2C778.18 631.709 777.881 632.396 777.881 633.262C777.881 634.14 778.167 634.834 778.74 635.343C779.312 635.852 780.21 636.106 781.431 636.106ZM781.431 629.444C782.424 629.444 783.175 629.215 783.684 628.756C784.206 628.286 784.467 627.649 784.467 626.847C784.467 626.033 784.212 625.39 783.703 624.919C783.207 624.448 782.45 624.213 781.431 624.213C780.401 624.213 779.637 624.448 779.141 624.919C778.644 625.39 778.396 626.033 778.396 626.847C778.396 627.649 778.651 628.286 779.16 628.756C779.669 629.215 780.426 629.444 781.431 629.444ZM791.967 637.099C791.102 637.099 790.351 636.965 789.715 636.698C789.078 636.418 788.582 636.017 788.226 635.495C787.869 634.974 787.666 634.344 787.615 633.605H788.779C788.83 634.433 789.136 635.056 789.696 635.476C790.256 635.896 791.013 636.106 791.967 636.106C793.1 636.106 793.927 635.795 794.449 635.171C794.984 634.535 795.251 633.752 795.251 632.823C795.251 632.199 795.143 631.639 794.927 631.143C794.723 630.634 794.386 630.233 793.915 629.94C793.444 629.635 792.814 629.482 792.025 629.482C791.337 629.469 790.746 629.596 790.249 629.864C789.766 630.118 789.377 630.481 789.085 630.952H787.882L788.779 623.411H795.728V624.404H789.772L789.142 629.768H789.199C789.454 629.361 789.823 629.049 790.307 628.833C790.79 628.604 791.331 628.489 791.929 628.489C792.909 628.489 793.724 628.68 794.373 629.062C795.035 629.444 795.531 629.959 795.862 630.608C796.206 631.245 796.377 631.97 796.377 632.785C796.377 633.625 796.199 634.369 795.843 635.018C795.487 635.667 794.977 636.176 794.316 636.545C793.667 636.915 792.884 637.099 791.967 637.099Z" fill="#FFFAEE"/>
<rect x="676.282" y="617.282" width="139.754" height="26.4856" rx="13.2428" stroke="#FFFAEE" stroke-width="0.563524"/>
<defs>
<clipPath id="clip0_113_467">
<rect width="529" height="24.0001" fill="white" transform="matrix(-1 -8.74228e-08 -8.74228e-08 1 807 520)"/>
</clipPath>
</defs>
</svg>
